<?xml  version="1.0" encoding="windows-1251"?>
<svg color="Col_BGSand" xmlns="http://www.w3.org/2000/svg" xmlns:rt="http://www.rts.co.at/2001/XMLSchema/RtSvgPL" xmlns:xlink="http://www.w3.org/1999/xlink" xmlns:xsi="http://www.w3.org/2001/XMLSchema-instance" xsi:schemaLocation="http://www.w3.org/2000/svg C:\RTS\RtSvg\XML\SVG.xsd" viewBox="0 0 1914 1000" width="1914" height="1000" id="00bcg" stroke="black">
  <rt:model modelversion="7.2.0.24" comment="Создано VNIIAES-ASUTP\ermolova 01.07.2014 12:20:46" revision="2.0"/> 
  <line x1="1444" y1="630.667" x2="1444" y2="537.333" stroke="black" stroke-width="2"/> 
  <line x1="1444" y1="525" x2="1444" y2="450" stroke="black" stroke-width="2"/> 
  <line x1="164" y1="361.735" x2="164" y2="450" stroke="black" stroke-width="2"/> 
  <line x1="25" y1="450" x2="1750" y2="450" stroke="black" stroke-width="3"/> 
  <line x1="164" y1="75" x2="164" y2="138.499" stroke="black" stroke-width="2"/> 
  <rect x="1436" y="566.667" width="15" height="25" rx="0" ry="0" fill="none" stroke="black" stroke-width="2"/> 
  <image x="1825" y="395" width="55" height="30" xlink:href="DS_AVR.svg">
    <title>00BCG01CH001</title>
    <rt:dyn type="KKS" mode="constant" value="&quot;00BCG01CH001&quot;"/> 
    <rt:dyn type="DATA_NARY" mode="constant" value="&quot;TYPE1&quot;"/> 
    <rt:dyn type="Operate" mode="constant" value="true"/> 
  </image>
  <text x="222.612" y="150" fill="black" font-size="15" text-anchor="middle">10BCC04<tspan x="222.612" dy="15">GS004</tspan>
  </text>
  <text x="885.333" y="38.3333" fill="black" font-size="26" text-anchor="middle">Собственные нужды вспомогательных сооружений<tspan x="885.333" dy="26">00BCG</tspan>
  </text>
  <image x="214" y="81" width="175" height="25" xlink:href="DS_ana.svg">
    <title>10BCC00GT601_XQ10</title>
    <rt:dyn type="FName" mode="constant" value="true"/> 
    <rt:dyn type="ShowFrame" mode="constant" value="true"/> 
    <rt:dyn type="Color_Readings" mode="constant" value="true"/> 
    <rt:dyn type="X" mode="constant" value="&quot;U&quot;"/> 
    <rt:dyn type="FKKS" mode="constant" value="&quot;10BCC00GT601_XQ10&quot;"/> 
    <rt:dyn type="ValueToTheRight" mode="constant" value="false"/> 
  </image>
  <line x1="114" y1="75" x2="214" y2="75" stroke="black" stroke-width="3"/> 
  <text x="252.633" y="75" fill="black" font-size="15" text-anchor="middle">10BCC</text>
  <line x1="164" y1="175" x2="164" y2="325" stroke="black" stroke-width="2"/> 
  <image x="112.75" y="128.75" width="95" height="57.5" xlink:href="DS_breaker.svg" transform="rotate(270 17.5 -3.75)">
    <title>10BCC04GS004</title>
    <rt:dyn type="Operate" mode="constant" value="true"/> 
    <rt:dyn type="HasTray" mode="constant" value="true"/> 
    <rt:dyn type="KKS" mode="constant" value="&quot;10BCC04GS004&quot;"/> 
    <rt:dyn type="DATA_NARY" mode="constant" value="&quot;TYPE1&quot;"/> 
  </image>
  <image x="113" y="317.5" width="95" height="57.5" xlink:href="DS_breaker.svg" transform="rotate(270 17.5 -3.75)">
    <title>00BCG18GS001</title>
    <rt:dyn type="Operate" mode="constant" value="true"/> 
    <rt:dyn type="HasTray" mode="constant" value="true"/> 
    <rt:dyn type="KKS" mode="constant" value="&quot;00BCG18GS001&quot;"/> 
    <rt:dyn type="DATA_NARY" mode="constant" value="&quot;TYPE1&quot;"/> 
  </image>
  <text x="222.469" y="350" fill="black" font-size="15" text-anchor="middle">00BCG18<tspan x="222.469" dy="15">GS001</tspan>
  </text>
  <image x="114" y="400" width="175" height="25" xlink:href="DS_ana.svg">
    <title>00BCG18GS001_XQ01</title>
    <rt:dyn type="FName" mode="constant" value="true"/> 
    <rt:dyn type="ShowFrame" mode="constant" value="true"/> 
    <rt:dyn type="Color_Readings" mode="constant" value="true"/> 
    <rt:dyn type="X" mode="constant" value="&quot;I&quot;"/> 
    <rt:dyn type="FKKS" mode="constant" value="&quot;00BCG18GS001_XQ01&quot;"/> 
    <rt:dyn type="ValueToTheRight" mode="constant" value="false"/> 
  </image>
  <image x="1725" y="475" width="175" height="25" xlink:href="DS_ana.svg">
    <title>00BCG00GT601_XQ10</title>
    <rt:dyn type="FName" mode="constant" value="true"/> 
    <rt:dyn type="ShowFrame" mode="constant" value="true"/> 
    <rt:dyn type="Color_Readings" mode="constant" value="true"/> 
    <rt:dyn type="X" mode="constant" value="&quot;U&quot;"/> 
    <rt:dyn type="FKKS" mode="constant" value="&quot;00BCG00GT601_XQ10&quot;"/> 
    <rt:dyn type="ValueToTheRight" mode="constant" value="false"/> 
  </image>
  <g>
    <g>
      <circle cx="3008.56" cy="177.957" r="26.6666" fill="Col_Grey2" stroke="none" stroke-width="2" transform="flipY() translate(0 -828) translate(-830.09 15.1779) scale(0.75 0.75)"/> 
      <circle cx="3053.9" cy="177.957" r="26.6666" fill="Col_Grey2" stroke="none" stroke-width="2" transform="flipY() translate(0 -828) translate(-830.09 15.1779) scale(0.75 0.75)"/> 
      <circle cx="3032.57" cy="217.957" r="26.6666" fill="Col_Grey2" stroke="black" stroke-width="2" transform="flipY() translate(0 -828) translate(-830.09 15.1779) scale(0.75 0.75)"/> 
      <circle cx="3032.24" cy="141.098" r="26.6666" fill="Col_Grey2" stroke="black" stroke-width="2" transform="flipY() translate(0 -828) translate(-830.09 15.1779) scale(0.75 0.75)"/> 
      <line x1="1444" y1="715.998" x2="1444" y2="704.998" stroke="black" stroke-width="2"/> 
      <line x1="1444" y1="705.998" x2="1451.5" y2="698.998" stroke="black" stroke-width="2"/> 
      <line x1="140.849" y1="705.998" x2="148.349" y2="698.998" stroke="black" stroke-width="2" transform="flipX(792.432)"/> 
      <circle cx="3008.56" cy="177.957" r="26.6666" fill="none" stroke="black" stroke-width="2" transform="flipY() translate(0 -828) translate(-830.09 15.1779) scale(0.75 0.75)"/> 
      <line x1="1444.25" y1="658.354" x2="1444.25" y2="647.354" stroke="black" stroke-width="2"/> 
      <line x1="1444.25" y1="648.354" x2="1451.75" y2="641.354" stroke="black" stroke-width="2"/> 
      <line x1="140.6" y1="648.354" x2="148.1" y2="641.354" stroke="black" stroke-width="2" transform="flipX(792.432)"/> 
      <circle cx="3053.9" cy="177.957" r="26.6666" fill="none" stroke="black" stroke-width="2" transform="flipY() translate(0 -828) translate(-830.09 15.1779) scale(0.75 0.75)"/> 
      <polygon points="1450.81,685.334 1460.21,668.334 1469.61,685.434" fill="none" stroke="black" stroke-width="2"/> 
      <g>
        <line x1="1427.11" y1="691.354" x2="1427.11" y2="680.354" stroke="black" stroke-width="2"/> 
        <line x1="1427.11" y1="681.354" x2="1434.61" y2="674.354" stroke="black" stroke-width="2"/> 
        <line x1="157.744" y1="681.354" x2="165.244" y2="674.354" stroke="black" stroke-width="2" transform="flipX(792.432)"/> 
      </g>
      <rect x="1456.68" y="665.668" width="14.6667" height="8.99957" rx="0" ry="0" fill="Col_Grey2" stroke="none"/> 
      <rect x="1454.35" y="670.001" width="8.00342" height="4.99939" rx="0" ry="0" fill="Col_Grey2" stroke="none"/> 
    </g>
    <line x1="1462.35" y1="675" x2="1487.35" y2="675" stroke="black" stroke-width="2"/> 
    <line x1="1487.35" y1="734.667" x2="1487.35" y2="647" stroke="black" stroke-width="2"/> 
    <line x1="1444.02" y1="648" x2="1487.35" y2="648" stroke="black" stroke-width="2"/> 
    <line x1="1401.02" y1="705.667" x2="1444.35" y2="705.667" stroke="black" stroke-width="2"/> 
    <line x1="1400.69" y1="768.667" x2="1400.69" y2="681" stroke="black" stroke-width="2"/> 
    <line x1="1400.35" y1="734" x2="1487.35" y2="734" stroke="black" stroke-width="2"/> 
    <line x1="1399.69" y1="681" x2="1428.35" y2="681" stroke="black" stroke-width="2"/> 
    <g stroke="black" stroke-width="2">
      <line x1="1388.35" y1="769" x2="1414.35" y2="769"/> 
      <line x1="1392.35" y1="774" x2="1410.35" y2="774"/> 
      <line x1="1397.35" y1="779" x2="1405.35" y2="779"/> 
    </g>
    <text x="1447.1" y="764" fill="black" font-size="15" text-anchor="middle">00BCG00<tspan x="1447.1" dy="15">GT601</tspan>
    </text>
  </g>
  <line x1="1519" y1="500" x2="1444" y2="500" stroke="black" stroke-width="2"/> 
  <g>
    <polygon points="750.954,617.87 743.31,622.97 743.31,628.06 750.954,622.97 758.598,628.06 758.598,622.97 750.954,617.87" fill="black" stroke="black" stroke-width="1" transform="flipY() translate(0 -828) translate(693.046 912.06) matrix(1 0 0 -1 0 0)"/> 
    <polygon points="750.954,609.06 743.31,614.16 743.31,619.25 750.954,614.16 758.598,619.25 758.598,614.16 750.954,609.06" fill="black" stroke="black" stroke-width="1" transform="flipY() translate(0 -828) translate(693.046 912.06) matrix(1 0 0 -1 0 0)"/> 
  </g>
  <line x1="1519" y1="500" x2="1519" y2="600" stroke="black" stroke-width="2"/> 
  <g stroke="black" stroke-width="2">
    <line x1="1506" y1="600" x2="1532" y2="600"/> 
    <line x1="1510" y1="605" x2="1528" y2="605"/> 
    <line x1="1515" y1="610" x2="1523" y2="610"/> 
  </g>
  <text x="1800" y="455" fill="black" font-size="15" text-anchor="middle">00BCG</text>
  <line x1="1676.22" y1="361.051" x2="1676.22" y2="449.316" stroke="black" stroke-width="2"/> 
  <line x1="1676.22" y1="74.3163" x2="1676.22" y2="137.815" stroke="black" stroke-width="2"/> 
  <text x="1734.84" y="149.316" fill="black" font-size="15" text-anchor="middle">20BCC04<tspan x="1734.84" dy="15">GS004</tspan>
  </text>
  <image x="1726.22" y="80.3163" width="175" height="25" xlink:href="DS_ana.svg">
    <title>20BCC00GT601_XQ10</title>
    <rt:dyn type="FName" mode="constant" value="true"/> 
    <rt:dyn type="ShowFrame" mode="constant" value="true"/> 
    <rt:dyn type="Color_Readings" mode="constant" value="true"/> 
    <rt:dyn type="X" mode="constant" value="&quot;U&quot;"/> 
    <rt:dyn type="FKKS" mode="constant" value="&quot;20BCC00GT601_XQ10&quot;"/> 
    <rt:dyn type="ValueToTheRight" mode="constant" value="false"/> 
  </image>
  <line x1="1626.22" y1="74.3163" x2="1726.22" y2="74.3163" stroke="black" stroke-width="3"/> 
  <text x="1764.86" y="74.3163" fill="black" font-size="15" text-anchor="middle">20BCC</text>
  <line x1="1676.22" y1="174.316" x2="1676.22" y2="324.316" stroke="black" stroke-width="2"/> 
  <image x="1624.97" y="128.066" width="95" height="57.5" xlink:href="DS_breaker.svg" transform="rotate(270 17.5 -3.75)">
    <title>20BCC04GS004</title>
    <rt:dyn type="Operate" mode="constant" value="true"/> 
    <rt:dyn type="HasTray" mode="constant" value="true"/> 
    <rt:dyn type="KKS" mode="constant" value="&quot;20BCC04GS004&quot;"/> 
    <rt:dyn type="DATA_NARY" mode="constant" value="&quot;TYPE1&quot;"/> 
  </image>
  <image x="1625.22" y="316.816" width="95" height="57.5" xlink:href="DS_breaker.svg" transform="rotate(270 17.5 -3.75)">
    <title>00BCG01GS002</title>
    <rt:dyn type="Operate" mode="constant" value="true"/> 
    <rt:dyn type="HasTray" mode="constant" value="true"/> 
    <rt:dyn type="KKS" mode="constant" value="&quot;00BCF01GS002&quot;"/> 
    <rt:dyn type="DATA_NARY" mode="constant" value="&quot;TYPE1&quot;"/> 
  </image>
  <text x="1734.69" y="349.316" fill="black" font-size="15" text-anchor="middle">00BCG01<tspan x="1734.69" dy="15">GS002</tspan>
  </text>
  <image x="1626.22" y="399.316" width="175" height="25" xlink:href="DS_ana.svg">
    <title>00BCG01GS002_XQ01</title>
    <rt:dyn type="FName" mode="constant" value="true"/> 
    <rt:dyn type="ShowFrame" mode="constant" value="true"/> 
    <rt:dyn type="Color_Readings" mode="constant" value="true"/> 
    <rt:dyn type="X" mode="constant" value="&quot;I&quot;"/> 
    <rt:dyn type="FKKS" mode="constant" value="&quot;00BCG01GS002_XQ01&quot;"/> 
    <rt:dyn type="ValueToTheRight" mode="constant" value="false"/> 
  </image>
  <image x="1105.1" y="849" width="75" height="25" xlink:href="obj_link.svg" transform="rotate(180 0 0) flipY(12.3617) rotate(90 37.3618 12.5)">
    <rt:dyn type="ModName" mode="constant" value="&quot;06UBG&quot;"/> 
  </image>
  <line x1="1069" y1="549" x2="1069" y2="699" stroke="black" stroke-width="2"/> 
  <line x1="1069" y1="799" x2="1069" y2="749" stroke="black" stroke-width="2"/> 
  <text x="1128.55" y="724" fill="black" font-size="15" text-anchor="middle">00BKT29</text>
  <line x1="1069" y1="449" x2="1069" y2="515.837" stroke="black" stroke-width="2"/> 
  <image x="1018" y="502.75" width="95" height="57.5" xlink:href="DS_breaker.svg" transform="rotate(270 17.5 -3.75)">
    <title>00BKT26GS001</title>
    <rt:dyn type="Operate" mode="constant" value="true"/> 
    <rt:dyn type="HasTray" mode="constant" value="true"/> 
    <rt:dyn type="KKS" mode="constant" value="&quot;00BKT29GS001&quot;"/> 
    <rt:dyn type="DATA_NARY" mode="constant" value="&quot;TYPE1&quot;"/> 
  </image>
  <image x="994" y="649" width="175" height="25" xlink:href="DS_ana.svg">
    <title>00BKT29GS001_XQ01</title>
    <rt:dyn type="FName" mode="constant" value="true"/> 
    <rt:dyn type="ShowFrame" mode="constant" value="true"/> 
    <rt:dyn type="Color_Readings" mode="constant" value="true"/> 
    <rt:dyn type="X" mode="constant" value="&quot;I&quot;"/> 
    <rt:dyn type="FKKS" mode="constant" value="&quot;00BKT29GS001_XQ01&quot;"/> 
    <rt:dyn type="ValueToTheRight" mode="constant" value="false"/> 
  </image>
  <g>
    <circle cx="2532.19" cy="127.769" r="26.6666" fill="Col_Grey2" stroke="none" stroke-width="2" transform="flipY() translate(0 -828) translate(-830.09 15.1779) scale(0.75 0.75)"/> 
    <circle cx="2532.2" cy="85.0953" r="26.6666" fill="Col_Grey2" stroke="black" stroke-width="2" transform="flipY() translate(0 -828) translate(-830.09 15.1779) scale(0.75 0.75)"/> 
    <line x1="1069.04" y1="757.998" x2="1069.04" y2="746.998" stroke="black" stroke-width="2"/> 
    <line x1="1069.04" y1="747.998" x2="1076.54" y2="740.998" stroke="black" stroke-width="2"/> 
    <line x1="515.83" y1="747.998" x2="523.33" y2="740.998" stroke="black" stroke-width="2" transform="flipX(792.432)"/> 
    <circle cx="2532.19" cy="127.769" r="26.6666" fill="none" stroke="black" stroke-width="2" transform="flipY() translate(0 -828) translate(-830.09 15.1779) scale(0.75 0.75)"/> 
    <polygon points="1059.6,722.978 1069,705.978 1078.4,723.078" fill="none" stroke="black" stroke-width="2"/> 
  </g>
  <text x="1134.67" y="524" fill="black" font-size="15" text-anchor="middle">00BKT29</text>
  <text x="1068" y="899" fill="black" font-size="15" text-anchor="middle">06UBG</text>
  <image x="906.102" y="850" width="75" height="25" xlink:href="obj_link.svg" transform="rotate(180 0 0) flipY(12.3617) rotate(90 37.3618 12.5)">
    <rt:dyn type="ModName" mode="constant" value="&quot;00UTH&quot;"/> 
  </image>
  <line x1="870" y1="550" x2="870" y2="700" stroke="black" stroke-width="2"/> 
  <line x1="870" y1="800" x2="870" y2="750" stroke="black" stroke-width="2"/> 
  <text x="929.551" y="725" fill="black" font-size="15" text-anchor="middle">00BKT52</text>
  <line x1="870" y1="450" x2="870" y2="516.837" stroke="black" stroke-width="2"/> 
  <image x="819" y="503.75" width="95" height="57.5" xlink:href="DS_breaker.svg" transform="rotate(270 17.5 -3.75)">
    <title>00BKT52GS001</title>
    <rt:dyn type="Operate" mode="constant" value="true"/> 
    <rt:dyn type="HasTray" mode="constant" value="true"/> 
    <rt:dyn type="KKS" mode="constant" value="&quot;00BKT52GS001&quot;"/> 
    <rt:dyn type="DATA_NARY" mode="constant" value="&quot;TYPE1&quot;"/> 
  </image>
  <image x="795" y="650" width="175" height="25" xlink:href="DS_ana.svg">
    <title>00BKT52GS001_XQ01</title>
    <rt:dyn type="FName" mode="constant" value="true"/> 
    <rt:dyn type="ShowFrame" mode="constant" value="true"/> 
    <rt:dyn type="Color_Readings" mode="constant" value="true"/> 
    <rt:dyn type="X" mode="constant" value="&quot;I&quot;"/> 
    <rt:dyn type="FKKS" mode="constant" value="&quot;00BKT52GS001_XQ01&quot;"/> 
    <rt:dyn type="ValueToTheRight" mode="constant" value="false"/> 
  </image>
  <g>
    <circle cx="2266.85" cy="126.436" r="26.6666" fill="Col_Grey2" stroke="none" stroke-width="2" transform="flipY() translate(0 -828) translate(-830.09 15.1779) scale(0.75 0.75)"/> 
    <circle cx="2266.86" cy="83.7624" r="26.6666" fill="Col_Grey2" stroke="black" stroke-width="2" transform="flipY() translate(0 -828) translate(-830.09 15.1779) scale(0.75 0.75)"/> 
    <line x1="870.04" y1="758.998" x2="870.04" y2="747.998" stroke="black" stroke-width="2"/> 
    <line x1="870.04" y1="748.998" x2="877.54" y2="741.998" stroke="black" stroke-width="2"/> 
    <line x1="714.829" y1="748.998" x2="722.329" y2="741.998" stroke="black" stroke-width="2" transform="flipX(792.432)"/> 
    <circle cx="2266.85" cy="126.436" r="26.6666" fill="none" stroke="black" stroke-width="2" transform="flipY() translate(0 -828) translate(-830.09 15.1779) scale(0.75 0.75)"/> 
    <polygon points="860.6,723.978 870,706.978 879.4,724.078" fill="none" stroke="black" stroke-width="2"/> 
  </g>
  <text x="935.674" y="525" fill="black" font-size="15" text-anchor="middle">00BKT52</text>
  <text x="869" y="900" fill="black" font-size="15" text-anchor="middle">00UTH</text>
  <line x1="670.003" y1="550" x2="670.003" y2="700" stroke="black" stroke-width="2"/> 
  <line x1="670.003" y1="800" x2="670.003" y2="750" stroke="black" stroke-width="2"/> 
  <text x="729.554" y="725" fill="black" font-size="15" text-anchor="middle">00BKT23</text>
  <line x1="670.003" y1="450" x2="670.003" y2="516.837" stroke="black" stroke-width="2"/> 
  <image x="619.003" y="503.75" width="95" height="57.5" xlink:href="DS_breaker.svg" transform="rotate(270 17.5 -3.75)">
    <title>00BKT23GS001</title>
    <rt:dyn type="Operate" mode="constant" value="true"/> 
    <rt:dyn type="HasTray" mode="constant" value="true"/> 
    <rt:dyn type="KKS" mode="constant" value="&quot;00BKT23GS001&quot;"/> 
    <rt:dyn type="DATA_NARY" mode="constant" value="&quot;TYPE1&quot;"/> 
  </image>
  <image x="595.003" y="650" width="175" height="25" xlink:href="DS_ana.svg">
    <title>00BKT23GS001_XQ01</title>
    <rt:dyn type="FName" mode="constant" value="true"/> 
    <rt:dyn type="ShowFrame" mode="constant" value="true"/> 
    <rt:dyn type="Color_Readings" mode="constant" value="true"/> 
    <rt:dyn type="X" mode="constant" value="&quot;I&quot;"/> 
    <rt:dyn type="FKKS" mode="constant" value="&quot;00BKT23GS001_XQ01&quot;"/> 
    <rt:dyn type="ValueToTheRight" mode="constant" value="false"/> 
  </image>
  <g>
    <circle cx="2000.19" cy="126.436" r="26.6666" fill="Col_Grey2" stroke="none" stroke-width="2" transform="flipY() translate(0 -828) translate(-830.09 15.1779) scale(0.75 0.75)"/> 
    <circle cx="2000.2" cy="83.763" r="26.6666" fill="Col_Grey2" stroke="black" stroke-width="2" transform="flipY() translate(0 -828) translate(-830.09 15.1779) scale(0.75 0.75)"/> 
    <line x1="670.043" y1="758.998" x2="670.043" y2="747.998" stroke="black" stroke-width="2"/> 
    <line x1="670.043" y1="748.998" x2="677.543" y2="741.998" stroke="black" stroke-width="2"/> 
    <line x1="914.828" y1="748.998" x2="922.328" y2="741.998" stroke="black" stroke-width="2" transform="flipX(792.432)"/> 
    <circle cx="2000.19" cy="126.436" r="26.6666" fill="none" stroke="black" stroke-width="2" transform="flipY() translate(0 -828) translate(-830.09 15.1779) scale(0.75 0.75)"/> 
    <polygon points="660.602,723.978 670.003,706.978 679.403,724.078" fill="none" stroke="black" stroke-width="2"/> 
  </g>
  <text x="735.677" y="525" fill="black" font-size="15" text-anchor="middle">00BKT23</text>
  <g>
    <line x1="670.003" y1="800" x2="677.503" y2="793" stroke="black" stroke-width="2"/> 
    <line x1="-252.503" y1="800" x2="-245.003" y2="793" stroke="black" stroke-width="2" transform="flipX(208.75)"/> 
  </g>
  <image x="1307.1" y="849" width="75" height="25" xlink:href="obj_link.svg" transform="rotate(180 0 0) flipY(12.3617) rotate(90 37.3618 12.5)">
    <rt:dyn type="ModName" mode="constant" value="&quot;05UBG&quot;"/> 
  </image>
  <line x1="1271" y1="549" x2="1271" y2="699" stroke="black" stroke-width="2"/> 
  <line x1="1271" y1="799" x2="1271" y2="749" stroke="black" stroke-width="2"/> 
  <text x="1330.55" y="724" fill="black" font-size="15" text-anchor="middle">00BKT65</text>
  <line x1="1271" y1="449" x2="1271" y2="515.837" stroke="black" stroke-width="2"/> 
  <image x="1220" y="502.75" width="95" height="57.5" xlink:href="DS_breaker.svg" transform="rotate(270 17.5 -3.75)">
    <title>00BKT65GS001</title>
    <rt:dyn type="Operate" mode="constant" value="true"/> 
    <rt:dyn type="HasTray" mode="constant" value="true"/> 
    <rt:dyn type="KKS" mode="constant" value="&quot;00BKT65GS001&quot;"/> 
    <rt:dyn type="DATA_NARY" mode="constant" value="&quot;TYPE1&quot;"/> 
  </image>
  <image x="1196" y="649" width="175" height="25" xlink:href="DS_ana.svg">
    <title>00BKT27GS001_XQ01</title>
    <rt:dyn type="FName" mode="constant" value="true"/> 
    <rt:dyn type="ShowFrame" mode="constant" value="true"/> 
    <rt:dyn type="Color_Readings" mode="constant" value="true"/> 
    <rt:dyn type="X" mode="constant" value="&quot;I&quot;"/> 
    <rt:dyn type="FKKS" mode="constant" value="&quot;00BKT65GS001_XQ01&quot;"/> 
    <rt:dyn type="ValueToTheRight" mode="constant" value="false"/> 
  </image>
  <g>
    <circle cx="2801.49" cy="127.769" r="26.6666" fill="Col_Grey2" stroke="none" stroke-width="2" transform="flipY() translate(0 -828) translate(-830.09 15.1779) scale(0.75 0.75)"/> 
    <circle cx="2801.5" cy="85.0951" r="26.6666" fill="Col_Grey2" stroke="black" stroke-width="2" transform="flipY() translate(0 -828) translate(-830.09 15.1779) scale(0.75 0.75)"/> 
    <line x1="1271.04" y1="757.998" x2="1271.04" y2="746.998" stroke="black" stroke-width="2"/> 
    <line x1="1271.04" y1="747.998" x2="1278.54" y2="740.998" stroke="black" stroke-width="2"/> 
    <line x1="313.83" y1="747.998" x2="321.33" y2="740.998" stroke="black" stroke-width="2" transform="flipX(792.432)"/> 
    <circle cx="2801.49" cy="127.769" r="26.6666" fill="none" stroke="black" stroke-width="2" transform="flipY() translate(0 -828) translate(-830.09 15.1779) scale(0.75 0.75)"/> 
    <polygon points="1261.6,722.978 1271,705.978 1280.4,723.078" fill="none" stroke="black" stroke-width="2"/> 
  </g>
  <text x="1336.67" y="524" fill="black" font-size="15" text-anchor="middle">00BKT65</text>
  <text x="1270" y="899" fill="black" font-size="15" text-anchor="middle">05UBG</text>
  <image x="312.102" y="851" width="75" height="25" xlink:href="obj_link.svg" transform="rotate(180 0 0) flipY(12.3617) rotate(90 37.3618 12.5)">
    <rt:dyn type="ModName" mode="constant" value="&quot;00UAC&quot;"/> 
  </image>
  <line x1="276" y1="551" x2="276" y2="701" stroke="black" stroke-width="2"/> 
  <line x1="276" y1="801" x2="276" y2="751" stroke="black" stroke-width="2"/> 
  <text x="335.551" y="726" fill="black" font-size="15" text-anchor="middle">00AFT11</text>
  <line x1="276" y1="451" x2="276" y2="517.837" stroke="black" stroke-width="2"/> 
  <image x="225" y="504.75" width="95" height="57.5" xlink:href="DS_breaker.svg" transform="rotate(270 17.5 -3.75)">
    <title>00AFT11GS001</title>
    <rt:dyn type="Operate" mode="constant" value="true"/> 
    <rt:dyn type="HasTray" mode="constant" value="true"/> 
    <rt:dyn type="KKS" mode="constant" value="&quot;00AFT11GS001&quot;"/> 
    <rt:dyn type="DATA_NARY" mode="constant" value="&quot;TYPE1&quot;"/> 
  </image>
  <g>
    <circle cx="1474.85" cy="125.103" r="26.6666" fill="Col_Grey2" stroke="none" stroke-width="2" transform="flipY() translate(0 -828) translate(-830.09 15.1779) scale(0.75 0.75)"/> 
    <circle cx="1474.86" cy="82.4296" r="26.6666" fill="Col_Grey2" stroke="black" stroke-width="2" transform="flipY() translate(0 -828) translate(-830.09 15.1779) scale(0.75 0.75)"/> 
    <line x1="276.04" y1="759.998" x2="276.04" y2="748.998" stroke="black" stroke-width="2"/> 
    <line x1="276.04" y1="749.998" x2="283.54" y2="742.998" stroke="black" stroke-width="2"/> 
    <line x1="1308.83" y1="749.998" x2="1316.33" y2="742.998" stroke="black" stroke-width="2" transform="flipX(792.432)"/> 
    <circle cx="1474.85" cy="125.103" r="26.6666" fill="none" stroke="black" stroke-width="2" transform="flipY() translate(0 -828) translate(-830.09 15.1779) scale(0.75 0.75)"/> 
    <polygon points="266.6,724.978 276,707.978 285.4,725.078" fill="none" stroke="black" stroke-width="2"/> 
  </g>
  <text x="341.674" y="526" fill="black" font-size="15" text-anchor="middle">00AFT11</text>
  <text x="275" y="901" fill="black" font-size="15" text-anchor="middle">00UAC</text>
  <image x="201" y="651" width="175" height="25" xlink:href="DS_ana.svg">
    <title>00AFT11GS001_XQ01</title>
    <rt:dyn type="FName" mode="constant" value="true"/> 
    <rt:dyn type="ShowFrame" mode="constant" value="true"/> 
    <rt:dyn type="Color_Readings" mode="constant" value="true"/> 
    <rt:dyn type="X" mode="constant" value="&quot;I&quot;"/> 
    <rt:dyn type="FKKS" mode="constant" value="&quot;00AFT11GS001_XQ01&quot;"/> 
    <rt:dyn type="ValueToTheRight" mode="constant" value="false"/> 
  </image>
  <line x1="473" y1="551" x2="473" y2="701" stroke="black" stroke-width="2"/> 
  <line x1="473" y1="801" x2="473" y2="751" stroke="black" stroke-width="2"/> 
  <line x1="473" y1="451" x2="473" y2="517.837" stroke="black" stroke-width="2"/> 
  <image x="422" y="504.75" width="95" height="57.5" xlink:href="DS_breaker.svg" transform="rotate(270 17.5 -3.75)">
    <title>00BKT24GS001</title>
    <rt:dyn type="Operate" mode="constant" value="true"/> 
    <rt:dyn type="HasTray" mode="constant" value="true"/> 
    <rt:dyn type="KKS" mode="constant" value="&quot;00BKT24GS001&quot;"/> 
    <rt:dyn type="DATA_NARY" mode="constant" value="&quot;TYPE1&quot;"/> 
  </image>
  <image x="398" y="651" width="175" height="25" xlink:href="DS_ana.svg">
    <title>00BKT24GS001_XQ01</title>
    <rt:dyn type="FName" mode="constant" value="true"/> 
    <rt:dyn type="ShowFrame" mode="constant" value="true"/> 
    <rt:dyn type="Color_Readings" mode="constant" value="true"/> 
    <rt:dyn type="X" mode="constant" value="&quot;I&quot;"/> 
    <rt:dyn type="FKKS" mode="constant" value="&quot;00BKT24GS001_XQ01&quot;"/> 
    <rt:dyn type="ValueToTheRight" mode="constant" value="false"/> 
  </image>
  <g>
    <circle cx="1737.51" cy="125.103" r="26.6666" fill="Col_Grey2" stroke="none" stroke-width="2" transform="flipY() translate(0 -828) translate(-830.09 15.1779) scale(0.75 0.75)"/> 
    <circle cx="1737.52" cy="82.4296" r="26.6666" fill="Col_Grey2" stroke="black" stroke-width="2" transform="flipY() translate(0 -828) translate(-830.09 15.1779) scale(0.75 0.75)"/> 
    <line x1="473.04" y1="759.998" x2="473.04" y2="748.998" stroke="black" stroke-width="2"/> 
    <line x1="473.04" y1="749.998" x2="480.54" y2="742.998" stroke="black" stroke-width="2"/> 
    <line x1="1111.83" y1="749.998" x2="1119.33" y2="742.998" stroke="black" stroke-width="2" transform="flipX(792.432)"/> 
    <circle cx="1737.51" cy="125.103" r="26.6666" fill="none" stroke="black" stroke-width="2" transform="flipY() translate(0 -828) translate(-830.09 15.1779) scale(0.75 0.75)"/> 
    <polygon points="463.6,724.978 473,707.978 482.4,725.078" fill="none" stroke="black" stroke-width="2"/> 
  </g>
  <text x="538.674" y="526" fill="black" font-size="15" text-anchor="middle">00BKT24</text>
  <g>
    <line x1="473" y1="801" x2="480.5" y2="794" stroke="black" stroke-width="2"/> 
    <line x1="-55.5" y1="801" x2="-48" y2="794" stroke="black" stroke-width="2" transform="flipX(208.75)"/> 
  </g>
  <text x="473" y="826" fill="black" font-size="15" text-anchor="middle">00UKU</text>
  <text x="539.694" y="726" fill="black" font-size="15" text-anchor="middle">00BKT24</text>
  <text x="671" y="816.5" fill="black" font-size="15" text-anchor="middle">00UKS</text>
  <line x1="240" y1="225" x2="165" y2="225" stroke="black" stroke-width="2"/> 
  <g stroke="black" stroke-width="2" transform="rotate(270 296 325)">
    <line x1="383" y1="269" x2="409" y2="269"/> 
    <line x1="387" y1="274" x2="405" y2="274"/> 
    <line x1="392" y1="279" x2="400" y2="279"/> 
  </g>
  <line x1="240" y1="270" x2="165" y2="270" stroke="black" stroke-width="2"/> 
  <g stroke="black" stroke-width="2" transform="rotate(270 296 325)">
    <line x1="337" y1="269" x2="363" y2="269"/> 
    <line x1="341" y1="274" x2="359" y2="274"/> 
    <line x1="346" y1="279" x2="354" y2="279"/> 
  </g>
  <image x="190" y="214" width="25" height="25" xlink:href="bin_indicator.svg">
    <title>10BCC04GS004_XB10</title>
    <rt:dyn type="PointID" mode="constant" value="&quot;10BCC04GS004_XB10&quot;"/> 
    <rt:dyn type="Col_ON" mode="constant" value="&quot;Col_Yellow&quot;"/> 
  </image>
  <image x="190" y="258" width="25" height="25" xlink:href="bin_indicator.svg">
    <title>00BCG18GS001_XB10</title>
    <rt:dyn type="PointID" mode="constant" value="&quot;00BCG18GS001_XB10&quot;"/> 
    <rt:dyn type="Col_ON" mode="constant" value="&quot;Col_Yellow&quot;"/> 
  </image>
  <text x="215" y="300" fill="black" font-size="15" text-anchor="start">ЗН включен</text>
  <text x="215" y="206" fill="black" font-size="15" text-anchor="start">ЗН включен</text>
  <line x1="1345" y1="625" x2="1270" y2="625" stroke="black" stroke-width="2"/> 
  <g stroke="black" stroke-width="2" transform="rotate(270 296 325)">
    <line x1="-18" y1="1374" x2="8" y2="1374"/> 
    <line x1="-14" y1="1379" x2="4" y2="1379"/> 
    <line x1="-9" y1="1384" x2="-1" y2="1384"/> 
  </g>
  <text x="1295" y="610" fill="black" font-size="15" text-anchor="start">ЗН включен</text>
  <image x="1292" y="613" width="25" height="25" xlink:href="bin_indicator.svg">
    <title>00BKT65GS001_XB10</title>
    <rt:dyn type="PointID" mode="constant" value="&quot;00BKT65GS001_XB10&quot;"/> 
    <rt:dyn type="Col_ON" mode="constant" value="&quot;Col_Yellow&quot;"/> 
  </image>
  <image x="1507" y="550" width="25" height="25" xlink:href="bin_indicator.svg">
    <title>00BCG00GT601_XB10</title>
    <rt:dyn type="PointID" mode="constant" value="&quot;00BCG00GT601_XB10&quot;"/> 
    <rt:dyn type="Col_ON" mode="constant" value="&quot;Col_Yellow&quot;"/> 
  </image>
  <text x="1540" y="568.5" fill="black" font-size="15" text-anchor="start">ЗН включен</text>
  <line x1="1750" y1="231.5" x2="1675" y2="231.5" stroke="black" stroke-width="2"/> 
  <g stroke="black" stroke-width="2" transform="rotate(270 296 325)">
    <line x1="376.5" y1="1779" x2="402.5" y2="1779"/> 
    <line x1="380.5" y1="1784" x2="398.5" y2="1784"/> 
    <line x1="385.5" y1="1789" x2="393.5" y2="1789"/> 
  </g>
  <line x1="1750" y1="276.5" x2="1675" y2="276.5" stroke="black" stroke-width="2"/> 
  <g stroke="black" stroke-width="2" transform="rotate(270 296 325)">
    <line x1="330.5" y1="1779" x2="356.5" y2="1779"/> 
    <line x1="334.5" y1="1784" x2="352.5" y2="1784"/> 
    <line x1="339.5" y1="1789" x2="347.5" y2="1789"/> 
  </g>
  <image x="1700" y="220.5" width="25" height="25" xlink:href="bin_indicator.svg">
    <title>20BCC04GS004_XB10</title>
    <rt:dyn type="PointID" mode="constant" value="&quot;20BCC04GS004_XB10&quot;"/> 
    <rt:dyn type="Col_ON" mode="constant" value="&quot;Col_Yellow&quot;"/> 
  </image>
  <image x="1700" y="264.5" width="25" height="25" xlink:href="bin_indicator.svg">
    <title>00BCG01GS002_XB10</title>
    <rt:dyn type="PointID" mode="constant" value="&quot;00BCG01GS002_XB10&quot;"/> 
    <rt:dyn type="Col_ON" mode="constant" value="&quot;Col_Yellow&quot;"/> 
  </image>
  <text x="1725" y="306.5" fill="black" font-size="15" text-anchor="start">ЗН включен</text>
  <text x="1725" y="212.5" fill="black" font-size="15" text-anchor="start">ЗН включен</text>
  <line x1="350" y1="625" x2="275" y2="625" stroke="black" stroke-width="2"/> 
  <g stroke="black" stroke-width="2" transform="rotate(270 296 325)">
    <line x1="-18" y1="379" x2="8" y2="379"/> 
    <line x1="-14" y1="384" x2="4" y2="384"/> 
    <line x1="-9" y1="389" x2="-1" y2="389"/> 
  </g>
  <text x="300" y="610" fill="black" font-size="15" text-anchor="start">ЗН включен</text>
  <image x="297" y="613" width="25" height="25" xlink:href="bin_indicator.svg">
    <title>00AFT11GS001_XB10</title>
    <rt:dyn type="PointID" mode="constant" value="&quot;00AFT11GS001_XB10&quot;"/> 
    <rt:dyn type="Col_ON" mode="constant" value="&quot;Col_Yellow&quot;"/> 
  </image>
  <line x1="548" y1="625" x2="473" y2="625" stroke="black" stroke-width="2"/> 
  <g stroke="black" stroke-width="2" transform="rotate(270 296 325)">
    <line x1="-18" y1="577" x2="8" y2="577"/> 
    <line x1="-14" y1="582" x2="4" y2="582"/> 
    <line x1="-9" y1="587" x2="-1" y2="587"/> 
  </g>
  <text x="498" y="610" fill="black" font-size="15" text-anchor="start">ЗН включен</text>
  <image x="495" y="613" width="25" height="25" xlink:href="bin_indicator.svg">
    <title>00BKT24GS001_XB10</title>
    <rt:dyn type="PointID" mode="constant" value="&quot;00BKT24GS001_XB10&quot;"/> 
    <rt:dyn type="Col_ON" mode="constant" value="&quot;Col_Yellow&quot;"/> 
  </image>
  <line x1="745" y1="625" x2="670" y2="625" stroke="black" stroke-width="2"/> 
  <g stroke="black" stroke-width="2" transform="rotate(270 296 325)">
    <line x1="-18" y1="774" x2="8" y2="774"/> 
    <line x1="-14" y1="779" x2="4" y2="779"/> 
    <line x1="-9" y1="784" x2="-1" y2="784"/> 
  </g>
  <text x="695" y="610" fill="black" font-size="15" text-anchor="start">ЗН включен</text>
  <image x="692" y="613" width="25" height="25" xlink:href="bin_indicator.svg">
    <title>00BKT23GS001_XB10</title>
    <rt:dyn type="PointID" mode="constant" value="&quot;00BKT23GS001_XB10&quot;"/> 
    <rt:dyn type="Col_ON" mode="constant" value="&quot;Col_Yellow&quot;"/> 
  </image>
  <line x1="945" y1="625" x2="870" y2="625" stroke="black" stroke-width="2"/> 
  <g stroke="black" stroke-width="2" transform="rotate(270 296 325)">
    <line x1="-18" y1="974" x2="8" y2="974"/> 
    <line x1="-14" y1="979" x2="4" y2="979"/> 
    <line x1="-9" y1="984" x2="-1" y2="984"/> 
  </g>
  <text x="895" y="610" fill="black" font-size="15" text-anchor="start">ЗН включен</text>
  <image x="892" y="613" width="25" height="25" xlink:href="bin_indicator.svg">
    <title>00BKT52GS001_XB10</title>
    <rt:dyn type="PointID" mode="constant" value="&quot;00BKT52GS001_XB10&quot;"/> 
    <rt:dyn type="Col_ON" mode="constant" value="&quot;Col_Yellow&quot;"/> 
  </image>
  <line x1="1145" y1="625" x2="1070" y2="625" stroke="black" stroke-width="2"/> 
  <g stroke="black" stroke-width="2" transform="rotate(270 296 325)">
    <line x1="-18" y1="1174" x2="8" y2="1174"/> 
    <line x1="-14" y1="1179" x2="4" y2="1179"/> 
    <line x1="-9" y1="1184" x2="-1" y2="1184"/> 
  </g>
  <text x="1095" y="610" fill="black" font-size="15" text-anchor="start">ЗН включен</text>
  <image x="1092" y="613" width="25" height="25" xlink:href="bin_indicator.svg">
    <title>00BKT29GS001_XB10</title>
    <rt:dyn type="PointID" mode="constant" value="&quot;00BKT29GS001_XB10&quot;"/> 
    <rt:dyn type="Col_ON" mode="constant" value="&quot;Col_Yellow&quot;"/> 
  </image>
</svg>
