<?xml  version="1.0" encoding="UTF-8"?>
<svg color="Col_BGSand" xmlns="http://www.w3.org/2000/svg" xmlns:rt="http://www.rts.co.at/2001/XMLSchema/RtSvgPL" xmlns:xlink="http://www.w3.org/1999/xlink" xmlns:xsi="http://www.w3.org/2001/XMLSchema-instance" xsi:schemaLocation="http://www.w3.org/2000/svg C:\RTS\RtSvg\XML\SVG.xsd" viewBox="0 0 1920 1080" width="1920" height="1080" id="00cxn01_sklad_maslo" fill="Col_Grey3">
  <rt:model modelversion="7.2.0.24" comment="Создано VNIIAES-ASUTP\voroninrs 10.12.2012 14:48:20"/> 
  <line x1="608.755" y1="835.636" x2="589.755" y2="835.636" stroke="black" stroke-width="3"/> 
  <line x1="614.755" y1="785.636" x2="589.755" y2="785.636" stroke="black" stroke-width="3"/> 
  <line x1="889.755" y1="385.636" x2="539.755" y2="385.636" stroke="black" stroke-width="3"/> 
  <line x1="830.755" y1="360.636" x2="539.755" y2="360.636" stroke="black" stroke-width="3"/> 
  <line x1="495.591" y1="899.62" x2="495.591" y2="864.242" stroke="black" stroke-width="3"/> 
  <line x1="298" y1="433" x2="298" y2="433" stroke="black"/> 
  <line x1="344" y1="425" x2="342" y2="0"/> 
  <line x1="592.727" y1="690.909" x2="592.727" y2="690.909" stroke="black"/> 
  <line x1="749.091" y1="939.091" x2="749.091" y2="939.091" stroke="black"/> 
  <line x1="638.182" y1="881.818" x2="638.182" y2="881.818" stroke="black"/> 
  <line x1="214.545" y1="692.727" x2="214.545" y2="692.727" stroke="black"/> 
  <line x1="259.091" y1="771.818" x2="259.091" y2="771.818" stroke="black"/> 
  <line x1="195.455" y1="720" x2="195.455" y2="720" stroke="black"/> 
  <line x1="186.364" y1="713.636" x2="186.364" y2="713.636" stroke="black"/> 
  <line x1="191.818" y1="715.455" x2="191.818" y2="715.455" stroke="black"/> 
  <line x1="985.455" y1="149.091" x2="985.455" y2="149.091" stroke="black"/> 
  <line x1="1150" y1="365" x2="1150" y2="365" stroke="black"/> 
  <line x1="1274" y1="337" x2="1274" y2="337" stroke="black"/> 
  <line x1="1029" y1="375" x2="1029" y2="375" stroke="black"/> 
  <line x1="1215.33" y1="421.333" x2="1215.33" y2="421.333" stroke="black"/> 
  <line x1="1007" y1="314.75" x2="1007" y2="314.75" stroke="black"/> 
  <line x1="1027.27" y1="820" x2="1027.27" y2="820" stroke="black"/> 
  <line x1="675" y1="65" x2="675" y2="65" stroke="black"/> 
  <line x1="1468" y1="294" x2="1468" y2="294" stroke="black"/> 
  <line x1="1066.67" y1="766" x2="1066.67" y2="766" stroke="black"/> 
  <text x="25" y="25" fill="black" font-size="15">00UEL 00CXN01 СКЛАД ТРАНСФОРМАТОРНОГО МАСЛА</text>
  <g transform="flipY(791.802) flipY(430.309) rotate(90 850 184) rotate(0 1.4013e-045 3.88002e-039) flipX(225.309) flipX(76.3091) flipX(616.809) rotate(90 132.155 29.823) rotate(360 1.4013e-045 2.31881e-039) flipY(911)">
    <polygon points="-93.0023,2114.36 -68.0024,2114.36 -80.0024,2139.36 -80.0024,2139.36" fill="black" stroke="black" stroke-width="1" transform="rotate(180 1279.17 367.814)"/> 
  </g>
  <g transform="flipY(605.309) flipY(331.309) rotate(90 850 184) rotate(0 1.4013e-045 3.88002e-039) flipX(225.309) flipX(76.3091) flipX(616.809) rotate(90 132.155 29.823) rotate(360 1.4013e-045 2.31881e-039) flipY(911)">
    <polygon points="-252.003,2125.86 -227.003,2125.86 -239.003,2150.86 -239.003,2150.86" fill="black" stroke="black" stroke-width="1" transform="rotate(180 1279.17 367.814)"/> 
  </g>
  <g transform="flipY(426.309) flipY(331.309) rotate(90 850 184) rotate(0 1.4013e-045 3.88002e-039) flipX(225.309) flipX(76.3091) flipX(616.809) rotate(90 132.155 29.823) rotate(360 1.4013e-045 2.31881e-039) flipY(911)">
    <polygon points="-249.002,1946.86 -224.002,1946.86 -236.002,1971.86 -236.002,1971.86" fill="black" stroke="black" stroke-width="1" transform="rotate(180 1279.17 367.814)"/> 
  </g>
  <line x1="366.255" y1="461.647" x2="366.255" y2="311.647" stroke="black" stroke-width="3"/> 
  <polygon points="2012.95,2287.53 2037.95,2287.53 2025.95,2312.53 2025.95,2312.53" fill="black" stroke="black" stroke-width="1" transform="rotate(180 1279.17 367.814)"/> 
  <line x1="541.255" y1="461.647" x2="541.255" y2="311.647" stroke="black" stroke-width="3"/> 
  <line x1="542.755" y1="461.647" x2="364.755" y2="461.647" stroke="black" stroke-width="3"/> 
  <rect x="367.505" y="428.647" width="172.25" height="31.75" rx="0" ry="0"/> 
  <image x="367.255" y="403.647" width="175" height="25" xlink:href="DS_ana_tenzor.svg">
    <title>00QSA10CT003</title>
    <rt:dyn type="ShowFrame" mode="constant" value="true"/> 
    <rt:dyn type="X" mode="constant" value="&quot;T&quot;"/> 
    <rt:dyn type="FKKS" mode="constant" value="&quot;00QSA10CT003&quot;"/> 
    <rt:dyn type="ValueToTheRight" mode="constant" value="false"/> 
    <rt:dyn type="Color_Readings" mode="constant" value="true"/> 
  </image>
  <line x1="461.755" y1="535.65" x2="563.755" y2="535.636" stroke="black" stroke-dasharray="25" stroke-width="3"/> 
  <line x1="563.755" y1="535.636" x2="563.5" y2="391.75" stroke="black" stroke-dasharray="30" stroke-width="3"/> 
  <text x="313.755" y="485.636" fill="black" font-size="15" text-anchor="middle">00QSA10BB001</text>
  <image x="236.755" y="508.636" width="175" height="25" xlink:href="DS_ana_tenzor.svg">
    <title>00QSA10CL001</title>
    <rt:dyn type="ShowFrame" mode="constant" value="true"/> 
    <rt:dyn type="X" mode="constant" value="&quot;L&quot;"/> 
    <rt:dyn type="FKKS" mode="constant" value="&quot;00QSA10CL001&quot;"/> 
    <rt:dyn type="ValueToTheRight" mode="constant" value="false"/> 
    <rt:dyn type="Color_Readings" mode="constant" value="true"/> 
  </image>
  <line x1="591.515" y1="874.636" x2="591.515" y2="724.636" stroke="black" stroke-width="3"/> 
  <line x1="593.015" y1="874.636" x2="415.014" y2="874.636" stroke="black" stroke-width="3"/> 
  <rect x="417.764" y="841.636" width="172.25" height="31.75" rx="0" ry="0"/> 
  <image x="417.514" y="741.636" width="175" height="25" xlink:href="DS_ana_tenzor.svg">
    <title>00QSA16CT001</title>
    <rt:dyn type="ShowFrame" mode="constant" value="true"/> 
    <rt:dyn type="X" mode="constant" value="&quot;T&quot;"/> 
    <rt:dyn type="FKKS" mode="constant" value="&quot;00QSA16CT001&quot;"/> 
    <rt:dyn type="ValueToTheRight" mode="constant" value="false"/> 
    <rt:dyn type="Color_Readings" mode="constant" value="true"/> 
  </image>
  <text x="377.755" y="902.136" fill="black" font-size="15" text-anchor="middle">00QSA16BB001</text>
  <image x="266.755" y="920.636" width="175" height="25" xlink:href="DS_ana_tenzor.svg">
    <title>00QSA16CL001</title>
    <rt:dyn type="ShowFrame" mode="constant" value="true"/> 
    <rt:dyn type="X" mode="constant" value="&quot;L&quot;"/> 
    <rt:dyn type="FKKS" mode="constant" value="&quot;00QSA16CL001&quot;"/> 
    <rt:dyn type="ValueToTheRight" mode="constant" value="false"/> 
    <rt:dyn type="Color_Readings" mode="constant" value="true"/> 
  </image>
  <line x1="1365.52" y1="461.636" x2="1365.52" y2="311.636" stroke="black" stroke-width="3"/> 
  <line x1="1540.52" y1="461.636" x2="1540.52" y2="311.636" stroke="black" stroke-width="3"/> 
  <line x1="1542.02" y1="461.636" x2="1364.02" y2="461.636" stroke="black" stroke-width="3"/> 
  <rect x="1366.77" y="428.636" width="172.25" height="31.75" rx="0" ry="0"/> 
  <image x="1366.52" y="328.636" width="175" height="25" xlink:href="DS_ana_tenzor.svg">
    <title>00QSA13CT001</title>
    <rt:dyn type="ShowFrame" mode="constant" value="true"/> 
    <rt:dyn type="X" mode="constant" value="&quot;T&quot;"/> 
    <rt:dyn type="FKKS" mode="constant" value="&quot;00QSA13CT001&quot;"/> 
    <rt:dyn type="ValueToTheRight" mode="constant" value="false"/> 
    <rt:dyn type="Color_Readings" mode="constant" value="true"/> 
  </image>
  <image x="1366.52" y="365.636" width="175" height="25" xlink:href="DS_ana_tenzor.svg">
    <title>00QSA13CT002</title>
    <rt:dyn type="ShowFrame" mode="constant" value="true"/> 
    <rt:dyn type="X" mode="constant" value="&quot;T&quot;"/> 
    <rt:dyn type="FKKS" mode="constant" value="&quot;00QSA13CT002&quot;"/> 
    <rt:dyn type="ValueToTheRight" mode="constant" value="false"/> 
    <rt:dyn type="Color_Readings" mode="constant" value="true"/> 
  </image>
  <image x="1366.52" y="403.636" width="175" height="25" xlink:href="DS_ana_tenzor.svg">
    <title>00QSA13CT003</title>
    <rt:dyn type="ShowFrame" mode="constant" value="true"/> 
    <rt:dyn type="X" mode="constant" value="&quot;T&quot;"/> 
    <rt:dyn type="FKKS" mode="constant" value="&quot;00QSA13CT003&quot;"/> 
    <rt:dyn type="ValueToTheRight" mode="constant" value="false"/> 
    <rt:dyn type="Color_Readings" mode="constant" value="true"/> 
  </image>
  <text x="1520.51" y="485.636" fill="black" font-size="15" text-anchor="middle">00QSA13BB001</text>
  <image x="1445.76" y="498.969" width="175" height="25" xlink:href="DS_ana_tenzor.svg">
    <title>00QSA13CL001</title>
    <rt:dyn type="ShowFrame" mode="constant" value="true"/> 
    <rt:dyn type="X" mode="constant" value="&quot;L&quot;"/> 
    <rt:dyn type="FKKS" mode="constant" value="&quot;00QSA13CL001&quot;"/> 
    <rt:dyn type="ValueToTheRight" mode="constant" value="false"/> 
    <rt:dyn type="Color_Readings" mode="constant" value="true"/> 
  </image>
  <line x1="1263" y1="169" x2="1264.76" y2="385.636" stroke="black" stroke-width="3"/> 
  <line x1="1364.76" y1="385.636" x2="1314.76" y2="385.636" stroke="black" stroke-width="3"/> 
  <line x1="1065" y1="230" x2="1065" y2="531.5" stroke="black" stroke-width="3"/> 
  <line x1="1366.52" y1="873.636" x2="1366.52" y2="723.636" stroke="black" stroke-width="3"/> 
  <line x1="1541.52" y1="873.636" x2="1541.52" y2="723.636" stroke="black" stroke-width="3"/> 
  <line x1="1543.02" y1="873.636" x2="1365.02" y2="873.636" stroke="black" stroke-width="3"/> 
  <rect x="1367.77" y="840.636" width="172.25" height="31.75" rx="0" ry="0"/> 
  <image x="1367.52" y="740.636" width="175" height="25" xlink:href="DS_ana_tenzor.svg">
    <title>00QSA10CT004</title>
    <rt:dyn type="ShowFrame" mode="constant" value="true"/> 
    <rt:dyn type="X" mode="constant" value="&quot;T&quot;"/> 
    <rt:dyn type="FKKS" mode="constant" value="&quot;00QSA10CT004&quot;"/> 
    <rt:dyn type="ValueToTheRight" mode="constant" value="false"/> 
    <rt:dyn type="Color_Readings" mode="constant" value="true"/> 
  </image>
  <image x="1367.52" y="777.636" width="175" height="25" xlink:href="DS_ana_tenzor.svg">
    <title>00QSA10CT005</title>
    <rt:dyn type="ShowFrame" mode="constant" value="true"/> 
    <rt:dyn type="X" mode="constant" value="&quot;T&quot;"/> 
    <rt:dyn type="FKKS" mode="constant" value="&quot;00QSA10CT005&quot;"/> 
    <rt:dyn type="ValueToTheRight" mode="constant" value="false"/> 
    <rt:dyn type="Color_Readings" mode="constant" value="true"/> 
  </image>
  <image x="1367.52" y="815.636" width="175" height="25" xlink:href="DS_ana_tenzor.svg">
    <title>00QSA10CT006</title>
    <rt:dyn type="ShowFrame" mode="constant" value="true"/> 
    <rt:dyn type="X" mode="constant" value="&quot;T&quot;"/> 
    <rt:dyn type="FKKS" mode="constant" value="&quot;00QSA10CT006&quot;"/> 
    <rt:dyn type="ValueToTheRight" mode="constant" value="false"/> 
    <rt:dyn type="Color_Readings" mode="constant" value="true"/> 
  </image>
  <image x="1491.76" y="916.636" width="175" height="25" xlink:href="DS_ana_tenzor.svg">
    <title>00QSA10CL002</title>
    <rt:dyn type="ShowFrame" mode="constant" value="true"/> 
    <rt:dyn type="X" mode="constant" value="&quot;L&quot;"/> 
    <rt:dyn type="FKKS" mode="constant" value="&quot;00QSA10CL002&quot;"/> 
    <rt:dyn type="ValueToTheRight" mode="constant" value="false"/> 
    <rt:dyn type="Color_Readings" mode="constant" value="true"/> 
  </image>
  <polygon points="1913.55,450.317 1938.55,450.317 1926.55,475.317 1926.55,475.317" fill="black" stroke="black" stroke-width="1" transform="rotate(360 595 475) rotate(180 1279.17 367.814)"/> 
  <line x1="1364.76" y1="810.636" x2="1064.76" y2="810.636" stroke="black" stroke-width="3"/> 
  <line x1="700" y1="950" x2="1450" y2="950" stroke="black" stroke-dasharray="25" stroke-width="3"/> 
  <image x="1218.76" y="187.459" width="70" height="65" xlink:href="DS_CO_valve_tenzor.svg" transform="rotate(270 0 -10)">
    <rt:dyn type="Drive" mode="constant" value="&quot;NONE&quot;"/> 
  </image>
  <line x1="636.724" y1="872.303" x2="637.48" y2="950" stroke="black" stroke-width="3" transform="flipX(1041.24)"/> 
  <line x1="1639.76" y1="985.636" x2="314.755" y2="985.636" stroke="black" stroke-width="3"/> 
  <line x1="442.724" y1="960.636" x2="442.724" y2="985.636" stroke="black" stroke-width="3" transform="flipX(1041.24)"/> 
  <line x1="1767.72" y1="960.636" x2="1767.72" y2="985.636" stroke="black" stroke-width="3" transform="flipX(1041.24)"/> 
  <text x="1377.26" y="1029.14" fill="black" font-size="15" text-anchor="middle">В систему канализации стоков,<tspan x="1377.26" dy="15">содержащих нефтепродукты (GMA)</tspan>
  </text>
  <line x1="967.724" y1="985.636" x2="967.724" y2="1035.64" stroke="black" stroke-width="3" transform="flipX(1041.24)"/> 
  <line x1="867.724" y1="1035.64" x2="967.724" y2="1035.64" stroke="black" stroke-width="3" transform="flipX(1041.24)"/> 
  <polygon points="2510.98,883.767 2535.98,883.767 2523.98,908.766 2523.98,908.766" fill="black" stroke="black" stroke-width="1" transform="flipX(593.309) rotate(270 595 475) rotate(180 1279.17 367.814)"/> 
  <line x1="462.755" y1="536.636" x2="462.755" y2="461.636" stroke="black" stroke-width="3"/> 
  <image x="417.755" y="462.636" width="70" height="65" xlink:href="DS_CO_valve_tenzor.svg" transform="rotate(270 0 -10)">
    <rt:dyn type="Drive" mode="constant" value="&quot;NONE&quot;"/> 
  </image>
  <line x1="514.505" y1="535.636" x2="532.255" y2="535.636" stroke="black" stroke-width="3"/> 
  <line x1="417.255" y1="873.636" x2="417.255" y2="723.636" stroke="black" stroke-width="3"/> 
  <line x1="495.255" y1="950.15" x2="624.755" y2="950.636" stroke="black" stroke-dasharray="25" stroke-width="3"/> 
  <line x1="495.606" y1="951.136" x2="495.606" y2="915.758" stroke="black" stroke-width="3"/> 
  <image x="450.255" y="877.136" width="70" height="65" xlink:href="DS_CO_valve_tenzor.svg" transform="rotate(270 0 -10)">
    <rt:dyn type="Drive" mode="constant" value="&quot;NONE&quot;"/> 
  </image>
  <line x1="631.75" y1="951" x2="632" y2="390" stroke="black" stroke-dasharray="30" stroke-width="3"/> 
  <line x1="625" y1="950.5" x2="633.25" y2="950.5" stroke="black" stroke-width="3"/> 
  <line x1="700" y1="950" x2="700.5" y2="390.75" stroke="black" stroke-dasharray="30" stroke-width="3"/> 
  <image x="1400.76" y="878.136" width="70" height="65" xlink:href="DS_CO_valve_tenzor.svg" transform="rotate(270 0 -10)">
    <rt:dyn type="Drive" mode="constant" value="&quot;NONE&quot;"/> 
  </image>
  <line x1="1364.76" y1="760.636" x2="1119.76" y2="760.636" stroke="black" stroke-width="3"/> 
  <line x1="667.557" y1="460.975" x2="667.724" y2="535.636" stroke="black" stroke-width="3" transform="flipX(1041.24)"/> 
  <image x="1369.93" y="465.808" width="70" height="65" xlink:href="DS_CO_valve_tenzor.svg" transform="rotate(270 0 -10)">
    <rt:dyn type="Drive" mode="constant" value="&quot;NONE&quot;"/> 
  </image>
  <line x1="764" y1="536.75" x2="1415.76" y2="538.636" stroke="black" stroke-dasharray="25" stroke-width="3"/> 
  <line x1="765" y1="356.25" x2="765" y2="93" stroke="black" stroke-dasharray="30" stroke-width="3"/> 
  <line x1="1397.76" y1="539.136" x2="1415.01" y2="539.136" stroke="black" stroke-width="3"/> 
  <line x1="1434" y1="950" x2="1446" y2="950" stroke="black" stroke-width="3"/> 
  <line x1="890" y1="236.97" x2="890" y2="386" stroke="black" stroke-width="3"/> 
  <line x1="830.755" y1="236.97" x2="830.755" y2="360.636" stroke="black" stroke-width="3"/> 
  <line x1="1008.76" y1="835.636" x2="1008.76" y2="727.636" stroke="black" stroke-width="3"/> 
  <line x1="1120" y1="226" x2="1120" y2="532.5" stroke="black" stroke-width="3"/> 
  <line x1="1364.76" y1="435.636" x2="1314.76" y2="435.636" stroke="black" stroke-width="3"/> 
  <line x1="1189.76" y1="360.636" x2="1189.76" y2="435.636" stroke="black" stroke-width="3"/> 
  <text x="1546.76" y="898.136" fill="black" font-size="15" text-anchor="middle">00QSA10BB002</text>
  <text x="615.255" y="842.136" fill="black" font-size="17" text-anchor="middle">P</text>
  <line x1="798.755" y1="835.636" x2="621.755" y2="836.136" stroke="black" stroke-width="3"/> 
  <text x="806.755" y="841.803" fill="black" font-size="17" text-anchor="middle">P</text>
  <line x1="1008.76" y1="835.636" x2="814.755" y2="836.136" stroke="black" stroke-width="3"/> 
  <text x="1008.76" y="720.803" fill="black" font-size="17" text-anchor="middle">P</text>
  <line x1="1008.76" y1="693.636" x2="1008.76" y2="585.636" stroke="black" stroke-width="3"/> 
  <line x1="1008" y1="531.5" x2="1008" y2="451" stroke="black" stroke-width="3"/> 
  <line x1="1009" y1="415.636" x2="1009" y2="230" stroke="black" stroke-width="3"/> 
  <text x="1008.76" y="577.803" fill="black" font-size="17" text-anchor="middle">P</text>
  <text x="1008.76" y="442.803" fill="black" font-size="17" text-anchor="middle">P</text>
  <polygon points="1983.55,450.317 2008.55,450.317 1996.55,475.317 1996.55,475.317" fill="black" stroke="black" stroke-width="1" transform="rotate(360 595 475) rotate(180 1279.17 367.814)"/> 
  <text x="622.755" y="790.803" fill="black" font-size="17" text-anchor="middle">P</text>
  <line x1="800.755" y1="785.636" x2="630.755" y2="785.636" stroke="black" stroke-width="3"/> 
  <text x="814.755" y="792.803" fill="black" font-size="17" text-anchor="middle">P</text>
  <line x1="950.755" y1="785.636" x2="824.755" y2="785.636" stroke="black" stroke-width="3"/> 
  <line x1="950.255" y1="786.636" x2="950.255" y2="678.636" stroke="black" stroke-width="3"/> 
  <text x="950.255" y="671.803" fill="black" font-size="17" text-anchor="middle">P</text>
  <line x1="950.255" y1="644.636" x2="950" y2="543" stroke="black" stroke-width="3"/> 
  <line x1="950" y1="530" x2="950.255" y2="403.636" stroke="black" stroke-width="3"/> 
  <line x1="950.255" y1="366.636" x2="951" y2="235" stroke="black" stroke-width="3"/> 
  <text x="950.255" y="393.803" fill="black" font-size="17" text-anchor="middle">P</text>
  <text x="1302.76" y="440.803" fill="black" font-size="17" text-anchor="middle">X</text>
  <text x="1189.76" y="354.803" fill="black" font-size="17" text-anchor="middle">X</text>
  <text x="1302.76" y="391.803" fill="black" font-size="17" text-anchor="middle">X</text>
  <line x1="1289.76" y1="435.636" x2="1189.76" y2="435.636" stroke="black" stroke-width="3"/> 
  <line x1="1190" y1="175" x2="1189.76" y2="335.636" stroke="black" stroke-width="3"/> 
  <image x="1144.76" y="187.459" width="70" height="65" xlink:href="DS_CO_valve_tenzor.svg" transform="rotate(270 0 -10)">
    <rt:dyn type="Drive" mode="constant" value="&quot;NONE&quot;"/> 
  </image>
  <line x1="1289.76" y1="385.636" x2="1264.76" y2="385.636" stroke="black" stroke-width="3"/> 
  <polygon points="1280.58,470.939 1305.59,470.939 1293.58,495.939 1293.58,495.939" fill="black" stroke="black" stroke-width="1" transform="flipY(262.191) rotate(360 595 475) rotate(180 1279.17 367.814)"/> 
  <polygon points="1424.78,470.939 1449.79,470.939 1437.78,495.939 1437.78,495.939" fill="black" stroke="black" stroke-width="1" transform="flipY(262.191) rotate(360 595 475) rotate(180 1279.17 367.814)"/> 
  <polygon points="1355.58,480.553 1380.59,480.553 1368.58,505.553 1368.58,505.553" fill="black" stroke="black" stroke-width="1" transform="flipY(277.309) flipY(262.191) rotate(360 595 475) rotate(180 1279.17 367.814)"/> 
  <text x="1263" y="164.167" fill="black" font-size="17" text-anchor="middle">X</text>
  <line x1="1262.5" y1="117.273" x2="1262.5" y2="144" stroke="black" stroke-width="3"/> 
  <text x="1333" y="69.5" fill="black" font-size="15" text-anchor="middle">00QSA13<tspan x="1333" dy="15">AA001</tspan>
  </text>
  <text x="1189.5" y="172.176" fill="black" font-size="17" text-anchor="middle">X</text>
  <line x1="1190" y1="80" x2="1189" y2="152.009" stroke="black" stroke-width="3"/> 
  <text x="1119" y="75" fill="black" font-size="15" text-anchor="middle">00QSA10<tspan x="1119" dy="15">AA002</tspan>
  </text>
  <text x="950.5" y="168.176" fill="black" font-size="17" text-anchor="middle">P</text>
  <line x1="949.136" y1="115.758" x2="949.136" y2="148.009" stroke="black" stroke-width="3"/> 
  <text x="1009" y="75" fill="black" font-size="15" text-anchor="middle">00QSA16<tspan x="1009" dy="15">AA001</tspan>
  </text>
  <text x="761" y="75" fill="black" font-size="15" text-anchor="middle">00QSA10<tspan x="761" dy="15">AA001</tspan>
  </text>
  <polygon points="1845.55,450.317 1870.55,450.317 1858.55,475.317 1858.55,475.317" fill="black" stroke="black" stroke-width="1" transform="rotate(360 595 475) rotate(180 1279.17 367.814)"/> 
  <polygon points="1780.55,450.317 1805.55,450.317 1793.55,475.317 1793.55,475.317" fill="black" stroke="black" stroke-width="1" transform="rotate(360 595 475) rotate(180 1279.17 367.814)"/> 
  <polygon points="1714.54,470.939 1739.55,470.939 1727.54,495.939 1727.54,495.939" fill="black" stroke="black" stroke-width="1" transform="flipY(262.191) rotate(360 595 475) rotate(180 1279.17 367.814)"/> 
  <polygon points="1655.55,450.317 1680.55,450.317 1668.55,475.317 1668.55,475.317" fill="black" stroke="black" stroke-width="1" transform="rotate(360 595 475) rotate(180 1279.17 367.814)"/> 
  <polygon points="1595.54,470.939 1620.55,470.939 1608.54,495.939 1608.54,495.939" fill="black" stroke="black" stroke-width="1" transform="flipY(262.191) rotate(360 595 475) rotate(180 1279.17 367.814)"/> 
  <polygon points="1536.55,450.317 1561.55,450.317 1549.55,475.317 1549.55,475.317" fill="black" stroke="black" stroke-width="1" transform="rotate(360 595 475) rotate(180 1279.17 367.814)"/> 
  <polygon points="1480.55,450.317 1505.55,450.317 1493.55,475.317 1493.55,475.317" fill="black" stroke="black" stroke-width="1" transform="rotate(360 595 475) rotate(180 1279.17 367.814)"/> 
  <text x="1008" y="160.167" fill="black" font-size="17" text-anchor="middle">P</text>
  <line x1="1007.75" y1="100" x2="1008.25" y2="138.001" stroke="black" stroke-width="3"/> 
  <line x1="631.25" y1="829.25" x2="639.5" y2="835.25" stroke="black" stroke-width="3"/> 
  <line x1="631.5" y1="842.25" x2="639.25" y2="835.75" stroke="black" stroke-width="3"/> 
  <line x1="631.25" y1="851" x2="631.5" y2="841.25" stroke="black" stroke-width="3"/> 
  <line x1="699" y1="829" x2="708.25" y2="835.463" stroke="black" stroke-width="3"/> 
  <line x1="700" y1="843" x2="708" y2="835.963" stroke="black" stroke-width="3"/> 
  <line x1="700" y1="852.213" x2="700" y2="842.25" stroke="black" stroke-width="3"/> 
  <line x1="700" y1="780.213" x2="708" y2="786" stroke="black" stroke-width="3"/> 
  <line x1="699.466" y1="792.359" x2="708.75" y2="785" stroke="black" stroke-width="3"/> 
  <line x1="700" y1="801.963" x2="700" y2="791.25" stroke="black" stroke-width="3"/> 
  <line x1="631.75" y1="778.5" x2="640.25" y2="786.213" stroke="black" stroke-width="3"/> 
  <line x1="631.25" y1="793.25" x2="640" y2="785" stroke="black" stroke-width="3"/> 
  <line x1="631.75" y1="802.75" x2="631.75" y2="792.25" stroke="black" stroke-width="3"/> 
  <line x1="631.75" y1="771" x2="631.75" y2="780" stroke="black" stroke-width="3"/> 
  <line x1="700" y1="781" x2="700" y2="768.25" stroke="black" stroke-width="3"/> 
  <line x1="1120" y1="531" x2="1127.5" y2="537.75" stroke="black" stroke-width="3"/> 
  <line x1="1120" y1="543.75" x2="1128.25" y2="536.75" stroke="black" stroke-width="3"/> 
  <line x1="1120" y1="542.75" x2="1120" y2="762" stroke="black" stroke-width="3"/> 
  <line x1="1065.75" y1="530.615" x2="1073.25" y2="537.365" stroke="black" stroke-width="3"/> 
  <line x1="1065" y1="544" x2="1074" y2="536.365" stroke="black" stroke-width="3"/> 
  <line x1="1065" y1="542.75" x2="1065" y2="811.75" stroke="black" stroke-width="3"/> 
  <line x1="1008" y1="530" x2="1017.22" y2="537.365" stroke="black" stroke-width="3"/> 
  <line x1="1008.5" y1="544" x2="1017.97" y2="536.365" stroke="black" stroke-width="3"/> 
  <line x1="1008" y1="563.5" x2="1008.5" y2="542.75" stroke="black" stroke-width="3"/> 
  <line x1="949.686" y1="530.172" x2="958.906" y2="537.537" stroke="black" stroke-width="3"/> 
  <line x1="950.186" y1="544.172" x2="959.656" y2="536.537" stroke="black" stroke-width="3"/> 
  <line x1="948.25" y1="537.25" x2="975" y2="537.25" stroke="black" stroke-width="3"/> 
  <line x1="1002" y1="537.5" x2="1028.75" y2="537.5" stroke="black" stroke-width="3"/> 
  <line x1="1037" y1="537.5" x2="1063.75" y2="537.5" stroke="black" stroke-width="3"/> 
  <line x1="764.686" y1="355.422" x2="772" y2="361.25" stroke="black" stroke-width="3"/> 
  <line x1="765" y1="367.75" x2="772.656" y2="360.787" stroke="black" stroke-width="3"/> 
  <line x1="765" y1="366.25" x2="765" y2="380" stroke="black" stroke-width="3"/> 
  <line x1="765.376" y1="379.173" x2="772.69" y2="385.001" stroke="black" stroke-width="3"/> 
  <line x1="764.69" y1="391.501" x2="773.346" y2="384.538" stroke="black" stroke-width="3"/> 
  <line x1="765" y1="537.25" x2="765" y2="390" stroke="black" stroke-dasharray="30" stroke-width="3"/> 
  <line x1="699.936" y1="355.923" x2="707.25" y2="361.751" stroke="black" stroke-width="3"/> 
  <line x1="700.25" y1="368.251" x2="707.906" y2="361.288" stroke="black" stroke-width="3"/> 
  <line x1="700.25" y1="367.5" x2="700.25" y2="380.501" stroke="black" stroke-width="3"/> 
  <line x1="700.626" y1="379.674" x2="707.94" y2="385.502" stroke="black" stroke-width="3"/> 
  <line x1="699.94" y1="392.002" x2="708.596" y2="385.039" stroke="black" stroke-width="3"/> 
  <line x1="700.5" y1="357.25" x2="700.5" y2="94" stroke="black" stroke-dasharray="30" stroke-width="3"/> 
  <line x1="631.936" y1="355.423" x2="639.25" y2="361.251" stroke="black" stroke-width="3"/> 
  <line x1="632.25" y1="367.751" x2="639.906" y2="360.788" stroke="black" stroke-width="3"/> 
  <line x1="632.25" y1="367" x2="632.25" y2="380.001" stroke="black" stroke-width="3"/> 
  <line x1="632.626" y1="379.174" x2="639.94" y2="385.002" stroke="black" stroke-width="3"/> 
  <line x1="631.94" y1="391.502" x2="640.596" y2="384.539" stroke="black" stroke-width="3"/> 
  <line x1="562.936" y1="354.423" x2="570.25" y2="360.251" stroke="black" stroke-width="3"/> 
  <line x1="563.25" y1="366.751" x2="570.906" y2="359.788" stroke="black" stroke-width="3"/> 
  <line x1="563.25" y1="366" x2="563.25" y2="379.001" stroke="black" stroke-width="3"/> 
  <line x1="563.626" y1="378.174" x2="570.94" y2="384.002" stroke="black" stroke-width="3"/> 
  <line x1="562.94" y1="390.502" x2="571.596" y2="383.539" stroke="black" stroke-width="3"/> 
  <line x1="632.25" y1="356" x2="631.5" y2="78.75" stroke="black" stroke-dasharray="30" stroke-width="3"/> 
  <line x1="562.75" y1="355.256" x2="562" y2="82.75" stroke="black" stroke-dasharray="30" stroke-width="3"/> 
  <line x1="949.136" y1="73.3334" x2="949.136" y2="105.584" stroke="black" stroke-width="3"/> 
  <image x="905.5" y="80" width="70" height="65" xlink:href="DS_CO_valve_tenzor.svg" transform="rotate(270 0 -10)">
    <title>00QSA16AA001</title>
    <rt:dyn type="DATA_NARY" mode="constant" value="&quot;TYPE2&quot;"/> 
    <rt:dyn type="Operate" mode="constant" value="true"/> 
    <rt:dyn type="KKS" mode="constant" value="&quot;00QSA16AA001&quot;"/> 
  </image>
  <line x1="1263.77" y1="74.8485" x2="1263.77" y2="107.1" stroke="black" stroke-width="3"/> 
  <line x1="830.455" y1="123.333" x2="830.455" y2="212.151" stroke="black" stroke-width="3"/> 
  <image x="785.755" y="187.459" width="70" height="65" xlink:href="DS_CO_valve_tenzor.svg" transform="rotate(270 0 -10)">
    <rt:dyn type="Drive" mode="constant" value="&quot;NONE&quot;"/> 
  </image>
  <line x1="830.955" y1="74.8485" x2="830.955" y2="107.099" stroke="black" stroke-width="3"/> 
  <image x="786" y="80" width="70" height="65" xlink:href="DS_CO_valve_tenzor.svg" transform="rotate(270 0 -10)">
    <title>00QSA10AA001</title>
    <rt:dyn type="DATA_NARY" mode="constant" value="&quot;TYPE2&quot;"/> 
    <rt:dyn type="Operate" mode="constant" value="true"/> 
    <rt:dyn type="KKS" mode="constant" value="&quot;00QSA10AA001&quot;"/> 
    <rt:dyn type="Drive" mode="constant" value="&quot;NONE&quot;"/> 
  </image>
  <line x1="890.061" y1="75.394" x2="890.045" y2="209.667" stroke="black" stroke-width="3"/> 
  <image x="844.755" y="187.459" width="70" height="65" xlink:href="DS_CO_valve_tenzor.svg" transform="rotate(270 0 -10)">
    <rt:dyn type="Drive" mode="constant" value="&quot;NONE&quot;"/> 
  </image>
  <image x="1218" y="80" width="70" height="65" xlink:href="DS_CO_valve_tenzor.svg" transform="rotate(270 0 -10)">
    <title>00QSA13AA001</title>
    <rt:dyn type="DATA_NARY" mode="constant" value="&quot;TYPE2&quot;"/> 
    <rt:dyn type="Operate" mode="constant" value="true"/> 
    <rt:dyn type="KKS" mode="constant" value="&quot;00QSA13AA001&quot;"/> 
  </image>
  <image x="367.255" y="328.647" width="175" height="25" xlink:href="DS_ana_tenzor.svg">
    <title>00QSA10CT001</title>
    <rt:dyn type="ShowFrame" mode="constant" value="true"/> 
    <rt:dyn type="X" mode="constant" value="&quot;T&quot;"/> 
    <rt:dyn type="FKKS" mode="constant" value="&quot;00QSA10CT001&quot;"/> 
    <rt:dyn type="ValueToTheRight" mode="constant" value="false"/> 
    <rt:dyn type="Color_Readings" mode="constant" value="true"/> 
  </image>
  <image x="367.255" y="365.647" width="175" height="25" xlink:href="DS_ana_tenzor.svg">
    <title>00QSA10CT002</title>
    <rt:dyn type="ShowFrame" mode="constant" value="true"/> 
    <rt:dyn type="X" mode="constant" value="&quot;T&quot;"/> 
    <rt:dyn type="FKKS" mode="constant" value="&quot;00QSA10CT002&quot;"/> 
    <rt:dyn type="ValueToTheRight" mode="constant" value="false"/> 
    <rt:dyn type="Color_Readings" mode="constant" value="true"/> 
  </image>
  <image x="417.514" y="778.636" width="175" height="25" xlink:href="DS_ana_tenzor.svg">
    <title>00QSA16CT002</title>
    <rt:dyn type="ShowFrame" mode="constant" value="true"/> 
    <rt:dyn type="X" mode="constant" value="&quot;T&quot;"/> 
    <rt:dyn type="FKKS" mode="constant" value="&quot;00QSA16CT002&quot;"/> 
    <rt:dyn type="ValueToTheRight" mode="constant" value="false"/> 
    <rt:dyn type="Color_Readings" mode="constant" value="true"/> 
  </image>
  <image x="417.514" y="816.636" width="175" height="25" xlink:href="DS_ana_tenzor.svg">
    <title>00QSA16CT003</title>
    <rt:dyn type="ShowFrame" mode="constant" value="true"/> 
    <rt:dyn type="X" mode="constant" value="&quot;T&quot;"/> 
    <rt:dyn type="FKKS" mode="constant" value="&quot;00QSA16CT003&quot;"/> 
    <rt:dyn type="ValueToTheRight" mode="constant" value="false"/> 
    <rt:dyn type="Color_Readings" mode="constant" value="true"/> 
  </image>
  <line x1="506.375" y1="59.875" x2="524.125" y2="59.875" stroke="black" stroke-width="3" transform="rotate(90 446.875 175.5)"/> 
  <line x1="457.375" y1="59.875" x2="475.125" y2="59.875" stroke="black" stroke-width="3" transform="rotate(90 446.875 175.5)"/> 
  <image x="517.755" y="187.459" width="70" height="65" xlink:href="DS_CO_valve_tenzor.svg" transform="rotate(270 0 -10)">
    <rt:dyn type="Drive" mode="constant" value="&quot;NONE&quot;"/> 
  </image>
  <line x1="507.375" y1="-9.125" x2="525.125" y2="-9.125" stroke="black" stroke-width="3" transform="rotate(90 446.875 175.5)"/> 
  <line x1="458.375" y1="-9.125" x2="476.125" y2="-9.125" stroke="black" stroke-width="3" transform="rotate(90 446.875 175.5)"/> 
  <image x="586.755" y="187.459" width="70" height="65" xlink:href="DS_CO_valve_tenzor.svg" transform="rotate(270 0 -10)">
    <rt:dyn type="Drive" mode="constant" value="&quot;NONE&quot;"/> 
  </image>
  <line x1="507.375" y1="-77.125" x2="525.125" y2="-77.125" stroke="black" stroke-width="3" transform="rotate(90 446.875 175.5)"/> 
  <line x1="458.375" y1="-77.125" x2="476.125" y2="-77.125" stroke="black" stroke-width="3" transform="rotate(90 446.875 175.5)"/> 
  <image x="655.422" y="187.459" width="70" height="65" xlink:href="DS_CO_valve_tenzor.svg" transform="rotate(270 0 -10)">
    <rt:dyn type="Drive" mode="constant" value="&quot;NONE&quot;"/> 
  </image>
  <line x1="510.375" y1="-143.125" x2="528.125" y2="-143.125" stroke="black" stroke-width="3" transform="rotate(90 446.875 175.5)"/> 
  <line x1="461.375" y1="-143.125" x2="479.125" y2="-143.125" stroke="black" stroke-width="3" transform="rotate(90 446.875 175.5)"/> 
  <image x="720.422" y="187.459" width="70" height="65" xlink:href="DS_CO_valve_tenzor.svg" transform="rotate(270 0 -10)">
    <rt:dyn type="Drive" mode="constant" value="&quot;NONE&quot;"/> 
  </image>
  <line x1="446.375" y1="-328.125" x2="482.375" y2="-328.125" stroke="black" stroke-width="3" transform="rotate(90 446.875 175.5)"/> 
  <image x="906" y="187" width="70" height="65" xlink:href="DS_CO_valve_tenzor.svg" transform="rotate(270 0 -10)">
    <rt:dyn type="Drive" mode="constant" value="&quot;NONE&quot;"/> 
  </image>
  <line x1="439.375" y1="-385.625" x2="483.375" y2="-385.625" stroke="black" stroke-width="3" transform="rotate(90 446.875 175.5)"/> 
  <image x="963.755" y="187.459" width="70" height="65" xlink:href="DS_CO_valve_tenzor.svg" transform="rotate(270 0 -10)">
    <rt:dyn type="Drive" mode="constant" value="&quot;NONE&quot;"/> 
  </image>
  <line x1="1065.3" y1="82.4245" x2="1065.29" y2="216.697" stroke="black" stroke-width="3"/> 
  <image x="1019.76" y="187.459" width="70" height="65" xlink:href="DS_CO_valve_tenzor.svg" transform="rotate(270 0 -10)">
    <rt:dyn type="Drive" mode="constant" value="&quot;NONE&quot;"/> 
  </image>
  <line x1="1121.35" y1="99.091" x2="1121.35" y2="214.242" stroke="black" stroke-width="3"/> 
  <image x="1075.76" y="187.459" width="70" height="65" xlink:href="DS_CO_valve_tenzor.svg" transform="rotate(270 0 -10)">
    <rt:dyn type="Drive" mode="constant" value="&quot;NONE&quot;"/> 
  </image>
  <image x="1076" y="91" width="70" height="65" xlink:href="DS_CO_valve_tenzor.svg" transform="rotate(270 0 -10)">
    <title>00QSA10AA002</title>
    <rt:dyn type="DATA_NARY" mode="constant" value="&quot;TYPE2&quot;"/> 
    <rt:dyn type="Operate" mode="constant" value="true"/> 
    <rt:dyn type="KKS" mode="constant" value="&quot;00QSA10AA002&quot;"/> 
  </image>
</svg>
