<?xml  version="1.0" encoding="windows-1251"?>
<svg color="Col_BGSand" xmlns="http://www.w3.org/2000/svg" xmlns:rt="http://www.rts.co.at/2001/XMLSchema/RtSvgPL" xmlns:xlink="http://www.w3.org/1999/xlink" xmlns:xsi="http://www.w3.org/2001/XMLSchema-instance" xsi:schemaLocation="http://www.w3.org/2000/svg C:\RTS\RtSvg\XML\SVG.xsd" viewBox="0 0 1920 1080" width="1920" height="1080" id="00cxn01_masloapp_2" fill="Col_Grey3">
  <rt:model modelversion="7.2.0.24" comment="Создано VNIIAES-ASUTP\voroninrs 10.12.2012 14:48:20"/> 
  <line x1="298" y1="433" x2="298" y2="433" stroke="black"/> 
  <line x1="344" y1="425" x2="342" y2="0"/> 
  <line x1="592.727" y1="690.909" x2="592.727" y2="690.909" stroke="black"/> 
  <line x1="749.091" y1="939.091" x2="749.091" y2="939.091" stroke="black"/> 
  <line x1="638.182" y1="881.818" x2="638.182" y2="881.818" stroke="black"/> 
  <line x1="214.545" y1="692.727" x2="214.545" y2="692.727" stroke="black"/> 
  <line x1="259.091" y1="771.818" x2="259.091" y2="771.818" stroke="black"/> 
  <line x1="195.455" y1="720" x2="195.455" y2="720" stroke="black"/> 
  <line x1="186.364" y1="713.636" x2="186.364" y2="713.636" stroke="black"/> 
  <line x1="191.818" y1="715.455" x2="191.818" y2="715.455" stroke="black"/> 
  <line x1="985.455" y1="149.091" x2="985.455" y2="149.091" stroke="black"/> 
  <line x1="1150" y1="365" x2="1150" y2="365" stroke="black"/> 
  <line x1="1274" y1="337" x2="1274" y2="337" stroke="black"/> 
  <line x1="1029" y1="375" x2="1029" y2="375" stroke="black"/> 
  <line x1="1215.33" y1="421.333" x2="1215.33" y2="421.333" stroke="black"/> 
  <line x1="1007" y1="314.75" x2="1007" y2="314.75" stroke="black"/> 
  <line x1="1027.27" y1="820" x2="1027.27" y2="820" stroke="black"/> 
  <line x1="675" y1="65" x2="675" y2="65" stroke="black"/> 
  <line x1="1468" y1="294" x2="1468" y2="294" stroke="black"/> 
  <line x1="1066.67" y1="766" x2="1066.67" y2="766" stroke="black"/> 
  <text x="25" y="25" fill="black" font-size="15">00UEL 00CXN01 МАСЛОАППАРАТНАЯ 2</text>
  <g transform="flipY(791.802) flipY(430.309) rotate(90 850 184) rotate(0 1.4013e-045 3.88002e-039) flipX(225.309) flipX(76.3091) flipX(616.809) rotate(90 132.155 29.823) rotate(360 1.4013e-045 2.31881e-039) flipY(911)">
    <polygon points="-93.0023,2114.36 -68.0024,2114.36 -80.0024,2139.36 -80.0024,2139.36" fill="black" stroke="black" stroke-width="1" transform="rotate(180 1279.17 367.814)"/> 
  </g>
  <g transform="flipY(605.309) flipY(331.309) rotate(90 850 184) rotate(0 1.4013e-045 3.88002e-039) flipX(225.309) flipX(76.3091) flipX(616.809) rotate(90 132.155 29.823) rotate(360 1.4013e-045 2.31881e-039) flipY(911)">
    <polygon points="-252.003,2125.86 -227.003,2125.86 -239.003,2150.86 -239.003,2150.86" fill="black" stroke="black" stroke-width="1" transform="rotate(180 1279.17 367.814)"/> 
  </g>
  <g transform="flipY(426.309) flipY(331.309) rotate(90 850 184) rotate(0 1.4013e-045 3.88002e-039) flipX(225.309) flipX(76.3091) flipX(616.809) rotate(90 132.155 29.823) rotate(360 1.4013e-045 2.31881e-039) flipY(911)">
    <polygon points="-249.002,1946.86 -224.002,1946.86 -236.002,1971.86 -236.002,1971.86" fill="black" stroke="black" stroke-width="1" transform="rotate(180 1279.17 367.814)"/> 
  </g>
  <polygon points="2012.95,2287.53 2037.95,2287.53 2025.95,2312.53 2025.95,2312.53" fill="black" stroke="black" stroke-width="1" transform="rotate(180 1279.17 367.814)"/> 
  <image x="495" y="945" width="175" height="25" xlink:href="DS_ana_tenzor.svg">
    <title>00QSB17CL002</title>
    <rt:dyn type="ShowFrame" mode="constant" value="true"/> 
    <rt:dyn type="X" mode="constant" value="&quot;L&quot;"/> 
    <rt:dyn type="FKKS" mode="constant" value="&quot;00QSB17CL002&quot;"/> 
    <rt:dyn type="Color_Readings" mode="constant" value="true"/> 
  </image>
  <line x1="950" y1="125" x2="850" y2="125" stroke="black" stroke-width="3"/> 
  <line x1="1375" y1="200" x2="1375" y2="157" stroke="black" stroke-width="3"/> 
  <text x="63.5" y="664.5" fill="black" font-size="15" text-anchor="middle">00QSB13<tspan x="63.5" dy="15">AA001</tspan>
  </text>
  <text x="689.5" y="151.5" fill="black" font-size="15" text-anchor="middle">00QSB13AP001</text>
  <text x="1032" y="72" fill="black" font-size="15" text-anchor="middle">Отработанное масло<tspan x="1032" dy="15">в АЦ на вывоз</tspan>
  </text>
  <rect x="7.72731" y="96.0606" width="1809.77" height="653.439" rx="0" ry="0" fill="none" stroke="white" stroke-width="3"/> 
  <polygon points="995.545,438.51 1020.55,438.51 1008.55,463.51 1008.55,463.51" fill="black" stroke="black" stroke-width="1" transform="flipY(470.309) rotate(180 1279.17 367.814)"/> 
  <line x1="1375" y1="199" x2="1175" y2="199" stroke="black" stroke-width="3"/> 
  <line x1="948.5" y1="126" x2="948.5" y2="76" stroke="black" stroke-width="3"/> 
  <text x="838" y="130.5" fill="black" font-size="15" text-anchor="middle">Х</text>
  <line x1="825" y1="125" x2="575" y2="125" stroke="black" stroke-width="3"/> 
  <text x="566" y="130.5" fill="black" font-size="15" text-anchor="middle">Х</text>
  <line x1="558" y1="125" x2="180" y2="125" stroke="black" stroke-width="3"/> 
  <polygon points="2386.55,1433.13 2411.55,1433.13 2399.55,1458.13 2399.55,1458.13" fill="white" stroke="black" stroke-width="1" transform="flipX(1050.31) rotate(90 610 575) rotate(180 1279.17 367.814)"/> 
  <text x="168" y="130.5" fill="black" font-size="15" text-anchor="middle">Х</text>
  <line x1="158" y1="125" x2="7.72731" y2="125" stroke="black" stroke-width="3"/> 
  <line x1="1375" y1="133" x2="1375" y2="69" stroke="black" stroke-width="3"/> 
  <text x="1375" y="149.5" fill="black" font-size="15" text-anchor="middle">Х</text>
  <text x="1166" y="205.5" fill="black" font-size="15" text-anchor="middle">Х</text>
  <line x1="1156" y1="200" x2="856.212" y2="200" stroke="black" stroke-width="3"/> 
  <polygon points="2311.34,701.248 2336.34,701.248 2324.34,726.248 2324.34,726.248" fill="white" stroke="black" stroke-width="1" transform="flipX(1050.31) rotate(90 610 575) rotate(180 1279.17 367.814)"/> 
  <polygon points="2311.34,789.63 2336.34,789.63 2324.34,814.63 2324.34,814.63" fill="white" stroke="black" stroke-width="1" transform="flipX(968.309) flipX(1050.31) rotate(90 610 575) rotate(180 1279.17 367.814)"/> 
  <g transform="rotate(90 740.001 400)">
    <rect x="553.325" y="307.277" width="50" height="50" rx="0" ry="0" fill="Col_BGSand" stroke="black" transform="rotate(315 306 275)"/> 
    <line x1="504.063" y1="122.938" x2="574.063" y2="122.938" stroke="black" stroke-dasharray="5,5"/> 
  </g>
  <line x1="1750" y1="301" x2="1750" y2="51" stroke="black" stroke-width="3"/> 
  <text x="250" y="256.25" fill="black" font-size="15" text-anchor="middle">Х</text>
  <line x1="1750" y1="299" x2="959.242" y2="299" stroke="black" stroke-width="3"/> 
  <line x1="1550" y1="175" x2="1375" y2="175" stroke="black" stroke-width="3"/> 
  <line x1="1550" y1="295" x2="1550" y2="246" stroke="black" stroke-width="3"/> 
  <line x1="1550" y1="225" x2="1550" y2="175" stroke="black" stroke-width="3"/> 
  <text x="1550" y="240" fill="black" font-size="15" text-anchor="middle">Х</text>
  <line x1="1550" y1="648" x2="1550" y2="355" stroke="black" stroke-width="3"/> 
  <line x1="1700" y1="403" x2="1550" y2="403" stroke="black" stroke-width="3"/> 
  <line x1="1699.97" y1="347.126" x2="1699.82" y2="298.005" stroke="black" stroke-width="3"/> 
  <circle cx="1550.38" cy="546.969" r="31" fill="Col_BGSand" stroke="black"/> 
  <line x1="1549.5" y1="544" x2="1581.5" y2="514" stroke="black"/> 
  <line x1="1574.5" y1="504.544" x2="1589.5" y2="524.25" stroke="black"/> 
  <polygon points="1279.84,1009.75 1304.84,1009.75 1292.84,1034.75 1292.84,1034.75" fill="white" stroke="black" stroke-width="1" transform="flipY(512.191) rotate(270 759 440) rotate(360 1.4013e-045 2.77761e-039) flipX(653.309) flipX(1050.31) rotate(90 610 575) rotate(180 1279.17 367.814)"/> 
  <polygon points="1279.55,940.512 1304.55,940.512 1292.55,965.512 1292.55,965.512" fill="white" stroke="black" stroke-width="1" transform="rotate(270 759 440) rotate(360 1.4013e-045 2.77761e-039) flipX(653.309) flipX(1050.31) rotate(90 610 575) rotate(180 1279.17 367.814)"/> 
  <text x="1633.5" y="636" fill="black" font-size="15" text-anchor="middle">В трубопровод<tspan x="1633.5" dy="15">опорожнения</tspan>
  </text>
  <polygon points="2211.34,528.13 2236.34,528.13 2224.34,553.13 2224.34,553.13" fill="white" stroke="black" stroke-width="1" transform="flipX(1050.31) rotate(90 610 575) rotate(180 1279.17 367.814)"/> 
  <polygon points="2211.34,962.748 2236.34,962.748 2224.34,987.748 2224.34,987.748" fill="white" stroke="black" stroke-width="1" transform="flipX(968.309) flipX(1050.31) rotate(90 610 575) rotate(180 1279.17 367.814)"/> 
  <g transform="rotate(90 740.001 400)">
    <rect x="746.449" y="255.576" width="50" height="50" rx="0" ry="0" fill="Col_BGSand" stroke="black" transform="rotate(315 306 275)"/> 
    <line x1="604.063" y1="-50.1802" x2="674.063" y2="-50.1802" stroke="black" stroke-dasharray="5,5"/> 
  </g>
  <line x1="478" y1="1025" x2="321" y2="1025" stroke="black" stroke-width="7"/> 
  <line x1="475" y1="845" x2="475" y2="1025" stroke="black" stroke-width="7"/> 
  <line x1="325" y1="845" x2="325" y2="1025" stroke="black" stroke-width="7"/> 
  <line x1="325" y1="850" x2="475" y2="850" stroke="black"/> 
  <line x1="325" y1="900" x2="250.152" y2="900" stroke="black" stroke-width="3"/> 
  <polygon points="2225.16,186.51 2250.16,186.51 2238.16,211.51 2238.16,211.51" fill="black" stroke="black" stroke-width="1" transform="rotate(270 557 663) rotate(0 1.4013e-045 3.97147e-039) flipY(470.309) rotate(180 1279.17 367.814)"/> 
  <line x1="150" y1="900" x2="86" y2="900" stroke="black" stroke-width="3"/> 
  <line x1="61" y1="900" x2="0" y2="900" stroke="black" stroke-width="3"/> 
  <text x="540" y="1007.5" fill="black" font-size="15" text-anchor="middle">00QSB17<tspan x="540" dy="15">BB002</tspan>
  </text>
  <image x="1006" y="943" width="175" height="25" xlink:href="DS_ana_tenzor.svg">
    <title>00QSB17CL001</title>
    <rt:dyn type="ShowFrame" mode="constant" value="true"/> 
    <rt:dyn type="X" mode="constant" value="&quot;L&quot;"/> 
    <rt:dyn type="FKKS" mode="constant" value="&quot;00QSB17CL001&quot;"/> 
    <rt:dyn type="Color_Readings" mode="constant" value="true"/> 
  </image>
  <line x1="997" y1="1024" x2="840" y2="1024" stroke="black" stroke-width="7"/> 
  <line x1="994" y1="844" x2="994" y2="1024" stroke="black" stroke-width="7"/> 
  <line x1="844" y1="844" x2="844" y2="1024" stroke="black" stroke-width="7"/> 
  <line x1="844" y1="849" x2="994" y2="849" stroke="black"/> 
  <text x="1040" y="1004.5" fill="black" font-size="15" text-anchor="middle">00QSB17<tspan x="1040" dy="15">BB001</tspan>
  </text>
  <line x1="575" y1="731.75" x2="575" y2="682.424" stroke="black" stroke-width="3"/> 
  <line x1="425" y1="823.25" x2="425" y2="850" stroke="black" stroke-width="3"/> 
  <line x1="500" y1="825" x2="425" y2="825" stroke="black" stroke-width="3"/> 
  <text x="512" y="830.5" fill="black" font-size="15" text-anchor="middle">Х</text>
  <line x1="575" y1="825" x2="525" y2="825" stroke="black" stroke-width="3"/> 
  <line x1="69" y1="779.5" x2="8" y2="779.5" stroke="black" stroke-width="3"/> 
  <line x1="158" y1="779.5" x2="83" y2="779.5" stroke="black" stroke-width="3"/> 
  <line x1="258" y1="779.5" x2="183" y2="779.5" stroke="black" stroke-width="3"/> 
  <line x1="358" y1="779.5" x2="283" y2="779.5" stroke="black" stroke-width="3"/> 
  <line x1="458" y1="779.5" x2="383" y2="779.5" stroke="black" stroke-width="3"/> 
  <line x1="707.5" y1="779.5" x2="632.5" y2="779.5" stroke="black" stroke-width="3"/> 
  <line x1="803.5" y1="779.5" x2="728.5" y2="779.5" stroke="black" stroke-width="3"/> 
  <line x1="907" y1="779" x2="875" y2="779" stroke="black" stroke-width="3"/> 
  <line x1="72" y1="763.5" x2="11" y2="763.5" stroke="black" stroke-width="3"/> 
  <line x1="161" y1="763.5" x2="86" y2="763.5" stroke="black" stroke-width="3"/> 
  <line x1="261" y1="763.5" x2="186" y2="763.5" stroke="black" stroke-width="3"/> 
  <line x1="361" y1="763.5" x2="286" y2="763.5" stroke="black" stroke-width="3"/> 
  <line x1="461" y1="763.5" x2="386" y2="763.5" stroke="black" stroke-width="3"/> 
  <line x1="569" y1="763.5" x2="494" y2="763.5" stroke="black" stroke-width="3"/> 
  <line x1="606.25" y1="763.25" x2="581" y2="763" stroke="black" stroke-width="3"/> 
  <line x1="707.5" y1="764.5" x2="632.5" y2="764.5" stroke="black" stroke-width="3"/> 
  <line x1="803.5" y1="764.5" x2="728.5" y2="764.5" stroke="black" stroke-width="3"/> 
  <line x1="950" y1="764.5" x2="875" y2="764.5" stroke="black" stroke-width="3"/> 
  <line x1="906" y1="817" x2="906" y2="850" stroke="black" stroke-width="3"/> 
  <line x1="950" y1="813" x2="950" y2="850" stroke="black" stroke-width="3"/> 
  <line x1="950" y1="764" x2="950" y2="800" stroke="black" stroke-width="3"/> 
  <line x1="975" y1="850" x2="975" y2="775" stroke="black" stroke-width="3"/> 
  <text x="975" y="765.5" fill="black" font-size="15" text-anchor="middle">Х</text>
  <line x1="975" y1="750" x2="975" y2="625" stroke="black" stroke-width="3"/> 
  <line x1="975" y1="725" x2="825" y2="725" stroke="black" stroke-width="3"/> 
  <line x1="1298" y1="594" x2="1298" y2="740" stroke="black" stroke-width="7"/> 
  <line x1="1147" y1="593" x2="1148" y2="737" stroke="black" stroke-width="7"/> 
  <line x1="1147" y1="598" x2="1297" y2="598" stroke="black"/> 
  <line x1="1223" y1="550" x2="1223" y2="600" stroke="black" stroke-width="3"/> 
  <image x="1310" y="639" width="175" height="25" xlink:href="DS_ana_tenzor.svg">
    <title>00QSB17CL003</title>
    <rt:dyn type="ShowFrame" mode="constant" value="true"/> 
    <rt:dyn type="X" mode="constant" value="&quot;L&quot;"/> 
    <rt:dyn type="FKKS" mode="constant" value="&quot;00QSB17CL003&quot;"/> 
    <rt:dyn type="Color_Readings" mode="constant" value="true"/> 
  </image>
  <text x="1361" y="718.5" fill="black" font-size="15" text-anchor="middle">Дренажный<tspan x="1361" dy="15">приямок</tspan>
  </text>
  <text x="813" y="730.5" fill="black" font-size="15" text-anchor="middle">Х</text>
  <line x1="800" y1="725" x2="581" y2="725" stroke="black" stroke-width="3"/> 
  <line x1="480.455" y1="725" x2="275" y2="725" stroke="black" stroke-width="3"/> 
  <line x1="976" y1="626.576" x2="817.818" y2="626.424" stroke="black" stroke-width="3"/> 
  <line x1="674" y1="625" x2="674" y2="550" stroke="black" stroke-width="3"/> 
  <line x1="1225" y1="551.303" x2="924.394" y2="551.303" stroke="black" stroke-width="3"/> 
  <line x1="905.5" y1="780" x2="905.5" y2="805" stroke="black" stroke-width="3"/> 
  <line x1="275" y1="726" x2="275" y2="626" stroke="black" stroke-width="3"/> 
  <line x1="111" y1="626.5" x2="68.3334" y2="626.5" stroke="black" stroke-width="3"/> 
  <text x="118" y="631.5" fill="black" font-size="15" text-anchor="middle">Х</text>
  <line x1="250" y1="581.5" x2="250" y2="625" stroke="black" stroke-width="3"/> 
  <text x="1550" y="349" fill="black" font-size="15" text-anchor="middle">Х</text>
  <line x1="850.5" y1="341.515" x2="850.5" y2="299" stroke="black" stroke-width="3"/> 
  <line x1="850" y1="400" x2="0" y2="400" stroke="black" stroke-width="3"/> 
  <text x="686.5" y="353" fill="black" font-size="15" text-anchor="middle">00QSB10AP001</text>
  <line x1="375" y1="405" x2="375" y2="467" stroke="black" stroke-width="3"/> 
  <line x1="475" y1="425" x2="375" y2="425" stroke="black" stroke-width="3"/> 
  <line x1="475" y1="476" x2="475" y2="552" stroke="black" stroke-width="3"/> 
  <line x1="375" y1="525" x2="6.21215" y2="525" stroke="black" stroke-width="3"/> 
  <line x1="475" y1="550" x2="4.697" y2="550" stroke="black" stroke-width="3"/> 
  <line x1="575" y1="575" x2="4.697" y2="575" stroke="black" stroke-width="3"/> 
  <line x1="576" y1="448" x2="576" y2="577" stroke="black" stroke-width="3"/> 
  <line x1="1375" y1="450" x2="575" y2="450" stroke="black" stroke-width="3"/> 
  <line x1="1374.97" y1="451" x2="1374.97" y2="369.788" stroke="black" stroke-width="3"/> 
  <line x1="250" y1="193.5" x2="250" y2="125" stroke="black" stroke-width="3"/> 
  <line x1="256.25" y1="200" x2="250" y2="192.25" stroke="black" stroke-width="3"/> 
  <line x1="256.25" y1="233.308" x2="250" y2="226" stroke="black" stroke-width="3" transform="flipY(216.125)"/> 
  <line x1="250" y1="240" x2="250" y2="205" stroke="black" stroke-width="3"/> 
  <line x1="250" y1="293.75" x2="250" y2="260" stroke="black" stroke-width="3"/> 
  <line x1="256.168" y1="300.942" x2="249.918" y2="293.192" stroke="black" stroke-width="3"/> 
  <line x1="256.168" y1="132.366" x2="249.918" y2="125.058" stroke="black" stroke-width="3" transform="flipY(216.125)"/> 
  <line x1="250" y1="394" x2="250" y2="306.25" stroke="black" stroke-width="3"/> 
  <line x1="256.168" y1="400.692" x2="249.918" y2="392.942" stroke="black" stroke-width="3"/> 
  <line x1="256.168" y1="32.6164" x2="250" y2="25.5" stroke="black" stroke-width="3" transform="flipY(216.125)"/> 
  <text x="250" y="445" fill="black" font-size="15" text-anchor="middle">Х</text>
  <line x1="250" y1="433.75" x2="250" y2="406" stroke="black" stroke-width="3"/> 
  <line x1="250" y1="518" x2="250" y2="448.5" stroke="black" stroke-width="3"/> 
  <line x1="255.918" y1="525.442" x2="249.668" y2="517.692" stroke="black" stroke-width="3"/> 
  <line x1="255.918" y1="-92.1332" x2="249.75" y2="-99.2496" stroke="black" stroke-width="3" transform="flipY(216.125)"/> 
  <line x1="256.168" y1="550.942" x2="250" y2="544" stroke="black" stroke-width="3"/> 
  <line x1="256.168" y1="-117.633" x2="250" y2="-124.749" stroke="black" stroke-width="3" transform="flipY(216.125)"/> 
  <line x1="256.418" y1="575.692" x2="250.168" y2="567.942" stroke="black" stroke-width="3"/> 
  <line x1="256.418" y1="-142.383" x2="250" y2="-150.5" stroke="black" stroke-width="3" transform="flipY(216.125)"/> 
  <line x1="250" y1="545" x2="250" y2="530" stroke="black" stroke-width="3"/> 
  <line x1="250" y1="569" x2="250" y2="556" stroke="black" stroke-width="3"/> 
  <text x="150" y="256.25" fill="black" font-size="15" text-anchor="middle">Х</text>
  <line x1="150" y1="581.5" x2="150" y2="625" stroke="black" stroke-width="3"/> 
  <line x1="150" y1="240" x2="150" y2="198.5" stroke="black" stroke-width="3"/> 
  <line x1="150" y1="293.75" x2="150" y2="260" stroke="black" stroke-width="3"/> 
  <line x1="156.168" y1="300.942" x2="149.918" y2="293.192" stroke="black" stroke-width="3"/> 
  <line x1="156.168" y1="132.366" x2="149.918" y2="125.058" stroke="black" stroke-width="3" transform="flipY(216.125)"/> 
  <line x1="150" y1="394" x2="150" y2="306.25" stroke="black" stroke-width="3"/> 
  <line x1="156.168" y1="400.692" x2="149.918" y2="392.942" stroke="black" stroke-width="3"/> 
  <line x1="156.168" y1="32.6164" x2="150" y2="25.5" stroke="black" stroke-width="3" transform="flipY(216.125)"/> 
  <text x="150" y="445" fill="black" font-size="15" text-anchor="middle">Х</text>
  <line x1="150" y1="433.75" x2="150" y2="406" stroke="black" stroke-width="3"/> 
  <line x1="150" y1="518" x2="150" y2="448.5" stroke="black" stroke-width="3"/> 
  <line x1="155.918" y1="525.442" x2="149.668" y2="517.692" stroke="black" stroke-width="3"/> 
  <line x1="155.918" y1="-92.1332" x2="149.75" y2="-99.2496" stroke="black" stroke-width="3" transform="flipY(216.125)"/> 
  <line x1="156.168" y1="550.942" x2="150" y2="544" stroke="black" stroke-width="3"/> 
  <line x1="156.168" y1="-117.633" x2="150" y2="-124.749" stroke="black" stroke-width="3" transform="flipY(216.125)"/> 
  <line x1="156.418" y1="575.692" x2="150.168" y2="567.942" stroke="black" stroke-width="3"/> 
  <line x1="156.418" y1="-142.383" x2="150" y2="-150.5" stroke="black" stroke-width="3" transform="flipY(216.125)"/> 
  <line x1="150" y1="545" x2="150" y2="530" stroke="black" stroke-width="3"/> 
  <line x1="150" y1="569" x2="150" y2="556" stroke="black" stroke-width="3"/> 
  <line x1="582.25" y1="725" x2="575.668" y2="718.692" stroke="black" stroke-width="3"/> 
  <line x1="574.552" y1="-286.732" x2="567.75" y2="-292.75" stroke="black" stroke-width="3" transform="flipY(216.125)"/> 
  <line x1="581.75" y1="763.5" x2="575.162" y2="757.958" stroke="black" stroke-width="3"/> 
  <line x1="575.046" y1="-325.853" x2="568.244" y2="-331.871" stroke="black" stroke-width="3" transform="flipY(216.125)"/> 
  <line x1="569" y1="779.69" x2="494" y2="779.69" stroke="black" stroke-width="3"/> 
  <line x1="606.25" y1="779.44" x2="581" y2="779.19" stroke="black" stroke-width="3"/> 
  <line x1="581.75" y1="779.69" x2="575.162" y2="774.148" stroke="black" stroke-width="3"/> 
  <line x1="575.046" y1="-342.043" x2="568.244" y2="-348.061" stroke="black" stroke-width="3" transform="flipY(216.125)"/> 
  <line x1="858" y1="778.75" x2="825.25" y2="778.75" stroke="black" stroke-width="3"/> 
  <line x1="858" y1="764.75" x2="824.25" y2="764.75" stroke="black" stroke-width="3"/> 
  <line x1="380.918" y1="400.442" x2="374.668" y2="392.692" stroke="black" stroke-width="3"/> 
  <line x1="380.918" y1="32.8668" x2="374.75" y2="25.7504" stroke="black" stroke-width="3" transform="flipY(216.125)"/> 
  <line x1="375" y1="394" x2="375" y2="300" stroke="black" stroke-width="3"/> 
  <line x1="1556.42" y1="299.442" x2="1550.17" y2="291.692" stroke="black" stroke-width="3"/> 
  <line x1="1556.42" y1="133.867" x2="1550" y2="127.25" stroke="black" stroke-width="3" transform="flipY(216.125)"/> 
  <line x1="1550" y1="334" x2="1550.25" y2="304.5" stroke="black" stroke-width="3"/> 
  <text x="575" y="745" fill="black" font-size="15" text-anchor="middle">Х</text>
  <line x1="575" y1="746" x2="575" y2="826" stroke="black" stroke-width="3"/> 
  <line x1="1301" y1="736.5" x2="1144" y2="736.5" stroke="black" stroke-width="7"/> 
  <text x="470.606" y="667.651" fill="black" font-size="15" text-anchor="middle">00QSB17AP001</text>
  <text x="531" y="427.5" fill="black" font-size="15" text-anchor="middle">00QSB10<tspan x="531" dy="15">AA002</tspan>
  </text>
  <text x="306" y="423.5" fill="black" font-size="15" text-anchor="middle">00QSB10<tspan x="306" dy="15">AA001</tspan>
  </text>
  <text x="85.7577" y="873.712" fill="black" font-size="15" text-anchor="middle">От склада<tspan x="85.7577" dy="15">огнестойкого масла</tspan>
  </text>
  <line x1="475" y1="423" x2="475" y2="460" stroke="black" stroke-width="3"/> 
  <image x="430" y="433.75" width="70" height="65" xlink:href="DS_CO_valve_tenzor.svg" transform="rotate(270 0 -10)">
    <title>00QSB10AA002</title>
    <rt:dyn type="DATA_NARY" mode="constant" value="&quot;TYPE2&quot;"/> 
    <rt:dyn type="Operate" mode="constant" value="true"/> 
    <rt:dyn type="KKS" mode="constant" value="&quot;00QSB10AA002&quot;"/> 
    <rt:dyn type="Drive" mode="constant" value="&quot;NONE&quot;"/> 
  </image>
  <line x1="375" y1="487" x2="375" y2="527" stroke="black" stroke-width="3"/> 
  <image x="330" y="443" width="70" height="65" xlink:href="DS_CO_valve_tenzor.svg" transform="rotate(270 0 -10)">
    <title>00QSB10AA001</title>
    <rt:dyn type="DATA_NARY" mode="constant" value="&quot;TYPE2&quot;"/> 
    <rt:dyn type="Operate" mode="constant" value="true"/> 
    <rt:dyn type="KKS" mode="constant" value="&quot;00QSB10AA001&quot;"/> 
  </image>
  <line x1="939.485" y1="300.099" x2="575.909" y2="300.099" stroke="black" stroke-width="3"/> 
  <image x="915" y="257" width="70" height="65" xlink:href="DS_CO_valve_tenzor.svg" transform="rotate(360 0 -10)">
    <rt:dyn type="Drive" mode="constant" value="&quot;NONE&quot;"/> 
  </image>
  <image x="651.5" y="264" width="70" height="70" xlink:href="DS_motor_tenzor.svg" transform="flipX() rotate(360 0 0)">
    <title>00QSB10AP001</title>
    <rt:dyn type="KKS" mode="constant" value="&quot;00QSB10AP001&quot;"/> 
    <rt:dyn type="DATA_NARY" mode="constant" value="&quot;TYPE2&quot;"/> 
    <rt:dyn type="Operate" mode="constant" value="true"/> 
    <rt:dyn type="DeviceType" mode="constant" value="&quot;pump&quot;"/> 
  </image>
  <line x1="553.122" y1="300.099" x2="498.636" y2="300.099" stroke="black" stroke-width="3"/> 
  <line x1="481.909" y1="299.091" x2="4.697" y2="299.091" stroke="black" stroke-width="3"/> 
  <image x="453" y="256.5" width="70" height="65" xlink:href="DS_CO_valve_tenzor.svg" transform="rotate(360 0 -10)">
    <rt:dyn type="Drive" mode="constant" value="&quot;NONE&quot;"/> 
  </image>
  <image x="525" y="277.5" width="70" height="52.5" xlink:href="DS_reflux_valve.svg" transform="flipX() rotate(180 0 -3.75)">
    <rt:dyn type="Drive" mode="constant" value="&quot;NONE&quot;"/> 
  </image>
  <line x1="850.136" y1="402.212" x2="850.136" y2="359.697" stroke="black" stroke-width="3"/> 
  <image x="805.5" y="318" width="70" height="65" xlink:href="DS_CO_valve_tenzor.svg" transform="rotate(270 0 -10)">
    <rt:dyn type="Drive" mode="constant" value="&quot;NONE&quot;"/> 
  </image>
  <line x1="483.455" y1="199.091" x2="148.606" y2="199.076" stroke="black" stroke-width="3"/> 
  <line x1="845.606" y1="199.091" x2="575.909" y2="199.076" stroke="black" stroke-width="3"/> 
  <image x="651.5" y="164" width="70" height="70" xlink:href="DS_motor_tenzor.svg" transform="flipX() rotate(360 0 0)">
    <title>00QSB13AP001</title>
    <rt:dyn type="KKS" mode="constant" value="&quot;00QSB13AP001&quot;"/> 
    <rt:dyn type="DATA_NARY" mode="constant" value="&quot;TYPE2&quot;"/> 
    <rt:dyn type="Operate" mode="constant" value="true"/> 
    <rt:dyn type="DeviceType" mode="constant" value="&quot;pump&quot;"/> 
  </image>
  <image x="815" y="156.5" width="70" height="65" xlink:href="DS_CO_valve_tenzor.svg" transform="rotate(360 0 -10)">
    <rt:dyn type="Drive" mode="constant" value="&quot;NONE&quot;"/> 
  </image>
  <line x1="553.182" y1="199.076" x2="501.667" y2="199.091" stroke="black" stroke-width="3"/> 
  <image x="456" y="156.5" width="70" height="65" xlink:href="DS_CO_valve_tenzor.svg" transform="rotate(360 0 -10)">
    <rt:dyn type="Drive" mode="constant" value="&quot;NONE&quot;"/> 
  </image>
  <image x="528" y="176.5" width="70" height="52.5" xlink:href="DS_reflux_valve.svg" transform="flipX() rotate(180 0 -3.75)">
    <rt:dyn type="Drive" mode="constant" value="&quot;NONE&quot;"/> 
  </image>
  <line x1="1374.97" y1="341.515" x2="1374.97" y2="299" stroke="black" stroke-width="3"/> 
  <image x="1330.5" y="326" width="70" height="65" xlink:href="DS_CO_valve_tenzor.svg" transform="rotate(270 0 -10)">
    <rt:dyn type="Drive" mode="constant" value="&quot;NONE&quot;"/> 
  </image>
  <line x1="1699.9" y1="404.762" x2="1699.9" y2="365.758" stroke="black" stroke-width="3"/> 
  <image x="1655" y="328" width="70" height="65" xlink:href="DS_CO_valve_tenzor.svg" transform="rotate(270 0 -10)">
    <rt:dyn type="Drive" mode="constant" value="&quot;NONE&quot;"/> 
  </image>
  <line x1="905.303" y1="551.295" x2="672.879" y2="551.31" stroke="black" stroke-width="3"/> 
  <image x="880" y="508.5" width="70" height="65" xlink:href="DS_CO_valve_tenzor.svg" transform="rotate(360 0 -10)">
    <rt:dyn type="Drive" mode="constant" value="&quot;NONE&quot;"/> 
  </image>
  <line x1="805.305" y1="626.5" x2="401.667" y2="626.5" stroke="black" stroke-width="3"/> 
  <image x="469" y="590" width="70" height="70" xlink:href="DS_motor_tenzor.svg" transform="flipX() rotate(360 0 0)">
    <title>00QSB17AP001</title>
    <rt:dyn type="KKS" mode="constant" value="&quot;00QSB17AP001&quot;"/> 
    <rt:dyn type="DATA_NARY" mode="constant" value="&quot;TYPE2&quot;"/> 
    <rt:dyn type="Operate" mode="constant" value="true"/> 
    <rt:dyn type="DeviceType" mode="constant" value="&quot;pump&quot;"/> 
  </image>
  <image x="775" y="583.5" width="70" height="65" xlink:href="DS_CO_valve_tenzor.svg" transform="rotate(360 0 -10)">
    <rt:dyn type="Drive" mode="constant" value="&quot;NONE&quot;"/> 
  </image>
  <line x1="315.911" y1="626.568" x2="204.697" y2="626.432" stroke="black" stroke-width="3"/> 
  <line x1="187.125" y1="626.56" x2="122.879" y2="626.439" stroke="black" stroke-width="3"/> 
  <image x="165" y="583.5" width="70" height="65" xlink:href="DS_CO_valve_tenzor.svg" transform="rotate(360 0 -10)">
    <rt:dyn type="Drive" mode="constant" value="&quot;NONE&quot;"/> 
  </image>
  <line x1="382.58" y1="626.56" x2="322.879" y2="626.44" stroke="black" stroke-width="3"/> 
  <image x="285" y="583" width="70" height="65" xlink:href="DS_CO_valve_tenzor.svg" transform="rotate(360 0 -10)">
    <rt:dyn type="Drive" mode="constant" value="&quot;NONE&quot;"/> 
  </image>
  <image x="358" y="603" width="70" height="52.5" xlink:href="DS_reflux_valve.svg" transform="flipX() rotate(180 0 -3.75)">
    <rt:dyn type="Drive" mode="constant" value="&quot;NONE&quot;"/> 
  </image>
  <line x1="574.894" y1="668.788" x2="574.894" y2="624.848" stroke="black" stroke-width="3"/> 
  <image x="530" y="639" width="70" height="65" xlink:href="DS_CO_valve_tenzor.svg" transform="flipX() rotate(90 0 -10)">
    <rt:dyn type="Drive" mode="constant" value="&quot;NONE&quot;"/> 
  </image>
  <line x1="569.458" y1="726.484" x2="499.152" y2="726.364" stroke="black" stroke-width="3"/> 
  <image x="455" y="683.5" width="70" height="65" xlink:href="DS_CO_valve_tenzor.svg" transform="rotate(360 0 -10)">
    <rt:dyn type="Drive" mode="constant" value="&quot;NONE&quot;"/> 
  </image>
  <line x1="235.364" y1="900" x2="171.364" y2="900" stroke="black" stroke-width="3"/> 
  <image x="208" y="857" width="70" height="65" xlink:href="DS_CO_valve_tenzor.svg" transform="rotate(360 0 -10)">
    <rt:dyn type="Drive" mode="constant" value="&quot;NONE&quot;"/> 
  </image>
  <line x1="47.3638" y1="626.349" x2="4.6972" y2="626.349" stroke="black" stroke-width="3"/> 
  <image x="30" y="583.5" width="70" height="65" xlink:href="DS_CO_valve_tenzor.svg" transform="rotate(360 0 -10)">
    <title>00QSB13AA001</title>
    <rt:dyn type="DATA_NARY" mode="constant" value="&quot;TYPE2&quot;"/> 
    <rt:dyn type="Operate" mode="constant" value="true"/> 
    <rt:dyn type="KKS" mode="constant" value="&quot;00QSB13AA001&quot;"/> 
  </image>
  <image x="912" y="925" width="25" height="25" xlink:href="bin_indicator.svg">
    <title>00QSB17BB001_XK92</title>
    <rt:dyn type="PointID" mode="constant" value="&quot;00QSB17BB001_XK92&quot;"/> 
  </image>
  <text x="925" y="975" fill="black" font-size="15" text-anchor="middle">Бак  рабочий</text>
  <image x="388" y="925" width="25" height="25" xlink:href="bin_indicator.svg">
    <title>00QSB17BB002_XK92</title>
    <rt:dyn type="PointID" mode="constant" value="&quot;00QSB17BB002_XK92&quot;"/> 
  </image>
  <text x="400" y="975" fill="black" font-size="15" text-anchor="middle">Бак  рабочий</text>
</svg>
