<?xml  version="1.0" encoding="UTF-8"?>
<svg color="Col_BGSand" xmlns="http://www.w3.org/2000/svg" xmlns:rt="http://www.rts.co.at/2001/XMLSchema/RtSvgPL" xmlns:xlink="http://www.w3.org/1999/xlink" xmlns:xsi="http://www.w3.org/2001/XMLSchema-instance" xsi:schemaLocation="http://www.w3.org/2000/svg C:\RTS\RtSvg\XML\SVG.xsd" viewBox="0 0 1920 980" width="1920" height="980" id="00cxv32_vent_3" stroke-width="3">
  <rt:model modelversion="7.2.0.24" comment="Создано VNIIAES-ASUTP\seregin 18.06.2015 16:09:49"/> 
  <line x1="163.03" y1="158.182" x2="163.03" y2="158.182" stroke="black"/> 
  <line x1="1570.61" y1="171.818" x2="1570.61" y2="171.818" stroke="black"/> 
  <line x1="186" y1="606.667" x2="186" y2="606.667" stroke="black"/> 
  <rect x="125" y="250" width="375" height="625" rx="0" ry="0" fill="none" stroke="black" stroke-width="1"/> 
  <line x1="689" y1="663" x2="689" y2="663" stroke="black"/> 
  <line x1="957" y1="844" x2="957" y2="844" stroke="black"/> 
  <text x="25" y="25" fill="black" font-size="15">01UBG 00CXV32 СИСТЕМА ВЕНТИЛЯЦИИ НА ОТМЕТКЕ +3.300</text>
  <image x="225" y="475" width="175" height="25" xlink:href="DS_ana_tenzor.svg">
    <title>00SAC39CT001</title>
    <rt:dyn type="FKKS" mode="constant" value="&quot;00SAC39CT001&quot;"/> 
    <rt:dyn type="X" mode="constant" value="&quot;T&quot;"/> 
    <rt:dyn type="ShowFrame" mode="constant" value="true"/> 
    <rt:dyn type="ValueToTheRight" mode="constant" value="false"/> 
    <rt:dyn type="Color_Readings" mode="constant" value="true"/> 
  </image>
  <text x="200" y="850" fill="black" font-size="15" text-anchor="middle">01UBG13R002</text>
  <image x="195.56" y="87.318" width="181.818" height="24.2424" xlink:href="bitwise_tablo_4bits.svg">
    <title>01UBG13R002V_XK92</title>
    <rt:dyn type="PointID_1" mode="constant" value="&quot;01UBG13R002V_XK92&quot;"/> 
    <rt:dyn type="Text_0000" mode="constant" value="&quot;АВТОМАТИЧЕСКИЙ&quot;"/> 
    <rt:dyn type="Color_0001" mode="constant" value="&quot;Col_Green&quot;"/> 
    <rt:dyn type="Text_0001" mode="constant" value="&quot;ДИСТАНЦИОННЫЙ&quot;"/> 
    <rt:dyn type="Color_0000" mode="constant" value="&quot;Col_Green&quot;"/> 
  </image>
  <rect x="181" y="57" width="275.758" height="81.8182" rx="0" ry="0" fill="none" stroke="black" stroke-width="2"/> 
  <image x="383.879" y="84.439" width="60" height="30" xlink:href="ps_tenzor_system.svg">
    <title>01UBG13R002V</title>
    <rt:dyn type="KKS" mode="constant" value="&quot;01UBG13R002V&quot;"/> 
  </image>
  <text x="314.939" y="77.879" fill="black" font-size="15" text-anchor="middle">Режим работы 01UBG13R002</text>
  <text x="200" y="350" fill="black" font-size="15" text-anchor="middle">00SAC50<tspan x="200" dy="15">AA001</tspan>
  </text>
  <line x1="151.333" y1="418.5" x2="151.433" y2="418.5" stroke="black"/> 
  <polygon points="-105.169,572.498 -95.1727,598.498 -115.169,598.498" transform="rotate(90 93.3313 598.5)"/> 
  <line x1="116.333" y1="400" x2="201.333" y2="400" stroke="black"/> 
  <line x1="264.833" y1="387" x2="264.833" y2="412" stroke="black"/> 
  <polygon points="-105.669,397.498 -95.6727,423.498 -115.669,423.498" transform="rotate(90 93.3313 598.5)"/> 
  <line x1="212.333" y1="399" x2="262.333" y2="399" stroke="black"/> 
  <image x="168.333" y="375" width="70" height="45" xlink:href="DS_pivot_valve_tenzor.svg" transform="rotate(90 0 0)">
    <title>00SAC50AA001</title>
    <rt:dyn type="Operate" mode="constant" value="true"/> 
    <rt:dyn type="Operate" mode="constant" value="true"/> 
    <rt:dyn type="KKS" mode="constant" value="&quot;00SAC50AA001&quot;"/> 
    <rt:dyn type="DATA_NARY" mode="constant" value="&quot;TYPE2&quot;"/> 
  </image>
  <line x1="438.901" y1="325" x2="542.567" y2="326.334" stroke="black"/> 
  <line x1="541.067" y1="314.334" x2="541.067" y2="339.334" stroke="black"/> 
  <polygon points="-178.335,121.264 -168.339,147.264 -188.335,147.264" transform="rotate(90 93.3313 598.5)"/> 
  <line x1="407.9" y1="330.667" x2="407.9" y2="355.667" stroke="black"/> 
  <line x1="438.401" y1="342.667" x2="407.4" y2="342.667" stroke="black"/> 
  <line x1="399.9" y1="363.167" x2="400" y2="363.167" stroke="black"/> 
  <image x="420.9" y="307.667" width="70" height="70" xlink:href="DS_motor_tenzor.svg">
    <title>00SAC39AN001</title>
    <rt:dyn type="Operate" mode="constant" value="true"/> 
    <rt:dyn type="DeviceType" mode="constant" value="&quot;fan&quot;"/> 
    <rt:dyn type="KKS" mode="constant" value="&quot;00SAC39AN001&quot;"/> 
    <rt:dyn type="DATA_NARY" mode="constant" value="&quot;TYPE2&quot;"/> 
  </image>
  <polygon points="-162.502,284.93 -152.506,310.93 -172.502,310.93" transform="rotate(90 93.3313 598.5)"/> 
  <text x="450" y="290.5" fill="black" font-size="15" text-anchor="middle">00SAC39<tspan x="450" dy="15">AN001</tspan>
  </text>
  <line x1="432.797" y1="748.354" x2="536.722" y2="750" stroke="black"/> 
  <line x1="535.222" y1="738" x2="535.222" y2="763" stroke="black"/> 
  <polygon points="245.331,127.109 255.327,153.109 235.331,153.109" transform="rotate(90 93.3313 598.5)"/> 
  <line x1="401.13" y1="748.507" x2="401.13" y2="773.507" stroke="black"/> 
  <line x1="431.63" y1="760.507" x2="400.63" y2="760.507" stroke="black"/> 
  <polygon points="255.338,291.701 265.334,317.701 245.338,317.701" transform="rotate(90 93.3313 598.5)"/> 
  <image x="415" y="726.55" width="70" height="70" xlink:href="DS_motor_tenzor.svg">
    <title>00SAC39AN002</title>
    <rt:dyn type="Operate" mode="constant" value="true"/> 
    <rt:dyn type="DeviceType" mode="constant" value="&quot;fan&quot;"/> 
    <rt:dyn type="KKS" mode="constant" value="&quot;00SAC39AN002&quot;"/> 
    <rt:dyn type="DATA_NARY" mode="constant" value="&quot;TYPE2&quot;"/> 
  </image>
  <text x="450" y="708.5" fill="black" font-size="15" text-anchor="middle">00SAC39<tspan x="450" dy="15">AN002</tspan>
  </text>
  <text x="375" y="174.242" fill="black" font-size="15" text-anchor="middle">00SAC38<tspan x="375" dy="15">AN001</tspan>
  </text>
  <line x1="288" y1="274.242" x2="313" y2="274.242" stroke="black"/> 
  <line x1="300" y1="199.242" x2="300" y2="274.242" stroke="black"/> 
  <polygon points="300,274.242 309.996,300.242 290,300.242" transform="rotate(360 93.3313 598.5)"/> 
  <image x="265" y="154.242" width="70" height="70" xlink:href="ps_AirVent.svg">
    <title>00SAC38AN001</title>
    <rt:dyn type="KKS" mode="constant" value="&quot;00SAC38AN001&quot;"/> 
    <rt:dyn type="TYPE" mode="constant" value="&quot;TYPE2&quot;"/> 
    <rt:dyn type="Operate" mode="constant" value="&quot;true&quot;"/> 
  </image>
  <image x="200" y="550" width="25" height="25" xlink:href="bin_indicator.svg">
    <title>00SAC38CQ001_XG01</title>
    <rt:dyn type="PointID" mode="constant" value="&quot;00SAC38CQ001_XG01&quot;"/> 
    <rt:dyn type="Col_OFF" mode="constant" value="&quot;Col_Grey3&quot;"/> 
  </image>
  <text x="325" y="550" fill="black" font-size="15" text-anchor="middle">Концентрация<tspan x="325" dy="15">элегаза в воздухе</tspan>
<tspan x="325" dy="15">помещ. РУ-10 kV</tspan>
<tspan x="325" dy="15">&gt;500 мг/м3</tspan>
  </text>
  <rect x="675.1" y="250.004" width="375" height="625" rx="0" ry="0" fill="none" stroke="black" stroke-width="1"/> 
  <image x="775.1" y="475.004" width="175" height="25" xlink:href="DS_ana_tenzor.svg">
    <title>00SAC39CT002</title>
    <rt:dyn type="FKKS" mode="constant" value="&quot;00SAC39CT002&quot;"/> 
    <rt:dyn type="X" mode="constant" value="&quot;T&quot;"/> 
    <rt:dyn type="ShowFrame" mode="constant" value="true"/> 
    <rt:dyn type="ValueToTheRight" mode="constant" value="false"/> 
    <rt:dyn type="Color_Readings" mode="constant" value="true"/> 
  </image>
  <text x="750.1" y="850.004" fill="black" font-size="15" text-anchor="middle">01UBG13R003</text>
  <image x="745.66" y="87.322" width="181.818" height="24.2424" xlink:href="bitwise_tablo_4bits.svg">
    <title>01UBG13R003V_XK92</title>
    <rt:dyn type="PointID_1" mode="constant" value="&quot;01UBG13R003V_XK92&quot;"/> 
    <rt:dyn type="Text_0000" mode="constant" value="&quot;АВТОМАТИЧЕСКИЙ&quot;"/> 
    <rt:dyn type="Color_0001" mode="constant" value="&quot;Col_Green&quot;"/> 
    <rt:dyn type="Text_0001" mode="constant" value="&quot;ДИСТАНЦИОННЫЙ&quot;"/> 
    <rt:dyn type="Color_0000" mode="constant" value="&quot;Col_Green&quot;"/> 
  </image>
  <rect x="731.1" y="57.004" width="275.758" height="81.8182" rx="0" ry="0" fill="none" stroke="black" stroke-width="2"/> 
  <image x="933.979" y="84.443" width="60" height="30" xlink:href="ps_tenzor_system.svg">
    <title>01UBG13R003V</title>
    <rt:dyn type="KKS" mode="constant" value="&quot;01UBG13R003V&quot;"/> 
  </image>
  <text x="865.039" y="77.883" fill="black" font-size="15" text-anchor="middle">Режим работы 01UBG13R003</text>
  <text x="750.1" y="350.004" fill="black" font-size="15" text-anchor="middle">00SAC50<tspan x="750.1" dy="15">AA002</tspan>
  </text>
  <line x1="701.433" y1="418.504" x2="701.533" y2="418.504" stroke="black"/> 
  <polygon points="-105.165,22.3979 -95.1687,48.3979 -115.165,48.3979" transform="rotate(90 93.3313 598.5)"/> 
  <line x1="666.433" y1="400.004" x2="751.433" y2="400.004" stroke="black"/> 
  <line x1="814.933" y1="387.004" x2="814.933" y2="412.004" stroke="black"/> 
  <polygon points="-105.665,-152.602 -95.6687,-126.602 -115.665,-126.602" transform="rotate(90 93.3313 598.5)"/> 
  <line x1="762.433" y1="399.004" x2="812.433" y2="399.004" stroke="black"/> 
  <image x="718.433" y="375.004" width="70" height="45" xlink:href="DS_pivot_valve_tenzor.svg" transform="rotate(90 0 0)">
    <title>00SAC50AA002</title>
    <rt:dyn type="Operate" mode="constant" value="true"/> 
    <rt:dyn type="KKS" mode="constant" value="&quot;00SAC50AA002&quot;"/> 
    <rt:dyn type="DATA_NARY" mode="constant" value="&quot;TYPE2&quot;"/> 
  </image>
  <line x1="989.001" y1="325.004" x2="1092.67" y2="326.338" stroke="black"/> 
  <line x1="1091.17" y1="314.338" x2="1091.17" y2="339.338" stroke="black"/> 
  <polygon points="-178.331,-428.836 -168.335,-402.836 -188.331,-402.836" transform="rotate(90 93.3313 598.5)"/> 
  <line x1="958" y1="330.671" x2="958" y2="355.671" stroke="black"/> 
  <line x1="988.501" y1="342.671" x2="957.5" y2="342.671" stroke="black"/> 
  <line x1="950" y1="363.171" x2="950.1" y2="363.171" stroke="black"/> 
  <image x="971" y="307.671" width="70" height="70" xlink:href="DS_motor_tenzor.svg">
    <title>00SAC39AN004</title>
    <rt:dyn type="Operate" mode="constant" value="true"/> 
    <rt:dyn type="DeviceType" mode="constant" value="&quot;fan&quot;"/> 
    <rt:dyn type="KKS" mode="constant" value="&quot;00SAC39AN004&quot;"/> 
    <rt:dyn type="DATA_NARY" mode="constant" value="&quot;TYPE2&quot;"/> 
  </image>
  <polygon points="-162.498,-265.17 -152.502,-239.17 -172.498,-239.17" transform="rotate(90 93.3313 598.5)"/> 
  <text x="1000.1" y="290.504" fill="black" font-size="15" text-anchor="middle">00SAC39<tspan x="1000.1" dy="15">AN004</tspan>
  </text>
  <line x1="982.897" y1="748.358" x2="1086.82" y2="750.004" stroke="black"/> 
  <line x1="1085.32" y1="738.004" x2="1085.32" y2="763.004" stroke="black"/> 
  <polygon points="245.335,-422.991 255.331,-396.991 235.335,-396.991" transform="rotate(90 93.3313 598.5)"/> 
  <line x1="951.23" y1="748.511" x2="951.23" y2="773.511" stroke="black"/> 
  <line x1="981.73" y1="760.511" x2="950.73" y2="760.511" stroke="black"/> 
  <polygon points="255.342,-258.399 265.338,-232.399 245.342,-232.399" transform="rotate(90 93.3313 598.5)"/> 
  <image x="965.1" y="726.554" width="70" height="70" xlink:href="DS_motor_tenzor.svg">
    <title>00SAC39AN002</title>
    <rt:dyn type="Operate" mode="constant" value="true"/> 
    <rt:dyn type="DeviceType" mode="constant" value="&quot;fan&quot;"/> 
    <rt:dyn type="KKS" mode="constant" value="&quot;00SAC39AN003&quot;"/> 
    <rt:dyn type="DATA_NARY" mode="constant" value="&quot;TYPE2&quot;"/> 
  </image>
  <text x="1000.1" y="708.504" fill="black" font-size="15" text-anchor="middle">00SAC39<tspan x="1000.1" dy="15">AN003</tspan>
  </text>
  <text x="925.1" y="174.246" fill="black" font-size="15" text-anchor="middle">00SAC38<tspan x="925.1" dy="15">AN002</tspan>
  </text>
  <line x1="838.1" y1="274.246" x2="863.1" y2="274.246" stroke="black"/> 
  <line x1="850.1" y1="199.246" x2="850.1" y2="274.246" stroke="black"/> 
  <polygon points="850.1,274.246 860.096,300.246 840.1,300.246" transform="rotate(360 93.3313 598.5)"/> 
  <image x="815.1" y="154.246" width="70" height="70" xlink:href="ps_AirVent.svg">
    <title>00SAC38AN002</title>
    <rt:dyn type="KKS" mode="constant" value="&quot;00SAC38AN002&quot;"/> 
    <rt:dyn type="TYPE" mode="constant" value="&quot;TYPE2&quot;"/> 
    <rt:dyn type="Operate" mode="constant" value="&quot;true&quot;"/> 
  </image>
  <image x="750.1" y="550.004" width="25" height="25" xlink:href="bin_indicator.svg">
    <title>00SAC38CQ002_XG01</title>
    <rt:dyn type="PointID" mode="constant" value="&quot;00SAC38CQ002_XG01&quot;"/> 
    <rt:dyn type="Col_OFF" mode="constant" value="&quot;Col_Grey3&quot;"/> 
  </image>
  <text x="875.1" y="550.004" fill="black" font-size="15" text-anchor="middle">Концентрация<tspan x="875.1" dy="15">элегаза в воздухе</tspan>
<tspan x="875.1" dy="15">помещ. РУ-10 kV</tspan>
<tspan x="875.1" dy="15">&gt;500 мг/м3</tspan>
  </text>
  <rect x="1250" y="250" width="200" height="375" rx="0" ry="0" fill="none" stroke="black" stroke-width="1"/> 
  <line x1="1338" y1="274" x2="1363" y2="274" stroke="black"/> 
  <line x1="1350" y1="199" x2="1350" y2="274" stroke="black"/> 
  <polygon points="1350,274 1360,300 1340,300" transform="rotate(360 93.3313 598.5)"/> 
  <text x="1425" y="175" fill="black" font-size="15" text-anchor="middle">00SAC40<tspan x="1425" dy="15">AN001</tspan>
  </text>
  <image x="1315" y="155" width="70" height="70" xlink:href="ps_AirVent.svg">
    <title>00SAC40AN001</title>
    <rt:dyn type="KKS" mode="constant" value="&quot;00SAC40AN001&quot;"/> 
    <rt:dyn type="TYPE" mode="constant" value="&quot;TYPE2&quot;"/> 
    <rt:dyn type="Operate" mode="constant" value="&quot;true&quot;"/> 
  </image>
  <line x1="1337.75" y1="605" x2="1362.75" y2="605" stroke="black"/> 
  <line x1="1350" y1="605" x2="1350" y2="675" stroke="black"/> 
  <polygon points="1350,575 1360,601 1340,601" transform="rotate(360 93.3313 598.5)"/> 
  <rect x="1525" y="251" width="200" height="375" rx="0" ry="0" fill="none" stroke="black" stroke-width="1"/> 
  <line x1="1613" y1="275" x2="1638" y2="275" stroke="black"/> 
  <line x1="1625" y1="192" x2="1625" y2="275" stroke="black"/> 
  <polygon points="1625,275 1635,301 1615,301" transform="rotate(360 93.3313 598.5)"/> 
  <line x1="1612.75" y1="606" x2="1637.75" y2="606" stroke="black"/> 
  <line x1="1625" y1="606" x2="1625" y2="676" stroke="black"/> 
  <polygon points="1625,576 1635,602 1615,602" transform="rotate(360 93.3313 598.5)"/> 
  <polygon points="1625,174 1635,200 1615,200" transform="rotate(360 93.3313 598.5)"/> 
  <line x1="325" y1="925" x2="1250" y2="925" stroke="black"/> 
  <g>
    <line x1="862.75" y1="854" x2="887.75" y2="854" stroke="black"/> 
    <line x1="875" y1="854" x2="875" y2="924" stroke="black"/> 
    <polygon points="875,824 885,850 865,850" transform="rotate(360 93.3313 598.5)"/> 
  </g>
  <g>
    <line x1="312.75" y1="854" x2="337.75" y2="854" stroke="black"/> 
    <line x1="325" y1="854" x2="325" y2="924" stroke="black"/> 
    <polygon points="325,824 335,850 315,850" transform="rotate(360 93.3313 598.5)"/> 
  </g>
  <line x1="1250" y1="925" x2="1250" y2="675" stroke="black"/> 
  <line x1="1675" y1="675" x2="1250" y2="675" stroke="black"/> 
  <line x1="1675" y1="750" x2="1675" y2="675" stroke="black"/> 
  <text x="1600" y="775" fill="black" font-size="15" text-anchor="middle">00SAC58<tspan x="1600" dy="15">AN001/002</tspan>
  </text>
  <line x1="1690" y1="875" x2="1690" y2="775" stroke="black"/> 
  <g>
    <line x1="1678" y1="874" x2="1703" y2="874" stroke="black"/> 
    <polygon points="1690,874 1700,900 1680,900" transform="rotate(360 93.3313 598.5)"/> 
  </g>
  <image x="1655" y="740" width="70" height="70" xlink:href="DS_motor_tenzor.svg" transform="rotate(270 0 0)">
    <title>00SAC58AN001002</title>
    <rt:dyn type="KKS" mode="constant" value="&quot;00SAC58AN001002&quot;"/> 
    <rt:dyn type="DATA_NARY" mode="constant" value="&quot;TYPE2&quot;"/> 
    <rt:dyn type="Operate" mode="constant" value="true"/> 
    <rt:dyn type="DeviceType" mode="constant" value="&quot;fan&quot;"/> 
  </image>
  <image x="1230.56" y="86.318" width="181.818" height="24.2424" xlink:href="bitwise_tablo_4bits.svg">
    <title>01UBG13R004V_XK92</title>
    <rt:dyn type="PointID_1" mode="constant" value="&quot;01UBG13R004V_XK92&quot;"/> 
    <rt:dyn type="Text_0000" mode="constant" value="&quot;АВТОМАТИЧЕСКИЙ&quot;"/> 
    <rt:dyn type="Color_0001" mode="constant" value="&quot;Col_Green&quot;"/> 
    <rt:dyn type="Text_0001" mode="constant" value="&quot;ДИСТАНЦИОННЫЙ&quot;"/> 
    <rt:dyn type="Color_0000" mode="constant" value="&quot;Col_Green&quot;"/> 
  </image>
  <rect x="1216" y="56" width="275.758" height="81.8182" rx="0" ry="0" fill="none" stroke="black" stroke-width="2"/> 
  <image x="1418.88" y="83.439" width="60" height="30" xlink:href="ps_tenzor_system.svg">
    <title>01UBG13R004V</title>
    <rt:dyn type="KKS" mode="constant" value="&quot;01UBG13R004V&quot;"/> 
  </image>
  <text x="1349.94" y="76.879" fill="black" font-size="15" text-anchor="middle">Режим работы 01UBG13R004</text>
  <text x="1350" y="425" fill="black" font-size="15" text-anchor="middle">01UBG13R004</text>
  <text x="1625" y="425" fill="black" font-size="15" text-anchor="middle">01UBG13R006</text>
  <image x="349.394" y="196.061" width="160" height="30" xlink:href="ps_tenzor_m0.svg">
    <title>00SAC38AN001</title>
    <rt:dyn type="KKS" mode="constant" value="&quot;00SAC38AN001&quot;"/> 
  </image>
  <image x="896.364" y="194.545" width="160" height="30" xlink:href="ps_tenzor_m0.svg">
    <title>00SAC38AN002</title>
    <rt:dyn type="KKS" mode="constant" value="&quot;00SAC38AN002&quot;"/> 
  </image>
  <image x="1395.81" y="196.046" width="160" height="30" xlink:href="ps_tenzor_m0.svg">
    <title>00SAC40AN001</title>
    <rt:dyn type="KKS" mode="constant" value="&quot;00SAC40AN001&quot;"/> 
  </image>
</svg>
