<?xml  version="1.0" encoding="windows-1251"?>
<svg color="Col_BGSand" xmlns="http://www.w3.org/2000/svg" xmlns:rt="http://www.rts.co.at/2001/XMLSchema/RtSvgPL" xmlns:xlink="http://www.w3.org/1999/xlink" xmlns:xsi="http://www.w3.org/2001/XMLSchema-instance" xsi:schemaLocation="http://www.w3.org/2000/svg C:\RTS\RtSvg\XML\SVG.xsd" viewBox="0 0 1920 1080" width="1920" height="1080" id="00cxj22_collector" fill="Col_Grey3">
  <rt:model modelversion="7.2.0.24" revision="1"/> 
  <line x1="344" y1="425" x2="342" y2="0"/> 
  <text x="25" y="25" fill="black" font-size="15">00UNA 00CXJ22 КОЛЛЕКТОР ОБРАТНОЙ СЕТЕВОЙ ВОДЫ</text>
  <g transform="flipY(791.802) flipY(430.309) rotate(90 850 184) rotate(0 1.4013e-045 3.88002e-039) flipX(225.309) flipX(76.3091) flipX(616.809) rotate(90 132.155 29.823) rotate(360 1.4013e-045 2.31881e-039) flipY(911)">
    <polygon points="-93.0023,2114.36 -68.0024,2114.36 -80.0024,2139.36 -80.0024,2139.36" fill="black" stroke="black" stroke-width="1" transform="rotate(180 1279.17 367.814)"/> 
  </g>
  <g transform="flipY(605.309) flipY(331.309) rotate(90 850 184) rotate(0 1.4013e-045 3.88002e-039) flipX(225.309) flipX(76.3091) flipX(616.809) rotate(90 132.155 29.823) rotate(360 1.4013e-045 2.31881e-039) flipY(911)">
    <polygon points="-252.003,2125.86 -227.003,2125.86 -239.003,2150.86 -239.003,2150.86" fill="black" stroke="black" stroke-width="1" transform="rotate(180 1279.17 367.814)"/> 
  </g>
  <g transform="flipY(426.309) flipY(331.309) rotate(90 850 184) rotate(0 1.4013e-045 3.88002e-039) flipX(225.309) flipX(76.3091) flipX(616.809) rotate(90 132.155 29.823) rotate(360 1.4013e-045 2.31881e-039) flipY(911)">
    <polygon points="-249.002,1946.86 -224.002,1946.86 -236.002,1971.86 -236.002,1971.86" fill="black" stroke="black" stroke-width="1" transform="rotate(180 1279.17 367.814)"/> 
  </g>
  <line x1="596.5" y1="627" x2="596.6" y2="627"/> 
  <g transform="flipX(191.976) flipX(122.608) flipX(126.608) rotate(270 99.3091 253.976) rotate(90 180.309 152.309) rotate(90 132.155 29.823) rotate(360 1.4013e-045 2.31881e-039) flipY(911) rotate(180 1212.44 532.643)">
    <polygon points="468.125,1829.98 493.125,1829.98 481.125,1854.98 481.125,1854.98" fill="black" stroke="black" stroke-width="1" transform="rotate(180 1279.17 367.814)"/> 
  </g>
  <text x="875" y="68.5" fill="black" font-size="15" text-anchor="middle">00NDB61BB001</text>
  <line x1="151" y1="400" x2="351" y2="400" stroke="black" stroke-width="3"/> 
  <line x1="550" y1="377.879" x2="550" y2="266" stroke="black" stroke-width="3"/> 
  <line x1="75" y1="266" x2="725" y2="266" stroke="black" stroke-width="3"/> 
  <g transform="flipX(191.976) flipX(122.608) flipX(126.608) rotate(270 99.3091 253.976) rotate(90 180.309 152.309) rotate(90 132.155 29.823) rotate(360 1.4013e-045 2.31881e-039) flipY(911) rotate(180 1212.44 532.643)">
    <polygon points="601.949,1753.86 626.949,1753.86 614.949,1778.86 614.949,1778.86" fill="black" stroke="black" stroke-width="1" transform="rotate(180 1279.17 367.814)"/> 
  </g>
  <g transform="scale(1.27833 1.27833 390.083 921.083)">
    <rect x="706.773" y="265.41" width="201.167" height="131.167" rx="0" ry="0" fill="none" stroke="black" stroke-width="3"/> 
    <line x1="817.627" y1="396.764" x2="907.627" y2="306.764" stroke="black"/> 
    <line x1="827.627" y1="396.764" x2="907.627" y2="316.764" stroke="black"/> 
    <line x1="837.627" y1="396.764" x2="907.627" y2="326.764" stroke="black"/> 
    <line x1="847.627" y1="396.764" x2="907.627" y2="336.764" stroke="black"/> 
    <line x1="857.627" y1="396.764" x2="907.627" y2="346.764" stroke="black"/> 
    <line x1="867.627" y1="396.764" x2="907.627" y2="356.764" stroke="black"/> 
    <line x1="877.627" y1="396.764" x2="907.627" y2="366.764" stroke="black"/> 
    <line x1="887.627" y1="396.764" x2="907.627" y2="376.764" stroke="black"/> 
    <line x1="897.627" y1="396.764" x2="907.627" y2="386.764" stroke="black"/> 
    <g transform="flipY(251.604) flipX(515.104)">
      <line x1="232.935" y1="236.797" x2="322.935" y2="146.797" stroke="black"/> 
      <line x1="242.935" y1="236.797" x2="322.935" y2="156.797" stroke="black"/> 
      <line x1="252.935" y1="236.797" x2="322.935" y2="166.797" stroke="black"/> 
      <line x1="262.935" y1="236.797" x2="322.935" y2="176.797" stroke="black"/> 
      <line x1="272.935" y1="236.797" x2="322.935" y2="186.797" stroke="black"/> 
      <line x1="282.935" y1="236.797" x2="322.935" y2="196.797" stroke="black"/> 
      <line x1="292.935" y1="236.797" x2="322.935" y2="206.797" stroke="black"/> 
      <line x1="302.935" y1="236.797" x2="322.935" y2="216.797" stroke="black"/> 
      <line x1="312.935" y1="236.797" x2="322.935" y2="226.797" stroke="black"/> 
    </g>
    <line x1="807.627" y1="396.764" x2="907.627" y2="296.764" stroke="black"/> 
    <line x1="707.273" y1="366.411" x2="807.273" y2="266.41" stroke="black"/> 
    <line x1="707.273" y1="376.411" x2="817.273" y2="266.41" stroke="black"/> 
    <line x1="707.273" y1="386.411" x2="827.273" y2="266.41" stroke="black"/> 
    <line x1="707.273" y1="396.41" x2="837.273" y2="266.41" stroke="black"/> 
    <line x1="717.273" y1="396.41" x2="847.273" y2="266.41" stroke="black"/> 
    <line x1="727.273" y1="396.41" x2="857.273" y2="266.41" stroke="black"/> 
    <line x1="737.273" y1="396.41" x2="867.273" y2="266.41" stroke="black"/> 
    <line x1="747.273" y1="396.41" x2="877.273" y2="266.41" stroke="black"/> 
    <line x1="757.273" y1="396.41" x2="887.273" y2="266.41" stroke="black"/> 
    <line x1="767.273" y1="396.41" x2="897.273" y2="266.41" stroke="black"/> 
    <line x1="777.273" y1="396.41" x2="907.273" y2="266.41" stroke="black"/> 
    <line x1="787.273" y1="396.41" x2="907.273" y2="276.41" stroke="black"/> 
    <line x1="797.273" y1="396.41" x2="907.273" y2="286.41" stroke="black"/> 
    <rect x="714.273" y="273.41" width="187" height="117" rx="0" ry="0" fill="Col_BGSand" stroke="black" stroke-width="3"/> 
  </g>
  <text x="70" y="209.5" fill="black" font-size="15" text-anchor="middle">К насосам<tspan x="70" dy="15">00NDC63-65</tspan>
  </text>
  <line x1="1025" y1="200" x2="1125" y2="200" stroke="black" stroke-width="3"/> 
  <line x1="925" y1="425" x2="925" y2="225" stroke="black" stroke-width="3"/> 
  <rect x="547.17" y="927.431" width="75" height="75" rx="0" ry="0" fill="Col_BGSand" stroke="black" stroke-width="3" transform="rotate(45 833 529)"/> 
  <rect x="1729" y="409" width="3" height="0.1" rx="0" ry="0"/> 
  <line x1="1124" y1="364.242" x2="1124" y2="199" stroke="black" stroke-width="3"/> 
  <g transform="rotate(90 1255.45 453.636) rotate(0 1.4013e-045 2.77761e-039) flipX(122.608) flipX(126.608) rotate(270 99.3091 253.976) rotate(90 180.309 152.309) rotate(90 132.155 29.823) rotate(360 1.4013e-045 2.31881e-039) flipY(911) rotate(180 1212.44 532.643)">
    <polygon points="786.901,2672.44 811.901,2672.44 799.901,2697.44 799.901,2697.44" fill="black" stroke="black" stroke-width="1" transform="rotate(180 1279.17 367.814)"/> 
  </g>
  <line x1="550" y1="1025" x2="550" y2="858.182" stroke="black" stroke-width="3"/> 
  <g transform="flipY(900.279) rotate(90 1255.45 453.636) rotate(0 1.4013e-045 2.77761e-039) flipX(122.608) flipX(126.608) rotate(270 99.3091 253.976) rotate(90 180.309 152.309) rotate(90 132.155 29.823) rotate(360 1.4013e-045 2.31881e-039) flipY(911)">
    <polygon points="1247.51,3210.31 1272.51,3210.31 1260.51,3235.31 1260.51,3235.31" fill="black" stroke="black" stroke-width="1" transform="rotate(180 1279.17 367.814)"/> 
  </g>
  <g transform="flipY(1034.24) flipY(765.309) rotate(270 427.309 666.309) rotate(270 99.3091 253.976) rotate(90 180.309 152.309) rotate(90 132.155 29.823) rotate(360 1.4013e-045 2.31881e-039) flipY(911) rotate(180 1212.44 532.643)">
    <polygon points="991.125,2097.51 1016.13,2097.51 1004.13,2122.51 1004.13,2122.51" fill="black" stroke="black" stroke-width="1" transform="rotate(180 1279.17 367.814)"/> 
  </g>
  <line x1="296.154" y1="661.654" x2="402.654" y2="661.654" stroke="black" stroke-dasharray="5,5" stroke-width="3"/> 
  <line x1="339.061" y1="743.015" x2="364.061" y2="743.015" stroke="black" stroke-width="3"/> 
  <line x1="338.5" y1="730.5" x2="363.5" y2="730.5" stroke="black" stroke-width="3"/> 
  <line x1="332.5" y1="737" x2="363.5" y2="737" stroke="black" stroke-width="3"/> 
  <line x1="332.5" y1="745.25" x2="332.5" y2="729" stroke="black" stroke-width="3"/> 
  <text x="468" y="842.5" fill="black" font-size="15" text-anchor="middle">00NDB60<tspan x="468" dy="15">AA001</tspan>
  </text>
  <line x1="350" y1="964.167" x2="550" y2="964.167" stroke="black" stroke-width="3"/> 
  <line x1="350" y1="966" x2="350" y2="856.667" stroke="black" stroke-width="3"/> 
  <line x1="350" y1="732" x2="350" y2="713" stroke="black" stroke-width="3"/> 
  <line x1="336.5" y1="593" x2="361.5" y2="593" stroke="black" stroke-width="3"/> 
  <line x1="336.5" y1="579.5" x2="361.5" y2="579.5" stroke="black" stroke-width="3"/> 
  <line x1="329.5" y1="586" x2="360.5" y2="586" stroke="black" stroke-width="3"/> 
  <line x1="329.5" y1="594.25" x2="329.5" y2="578" stroke="black" stroke-width="3"/> 
  <line x1="349.5" y1="611" x2="349.5" y2="592" stroke="black" stroke-width="3"/> 
  <line x1="348" y1="578.25" x2="348" y2="509.697" stroke="black" stroke-width="3"/> 
  <line x1="400" y1="662.5" x2="648.636" y2="662.5" stroke="black" stroke-width="3"/> 
  <g transform="rotate(270 1348 445.267)">
    <path d="M1354.11 448.498 A11.737 11.0723 0 0 0 1330.65 448.496 " fill="none" stroke="black" stroke-width="2"/> 
    <line x1="1353.9" y1="447.779" x2="1366.9" y2="447.779" stroke="black" stroke-width="3"/> 
    <line x1="1316.9" y1="447.779" x2="1330.65" y2="447.779" stroke="black" stroke-width="3"/> 
  </g>
  <g transform="rotate(270 467.789 271.252)">
    <path d="M87.2523 354.176 A11.737 11.0723 0 0 0 63.7903 354.174 " fill="none" stroke="black" stroke-width="2"/> 
    <line x1="87.0413" y1="353.457" x2="100.041" y2="353.457" stroke="black" stroke-width="3"/> 
    <line x1="50.0413" y1="353.457" x2="63.7913" y2="353.457" stroke="black" stroke-width="3"/> 
  </g>
  <line x1="538.5" y1="634" x2="563.5" y2="634" stroke="black" stroke-width="3"/> 
  <line x1="538.5" y1="620.5" x2="563.5" y2="620.5" stroke="black" stroke-width="3"/> 
  <line x1="531.5" y1="627" x2="562.5" y2="627" stroke="black" stroke-width="3"/> 
  <line x1="531.5" y1="635.25" x2="531.5" y2="619" stroke="black" stroke-width="3"/> 
  <rect x="610.456" y="706.46" width="75" height="75" rx="0" ry="0" fill="Col_BGSand" stroke="black" stroke-width="3" transform="rotate(45 833 529)"/> 
  <line x1="498.154" y1="551.154" x2="604.654" y2="551.154" stroke="black" stroke-dasharray="5,5" stroke-width="3"/> 
  <line x1="348" y1="485.455" x2="348" y2="265" stroke="black" stroke-width="3"/> 
  <line x1="550" y1="619" x2="550" y2="600" stroke="black" stroke-width="3"/> 
  <line x1="541.5" y1="482" x2="566.5" y2="482" stroke="black" stroke-width="3"/> 
  <line x1="541.5" y1="468.5" x2="566.5" y2="468.5" stroke="black" stroke-width="3"/> 
  <line x1="534.5" y1="475" x2="565.5" y2="475" stroke="black" stroke-width="3"/> 
  <line x1="534.5" y1="483.25" x2="534.5" y2="467" stroke="black" stroke-width="3"/> 
  <line x1="550.25" y1="499" x2="550.25" y2="481.5" stroke="black" stroke-width="3"/> 
  <line x1="691.061" y1="550" x2="750" y2="550" stroke="black" stroke-width="3"/> 
  <line x1="750" y1="725" x2="750" y2="550" stroke="black" stroke-width="3"/> 
  <line x1="725" y1="450" x2="725" y2="264" stroke="black" stroke-width="3"/> 
  <line x1="725" y1="450" x2="850" y2="450" stroke="black" stroke-width="3"/> 
  <line x1="850" y1="650" x2="850" y2="450" stroke="black" stroke-width="3"/> 
  <line x1="850" y1="650.5" x2="1200" y2="650" stroke="black" stroke-width="3"/> 
  <line x1="749.002" y1="725.5" x2="1150" y2="725" stroke="black" stroke-width="3"/> 
  <line x1="925" y1="425" x2="1250" y2="425" stroke="black" stroke-width="3"/> 
  <line x1="1250" y1="759" x2="1250" y2="599.091" stroke="black" stroke-width="3"/> 
  <line x1="1250.15" y1="449.091" x2="1675" y2="450" stroke="black" stroke-width="3"/> 
  <line x1="1350" y1="435.455" x2="1350" y2="75" stroke="black" stroke-width="3"/> 
  <line x1="1675" y1="625" x2="1675" y2="450" stroke="black" stroke-width="3"/> 
  <line x1="1339.5" y1="690" x2="1364.5" y2="690" stroke="black" stroke-width="3"/> 
  <line x1="1339.5" y1="676.5" x2="1364.5" y2="676.5" stroke="black" stroke-width="3"/> 
  <line x1="1332.5" y1="683" x2="1363.5" y2="683" stroke="black" stroke-width="3"/> 
  <line x1="1332.5" y1="691.25" x2="1332.5" y2="675" stroke="black" stroke-width="3"/> 
  <line x1="1350" y1="500" x2="1475" y2="500" stroke="black" stroke-width="3"/> 
  <line x1="1250" y1="760" x2="1296" y2="760" stroke="black" stroke-width="3"/> 
  <rect x="1324.63" y="289.268" width="75" height="75" rx="0" ry="0" fill="Col_BGSand" stroke="black" stroke-width="3" transform="rotate(45 833 529)"/> 
  <line x1="1297.15" y1="760.154" x2="1403.65" y2="760.154" stroke="black" stroke-dasharray="5,5" stroke-width="3"/> 
  <line x1="1625.5" y1="530.909" x2="1625.5" y2="450" stroke="black" stroke-width="3"/> 
  <g transform="rotate(270 1474.52 645.267)">
    <path d="M1481.18 647.735 A11.737 11.0723 0 0 0 1457.72 647.733 " fill="none" stroke="black" stroke-width="2"/> 
    <line x1="1480.97" y1="647.016" x2="1493.97" y2="647.016" stroke="black" stroke-width="3"/> 
    <line x1="1443.97" y1="647.016" x2="1457.72" y2="647.016" stroke="black" stroke-width="3"/> 
  </g>
  <line x1="1348.64" y1="650.606" x2="1750" y2="650" stroke="black" stroke-width="3"/> 
  <g transform="rotate(270 467.789 271.252)">
    <path d="M101.502 1479.18 A11.737 11.0723 0 0 0 78.04 1479.18 " fill="none" stroke="black" stroke-width="2"/> 
    <line x1="101.291" y1="1478.46" x2="114.291" y2="1478.46" stroke="black" stroke-width="3"/> 
    <line x1="64.291" y1="1478.46" x2="78.041" y2="1478.46" stroke="black" stroke-width="3"/> 
  </g>
  <g transform="rotate(270 467.789 271.252)">
    <path d="M100.772 1429.18 A11.737 11.0723 0 0 0 77.31 1429.18 " fill="none" stroke="black" stroke-width="2"/> 
    <line x1="100.561" y1="1428.46" x2="113.561" y2="1428.46" stroke="black" stroke-width="3"/> 
    <line x1="63.561" y1="1428.46" x2="77.311" y2="1428.46" stroke="black" stroke-width="3"/> 
  </g>
  <line x1="1575" y1="650" x2="1575" y2="616" stroke="black" stroke-width="3"/> 
  <line x1="1350" y1="707" x2="1350" y2="688" stroke="black" stroke-width="3"/> 
  <line x1="1464.5" y1="689" x2="1489.5" y2="689" stroke="black" stroke-width="3"/> 
  <line x1="1464.5" y1="675.5" x2="1489.5" y2="675.5" stroke="black" stroke-width="3"/> 
  <line x1="1457.5" y1="682" x2="1488.5" y2="682" stroke="black" stroke-width="3"/> 
  <line x1="1457.5" y1="690.25" x2="1457.5" y2="674" stroke="black" stroke-width="3"/> 
  <rect x="1412.31" y="200.17" width="75" height="75" rx="0" ry="0" fill="Col_BGSand" stroke="black" stroke-width="3" transform="rotate(45 833 529)"/> 
  <line x1="1422.15" y1="759.154" x2="1528.65" y2="759.154" stroke="black" stroke-dasharray="5,5" stroke-width="3"/> 
  <line x1="1475" y1="706" x2="1475" y2="687" stroke="black" stroke-width="3"/> 
  <line x1="1528" y1="760" x2="1624" y2="760" stroke="black" stroke-width="3"/> 
  <line x1="1625" y1="762" x2="1625" y2="675" stroke="black" stroke-width="3"/> 
  <line x1="1675" y1="1025" x2="1675" y2="675" stroke="black" stroke-width="3"/> 
  <line x1="1339.5" y1="865" x2="1364.5" y2="865" stroke="black" stroke-width="3"/> 
  <line x1="1339.5" y1="851.5" x2="1364.5" y2="851.5" stroke="black" stroke-width="3"/> 
  <line x1="1332.5" y1="858" x2="1363.5" y2="858" stroke="black" stroke-width="3"/> 
  <line x1="1332.5" y1="866.25" x2="1332.5" y2="850" stroke="black" stroke-width="3"/> 
  <line x1="1350" y1="975" x2="1350" y2="863" stroke="black" stroke-width="3"/> 
  <line x1="1350" y1="850" x2="1350" y2="812" stroke="black" stroke-width="3"/> 
  <line x1="1465.5" y1="864" x2="1490.5" y2="864" stroke="black" stroke-width="3"/> 
  <line x1="1465.5" y1="850.5" x2="1490.5" y2="850.5" stroke="black" stroke-width="3"/> 
  <line x1="1458.5" y1="857" x2="1489.5" y2="857" stroke="black" stroke-width="3"/> 
  <line x1="1458.5" y1="865.25" x2="1458.5" y2="849" stroke="black" stroke-width="3"/> 
  <line x1="1475" y1="975" x2="1476" y2="862" stroke="black" stroke-width="3"/> 
  <line x1="1476" y1="849" x2="1476" y2="811" stroke="black" stroke-width="3"/> 
  <line x1="1200" y1="975" x2="1475" y2="975" stroke="black" stroke-width="3"/> 
  <line x1="1200" y1="975" x2="1200" y2="650" stroke="black" stroke-width="3"/> 
  <line x1="1150" y1="1025" x2="1675" y2="1025" stroke="black" stroke-width="3"/> 
  <g transform="rotate(270 467.789 271.252)">
    <path d="M-249.228 954.182 A11.737 11.0723 0 0 0 -272.69 954.18 " fill="none" stroke="black" stroke-width="2"/> 
    <line x1="-249.439" y1="953.463" x2="-236.439" y2="953.463" stroke="black" stroke-width="3"/> 
    <line x1="-286.439" y1="953.463" x2="-272.689" y2="953.463" stroke="black" stroke-width="3"/> 
  </g>
  <line x1="1150" y1="975" x2="1150" y2="725" stroke="black" stroke-width="3"/> 
  <line x1="1400" y1="1000" x2="1400" y2="975" stroke="black" stroke-width="3"/> 
  <line x1="1100" y1="1000" x2="1400" y2="1000" stroke="black" stroke-width="3"/> 
  <line x1="1750" y1="650" x2="1750" y2="350" stroke="black" stroke-width="3"/> 
  <line x1="1625" y1="350" x2="1750" y2="350" stroke="black" stroke-width="3"/> 
  <line x1="1625" y1="350" x2="1625" y2="75" stroke="black" stroke-width="3"/> 
  <g transform="rotate(90 1255.45 453.636) rotate(0 1.4013e-045 2.77761e-039) flipX(122.608) flipX(126.608) rotate(270 99.3091 253.976) rotate(90 180.309 152.309) rotate(90 132.155 29.823) rotate(360 1.4013e-045 2.31881e-039) flipY(911) rotate(180 1212.44 532.643)">
    <polygon points="561.211,2379.34 586.211,2379.34 574.211,2404.34 574.211,2404.34" fill="black" stroke="black" stroke-width="1" transform="rotate(180 1279.17 367.814)"/> 
  </g>
  <g transform="rotate(90 1255.45 453.636) rotate(0 1.4013e-045 2.77761e-039) flipX(122.608) flipX(126.608) rotate(270 99.3091 253.976) rotate(90 180.309 152.309) rotate(90 132.155 29.823) rotate(360 1.4013e-045 2.31881e-039) flipY(911) rotate(180 1212.44 532.643)">
    <polygon points="286.211,2372.84 311.211,2372.84 299.211,2397.84 299.211,2397.84" fill="black" stroke="black" stroke-width="1" transform="rotate(180 1279.17 367.814)"/> 
  </g>
  <line x1="1100" y1="1000" x2="1100" y2="894" stroke="black" stroke-width="3"/> 
  <line x1="800" y1="894" x2="1100" y2="894" stroke="black" stroke-width="3"/> 
  <line x1="800" y1="994" x2="800" y2="894" stroke="black" stroke-width="3"/> 
  <g transform="rotate(90 1255.45 453.636) rotate(0 1.4013e-045 2.77761e-039) flipX(122.608) flipX(126.608) rotate(270 99.3091 253.976) rotate(90 180.309 152.309) rotate(90 132.155 29.823) rotate(360 1.4013e-045 2.31881e-039) flipY(911) rotate(180 1212.44 532.643)">
    <polygon points="1111.21,3316.84 1136.21,3316.84 1124.21,3341.84 1124.21,3341.84" fill="black" stroke="black" stroke-width="1" transform="rotate(180 1279.17 367.814)"/> 
  </g>
  <line x1="987.823" y1="991.515" x2="987.823" y2="891.515" stroke="black" stroke-width="3"/> 
  <g transform="flipY(1034.24) flipY(765.309) rotate(270 427.309 666.309) rotate(270 99.3091 253.976) rotate(90 180.309 152.309) rotate(90 132.155 29.823) rotate(360 1.4013e-045 2.31881e-039) flipY(911) rotate(180 1212.44 532.643)">
    <polygon points="1429.15,2135.87 1454.16,2135.87 1442.16,2160.87 1442.16,2160.87" fill="black" stroke="black" stroke-width="1" transform="rotate(180 1279.17 367.814)"/> 
  </g>
  <text x="1118.33" y="390.379" fill="black" font-size="15" text-anchor="middle">В канализацию</text>
  <line x1="450" y1="266" x2="450" y2="200" stroke="black"/> 
  <line x1="275" y1="200" x2="450" y2="200" stroke="black"/> 
  <image x="255" y="188" width="175" height="25" xlink:href="DS_ana_tenzor.svg">
    <title>00NDB63CP001</title>
    <rt:dyn type="ShowFrame" mode="constant" value="true"/> 
    <rt:dyn type="X" mode="constant" value="&quot;P&quot;"/> 
    <rt:dyn type="FKKS" mode="constant" value="&quot;00NDB63CP001&quot;"/> 
    <rt:dyn type="ValueToTheRight" mode="constant" value="false"/> 
    <rt:dyn type="Color_Readings" mode="constant" value="true"/> 
  </image>
  <text x="64" y="387.5" fill="black" font-size="15" text-anchor="middle">К насосам<tspan x="64" dy="15">00NDC66-68</tspan>
  </text>
  <text x="466.061" y="388.864" fill="black" font-size="15" text-anchor="middle">00NDB60<tspan x="466.061" dy="15">AA003</tspan>
  </text>
  <text x="270.606" y="493.409" fill="black" font-size="15" text-anchor="middle">00NDB61<tspan x="270.606" dy="15">AA003</tspan>
  </text>
  <text x="683.485" y="507.046" fill="black" font-size="15" text-anchor="middle">00NDB60AA401</text>
  <text x="659.242" y="619.167" fill="black" font-size="15" text-anchor="middle">00NDB61AA401</text>
  <text x="1354" y="32.5" fill="black" font-size="15" text-anchor="middle">От СМБ</text>
  <text x="1623" y="36.5" fill="black" font-size="15" text-anchor="middle">От 00UGD</text>
  <text x="270" y="838.5" fill="black" font-size="15" text-anchor="middle">00NDB61<tspan x="270" dy="15">AA001</tspan>
  </text>
  <image x="1276" y="133" width="175" height="25" xlink:href="DS_ana_tenzor.svg">
    <title>00NDB62CF001</title>
    <rt:dyn type="ShowFrame" mode="constant" value="true"/> 
    <rt:dyn type="X" mode="constant" value="&quot;F&quot;"/> 
    <rt:dyn type="FKKS" mode="constant" value="&quot;00NDB62CF001&quot;"/> 
    <rt:dyn type="ValueToTheRight" mode="constant" value="false"/> 
    <rt:dyn type="Color_Readings" mode="constant" value="true"/> 
  </image>
  <image x="1276" y="180" width="175" height="25" xlink:href="DS_ana_tenzor.svg">
    <title>00NDB62CT001</title>
    <rt:dyn type="ShowFrame" mode="constant" value="true"/> 
    <rt:dyn type="X" mode="constant" value="&quot;T&quot;"/> 
    <rt:dyn type="FKKS" mode="constant" value="&quot;00NDB62CT001&quot;"/> 
    <rt:dyn type="ValueToTheRight" mode="constant" value="false"/> 
    <rt:dyn type="Color_Readings" mode="constant" value="true"/> 
  </image>
  <image x="1276" y="225" width="175" height="25" xlink:href="DS_ana_tenzor.svg">
    <title>00NDB62CP001</title>
    <rt:dyn type="ShowFrame" mode="constant" value="true"/> 
    <rt:dyn type="X" mode="constant" value="&quot;P&quot;"/> 
    <rt:dyn type="FKKS" mode="constant" value="&quot;00NDB62CP001&quot;"/> 
    <rt:dyn type="ValueToTheRight" mode="constant" value="false"/> 
    <rt:dyn type="Color_Readings" mode="constant" value="true"/> 
  </image>
  <image x="1544" y="133" width="175" height="25" xlink:href="DS_ana_tenzor.svg">
    <title>00NDB75CF001</title>
    <rt:dyn type="ShowFrame" mode="constant" value="true"/> 
    <rt:dyn type="X" mode="constant" value="&quot;F&quot;"/> 
    <rt:dyn type="FKKS" mode="constant" value="&quot;00NDB75CF001&quot;"/> 
    <rt:dyn type="ValueToTheRight" mode="constant" value="false"/> 
    <rt:dyn type="Color_Readings" mode="constant" value="true"/> 
  </image>
  <image x="1544" y="180" width="175" height="25" xlink:href="DS_ana_tenzor.svg">
    <title>00NDB75CT001</title>
    <rt:dyn type="ShowFrame" mode="constant" value="true"/> 
    <rt:dyn type="X" mode="constant" value="&quot;T&quot;"/> 
    <rt:dyn type="FKKS" mode="constant" value="&quot;00NDB75CT001&quot;"/> 
    <rt:dyn type="ValueToTheRight" mode="constant" value="false"/> 
    <rt:dyn type="Color_Readings" mode="constant" value="true"/> 
  </image>
  <image x="1544" y="225" width="175" height="25" xlink:href="DS_ana_tenzor.svg">
    <title>00NDB75CP001</title>
    <rt:dyn type="ShowFrame" mode="constant" value="true"/> 
    <rt:dyn type="X" mode="constant" value="&quot;P&quot;"/> 
    <rt:dyn type="FKKS" mode="constant" value="&quot;00NDB75CP001&quot;"/> 
    <rt:dyn type="ValueToTheRight" mode="constant" value="false"/> 
    <rt:dyn type="Color_Readings" mode="constant" value="true"/> 
  </image>
  <text x="1544.85" y="540.379" fill="black" font-size="15" text-anchor="middle">00NDB63<tspan x="1544.85" dy="15">AA401</tspan>
  </text>
  <text x="1169.09" y="585.833" fill="black" font-size="15" text-anchor="middle">00NDB62<tspan x="1169.09" dy="15">AA401</tspan>
  </text>
  <image x="718" y="928" width="175" height="25" xlink:href="DS_ana_tenzor.svg">
    <title>00NDB80CT001</title>
    <rt:dyn type="ShowFrame" mode="constant" value="true"/> 
    <rt:dyn type="X" mode="constant" value="&quot;T&quot;"/> 
    <rt:dyn type="FKKS" mode="constant" value="&quot;00NDB80CT001&quot;"/> 
    <rt:dyn type="ValueToTheRight" mode="constant" value="false"/> 
    <rt:dyn type="Color_Readings" mode="constant" value="true"/> 
  </image>
  <image x="903.182" y="927.879" width="175" height="25" xlink:href="DS_ana_tenzor.svg">
    <title>00NDK20CT001</title>
    <rt:dyn type="ShowFrame" mode="constant" value="true"/> 
    <rt:dyn type="X" mode="constant" value="&quot;T&quot;"/> 
    <rt:dyn type="FKKS" mode="constant" value="&quot;00NDK20CT001&quot;"/> 
    <rt:dyn type="ValueToTheRight" mode="constant" value="false"/> 
    <rt:dyn type="Color_Readings" mode="constant" value="true"/> 
  </image>
  <line x1="550" y1="1000" x2="175" y2="1000" stroke="black"/> 
  <line x1="550" y1="1025" x2="175" y2="1025" stroke="black"/> 
  <line x1="551" y1="975" x2="225" y2="975" stroke="black"/> 
  <line x1="175" y1="1000" x2="175" y2="975" stroke="black"/> 
  <line x1="225" y1="975" x2="225" y2="925" stroke="black"/> 
  <image x="41" y="950" width="175" height="25" xlink:href="DS_ana_tenzor.svg">
    <title>00NDB60CT001</title>
    <rt:dyn type="ShowFrame" mode="constant" value="true"/> 
    <rt:dyn type="X" mode="constant" value="&quot;T&quot;"/> 
    <rt:dyn type="FKKS" mode="constant" value="&quot;00NDB60CT001&quot;"/> 
    <rt:dyn type="ValueToTheRight" mode="constant" value="false"/> 
    <rt:dyn type="Color_Readings" mode="constant" value="true"/> 
  </image>
  <image x="125" y="900" width="175" height="25" xlink:href="DS_ana_tenzor.svg">
    <title>00NDB60CP001</title>
    <rt:dyn type="ShowFrame" mode="constant" value="true"/> 
    <rt:dyn type="X" mode="constant" value="&quot;P&quot;"/> 
    <rt:dyn type="FKKS" mode="constant" value="&quot;00NDB60CP001&quot;"/> 
    <rt:dyn type="ValueToTheRight" mode="constant" value="false"/> 
    <rt:dyn type="Color_Readings" mode="constant" value="true"/> 
  </image>
  <text x="795" y="1039.5" fill="black" font-size="15" text-anchor="middle">На 00UTH</text>
  <text x="988.03" y="1038.02" fill="black" font-size="15" text-anchor="middle">На 00UNE</text>
  <text x="545" y="1067.5" fill="black" font-size="15" text-anchor="middle">С промплощадки</text>
  <image x="75" y="1009" width="175" height="25" xlink:href="DS_ana_tenzor.svg">
    <title>00NDB60CF001</title>
    <rt:dyn type="ShowFrame" mode="constant" value="true"/> 
    <rt:dyn type="X" mode="constant" value="&quot;F&quot;"/> 
    <rt:dyn type="FKKS" mode="constant" value="&quot;00NDB60CF001&quot;"/> 
    <rt:dyn type="ValueToTheRight" mode="constant" value="false"/> 
    <rt:dyn type="Color_Readings" mode="constant" value="true"/> 
  </image>
  <line x1="1475.91" y1="615.758" x2="1577.42" y2="615.758" stroke="black" stroke-width="3"/> 
  <line x1="1624.38" y1="636.068" x2="1624.38" y2="555.159" stroke="black" stroke-width="3"/> 
  <image x="1580" y="510" width="70" height="65" xlink:href="DS_CO_valve_tenzor.svg" transform="rotate(270 0 -10)">
    <title>00NDB63AA401</title>
    <rt:dyn type="DATA_NARY" mode="constant" value="&quot;TYPE2&quot;"/> 
    <rt:dyn type="Operate" mode="constant" value="true"/> 
    <rt:dyn type="KKS" mode="constant" value="&quot;00NDB63AA401&quot;"/> 
  </image>
  <image x="303.5" y="465.5" width="70" height="65" xlink:href="DS_CO_valve_tenzor.svg" transform="rotate(270 0 -10)">
    <title>00NDB61AA003</title>
    <rt:dyn type="DATA_NARY" mode="constant" value="&quot;TYPE2&quot;"/> 
    <rt:dyn type="Operate" mode="constant" value="true"/> 
    <rt:dyn type="KKS" mode="constant" value="&quot;00NDB61AA003&quot;"/> 
  </image>
  <line x1="550.151" y1="836.97" x2="550.151" y2="674.848" stroke="black" stroke-width="3"/> 
  <image x="505.167" y="813.167" width="70" height="65" xlink:href="DS_CO_valve_tenzor.svg" transform="rotate(270 0 -10)">
    <title>00NDB60AA001</title>
    <rt:dyn type="DATA_NARY" mode="constant" value="&quot;TYPE2&quot;"/> 
    <rt:dyn type="Operate" mode="constant" value="true"/> 
    <rt:dyn type="KKS" mode="constant" value="&quot;00NDB60AA001&quot;"/> 
  </image>
  <line x1="550.151" y1="470.303" x2="550.151" y2="402.123" stroke="black" stroke-width="3"/> 
  <image x="505.5" y="359.5" width="70" height="65" xlink:href="DS_CO_valve_tenzor.svg" transform="rotate(270 0 -10)">
    <title>00NDB60AA003</title>
    <rt:dyn type="DATA_NARY" mode="constant" value="&quot;TYPE2&quot;"/> 
    <rt:dyn type="Operate" mode="constant" value="true"/> 
    <rt:dyn type="KKS" mode="constant" value="&quot;00NDB60AA003&quot;"/> 
  </image>
  <line x1="550.137" y1="651.424" x2="550.137" y2="632.424" stroke="black" stroke-width="3"/> 
  <line x1="348.636" y1="824.848" x2="348.636" y2="744.545" stroke="black" stroke-width="3"/> 
  <image x="304.5" y="809.5" width="70" height="65" xlink:href="DS_CO_valve_tenzor.svg" transform="rotate(270 0 -10)">
    <title>00NDB61AA001</title>
    <rt:dyn type="DATA_NARY" mode="constant" value="&quot;TYPE2&quot;"/> 
    <rt:dyn type="Operate" mode="constant" value="true"/> 
    <rt:dyn type="KKS" mode="constant" value="&quot;00NDB61AA001&quot;"/> 
  </image>
  <line x1="594.107" y1="549.682" x2="678.939" y2="549.682" stroke="black" stroke-width="3"/> 
  <image x="650" y="507.5" width="70" height="65" xlink:href="DS_CO_valve_tenzor.svg" transform="rotate(360 0 -10)">
    <title>00NDB60AA401</title>
    <rt:dyn type="DATA_NARY" mode="constant" value="&quot;TYPE2&quot;"/> 
    <rt:dyn type="Operate" mode="constant" value="true"/> 
    <rt:dyn type="KKS" mode="constant" value="&quot;00NDB60AA401&quot;"/> 
  </image>
  <line x1="674.909" y1="663.227" x2="752.182" y2="663.227" stroke="black" stroke-width="3"/> 
  <image x="625" y="620" width="70" height="65" xlink:href="DS_CO_valve_tenzor.svg" transform="rotate(360 0 -10)">
    <title>00NDB61AA401</title>
    <rt:dyn type="DATA_NARY" mode="constant" value="&quot;TYPE2&quot;"/> 
    <rt:dyn type="Operate" mode="constant" value="true"/> 
    <rt:dyn type="KKS" mode="constant" value="&quot;00NDB61AA401&quot;"/> 
  </image>
  <line x1="1350.15" y1="676.364" x2="1350.15" y2="461.212" stroke="black" stroke-width="3"/> 
  <line x1="1475.38" y1="637.606" x2="1475.38" y2="497.576" stroke="black" stroke-width="3"/> 
  <line x1="1248.11" y1="582.74" x2="1248.11" y2="422.831" stroke="black" stroke-width="3"/> 
  <image x="1204" y="555" width="70" height="65" xlink:href="DS_CO_valve_tenzor.svg" transform="rotate(270 0 -10)">
    <title>00NDB62AA401</title>
    <rt:dyn type="DATA_NARY" mode="constant" value="&quot;TYPE2&quot;"/> 
    <rt:dyn type="Operate" mode="constant" value="true"/> 
    <rt:dyn type="KKS" mode="constant" value="&quot;00NDB62AA401&quot;"/> 
  </image>
  <line x1="1138.53" y1="121.151" x2="1138.53" y2="55.1516" stroke="black"/> 
  <line x1="1048.64" y1="120.803" x2="1140.3" y2="120.803" stroke="black"/> 
  <image x="1063.79" y="44.5455" width="175" height="25" xlink:href="DS_ana_tenzor.svg">
    <title>00NDB61CT001</title>
    <rt:dyn type="ShowFrame" mode="constant" value="true"/> 
    <rt:dyn type="X" mode="constant" value="&quot;T&quot;"/> 
    <rt:dyn type="FKKS" mode="constant" value="&quot;00NDB61CT001&quot;"/> 
    <rt:dyn type="ValueToTheRight" mode="constant" value="false"/> 
    <rt:dyn type="Color_Readings" mode="constant" value="true"/> 
  </image>
  <image x="740" y="106" width="25" height="25" xlink:href="bin_indicator.svg">
    <title>00NDB61CL001_XG02</title>
    <rt:dyn type="PointID" mode="constant" value="&quot;00NDB61CL001_XG02&quot;"/> 
  </image>
  <image x="740" y="169" width="25" height="25" xlink:href="bin_indicator.svg">
    <title>00NDB61CL001_XG01</title>
    <rt:dyn type="PointID" mode="constant" value="&quot;00NDB61CL001_XG01&quot;"/> 
  </image>
  <text x="692" y="114.5" fill="black" font-size="15" text-anchor="middle">Уровень<tspan x="692" dy="15">&gt;1.7 м</tspan>
  </text>
  <text x="691.5" y="176.5" fill="black" font-size="15" text-anchor="middle">Уровень<tspan x="691.5" dy="15">&gt;1.6 м</tspan>
  </text>
</svg>
