<?xml  version="1.0" encoding="UTF-8"?>
<svg color="Col_BGSand" xmlns="http://www.w3.org/2000/svg" xmlns:rt="http://www.rts.co.at/2001/XMLSchema/RtSvgPL" xmlns:xlink="http://www.w3.org/1999/xlink" xmlns:xsi="http://www.w3.org/2001/XMLSchema-instance" xsi:schemaLocation="http://www.w3.org/2000/svg C:\RTS\RtSvg\XML\SVG.xsd" viewBox="0 0 1920 1080" width="1920" height="1080" id="00cxv21" fill="Col_Grey3">
  <rt:model modelversion="7.2.0.24" revision="1"/> 
  <line x1="298" y1="433" x2="298" y2="433" stroke="black"/> 
  <line x1="344" y1="425" x2="342" y2="0"/> 
  <line x1="592.727" y1="690.909" x2="592.727" y2="690.909" stroke="black"/> 
  <line x1="749.091" y1="939.091" x2="749.091" y2="939.091" stroke="black"/> 
  <line x1="638.182" y1="881.818" x2="638.182" y2="881.818" stroke="black"/> 
  <line x1="214.545" y1="692.727" x2="214.545" y2="692.727" stroke="black"/> 
  <line x1="259.091" y1="771.818" x2="259.091" y2="771.818" stroke="black"/> 
  <line x1="195.455" y1="720" x2="195.455" y2="720" stroke="black"/> 
  <line x1="186.364" y1="713.636" x2="186.364" y2="713.636" stroke="black"/> 
  <line x1="191.818" y1="715.455" x2="191.818" y2="715.455" stroke="black"/> 
  <line x1="985.455" y1="149.091" x2="985.455" y2="149.091" stroke="black"/> 
  <line x1="1150" y1="365" x2="1150" y2="365" stroke="black"/> 
  <line x1="1274" y1="337" x2="1274" y2="337" stroke="black"/> 
  <line x1="1029" y1="375" x2="1029" y2="375" stroke="black"/> 
  <line x1="1215.33" y1="421.333" x2="1215.33" y2="421.333" stroke="black"/> 
  <line x1="1007" y1="314.75" x2="1007" y2="314.75" stroke="black"/> 
  <line x1="1027.27" y1="820" x2="1027.27" y2="820" stroke="black"/> 
  <line x1="675" y1="65" x2="675" y2="65" stroke="black"/> 
  <line x1="1468" y1="294" x2="1468" y2="294" stroke="black"/> 
  <line x1="1066.67" y1="766" x2="1066.67" y2="766" stroke="black"/> 
  <text x="415.855" y="592.472" fill="black" font-size="40">Инженерно-бытовой корпус 00USV</text>
  <line x1="1547.52" y1="709.139" x2="295.643" y2="709.131" stroke="black" stroke-width="3"/> 
  <line x1="297.522" y1="459.139" x2="297.522" y2="709.139" stroke="black" stroke-width="3"/> 
  <line x1="1547.52" y1="459.139" x2="1547.52" y2="709.139" stroke="black" stroke-width="3"/> 
  <line x1="1547.52" y1="459.139" x2="297.522" y2="459.139" stroke="black" stroke-width="3"/> 
  <line x1="1522.52" y1="459.139" x2="1522.52" y2="709.139" stroke="black" stroke-width="3"/> 
  <line x1="1322.52" y1="459.139" x2="1322.52" y2="709.139" stroke="black" stroke-width="3"/> 
  <line x1="1297.52" y1="459.139" x2="1297.52" y2="709.139" stroke="black" stroke-width="3"/> 
  <text x="1353.18" y="579.394" fill="black" font-size="25">Кабельные<tspan x="1353.18" dy="25">шахты</tspan>
  </text>
  <g transform="rotate(180 1212.44 532.643)">
    <polygon points="892.989,338.568 917.989,338.568 905.989,313.568 905.989,313.568" fill="black" stroke="black" stroke-width="1" transform="rotate(180 1279.17 367.814)"/> 
  </g>
  <g transform="rotate(180 1212.44 532.643)">
    <polygon points="1550.55,349.174 1575.55,349.174 1563.55,324.174 1563.55,324.174" fill="black" stroke="black" stroke-width="1" transform="rotate(180 1279.17 367.814)"/> 
  </g>
  <g>
    <rect x="260.759" y="1825.06" width="501" height="3" rx="0" ry="0"/> 
    <rect x="261.759" y="1874.39" width="501" height="3" rx="0" ry="0"/> 
    <rect x="261.759" y="1921.39" width="501" height="3" rx="0" ry="0"/> 
    <rect x="261.759" y="1971.39" width="501" height="3" rx="0" ry="0"/> 
    <rect x="261.759" y="2021.39" width="501" height="3" rx="0" ry="0"/> 
    <line x1="261.429" y1="2022.39" x2="261.429" y2="1827.06" stroke="black"/> 
    <line x1="762.09" y1="2021.06" x2="761.43" y2="1825.73" stroke="black"/> 
    <line x1="792.76" y1="1881.73" x2="792.76" y2="1881.73" stroke="black"/> 
    <line x1="511.429" y1="1923.73" x2="511.759" y2="2024.39" stroke="black"/> 
  </g>
  <text x="482.865" y="585.298" fill="black" transform="scale(3.36 3.36 507 43)">05SAS20</text>
  <line x1="783.669" y1="851.456" x2="783.669" y2="851.456" stroke="black"/> 
  <line x1="410" y1="913" x2="410" y2="913" stroke="black"/> 
  <line x1="398" y1="872" x2="398" y2="872" stroke="black"/> 
  <line x1="841" y1="753" x2="841" y2="753" stroke="black"/> 
  <line x1="1429.14" y1="674.381" x2="1429.14" y2="733.381" stroke="black"/> 
  <line x1="1396" y1="754" x2="1396" y2="754" stroke="black"/> 
  <line x1="1369" y1="798" x2="1369" y2="798" stroke="black"/> 
  <line x1="438" y1="1031" x2="438" y2="1031" stroke="black"/> 
  <line x1="419" y1="1033" x2="419" y2="1033" stroke="black"/> 
  <line x1="772.143" y1="734.381" x2="772.143" y2="665.381" stroke="black"/> 
  <line x1="835" y1="706" x2="835" y2="706" stroke="black"/> 
  <line x1="413.711" y1="185.745" x2="413.711" y2="260.745" stroke="black" stroke-width="3"/> 
  <line x1="556.499" y1="64.5318" x2="556.499" y2="139.533" stroke="black" stroke-width="3"/> 
  <line x1="707.256" y1="187.26" x2="707.256" y2="262.26" stroke="black" stroke-width="3"/> 
  <line x1="831.979" y1="63.0168" x2="831.979" y2="138.018" stroke="black" stroke-width="3"/> 
  <line x1="956.765" y1="192.775" x2="956.765" y2="267.775" stroke="black" stroke-width="3"/> 
  <line x1="1095.01" y1="64.5318" x2="1095.01" y2="139.533" stroke="black" stroke-width="3"/> 
  <g transform="rotate(180 1212.44 532.643)">
    <polygon points="534.686,-140.888 559.686,-140.888 547.686,-165.888 547.686,-165.888" fill="black" stroke="black" stroke-width="1" transform="rotate(180 1279.17 367.814)"/> 
  </g>
  <g transform="rotate(180 1212.44 532.643)">
    <polygon points="677.474,-259.07 702.474,-259.07 690.474,-284.07 690.474,-284.07" fill="black" stroke="black" stroke-width="1" transform="rotate(180 1279.17 367.814)"/> 
  </g>
  <g transform="rotate(180 1212.44 532.643)">
    <polygon points="828.231,-140.888 853.231,-140.888 841.231,-165.888 841.231,-165.888" fill="black" stroke="black" stroke-width="1" transform="rotate(180 1279.17 367.814)"/> 
  </g>
  <g transform="rotate(180 1212.44 532.643)">
    <polygon points="952.954,-263.615 977.953,-263.615 965.954,-288.615 965.954,-288.615" fill="black" stroke="black" stroke-width="1" transform="rotate(180 1279.17 367.814)"/> 
  </g>
  <g transform="rotate(180 1212.44 532.643)">
    <polygon points="1077.74,-132.342 1102.74,-132.342 1090.74,-157.342 1090.74,-157.342" fill="black" stroke="black" stroke-width="1" transform="rotate(180 1279.17 367.814)"/> 
  </g>
  <g transform="rotate(180 1212.44 532.643)">
    <polygon points="1215.98,-259.069 1240.98,-259.069 1228.98,-284.069 1228.98,-284.069" fill="black" stroke="black" stroke-width="1" transform="rotate(180 1279.17 367.814)"/> 
  </g>
  <line x1="1272.14" y1="410.381" x2="297.143" y2="410.381" stroke="black" stroke-width="3"/> 
  <line x1="1110.52" y1="175.139" x2="1110.52" y2="411.502" stroke="black" stroke-width="3"/> 
  <line x1="972.523" y1="294.29" x2="972.523" y2="409.442" stroke="black" stroke-width="3"/> 
  <line x1="847.522" y1="164.532" x2="847.522" y2="411.502" stroke="black" stroke-width="3"/> 
  <line x1="722.643" y1="287.381" x2="722.643" y2="408.593" stroke="black" stroke-width="3"/> 
  <line x1="572.522" y1="163.017" x2="572.522" y2="409.987" stroke="black" stroke-width="3"/> 
  <line x1="429.522" y1="290.29" x2="429.643" y2="411.881" stroke="black" stroke-width="3"/> 
  <text x="1145.61" y="146.439" fill="black" font-size="15">00SAK28<tspan x="1145.61" dy="15">AN001</tspan>
  </text>
  <text x="1007.73" y="276.742" fill="black" font-size="15">00SAK26<tspan x="1007.73" dy="15">AN001</tspan>
  </text>
  <text x="881.97" y="146.439" fill="black" font-size="15">00SAK25<tspan x="881.97" dy="15">AN001</tspan>
  </text>
  <text x="757.727" y="272.197" fill="black" font-size="15">00SAK24<tspan x="757.727" dy="15">AN001</tspan>
  </text>
  <text x="607.727" y="147.955" fill="black" font-size="15">00SAK23<tspan x="607.727" dy="15">AN001</tspan>
  </text>
  <text x="463.788" y="270.682" fill="black" font-size="15">00SAK22<tspan x="463.788" dy="15">AN001</tspan>
  </text>
  <text x="331.97" y="152.5" fill="black" font-size="15">00SAK20<tspan x="331.97" dy="15">AN001</tspan>
  </text>
  <g transform="rotate(180 1212.44 532.643)">
    <polygon points="402.579,-259.402 427.579,-259.402 415.579,-284.402 415.579,-284.402" fill="black" stroke="black" stroke-width="1" transform="rotate(180 1279.17 367.814)"/> 
  </g>
  <line x1="281.604" y1="68.7448" x2="281.604" y2="143.745" stroke="black" stroke-width="3"/> 
  <line x1="298.279" y1="165.806" x2="297.143" y2="411.26" stroke="black" stroke-width="3"/> 
  <line x1="1428.8" y1="66.1078" x2="1428.8" y2="141.109" stroke="black" stroke-width="3"/> 
  <g transform="rotate(180 1212.44 532.643)">
    <polygon points="1549.77,-257.493 1574.77,-257.493 1562.77,-282.493 1562.77,-282.493" fill="black" stroke="black" stroke-width="1" transform="rotate(180 1279.17 367.814)"/> 
  </g>
  <line x1="1444.14" y1="183.381" x2="1444.14" y2="475.036" stroke="black" stroke-width="3"/> 
  <g transform="rotate(180 1212.44 532.643)">
    <polygon points="1564.6,165.84 1589.6,165.84 1577.6,140.84 1577.6,140.84" fill="black" stroke="black" stroke-width="1" transform="rotate(180 1279.17 367.814)"/> 
  </g>
  <text x="1478.94" y="152.5" fill="black" font-size="15">00SAK21<tspan x="1478.94" dy="15">AN001</tspan>
  </text>
  <line x1="1429.64" y1="733.381" x2="1197.14" y2="733.381" stroke="black"/> 
  <line x1="1197" y1="780" x2="1197" y2="733.381" stroke="black"/> 
  <line x1="847" y1="779" x2="847" y2="732.381" stroke="black"/> 
  <line x1="497.143" y1="783.381" x2="497.143" y2="733.381" stroke="black"/> 
  <line x1="675" y1="888.75" x2="672.143" y2="733.381" stroke="black"/> 
  <line x1="1050" y1="886.25" x2="1047.14" y2="733.381" stroke="black"/> 
  <line x1="1047.14" y1="733.381" x2="497.143" y2="733.381" stroke="black"/> 
  <line x1="1572.14" y1="33.3808" x2="222.143" y2="33.3808" stroke="black"/> 
  <text x="890.143" y="22.3808" fill="black" font-size="20">На кровлю</text>
  <image x="262.143" y="122.381" width="70" height="70" xlink:href="DS_motor_tenzor.svg" transform="rotate(270 0.00012207 0)">
    <title>00SAK20AN001</title>
    <rt:dyn type="DeviceType" mode="constant" value="&quot;fan&quot;"/> 
    <rt:dyn type="Operate" mode="constant" value="true"/> 
    <rt:dyn type="KKS" mode="constant" value="&quot;00SAK20AN001&quot;"/> 
    <rt:dyn type="DATA_NARY" mode="constant" value="&quot;TYPE2&quot;"/> 
  </image>
  <line x1="1256.46" y1="71.5928" x2="1255.48" y2="267.048" stroke="black" stroke-width="3"/> 
  <g transform="rotate(180 1212.44 532.643)">
    <polygon points="1376.94,-255.039 1401.94,-255.039 1389.94,-280.039 1389.94,-280.039" fill="black" stroke="black" stroke-width="1" transform="rotate(180 1279.17 367.814)"/> 
  </g>
  <line x1="1272.14" y1="289.775" x2="1271.76" y2="410.987" stroke="black" stroke-width="3"/> 
  <text x="1306.67" y="273.712" fill="black" font-size="15">00SAK29<tspan x="1306.67" dy="15">AN001</tspan>
  </text>
  <image x="1236.76" y="241.138" width="70" height="70" xlink:href="DS_motor_tenzor.svg" transform="rotate(270 0.00012207 0)">
    <title>00SAK29AN001</title>
    <rt:dyn type="DeviceType" mode="constant" value="&quot;fan&quot;"/> 
    <rt:dyn type="Operate" mode="constant" value="true"/> 
    <rt:dyn type="KKS" mode="constant" value="&quot;00SAK29AN001&quot;"/> 
    <rt:dyn type="DATA_NARY" mode="constant" value="&quot;TYPE2&quot;"/> 
  </image>
  <image x="1409.85" y="122.775" width="70" height="70" xlink:href="DS_motor_tenzor.svg" transform="rotate(270 0.00012207 0)">
    <title>00SAK21AN001</title>
    <rt:dyn type="DeviceType" mode="constant" value="&quot;fan&quot;"/> 
    <rt:dyn type="Operate" mode="constant" value="true"/> 
    <rt:dyn type="KKS" mode="constant" value="&quot;00SAK21AN001&quot;"/> 
    <rt:dyn type="DATA_NARY" mode="constant" value="&quot;TYPE2&quot;"/> 
  </image>
  <image x="1075.52" y="115.138" width="70" height="70" xlink:href="DS_motor_tenzor.svg" transform="rotate(270 0.00012207 0)">
    <title>00SAK28AN001</title>
    <rt:dyn type="DeviceType" mode="constant" value="&quot;fan&quot;"/> 
    <rt:dyn type="Operate" mode="constant" value="true"/> 
    <rt:dyn type="KKS" mode="constant" value="&quot;00SAK28AN001&quot;"/> 
    <rt:dyn type="DATA_NARY" mode="constant" value="&quot;TYPE2&quot;"/> 
  </image>
  <image x="937.522" y="244.138" width="70" height="70" xlink:href="DS_motor_tenzor.svg" transform="rotate(270 0.00012207 0)">
    <title>00SAK26AN001</title>
    <rt:dyn type="DeviceType" mode="constant" value="&quot;fan&quot;"/> 
    <rt:dyn type="Operate" mode="constant" value="true"/> 
    <rt:dyn type="KKS" mode="constant" value="&quot;00SAK26AN001&quot;"/> 
    <rt:dyn type="DATA_NARY" mode="constant" value="&quot;TYPE2&quot;"/> 
  </image>
  <image x="812.522" y="115.138" width="70" height="70" xlink:href="DS_motor_tenzor.svg" transform="rotate(270 0.00012207 0)">
    <title>00SAK25AN001</title>
    <rt:dyn type="DeviceType" mode="constant" value="&quot;fan&quot;"/> 
    <rt:dyn type="Operate" mode="constant" value="true"/> 
    <rt:dyn type="KKS" mode="constant" value="&quot;00SAK25AN001&quot;"/> 
    <rt:dyn type="DATA_NARY" mode="constant" value="&quot;TYPE2&quot;"/> 
  </image>
  <image x="687.522" y="240.138" width="70" height="70" xlink:href="DS_motor_tenzor.svg" transform="rotate(270 0.00012207 0)">
    <title>00SAK24AN001</title>
    <rt:dyn type="DeviceType" mode="constant" value="&quot;fan&quot;"/> 
    <rt:dyn type="Operate" mode="constant" value="true"/> 
    <rt:dyn type="KKS" mode="constant" value="&quot;00SAK24AN001&quot;"/> 
    <rt:dyn type="DATA_NARY" mode="constant" value="&quot;TYPE2&quot;"/> 
  </image>
  <image x="537.522" y="115.138" width="70" height="70" xlink:href="DS_motor_tenzor.svg" transform="rotate(270 0.00012207 0)">
    <title>00SAK23AN001</title>
    <rt:dyn type="DeviceType" mode="constant" value="&quot;fan&quot;"/> 
    <rt:dyn type="Operate" mode="constant" value="true"/> 
    <rt:dyn type="KKS" mode="constant" value="&quot;00SAK23AN001&quot;"/> 
    <rt:dyn type="DATA_NARY" mode="constant" value="&quot;TYPE2&quot;"/> 
  </image>
  <image x="394.522" y="240.138" width="70" height="70" xlink:href="DS_motor_tenzor.svg" transform="rotate(270 0.00012207 0)">
    <title>00SAK22AN001</title>
    <rt:dyn type="DeviceType" mode="constant" value="&quot;fan&quot;"/> 
    <rt:dyn type="Operate" mode="constant" value="true"/> 
    <rt:dyn type="KKS" mode="constant" value="&quot;00SAK22AN001&quot;"/> 
    <rt:dyn type="DATA_NARY" mode="constant" value="&quot;TYPE2&quot;"/> 
  </image>
  <text x="25" y="25" fill="black" font-size="15">00USV 00CXV21</text>
  <g transform="rotate(180 1212.44 532.643)">
    <polygon points="760.604,166.269 785.604,166.269 773.604,141.269 773.604,141.269" fill="black" stroke="black" stroke-width="1" transform="rotate(180 1279.17 367.814)"/> 
  </g>
  <line x1="639.429" y1="408.381" x2="640.143" y2="479.809" stroke="black" stroke-width="3"/> 
  <image x="398.876" y="823.5" width="181.818" height="24.2424" xlink:href="bitwise_tablo_4bits.svg">
    <title>&quot;00CXV21_00SAK41_XK92&quot;</title>
    <rt:dyn type="PointID_1" mode="constant" value="&quot;00CXV21_00SAK41_XK92&quot;"/> 
    <rt:dyn type="Text_0000" mode="constant" value="&quot;АВТОМАТИЧЕСКИЙ&quot;"/> 
    <rt:dyn type="Color_0001" mode="constant" value="&quot;Col_Green&quot;"/> 
    <rt:dyn type="Text_0001" mode="constant" value="&quot;ДИСТАНЦИОННЫЙ&quot;"/> 
    <rt:dyn type="Color_0000" mode="constant" value="&quot;Col_Green&quot;"/> 
  </image>
  <text x="402.286" y="801.5" fill="black" font-size="15">Режим работы 00SAK41</text>
  <rect x="370.286" y="781" width="239" height="82" rx="0" ry="0" fill="none" stroke="black" stroke-width="2"/> 
  <image x="576.019" y="929.214" width="181.818" height="24.2424" xlink:href="bitwise_tablo_4bits.svg">
    <title>&quot;00CXV21_00SAK43_XK92&quot;</title>
    <rt:dyn type="PointID_1" mode="constant" value="&quot;00CXV21_00SAK43_XK92&quot;"/> 
    <rt:dyn type="Text_0000" mode="constant" value="&quot;АВТОМАТИЧЕСКИЙ&quot;"/> 
    <rt:dyn type="Color_0001" mode="constant" value="&quot;Col_Green&quot;"/> 
    <rt:dyn type="Text_0001" mode="constant" value="&quot;ДИСТАНЦИОННЫЙ&quot;"/> 
    <rt:dyn type="Color_0000" mode="constant" value="&quot;Col_Green&quot;"/> 
  </image>
  <text x="579.429" y="907.214" fill="black" font-size="15">Режим работы 00SAK43</text>
  <rect x="547.429" y="886.714" width="239" height="82" rx="0" ry="0" fill="none" stroke="black" stroke-width="2"/> 
  <image x="766.019" y="820.643" width="181.818" height="24.2424" xlink:href="bitwise_tablo_4bits.svg">
    <title>&quot;00CXV21_00SAK44_XK92&quot;</title>
    <rt:dyn type="PointID_1" mode="constant" value="&quot;00CXV21_00SAK44_XK92&quot;"/> 
    <rt:dyn type="Text_0000" mode="constant" value="&quot;АВТОМАТИЧЕСКИЙ&quot;"/> 
    <rt:dyn type="Color_0001" mode="constant" value="&quot;Col_Green&quot;"/> 
    <rt:dyn type="Text_0001" mode="constant" value="&quot;ДИСТАНЦИОННЫЙ&quot;"/> 
    <rt:dyn type="Color_0000" mode="constant" value="&quot;Col_Green&quot;"/> 
  </image>
  <text x="769.429" y="798.643" fill="black" font-size="15">Режим работы 00SAK44</text>
  <rect x="737.429" y="778.143" width="239" height="82" rx="0" ry="0" fill="none" stroke="black" stroke-width="2"/> 
  <image x="953.161" y="927.786" width="181.818" height="24.2424" xlink:href="bitwise_tablo_4bits.svg">
    <title>&quot;00CXV21_00SAK45_XK92&quot;</title>
    <rt:dyn type="PointID_1" mode="constant" value="&quot;00CXV21_00SAK45_XK92&quot;"/> 
    <rt:dyn type="Text_0000" mode="constant" value="&quot;АВТОМАТИЧЕСКИЙ&quot;"/> 
    <rt:dyn type="Color_0001" mode="constant" value="&quot;Col_Green&quot;"/> 
    <rt:dyn type="Text_0001" mode="constant" value="&quot;ДИСТАНЦИОННЫЙ&quot;"/> 
    <rt:dyn type="Color_0000" mode="constant" value="&quot;Col_Green&quot;"/> 
  </image>
  <text x="956.572" y="905.786" fill="black" font-size="15">Режим работы 00SAK45</text>
  <rect x="924.572" y="885.286" width="239" height="82" rx="0" ry="0" fill="none" stroke="black" stroke-width="2"/> 
  <image x="1110.3" y="822.071" width="181.818" height="24.2424" xlink:href="bitwise_tablo_4bits.svg">
    <title>&quot;00CXV21_00SAK42_XK92&quot;</title>
    <rt:dyn type="PointID_1" mode="constant" value="&quot;00CXV21_00SAK42_XK92&quot;"/> 
    <rt:dyn type="Text_0000" mode="constant" value="&quot;АВТОМАТИЧЕСКИЙ&quot;"/> 
    <rt:dyn type="Color_0001" mode="constant" value="&quot;Col_Green&quot;"/> 
    <rt:dyn type="Text_0001" mode="constant" value="&quot;ДИСТАНЦИОННЫЙ&quot;"/> 
    <rt:dyn type="Color_0000" mode="constant" value="&quot;Col_Green&quot;"/> 
  </image>
  <text x="1113.71" y="800.071" fill="black" font-size="15">Режим работы 00SAK42</text>
  <rect x="1081.71" y="779.571" width="239" height="82" rx="0" ry="0" fill="none" stroke="black" stroke-width="2"/> 
  <line x1="426.429" y1="862.857" x2="425" y2="1050" stroke="black" stroke-width="3"/> 
  <line x1="423.571" y1="1047.14" x2="1725" y2="1050" stroke="black" stroke-width="3"/> 
  <path d="M2127.5 -980.815 A8.80483 8.80483 0 1 1 2127.5 -963.205 " fill="none" stroke="black" stroke-width="3" transform="rotate(0 1.4013e-045 2.88312e-039) flipX(919.775) rotate(90 1.4013e-045 1.4013e-045) flipY(571.298) rotate(90 1.4013e-045 1.4013e-045) flipY(166.195) flipY() translate(0 -828) translate(229.642 442.62)"/> 
  <g transform="rotate(180 1212.44 532.643)">
    <polygon points="1808.46,708.342 1783.46,695.342 1808.46,683.342 1808.46,683.342" fill="black" stroke="black" stroke-width="1" transform="rotate(180 1279.17 367.814)"/> 
  </g>
  <g transform="rotate(180 1212.44 532.643)">
    <polygon points="1835.27,733.27 1860.27,720.27 1835.27,708.27 1835.27,708.27" fill="black" stroke="black" stroke-width="1" transform="rotate(180 1279.17 367.814)"/> 
  </g>
  <text x="1555.72" y="1015.36" fill="black" font-size="15">00SBT13</text>
  <text x="1556.21" y="1042.92" fill="black" font-size="15">00SBT14</text>
  <g transform="rotate(180 1212.44 532.643)">
    <polygon points="796.46,670.342 821.458,670.342 808.46,645.342 809.46,645.342" fill="black" stroke="black" stroke-width="1" transform="rotate(180 1279.17 367.814)"/> 
  </g>
  <g transform="rotate(180 1212.44 532.643)">
    <polygon points="745.46,645.342 770.458,645.342 758.46,670.342 758.46,670.342" fill="black" stroke="black" stroke-width="1" transform="rotate(180 1279.17 367.814)"/> 
  </g>
  <g transform="rotate(180 1212.44 532.643)">
    <polygon points="596.46,561.556 621.458,561.556 608.46,536.556 609.46,536.556" fill="black" stroke="black" stroke-width="1" transform="rotate(180 1279.17 367.814)"/> 
  </g>
  <g transform="rotate(180 1212.44 532.643)">
    <polygon points="546.428,570.841 571.426,570.841 559.428,595.841 559.428,595.841" fill="black" stroke="black" stroke-width="1" transform="rotate(180 1279.17 367.814)"/> 
  </g>
  <g transform="rotate(180 1212.44 532.643)">
    <polygon points="996.458,555.842 1021.46,555.842 1008.46,530.842 1009.46,530.842" fill="black" stroke="black" stroke-width="1" transform="rotate(180 1279.17 367.814)"/> 
  </g>
  <g transform="rotate(180 1212.44 532.643)">
    <polygon points="946.426,565.127 971.424,565.127 959.426,590.127 959.426,590.127" fill="black" stroke="black" stroke-width="1" transform="rotate(180 1279.17 367.814)"/> 
  </g>
  <g transform="rotate(180 1212.44 532.643)">
    <polygon points="1370.74,557.27 1395.74,557.27 1382.74,532.27 1383.74,532.27" fill="black" stroke="black" stroke-width="1" transform="rotate(180 1279.17 367.814)"/> 
  </g>
  <g transform="rotate(180 1212.44 532.643)">
    <polygon points="1320.71,566.555 1345.71,566.555 1333.71,591.555 1333.71,591.555" fill="black" stroke="black" stroke-width="1" transform="rotate(180 1279.17 367.814)"/> 
  </g>
  <g transform="rotate(180 1212.44 532.643)">
    <polygon points="1196.85,671.556 1221.85,671.556 1208.85,646.556 1209.85,646.556" fill="black" stroke="black" stroke-width="1" transform="rotate(180 1279.17 367.814)"/> 
  </g>
  <g transform="rotate(180 1212.44 532.643)">
    <polygon points="1145.85,646.556 1170.85,646.556 1158.85,671.556 1158.85,671.556" fill="black" stroke="black" stroke-width="1" transform="rotate(180 1279.17 367.814)"/> 
  </g>
  <path d="M1927.5 -980.815 A8.80483 8.80483 0 1 1 1927.5 -963.205 " fill="none" stroke="black" stroke-width="3" transform="rotate(0 1.4013e-045 2.88312e-039) flipX(919.775) rotate(90 1.4013e-045 1.4013e-045) flipY(571.298) rotate(90 1.4013e-045 1.4013e-045) flipY(166.195) flipY() translate(0 -828) translate(229.642 442.62)"/> 
  <path d="M1727.5 -980.815 A8.80483 8.80483 0 1 1 1727.5 -963.205 " fill="none" stroke="black" stroke-width="3" transform="rotate(0 1.4013e-045 2.88312e-039) flipX(919.775) rotate(90 1.4013e-045 1.4013e-045) flipY(571.298) rotate(90 1.4013e-045 1.4013e-045) flipY(166.195) flipY() translate(0 -828) translate(229.642 442.62)"/> 
  <line x1="475" y1="864.286" x2="475" y2="1025" stroke="black" stroke-width="3"/> 
  <line x1="473.571" y1="1022.86" x2="1725" y2="1025" stroke="black" stroke-width="3"/> 
  <line x1="623.889" y1="967.778" x2="625" y2="1016.67" stroke="black" stroke-width="3"/> 
  <line x1="623.889" y1="1033.33" x2="625" y2="1050" stroke="black" stroke-width="3"/> 
  <line x1="825" y1="860" x2="825" y2="1016.67" stroke="black" stroke-width="3"/> 
  <line x1="825" y1="1032.22" x2="825" y2="1050" stroke="black" stroke-width="3"/> 
  <line x1="876.111" y1="873.333" x2="875" y2="1025" stroke="black" stroke-width="3"/> 
  <line x1="676.111" y1="967.778" x2="675" y2="1025" stroke="black" stroke-width="3"/> 
  <line x1="1025" y1="966.667" x2="1025" y2="1015.56" stroke="black" stroke-width="3"/> 
  <line x1="1023.89" y1="1033.33" x2="1025" y2="1050" stroke="black" stroke-width="3"/> 
  <line x1="1075" y1="967.778" x2="1075" y2="1025" stroke="black" stroke-width="3"/> 
  <path d="M1552.5 -980.815 A8.80483 8.80483 0 1 1 1552.5 -963.205 " fill="none" stroke="black" stroke-width="3" transform="rotate(0 1.4013e-045 2.88312e-039) flipX(919.775) rotate(90 1.4013e-045 1.4013e-045) flipY(571.298) rotate(90 1.4013e-045 1.4013e-045) flipY(166.195) flipY() translate(0 -828) translate(229.642 442.62)"/> 
  <line x1="1199.44" y1="861.111" x2="1200" y2="1015.56" stroke="black" stroke-width="3"/> 
  <line x1="1198.33" y1="1033.33" x2="1200" y2="1050" stroke="black" stroke-width="3"/> 
  <line x1="1250.56" y1="875.556" x2="1250" y2="1025" stroke="black" stroke-width="3"/> 
  <image x="216.061" y="188.485" width="160" height="30" xlink:href="ps_tenzor_m0.svg">
    <title>00SAK20AN001</title>
    <rt:dyn type="KKS" mode="constant" value="&quot;00SAK20AN001&quot;"/> 
  </image>
  <image x="348.637" y="320.303" width="160" height="30" xlink:href="ps_tenzor_m0.svg">
    <title>00SAK22AN001</title>
    <rt:dyn type="KKS" mode="constant" value="&quot;00SAK22AN001&quot;"/> 
  </image>
  <image x="493.076" y="186.969" width="160" height="30" xlink:href="ps_tenzor_m0.svg">
    <title>00SAK23AN001</title>
    <rt:dyn type="KKS" mode="constant" value="&quot;00SAK23AN001&quot;"/> 
  </image>
  <image x="642.576" y="323.333" width="160" height="30" xlink:href="ps_tenzor_m0.svg">
    <title>00SAK24AN001</title>
    <rt:dyn type="KKS" mode="constant" value="&quot;00SAK24AN001&quot;"/> 
  </image>
  <image x="768.333" y="188.485" width="160" height="30" xlink:href="ps_tenzor_m0.svg">
    <title>00SAK25AN001</title>
    <rt:dyn type="KKS" mode="constant" value="&quot;00SAK25AN001&quot;"/> 
  </image>
  <image x="892.576" y="321.818" width="160" height="30" xlink:href="ps_tenzor_m0.svg">
    <title>00SAK26AN001</title>
    <rt:dyn type="KKS" mode="constant" value="&quot;00SAK26AN001&quot;"/> 
  </image>
  <image x="1029.44" y="186.969" width="160" height="30" xlink:href="ps_tenzor_m0.svg">
    <title>00SAK28AN001</title>
    <rt:dyn type="KKS" mode="constant" value="&quot;00SAK28AN001&quot;"/> 
  </image>
  <image x="1195.61" y="318.788" width="160" height="30" xlink:href="ps_tenzor_m0.svg">
    <title>00SAK29AN001</title>
    <rt:dyn type="KKS" mode="constant" value="&quot;00SAK29AN001&quot;"/> 
  </image>
  <image x="1362.77" y="191.515" width="160" height="30" xlink:href="ps_tenzor_m0.svg">
    <title>00SAK21AN001</title>
    <rt:dyn type="KKS" mode="constant" value="&quot;00SAK21AN001&quot;"/> 
  </image>
</svg>
