<?xml  version="1.0" encoding="UTF-8"?>
<svg color="Col_BGSand" xmlns="http://www.w3.org/2000/svg" xmlns:rt="http://www.rts.co.at/2001/XMLSchema/RtSvgPL" xmlns:xlink="http://www.w3.org/1999/xlink" xmlns:xsi="http://www.w3.org/2001/XMLSchema-instance" xsi:schemaLocation="http://www.w3.org/2000/svg C:\RTS\RtSvg\XML\SVG.xsd" viewBox="0 0 1920 1080" width="1920" height="1080" id="00cxv36" fill="Col_Grey3">
  <rt:model modelversion="7.2.0.23" comment="Создано VNIIAES-ASUTP\voroninrs 10.12.2012 14:48:20"/> 
  <line x1="344" y1="425" x2="342" y2="0"/> 
  <line x1="436.875" y1="431.25" x2="434.682" y2="633" stroke="black" stroke-width="3"/> 
  <text x="25" y="25" fill="black" font-size="15">00UAD 00CXV36</text>
  <line x1="604" y1="885" x2="254" y2="885" stroke="black" stroke-width="3"/> 
  <line x1="255" y1="786" x2="255" y2="885" stroke="black" stroke-width="3"/> 
  <line x1="240" y1="635" x2="240" y2="785" stroke="black" stroke-width="3"/> 
  <image x="220" y="750" width="70" height="70" xlink:href="DS_motor_tenzor.svg" transform="rotate(270 0.00012207 0)">
    <title>00SAC61AN001</title>
    <rt:dyn type="DeviceType" mode="constant" value="&quot;fan&quot;"/> 
    <rt:dyn type="Operate" mode="constant" value="true"/> 
    <rt:dyn type="KKS" mode="constant" value="&quot;00SAC61AN001&quot;"/> 
    <rt:dyn type="DATA_NARY" mode="constant" value="&quot;TYPE2&quot;"/> 
  </image>
  <line x1="590" y1="635" x2="240" y2="635" stroke="black" stroke-width="3"/> 
  <line x1="605" y1="786" x2="605" y2="885" stroke="black" stroke-width="3"/> 
  <line x1="590" y1="635" x2="590" y2="785" stroke="black" stroke-width="3"/> 
  <image x="570" y="750" width="70" height="70" xlink:href="DS_motor_tenzor.svg" transform="rotate(270 0.00012207 0)">
    <title>00SAC61AN002</title>
    <rt:dyn type="DeviceType" mode="constant" value="&quot;fan&quot;"/> 
    <rt:dyn type="Operate" mode="constant" value="true"/> 
    <rt:dyn type="KKS" mode="constant" value="&quot;00SAC61AN001&quot;"/> 
    <rt:dyn type="DATA_NARY" mode="constant" value="&quot;TYPE2&quot;"/> 
  </image>
  <text x="180" y="785" fill="black" font-size="15" text-anchor="middle">00SAC61<tspan x="180" dy="15">AN001</tspan>
  </text>
  <text x="680" y="785" fill="black" font-size="15" text-anchor="middle">00SAC61<tspan x="680" dy="15">AN002</tspan>
  </text>
  <line x1="434.682" y1="883" x2="434.682" y2="1033" stroke="black" stroke-width="3"/> 
  <line x1="-430.25" y1="424.625" x2="-430.25" y2="449.625" stroke="black" stroke-width="3" transform="rotate(270)"/> 
  <polygon points="437.125,397.643 447.115,423.64 427.125,423.64" fill="black" stroke="black" transform="rotate(0 93.3313 598.5)"/> 
  <line x1="-1033.64" y1="421.875" x2="-1033.64" y2="446.875" stroke="black" stroke-width="3" transform="rotate(270)"/> 
  <polygon points="434.375,1032.64 444.375,1058.64 424.375,1058.64" fill="black" stroke="black" transform="rotate(0 93.3313 598.5)"/> 
  <line x1="1328.31" y1="559.25" x2="1328.31" y2="634.25" stroke="black" stroke-width="3"/> 
  <line x1="1497.63" y1="886.25" x2="1147.63" y2="886.25" stroke="black" stroke-width="3"/> 
  <line x1="1148.63" y1="787.25" x2="1148.63" y2="886.25" stroke="black" stroke-width="3"/> 
  <line x1="1133.63" y1="636.25" x2="1133.63" y2="786.25" stroke="black" stroke-width="3"/> 
  <image x="1113.63" y="751.25" width="70" height="70" xlink:href="DS_motor_tenzor.svg" transform="rotate(270 0.00012207 0)">
    <title>00SAC61AN003</title>
    <rt:dyn type="DeviceType" mode="constant" value="&quot;fan&quot;"/> 
    <rt:dyn type="Operate" mode="constant" value="true"/> 
    <rt:dyn type="KKS" mode="constant" value="&quot;00SAC61AN003&quot;"/> 
    <rt:dyn type="DATA_NARY" mode="constant" value="&quot;TYPE2&quot;"/> 
  </image>
  <line x1="1483.63" y1="636.25" x2="1133.63" y2="636.25" stroke="black" stroke-width="3"/> 
  <line x1="1498.63" y1="787.25" x2="1498.63" y2="886.25" stroke="black" stroke-width="3"/> 
  <line x1="1483.63" y1="636.25" x2="1483.63" y2="786.25" stroke="black" stroke-width="3"/> 
  <image x="1463.63" y="751.25" width="70" height="70" xlink:href="DS_motor_tenzor.svg" transform="rotate(270 0.00012207 0)">
    <title>00SAC61AN004</title>
    <rt:dyn type="DeviceType" mode="constant" value="&quot;fan&quot;"/> 
    <rt:dyn type="Operate" mode="constant" value="true"/> 
    <rt:dyn type="KKS" mode="constant" value="&quot;00SAC61AN003&quot;"/> 
    <rt:dyn type="DATA_NARY" mode="constant" value="&quot;TYPE2&quot;"/> 
  </image>
  <text x="1073.63" y="786.25" fill="black" font-size="15" text-anchor="middle">00SAC61<tspan x="1073.63" dy="15">AN003</tspan>
  </text>
  <text x="1575" y="783.75" fill="black" font-size="15" text-anchor="middle">00SAC61<tspan x="1575" dy="15">AN004</tspan>
  </text>
  <line x1="1328.31" y1="884.25" x2="1328.31" y2="1034.25" stroke="black" stroke-width="3"/> 
  <line x1="-560.25" y1="1317" x2="-560.25" y2="1342" stroke="black" stroke-width="3" transform="rotate(270)"/> 
  <polygon points="1329.5,527.643 1339.49,553.64 1319.5,553.64" fill="black" stroke="black" transform="rotate(0 93.3313 598.5)"/> 
  <line x1="-1034.89" y1="1315.5" x2="-1034.89" y2="1340.5" stroke="black" stroke-width="3" transform="rotate(270)"/> 
  <polygon points="1328,1033.89 1338,1059.89 1318,1059.89" fill="black" stroke="black" transform="rotate(0 93.3313 598.5)"/> 
  <line x1="-429.25" y1="737.375" x2="-429.25" y2="762.375" stroke="black" stroke-width="3" transform="rotate(270)"/> 
  <polygon points="749.875,396.643 759.865,422.64 739.875,422.64" fill="black" stroke="black" transform="rotate(0 93.3313 598.5)"/> 
  <line x1="1328.12" y1="598.75" x2="750" y2="600" stroke="black" stroke-width="3"/> 
  <line x1="750" y1="431.25" x2="750" y2="600" stroke="black" stroke-width="3"/> 
  <rect x="250.625" y="126.25" width="574.375" height="248.75" rx="0" ry="0" fill="none" stroke="black" stroke-width="1"/> 
  <text x="438.125" y="150" fill="black" font-size="15">00SAC63/00SAC44</text>
  <rect x="1026.13" y="270.5" width="574.375" height="248.75" rx="0" ry="0" fill="none" stroke="black" stroke-width="1"/> 
  <text x="1213.63" y="294.25" fill="black" font-size="15">00SAC62/00SAC64-00SAC67</text>
</svg>
