<?xml  version="1.0" encoding="UTF-8"?>
<svg color="Col_BGSand" xmlns="http://www.w3.org/2000/svg" xmlns:rt="http://www.rts.co.at/2001/XMLSchema/RtSvgPL" xmlns:xlink="http://www.w3.org/1999/xlink" xmlns:xsi="http://www.w3.org/2001/XMLSchema-instance" xsi:schemaLocation="http://www.w3.org/2000/svg C:\RTS\RtSvg\XML\SVG.xsd" viewBox="0 0 1920 1080" width="1920" height="1080" id="00cxn01_sklad" fill="Col_Grey3">
  <rt:model modelversion="7.2.0.24" comment="Создано VNIIAES-ASUTP\voroninrs 10.12.2012 14:48:20"/> 
  <line x1="298" y1="433" x2="298" y2="433" stroke="black"/> 
  <line x1="344" y1="425" x2="342" y2="0"/> 
  <line x1="592.727" y1="690.909" x2="592.727" y2="690.909" stroke="black"/> 
  <line x1="749.091" y1="939.091" x2="749.091" y2="939.091" stroke="black"/> 
  <line x1="638.182" y1="881.818" x2="638.182" y2="881.818" stroke="black"/> 
  <line x1="214.545" y1="692.727" x2="214.545" y2="692.727" stroke="black"/> 
  <line x1="259.091" y1="771.818" x2="259.091" y2="771.818" stroke="black"/> 
  <line x1="195.455" y1="720" x2="195.455" y2="720" stroke="black"/> 
  <line x1="186.364" y1="713.636" x2="186.364" y2="713.636" stroke="black"/> 
  <line x1="191.818" y1="715.455" x2="191.818" y2="715.455" stroke="black"/> 
  <line x1="985.455" y1="149.091" x2="985.455" y2="149.091" stroke="black"/> 
  <line x1="1150" y1="365" x2="1150" y2="365" stroke="black"/> 
  <line x1="1274" y1="337" x2="1274" y2="337" stroke="black"/> 
  <line x1="1029" y1="375" x2="1029" y2="375" stroke="black"/> 
  <line x1="1215.33" y1="421.333" x2="1215.33" y2="421.333" stroke="black"/> 
  <line x1="1007" y1="314.75" x2="1007" y2="314.75" stroke="black"/> 
  <line x1="1027.27" y1="820" x2="1027.27" y2="820" stroke="black"/> 
  <line x1="675" y1="65" x2="675" y2="65" stroke="black"/> 
  <line x1="1468" y1="294" x2="1468" y2="294" stroke="black"/> 
  <line x1="1066.67" y1="766" x2="1066.67" y2="766" stroke="black"/> 
  <text x="25" y="25" fill="black" font-size="15">00UEL 00CXN01 СКЛАД ОГНЕСТОЙКОГО МАСЛА</text>
  <g transform="flipY(791.802) flipY(430.309) rotate(90 850 184) rotate(0 1.4013e-045 3.88002e-039) flipX(225.309) flipX(76.3091) flipX(616.809) rotate(90 132.155 29.823) rotate(360 1.4013e-045 2.31881e-039) flipY(911)">
    <polygon points="-93.0023,2114.36 -68.0024,2114.36 -80.0024,2139.36 -80.0024,2139.36" fill="black" stroke="black" stroke-width="1" transform="rotate(180 1279.17 367.814)"/> 
  </g>
  <g transform="flipY(605.309) flipY(331.309) rotate(90 850 184) rotate(0 1.4013e-045 3.88002e-039) flipX(225.309) flipX(76.3091) flipX(616.809) rotate(90 132.155 29.823) rotate(360 1.4013e-045 2.31881e-039) flipY(911)">
    <polygon points="-252.003,2125.86 -227.003,2125.86 -239.003,2150.86 -239.003,2150.86" fill="black" stroke="black" stroke-width="1" transform="rotate(180 1279.17 367.814)"/> 
  </g>
  <g transform="flipY(426.309) flipY(331.309) rotate(90 850 184) rotate(0 1.4013e-045 3.88002e-039) flipX(225.309) flipX(76.3091) flipX(616.809) rotate(90 132.155 29.823) rotate(360 1.4013e-045 2.31881e-039) flipY(911)">
    <polygon points="-249.002,1946.86 -224.002,1946.86 -236.002,1971.86 -236.002,1971.86" fill="black" stroke="black" stroke-width="1" transform="rotate(180 1279.17 367.814)"/> 
  </g>
  <line x1="202.5" y1="426.011" x2="202.5" y2="276.011" stroke="black" stroke-width="3"/> 
  <polygon points="2012.95,2287.53 2037.95,2287.53 2025.95,2312.53 2025.95,2312.53" fill="black" stroke="black" stroke-width="1" transform="rotate(180 1279.17 367.814)"/> 
  <line x1="377.5" y1="426.011" x2="377.5" y2="276.011" stroke="black" stroke-width="3"/> 
  <line x1="379" y1="426.011" x2="201" y2="426.011" stroke="black" stroke-width="3"/> 
  <rect x="203.75" y="393.011" width="172.25" height="31.75" rx="0" ry="0"/> 
  <image x="203.5" y="293.011" width="175" height="25" xlink:href="DS_ana_tenzor.svg">
    <title>00QSB16CT001</title>
    <rt:dyn type="ShowFrame" mode="constant" value="true"/> 
    <rt:dyn type="X" mode="constant" value="&quot;T&quot;"/> 
    <rt:dyn type="FKKS" mode="constant" value="&quot;00QSB16CT001&quot;"/> 
    <rt:dyn type="ValueToTheRight" mode="constant" value="false"/> 
    <rt:dyn type="Color_Readings" mode="constant" value="true"/> 
  </image>
  <image x="203.5" y="330.011" width="175" height="25" xlink:href="DS_ana_tenzor.svg">
    <title>00QSB16CT002</title>
    <rt:dyn type="ShowFrame" mode="constant" value="true"/> 
    <rt:dyn type="X" mode="constant" value="&quot;T&quot;"/> 
    <rt:dyn type="FKKS" mode="constant" value="&quot;00QSB16CT002&quot;"/> 
    <rt:dyn type="ValueToTheRight" mode="constant" value="false"/> 
    <rt:dyn type="Color_Readings" mode="constant" value="true"/> 
  </image>
  <image x="203.5" y="368.011" width="175" height="25" xlink:href="DS_ana_tenzor.svg">
    <title>00QSB16CT003</title>
    <rt:dyn type="ShowFrame" mode="constant" value="true"/> 
    <rt:dyn type="X" mode="constant" value="&quot;T&quot;"/> 
    <rt:dyn type="FKKS" mode="constant" value="&quot;00QSB16CT003&quot;"/> 
    <rt:dyn type="ValueToTheRight" mode="constant" value="false"/> 
    <rt:dyn type="Color_Readings" mode="constant" value="true"/> 
  </image>
  <line x1="153.5" y1="496.25" x2="153.218" y2="306.003" stroke="black" stroke-dasharray="25" stroke-width="3"/> 
  <line x1="201.667" y1="320.288" x2="151.667" y2="320.288" stroke="black" stroke-width="3"/> 
  <line x1="153.182" y1="495" x2="541.25" y2="495" stroke="black" stroke-dasharray="25" stroke-width="3"/> 
  <line x1="324.968" y1="450.014" x2="456.212" y2="450.014" stroke="black" stroke-dasharray="25" stroke-width="3"/> 
  <line x1="326" y1="426.514" x2="326" y2="451.514" stroke="black" stroke-dasharray="25" stroke-width="3"/> 
  <polygon points="1868.17,442.628 1893.17,442.628 1881.17,467.628 1881.17,467.628" fill="black" stroke="black" stroke-width="1" transform="rotate(270 595 475) rotate(180 1279.17 367.814)"/> 
  <polygon points="1868.17,92.5099 1893.17,92.5099 1881.17,117.51 1881.17,117.51" fill="black" stroke="black" stroke-width="1" transform="flipX(593.309) rotate(270 595 475) rotate(180 1279.17 367.814)"/> 
  <line x1="463" y1="392.315" x2="378" y2="392.315" stroke="black" stroke-width="3"/> 
  <line x1="461.25" y1="393.011" x2="461.25" y2="165" stroke="black" stroke-dasharray="30" stroke-width="3"/> 
  <text x="254" y="445.5" fill="black" font-size="15" text-anchor="middle">00QSB16BB001</text>
  <image x="188" y="457" width="175" height="25" xlink:href="DS_ana_tenzor.svg">
    <title>00QSB16CL001</title>
    <rt:dyn type="ShowFrame" mode="constant" value="true"/> 
    <rt:dyn type="X" mode="constant" value="&quot;L&quot;"/> 
    <rt:dyn type="FKKS" mode="constant" value="&quot;00QSB16CL001&quot;"/> 
    <rt:dyn type="ValueToTheRight" mode="constant" value="false"/> 
    <rt:dyn type="Color_Readings" mode="constant" value="true"/> 
  </image>
  <text x="461.25" y="232.5" fill="black" font-size="17" text-anchor="middle">P</text>
  <text x="461.25" y="296.167" fill="black" font-size="17" text-anchor="middle">P</text>
  <text x="461.25" y="355.167" fill="black" font-size="17" text-anchor="middle">P</text>
  <text x="550" y="275" fill="black" font-size="17" text-anchor="middle">X</text>
  <text x="550" y="427" fill="black" font-size="17" text-anchor="middle">X</text>
  <line x1="550" y1="153" x2="550" y2="125" stroke="black" stroke-width="3"/> 
  <line x1="550" y1="412" x2="550" y2="280" stroke="black" stroke-width="3"/> 
  <line x1="550" y1="564" x2="550" y2="432" stroke="black" stroke-width="3"/> 
  <line x1="560" y1="450.014" x2="624.032" y2="450.014" stroke="black" stroke-dasharray="25" stroke-width="3"/> 
  <line x1="560.25" y1="495" x2="618.5" y2="494.25" stroke="black" stroke-dasharray="25" stroke-width="3"/> 
  <line x1="540" y1="450.588" x2="550" y2="437.838" stroke="black" stroke-width="3"/> 
  <line x1="550" y1="438.71" x2="561.25" y2="450.477" stroke="black" stroke-width="3"/> 
  <line x1="540.18" y1="495.574" x2="550.18" y2="482.824" stroke="black" stroke-width="3"/> 
  <line x1="550.18" y1="483.696" x2="561.43" y2="495.463" stroke="black" stroke-width="3"/> 
  <line x1="625.001" y1="452.002" x2="625.001" y2="169" stroke="black" stroke-dasharray="25" stroke-width="3"/> 
  <text x="550" y="583.167" fill="black" font-size="17" text-anchor="middle">X</text>
  <line x1="550" y1="807" x2="550" y2="750" stroke="black" stroke-width="3"/> 
  <line x1="700" y1="863" x2="700" y2="164" stroke="black" stroke-dasharray="25" stroke-width="3"/> 
  <line x1="825.426" y1="864.242" x2="825.426" y2="164" stroke="black" stroke-dasharray="25" stroke-width="3"/> 
  <line x1="900" y1="450.001" x2="900" y2="170" stroke="black" stroke-dasharray="25" stroke-width="3"/> 
  <line x1="1103.18" y1="450.599" x2="1201.25" y2="450.599" stroke="black" stroke-dasharray="25" stroke-width="3"/> 
  <line x1="925" y1="451" x2="1022.21" y2="450.75" stroke="black" stroke-dasharray="25" stroke-width="3"/> 
  <line x1="951.43" y1="451.574" x2="961.43" y2="438.824" stroke="black" stroke-width="3"/> 
  <line x1="961.43" y1="439.696" x2="972.68" y2="451.463" stroke="black" stroke-width="3"/> 
  <line x1="201.759" y1="839" x2="201.759" y2="689" stroke="black" stroke-width="3"/> 
  <line x1="376.759" y1="839" x2="376.759" y2="689" stroke="black" stroke-width="3"/> 
  <line x1="378.259" y1="839" x2="200.259" y2="839" stroke="black" stroke-width="3"/> 
  <rect x="203.009" y="806" width="172.25" height="31.75" rx="0" ry="0"/> 
  <image x="202.759" y="706" width="175" height="25" xlink:href="DS_ana_tenzor.svg">
    <title>00QSB13CT001</title>
    <rt:dyn type="ShowFrame" mode="constant" value="true"/> 
    <rt:dyn type="X" mode="constant" value="&quot;T&quot;"/> 
    <rt:dyn type="FKKS" mode="constant" value="&quot;00QSB13CT001&quot;"/> 
    <rt:dyn type="ValueToTheRight" mode="constant" value="false"/> 
    <rt:dyn type="Color_Readings" mode="constant" value="true"/> 
  </image>
  <image x="202.759" y="743" width="175" height="25" xlink:href="DS_ana_tenzor.svg">
    <title>00QSB13CT002</title>
    <rt:dyn type="ShowFrame" mode="constant" value="true"/> 
    <rt:dyn type="X" mode="constant" value="&quot;T&quot;"/> 
    <rt:dyn type="FKKS" mode="constant" value="&quot;00QSB13CT002&quot;"/> 
    <rt:dyn type="ValueToTheRight" mode="constant" value="false"/> 
    <rt:dyn type="Color_Readings" mode="constant" value="true"/> 
  </image>
  <image x="202.759" y="781" width="175" height="25" xlink:href="DS_ana_tenzor.svg">
    <title>00QSB13CT003</title>
    <rt:dyn type="ShowFrame" mode="constant" value="true"/> 
    <rt:dyn type="X" mode="constant" value="&quot;T&quot;"/> 
    <rt:dyn type="FKKS" mode="constant" value="&quot;00QSB13CT003&quot;"/> 
    <rt:dyn type="ValueToTheRight" mode="constant" value="false"/> 
    <rt:dyn type="Color_Readings" mode="constant" value="true"/> 
  </image>
  <line x1="153.452" y1="906.255" x2="152.68" y2="713.76" stroke="black" stroke-dasharray="25" stroke-width="3"/> 
  <line x1="201.259" y1="731" x2="151.259" y2="731" stroke="black" stroke-width="3"/> 
  <line x1="153.182" y1="906.667" x2="647.121" y2="906.667" stroke="black" stroke-dasharray="25" stroke-width="3"/> 
  <line x1="324.227" y1="864.242" x2="456.212" y2="864.242" stroke="black" stroke-dasharray="25" stroke-width="3"/> 
  <line x1="325.259" y1="839" x2="325.259" y2="864" stroke="black" stroke-dasharray="25" stroke-width="3"/> 
  <polygon points="2281.16,443.369 2306.16,443.369 2294.16,468.369 2294.16,468.369" fill="black" stroke="black" stroke-width="1" transform="rotate(270 595 475) rotate(180 1279.17 367.814)"/> 
  <polygon points="2281.16,91.7693 2306.16,91.7693 2294.16,116.769 2294.16,116.769" fill="black" stroke="black" stroke-width="1" transform="flipX(593.309) rotate(270 595 475) rotate(180 1279.17 367.814)"/> 
  <line x1="550" y1="805.393" x2="377.259" y2="805.217" stroke="black" stroke-width="3"/> 
  <text x="253.259" y="858.489" fill="black" font-size="15" text-anchor="middle">00QSB13BB001</text>
  <image x="187.259" y="869.989" width="175" height="25" xlink:href="DS_ana_tenzor.svg">
    <title>00QSB13CL001</title>
    <rt:dyn type="ShowFrame" mode="constant" value="true"/> 
    <rt:dyn type="X" mode="constant" value="&quot;L&quot;"/> 
    <rt:dyn type="FKKS" mode="constant" value="&quot;00QSB13CL001&quot;"/> 
    <rt:dyn type="ValueToTheRight" mode="constant" value="false"/> 
    <rt:dyn type="Color_Readings" mode="constant" value="true"/> 
  </image>
  <line x1="688.75" y1="760" x2="700" y2="748.5" stroke="black" stroke-width="3"/> 
  <line x1="699" y1="748" x2="711.75" y2="760" stroke="black" stroke-width="3"/> 
  <line x1="550" y1="725" x2="550" y2="592" stroke="black" stroke-width="3"/> 
  <text x="550" y="744" fill="black" font-size="17" text-anchor="middle">X</text>
  <line x1="625.001" y1="760.545" x2="625.001" y2="494.545" stroke="black" stroke-dasharray="25" stroke-width="3"/> 
  <line x1="622.879" y1="760" x2="689.545" y2="759.697" stroke="black" stroke-dasharray="25" stroke-width="3"/> 
  <line x1="701" y1="863.216" x2="681.75" y2="863.466" stroke="black" stroke-width="3"/> 
  <line x1="650" y1="908.182" x2="650" y2="761.212" stroke="black" stroke-dasharray="25" stroke-width="3"/> 
  <line x1="637.25" y1="863.929" x2="651.13" y2="849.413" stroke="black" stroke-width="3"/> 
  <line x1="650" y1="850.279" x2="661" y2="864.029" stroke="black" stroke-width="3"/> 
  <line x1="638.269" y1="863.216" x2="619.019" y2="863.466" stroke="black" stroke-width="3"/> 
  <line x1="1150.76" y1="426" x2="1150.76" y2="276" stroke="black" stroke-width="3"/> 
  <line x1="1325.76" y1="426" x2="1325.76" y2="276" stroke="black" stroke-width="3"/> 
  <line x1="1327.26" y1="426" x2="1149.26" y2="426" stroke="black" stroke-width="3"/> 
  <rect x="1152.01" y="393" width="172.25" height="31.75" rx="0" ry="0"/> 
  <image x="1151.76" y="293" width="175" height="25" xlink:href="DS_ana_tenzor.svg">
    <title>00QSB10CT001</title>
    <rt:dyn type="ShowFrame" mode="constant" value="true"/> 
    <rt:dyn type="X" mode="constant" value="&quot;T&quot;"/> 
    <rt:dyn type="FKKS" mode="constant" value="&quot;00QSB10CT001&quot;"/> 
    <rt:dyn type="ValueToTheRight" mode="constant" value="false"/> 
    <rt:dyn type="Color_Readings" mode="constant" value="true"/> 
  </image>
  <image x="1151.76" y="330" width="175" height="25" xlink:href="DS_ana_tenzor.svg">
    <title>00QSB10CT002</title>
    <rt:dyn type="ShowFrame" mode="constant" value="true"/> 
    <rt:dyn type="X" mode="constant" value="&quot;T&quot;"/> 
    <rt:dyn type="FKKS" mode="constant" value="&quot;00QSB10CT002&quot;"/> 
    <rt:dyn type="ValueToTheRight" mode="constant" value="false"/> 
    <rt:dyn type="Color_Readings" mode="constant" value="true"/> 
  </image>
  <image x="1151.76" y="368" width="175" height="25" xlink:href="DS_ana_tenzor.svg">
    <title>00QSB10CT003</title>
    <rt:dyn type="ShowFrame" mode="constant" value="true"/> 
    <rt:dyn type="X" mode="constant" value="&quot;T&quot;"/> 
    <rt:dyn type="FKKS" mode="constant" value="&quot;00QSB10CT003&quot;"/> 
    <rt:dyn type="ValueToTheRight" mode="constant" value="false"/> 
    <rt:dyn type="Color_Readings" mode="constant" value="true"/> 
  </image>
  <line x1="1373.76" y1="498.002" x2="1373.48" y2="307.755" stroke="black" stroke-dasharray="25" stroke-width="3"/> 
  <line x1="1375" y1="325" x2="1325" y2="325" stroke="black" stroke-width="3"/> 
  <line x1="1200" y1="425" x2="1200" y2="450" stroke="black" stroke-dasharray="25" stroke-width="3"/> 
  <text x="1285" y="450" fill="black" font-size="15" text-anchor="middle">00QSB10BB001</text>
  <image x="1136.26" y="459.989" width="175" height="25" xlink:href="DS_ana_tenzor.svg">
    <title>00QSB10CL001</title>
    <rt:dyn type="ShowFrame" mode="constant" value="true"/> 
    <rt:dyn type="X" mode="constant" value="&quot;L&quot;"/> 
    <rt:dyn type="FKKS" mode="constant" value="&quot;00QSB10CL001&quot;"/> 
    <rt:dyn type="ValueToTheRight" mode="constant" value="false"/> 
    <rt:dyn type="Color_Readings" mode="constant" value="true"/> 
  </image>
  <line x1="1025" y1="500" x2="1375" y2="500" stroke="black" stroke-dasharray="25" stroke-width="3"/> 
  <line x1="1069" y1="168" x2="1069" y2="387" stroke="black" stroke-width="3"/> 
  <polygon points="1861.16,-247.372 1886.16,-247.372 1874.16,-222.372 1874.16,-222.372" fill="black" stroke="black" stroke-width="1" transform="rotate(270 595 475) rotate(180 1279.17 367.814)"/> 
  <polygon points="1861.16,782.51 1886.16,782.51 1874.16,807.51 1874.16,807.51" fill="black" stroke="black" stroke-width="1" transform="flipX(593.309) rotate(270 595 475) rotate(180 1279.17 367.814)"/> 
  <line x1="1153" y1="385.305" x2="1068" y2="385.305" stroke="black" stroke-width="3"/> 
  <line x1="1025" y1="925" x2="1025" y2="121.818" stroke="black" stroke-dasharray="25" stroke-width="3"/> 
  <line x1="961" y1="168" x2="961" y2="800" stroke="black" stroke-width="3"/> 
  <line x1="1151.76" y1="838" x2="1151.76" y2="688" stroke="black" stroke-width="3"/> 
  <line x1="1326.76" y1="838" x2="1326.76" y2="688" stroke="black" stroke-width="3"/> 
  <line x1="1328.26" y1="838" x2="1150.26" y2="838" stroke="black" stroke-width="3"/> 
  <rect x="1153.01" y="805" width="172.25" height="31.75" rx="0" ry="0"/> 
  <image x="1152.76" y="705" width="175" height="25" xlink:href="DS_ana_tenzor.svg">
    <title>00QSB12CT001</title>
    <rt:dyn type="ShowFrame" mode="constant" value="true"/> 
    <rt:dyn type="X" mode="constant" value="&quot;T&quot;"/> 
    <rt:dyn type="FKKS" mode="constant" value="&quot;00QSB12CT001&quot;"/> 
    <rt:dyn type="ValueToTheRight" mode="constant" value="false"/> 
    <rt:dyn type="Color_Readings" mode="constant" value="true"/> 
  </image>
  <image x="1152.76" y="742" width="175" height="25" xlink:href="DS_ana_tenzor.svg">
    <title>00QSB12CT002</title>
    <rt:dyn type="ShowFrame" mode="constant" value="true"/> 
    <rt:dyn type="X" mode="constant" value="&quot;T&quot;"/> 
    <rt:dyn type="FKKS" mode="constant" value="&quot;00QSB12CT002&quot;"/> 
    <rt:dyn type="ValueToTheRight" mode="constant" value="false"/> 
    <rt:dyn type="Color_Readings" mode="constant" value="true"/> 
  </image>
  <image x="1152.76" y="780" width="175" height="25" xlink:href="DS_ana_tenzor.svg">
    <title>00QSB12CT003</title>
    <rt:dyn type="ShowFrame" mode="constant" value="true"/> 
    <rt:dyn type="X" mode="constant" value="&quot;T&quot;"/> 
    <rt:dyn type="FKKS" mode="constant" value="&quot;00QSB12CT003&quot;"/> 
    <rt:dyn type="ValueToTheRight" mode="constant" value="false"/> 
    <rt:dyn type="Color_Readings" mode="constant" value="true"/> 
  </image>
  <line x1="1376.76" y1="902.002" x2="1376.76" y2="711.755" stroke="black" stroke-dasharray="25" stroke-width="3"/> 
  <line x1="1377.42" y1="727.864" x2="1327.42" y2="727.864" stroke="black" stroke-width="3"/> 
  <line x1="1175" y1="839" x2="1175" y2="861.5" stroke="black" stroke-dasharray="25" stroke-width="3"/> 
  <text x="186.5" y="1000" fill="black" font-size="15" text-anchor="middle">Склад огнестойкого масла</text>
  <image x="1137.26" y="868.989" width="175" height="25" xlink:href="DS_ana_tenzor.svg">
    <title>00QSB12CL001</title>
    <rt:dyn type="ShowFrame" mode="constant" value="true"/> 
    <rt:dyn type="X" mode="constant" value="&quot;L&quot;"/> 
    <rt:dyn type="FKKS" mode="constant" value="&quot;00QSB12CL001&quot;"/> 
    <rt:dyn type="ValueToTheRight" mode="constant" value="false"/> 
    <rt:dyn type="Color_Readings" mode="constant" value="true"/> 
  </image>
  <polygon points="2275.16,-242.49 2300.16,-242.49 2288.16,-217.49 2288.16,-217.49" fill="black" stroke="black" stroke-width="1" transform="rotate(270 595 475) rotate(180 1279.17 367.814)"/> 
  <polygon points="2275.16,777.629 2300.16,777.629 2288.16,802.628 2288.16,802.628" fill="black" stroke="black" stroke-width="1" transform="flipX(593.309) rotate(270 595 475) rotate(180 1279.17 367.814)"/> 
  <line x1="1150" y1="799.805" x2="1033.5" y2="798.805" stroke="black" stroke-width="3"/> 
  <line x1="827.424" y1="862.212" x2="1019" y2="862" stroke="black" stroke-dasharray="25" stroke-width="3"/> 
  <line x1="1030" y1="900" x2="1380.25" y2="900" stroke="black" stroke-dasharray="25" stroke-width="3"/> 
  <line x1="1024.75" y1="442.252" x2="1016.5" y2="451.502" stroke="black" stroke-width="3"/> 
  <line x1="997.25" y1="450.75" x2="1017.34" y2="451" stroke="black" stroke-width="3"/> 
  <line x1="1057.98" y1="441.888" x2="1047.48" y2="451.388" stroke="black" stroke-width="3" transform="flipX(1041.24)"/> 
  <line x1="906.5" y1="451" x2="899" y2="451" stroke="black" stroke-width="3"/> 
  <line x1="1024.87" y1="789.75" x2="1016.25" y2="800" stroke="black" stroke-width="3"/> 
  <line x1="1057.86" y1="789.25" x2="1047.36" y2="798.75" stroke="black" stroke-width="3" transform="flipX(1041.24)"/> 
  <line x1="1017.75" y1="800" x2="960" y2="800" stroke="black" stroke-width="3"/> 
  <line x1="1024.77" y1="854.071" x2="1017" y2="862.709" stroke="black" stroke-width="3"/> 
  <line x1="1057.96" y1="853.1" x2="1047.46" y2="862.6" stroke="black" stroke-width="3" transform="flipX(1041.24)"/> 
  <line x1="1074.73" y1="862.212" x2="1064.73" y2="862.212" stroke="black" stroke-width="3" transform="flipX(1041.24)"/> 
  <line x1="1024.39" y1="833.939" x2="1025" y2="858.75" stroke="black" stroke-width="3"/> 
  <line x1="1067.48" y1="925" x2="1047.48" y2="925" stroke="black" stroke-width="3" transform="flipX(1041.24)"/> 
  <line x1="1057.48" y1="890" x2="1057.48" y2="901.75" stroke="black" stroke-width="3" transform="flipX(1041.24)"/> 
  <line x1="933.019" y1="450.75" x2="953.109" y2="451" stroke="black" stroke-width="3"/> 
  <line x1="971.269" y1="450.75" x2="991.359" y2="451" stroke="black" stroke-width="3"/> 
  <line x1="950.351" y1="760.093" x2="961.531" y2="748.019" stroke="black" stroke-width="3"/> 
  <line x1="972" y1="760" x2="991.5" y2="760" stroke="black" stroke-width="3"/> 
  <line x1="710.25" y1="760" x2="818.25" y2="760" stroke="black" stroke-dasharray="25" stroke-width="3"/> 
  <line x1="830" y1="760" x2="951.25" y2="760" stroke="black" stroke-dasharray="25" stroke-width="3"/> 
  <line x1="1009.75" y1="760" x2="1024.25" y2="760" stroke="black" stroke-width="3"/> 
  <line x1="991.952" y1="760.093" x2="1003.13" y2="748.019" stroke="black" stroke-width="3" transform="flipX(982.191)"/> 
  <line x1="821.16" y1="760" x2="829.691" y2="748.269" stroke="black" stroke-width="3"/> 
  <line x1="1135.71" y1="760" x2="1142.21" y2="748.269" stroke="black" stroke-width="3" transform="flipX(982.191)"/> 
  <line x1="655" y1="760" x2="640" y2="760" stroke="black" stroke-width="3"/> 
  <line x1="1425" y1="950" x2="100" y2="950" stroke="black" stroke-width="3"/> 
  <line x1="659.48" y1="925" x2="659.48" y2="950" stroke="black" stroke-width="3" transform="flipX(1041.24)"/> 
  <line x1="1980.48" y1="925" x2="1980.48" y2="950" stroke="black" stroke-width="3" transform="flipX(1041.24)"/> 
  <text x="1157.5" y="989.5" fill="black" font-size="15" text-anchor="middle">В бак слива ОМТИ<tspan x="1157.5" dy="15">из обвалования</tspan>
  </text>
  <line x1="1181.48" y1="950" x2="1181.48" y2="1000" stroke="black" stroke-width="3" transform="flipX(1041.24)"/> 
  <line x1="1082.48" y1="1000" x2="1182.48" y2="1000" stroke="black" stroke-width="3" transform="flipX(1041.24)"/> 
  <polygon points="2475.34,669.011 2500.34,669.011 2488.34,694.01 2488.34,694.01" fill="black" stroke="black" stroke-width="1" transform="flipX(593.309) rotate(270 595 475) rotate(180 1279.17 367.814)"/> 
  <line x1="461.25" y1="160" x2="461.25" y2="123" stroke="black" stroke-width="3"/> 
  <image x="417" y="129.499" width="70" height="65" xlink:href="DS_CO_valve_tenzor.svg" transform="rotate(270 0 -10)">
    <rt:dyn type="Drive" mode="constant" value="&quot;NONE&quot;"/> 
  </image>
  <line x1="550" y1="256" x2="550" y2="170" stroke="black" stroke-width="3"/> 
  <image x="505.5" y="129.499" width="70" height="65" xlink:href="DS_CO_valve_tenzor.svg" transform="rotate(270 0 -10)">
    <rt:dyn type="Drive" mode="constant" value="&quot;NONE&quot;"/> 
  </image>
  <line x1="625.001" y1="153" x2="625.001" y2="125" stroke="black" stroke-width="3"/> 
  <image x="580" y="129.499" width="70" height="65" xlink:href="DS_CO_valve_tenzor.svg" transform="rotate(270 0 -10)">
    <rt:dyn type="Drive" mode="constant" value="&quot;NONE&quot;"/> 
  </image>
  <line x1="699.5" y1="153" x2="699.5" y2="125" stroke="black" stroke-width="3"/> 
  <image x="655" y="129.499" width="70" height="65" xlink:href="DS_CO_valve_tenzor.svg" transform="rotate(270 0 -10)">
    <rt:dyn type="Drive" mode="constant" value="&quot;NONE&quot;"/> 
  </image>
  <line x1="825.425" y1="153" x2="825.425" y2="125" stroke="black" stroke-width="3"/> 
  <image x="780.5" y="129.499" width="70" height="65" xlink:href="DS_CO_valve_tenzor.svg" transform="rotate(270 0 -10)">
    <rt:dyn type="Drive" mode="constant" value="&quot;NONE&quot;"/> 
  </image>
  <line x1="900.5" y1="153" x2="900.5" y2="125" stroke="black" stroke-width="3"/> 
  <image x="855.5" y="129.499" width="70" height="65" xlink:href="DS_CO_valve_tenzor.svg" transform="rotate(270 0 -10)">
    <rt:dyn type="Drive" mode="constant" value="&quot;NONE&quot;"/> 
  </image>
  <line x1="960.5" y1="153" x2="960.5" y2="125" stroke="black" stroke-width="3"/> 
  <image x="916" y="129.499" width="70" height="65" xlink:href="DS_CO_valve_tenzor.svg" transform="rotate(270 0 -10)">
    <rt:dyn type="Drive" mode="constant" value="&quot;NONE&quot;"/> 
  </image>
  <line x1="1069.5" y1="153" x2="1069.5" y2="125" stroke="black" stroke-width="3"/> 
  <image x="1025" y="129.499" width="70" height="65" xlink:href="DS_CO_valve_tenzor.svg" transform="rotate(270 0 -10)">
    <rt:dyn type="Drive" mode="constant" value="&quot;NONE&quot;"/> 
  </image>
  <line x1="481" y1="450.014" x2="541.036" y2="450.014" stroke="black" stroke-dasharray="25" stroke-width="3"/> 
  <image x="433" y="408" width="70" height="65" xlink:href="DS_CO_valve_tenzor.svg" transform="rotate(360 0 -10)">
    <rt:dyn type="Drive" mode="constant" value="&quot;NONE&quot;"/> 
  </image>
  <line x1="478.953" y1="863.466" x2="610.938" y2="863.466" stroke="black" stroke-dasharray="25" stroke-width="3"/> 
  <image x="432.259" y="820.989" width="70" height="65" xlink:href="DS_CO_valve_tenzor.svg" transform="rotate(360 0 -10)">
    <rt:dyn type="Drive" mode="constant" value="&quot;NONE&quot;"/> 
  </image>
  <line x1="1092.58" y1="862.212" x2="1175.91" y2="862.212" stroke="black" stroke-dasharray="25" stroke-width="3"/> 
  <image x="1050" y="817" width="70" height="65" xlink:href="DS_CO_valve_tenzor.svg" transform="rotate(360 0 -10)">
    <rt:dyn type="Drive" mode="constant" value="&quot;NONE&quot;"/> 
  </image>
  <line x1="1033" y1="862.212" x2="1066" y2="862.212" stroke="black" stroke-dasharray="25" stroke-width="3"/> 
  <line x1="1042.58" y1="451" x2="1075.58" y2="451" stroke="black" stroke-dasharray="25" stroke-width="3"/> 
  <image x="1060" y="407.5" width="70" height="65" xlink:href="DS_CO_valve_tenzor.svg" transform="rotate(360 0 -10)">
    <rt:dyn type="Drive" mode="constant" value="&quot;NONE&quot;"/> 
  </image>
  <text x="1248" y="855.5" fill="black" font-size="15" text-anchor="middle">00QSB12BB001</text>
</svg>
