<?xml  version="1.0" encoding="UTF-8"?>
<svg color="Col_BGSand" xmlns="http://www.w3.org/2000/svg" xmlns:rt="http://www.rts.co.at/2001/XMLSchema/RtSvgPL" xmlns:xlink="http://www.w3.org/1999/xlink" xmlns:xsi="http://www.w3.org/2001/XMLSchema-instance" xsi:schemaLocation="http://www.w3.org/2000/svg C:\RTS\RtSvg\XML\SVG.xsd" viewBox="0 0 1920 980" width="1920" height="980" id="00gac93bb001">
  <rt:model modelversion="7.2.0.24" comment="—оздано VNIIAES-ASUTP\seregin 18.06.2015 16:09:49"/> 
  <g transform="flipY(654.27) flipY(931.118) rotate(90 318.118 444.118) flipX(122.608) flipX(126.608) rotate(270 99.3091 253.976) rotate(90 180.309 152.309) rotate(90 132.155 29.823) rotate(360 1.4013e-045 2.31881e-039) flipY(911)">
    <polygon points="274.21,2589.88 299.21,2589.88 287.21,2614.88 287.21,2614.88" fill="Col_BGSand" stroke="black" stroke-width="2" transform="rotate(180 1279.17 367.814)"/> 
  </g>
  <polygon points="875,450 850,450 850,425 900,425 900,750 1125,750 1125,425 1175,425 1175,450 1150,450 1150,775 875,775" fill="url(#PortalHatch1)" stroke="black"/> 
  <line x1="925" y1="300" x2="1100" y2="300" stroke="black" stroke-width="3"/> 
  <line x1="1100" y1="733.333" x2="1100" y2="300" stroke="black" stroke-width="3"/> 
  <image x="1065" y="315" width="70" height="70" xlink:href="DS_motor_tenzor.svg" transform="rotate(270 0 0)">
    <title>00GAF92AP001</title>
    <rt:dyn type="KKS" mode="constant" value="&quot;00GAF92AP001&quot;"/> 
    <rt:dyn type="DATA_NARY" mode="constant" value="&quot;TYPE2&quot;"/> 
    <rt:dyn type="Operate" mode="constant" value="true"/> 
    <rt:dyn type="DeviceType" mode="constant" value="&quot;pump&quot;"/> 
  </image>
  <line x1="900.667" y1="475" x2="1226" y2="475" stroke="black"/> 
  <g>
    <line x1="1200" y1="450" x2="1200" y2="475" stroke="black"/> 
    <line x1="1275" y1="450" x2="1200" y2="450" stroke="black"/> 
    <line x1="1200" y1="473.75" x2="1205" y2="465" stroke="black"/> 
    <line x1="960" y1="475" x2="965" y2="465" stroke="black" transform="flipX(1080)"/> 
    <text x="1210" y="445" font-size="15">&gt; 250</text>
  </g>
  <g>
    <line x1="1201.12" y1="650" x2="1201.12" y2="675" stroke="black"/> 
    <line x1="1276.12" y1="650" x2="1201.12" y2="650" stroke="black"/> 
    <line x1="1201.12" y1="673.75" x2="1206.12" y2="665" stroke="black"/> 
    <line x1="958.883" y1="675" x2="963.883" y2="665" stroke="black" transform="flipX(1080)"/> 
    <text x="1211.12" y="645" font-size="15">&lt; 30</text>
    <line x1="899.67" y1="675" x2="1225" y2="675" stroke="black"/> 
  </g>
  <image x="1300" y="438" width="25" height="25" xlink:href="bin_indicator.svg">
    <title>00GAC93CL502_XG01</title>
    <rt:dyn type="PointID" mode="constant" value="&quot;00GAC93CL502_XG01&quot;"/> 
  </image>
  <text x="1350" y="456" fill="black" font-size="15" text-anchor="start">јварийный уровень выше 250 см</text>
  <line x1="925" y1="736.667" x2="925" y2="300" stroke="black" stroke-width="3"/> 
  <image x="890" y="315" width="70" height="70" xlink:href="DS_motor_tenzor.svg" transform="rotate(270 0 0)">
    <title>00GAF91AP001</title>
    <rt:dyn type="KKS" mode="constant" value="&quot;00GAF91AP001&quot;"/> 
    <rt:dyn type="DATA_NARY" mode="constant" value="&quot;TYPE2&quot;"/> 
    <rt:dyn type="Operate" mode="constant" value="true"/> 
    <rt:dyn type="DeviceType" mode="constant" value="&quot;pump&quot;"/> 
  </image>
  <line x1="1000" y1="300" x2="1000" y2="250" stroke="black" stroke-width="3"/> 
  <line x1="875" y1="250" x2="1000" y2="250" stroke="black" stroke-width="3"/> 
  <g transform="flipY(143.767) rotate(90 1.4013e-045 3.15076e-039) flipX(448.403) flipX(467.434) rotate(30 1.4013e-045 1.4013e-045) flipY(224.444) rotate(180 1210.44 541.647)">
    <g transform="rotate(90 1212.44 532.643)">
      <polygon points="1980.18,2321.02 1993.56,2328.66 1993.56,2313.38 1980.18,2321.02" fill="black" stroke="black" stroke-width="1" transform="rotate(180 1279.17 367.814)"/> 
    </g>
  </g>
  <g transform="flipY(143.767) rotate(90 1.4013e-045 3.15076e-039) flipX(448.403) flipX(467.434) rotate(30 1.4013e-045 1.4013e-045) flipY(224.444) rotate(180 1210.44 541.647)">
    <g transform="rotate(90 1212.44 532.643)">
      <polygon points="1828.63,2233.52 1842.01,2241.16 1842.01,2225.88 1828.63,2233.52" fill="black" stroke="black" stroke-width="1" transform="rotate(180 1279.17 367.814)"/> 
    </g>
  </g>
  <g transform="rotate(270 867.291 256.407) rotate(360 1.4013e-045 2.51577e-039) flipY(143.767) rotate(90 1.4013e-045 3.15076e-039) flipX(448.403) flipX(467.434) rotate(30 1.4013e-045 1.4013e-045) flipY(224.444) rotate(180 1210.44 541.647)">
    <g transform="rotate(90 1212.44 532.643)">
      <polygon points="2024.79,1791.15 2038.17,1798.79 2038.17,1783.51 2024.79,1791.15" fill="black" stroke="black" stroke-width="1" transform="rotate(180 1279.17 367.814)"/> 
    </g>
  </g>
  <text x="825" y="350" fill="black" font-size="15" text-anchor="middle">00GAF91AP001</text>
  <text x="1200" y="350" fill="black" font-size="15" text-anchor="middle">00GAF92AP001</text>
  <line x1="900" y1="725" x2="1225" y2="725" stroke="black"/> 
  <g>
    <line x1="1200" y1="700" x2="1200" y2="725" stroke="black"/> 
    <line x1="1275" y1="700" x2="1200" y2="700" stroke="black"/> 
    <line x1="1200" y1="723.75" x2="1205" y2="715" stroke="black"/> 
    <line x1="960.006" y1="725" x2="965.003" y2="715" stroke="black" transform="flipX(1080)"/> 
    <text x="1210" y="695" font-size="15">&lt; 25</text>
  </g>
  <line x1="900" y1="600" x2="1225" y2="600" stroke="black"/> 
  <g>
    <line x1="1200" y1="575" x2="1200" y2="600" stroke="black"/> 
    <line x1="1275" y1="575" x2="1200" y2="575" stroke="black"/> 
    <line x1="1200" y1="598.75" x2="1205" y2="590" stroke="black"/> 
    <line x1="960" y1="600" x2="965" y2="590" stroke="black" transform="flipX(1080)"/> 
    <text x="1210" y="570" font-size="15">&gt; 200</text>
  </g>
  <line x1="899.553" y1="525" x2="1225" y2="525" stroke="black"/> 
  <g>
    <line x1="1200" y1="500" x2="1200" y2="525" stroke="black"/> 
    <line x1="1275" y1="500" x2="1200" y2="500" stroke="black"/> 
    <line x1="1200" y1="523.75" x2="1205" y2="515" stroke="black"/> 
    <line x1="960.003" y1="525" x2="965.003" y2="515" stroke="black" transform="flipX(1080)"/> 
    <text x="1210" y="495" font-size="15">&gt; 240</text>
  </g>
  <image x="1300" y="688" width="25" height="25" xlink:href="bin_indicator.svg">
    <title>00GAC93CL502_XG51</title>
    <rt:dyn type="PointID" mode="constant" value="&quot;00GAC93CL502_XG51&quot;"/> 
  </image>
  <text x="1350" y="706" fill="black" font-size="15" text-anchor="start">јварийный уровень ниже 25 см</text>
  <image x="1300" y="638" width="25" height="25" xlink:href="bin_indicator.svg">
    <title>00GAC93CL501_XG51</title>
    <rt:dyn type="PointID" mode="constant" value="&quot;00GAC93CL501_XG51&quot;"/> 
  </image>
  <text x="1350" y="656" fill="black" font-size="15" text-anchor="start">јварийный уровень ниже 30 см</text>
  <image x="1300" y="563" width="25" height="25" xlink:href="bin_indicator.svg">
    <title>00GAC93CL501_XG01</title>
    <rt:dyn type="PointID" mode="constant" value="&quot;00GAC93CL501_XG01&quot;"/> 
  </image>
  <text x="1350" y="581" fill="black" font-size="15" text-anchor="start">јварийный уровень выше 200 см</text>
  <image x="1300" y="488" width="25" height="25" xlink:href="bin_indicator.svg">
    <title>00GAC93CL501_XG02</title>
    <rt:dyn type="PointID" mode="constant" value="&quot;00GAC93CL501_XG02&quot;"/> 
  </image>
  <text x="1350" y="506" fill="black" font-size="15" text-anchor="start">јварийный уровень выше 240 см</text>
  <image x="973.667" y="171.667" width="25" height="25" xlink:href="bin_indicator.svg">
    <title>00GAC93_XK93</title>
    <rt:dyn type="PointID" mode="constant" value="&quot;00GAC93_XK93&quot;"/> 
  </image>
  <text x="1023.67" y="189.167" fill="black" font-size="15" text-anchor="start">—истема GAC93 готова</text>
  <image x="255.315" y="192.572" width="181.818" height="24.2424" xlink:href="bitwise_tablo_4bits.svg">
    <title>&quot;00GAC93_XK92&quot;</title>
    <rt:dyn type="PointID_1" mode="constant" value="&quot;00GAC93_XK92&quot;"/> 
    <rt:dyn type="Text_0000" mode="constant" value="&quot;ј¬“ќћј“»„≈— »…&quot;"/> 
    <rt:dyn type="Color_0001" mode="constant" value="&quot;Col_Green&quot;"/> 
    <rt:dyn type="Text_0001" mode="constant" value="&quot;ƒ»—“јЌ÷»ќЌЌџ…&quot;"/> 
    <rt:dyn type="Color_0000" mode="constant" value="&quot;Col_Green&quot;"/> 
  </image>
  <text x="289.724" y="174.572" fill="black" font-size="15">–ежим работы в<tspan x="289.724" dy="15">00GAC93</tspan>
  </text>
  <rect x="226.714" y="149.572" width="319" height="80" rx="0" ry="0" fill="none" stroke="black" stroke-width="2"/> 
  <image x="456.724" y="189.693" width="60" height="30" xlink:href="ps_tenzor_system.svg">
    <title>00GAC93</title>
    <rt:dyn type="KKS" mode="constant" value="&quot;00GAC93&quot;"/> 
  </image>
  <text x="25" y="25" fill="black" font-size="15" text-anchor="start">00UGA 00CXS81 00GAC93BB001</text>
  <image x="740" y="275" width="160" height="30" xlink:href="ps_tenzor_m0.svg">
    <title>00GAF91AP001</title>
    <rt:dyn type="KKS" mode="constant" value="&quot;00GAF91AP001&quot;"/> 
  </image>
  <image x="1125" y="275" width="160" height="30" xlink:href="ps_tenzor_m0.svg">
    <title>00GAF92AP001</title>
    <rt:dyn type="KKS" mode="constant" value="&quot;00GAF92AP001&quot;"/> 
  </image>
</svg>
