<?xml  version="1.0" encoding="UTF-8"?>
<svg color="Col_BGSand" xmlns="http://www.w3.org/2000/svg" xmlns:rt="http://www.rts.co.at/2001/XMLSchema/RtSvgPL" xmlns:xlink="http://www.w3.org/1999/xlink" xmlns:xsi="http://www.w3.org/2001/XMLSchema-instance" xsi:schemaLocation="http://www.w3.org/2000/svg C:\RTS\RtSvg\XML\SVG.xsd" viewBox="0 0 1914 1000" width="1914" height="1000" id="00gcr10ec002_m5-15" stroke-width="3" font-size="15" font-weight="bold">
  <title>ПУ нейтрализацией стоков ХВО в баке 00GCR10BB002</title>
  <rt:model modelversion="7.2.0.24"/> 
  <line x1="1506" y1="813" x2="1450" y2="813" stroke="black" stroke-opacity="1" stroke-width="3"/> 
  <line x1="1506" y1="763" x2="1450" y2="763" stroke="black" stroke-opacity="1" stroke-width="3"/> 
  <polyline points="200,100 200,950 475,950 475,100 850,100 850,975 1125,975 1125,100 1425,100 1425,975 1700,975 1700,400 1800,400 1800,775" fill="none" stroke="black"/> 
  <g>
    <rect x="126.5" y="251.5" width="150" height="40" rx="0" ry="0" fill="Col_BGSand" stroke="black" stroke-width="3"/> 
    <text x="143.5" y="278.5" id="SVGText1287" fill="black" font-size="18" font-weight="700">ШАГ 5</text>
  </g>
  <image x="232" y="259" width="25" height="25" xlink:href="bin_indicator.svg">
    <title>00GCR10EC002_XS05</title>
    <rt:dyn type="PointID" mode="constant" value="&quot;00GCR10EC002_XS05&quot;"/> 
    <rt:dyn type="Col_OFF" mode="constant" value="&quot;Col_BGSand&quot;"/> 
    <rt:dyn type="Col_ON" mode="constant" value="&quot;Col_Green&quot;"/> 
  </image>
  <text x="630" y="41" fill-opacity="1" font-size="26">ПУ нейтрализацией стоков ХВО в баке 00GCR10BB002</text>
  <text x="17.6063" y="39.197" fill="black" font-size="18" font-weight="bold">00GCR10EC002</text>
  <line x1="307" y1="408" x2="307" y2="408" stroke="black"/> 
  <polyline points="75,100 75,150 200,150" fill="none" stroke="black"/> 
  <image x="150" y="84" width="100" height="25" xlink:href="obj_Button.svg">
    <rt:dyn type="Label" mode="constant" value="&quot;Из шага 2&quot;"/> 
    <rt:event type="OnClick">LoadNew(&quot;00gcr10ec002_m1-4&quot;)</rt:event>
    <rt:dyn type="T_Size" mode="constant" value="18"/> 
  </image>
  <g>
    <rect x="777.5" y="84.5" width="150" height="40" rx="0" ry="0" fill="Col_BGSand" stroke="black" stroke-width="3"/> 
    <text x="794.5" y="111.5" id="SVGText1287" fill="black" font-size="18" font-weight="700">ШАГ 8</text>
  </g>
  <image x="889.5" y="91.5" width="25" height="25" xlink:href="bin_indicator.svg">
    <title>00GCR10EC002_XS08</title>
    <rt:dyn type="PointID" mode="constant" value="&quot;00GCR10EC002_XS08&quot;"/> 
    <rt:dyn type="Col_OFF" mode="constant" value="&quot;Col_BGSand&quot;"/> 
    <rt:dyn type="Col_ON" mode="constant" value="&quot;Col_Green&quot;"/> 
  </image>
  <rect x="176.5" y="403.5" width="46" height="46" rx="0" ry="0" fill="Col_BGSand" fill-opacity="1" stroke="black" stroke-opacity="1" stroke-width="3"/> 
  <text x="187.5" y="435.833" font-size="28">&amp;</text>
  <line x1="750" y1="252" x2="650" y2="252" stroke="black" stroke-opacity="1" stroke-width="3"/> 
  <text x="607" y="290">00GCR20AP002</text>
  <text x="637.51" y="305" fill="Col_Grey5">КС: ВКЛ</text>
  <image x="636" y="214" width="70" height="70" xlink:href="DS_motor.svg">
    <title>00GCR20AP002</title>
    <rt:dyn type="KKS" value="&quot;00GCR20AP002&quot;" mode="constant"/> 
    <rt:dyn type="DATA_NARY" value="&quot;TPTS&quot;" mode="constant"/> 
    <rt:dyn type="DeviceType" value="&quot;pump&quot;" mode="constant"/> 
  </image>
  <line x1="750" y1="152" x2="650" y2="152" stroke="black" stroke-opacity="1" stroke-width="3"/> 
  <text x="607" y="190">00GCR20AP001</text>
  <text x="635.51" y="205" fill="Col_Grey5">КС: ВКЛ</text>
  <image x="636" y="114" width="70" height="70" xlink:href="DS_motor.svg">
    <title>00GCR20AP001</title>
    <rt:dyn type="KKS" value="&quot;00GCR20AP001&quot;" mode="constant"/> 
    <rt:dyn type="DATA_NARY" value="&quot;TPTS&quot;" mode="constant"/> 
    <rt:dyn type="DeviceType" value="&quot;pump&quot;" mode="constant"/> 
  </image>
  <polyline points="875,125 875,200 1035,200" fill="none" stroke="black"/> 
  <polyline points="850,275 750,275 750.42,150.667" fill="none" stroke="black"/> 
  <rect x="771.89" y="251.682" width="46" height="46" rx="0" ry="0" fill="Col_BGSand" fill-opacity="1" stroke="black" stroke-opacity="1" stroke-width="3"/> 
  <text x="772.89" y="284.016" font-size="28">&gt;1</text>
  <text x="882" y="176" id="SVGText1302" fill="black" font-size="18" font-weight="700">В алгоритм<tspan x="882" dy="18">00GR20EE501</tspan>
  </text>
  <polyline points="225,292 225,323 275,323" fill="none" stroke="black"/> 
  <image x="25" y="84" width="100" height="25" xlink:href="obj_Button.svg">
    <rt:dyn type="Label" mode="constant" value="&quot;Из шага 1&quot;"/> 
    <rt:event type="OnClick">LoadNew(&quot;00gcr10ec002_m1-4&quot;)</rt:event>
    <rt:dyn type="T_Size" mode="constant" value="18"/> 
  </image>
  <rect x="177.5" y="176.5" width="46" height="46" rx="0" ry="0" fill="Col_BGSand" fill-opacity="1" stroke="black" stroke-opacity="1" stroke-width="3"/> 
  <text x="178.53" y="208.834" font-size="28">&gt;1</text>
  <image x="250" y="314" width="75" height="20" xlink:href="bitwise_tablo_4bits.svg">
    <title>00GCR10AA002</title>
    <rt:dyn type="PointID_1" value="&quot;00GCR10AA002_VB9 4&quot;" mode="constant"/> 
    <rt:dyn type="Text_0000" value="&quot;&quot;" mode="constant"/> 
    <rt:dyn type="Text_0001" value="&quot;ОТКРЫТЬ&quot;" mode="constant"/> 
    <rt:dyn type="Color_0000" value="&quot;Col_BGSand&quot;" mode="constant"/> 
    <rt:dyn type="Color_0001" value="&quot;Col_Green&quot;" mode="constant"/> 
  </image>
  <text x="333" y="330.333" font-size="16">00GCR10AA002</text>
  <line x1="201" y1="349" x2="101" y2="349" stroke="black" stroke-opacity="1" stroke-width="3"/> 
  <text x="41" y="382">00GCR10AA002</text>
  <text x="70" y="397" fill="Col_Grey5">КС: ОТКР</text>
  <image x="74" y="306" width="70" height="65" xlink:href="DS_CO_valve.svg">
    <title>00GCR10AA002</title>
    <rt:dyn type="KKS" value="&quot;00GCR10AA002&quot;" mode="constant"/> 
    <rt:dyn type="DATA_NARY" value="&quot;TPTS&quot;" mode="constant"/> 
    <rt:dyn type="Drive" value="&quot;moto&quot;" mode="constant"/> 
  </image>
  <g>
    <rect x="126.5" y="476.5" width="150" height="40" rx="0" ry="0" fill="Col_BGSand" stroke="black" stroke-width="3"/> 
    <text x="143.5" y="503.5" id="SVGText1287" fill="black" font-size="18" font-weight="700">ШАГ 6</text>
  </g>
  <image x="232" y="484" width="25" height="25" xlink:href="bin_indicator.svg">
    <title>00GCR10EC002_XS06</title>
    <rt:dyn type="PointID" mode="constant" value="&quot;00GCR10EC002_XS06&quot;"/> 
    <rt:dyn type="Col_OFF" mode="constant" value="&quot;Col_BGSand&quot;"/> 
    <rt:dyn type="Col_ON" mode="constant" value="&quot;Col_Green&quot;"/> 
  </image>
  <g>
    <rect x="150" y="551" width="100" height="34" rx="0" ry="0" fill="Col_BGSand" fill-opacity="1" stroke="black" stroke-opacity="1" stroke-width="2"/> 
    <text x="158" y="568.5" fill-opacity="1" font-size="15">900с</text>
    <g>
      <line x1="162" y1="575" x2="161" y2="575" stroke="black"/> 
      <line x1="161" y1="575" x2="236" y2="575" stroke="black" stroke-width="1"/> 
      <line x1="161" y1="570" x2="161" y2="580" stroke="black" stroke-width="1"/> 
      <line x1="236" y1="570" x2="236" y2="580" stroke="black" stroke-width="1"/> 
    </g>
    <text x="231" y="567.5" fill-opacity="1" font-size="15">0</text>
  </g>
  <polyline points="77,576 77,626 202,626" fill="none" stroke="black"/> 
  <image x="27" y="560" width="100" height="25" xlink:href="obj_Button.svg">
    <rt:dyn type="Label" mode="constant" value="&quot;Из шага 3&quot;"/> 
    <rt:event type="OnClick">LoadNew(&quot;00gcr10ec002_m1-4&quot;)</rt:event>
    <rt:dyn type="T_Size" mode="constant" value="18"/> 
  </image>
  <rect x="177.5" y="650.5" width="46" height="46" rx="0" ry="0" fill="Col_BGSand" fill-opacity="1" stroke="black" stroke-opacity="1" stroke-width="3"/> 
  <text x="178.53" y="682.834" font-size="28">&gt;1</text>
  <line x1="277" y1="800.5" x2="227" y2="800.5" stroke="black" stroke-opacity="1" stroke-width="3"/> 
  <rect x="277.5" y="923.5" width="46" height="46" rx="0" ry="0" fill="Col_BGSand" fill-opacity="1" stroke="black" stroke-opacity="1" stroke-width="3"/> 
  <text x="288.5" y="955.833" font-size="28">&amp;</text>
  <line x1="198" y1="923" x2="98" y2="923" stroke="black" stroke-opacity="1" stroke-width="3"/> 
  <text x="38" y="956">00GCR10AA010</text>
  <text x="65" y="971" fill="Col_Grey5">КС: ОТКР</text>
  <image x="71" y="880" width="70" height="65" xlink:href="DS_CO_valve.svg">
    <title>00GCR10AA010</title>
    <rt:dyn type="KKS" value="&quot;00GCR10AA010&quot;" mode="constant"/> 
    <rt:dyn type="DATA_NARY" value="&quot;TPTS&quot;" mode="constant"/> 
    <rt:dyn type="Drive" value="&quot;moto&quot;" mode="constant"/> 
  </image>
  <line x1="198" y1="824" x2="98" y2="824" stroke="black" stroke-opacity="1" stroke-width="3"/> 
  <text x="38" y="857">00GCR20AA002</text>
  <text x="65" y="872" fill="Col_Grey5">КС: ОТКР</text>
  <image x="71" y="781" width="70" height="65" xlink:href="DS_CO_valve.svg">
    <title>00GCR20AA002</title>
    <rt:dyn type="KKS" value="&quot;00GCR20AA002&quot;" mode="constant"/> 
    <rt:dyn type="DATA_NARY" value="&quot;TPTS&quot;" mode="constant"/> 
    <rt:dyn type="Drive" value="&quot;moto&quot;" mode="constant"/> 
  </image>
  <g>
    <rect x="125.5" y="725.5" width="150" height="40" rx="0" ry="0" fill="Col_BGSand" stroke="black" stroke-width="3"/> 
    <text x="142.5" y="752.5" id="SVGText1287" fill="black" font-size="18" font-weight="700">ШАГ 7</text>
  </g>
  <image x="231" y="733" width="25" height="25" xlink:href="bin_indicator.svg">
    <title>00GCR10EC002_XS07</title>
    <rt:dyn type="PointID" mode="constant" value="&quot;00GCR10EC002_XS07&quot;"/> 
    <rt:dyn type="Col_OFF" mode="constant" value="&quot;Col_BGSand&quot;"/> 
    <rt:dyn type="Col_ON" mode="constant" value="&quot;Col_Green&quot;"/> 
  </image>
  <polyline points="225,767 225,850 285,850" fill="none" stroke="black"/> 
  <image x="250.5" y="841.5" width="75" height="20" xlink:href="bitwise_tablo_4bits.svg">
    <title>00GCR10AA010</title>
    <rt:dyn type="PointID_1" value="&quot;00GCR10AA010_VB9 4&quot;" mode="constant"/> 
    <rt:dyn type="Text_0000" value="&quot;&quot;" mode="constant"/> 
    <rt:dyn type="Text_0001" value="&quot;ОТКРЫТЬ&quot;" mode="constant"/> 
    <rt:dyn type="Color_0000" value="&quot;Col_BGSand&quot;" mode="constant"/> 
    <rt:dyn type="Color_0001" value="&quot;Col_Green&quot;" mode="constant"/> 
  </image>
  <text x="331.5" y="858.5" font-size="16">00GCR10AA010</text>
  <image x="250" y="789.5" width="75" height="20" xlink:href="bitwise_tablo_4bits.svg">
    <title>00GCR20AA002</title>
    <rt:dyn type="PointID_1" value="&quot;00GCR20AA002_VB9 4&quot;" mode="constant"/> 
    <rt:dyn type="Text_0000" value="&quot;&quot;" mode="constant"/> 
    <rt:dyn type="Text_0001" value="&quot;ОТКРЫТЬ&quot;" mode="constant"/> 
    <rt:dyn type="Color_0000" value="&quot;Col_BGSand&quot;" mode="constant"/> 
    <rt:dyn type="Color_0001" value="&quot;Col_Green&quot;" mode="constant"/> 
  </image>
  <text x="331" y="806.5" font-size="16">00GCR20AA002</text>
  <text x="225" y="375">Перемешивание воздухом</text>
  <text x="878" y="250">Перемешивание<tspan x="878" dy="15">гидравлическое</tspan>
  </text>
  <rect x="827.5" y="305.5" width="46" height="46" rx="0" ry="0" fill="Col_BGSand" fill-opacity="1" stroke="black" stroke-opacity="1" stroke-width="3"/> 
  <text x="838.5" y="337.833" font-size="28">&amp;</text>
  <g>
    <rect x="774.5" y="379.5" width="150" height="40" rx="0" ry="0" fill="Col_BGSand" stroke="black" stroke-width="3"/> 
    <text x="791.5" y="406.5" id="SVGText1287" fill="black" font-size="18" font-weight="700">ШАГ 9</text>
  </g>
  <image x="883.5" y="386.5" width="25" height="25" xlink:href="bin_indicator.svg">
    <title>00GCR10EC002_XS09</title>
    <rt:dyn type="PointID" mode="constant" value="&quot;00GCR10EC002_XS09&quot;"/> 
    <rt:dyn type="Col_OFF" mode="constant" value="&quot;Col_BGSand&quot;"/> 
    <rt:dyn type="Col_ON" mode="constant" value="&quot;Col_Green&quot;"/> 
  </image>
  <g>
    <rect x="801" y="453" width="100" height="34" rx="0" ry="0" fill="Col_BGSand" fill-opacity="1" stroke="black" stroke-opacity="1" stroke-width="2"/> 
    <text x="809" y="470.5" fill-opacity="1" font-size="15">1200с</text>
    <g>
      <line x1="813" y1="477" x2="812" y2="477" stroke="black"/> 
      <line x1="812" y1="477" x2="887" y2="477" stroke="black" stroke-width="1"/> 
      <line x1="812" y1="472" x2="812" y2="482" stroke="black" stroke-width="1"/> 
      <line x1="887" y1="472" x2="887" y2="482" stroke="black" stroke-width="1"/> 
    </g>
    <text x="882" y="469.5" fill-opacity="1" font-size="15">0</text>
  </g>
  <rect x="825.75" y="504.5" width="46" height="46" rx="0" ry="0" fill="Col_BGSand" fill-opacity="1" stroke="black" stroke-opacity="1" stroke-width="3"/> 
  <text x="836.75" y="536.833" font-size="28">&amp;</text>
  <polyline points="549,528 549,578 850,578" fill="none" stroke="black"/> 
  <line x1="649" y1="578" x2="649" y2="478" stroke="black" stroke-opacity="1" stroke-width="3"/> 
  <line x1="749" y1="578" x2="749" y2="528" stroke="black" stroke-opacity="1" stroke-width="3"/> 
  <image x="499" y="514" width="100" height="25" xlink:href="obj_Button.svg">
    <rt:dyn type="Label" mode="constant" value="&quot;Из шага 15&quot;"/> 
    <rt:event type="OnClick">LoadNew(&quot;00gcr10ec002_m5-15&quot;)</rt:event>
    <rt:dyn type="T_Size" mode="constant" value="18"/> 
  </image>
  <image x="601" y="470" width="100" height="25" xlink:href="obj_Button.svg">
    <rt:dyn type="Label" mode="constant" value="&quot;Из шага 25&quot;"/> 
    <rt:event type="OnClick">LoadNew(&quot;00gcr10ec002_m25-29&quot;)</rt:event>
    <rt:dyn type="T_Size" mode="constant" value="18"/> 
  </image>
  <image x="699" y="512" width="100" height="25" xlink:href="obj_Button.svg">
    <rt:dyn type="Label" mode="constant" value="&quot;Из шага 4&quot;"/> 
    <rt:event type="OnClick">LoadNew(&quot;00gcr10ec002_m1-4&quot;)</rt:event>
    <rt:dyn type="T_Size" mode="constant" value="18"/> 
  </image>
  <rect x="828.5" y="589.5" width="46" height="46" rx="0" ry="0" fill="Col_BGSand" fill-opacity="1" stroke="black" stroke-opacity="1" stroke-width="3"/> 
  <text x="829.53" y="621.834" font-size="28">&gt;1</text>
  <g>
    <rect x="787" y="717" width="100" height="34" rx="0" ry="0" fill="Col_BGSand" fill-opacity="1" stroke="black" stroke-opacity="1" stroke-width="2"/> 
    <text x="795" y="734.5" fill-opacity="1" font-size="15">2с</text>
    <g>
      <line x1="799" y1="741" x2="798" y2="741" stroke="black"/> 
      <line x1="798" y1="741" x2="873" y2="741" stroke="black" stroke-width="1"/> 
      <line x1="798" y1="736" x2="798" y2="746" stroke="black" stroke-width="1"/> 
      <line x1="873" y1="736" x2="873" y2="746" stroke="black" stroke-width="1"/> 
    </g>
    <text x="868" y="733.5" fill-opacity="1" font-size="15">0</text>
  </g>
  <polyline points="650,950 650,775 1050,775 1050,946" fill="none" stroke="black"/> 
  <line x1="650" y1="839" x2="614" y2="839" stroke="black" stroke-opacity="1" stroke-width="3"/> 
  <image x="603" y="826.5" width="25" height="25" xlink:href="bin_indicator.svg">
    <title>00GCR20CQ001_XH52</title>
    <rt:dyn type="PointID" value="&quot;00GCR20CQ001_XH52&quot;" mode="constant"/> 
    <rt:dyn type="Col_ON" value="&quot;Col_Green&quot;" mode="constant"/> 
    <rt:dyn type="Col_OFF" value="&quot;Col_BGSand&quot;" mode="constant"/> 
  </image>
  <line x1="851" y1="839" x2="816" y2="839" stroke="black" stroke-opacity="1" stroke-width="3"/> 
  <text x="759.5" y="815" text-anchor="middle">рН сброс. вод<tspan x="759.5" dy="15">&gt; 8.5</tspan>
  </text>
  <image x="802" y="827" width="25" height="25" xlink:href="bin_indicator.svg">
    <title>00GCR20CQ001_XH01</title>
    <rt:dyn type="PointID" value="&quot;00GCR20CQ001_XH01&quot;" mode="constant"/> 
    <rt:dyn type="Col_ON" value="&quot;Col_Green&quot;" mode="constant"/> 
    <rt:dyn type="Col_OFF" value="&quot;Col_BGSand&quot;" mode="constant"/> 
  </image>
  <text x="568.5" y="815" text-anchor="middle">рН сброс. вод<tspan x="568.5" dy="15">&lt; 6.5</tspan>
  </text>
  <line x1="1050" y1="815" x2="875" y2="815" stroke="black" stroke-opacity="1" stroke-width="3"/> 
  <text x="956.5" y="804" text-anchor="middle">рН сброс. вод &gt; 6.5</text>
  <line x1="1050" y1="850" x2="875" y2="850" stroke="black" stroke-opacity="1" stroke-width="3"/> 
  <text x="962.5" y="842" text-anchor="middle">рН сброс. вод &lt; 8.5</text>
  <image x="600" y="925" width="100" height="25" xlink:href="obj_Button.svg">
    <rt:dyn type="Label" mode="constant" value="&quot;К шагу 16&quot;"/> 
    <rt:event type="OnClick">LoadNew(&quot;00gcr10ec002_m16-24&quot;)</rt:event>
    <rt:dyn type="T_Size" mode="constant" value="18"/> 
  </image>
  <rect x="625.5" y="864.5" width="46" height="46" rx="0" ry="0" fill="Col_BGSand" fill-opacity="1" stroke="black" stroke-opacity="1" stroke-width="3"/> 
  <text x="636.5" y="896.833" font-size="28">&amp;</text>
  <rect x="827.5" y="864.5" width="46" height="46" rx="0" ry="0" fill="Col_BGSand" fill-opacity="1" stroke="black" stroke-opacity="1" stroke-width="3"/> 
  <text x="838.5" y="896.833" font-size="28">&amp;</text>
  <rect x="1022.5" y="864.5" width="46" height="46" rx="0" ry="0" fill="Col_BGSand" fill-opacity="1" stroke="black" stroke-opacity="1" stroke-width="3"/> 
  <text x="1033.5" y="896.833" font-size="28">&amp;</text>
  <image x="1000" y="925" width="100" height="25" xlink:href="obj_Button.svg">
    <rt:dyn type="Label" mode="constant" value="&quot;К шагу 20&quot;"/> 
    <rt:event type="OnClick">LoadNew(&quot;00gcr10ec002_m16-24&quot;)</rt:event>
    <rt:dyn type="T_Size" mode="constant" value="18"/> 
  </image>
  <g>
    <rect x="1349.5" y="78.5" width="150" height="40" rx="0" ry="0" fill="Col_BGSand" stroke="black" stroke-width="3"/> 
    <text x="1366.5" y="105.5" id="SVGText1287" fill="black" font-size="18" font-weight="700">ШАГ 11</text>
  </g>
  <image x="1461.5" y="85.5" width="25" height="25" xlink:href="bin_indicator.svg">
    <title>00GCR10EC002_XS11</title>
    <rt:dyn type="PointID" mode="constant" value="&quot;00GCR10EC002_XS11&quot;"/> 
    <rt:dyn type="Col_OFF" mode="constant" value="&quot;Col_BGSand&quot;"/> 
    <rt:dyn type="Col_ON" mode="constant" value="&quot;Col_Green&quot;"/> 
  </image>
  <rect x="1400.5" y="229.25" width="46" height="46" rx="0" ry="0" fill="Col_BGSand" fill-opacity="1" stroke="black" stroke-opacity="1" stroke-width="3"/> 
  <text x="1411.5" y="261.583" font-size="28">&amp;</text>
  <polyline points="1449,120 1449,151 1499,151" fill="none" stroke="black"/> 
  <image x="1474" y="142" width="75" height="20" xlink:href="bitwise_tablo_4bits.svg">
    <title>00GCR10AA004</title>
    <rt:dyn type="PointID_1" value="&quot;00GCR10AA004_VB9 4&quot;" mode="constant"/> 
    <rt:dyn type="Text_0000" value="&quot;&quot;" mode="constant"/> 
    <rt:dyn type="Text_0001" value="&quot;ОТКРЫТЬ&quot;" mode="constant"/> 
    <rt:dyn type="Color_0000" value="&quot;Col_BGSand&quot;" mode="constant"/> 
    <rt:dyn type="Color_0001" value="&quot;Col_Green&quot;" mode="constant"/> 
  </image>
  <text x="1557" y="158.333" font-size="16">00GCR10AA004</text>
  <line x1="1425" y1="176" x2="1325" y2="176" stroke="black" stroke-opacity="1" stroke-width="3"/> 
  <text x="1265" y="209">00GCR10AA004</text>
  <text x="1294" y="224" fill="Col_Grey5">КС: ОТКР</text>
  <image x="1298" y="133" width="70" height="65" xlink:href="DS_CO_valve.svg">
    <title>00GCR10AA004</title>
    <rt:dyn type="KKS" value="&quot;00GCR10AA004&quot;" mode="constant"/> 
    <rt:dyn type="DATA_NARY" value="&quot;TPTS&quot;" mode="constant"/> 
    <rt:dyn type="Drive" value="&quot;moto&quot;" mode="constant"/> 
  </image>
  <g>
    <rect x="1349.5" y="301.5" width="150" height="40" rx="0" ry="0" fill="Col_BGSand" stroke="black" stroke-width="3"/> 
    <text x="1366.5" y="328.5" id="SVGText1287" fill="black" font-size="18" font-weight="700">ШАГ 12</text>
  </g>
  <image x="1461.5" y="308.5" width="25" height="25" xlink:href="bin_indicator.svg">
    <title>00GCR10EC002_XS12</title>
    <rt:dyn type="PointID" mode="constant" value="&quot;00GCR10EC002_XS12&quot;"/> 
    <rt:dyn type="Col_OFF" mode="constant" value="&quot;Col_BGSand&quot;"/> 
    <rt:dyn type="Col_ON" mode="constant" value="&quot;Col_Green&quot;"/> 
  </image>
  <line x1="1298" y1="377" x2="1198" y2="377" stroke="black" stroke-opacity="1" stroke-width="3"/> 
  <text x="1155" y="415">00GCR20AP004</text>
  <text x="1185.51" y="430" fill="Col_Grey5">КС: ВКЛ</text>
  <image x="1184" y="339" width="70" height="70" xlink:href="DS_motor.svg">
    <title>00GCR20AP004VL0</title>
    <rt:dyn type="KKS" value="&quot;00GCR20AP004VL0&quot;" mode="constant"/> 
    <rt:dyn type="DATA_NARY" value="&quot;TYPE1&quot;" mode="constant"/> 
    <rt:dyn type="DeviceType" value="&quot;doser&quot;" mode="constant"/> 
  </image>
  <line x1="1300" y1="277" x2="1200" y2="277" stroke="black" stroke-opacity="1" stroke-width="3"/> 
  <text x="1157" y="315">00GCR20AP003</text>
  <text x="1185.51" y="330" fill="Col_Grey5">КС: ВКЛ</text>
  <image x="1186" y="239" width="70" height="70" xlink:href="DS_motor.svg">
    <title>00GCR20AP003VL0</title>
    <rt:dyn type="KKS" value="&quot;00GCR20AP003VL0&quot;" mode="constant"/> 
    <rt:dyn type="DATA_NARY" value="&quot;TYPE1&quot;" mode="constant"/> 
    <rt:dyn type="DeviceType" value="&quot;doser&quot;" mode="constant"/> 
  </image>
  <polyline points="1450,341 1449,400 1615,400" fill="none" stroke="black"/> 
  <polyline points="1424,400 1299,400 1299,278" fill="none" stroke="black"/> 
  <rect x="1326.89" y="375.682" width="46" height="46" rx="0" ry="0" fill="Col_BGSand" fill-opacity="1" stroke="black" stroke-opacity="1" stroke-width="3"/> 
  <text x="1327.89" y="408.016" font-size="28">&gt;1</text>
  <text x="1457" y="370" id="SVGText1303" fill="black" font-size="18" font-weight="700">В алгоритм<tspan x="1457" dy="18">00GR20EE503</tspan>
  </text>
  <g>
    <rect x="1350.5" y="501.5" width="150" height="40" rx="0" ry="0" fill="Col_BGSand" stroke="black" stroke-width="3"/> 
    <text x="1367.5" y="528.5" id="SVGText1287" fill="black" font-size="18" font-weight="700">ШАГ 13</text>
  </g>
  <rect x="1404.5" y="425.5" width="46" height="46" rx="0" ry="0" fill="Col_BGSand" fill-opacity="1" stroke="black" stroke-opacity="1" stroke-width="3"/> 
  <text x="1415.5" y="457.833" font-size="28">&amp;</text>
  <polyline points="1451.53,541.025 1450.53,600.025 1616.53,600.025" fill="none" stroke="black"/> 
  <text x="1458.53" y="570.025" id="SVGText1304" fill="black" font-size="18" font-weight="700">В алгоритм<tspan x="1458.53" dy="18">00GR10EU001</tspan>
  </text>
  <line x1="1424" y1="575" x2="1349" y2="575" stroke="black" stroke-opacity="1" stroke-width="3"/> 
  <text x="1194" y="566.667">Т раб. н.д.<tspan x="1194" dy="15">кислоты сраб.</tspan>
  </text>
  <image x="1324" y="561" width="25" height="25" xlink:href="bin_indicator.svg">
    <title>00GCR10EU001_ZV01</title>
    <rt:dyn type="PointID" value="&quot;00GCR10EU001_ZV01&quot;" mode="constant"/> 
    <rt:dyn type="Col_ON" value="&quot;Col_Green&quot;" mode="constant"/> 
    <rt:dyn type="Col_OFF" value="&quot;Col_BGSand&quot;" mode="constant"/> 
  </image>
  <text x="1805" y="593.5">Циркуляция<tspan x="1805" dy="15">с реагентами</tspan>
<tspan x="1805" dy="15">и воздухом</tspan>
  </text>
  <rect x="1402.5" y="612.5" width="46" height="46" rx="0" ry="0" fill="Col_BGSand" fill-opacity="1" stroke="black" stroke-opacity="1" stroke-width="3"/> 
  <text x="1413.5" y="644.833" font-size="28">&amp;</text>
  <g>
    <rect x="1349" y="685" width="150" height="40" rx="0" ry="0" fill="Col_BGSand" stroke="black" stroke-width="3"/> 
    <text x="1366" y="712" id="SVGText1287" fill="black" font-size="18" font-weight="700">ШАГ 14</text>
  </g>
  <image x="1456.5" y="692" width="25" height="25" xlink:href="bin_indicator.svg">
    <title>00GCR10EC001_XS14</title>
    <rt:dyn type="PointID" mode="constant" value="&quot;00GCR10EC001_XS14&quot;"/> 
    <rt:dyn type="Col_OFF" mode="constant" value="&quot;Col_BGSand&quot;"/> 
    <rt:dyn type="Col_ON" mode="constant" value="&quot;Col_Green&quot;"/> 
  </image>
  <rect x="1566.5" y="951.5" width="46" height="46" rx="0" ry="0" fill="Col_BGSand" fill-opacity="1" stroke="black" stroke-opacity="1" stroke-width="3"/> 
  <text x="1577.5" y="986.5" font-size="28">&amp;</text>
  <line x1="1427" y1="825" x2="1327" y2="825" stroke="black" stroke-opacity="1" stroke-width="3"/> 
  <text x="1248" y="867">00GCR20AP004</text>
  <text x="1275.5" y="881" fill="Col_Grey5">КС: ОТКЛ</text>
  <image x="1281.33" y="790" width="70" height="70" xlink:href="DS_motor.svg">
    <title>00GCR20AP004VL0</title>
    <rt:dyn type="KKS" value="&quot;00GCR20AP004VL0&quot;" mode="constant"/> 
    <rt:dyn type="DATA_NARY" value="&quot;TYPE1&quot;" mode="constant"/> 
    <rt:dyn type="DeviceType" value="&quot;doser&quot;" mode="constant"/> 
  </image>
  <line x1="1424" y1="775" x2="1208" y2="775" stroke="black" stroke-opacity="1" stroke-width="3"/> 
  <text x="1148" y="816">00GCR20AP003</text>
  <text x="1169.21" y="831" fill="Col_Grey5">КС: ОТКЛ</text>
  <image x="1171.33" y="740" width="70" height="70" xlink:href="DS_motor.svg">
    <title>00GCR20AP003VL0</title>
    <rt:dyn type="KKS" value="&quot;00GCR20AP003VL0&quot;" mode="constant"/> 
    <rt:dyn type="DATA_NARY" value="&quot;TYPE1&quot;" mode="constant"/> 
    <rt:dyn type="DeviceType" value="&quot;doser&quot;" mode="constant"/> 
  </image>
  <line x1="1424" y1="926" x2="1324" y2="926" stroke="black" stroke-opacity="1" stroke-width="3"/> 
  <text x="1275.5" y="959">00GCR10AA004</text>
  <text x="1304.5" y="974" fill="Col_Grey5">КС: ЗАКР</text>
  <image x="1312.09" y="883" width="70" height="65" xlink:href="DS_CO_valve.svg">
    <title>00GCR10AA004</title>
    <rt:dyn type="KKS" value="&quot;00GCR10AA004&quot;" mode="constant"/> 
    <rt:dyn type="DATA_NARY" value="&quot;TPTS&quot;" mode="constant"/> 
    <rt:dyn type="Drive" value="&quot;moto&quot;" mode="constant"/> 
  </image>
  <image x="1475.5" y="754.5" width="75" height="20" xlink:href="bitwise_tablo_4bits.svg">
    <title>00GCR20AP003</title>
    <rt:dyn type="PointID_1" value="&quot;00GCR20AP003_VB9 3&quot;" mode="constant"/> 
    <rt:dyn type="Text_0000" value="&quot;&quot;" mode="constant"/> 
    <rt:dyn type="Text_0001" value="&quot;ОТКЛЮЧИТЬ&quot;" mode="constant"/> 
    <rt:dyn type="Color_0000" value="&quot;Col_BGSand&quot;" mode="constant"/> 
    <rt:dyn type="Color_0001" value="&quot;Col_Green&quot;" mode="constant"/> 
  </image>
  <text x="1555" y="767.5" font-size="16">00GCR20AP003</text>
  <image x="1475.5" y="804.5" width="75" height="20" xlink:href="bitwise_tablo_4bits.svg">
    <title>00GCR20AP004</title>
    <rt:dyn type="PointID_1" value="&quot;00GCR20AP004_VB9 3&quot;" mode="constant"/> 
    <rt:dyn type="Text_0000" value="&quot;&quot;" mode="constant"/> 
    <rt:dyn type="Text_0001" value="&quot;ОТКЛЮЧИТЬ&quot;" mode="constant"/> 
    <rt:dyn type="Color_0000" value="&quot;Col_BGSand&quot;" mode="constant"/> 
    <rt:dyn type="Color_0001" value="&quot;Col_Green&quot;" mode="constant"/> 
  </image>
  <text x="1555" y="817.5" font-size="16">00GCR20AP004</text>
  <text x="1555" y="866.5" font-size="16">00GCR10AA004</text>
  <line x1="1507" y1="863" x2="1451" y2="863" stroke="black" stroke-opacity="1" stroke-width="3"/> 
  <image x="1475.5" y="853.5" width="75" height="20" xlink:href="bitwise_tablo_4bits.svg">
    <title>00GCR10AA004</title>
    <rt:dyn type="PointID_1" value="&quot;00GCR10AA004_VB9 3&quot;" mode="constant"/> 
    <rt:dyn type="Text_0000" value="&quot;&quot;" mode="constant"/> 
    <rt:dyn type="Text_0001" value="&quot;ЗАКРЫТЬ&quot;" mode="constant"/> 
    <rt:dyn type="Color_0000" value="&quot;Col_BGSand&quot;" mode="constant"/> 
    <rt:dyn type="Color_0001" value="&quot;Col_Green&quot;" mode="constant"/> 
  </image>
  <polyline points="1450,725 1450,911 1625,911" fill="none" stroke="black"/> 
  <text x="1464" y="903.333" font-size="16">Дист. режим</text>
  <text x="1467" y="930.333" font-size="16">00GCR20ED003</text>
  <g>
    <rect x="1731.5" y="428.5" width="150" height="40" rx="0" ry="0" fill="Col_BGSand" stroke="black" stroke-width="3"/> 
    <text x="1748.5" y="455.5" id="SVGText1287" fill="black" font-size="18" font-weight="700">ШАГ 15</text>
  </g>
  <image x="1839" y="435.5" width="25" height="25" xlink:href="bin_indicator.svg">
    <title>00GCR10EC002_XS15</title>
    <rt:dyn type="PointID" mode="constant" value="&quot;00GCR10EC002_XS15&quot;"/> 
    <rt:dyn type="Col_OFF" mode="constant" value="&quot;Col_BGSand&quot;"/> 
    <rt:dyn type="Col_ON" mode="constant" value="&quot;Col_Green&quot;"/> 
  </image>
  <g>
    <rect x="1750" y="511" width="100" height="34" rx="0" ry="0" fill="Col_BGSand" fill-opacity="1" stroke="black" stroke-opacity="1" stroke-width="2"/> 
    <text x="1758" y="528.5" fill-opacity="1" font-size="15">1200с</text>
    <g>
      <line x1="1762" y1="535" x2="1761" y2="535" stroke="black"/> 
      <line x1="1761" y1="535" x2="1836" y2="535" stroke="black" stroke-width="1"/> 
      <line x1="1761" y1="530" x2="1761" y2="540" stroke="black" stroke-width="1"/> 
      <line x1="1836" y1="530" x2="1836" y2="540" stroke="black" stroke-width="1"/> 
    </g>
    <text x="1831" y="527.5" fill-opacity="1" font-size="15">0</text>
  </g>
  <image x="1750" y="750" width="100" height="25" xlink:href="obj_Button.svg">
    <rt:dyn type="Label" mode="constant" value="&quot;К шагу 10&quot;"/> 
    <rt:event type="OnClick">LoadNew(&quot;00gcr10ec002_m5-15&quot;)</rt:event>
    <rt:dyn type="T_Size" mode="constant" value="18"/> 
  </image>
  <image x="1464" y="509" width="25" height="25" xlink:href="bin_indicator.svg">
    <title>00GCR10EC002_XS13</title>
    <rt:dyn type="PointID" mode="constant" value="&quot;00GCR10EC002_XS13&quot;"/> 
    <rt:dyn type="Col_OFF" mode="constant" value="&quot;Col_BGSand&quot;"/> 
    <rt:dyn type="Col_ON" mode="constant" value="&quot;Col_Green&quot;"/> 
  </image>
  <line x1="1699" y1="482" x2="1654" y2="482" stroke="black" stroke-opacity="1" stroke-width="3"/> 
  <line x1="1700" y1="525" x2="1655" y2="525" stroke="black" stroke-opacity="1" stroke-width="3"/> 
  <image x="1575" y="509" width="100" height="25" xlink:href="obj_Button.svg">
    <rt:dyn type="Label" mode="constant" value="&quot;Из шага 19&quot;"/> 
    <rt:event type="OnClick">LoadNew(&quot;00gcr10ec002_m16-24&quot;)</rt:event>
    <rt:dyn type="T_Size" mode="constant" value="18"/> 
  </image>
  <image x="1575" y="471" width="100" height="25" xlink:href="obj_Button.svg">
    <rt:dyn type="Label" mode="constant" value="&quot;Из шага 4&quot;"/> 
    <rt:event type="OnClick">LoadNew(&quot;00gcr10ec002_m1-4&quot;)</rt:event>
    <rt:dyn type="T_Size" mode="constant" value="18"/> 
  </image>
  <polyline points="900,669 900.192,726.692 1066.19,726.692" fill="none" stroke="black"/> 
  <text x="908.192" y="699.692" id="SVGText1307" fill="black" font-size="18" font-weight="700">В алгоритм<tspan x="908.192" dy="18">00GCR10EU003</tspan>
  </text>
  <text x="910.333" y="746.667" id="SVGText1308" fill="black" font-size="18" font-weight="normal">ПВР &quot;Нейтрализация&quot;</text>
  <g>
    <rect x="774.5" y="640.5" width="150" height="40" rx="0" ry="0" fill="Col_BGSand" stroke="black" stroke-width="3"/> 
    <text x="791.5" y="667.5" id="SVGText1287" fill="black" font-size="18" font-weight="700">ШАГ 10</text>
  </g>
  <image x="883.5" y="647.5" width="25" height="25" xlink:href="bin_indicator.svg">
    <title>00GCR10EC002_XS10</title>
    <rt:dyn type="PointID" mode="constant" value="&quot;00GCR10EC002_XS10&quot;"/> 
    <rt:dyn type="Col_OFF" mode="constant" value="&quot;Col_BGSand&quot;"/> 
    <rt:dyn type="Col_ON" mode="constant" value="&quot;Col_Green&quot;"/> 
  </image>
  <rect x="1670.17" y="419.833" width="46" height="46" rx="0" ry="0" fill="Col_BGSand" fill-opacity="1" stroke="black" stroke-opacity="1" stroke-width="3"/> 
  <text x="1671.17" y="452.167" font-size="28">&gt;1</text>
</svg>
