<?xml  version="1.0" encoding="UTF-8"?>
<svg color="Col_BGSand" xmlns="http://www.w3.org/2000/svg" xmlns:rt="http://www.rts.co.at/2001/XMLSchema/RtSvgPL" xmlns:xlink="http://www.w3.org/1999/xlink" xmlns:xsi="http://www.w3.org/2001/XMLSchema-instance" xsi:schemaLocation="http://www.w3.org/2000/svg C:\RTS\RtSvg\XML\SVG.xsd" viewBox="0 0 1920 1080" width="1920" height="1080" id="00gkd96" fill="Col_Grey3">
  <rt:model modelversion="7.2.0.24" comment="Создано VNIIAES-ASUTP\voroninrs 10.12.2012 14:48:20"/> 
  <line x1="298" y1="433" x2="298" y2="433" stroke="black"/> 
  <line x1="344" y1="425" x2="342" y2="0"/> 
  <line x1="592.727" y1="690.909" x2="592.727" y2="690.909" stroke="black"/> 
  <line x1="749.091" y1="939.091" x2="749.091" y2="939.091" stroke="black"/> 
  <line x1="638.182" y1="881.818" x2="638.182" y2="881.818" stroke="black"/> 
  <line x1="214.545" y1="692.727" x2="214.545" y2="692.727" stroke="black"/> 
  <line x1="259.091" y1="771.818" x2="259.091" y2="771.818" stroke="black"/> 
  <line x1="195.455" y1="720" x2="195.455" y2="720" stroke="black"/> 
  <line x1="186.364" y1="713.636" x2="186.364" y2="713.636" stroke="black"/> 
  <line x1="191.818" y1="715.455" x2="191.818" y2="715.455" stroke="black"/> 
  <line x1="985.455" y1="149.091" x2="985.455" y2="149.091" stroke="black"/> 
  <line x1="1150" y1="365" x2="1150" y2="365" stroke="black"/> 
  <line x1="1274" y1="337" x2="1274" y2="337" stroke="black"/> 
  <line x1="1029" y1="375" x2="1029" y2="375" stroke="black"/> 
  <line x1="1215.33" y1="421.333" x2="1215.33" y2="421.333" stroke="black"/> 
  <line x1="1007" y1="314.75" x2="1007" y2="314.75" stroke="black"/> 
  <line x1="1027.27" y1="820" x2="1027.27" y2="820" stroke="black"/> 
  <line x1="675" y1="65" x2="675" y2="65" stroke="black"/> 
  <line x1="1468" y1="294" x2="1468" y2="294" stroke="black"/> 
  <line x1="1066.67" y1="766" x2="1066.67" y2="766" stroke="black"/> 
  <text x="25" y="25" fill="black" font-size="15">00UNE 00CXU41 00GKD96</text>
  <g transform="flipY(791.802) flipY(430.309) rotate(90 850 184) rotate(0 1.4013e-045 3.88002e-039) flipX(225.309) flipX(76.3091) flipX(616.809) rotate(90 132.155 29.823) rotate(360 1.4013e-045 2.31881e-039) flipY(911)">
    <polygon points="-93.0023,2114.36 -68.0024,2114.36 -80.0024,2139.36 -80.0024,2139.36" fill="black" stroke="black" stroke-width="1" transform="rotate(180 1279.17 367.814)"/> 
  </g>
  <g transform="flipY(605.309) flipY(331.309) rotate(90 850 184) rotate(0 1.4013e-045 3.88002e-039) flipX(225.309) flipX(76.3091) flipX(616.809) rotate(90 132.155 29.823) rotate(360 1.4013e-045 2.31881e-039) flipY(911)">
    <polygon points="-252.003,2125.86 -227.003,2125.86 -239.003,2150.86 -239.003,2150.86" fill="black" stroke="black" stroke-width="1" transform="rotate(180 1279.17 367.814)"/> 
  </g>
  <g transform="flipY(426.309) flipY(331.309) rotate(90 850 184) rotate(0 1.4013e-045 3.88002e-039) flipX(225.309) flipX(76.3091) flipX(616.809) rotate(90 132.155 29.823) rotate(360 1.4013e-045 2.31881e-039) flipY(911)">
    <polygon points="-249.002,1946.86 -224.002,1946.86 -236.002,1971.86 -236.002,1971.86" fill="black" stroke="black" stroke-width="1" transform="rotate(180 1279.17 367.814)"/> 
  </g>
  <line x1="736.576" y1="317.258" x2="1166.82" y2="317.258" stroke="black" stroke-width="3"/> 
  <g transform="flipX(409.314) flipX(191.976) flipX(122.608) flipX(126.608) rotate(270 99.3091 253.976) rotate(90 180.309 152.309) rotate(90 132.155 29.823) rotate(360 1.4013e-045 2.31881e-039) flipY(911) rotate(180 1212.44 532.643)">
    <polygon points="1084.49,1671.31 1109.49,1671.31 1097.49,1696.31 1097.49,1696.31" fill="black" stroke="black" stroke-width="1" transform="rotate(180 1279.17 367.814)"/> 
  </g>
  <line x1="312.273" y1="103.636" x2="737.954" y2="103.636" stroke="black" stroke-width="3"/> 
  <line x1="313.03" y1="102.121" x2="313.03" y2="227.879" stroke="black" stroke-width="3"/> 
  <rect x="250" y="313.5" width="118.5" height="98.5" rx="0" ry="0" fill="none" stroke="none"/> 
  <line x1="854.318" y1="361.318" x2="854.318" y2="322.818" stroke="black" stroke-width="1"/> 
  <text x="370.606" y="234.106" fill="black" font-size="15" text-anchor="middle">00GKD96<tspan x="370.606" dy="15">AA001</tspan>
  </text>
  <text x="368.501" y="745.758" fill="black" font-size="15" text-anchor="middle">00GKD96<tspan x="368.501" dy="15">AA003</tspan>
  </text>
  <text x="369.016" y="428.701" fill="black" font-size="15" text-anchor="middle">00GKD96<tspan x="369.016" dy="15">AA201</tspan>
  </text>
  <line x1="311.727" y1="881.85" x2="605.667" y2="881.85" stroke="black" stroke-width="3"/> 
  <line x1="313.03" y1="247.576" x2="313.03" y2="415.758" stroke="black" stroke-width="3"/> 
  <image x="268.348" y="204.106" width="70" height="65" xlink:href="DS_CO_valve_tenzor.svg" transform="rotate(270 0 -10)">
    <title>00GKD96AA001</title>
    <rt:dyn type="DATA_NARY" mode="constant" value="&quot;TYPE2&quot;"/> 
    <rt:dyn type="Operate" mode="constant" value="true"/> 
    <rt:dyn type="KKS" mode="constant" value="&quot;00GKD96AA001&quot;"/> 
  </image>
  <line x1="313.03" y1="438.485" x2="313.03" y2="611.212" stroke="black" stroke-width="3"/> 
  <image x="268.258" y="398.701" width="70" height="65" xlink:href="DS_Reg_valve_tenzor.svg" transform="rotate(270 0 -9.99994)">
    <title>00GKD96AA201</title>
    <rt:dyn type="DATA_NARY" mode="constant" value="&quot;TYPE2&quot;"/> 
    <rt:dyn type="Operate" mode="constant" value="true"/> 
    <rt:dyn type="KKS" mode="constant" value="&quot;00GKD96AA201&quot;"/> 
  </image>
  <line x1="313.03" y1="768.788" x2="313.03" y2="880.909" stroke="black" stroke-width="3"/> 
  <line x1="736.424" y1="103.636" x2="736.424" y2="793.03" stroke="black" stroke-width="3"/> 
  <line x1="735.894" y1="791.702" x2="1029.83" y2="791.702" stroke="black" stroke-width="3"/> 
  <image x="239.47" y="371.428" width="65" height="25" xlink:href="DS_Reg_degree.svg">
    <title>00GKD96AA201</title>
    <rt:dyn type="KKS" mode="constant" value="&quot;00GKD96AA201&quot;"/> 
    <rt:dyn type="SIGNAL" mode="constant" value="&quot;XQ54&quot;"/> 
  </image>
  <image x="343.333" y="512.212" width="175" height="25" xlink:href="DS_ana_tenzor.svg">
    <title>00GKD96CF001</title>
    <rt:dyn type="FKKS" mode="constant" value="&quot;00GKD96CF001&quot;"/> 
    <rt:dyn type="X" mode="constant" value="&quot;F&quot;"/> 
    <rt:dyn type="ShowFrame" mode="constant" value="true"/> 
    <rt:dyn type="ValueToTheRight" mode="constant" value="false"/> 
    <rt:dyn type="Color_Readings" mode="constant" value="true"/> 
  </image>
  <line x1="318.333" y1="524.712" x2="343.333" y2="524.712" stroke="black" stroke-width="1"/> 
  <line x1="318.833" y1="532.212" x2="318.833" y2="517.212" stroke="black" stroke-width="1"/> 
  <line x1="313.03" y1="621.822" x2="313.03" y2="733.939" stroke="black" stroke-width="3"/> 
  <image x="268.348" y="582.894" width="70" height="65" xlink:href="DS_CO_valve_tenzor.svg" transform="rotate(270 0 -10)">
    <title>00GKD96AA002</title>
    <rt:dyn type="DATA_NARY" mode="constant" value="&quot;TYPE2&quot;"/> 
    <rt:dyn type="Operate" mode="constant" value="true"/> 
    <rt:dyn type="KKS" mode="constant" value="&quot;00GKD96AA002&quot;"/> 
  </image>
  <image x="267.273" y="715.758" width="70" height="65" xlink:href="DS_CO_valve_tenzor.svg" transform="rotate(270 0 -10)">
    <title>00GKD96AA003</title>
    <rt:dyn type="DATA_NARY" mode="constant" value="&quot;TYPE2&quot;"/> 
    <rt:dyn type="Operate" mode="constant" value="true"/> 
    <rt:dyn type="KKS" mode="constant" value="&quot;00GKD96AA003&quot;"/> 
  </image>
  <g transform="flipX(409.314) flipX(191.976) flipX(122.608) flipX(126.608) rotate(270 99.3091 253.976) rotate(90 180.309 152.309) rotate(90 132.155 29.823) rotate(360 1.4013e-045 2.31881e-039) flipY(911) rotate(180 1212.44 532.643)">
    <polygon points="519.335,2246.1 544.332,2246.1 532.332,2271.1 532.332,2271.1" fill="black" stroke="black" stroke-width="1" transform="rotate(180 1279.17 367.814)"/> 
  </g>
  <g transform="flipX(1017.93)">
    <g transform="flipX(409.314) flipX(191.976) flipX(122.608) flipX(126.608) rotate(270 99.3091 253.976) rotate(90 180.309 152.309) rotate(90 132.155 29.823) rotate(360 1.4013e-045 2.31881e-039) flipY(911) rotate(180 1212.44 532.643)">
      <polygon points="993.078,2092.48 1018.07,2092.48 1006.07,2117.48 1006.07,2117.48" fill="black" stroke="black" stroke-width="1" transform="rotate(180 1279.17 367.814)"/> 
    </g>
  </g>
  <text x="372.121" y="612.894" fill="black" font-size="15" text-anchor="middle">00GKD96<tspan x="372.121" dy="15">AA002</tspan>
  </text>
  <text x="1172.12" y="773.333" fill="black" font-size="15" text-anchor="middle">Хоз.питьевая вода на аварийную<tspan x="1172.12" dy="15">подпитку сети</tspan>
  </text>
  <text x="776.667" y="862.727" fill="black" font-size="15" text-anchor="middle">Аварийная подпитка 1 контура теплоснабжения<tspan x="776.667" dy="15">с г.Нововоронеж</tspan>
  </text>
  <image x="766.818" y="340" width="175" height="25" xlink:href="DS_ana_tenzor.svg">
    <title>00GKD97CF001</title>
    <rt:dyn type="ShowFrame" mode="constant" value="true"/> 
    <rt:dyn type="X" mode="constant" value="&quot;F&quot;"/> 
    <rt:dyn type="FKKS" mode="constant" value="&quot;00GKD97CF001&quot;"/> 
    <rt:dyn type="ValueToTheRight" mode="constant" value="false"/> 
    <rt:dyn type="Color_Readings" mode="constant" value="true"/> 
  </image>
  <line x1="733.561" y1="504.364" x2="733.561" y2="489.364" stroke="black" stroke-width="1" transform="rotate(90 880.955 470.227)"/> 
  <image x="615.303" y="868.788" width="75" height="25" xlink:href="obj_link.svg">
    <title>00GKD96</title>
    <rt:dyn type="ModName" mode="constant" value="&quot;00GKD96&quot;"/> 
    <rt:dyn type="TextStr" mode="constant" value="&quot;00GKD96&quot;"/> 
  </image>
  <image x="1188.03" y="304.194" width="75" height="25" xlink:href="obj_link.svg">
    <title>00NDE60</title>
    <rt:dyn type="ModName" mode="constant" value="&quot;00NDE60&quot;"/> 
    <rt:dyn type="TextStr" mode="constant" value="&quot;00NDE60&quot;"/> 
  </image>
  <image x="1036.51" y="776.937" width="75" height="25" xlink:href="obj_link.svg">
    <title>00GKD97</title>
    <rt:dyn type="ModName" mode="constant" value="&quot;00GKD97&quot;"/> 
    <rt:dyn type="TextStr" mode="constant" value="&quot;00GKD97&quot;"/> 
  </image>
  <rect x="1122.36" y="39.4849" width="303.548" height="79.303" rx="0" ry="0" fill="Col_BGSand" stroke="black" stroke-width="2"/> 
  <text x="1150" y="57" fill="black" font-size="15">Режим работы 00GKD96</text>
  <image x="1132.47" y="75.8791" width="181.818" height="24.2424" xlink:href="bitwise_tablo_4bits.svg">
    <title>00GKD96_XK92</title>
    <rt:dyn type="PointID_1" mode="constant" value="&quot;00GKD96_XK92&quot;"/> 
    <rt:dyn type="Text_0000" mode="constant" value="&quot;АВТОМАТИЧЕСКИЙ&quot;"/> 
    <rt:dyn type="Color_0001" mode="constant" value="&quot;Col_Green&quot;"/> 
    <rt:dyn type="Text_0001" mode="constant" value="&quot;ДИСТАНЦИОННЫЙ&quot;"/> 
    <rt:dyn type="Color_0000" mode="constant" value="&quot;Col_Green&quot;"/> 
  </image>
  <image x="1331.2" y="70.3031" width="60" height="30" xlink:href="ps_tenzor_system.svg">
    <title>00GKD96</title>
    <rt:dyn type="KKS" mode="constant" value="&quot;00GKD96&quot;"/> 
  </image>
  <image x="340" y="447" width="100" height="30" xlink:href="DS_Reg_set.svg">
    <title>00GKD96AA201</title>
    <rt:dyn type="KKS" mode="constant" value="&quot;00GKD96AA201&quot;"/> 
    <rt:dyn type="DATA_NARY" mode="constant" value="&quot;TYPE2&quot;"/> 
    <rt:dyn type="Operate" mode="constant" value="true"/> 
    <rt:dyn type="ShowGoodColor" mode="constant" value="true"/> 
  </image>
</svg>
