<?xml  version="1.0" encoding="UTF-8"?>
<svg color="Col_BGSand" xmlns="http://www.w3.org/2000/svg" xmlns:rt="http://www.rts.co.at/2001/XMLSchema/RtSvgPL" xmlns:xlink="http://www.w3.org/1999/xlink" xmlns:xsi="http://www.w3.org/2001/XMLSchema-instance" xsi:schemaLocation="http://www.w3.org/2000/svg C:\RTS\RtSvg\XML\SVG.xsd" viewBox="0 0 1920 980" width="1920" height="980" id="00gkf27">
  <rt:model modelversion="7.2.0.24" comment="Создано VNIIAES-ASUTP\seregin 18.06.2015 16:09:49"/> 
  <line x1="423" y1="275" x2="848" y2="275" stroke="black" stroke-width="3"/> 
  <text x="623" y="229.5" fill="black" font-size="15" text-anchor="middle">00GKF27AP001</text>
  <g transform="rotate(270 427.309 666.309) rotate(270 99.3091 253.976) rotate(90 180.309 152.309) rotate(90 132.155 29.823) rotate(360 1.4013e-045 2.31881e-039) flipY(911) rotate(180 1212.44 532.643)">
    <polygon points="1414.13,2285.53 1439.13,2285.53 1427.13,2310.53 1427.13,2310.53" fill="black" stroke="black" stroke-width="1" transform="rotate(180 1279.17 367.814)"/> 
  </g>
  <image x="588" y="240" width="70" height="70" xlink:href="DS_motor_tenzor.svg" transform="rotate(360 0 0)">
    <title>00GKF27AP001</title>
    <rt:dyn type="KKS" mode="constant" value="&quot;00GKF27AP001&quot;"/> 
    <rt:dyn type="DATA_NARY" mode="constant" value="&quot;TYPE2&quot;"/> 
    <rt:dyn type="Operate" mode="constant" value="true"/> 
    <rt:dyn type="DeviceType" mode="constant" value="&quot;pump&quot;"/> 
  </image>
  <g transform="flipX(122.608) flipX(126.608) rotate(270 99.3091 253.976) rotate(90 180.309 152.309) rotate(90 132.155 29.823) rotate(360 1.4013e-045 2.31881e-039) flipY(911) rotate(180 1212.44 532.643)">
    <polygon points="477.253,2012.16 502.253,2012.16 490.253,2037.16 490.253,2037.16" fill="black" stroke="black" stroke-width="1" transform="rotate(180 1279.17 367.814)"/> 
  </g>
  <line x1="421" y1="375" x2="648" y2="375" stroke="black" stroke-width="3"/> 
  <text x="446" y="207.667" fill="black" font-size="15" text-anchor="middle">Из системы<tspan x="446" dy="15">горячего</tspan>
<tspan x="446" dy="15">водоснабжения</tspan>
  </text>
  <text x="448" y="415.667" fill="black" font-size="15" text-anchor="middle">Из водопровода</text>
  <g transform="flipX(122.608) flipX(126.608) rotate(270 99.3091 253.976) rotate(90 180.309 152.309) rotate(90 132.155 29.823) rotate(360 1.4013e-045 2.31881e-039) flipY(911) rotate(180 1212.44 532.643)">
    <polygon points="577.125,2011.53 602.125,2011.53 590.125,2036.53 590.125,2036.53" fill="black" stroke="black" stroke-width="1" transform="rotate(180 1279.17 367.814)"/> 
  </g>
  <line x1="648" y1="502" x2="648" y2="374" stroke="black" stroke-width="3"/> 
  <line x1="848" y1="500" x2="648" y2="500" stroke="black" stroke-width="3"/> 
  <line x1="848" y1="627" x2="848" y2="275" stroke="black" stroke-width="3"/> 
  <line x1="1173" y1="626" x2="847" y2="626" stroke="black" stroke-width="3"/> 
  <line x1="1173" y1="450" x2="973" y2="450" stroke="black" stroke-width="3"/> 
  <line x1="973" y1="450" x2="973" y2="322" stroke="black" stroke-width="3"/> 
  <text x="974" y="258.5" fill="black" font-size="15" text-anchor="middle">На горячее<tspan x="974" dy="15">водоснабжение</tspan>
  </text>
  <line x1="1006.5" y1="435" x2="1006.5" y2="350" stroke="black"/> 
  <circle cx="1170" cy="449" r="6"/> 
  <circle cx="1170" cy="626" r="6"/> 
  <rect x="1123" y="399" width="200" height="301" rx="0" ry="0" fill="none" stroke="black"/> 
  <circle cx="1273" cy="450" r="6"/> 
  <circle cx="1273" cy="627" r="6"/> 
  <line x1="1473" y1="450" x2="1273" y2="450" stroke="black" stroke-width="3"/> 
  <line x1="1598" y1="626" x2="1272" y2="626" stroke="black" stroke-width="3"/> 
  <g transform="flipX(122.608) flipX(126.608) rotate(270 99.3091 253.976) rotate(90 180.309 152.309) rotate(90 132.155 29.823) rotate(360 1.4013e-045 2.31881e-039) flipY(911) rotate(180 1212.44 532.643)">
    <polygon points="827.125,3112.53 852.125,3112.53 840.125,3137.53 840.125,3137.53" fill="black" stroke="black" stroke-width="1" transform="rotate(180 1279.17 367.814)"/> 
  </g>
  <g transform="flipY(309.309) rotate(270 427.309 666.309) rotate(270 99.3091 253.976) rotate(90 180.309 152.309) rotate(90 132.155 29.823) rotate(360 1.4013e-045 2.31881e-039) flipY(911) rotate(180 1212.44 532.643)">
    <polygon points="1916.13,2291.53 1941.13,2291.53 1929.13,2316.53 1929.13,2316.53" fill="black" stroke="black" stroke-width="1" transform="rotate(180 1279.17 367.814)"/> 
  </g>
  <line x1="1475" y1="452" x2="1475" y2="263.212" stroke="black" stroke-width="3"/> 
  <text x="1379.5" y="267.667" fill="black" font-size="15" text-anchor="middle">Из узла<tspan x="1379.5" dy="15">управления</tspan>
  </text>
  <text x="1560.5" y="663.667" fill="black" font-size="15" text-anchor="middle">К узлу<tspan x="1560.5" dy="15">управления</tspan>
  </text>
  <text x="1225" y="532.667" fill="black" font-size="15" text-anchor="middle">00SBH07AC001</text>
  <text x="25" y="25" font-size="15">00UNE 00CXV18 00GKF27</text>
  <image x="1012" y="357" width="25" height="25" xlink:href="bin_indicator.svg">
    <title>00GKC27CT001_XG51</title>
    <rt:dyn type="PointID" mode="constant" value="&quot;00GKC27CT001_XG51&quot;"/> 
  </image>
  <image x="1012" y="404" width="25" height="25" xlink:href="bin_indicator.svg">
    <title>00GKC27CT001_XG01</title>
    <rt:dyn type="PointID" mode="constant" value="&quot;00GKC27CT001_XG01&quot;"/> 
  </image>
  <rect x="1381" y="50" width="285.364" height="85.3637" rx="0" ry="0" fill="Col_BGSand" stroke="black" stroke-width="2"/> 
  <text x="1523" y="71" fill="black" font-size="15" text-anchor="middle">Режим работы<tspan x="1523" dy="15">00CXV1800GKF27</tspan>
  </text>
  <image x="1393.94" y="97.4854" width="181.818" height="24.2424" xlink:href="bitwise_tablo_4bits.svg">
    <title>00CXV1800GKF27_XK92</title>
    <rt:dyn type="PointID_1" mode="constant" value="&quot;00CXV1800GKF27_XK92&quot;"/> 
    <rt:dyn type="Text_0000" mode="constant" value="&quot;АВТОМАТИЧЕСКИЙ&quot;"/> 
    <rt:dyn type="Color_0001" mode="constant" value="&quot;Col_Green&quot;"/> 
    <rt:dyn type="Text_0001" mode="constant" value="&quot;ДИСТАНЦИОННЫЙ&quot;"/> 
    <rt:dyn type="Color_0000" mode="constant" value="&quot;Col_Green&quot;"/> 
  </image>
  <image x="1592.67" y="91.908" width="60" height="30" xlink:href="ps_tenzor_system.svg">
    <title>00CXV1800GKF27</title>
    <rt:dyn type="KKS" mode="constant" value="&quot;00CXV1800GKF27&quot;"/> 
  </image>
  <text x="1069" y="374.5" fill="black" font-size="15" text-anchor="middle">&lt;45 С</text>
  <text x="1069" y="421.5" fill="black" font-size="15" text-anchor="middle">&gt;40 С</text>
  <text x="1040" y="328.5" fill="black" font-size="15" text-anchor="middle">Температура<tspan x="1040" dy="15">воды</tspan>
  </text>
</svg>
