<?xml  version="1.0" encoding="UTF-8"?>
<svg color="Col_BGSand" xmlns="http://www.w3.org/2000/svg" xmlns:rt="http://www.rts.co.at/2001/XMLSchema/RtSvgPL" xmlns:xlink="http://www.w3.org/1999/xlink" xmlns:xsi="http://www.w3.org/2001/XMLSchema-instance" xsi:schemaLocation="http://www.w3.org/2000/svg C:\RTS\RtSvg\XML\SVG.xsd" viewBox="0 0 1920 1080" width="1920" height="1080" id="00guh11_00gur11_21" fill="Col_Grey3">
  <rt:model modelversion="7.2.0.24" comment="Создано VNIIAES-ASUTP\voroninrs 10.12.2012 14:48:20"/> 
  <line x1="297.75" y1="648.5" x2="297.75" y2="604" stroke="black" stroke-width="3"/> 
  <line x1="298" y1="433" x2="298" y2="433" stroke="black"/> 
  <line x1="344" y1="425" x2="342" y2="0"/> 
  <line x1="592.727" y1="690.909" x2="592.727" y2="690.909" stroke="black"/> 
  <line x1="749.091" y1="939.091" x2="749.091" y2="939.091" stroke="black"/> 
  <line x1="638.182" y1="881.818" x2="638.182" y2="881.818" stroke="black"/> 
  <line x1="214.545" y1="692.727" x2="214.545" y2="692.727" stroke="black"/> 
  <line x1="259.091" y1="771.818" x2="259.091" y2="771.818" stroke="black"/> 
  <line x1="195.455" y1="720" x2="195.455" y2="720" stroke="black"/> 
  <line x1="186.364" y1="713.636" x2="186.364" y2="713.636" stroke="black"/> 
  <line x1="191.818" y1="715.455" x2="191.818" y2="715.455" stroke="black"/> 
  <line x1="985.455" y1="149.091" x2="985.455" y2="149.091" stroke="black"/> 
  <line x1="1150" y1="365" x2="1150" y2="365" stroke="black"/> 
  <line x1="1274" y1="337" x2="1274" y2="337" stroke="black"/> 
  <line x1="1029" y1="375" x2="1029" y2="375" stroke="black"/> 
  <line x1="1215.33" y1="421.333" x2="1215.33" y2="421.333" stroke="black"/> 
  <line x1="1007" y1="314.75" x2="1007" y2="314.75" stroke="black"/> 
  <line x1="1027.27" y1="820" x2="1027.27" y2="820" stroke="black"/> 
  <line x1="675" y1="65" x2="675" y2="65" stroke="black"/> 
  <line x1="1468" y1="294" x2="1468" y2="294" stroke="black"/> 
  <line x1="1066.67" y1="766" x2="1066.67" y2="766" stroke="black"/> 
  <line x1="25" y1="82" x2="775" y2="82" stroke="black" stroke-width="3"/> 
  <g transform="flipY(791.802) flipY(430.309) rotate(90 850 184) rotate(0 1.4013e-045 3.88002e-039) flipX(225.309) flipX(76.3091) flipX(616.809) rotate(90 132.155 29.823) rotate(360 1.4013e-045 2.31881e-039) flipY(911)">
    <polygon points="-93.0023,2114.36 -68.0024,2114.36 -80.0024,2139.36 -80.0024,2139.36" fill="black" stroke="black" stroke-width="1" transform="rotate(180 1279.17 367.814)"/> 
  </g>
  <g transform="flipY(605.309) flipY(331.309) rotate(90 850 184) rotate(0 1.4013e-045 3.88002e-039) flipX(225.309) flipX(76.3091) flipX(616.809) rotate(90 132.155 29.823) rotate(360 1.4013e-045 2.31881e-039) flipY(911)">
    <polygon points="-252.003,2125.86 -227.003,2125.86 -239.003,2150.86 -239.003,2150.86" fill="black" stroke="black" stroke-width="1" transform="rotate(180 1279.17 367.814)"/> 
  </g>
  <g transform="flipY(426.309) flipY(331.309) rotate(90 850 184) rotate(0 1.4013e-045 3.88002e-039) flipX(225.309) flipX(76.3091) flipX(616.809) rotate(90 132.155 29.823) rotate(360 1.4013e-045 2.31881e-039) flipY(911)">
    <polygon points="-249.002,1946.86 -224.002,1946.86 -236.002,1971.86 -236.002,1971.86" fill="black" stroke="black" stroke-width="1" transform="rotate(180 1279.17 367.814)"/> 
  </g>
  <line x1="1633" y1="552" x2="1683" y2="552" stroke="black" stroke-width="3"/> 
  <text x="691.818" y="120.864" fill="black" font-size="15" text-anchor="middle">00GUR21<tspan x="691.818" dy="15">AA014</tspan>
  </text>
  <text x="1520.61" y="660.076" fill="black" font-size="15" text-anchor="middle">00GUH11GH007</text>
  <line x1="25" y1="447.75" x2="25" y2="81" stroke="black" stroke-width="3"/> 
  <line x1="1632" y1="600" x2="1632" y2="500" stroke="black" stroke-width="3"/> 
  <rect x="1084.24" y="361.424" width="240.757" height="353.576" rx="0" ry="0" stroke="black" stroke-width="3"/> 
  <rect x="800" y="124.5" width="105" height="150" rx="52.5" ry="36" fill="Col_Grey4" stroke="black"/> 
  <rect x="800.5" y="174" width="103.25" height="67.75" rx="0" ry="0" fill="Col_Grey2"/> 
  <text x="850.375" y="200.667" fill="black" font-size="15" font-weight="800" text-anchor="middle">00GUH11<tspan x="850.375" dy="15">AT010</tspan>
  </text>
  <line x1="751" y1="182" x2="801" y2="182" stroke="black" stroke-width="3"/> 
  <line x1="567.333" y1="282" x2="752" y2="282" stroke="black" stroke-width="3"/> 
  <rect x="507.5" y="125.5" width="105" height="150" rx="52.5" ry="36" fill="Col_Grey4" stroke="black"/> 
  <rect x="508" y="175" width="103.25" height="67.75" rx="0" ry="0" fill="Col_Grey2"/> 
  <text x="557.875" y="201.667" fill="black" font-size="15" font-weight="800" text-anchor="middle">00GUH11<tspan x="557.875" dy="15">AT007</tspan>
  </text>
  <line x1="458.5" y1="183" x2="508.5" y2="183" stroke="black" stroke-width="3"/> 
  <line x1="264" y1="282" x2="460" y2="282" stroke="black" stroke-width="3"/> 
  <line x1="851.5" y1="283" x2="934" y2="283" stroke="black" stroke-width="3"/> 
  <rect x="205.864" y="123.591" width="105" height="150" rx="52.5" ry="36" fill="Col_Grey4" stroke="black"/> 
  <rect x="206.364" y="173.091" width="103.25" height="67.75" rx="0" ry="0" fill="Col_Grey2"/> 
  <text x="256.239" y="199.758" fill="black" font-size="15" font-weight="800" text-anchor="middle">00GUH11<tspan x="256.239" dy="15">AT004</tspan>
  </text>
  <line x1="50" y1="473.333" x2="50" y2="182" stroke="black" stroke-width="3"/> 
  <line x1="106.212" y1="182" x2="207" y2="182" stroke="black" stroke-width="3"/> 
  <text x="664.545" y="231.47" fill="black" font-size="15" text-anchor="middle">00GUH11<tspan x="664.545" dy="15">AA007</tspan>
  </text>
  <text x="399.394" y="123.894" fill="black" font-size="15" text-anchor="middle">00GUR21<tspan x="399.394" dy="15">AA013</tspan>
  </text>
  <text x="372.121" y="234.5" fill="black" font-size="15" text-anchor="middle">00GUH11<tspan x="372.121" dy="15">AA006</tspan>
  </text>
  <text x="97.5" y="112.5" fill="black" font-size="15" text-anchor="middle">00GUR21<tspan x="97.5" dy="15">AA012</tspan>
  </text>
  <text x="97.8788" y="216.894" fill="black" font-size="15" text-anchor="middle">00GUH11<tspan x="97.8788" dy="15">AA005</tspan>
  </text>
  <text x="768.5" y="324.394" fill="black" font-size="15" text-anchor="middle">00GUR11<tspan x="768.5" dy="15">AA011</tspan>
  </text>
  <text x="486.5" y="325.5" fill="black" font-size="15" text-anchor="middle">00GUR11<tspan x="486.5" dy="15">AA010</tspan>
  </text>
  <text x="184.5" y="324.5" fill="black" font-size="15" text-anchor="middle">00GUR11<tspan x="184.5" dy="15">AA009</tspan>
  </text>
  <line x1="261" y1="382" x2="1050" y2="382" stroke="black" stroke-width="3"/> 
  <text x="942.576" y="317.652" fill="black" font-size="15" text-anchor="middle">00GUH11<tspan x="942.576" dy="15">AA008</tspan>
  </text>
  <line x1="1000" y1="283" x2="1000" y2="125" stroke="black" stroke-width="3"/> 
  <line x1="1000" y1="125" x2="1175" y2="125" stroke="black" stroke-width="3"/> 
  <line x1="1175" y1="362" x2="1175" y2="125" stroke="black" stroke-width="3"/> 
  <line x1="1212" y1="714" x2="1212" y2="361.5" stroke="black" stroke-width="3"/> 
  <line x1="1307" y1="500" x2="1632" y2="500" stroke="black" stroke-width="3"/> 
  <line x1="1307" y1="600" x2="1632" y2="600" stroke="black" stroke-width="3"/> 
  <rect x="1401" y="478.5" width="200" height="43" rx="0" ry="0" fill="Col_Grey3" stroke="black"/> 
  <rect x="1386.5" y="485.75" width="14.5" height="28.5" rx="0" ry="0" fill="Col_Grey3" stroke="black"/> 
  <rect x="1600.5" y="485.75" width="14.5" height="28.5" rx="0" ry="0" fill="Col_Grey3" stroke="black"/> 
  <rect x="1379" y="493.375" width="7" height="13.25" rx="0" ry="0" fill="Col_Grey3" stroke="black"/> 
  <rect x="1615.5" y="493.375" width="7" height="13.25" rx="0" ry="0" fill="Col_Grey3" stroke="black"/> 
  <text x="1498.75" y="505.667" fill="black" font-size="17" font-weight="700" text-anchor="middle">00GUH11AT013</text>
  <rect x="1400.5" y="577" width="200" height="43" rx="0" ry="0" fill="Col_Grey3" stroke="black"/> 
  <rect x="1386" y="584.25" width="14.5" height="28.5" rx="0" ry="0" fill="Col_Grey3" stroke="black"/> 
  <rect x="1600" y="584.25" width="14.5" height="28.5" rx="0" ry="0" fill="Col_Grey3" stroke="black"/> 
  <rect x="1378.5" y="591.875" width="7" height="13.25" rx="0" ry="0" fill="Col_Grey3" stroke="black"/> 
  <rect x="1615" y="591.875" width="7" height="13.25" rx="0" ry="0" fill="Col_Grey3" stroke="black"/> 
  <text x="1498.25" y="604.167" fill="black" font-size="17" font-weight="700" text-anchor="middle">00GUH11AT014</text>
  <text x="1280.45" y="444.924" fill="black" font-size="15" text-anchor="middle">00GUH11<tspan x="1280.45" dy="15">AP031</tspan>
  </text>
  <text x="1278.94" y="654.015" fill="black" font-size="15" text-anchor="middle">00GUH11<tspan x="1278.94" dy="15">AP032</tspan>
  </text>
  <text x="1137.5" y="389.5" fill="black" font-size="15" text-anchor="middle">00GUR11<tspan x="1137.5" dy="15">AP028</tspan>
  </text>
  <text x="1137.5" y="500.5" fill="black" font-size="15" text-anchor="middle">00GUR11<tspan x="1137.5" dy="15">AP029</tspan>
  </text>
  <text x="1137.5" y="611.5" fill="black" font-size="15" text-anchor="middle">00GUR11<tspan x="1137.5" dy="15">AP030</tspan>
  </text>
  <line x1="59" y1="414.5" x2="809" y2="414.5" stroke="black" stroke-width="3"/> 
  <text x="725.818" y="453.364" fill="black" font-size="15" text-anchor="middle">00GUR21<tspan x="725.818" dy="15">AA024</tspan>
  </text>
  <rect x="834" y="457" width="105" height="150" rx="52.5" ry="36" fill="Col_Grey4" stroke="black"/> 
  <rect x="834.5" y="506.5" width="103.25" height="67.75" rx="0" ry="0" fill="Col_Grey2"/> 
  <text x="884.375" y="533.167" fill="black" font-size="15" font-weight="800" text-anchor="middle">00GUH11<tspan x="884.375" dy="15">AT011</tspan>
  </text>
  <line x1="785" y1="514.5" x2="835" y2="514.5" stroke="black" stroke-width="3"/> 
  <line x1="603" y1="614.5" x2="784" y2="614.5" stroke="black" stroke-width="3"/> 
  <rect x="541.5" y="458" width="105" height="150" rx="52.5" ry="36" fill="Col_Grey4" stroke="black"/> 
  <rect x="542" y="507.5" width="103.25" height="67.75" rx="0" ry="0" fill="Col_Grey2"/> 
  <text x="591.875" y="534.167" fill="black" font-size="15" font-weight="800" text-anchor="middle">00GUH11<tspan x="591.875" dy="15">AT008</tspan>
  </text>
  <line x1="492.5" y1="515.5" x2="542.5" y2="515.5" stroke="black" stroke-width="3"/> 
  <line x1="299" y1="614.5" x2="495" y2="614.5" stroke="black" stroke-width="3"/> 
  <line x1="297.75" y1="715.5" x2="297.75" y2="671" stroke="black" stroke-width="3"/> 
  <line x1="215.5" y1="447" x2="215.5" y2="413.591" stroke="black" stroke-width="3"/> 
  <rect x="239.864" y="456.091" width="105" height="150" rx="52.5" ry="36" fill="Col_Grey4" stroke="black"/> 
  <rect x="240.364" y="505.591" width="103.25" height="67.75" rx="0" ry="0" fill="Col_Grey2"/> 
  <text x="290.239" y="532.258" fill="black" font-size="15" font-weight="800" text-anchor="middle">00GUH11<tspan x="290.239" dy="15">AT005</tspan>
  </text>
  <line x1="50" y1="854.667" x2="50" y2="565" stroke="black" stroke-width="3"/> 
  <line x1="140" y1="515.25" x2="241" y2="515.25" stroke="black" stroke-width="3"/> 
  <text x="698.545" y="563.97" fill="black" font-size="15" text-anchor="middle">00GUH11<tspan x="698.545" dy="15">AA017</tspan>
  </text>
  <text x="432.727" y="455.909" fill="black" font-size="15" text-anchor="middle">00GUR21<tspan x="432.727" dy="15">AA023</tspan>
  </text>
  <text x="406.121" y="567" fill="black" font-size="15" text-anchor="middle">00GUH11<tspan x="406.121" dy="15">AA016</tspan>
  </text>
  <text x="131.5" y="445" fill="black" font-size="15" text-anchor="middle">00GUR21<tspan x="131.5" dy="15">AA022</tspan>
  </text>
  <text x="116.061" y="552.879" fill="black" font-size="15" text-anchor="middle">00GUH11<tspan x="116.061" dy="15">AA015</tspan>
  </text>
  <text x="802.5" y="656.894" fill="black" font-size="15" text-anchor="middle">00GUR11<tspan x="802.5" dy="15">AA021</tspan>
  </text>
  <text x="521.364" y="659.318" fill="black" font-size="15" text-anchor="middle">00GUR11<tspan x="521.364" dy="15">AA020</tspan>
  </text>
  <text x="216.818" y="660.833" fill="black" font-size="15" text-anchor="middle">00GUR11<tspan x="216.818" dy="15">AA019</tspan>
  </text>
  <line x1="297" y1="714.5" x2="1052" y2="714" stroke="black" stroke-width="3"/> 
  <text x="977.424" y="650.985" fill="black" font-size="15" text-anchor="middle">00GUH11<tspan x="977.424" dy="15">AA018</tspan>
  </text>
  <line x1="1025" y1="616.333" x2="1025" y2="400" stroke="black" stroke-width="3"/> 
  <line x1="0" y1="472" x2="50" y2="472" stroke="black" stroke-width="3"/> 
  <g>
    <path d="M61.731 415.647 A11.737 11.0723 0 0 0 38.269 415.645 " fill="none" stroke="black" stroke-width="2"/> 
    <line x1="61.52" y1="414.928" x2="74.52" y2="414.928" stroke="black" stroke-width="3"/> 
    <line x1="24.52" y1="414.928" x2="38.27" y2="414.928" stroke="black" stroke-width="3"/> 
  </g>
  <g transform="flipX(20.2527) rotate(270 467.789 271.252)">
    <path d="M279.041 -180.818 A11.737 11.0723 0 0 0 255.579 -180.82 " fill="none" stroke="black" stroke-width="2"/> 
    <line x1="278.83" y1="-181.537" x2="291.83" y2="-181.537" stroke="black" stroke-width="3"/> 
    <line x1="241.83" y1="-181.537" x2="255.58" y2="-181.537" stroke="black" stroke-width="3"/> 
  </g>
  <g transform="flipX(20.1807) rotate(270 467.789 271.252)">
    <path d="M235.247 -180.89 A11.737 11.0723 0 0 0 211.785 -180.892 " fill="none" stroke="black" stroke-width="2"/> 
    <line x1="235.036" y1="-181.609" x2="248.036" y2="-181.609" stroke="black" stroke-width="3"/> 
    <line x1="198.036" y1="-181.609" x2="211.786" y2="-181.609" stroke="black" stroke-width="3"/> 
  </g>
  <g transform="flipX(20.1807) rotate(270 467.789 271.252)">
    <path d="M186.247 -180.89 A11.737 11.0723 0 0 0 162.785 -180.892 " fill="none" stroke="black" stroke-width="2"/> 
    <line x1="186.036" y1="-181.609" x2="199.036" y2="-181.609" stroke="black" stroke-width="3"/> 
    <line x1="149.036" y1="-181.609" x2="162.786" y2="-181.609" stroke="black" stroke-width="3"/> 
  </g>
  <line x1="0" y1="566.5" x2="50" y2="566.5" stroke="black" stroke-width="3"/> 
  <line x1="25" y1="750" x2="25" y2="590" stroke="black" stroke-width="3"/> 
  <line x1="75" y1="750" x2="806.667" y2="750" stroke="black" stroke-width="3"/> 
  <text x="722.272" y="786.425" fill="black" font-size="15" text-anchor="middle">00GUR21<tspan x="722.272" dy="15">AA034</tspan>
  </text>
  <rect x="830.454" y="790.061" width="105" height="150" rx="52.5" ry="36" fill="Col_Grey4" stroke="black"/> 
  <rect x="830.954" y="839.561" width="103.25" height="67.75" rx="0" ry="0" fill="Col_Grey2"/> 
  <text x="880.829" y="866.228" fill="black" font-size="15" font-weight="800" text-anchor="middle">00GUH11<tspan x="880.829" dy="15">AT010</tspan>
  </text>
  <line x1="781.454" y1="847.561" x2="831.454" y2="847.561" stroke="black" stroke-width="3"/> 
  <line x1="599.454" y1="947.561" x2="780.454" y2="947.561" stroke="black" stroke-width="3"/> 
  <rect x="537.954" y="791.061" width="105" height="150" rx="52.5" ry="36" fill="Col_Grey4" stroke="black"/> 
  <rect x="538.454" y="840.561" width="103.25" height="67.75" rx="0" ry="0" fill="Col_Grey2"/> 
  <text x="588.329" y="867.228" fill="black" font-size="15" font-weight="800" text-anchor="middle">00GUH11<tspan x="588.329" dy="15">AT010</tspan>
  </text>
  <line x1="488.954" y1="848.561" x2="538.954" y2="848.561" stroke="black" stroke-width="3"/> 
  <line x1="294.455" y1="947.561" x2="490.454" y2="947.561" stroke="black" stroke-width="3"/> 
  <line x1="880" y1="948" x2="967" y2="948" stroke="black" stroke-width="3"/> 
  <rect x="236.319" y="789.152" width="105" height="150" rx="52.5" ry="36" fill="Col_Grey4" stroke="black"/> 
  <rect x="236.819" y="838.652" width="103.25" height="67.75" rx="0" ry="0" fill="Col_Grey2"/> 
  <text x="286.694" y="865.319" fill="black" font-size="15" font-weight="800" text-anchor="middle">00GUH11<tspan x="286.694" dy="15">AT010</tspan>
  </text>
  <text x="695" y="897.031" fill="black" font-size="15" text-anchor="middle">00GUH11<tspan x="695" dy="15">AA027</tspan>
  </text>
  <text x="429.849" y="789.455" fill="black" font-size="15" text-anchor="middle">00GUR21<tspan x="429.849" dy="15">AA033</tspan>
  </text>
  <text x="404.697" y="900.227" fill="black" font-size="15" text-anchor="middle">00GUH11<tspan x="404.697" dy="15">AA026</tspan>
  </text>
  <text x="127.955" y="778.061" fill="black" font-size="15" text-anchor="middle">00GUR21<tspan x="127.955" dy="15">AA032</tspan>
  </text>
  <text x="128.182" y="888.106" fill="black" font-size="15" text-anchor="middle">00GUH11<tspan x="128.182" dy="15">AA025</tspan>
  </text>
  <text x="798.954" y="989.955" fill="black" font-size="15" text-anchor="middle">00GUR11<tspan x="798.954" dy="15">AA031</tspan>
  </text>
  <text x="521.364" y="994.167" fill="black" font-size="15" text-anchor="middle">00GUR11<tspan x="521.364" dy="15">AA030</tspan>
  </text>
  <text x="212.083" y="991.833" fill="black" font-size="15" text-anchor="middle">00GUR11<tspan x="212.083" dy="15">AA029</tspan>
  </text>
  <line x1="291" y1="1050" x2="1066" y2="1050" stroke="black" stroke-width="3"/> 
  <text x="977.424" y="982.803" fill="black" font-size="15" text-anchor="middle">00GUH11<tspan x="977.424" dy="15">AA028</tspan>
  </text>
  <line x1="1026.45" y1="949.061" x2="1026" y2="775" stroke="black" stroke-width="3"/> 
  <g>
    <path d="M62.211 750.719 A11.737 11.0723 0 0 0 38.749 750.717 " fill="none" stroke="black" stroke-width="2"/> 
    <line x1="62" y1="750" x2="75" y2="750" stroke="black" stroke-width="3"/> 
    <line x1="25" y1="750" x2="38.75" y2="750" stroke="black" stroke-width="3"/> 
  </g>
  <g transform="flipX(1020.25) rotate(270 467.789 271.252)">
    <path d="M370.252 819.182 A11.737 11.0723 0 0 0 346.79 819.18 " fill="none" stroke="black" stroke-width="2"/> 
    <line x1="370.041" y1="818.463" x2="383.041" y2="818.463" stroke="black" stroke-width="3"/> 
    <line x1="333.041" y1="818.463" x2="346.791" y2="818.463" stroke="black" stroke-width="3"/> 
  </g>
  <line x1="1025" y1="369.667" x2="1025" y2="200" stroke="black" stroke-width="3"/> 
  <line x1="1025" y1="200" x2="1125" y2="200" stroke="black" stroke-width="3"/> 
  <line x1="1125" y1="360" x2="1125" y2="200" stroke="black" stroke-width="3"/> 
  <line x1="1050" y1="450" x2="1125" y2="450" stroke="black" stroke-width="3"/> 
  <line x1="1050" y1="450" x2="1050" y2="381" stroke="black" stroke-width="3"/> 
  <line x1="1050" y1="713" x2="1050" y2="556" stroke="black" stroke-width="3"/> 
  <line x1="1050" y1="557.5" x2="1125" y2="557.5" stroke="black" stroke-width="3"/> 
  <line x1="1064" y1="1050" x2="1064" y2="800" stroke="black" stroke-width="3"/> 
  <line x1="1061" y1="669" x2="1123" y2="669.5" stroke="black" stroke-width="3"/> 
  <line x1="1024" y1="775" x2="1136.52" y2="775" stroke="black" stroke-width="3"/> 
  <g transform="flipX(1059.25) rotate(270 467.789 271.252)">
    <path d="M-24.228 859.182 A11.737 11.0723 0 0 0 -47.69 859.18 " fill="none" stroke="black" stroke-width="2"/> 
    <line x1="-24.439" y1="858.463" x2="-11.439" y2="858.463" stroke="black" stroke-width="3"/> 
    <line x1="-61.439" y1="858.463" x2="-47.689" y2="858.463" stroke="black" stroke-width="3"/> 
  </g>
  <line x1="1063" y1="751.333" x2="1063" y2="669" stroke="black" stroke-width="3"/> 
  <line x1="1134.98" y1="774.758" x2="1134.98" y2="715.758" stroke="black" stroke-width="3"/> 
  <line x1="1199.14" y1="715" x2="1199.14" y2="340" stroke="black" stroke-width="1"/> 
  <text x="1424.5" y="694.5" fill="black" font-size="15" text-anchor="middle">Секции насосов<tspan x="1424.5" dy="15">на УФ</tspan>
  </text>
  <line x1="1287" y1="700" x2="1356" y2="700" stroke="black"/> 
  <line x1="1153.68" y1="713.212" x2="1153.68" y2="877.712" stroke="black"/> 
  <text x="1174.39" y="893.409" fill="black" font-size="15" text-anchor="middle">Секции насосов<tspan x="1174.39" dy="15">промывки</tspan>
  </text>
  <rect x="1297.5" y="829.5" width="543.5" height="191.5" rx="0" ry="0" fill="none" stroke="black" stroke-dasharray="5,5"/> 
  <rect x="1311.5" y="850.5" width="154" height="158" rx="0" ry="0" stroke="black" stroke-width="2"/> 
  <text x="1388.5" y="879" fill="black" font-size="15" text-anchor="middle">00GUH11GH003</text>
  <text x="1388.5" y="965.258" fill="black" font-size="15" text-anchor="middle">Шкаф управления<tspan x="1388.5" dy="15">линией фильтров</tspan>
<tspan x="1388.5" dy="15">и насосами</tspan>
  </text>
  <rect x="1497.5" y="850.5" width="154" height="158" rx="0" ry="0" stroke="black" stroke-width="2"/> 
  <text x="1574.5" y="879" fill="black" font-size="15" text-anchor="middle">00GUH11GH006</text>
  <text x="1575.5" y="964.5" fill="black" font-size="15" text-anchor="middle">Шкаф управления<tspan x="1575.5" dy="15">установкой УФ</tspan>
<tspan x="1575.5" dy="15">обеззараживания 1</tspan>
  </text>
  <rect x="1670" y="850.5" width="154" height="158" rx="0" ry="0" stroke="black" stroke-width="2"/> 
  <text x="1747" y="879" fill="black" font-size="15" text-anchor="middle">00GUH11GH007</text>
  <text x="1748" y="964.5" fill="black" font-size="15" text-anchor="middle">Шкаф управления<tspan x="1748" dy="15">установкой УФ</tspan>
<tspan x="1748" dy="15">обеззараживания 2</tspan>
  </text>
  <text x="1228.18" y="735.833" fill="black" font-size="15" text-anchor="middle">00GUH11BB011</text>
  <image x="1102.5" y="523" width="70" height="70" xlink:href="DS_motor_tenzor.svg" transform="rotate(180 0 0)">
    <title>00GUR11AP029_XB01</title>
    <rt:dyn type="DATA_NARY" mode="constant" value="&quot;TYPE2&quot;"/> 
    <rt:dyn type="Operate" mode="constant" value="true"/> 
    <rt:dyn type="DeviceType" mode="constant" value="&quot;pump&quot;"/> 
    <rt:dyn type="SIG_On" mode="constant" value="&quot;00GUR11AP029_XB01&quot;"/> 
  </image>
  <image x="1247" y="465" width="70" height="70" xlink:href="DS_motor_tenzor.svg" transform="rotate(360 0 0)">
    <title>00GUH11AP031</title>
    <rt:dyn type="KKS" mode="constant" value="&quot;00GUH11AP031&quot;"/> 
    <rt:dyn type="DATA_NARY" mode="constant" value="&quot;TYPE2&quot;"/> 
    <rt:dyn type="Operate" mode="constant" value="true"/> 
    <rt:dyn type="DeviceType" mode="constant" value="&quot;pump&quot;"/> 
  </image>
  <image x="1247" y="565" width="70" height="70" xlink:href="DS_motor_tenzor.svg" transform="rotate(360 0 0)">
    <title>00GUH11AP032</title>
    <rt:dyn type="KKS" mode="constant" value="&quot;00GUH11AP032&quot;"/> 
    <rt:dyn type="DATA_NARY" mode="constant" value="&quot;TYPE2&quot;"/> 
    <rt:dyn type="Operate" mode="constant" value="true"/> 
    <rt:dyn type="DeviceType" mode="constant" value="&quot;pump&quot;"/> 
  </image>
  <text x="25" y="25" fill="black" font-size="15">00UGH 00CXQ01 00GUH11/00GUR11/00GUR21</text>
  <line x1="3" y1="515.25" x2="104" y2="515.25" stroke="black" stroke-width="3"/> 
  <line x1="492.5" y1="558.5" x2="492.5" y2="514" stroke="black" stroke-width="3"/> 
  <line x1="493" y1="616.5" x2="493" y2="572" stroke="black" stroke-width="3"/> 
  <line x1="784.5" y1="557.5" x2="784.5" y2="513" stroke="black" stroke-width="3"/> 
  <line x1="785" y1="615.5" x2="785" y2="571" stroke="black" stroke-width="3"/> 
  <line x1="601.75" y1="652.5" x2="601.75" y2="608" stroke="black" stroke-width="3"/> 
  <line x1="601.75" y1="715.5" x2="601.75" y2="671" stroke="black" stroke-width="3"/> 
  <line x1="884.5" y1="651.5" x2="884.5" y2="607" stroke="black" stroke-width="3"/> 
  <line x1="885" y1="714.5" x2="885" y2="670" stroke="black" stroke-width="3"/> 
  <line x1="215.5" y1="516.409" x2="215.5" y2="475" stroke="black" stroke-width="3"/> 
  <line x1="517.5" y1="446.409" x2="517.5" y2="413" stroke="black" stroke-width="3"/> 
  <line x1="517.5" y1="515.818" x2="517.5" y2="474.409" stroke="black" stroke-width="3"/> 
  <line x1="810.5" y1="446.409" x2="810.5" y2="413" stroke="black" stroke-width="3"/> 
  <line x1="810.5" y1="514.818" x2="810.5" y2="473.409" stroke="black" stroke-width="3"/> 
  <line x1="181.5" y1="113.409" x2="181.5" y2="80" stroke="black" stroke-width="3"/> 
  <line x1="181.5" y1="180.818" x2="181.5" y2="139.409" stroke="black" stroke-width="3"/> 
  <line x1="483.5" y1="115.409" x2="483.5" y2="82" stroke="black" stroke-width="3"/> 
  <line x1="483.5" y1="182.818" x2="483.5" y2="141.409" stroke="black" stroke-width="3"/> 
  <line x1="776.5" y1="113.409" x2="776.5" y2="80" stroke="black" stroke-width="3"/> 
  <line x1="776.5" y1="180.818" x2="776.5" y2="139.409" stroke="black" stroke-width="3"/> 
  <line x1="262.5" y1="318.5" x2="262.5" y2="274" stroke="black" stroke-width="3"/> 
  <line x1="263" y1="383.5" x2="263" y2="339" stroke="black" stroke-width="3"/> 
  <line x1="566.5" y1="317.5" x2="566.5" y2="273" stroke="black" stroke-width="3"/> 
  <line x1="567" y1="383.5" x2="567" y2="339" stroke="black" stroke-width="3"/> 
  <line x1="850.5" y1="317.5" x2="850.5" y2="273" stroke="black" stroke-width="3"/> 
  <line x1="851" y1="381.5" x2="851" y2="337" stroke="black" stroke-width="3"/> 
  <line x1="950" y1="282.5" x2="1001.5" y2="282.5" stroke="black" stroke-width="3"/> 
  <line x1="885" y1="616" x2="967.5" y2="616" stroke="black" stroke-width="3"/> 
  <line x1="983.5" y1="616" x2="1026" y2="616" stroke="black" stroke-width="3"/> 
  <line x1="211.773" y1="782.5" x2="211.773" y2="749.091" stroke="black" stroke-width="3"/> 
  <line x1="211.773" y1="851.909" x2="211.773" y2="810.5" stroke="black" stroke-width="3"/> 
  <line x1="513.773" y1="781.954" x2="513.773" y2="748.545" stroke="black" stroke-width="3"/> 
  <line x1="513.773" y1="847.363" x2="513.773" y2="805.954" stroke="black" stroke-width="3"/> 
  <line x1="807.712" y1="781.439" x2="807.712" y2="748.031" stroke="black" stroke-width="3"/> 
  <line x1="807.712" y1="845.849" x2="807.712" y2="804.439" stroke="black" stroke-width="3"/> 
  <line x1="292.811" y1="982.985" x2="292.811" y2="938.485" stroke="black" stroke-width="3"/> 
  <line x1="292.811" y1="1048.98" x2="292.811" y2="1004.48" stroke="black" stroke-width="3"/> 
  <line x1="598.106" y1="986.015" x2="598.106" y2="941.515" stroke="black" stroke-width="3"/> 
  <line x1="598.606" y1="1052.01" x2="598.606" y2="1007.51" stroke="black" stroke-width="3"/> 
  <line x1="880.44" y1="981.47" x2="880.44" y2="936.97" stroke="black" stroke-width="3"/> 
  <line x1="880.94" y1="1048.46" x2="880.94" y2="1003.96" stroke="black" stroke-width="3"/> 
  <line x1="490.296" y1="892.076" x2="490.296" y2="847.576" stroke="black" stroke-width="3"/> 
  <line x1="490.296" y1="949.076" x2="490.296" y2="904.576" stroke="black" stroke-width="3"/> 
  <line x1="781.689" y1="891.591" x2="781.689" y2="847.091" stroke="black" stroke-width="3"/> 
  <line x1="781.689" y1="948.591" x2="781.689" y2="904.091" stroke="black" stroke-width="3"/> 
  <line x1="48.6364" y1="182.424" x2="88.8185" y2="182.409" stroke="black" stroke-width="3"/> 
  <image x="62" y="140" width="70" height="65" xlink:href="DS_CO_valve_tenzor.svg" transform="rotate(0 0 -10)">
    <title>00GUH11AA005</title>
    <rt:dyn type="DATA_NARY" mode="constant" value="&quot;TYPE2&quot;"/> 
    <rt:dyn type="Operate" mode="constant" value="true"/> 
    <rt:dyn type="SIG_Open" mode="constant" value="&quot;00GUH11AA005_XB01&quot;"/> 
    <rt:dyn type="SIG_Close" mode="constant" value="&quot;00GUH11AA005_XB02&quot;"/> 
  </image>
  <line x1="135" y1="853.621" x2="235.788" y2="853.621" stroke="black" stroke-width="3"/> 
  <line x1="50.1516" y1="853.621" x2="116.818" y2="853.621" stroke="black" stroke-width="3"/> 
  <line x1="750.137" y1="224.409" x2="750.137" y2="179.909" stroke="black" stroke-width="3"/> 
  <line x1="750.637" y1="283.409" x2="750.637" y2="238.909" stroke="black" stroke-width="3"/> 
  <line x1="458.712" y1="225.894" x2="458.712" y2="181.394" stroke="black" stroke-width="3"/> 
  <line x1="458.212" y1="281.894" x2="458.212" y2="237.394" stroke="black" stroke-width="3"/> 
  <image x="1230.83" y="365.242" width="25" height="25" xlink:href="bin_indicator.svg">
    <title>00GUH11CL504_XG02</title>
    <rt:dyn type="PointID" mode="constant" value="&quot;00GUH11CL504_XG02&quot;"/> 
  </image>
  <image x="1172.39" y="678.394" width="25" height="25" xlink:href="bin_indicator.svg">
    <title>00GUH11CL503_XG54</title>
    <rt:dyn type="PointID" mode="constant" value="&quot;00GUH11CL503_XG54&quot;"/> 
  </image>
  <image x="1563.27" y="669.273" width="25" height="25" xlink:href="bin_indicator.svg">
    <title>00GUH11GH007_XG02</title>
    <rt:dyn type="PointID" mode="constant" value="&quot;00GUH11GH007_XG02&quot;"/> 
  </image>
  <image x="1563.27" y="703.121" width="25" height="25" xlink:href="bin_indicator.svg">
    <title>00GUH11GH007_XG01</title>
    <rt:dyn type="PointID" mode="constant" value="&quot;00GUH11GH007_XG01&quot;"/> 
  </image>
  <image x="1563.27" y="736.455" width="25" height="25" xlink:href="bin_indicator.svg">
    <title>00GUH11GH007_XG51</title>
    <rt:dyn type="PointID" mode="constant" value="&quot;00GUH11GH007_XG51&quot;"/> 
  </image>
  <image x="1564.79" y="366.758" width="25" height="25" xlink:href="bin_indicator.svg">
    <title>00GUH11GH006_XG02</title>
    <rt:dyn type="PointID" mode="constant" value="&quot;00GUH11GH006_XG02&quot;"/> 
  </image>
  <image x="1564.79" y="400.606" width="25" height="25" xlink:href="bin_indicator.svg">
    <title>00GUH11GH006_XG01</title>
    <rt:dyn type="PointID" mode="constant" value="&quot;00GUH11GH006_XG01&quot;"/> 
  </image>
  <image x="1564.79" y="433.939" width="25" height="25" xlink:href="bin_indicator.svg">
    <title>00GUH11GH006_XG51</title>
    <rt:dyn type="PointID" mode="constant" value="&quot;00GUH11GH006_XG51&quot;"/> 
  </image>
  <text x="1522.12" y="355.531" fill="black" font-size="15" text-anchor="middle">00GUH11GH006</text>
  <rect x="1445.09" y="41" width="285.364" height="85.3637" rx="0" ry="0" fill="Col_BGSand" stroke="black" stroke-width="2"/> 
  <text x="1588.03" y="62.7273" fill="black" font-size="15" text-anchor="middle">Режим работы<tspan x="1588.03" dy="15">00GUH11/00GUR11/00GUR21</tspan>
  </text>
  <image x="1458.03" y="88.4849" width="181.818" height="24.2424" xlink:href="bitwise_tablo_4bits.svg">
    <title>00GUH1100GUR1100GUR21_XK92</title>
    <rt:dyn type="PointID_1" mode="constant" value="&quot;00GUH1100GUR1100GUR21_XK92&quot;"/> 
    <rt:dyn type="Text_0000" mode="constant" value="&quot;АВТОМАТИЧЕСКИЙ&quot;"/> 
    <rt:dyn type="Color_0001" mode="constant" value="&quot;Col_Green&quot;"/> 
    <rt:dyn type="Text_0001" mode="constant" value="&quot;ДИСТАНЦИОННЫЙ&quot;"/> 
    <rt:dyn type="Color_0000" mode="constant" value="&quot;Col_Green&quot;"/> 
  </image>
  <image x="1656.76" y="82.9079" width="60" height="30" xlink:href="ps_tenzor_system.svg">
    <title>00GUH1100GUR1100GUR21</title>
    <rt:dyn type="KKS" mode="constant" value="&quot;00GUH1100GUR1100GUR21&quot;"/> 
  </image>
  <line x1="985" y1="948.5" x2="1027" y2="948.5" stroke="black" stroke-width="3"/> 
  <image x="81.2122" y="474.091" width="70" height="65" xlink:href="DS_CO_valve_tenzor.svg" transform="rotate(0 0 -10)">
    <title>00GUH11AA015</title>
    <rt:dyn type="DATA_NARY" mode="constant" value="&quot;TYPE2&quot;"/> 
    <rt:dyn type="Operate" mode="constant" value="true"/> 
    <rt:dyn type="SIG_Open" mode="constant" value="&quot;00GUH11AA015_XB01&quot;"/> 
    <rt:dyn type="SIG_Close" mode="constant" value="&quot;00GUH11AA015_XB02&quot;"/> 
  </image>
  <image x="87.2728" y="810.455" width="70" height="65" xlink:href="DS_CO_valve_tenzor.svg" transform="rotate(0 0 -10)">
    <title>00GUH11AA025</title>
    <rt:dyn type="DATA_NARY" mode="constant" value="&quot;TYPE2&quot;"/> 
    <rt:dyn type="Operate" mode="constant" value="true"/> 
    <rt:dyn type="SIG_Open" mode="constant" value="&quot;00GUH11AA025_XB01&quot;"/> 
    <rt:dyn type="SIG_Close" mode="constant" value="&quot;00GUH11AA025_XB02&quot;"/> 
  </image>
  <image x="146.364" y="89.2425" width="70" height="65" xlink:href="DS_CO_valve_tenzor.svg" transform="rotate(270 0 0) flipX(-1.66087e-005) rotate(0 0 -10)">
    <title>00GUR21AA012</title>
    <rt:dyn type="DATA_NARY" mode="constant" value="&quot;TYPE2&quot;"/> 
    <rt:dyn type="Operate" mode="constant" value="true"/> 
    <rt:dyn type="SIG_Open" mode="constant" value="&quot;00GUR21AA012_XB01&quot;"/> 
    <rt:dyn type="SIG_Close" mode="constant" value="&quot;00GUR21AA012_XB02&quot;"/> 
  </image>
  <image x="181.212" y="422.576" width="70" height="65" xlink:href="DS_CO_valve_tenzor.svg" transform="rotate(270 0 0) flipX(-1.66087e-005) rotate(0 0 -10)">
    <title>00GUR21AA022</title>
    <rt:dyn type="DATA_NARY" mode="constant" value="&quot;TYPE2&quot;"/> 
    <rt:dyn type="Operate" mode="constant" value="true"/> 
    <rt:dyn type="SIG_Open" mode="constant" value="&quot;00GUR21AA022_XB01&quot;"/> 
    <rt:dyn type="SIG_Close" mode="constant" value="&quot;00GUR21AA022_XB02&quot;"/> 
  </image>
  <image x="176.667" y="758.939" width="70" height="65" xlink:href="DS_CO_valve_tenzor.svg" transform="rotate(270 0 0) flipX(-1.66087e-005) rotate(0 0 -10)">
    <title>00GUR21AA032</title>
    <rt:dyn type="DATA_NARY" mode="constant" value="&quot;TYPE2&quot;"/> 
    <rt:dyn type="Operate" mode="constant" value="true"/> 
    <rt:dyn type="SIG_Open" mode="constant" value="&quot;00GUR21AA032_XB01&quot;"/> 
    <rt:dyn type="SIG_Close" mode="constant" value="&quot;00GUR21AA032_XB02&quot;"/> 
  </image>
  <image x="228.182" y="287.727" width="70" height="65" xlink:href="DS_CO_valve_tenzor.svg" transform="rotate(270 0 0) flipX(-1.66087e-005) rotate(0 0 -10)">
    <title>00GUR11AA009</title>
    <rt:dyn type="DATA_NARY" mode="constant" value="&quot;TYPE2&quot;"/> 
    <rt:dyn type="Operate" mode="constant" value="true"/> 
    <rt:dyn type="SIG_Open" mode="constant" value="&quot;00GUR11AA009_XB01&quot;"/> 
    <rt:dyn type="SIG_Close" mode="constant" value="&quot;00GUR11AA009_XB02&quot;"/> 
  </image>
  <image x="263.03" y="621.061" width="70" height="65" xlink:href="DS_CO_valve_tenzor.svg" transform="rotate(270 0 0) flipX(-1.66087e-005) rotate(0 0 -10)">
    <title>00GUR11AA019</title>
    <rt:dyn type="DATA_NARY" mode="constant" value="&quot;TYPE2&quot;"/> 
    <rt:dyn type="Operate" mode="constant" value="true"/> 
    <rt:dyn type="SIG_Open" mode="constant" value="&quot;00GUR11AA019_XB01&quot;"/> 
    <rt:dyn type="SIG_Close" mode="constant" value="&quot;00GUR11AA019_XB02&quot;"/> 
  </image>
  <image x="256.97" y="954.394" width="70" height="65" xlink:href="DS_CO_valve_tenzor.svg" transform="rotate(270 0 0) flipX(-1.66087e-005) rotate(0 0 -10)">
    <title>00GUR11AA029</title>
    <rt:dyn type="DATA_NARY" mode="constant" value="&quot;TYPE2&quot;"/> 
    <rt:dyn type="Operate" mode="constant" value="true"/> 
    <rt:dyn type="SIG_Open" mode="constant" value="&quot;00GUR11AA029_XB01&quot;"/> 
    <rt:dyn type="SIG_Close" mode="constant" value="&quot;00GUR11AA029_XB02&quot;"/> 
  </image>
  <image x="447.879" y="90.7576" width="70" height="65" xlink:href="DS_CO_valve_tenzor.svg" transform="rotate(270 0 0) flipX(-1.66087e-005) rotate(0 0 -10)">
    <title>00GUR21AA012</title>
    <rt:dyn type="DATA_NARY" mode="constant" value="&quot;TYPE2&quot;"/> 
    <rt:dyn type="Operate" mode="constant" value="true"/> 
    <rt:dyn type="SIG_Open" mode="constant" value="&quot;00GUR21AA012_XB01&quot;"/> 
    <rt:dyn type="SIG_Close" mode="constant" value="&quot;00GUR21AA012_XB02&quot;"/> 
  </image>
  <image x="482.727" y="422.576" width="70" height="65" xlink:href="DS_CO_valve_tenzor.svg" transform="rotate(270 0 0) flipX(-1.66087e-005) rotate(0 0 -10)">
    <title>00GUR21AA023</title>
    <rt:dyn type="DATA_NARY" mode="constant" value="&quot;TYPE2&quot;"/> 
    <rt:dyn type="Operate" mode="constant" value="true"/> 
    <rt:dyn type="SIG_Open" mode="constant" value="&quot;00GUR21AA023_XB01&quot;"/> 
    <rt:dyn type="SIG_Close" mode="constant" value="&quot;00GUR21AA023_XB02&quot;"/> 
  </image>
  <image x="478.182" y="755.909" width="70" height="65" xlink:href="DS_CO_valve_tenzor.svg" transform="rotate(270 0 0) flipX(-1.66087e-005) rotate(0 0 -10)">
    <title>00GUR21AA033</title>
    <rt:dyn type="DATA_NARY" mode="constant" value="&quot;TYPE2&quot;"/> 
    <rt:dyn type="Operate" mode="constant" value="true"/> 
    <rt:dyn type="SIG_Open" mode="constant" value="&quot;00GUR21AA033_XB01&quot;"/> 
    <rt:dyn type="SIG_Close" mode="constant" value="&quot;00GUR21AA033_XB02&quot;"/> 
  </image>
  <image x="423.636" y="189.242" width="70" height="65" xlink:href="DS_CO_valve_tenzor.svg" transform="rotate(270 0 0) flipX(-1.66087e-005) rotate(0 0 -10)">
    <title>00GUH11AA006</title>
    <rt:dyn type="DATA_NARY" mode="constant" value="&quot;TYPE2&quot;"/> 
    <rt:dyn type="Operate" mode="constant" value="true"/> 
    <rt:dyn type="SIG_Open" mode="constant" value="&quot;00GUH11AA006_XB01&quot;"/> 
    <rt:dyn type="SIG_Close" mode="constant" value="&quot;00GUH11AA006_XB02&quot;"/> 
  </image>
  <image x="456.97" y="524.091" width="70" height="65" xlink:href="DS_CO_valve_tenzor.svg" transform="rotate(270 0 0) flipX(-1.66087e-005) rotate(0 0 -10)">
    <title>00GUH11AA016</title>
    <rt:dyn type="DATA_NARY" mode="constant" value="&quot;TYPE2&quot;"/> 
    <rt:dyn type="Operate" mode="constant" value="true"/> 
    <rt:dyn type="SIG_Open" mode="constant" value="&quot;00GUH11AA016_XB01&quot;"/> 
    <rt:dyn type="SIG_Close" mode="constant" value="&quot;00GUH11AA016_XB02&quot;"/> 
  </image>
  <image x="455.455" y="858.939" width="70" height="65" xlink:href="DS_CO_valve_tenzor.svg" transform="rotate(270 0 0) flipX(-1.66087e-005) rotate(0 0 -10)">
    <title>00GUH11AA026</title>
    <rt:dyn type="DATA_NARY" mode="constant" value="&quot;TYPE2&quot;"/> 
    <rt:dyn type="Operate" mode="constant" value="true"/> 
    <rt:dyn type="SIG_Open" mode="constant" value="&quot;00GUH11AA026_XB01&quot;"/> 
    <rt:dyn type="SIG_Close" mode="constant" value="&quot;00GUH11AA026_XB02&quot;"/> 
  </image>
  <image x="531.212" y="283.182" width="70" height="65" xlink:href="DS_CO_valve_tenzor.svg" transform="rotate(270 0 0) flipX(-1.66087e-005) rotate(0 0 -10)">
    <title>00GUR11AA010</title>
    <rt:dyn type="DATA_NARY" mode="constant" value="&quot;TYPE2&quot;"/> 
    <rt:dyn type="Operate" mode="constant" value="true"/> 
    <rt:dyn type="SIG_Open" mode="constant" value="&quot;00GUR11AA010_XB01&quot;"/> 
    <rt:dyn type="SIG_Close" mode="constant" value="&quot;00GUR11AA010_XB02&quot;"/> 
  </image>
  <image x="566.061" y="619.545" width="70" height="65" xlink:href="DS_CO_valve_tenzor.svg" transform="rotate(270 0 0) flipX(-1.66087e-005) rotate(0 0 -10)">
    <title>00GUR11AA020</title>
    <rt:dyn type="DATA_NARY" mode="constant" value="&quot;TYPE2&quot;"/> 
    <rt:dyn type="Operate" mode="constant" value="true"/> 
    <rt:dyn type="SIG_Open" mode="constant" value="&quot;00GUR11AA020_XB01&quot;"/> 
    <rt:dyn type="SIG_Close" mode="constant" value="&quot;00GUR11AA020_XB02&quot;"/> 
  </image>
  <image x="563.03" y="955.909" width="70" height="65" xlink:href="DS_CO_valve_tenzor.svg" transform="rotate(270 0 0) flipX(-1.66087e-005) rotate(0 0 -10)">
    <title>00GUR11AA030</title>
    <rt:dyn type="DATA_NARY" mode="constant" value="&quot;TYPE2&quot;"/> 
    <rt:dyn type="Operate" mode="constant" value="true"/> 
    <rt:dyn type="SIG_Open" mode="constant" value="&quot;00GUR11AA030_XB01&quot;"/> 
    <rt:dyn type="SIG_Close" mode="constant" value="&quot;00GUR11AA030_XB02&quot;"/> 
  </image>
  <image x="741.818" y="84.697" width="70" height="65" xlink:href="DS_CO_valve_tenzor.svg" transform="rotate(270 0 0) flipX(-1.66087e-005) rotate(0 0 -10)">
    <title>00GUR21AA014</title>
    <rt:dyn type="DATA_NARY" mode="constant" value="&quot;TYPE2&quot;"/> 
    <rt:dyn type="Operate" mode="constant" value="true"/> 
    <rt:dyn type="SIG_Open" mode="constant" value="&quot;00GUR21AA014_XB01&quot;"/> 
    <rt:dyn type="SIG_Close" mode="constant" value="&quot;00GUR21AA014_XB02&quot;"/> 
  </image>
  <image x="775.667" y="418.03" width="70" height="65" xlink:href="DS_CO_valve_tenzor.svg" transform="rotate(270 0 0) flipX(-1.66087e-005) rotate(0 0 -10)">
    <title>00GUR21AA024</title>
    <rt:dyn type="DATA_NARY" mode="constant" value="&quot;TYPE2&quot;"/> 
    <rt:dyn type="Operate" mode="constant" value="true"/> 
    <rt:dyn type="SIG_Open" mode="constant" value="&quot;00GUR21AA024_XB01&quot;"/> 
    <rt:dyn type="SIG_Close" mode="constant" value="&quot;00GUR21AA024_XB02&quot;"/> 
  </image>
  <image x="772.121" y="752.879" width="70" height="65" xlink:href="DS_CO_valve_tenzor.svg" transform="rotate(270 0 0) flipX(-1.66087e-005) rotate(0 0 -10)">
    <title>00GUR21AA034</title>
    <rt:dyn type="DATA_NARY" mode="constant" value="&quot;TYPE2&quot;"/> 
    <rt:dyn type="Operate" mode="constant" value="true"/> 
    <rt:dyn type="SIG_Open" mode="constant" value="&quot;00GUR21AA034_XB01&quot;"/> 
    <rt:dyn type="SIG_Close" mode="constant" value="&quot;00GUR21AA034_XB02&quot;"/> 
  </image>
  <image x="716.061" y="187.727" width="70" height="65" xlink:href="DS_CO_valve_tenzor.svg" transform="rotate(270 0 0) flipX(-1.66087e-005) rotate(0 0 -10)">
    <title>00GUH11AA007</title>
    <rt:dyn type="DATA_NARY" mode="constant" value="&quot;TYPE2&quot;"/> 
    <rt:dyn type="Operate" mode="constant" value="true"/> 
    <rt:dyn type="SIG_Open" mode="constant" value="&quot;00GUH11AA007_XB01&quot;"/> 
    <rt:dyn type="SIG_Close" mode="constant" value="&quot;00GUH11AA007_XB02&quot;"/> 
  </image>
  <image x="750.909" y="519.546" width="70" height="65" xlink:href="DS_CO_valve_tenzor.svg" transform="rotate(270 0 0) flipX(-1.66087e-005) rotate(0 0 -10)">
    <title>00GUH11AA017</title>
    <rt:dyn type="DATA_NARY" mode="constant" value="&quot;TYPE2&quot;"/> 
    <rt:dyn type="Operate" mode="constant" value="true"/> 
    <rt:dyn type="SIG_Open" mode="constant" value="&quot;00GUH11AA017_XB01&quot;"/> 
    <rt:dyn type="SIG_Close" mode="constant" value="&quot;00GUH11AA017_XB02&quot;"/> 
  </image>
  <image x="747.879" y="857.424" width="70" height="65" xlink:href="DS_CO_valve_tenzor.svg" transform="rotate(270 0 0) flipX(-1.66087e-005) rotate(0 0 -10)">
    <title>00GUH11AA027</title>
    <rt:dyn type="DATA_NARY" mode="constant" value="&quot;TYPE2&quot;"/> 
    <rt:dyn type="Operate" mode="constant" value="true"/> 
    <rt:dyn type="SIG_Open" mode="constant" value="&quot;00GUH11AA027_XB01&quot;"/> 
    <rt:dyn type="SIG_Close" mode="constant" value="&quot;00GUH11AA027_XB02&quot;"/> 
  </image>
  <image x="816.818" y="283.939" width="70" height="65" xlink:href="DS_CO_valve_tenzor.svg" transform="rotate(270 0 0) flipX(-1.66087e-005) rotate(0 0 -10)">
    <title>00GUR11AA011</title>
    <rt:dyn type="DATA_NARY" mode="constant" value="&quot;TYPE2&quot;"/> 
    <rt:dyn type="Operate" mode="constant" value="true"/> 
    <rt:dyn type="SIG_Open" mode="constant" value="&quot;00GUR11AA011_XB01&quot;"/> 
    <rt:dyn type="SIG_Close" mode="constant" value="&quot;00GUR11AA011_XB02&quot;"/> 
  </image>
  <image x="851.666" y="617.273" width="70" height="65" xlink:href="DS_CO_valve_tenzor.svg" transform="rotate(270 0 0) flipX(-1.66087e-005) rotate(0 0 -10)">
    <title>00GUR11AA021</title>
    <rt:dyn type="DATA_NARY" mode="constant" value="&quot;TYPE2&quot;"/> 
    <rt:dyn type="Operate" mode="constant" value="true"/> 
    <rt:dyn type="SIG_Open" mode="constant" value="&quot;00GUR11AA021_XB01&quot;"/> 
    <rt:dyn type="SIG_Close" mode="constant" value="&quot;00GUR11AA021_XB02&quot;"/> 
  </image>
  <image x="847.121" y="955.151" width="70" height="65" xlink:href="DS_CO_valve_tenzor.svg" transform="rotate(270 0 0) flipX(-1.66087e-005) rotate(0 0 -10)">
    <title>00GUR11AA031</title>
    <rt:dyn type="DATA_NARY" mode="constant" value="&quot;TYPE2&quot;"/> 
    <rt:dyn type="Operate" mode="constant" value="true"/> 
    <rt:dyn type="SIG_Open" mode="constant" value="&quot;00GUR11AA031_XB01&quot;"/> 
    <rt:dyn type="SIG_Close" mode="constant" value="&quot;00GUR11AA031_XB02&quot;"/> 
  </image>
  <image x="907.727" y="239.97" width="70" height="65" xlink:href="DS_CO_valve_tenzor.svg" transform="rotate(0 0 -10)">
    <title>00GUH11AA008</title>
    <rt:dyn type="DATA_NARY" mode="constant" value="&quot;TYPE2&quot;"/> 
    <rt:dyn type="Operate" mode="constant" value="true"/> 
    <rt:dyn type="SIG_Open" mode="constant" value="&quot;00GUH11AA008_XB01&quot;"/> 
    <rt:dyn type="SIG_Close" mode="constant" value="&quot;00GUH11AA008_XB02&quot;"/> 
  </image>
  <image x="941.061" y="573.333" width="70" height="65" xlink:href="DS_CO_valve_tenzor.svg" transform="rotate(0 0 -10)">
    <title>00GUH11AA018</title>
    <rt:dyn type="DATA_NARY" mode="constant" value="&quot;TYPE2&quot;"/> 
    <rt:dyn type="Operate" mode="constant" value="true"/> 
    <rt:dyn type="SIG_Open" mode="constant" value="&quot;00GUH11AA018_XB01&quot;"/> 
    <rt:dyn type="SIG_Close" mode="constant" value="&quot;00GUH11AA018_XB02&quot;"/> 
  </image>
  <image x="941.061" y="906.667" width="70" height="65" xlink:href="DS_CO_valve_tenzor.svg" transform="rotate(0 0 -10)">
    <title>00GUH11AA028</title>
    <rt:dyn type="DATA_NARY" mode="constant" value="&quot;TYPE2&quot;"/> 
    <rt:dyn type="Operate" mode="constant" value="true"/> 
    <rt:dyn type="SIG_Open" mode="constant" value="&quot;00GUH11AA028_XB01&quot;"/> 
    <rt:dyn type="SIG_Close" mode="constant" value="&quot;00GUH11AA028_XB02&quot;"/> 
  </image>
  <image x="1102.5" y="414.242" width="70" height="70" xlink:href="DS_motor_tenzor.svg" transform="rotate(180 0 0)">
    <title>00GUR11AP028_XB01</title>
    <rt:dyn type="DATA_NARY" mode="constant" value="&quot;TYPE2&quot;"/> 
    <rt:dyn type="Operate" mode="constant" value="true"/> 
    <rt:dyn type="DeviceType" mode="constant" value="&quot;pump&quot;"/> 
    <rt:dyn type="SIG_On" mode="constant" value="&quot;00GUR11AP028_XB01&quot;"/> 
  </image>
  <image x="1102.5" y="630.909" width="70" height="70" xlink:href="DS_motor_tenzor.svg" transform="rotate(180 0 0)">
    <title>00GUR11AP030_XB01</title>
    <rt:dyn type="DATA_NARY" mode="constant" value="&quot;TYPE2&quot;"/> 
    <rt:dyn type="Operate" mode="constant" value="true"/> 
    <rt:dyn type="DeviceType" mode="constant" value="&quot;pump&quot;"/> 
    <rt:dyn type="SIG_On" mode="constant" value="&quot;00GUR11AP030_XB01&quot;"/> 
  </image>
  <image x="1230.83" y="400.121" width="25" height="25" xlink:href="bin_indicator.svg">
    <title>00GUH11CL504_XG01</title>
    <rt:dyn type="PointID" mode="constant" value="&quot;00GUH11CL504_XG01&quot;"/> 
  </image>
  <line x1="1223.38" y1="493.03" x2="1223.38" y2="340" stroke="black" stroke-width="1"/> 
  <text x="1285.76" y="351.137" fill="black" font-size="15" text-anchor="middle">&gt; 440 см</text>
  <text x="1285.76" y="331.288" fill="black" font-size="15" text-anchor="middle">&gt; 445 см</text>
  <text x="1206.21" y="331.288" fill="black" font-size="15" text-anchor="middle">&lt; 30 см</text>
</svg>
