<?xml  version="1.0" encoding="UTF-8"?>
<svg color="Col_BGSand" xmlns="http://www.w3.org/2000/svg" xmlns:rt="http://www.rts.co.at/2001/XMLSchema/RtSvgPL" xmlns:xlink="http://www.w3.org/1999/xlink" xmlns:xsi="http://www.w3.org/2001/XMLSchema-instance" xsi:schemaLocation="http://www.w3.org/2000/svg C:\RTS\RtSvg\XML\SVG.xsd" viewBox="0 0 1920 1080" width="1920" height="1080" id="00kls30_31">
  <rt:model modelversion="7.2.0.24" revision="1"/> 
  <text x="25" y="25" font-size="15">00UYB 00CXV11GH001 00KLS30 / 00KLS31</text>
  <text x="1235.82" y="298.561" fill="black" font-size="15" text-anchor="middle">00KLS31<tspan x="1235.82" dy="15">AN001</tspan>
  </text>
  <line x1="1146.12" y1="155.197" x2="1449.46" y2="155.53" stroke="black" stroke-width="3"/> 
  <line x1="1166.71" y1="134.712" x2="1296.71" y2="134.712" stroke="black" stroke-width="1"/> 
  <line x1="1296.52" y1="154.485" x2="1296.52" y2="88.4852" stroke="black" stroke-width="3"/> 
  <line x1="1448.26" y1="209" x2="1448.26" y2="154.485" stroke="black" stroke-width="3"/> 
  <text x="1539.94" y="301.015" fill="black" font-size="15" text-anchor="middle">00KLS31<tspan x="1539.94" dy="15">AN002</tspan>
  </text>
  <polygon points="1314.03,623.819 1324.03,640.819 1304.03,640.819"/> 
  <image x="1061.49" y="121.197" width="175" height="25" xlink:href="DS_ana_tenzor.svg">
    <title>00KLS31CF001</title>
    <rt:dyn type="FKKS" mode="constant" value="&quot;00KLS31CF001&quot;"/> 
    <rt:dyn type="X" mode="constant" value="&quot;F&quot;"/> 
    <rt:dyn type="ShowFrame" mode="constant" value="true"/> 
    <rt:dyn type="ValueToTheRight" mode="constant" value="false"/> 
    <rt:dyn type="Color_Readings" mode="constant" value="true"/> 
  </image>
  <line x1="1163" y1="614.53" x2="1464.79" y2="614.53" stroke="black" stroke-width="3"/> 
  <line x1="1314.03" y1="635.485" x2="1314.03" y2="613.485" stroke="black" stroke-width="3"/> 
  <text x="1207.9" y="216.364" fill="black" font-size="15" text-anchor="middle">00KLS31<tspan x="1207.9" dy="15">AA005</tspan>
  </text>
  <text x="1372.82" y="216.364" fill="black" font-size="15" text-anchor="middle">00KLS31<tspan x="1372.82" dy="15">AA006</tspan>
  </text>
  <text x="1224.61" y="381.485" fill="black" font-size="15" text-anchor="middle">00KLS31<tspan x="1224.61" dy="15">AA002</tspan>
  </text>
  <text x="1387.53" y="381.485" fill="black" font-size="15" text-anchor="middle">00KLS31<tspan x="1387.53" dy="15">AA004</tspan>
  </text>
  <text x="1223.61" y="563.485" fill="black" font-size="15" text-anchor="middle">00KLS31<tspan x="1223.61" dy="15">AA001</tspan>
  </text>
  <text x="1388.53" y="563.485" fill="black" font-size="15" text-anchor="middle">00KLS31<tspan x="1388.53" dy="15">AA003</tspan>
  </text>
  <polyline points="1287.29,519.033 1337.29,519.033 1336.79,569.033 1287.29,568.533 1287.29,519.033" fill="Col_BGSand" stroke="black" stroke-width="3" transform="rotate(44.0618 1325.51 325.508)"/> 
  <text x="1216.53" y="501.243" fill="black" font-size="15" text-anchor="middle">00KLS31<tspan x="1216.53" dy="15">AT001</tspan>
  </text>
  <line x1="1129.24" y1="473.485" x2="1198.24" y2="473.485" stroke="black"/> 
  <line x1="1117.03" y1="514.485" x2="1155.24" y2="514.985" stroke="black" stroke-width="1"/> 
  <line x1="1117.03" y1="431.485" x2="1154.25" y2="431.485" stroke="black" stroke-width="1"/> 
  <line x1="1118.03" y1="431.41" x2="1118.03" y2="515.076" stroke="black" stroke-width="1"/> 
  <line x1="1155.24" y1="424.485" x2="1155.24" y2="438.485" stroke="black" stroke-width="1"/> 
  <line x1="1155.24" y1="506.985" x2="1155.24" y2="521.485" stroke="black" stroke-width="1"/> 
  <line x1="1118.24" y1="474.985" x2="1089.03" y2="474.985" stroke="black" stroke-width="1"/> 
  <image x="914.031" y="461.076" width="175" height="25" xlink:href="DS_ana_tenzor.svg">
    <title>00KLS31CP001</title>
    <rt:dyn type="FKKS" mode="constant" value="&quot;00KLS31CP001&quot;"/> 
    <rt:dyn type="X" mode="constant" value="&quot;dP&quot;"/> 
    <rt:dyn type="ShowFrame" mode="constant" value="true"/> 
    <rt:dyn type="ValueToTheRight" mode="constant" value="false"/> 
    <rt:dyn type="Color_Readings" mode="constant" value="true"/> 
  </image>
  <text x="1406.03" y="500.091" fill="black" font-size="15" text-anchor="middle">00KLS31<tspan x="1406.03" dy="15">AT002</tspan>
  </text>
  <line x1="1469.53" y1="513.333" x2="1507.53" y2="513.333" stroke="black" stroke-width="1"/> 
  <line x1="1470.9" y1="429.985" x2="1507.53" y2="429.333" stroke="black" stroke-width="1"/> 
  <line x1="1506.68" y1="430.409" x2="1506.68" y2="514.075" stroke="black" stroke-width="1"/> 
  <line x1="1469.89" y1="422.485" x2="1469.89" y2="436.485" stroke="black" stroke-width="1"/> 
  <line x1="1469.89" y1="505.985" x2="1469.89" y2="520.485" stroke="black" stroke-width="1"/> 
  <line x1="1535.89" y1="469.985" x2="1506.68" y2="469.985" stroke="black" stroke-width="1"/> 
  <image x="1533.68" y="456.075" width="175" height="25" xlink:href="DS_ana_tenzor.svg">
    <title>00KLS31CP002</title>
    <rt:dyn type="FKKS" mode="constant" value="&quot;00KLS31CP002&quot;"/> 
    <rt:dyn type="X" mode="constant" value="&quot;dP&quot;"/> 
    <rt:dyn type="ShowFrame" mode="constant" value="true"/> 
    <rt:dyn type="ValueToTheRight" mode="constant" value="false"/> 
    <rt:dyn type="Color_Readings" mode="constant" value="true"/> 
  </image>
  <line x1="1141.28" y1="473.485" x2="1171.03" y2="502.485" stroke="black"/> 
  <line x1="1149.78" y1="473.235" x2="1175.53" y2="496.985" stroke="black"/> 
  <line x1="1161.37" y1="473.603" x2="1180.28" y2="491.485" stroke="black"/> 
  <line x1="1171.62" y1="473.348" x2="1185.53" y2="486.735" stroke="black"/> 
  <line x1="1182.13" y1="473.345" x2="1190.78" y2="482.235" stroke="black"/> 
  <polyline points="1501.92,310.713 1551.92,310.713 1551.42,360.713 1501.92,360.213 1501.92,310.713" fill="Col_BGSand" stroke="black" stroke-width="3" transform="rotate(44.0618 1325.51 325.508)"/> 
  <line x1="1428.34" y1="473.051" x2="1497.34" y2="473.051" stroke="black"/> 
  <line x1="1440.38" y1="473.051" x2="1470.13" y2="502.051" stroke="black"/> 
  <line x1="1448.88" y1="472.801" x2="1474.63" y2="496.551" stroke="black"/> 
  <line x1="1460.47" y1="473.169" x2="1479.38" y2="491.051" stroke="black"/> 
  <line x1="1470.72" y1="472.914" x2="1484.63" y2="486.301" stroke="black"/> 
  <line x1="1481.23" y1="472.911" x2="1489.88" y2="481.801" stroke="black"/> 
  <line x1="299.054" y1="612.773" x2="299.054" y2="567.272" stroke="black" stroke-width="3"/> 
  <line x1="281.244" y1="194.545" x2="281.244" y2="153.773" stroke="black" stroke-width="3"/> 
  <text x="373.244" y="297.772" fill="black" font-size="15" text-anchor="middle">00KLS30<tspan x="373.244" dy="15">AN001</tspan>
  </text>
  <line x1="279.334" y1="154.485" x2="582.664" y2="154.818" stroke="black" stroke-width="3"/> 
  <line x1="296.924" y1="134" x2="426.924" y2="134" stroke="black" stroke-width="1"/> 
  <line x1="426.818" y1="153.773" x2="426.818" y2="87.7724" stroke="black" stroke-width="3"/> 
  <line x1="598.314" y1="612.773" x2="598.314" y2="574.848" stroke="black" stroke-width="3"/> 
  <line x1="582.439" y1="188.348" x2="582.439" y2="153.636" stroke="black" stroke-width="3"/> 
  <text x="674.154" y="300.303" fill="black" font-size="15" text-anchor="middle">00KLS30<tspan x="674.154" dy="15">AN002</tspan>
  </text>
  <image x="195.694" y="120.485" width="175" height="25" xlink:href="DS_ana_tenzor.svg">
    <title>00KLS30CF001</title>
    <rt:dyn type="FKKS" mode="constant" value="&quot;00KLS30CF001&quot;"/> 
    <rt:dyn type="X" mode="constant" value="&quot;F&quot;"/> 
    <rt:dyn type="ShowFrame" mode="constant" value="true"/> 
    <rt:dyn type="ValueToTheRight" mode="constant" value="false"/> 
    <rt:dyn type="Color_Readings" mode="constant" value="true"/> 
  </image>
  <text x="341.884" y="201.756" fill="black" font-size="15" text-anchor="middle">00KLS30<tspan x="341.884" dy="15">AA005</tspan>
  </text>
  <text x="506.804" y="201.756" fill="black" font-size="15" text-anchor="middle">00KLS30<tspan x="506.804" dy="15">AA006</tspan>
  </text>
  <text x="354" y="379.5" fill="black" font-size="15" text-anchor="middle">00KLS30<tspan x="354" dy="15">AA002</tspan>
  </text>
  <text x="523.744" y="380.772" fill="black" font-size="15" text-anchor="middle">00KLS30<tspan x="523.744" dy="15">AA004</tspan>
  </text>
  <text x="355" y="561.5" fill="black" font-size="15" text-anchor="middle">00KLS30<tspan x="355" dy="15">AA001</tspan>
  </text>
  <text x="522.744" y="562.773" fill="black" font-size="15" text-anchor="middle">00KLS30<tspan x="522.744" dy="15">AA003</tspan>
  </text>
  <polyline points="664.771,1122 714.771,1122 714.271,1172 664.771,1171.5 664.771,1122" fill="Col_BGSand" stroke="black" stroke-width="3" transform="rotate(44.0618 1325.51 325.508)"/> 
  <text x="349.864" y="501.607" fill="black" font-size="15" text-anchor="middle">00KLS30<tspan x="349.864" dy="15">AT001</tspan>
  </text>
  <line x1="262.574" y1="473.849" x2="331.574" y2="473.849" stroke="black"/> 
  <line x1="250.364" y1="514.849" x2="288.574" y2="515.349" stroke="black" stroke-width="1"/> 
  <line x1="250.364" y1="431.849" x2="287.584" y2="431.849" stroke="black" stroke-width="1"/> 
  <line x1="251.364" y1="431.774" x2="251.364" y2="515.44" stroke="black" stroke-width="1"/> 
  <line x1="288.574" y1="424.848" x2="288.574" y2="438.849" stroke="black" stroke-width="1"/> 
  <line x1="288.574" y1="507.349" x2="288.574" y2="521.849" stroke="black" stroke-width="1"/> 
  <line x1="251.574" y1="475.349" x2="222.364" y2="475.107" stroke="black" stroke-width="1"/> 
  <image x="47.3637" y="461.44" width="175" height="25" xlink:href="DS_ana_tenzor.svg">
    <title>00KLS30CP001</title>
    <rt:dyn type="FKKS" mode="constant" value="&quot;00KLS30CP001&quot;"/> 
    <rt:dyn type="X" mode="constant" value="&quot;dP&quot;"/> 
    <rt:dyn type="ShowFrame" mode="constant" value="true"/> 
    <rt:dyn type="ValueToTheRight" mode="constant" value="false"/> 
    <rt:dyn type="Color_Readings" mode="constant" value="true"/> 
  </image>
  <text x="542.244" y="499.379" fill="black" font-size="15" text-anchor="middle">00KLS30<tspan x="542.244" dy="15">AT002</tspan>
  </text>
  <line x1="605.744" y1="512.621" x2="643.744" y2="512.621" stroke="black" stroke-width="1"/> 
  <line x1="607.114" y1="429.273" x2="643.744" y2="428.621" stroke="black" stroke-width="1"/> 
  <line x1="642.894" y1="429.697" x2="642.894" y2="513.363" stroke="black" stroke-width="1"/> 
  <line x1="606.104" y1="421.772" x2="606.104" y2="435.773" stroke="black" stroke-width="1"/> 
  <line x1="606.104" y1="505.273" x2="606.104" y2="519.773" stroke="black" stroke-width="1"/> 
  <line x1="672.104" y1="473.273" x2="642.894" y2="473.273" stroke="black" stroke-width="1"/> 
  <image x="671" y="462" width="175" height="25" xlink:href="DS_ana_tenzor.svg">
    <title>00KLS30CP002</title>
    <rt:dyn type="FKKS" mode="constant" value="&quot;00KLS30CP002&quot;"/> 
    <rt:dyn type="X" mode="constant" value="&quot;dP&quot;"/> 
    <rt:dyn type="ShowFrame" mode="constant" value="true"/> 
    <rt:dyn type="ValueToTheRight" mode="constant" value="false"/> 
    <rt:dyn type="Color_Readings" mode="constant" value="true"/> 
  </image>
  <line x1="274.614" y1="473.849" x2="304.364" y2="502.849" stroke="black"/> 
  <line x1="283.114" y1="473.599" x2="308.864" y2="497.349" stroke="black"/> 
  <line x1="294.704" y1="473.967" x2="313.614" y2="491.849" stroke="black"/> 
  <line x1="304.954" y1="473.712" x2="318.864" y2="487.099" stroke="black"/> 
  <line x1="315.464" y1="473.709" x2="324.114" y2="482.599" stroke="black"/> 
  <polyline points="880.721,910.908 930.721,910.908 930.221,960.908 880.721,960.408 880.721,910.908" fill="Col_BGSand" stroke="black" stroke-width="3" transform="rotate(44.0618 1325.51 325.508)"/> 
  <line x1="564.554" y1="472.339" x2="633.554" y2="472.339" stroke="black"/> 
  <line x1="576.594" y1="472.339" x2="606.344" y2="501.339" stroke="black"/> 
  <line x1="585.094" y1="472.089" x2="610.844" y2="495.839" stroke="black"/> 
  <line x1="596.684" y1="472.457" x2="615.594" y2="490.339" stroke="black"/> 
  <line x1="606.934" y1="472.202" x2="620.844" y2="485.589" stroke="black"/> 
  <line x1="617.444" y1="472.199" x2="626.094" y2="481.089" stroke="black"/> 
  <line x1="296.884" y1="611.197" x2="600.214" y2="611.53" stroke="black" stroke-width="3"/> 
  <line x1="425.274" y1="887.121" x2="425.274" y2="609.697" stroke="black" stroke-width="3"/> 
  <polygon points="425.274,883.939 435.274,900.939 415.274,900.939"/> 
  <line x1="205.944" y1="712.121" x2="425.274" y2="712.121" stroke="black" stroke-width="3"/> 
  <line x1="426.244" y1="687.227" x2="634.604" y2="687.227" stroke="black" stroke-width="3"/> 
  <line x1="500.274" y1="854.121" x2="500.274" y2="687.121" stroke="black" stroke-width="3"/> 
  <line x1="350.274" y1="855.454" x2="350.274" y2="712.121" stroke="black" stroke-width="3"/> 
  <polygon points="500.274,846.151 510.274,863.151 490.274,863.151"/> 
  <polygon points="350.274,846.394 360.274,863.394 340.274,863.394"/> 
  <polygon points="2469.47,1684.56 2479.47,1701.56 2459.47,1701.56" transform="rotate(90 1829.09 72.7425)"/> 
  <polygon points="2443.74,-598.832 2453.74,-581.832 2433.74,-581.832" transform="flipX(1562.44) rotate(90 1829.09 72.7425)"/> 
  <text x="299.274" y="827.288" fill="black" font-size="15" text-anchor="middle">00KLS30<tspan x="299.274" dy="15">AA010</tspan>
  </text>
  <image x="315.184" y="764.636" width="70" height="45" xlink:href="DS_pivot_valve_tenzor.svg">
    <title>00KLS30AA010</title>
    <rt:dyn type="KKS" mode="constant" value="&quot;00KLS30AA010&quot;"/> 
    <rt:dyn type="DATA_NARY" mode="constant" value="&quot;TYPE2&quot;"/> 
    <rt:dyn type="Operate" mode="constant" value="true"/> 
  </image>
  <image x="238" y="688" width="70" height="45" xlink:href="DS_pivot_valve_tenzor.svg">
    <title>00KLS30AA009</title>
    <rt:dyn type="KKS" mode="constant" value="&quot;00KLS30AA009&quot;"/> 
    <rt:dyn type="DATA_NARY" mode="constant" value="&quot;TYPE2&quot;"/> 
    <rt:dyn type="Operate" mode="constant" value="true"/> 
  </image>
  <text x="273" y="750.622" fill="black" font-size="15" text-anchor="middle">00KLS30<tspan x="273" dy="15">AA009</tspan>
  </text>
  <image x="516.944" y="665.242" width="70" height="45" xlink:href="DS_pivot_valve_tenzor.svg">
    <title>00KLS30AA007</title>
    <rt:dyn type="KKS" mode="constant" value="&quot;00KLS30AA007&quot;"/> 
    <rt:dyn type="DATA_NARY" mode="constant" value="&quot;TYPE2&quot;"/> 
    <rt:dyn type="Operate" mode="constant" value="true"/> 
  </image>
  <text x="551.944" y="725.864" fill="black" font-size="15" text-anchor="middle">00KLS30<tspan x="551.944" dy="15">AA007</tspan>
  </text>
  <text x="566.694" y="825.954" fill="black" font-size="15" text-anchor="middle">00KLS30<tspan x="566.694" dy="15">AA008</tspan>
  </text>
  <image x="464.304" y="765.212" width="70" height="45" xlink:href="DS_pivot_valve_tenzor.svg">
    <title>00KLS30AA008</title>
    <rt:dyn type="KKS" mode="constant" value="&quot;00KLS30AA008&quot;"/> 
    <rt:dyn type="DATA_NARY" mode="constant" value="&quot;TYPE2&quot;"/> 
    <rt:dyn type="Operate" mode="constant" value="true"/> 
  </image>
  <rect x="149.944" y="636.788" width="250.333" height="275.333" rx="0" ry="0" fill="none" stroke="black"/> 
  <text x="244.154" y="893.409" fill="black" font-size="20" text-anchor="middle">00UYB10 R022</text>
  <rect x="450.274" y="637.045" width="250.333" height="275.333" rx="0" ry="0" fill="none" stroke="black"/> 
  <text x="619.364" y="893.03" fill="black" font-size="20" text-anchor="middle">00UYB10 R024</text>
  <image x="1208.55" y="164.849" width="181.818" height="24.2424" xlink:href="bitwise_tablo_4bits.svg">
    <title>00KLS31AN001002</title>
    <rt:dyn type="PointID_1" mode="constant" value="&quot;00KLS31AN001002_Z0 0&quot;"/> 
    <rt:dyn type="Text_0001" mode="constant" value="&quot;ÀÂÐ ÍÅ ÃÎÒÎÂ&quot;"/> 
    <rt:dyn type="Text_0000" mode="constant" value="&quot;ÀÂÐ ÄÈÑÒ&quot;"/> 
    <rt:dyn type="Color_0010" mode="constant" value="&quot;Col_Yellow&quot;"/> 
    <rt:dyn type="Color_0001" mode="constant" value="&quot;Col_Green&quot;"/> 
    <rt:dyn type="Text_0010" mode="constant" value="&quot;ÀÂÐ ÃÎÒÎÂ&quot;"/> 
    <rt:dyn type="PointID_2" mode="constant" value="&quot;00KLS31AN001002_Z0 1&quot;"/> 
    <rt:dyn type="PointID_3" mode="constant" value="&quot;00KLS31AN001002_Z0 2&quot;"/> 
    <rt:dyn type="PointID_4" mode="constant" value="&quot;00KLS31AN001002_Z0 3&quot;"/> 
    <rt:dyn type="Text_0100" mode="constant" value="&quot;ÀÂÐ ÑÐÀÁÎÒÀË&quot;"/> 
    <rt:dyn type="Color_0100" mode="constant" value="&quot;Col_Red&quot;"/> 
    <rt:dyn type="Color_0000" mode="constant" value="&quot;Col_Grey3&quot;"/> 
  </image>
  <line x1="281.744" y1="293.03" x2="281.744" y2="214.261" stroke="black" stroke-width="3"/> 
  <image x="236.804" y="169.257" width="70" height="65" xlink:href="DS_CO_valve_tenzor.svg" transform="rotate(270 0 -10)">
    <title>00KLS30AA005</title>
    <rt:dyn type="KKS" mode="constant" value="&quot;00KLS30AA005&quot;"/> 
    <rt:dyn type="DATA_NARY" mode="constant" value="&quot;TYPE2&quot;"/> 
    <rt:dyn type="Operate" mode="constant" value="true"/> 
  </image>
  <line x1="582.714" y1="290" x2="582.714" y2="211.231" stroke="black" stroke-width="3"/> 
  <image x="537.804" y="169.59" width="70" height="65" xlink:href="DS_CO_valve_tenzor.svg" transform="rotate(270 0 -10)">
    <title>00KLS30AA006</title>
    <rt:dyn type="KKS" mode="constant" value="&quot;00KLS30AA006&quot;"/> 
    <rt:dyn type="DATA_NARY" mode="constant" value="&quot;TYPE2&quot;"/> 
    <rt:dyn type="Operate" mode="constant" value="true"/> 
  </image>
  <line x1="299.054" y1="553.272" x2="299.054" y2="507.771" stroke="black" stroke-width="3"/> 
  <image x="254.744" y="530.273" width="70" height="65" xlink:href="DS_CO_valve_tenzor.svg" transform="rotate(270 0 -10)">
    <title>00KLS30AA001</title>
    <rt:dyn type="KKS" mode="constant" value="&quot;00KLS30AA001&quot;"/> 
    <rt:dyn type="DATA_NARY" mode="constant" value="&quot;TYPE2&quot;"/> 
    <rt:dyn type="Operate" mode="constant" value="true"/> 
  </image>
  <line x1="297.389" y1="374.829" x2="297.389" y2="296.06" stroke="black" stroke-width="3"/> 
  <image x="264.214" y="267.803" width="70" height="70" xlink:href="DS_motor_tenzor.svg" transform="rotate(270 0 0)">
    <title>00KLS30AN001</title>
    <rt:dyn type="KKS" mode="constant" value="&quot;00KLS30AN001&quot;"/> 
    <rt:dyn type="DATA_NARY" mode="constant" value="&quot;TYPE2&quot;"/> 
    <rt:dyn type="Operate" mode="constant" value="true"/> 
    <rt:dyn type="DeviceType" mode="constant" value="&quot;fan&quot;"/> 
  </image>
  <line x1="297.389" y1="441.496" x2="297.389" y2="390" stroke="black" stroke-width="3"/> 
  <image x="252.744" y="348.272" width="70" height="65" xlink:href="DS_CO_valve_tenzor.svg" transform="rotate(270 0 -10)">
    <title>00KLS30AA002</title>
    <rt:dyn type="KKS" mode="constant" value="&quot;00KLS30AA002&quot;"/> 
    <rt:dyn type="DATA_NARY" mode="constant" value="&quot;TYPE2&quot;"/> 
    <rt:dyn type="Operate" mode="constant" value="true"/> 
  </image>
  <image x="342.854" y="161.212" width="181.818" height="24.2424" xlink:href="bitwise_tablo_4bits.svg">
    <title>00KLS30AN001002</title>
    <rt:dyn type="PointID_1" mode="constant" value="&quot;00KLS30AN001002_Z0 0&quot;"/> 
    <rt:dyn type="Text_0001" mode="constant" value="&quot;ÀÂÐ ÍÅ ÃÎÒÎÂ&quot;"/> 
    <rt:dyn type="Text_0000" mode="constant" value="&quot;ÀÂÐ ÄÈÑÒ&quot;"/> 
    <rt:dyn type="Color_0010" mode="constant" value="&quot;Col_Yellow&quot;"/> 
    <rt:dyn type="Color_0001" mode="constant" value="&quot;Col_Green&quot;"/> 
    <rt:dyn type="Text_0010" mode="constant" value="&quot;ÀÂÐ ÃÎÒÎÂ&quot;"/> 
    <rt:dyn type="PointID_2" mode="constant" value="&quot;00KLS30AN001002_Z0 1&quot;"/> 
    <rt:dyn type="PointID_3" mode="constant" value="&quot;00KLS30AN001002_Z0 2&quot;"/> 
    <rt:dyn type="PointID_4" mode="constant" value="&quot;00KLS30AN001002_Z0 3&quot;"/> 
    <rt:dyn type="Text_0100" mode="constant" value="&quot;ÀÂÐ ÑÐÀÁÎÒÀË&quot;"/> 
    <rt:dyn type="Color_0100" mode="constant" value="&quot;Col_Red&quot;"/> 
    <rt:dyn type="Color_0000" mode="constant" value="&quot;Col_Grey3&quot;"/> 
  </image>
  <line x1="1164.61" y1="549.697" x2="1164.61" y2="505.798" stroke="black" stroke-width="3"/> 
  <line x1="1163.09" y1="439.051" x2="1163.09" y2="395.152" stroke="black" stroke-width="3"/> 
  <line x1="1164.61" y1="360.263" x2="1164.61" y2="316.364" stroke="black" stroke-width="3"/> 
  <image x="1119.53" y="348.985" width="70" height="65" xlink:href="DS_CO_valve_tenzor.svg" transform="rotate(270 0 -10)">
    <title>00KLS31AA002</title>
    <rt:dyn type="KKS" mode="constant" value="&quot;00KLS31AA002&quot;"/> 
    <rt:dyn type="DATA_NARY" mode="constant" value="&quot;TYPE2&quot;"/> 
    <rt:dyn type="Operate" mode="constant" value="true"/> 
  </image>
  <line x1="1165.03" y1="613.485" x2="1165.03" y2="578.485" stroke="black" stroke-width="3"/> 
  <line x1="1463.61" y1="616.324" x2="1463.61" y2="572.425" stroke="black" stroke-width="3"/> 
  <image x="1119.53" y="530.985" width="70" height="65" xlink:href="DS_CO_valve_tenzor.svg" transform="rotate(270 0 -10)">
    <title>00KLS31AA001</title>
    <rt:dyn type="KKS" mode="constant" value="&quot;00KLS31AA001&quot;"/> 
    <rt:dyn type="DATA_NARY" mode="constant" value="&quot;TYPE2&quot;"/> 
    <rt:dyn type="Operate" mode="constant" value="true"/> 
  </image>
  <line x1="1463.09" y1="548.142" x2="1463.09" y2="504.243" stroke="black" stroke-width="3"/> 
  <image x="1418.53" y="531.318" width="70" height="65" xlink:href="DS_CO_valve_tenzor.svg" transform="rotate(270 0 -10)">
    <title>00KLS31AA003</title>
    <rt:dyn type="KKS" mode="constant" value="&quot;00KLS31AA003&quot;"/> 
    <rt:dyn type="DATA_NARY" mode="constant" value="&quot;TYPE2&quot;"/> 
    <rt:dyn type="Operate" mode="constant" value="true"/> 
  </image>
  <line x1="1461.58" y1="439.051" x2="1461.59" y2="395.152" stroke="black" stroke-width="3"/> 
  <line x1="1463.09" y1="364.809" x2="1463.09" y2="320.91" stroke="black" stroke-width="3"/> 
  <image x="1417.53" y="349.318" width="70" height="65" xlink:href="DS_CO_valve_tenzor.svg" transform="rotate(270 0 -10)">
    <title>00KLS31AA004</title>
    <rt:dyn type="KKS" mode="constant" value="&quot;00KLS31AA004&quot;"/> 
    <rt:dyn type="DATA_NARY" mode="constant" value="&quot;TYPE2&quot;"/> 
    <rt:dyn type="Operate" mode="constant" value="true"/> 
  </image>
  <line x1="598.894" y1="370.284" x2="598.894" y2="291.515" stroke="black" stroke-width="3"/> 
  <image x="565.364" y="267.803" width="70" height="70" xlink:href="DS_motor_tenzor.svg" transform="rotate(270 0 0)">
    <title>00KLS30AN002</title>
    <rt:dyn type="KKS" mode="constant" value="&quot;00KLS30AN002&quot;"/> 
    <rt:dyn type="DATA_NARY" mode="constant" value="&quot;TYPE2&quot;"/> 
    <rt:dyn type="Operate" mode="constant" value="true"/> 
    <rt:dyn type="DeviceType" mode="constant" value="&quot;fan&quot;"/> 
  </image>
  <line x1="598.894" y1="439.981" x2="598.894" y2="388.485" stroke="black" stroke-width="3"/> 
  <image x="553.744" y="348.605" width="70" height="65" xlink:href="DS_CO_valve_tenzor.svg" transform="rotate(270 0 -10)">
    <title>00KLS30AA004</title>
    <rt:dyn type="KKS" mode="constant" value="&quot;00KLS30AA004&quot;"/> 
    <rt:dyn type="DATA_NARY" mode="constant" value="&quot;TYPE2&quot;"/> 
    <rt:dyn type="Operate" mode="constant" value="true"/> 
  </image>
  <line x1="598.314" y1="549.137" x2="598.314" y2="503.636" stroke="black" stroke-width="3"/> 
  <image x="553.744" y="530.606" width="70" height="65" xlink:href="DS_CO_valve_tenzor.svg" transform="rotate(270 0 -10)">
    <title>00KLS30AA003</title>
    <rt:dyn type="KKS" mode="constant" value="&quot;00KLS30AA003&quot;"/> 
    <rt:dyn type="DATA_NARY" mode="constant" value="&quot;TYPE2&quot;"/> 
    <rt:dyn type="Operate" mode="constant" value="true"/> 
  </image>
  <polygon points="426.818,74.8486 436.818,91.8486 416.818,91.8486"/> 
  <polygon points="1296.52,74.8486 1306.52,91.8486 1286.52,91.8486"/> 
  <image x="550.817" y="72.6673" width="181.818" height="24.2424" xlink:href="bitwise_tablo_4bits.svg">
    <title>00KLS30_XK92</title>
    <rt:dyn type="PointID_1" mode="constant" value="&quot;00KLS30_XK92&quot;"/> 
    <rt:dyn type="Text_0000" mode="constant" value="&quot;ÀÂÒÎÌÀÒÈ×ÅÑÊÈÉ&quot;"/> 
    <rt:dyn type="Color_0001" mode="constant" value="&quot;Col_Green&quot;"/> 
    <rt:dyn type="Text_0001" mode="constant" value="&quot;ÄÈÑÒÀÍÖÈÎÍÍÛÉ&quot;"/> 
    <rt:dyn type="Color_0000" mode="constant" value="&quot;Col_Green&quot;"/> 
  </image>
  <text x="581.251" y="53.8371" fill="black" font-size="15">Ðåæèì ðàáîòû 00KLS30</text>
  <rect x="540.256" y="31.9091" width="275.758" height="81.8182" rx="0" ry="0" fill="none" stroke="black" stroke-width="2"/> 
  <image x="740.323" y="69.7883" width="60" height="30" xlink:href="ps_tenzor_system.svg">
    <title>00KLS30</title>
    <rt:dyn type="KKS" mode="constant" value="&quot;00KLS30&quot;"/> 
  </image>
  <image x="851.106" y="72.6673" width="181.818" height="24.2424" xlink:href="bitwise_tablo_4bits.svg">
    <title>00KLS31_XK92</title>
    <rt:dyn type="PointID_1" mode="constant" value="&quot;00KLS31_XK92&quot;"/> 
    <rt:dyn type="Text_0000" mode="constant" value="&quot;ÀÂÒÎÌÀÒÈ×ÅÑÊÈÉ&quot;"/> 
    <rt:dyn type="Color_0001" mode="constant" value="&quot;Col_Green&quot;"/> 
    <rt:dyn type="Text_0001" mode="constant" value="&quot;ÄÈÑÒÀÍÖÈÎÍÍÛÉ&quot;"/> 
    <rt:dyn type="Color_0000" mode="constant" value="&quot;Col_Green&quot;"/> 
  </image>
  <text x="881.54" y="53.8371" fill="black" font-size="15">Ðåæèì ðàáîòû 00KLS31</text>
  <rect x="840.545" y="31.9091" width="275.758" height="81.8182" rx="0" ry="0" fill="none" stroke="black" stroke-width="2"/> 
  <image x="1040.61" y="69.7883" width="60" height="30" xlink:href="ps_tenzor_system.svg">
    <title>00KLS31</title>
    <rt:dyn type="KKS" mode="constant" value="&quot;00KLS31&quot;"/> 
  </image>
  <line x1="1448.78" y1="284.543" x2="1448.78" y2="230.028" stroke="black" stroke-width="3"/> 
  <image x="1403.82" y="184.197" width="70" height="65" xlink:href="DS_CO_valve_tenzor.svg" transform="rotate(270 0 -10)">
    <title>00KLS31AA006</title>
    <rt:dyn type="KKS" mode="constant" value="&quot;00KLS31AA006&quot;"/> 
    <rt:dyn type="DATA_NARY" mode="constant" value="&quot;TYPE2&quot;"/> 
    <rt:dyn type="Operate" mode="constant" value="true"/> 
  </image>
  <line x1="1147.01" y1="207.515" x2="1147.01" y2="153" stroke="black" stroke-width="3"/> 
  <line x1="1147.53" y1="283.058" x2="1147.53" y2="228.543" stroke="black" stroke-width="3"/> 
  <image x="1102.82" y="183.864" width="70" height="65" xlink:href="DS_CO_valve_tenzor.svg" transform="rotate(270 0 -10)">
    <title>00KLS31AA005</title>
    <rt:dyn type="KKS" mode="constant" value="&quot;00KLS31AA005&quot;"/> 
    <rt:dyn type="DATA_NARY" mode="constant" value="&quot;TYPE2&quot;"/> 
    <rt:dyn type="Operate" mode="constant" value="true"/> 
  </image>
  <image x="1128.24" y="267.879" width="70" height="70" xlink:href="DS_motor_tenzor.svg" transform="rotate(270 0 0)">
    <title>00KLS31AN001</title>
    <rt:dyn type="KKS" mode="constant" value="&quot;00KLS31AN001&quot;"/> 
    <rt:dyn type="DATA_NARY" mode="constant" value="&quot;TYPE2&quot;"/> 
    <rt:dyn type="Operate" mode="constant" value="true"/> 
    <rt:dyn type="DeviceType" mode="constant" value="&quot;fan&quot;"/> 
  </image>
  <image x="1429" y="269" width="70" height="70" xlink:href="DS_motor_tenzor.svg" transform="rotate(270 0 0)">
    <title>00KLS31AN002</title>
    <rt:dyn type="KKS" mode="constant" value="&quot;00KLS31AN002&quot;"/> 
    <rt:dyn type="DATA_NARY" mode="constant" value="&quot;TYPE2&quot;"/> 
    <rt:dyn type="Operate" mode="constant" value="true"/> 
    <rt:dyn type="DeviceType" mode="constant" value="&quot;fan&quot;"/> 
  </image>
  <image x="200.652" y="236.455" width="160" height="30" xlink:href="ps_tenzor_m0.svg">
    <title>00KLS30AN001</title>
    <rt:dyn type="KKS" mode="constant" value="&quot;00KLS30AN001&quot;"/> 
  </image>
  <image x="503.181" y="235.955" width="160" height="30" xlink:href="ps_tenzor_m0.svg">
    <title>00KLS30AN002</title>
    <rt:dyn type="KKS" mode="constant" value="&quot;00KLS30AN002&quot;"/> 
  </image>
  <image x="1067.32" y="242.515" width="160" height="30" xlink:href="ps_tenzor_m0.svg">
    <title>00KLS31AN001</title>
    <rt:dyn type="KKS" mode="constant" value="&quot;00KLS31AN001&quot;"/> 
  </image>
  <image x="1369.85" y="242.015" width="160" height="30" xlink:href="ps_tenzor_m0.svg">
    <title>00KLS31AN002</title>
    <rt:dyn type="KKS" mode="constant" value="&quot;00KLS31AN002&quot;"/> 
  </image>
</svg>
