<?xml  version="1.0" encoding="UTF-8"?>
<svg color="Col_BGSand" xmlns="http://www.w3.org/2000/svg" xmlns:rt="http://www.rts.co.at/2001/XMLSchema/RtSvgPL" xmlns:xlink="http://www.w3.org/1999/xlink" xmlns:xsi="http://www.w3.org/2001/XMLSchema-instance" xsi:schemaLocation="http://www.w3.org/2000/svg C:\RTS\RtSvg\XML\SVG.xsd" viewBox="0 0 1920 1080" width="1920" height="1080" id="00kle83">
  <rt:model modelversion="7.2.0.24" revision="1"/> 
  <text x="25" y="25" font-size="15">00UKU 00CXV07GH002 00KLE83</text>
  <rect x="37.5152" y="48.5758" width="285.364" height="85.3637" rx="0" ry="0" fill="Col_BGSand" stroke="black" stroke-width="2"/> 
  <text x="56.8852" y="72.6668" fill="black" font-size="15">Ðåæèì ðàáîòû 00KLE83</text>
  <image x="50.4551" y="96.0608" width="181.818" height="24.2424" xlink:href="bitwise_tablo_4bits.svg">
    <title>00KLE83_XK92</title>
    <rt:dyn type="PointID_1" mode="constant" value="&quot;00KLE83_XK92&quot;"/> 
    <rt:dyn type="Text_0000" mode="constant" value="&quot;ÀÂÒÎÌÀÒÈ×ÅÑÊÈÉ&quot;"/> 
    <rt:dyn type="Color_0001" mode="constant" value="&quot;Col_Green&quot;"/> 
    <rt:dyn type="Text_0001" mode="constant" value="&quot;ÄÈÑÒÀÍÖÈÎÍÍÛÉ&quot;"/> 
    <rt:dyn type="Color_0000" mode="constant" value="&quot;Col_Green&quot;"/> 
  </image>
  <image x="249.185" y="90.4848" width="60" height="30" xlink:href="ps_tenzor_system.svg">
    <title>00KLE83</title>
    <rt:dyn type="KKS" mode="constant" value="&quot;00KLE83&quot;"/> 
  </image>
  <polygon points="-1177.64,82.811 -1167.64,99.811 -1187.64,99.811" transform="rotate(210 453.5 42.9997) rotate(90 31.3333 552.5) rotate(0 1.4013e-045 3.14533e-039) flipY(460.5)"/> 
  <line x1="689.05" y1="333.423" x2="689.05" y2="242.515" stroke="black" stroke-width="3"/> 
  <g transform="flipX(25.3379)">
    <line x1="-327.481" y1="886.303" x2="-266.481" y2="886.303" stroke="black" stroke-width="1"/> 
    <line x1="-265.491" y1="878.803" x2="-265.491" y2="892.803" stroke="black" stroke-width="1"/> 
  </g>
  <line x1="690.7" y1="244.287" x2="994.04" y2="244.62" stroke="black" stroke-width="3"/> 
  <text x="630.455" y="344.545" fill="black" font-size="15" text-anchor="middle">00KLE83<tspan x="630.455" dy="15">AN001</tspan>
  </text>
  <text x="1083.48" y="336.97" fill="black" font-size="15" text-anchor="middle">00KLE83<tspan x="1083.48" dy="15">AN002</tspan>
  </text>
  <g transform="rotate(0 609.241 429.584) scale(0.765552 0.765552 609.241 429.584)">
    <rect x="679.014" y="201.559" width="66.8757" height="34.9577" rx="0" ry="0" fill="Col_BGSand" stroke="black"/> 
    <polygon points="714.934,201.728 679.824,236.334 710.674,236.084 745.094,201.738" fill="Col_Grey2" stroke="black"/> 
  </g>
  <line x1="706.667" y1="999.091" x2="706.667" y2="351.669" stroke="black" stroke-width="3"/> 
  <image x="671.365" y="321.303" width="70" height="70" xlink:href="DS_motor_tenzor.svg" transform="rotate(270 0 0)">
    <title>00KLE83AN001</title>
    <rt:dyn type="KKS" mode="constant" value="&quot;00KLE83AN001&quot;"/> 
    <rt:dyn type="DATA_NARY" mode="constant" value="&quot;TYPE2&quot;"/> 
    <rt:dyn type="Operate" mode="constant" value="true"/> 
    <rt:dyn type="DeviceType" mode="constant" value="&quot;fan&quot;"/> 
  </image>
  <line x1="992.83" y1="333.848" x2="992.83" y2="242.939" stroke="black" stroke-width="3"/> 
  <line x1="1005.7" y1="999.091" x2="1008" y2="361.669" stroke="black" stroke-width="3"/> 
  <g transform="rotate(0 609.241 429.584) scale(0.765552 0.765552 609.241 429.584)">
    <rect x="1079.16" y="200.85" width="66.8757" height="34.9577" rx="0" ry="0" fill="Col_BGSand" stroke="black"/> 
    <polygon points="1115.08,201.019 1079.97,235.626 1110.82,235.376 1145.24,201.029" fill="Col_Grey2" stroke="black"/> 
  </g>
  <image x="745.88" y="258.639" width="181.818" height="24.2424" xlink:href="bitwise_tablo_4bits.svg">
    <title>00KLE83AN001002</title>
    <rt:dyn type="PointID_1" mode="constant" value="&quot;00KLE83AN001002_Z0 0&quot;"/> 
    <rt:dyn type="Text_0001" mode="constant" value="&quot;ÀÂÐ ÍÅ ÃÎÒÎÂ&quot;"/> 
    <rt:dyn type="Text_0000" mode="constant" value="&quot;ÀÂÐ ÄÈÑÒ&quot;"/> 
    <rt:dyn type="Color_0010" mode="constant" value="&quot;Col_Yellow&quot;"/> 
    <rt:dyn type="Color_0001" mode="constant" value="&quot;Col_Green&quot;"/> 
    <rt:dyn type="Text_0010" mode="constant" value="&quot;ÀÂÐ ÃÎÒÎÂ&quot;"/> 
    <rt:dyn type="PointID_2" mode="constant" value="&quot;00KLE83AN001002_Z0 1&quot;"/> 
    <rt:dyn type="PointID_3" mode="constant" value="&quot;00KLE83AN001002_Z0 2&quot;"/> 
    <rt:dyn type="PointID_4" mode="constant" value="&quot;00KLE83AN001002_Z0 3&quot;"/> 
    <rt:dyn type="Text_0100" mode="constant" value="&quot;ÀÂÐ ÑÐÀÁÎÒÀË&quot;"/> 
    <rt:dyn type="Color_0100" mode="constant" value="&quot;Col_Red&quot;"/> 
    <rt:dyn type="Color_0000" mode="constant" value="&quot;Col_Grey3&quot;"/> 
  </image>
  <polyline points="1204.01,1090.98 1254.01,1090.98 1253.51,1140.98 1204.01,1140.48 1204.01,1090.98" fill="Col_BGSand" stroke="black" stroke-width="3" transform="rotate(44.0618 1325.51 325.508)"/> 
  <line x1="705.923" y1="620.303" x2="484.879" y2="619.758" stroke="black" stroke-width="3"/> 
  <text x="757.393" y="860.292" fill="black" font-size="15" text-anchor="middle">00KLE83<tspan x="757.393" dy="15">AT001</tspan>
  </text>
  <line x1="674.65" y1="826.565" x2="743.65" y2="826.565" stroke="black" stroke-dasharray="5,5"/> 
  <line x1="633.653" y1="768.864" x2="694.653" y2="768.864" stroke="black" stroke-width="1"/> 
  <line x1="633.973" y1="768.289" x2="633.973" y2="876.879" stroke="black" stroke-width="1"/> 
  <line x1="695.643" y1="761.364" x2="695.643" y2="775.364" stroke="black" stroke-width="1"/> 
  <line x1="633.643" y1="822.864" x2="604.433" y2="822.864" stroke="black" stroke-width="1"/> 
  <image x="430.23" y="546.64" width="65" height="25" xlink:href="DS_Reg_degree.svg">
    <title>00SBU24AA201</title>
    <rt:dyn type="KKS" mode="constant" value="&quot;00SBU24AA201&quot;"/> 
    <rt:dyn type="SIGNAL" mode="constant" value="&quot;XQ54&quot;"/> 
  </image>
  <image x="429.423" y="809.955" width="175" height="25" xlink:href="DS_ana_tenzor.svg">
    <title>00KLE83CP001</title>
    <rt:dyn type="FKKS" mode="constant" value="&quot;00KLE83CP001&quot;"/> 
    <rt:dyn type="X" mode="constant" value="&quot;dP&quot;"/> 
    <rt:dyn type="ShowFrame" mode="constant" value="true"/> 
    <rt:dyn type="ValueToTheRight" mode="constant" value="false"/> 
    <rt:dyn type="Color_Readings" mode="constant" value="true"/> 
  </image>
  <text x="757.293" y="703.807" fill="black" font-size="15" text-anchor="middle">00KLE83<tspan x="757.293" dy="15">AH001</tspan>
  </text>
  <text x="386.913" y="590.515" fill="black" font-size="15" text-anchor="middle">00SBU24<tspan x="386.913" dy="15">AA201</tspan>
  </text>
  <line x1="445.38" y1="618.469" x2="310.639" y2="618.469" stroke="black" stroke-width="3"/> 
  <image x="427.56" y="576.14" width="70" height="65" xlink:href="DS_Reg_valve_tenzor.svg">
    <title>00SBU24AA201</title>
    <rt:dyn type="DATA_NARY" mode="constant" value="&quot;TYPE2&quot;"/> 
    <rt:dyn type="Operate" mode="constant" value="true"/> 
    <rt:dyn type="KKS" mode="constant" value="&quot;00SBU24AA201&quot;"/> 
  </image>
  <text x="636.637" y="943.575" fill="black" font-size="15" text-anchor="middle">00KLE83<tspan x="636.637" dy="15">AA001</tspan>
  </text>
  <image x="671.067" y="923.575" width="70" height="45" xlink:href="DS_pivot_valve_tenzor.svg">
    <title>00KLE83AA001</title>
    <rt:dyn type="KKS" mode="constant" value="&quot;00KLE83AA001&quot;"/> 
    <rt:dyn type="DATA_NARY" mode="constant" value="&quot;TYPE2&quot;"/> 
    <rt:dyn type="Operate" mode="constant" value="true"/> 
  </image>
  <line x1="311.376" y1="936.863" x2="311.376" y2="618.681" stroke="black" stroke-width="3"/> 
  <polygon points="-554.032,899.59 -544.032,916.59 -564.032,916.59" transform="flipY(495.63) rotate(210 453.5 42.9997) rotate(90 31.3333 552.5) rotate(0 1.4013e-045 3.14533e-039) flipY(460.5)"/> 
  <line x1="633.453" y1="875.773" x2="694.453" y2="875.773" stroke="black" stroke-width="1"/> 
  <line x1="695.443" y1="868.273" x2="695.443" y2="882.273" stroke="black" stroke-width="1"/> 
  <image x="335.334" y="873.303" width="175" height="25" xlink:href="DS_ana_tenzor.svg">
    <title>00SBU24CT001</title>
    <rt:dyn type="FKKS" mode="constant" value="&quot;00SBU24CT001&quot;"/> 
    <rt:dyn type="X" mode="constant" value="&quot;T&quot;"/> 
    <rt:dyn type="ShowFrame" mode="constant" value="true"/> 
    <rt:dyn type="ValueToTheRight" mode="constant" value="false"/> 
    <rt:dyn type="Color_Readings" mode="constant" value="true"/> 
  </image>
  <line x1="610.203" y1="768.663" x2="511.363" y2="768.573" stroke="black" stroke-width="3"/> 
  <line x1="609.833" y1="769.877" x2="609.833" y2="678.97" stroke="black" stroke-width="3"/> 
  <line x1="706.653" y1="679.53" x2="607.823" y2="679.44" stroke="black" stroke-width="3"/> 
  <polygon points="-65.4283,179.703 -55.4282,196.703 -75.4283,196.703" transform="rotate(300 453.5 42.9997) rotate(90 31.3333 552.5) rotate(0 1.4013e-045 3.14533e-039) flipY(460.5)"/> 
  <polygon points="-1030.08,-176.654 -1020.08,-159.654 -1040.08,-159.654" transform="rotate(210 453.5 42.9997) rotate(90 31.3333 552.5) rotate(0 1.4013e-045 3.14533e-039) flipY(460.5)"/> 
  <polyline points="1424.88,887.106 1474.88,887.106 1474.38,937.106 1424.88,936.606 1424.88,887.106" fill="Col_BGSand" stroke="black" stroke-width="3" transform="rotate(44.0618 1325.51 325.508)"/> 
  <text x="951.153" y="860.292" fill="black" font-size="15" text-anchor="middle">00KLE83<tspan x="951.153" dy="15">AT002</tspan>
  </text>
  <line x1="975.133" y1="833.656" x2="1044.13" y2="833.656" stroke="black" stroke-dasharray="5,5"/> 
  <line x1="1076.1" y1="777.744" x2="1076.1" y2="886.334" stroke="black" stroke-width="1"/> 
  <line x1="1014.77" y1="771.819" x2="1014.77" y2="785.819" stroke="black" stroke-width="1"/> 
  <text x="946.513" y="703.807" fill="black" font-size="15" text-anchor="middle">00KLE83<tspan x="946.513" dy="15">AH002</tspan>
  </text>
  <image x="971.557" y="924.513" width="70" height="45" xlink:href="DS_pivot_valve_tenzor.svg">
    <title>00KLE83AA002</title>
    <rt:dyn type="KKS" mode="constant" value="&quot;00KLE83AA002&quot;"/> 
    <rt:dyn type="DATA_NARY" mode="constant" value="&quot;TYPE2&quot;"/> 
    <rt:dyn type="Operate" mode="constant" value="true"/> 
  </image>
  <line x1="1014.46" y1="885.349" x2="1075.46" y2="885.349" stroke="black" stroke-width="1"/> 
  <line x1="1013.9" y1="877.334" x2="1013.9" y2="891.334" stroke="black" stroke-width="1"/> 
  <text x="1077.61" y="944.742" fill="black" font-size="15" text-anchor="middle">00KLE83<tspan x="1077.61" dy="15">AA002</tspan>
  </text>
  <image x="975.77" y="317.669" width="70" height="70" xlink:href="DS_motor_tenzor.svg" transform="rotate(270 0 0)">
    <title>00KLE83AN002</title>
    <rt:dyn type="KKS" mode="constant" value="&quot;00KLE83AN002&quot;"/> 
    <rt:dyn type="DATA_NARY" mode="constant" value="&quot;TYPE2&quot;"/> 
    <rt:dyn type="Operate" mode="constant" value="true"/> 
    <rt:dyn type="DeviceType" mode="constant" value="&quot;fan&quot;"/> 
  </image>
  <line x1="1233.92" y1="624.923" x2="1010.85" y2="626.364" stroke="black" stroke-width="3"/> 
  <image x="1215.86" y="553.246" width="65" height="25" xlink:href="DS_Reg_degree.svg">
    <title>00SBU24AA202</title>
    <rt:dyn type="KKS" mode="constant" value="&quot;00SBU24AA202&quot;"/> 
    <rt:dyn type="SIGNAL" mode="constant" value="&quot;XQ54&quot;"/> 
  </image>
  <text x="1320.52" y="603.47" fill="black" font-size="15" text-anchor="middle">00SBU24<tspan x="1320.52" dy="15">AA202</tspan>
  </text>
  <line x1="1400.23" y1="626.059" x2="1265.49" y2="625.833" stroke="black" stroke-width="3"/> 
  <image x="1213.19" y="582.746" width="70" height="65" xlink:href="DS_Reg_valve_tenzor.svg">
    <title>00SBU24AA202</title>
    <rt:dyn type="DATA_NARY" mode="constant" value="&quot;TYPE2&quot;"/> 
    <rt:dyn type="Operate" mode="constant" value="true"/> 
    <rt:dyn type="KKS" mode="constant" value="&quot;00SBU24AA202&quot;"/> 
  </image>
  <line x1="1399.54" y1="943.984" x2="1399.54" y2="625.802" stroke="black" stroke-width="3"/> 
  <polygon points="-15.731,-46.4962 -5.73108,-29.4962 -25.731,-29.4962" transform="flipY(495.63) rotate(210 453.5 42.9997) rotate(90 31.3333 552.5) rotate(0 1.4013e-045 3.14533e-039) flipY(460.5)"/> 
  <line x1="1104.09" y1="831.833" x2="1074.88" y2="831.833" stroke="black" stroke-width="1"/> 
  <image x="1100.69" y="820.485" width="175" height="25" xlink:href="DS_ana_tenzor.svg">
    <title>00KLE83CP002</title>
    <rt:dyn type="FKKS" mode="constant" value="&quot;00KLE83CP002&quot;"/> 
    <rt:dyn type="X" mode="constant" value="&quot;dP&quot;"/> 
    <rt:dyn type="ShowFrame" mode="constant" value="true"/> 
    <rt:dyn type="ValueToTheRight" mode="constant" value="false"/> 
    <rt:dyn type="Color_Readings" mode="constant" value="true"/> 
  </image>
  <g transform="flipX(66.7317) flipX(25.3379)">
    <line x1="1248.85" y1="886.378" x2="1309.84" y2="886.378" stroke="black" stroke-width="1"/> 
    <line x1="1310.83" y1="878.878" x2="1310.83" y2="892.878" stroke="black" stroke-width="1"/> 
  </g>
  <image x="1192.24" y="872.818" width="175" height="25" xlink:href="DS_ana_tenzor.svg">
    <title>00SBU24CT002</title>
    <rt:dyn type="FKKS" mode="constant" value="&quot;00SBU24CT002&quot;"/> 
    <rt:dyn type="X" mode="constant" value="&quot;T&quot;"/> 
    <rt:dyn type="ShowFrame" mode="constant" value="true"/> 
    <rt:dyn type="ValueToTheRight" mode="constant" value="false"/> 
    <rt:dyn type="Color_Readings" mode="constant" value="true"/> 
  </image>
  <line x1="830.455" y1="245.572" x2="830.455" y2="38.4849" stroke="black" stroke-width="3"/> 
  <polygon points="-285.586,456.057 -275.586,473.057 -295.586,473.057" transform="rotate(210 453.5 42.9997) rotate(90 31.3333 552.5) rotate(0 1.4013e-045 3.14533e-039) flipY(460.5)"/> 
  <image x="641.543" y="585.145" width="130" height="128.857" xlink:href="ps_TempValve.svg">
    <title>00KLE83AH001</title>
    <rt:dyn type="TYPE" mode="constant" value="&quot;TYPE2&quot;"/> 
  </image>
  <image x="548.636" y="161.212" width="175" height="25" xlink:href="DS_ana_tenzor.svg">
    <title>00KLE83CT001</title>
    <rt:dyn type="FKKS" mode="constant" value="&quot;00KLE83CT001&quot;"/> 
    <rt:dyn type="X" mode="constant" value="&quot;T&quot;"/> 
    <rt:dyn type="ShowFrame" mode="constant" value="true"/> 
    <rt:dyn type="ValueToTheRight" mode="constant" value="false"/> 
    <rt:dyn type="Color_Readings" mode="constant" value="true"/> 
  </image>
  <line x1="1106.56" y1="689.621" x2="1007.73" y2="689.531" stroke="black" stroke-width="3"/> 
  <line x1="1105.68" y1="779.937" x2="1105.68" y2="689.03" stroke="black" stroke-width="3"/> 
  <line x1="1203.51" y1="778.501" x2="1104.67" y2="778.411" stroke="black" stroke-width="3"/> 
  <polygon points="370.571,420.369 380.571,437.369 360.571,437.369" transform="flipX(1104.27) rotate(300 453.5 42.9997) rotate(90 31.3333 552.5) rotate(0 1.4013e-045 3.14533e-039) flipY(460.5)"/> 
  <line x1="698.636" y1="532.424" x2="511.092" y2="532.424" stroke="black" stroke-width="3"/> 
  <line x1="685.409" y1="472.5" x2="242" y2="472.5" stroke="black" stroke-width="3"/> 
  <polyline points="1040.52,738.133 1091.07,738.707 1089.56,788.511 1040.52,787.631 1040.52,738.133" fill="Col_BGSand" stroke="black" stroke-width="3" transform="scale(1.2596 1.2596 1325.51 325.508) rotate(44.0618 1325.51 325.508)"/> 
  <line x1="672.874" y1="494.181" x2="742.124" y2="494.181" stroke="black" stroke-width="3"/> 
  <g>
    <polygon points="1936.62,494.181 1919.62,489.181 1919.62,499.681" transform="flipX(1300.5)"/> 
  </g>
  <g transform="rotate(180 1310.95 462.826)">
    <polygon points="729.254,431.471 712.254,426.471 712.254,436.971" transform="flipX(1300.5)"/> 
  </g>
  <text x="757.666" y="530.349" fill="black" font-size="15" text-anchor="middle">00KLE83<tspan x="757.666" dy="15">AH001</tspan>
  </text>
  <polygon points="11.1362,831.258 21.1362,848.258 1.13622,848.258" transform="rotate(90 31.3333 552.5) rotate(0 1.4013e-045 3.14533e-039) flipY(460.5)"/> 
  <line x1="243.516" y1="474.064" x2="243.501" y2="348.307" stroke="black" stroke-width="3"/> 
  <line x1="147.607" y1="348.717" x2="90.032" y2="348.717" stroke="black" stroke-width="3"/> 
  <image x="121.819" y="277.125" width="65" height="25" xlink:href="DS_Reg_degree.svg">
    <title>00QKS05AA201</title>
    <rt:dyn type="KKS" mode="constant" value="&quot;00QKS05AA201&quot;"/> 
    <rt:dyn type="SIGNAL" mode="constant" value="&quot;XQ54&quot;"/> 
  </image>
  <polygon points="-172.45,477.741 -162.45,494.741 -182.45,494.741" transform="flipX(122.287) rotate(90 31.3333 552.5) rotate(0 1.4013e-045 3.14533e-039) flipY(460.5)"/> 
  <polyline points="1207.62,567.572 1258.17,568.146 1256.66,617.95 1207.62,617.07 1207.62,567.572" fill="Col_BGSand" stroke="black" stroke-width="3" transform="scale(1.2596 1.2596 1325.51 325.508) rotate(44.0618 1325.51 325.508)"/> 
  <line x1="973.529" y1="486.175" x2="1042.78" y2="486.175" stroke="black" stroke-width="3"/> 
  <g>
    <polygon points="1635.96,486.175 1618.96,481.175 1618.96,491.675" transform="flipX(1300.5)"/> 
  </g>
  <g transform="rotate(180 1310.95 462.826)">
    <polygon points="1029.91,439.477 1012.91,434.477 1012.91,444.977" transform="flipX(1300.5)"/> 
  </g>
  <text x="947.121" y="530.349" fill="black" font-size="15" text-anchor="middle">00KLE83<tspan x="947.121" dy="15">AH002</tspan>
  </text>
  <text x="228.182" y="328.258" fill="black" font-size="15" text-anchor="middle">00QKS05<tspan x="228.182" dy="15">AA201</tspan>
  </text>
  <line x1="243.539" y1="349.822" x2="158.668" y2="349.822" stroke="black" stroke-width="3"/> 
  <image x="119.365" y="306.368" width="70" height="65" xlink:href="DS_Reg_valve_tenzor.svg">
    <title>00QKS05AA201</title>
    <rt:dyn type="DATA_NARY" mode="constant" value="&quot;TYPE2&quot;"/> 
    <rt:dyn type="Operate" mode="constant" value="true"/> 
    <rt:dyn type="KKS" mode="constant" value="&quot;00QKS05AA201&quot;"/> 
  </image>
  <line x1="1473.41" y1="462.712" x2="1030" y2="462.712" stroke="black" stroke-width="3"/> 
  <line x1="1474.94" y1="464.242" x2="1474.92" y2="338.485" stroke="black" stroke-width="3"/> 
  <line x1="1560.85" y1="339.617" x2="1475.98" y2="339.617" stroke="black" stroke-width="3"/> 
  <line x1="1635.06" y1="338.499" x2="1577.49" y2="338.499" stroke="black" stroke-width="3"/> 
  <image x="1536.06" y="266.458" width="65" height="25" xlink:href="DS_Reg_degree.svg">
    <title>00QKS05AA202</title>
    <rt:dyn type="KKS" mode="constant" value="&quot;00QKS05AA202&quot;"/> 
    <rt:dyn type="SIGNAL" mode="constant" value="&quot;XQ54&quot;"/> 
  </image>
  <polygon points="-182.743,-1065.77 -172.743,-1048.77 -192.743,-1048.77" transform="flipX(122.287) rotate(90 31.3333 552.5) rotate(0 1.4013e-045 3.14533e-039) flipY(460.5)"/> 
  <text x="1497" y="316.5" fill="black" font-size="15" text-anchor="middle">00QKS05<tspan x="1497" dy="15">AA202</tspan>
  </text>
  <image x="1533.56" y="295.701" width="70" height="65" xlink:href="DS_Reg_valve_tenzor.svg">
    <title>00QKS05AA202</title>
    <rt:dyn type="DATA_NARY" mode="constant" value="&quot;TYPE2&quot;"/> 
    <rt:dyn type="Operate" mode="constant" value="true"/> 
    <rt:dyn type="KKS" mode="constant" value="&quot;00QKS05AA202&quot;"/> 
  </image>
  <line x1="1199.32" y1="523.363" x2="1011.77" y2="523.363" stroke="black" stroke-width="3"/> 
  <polygon points="2.1061,1554.3 12.106,1571.3 -7.89393,1571.3" transform="flipX(1211.68) rotate(90 31.3333 552.5) rotate(0 1.4013e-045 3.14533e-039) flipY(460.5)"/> 
  <image x="942.023" y="593.084" width="130" height="128.857" xlink:href="ps_TempValve.svg">
    <title>00KLE83AH002</title>
    <rt:dyn type="TYPE" mode="constant" value="&quot;TYPE2&quot;"/> 
  </image>
  <g transform="flipX(25.3379)">
    <line x1="-1024.09" y1="412.136" x2="-963.087" y2="412.136" stroke="black" stroke-width="1"/> 
    <line x1="-962.097" y1="404.636" x2="-962.097" y2="418.636" stroke="black" stroke-width="1"/> 
  </g>
  <image x="1046" y="398" width="175" height="25" xlink:href="DS_ana_tenzor.svg">
    <title>00KLE83CT007</title>
    <rt:dyn type="FKKS" mode="constant" value="&quot;00KLE83CT007&quot;"/> 
    <rt:dyn type="X" mode="constant" value="&quot;T&quot;"/> 
    <rt:dyn type="ShowFrame" mode="constant" value="true"/> 
    <rt:dyn type="ValueToTheRight" mode="constant" value="false"/> 
    <rt:dyn type="Color_Readings" mode="constant" value="true"/> 
  </image>
  <g transform="flipX(66.7317) flipX(25.3379)">
    <line x1="553.732" y1="412.652" x2="614.722" y2="412.652" stroke="black" stroke-width="1"/> 
    <line x1="615.712" y1="405.152" x2="615.712" y2="419.152" stroke="black" stroke-width="1"/> 
  </g>
  <image x="515.5" y="330" width="25" height="25" xlink:href="bin_indicator.svg">
    <title>00KLE83AN001_XM62</title>
    <rt:dyn type="PointID" mode="constant" value="&quot;00KLE83AN001_XM62&quot;"/> 
  </image>
  <text x="528" y="371.501" fill="black" font-size="15" text-anchor="middle">Îòêëþ÷åí<tspan x="528" dy="15">ïî áëîêèðîâêå</tspan>
  </text>
  <image x="1151.5" y="327" width="25" height="25" xlink:href="bin_indicator.svg">
    <title>00KLE83AN002_XM62</title>
    <rt:dyn type="PointID" mode="constant" value="&quot;00KLE83AN002_XM62&quot;"/> 
  </image>
  <text x="1164" y="368.501" fill="black" font-size="15" text-anchor="middle">Îòêëþ÷åí<tspan x="1164" dy="15">ïî áëîêèðîâêå</tspan>
  </text>
  <polyline points="672.25,172.5 773.76,172.5 773.76,237.151" fill="none" stroke="black"/> 
  <line x1="168.091" y1="118.977" x2="168.091" y2="132.977" stroke="black" stroke-width="1" transform="rotate(90 414.288 484.879)"/> 
  <polyline points="-823.22,173.531 -721.7,173.531 -721.7,238.182" fill="none" stroke="black" transform="flipX(78.4317)"/> 
  <line x1="168.092" y1="14.644" x2="168.092" y2="28.644" stroke="black" stroke-width="1" transform="rotate(90 414.288 484.879)"/> 
  <polyline points="648,217.954 749.52,217.954 749.52,238.666" fill="none" stroke="black"/> 
  <line x1="168.091" y1="143.189" x2="168.091" y2="157.189" stroke="black" stroke-width="1" transform="rotate(90 414.288 484.879)"/> 
  <polyline points="-771.7,215.924 -670.18,215.924 -670.18,236.635" fill="none" stroke="black" transform="flipX(116.311)"/> 
  <line x1="168.092" y1="-9.599" x2="168.092" y2="4.401" stroke="black" stroke-width="1" transform="rotate(90 414.288 484.879)"/> 
  <image x="941.424" y="160.697" width="175" height="25" xlink:href="DS_ana_tenzor.svg">
    <title>00KLE83CT002</title>
    <rt:dyn type="FKKS" mode="constant" value="&quot;00KLE83CT002&quot;"/> 
    <rt:dyn type="X" mode="constant" value="&quot;T&quot;"/> 
    <rt:dyn type="ShowFrame" mode="constant" value="true"/> 
    <rt:dyn type="ValueToTheRight" mode="constant" value="false"/> 
    <rt:dyn type="Color_Readings" mode="constant" value="true"/> 
  </image>
  <image x="941" y="202" width="175" height="25" xlink:href="DS_ana_tenzor.svg">
    <title>00KLE83CT004</title>
    <rt:dyn type="FKKS" mode="constant" value="&quot;00KLE83CT004&quot;"/> 
    <rt:dyn type="X" mode="constant" value="&quot;T&quot;"/> 
    <rt:dyn type="ShowFrame" mode="constant" value="true"/> 
    <rt:dyn type="ValueToTheRight" mode="constant" value="false"/> 
    <rt:dyn type="Color_Readings" mode="constant" value="true"/> 
  </image>
  <polyline points="636.002,130 800,130 800,238" fill="none" stroke="black"/> 
  <line x1="167.909" y1="92.167" x2="167.909" y2="106.167" stroke="black" stroke-width="1" transform="rotate(90 414.288 484.879)"/> 
  <polyline points="1614,130.5 1778,130.5 1778,238.5" fill="none" stroke="black" transform="flipX(1317.25)"/> 
  <line x1="167.909" y1="36.167" x2="167.909" y2="50.167" stroke="black" stroke-width="1" transform="rotate(90 414.288 484.879)"/> 
  <image x="547" y="204" width="175" height="25" xlink:href="DS_ana_tenzor.svg">
    <title>00KLE83CT003</title>
    <rt:dyn type="FKKS" mode="constant" value="&quot;00KLE83CT003&quot;"/> 
    <rt:dyn type="X" mode="constant" value="&quot;T&quot;"/> 
    <rt:dyn type="ShowFrame" mode="constant" value="true"/> 
    <rt:dyn type="ValueToTheRight" mode="constant" value="false"/> 
    <rt:dyn type="Color_Readings" mode="constant" value="true"/> 
  </image>
  <g transform="flipX(25.3379)">
    <line x1="-847.302" y1="92.4698" x2="-786.299" y2="92.4698" stroke="black" stroke-width="1"/> 
    <line x1="-785.309" y1="84.9698" x2="-785.309" y2="98.9698" stroke="black" stroke-width="1"/> 
  </g>
  <image x="874.394" y="79.394" width="175" height="25" xlink:href="DS_ana_tenzor.svg">
    <title>00KLE83CT005</title>
    <rt:dyn type="FKKS" mode="constant" value="&quot;00KLE83CT005&quot;"/> 
    <rt:dyn type="X" mode="constant" value="&quot;T&quot;"/> 
    <rt:dyn type="ShowFrame" mode="constant" value="true"/> 
    <rt:dyn type="ValueToTheRight" mode="constant" value="false"/> 
    <rt:dyn type="Color_Readings" mode="constant" value="true"/> 
  </image>
  <image x="981" y="116" width="175" height="25" xlink:href="DS_ana_tenzor.svg">
    <title>00KLE83CP004</title>
    <rt:dyn type="FKKS" mode="constant" value="&quot;00KLE83CP004&quot;"/> 
    <rt:dyn type="X" mode="constant" value="&quot;P&quot;"/> 
    <rt:dyn type="ShowFrame" mode="constant" value="true"/> 
    <rt:dyn type="ValueToTheRight" mode="constant" value="false"/> 
    <rt:dyn type="Color_Readings" mode="constant" value="true"/> 
  </image>
  <image x="487" y="118" width="175" height="25" xlink:href="DS_ana_tenzor.svg">
    <title>00KLE83CP003</title>
    <rt:dyn type="FKKS" mode="constant" value="&quot;00KLE83CP003&quot;"/> 
    <rt:dyn type="X" mode="constant" value="&quot;P&quot;"/> 
    <rt:dyn type="ShowFrame" mode="constant" value="true"/> 
    <rt:dyn type="ValueToTheRight" mode="constant" value="false"/> 
    <rt:dyn type="Color_Readings" mode="constant" value="true"/> 
  </image>
  <image x="492.576" y="400.606" width="175" height="25" xlink:href="DS_ana_tenzor.svg">
    <title>00KLE83CT006</title>
    <rt:dyn type="FKKS" mode="constant" value="&quot;00KLE83CT006&quot;"/> 
    <rt:dyn type="X" mode="constant" value="&quot;T&quot;"/> 
    <rt:dyn type="ShowFrame" mode="constant" value="true"/> 
    <rt:dyn type="ValueToTheRight" mode="constant" value="false"/> 
    <rt:dyn type="Color_Readings" mode="constant" value="true"/> 
  </image>
  <line x1="1015" y1="778.5" x2="1076" y2="778.5" stroke="black" stroke-width="1"/> 
  <image x="611.258" y="285.455" width="160" height="30" xlink:href="ps_tenzor_m0.svg">
    <title>00KLE83AN001</title>
    <rt:dyn type="KKS" mode="constant" value="&quot;00KLE83AN001&quot;"/> 
  </image>
  <image x="913.248" y="285.455" width="160" height="30" xlink:href="ps_tenzor_m0.svg">
    <title>00KLE83AN002</title>
    <rt:dyn type="KKS" mode="constant" value="&quot;00KLE83AN002&quot;"/> 
  </image>
  <image x="8" y="273" width="100" height="30" xlink:href="DS_Reg_set.svg">
    <title>00QKS05AA201</title>
    <rt:dyn type="KKS" mode="constant" value="&quot;00QKS05AA201&quot;"/> 
    <rt:dyn type="DATA_NARY" mode="constant" value="&quot;TYPE2&quot;"/> 
    <rt:dyn type="Operate" mode="constant" value="true"/> 
    <rt:dyn type="ShowGoodColor" mode="constant" value="true"/> 
  </image>
  <image x="316.818" y="541.515" width="100" height="30" xlink:href="DS_Reg_set.svg">
    <title>00SBU24AA201</title>
    <rt:dyn type="KKS" mode="constant" value="&quot;00SBU24AA201&quot;"/> 
    <rt:dyn type="DATA_NARY" mode="constant" value="&quot;TYPE2&quot;"/> 
    <rt:dyn type="Operate" mode="constant" value="true"/> 
    <rt:dyn type="ShowGoodColor" mode="constant" value="true"/> 
  </image>
  <image x="1297.12" y="550.606" width="100" height="30" xlink:href="DS_Reg_set.svg">
    <title>00SBU24AA202</title>
    <rt:dyn type="KKS" mode="constant" value="&quot;00SBU24AA202&quot;"/> 
    <rt:dyn type="DATA_NARY" mode="constant" value="&quot;TYPE2&quot;"/> 
    <rt:dyn type="Operate" mode="constant" value="true"/> 
    <rt:dyn type="ShowGoodColor" mode="constant" value="true"/> 
  </image>
  <image x="1616.82" y="262.727" width="100" height="30" xlink:href="DS_Reg_set.svg">
    <title>00QKS05AA202</title>
    <rt:dyn type="KKS" mode="constant" value="&quot;00QKS05AA202&quot;"/> 
    <rt:dyn type="DATA_NARY" mode="constant" value="&quot;TYPE2&quot;"/> 
    <rt:dyn type="Operate" mode="constant" value="true"/> 
    <rt:dyn type="ShowGoodColor" mode="constant" value="true"/> 
  </image>
</svg>
