<?xml  version="1.0" encoding="UTF-8"?>
<svg color="Col_BGSand" xmlns="http://www.w3.org/2000/svg" xmlns:rt="http://www.rts.co.at/2001/XMLSchema/RtSvgPL" xmlns:xlink="http://www.w3.org/1999/xlink" xmlns:xsi="http://www.w3.org/2001/XMLSchema-instance" xsi:schemaLocation="http://www.w3.org/2000/svg C:\RTS\RtSvg\XML\SVG.xsd" viewBox="0 0 1920 1080" width="1920" height="1080" id="00kle87_93">
  <rt:model modelversion="7.2.0.24" revision="1"/> 
  <text x="25" y="25" font-size="15">00UKU 00CXV07GH002 00KLE87 / 00KLE93</text>
  <polygon points="-1320.71,447.707 -1310.71,464.707 -1330.71,464.707" transform="rotate(210 453.5 42.9997) rotate(90 31.3333 552.5) rotate(0 1.4013e-045 3.14533e-039) flipY(460.5)"/> 
  <line x1="306.72" y1="387.754" x2="306.72" y2="296.846" stroke="black" stroke-width="3"/> 
  <g transform="flipX(25.3379)">
    <line x1="-60.1472" y1="846.375" x2="0.8524" y2="845.875" stroke="black" stroke-width="1"/> 
    <line x1="1.8424" y1="838.875" x2="1.8424" y2="852.875" stroke="black" stroke-width="1"/> 
  </g>
  <line x1="305" y1="298" x2="610.705" y2="298" stroke="black" stroke-width="3"/> 
  <line x1="456.606" y1="299.269" x2="456.727" y2="137.636" stroke="black" stroke-width="3"/> 
  <text x="121.5" y="539.5" fill="black" font-size="15" text-anchor="middle">00SBU24<tspan x="121.5" dy="15">AA218</tspan>
  </text>
  <text x="697.5" y="392.5" fill="black" font-size="15" text-anchor="middle">00KLE87<tspan x="697.5" dy="15">AN002</tspan>
  </text>
  <g transform="rotate(0 609.241 429.584) scale(0.765552 0.765552 609.241 429.584)">
    <rect x="179.293" y="272.497" width="66.8757" height="34.9577" rx="0" ry="0" fill="Col_BGSand" stroke="black"/> 
    <polygon points="215.213,272.666 180.103,307.272 210.952,307.022 245.372,272.676" fill="Col_Grey2" stroke="black"/> 
  </g>
  <rect x="625.394" y="21.8182" width="285.364" height="85.3637" rx="0" ry="0" fill="Col_BGSand" stroke="black" stroke-width="2"/> 
  <text x="644.764" y="45.9092" fill="black" font-size="15">Режим работы 00KLE87</text>
  <image x="640.334" y="69.3032" width="181.818" height="24.2424" xlink:href="bitwise_tablo_4bits.svg">
    <title>00KLE87_XK92</title>
    <rt:dyn type="PointID_1" mode="constant" value="&quot;00KLE87_XK92&quot;"/> 
    <rt:dyn type="Text_0000" mode="constant" value="&quot;АВТОМАТИЧЕСКИЙ&quot;"/> 
    <rt:dyn type="Color_0001" mode="constant" value="&quot;Col_Green&quot;"/> 
    <rt:dyn type="Text_0001" mode="constant" value="&quot;ДИСТАНЦИОННЫЙ&quot;"/> 
    <rt:dyn type="Color_0000" mode="constant" value="&quot;Col_Green&quot;"/> 
  </image>
  <image x="839.064" y="63.7272" width="60" height="30" xlink:href="ps_tenzor_system.svg">
    <title>00KLE87</title>
    <rt:dyn type="KKS" mode="constant" value="&quot;00KLE87&quot;"/> 
  </image>
  <line x1="319" y1="937" x2="323.501" y2="405" stroke="black" stroke-width="3"/> 
  <image x="287.924" y="372.667" width="70" height="70" xlink:href="DS_motor_tenzor.svg" transform="rotate(270 0 0)">
    <title>00KLE87AN001</title>
    <rt:dyn type="KKS" mode="constant" value="&quot;00KLE87AN001&quot;"/> 
    <rt:dyn type="DATA_NARY" mode="constant" value="&quot;TYPE2&quot;"/> 
    <rt:dyn type="Operate" mode="constant" value="true"/> 
    <rt:dyn type="DeviceType" mode="constant" value="&quot;fan&quot;"/> 
  </image>
  <line x1="609.5" y1="387.179" x2="609.5" y2="296.27" stroke="black" stroke-width="3"/> 
  <line x1="621" y1="940" x2="624.667" y2="415" stroke="black" stroke-width="3"/> 
  <g transform="rotate(0 609.241 429.584) scale(0.765552 0.765552 609.241 429.584)">
    <rect x="578.43" y="270.517" width="66.8757" height="34.9577" rx="0" ry="0" fill="Col_BGSand" stroke="black"/> 
    <polygon points="614.351,270.686 579.24,305.293 610.091,305.043 644.51,270.696" fill="Col_Grey2" stroke="black"/> 
  </g>
  <image x="362.546" y="311.97" width="181.818" height="24.2424" xlink:href="bitwise_tablo_4bits.svg">
    <title>00KLE87AN001002</title>
    <rt:dyn type="PointID_1" mode="constant" value="&quot;00KLE87AN001002_Z0 0&quot;"/> 
    <rt:dyn type="Text_0001" mode="constant" value="&quot;АВР НЕ ГОТОВ&quot;"/> 
    <rt:dyn type="Text_0000" mode="constant" value="&quot;АВР ДИСТ&quot;"/> 
    <rt:dyn type="Color_0010" mode="constant" value="&quot;Col_Yellow&quot;"/> 
    <rt:dyn type="Color_0001" mode="constant" value="&quot;Col_Green&quot;"/> 
    <rt:dyn type="Text_0010" mode="constant" value="&quot;АВР ГОТОВ&quot;"/> 
    <rt:dyn type="PointID_2" mode="constant" value="&quot;00KLE87AN001002_Z0 1&quot;"/> 
    <rt:dyn type="PointID_3" mode="constant" value="&quot;00KLE87AN001002_Z0 2&quot;"/> 
    <rt:dyn type="PointID_4" mode="constant" value="&quot;00KLE87AN001002_Z0 3&quot;"/> 
    <rt:dyn type="Text_0100" mode="constant" value="&quot;АВР СРАБОТАЛ&quot;"/> 
    <rt:dyn type="Color_0100" mode="constant" value="&quot;Col_Red&quot;"/> 
    <rt:dyn type="Color_0000" mode="constant" value="&quot;Col_Grey3&quot;"/> 
  </image>
  <polyline points="885.608,1317.16 935.608,1317.16 935.108,1367.16 885.608,1366.66 885.608,1317.16" fill="Col_BGSand" stroke="black" stroke-width="3" transform="rotate(44.0618 1325.51 325.508)"/> 
  <line x1="322" y1="562" x2="215.545" y2="562" stroke="black" stroke-width="3"/> 
  <text x="375.667" y="796.818" fill="black" font-size="15" text-anchor="middle">00KLE87<tspan x="375.667" dy="15">AT001</tspan>
  </text>
  <line x1="288.561" y1="767.657" x2="357.561" y2="767.657" stroke="black" stroke-dasharray="5,5"/> 
  <line x1="251.106" y1="711.318" x2="312.106" y2="711.318" stroke="black" stroke-width="1"/> 
  <line x1="250.424" y1="710.743" x2="250.424" y2="819.333" stroke="black" stroke-width="1"/> 
  <line x1="313.096" y1="703.818" x2="313.096" y2="717.818" stroke="black" stroke-width="1"/> 
  <line x1="251.096" y1="765.258" x2="221.886" y2="765.258" stroke="black" stroke-width="1"/> 
  <image x="162.41" y="490.064" width="65" height="25" xlink:href="DS_Reg_degree.svg">
    <title>00SBU24AA218</title>
    <rt:dyn type="KKS" mode="constant" value="&quot;00SBU24AA218&quot;"/> 
    <rt:dyn type="SIGNAL" mode="constant" value="&quot;XQ54&quot;"/> 
  </image>
  <image x="54.9697" y="752.758" width="175" height="25" xlink:href="DS_ana_tenzor.svg">
    <title>00KLE87CP001</title>
    <rt:dyn type="FKKS" mode="constant" value="&quot;00KLE87CP001&quot;"/> 
    <rt:dyn type="X" mode="constant" value="&quot;dP&quot;"/> 
    <rt:dyn type="ShowFrame" mode="constant" value="true"/> 
    <rt:dyn type="ValueToTheRight" mode="constant" value="false"/> 
    <rt:dyn type="Color_Readings" mode="constant" value="true"/> 
  </image>
  <text x="374.747" y="640.758" fill="black" font-size="15" text-anchor="middle">00KLE87<tspan x="374.747" dy="15">AH001</tspan>
  </text>
  <text x="391.5" y="395.5" fill="black" font-size="15" text-anchor="middle">00KLE87<tspan x="391.5" dy="15">AN001</tspan>
  </text>
  <line x1="177.559" y1="561.893" x2="42.8182" y2="561.667" stroke="black" stroke-width="3"/> 
  <image x="159.74" y="519.564" width="70" height="65" xlink:href="DS_Reg_valve_tenzor.svg">
    <title>00SBU24AA218</title>
    <rt:dyn type="DATA_NARY" mode="constant" value="&quot;TYPE2&quot;"/> 
    <rt:dyn type="Operate" mode="constant" value="true"/> 
    <rt:dyn type="KKS" mode="constant" value="&quot;00SBU24AA218&quot;"/> 
  </image>
  <text x="244.818" y="901.364" fill="black" font-size="15" text-anchor="middle">00KLE87<tspan x="244.818" dy="15">AA001</tspan>
  </text>
  <image x="283.763" y="882.454" width="70" height="45" xlink:href="DS_pivot_valve_tenzor.svg">
    <title>00KLE87AA001</title>
    <rt:dyn type="KKS" mode="constant" value="&quot;00KLE87AA001&quot;"/> 
    <rt:dyn type="DATA_NARY" mode="constant" value="&quot;TYPE2&quot;"/> 
    <rt:dyn type="Operate" mode="constant" value="true"/> 
  </image>
  <line x1="41.3182" y1="878.303" x2="41.3182" y2="560.121" stroke="black" stroke-width="3"/> 
  <polygon points="-740.162,1104.84 -730.162,1121.84 -750.162,1121.84" transform="flipY(495.63) rotate(210 453.5 42.9997) rotate(90 31.3333 552.5) rotate(0 1.4013e-045 3.14533e-039) flipY(460.5)"/> 
  <line x1="249.909" y1="819.227" x2="310.909" y2="819.227" stroke="black" stroke-width="1"/> 
  <line x1="311.899" y1="811.727" x2="311.899" y2="825.727" stroke="black" stroke-width="1"/> 
  <image x="68.0003" y="832.454" width="175" height="25" xlink:href="DS_ana_tenzor.svg">
    <title>00SBU24CT018</title>
    <rt:dyn type="FKKS" mode="constant" value="&quot;00SBU24CT018&quot;"/> 
    <rt:dyn type="X" mode="constant" value="&quot;T&quot;"/> 
    <rt:dyn type="ShowFrame" mode="constant" value="true"/> 
    <rt:dyn type="ValueToTheRight" mode="constant" value="false"/> 
    <rt:dyn type="Color_Readings" mode="constant" value="true"/> 
  </image>
  <line x1="226.654" y1="710.378" x2="127.82" y2="710.288" stroke="black" stroke-width="3"/> 
  <line x1="226.288" y1="711.331" x2="226.288" y2="620.424" stroke="black" stroke-width="3"/> 
  <line x1="324.108" y1="620.984" x2="225.274" y2="620.894" stroke="black" stroke-width="3"/> 
  <image x="256.997" y="526.599" width="130" height="128.857" xlink:href="ps_TempValve.svg">
    <title>00KLE87AH001</title>
    <rt:dyn type="TYPE" mode="constant" value="&quot;TYPE2&quot;"/> 
  </image>
  <polygon points="-426.86,38.6327 -416.86,55.6327 -436.86,55.6327" transform="rotate(300 453.5 42.9997) rotate(90 31.3333 552.5) rotate(0 1.4013e-045 3.14533e-039) flipY(460.5)"/> 
  <polygon points="-1171.65,185.644 -1161.65,202.644 -1181.65,202.644" transform="rotate(210 453.5 42.9997) rotate(90 31.3333 552.5) rotate(0 1.4013e-045 3.14533e-039) flipY(460.5)"/> 
  <polyline points="1109.22,1113.91 1159.22,1113.91 1158.72,1163.91 1109.22,1163.41 1109.22,1113.91" fill="Col_BGSand" stroke="black" stroke-width="3" transform="rotate(44.0618 1325.51 325.508)"/> 
  <text x="568.606" y="806.076" fill="black" font-size="15" text-anchor="middle">00KLE87<tspan x="568.606" dy="15">AT002</tspan>
  </text>
  <line x1="590.593" y1="777.11" x2="659.593" y2="777.11" stroke="black" stroke-dasharray="5,5"/> 
  <line x1="693.556" y1="720.198" x2="693.556" y2="828.788" stroke="black" stroke-width="1"/> 
  <line x1="631.228" y1="713.273" x2="631.228" y2="727.273" stroke="black" stroke-width="1"/> 
  <text x="554.97" y="640.758" fill="black" font-size="15" text-anchor="middle">00KLE87<tspan x="554.97" dy="15">AH002</tspan>
  </text>
  <image x="586.248" y="884.393" width="70" height="45" xlink:href="DS_pivot_valve_tenzor.svg">
    <title>00KLE87AA002</title>
    <rt:dyn type="KKS" mode="constant" value="&quot;00KLE87AA002&quot;"/> 
    <rt:dyn type="DATA_NARY" mode="constant" value="&quot;TYPE2&quot;"/> 
    <rt:dyn type="Operate" mode="constant" value="true"/> 
  </image>
  <line x1="631.92" y1="827.803" x2="692.92" y2="827.803" stroke="black" stroke-width="1"/> 
  <line x1="631.359" y1="820.788" x2="631.359" y2="834.788" stroke="black" stroke-width="1"/> 
  <text x="695.909" y="904.167" fill="black" font-size="15" text-anchor="middle">00KLE87<tspan x="695.909" dy="15">AA002</tspan>
  </text>
  <image x="592.439" y="371" width="70" height="70" xlink:href="DS_motor_tenzor.svg" transform="rotate(270 0 0)">
    <title>00KLE87AN002</title>
    <rt:dyn type="KKS" mode="constant" value="&quot;00KLE87AN002&quot;"/> 
    <rt:dyn type="DATA_NARY" mode="constant" value="&quot;TYPE2&quot;"/> 
    <rt:dyn type="Operate" mode="constant" value="true"/> 
    <rt:dyn type="DeviceType" mode="constant" value="&quot;fan&quot;"/> 
  </image>
  <line x1="726.593" y1="567" x2="623" y2="567" stroke="black" stroke-width="3"/> 
  <image x="715.531" y="495.913" width="65" height="25" xlink:href="DS_Reg_degree.svg">
    <title>00SBU24AA219</title>
    <rt:dyn type="KKS" mode="constant" value="&quot;00SBU24AA219&quot;"/> 
    <rt:dyn type="SIGNAL" mode="constant" value="&quot;XQ54&quot;"/> 
  </image>
  <text x="817.5" y="547.5" fill="black" font-size="15" text-anchor="middle">00SBU24<tspan x="817.5" dy="15">AA219</tspan>
  </text>
  <line x1="901.895" y1="567.726" x2="767.154" y2="567.5" stroke="black" stroke-width="3"/> 
  <image x="712.861" y="525.413" width="70" height="65" xlink:href="DS_Reg_valve_tenzor.svg">
    <title>00SBU24AA219</title>
    <rt:dyn type="DATA_NARY" mode="constant" value="&quot;TYPE2&quot;"/> 
    <rt:dyn type="Operate" mode="constant" value="true"/> 
    <rt:dyn type="KKS" mode="constant" value="&quot;00SBU24AA219&quot;"/> 
  </image>
  <line x1="902.788" y1="883.681" x2="902.788" y2="565.499" stroke="black" stroke-width="3"/> 
  <polygon points="-308.619,359.031 -298.619,376.031 -318.619,376.031" transform="flipY(495.63) rotate(210 453.5 42.9997) rotate(90 31.3333 552.5) rotate(0 1.4013e-045 3.14533e-039) flipY(460.5)"/> 
  <line x1="721.548" y1="773.287" x2="692.338" y2="773.287" stroke="black" stroke-width="1"/> 
  <image x="714.061" y="761.333" width="175" height="25" xlink:href="DS_ana_tenzor.svg">
    <title>00KLE87CP002</title>
    <rt:dyn type="FKKS" mode="constant" value="&quot;00KLE87CP002&quot;"/> 
    <rt:dyn type="X" mode="constant" value="&quot;dP&quot;"/> 
    <rt:dyn type="ShowFrame" mode="constant" value="true"/> 
    <rt:dyn type="ValueToTheRight" mode="constant" value="false"/> 
    <rt:dyn type="Color_Readings" mode="constant" value="true"/> 
  </image>
  <g transform="flipX(66.7317) flipX(25.3379)">
    <line x1="751.974" y1="850.761" x2="812.973" y2="850.561" stroke="black" stroke-width="1"/> 
    <line x1="813.963" y1="843.261" x2="813.963" y2="857.261" stroke="black" stroke-width="1"/> 
  </g>
  <image x="695.364" y="837.212" width="175" height="25" xlink:href="DS_ana_tenzor.svg">
    <title>00SBU24CT019</title>
    <rt:dyn type="FKKS" mode="constant" value="&quot;00SBU24CT019&quot;"/> 
    <rt:dyn type="X" mode="constant" value="&quot;T&quot;"/> 
    <rt:dyn type="ShowFrame" mode="constant" value="true"/> 
    <rt:dyn type="ValueToTheRight" mode="constant" value="false"/> 
    <rt:dyn type="Color_Readings" mode="constant" value="true"/> 
  </image>
  <polygon points="-565.932,725.149 -555.932,742.149 -575.932,742.149" transform="rotate(210 453.5 42.9997) rotate(90 31.3333 552.5) rotate(0 1.4013e-045 3.14533e-039) flipY(460.5)"/> 
  <polygon points="-862.44,-371.201 -852.44,-354.201 -872.44,-354.201" transform="rotate(210 453.5 42.9997) rotate(90 31.3333 552.5) rotate(0 1.4013e-045 3.14533e-039) flipY(460.5)"/> 
  <g transform="flipX(25.3379)">
    <line x1="-996.479" y1="853.953" x2="-935.479" y2="853.953" stroke="black" stroke-width="1"/> 
    <line x1="-934.489" y1="846.453" x2="-934.489" y2="860.453" stroke="black" stroke-width="1"/> 
  </g>
  <line x1="1240.7" y1="310.196" x2="1544.04" y2="310.529" stroke="black" stroke-width="3"/> 
  <text x="1182.35" y="410.942" fill="black" font-size="15" text-anchor="middle">00KLE93<tspan x="1182.35" dy="15">AN001</tspan>
  </text>
  <text x="1633.86" y="403.914" fill="black" font-size="15" text-anchor="middle">00KLE93<tspan x="1633.86" dy="15">AN002</tspan>
  </text>
  <line x1="1257.73" y1="949.24" x2="1257.73" y2="417.182" stroke="black" stroke-width="3"/> 
  <line x1="1542.83" y1="399.757" x2="1542.83" y2="308.848" stroke="black" stroke-width="3"/> 
  <line x1="1557.97" y1="952.27" x2="1557.97" y2="427.578" stroke="black" stroke-width="3"/> 
  <g transform="rotate(0 609.241 429.584) scale(0.765552 0.765552 609.241 429.584)">
    <rect x="1797.59" y="286.947" width="66.8757" height="34.9577" rx="0" ry="0" fill="Col_BGSand" stroke="black"/> 
    <polygon points="1833.51,287.116 1798.4,321.723 1829.25,321.473 1863.67,287.126" fill="Col_Grey2" stroke="black"/> 
  </g>
  <image x="1295.88" y="324.548" width="181.818" height="24.2424" xlink:href="bitwise_tablo_4bits.svg">
    <title>00KLE93AN001002</title>
    <rt:dyn type="PointID_1" mode="constant" value="&quot;00KLE93AN001002_Z0 0&quot;"/> 
    <rt:dyn type="Text_0001" mode="constant" value="&quot;АВР НЕ ГОТОВ&quot;"/> 
    <rt:dyn type="Text_0000" mode="constant" value="&quot;АВР ДИСТ&quot;"/> 
    <rt:dyn type="Color_0010" mode="constant" value="&quot;Col_Yellow&quot;"/> 
    <rt:dyn type="Color_0001" mode="constant" value="&quot;Col_Green&quot;"/> 
    <rt:dyn type="Text_0010" mode="constant" value="&quot;АВР ГОТОВ&quot;"/> 
    <rt:dyn type="PointID_2" mode="constant" value="&quot;00KLE93AN001002_Z0 1&quot;"/> 
    <rt:dyn type="PointID_3" mode="constant" value="&quot;00KLE93AN001002_Z0 2&quot;"/> 
    <rt:dyn type="PointID_4" mode="constant" value="&quot;00KLE93AN001002_Z0 3&quot;"/> 
    <rt:dyn type="Text_0100" mode="constant" value="&quot;АВР СРАБОТАЛ&quot;"/> 
    <rt:dyn type="Color_0100" mode="constant" value="&quot;Col_Red&quot;"/> 
    <rt:dyn type="Color_0000" mode="constant" value="&quot;Col_Grey3&quot;"/> 
  </image>
  <polyline points="1568.63,673.649 1618.63,673.649 1618.13,723.649 1568.63,723.149 1568.63,673.649" fill="Col_BGSand" stroke="black" stroke-width="3" transform="rotate(44.0618 1325.51 325.508)"/> 
  <line x1="1257" y1="573" x2="1150.88" y2="573" stroke="black" stroke-width="3"/> 
  <text x="1314.18" y="809.993" fill="black" font-size="15" text-anchor="middle">00KLE93<tspan x="1314.18" dy="15">AT001</tspan>
  </text>
  <line x1="1226.89" y1="780.235" x2="1295.89" y2="780.235" stroke="black" stroke-dasharray="5,5"/> 
  <line x1="1189.76" y1="723.321" x2="1189.76" y2="831.911" stroke="black" stroke-width="1"/> 
  <line x1="1250.43" y1="716.396" x2="1250.43" y2="730.396" stroke="black" stroke-width="1"/> 
  <line x1="1190.43" y1="776.896" x2="1161.22" y2="776.896" stroke="black" stroke-width="1"/> 
  <image x="1097.74" y="501.642" width="65" height="25" xlink:href="DS_Reg_degree.svg">
    <title>00SBU24AA220</title>
    <rt:dyn type="KKS" mode="constant" value="&quot;00SBU24AA220&quot;"/> 
    <rt:dyn type="SIGNAL" mode="constant" value="&quot;XQ54&quot;"/> 
  </image>
  <image x="987.21" y="763.987" width="175" height="25" xlink:href="DS_ana_tenzor.svg">
    <title>00KLE93CP001</title>
    <rt:dyn type="FKKS" mode="constant" value="&quot;00KLE93CP001&quot;"/> 
    <rt:dyn type="X" mode="constant" value="&quot;dP&quot;"/> 
    <rt:dyn type="ShowFrame" mode="constant" value="true"/> 
    <rt:dyn type="ValueToTheRight" mode="constant" value="false"/> 
    <rt:dyn type="Color_Readings" mode="constant" value="true"/> 
  </image>
  <text x="1308" y="661.97" fill="black" font-size="15" text-anchor="middle">00KLE93<tspan x="1308" dy="15">AH001</tspan>
  </text>
  <text x="1058.5" y="552.5" fill="black" font-size="15" text-anchor="middle">00SBU24<tspan x="1058.5" dy="15">AA220</tspan>
  </text>
  <line x1="1112.89" y1="574.471" x2="978.149" y2="574.245" stroke="black" stroke-width="3"/> 
  <image x="1095.07" y="531.142" width="70" height="65" xlink:href="DS_Reg_valve_tenzor.svg">
    <title>00SBU24AA220</title>
    <rt:dyn type="DATA_NARY" mode="constant" value="&quot;TYPE2&quot;"/> 
    <rt:dyn type="Operate" mode="constant" value="true"/> 
    <rt:dyn type="KKS" mode="constant" value="&quot;00SBU24AA220&quot;"/> 
  </image>
  <text x="1180.66" y="915.032" fill="black" font-size="15" text-anchor="middle">00KLE93<tspan x="1180.66" dy="15">AA001</tspan>
  </text>
  <image x="1223.09" y="895.032" width="70" height="45" xlink:href="DS_pivot_valve_tenzor.svg">
    <title>00KLE93AA001</title>
    <rt:dyn type="KKS" mode="constant" value="&quot;00KLE93AA001&quot;"/> 
    <rt:dyn type="DATA_NARY" mode="constant" value="&quot;TYPE2&quot;"/> 
    <rt:dyn type="Operate" mode="constant" value="true"/> 
  </image>
  <line x1="978.649" y1="890.881" x2="978.649" y2="572.699" stroke="black" stroke-width="3"/> 
  <polygon points="-260.603,299.381 -250.603,316.381 -270.603,316.381" transform="flipY(495.63) rotate(210 453.5 42.9997) rotate(90 31.3333 552.5) rotate(0 1.4013e-045 3.14533e-039) flipY(460.5)"/> 
  <line x1="1189.24" y1="831.805" x2="1250.24" y2="831.805" stroke="black" stroke-width="1"/> 
  <line x1="1250.23" y1="824.305" x2="1250.23" y2="838.305" stroke="black" stroke-width="1"/> 
  <image x="1004.33" y="841.032" width="175" height="25" xlink:href="DS_ana_tenzor.svg">
    <title>00SBU24CT020</title>
    <rt:dyn type="FKKS" mode="constant" value="&quot;00SBU24CT020&quot;"/> 
    <rt:dyn type="X" mode="constant" value="&quot;T&quot;"/> 
    <rt:dyn type="ShowFrame" mode="constant" value="true"/> 
    <rt:dyn type="ValueToTheRight" mode="constant" value="false"/> 
    <rt:dyn type="Color_Readings" mode="constant" value="true"/> 
  </image>
  <line x1="1159.99" y1="724.956" x2="1061.15" y2="724.866" stroke="black" stroke-width="3"/> 
  <line x1="1159.62" y1="726.909" x2="1159.62" y2="636.002" stroke="black" stroke-width="3"/> 
  <line x1="1257.44" y1="636.562" x2="1158.61" y2="636.472" stroke="black" stroke-width="3"/> 
  <image x="1192.33" y="539.177" width="130" height="128.857" xlink:href="ps_TempValve.svg">
    <title>00KLE93AN001</title>
    <rt:dyn type="TYPE" mode="constant" value="&quot;TYPE2&quot;"/> 
  </image>
  <polygon points="388.718,492.674 398.718,509.674 378.718,509.674" transform="rotate(300 453.5 42.9997) rotate(90 31.3333 552.5) rotate(0 1.4013e-045 3.14533e-039) flipY(460.5)"/> 
  <polygon points="-713.88,-632.398 -703.88,-615.398 -723.88,-615.398" transform="rotate(210 453.5 42.9997) rotate(90 31.3333 552.5) rotate(0 1.4013e-045 3.14533e-039) flipY(460.5)"/> 
  <polyline points="1790.8,471.785 1840.8,471.785 1840.3,521.785 1790.8,521.285 1790.8,471.785" fill="Col_BGSand" stroke="black" stroke-width="3" transform="rotate(44.0618 1325.51 325.508)"/> 
  <text x="1504.94" y="818.03" fill="black" font-size="15" text-anchor="middle">00KLE93<tspan x="1504.94" dy="15">AT002</tspan>
  </text>
  <line x1="1526.92" y1="789.688" x2="1595.92" y2="789.688" stroke="black" stroke-dasharray="5,5"/> 
  <line x1="1629.89" y1="732.776" x2="1629.89" y2="841.366" stroke="black" stroke-width="1"/> 
  <line x1="1567.56" y1="725.851" x2="1567.56" y2="739.851" stroke="black" stroke-width="1"/> 
  <text x="1491.3" y="653.502" fill="black" font-size="15" text-anchor="middle">00KLE93<tspan x="1491.3" dy="15">AH002</tspan>
  </text>
  <image x="1522.58" y="896.971" width="70" height="45" xlink:href="DS_pivot_valve_tenzor.svg">
    <title>00KLE93AA002</title>
    <rt:dyn type="KKS" mode="constant" value="&quot;00KLE93AA002&quot;"/> 
    <rt:dyn type="DATA_NARY" mode="constant" value="&quot;TYPE2&quot;"/> 
    <rt:dyn type="Operate" mode="constant" value="true"/> 
  </image>
  <line x1="1568.25" y1="840.381" x2="1629.25" y2="840.381" stroke="black" stroke-width="1"/> 
  <line x1="1567.69" y1="833.366" x2="1567.69" y2="847.366" stroke="black" stroke-width="1"/> 
  <text x="1627.67" y="916.515" fill="black" font-size="15" text-anchor="middle">00KLE93<tspan x="1627.67" dy="15">AA002</tspan>
  </text>
  <image x="1524.77" y="383.578" width="70" height="70" xlink:href="DS_motor_tenzor.svg" transform="rotate(270 0 0)">
    <title>00KLE93AN002</title>
    <rt:dyn type="KKS" mode="constant" value="&quot;00KLE93AN002&quot;"/> 
    <rt:dyn type="DATA_NARY" mode="constant" value="&quot;TYPE2&quot;"/> 
    <rt:dyn type="Operate" mode="constant" value="true"/> 
    <rt:dyn type="DeviceType" mode="constant" value="&quot;fan&quot;"/> 
  </image>
  <line x1="1663.92" y1="581" x2="1559" y2="581" stroke="black" stroke-width="3"/> 
  <image x="1652.86" y="509.491" width="65" height="25" xlink:href="DS_Reg_degree.svg">
    <title>00SBU24AA221</title>
    <rt:dyn type="KKS" mode="constant" value="&quot;00SBU24AA221&quot;"/> 
    <rt:dyn type="SIGNAL" mode="constant" value="&quot;XQ54&quot;"/> 
  </image>
  <text x="1614.33" y="553.32" fill="black" font-size="15" text-anchor="middle">00SBU24<tspan x="1614.33" dy="15">AA221</tspan>
  </text>
  <line x1="1839.23" y1="581.304" x2="1704.49" y2="581.078" stroke="black" stroke-width="3"/> 
  <image x="1650.19" y="538.991" width="70" height="65" xlink:href="DS_Reg_valve_tenzor.svg">
    <title>00SBU24AA221</title>
    <rt:dyn type="DATA_NARY" mode="constant" value="&quot;TYPE2&quot;"/> 
    <rt:dyn type="Operate" mode="constant" value="true"/> 
    <rt:dyn type="KKS" mode="constant" value="&quot;00SBU24AA221&quot;"/> 
  </image>
  <line x1="1840.12" y1="897.259" x2="1840.12" y2="579.077" stroke="black" stroke-width="3"/> 
  <polygon points="162.893,-451.708 172.893,-434.708 152.893,-434.708" transform="flipY(495.63) rotate(210 453.5 42.9997) rotate(90 31.3333 552.5) rotate(0 1.4013e-045 3.14533e-039) flipY(460.5)"/> 
  <line x1="1657.88" y1="788.865" x2="1628.67" y2="788.865" stroke="black" stroke-width="1"/> 
  <g transform="flipX(66.7317) flipX(25.3379)">
    <line x1="1688.31" y1="863.339" x2="1749.3" y2="862.839" stroke="black" stroke-width="1"/> 
    <line x1="1750.29" y1="855.839" x2="1750.29" y2="869.839" stroke="black" stroke-width="1"/> 
  </g>
  <image x="1631.7" y="849.79" width="175" height="25" xlink:href="DS_ana_tenzor.svg">
    <title>00SBU24CT021</title>
    <rt:dyn type="FKKS" mode="constant" value="&quot;00SBU24CT021&quot;"/> 
    <rt:dyn type="X" mode="constant" value="&quot;T&quot;"/> 
    <rt:dyn type="ShowFrame" mode="constant" value="true"/> 
    <rt:dyn type="ValueToTheRight" mode="constant" value="false"/> 
    <rt:dyn type="Color_Readings" mode="constant" value="true"/> 
  </image>
  <line x1="1390.46" y1="312.421" x2="1390.58" y2="150.788" stroke="black" stroke-width="3"/> 
  <polygon points="-110.397,-90.163 -100.397,-73.1631 -120.397,-73.1631" transform="rotate(210 453.5 42.9997) rotate(90 31.3333 552.5) rotate(0 1.4013e-045 3.14533e-039) flipY(460.5)"/> 
  <rect x="926.909" y="21.3031" width="285.364" height="85.3637" rx="0" ry="0" fill="Col_BGSand" stroke="black" stroke-width="2"/> 
  <text x="946.279" y="45.3941" fill="black" font-size="15">Режим работы 00KLE93</text>
  <image x="941.849" y="68.7881" width="181.818" height="24.2424" xlink:href="bitwise_tablo_4bits.svg">
    <title>00KLE93_XK92</title>
    <rt:dyn type="PointID_1" mode="constant" value="&quot;00KLE93_XK92&quot;"/> 
    <rt:dyn type="Text_0000" mode="constant" value="&quot;АВТОМАТИЧЕСКИЙ&quot;"/> 
    <rt:dyn type="Color_0001" mode="constant" value="&quot;Col_Green&quot;"/> 
    <rt:dyn type="Text_0001" mode="constant" value="&quot;ДИСТАНЦИОННЫЙ&quot;"/> 
    <rt:dyn type="Color_0000" mode="constant" value="&quot;Col_Green&quot;"/> 
  </image>
  <image x="1140.58" y="63.2121" width="60" height="30" xlink:href="ps_tenzor_system.svg">
    <title>00KLE93</title>
    <rt:dyn type="KKS" mode="constant" value="&quot;00KLE93&quot;"/> 
  </image>
  <line x1="1240.8" y1="399.758" x2="1240.8" y2="308.849" stroke="black" stroke-width="3"/> 
  <image x="1223.26" y="387.245" width="70" height="70" xlink:href="DS_motor_tenzor.svg" transform="rotate(270 0 0)">
    <title>00KLE93AN001</title>
    <rt:dyn type="KKS" mode="constant" value="&quot;00KLE93AN001&quot;"/> 
    <rt:dyn type="DATA_NARY" mode="constant" value="&quot;TYPE2&quot;"/> 
    <rt:dyn type="Operate" mode="constant" value="true"/> 
    <rt:dyn type="DeviceType" mode="constant" value="&quot;fan&quot;"/> 
  </image>
  <g transform="rotate(0 609.241 429.584) scale(0.765552 0.765552 609.241 429.584)">
    <rect x="1398.45" y="288.927" width="66.8757" height="34.9577" rx="0" ry="0" fill="Col_BGSand" stroke="black"/> 
    <polygon points="1434.37,289.096 1399.26,323.702 1430.11,323.452 1464.53,289.106" fill="Col_Grey2" stroke="black"/> 
  </g>
  <g transform="flipX(25.3379)">
    <line x1="-643.784" y1="465.546" x2="-582.784" y2="465.546" stroke="black" stroke-width="1"/> 
    <line x1="-581.794" y1="458.546" x2="-581.794" y2="472.546" stroke="black" stroke-width="1"/> 
  </g>
  <g transform="flipX(66.7317) flipX(25.3379)">
    <line x1="168.883" y1="456" x2="229.882" y2="456" stroke="black" stroke-width="1"/> 
    <line x1="230.872" y1="449" x2="230.872" y2="463" stroke="black" stroke-width="1"/> 
  </g>
  <image x="661.03" y="451.364" width="175" height="25" xlink:href="DS_ana_tenzor.svg">
    <title>00KLE87CT005</title>
    <rt:dyn type="FKKS" mode="constant" value="&quot;00KLE87CT005&quot;"/> 
    <rt:dyn type="X" mode="constant" value="&quot;T&quot;"/> 
    <rt:dyn type="ShowFrame" mode="constant" value="true"/> 
    <rt:dyn type="ValueToTheRight" mode="constant" value="false"/> 
    <rt:dyn type="Color_Readings" mode="constant" value="true"/> 
  </image>
  <image x="102.394" y="443.333" width="175" height="25" xlink:href="DS_ana_tenzor.svg">
    <title>00KLE87CT004</title>
    <rt:dyn type="FKKS" mode="constant" value="&quot;00KLE87CT004&quot;"/> 
    <rt:dyn type="X" mode="constant" value="&quot;T&quot;"/> 
    <rt:dyn type="ShowFrame" mode="constant" value="true"/> 
    <rt:dyn type="ValueToTheRight" mode="constant" value="false"/> 
    <rt:dyn type="Color_Readings" mode="constant" value="true"/> 
  </image>
  <g transform="flipX(66.7317) flipX(25.3379)">
    <line x1="1103.22" y1="469.136" x2="1164.22" y2="469.136" stroke="black" stroke-width="1"/> 
    <line x1="1165.21" y1="461.636" x2="1165.21" y2="475.636" stroke="black" stroke-width="1"/> 
  </g>
  <image x="1031.73" y="455.911" width="175" height="25" xlink:href="DS_ana_tenzor.svg">
    <title>00KLE93CT004</title>
    <rt:dyn type="FKKS" mode="constant" value="&quot;00KLE93CT004&quot;"/> 
    <rt:dyn type="X" mode="constant" value="&quot;T&quot;"/> 
    <rt:dyn type="ShowFrame" mode="constant" value="true"/> 
    <rt:dyn type="ValueToTheRight" mode="constant" value="false"/> 
    <rt:dyn type="Color_Readings" mode="constant" value="true"/> 
  </image>
  <g transform="flipX(25.3379)">
    <line x1="-1578.63" y1="475.197" x2="-1517.63" y2="475.197" stroke="black" stroke-width="1"/> 
    <line x1="-1516.64" y1="468.697" x2="-1516.64" y2="482.697" stroke="black" stroke-width="1"/> 
  </g>
  <image x="1597" y="462" width="175" height="25" xlink:href="DS_ana_tenzor.svg">
    <title>00KLE93CT005</title>
    <rt:dyn type="FKKS" mode="constant" value="&quot;00KLE93CT005&quot;"/> 
    <rt:dyn type="X" mode="constant" value="&quot;T&quot;"/> 
    <rt:dyn type="ShowFrame" mode="constant" value="true"/> 
    <rt:dyn type="ValueToTheRight" mode="constant" value="false"/> 
    <rt:dyn type="Color_Readings" mode="constant" value="true"/> 
  </image>
  <line x1="731.835" y1="624.59" x2="633.001" y2="624.5" stroke="black" stroke-width="3"/> 
  <image x="558.482" y="534.538" width="130" height="128.857" xlink:href="ps_TempValve.svg">
    <title>00KLE87AH002</title>
    <rt:dyn type="TYPE" mode="constant" value="&quot;TYPE2&quot;"/> 
  </image>
  <line x1="730.5" y1="713.907" x2="730.5" y2="623" stroke="black" stroke-width="3"/> 
  <line x1="828.835" y1="712.59" x2="730.001" y2="712.5" stroke="black" stroke-width="3"/> 
  <polygon points="-982.609,-284.295 -972.609,-267.295 -992.609,-267.295" transform="flipX(158.66) rotate(300 453.5 42.9997) rotate(90 31.3333 552.5) rotate(0 1.4013e-045 3.14533e-039) flipY(460.5)"/> 
  <line x1="1658.84" y1="645.59" x2="1560" y2="645.5" stroke="black" stroke-width="3"/> 
  <line x1="1657.5" y1="734.907" x2="1657.5" y2="644" stroke="black" stroke-width="3"/> 
  <line x1="1755.84" y1="733.59" x2="1657" y2="733.5" stroke="black" stroke-width="3"/> 
  <polygon points="-1774.41,-766.848 -1764.41,-749.848 -1784.41,-749.848" transform="flipX(158.66) rotate(300 453.5 42.9997) rotate(90 31.3333 552.5) rotate(0 1.4013e-045 3.14533e-039) flipY(460.5)"/> 
  <image x="1493.81" y="547.116" width="130" height="128.857" xlink:href="ps_TempValve.svg">
    <title>00KLE93AN002</title>
    <rt:dyn type="TYPE" mode="constant" value="&quot;TYPE2&quot;"/> 
  </image>
  <image x="152.045" y="366.758" width="25" height="25" xlink:href="bin_indicator.svg">
    <title>00KLE87AN001_XM62</title>
    <rt:dyn type="PointID" mode="constant" value="&quot;00KLE87AN001_XM62&quot;"/> 
  </image>
  <text x="164.545" y="408.259" fill="black" font-size="15" text-anchor="middle">Отключен<tspan x="164.545" dy="15">по блокировке</tspan>
  </text>
  <image x="768.712" y="372.818" width="25" height="25" xlink:href="bin_indicator.svg">
    <title>00KLE87AN002_XM62</title>
    <rt:dyn type="PointID" mode="constant" value="&quot;00KLE87AN002_XM62&quot;"/> 
  </image>
  <text x="781.212" y="414.319" fill="black" font-size="15" text-anchor="middle">Отключен<tspan x="781.212" dy="15">по блокировке</tspan>
  </text>
  <image x="1065.68" y="378.879" width="25" height="25" xlink:href="bin_indicator.svg">
    <title>00KLE93AN001_XM62</title>
    <rt:dyn type="PointID" mode="constant" value="&quot;00KLE93AN001_XM62&quot;"/> 
  </image>
  <text x="1078.18" y="420.38" fill="black" font-size="15" text-anchor="middle">Отключен<tspan x="1078.18" dy="15">по блокировке</tspan>
  </text>
  <image x="1705.08" y="384.939" width="25" height="25" xlink:href="bin_indicator.svg">
    <title>00KLE93AN002_XM62</title>
    <rt:dyn type="PointID" mode="constant" value="&quot;00KLE93AN002_XM62&quot;"/> 
  </image>
  <text x="1717.58" y="426.44" fill="black" font-size="15" text-anchor="middle">Отключен<tspan x="1717.58" dy="15">по блокировке</tspan>
  </text>
  <g transform="flipX(66.7317) flipX(25.3379)">
    <line x1="305.247" y1="180.348" x2="366.246" y2="179.848" stroke="black" stroke-width="1"/> 
    <line x1="367.236" y1="172.848" x2="367.236" y2="186.848" stroke="black" stroke-width="1"/> 
  </g>
  <image x="255.213" y="167.424" width="175" height="25" xlink:href="DS_ana_tenzor.svg">
    <title>00KLE87CT003</title>
    <rt:dyn type="FKKS" mode="constant" value="&quot;00KLE87CT003&quot;"/> 
    <rt:dyn type="X" mode="constant" value="&quot;T&quot;"/> 
    <rt:dyn type="ShowFrame" mode="constant" value="true"/> 
    <rt:dyn type="ValueToTheRight" mode="constant" value="false"/> 
    <rt:dyn type="Color_Readings" mode="constant" value="true"/> 
  </image>
  <polyline points="310.758,224.833 412.273,224.833 412.273,289.485" fill="none" stroke="black"/> 
  <line x1="220.424" y1="480.47" x2="220.424" y2="494.47" stroke="black" stroke-width="1" transform="rotate(90 414.288 484.879)"/> 
  <polyline points="-440.728,225.864 -339.213,225.864 -339.213,290.516" fill="none" stroke="black" transform="flipX(78.4317)"/> 
  <line x1="220.425" y1="397.137" x2="220.425" y2="411.137" stroke="black" stroke-width="1" transform="rotate(90 414.288 484.879)"/> 
  <polyline points="286.515,270.288 388.03,270.288 388.03,291" fill="none" stroke="black"/> 
  <line x1="220.424" y1="504.682" x2="220.424" y2="518.682" stroke="black" stroke-width="1" transform="rotate(90 414.288 484.879)"/> 
  <image x="193.606" y="257.424" width="175" height="25" xlink:href="DS_ana_tenzor.svg">
    <title>00KLE87CT001</title>
    <rt:dyn type="FKKS" mode="constant" value="&quot;00KLE87CT001&quot;"/> 
    <rt:dyn type="X" mode="constant" value="&quot;T&quot;"/> 
    <rt:dyn type="ShowFrame" mode="constant" value="true"/> 
    <rt:dyn type="ValueToTheRight" mode="constant" value="false"/> 
    <rt:dyn type="Color_Readings" mode="constant" value="true"/> 
  </image>
  <image x="193.606" y="212.485" width="175" height="25" xlink:href="DS_ana_tenzor.svg">
    <title>00KLE87CP003</title>
    <rt:dyn type="FKKS" mode="constant" value="&quot;00KLE87CP003&quot;"/> 
    <rt:dyn type="X" mode="constant" value="&quot;P&quot;"/> 
    <rt:dyn type="ShowFrame" mode="constant" value="true"/> 
    <rt:dyn type="ValueToTheRight" mode="constant" value="false"/> 
    <rt:dyn type="Color_Readings" mode="constant" value="true"/> 
  </image>
  <polyline points="-389.21,270.258 -287.695,270.258 -287.695,290.969" fill="none" stroke="black" transform="flipX(116.311)"/> 
  <line x1="220.425" y1="372.894" x2="220.425" y2="386.894" stroke="black" stroke-width="1" transform="rotate(90 414.288 484.879)"/> 
  <image x="537.788" y="256.788" width="175" height="25" xlink:href="DS_ana_tenzor.svg">
    <title>00KLE87CT002</title>
    <rt:dyn type="FKKS" mode="constant" value="&quot;00KLE87CT002&quot;"/> 
    <rt:dyn type="X" mode="constant" value="&quot;T&quot;"/> 
    <rt:dyn type="ShowFrame" mode="constant" value="true"/> 
    <rt:dyn type="ValueToTheRight" mode="constant" value="false"/> 
    <rt:dyn type="Color_Readings" mode="constant" value="true"/> 
  </image>
  <image x="537.788" y="212.848" width="175" height="25" xlink:href="DS_ana_tenzor.svg">
    <title>00KLE87CP004</title>
    <rt:dyn type="FKKS" mode="constant" value="&quot;00KLE87CP004&quot;"/> 
    <rt:dyn type="X" mode="constant" value="&quot;P&quot;"/> 
    <rt:dyn type="ShowFrame" mode="constant" value="true"/> 
    <rt:dyn type="ValueToTheRight" mode="constant" value="false"/> 
    <rt:dyn type="Color_Readings" mode="constant" value="true"/> 
  </image>
  <g transform="flipX(25.3379)">
    <line x1="-1408.94" y1="194.985" x2="-1347.94" y2="194.985" stroke="black" stroke-width="1"/> 
    <line x1="-1346.95" y1="187.485" x2="-1346.95" y2="201.485" stroke="black" stroke-width="1"/> 
  </g>
  <image x="1419.18" y="180.818" width="175" height="25" xlink:href="DS_ana_tenzor.svg">
    <title>00KLE93CT003</title>
    <rt:dyn type="FKKS" mode="constant" value="&quot;00KLE93CT003&quot;"/> 
    <rt:dyn type="X" mode="constant" value="&quot;T&quot;"/> 
    <rt:dyn type="ShowFrame" mode="constant" value="true"/> 
    <rt:dyn type="ValueToTheRight" mode="constant" value="false"/> 
    <rt:dyn type="Color_Readings" mode="constant" value="true"/> 
  </image>
  <polyline points="-1375.82,238.5 -1274.3,238.5 -1274.3,303.152" fill="none" stroke="black" transform="flipX(78.4317)"/> 
  <line x1="233.061" y1="-538.954" x2="233.061" y2="-524.954" stroke="black" stroke-width="1" transform="rotate(90 414.288 484.879)"/> 
  <polyline points="-1323.3,282.894 -1221.79,282.894 -1221.79,303.605" fill="none" stroke="black" transform="flipX(116.311)"/> 
  <line x1="233.061" y1="-562.197" x2="233.061" y2="-548.197" stroke="black" stroke-width="1" transform="rotate(90 414.288 484.879)"/> 
  <polyline points="1247.88,237.47 1349.39,237.47 1349.39,302.122" fill="none" stroke="black"/> 
  <line x1="233.061" y1="-456.651" x2="233.061" y2="-442.651" stroke="black" stroke-width="1" transform="rotate(90 414.288 484.879)"/> 
  <polyline points="1223.64,282.925 1325.15,282.925 1325.15,303.637" fill="none" stroke="black"/> 
  <line x1="233.061" y1="-432.439" x2="233.061" y2="-418.439" stroke="black" stroke-width="1" transform="rotate(90 414.288 484.879)"/> 
  <image x="1135.52" y="269.939" width="175" height="25" xlink:href="DS_ana_tenzor.svg">
    <title>00KLE93CT001</title>
    <rt:dyn type="FKKS" mode="constant" value="&quot;00KLE93CT001&quot;"/> 
    <rt:dyn type="X" mode="constant" value="&quot;T&quot;"/> 
    <rt:dyn type="ShowFrame" mode="constant" value="true"/> 
    <rt:dyn type="ValueToTheRight" mode="constant" value="false"/> 
    <rt:dyn type="Color_Readings" mode="constant" value="true"/> 
  </image>
  <image x="1135.52" y="225" width="175" height="25" xlink:href="DS_ana_tenzor.svg">
    <title>00KLE93CP003</title>
    <rt:dyn type="FKKS" mode="constant" value="&quot;00KLE93CP003&quot;"/> 
    <rt:dyn type="X" mode="constant" value="&quot;P&quot;"/> 
    <rt:dyn type="ShowFrame" mode="constant" value="true"/> 
    <rt:dyn type="ValueToTheRight" mode="constant" value="false"/> 
    <rt:dyn type="Color_Readings" mode="constant" value="true"/> 
  </image>
  <image x="1474.39" y="224" width="175" height="25" xlink:href="DS_ana_tenzor.svg">
    <title>00KLE93CP004</title>
    <rt:dyn type="FKKS" mode="constant" value="&quot;00KLE93CP004&quot;"/> 
    <rt:dyn type="X" mode="constant" value="&quot;P&quot;"/> 
    <rt:dyn type="ShowFrame" mode="constant" value="true"/> 
    <rt:dyn type="ValueToTheRight" mode="constant" value="false"/> 
    <rt:dyn type="Color_Readings" mode="constant" value="true"/> 
  </image>
  <image x="1474.39" y="267.94" width="175" height="25" xlink:href="DS_ana_tenzor.svg">
    <title>00KLE93CT002</title>
    <rt:dyn type="FKKS" mode="constant" value="&quot;00KLE93CT002&quot;"/> 
    <rt:dyn type="X" mode="constant" value="&quot;T&quot;"/> 
    <rt:dyn type="ShowFrame" mode="constant" value="true"/> 
    <rt:dyn type="ValueToTheRight" mode="constant" value="false"/> 
    <rt:dyn type="Color_Readings" mode="constant" value="true"/> 
  </image>
  <image x="1652.91" y="774.939" width="175" height="25" xlink:href="DS_ana_tenzor.svg">
    <title>00KLE93CP002</title>
    <rt:dyn type="FKKS" mode="constant" value="&quot;00KLE93CP002&quot;"/> 
    <rt:dyn type="X" mode="constant" value="&quot;dP&quot;"/> 
    <rt:dyn type="ShowFrame" mode="constant" value="true"/> 
    <rt:dyn type="ValueToTheRight" mode="constant" value="false"/> 
    <rt:dyn type="Color_Readings" mode="constant" value="true"/> 
  </image>
  <line x1="1568" y1="733.5" x2="1629" y2="733.5" stroke="black" stroke-width="1"/> 
  <line x1="1190" y1="723.5" x2="1251" y2="723.5" stroke="black" stroke-width="1"/> 
  <line x1="632" y1="720.5" x2="693" y2="720.5" stroke="black" stroke-width="1"/> 
  <image x="226.409" y="342.015" width="160" height="30" xlink:href="ps_tenzor_m0.svg">
    <title>00KLE87AN001</title>
    <rt:dyn type="KKS" mode="constant" value="&quot;00KLE87AN001&quot;"/> 
  </image>
  <image x="533.909" y="342.015" width="160" height="30" xlink:href="ps_tenzor_m0.svg">
    <title>00KLE87AN002</title>
    <rt:dyn type="KKS" mode="constant" value="&quot;00KLE87AN002&quot;"/> 
  </image>
  <image x="1158.23" y="351.106" width="160" height="30" xlink:href="ps_tenzor_m0.svg">
    <title>00KLE93AN001</title>
    <rt:dyn type="KKS" mode="constant" value="&quot;00KLE93AN001&quot;"/> 
  </image>
  <image x="1465.73" y="351.106" width="160" height="30" xlink:href="ps_tenzor_m0.svg">
    <title>00KLE93AN002</title>
    <rt:dyn type="KKS" mode="constant" value="&quot;00KLE93AN002&quot;"/> 
  </image>
  <image x="50.1515" y="488.485" width="100" height="30" xlink:href="DS_Reg_set.svg">
    <title>00SBU24AA218</title>
    <rt:dyn type="KKS" mode="constant" value="&quot;00SBU24AA218&quot;"/> 
    <rt:dyn type="DATA_NARY" mode="constant" value="&quot;TYPE2&quot;"/> 
    <rt:dyn type="Operate" mode="constant" value="true"/> 
    <rt:dyn type="ShowGoodColor" mode="constant" value="true"/> 
  </image>
  <image x="791.061" y="497.576" width="100" height="30" xlink:href="DS_Reg_set.svg">
    <title>00SBU24AA219</title>
    <rt:dyn type="KKS" mode="constant" value="&quot;00SBU24AA219&quot;"/> 
    <rt:dyn type="DATA_NARY" mode="constant" value="&quot;TYPE2&quot;"/> 
    <rt:dyn type="Operate" mode="constant" value="true"/> 
    <rt:dyn type="ShowGoodColor" mode="constant" value="true"/> 
  </image>
  <image x="985" y="502.121" width="100" height="30" xlink:href="DS_Reg_set.svg">
    <title>00SBU24AA220</title>
    <rt:dyn type="KKS" mode="constant" value="&quot;00SBU24AA220&quot;"/> 
    <rt:dyn type="DATA_NARY" mode="constant" value="&quot;TYPE2&quot;"/> 
    <rt:dyn type="Operate" mode="constant" value="true"/> 
    <rt:dyn type="ShowGoodColor" mode="constant" value="true"/> 
  </image>
  <image x="1728.94" y="506.667" width="100" height="30" xlink:href="DS_Reg_set.svg">
    <title>00SBU24AA221</title>
    <rt:dyn type="KKS" mode="constant" value="&quot;00SBU24AA221&quot;"/> 
    <rt:dyn type="DATA_NARY" mode="constant" value="&quot;TYPE2&quot;"/> 
    <rt:dyn type="Operate" mode="constant" value="true"/> 
    <rt:dyn type="ShowGoodColor" mode="constant" value="true"/> 
  </image>
</svg>
