<?xml  version="1.0" encoding="UTF-8"?>
<svg color="Col_BGSand" xmlns="http://www.w3.org/2000/svg" xmlns:rt="http://www.rts.co.at/2001/XMLSchema/RtSvgPL" xmlns:xlink="http://www.w3.org/1999/xlink" xmlns:xsi="http://www.w3.org/2001/XMLSchema-instance" xsi:schemaLocation="http://www.w3.org/2000/svg C:\RTS\RtSvg\XML\SVG.xsd" viewBox="0 0 1920 1080" width="1920" height="1080" id="00kls46_49" fill="Col_Grey3">
  <rt:model modelversion="7.2.0.23" comment="Ñîçäàíî VNIIAES-ASUTP\voroninrs 10.12.2012 14:48:20"/> 
  <line x1="298" y1="433" x2="298" y2="433" stroke="black"/> 
  <line x1="344" y1="425" x2="342" y2="0"/> 
  <line x1="592.727" y1="690.909" x2="592.727" y2="690.909" stroke="black"/> 
  <line x1="749.091" y1="939.091" x2="749.091" y2="939.091" stroke="black"/> 
  <line x1="638.182" y1="881.818" x2="638.182" y2="881.818" stroke="black"/> 
  <line x1="214.545" y1="692.727" x2="214.545" y2="692.727" stroke="black"/> 
  <line x1="259.091" y1="771.818" x2="259.091" y2="771.818" stroke="black"/> 
  <line x1="195.455" y1="720" x2="195.455" y2="720" stroke="black"/> 
  <line x1="186.364" y1="713.636" x2="186.364" y2="713.636" stroke="black"/> 
  <line x1="191.818" y1="715.455" x2="191.818" y2="715.455" stroke="black"/> 
  <line x1="985.455" y1="149.091" x2="985.455" y2="149.091" stroke="black"/> 
  <line x1="1150" y1="365" x2="1150" y2="365" stroke="black"/> 
  <line x1="1274" y1="337" x2="1274" y2="337" stroke="black"/> 
  <line x1="1029" y1="375" x2="1029" y2="375" stroke="black"/> 
  <line x1="1215.33" y1="421.333" x2="1215.33" y2="421.333" stroke="black"/> 
  <line x1="1007" y1="314.75" x2="1007" y2="314.75" stroke="black"/> 
  <line x1="1027.27" y1="820" x2="1027.27" y2="820" stroke="black"/> 
  <line x1="675" y1="65" x2="675" y2="65" stroke="black"/> 
  <line x1="1468" y1="294" x2="1468" y2="294" stroke="black"/> 
  <line x1="1066.67" y1="766" x2="1066.67" y2="766" stroke="black"/> 
  <line x1="783.669" y1="851.456" x2="783.669" y2="851.456" stroke="black"/> 
  <line x1="410" y1="913" x2="410" y2="913" stroke="black"/> 
  <line x1="398" y1="872" x2="398" y2="872" stroke="black"/> 
  <line x1="841" y1="753" x2="841" y2="753" stroke="black"/> 
  <line x1="1396" y1="754" x2="1396" y2="754" stroke="black"/> 
  <line x1="1369" y1="798" x2="1369" y2="798" stroke="black"/> 
  <line x1="438" y1="1031" x2="438" y2="1031" stroke="black"/> 
  <line x1="419" y1="1033" x2="419" y2="1033" stroke="black"/> 
  <line x1="835" y1="706" x2="835" y2="706" stroke="black"/> 
  <line x1="254.697" y1="145.454" x2="254.697" y2="145.454" stroke="black"/> 
  <line x1="366.818" y1="892.423" x2="366.818" y2="892.423" stroke="black"/> 
  <text x="25" y="25" fill="black" font-size="15">00UYB 00CXV11GH002 00KLS46/00KLS49</text>
  <line x1="1215.33" y1="606" x2="1215.33" y2="606" stroke="black"/> 
  <g transform="rotate(270 1762.81 74.4803)"/> 
  <line x1="1885.5" y1="710.666" x2="1617.5" y2="710.666" stroke="black" stroke-width="3"/> 
  <g>
    <line x1="2028.67" y1="632" x2="2028.67" y2="689" stroke="black" stroke-width="3" transform="rotate(90 1581.5 305)"/> 
    <line x1="1198.5" y1="751.666" x2="1198.5" y2="792.666" stroke="black" stroke-width="3"/> 
    <g transform="rotate(90 798.74 61.9513)">
      <g transform="rotate(270 1762.81 74.4803)">
        <polygon points="739.305,-457.615 764.295,-457.615 752.305,-482.615 752.305,-482.615" fill="black" stroke="black" stroke-width="1" transform="rotate(90 1279.17 367.814)"/> 
      </g>
      <line x1="1529.1" y1="-339.305" x2="1529.1" y2="-289.305" stroke="black" stroke-width="3"/> 
    </g>
  </g>
  <g transform="flipX(705.5)">
    <line x1="2028.67" y1="2098" x2="2028.67" y2="2155" stroke="black" stroke-width="3" transform="rotate(90 1581.5 305)"/> 
    <line x1="-267.5" y1="751.666" x2="-267.5" y2="792.666" stroke="black" stroke-width="3"/> 
    <g transform="rotate(90 798.74 61.9513)">
      <g transform="rotate(270 1762.81 74.4803)">
        <polygon points="739.305,1008.39 764.295,1008.39 752.305,983.385 752.305,983.385" fill="black" stroke="black" stroke-width="1" transform="rotate(90 1279.17 367.814)"/> 
      </g>
      <line x1="1529.1" y1="1126.7" x2="1529.1" y2="1176.7" stroke="black" stroke-width="3"/> 
    </g>
  </g>
  <line x1="1613" y1="555" x2="1613" y2="1039.55" stroke="black" stroke-width="3"/> 
  <line x1="1264.5" y1="555" x2="1264.5" y2="1039.55" stroke="black" stroke-width="3"/> 
  <line x1="1423.82" y1="272.785" x2="1423.82" y2="424.667" stroke="black" stroke-width="3"/> 
  <line x1="1259.5" y1="710.666" x2="991.5" y2="710.666" stroke="black" stroke-width="3"/> 
  <g transform="rotate(270 1762.81 74.4803)">
    <polygon points="634.364,82.478 659.354,82.478 647.364,57.4784 647.364,57.4784" fill="black" stroke="black" stroke-width="1" transform="rotate(90 1279.17 367.814)"/> 
  </g>
  <line x1="1249.82" y1="423.785" x2="1249.82" y2="555" stroke="black" stroke-width="3"/> 
  <image x="1229.82" y="503.785" width="70" height="70" xlink:href="DS_motor_tenzor.svg" transform="rotate(270 0.00012207 0)">
    <title>00KLS49AN001</title>
    <rt:dyn type="DeviceType" mode="constant" value="&quot;fan&quot;"/> 
    <rt:dyn type="Operate" mode="constant" value="true"/> 
    <rt:dyn type="KKS" mode="constant" value="&quot;00KLS49AN001&quot;"/> 
    <rt:dyn type="DATA_NARY" mode="constant" value="&quot;TYPE2&quot;"/> 
  </image>
  <line x1="1598.82" y1="423.785" x2="1248.82" y2="423.785" stroke="black" stroke-width="3"/> 
  <line x1="1597.82" y1="423.785" x2="1597.82" y2="555" stroke="black" stroke-width="3"/> 
  <image x="1577.82" y="503.785" width="70" height="70" xlink:href="DS_motor_tenzor.svg" transform="rotate(270 0.00012207 0)">
    <title>00KLS49AN002</title>
    <rt:dyn type="DeviceType" mode="constant" value="&quot;fan&quot;"/> 
    <rt:dyn type="Operate" mode="constant" value="true"/> 
    <rt:dyn type="KKS" mode="constant" value="&quot;00KLS49AN002&quot;"/> 
    <rt:dyn type="DATA_NARY" mode="constant" value="&quot;TYPE2&quot;"/> 
  </image>
  <text x="1189.82" y="538.785" fill="black" font-size="15" text-anchor="middle">00KLS49<tspan x="1189.82" dy="15">AN001</tspan>
  </text>
  <text x="1687.82" y="538.785" fill="black" font-size="15" text-anchor="middle">00KLS49<tspan x="1687.82" dy="15">AN002</tspan>
  </text>
  <g transform="scale(0.765552 0.765552 609.241 429.584)">
    <rect x="1413.83" y="439.73" width="66.8757" height="34.9577" rx="0" ry="0" fill="Col_BGSand" stroke="black"/> 
    <polygon points="1449.75,439.9 1414.64,474.508 1445.49,474.257 1479.91,439.909" fill="Col_Grey2" stroke="black"/> 
  </g>
  <g transform="scale(0.765552 0.765552 609.241 429.584)">
    <rect x="1865.8" y="441.601" width="66.8757" height="34.9577" rx="0" ry="0" fill="Col_BGSand" stroke="black"/> 
    <polygon points="1901.73,441.771 1866.62,476.379 1897.46,476.128 1931.88,441.78" fill="Col_Grey2" stroke="black"/> 
  </g>
  <g transform="rotate(270 1762.81 74.4803)">
    <polygon points="634.364,82.478 659.354,82.478 647.364,57.4784 647.364,57.4784" fill="black" stroke="black" stroke-width="1" transform="rotate(90 1279.17 367.814)"/> 
  </g>
  <image x="1354.82" y="516.785" width="181.818" height="24.2424" xlink:href="bitwise_tablo_4bits.svg">
    <title>00KLS49AN001002</title>
    <rt:dyn type="PointID_1" mode="constant" value="&quot;00KLS49AN001002_Z0 0&quot;"/> 
    <rt:dyn type="Text_0001" mode="constant" value="&quot;ÀÂÐ ÍÅ ÃÎÒÎÂ&quot;"/> 
    <rt:dyn type="Text_0000" mode="constant" value="&quot;ÀÂÐ ÄÈÑÒ&quot;"/> 
    <rt:dyn type="Color_0010" mode="constant" value="&quot;Col_Yellow&quot;"/> 
    <rt:dyn type="Color_0001" mode="constant" value="&quot;Col_Green&quot;"/> 
    <rt:dyn type="Text_0010" mode="constant" value="&quot;ÀÂÐ ÃÎÒÎÂ&quot;"/> 
    <rt:dyn type="PointID_2" mode="constant" value="&quot;00KLS49AN001002_Z0 1&quot;"/> 
    <rt:dyn type="PointID_3" mode="constant" value="&quot;00KLS49AN001002_Z0 2&quot;"/> 
    <rt:dyn type="PointID_4" mode="constant" value="&quot;00KLS49AN001002_Z0 3&quot;"/> 
    <rt:dyn type="Text_0100" mode="constant" value="&quot;ÀÂÐ ÑÐÀÁÎÒÀË&quot;"/> 
    <rt:dyn type="Color_0100" mode="constant" value="&quot;Col_Red&quot;"/> 
    <rt:dyn type="Color_0000" mode="constant" value="&quot;Col_Grey3&quot;"/> 
  </image>
  <text x="1334" y="688.166" fill="black" font-size="15" text-anchor="middle">00KLS49AH001</text>
  <text x="1543" y="688.166" fill="black" font-size="15" text-anchor="middle">00KLS49AH002</text>
  <image x="1099.5" y="668.666" width="70" height="65" xlink:href="DS_Reg_valve_tenzor.svg">
    <title>&quot;00SBT04AA207&quot;</title>
    <rt:dyn type="KKS" mode="constant" value="&quot;00SBT04AA207&quot;"/> 
    <rt:dyn type="DATA_NARY" mode="constant" value="&quot;TYPE2&quot;"/> 
    <rt:dyn type="Operate" mode="constant" value="true"/> 
  </image>
  <image x="1031.5" y="670.666" width="65" height="25" xlink:href="DS_TPTS_Reg_degree.svg">
    <title>&quot;00SBT04AA207&quot;</title>
    <rt:dyn type="KKS" mode="constant" value="&quot;00SBT04AA207&quot;"/> 
    <rt:dyn type="SIGNAL" mode="constant" value="&quot;XQ54&quot;"/> 
  </image>
  <text x="1070.5" y="663.166" fill="black" font-size="15">00SBT04AA207</text>
  <g>
    <rect x="1092.87" y="114.13" width="50" height="50" rx="0" ry="0" fill="Col_BGSand" stroke="black" transform="rotate(45 325 675)"/> 
    <line x1="1229.57" y1="856.729" x2="1299.57" y2="856.729" stroke="black" stroke-dasharray="5,5"/> 
  </g>
  <text x="1334" y="827.166" fill="black" font-size="15" text-anchor="middle">00KLS49AT001</text>
  <image x="1228.5" y="963.666" width="70" height="45" xlink:href="DS_pivot_valve_tenzor.svg">
    <title>00KLS49AA001</title>
    <rt:dyn type="DATA_NARY" mode="constant" value="&quot;TYPE2&quot;"/> 
    <rt:dyn type="KKS" mode="constant" value="&quot;00KLS49AA001&quot;"/> 
    <rt:dyn type="Operate" mode="constant" value="true"/> 
  </image>
  <text x="1335" y="958.166" fill="black" font-size="15" text-anchor="middle">00KLS49AA001</text>
  <g transform="rotate(270 1762.81 74.4803)">
    <polygon points="474.35,870.479 499.34,870.479 487.35,845.479 487.35,845.479" fill="black" stroke="black" stroke-width="1" transform="rotate(90 1279.17 367.814)"/> 
  </g>
  <image x="1242.5" y="288.667" width="175" height="25" xlink:href="DS_ana_tenzor.svg">
    <title>00KLS49CT003</title>
    <rt:dyn type="FKKS" mode="constant" value="&quot;00KLS49CT003&quot;"/> 
    <rt:dyn type="X" mode="constant" value="&quot;T&quot;"/> 
    <rt:dyn type="ShowFrame" mode="constant" value="true"/> 
    <rt:dyn type="ValueToTheRight" mode="constant" value="false"/> 
    <rt:dyn type="Color_Readings" mode="constant" value="true"/> 
  </image>
  <image x="1206.5" y="393.667" width="175" height="25" xlink:href="DS_ana_tenzor.svg">
    <title>00KLS49CT001</title>
    <rt:dyn type="FKKS" mode="constant" value="&quot;00KLS49CT001&quot;"/> 
    <rt:dyn type="X" mode="constant" value="&quot;T&quot;"/> 
    <rt:dyn type="ShowFrame" mode="constant" value="true"/> 
    <rt:dyn type="ValueToTheRight" mode="constant" value="false"/> 
    <rt:dyn type="Color_Readings" mode="constant" value="true"/> 
  </image>
  <image x="1206.5" y="363.667" width="175" height="25" xlink:href="DS_ana_tenzor.svg">
    <title>00KLS49CP003</title>
    <rt:dyn type="FKKS" mode="constant" value="&quot;00KLS49CP003&quot;"/> 
    <rt:dyn type="X" mode="constant" value="&quot;P&quot;"/> 
    <rt:dyn type="ShowFrame" mode="constant" value="true"/> 
    <rt:dyn type="ValueToTheRight" mode="constant" value="false"/> 
    <rt:dyn type="Color_Readings" mode="constant" value="true"/> 
  </image>
  <image x="1466.5" y="393.667" width="175" height="25" xlink:href="DS_ana_tenzor.svg">
    <title>00KLS49CT002</title>
    <rt:dyn type="FKKS" mode="constant" value="&quot;00KLS49CT002&quot;"/> 
    <rt:dyn type="X" mode="constant" value="&quot;T&quot;"/> 
    <rt:dyn type="ShowFrame" mode="constant" value="true"/> 
    <rt:dyn type="ValueToTheRight" mode="constant" value="false"/> 
    <rt:dyn type="Color_Readings" mode="constant" value="true"/> 
  </image>
  <image x="1466.5" y="363.667" width="175" height="25" xlink:href="DS_ana_tenzor.svg">
    <title>00KLS49CP004</title>
    <rt:dyn type="FKKS" mode="constant" value="&quot;00KLS49CP004&quot;"/> 
    <rt:dyn type="X" mode="constant" value="&quot;P&quot;"/> 
    <rt:dyn type="ShowFrame" mode="constant" value="true"/> 
    <rt:dyn type="ValueToTheRight" mode="constant" value="false"/> 
    <rt:dyn type="Color_Readings" mode="constant" value="true"/> 
  </image>
  <image x="1078.5" y="584.667" width="175" height="25" xlink:href="DS_ana_tenzor.svg">
    <title>00KLS49CT004</title>
    <rt:dyn type="FKKS" mode="constant" value="&quot;00KLS49CT004&quot;"/> 
    <rt:dyn type="X" mode="constant" value="&quot;T&quot;"/> 
    <rt:dyn type="ShowFrame" mode="constant" value="true"/> 
    <rt:dyn type="ValueToTheRight" mode="constant" value="false"/> 
    <rt:dyn type="Color_Readings" mode="constant" value="true"/> 
  </image>
  <image x="1623.5" y="584.667" width="175" height="25" xlink:href="DS_ana_tenzor.svg">
    <title>00KLS49CT005</title>
    <rt:dyn type="FKKS" mode="constant" value="&quot;00KLS49CT005&quot;"/> 
    <rt:dyn type="X" mode="constant" value="&quot;T&quot;"/> 
    <rt:dyn type="ShowFrame" mode="constant" value="true"/> 
    <rt:dyn type="ValueToTheRight" mode="constant" value="false"/> 
    <rt:dyn type="Color_Readings" mode="constant" value="true"/> 
  </image>
  <line x1="992.5" y1="709.666" x2="992.5" y2="1035.67" stroke="black" stroke-width="3"/> 
  <g transform="flipY(844.309) rotate(270 1762.81 74.4803)">
    <polygon points="201.35,463.146 226.34,463.146 214.35,438.146 214.35,438.146" fill="black" stroke="black" stroke-width="1" transform="rotate(90 1279.17 367.814)"/> 
  </g>
  <image x="1020.5" y="843.666" width="175" height="25" xlink:href="DS_ana_tenzor.svg">
    <title>00KLS49CP001</title>
    <rt:dyn type="FKKS" mode="constant" value="&quot;00KLS49CP001&quot;"/> 
    <rt:dyn type="X" mode="constant" value="&quot;dP&quot;"/> 
    <rt:dyn type="ShowFrame" mode="constant" value="true"/> 
    <rt:dyn type="ValueToTheRight" mode="constant" value="false"/> 
    <rt:dyn type="Color_Readings" mode="constant" value="true"/> 
  </image>
  <line x1="1206.5" y1="810.666" x2="1206.5" y2="903.666" stroke="black" stroke-dasharray="5,5"/> 
  <line x1="2179.67" y1="623" x2="2179.67" y2="680" stroke="black" stroke-dasharray="5,5" transform="rotate(90 1581.5 305)"/> 
  <line x1="2087.67" y1="623" x2="2087.67" y2="680" stroke="black" stroke-dasharray="5,5" transform="rotate(90 1581.5 305)"/> 
  <image x="996.5" y="972.666" width="175" height="25" xlink:href="DS_ana_tenzor.svg">
    <title>00SBT04CT007</title>
    <rt:dyn type="FKKS" mode="constant" value="&quot;00SBT04CT007&quot;"/> 
    <rt:dyn type="X" mode="constant" value="&quot;T&quot;"/> 
    <rt:dyn type="ShowFrame" mode="constant" value="true"/> 
    <rt:dyn type="ValueToTheRight" mode="constant" value="false"/> 
    <rt:dyn type="Color_Readings" mode="constant" value="true"/> 
  </image>
  <g>
    <rect x="1338.95" y="-131.943" width="50" height="50" rx="0" ry="0" fill="Col_BGSand" stroke="black" transform="rotate(45 325 675)"/> 
    <line x1="1577.57" y1="856.729" x2="1647.57" y2="856.729" stroke="black" stroke-dasharray="5,5"/> 
  </g>
  <line x1="1670" y1="804.666" x2="1670" y2="897.666" stroke="black" stroke-dasharray="5,5"/> 
  <line x1="2173.67" y1="216.5" x2="2173.67" y2="273.5" stroke="black" stroke-dasharray="5,5" transform="rotate(90 1581.5 305)"/> 
  <line x1="2081.67" y1="216.5" x2="2081.67" y2="273.5" stroke="black" stroke-dasharray="5,5" transform="rotate(90 1581.5 305)"/> 
  <text x="1543" y="827.166" fill="black" font-size="15" text-anchor="middle">00KLS49AT002</text>
  <image x="1680.5" y="843.666" width="175" height="25" xlink:href="DS_ana_tenzor.svg">
    <title>00KLS49CP002</title>
    <rt:dyn type="FKKS" mode="constant" value="&quot;00KLS49CP002&quot;"/> 
    <rt:dyn type="X" mode="constant" value="&quot;dP&quot;"/> 
    <rt:dyn type="ShowFrame" mode="constant" value="true"/> 
    <rt:dyn type="ValueToTheRight" mode="constant" value="false"/> 
    <rt:dyn type="Color_Readings" mode="constant" value="true"/> 
  </image>
  <line x1="1884.5" y1="709.666" x2="1884.5" y2="1035.67" stroke="black" stroke-width="3"/> 
  <g transform="flipY(844.309) rotate(270 1762.81 74.4803)">
    <polygon points="1093.35,463.146 1118.34,463.146 1106.35,438.146 1106.35,438.146" fill="black" stroke="black" stroke-width="1" transform="rotate(90 1279.17 367.814)"/> 
  </g>
  <g transform="rotate(270 1762.81 74.4803)">
    <polygon points="823.35,870.479 848.34,870.479 836.35,845.479 836.35,845.479" fill="black" stroke="black" stroke-width="1" transform="rotate(90 1279.17 367.814)"/> 
  </g>
  <image x="1719" y="668.666" width="70" height="65" xlink:href="DS_Reg_valve_tenzor.svg">
    <title>&quot;00SBT04AA208&quot;</title>
    <rt:dyn type="KKS" mode="constant" value="&quot;00SBT04AA208&quot;"/> 
    <rt:dyn type="DATA_NARY" mode="constant" value="&quot;TYPE2&quot;"/> 
    <rt:dyn type="Operate" mode="constant" value="true"/> 
  </image>
  <image x="1792" y="670.666" width="65" height="25" xlink:href="DS_TPTS_Reg_degree.svg">
    <title>&quot;00SBT04AA208&quot;</title>
    <rt:dyn type="KKS" mode="constant" value="&quot;00SBT04AA208&quot;"/> 
    <rt:dyn type="SIGNAL" mode="constant" value="&quot;XQ54&quot;"/> 
  </image>
  <text x="1690" y="663.166" fill="black" font-size="15">00SBT04AA208</text>
  <text x="1541.5" y="958.166" fill="black" font-size="15" text-anchor="middle">00KLS49AA002</text>
  <image x="1577.5" y="963.666" width="70" height="45" xlink:href="DS_pivot_valve_tenzor.svg">
    <title>00KLS49AA002</title>
    <rt:dyn type="DATA_NARY" mode="constant" value="&quot;TYPE2&quot;"/> 
    <rt:dyn type="KKS" mode="constant" value="&quot;00KLS49AA002&quot;"/> 
    <rt:dyn type="Operate" mode="constant" value="true"/> 
  </image>
  <image x="1705.5" y="972.666" width="175" height="25" xlink:href="DS_ana_tenzor.svg">
    <title>00SBT04CT008</title>
    <rt:dyn type="FKKS" mode="constant" value="&quot;00SBT04CT008&quot;"/> 
    <rt:dyn type="X" mode="constant" value="&quot;T&quot;"/> 
    <rt:dyn type="ShowFrame" mode="constant" value="true"/> 
    <rt:dyn type="ValueToTheRight" mode="constant" value="false"/> 
    <rt:dyn type="Color_Readings" mode="constant" value="true"/> 
  </image>
  <line x1="935.5" y1="710.666" x2="667.5" y2="710.666" stroke="black" stroke-width="3"/> 
  <g>
    <line x1="2028.67" y1="1582" x2="2028.67" y2="1639" stroke="black" stroke-width="3" transform="rotate(90 1581.5 305)"/> 
    <line x1="248.5" y1="751.666" x2="248.5" y2="792.666" stroke="black" stroke-width="3"/> 
    <g transform="rotate(90 798.74 61.9513)">
      <g transform="rotate(270 1762.81 74.4803)">
        <polygon points="739.305,492.385 764.295,492.385 752.305,467.385 752.305,467.385" fill="black" stroke="black" stroke-width="1" transform="rotate(90 1279.17 367.814)"/> 
      </g>
      <line x1="1529.1" y1="610.695" x2="1529.1" y2="660.695" stroke="black" stroke-width="3"/> 
    </g>
  </g>
  <g transform="flipX(705.5)">
    <line x1="2028.67" y1="1148" x2="2028.67" y2="1205" stroke="black" stroke-width="3" transform="rotate(90 1581.5 305)"/> 
    <line x1="682.5" y1="751.666" x2="682.5" y2="792.666" stroke="black" stroke-width="3"/> 
    <g transform="rotate(90 798.74 61.9513)">
      <g transform="rotate(270 1762.81 74.4803)">
        <polygon points="739.305,58.3853 764.295,58.3853 752.305,33.3852 752.305,33.3852" fill="black" stroke="black" stroke-width="1" transform="rotate(90 1279.17 367.814)"/> 
      </g>
      <line x1="1529.1" y1="176.696" x2="1529.1" y2="226.696" stroke="black" stroke-width="3"/> 
    </g>
  </g>
  <line x1="663" y1="555" x2="663" y2="1039.55" stroke="black" stroke-width="3"/> 
  <line x1="314.5" y1="555" x2="314.5" y2="1039.55" stroke="black" stroke-width="3"/> 
  <line x1="473.818" y1="272.785" x2="473.818" y2="424.667" stroke="black" stroke-width="3"/> 
  <line x1="309.5" y1="710.666" x2="41.5" y2="710.666" stroke="black" stroke-width="3"/> 
  <g transform="rotate(270 1762.81 74.4803)">
    <polygon points="-315.636,82.4785 -290.646,82.4785 -302.636,57.4789 -302.636,57.4789" fill="black" stroke="black" stroke-width="1" transform="rotate(90 1279.17 367.814)"/> 
  </g>
  <line x1="299.818" y1="423.785" x2="299.818" y2="555" stroke="black" stroke-width="3"/> 
  <image x="279.818" y="503.785" width="70" height="70" xlink:href="DS_motor_tenzor.svg" transform="rotate(270 0.00012207 0)">
    <title>00KLS46AN001</title>
    <rt:dyn type="DeviceType" mode="constant" value="&quot;fan&quot;"/> 
    <rt:dyn type="Operate" mode="constant" value="true"/> 
    <rt:dyn type="KKS" mode="constant" value="&quot;00KLS46AN001&quot;"/> 
    <rt:dyn type="DATA_NARY" mode="constant" value="&quot;TYPE2&quot;"/> 
  </image>
  <line x1="648.818" y1="423.785" x2="298.818" y2="423.785" stroke="black" stroke-width="3"/> 
  <line x1="647.818" y1="423.785" x2="647.818" y2="555" stroke="black" stroke-width="3"/> 
  <image x="627.818" y="503.785" width="70" height="70" xlink:href="DS_motor_tenzor.svg" transform="rotate(270 0.00012207 0)">
    <title>00KLS46AN002</title>
    <rt:dyn type="DeviceType" mode="constant" value="&quot;fan&quot;"/> 
    <rt:dyn type="Operate" mode="constant" value="true"/> 
    <rt:dyn type="KKS" mode="constant" value="&quot;00KLS46AN002&quot;"/> 
    <rt:dyn type="DATA_NARY" mode="constant" value="&quot;TYPE2&quot;"/> 
  </image>
  <text x="239.818" y="538.785" fill="black" font-size="15" text-anchor="middle">00KLS46<tspan x="239.818" dy="15">AN001</tspan>
  </text>
  <text x="737.818" y="538.785" fill="black" font-size="15" text-anchor="middle">00KLS46<tspan x="737.818" dy="15">AN002</tspan>
  </text>
  <g transform="scale(0.765552 0.765552 609.241 429.584)">
    <rect x="172.9" y="439.731" width="66.8757" height="34.9577" rx="0" ry="0" fill="Col_BGSand" stroke="black"/> 
    <polygon points="208.82,439.901 173.71,474.509 204.56,474.258 238.98,439.91" fill="Col_Grey2" stroke="black"/> 
  </g>
  <g transform="scale(0.765552 0.765552 609.241 429.584)">
    <rect x="624.861" y="441.602" width="66.8757" height="34.9577" rx="0" ry="0" fill="Col_BGSand" stroke="black"/> 
    <polygon points="660.791,441.772 625.681,476.38 656.521,476.129 690.941,441.781" fill="Col_Grey2" stroke="black"/> 
  </g>
  <g transform="rotate(270 1762.81 74.4803)">
    <polygon points="-315.636,82.4785 -290.646,82.4785 -302.636,57.4789 -302.636,57.4789" fill="black" stroke="black" stroke-width="1" transform="rotate(90 1279.17 367.814)"/> 
  </g>
  <image x="404.818" y="516.785" width="181.818" height="24.2424" xlink:href="bitwise_tablo_4bits.svg">
    <title>00KLS46AN001002</title>
    <rt:dyn type="PointID_1" mode="constant" value="&quot;00KLS46AN001002_Z0 0&quot;"/> 
    <rt:dyn type="Text_0001" mode="constant" value="&quot;ÀÂÐ ÍÅ ÃÎÒÎÂ&quot;"/> 
    <rt:dyn type="Text_0000" mode="constant" value="&quot;ÀÂÐ ÄÈÑÒ&quot;"/> 
    <rt:dyn type="Color_0010" mode="constant" value="&quot;Col_Yellow&quot;"/> 
    <rt:dyn type="Color_0001" mode="constant" value="&quot;Col_Green&quot;"/> 
    <rt:dyn type="Text_0010" mode="constant" value="&quot;ÀÂÐ ÃÎÒÎÂ&quot;"/> 
    <rt:dyn type="PointID_2" mode="constant" value="&quot;00KLS46AN001002_Z0 1&quot;"/> 
    <rt:dyn type="PointID_3" mode="constant" value="&quot;00KLS46AN001002_Z0 2&quot;"/> 
    <rt:dyn type="PointID_4" mode="constant" value="&quot;00KLS46AN001002_Z0 3&quot;"/> 
    <rt:dyn type="Text_0100" mode="constant" value="&quot;ÀÂÐ ÑÐÀÁÎÒÀË&quot;"/> 
    <rt:dyn type="Color_0100" mode="constant" value="&quot;Col_Red&quot;"/> 
    <rt:dyn type="Color_0000" mode="constant" value="&quot;Col_Grey3&quot;"/> 
  </image>
  <text x="384" y="688.166" fill="black" font-size="15" text-anchor="middle">00KLS46AH001</text>
  <text x="593" y="688.166" fill="black" font-size="15" text-anchor="middle">00KLS46AH002</text>
  <image x="149.5" y="668.666" width="70" height="65" xlink:href="DS_Reg_valve_tenzor.svg">
    <title>&quot;00SBT04AA233&quot;</title>
    <rt:dyn type="KKS" mode="constant" value="&quot;00SBT04AA233&quot;"/> 
    <rt:dyn type="DATA_NARY" mode="constant" value="&quot;TYPE2&quot;"/> 
    <rt:dyn type="Operate" mode="constant" value="true"/> 
  </image>
  <image x="81.5" y="670.666" width="65" height="25" xlink:href="DS_TPTS_Reg_degree.svg">
    <title>&quot;00SBT04AA233&quot;</title>
    <rt:dyn type="KKS" mode="constant" value="&quot;00SBT04AA233&quot;"/> 
    <rt:dyn type="SIGNAL" mode="constant" value="&quot;XQ54&quot;"/> 
  </image>
  <text x="120.5" y="663.166" fill="black" font-size="15">00SBT04AA233</text>
  <g>
    <rect x="421.121" y="785.882" width="50" height="50" rx="0" ry="0" fill="Col_BGSand" stroke="black" transform="rotate(45 325 675)"/> 
    <line x1="279.569" y1="856.729" x2="349.569" y2="856.729" stroke="black" stroke-dasharray="5,5"/> 
  </g>
  <text x="384" y="827.166" fill="black" font-size="15" text-anchor="middle">00KLS46AT001</text>
  <image x="278.5" y="963.666" width="70" height="45" xlink:href="DS_pivot_valve_tenzor.svg">
    <title>00KLS46AA001</title>
    <rt:dyn type="DATA_NARY" mode="constant" value="&quot;TYPE2&quot;"/> 
    <rt:dyn type="KKS" mode="constant" value="&quot;00KLS46AA001&quot;"/> 
    <rt:dyn type="Operate" mode="constant" value="true"/> 
  </image>
  <text x="385" y="958.166" fill="black" font-size="15" text-anchor="middle">00KLS46AA001</text>
  <g transform="rotate(270 1762.81 74.4803)">
    <polygon points="-475.65,870.479 -450.66,870.479 -462.65,845.479 -462.65,845.479" fill="black" stroke="black" stroke-width="1" transform="rotate(90 1279.17 367.814)"/> 
  </g>
  <image x="292.5" y="288.667" width="175" height="25" xlink:href="DS_ana_tenzor.svg">
    <title>00KLS46CT003</title>
    <rt:dyn type="FKKS" mode="constant" value="&quot;00KLS46CT003&quot;"/> 
    <rt:dyn type="X" mode="constant" value="&quot;T&quot;"/> 
    <rt:dyn type="ShowFrame" mode="constant" value="true"/> 
    <rt:dyn type="ValueToTheRight" mode="constant" value="false"/> 
    <rt:dyn type="Color_Readings" mode="constant" value="true"/> 
  </image>
  <image x="256.5" y="393.667" width="175" height="25" xlink:href="DS_ana_tenzor.svg">
    <title>00KLS46CT001</title>
    <rt:dyn type="FKKS" mode="constant" value="&quot;00KLS46CT001&quot;"/> 
    <rt:dyn type="X" mode="constant" value="&quot;T&quot;"/> 
    <rt:dyn type="ShowFrame" mode="constant" value="true"/> 
    <rt:dyn type="ValueToTheRight" mode="constant" value="false"/> 
    <rt:dyn type="Color_Readings" mode="constant" value="true"/> 
  </image>
  <image x="256.5" y="363.667" width="175" height="25" xlink:href="DS_ana_tenzor.svg">
    <title>00KLS46CP003</title>
    <rt:dyn type="FKKS" mode="constant" value="&quot;00KLS46CP003&quot;"/> 
    <rt:dyn type="X" mode="constant" value="&quot;P&quot;"/> 
    <rt:dyn type="ShowFrame" mode="constant" value="true"/> 
    <rt:dyn type="ValueToTheRight" mode="constant" value="false"/> 
    <rt:dyn type="Color_Readings" mode="constant" value="true"/> 
  </image>
  <image x="516.5" y="393.667" width="175" height="25" xlink:href="DS_ana_tenzor.svg">
    <title>00KLS46CT002</title>
    <rt:dyn type="FKKS" mode="constant" value="&quot;00KLS46CT002&quot;"/> 
    <rt:dyn type="X" mode="constant" value="&quot;T&quot;"/> 
    <rt:dyn type="ShowFrame" mode="constant" value="true"/> 
    <rt:dyn type="ValueToTheRight" mode="constant" value="false"/> 
    <rt:dyn type="Color_Readings" mode="constant" value="true"/> 
  </image>
  <image x="516.5" y="363.667" width="175" height="25" xlink:href="DS_ana_tenzor.svg">
    <title>00KLS46CP004</title>
    <rt:dyn type="FKKS" mode="constant" value="&quot;00KLS46CP004&quot;"/> 
    <rt:dyn type="X" mode="constant" value="&quot;P&quot;"/> 
    <rt:dyn type="ShowFrame" mode="constant" value="true"/> 
    <rt:dyn type="ValueToTheRight" mode="constant" value="false"/> 
    <rt:dyn type="Color_Readings" mode="constant" value="true"/> 
  </image>
  <image x="128.5" y="584.667" width="175" height="25" xlink:href="DS_ana_tenzor.svg">
    <title>00KLS46CT004</title>
    <rt:dyn type="FKKS" mode="constant" value="&quot;00KLS46CT004&quot;"/> 
    <rt:dyn type="X" mode="constant" value="&quot;T&quot;"/> 
    <rt:dyn type="ShowFrame" mode="constant" value="true"/> 
    <rt:dyn type="ValueToTheRight" mode="constant" value="false"/> 
    <rt:dyn type="Color_Readings" mode="constant" value="true"/> 
  </image>
  <image x="673.5" y="584.667" width="175" height="25" xlink:href="DS_ana_tenzor.svg">
    <title>00KLS46CT005</title>
    <rt:dyn type="FKKS" mode="constant" value="&quot;00KLS46CT005&quot;"/> 
    <rt:dyn type="X" mode="constant" value="&quot;T&quot;"/> 
    <rt:dyn type="ShowFrame" mode="constant" value="true"/> 
    <rt:dyn type="ValueToTheRight" mode="constant" value="false"/> 
    <rt:dyn type="Color_Readings" mode="constant" value="true"/> 
  </image>
  <line x1="42.5" y1="709.666" x2="42.5" y2="1035.67" stroke="black" stroke-width="3"/> 
  <g transform="flipY(844.309) rotate(270 1762.81 74.4803)">
    <polygon points="-748.65,463.146 -723.66,463.146 -735.65,438.146 -735.65,438.146" fill="black" stroke="black" stroke-width="1" transform="rotate(90 1279.17 367.814)"/> 
  </g>
  <image x="70.5" y="843.666" width="175" height="25" xlink:href="DS_ana_tenzor.svg">
    <title>00KLS46CP001</title>
    <rt:dyn type="FKKS" mode="constant" value="&quot;00KLS46CP001&quot;"/> 
    <rt:dyn type="X" mode="constant" value="&quot;dP&quot;"/> 
    <rt:dyn type="ShowFrame" mode="constant" value="true"/> 
    <rt:dyn type="ValueToTheRight" mode="constant" value="false"/> 
    <rt:dyn type="Color_Readings" mode="constant" value="true"/> 
  </image>
  <line x1="256.5" y1="810.666" x2="256.5" y2="903.666" stroke="black" stroke-dasharray="5,5"/> 
  <line x1="2179.67" y1="1573" x2="2179.67" y2="1630" stroke="black" stroke-dasharray="5,5" transform="rotate(90 1581.5 305)"/> 
  <line x1="2087.67" y1="1573" x2="2087.67" y2="1630" stroke="black" stroke-dasharray="5,5" transform="rotate(90 1581.5 305)"/> 
  <image x="46.5" y="972.666" width="175" height="25" xlink:href="DS_ana_tenzor.svg">
    <title>00SBT04CT033</title>
    <rt:dyn type="FKKS" mode="constant" value="&quot;00SBT04CT033&quot;"/> 
    <rt:dyn type="X" mode="constant" value="&quot;T&quot;"/> 
    <rt:dyn type="ShowFrame" mode="constant" value="true"/> 
    <rt:dyn type="ValueToTheRight" mode="constant" value="false"/> 
    <rt:dyn type="Color_Readings" mode="constant" value="true"/> 
  </image>
  <g>
    <rect x="667.195" y="539.809" width="50" height="50" rx="0" ry="0" fill="Col_BGSand" stroke="black" transform="rotate(45 325 675)"/> 
    <line x1="627.569" y1="856.729" x2="697.569" y2="856.729" stroke="black" stroke-dasharray="5,5"/> 
  </g>
  <line x1="720" y1="804.666" x2="720" y2="897.666" stroke="black" stroke-dasharray="5,5"/> 
  <line x1="2173.67" y1="1166.5" x2="2173.67" y2="1223.5" stroke="black" stroke-dasharray="5,5" transform="rotate(90 1581.5 305)"/> 
  <line x1="2081.67" y1="1166.5" x2="2081.67" y2="1223.5" stroke="black" stroke-dasharray="5,5" transform="rotate(90 1581.5 305)"/> 
  <text x="593" y="827.166" fill="black" font-size="15" text-anchor="middle">00KLS46AT002</text>
  <image x="730.5" y="843.666" width="175" height="25" xlink:href="DS_ana_tenzor.svg">
    <title>00KLS46CP002</title>
    <rt:dyn type="FKKS" mode="constant" value="&quot;00KLS46CP002&quot;"/> 
    <rt:dyn type="X" mode="constant" value="&quot;dP&quot;"/> 
    <rt:dyn type="ShowFrame" mode="constant" value="true"/> 
    <rt:dyn type="ValueToTheRight" mode="constant" value="false"/> 
    <rt:dyn type="Color_Readings" mode="constant" value="true"/> 
  </image>
  <line x1="934.5" y1="709.666" x2="934.5" y2="1035.67" stroke="black" stroke-width="3"/> 
  <g transform="flipY(844.309) rotate(270 1762.81 74.4803)">
    <polygon points="143.35,463.146 168.34,463.146 156.35,438.146 156.35,438.146" fill="black" stroke="black" stroke-width="1" transform="rotate(90 1279.17 367.814)"/> 
  </g>
  <g transform="rotate(270 1762.81 74.4803)">
    <polygon points="-126.65,870.479 -101.66,870.479 -113.65,845.479 -113.65,845.479" fill="black" stroke="black" stroke-width="1" transform="rotate(90 1279.17 367.814)"/> 
  </g>
  <image x="769" y="668.666" width="70" height="65" xlink:href="DS_Reg_valve_tenzor.svg">
    <title>&quot;00SBT04AA234&quot;</title>
    <rt:dyn type="KKS" mode="constant" value="&quot;00SBT04AA234&quot;"/> 
    <rt:dyn type="DATA_NARY" mode="constant" value="&quot;TYPE2&quot;"/> 
    <rt:dyn type="Operate" mode="constant" value="true"/> 
  </image>
  <image x="842" y="670.666" width="65" height="25" xlink:href="DS_TPTS_Reg_degree.svg">
    <title>&quot;00SBT04AA234&quot;</title>
    <rt:dyn type="KKS" mode="constant" value="&quot;00SBT04AA234&quot;"/> 
    <rt:dyn type="SIGNAL" mode="constant" value="&quot;XQ54&quot;"/> 
  </image>
  <text x="740" y="663.166" fill="black" font-size="15">00SBT04AA234</text>
  <text x="591.5" y="958.166" fill="black" font-size="15" text-anchor="middle">00KLS46AA002</text>
  <image x="627.5" y="963.666" width="70" height="45" xlink:href="DS_pivot_valve_tenzor.svg">
    <title>00KLS46AA002</title>
    <rt:dyn type="DATA_NARY" mode="constant" value="&quot;TYPE2&quot;"/> 
    <rt:dyn type="KKS" mode="constant" value="&quot;00KLS46AA002&quot;"/> 
    <rt:dyn type="Operate" mode="constant" value="true"/> 
  </image>
  <image x="755.5" y="972.666" width="175" height="25" xlink:href="DS_ana_tenzor.svg">
    <title>00SBT04CT034</title>
    <rt:dyn type="FKKS" mode="constant" value="&quot;00SBT04CT034&quot;"/> 
    <rt:dyn type="X" mode="constant" value="&quot;T&quot;"/> 
    <rt:dyn type="ShowFrame" mode="constant" value="true"/> 
    <rt:dyn type="ValueToTheRight" mode="constant" value="false"/> 
    <rt:dyn type="Color_Readings" mode="constant" value="true"/> 
  </image>
  <image x="249" y="664.946" width="130" height="130" xlink:href="ps_TempValve.svg"/> 
  <image x="598" y="664.946" width="130" height="130" xlink:href="ps_TempValve.svg"/> 
  <image x="1199" y="664.946" width="130" height="130" xlink:href="ps_TempValve.svg"/> 
  <image x="1548" y="664.946" width="130" height="130" xlink:href="ps_TempValve.svg"/> 
  <image x="132.47" y="467.773" width="160" height="30" xlink:href="ps_tenzor_m0.svg">
    <title>00KLS46AN001</title>
    <rt:dyn type="KKS" mode="constant" value="&quot;00KLS46AN001&quot;"/> 
  </image>
  <image x="658.97" y="467.773" width="160" height="30" xlink:href="ps_tenzor_m0.svg">
    <title>00KLS46AN002</title>
    <rt:dyn type="KKS" mode="constant" value="&quot;00KLS46AN002&quot;"/> 
  </image>
  <image x="1079.44" y="468.273" width="160" height="30" xlink:href="ps_tenzor_m0.svg">
    <title>00KLS49AN001</title>
    <rt:dyn type="KKS" mode="constant" value="&quot;00KLS49AN001&quot;"/> 
  </image>
  <image x="1605.94" y="468.273" width="160" height="30" xlink:href="ps_tenzor_m0.svg">
    <title>00KLS49AN002</title>
    <rt:dyn type="KKS" mode="constant" value="&quot;00KLS49AN002&quot;"/> 
  </image>
  <rect x="27" y="179" width="280" height="75" rx="0" ry="0" fill="none" stroke="black" stroke-width="2"/> 
  <text x="162" y="204" fill="black" font-size="15" text-anchor="middle">Ðåæèì ðàáîòû 00KLS46</text>
  <image x="37" y="219" width="190" height="25" xlink:href="bitwise_tablo_4bits.svg">
    <title>00KLS46_XK92</title>
    <rt:dyn type="PointID_1" mode="constant" value="&quot;00KLS46_XK92&quot;"/> 
    <rt:dyn type="Text_0000" mode="constant" value="&quot;ÀÂÒÎÌÀÒÈ×ÅÑÊÈÉ&quot;"/> 
    <rt:dyn type="Color_0001" mode="constant" value="&quot;Col_Green&quot;"/> 
    <rt:dyn type="Text_0001" mode="constant" value="&quot;ÄÈÑÒÀÍÖÈÎÍÍÛÉ&quot;"/> 
    <rt:dyn type="Color_0000" mode="constant" value="&quot;Col_Green&quot;"/> 
  </image>
  <image x="237" y="214" width="60" height="30" xlink:href="ps_tenzor_system.svg">
    <title>00KLS46</title>
    <rt:dyn type="KKS" mode="constant" value="&quot;00KLS46&quot;"/> 
  </image>
  <rect x="1488" y="179" width="280" height="75" rx="0" ry="0" fill="none" stroke="black" stroke-width="2"/> 
  <text x="1623" y="204" fill="black" font-size="15" text-anchor="middle">Ðåæèì ðàáîòû 00KLS49</text>
  <image x="1498" y="219" width="190" height="25" xlink:href="bitwise_tablo_4bits.svg">
    <title>00KLS49_XK92</title>
    <rt:dyn type="PointID_1" mode="constant" value="&quot;00KLS49_XK92&quot;"/> 
    <rt:dyn type="Text_0000" mode="constant" value="&quot;ÀÂÒÎÌÀÒÈ×ÅÑÊÈÉ&quot;"/> 
    <rt:dyn type="Color_0001" mode="constant" value="&quot;Col_Green&quot;"/> 
    <rt:dyn type="Text_0001" mode="constant" value="&quot;ÄÈÑÒÀÍÖÈÎÍÍÛÉ&quot;"/> 
    <rt:dyn type="Color_0000" mode="constant" value="&quot;Col_Green&quot;"/> 
  </image>
  <image x="1698" y="214" width="60" height="30" xlink:href="ps_tenzor_system.svg">
    <title>00KLS49</title>
    <rt:dyn type="KKS" mode="constant" value="&quot;00KLS49&quot;"/> 
  </image>
  <image x="134.03" y="616.758" width="100" height="30" xlink:href="DS_Reg_set.svg">
    <title>&quot;00SBT04AA233&quot;</title>
    <rt:dyn type="KKS" mode="constant" value="&quot;00SBT04AA233&quot;"/> 
    <rt:dyn type="DATA_NARY" mode="constant" value="&quot;TYPE2&quot;"/> 
    <rt:dyn type="Operate" mode="constant" value="true"/> 
    <rt:dyn type="ShowGoodColor" mode="constant" value="true"/> 
  </image>
  <image x="755.666" y="617.273" width="100" height="30" xlink:href="DS_Reg_set.svg">
    <title>&quot;00SBT04AA234&quot;</title>
    <rt:dyn type="KKS" mode="constant" value="&quot;00SBT04AA234&quot;"/> 
    <rt:dyn type="DATA_NARY" mode="constant" value="&quot;TYPE2&quot;"/> 
    <rt:dyn type="Operate" mode="constant" value="true"/> 
    <rt:dyn type="ShowGoodColor" mode="constant" value="true"/> 
  </image>
  <image x="1083.48" y="617.273" width="100" height="30" xlink:href="DS_Reg_set.svg">
    <title>&quot;00SBT04AA207&quot;</title>
    <rt:dyn type="KKS" mode="constant" value="&quot;00SBT04AA207&quot;"/> 
    <rt:dyn type="DATA_NARY" mode="constant" value="&quot;TYPE2&quot;"/> 
    <rt:dyn type="Operate" mode="constant" value="true"/> 
    <rt:dyn type="ShowGoodColor" mode="constant" value="true"/> 
  </image>
  <image x="1706.21" y="617.273" width="100" height="30" xlink:href="DS_Reg_set.svg">
    <title>&quot;00SBT04AA208&quot;</title>
    <rt:dyn type="KKS" mode="constant" value="&quot;00SBT04AA208&quot;"/> 
    <rt:dyn type="DATA_NARY" mode="constant" value="&quot;TYPE2&quot;"/> 
    <rt:dyn type="Operate" mode="constant" value="true"/> 
    <rt:dyn type="ShowGoodColor" mode="constant" value="true"/> 
  </image>
</svg>
