<?xml  version="1.0" encoding="windows-1251"?>
<svg color="Col_BGSand" xmlns="http://www.w3.org/2000/svg" xmlns:rt="http://www.rts.co.at/2001/XMLSchema/RtSvgPL" xmlns:xlink="http://www.w3.org/1999/xlink" xmlns:xsi="http://www.w3.org/2001/XMLSchema-instance" xsi:schemaLocation="http://www.w3.org/2000/svg C:\RTS\RtSvg\XML\SVG.xsd" viewBox="0 0 1914 1000" width="1914" height="1000" id="00kpa30ec003_m82-85" stroke-width="3" font-size="15" font-weight="bold">
  <title>ПУ процессом загрузки НЗК</title>
  <rt:model modelversion="7.2.0.24" comment="UMod pvd_fgu" revision="2.0"/> 
  <line x1="839.683" y1="637.793" x2="789.683" y2="637.793" stroke="black" stroke-opacity="1" stroke-width="3"/> 
  <polyline points="923.037,766.853 923.037,850.853 1146.16,850.914" fill="none" stroke="black"/> 
  <polyline points="447.22,317.805 400.22,317.805 400.22,513.805" fill="none" stroke="black"/> 
  <polyline points="401.22,155.805 447.22,155.805 447.22,317.805 781,317.805 781,606.805 841,606.805" fill="none" stroke="black"/> 
  <polyline points="1477,525 1288,525 1288,578 839,578" fill="none" stroke="black"/> 
  <polyline points="1038.83,252.723 1038.83,283 1480,283" fill="none" stroke="black"/> 
  <g stroke-width="10" font-weight="bold" transform="scale(0.32 0.32 124 341) scale(1 1 124 340.5) scale(1 1 124 339.5) scale(1 1 124.5 338) scale(1 1 124.5 337.5) scale(1 1 124.5 337) scale(1 1 125 337.5) scale(1 1 125.5 339.5) scale(1 1 126 339.5) scale(1 1 126 340)">
    <path d="M3012.35 163.902 L2984.02 163.902 A28.3333 23.3333 0 0 0 3040.69 164.122 Z" fill="Col_BGSand" stroke="black"/> 
    <rect x="2990.05" y="154.102" width="45.292" height="15.4084" rx="0" ry="0" fill="Col_BGSand" stroke="none"/> 
  </g>
  <polyline points="1372,240 1050,240 1050,440 840,440 840,909" fill="none" stroke="black"/> 
  <line x1="1718.2" y1="544.439" x2="1668.2" y2="544.439" stroke="black" stroke-opacity="1" stroke-width="3"/> 
  <polyline points="1290,102 1372,102 1372,240 1477,240 1477,525 1718,525 1718,639" fill="none" stroke="black"/> 
  <line x1="1049.63" y1="253.208" x2="1020.13" y2="253.208" stroke="black" stroke-opacity="1" stroke-width="3"/> 
  <polyline points="1563.94,407.622 1563.94,491.622 1787.06,491.683" fill="none" stroke="black"/> 
  <polyline points="1451.42,114.768 1451.42,198.768 1674.54,198.829" fill="none" stroke="black"/> 
  <polyline points="529.318,198.707 529.318,282.707 752.438,282.768" fill="none" stroke="black"/> 
  <text x="957" y="39" fill-opacity="1" font-size="26" text-anchor="middle">ПУ процессом загрузки НЗК</text>
  <text x="12.6063" y="33.197" fill="black" font-size="18" font-weight="bold">00KPA30EC003</text>
  <image x="1700" y="18" width="50" height="25" xlink:href="DS_ana.svg">
    <title>00KPA30EC003</title>
    <rt:dyn type="FKKS" mode="constant" value="&quot;00KPA30EC003&quot;"/> 
    <rt:dyn type="ShowFrame" mode="constant" value="true"/> 
    <rt:dyn type="Color_Readings" mode="constant" value="true"/> 
    <rt:dyn type="DecPointNum" mode="constant" value="0"/> 
  </image>
  <text x="1500" y="35" font-size="16">Номер текущего шага:</text>
  <line x1="1636.27" y1="329.268" x2="1636.27" y2="329.268" stroke="black"/> 
  <rect x="404.183" y="195.012" width="150" height="55" rx="0" ry="0" fill="Col_BGSand" fill-opacity="1" stroke="black" stroke-opacity="1" stroke-width="3"/> 
  <line x1="554.183" y1="225.012" x2="404.183" y2="225.012" stroke="black" stroke-opacity="1" stroke-width="3"/> 
  <text x="414.183" y="215.012" fill="black" font-size="18" font-weight="700">ШАГ 82</text>
  <text x="414.183" y="243.012" fill="Col_Grey5" font-size="15">Т ожид</text>
  <text x="544.183" y="243.012" font-size="16" text-anchor="end">2 с</text>
  <image x="519.183" y="197.012" width="25" height="25" xlink:href="bin_indicator.svg">
    <title>00KPA30EC003_XS82</title>
    <rt:dyn type="PointID" value="&quot;00KPA30EC003_XS82&quot;" mode="constant"/> 
    <rt:dyn type="Col_ON" value="&quot;Col_Red&quot;" mode="constant"/> 
    <rt:dyn type="Col_OFF" value="&quot;Col_BGSand&quot;" mode="constant"/> 
  </image>
  <text x="536.183" y="276.012" font-size="16">Проверка условий</text>
  <line x1="329.634" y1="373.512" x2="279.634" y2="373.512" stroke="black" stroke-opacity="1" stroke-width="3"/> 
  <image x="275.634" y="361.512" width="25" height="25" xlink:href="bin_indicator.svg">
    <title>00KPA30EE440_ZV14</title>
    <rt:dyn type="PointID" value="&quot;00KPA30EE440_ZV14&quot;" mode="constant"/> 
    <rt:dyn type="Col_ON" value="&quot;Col_Red&quot;" mode="constant"/> 
    <rt:dyn type="Col_OFF" value="&quot;Col_BGSand&quot;" mode="constant"/> 
  </image>
  <text x="262.634" y="379.512" text-anchor="end">00KPA30EE440 СРАБ</text>
  <line x1="329.634" y1="345.512" x2="279.634" y2="345.512" stroke="black" stroke-opacity="1" stroke-width="3"/> 
  <image x="275.634" y="333.512" width="25" height="25" xlink:href="bin_indicator.svg">
    <title>00KPA30EE430_ZV14</title>
    <rt:dyn type="PointID" value="&quot;00KPA30EE430_ZV14&quot;" mode="constant"/> 
    <rt:dyn type="Col_ON" value="&quot;Col_Red&quot;" mode="constant"/> 
    <rt:dyn type="Col_OFF" value="&quot;Col_BGSand&quot;" mode="constant"/> 
  </image>
  <text x="262.634" y="351.512" text-anchor="end">00KPA30EE430 СРАБ</text>
  <line x1="329.634" y1="317.512" x2="279.634" y2="317.512" stroke="black" stroke-opacity="1" stroke-width="3"/> 
  <image x="275.634" y="305.512" width="25" height="25" xlink:href="bin_indicator.svg">
    <title>00KPA30EE420_ZV14</title>
    <rt:dyn type="PointID" value="&quot;00KPA30EE420_ZV14&quot;" mode="constant"/> 
    <rt:dyn type="Col_ON" value="&quot;Col_Red&quot;" mode="constant"/> 
    <rt:dyn type="Col_OFF" value="&quot;Col_BGSand&quot;" mode="constant"/> 
  </image>
  <text x="262.634" y="323.512" text-anchor="end">00KPA30EE420 СРАБ</text>
  <text x="262.634" y="295.512" text-anchor="end">00KPA30EE410 СРАБ</text>
  <image x="313.854" y="141.22" width="100" height="25" xlink:href="obj_Button.svg">
    <rt:dyn type="Label" value="&quot;Из шага 81&quot;" mode="constant"/> 
    <rt:event type="OnClick">LoadNew(&quot;00kpa30ec003_m77-81&quot;)</rt:event>
    <rt:dyn type="T_Size" value="18" mode="constant"/> 
  </image>
  <rect x="1325.28" y="112.854" width="150" height="55" rx="0" ry="0" fill="Col_BGSand" fill-opacity="1" stroke="black" stroke-opacity="1" stroke-width="3"/> 
  <line x1="1475.28" y1="142.854" x2="1325.28" y2="142.854" stroke="black" stroke-opacity="1" stroke-width="3"/> 
  <text x="1335.28" y="132.854" fill="black" font-size="18" font-weight="700">ШАГ 83</text>
  <text x="1335.28" y="160.854" fill="Col_Grey5" font-size="15">Т ожид</text>
  <text x="1465.28" y="160.854" font-size="16" text-anchor="end">0 с</text>
  <image x="1440.28" y="114.854" width="25" height="25" xlink:href="bin_indicator.svg">
    <title>00KPA30EC003_XS83</title>
    <rt:dyn type="PointID" value="&quot;00KPA30EC003_XS83&quot;" mode="constant"/> 
    <rt:dyn type="Col_ON" value="&quot;Col_Red&quot;" mode="constant"/> 
    <rt:dyn type="Col_OFF" value="&quot;Col_BGSand&quot;" mode="constant"/> 
  </image>
  <text x="1460.28" y="190.854" font-size="16">Проверка условий</text>
  <image x="994.95" y="241.488" width="25" height="25" xlink:href="bin_indicator.svg">
    <title>00KPA30EE109_ZV01</title>
    <rt:dyn type="PointID" value="&quot;00KPA30EE109_ZV01&quot;" mode="constant"/> 
    <rt:dyn type="Col_ON" value="&quot;Col_Red&quot;" mode="constant"/> 
    <rt:dyn type="Col_OFF" value="&quot;Col_BGSand&quot;" mode="constant"/> 
  </image>
  <text x="968.951" y="258.988" text-anchor="end">00KPA30EE109 СРАБ</text>
  <rect x="1436.88" y="373.805" width="150" height="55" rx="0" ry="0" fill="Col_BGSand" fill-opacity="1" stroke="black" stroke-opacity="1" stroke-width="3"/> 
  <line x1="1586.88" y1="403.805" x2="1436.88" y2="403.805" stroke="black" stroke-opacity="1" stroke-width="3"/> 
  <text x="1446.88" y="393.805" fill="black" font-size="18" font-weight="700">ШАГ 84</text>
  <text x="1446.88" y="421.805" fill="Col_Grey5" font-size="15">Т ожид</text>
  <text x="1576.88" y="421.805" font-size="16" text-anchor="end">0 с</text>
  <image x="1551.88" y="375.805" width="25" height="25" xlink:href="bin_indicator.svg">
    <title>00KPA30EC003_XS84</title>
    <rt:dyn type="PointID" value="&quot;00KPA30EC003_XS84&quot;" mode="constant"/> 
    <rt:dyn type="Col_ON" value="&quot;Col_Red&quot;" mode="constant"/> 
    <rt:dyn type="Col_OFF" value="&quot;Col_BGSand&quot;" mode="constant"/> 
  </image>
  <text x="1571.39" y="451.39" font-size="16" font-style="italic" font-weight="normal">Сообщение<tspan x="1571.39" dy="16">&quot;Сделайте еще брикетов, либо</tspan>
<tspan x="1571.39" dy="16">завершите загрузку НЗК&quot;</tspan>
  </text>
  <image x="1670.39" y="626.659" width="100" height="25" xlink:href="obj_Button.svg">
    <rt:dyn type="Label" value="&quot;В шаг 1&quot;" mode="constant"/> 
    <rt:event type="OnClick">LoadNew(&quot;00kpa30ec003_m1-4&quot;)</rt:event>
    <rt:dyn type="T_Size" value="18" mode="constant"/> 
  </image>
  <image x="1659.51" y="531.939" width="25" height="25" xlink:href="bin_indicator.svg">
    <title>00KPA30EE109_ZV01</title>
    <rt:dyn type="PointID" value="&quot;00KPA30EE109_ZV01&quot;" mode="constant"/> 
    <rt:dyn type="Col_ON" value="&quot;Col_Red&quot;" mode="constant"/> 
    <rt:dyn type="Col_OFF" value="&quot;Col_BGSand&quot;" mode="constant"/> 
  </image>
  <text x="1645.51" y="549.439" text-anchor="end">00KPA30EE109 СРАБ</text>
  <line x1="1286.98" y1="544.439" x2="1236.98" y2="544.439" stroke="black" stroke-opacity="1" stroke-width="3"/> 
  <image x="1220.48" y="533.439" width="44" height="22" xlink:href="bitwise_tablo_4bits.svg">
    <title>00KPA30CH005TE0_Z0 0</title>
    <rt:dyn type="PointID_1" value="&quot;00KPA30CH005TE0_Z0 0&quot;" mode="constant"/> 
    <rt:dyn type="Text_0000" value="&quot;&quot;" mode="constant"/> 
    <rt:dyn type="Text_0001" value="&quot;&quot;" mode="constant"/> 
    <rt:dyn type="Color_0000" value="&quot;Col_BGSand&quot;" mode="constant"/> 
    <rt:dyn type="Color_0001" value="&quot;Col_Red&quot;" mode="constant"/> 
    <rt:dyn type="T_Size" value="0" mode="constant"/> 
  </image>
  <text x="1207.98" y="548.86" text-anchor="end">00KPA30CH005 ПОДТВ</text>
  <rect x="795.684" y="732.28" width="150" height="55" rx="0" ry="0" fill="Col_BGSand" fill-opacity="1" stroke="black" stroke-opacity="1" stroke-width="3"/> 
  <line x1="945.687" y1="762.28" x2="795.684" y2="762.28" stroke="black" stroke-opacity="1" stroke-width="3"/> 
  <text x="805.684" y="752.28" fill="black" font-size="18" font-weight="700">ШАГ 85</text>
  <text x="805.684" y="780.28" fill="Col_Grey5" font-size="15">Т ожид</text>
  <text x="935.684" y="780.28" font-size="16" text-anchor="end">0 с</text>
  <image x="910.684" y="734.28" width="25" height="25" xlink:href="bin_indicator.svg">
    <title>00KPA30EC003_XS85</title>
    <rt:dyn type="PointID" value="&quot;00KPA30EC003_XS85&quot;" mode="constant"/> 
    <rt:dyn type="Col_ON" value="&quot;Col_Red&quot;" mode="constant"/> 
    <rt:dyn type="Col_OFF" value="&quot;Col_BGSand&quot;" mode="constant"/> 
  </image>
  <text x="931.293" y="810.975" font-size="16" font-style="italic" font-weight="normal">Сообщение<tspan x="931.293" dy="16">&quot;Загрузка НЗК завершена.</tspan>
<tspan x="931.293" dy="16">Удалите контейнер&quot;</tspan>
  </text>
  <line x1="839.781" y1="812.231" x2="789.781" y2="812.231" stroke="black" stroke-opacity="1" stroke-width="3"/> 
  <image x="762.281" y="801.231" width="44" height="22" xlink:href="bitwise_tablo_4bits.svg">
    <title>00KPA30CH006TE0_Z0 0</title>
    <rt:dyn type="PointID_1" value="&quot;00KPA30CH006TE0_Z0 0&quot;" mode="constant"/> 
    <rt:dyn type="Text_0000" value="&quot;&quot;" mode="constant"/> 
    <rt:dyn type="Text_0001" value="&quot;&quot;" mode="constant"/> 
    <rt:dyn type="Color_0000" value="&quot;Col_BGSand&quot;" mode="constant"/> 
    <rt:dyn type="Color_0001" value="&quot;Col_Red&quot;" mode="constant"/> 
    <rt:dyn type="T_Size" value="0" mode="constant"/> 
  </image>
  <text x="747.781" y="816.652" text-anchor="end">00KPA30CH006 ПОДТВ</text>
  <circle cx="1474.1" cy="283.371" r="5" fill="Col_BGSand" fill-opacity="1" stroke="black" stroke-opacity="1" stroke-width="3"/> 
  <g>
    <rect x="1455.86" y="302.556" width="46" height="46" rx="0" ry="0" fill="Col_BGSand" fill-opacity="1" stroke="black" stroke-opacity="1" stroke-width="3"/> 
    <text x="1467.28" y="334.89" font-size="28">&amp;</text>
  </g>
  <g>
    <rect x="1026.98" y="306.556" width="46" height="46" rx="0" ry="0" fill="Col_BGSand" fill-opacity="1" stroke="black" stroke-opacity="1" stroke-width="3"/> 
    <text x="1038.4" y="338.89" font-size="28">&amp;</text>
  </g>
  <g>
    <rect x="1696.39" y="566.647" width="46" height="46" rx="0" ry="0" fill="Col_BGSand" fill-opacity="1" stroke="black" stroke-opacity="1" stroke-width="3"/> 
    <text x="1707.81" y="598.981" font-size="28">&amp;</text>
  </g>
  <image x="1201.92" y="85.3902" width="100" height="25" xlink:href="obj_Button.svg">
    <rt:dyn type="Label" value="&quot;Из шага 39&quot;" mode="constant"/> 
    <rt:event type="OnClick">LoadNew(&quot;00kpa30ec003_m36-42&quot;)</rt:event>
    <rt:dyn type="T_Size" value="18" mode="constant"/> 
  </image>
  <polyline points="286.757,289.805 328.757,289.805 328.757,399.805 400.44,399.805" fill="none" stroke="black"/> 
  <image x="275.634" y="277.512" width="25" height="25" xlink:href="bin_indicator.svg">
    <title>00KPA30EE410_ZV14</title>
    <rt:dyn type="PointID" value="&quot;00KPA30EE410_ZV14&quot;" mode="constant"/> 
    <rt:dyn type="Col_ON" value="&quot;Col_Red&quot;" mode="constant"/> 
    <rt:dyn type="Col_OFF" value="&quot;Col_BGSand&quot;" mode="constant"/> 
  </image>
  <g>
    <rect x="339.915" y="376.475" width="46" height="46" rx="0" ry="0" fill="Col_BGSand" fill-opacity="1" stroke="black" stroke-opacity="1" stroke-width="3"/> 
    <text x="341.574" y="408.809" font-size="28">&gt;1</text>
  </g>
  <g>
    <g>
      <rect x="376.415" y="438.256" width="46" height="46" rx="0" ry="0" fill="Col_BGSand" fill-opacity="1" stroke="black" stroke-opacity="1" stroke-width="3"/> 
      <text x="387.831" y="470.591" font-size="28">&amp;</text>
    </g>
  </g>
  <image x="349.415" y="497.952" width="100" height="25" xlink:href="obj_Button.svg">
    <rt:dyn type="Label" value="&quot;В шаг 1&quot;" mode="constant"/> 
    <rt:event type="OnClick">LoadNew(&quot;00kpa30ec003_m1-4&quot;)</rt:event>
    <rt:dyn type="T_Size" value="18" mode="constant"/> 
  </image>
  <image x="792.27" y="889.487" width="100" height="25" xlink:href="obj_Button.svg">
    <rt:dyn type="Label" value="&quot;В шаг 86&quot;" mode="constant"/> 
    <rt:event type="OnClick">LoadNew(&quot;00kpa30ec003_m86-87&quot;)</rt:event>
    <rt:dyn type="T_Size" value="18" mode="constant"/> 
  </image>
  <g>
    <rect x="818.012" y="668.085" width="46" height="46" rx="0" ry="0" fill="Col_BGSand" fill-opacity="1" stroke="black" stroke-opacity="1" stroke-width="3"/> 
    <text x="819.671" y="700.419" font-size="28">&gt;1</text>
  </g>
  <text x="529.707" y="308.305" font-style="italic" font-weight="normal" text-anchor="end">заполнен</text>
  <text x="430.927" y="293.305" font-style="italic" font-weight="normal" text-anchor="end">есть место<tspan x="430.927" dy="15">по высоте</tspan>
  </text>
  <text x="1617.98" y="218.293" font-style="italic" font-weight="normal" text-anchor="end">на столе накопителе брикетов<tspan x="1617.98" dy="15">есть свободное место</tspan>
  </text>
  <text x="1360.66" y="217.073" font-style="italic" font-weight="normal" text-anchor="end">на столе-накопителе брикетов<tspan x="1360.66" dy="15">нет свободных мест</tspan>
  </text>
  <image x="718.488" y="626.537" width="100" height="25" xlink:href="obj_Button.svg">
    <rt:dyn type="Label" value="&quot;Из шага 75&quot;" mode="constant"/> 
    <rt:event type="OnClick">LoadNew(&quot;00kpa30ec003_m73-76&quot;)</rt:event>
    <rt:dyn type="T_Size" value="18" mode="constant"/> 
  </image>
  <g>
    <rect x="819.27" y="830.524" width="46" height="46" rx="0" ry="0" fill="Col_BGSand" fill-opacity="1" stroke="black" stroke-opacity="1" stroke-width="3"/> 
    <text x="830.69" y="862.858" font-size="28">&amp;</text>
  </g>
  <text x="932.366" y="873.146" font-size="16" font-style="italic" font-weight="normal">(НЗК удален)</text>
  <text x="1625.05" y="513.744" font-style="italic" font-weight="normal" text-anchor="end">стол дозаполнен</text>
  <text x="1456.76" y="513.744" font-style="italic" font-weight="normal" text-anchor="end">загрузка завершена</text>
</svg>
