<?xml  version="1.0" encoding="UTF-8"?>
<svg color="Col_BGSand" xmlns="http://www.w3.org/2000/svg" xmlns:rt="http://www.rts.co.at/2001/XMLSchema/RtSvgPL" xmlns:xlink="http://www.w3.org/1999/xlink" xmlns:xsi="http://www.w3.org/2001/XMLSchema-instance" xsi:schemaLocation="http://www.w3.org/2000/svg C:\RTS\RtSvg\XML\SVG.xsd" viewBox="0 0 1920 1080" width="1920" height="1080" id="00qcq30" fill="Col_Grey3">
  <rt:model modelversion="7.2.0.24" comment="Создано VNIIAES-ASUTP\voroninrs 10.12.2012 14:48:20"/> 
  <line x1="830" y1="864" x2="830" y2="808" stroke="black"/> 
  <line x1="405" y1="814" x2="507" y2="814" stroke="black"/> 
  <g transform="flipY(734.979) rotate(270 702.642 701.976) rotate(360 1.4013e-045 3.88002e-039) flipX(862.191) flipX(616.809) rotate(90 132.155 29.823) rotate(360 1.4013e-045 2.31881e-039) flipY(911) rotate(180 1212.44 532.643)">
    <polygon points="775.968,1006.4 800.969,1006.4 788.969,1031.4 788.969,1031.4" fill="black" stroke="black" stroke-width="1" transform="rotate(180 1279.17 367.814)"/> 
  </g>
  <line x1="554" y1="348" x2="554" y2="215" stroke="black" stroke-width="3"/> 
  <line x1="707.625" y1="325.309" x2="707.625" y2="293.309" stroke="black"/> 
  <line x1="511.955" y1="325.309" x2="511.955" y2="293.309" stroke="black"/> 
  <line x1="298" y1="433" x2="298" y2="433" stroke="black"/> 
  <line x1="344" y1="425" x2="342" y2="0"/> 
  <line x1="592.727" y1="690.909" x2="592.727" y2="690.909" stroke="black"/> 
  <line x1="749.091" y1="939.091" x2="749.091" y2="939.091" stroke="black"/> 
  <line x1="638.182" y1="881.818" x2="638.182" y2="881.818" stroke="black"/> 
  <line x1="214.545" y1="692.727" x2="214.545" y2="692.727" stroke="black"/> 
  <line x1="259.091" y1="771.818" x2="259.091" y2="771.818" stroke="black"/> 
  <line x1="195.455" y1="720" x2="195.455" y2="720" stroke="black"/> 
  <line x1="186.364" y1="713.636" x2="186.364" y2="713.636" stroke="black"/> 
  <line x1="191.818" y1="715.455" x2="191.818" y2="715.455" stroke="black"/> 
  <line x1="985.455" y1="149.091" x2="985.455" y2="149.091" stroke="black"/> 
  <line x1="1150" y1="365" x2="1150" y2="365" stroke="black"/> 
  <line x1="1274" y1="337" x2="1274" y2="337" stroke="black"/> 
  <line x1="1029" y1="375" x2="1029" y2="375" stroke="black"/> 
  <line x1="1215.33" y1="421.333" x2="1215.33" y2="421.333" stroke="black"/> 
  <line x1="1007" y1="314.75" x2="1007" y2="314.75" stroke="black"/> 
  <line x1="1027.27" y1="820" x2="1027.27" y2="820" stroke="black"/> 
  <line x1="675" y1="65" x2="675" y2="65" stroke="black"/> 
  <line x1="1468" y1="294" x2="1468" y2="294" stroke="black"/> 
  <line x1="1066.67" y1="766" x2="1066.67" y2="766" stroke="black"/> 
  <line x1="478.625" y1="68.3087" x2="1035.52" y2="68.3087" stroke="black" stroke-width="3"/> 
  <g transform="flipY(734.979) rotate(270 702.642 701.976) rotate(360 1.4013e-045 3.88002e-039) flipX(862.191) flipX(616.809) rotate(90 132.155 29.823) rotate(360 1.4013e-045 2.31881e-039) flipY(911) rotate(180 1212.44 532.643)">
    <polygon points="859.163,1000.71 884.163,1000.71 872.163,1025.71 872.163,1025.71" fill="black" stroke="black" stroke-width="1" transform="rotate(180 1279.17 367.814)"/> 
  </g>
  <text x="584.505" y="125.354" fill="black" font-size="15" text-anchor="middle">00QCQ20<tspan x="584.505" dy="15">AA001</tspan>
  </text>
  <image x="370.625" y="276.309" width="175" height="25" xlink:href="DS_ana_tenzor.svg">
    <title>00QCQ20CL001</title>
    <rt:dyn type="ShowFrame" mode="constant" value="true"/> 
    <rt:dyn type="X" mode="constant" value="&quot;L&quot;"/> 
    <rt:dyn type="FKKS" mode="constant" value="&quot;00QCQ20CL001&quot;"/> 
    <rt:dyn type="ValueToTheRight" mode="constant" value="false"/> 
    <rt:dyn type="Color_Readings" mode="constant" value="true"/> 
  </image>
  <line x1="636.515" y1="345.309" x2="636.515" y2="199.576" stroke="black" stroke-width="3"/> 
  <line x1="586.625" y1="343.536" x2="636.625" y2="343.536" stroke="black" stroke-width="3"/> 
  <rect x="486.625" y="318.309" width="102" height="178" rx="0" ry="0" stroke="black" stroke-width="2"/> 
  <polyline points="486.625,495.309 586.625,496.309 537.625,543.309 486.625,494.309" stroke="black" stroke-width="2"/> 
  <line x1="452.955" y1="517.788" x2="512.273" y2="517.788" stroke="black" stroke-width="3"/> 
  <line x1="402.625" y1="668.309" x2="854" y2="668" stroke="black" stroke-width="3"/> 
  <g transform="flipY(734.979) rotate(270 702.642 701.976) rotate(360 1.4013e-045 3.88002e-039) flipX(862.191) flipX(616.809) rotate(90 132.155 29.823) rotate(360 1.4013e-045 2.31881e-039) flipY(911) rotate(180 1212.44 532.643)">
    <polygon points="1054.28,1001.12 1079.28,1001.12 1067.28,1026.12 1067.28,1026.12" fill="black" stroke="black" stroke-width="1" transform="rotate(180 1279.17 367.814)"/> 
  </g>
  <text x="780.805" y="125.657" fill="black" font-size="15" text-anchor="middle">00QCQ20<tspan x="780.805" dy="15">AA002</tspan>
  </text>
  <image x="648.925" y="276.612" width="175" height="25" xlink:href="DS_ana_tenzor.svg">
    <title>00QCQ20CL002</title>
    <rt:dyn type="ShowFrame" mode="constant" value="true"/> 
    <rt:dyn type="X" mode="constant" value="&quot;L&quot;"/> 
    <rt:dyn type="FKKS" mode="constant" value="&quot;00QCQ20CL002&quot;"/> 
    <rt:dyn type="ValueToTheRight" mode="constant" value="false"/> 
    <rt:dyn type="Color_Readings" mode="constant" value="true"/> 
  </image>
  <line x1="782.925" y1="343.536" x2="832.925" y2="343.536" stroke="black" stroke-width="3"/> 
  <rect x="682.925" y="318.612" width="102" height="178" rx="0" ry="0" stroke="black" stroke-width="2"/> 
  <polyline points="682.925,495.612 782.925,496.612 733.925,543.612 682.925,494.612" stroke="black" stroke-width="2"/> 
  <line x1="654.625" y1="518.309" x2="707.295" y2="518.309" stroke="black" stroke-width="3"/> 
  <g transform="flipX(862.191) flipX(616.809) rotate(90 132.155 29.823) rotate(360 1.4013e-045 2.31881e-039) flipY(911) rotate(180 1212.44 532.643)">
    <polygon points="291.102,1309.73 316.102,1309.73 304.102,1334.73 304.102,1334.73" fill="black" stroke="black" stroke-width="1" transform="rotate(180 1279.17 367.814)"/> 
  </g>
  <g transform="flipX(862.191) flipX(616.809) rotate(90 132.155 29.823) rotate(360 1.4013e-045 2.31881e-039) flipY(911) rotate(180 1212.44 532.643)">
    <polygon points="1087.62,1343.6 1112.62,1343.6 1100.62,1368.6 1100.62,1368.6" fill="black" stroke="black" stroke-width="1" transform="rotate(180 1279.17 367.814)"/> 
  </g>
  <text x="536.625" y="405.976" fill="black" font-size="15" text-anchor="middle">00QCQ20<tspan x="536.625" dy="15">BB001</tspan>
  </text>
  <text x="735.625" y="405.976" fill="black" font-size="15" text-anchor="middle">00QCQ20<tspan x="735.625" dy="15">BB002</tspan>
  </text>
  <line x1="908.105" y1="325.46" x2="908.105" y2="293.46" stroke="black"/> 
  <g transform="flipY(734.979) rotate(270 702.642 701.976) rotate(360 1.4013e-045 3.88002e-039) flipX(862.191) flipX(616.809) rotate(90 132.155 29.823) rotate(360 1.4013e-045 2.31881e-039) flipY(911) rotate(180 1212.44 532.643)">
    <polygon points="1256.59,1001.71 1281.59,1001.71 1269.59,1026.71 1269.59,1026.71" fill="black" stroke="black" stroke-width="1" transform="rotate(180 1279.17 367.814)"/> 
  </g>
  <text x="982.955" y="125.809" fill="black" font-size="15" text-anchor="middle">00QCQ20<tspan x="982.955" dy="15">AA003</tspan>
  </text>
  <image x="849.075" y="276.763" width="175" height="25" xlink:href="DS_ana_tenzor.svg">
    <title>00QCQ20CL003</title>
    <rt:dyn type="ShowFrame" mode="constant" value="true"/> 
    <rt:dyn type="X" mode="constant" value="&quot;L&quot;"/> 
    <rt:dyn type="FKKS" mode="constant" value="&quot;00QCQ20CL003&quot;"/> 
    <rt:dyn type="ValueToTheRight" mode="constant" value="false"/> 
    <rt:dyn type="Color_Readings" mode="constant" value="true"/> 
  </image>
  <line x1="983.075" y1="343.536" x2="1033.07" y2="343.536" stroke="black" stroke-width="3"/> 
  <rect x="883.075" y="318.763" width="102" height="178" rx="0" ry="0" stroke="black" stroke-width="2"/> 
  <polyline points="883.075,495.763 983.075,496.763 934.075,543.763 883.075,494.763" stroke="black" stroke-width="2"/> 
  <line x1="852.625" y1="518.788" x2="907.727" y2="518.788" stroke="black" stroke-width="3"/> 
  <text x="935.775" y="406.127" fill="black" font-size="15" text-anchor="middle">00QCQ20<tspan x="935.775" dy="15">BB003</tspan>
  </text>
  <text x="524.045" y="616.309" fill="black" font-size="15" text-anchor="middle">00QCQ20<tspan x="524.045" dy="15">AA004</tspan>
  </text>
  <text x="719.705" y="616.309" fill="black" font-size="15" text-anchor="middle">00QCQ20<tspan x="719.705" dy="15">AA005</tspan>
  </text>
  <text x="916.705" y="616.309" fill="black" font-size="15" text-anchor="middle">00QCQ20<tspan x="916.705" dy="15">AA006</tspan>
  </text>
  <line x1="352" y1="216" x2="556" y2="216" stroke="black" stroke-width="3"/> 
  <line x1="354" y1="1017" x2="354" y2="215" stroke="black" stroke-width="3"/> 
  <g transform="flipY(435.31) flipY(734.979) rotate(270 702.642 701.976) rotate(360 1.4013e-045 3.88002e-039) flipX(862.191) flipX(616.809) rotate(90 132.155 29.823) rotate(360 1.4013e-045 2.31881e-039) flipY(911) rotate(180 1212.44 532.643)">
    <polygon points="576.144,1180.76 601.145,1180.76 589.145,1205.76 589.145,1205.76" fill="black" stroke="black" stroke-width="1" transform="rotate(180 1279.17 367.814)"/> 
  </g>
  <line x1="404" y1="669" x2="404" y2="866" stroke="black" stroke-width="3"/> 
  <line x1="429" y1="717" x2="429" y2="668" stroke="black" stroke-width="3"/> 
  <line x1="979" y1="864" x2="404" y2="865" stroke="black" stroke-width="3"/> 
  <image x="422" y="801" width="175" height="25" xlink:href="DS_ana_tenzor.svg">
    <title>00QCQ30CP001</title>
    <rt:dyn type="ShowFrame" mode="constant" value="true"/> 
    <rt:dyn type="X" mode="constant" value="&quot;P&quot;"/> 
    <rt:dyn type="FKKS" mode="constant" value="&quot;00QCQ30CP001&quot;"/> 
    <rt:dyn type="ValueToTheRight" mode="constant" value="false"/> 
    <rt:dyn type="Color_Readings" mode="constant" value="true"/> 
  </image>
  <image x="635.485" y="830.378" width="70" height="70" xlink:href="DS_motor_tenzor.svg" transform="rotate(0 0.00012207 0)">
    <title>00QCQ30AP001</title>
    <rt:dyn type="DeviceType" mode="constant" value="&quot;pump&quot;"/> 
    <rt:dyn type="Operate" mode="constant" value="true"/> 
    <rt:dyn type="KKS" mode="constant" value="&quot;00QCQ30AP001&quot;"/> 
    <rt:dyn type="DATA_NARY" mode="constant" value="&quot;TYPE2&quot;"/> 
  </image>
  <text x="669.091" y="814.758" fill="black" font-size="15" text-anchor="middle">00QCQ30<tspan x="669.091" dy="15">AP001</tspan>
  </text>
  <image x="767" y="800" width="175" height="25" xlink:href="DS_ana_tenzor.svg">
    <title>00QCQ30CP002</title>
    <rt:dyn type="ShowFrame" mode="constant" value="true"/> 
    <rt:dyn type="X" mode="constant" value="&quot;P&quot;"/> 
    <rt:dyn type="FKKS" mode="constant" value="&quot;00QCQ30CP002&quot;"/> 
    <rt:dyn type="ValueToTheRight" mode="constant" value="false"/> 
    <rt:dyn type="Color_Readings" mode="constant" value="true"/> 
  </image>
  <line x1="1080" y1="716" x2="428" y2="716" stroke="black" stroke-width="3"/> 
  <line x1="979" y1="941.515" x2="979" y2="863" stroke="black" stroke-width="3"/> 
  <text x="1042.58" y="952.5" fill="black" font-size="15" text-anchor="middle">00QCQ30<tspan x="1042.58" dy="15">AA001</tspan>
  </text>
  <line x1="1654" y1="1016" x2="353" y2="1016" stroke="black" stroke-width="3"/> 
  <g transform="flipY(734.979) rotate(270 702.642 701.976) rotate(360 1.4013e-045 3.88002e-039) flipX(862.191) flipX(616.809) rotate(90 132.155 29.823) rotate(360 1.4013e-045 2.31881e-039) flipY(911) rotate(180 1212.44 532.643)">
    <polygon points="826.144,1815.26 851.145,1815.26 839.145,1840.26 839.145,1840.26" fill="black" stroke="black" stroke-width="1" transform="rotate(180 1279.17 367.814)"/> 
  </g>
  <g transform="flipX(885.43) flipX(862.191) flipX(616.809) rotate(90 132.155 29.823) rotate(360 1.4013e-045 2.31881e-039) flipY(911) rotate(180 1212.44 532.643)">
    <polygon points="1239.1,1408.22 1264.1,1408.22 1252.1,1433.22 1252.1,1433.22" fill="black" stroke="black" stroke-width="1" transform="rotate(180 1279.17 367.814)"/> 
  </g>
  <line x1="604" y1="1014.58" x2="604" y2="1050.97" stroke="black" stroke-width="3"/> 
  <text x="698" y="1052.97" fill="black" font-size="15" text-anchor="middle">К потребителю</text>
  <line x1="1505.15" y1="790.697" x2="1505.15" y2="734.697" stroke="black"/> 
  <line x1="1080.15" y1="740.697" x2="1182.15" y2="740.697" stroke="black"/> 
  <g transform="flipX(862.191) flipX(616.809) rotate(90 132.155 29.823) rotate(360 1.4013e-045 2.31881e-039) flipY(911) rotate(180 1212.44 532.643)">
    <polygon points="1014.32,2018.75 1039.32,2018.75 1027.32,2043.75 1027.32,2043.75" fill="black" stroke="black" stroke-width="1" transform="rotate(180 1279.17 367.814)"/> 
  </g>
  <line x1="1654.15" y1="790.697" x2="1079.15" y2="791.697" stroke="black" stroke-width="3"/> 
  <image x="1097.15" y="727.697" width="175" height="25" xlink:href="DS_ana_tenzor.svg">
    <title>00QCQ30CP003</title>
    <rt:dyn type="ShowFrame" mode="constant" value="true"/> 
    <rt:dyn type="X" mode="constant" value="&quot;P&quot;"/> 
    <rt:dyn type="FKKS" mode="constant" value="&quot;00QCQ30CP003&quot;"/> 
    <rt:dyn type="ValueToTheRight" mode="constant" value="false"/> 
    <rt:dyn type="Color_Readings" mode="constant" value="true"/> 
  </image>
  <image x="1310.64" y="757.075" width="70" height="70" xlink:href="DS_motor_tenzor.svg" transform="rotate(0 0.00012207 0)">
    <title>00QCQ30AP002</title>
    <rt:dyn type="DeviceType" mode="constant" value="&quot;pump&quot;"/> 
    <rt:dyn type="Operate" mode="constant" value="true"/> 
    <rt:dyn type="KKS" mode="constant" value="&quot;00QCQ30AP002&quot;"/> 
    <rt:dyn type="DATA_NARY" mode="constant" value="&quot;TYPE2&quot;"/> 
  </image>
  <text x="1344.65" y="742.197" fill="black" font-size="15" text-anchor="middle">00QCQ30<tspan x="1344.65" dy="15">AP002</tspan>
  </text>
  <image x="1442.15" y="726.697" width="175" height="25" xlink:href="DS_ana_tenzor.svg">
    <title>00QCQ30CP004</title>
    <rt:dyn type="ShowFrame" mode="constant" value="true"/> 
    <rt:dyn type="X" mode="constant" value="&quot;P&quot;"/> 
    <rt:dyn type="FKKS" mode="constant" value="&quot;00QCQ30CP004&quot;"/> 
    <rt:dyn type="ValueToTheRight" mode="constant" value="false"/> 
    <rt:dyn type="Color_Readings" mode="constant" value="true"/> 
  </image>
  <text x="1704.73" y="827.697" fill="black" font-size="15" text-anchor="middle">00QCQ30<tspan x="1704.73" dy="15">AA002</tspan>
  </text>
  <line x1="1079" y1="715" x2="1079" y2="793" stroke="black" stroke-width="3"/> 
  <text x="1201.12" y="825.697" fill="black" font-size="15" text-anchor="middle">Насосы подачи<tspan x="1201.12" dy="15">серной кислоты</tspan>
  </text>
  <text x="25" y="25" fill="black" font-size="15">00UGD 00CXK31 00QCQ30 ПОДАЧА СЕРНОЙ КИСЛОТЫ</text>
  <line x1="636.5" y1="166.036" x2="636.515" y2="68.7879" stroke="black" stroke-width="3"/> 
  <image x="591.085" y="148.021" width="70" height="65" xlink:href="DS_CO_valve_tenzor.svg" transform="rotate(270 0 -10)">
    <title>00QCQ20AA001</title>
    <rt:dyn type="DATA_NARY" mode="constant" value="&quot;TYPE2&quot;"/> 
    <rt:dyn type="Operate" mode="constant" value="true"/> 
    <rt:dyn type="KKS" mode="constant" value="&quot;00QCQ20AA001&quot;"/> 
    <rt:dyn type="Has_Stop_Button" mode="constant" value="true"/> 
  </image>
  <line x1="831.969" y1="345.309" x2="831.969" y2="199.576" stroke="black" stroke-width="3"/> 
  <line x1="831.954" y1="166.036" x2="831.969" y2="68.7882" stroke="black" stroke-width="3"/> 
  <image x="787.385" y="148.324" width="70" height="65" xlink:href="DS_CO_valve_tenzor.svg" transform="rotate(270 0 -10)">
    <title>00QCQ20AA002</title>
    <rt:dyn type="DATA_NARY" mode="constant" value="&quot;TYPE2&quot;"/> 
    <rt:dyn type="Operate" mode="constant" value="true"/> 
    <rt:dyn type="KKS" mode="constant" value="&quot;00QCQ20AA002&quot;"/> 
    <rt:dyn type="Has_Stop_Button" mode="constant" value="true"/> 
  </image>
  <line x1="1034.47" y1="345.339" x2="1034.47" y2="199.606" stroke="black" stroke-width="3"/> 
  <line x1="1034.47" y1="164.066" x2="1034.48" y2="66.8184" stroke="black" stroke-width="3"/> 
  <image x="989.535" y="148.476" width="70" height="65" xlink:href="DS_CO_valve_tenzor.svg" transform="rotate(270 0 -10)">
    <title>00QCQ20AA003</title>
    <rt:dyn type="DATA_NARY" mode="constant" value="&quot;TYPE2&quot;"/> 
    <rt:dyn type="Operate" mode="constant" value="true"/> 
    <rt:dyn type="KKS" mode="constant" value="&quot;00QCQ20AA003&quot;"/> 
    <rt:dyn type="Has_Stop_Button" mode="constant" value="true"/> 
  </image>
  <line x1="452.242" y1="609.182" x2="452.227" y2="516.758" stroke="black" stroke-width="3"/> 
  <line x1="452.235" y1="667.272" x2="452.235" y2="621.818" stroke="black" stroke-width="3"/> 
  <image x="406.955" y="583.143" width="70" height="65" xlink:href="DS_CO_valve_tenzor.svg" transform="rotate(270 0 -10)">
    <title>00QCQ20AA004</title>
    <rt:dyn type="DATA_NARY" mode="constant" value="&quot;TYPE2&quot;"/> 
    <rt:dyn type="Operate" mode="constant" value="true"/> 
    <rt:dyn type="KKS" mode="constant" value="&quot;00QCQ20AA004&quot;"/> 
    <rt:dyn type="Has_Stop_Button" mode="constant" value="true"/> 
  </image>
  <line x1="654.697" y1="609.182" x2="654.682" y2="516.758" stroke="black" stroke-width="3"/> 
  <line x1="654.69" y1="667.272" x2="654.69" y2="621.818" stroke="black" stroke-width="3"/> 
  <image x="610.125" y="586.809" width="70" height="65" xlink:href="DS_CO_valve_tenzor.svg" transform="rotate(270 0 -10)">
    <title>00QCQ20AA005</title>
    <rt:dyn type="DATA_NARY" mode="constant" value="&quot;TYPE2&quot;"/> 
    <rt:dyn type="Operate" mode="constant" value="true"/> 
    <rt:dyn type="KKS" mode="constant" value="&quot;00QCQ20AA005&quot;"/> 
    <rt:dyn type="Has_Stop_Button" mode="constant" value="true"/> 
  </image>
  <line x1="853.697" y1="611.212" x2="853.682" y2="518.788" stroke="black" stroke-width="3"/> 
  <line x1="853.69" y1="669.302" x2="853.69" y2="623.848" stroke="black" stroke-width="3"/> 
  <image x="808.625" y="585.809" width="70" height="65" xlink:href="DS_CO_valve_tenzor.svg" transform="rotate(270 0 -10)">
    <title>00QCQ20AA006</title>
    <rt:dyn type="DATA_NARY" mode="constant" value="&quot;TYPE2&quot;"/> 
    <rt:dyn type="Operate" mode="constant" value="true"/> 
    <rt:dyn type="KKS" mode="constant" value="&quot;00QCQ20AA006&quot;"/> 
    <rt:dyn type="Has_Stop_Button" mode="constant" value="true"/> 
  </image>
  <line x1="978.939" y1="1015.76" x2="978.939" y2="962.727" stroke="black" stroke-width="3"/> 
  <image x="933.5" y="922.5" width="70" height="65" xlink:href="DS_CO_valve_tenzor.svg" transform="rotate(270 0 -10)">
    <title>00QCQ30AA001</title>
    <rt:dyn type="DATA_NARY" mode="constant" value="&quot;TYPE2&quot;"/> 
    <rt:dyn type="Operate" mode="constant" value="true"/> 
    <rt:dyn type="KKS" mode="constant" value="&quot;00QCQ30AA001&quot;"/> 
    <rt:dyn type="Has_Stop_Button" mode="constant" value="true"/> 
  </image>
  <line x1="1654.7" y1="871.03" x2="1654.7" y2="789.485" stroke="black" stroke-width="3"/> 
  <line x1="1654.7" y1="1017.27" x2="1654.7" y2="894.273" stroke="black" stroke-width="3"/> 
  <image x="1609.65" y="848.197" width="70" height="65" xlink:href="DS_CO_valve_tenzor.svg" transform="rotate(270 0 -10)">
    <title>00QCQ30AA002</title>
    <rt:dyn type="DATA_NARY" mode="constant" value="&quot;TYPE2&quot;"/> 
    <rt:dyn type="Operate" mode="constant" value="true"/> 
    <rt:dyn type="KKS" mode="constant" value="&quot;00QCQ30AA002&quot;"/> 
    <rt:dyn type="Has_Stop_Button" mode="constant" value="true"/> 
  </image>
  <rect x="1161" y="212.212" width="285.364" height="85.3637" rx="0" ry="0" fill="Col_BGSand" stroke="black" stroke-width="2"/> 
  <text x="1180.37" y="236.303" fill="black" font-size="15">Режим работы 00QCQ30</text>
  <image x="1175.95" y="259.697" width="181.818" height="24.2424" xlink:href="bitwise_tablo_4bits.svg">
    <title>00QCQ30_XK92</title>
    <rt:dyn type="PointID_1" mode="constant" value="&quot;00QCQ30_XK92&quot;"/> 
    <rt:dyn type="Text_0000" mode="constant" value="&quot;АВТОМАТИЧЕСКИЙ&quot;"/> 
    <rt:dyn type="Color_0001" mode="constant" value="&quot;Col_Green&quot;"/> 
    <rt:dyn type="Text_0001" mode="constant" value="&quot;ДИСТАНЦИОННЫЙ&quot;"/> 
    <rt:dyn type="Color_0000" mode="constant" value="&quot;Col_Green&quot;"/> 
  </image>
  <image x="1374.68" y="254.121" width="60" height="30" xlink:href="ps_tenzor_system.svg">
    <title>00QCQ30</title>
    <rt:dyn type="KKS" mode="constant" value="&quot;00QCQ30&quot;"/> 
  </image>
  <image x="1100" y="75" width="125" height="50" xlink:href="obj_Button.svg">
    <title>ПЕРЕКАЧКА</title>
    <rt:event type="OnClick">LoadNew(&quot;00qcq20&quot;)</rt:event>
    <rt:dyn type="Label" mode="constant" value="&quot;ПЕРЕКАЧКА&quot;"/> 
  </image>
  <text x="699.5" y="60" fill="black" font-size="15" text-anchor="middle">Из баков хранения 00QCQ10BB001/00QCQ10BB002</text>
</svg>
