<?xml  version="1.0" encoding="UTF-8"?>
<svg color="Col_BGSand" xmlns="http://www.w3.org/2000/svg" xmlns:rt="http://www.rts.co.at/2001/XMLSchema/RtSvgPL" xmlns:xlink="http://www.w3.org/1999/xlink" xmlns:xsi="http://www.w3.org/2001/XMLSchema-instance" xsi:schemaLocation="http://www.w3.org/2000/svg C:\RTS\RtSvg\XML\SVG.xsd" viewBox="0 0 1920 1080" width="1920" height="1080" id="00qcr" fill="Col_Grey3">
  <rt:model modelversion="7.2.0.24" comment="Создано VNIIAES-ASUTP\voroninrs 10.12.2012 14:48:20"/> 
  <line x1="675" y1="445.667" x2="675" y2="965.242" stroke="black" stroke-width="3"/> 
  <line x1="298" y1="433" x2="298" y2="433" stroke="black"/> 
  <line x1="344" y1="425" x2="342" y2="0"/> 
  <line x1="592.727" y1="690.909" x2="592.727" y2="690.909" stroke="black"/> 
  <line x1="749.091" y1="939.091" x2="749.091" y2="939.091" stroke="black"/> 
  <line x1="638.182" y1="881.818" x2="638.182" y2="881.818" stroke="black"/> 
  <line x1="214.545" y1="692.727" x2="214.545" y2="692.727" stroke="black"/> 
  <line x1="259.091" y1="771.818" x2="259.091" y2="771.818" stroke="black"/> 
  <line x1="195.455" y1="720" x2="195.455" y2="720" stroke="black"/> 
  <line x1="186.364" y1="713.636" x2="186.364" y2="713.636" stroke="black"/> 
  <line x1="191.818" y1="715.455" x2="191.818" y2="715.455" stroke="black"/> 
  <line x1="985.455" y1="149.091" x2="985.455" y2="149.091" stroke="black"/> 
  <line x1="1150" y1="365" x2="1150" y2="365" stroke="black"/> 
  <line x1="1274" y1="337" x2="1274" y2="337" stroke="black"/> 
  <line x1="1029" y1="375" x2="1029" y2="375" stroke="black"/> 
  <line x1="1215.33" y1="421.333" x2="1215.33" y2="421.333" stroke="black"/> 
  <line x1="1007" y1="314.75" x2="1007" y2="314.75" stroke="black"/> 
  <line x1="1027.27" y1="820" x2="1027.27" y2="820" stroke="black"/> 
  <line x1="675" y1="65" x2="675" y2="65" stroke="black"/> 
  <line x1="1468" y1="294" x2="1468" y2="294" stroke="black"/> 
  <line x1="1066.67" y1="766" x2="1066.67" y2="766" stroke="black"/> 
  <line x1="434" y1="175" x2="1451" y2="175" stroke="black" stroke-width="3"/> 
  <g transform="flipX(122.608) flipX(126.608) rotate(270 99.3091 253.976) rotate(90 180.309 152.309) rotate(90 132.155 29.823) rotate(360 1.4013e-045 2.31881e-039) flipY(911) rotate(180 1212.44 532.643)">
    <polygon points="377.191,1949.02 402.191,1949.02 390.191,1974.02 390.191,1974.02" fill="black" stroke="black" stroke-width="1" transform="rotate(180 1279.17 367.814)"/> 
  </g>
  <line x1="1700" y1="1052" x2="675" y2="1050" stroke="black" stroke-width="3"/> 
  <text x="625.152" y="923.44" fill="black" font-size="15" text-anchor="middle">00QCR20<tspan x="625.152" dy="15">AA001</tspan>
  </text>
  <line x1="745.02" y1="385.515" x2="819.838" y2="385.515" stroke="black" stroke-width="3"/> 
  <rect x="774.727" y="228.182" width="145.273" height="176.818" rx="0" ry="0" stroke="black" stroke-width="2"/> 
  <text x="874.394" y="312.727" fill="black" font-size="15" text-anchor="middle">00QCR10<tspan x="874.394" dy="15">BB001</tspan>
  </text>
  <line x1="825" y1="175" x2="825" y2="371" stroke="black" stroke-width="3"/> 
  <line x1="1537.67" y1="271" x2="1619" y2="271" stroke="black"/> 
  <image x="1580.33" y="256.333" width="175" height="25" xlink:href="DS_ana_tenzor.svg">
    <title>00QCR10CL002</title>
    <rt:dyn type="ShowFrame" mode="constant" value="true"/> 
    <rt:dyn type="X" mode="constant" value="&quot;L&quot;"/> 
    <rt:dyn type="FKKS" mode="constant" value="&quot;00QCR10CL002&quot;"/> 
    <rt:dyn type="ValueToTheRight" mode="constant" value="false"/> 
    <rt:dyn type="Color_Readings" mode="constant" value="true"/> 
  </image>
  <line x1="1369.18" y1="386.121" x2="1444" y2="386.121" stroke="black" stroke-width="3"/> 
  <rect x="1398.73" y="229.857" width="145.273" height="176.818" rx="0" ry="0" stroke="black" stroke-width="2"/> 
  <text x="1500.15" y="314.242" fill="black" font-size="15" text-anchor="middle">00QCR10<tspan x="1500.15" dy="15">BB002</tspan>
  </text>
  <line x1="1450" y1="175" x2="1450" y2="371" stroke="black" stroke-width="3"/> 
  <g transform="flipX(122.608) flipX(126.608) rotate(270 99.3091 253.976) rotate(90 180.309 152.309) rotate(90 132.155 29.823) rotate(360 1.4013e-045 2.31881e-039) flipY(911) rotate(180 1212.44 532.643)">
    <polygon points="1254.16,3210.32 1279.16,3210.32 1267.16,3235.32 1267.16,3235.32" fill="black" stroke="black" stroke-width="1" transform="rotate(180 1279.17 367.814)"/> 
  </g>
  <text x="452.5" y="155.5" fill="black" font-size="15" text-anchor="middle">00GCR</text>
  <line x1="500" y1="175" x2="500" y2="109.333" stroke="black"/> 
  <image x="639.787" y="732.758" width="70" height="70" xlink:href="DS_motor_tenzor.svg" transform="flipY(-2.23576e-005) rotate(270 0.00012207 0)">
    <title>00QCR20AP001</title>
    <rt:dyn type="DeviceType" mode="constant" value="&quot;pump&quot;"/> 
    <rt:dyn type="Operate" mode="constant" value="true"/> 
    <rt:dyn type="KKS" mode="constant" value="&quot;00QCR20AP001&quot;"/> 
    <rt:dyn type="DATA_NARY" mode="constant" value="&quot;TYPE2&quot;"/> 
  </image>
  <text x="753.242" y="765.622" fill="black" font-size="15" text-anchor="middle">00QCR20<tspan x="753.242" dy="15">AP001</tspan>
  </text>
  <line x1="572.666" y1="855.515" x2="674.667" y2="855.515" stroke="black"/> 
  <image x="451.666" y="842.515" width="175" height="25" xlink:href="DS_ana_tenzor.svg">
    <title>00QCR20CP002</title>
    <rt:dyn type="ShowFrame" mode="constant" value="true"/> 
    <rt:dyn type="X" mode="constant" value="&quot;P&quot;"/> 
    <rt:dyn type="FKKS" mode="constant" value="&quot;00QCR20CP002&quot;"/> 
    <rt:dyn type="ValueToTheRight" mode="constant" value="false"/> 
    <rt:dyn type="Color_Readings" mode="constant" value="true"/> 
  </image>
  <text x="1105.5" y="738.833" fill="black" font-size="15" text-anchor="middle">Насосы подачи раствора<tspan x="1105.5" dy="15">тринатрийфосфата</tspan>
  </text>
  <line x1="920.909" y1="270.606" x2="1002.24" y2="270.606" stroke="black"/> 
  <image x="963.569" y="255.939" width="175" height="25" xlink:href="DS_ana_tenzor.svg">
    <title>00QCR10CL001</title>
    <rt:dyn type="ShowFrame" mode="constant" value="true"/> 
    <rt:dyn type="X" mode="constant" value="&quot;L&quot;"/> 
    <rt:dyn type="FKKS" mode="constant" value="&quot;00QCR10CL001&quot;"/> 
    <rt:dyn type="ValueToTheRight" mode="constant" value="false"/> 
    <rt:dyn type="Color_Readings" mode="constant" value="true"/> 
    <rt:dyn type="Suffix" mode="constant" value="&quot;XQ02&quot;"/> 
  </image>
  <rect x="1500" y="230" width="45" height="20" rx="0" ry="0" stroke="black" stroke-width="2"/> 
  <rect x="875" y="229" width="45" height="20" rx="0" ry="0" stroke="black" stroke-width="2"/> 
  <line x1="1449.18" y1="370" x2="1524" y2="370" stroke="black" stroke-width="3"/> 
  <line x1="823.182" y1="372.015" x2="898" y2="372.015" stroke="black" stroke-width="3"/> 
  <line x1="745" y1="384.333" x2="745" y2="448" stroke="black" stroke-width="3"/> 
  <line x1="1370.17" y1="384.333" x2="1370.17" y2="448" stroke="black" stroke-width="3"/> 
  <line x1="675" y1="447" x2="1500" y2="447" stroke="black" stroke-width="3"/> 
  <line x1="568.939" y1="687.939" x2="670.94" y2="687.939" stroke="black"/> 
  <image x="447.939" y="674.939" width="175" height="25" xlink:href="DS_ana_tenzor.svg">
    <title>00QCR20CP001</title>
    <rt:dyn type="ShowFrame" mode="constant" value="true"/> 
    <rt:dyn type="X" mode="constant" value="&quot;P&quot;"/> 
    <rt:dyn type="FKKS" mode="constant" value="&quot;00QCR20CP001&quot;"/> 
    <rt:dyn type="ValueToTheRight" mode="constant" value="false"/> 
    <rt:dyn type="Color_Readings" mode="constant" value="true"/> 
  </image>
  <g transform="flipY(914.639) flipY(1034.24) flipY(765.309) rotate(270 427.309 666.309) rotate(270 99.3091 253.976) rotate(90 180.309 152.309) rotate(90 132.155 29.823) rotate(360 1.4013e-045 2.31881e-039) flipY(911) rotate(180 1212.44 532.643)">
    <polygon points="1116.13,1988.16 1141.13,1988.16 1129.13,2013.16 1129.13,2013.16" fill="black" stroke="black" stroke-width="1" transform="rotate(180 1279.17 367.814)"/> 
  </g>
  <rect x="555.378" y="579.532" width="69.3837" height="69.5745" rx="0" ry="0" fill="Col_BGSand" stroke="black" stroke-width="2" transform="rotate(44.7957 710.667 685)"/> 
  <line x1="625.333" y1="549.667" x2="722.667" y2="549.667" stroke="black"/> 
  <line x1="1499.67" y1="446" x2="1499.67" y2="970.303" stroke="black" stroke-width="3"/> 
  <text x="1449.21" y="925.773" fill="black" font-size="15" text-anchor="middle">00QCR20<tspan x="1449.21" dy="15">AA002</tspan>
  </text>
  <image x="1463.85" y="735.091" width="70" height="70" xlink:href="DS_motor_tenzor.svg" transform="flipY(-2.23576e-005) rotate(270 0.00012207 0)">
    <title>00QCR20AP002</title>
    <rt:dyn type="DeviceType" mode="constant" value="&quot;pump&quot;"/> 
    <rt:dyn type="Operate" mode="constant" value="true"/> 
    <rt:dyn type="KKS" mode="constant" value="&quot;00QCR20AP002&quot;"/> 
    <rt:dyn type="DATA_NARY" mode="constant" value="&quot;TYPE2&quot;"/> 
  </image>
  <text x="1577.3" y="767.955" fill="black" font-size="15" text-anchor="middle">00QCR20<tspan x="1577.3" dy="15">AP002</tspan>
  </text>
  <line x1="1498.73" y1="857.848" x2="1600.73" y2="857.848" stroke="black"/> 
  <image x="1550.73" y="844.848" width="175" height="25" xlink:href="DS_ana_tenzor.svg">
    <title>00QCR20CP004</title>
    <rt:dyn type="ShowFrame" mode="constant" value="true"/> 
    <rt:dyn type="X" mode="constant" value="&quot;P&quot;"/> 
    <rt:dyn type="FKKS" mode="constant" value="&quot;00QCR20CP004&quot;"/> 
    <rt:dyn type="ValueToTheRight" mode="constant" value="false"/> 
    <rt:dyn type="Color_Readings" mode="constant" value="true"/> 
  </image>
  <line x1="1498" y1="690.272" x2="1600" y2="690.272" stroke="black"/> 
  <image x="1552" y="678.272" width="175" height="25" xlink:href="DS_ana_tenzor.svg">
    <title>00QCR20CP003</title>
    <rt:dyn type="ShowFrame" mode="constant" value="true"/> 
    <rt:dyn type="X" mode="constant" value="&quot;P&quot;"/> 
    <rt:dyn type="FKKS" mode="constant" value="&quot;00QCR20CP003&quot;"/> 
    <rt:dyn type="ValueToTheRight" mode="constant" value="false"/> 
    <rt:dyn type="Color_Readings" mode="constant" value="true"/> 
  </image>
  <g transform="flipY(914.639) flipY(1034.24) flipY(765.309) rotate(270 427.309 666.309) rotate(270 99.3091 253.976) rotate(90 180.309 152.309) rotate(90 132.155 29.823) rotate(360 1.4013e-045 2.31881e-039) flipY(911) rotate(180 1212.44 532.643)">
    <polygon points="1940.19,1990.49 1965.19,1990.49 1953.19,2015.49 1953.19,2015.49" fill="black" stroke="black" stroke-width="1" transform="rotate(180 1279.17 367.814)"/> 
  </g>
  <rect x="1141.79" y="0.569947" width="69.3837" height="69.5745" rx="0" ry="0" fill="Col_BGSand" stroke="black" stroke-width="2" transform="rotate(44.7957 710.667 685)"/> 
  <line x1="1449.39" y1="552" x2="1546.73" y2="552" stroke="black"/> 
  <text x="1635" y="1038.67" fill="black" font-size="15" text-anchor="middle">08USY</text>
  <path d="M847 405.001 L774.007 404.658 A73 25.5011 0 1 0 919.994 404.673 Z" stroke="black" stroke-width="2"/> 
  <path d="M1472 405.848 L1399.01 405.505 A73 25.5011 0 1 0 1544.99 405.52 Z" stroke="black" stroke-width="2"/> 
  <text x="1100" y="165.667" fill="black" font-size="15" text-anchor="middle">Подача сжатого воздуха</text>
  <text x="25" y="25" fill="black" font-size="15">00UGD 00CXK31 00QCR ПРИГОТОВЛЕНИЕ И ПОДАЧА ТРИНАТРИЙФОСФАТА</text>
  <rect x="37.5152" y="48.5758" width="285.364" height="85.3637" rx="0" ry="0" fill="Col_BGSand" stroke="black" stroke-width="2"/> 
  <text x="56.8852" y="72.6668" fill="black" font-size="15">Режим работы 00QCR</text>
  <image x="50.4551" y="96.0608" width="181.818" height="24.2424" xlink:href="bitwise_tablo_4bits.svg">
    <title>00QCR_XK92</title>
    <rt:dyn type="PointID_1" mode="constant" value="&quot;00QCR_XK92&quot;"/> 
    <rt:dyn type="Text_0000" mode="constant" value="&quot;АВТОМАТИЧЕСКИЙ&quot;"/> 
    <rt:dyn type="Color_0001" mode="constant" value="&quot;Col_Green&quot;"/> 
    <rt:dyn type="Text_0001" mode="constant" value="&quot;ДИСТАНЦИОННЫЙ&quot;"/> 
    <rt:dyn type="Color_0000" mode="constant" value="&quot;Col_Green&quot;"/> 
  </image>
  <image x="249.185" y="90.4848" width="60" height="30" xlink:href="ps_tenzor_system.svg">
    <title>00QCR</title>
    <rt:dyn type="KKS" mode="constant" value="&quot;00QCR&quot;"/> 
  </image>
  <line x1="674.894" y1="988.485" x2="674.894" y2="1052.15" stroke="black" stroke-width="3"/> 
  <image x="629.732" y="946.107" width="70" height="65" xlink:href="DS_CO_valve_tenzor.svg" transform="rotate(270 0 -10)">
    <title>00QCR20AA001</title>
    <rt:dyn type="DATA_NARY" mode="constant" value="&quot;TYPE2&quot;"/> 
    <rt:dyn type="Operate" mode="constant" value="true"/> 
    <rt:dyn type="KKS" mode="constant" value="&quot;00QCR20AA001&quot;"/> 
    <rt:dyn type="Has_Stop_Button" mode="constant" value="true"/> 
  </image>
  <line x1="1499.65" y1="990.03" x2="1499.65" y2="1053.7" stroke="black" stroke-width="3"/> 
  <image x="1454.79" y="948.44" width="70" height="65" xlink:href="DS_CO_valve_tenzor.svg" transform="rotate(270 0 -10)">
    <title>00QCR20AA002</title>
    <rt:dyn type="DATA_NARY" mode="constant" value="&quot;TYPE2&quot;"/> 
    <rt:dyn type="Operate" mode="constant" value="true"/> 
    <rt:dyn type="KKS" mode="constant" value="&quot;00QCR20AA002&quot;"/> 
    <rt:dyn type="Has_Stop_Button" mode="constant" value="true"/> 
  </image>
  <image x="487" y="94" width="25" height="25" xlink:href="bin_indicator.svg">
    <title>00GCR40CP002_XH01</title>
    <rt:dyn type="PointID" mode="constant" value="&quot;00GCR40CP002_XH01&quot;"/> 
  </image>
  <text x="572" y="85.5" fill="black" font-size="15" text-anchor="middle">Давление за<tspan x="572" dy="15">регулятором</tspan>
<tspan x="572" dy="15">давления</tspan>
<tspan x="572" dy="15">00GKR40AA401</tspan>
<tspan x="572" dy="15">&gt;0,25 МПа</tspan>
  </text>
  <text x="797" y="555.5" fill="black" font-size="15" text-anchor="middle">00QCR20AT001</text>
  <text x="1628" y="555.5" fill="black" font-size="15" text-anchor="middle">00QCR20AT002</text>
</svg>
