<?xml  version="1.0" encoding="windows-1251"?>
<svg color="Col_BGSand" xmlns="http://www.w3.org/2000/svg" xmlns:rt="http://www.rts.co.at/2001/XMLSchema/RtSvgPL" xmlns:xlink="http://www.w3.org/1999/xlink" xmlns:xsi="http://www.w3.org/2001/XMLSchema-instance" xsi:schemaLocation="http://www.w3.org/2000/svg C:\RTS\RtSvg\XML\SVG.xsd" viewBox="0 0 1920 1080" width="1920" height="1080" id="00qha30ah001" fill="Col_Grey3">
  <rt:model modelversion="7.2.0.24" comment="Создано VNIIAES-ASUTP\voroninrs 10.12.2012 14:48:20"/> 
  <line x1="1075.89" y1="223.818" x2="1075.89" y2="377.818" stroke="black" stroke-width="3"/> 
  <line x1="437.575" y1="418.046" x2="351.575" y2="418.046" stroke="black" stroke-width="3"/> 
  <line x1="188.637" y1="173.075" x2="188.637" y2="241.742" stroke="black" stroke-width="3"/> 
  <line x1="235.21" y1="566.309" x2="100.152" y2="566.309" stroke="black" stroke-width="3"/> 
  <line x1="1074.39" y1="224.848" x2="1610.76" y2="224.848" stroke="black" stroke-width="3"/> 
  <line x1="298" y1="433" x2="298" y2="433" stroke="black"/> 
  <line x1="344" y1="425" x2="342" y2="0"/> 
  <line x1="592.727" y1="690.909" x2="592.727" y2="690.909" stroke="black"/> 
  <line x1="749.091" y1="939.091" x2="749.091" y2="939.091" stroke="black"/> 
  <line x1="638.182" y1="881.818" x2="638.182" y2="881.818" stroke="black"/> 
  <line x1="214.545" y1="692.727" x2="214.545" y2="692.727" stroke="black"/> 
  <line x1="259.091" y1="771.818" x2="259.091" y2="771.818" stroke="black"/> 
  <line x1="195.455" y1="720" x2="195.455" y2="720" stroke="black"/> 
  <line x1="186.364" y1="713.636" x2="186.364" y2="713.636" stroke="black"/> 
  <line x1="191.818" y1="715.455" x2="191.818" y2="715.455" stroke="black"/> 
  <line x1="985.455" y1="149.091" x2="985.455" y2="149.091" stroke="black"/> 
  <line x1="1150" y1="365" x2="1150" y2="365" stroke="black"/> 
  <line x1="1274" y1="337" x2="1274" y2="337" stroke="black"/> 
  <line x1="1029" y1="375" x2="1029" y2="375" stroke="black"/> 
  <line x1="1215.33" y1="421.333" x2="1215.33" y2="421.333" stroke="black"/> 
  <line x1="1007" y1="314.75" x2="1007" y2="314.75" stroke="black"/> 
  <line x1="1027.27" y1="820" x2="1027.27" y2="820" stroke="black"/> 
  <line x1="675" y1="65" x2="675" y2="65" stroke="black"/> 
  <line x1="1468" y1="294" x2="1468" y2="294" stroke="black"/> 
  <line x1="1066.67" y1="766" x2="1066.67" y2="766" stroke="black"/> 
  <image x="304.697" y="218.788" width="175" height="25" xlink:href="DS_ana_tenzor.svg">
    <title>00QHL30CT001</title>
    <rt:dyn type="ShowFrame" mode="constant" value="true"/> 
    <rt:dyn type="X" mode="constant" value="&quot;T&quot;"/> 
    <rt:dyn type="FKKS" mode="constant" value="&quot;00QHL30CT001&quot;"/> 
    <rt:dyn type="ValueToTheRight" mode="constant" value="false"/> 
    <rt:dyn type="Color_Readings" mode="constant" value="true"/> 
  </image>
  <g transform="rotate(90 180.309 152.309) rotate(90 132.155 29.823) rotate(360 1.4013e-045 2.31881e-039) flipY(911) rotate(180 1212.44 532.643)">
    <polygon points="367.287,1508.6 392.287,1508.6 380.287,1533.6 380.287,1533.6" fill="black" stroke="black" stroke-width="1" transform="rotate(180 1279.17 367.814)"/> 
  </g>
  <text x="25" y="34.5" fill="black" font-size="15">00UTH 00CXJ12 00QHA30AH001</text>
  <line x1="176.304" y1="176.742" x2="200.971" y2="176.742" stroke="black"/> 
  <g transform="rotate(270 99.3091 253.976) rotate(90 180.309 152.309) rotate(90 132.155 29.823) rotate(360 1.4013e-045 2.31881e-039) flipY(911) rotate(180 1212.44 532.643)">
    <polygon points="454.434,1586.41 479.434,1586.41 467.434,1611.41 467.434,1611.41" fill="black" stroke="black" stroke-width="1" transform="rotate(180 1279.17 367.814)"/> 
  </g>
  <line x1="69.8185" y1="267.008" x2="94.4854" y2="267.008" stroke="black" transform="rotate(90 98.3338 267.671)"/> 
  <rect x="478" y="250" width="714.576" height="330.909" rx="0" ry="0" stroke="black" stroke-width="6"/> 
  <image x="775.394" y="394.03" width="175" height="25" xlink:href="DS_ana_tenzor.svg">
    <title>00QHA30CP002</title>
    <rt:dyn type="ShowFrame" mode="constant" value="true"/> 
    <rt:dyn type="X" mode="constant" value="&quot;P&quot;"/> 
    <rt:dyn type="FKKS" mode="constant" value="&quot;00QHA30CP002&quot;"/> 
    <rt:dyn type="ValueToTheRight" mode="constant" value="false"/> 
    <rt:dyn type="Color_Readings" mode="constant" value="true"/> 
  </image>
  <image x="775.394" y="444.03" width="175" height="25" xlink:href="DS_ana_tenzor.svg">
    <title>00QHA30CP003</title>
    <rt:dyn type="ShowFrame" mode="constant" value="true"/> 
    <rt:dyn type="X" mode="constant" value="&quot;P&quot;"/> 
    <rt:dyn type="FKKS" mode="constant" value="&quot;00QHA30CP003&quot;"/> 
    <rt:dyn type="ValueToTheRight" mode="constant" value="false"/> 
    <rt:dyn type="Color_Readings" mode="constant" value="true"/> 
  </image>
  <image x="926.909" y="624.333" width="175" height="25" xlink:href="DS_ana_tenzor.svg">
    <title>00QHA30CT004</title>
    <rt:dyn type="ShowFrame" mode="constant" value="true"/> 
    <rt:dyn type="X" mode="constant" value="&quot;T&quot;"/> 
    <rt:dyn type="FKKS" mode="constant" value="&quot;00QHA30CT004&quot;"/> 
    <rt:dyn type="Color_Readings" mode="constant" value="true"/> 
    <rt:dyn type="ValueToTheRight" mode="constant" value="false"/> 
  </image>
  <line x1="1122.85" y1="294.099" x2="1122.85" y2="833.493" stroke="black" stroke-width="3"/> 
  <line x1="749.824" y1="465.13" x2="749.824" y2="837.842" stroke="black" stroke-width="3"/> 
  <line x1="1003.71" y1="806.675" x2="1123.41" y2="806.675" stroke="black" stroke-width="3"/> 
  <image x="1169.85" y="730.917" width="175" height="25" xlink:href="DS_ana_tenzor.svg">
    <title>00QHA30CF001</title>
    <rt:dyn type="ShowFrame" mode="constant" value="true"/> 
    <rt:dyn type="X" mode="constant" value="&quot;F&quot;"/> 
    <rt:dyn type="FKKS" mode="constant" value="&quot;00QHA30CF001&quot;"/> 
    <rt:dyn type="ValueToTheRight" mode="constant" value="false"/> 
    <rt:dyn type="Color_Readings" mode="constant" value="true"/> 
  </image>
  <image x="1140.54" y="622.826" width="175" height="25" xlink:href="DS_ana_tenzor.svg">
    <title>00QHA30CT003</title>
    <rt:dyn type="ShowFrame" mode="constant" value="true"/> 
    <rt:dyn type="X" mode="constant" value="&quot;T&quot;"/> 
    <rt:dyn type="FKKS" mode="constant" value="&quot;00QHA30CT003&quot;"/> 
    <rt:dyn type="ValueToTheRight" mode="constant" value="false"/> 
    <rt:dyn type="Color_Readings" mode="constant" value="true"/> 
  </image>
  <image x="1140.54" y="672.826" width="175" height="25" xlink:href="DS_ana_tenzor.svg">
    <title>00QHA30CP006</title>
    <rt:dyn type="ShowFrame" mode="constant" value="true"/> 
    <rt:dyn type="X" mode="constant" value="&quot;P&quot;"/> 
    <rt:dyn type="FKKS" mode="constant" value="&quot;00QHA30CP006&quot;"/> 
    <rt:dyn type="ValueToTheRight" mode="constant" value="false"/> 
    <rt:dyn type="Color_Readings" mode="constant" value="true"/> 
  </image>
  <rect x="480.151" y="395.834" width="25.5" height="98.5" rx="0" ry="0" fill="url(#DS_cilinder)" stroke="black"/> 
  <rect x="505.651" y="414.834" width="19.5" height="59.5" rx="0" ry="0" fill="url(#DS_cilinder)" stroke="black"/> 
  <line x1="525.151" y1="424.834" x2="516.151" y2="424.834" stroke="black" stroke-width="3"/> 
  <line x1="525.151" y1="439.334" x2="516.151" y2="439.334" stroke="black" stroke-width="3"/> 
  <line x1="525.651" y1="454.334" x2="516.651" y2="454.334" stroke="black" stroke-width="3"/> 
  <line x1="525.651" y1="466.834" x2="516.651" y2="466.834" stroke="black" stroke-width="3"/> 
  <line x1="437" y1="479.652" x2="351" y2="479.652" stroke="black" stroke-width="3"/> 
  <line x1="200.152" y1="253.273" x2="353.182" y2="253.273" stroke="black" stroke-width="3"/> 
  <image x="116.425" y="183.803" width="65" height="25" xlink:href="DS_Reg_degree.svg">
    <title>00QHL30AA201</title>
    <rt:dyn type="KKS" mode="constant" value="&quot;00QHL30AA201&quot;"/> 
    <rt:dyn type="SIGNAL" mode="constant" value="&quot;XQ54&quot;"/> 
  </image>
  <line x1="351.711" y1="478.364" x2="351.695" y2="567.758" stroke="black" stroke-width="3"/> 
  <text x="247.992" y="505.5" fill="black" font-size="15" text-anchor="middle">00XJN71<tspan x="247.992" dy="15">AA011</tspan>
  </text>
  <g transform="rotate(0 427.309 666.309) rotate(270 99.3091 253.976) rotate(90 180.309 152.309) rotate(90 132.155 29.823) rotate(360 1.4013e-045 2.31881e-039) flipY(911) rotate(180 1212.44 532.643)">
    <polygon points="768.025,1586.41 793.025,1586.41 781.025,1611.41 781.025,1611.41" fill="black" stroke="black" stroke-width="1" transform="rotate(180 1279.17 367.814)"/> 
  </g>
  <line x1="643.611" y1="-384.998" x2="668.278" y2="-384.998" stroke="black" transform="rotate(180 425 695.333) rotate(90 98.3338 267.671)"/> 
  <text x="70.6061" y="283.576" fill="black" font-size="15" text-anchor="middle">Наружный<tspan x="70.6061" dy="15">воздух</tspan>
  </text>
  <text x="186.092" y="113.742" fill="black" font-size="15" text-anchor="middle">Воздух в<tspan x="186.092" dy="15">помещении</tspan>
  </text>
  <text x="1107.73" y="276.742" fill="black" font-size="15" text-anchor="middle">00QHA30AH001</text>
  <image x="1107.73" y="182.424" width="175" height="25" xlink:href="DS_ana_tenzor.svg">
    <title>00QHN30CT001</title>
    <rt:dyn type="ShowFrame" mode="constant" value="true"/> 
    <rt:dyn type="X" mode="constant" value="&quot;T&quot;"/> 
    <rt:dyn type="FKKS" mode="constant" value="&quot;00QHN30CT001&quot;"/> 
    <rt:dyn type="ValueToTheRight" mode="constant" value="false"/> 
    <rt:dyn type="Color_Readings" mode="constant" value="true"/> 
  </image>
  <g transform="rotate(270 1489.1 624)">
    <circle cx="1374.98" cy="255.843" r="36" fill="Col_BGSand" stroke="black" stroke-width="3"/> 
    <line x1="1353.02" y1="285.076" x2="1410.04" y2="258.904" stroke="black" stroke-width="3"/> 
    <line x1="1356.98" y1="1077.22" x2="1408.8" y2="1046.28" stroke="black" stroke-width="3" transform="flipY(651.531)"/> 
  </g>
  <g transform="rotate(270 99.3091 253.976) rotate(90 180.309 152.309) rotate(90 132.155 29.823) rotate(360 1.4013e-045 2.31881e-039) flipY(911) rotate(180 1212.44 532.643)">
    <polygon points="425.949,3368.49 450.949,3368.49 438.949,3393.49 438.949,3393.49" fill="black" stroke="black" stroke-width="1" transform="rotate(180 1279.17 367.814)"/> 
  </g>
  <line x1="41.6388" y1="-1484.29" x2="66.3054" y2="-1484.29" stroke="black" transform="rotate(90 98.3338 267.671)"/> 
  <text x="1827.42" y="187.318" fill="black" font-size="15">Дымовые<tspan x="1827.42" dy="15">газы</tspan>
  </text>
  <line x1="548.636" y1="294.545" x2="1118.33" y2="294.545" stroke="black" stroke-dasharray="15,5" stroke-width="3"/> 
  <image x="1591.14" y="250.576" width="65" height="25" xlink:href="DS_Reg_degree.svg">
    <title>00QHN30AA201</title>
    <rt:dyn type="KKS" mode="constant" value="&quot;00QHN30AA201&quot;"/> 
    <rt:dyn type="SIGNAL" mode="constant" value="&quot;XQ54&quot;"/> 
  </image>
  <line x1="1638.2" y1="224.848" x2="1850.32" y2="224.848" stroke="black" stroke-width="3"/> 
  <image x="1588.64" y="180.879" width="70" height="65" xlink:href="DS_Reg_valve_tenzor.svg">
    <title>00QHN30AA201</title>
    <rt:dyn type="KKS" mode="constant" value="&quot;00QHN30AA201&quot;"/> 
    <rt:dyn type="Operate" mode="constant" value="true"/> 
    <rt:dyn type="DATA_NARY" mode="constant" value="&quot;TYPE2&quot;"/> 
  </image>
  <image x="306.212" y="588.485" width="175" height="25" xlink:href="DS_ana_tenzor.svg">
    <title>00QHA30FU001</title>
    <rt:dyn type="ShowFrame" mode="constant" value="true"/> 
    <rt:dyn type="X" mode="constant" value="&quot;U&quot;"/> 
    <rt:dyn type="FKKS" mode="constant" value="&quot;00QHA30FU001&quot;"/> 
    <rt:dyn type="ValueToTheRight" mode="constant" value="false"/> 
    <rt:dyn type="Color_Readings" mode="constant" value="true"/> 
  </image>
  <text x="188.637" y="292.242" fill="black" font-size="15" text-anchor="middle">00QHL30<tspan x="188.637" dy="15">AA201</tspan>
  </text>
  <text x="1175.17" y="850.993" fill="black" font-size="15" text-anchor="middle">00QHA30<tspan x="1175.17" dy="15">AA002</tspan>
  </text>
  <text x="598.516" y="419.5" fill="black" font-size="15" text-anchor="middle">Авария<tspan x="598.516" dy="15">горелки</tspan>
  </text>
  <g transform="rotate(180 1516.28 224.061)">
    <circle cx="1256.85" cy="221.783" r="36" fill="Col_BGSand" stroke="black" stroke-width="3"/> 
    <line x1="1242.85" y1="253.783" x2="1291.91" y2="224.844" stroke="black" stroke-width="3"/> 
    <line x1="1238.85" y1="1111.27" x2="1290.67" y2="1080.33" stroke="black" stroke-width="3" transform="flipY(651.531)"/> 
  </g>
  <rect x="413.091" y="365" width="65" height="150" rx="0" ry="0" stroke="black" stroke-width="6"/> 
  <line x1="353.182" y1="566.242" x2="265.998" y2="566.242" stroke="black" stroke-width="3"/> 
  <image x="214.597" y="523" width="70" height="65" xlink:href="DS_CO_valve_tenzor.svg" transform="rotate(360 0 -10)">
    <title>00XJN71AA011</title>
    <rt:dyn type="DATA_NARY" mode="constant" value="&quot;TYPE2&quot;"/> 
    <rt:dyn type="Operate" mode="constant" value="true"/> 
    <rt:dyn type="KKS" mode="constant" value="&quot;00XJN71AA011&quot;"/> 
  </image>
  <text x="448.727" y="447.228" fill="black" font-size="15" text-anchor="middle">ЦУГ</text>
  <text x="77.5" y="594.5" fill="black" font-size="15" text-anchor="middle">Дизельное<tspan x="77.5" dy="15">топливо</tspan>
  </text>
  <line x1="351.667" y1="253.636" x2="351.667" y2="420.303" stroke="black" stroke-width="3"/> 
  <line x1="184.301" y1="253.257" x2="90.091" y2="253.257" stroke="black" stroke-width="3"/> 
  <line x1="1122.08" y1="864.25" x2="1122.08" y2="939.25" stroke="black" stroke-width="3"/> 
  <image x="1077.44" y="820.311" width="70" height="65" xlink:href="DS_CO_valve_tenzor.svg" transform="rotate(270 -0.00012207 -10)">
    <title>00QHA30AA002</title>
    <rt:dyn type="DATA_NARY" mode="constant" value="&quot;TYPE2&quot;"/> 
    <rt:dyn type="Operate" mode="constant" value="true"/> 
    <rt:dyn type="KKS" mode="constant" value="&quot;00QHA30AA002&quot;"/> 
  </image>
  <g transform="rotate(90 180.309 152.309) rotate(90 132.155 29.823) rotate(360 1.4013e-045 2.31881e-039) flipY(911) rotate(180 1212.44 532.643)">
    <polygon points="-566.156,2303.42 -541.156,2303.42 -553.156,2328.42 -553.156,2328.42" fill="black" stroke="black" stroke-width="1" transform="rotate(180 1279.17 367.814)"/> 
  </g>
  <line x1="1109.75" y1="940.508" x2="1134.41" y2="940.508" stroke="black"/> 
  <line x1="749.824" y1="862.039" x2="749.824" y2="937.039" stroke="black" stroke-width="3"/> 
  <line x1="737.49" y1="936.781" x2="762.157" y2="936.781" stroke="black"/> 
  <g transform="flipY(879.067) rotate(90 180.309 152.309) rotate(90 132.155 29.823) rotate(360 1.4013e-045 2.31881e-039) flipY(911) rotate(180 1212.44 532.643)">
    <polygon points="-193.899,2152.58 -168.899,2152.58 -180.899,2177.58 -180.899,2177.58" fill="black" stroke="black" stroke-width="1" transform="rotate(180 1279.17 367.814)"/> 
  </g>
  <line x1="1003.71" y1="900.599" x2="1123.41" y2="900.614" stroke="black" stroke-width="3"/> 
  <line x1="1005.23" y1="808.19" x2="1005.23" y2="844.008" stroke="black" stroke-width="3"/> 
  <line x1="1005.21" y1="865.766" x2="1005.21" y2="901.583" stroke="black" stroke-width="3"/> 
  <image x="960.287" y="821.826" width="70" height="65" xlink:href="DS_CO_valve_tenzor.svg" transform="rotate(270 -0.00012207 -10)">
    <title>00QHA30AA601</title>
    <rt:dyn type="Drive" mode="constant" value="&quot;NONE&quot;"/> 
  </image>
  <image x="704.713" y="821.136" width="70" height="65" xlink:href="DS_CO_valve_tenzor.svg" transform="rotate(270 -0.00012207 -10)">
    <title>00QHA30AA001</title>
    <rt:dyn type="DATA_NARY" mode="constant" value="&quot;TYPE2&quot;"/> 
    <rt:dyn type="Operate" mode="constant" value="true"/> 
    <rt:dyn type="KKS" mode="constant" value="&quot;00QHA30AA001&quot;"/> 
  </image>
  <image x="546.606" y="628.879" width="175" height="25" xlink:href="DS_ana_tenzor.svg">
    <title>00QHA30CT006</title>
    <rt:dyn type="ShowFrame" mode="constant" value="true"/> 
    <rt:dyn type="X" mode="constant" value="&quot;T&quot;"/> 
    <rt:dyn type="FKKS" mode="constant" value="&quot;00QHA30CT006&quot;"/> 
    <rt:dyn type="Color_Readings" mode="constant" value="true"/> 
    <rt:dyn type="ValueToTheRight" mode="constant" value="false"/> 
  </image>
  <image x="546.606" y="672.818" width="175" height="25" xlink:href="DS_ana_tenzor.svg">
    <title>00QHA30CP007</title>
    <rt:dyn type="ShowFrame" mode="constant" value="true"/> 
    <rt:dyn type="X" mode="constant" value="&quot;P&quot;"/> 
    <rt:dyn type="FKKS" mode="constant" value="&quot;00QHA30CP007&quot;"/> 
    <rt:dyn type="Color_Readings" mode="constant" value="true"/> 
    <rt:dyn type="ValueToTheRight" mode="constant" value="false"/> 
  </image>
  <image x="926.909" y="673.303" width="175" height="25" xlink:href="DS_ana_tenzor.svg">
    <title>00QHA30CP005</title>
    <rt:dyn type="ShowFrame" mode="constant" value="true"/> 
    <rt:dyn type="X" mode="constant" value="&quot;P&quot;"/> 
    <rt:dyn type="FKKS" mode="constant" value="&quot;00QHA30CP005&quot;"/> 
    <rt:dyn type="Color_Readings" mode="constant" value="true"/> 
    <rt:dyn type="ValueToTheRight" mode="constant" value="false"/> 
  </image>
  <text x="663.788" y="955.894" fill="black" font-size="15" text-anchor="middle">Сетевая вода<tspan x="663.788" dy="15">к котлу</tspan>
  </text>
  <text x="1201.67" y="957.054" fill="black" font-size="15" text-anchor="middle">Сетевая вода<tspan x="1201.67" dy="15">от котла</tspan>
  </text>
  <line x1="547" y1="294" x2="547" y2="415" stroke="black" stroke-dasharray="15,5" stroke-width="3"/> 
  <line x1="547" y1="475.001" x2="547" y2="568.616" stroke="black" stroke-dasharray="15,5" stroke-width="3"/> 
  <line x1="570" y1="475.306" x2="550" y2="571.306" stroke="black" stroke-dasharray="15,5" stroke-width="3"/> 
  <line x1="572.156" y1="475.302" x2="552.156" y2="571.302" stroke="black" stroke-dasharray="15,5" stroke-width="3" transform="flipX(572.312)"/> 
  <line x1="615.5" y1="475.306" x2="595.5" y2="571.306" stroke="black" stroke-dasharray="15,5" stroke-width="3"/> 
  <line x1="526.656" y1="475.302" x2="506.656" y2="571.302" stroke="black" stroke-dasharray="15,5" stroke-width="3" transform="flipX(572.312)"/> 
  <line x1="660.844" y1="475.306" x2="640.844" y2="571.306" stroke="black" stroke-dasharray="15,5" stroke-width="3"/> 
  <line x1="481.312" y1="475.302" x2="461.312" y2="571.302" stroke="black" stroke-dasharray="15,5" stroke-width="3" transform="flipX(572.312)"/> 
  <line x1="704.844" y1="475.306" x2="684.844" y2="571.306" stroke="black" stroke-dasharray="15,5" stroke-width="3"/> 
  <line x1="437.428" y1="475.154" x2="417.428" y2="571.154" stroke="black" stroke-dasharray="15,5" stroke-width="3" transform="flipX(572.312)"/> 
  <line x1="748.728" y1="475.158" x2="728.728" y2="571.158" stroke="black" stroke-dasharray="15,5" stroke-width="3"/> 
  <line x1="1011.79" y1="297.067" x2="1011.79" y2="424.333" stroke="black" stroke-dasharray="15,5" stroke-width="3"/> 
  <line x1="1011.79" y1="422.803" x2="1122.38" y2="422.803" stroke="black" stroke-dasharray="15,5" stroke-width="3"/> 
  <line x1="1022.86" y1="294.902" x2="1106.57" y2="329.444" stroke="black" stroke-dasharray="15,5" stroke-width="3"/> 
  <line x1="1022.86" y1="342.952" x2="1106.57" y2="377.494" stroke="black" stroke-dasharray="15,5" stroke-width="3"/> 
  <line x1="1022.86" y1="388.407" x2="1106.57" y2="422.949" stroke="black" stroke-dasharray="15,5" stroke-width="3"/> 
  <line x1="-263.371" y1="377.929" x2="-180.61" y2="388.1" stroke="black" stroke-dasharray="15,5" stroke-width="3" transform="flipX(421.362)"/> 
  <line x1="-263.371" y1="330.933" x2="-180.61" y2="341.104" stroke="black" stroke-dasharray="15,5" stroke-width="3" transform="flipX(421.362)"/> 
  <text x="924.909" y="852.121" fill="black" font-size="15" text-anchor="middle">00QHA30<tspan x="924.909" dy="15">AA601</tspan>
  </text>
  <text x="667.576" y="852.5" fill="black" font-size="15" text-anchor="middle">00QHA30<tspan x="667.576" dy="15">AA001</tspan>
  </text>
  <text x="1583.48" y="164.591" fill="black" font-size="15">00QHN30<tspan x="1583.48" dy="15">AA201</tspan>
  </text>
  <image x="153.637" y="209.56" width="70" height="65" xlink:href="DS_Reg_valve_tenzor.svg">
    <title>00QHL30AA201</title>
    <rt:dyn type="KKS" mode="constant" value="&quot;00QHL30AA201&quot;"/> 
    <rt:dyn type="Operate" mode="constant" value="true"/> 
    <rt:dyn type="DATA_NARY" mode="constant" value="&quot;TYPE2&quot;"/> 
  </image>
  <image x="535" y="445.888" width="25" height="25" xlink:href="bin_indicator.svg">
    <title>00CXJ03_XA07</title>
    <rt:dyn type="PointID" mode="constant" value="&quot;00CXJ03_XA07&quot;"/> 
  </image>
  <text x="598.516" y="453.425" fill="black" font-size="15" text-anchor="middle">Работа<tspan x="598.516" dy="15">горелки</tspan>
  </text>
  <image x="535" y="410.524" width="25" height="25" xlink:href="bin_indicator.svg">
    <title>00CXJ03_XA06</title>
    <rt:dyn type="PointID" mode="constant" value="&quot;00CXJ03_XA06&quot;"/> 
  </image>
  <image x="90.8031" y="1000.98" width="472.227" height="32.2018" xlink:href="tenzor_tablo.svg" id="00QHA30AH001G_Z0">
    <rt:dyn type="PointID_1" mode="constant" value="&quot;00QHA30AH001G_Z0&quot;"/> 
    <rt:dyn type="Color_0000" mode="constant" value="&quot;Col_Gray&quot;"/> 
    <rt:dyn type="Text_0000" mode="constant" value="&quot;Неизвестное состояние&quot;"/> 
    <rt:dyn type="Color_0001" mode="constant" value="&quot;Col_Green&quot;"/> 
    <rt:dyn type="Color_0010" mode="constant" value="&quot;Col_Green&quot;"/> 
    <rt:dyn type="Color_0011" mode="constant" value="&quot;Col_Green&quot;"/> 
    <rt:dyn type="Text_0001" mode="constant" value="&quot;Котел остановлен&quot;"/> 
    <rt:dyn type="Text_0010" mode="constant" value="&quot;Открытие шибера дымовых газов&quot;"/> 
    <rt:dyn type="Text_0011" mode="constant" value="&quot;Включение регулятора воздуха перед горелкой&quot;"/> 
    <rt:dyn type="Color_0100" mode="constant" value="&quot;Col_Green&quot;"/> 
    <rt:dyn type="Text_0100" mode="constant" value="&quot;Пуск горелки&quot;"/> 
    <rt:dyn type="Text_0101" mode="constant" value="&quot;Вентиляция топки&quot;"/> 
    <rt:dyn type="Text_0110" mode="constant" value="&quot;Установка горелки для розжига&quot;"/> 
    <rt:dyn type="Text_0111" mode="constant" value="&quot;Розжиг&quot;"/> 
    <rt:dyn type="Text_1000" mode="constant" value="&quot;Ввод защит&quot;"/> 
    <rt:dyn type="Text_1001" mode="constant" value="&quot;Котел в работе&quot;"/> 
    <rt:dyn type="Text_1010" mode="constant" value="&quot;Котел в работе - включен тест защит&quot;"/> 
    <rt:dyn type="Text_1011" mode="constant" value="&quot;Мощность горелки увеличена&quot;"/> 
    <rt:dyn type="Text_1100" mode="constant" value="&quot;Мощность горелки уменьшена&quot;"/> 
    <rt:dyn type="Color_0101" mode="constant" value="&quot;Col_Green&quot;"/> 
    <rt:dyn type="Color_0110" mode="constant" value="&quot;Col_Green&quot;"/> 
    <rt:dyn type="Color_0111" mode="constant" value="&quot;Col_Green&quot;"/> 
    <rt:dyn type="Color_1000" mode="constant" value="&quot;Col_Green&quot;"/> 
    <rt:dyn type="Color_1001" mode="constant" value="&quot;Col_Green&quot;"/> 
    <rt:dyn type="Color_1010" mode="constant" value="&quot;Col_Green&quot;"/> 
    <rt:dyn type="Color_1011" mode="constant" value="&quot;Col_Green&quot;"/> 
    <rt:dyn type="Color_1100" mode="constant" value="&quot;Col_Green&quot;"/> 
  </image>
  <text x="202.424" y="982.046" fill="black" font-size="15" text-anchor="middle">Цикл розжига горелки</text>
  <image x="93.8335" y="890.374" width="472.227" height="32.2018" xlink:href="tenzor_tablo.svg" id="00QHA30AH001M2_Z0">
    <rt:dyn type="PointID_1" mode="constant" value="&quot;00QHA30AH001M2_Z0&quot;"/> 
    <rt:dyn type="Color_0000" mode="constant" value="&quot;Col_Gray&quot;"/> 
    <rt:dyn type="Text_0000" mode="constant" value="&quot;Неизвестное состояние&quot;"/> 
    <rt:dyn type="Color_0001" mode="constant" value="&quot;Col_Green&quot;"/> 
    <rt:dyn type="Color_0010" mode="constant" value="&quot;Col_Green&quot;"/> 
    <rt:dyn type="Color_0011" mode="constant" value="&quot;Col_Green&quot;"/> 
    <rt:dyn type="Text_0001" mode="constant" value="&quot;Режим не выбран&quot;"/> 
    <rt:dyn type="Text_0010" mode="constant" value="&quot;Автоматический&quot;"/> 
    <rt:dyn type="Text_0011" mode="constant" value="&quot;Пошаговый&quot;"/> 
    <rt:dyn type="Color_0100" mode="constant" value="&quot;Col_Green&quot;"/> 
    <rt:dyn type="Text_0100" mode="constant" value="&quot;Дистанционный&quot;"/> 
    <rt:dyn type="Text_0101" mode="constant" value="&quot;Поддержание заданной температуры&quot;"/> 
    <rt:dyn type="Color_0101" mode="constant" value="&quot;Col_Green&quot;"/> 
    <rt:dyn type="Color_0110" mode="constant" value="&quot;Col_Green&quot;"/> 
    <rt:dyn type="Color_0111" mode="constant" value="&quot;Col_Green&quot;"/> 
    <rt:dyn type="Color_1000" mode="constant" value="&quot;Col_Green&quot;"/> 
    <rt:dyn type="Color_1001" mode="constant" value="&quot;Col_Green&quot;"/> 
    <rt:dyn type="Color_1010" mode="constant" value="&quot;Col_Green&quot;"/> 
    <rt:dyn type="Color_1011" mode="constant" value="&quot;Col_Green&quot;"/> 
    <rt:dyn type="Color_1100" mode="constant" value="&quot;Col_Green&quot;"/> 
  </image>
  <text x="205.454" y="871.44" fill="black" font-size="15" text-anchor="middle">Режим работы котла</text>
</svg>
