<?xml  version="1.0" encoding="UTF-8"?>
<svg color="Col_BGSand" xmlns="http://www.w3.org/2000/svg" xmlns:rt="http://www.rts.co.at/2001/XMLSchema/RtSvgPL" xmlns:xlink="http://www.w3.org/1999/xlink" xmlns:xsi="http://www.w3.org/2001/XMLSchema-instance" xsi:schemaLocation="http://www.w3.org/2000/svg C:\RTS\RtSvg\XML\SVG.xsd" viewBox="0 0 1920 1080" width="1920" height="1080" id="00sat68_69">
  <rt:model modelversion="7.2.0.24" revision="1"/> 
  <text x="25" y="25" font-size="15">00UST 00CXV13 00SAT68 / 00SAT69</text>
  <rect x="37.5152" y="48.5758" width="285.364" height="85.3637" rx="0" ry="0" fill="Col_BGSand" stroke="black" stroke-width="2"/> 
  <text x="56.8852" y="72.6668" fill="black" font-size="15">Режим работы 00SAT68</text>
  <image x="50.4551" y="96.0608" width="181.818" height="24.2424" xlink:href="bitwise_tablo_4bits.svg">
    <title>00SAT68_XK92</title>
    <rt:dyn type="PointID_1" mode="constant" value="&quot;00SAT68_XK92&quot;"/> 
    <rt:dyn type="Text_0000" mode="constant" value="&quot;АВТОМАТИЧЕСКИЙ&quot;"/> 
    <rt:dyn type="Color_0001" mode="constant" value="&quot;Col_Green&quot;"/> 
    <rt:dyn type="Text_0001" mode="constant" value="&quot;ДИСТАНЦИОННЫЙ&quot;"/> 
    <rt:dyn type="Color_0000" mode="constant" value="&quot;Col_Green&quot;"/> 
  </image>
  <image x="249.185" y="90.4848" width="60" height="30" xlink:href="ps_tenzor_system.svg">
    <title>00SAT68</title>
    <rt:dyn type="KKS" mode="constant" value="&quot;00SAT68&quot;"/> 
  </image>
  <polygon points="-1167.93,177.084 -1157.93,194.084 -1177.93,194.084" transform="rotate(210 453.5 42.9997) rotate(90 31.3333 552.5) rotate(0 1.4013e-045 3.14533e-039) flipY(460.5)"/> 
  <line x1="615.273" y1="358.182" x2="615.273" y2="186.97" stroke="black" stroke-width="3"/> 
  <g transform="flipX(25.3379)">
    <line x1="-647.269" y1="883.819" x2="-586.269" y2="883.819" stroke="black" stroke-width="1"/> 
    <line x1="-585.279" y1="876.319" x2="-585.279" y2="890.319" stroke="black" stroke-width="1"/> 
  </g>
  <text x="559.243" y="344.924" fill="black" font-size="15" text-anchor="middle">00SAT68<tspan x="559.243" dy="15">AN001</tspan>
  </text>
  <g transform="rotate(0 609.241 429.584) scale(0.765552 0.765552 609.241 429.584)">
    <rect x="582.035" y="206.19" width="66.8757" height="34.9577" rx="0" ry="0" fill="Col_BGSand" stroke="black"/> 
    <polygon points="617.955,206.359 582.845,240.965 613.695,240.715 648.115,206.369" fill="Col_Grey2" stroke="black"/> 
  </g>
  <line x1="631.939" y1="943.546" x2="631.939" y2="336.97" stroke="black" stroke-width="3"/> 
  <image x="596.077" y="321.876" width="70" height="70" xlink:href="DS_motor_tenzor.svg" transform="rotate(270 0 0)">
    <title>00SAT68AN001</title>
    <rt:dyn type="KKS" mode="constant" value="&quot;00SAT68AN001&quot;"/> 
    <rt:dyn type="DATA_NARY" mode="constant" value="&quot;TYPE2&quot;"/> 
    <rt:dyn type="Operate" mode="constant" value="true"/> 
    <rt:dyn type="DeviceType" mode="constant" value="&quot;fan&quot;"/> 
  </image>
  <polyline points="1055.44,1044.86 1105.44,1044.86 1104.94,1094.86 1055.44,1094.36 1055.44,1044.86" fill="Col_BGSand" stroke="black" stroke-width="3" transform="rotate(44.0618 1325.51 325.508)"/> 
  <text x="685" y="720.303" fill="black" font-size="15" text-anchor="middle">00SAT68<tspan x="685" dy="15">AT001</tspan>
  </text>
  <line x1="599.954" y1="690.111" x2="668.954" y2="690.111" stroke="black"/> 
  <text x="710.727" y="815.924" fill="black" font-size="15" text-anchor="middle">00SAT68<tspan x="710.727" dy="15">AA001</tspan>
  </text>
  <image x="597.121" y="795.924" width="70" height="45" xlink:href="DS_pivot_valve_tenzor.svg">
    <title>00SAT68AA001</title>
    <rt:dyn type="KKS" mode="constant" value="&quot;00SAT68AA001&quot;"/> 
    <rt:dyn type="DATA_NARY" mode="constant" value="&quot;TYPE2&quot;"/> 
    <rt:dyn type="Operate" mode="constant" value="true"/> 
  </image>
  <image x="655.152" y="871.197" width="174.242" height="24.2424" xlink:href="DS_ana_tenzor.svg">
    <title>00SAT68CT001</title>
    <rt:dyn type="FKKS" mode="constant" value="&quot;00SAT68CT001&quot;"/> 
    <rt:dyn type="X" mode="constant" value="&quot;T&quot;"/> 
    <rt:dyn type="ShowFrame" mode="constant" value="true"/> 
    <rt:dyn type="ValueToTheRight" mode="constant" value="false"/> 
    <rt:dyn type="Color_Readings" mode="constant" value="true"/> 
  </image>
  <line x1="631.454" y1="548.091" x2="103.151" y2="548.091" stroke="black" stroke-width="3"/> 
  <line x1="634" y1="477" x2="179.818" y2="477" stroke="black" stroke-width="3"/> 
  <text x="577.424" y="564.621" fill="black" font-size="15" text-anchor="middle">00SAT68<tspan x="577.424" dy="15">AH001</tspan>
  </text>
  <polygon points="26.8332,1234.11 36.8332,1251.11 16.8332,1251.11" transform="flipX(503.622) rotate(90 31.3333 552.5) rotate(0 1.4013e-045 3.14533e-039) flipY(460.5)"/> 
  <line x1="153.153" y1="477.798" x2="95.5779" y2="477.798" stroke="black" stroke-width="3"/> 
  <image x="126.711" y="405.246" width="65" height="25" xlink:href="DS_Reg_degree.svg">
    <title>00SBU30AA211</title>
    <rt:dyn type="KKS" mode="constant" value="&quot;00SBU30AA211&quot;"/> 
    <rt:dyn type="SIGNAL" mode="constant" value="&quot;XQ54&quot;"/> 
  </image>
  <polygon points="-43.3691,336.527 -33.3691,353.527 -53.3691,353.527" transform="flipX(169.258) flipX(122.287) rotate(90 31.3333 552.5) rotate(0 1.4013e-045 3.14533e-039) flipY(460.5)"/> 
  <image x="124.211" y="434.489" width="70" height="65" xlink:href="DS_Reg_valve_tenzor.svg">
    <title>00SBU30AA211</title>
    <rt:dyn type="DATA_NARY" mode="constant" value="&quot;TYPE2&quot;"/> 
    <rt:dyn type="Operate" mode="constant" value="true"/> 
    <rt:dyn type="KKS" mode="constant" value="&quot;00SBU30AA211&quot;"/> 
  </image>
  <image x="331.818" y="440.485" width="70" height="70" xlink:href="DS_motor_tenzor.svg" transform="rotate(180 0 0)">
    <title>00SBU30AP011</title>
    <rt:dyn type="KKS" mode="constant" value="&quot;00SBU30AP011&quot;"/> 
    <rt:dyn type="DATA_NARY" mode="constant" value="&quot;TYPE2&quot;"/> 
    <rt:dyn type="Operate" mode="constant" value="true"/> 
  </image>
  <text x="157.727" y="503.636" fill="black" font-size="15" text-anchor="middle">00SBU30<tspan x="157.727" dy="15">AA211</tspan>
  </text>
  <text x="366.818" y="429.364" fill="black" font-size="15" text-anchor="middle">00SBU30<tspan x="366.818" dy="15">AP011</tspan>
  </text>
  <polyline points="393.545,395.015 557.544,395.015 557.544,471.788" fill="none" stroke="black"/> 
  <line x1="401.207" y1="335.016" x2="401.207" y2="349.016" stroke="black" stroke-width="1" transform="rotate(90 414.288 484.879)"/> 
  <image x="367.788" y="382.394" width="175" height="25" xlink:href="DS_ana_tenzor.svg">
    <title>00SAT68CT002</title>
    <rt:dyn type="FKKS" mode="constant" value="&quot;00SAT68CT002&quot;"/> 
    <rt:dyn type="X" mode="constant" value="&quot;T&quot;"/> 
    <rt:dyn type="ShowFrame" mode="constant" value="true"/> 
    <rt:dyn type="ValueToTheRight" mode="constant" value="false"/> 
    <rt:dyn type="Color_Readings" mode="constant" value="true"/> 
  </image>
  <image x="568.303" y="448.091" width="130" height="128.857" xlink:href="ps_TempValve.svg">
    <title>00SAT68AH001</title>
  </image>
  <g transform="flipX(25.3379)">
    <line x1="-632.148" y1="218.773" x2="-571.148" y2="218.773" stroke="black" stroke-width="1"/> 
    <line x1="-570.158" y1="211.273" x2="-570.158" y2="225.273" stroke="black" stroke-width="1"/> 
  </g>
  <image x="640.031" y="206.152" width="174.242" height="24.2424" xlink:href="DS_ana_tenzor.svg">
    <title>00SAT68CT003</title>
    <rt:dyn type="FKKS" mode="constant" value="&quot;00SAT68CT003&quot;"/> 
    <rt:dyn type="X" mode="constant" value="&quot;T&quot;"/> 
    <rt:dyn type="ShowFrame" mode="constant" value="true"/> 
    <rt:dyn type="ValueToTheRight" mode="constant" value="false"/> 
    <rt:dyn type="Color_Readings" mode="constant" value="true"/> 
  </image>
  <text x="603.94" y="137.349" fill="black" font-size="15" text-anchor="middle">К вытяжным вентиляторам<tspan x="603.94" dy="15">00SAT44,  кондиц.00SAT87</tspan>
  </text>
  <text x="49.8485" y="482.798" fill="black" font-size="15" text-anchor="middle">00SBU30</text>
  <text x="49.8486" y="553" fill="black" font-size="15" text-anchor="middle">00SBU30</text>
  <polygon points="-520.456,568.926 -510.456,585.926 -530.456,585.926" transform="rotate(210 453.5 42.9997) rotate(90 31.3333 552.5) rotate(0 1.4013e-045 3.14533e-039) flipY(460.5)"/> 
  <rect x="4.697" y="35.4546" width="834.848" height="927.273" rx="0" ry="0" fill="none" stroke="black" stroke-dasharray="15,5"/> 
  <rect x="861.258" y="35.9546" width="827.273" height="927.273" rx="0" ry="0" fill="none" stroke="black" stroke-dasharray="15,5"/> 
  <rect x="890.545" y="53.1212" width="285.364" height="85.3637" rx="0" ry="0" fill="Col_BGSand" stroke="black" stroke-width="2"/> 
  <text x="909.915" y="77.2122" fill="black" font-size="15">Режим работы 00SAT69</text>
  <image x="903.485" y="100.606" width="181.818" height="24.2424" xlink:href="bitwise_tablo_4bits.svg">
    <title>00SAT69_XK92</title>
    <rt:dyn type="PointID_1" mode="constant" value="&quot;00SAT69_XK92&quot;"/> 
    <rt:dyn type="Text_0000" mode="constant" value="&quot;АВТОМАТИЧЕСКИЙ&quot;"/> 
    <rt:dyn type="Color_0001" mode="constant" value="&quot;Col_Green&quot;"/> 
    <rt:dyn type="Text_0001" mode="constant" value="&quot;ДИСТАНЦИОННЫЙ&quot;"/> 
    <rt:dyn type="Color_0000" mode="constant" value="&quot;Col_Green&quot;"/> 
  </image>
  <image x="1102.22" y="95.0302" width="60" height="30" xlink:href="ps_tenzor_system.svg">
    <title>00SAT69</title>
    <rt:dyn type="KKS" mode="constant" value="&quot;00SAT69&quot;"/> 
  </image>
  <text x="744.091" y="73.3334" fill="black" font-size="15" font-weight="bold" text-anchor="middle">00SAT68</text>
  <text x="1589.55" y="75.2273" fill="black" font-size="15" font-weight="bold" text-anchor="middle">00SAT69</text>
  <text x="556.212" y="868.652" fill="black" font-size="15" text-anchor="middle">00SAT68<tspan x="556.212" dy="15">AA001E</tspan>
  </text>
  <image x="522.878" y="783.424" width="70" height="70" xlink:href="DS_motor_rect_tenzor.svg">
    <title>00SAT68AA001E</title>
    <rt:dyn type="KKS" mode="constant" value="&quot;00SAT68AA001E&quot;"/> 
    <rt:dyn type="DATA_NARY" mode="constant" value="&quot;TYPE2&quot;"/> 
    <rt:dyn type="Operate" mode="constant" value="&quot;true&quot;"/> 
  </image>
  <image x="724.773" y="451.606" width="25" height="25" xlink:href="bin_indicator.svg">
    <title>00SAT68AN001_XB06</title>
    <rt:dyn type="PointID" mode="constant" value="&quot;00SAT68AN001_XB06&quot;"/> 
  </image>
  <text x="737.273" y="493.106" fill="black" font-size="15" text-anchor="middle">Прогрев<tspan x="737.273" dy="15">системы</tspan>
  </text>
  <image x="724.773" y="519.789" width="25" height="25" xlink:href="bin_indicator.svg">
    <title>00SAT68AH001_EK11</title>
    <rt:dyn type="PointID" mode="constant" value="&quot;00SAT68AH001_EK11&quot;"/> 
  </image>
  <text x="737.273" y="561.288" fill="black" font-size="15" text-anchor="middle">Угроза<tspan x="737.273" dy="15">замораживания</tspan>
  </text>
  <image x="698.258" y="319.788" width="25" height="25" xlink:href="bin_indicator.svg">
    <title>00SAT68CP002_XG51</title>
    <rt:dyn type="PointID" mode="constant" value="&quot;00SAT68CP002_XG51&quot;"/> 
  </image>
  <text x="710.758" y="361.288" fill="black" font-size="15" text-anchor="middle">Перепад<tspan x="710.758" dy="15">давления</tspan>
<tspan x="710.758" dy="15">&lt;1,0 кПа</tspan>
  </text>
  <image x="542.197" y="616.758" width="25" height="25" xlink:href="bin_indicator.svg">
    <title>00SAT68CP001_XG01</title>
    <rt:dyn type="PointID" mode="constant" value="&quot;00SAT68CP001_XG01&quot;"/> 
  </image>
  <text x="554.697" y="657.046" fill="black" font-size="15" text-anchor="middle">Перепад<tspan x="554.697" dy="15">давления</tspan>
<tspan x="554.697" dy="15">&gt;0,15 кПа</tspan>
  </text>
  <image x="542.197" y="692.517" width="25" height="25" xlink:href="bin_indicator.svg">
    <title>00SAT68CP001_XG51</title>
    <rt:dyn type="PointID" mode="constant" value="&quot;00SAT68CP001_XG51&quot;"/> 
  </image>
  <text x="554.697" y="734.319" fill="black" font-size="15" text-anchor="middle">Перепад<tspan x="554.697" dy="15">давления</tspan>
<tspan x="554.697" dy="15">&lt;0,04 кПа</tspan>
  </text>
  <g transform="flipX(25.3379)">
    <line x1="-648.814" y1="622.621" x2="-587.814" y2="622.621" stroke="black" stroke-width="1"/> 
    <line x1="-586.824" y1="615.121" x2="-586.824" y2="629.121" stroke="black" stroke-width="1"/> 
  </g>
  <image x="656.697" y="610" width="174.242" height="24.2424" xlink:href="DS_ana_tenzor.svg">
    <title>00SAT68CT004</title>
    <rt:dyn type="FKKS" mode="constant" value="&quot;00SAT68CT004&quot;"/> 
    <rt:dyn type="X" mode="constant" value="&quot;T&quot;"/> 
    <rt:dyn type="ShowFrame" mode="constant" value="true"/> 
    <rt:dyn type="ValueToTheRight" mode="constant" value="false"/> 
    <rt:dyn type="Color_Readings" mode="constant" value="true"/> 
  </image>
  <polygon points="-743.333,-561.37 -733.333,-544.37 -753.333,-544.37" transform="rotate(210 453.5 42.9997) rotate(90 31.3333 552.5) rotate(0 1.4013e-045 3.14533e-039) flipY(460.5)"/> 
  <line x1="1467.09" y1="359.697" x2="1467.09" y2="188.485" stroke="black" stroke-width="3"/> 
  <g transform="flipX(25.3379)">
    <line x1="-1499.09" y1="885.334" x2="-1438.09" y2="885.334" stroke="black" stroke-width="1"/> 
    <line x1="-1437.1" y1="877.834" x2="-1437.1" y2="891.834" stroke="black" stroke-width="1"/> 
  </g>
  <text x="1411.06" y="346.439" fill="black" font-size="15" text-anchor="middle">00SAT69<tspan x="1411.06" dy="15">AN001</tspan>
  </text>
  <g transform="rotate(0 609.241 429.584) scale(0.765552 0.765552 609.241 429.584)">
    <rect x="1694.72" y="208.169" width="66.8757" height="34.9577" rx="0" ry="0" fill="Col_BGSand" stroke="black"/> 
    <polygon points="1730.64,208.338 1695.53,242.944 1726.38,242.694 1760.8,208.348" fill="Col_Grey2" stroke="black"/> 
  </g>
  <line x1="1483.76" y1="945.061" x2="1483.76" y2="338.485" stroke="black" stroke-width="3"/> 
  <image x="1447.9" y="323.391" width="70" height="70" xlink:href="DS_motor_tenzor.svg" transform="rotate(270 0 0)">
    <title>00SAT69AN001</title>
    <rt:dyn type="KKS" mode="constant" value="&quot;00SAT69AN001&quot;"/> 
    <rt:dyn type="DATA_NARY" mode="constant" value="&quot;TYPE2&quot;"/> 
    <rt:dyn type="Operate" mode="constant" value="true"/> 
    <rt:dyn type="DeviceType" mode="constant" value="&quot;fan&quot;"/> 
  </image>
  <polyline points="1668.6,453.565 1718.6,453.565 1718.1,503.565 1668.6,503.065 1668.6,453.565" fill="Col_BGSand" stroke="black" stroke-width="3" transform="rotate(44.0618 1325.51 325.508)"/> 
  <text x="1536.52" y="720.303" fill="black" font-size="15" text-anchor="middle">00SAT69<tspan x="1536.52" dy="15">AT001</tspan>
  </text>
  <line x1="1451.77" y1="691.626" x2="1520.77" y2="691.626" stroke="black"/> 
  <text x="1562.55" y="817.439" fill="black" font-size="15" text-anchor="middle">00SAT69<tspan x="1562.55" dy="15">AA001</tspan>
  </text>
  <image x="1448.94" y="797.439" width="70" height="45" xlink:href="DS_pivot_valve_tenzor.svg">
    <title>00SAT69AA001</title>
    <rt:dyn type="KKS" mode="constant" value="&quot;00SAT69AA001&quot;"/> 
    <rt:dyn type="DATA_NARY" mode="constant" value="&quot;TYPE2&quot;"/> 
    <rt:dyn type="Operate" mode="constant" value="true"/> 
  </image>
  <image x="1506.97" y="872.712" width="174.242" height="24.2424" xlink:href="DS_ana_tenzor.svg">
    <title>00SAT69CT001</title>
    <rt:dyn type="FKKS" mode="constant" value="&quot;00SAT69CT001&quot;"/> 
    <rt:dyn type="X" mode="constant" value="&quot;T&quot;"/> 
    <rt:dyn type="ShowFrame" mode="constant" value="true"/> 
    <rt:dyn type="ValueToTheRight" mode="constant" value="false"/> 
    <rt:dyn type="Color_Readings" mode="constant" value="true"/> 
  </image>
  <line x1="1483.27" y1="549.606" x2="954.969" y2="549.606" stroke="black" stroke-width="3"/> 
  <line x1="1485" y1="479" x2="1031.64" y2="479" stroke="black" stroke-width="3"/> 
  <text x="1428.94" y="565.758" fill="black" font-size="15" text-anchor="middle">00SAT69<tspan x="1428.94" dy="15">AH001</tspan>
  </text>
  <polygon points="28.3482,382.292 38.3481,399.292 18.3482,399.292" transform="flipX(503.622) rotate(90 31.3333 552.5) rotate(0 1.4013e-045 3.14533e-039) flipY(460.5)"/> 
  <line x1="1004.97" y1="479.313" x2="947.396" y2="479.313" stroke="black" stroke-width="3"/> 
  <image x="978.529" y="406.761" width="65" height="25" xlink:href="DS_Reg_degree.svg">
    <title>00SBU30AA212</title>
    <rt:dyn type="KKS" mode="constant" value="&quot;00SBU30AA212&quot;"/> 
    <rt:dyn type="SIGNAL" mode="constant" value="&quot;XQ54&quot;"/> 
  </image>
  <polygon points="-41.8541,1188.35 -31.8541,1205.35 -51.8541,1205.35" transform="flipX(169.258) flipX(122.287) rotate(90 31.3333 552.5) rotate(0 1.4013e-045 3.14533e-039) flipY(460.5)"/> 
  <image x="976.029" y="436.004" width="70" height="65" xlink:href="DS_Reg_valve_tenzor.svg">
    <title>00SBU30AA212</title>
    <rt:dyn type="DATA_NARY" mode="constant" value="&quot;TYPE2&quot;"/> 
    <rt:dyn type="Operate" mode="constant" value="true"/> 
    <rt:dyn type="KKS" mode="constant" value="&quot;00SBU30AA212&quot;"/> 
  </image>
  <image x="1183.64" y="442" width="70" height="70" xlink:href="DS_motor_tenzor.svg" transform="rotate(180 0 0)">
    <title>00SBU30AP012</title>
    <rt:dyn type="KKS" mode="constant" value="&quot;00SBU30AP012&quot;"/> 
    <rt:dyn type="DATA_NARY" mode="constant" value="&quot;TYPE2&quot;"/> 
    <rt:dyn type="Operate" mode="constant" value="true"/> 
  </image>
  <text x="1009.55" y="505.151" fill="black" font-size="15" text-anchor="middle">00SBU30<tspan x="1009.55" dy="15">AA212</tspan>
  </text>
  <text x="1218.64" y="430.879" fill="black" font-size="15" text-anchor="middle">00SBU30<tspan x="1218.64" dy="15">AP012</tspan>
  </text>
  <polyline points="1245.36,396.53 1409.36,396.53 1409.36,473.303" fill="none" stroke="black"/> 
  <line x1="402.909" y1="-516.833" x2="402.909" y2="-502.833" stroke="black" stroke-width="1" transform="rotate(90 414.288 484.879)"/> 
  <image x="1219.61" y="383.909" width="175" height="25" xlink:href="DS_ana_tenzor.svg">
    <title>00SAT69CT002</title>
    <rt:dyn type="FKKS" mode="constant" value="&quot;00SAT69CT002&quot;"/> 
    <rt:dyn type="X" mode="constant" value="&quot;T&quot;"/> 
    <rt:dyn type="ShowFrame" mode="constant" value="true"/> 
    <rt:dyn type="ValueToTheRight" mode="constant" value="false"/> 
    <rt:dyn type="Color_Readings" mode="constant" value="true"/> 
  </image>
  <image x="1420.12" y="449.606" width="130" height="128.857" xlink:href="ps_TempValve.svg">
    <title>00SAT69AH001</title>
  </image>
  <g transform="flipX(25.3379)">
    <line x1="-1483.97" y1="220.288" x2="-1422.97" y2="220.288" stroke="black" stroke-width="1"/> 
    <line x1="-1421.98" y1="212.788" x2="-1421.98" y2="226.788" stroke="black" stroke-width="1"/> 
  </g>
  <image x="1491.85" y="207.667" width="174.242" height="24.2424" xlink:href="DS_ana_tenzor.svg">
    <title>00SAT69CT003</title>
    <rt:dyn type="FKKS" mode="constant" value="&quot;00SAT69CT003&quot;"/> 
    <rt:dyn type="X" mode="constant" value="&quot;T&quot;"/> 
    <rt:dyn type="ShowFrame" mode="constant" value="true"/> 
    <rt:dyn type="ValueToTheRight" mode="constant" value="false"/> 
    <rt:dyn type="Color_Readings" mode="constant" value="true"/> 
  </image>
  <text x="1455.76" y="138.864" fill="black" font-size="15" text-anchor="middle">К вытяжным вентиляторам<tspan x="1455.76" dy="15">00SAT44,  кондиц.00SAT87</tspan>
  </text>
  <text x="901.667" y="484.313" fill="black" font-size="15" text-anchor="middle">00SBU30</text>
  <text x="901.667" y="554.515" fill="black" font-size="15" text-anchor="middle">00SBU30</text>
  <polygon points="-95.8588,-169.528 -85.8588,-152.528 -105.859,-152.528" transform="rotate(210 453.5 42.9997) rotate(90 31.3333 552.5) rotate(0 1.4013e-045 3.14533e-039) flipY(460.5)"/> 
  <text x="1408.03" y="870.167" fill="black" font-size="15" text-anchor="middle">00SAT69<tspan x="1408.03" dy="15">AA001E</tspan>
  </text>
  <image x="1374.7" y="784.939" width="70" height="70" xlink:href="DS_motor_rect_tenzor.svg">
    <title>00SAT69AA001E</title>
    <rt:dyn type="KKS" mode="constant" value="&quot;00SAT69AA001E&quot;"/> 
    <rt:dyn type="DATA_NARY" mode="constant" value="&quot;TYPE2&quot;"/> 
    <rt:dyn type="Operate" mode="constant" value="&quot;true&quot;"/> 
  </image>
  <image x="1576.59" y="453.121" width="25" height="25" xlink:href="bin_indicator.svg">
    <title>00SAT69AN001_XB06</title>
    <rt:dyn type="PointID" mode="constant" value="&quot;00SAT69AN001_XB06&quot;"/> 
  </image>
  <text x="1589.09" y="494.621" fill="black" font-size="15" text-anchor="middle">Прогрев<tspan x="1589.09" dy="15">системы</tspan>
  </text>
  <image x="1576.59" y="521.304" width="25" height="25" xlink:href="bin_indicator.svg">
    <title>00SAT69AH001_EK11</title>
    <rt:dyn type="PointID" mode="constant" value="&quot;00SAT69AH001_EK11&quot;"/> 
  </image>
  <text x="1589.09" y="562.803" fill="black" font-size="15" text-anchor="middle">Угроза<tspan x="1589.09" dy="15">замораживания</tspan>
  </text>
  <image x="1550.08" y="321.303" width="25" height="25" xlink:href="bin_indicator.svg">
    <title>00SAT69CP002_XG51</title>
    <rt:dyn type="PointID" mode="constant" value="&quot;00SAT69CP002_XG51&quot;"/> 
  </image>
  <text x="1562.58" y="362.803" fill="black" font-size="15" text-anchor="middle">Перепад<tspan x="1562.58" dy="15">давления</tspan>
<tspan x="1562.58" dy="15">&lt;1,1 кПа</tspan>
  </text>
  <image x="1394.02" y="618.273" width="25" height="25" xlink:href="bin_indicator.svg">
    <title>00SAT69CP001_XG01</title>
    <rt:dyn type="PointID" mode="constant" value="&quot;00SAT69CP001_XG01&quot;"/> 
  </image>
  <text x="1406.52" y="658.561" fill="black" font-size="15" text-anchor="middle">Перепад<tspan x="1406.52" dy="15">давления</tspan>
<tspan x="1406.52" dy="15">&gt;0,15 кПа</tspan>
  </text>
  <image x="1394.02" y="694.032" width="25" height="25" xlink:href="bin_indicator.svg">
    <title>00SAT69CP001_XG51</title>
    <rt:dyn type="PointID" mode="constant" value="&quot;00SAT69CP001_XG51&quot;"/> 
  </image>
  <text x="1406.52" y="735.834" fill="black" font-size="15" text-anchor="middle">Перепад<tspan x="1406.52" dy="15">давления</tspan>
<tspan x="1406.52" dy="15">&lt;0,04 кПа</tspan>
  </text>
  <g transform="flipX(25.3379)">
    <line x1="-1500.63" y1="624.136" x2="-1439.63" y2="624.136" stroke="black" stroke-width="1"/> 
    <line x1="-1438.64" y1="616.636" x2="-1438.64" y2="630.636" stroke="black" stroke-width="1"/> 
  </g>
  <image x="1508.52" y="611.515" width="174.242" height="24.2424" xlink:href="DS_ana_tenzor.svg">
    <title>00SAT69CT004</title>
    <rt:dyn type="FKKS" mode="constant" value="&quot;00SAT69CT004&quot;"/> 
    <rt:dyn type="X" mode="constant" value="&quot;T&quot;"/> 
    <rt:dyn type="ShowFrame" mode="constant" value="true"/> 
    <rt:dyn type="ValueToTheRight" mode="constant" value="false"/> 
    <rt:dyn type="Color_Readings" mode="constant" value="true"/> 
  </image>
  <image x="109.212" y="370.273" width="100" height="30" xlink:href="DS_Reg_set.svg">
    <title>&quot;00SBU30AA211&quot;</title>
    <rt:dyn type="KKS" mode="constant" value="&quot;00SBU30AA211&quot;"/> 
    <rt:dyn type="DATA_NARY" mode="constant" value="&quot;TYPE2&quot;"/> 
    <rt:dyn type="Operate" mode="constant" value="true"/> 
    <rt:dyn type="ShowGoodColor" mode="constant" value="true"/> 
  </image>
  <image x="957.727" y="371.818" width="100" height="30" xlink:href="DS_Reg_set.svg">
    <title>&quot;00SBU30AA212&quot;</title>
    <rt:dyn type="KKS" mode="constant" value="&quot;00SBU30AA212&quot;"/> 
    <rt:dyn type="DATA_NARY" mode="constant" value="&quot;TYPE2&quot;"/> 
    <rt:dyn type="Operate" mode="constant" value="true"/> 
    <rt:dyn type="ShowGoodColor" mode="constant" value="true"/> 
  </image>
</svg>
