<?xml  version="1.0" encoding="UTF-8"?>
<svg color="Col_BGSand" xmlns="http://www.w3.org/2000/svg" xmlns:rt="http://www.rts.co.at/2001/XMLSchema/RtSvgPL" xmlns:xlink="http://www.w3.org/1999/xlink" xmlns:xsi="http://www.w3.org/2001/XMLSchema-instance" xsi:schemaLocation="http://www.w3.org/2000/svg C:\RTS\RtSvg\XML\SVG.xsd" viewBox="0 0 1920 980" width="1920" height="980" id="00sas44an004_005">
  <rt:model modelversion="7.2.0.24" comment="Ñîçäàíî ARM-VIUR\user 23.08.2016 13:46:56"/> 
  <line x1="1072.26" y1="832.59" x2="1072.26" y2="732.59" stroke="black" stroke-width="3"/> 
  <line x1="1196" y1="844" x2="1197.26" y2="467.591" stroke="black" stroke-width="3"/> 
  <line x1="1197.26" y1="469.591" x2="896.933" y2="469.758" stroke="black" stroke-width="3"/> 
  <g transform="flipX(875.071)">
    <g>
      <line x1="852.209" y1="393.258" x2="751.905" y2="392.955" stroke="black" stroke-width="3"/> 
      <line x1="752.905" y1="357.591" x2="752.905" y2="393.591" stroke="black" stroke-width="3"/> 
      <polygon points="-112.583,-399.74 -102.583,-382.74 -122.579,-382.74" transform="flipX(244.5) flipX(399.833) rotate(90 93.3313 598.5)"/> 
    </g>
  </g>
  <line x1="520" y1="832" x2="521.5" y2="268.334" stroke="black" stroke-width="3"/> 
  <line x1="501.501" y1="275.242" x2="501.501" y2="74.2424" stroke="black" stroke-width="3"/> 
  <image x="487.708" y="243.985" width="70" height="70" xlink:href="DS_motor_tenzor.svg" transform="rotate(270 0 0)">
    <title>00SAS44AN004</title>
    <rt:dyn type="KKS" mode="constant" value="&quot;00SAS44AN004&quot;"/> 
    <rt:dyn type="DATA_NARY" mode="constant" value="&quot;TYPE2&quot;"/> 
    <rt:dyn type="Operate" mode="constant" value="true"/> 
    <rt:dyn type="DeviceType" mode="constant" value="&quot;fan&quot;"/> 
  </image>
  <text x="439.682" y="277.318" fill="black" font-size="15" text-anchor="middle">00SAS44<tspan x="439.682" dy="15">AN004</tspan>
  </text>
  <polyline points="976.952,1122.86 1026.95,1122.86 1026.45,1172.86 976.952,1172.36 976.952,1122.86" fill="Col_BGSand" stroke="black" stroke-width="3" transform="rotate(44.0618 1325.51 325.508)"/> 
  <text x="601.5" y="659.5" fill="black" font-size="15" text-anchor="middle">00SAS44AT004</text>
  <polygon points="1075,171 1085,188 1065,188"/> 
  <line x1="486.97" y1="691.999" x2="555.97" y2="691.999" stroke="black"/> 
  <text x="422" y="764.5" fill="black" font-size="15" text-anchor="middle">00SAS44AA004</text>
  <line x1="389.974" y1="733.772" x2="509.97" y2="733.499" stroke="black" stroke-width="1"/> 
  <line x1="388.459" y1="650.439" x2="508.98" y2="649.999" stroke="black" stroke-width="1"/> 
  <line x1="389.974" y1="648.924" x2="391.489" y2="733.772" stroke="black" stroke-width="1"/> 
  <line x1="509.97" y1="642.999" x2="509.97" y2="656.999" stroke="black" stroke-width="1"/> 
  <line x1="509.97" y1="725.499" x2="509.97" y2="739.999" stroke="black" stroke-width="1"/> 
  <line x1="500" y1="175.758" x2="885.667" y2="175.333" stroke="black" stroke-width="3"/> 
  <image x="484.97" y="759.999" width="70" height="45" xlink:href="DS_pivot_valve_tenzor.svg">
    <title>00SAS44AA004</title>
    <rt:dyn type="KKS" mode="constant" value="&quot;00SAS44AA004&quot;"/> 
    <rt:dyn type="DATA_NARY" mode="constant" value="&quot;TYPE2&quot;"/> 
    <rt:dyn type="Operate" mode="constant" value="true"/> 
  </image>
  <line x1="1074.26" y1="832.59" x2="518.474" y2="832.59" stroke="black" stroke-width="3"/> 
  <image x="291.762" y="681.59" width="175" height="25" xlink:href="DS_ana_tenzor.svg">
    <title>00SAS44CP004</title>
    <rt:dyn type="FKKS" mode="constant" value="&quot;00SAS44CP004&quot;"/> 
    <rt:dyn type="X" mode="constant" value="&quot;dP&quot;"/> 
    <rt:dyn type="ShowFrame" mode="constant" value="true"/> 
    <rt:dyn type="ValueToTheRight" mode="constant" value="false"/> 
    <rt:dyn type="Color_Readings" mode="constant" value="true"/> 
  </image>
  <rect x="482.167" y="210" width="41.6667" height="16.6666" rx="0" ry="0"/> 
  <image x="436.429" y="595.333" width="175" height="25" xlink:href="DS_ana_tenzor.svg">
    <title>00SAS44CT004</title>
    <rt:dyn type="FKKS" mode="constant" value="&quot;00SAS44CT004&quot;"/> 
    <rt:dyn type="X" mode="constant" value="&quot;T&quot;"/> 
    <rt:dyn type="ShowFrame" mode="constant" value="true"/> 
    <rt:dyn type="ValueToTheRight" mode="constant" value="false"/> 
    <rt:dyn type="Color_Readings" mode="constant" value="true"/> 
  </image>
  <image x="511.25" y="137" width="175" height="25" xlink:href="DS_ana_tenzor.svg">
    <title>00SAS44CT011</title>
    <rt:dyn type="FKKS" mode="constant" value="&quot;00SAS44CT011&quot;"/> 
    <rt:dyn type="X" mode="constant" value="&quot;T&quot;"/> 
    <rt:dyn type="ShowFrame" mode="constant" value="true"/> 
    <rt:dyn type="ValueToTheRight" mode="constant" value="false"/> 
    <rt:dyn type="Color_Readings" mode="constant" value="true"/> 
  </image>
  <image x="509.25" y="96" width="175" height="25" xlink:href="DS_ana_tenzor.svg">
    <title>00SAS44CT006</title>
    <rt:dyn type="FKKS" mode="constant" value="&quot;00SAS44CT006&quot;"/> 
    <rt:dyn type="X" mode="constant" value="&quot;T&quot;"/> 
    <rt:dyn type="ShowFrame" mode="constant" value="true"/> 
    <rt:dyn type="ValueToTheRight" mode="constant" value="false"/> 
    <rt:dyn type="Color_Readings" mode="constant" value="true"/> 
  </image>
  <line x1="900" y1="831" x2="900.151" y2="268.819" stroke="black" stroke-width="3"/> 
  <line x1="883.151" y1="275.152" x2="884.151" y2="175.152" stroke="black" stroke-width="3"/> 
  <image x="866.359" y="244.318" width="70" height="70" xlink:href="DS_motor_tenzor.svg" transform="rotate(270 0 0)">
    <title>00SAS44AN005</title>
    <rt:dyn type="KKS" mode="constant" value="&quot;00SAS44AN005&quot;"/> 
    <rt:dyn type="DATA_NARY" mode="constant" value="&quot;TYPE2&quot;"/> 
    <rt:dyn type="Operate" mode="constant" value="true"/> 
    <rt:dyn type="DeviceType" mode="constant" value="&quot;fan&quot;"/> 
  </image>
  <text x="975.151" y="276.818" fill="black" font-size="15" text-anchor="middle">00SAS44<tspan x="975.151" dy="15">AN005</tspan>
  </text>
  <polyline points="1249.97,861.423 1299.97,861.423 1299.47,911.423 1249.97,910.923 1249.97,861.423" fill="Col_BGSand" stroke="black" stroke-width="3" transform="rotate(44.0618 1325.51 325.508)"/> 
  <text x="818.474" y="661.757" fill="black" font-size="15" text-anchor="middle">00SAS44AT005</text>
  <line x1="865.621" y1="692.484" x2="934.621" y2="692.484" stroke="black"/> 
  <text x="801" y="770.5" fill="black" font-size="15" text-anchor="middle">00SAS44AA005</text>
  <line x1="907.746" y1="734.408" x2="970.621" y2="733.984" stroke="black" stroke-width="1"/> 
  <line x1="909.632" y1="650.984" x2="970.632" y2="650.484" stroke="black" stroke-width="1"/> 
  <line x1="970.413" y1="650.408" x2="970.413" y2="734.074" stroke="black" stroke-width="1"/> 
  <line x1="908.621" y1="643.484" x2="908.621" y2="657.484" stroke="black" stroke-width="1"/> 
  <line x1="907.621" y1="725.984" x2="907.621" y2="740.484" stroke="black" stroke-width="1"/> 
  <image x="997.262" y="769.59" width="175" height="25" xlink:href="DS_ana_tenzor.svg">
    <title>00SAS44CT007</title>
    <rt:dyn type="FKKS" mode="constant" value="&quot;00SAS44CT007&quot;"/> 
    <rt:dyn type="X" mode="constant" value="&quot;T&quot;"/> 
    <rt:dyn type="ShowFrame" mode="constant" value="true"/> 
    <rt:dyn type="ValueToTheRight" mode="constant" value="false"/> 
    <rt:dyn type="Color_Readings" mode="constant" value="true"/> 
  </image>
  <rect x="862.818" y="210.485" width="41.6667" height="16.6666" rx="0" ry="0"/> 
  <image x="815.081" y="595.666" width="175" height="25" xlink:href="DS_ana_tenzor.svg">
    <title>00SAS44CT005</title>
    <rt:dyn type="FKKS" mode="constant" value="&quot;00SAS44CT005&quot;"/> 
    <rt:dyn type="X" mode="constant" value="&quot;T&quot;"/> 
    <rt:dyn type="ShowFrame" mode="constant" value="true"/> 
    <rt:dyn type="ValueToTheRight" mode="constant" value="false"/> 
    <rt:dyn type="Color_Readings" mode="constant" value="true"/> 
  </image>
  <line x1="518.066" y1="393.925" x2="417.762" y2="393.622" stroke="black" stroke-width="3"/> 
  <polygon points="-34.2176,321.262 -24.2176,338.262 -44.2136,338.262" transform="flipX(399.833) rotate(90 93.3313 598.5)"/> 
  <line x1="518.43" y1="472.289" x2="365" y2="472" stroke="black" stroke-width="3"/> 
  <image x="456" y="366" width="130" height="130" xlink:href="ps_TempValve.svg">
    <title>00SAS44AH004</title>
  </image>
  <text x="604.262" y="393.758" fill="black" font-size="15" text-anchor="middle">00SAS44AH004</text>
  <image x="1032.93" y="427.549" width="70" height="65" xlink:href="DS_Reg_valve_tenzor.svg">
    <title>&quot;00SBS24AA204&quot;</title>
    <rt:dyn type="DATA_NARY" mode="constant" value="&quot;TYPE2&quot;"/> 
    <rt:dyn type="Operate" mode="constant" value="true"/> 
    <rt:dyn type="KKS" mode="constant" value="&quot;00SBS24AA204&quot;"/> 
  </image>
  <image x="1035.6" y="398.049" width="65" height="25" xlink:href="DS_Reg_degree.svg">
    <title>&quot;00SBS24AA204&quot;</title>
    <rt:dyn type="KKS" mode="constant" value="&quot;00SBS24AA204&quot;"/> 
    <rt:dyn type="SIGNAL" mode="constant" value="&quot;XQ54&quot;"/> 
  </image>
  <image x="835" y="369" width="130" height="130" xlink:href="ps_TempValve.svg">
    <title>00SAS44AH005</title>
  </image>
  <text x="813.171" y="395.091" fill="black" font-size="15" text-anchor="middle">00SAS44AH005</text>
  <polygon points="-34.5516,-295.766 -24.5516,-278.766 -44.5476,-278.766" transform="rotate(90 93.3313 598.5)"/> 
  <image x="328.432" y="399.383" width="65" height="25" xlink:href="DS_Reg_degree.svg">
    <title>&quot;00SBS24AA203&quot;</title>
    <rt:dyn type="KKS" mode="constant" value="&quot;00SBS24AA203&quot;"/> 
    <rt:dyn type="SIGNAL" mode="constant" value="&quot;XQ54&quot;"/> 
  </image>
  <line x1="419" y1="308" x2="418.762" y2="394.258" stroke="black" stroke-width="3"/> 
  <line x1="416.637" y1="309.742" x2="116.333" y2="308.939" stroke="black" stroke-width="3"/> 
  <line x1="116.333" y1="306.939" x2="120" y2="861" stroke="black" stroke-width="3"/> 
  <line x1="219" y1="845" x2="218.762" y2="470.258" stroke="black" stroke-width="3"/> 
  <polygon points="-111.916,-65.5968 -101.916,-48.5968 -121.912,-48.5968" transform="flipX(244.5) flipX(399.833) rotate(90 93.3313 598.5)"/> 
  <image x="147.762" y="518.258" width="175" height="25" xlink:href="DS_ana_tenzor.svg">
    <title>00SBS24CT003</title>
    <rt:dyn type="FKKS" mode="constant" value="&quot;00SBS24CT003&quot;"/> 
    <rt:dyn type="X" mode="constant" value="&quot;T&quot;"/> 
    <rt:dyn type="ShowFrame" mode="constant" value="true"/> 
    <rt:dyn type="ValueToTheRight" mode="constant" value="false"/> 
    <rt:dyn type="Color_Readings" mode="constant" value="true"/> 
  </image>
  <line x1="500" y1="75.7576" x2="800" y2="75" stroke="black" stroke-width="3"/> 
  <line x1="800" y1="150" x2="800" y2="75" stroke="black" stroke-width="3"/> 
  <line x1="977" y1="150" x2="799" y2="150" stroke="black" stroke-width="3"/> 
  <polygon points="1200,171 1210,188 1190,188"/> 
  <line x1="1075" y1="199" x2="1075" y2="181" stroke="black" stroke-width="3"/> 
  <line x1="1200" y1="199" x2="1200" y2="181" stroke="black" stroke-width="3"/> 
  <line x1="1297.26" y1="357.591" x2="996.603" y2="357.758" stroke="black" stroke-width="3"/> 
  <image x="1090" y="594" width="175" height="25" xlink:href="DS_ana_tenzor.svg">
    <title>00SBS24CT004</title>
    <rt:dyn type="FKKS" mode="constant" value="&quot;00SBS24CT004&quot;"/> 
    <rt:dyn type="X" mode="constant" value="&quot;T&quot;"/> 
    <rt:dyn type="ShowFrame" mode="constant" value="true"/> 
    <rt:dyn type="ValueToTheRight" mode="constant" value="false"/> 
    <rt:dyn type="Color_Readings" mode="constant" value="true"/> 
  </image>
  <line x1="1297" y1="858" x2="1295.12" y2="357.591" stroke="black" stroke-width="3"/> 
  <path d="M220.665 873.569 A14.0196 15.3334 0 1 0 220.441 842.944 " fill="none" stroke="black" stroke-width="2"/> 
  <line x1="219" y1="927" x2="219.394" y2="872.91" stroke="black" stroke-width="3"/> 
  <line x1="1183.26" y1="732.59" x2="1070.26" y2="732.59" stroke="black" stroke-width="3"/> 
  <path d="M1175.63 705.581 A14.0196 15.3334 0 1 0 1175.41 674.956 " fill="none" stroke="black" stroke-width="2" transform="rotate(270 1207.9 699.997)"/> 
  <path d="M1175.63 804.581 A14.0196 15.3334 0 1 0 1175.41 773.956 " fill="none" stroke="black" stroke-width="2" transform="rotate(270 1207.9 699.997)"/> 
  <line x1="1283.26" y1="732.59" x2="1212.26" y2="732.59" stroke="black" stroke-width="3"/> 
  <line x1="1382.26" y1="732.59" x2="1311.26" y2="732.59" stroke="black" stroke-width="3"/> 
  <line x1="1476.82" y1="855.228" x2="120.004" y2="859.016" stroke="black" stroke-width="3"/> 
  <path d="M1197.66 871.569 A13.9266 15.3334 0 1 0 1197.44 840.944 " fill="none" stroke="black" stroke-width="2"/> 
  <line x1="1196" y1="929" x2="1196.39" y2="869.91" stroke="black" stroke-width="3"/> 
  <line x1="1477.32" y1="930.228" x2="218" y2="927" stroke="black" stroke-width="3"/> 
  <polygon points="424.827,-753.169 434.827,-736.169 414.831,-736.169" transform="rotate(90 93.3313 598.5)"/> 
  <polygon points="350.741,1312.56 360.741,1329.56 336.741,1328.56" transform="flipX(399.833) rotate(90 93.3313 598.5)"/> 
  <line x1="1472.32" y1="834.228" x2="1482.58" y2="847.157" stroke="black"/> 
  <line x1="1471.08" y1="864.157" x2="1479.82" y2="875.228" stroke="black"/> 
  <line x1="1481.82" y1="847.228" x2="1471.32" y2="865.228" stroke="black"/> 
  <line x1="1471" y1="910.387" x2="1481.26" y2="923.316" stroke="black"/> 
  <line x1="1469.76" y1="940.32" x2="1478.5" y2="951.39" stroke="black"/> 
  <line x1="1480.5" y1="923.387" x2="1470" y2="941.39" stroke="black"/> 
  <polygon points="226.827,1275.17 236.77,1291.75 216.831,1292.17" transform="flipX(399.833) rotate(90 93.3313 598.5)"/> 
  <line x1="1383.26" y1="721.257" x2="1383" y2="744" stroke="black" stroke-width="3"/> 
  <rect x="1025" y="75" width="250" height="99" rx="0" ry="0" fill="none" stroke="black"/> 
  <text x="1087.42" y="96.6667" font-size="20">00SAS25/27</text>
  <text x="1110.75" y="166.333" font-size="20">Íîðìà</text>
  <line x1="975" y1="150" x2="975" y2="200" stroke="black" stroke-width="3"/> 
  <line x1="1201.52" y1="198.485" x2="974" y2="200" stroke="black" stroke-width="3"/> 
  <line x1="1150" y1="101" x2="1150" y2="151" stroke="black" stroke-width="1"/> 
  <text x="1084" y="125" font-size="15" text-anchor="middle">Ïîìåùåíèÿ<tspan x="1084" dy="15">UTF10R***</tspan>
  </text>
  <text x="1206" y="125" font-size="15" text-anchor="middle">Ïîìåùåíèÿ<tspan x="1206" dy="15">UTF13R***</tspan>
  </text>
  <text x="1359.62" y="830" fill="black" font-size="15" text-anchor="middle">00SBS23</text>
  <text x="1368.62" y="907.5" fill="black" font-size="15" text-anchor="middle">00SBS24</text>
  <image x="867" y="762" width="70" height="45" xlink:href="DS_pivot_valve_tenzor.svg">
    <title>00SAS44AA005</title>
    <rt:dyn type="KKS" mode="constant" value="&quot;00SAS44AA005&quot;"/> 
    <rt:dyn type="DATA_NARY" mode="constant" value="&quot;TYPE2&quot;"/> 
    <rt:dyn type="Operate" mode="constant" value="true"/> 
  </image>
  <image x="942" y="678" width="175" height="25" xlink:href="DS_ana_tenzor.svg">
    <title>00SAS44CP005</title>
    <rt:dyn type="FKKS" mode="constant" value="&quot;00SAS44CP005&quot;"/> 
    <rt:dyn type="X" mode="constant" value="&quot;dP&quot;"/> 
    <rt:dyn type="ShowFrame" mode="constant" value="true"/> 
    <rt:dyn type="ValueToTheRight" mode="constant" value="false"/> 
    <rt:dyn type="Color_Readings" mode="constant" value="true"/> 
  </image>
  <rect x="565.333" y="331.333" width="0" height="0" rx="0" ry="0"/> 
  <rect x="640.667" y="329.333" width="0" height="0" rx="0" ry="0"/> 
  <image x="617.576" y="220.303" width="181.818" height="24.2424" xlink:href="bitwise_tablo_4bits.svg">
    <title>00SAS44AN004005</title>
    <rt:dyn type="PointID_1" mode="constant" value="&quot;00SAS44AN004005_Z0 0&quot;"/> 
    <rt:dyn type="Text_0001" mode="constant" value="&quot;ÀÂÐ ÍÅ ÃÎÒÎÂ&quot;"/> 
    <rt:dyn type="Text_0000" mode="constant" value="&quot;ÀÂÐ ÄÈÑÒ&quot;"/> 
    <rt:dyn type="Color_0010" mode="constant" value="&quot;Col_Yellow&quot;"/> 
    <rt:dyn type="Color_0001" mode="constant" value="&quot;Col_Green&quot;"/> 
    <rt:dyn type="Text_0010" mode="constant" value="&quot;ÀÂÐ ÃÎÒÎÂ&quot;"/> 
    <rt:dyn type="PointID_2" mode="constant" value="&quot;00SAS44AN004005_Z0 1&quot;"/> 
    <rt:dyn type="PointID_3" mode="constant" value="&quot;00SAS44AN004005_Z0 2&quot;"/> 
    <rt:dyn type="PointID_4" mode="constant" value="&quot;00SAS44AN004005_Z0 3&quot;"/> 
    <rt:dyn type="Text_0100" mode="constant" value="&quot;ÀÂÐ ÑÐÀÁÎÒÀË&quot;"/> 
    <rt:dyn type="Color_0100" mode="constant" value="&quot;Col_Red&quot;"/> 
    <rt:dyn type="Color_0000" mode="constant" value="&quot;Col_Grey3&quot;"/> 
  </image>
  <text x="25" y="25" fill="black" font-size="15">00UTF 00CXV28 00SAS44AN004 / 00SAS44AN005</text>
  <image x="1590.56" y="146.318" width="181.818" height="24.2424" xlink:href="bitwise_tablo_4bits.svg">
    <title>00SAS44AN004</title>
    <rt:dyn type="PointID_1" mode="constant" value="&quot;00SAS44AN004_XK92&quot;"/> 
    <rt:dyn type="Text_0000" mode="constant" value="&quot;ÀÂÒÎÌÀÒÈ×ÅÑÊÈÉ&quot;"/> 
    <rt:dyn type="Color_0001" mode="constant" value="&quot;Col_Green&quot;"/> 
    <rt:dyn type="Text_0001" mode="constant" value="&quot;ÄÈÑÒÀÍÖÈÎÍÍÛÉ&quot;"/> 
    <rt:dyn type="Color_0000" mode="constant" value="&quot;Col_Green&quot;"/> 
  </image>
  <rect x="1576" y="101" width="275.758" height="81.8182" rx="0" ry="0" fill="none" stroke="black" stroke-width="2"/> 
  <image x="1778.88" y="143.439" width="60" height="30" xlink:href="ps_tenzor_system.svg">
    <title>00SAS44AN004</title>
    <rt:dyn type="KKS" mode="constant" value="&quot;00SAS44AN004&quot;"/> 
  </image>
  <text x="1709.94" y="121.879" fill="black" font-size="15" text-anchor="middle">Ðåæèì ðàáîòû 00SAS44AN004,<tspan x="1709.94" dy="15">00SAS44AN005</tspan>
  </text>
  <image x="308.485" y="211.212" width="160" height="30" xlink:href="ps_tenzor_m0.svg">
    <title>00SAS44AN004</title>
    <rt:dyn type="KKS" mode="constant" value="&quot;00SAS44AN004&quot;"/> 
  </image>
  <image x="919.091" y="209.697" width="160" height="30" xlink:href="ps_tenzor_m0.svg">
    <title>00SAS44AN005</title>
    <rt:dyn type="KKS" mode="constant" value="&quot;00SAS44AN005&quot;"/> 
  </image>
  <image x="310" y="365" width="100" height="30" xlink:href="DS_Reg_set.svg">
    <title>&quot;00SBS24AA203&quot;</title>
    <rt:dyn type="KKS" mode="constant" value="&quot;00SBS24AA203&quot;"/> 
    <rt:dyn type="DATA_NARY" mode="constant" value="&quot;TYPE2&quot;"/> 
    <rt:dyn type="Operate" mode="constant" value="true"/> 
    <rt:dyn type="ShowGoodColor" mode="constant" value="true"/> 
  </image>
  <text x="360" y="497.5" fill="black" font-size="15" text-anchor="middle">00SBS24<tspan x="360" dy="15">AA203</tspan>
  </text>
  <line x1="354.433" y1="472" x2="217" y2="472" stroke="black" stroke-width="3"/> 
  <image x="325.762" y="428.883" width="70" height="65" xlink:href="DS_Reg_valve_tenzor.svg">
    <title>&quot;00SBS24AA203&quot;</title>
    <rt:dyn type="DATA_NARY" mode="constant" value="&quot;TYPE2&quot;"/> 
    <rt:dyn type="Operate" mode="constant" value="true"/> 
    <rt:dyn type="KKS" mode="constant" value="&quot;00SBS24AA203&quot;"/> 
  </image>
  <text x="1068" y="497.5" fill="black" font-size="15" text-anchor="middle">00SBS24<tspan x="1068" dy="15">AA204</tspan>
  </text>
  <image x="1016" y="364" width="100" height="30" xlink:href="DS_Reg_set.svg">
    <title>&quot;00SBS24AA204&quot;</title>
    <rt:dyn type="KKS" mode="constant" value="&quot;00SBS24AA204&quot;"/> 
    <rt:dyn type="DATA_NARY" mode="constant" value="&quot;TYPE2&quot;"/> 
    <rt:dyn type="Operate" mode="constant" value="true"/> 
    <rt:dyn type="ShowGoodColor" mode="constant" value="true"/> 
  </image>
</svg>
