<?xml  version="1.0" encoding="UTF-8"?>
<svg color="Col_BGSand" xmlns="http://www.w3.org/2000/svg" xmlns:rt="http://www.rts.co.at/2001/XMLSchema/RtSvgPL" xmlns:xlink="http://www.w3.org/1999/xlink" xmlns:xsi="http://www.w3.org/2001/XMLSchema-instance" xsi:schemaLocation="http://www.w3.org/2000/svg C:\RTS\RtSvg\XML\SVG.xsd" viewBox="0 0 1920 1080" width="1920" height="1080" id="00saf41" fill="Col_Grey3">
  <rt:model modelversion="7.2.0.23" comment="Создано VNIIAES-ASUTP\voroninrs 10.12.2012 14:48:20"/> 
  <line x1="1137.17" y1="788.333" x2="1137.17" y2="879.667" stroke="black"/> 
  <line x1="298" y1="433" x2="298" y2="433" stroke="black"/> 
  <line x1="344" y1="425" x2="342" y2="0"/> 
  <g transform="rotate(180 1212.44 532.643)">
    <polygon points="622.46,-230.658 647.46,-230.658 635.46,-255.658 635.46,-255.658" fill="black" stroke="black" stroke-width="1" transform="rotate(180 1279.17 367.814)"/> 
  </g>
  <line x1="592.727" y1="690.909" x2="592.727" y2="690.909" stroke="black"/> 
  <line x1="749.091" y1="939.091" x2="749.091" y2="939.091" stroke="black"/> 
  <line x1="638.182" y1="881.818" x2="638.182" y2="881.818" stroke="black"/> 
  <line x1="214.545" y1="692.727" x2="214.545" y2="692.727" stroke="black"/> 
  <line x1="259.091" y1="771.818" x2="259.091" y2="771.818" stroke="black"/> 
  <line x1="195.455" y1="720" x2="195.455" y2="720" stroke="black"/> 
  <line x1="186.364" y1="713.636" x2="186.364" y2="713.636" stroke="black"/> 
  <line x1="191.818" y1="715.455" x2="191.818" y2="715.455" stroke="black"/> 
  <line x1="985.455" y1="149.091" x2="985.455" y2="149.091" stroke="black"/> 
  <line x1="1150" y1="365" x2="1150" y2="365" stroke="black"/> 
  <line x1="1274" y1="337" x2="1274" y2="337" stroke="black"/> 
  <line x1="1029" y1="375" x2="1029" y2="375" stroke="black"/> 
  <line x1="1215.33" y1="421.333" x2="1215.33" y2="421.333" stroke="black"/> 
  <line x1="1007" y1="314.75" x2="1007" y2="314.75" stroke="black"/> 
  <line x1="1027.27" y1="820" x2="1027.27" y2="820" stroke="black"/> 
  <line x1="675" y1="65" x2="675" y2="65" stroke="black"/> 
  <line x1="1468" y1="294" x2="1468" y2="294" stroke="black"/> 
  <line x1="1066.67" y1="766" x2="1066.67" y2="766" stroke="black"/> 
  <image x="163" y="1000" width="175" height="25" xlink:href="DS_ana_tenzor.svg">
    <title>00SAF41CT001</title>
    <rt:dyn type="ShowFrame" mode="constant" value="true"/> 
    <rt:dyn type="X" mode="constant" value="&quot;T&quot;"/> 
    <rt:dyn type="FKKS" mode="constant" value="&quot;00SAF41CT001&quot;"/> 
    <rt:dyn type="ValueToTheRight" mode="constant" value="false"/> 
    <rt:dyn type="Color_Readings" mode="constant" value="true"/> 
  </image>
  <polygon points="798.46,-544.658 811.84,-537.014 811.84,-552.301 798.46,-544.658" fill="black" stroke="black" stroke-width="1" transform="rotate(180 1279.17 367.814)"/> 
  <line x1="1053" y1="1000" x2="700" y2="1000" stroke="black" stroke-width="3"/> 
  <line x1="684.004" y1="199" x2="1038" y2="198" stroke="black" stroke-width="3"/> 
  <line x1="875" y1="175" x2="875" y2="200" stroke="black" stroke-width="3"/> 
  <line x1="501" y1="175" x2="1425" y2="175" stroke="black" stroke-width="3"/> 
  <line x1="502" y1="99" x2="502" y2="174" stroke="black" stroke-width="3"/> 
  <g transform="rotate(180 1212.44 532.643)">
    <polygon points="846.46,-230.658 871.46,-230.658 859.46,-255.658 859.46,-255.658" fill="black" stroke="black" stroke-width="1" transform="rotate(180 1279.17 367.814)"/> 
  </g>
  <line x1="726" y1="99" x2="726" y2="174" stroke="black" stroke-width="3"/> 
  <g transform="rotate(180 1212.44 532.643)">
    <polygon points="1059.46,-229.658 1084.46,-229.658 1072.46,-254.658 1072.46,-254.658" fill="black" stroke="black" stroke-width="1" transform="rotate(180 1279.17 367.814)"/> 
  </g>
  <line x1="939" y1="100" x2="939" y2="175" stroke="black" stroke-width="3"/> 
  <g transform="rotate(180 1212.44 532.643)">
    <polygon points="1370.46,-230.658 1395.46,-230.658 1383.46,-255.658 1383.46,-255.658" fill="black" stroke="black" stroke-width="1" transform="rotate(180 1279.17 367.814)"/> 
  </g>
  <line x1="1250" y1="99" x2="1250" y2="174" stroke="black" stroke-width="3"/> 
  <g transform="rotate(180 1212.44 532.643)">
    <polygon points="1370.46,-230.658 1395.46,-230.658 1383.46,-255.658 1383.46,-255.658" fill="black" stroke="black" stroke-width="1" transform="rotate(180 1279.17 367.814)"/> 
  </g>
  <line x1="1250" y1="99" x2="1250" y2="174" stroke="black" stroke-width="3"/> 
  <line x1="875.5" y1="999" x2="875.5" y2="1049" stroke="black" stroke-width="5"/> 
  <g transform="rotate(180 1212.44 532.643)">
    <polygon points="996.77,726.858 1021.77,726.858 1008.77,701.858 1009.77,701.858" fill="black" stroke="black" stroke-width="1" transform="rotate(180 1279.17 367.814)"/> 
  </g>
  <text x="452" y="55.501" fill="black" font-size="15">00UFC10R005</text>
  <line x1="433" y1="24.5" x2="582.501" y2="25.5" stroke="black"/> 
  <line x1="582.501" y1="24.5" x2="583" y2="74.501" stroke="black"/> 
  <line x1="433.5" y1="73.501" x2="583" y2="74.501" stroke="black"/> 
  <line x1="432.5" y1="24.5" x2="433" y2="74.501" stroke="black"/> 
  <text x="671" y="50.501" fill="black" font-size="15">00UFC13001</text>
  <line x1="652" y1="19.5" x2="801.501" y2="20.5" stroke="black"/> 
  <line x1="801.501" y1="19.5" x2="802" y2="69.501" stroke="black"/> 
  <line x1="652.5" y1="68.501" x2="802" y2="69.501" stroke="black"/> 
  <line x1="651.5" y1="19.5" x2="652" y2="69.501" stroke="black"/> 
  <text x="551" y="111.501" fill="black" font-size="15">00UFC10R009</text>
  <line x1="532" y1="80.5" x2="681.501" y2="81.5" stroke="black"/> 
  <line x1="681.501" y1="80.5" x2="682" y2="130.501" stroke="black"/> 
  <line x1="532.5" y1="129.501" x2="682" y2="130.501" stroke="black"/> 
  <line x1="531.5" y1="80.5" x2="532" y2="130.501" stroke="black"/> 
  <text x="759" y="110.501" fill="black" font-size="15">00UFC13R401</text>
  <line x1="740" y1="79.5" x2="889.501" y2="80.5" stroke="black"/> 
  <line x1="889.501" y1="79.5" x2="890" y2="129.501" stroke="black"/> 
  <line x1="740.5" y1="128.501" x2="890" y2="129.501" stroke="black"/> 
  <line x1="739.5" y1="79.5" x2="740" y2="129.501" stroke="black"/> 
  <text x="875" y="49.501" fill="black" font-size="15">00UFC17R005</text>
  <line x1="856" y1="18.5" x2="1005.5" y2="19.5" stroke="black"/> 
  <line x1="1005.5" y1="18.5" x2="1006" y2="68.501" stroke="black"/> 
  <line x1="856.5" y1="67.501" x2="1006" y2="68.501" stroke="black"/> 
  <line x1="855.5" y1="18.5" x2="856" y2="68.501" stroke="black"/> 
  <text x="1196" y="54.501" fill="black" font-size="15">00UFC23R005</text>
  <line x1="1177" y1="23.5" x2="1326.5" y2="24.5" stroke="black"/> 
  <line x1="1326.5" y1="23.5" x2="1327" y2="73.501" stroke="black"/> 
  <line x1="1177.5" y1="72.501" x2="1327" y2="73.501" stroke="black"/> 
  <line x1="1176.5" y1="23.5" x2="1177" y2="73.501" stroke="black"/> 
  <g transform="rotate(180 1212.44 532.643)">
    <polygon points="1544.46,-230.658 1569.46,-230.658 1557.46,-255.658 1557.46,-255.658" fill="black" stroke="black" stroke-width="1" transform="rotate(180 1279.17 367.814)"/> 
  </g>
  <line x1="1424" y1="99" x2="1424" y2="174" stroke="black" stroke-width="3"/> 
  <g transform="rotate(180 1212.44 532.643)">
    <polygon points="1544.46,-230.658 1569.46,-230.658 1557.46,-255.658 1557.46,-255.658" fill="black" stroke="black" stroke-width="1" transform="rotate(180 1279.17 367.814)"/> 
  </g>
  <line x1="1424" y1="99" x2="1424" y2="174" stroke="black" stroke-width="3"/> 
  <text x="1372" y="55.501" fill="black" font-size="15">00UFC10R301</text>
  <line x1="1353" y1="24.5" x2="1502.5" y2="25.5" stroke="black"/> 
  <line x1="1502.5" y1="24.5" x2="1503" y2="74.501" stroke="black"/> 
  <line x1="1353.5" y1="73.501" x2="1503" y2="74.501" stroke="black"/> 
  <line x1="1352.5" y1="24.5" x2="1353" y2="74.501" stroke="black"/> 
  <text x="536.364" y="287.727" fill="black" font-size="15">00SAF41AN001</text>
  <text x="501.773" y="355.455" fill="black" font-size="15">00QKF01AA005</text>
  <text x="1055" y="287.727" fill="black" font-size="15">00SAF41AN002</text>
  <text x="719" y="809" fill="black" font-size="15">00SAF41AT001</text>
  <text x="921" y="809" fill="black" font-size="15">00SAF41AT002</text>
  <text x="716" y="762" fill="black" font-size="15">00SAF01AH001</text>
  <text x="926" y="762" fill="black" font-size="15">00SAF41AH002</text>
  <text x="817" y="983" fill="black" font-size="15">00UFC13R001</text>
  <text x="716.455" y="440.606" fill="black" font-size="15">00SAF41AC001</text>
  <text x="922" y="440.606" fill="black" font-size="15">00SAF41AC002</text>
  <g transform="rotate(180 1212.44 532.643)">
    <polygon points="1212.46,-179.658 1237.46,-179.658 1225.46,-204.658 1225.46,-204.658" fill="black" stroke="black" stroke-width="1" transform="rotate(180 1279.17 367.814)"/> 
  </g>
  <line x1="1092" y1="150" x2="1092" y2="175" stroke="black" stroke-width="3"/> 
  <g transform="rotate(180 1212.44 532.643)">
    <polygon points="936.46,-174.658 961.46,-174.658 949.46,-199.658 949.46,-199.658" fill="black" stroke="black" stroke-width="1" transform="rotate(180 1279.17 367.814)"/> 
  </g>
  <line x1="816" y1="155" x2="816" y2="174" stroke="black" stroke-width="3"/> 
  <text x="1066" y="41.5" fill="black" font-size="15">00SAF41<tspan x="1066" dy="15">CT006</tspan>
  </text>
  <text x="525.758" y="831.818" fill="black" font-size="15">Перепад<tspan x="525.758" dy="15">давления</tspan>
  </text>
  <text x="1012.5" y="1026.63" fill="black" font-size="15">00SAF41AA002</text>
  <line x1="699.333" y1="788" x2="612.667" y2="788" stroke="black"/> 
  <line x1="701.333" y1="878.668" x2="612" y2="878.834" stroke="black"/> 
  <line x1="612" y1="787.333" x2="612" y2="878.667" stroke="black"/> 
  <line x1="1136.67" y1="788" x2="1050" y2="788" stroke="black"/> 
  <line x1="1138" y1="878.834" x2="1051.33" y2="878.834" stroke="black"/> 
  <text x="203.625" y="964" fill="black" font-size="15">Температура</text>
  <text x="164" y="978" fill="black" font-size="15">наружного воздуха</text>
  <line x1="700" y1="350" x2="699.5" y2="1001.5" stroke="black" stroke-width="3"/> 
  <g transform="rotate(120 1212.44 532.643)">
    <polygon points="953.663,-220.11 967.043,-212.466 967.043,-227.753 953.663,-220.11" fill="black" stroke="black" stroke-width="1" transform="rotate(180 1279.17 367.814)"/> 
  </g>
  <line x1="150.911" y1="652.516" x2="674.911" y2="653.016" stroke="black" stroke-width="3"/> 
  <g transform="rotate(180 1212.44 532.643)">
    <polygon points="784.371,447.858 797.751,455.502 797.751,440.215 784.371,447.858" fill="black" stroke="black" stroke-width="1" transform="rotate(180 1279.17 367.814)"/> 
  </g>
  <line x1="150.911" y1="777.516" x2="674.911" y2="778.016" stroke="black" stroke-width="3"/> 
  <image x="175" y="763" width="175" height="25" xlink:href="DS_ana_tenzor.svg">
    <title>00SBS04CT003</title>
    <rt:dyn type="ShowFrame" mode="constant" value="true"/> 
    <rt:dyn type="X" mode="constant" value="&quot;T&quot;"/> 
    <rt:dyn type="FKKS" mode="constant" value="&quot;00SBS04CT003&quot;"/> 
    <rt:dyn type="ValueToTheRight" mode="constant" value="false"/> 
    <rt:dyn type="Color_Readings" mode="constant" value="true"/> 
  </image>
  <text x="502.53" y="601.742" fill="black" font-size="15">00SBS03AA003</text>
  <text x="638.75" y="1026.63" fill="black" font-size="15">00SAF41AA001</text>
  <image x="667" y="947.75" width="70" height="45" xlink:href="DS_pivot_valve_tenzor.svg">
    <title>00SAF41AA001</title>
    <rt:dyn type="KKS" mode="constant" value="&quot;00SAF41AA001&quot;"/> 
    <rt:dyn type="Operate" mode="constant" value="true"/> 
    <rt:dyn type="DATA_NARY" mode="constant" value="&quot;TYPE2&quot;"/> 
  </image>
  <line x1="674.5" y1="652" x2="674.5" y2="779" stroke="black" stroke-width="3"/> 
  <g transform="rotate(120 1212.44 532.643)">
    <polygon points="1170.18,-345.107 1183.56,-337.463 1183.56,-352.75 1170.18,-345.107" fill="black" stroke="black" stroke-width="1" transform="rotate(180 1279.17 367.814)"/> 
  </g>
  <line x1="348.913" y1="402.516" x2="674.915" y2="403.016" stroke="black" stroke-width="3"/> 
  <g transform="rotate(180 1212.44 532.643)">
    <polygon points="784.375,197.857 797.755,205.502 797.755,190.214 784.375,197.857" fill="black" stroke="black" stroke-width="1" transform="rotate(180 1279.17 367.814)"/> 
  </g>
  <line x1="348.913" y1="527.516" x2="674.915" y2="528.016" stroke="black" stroke-width="3"/> 
  <line x1="675" y1="402" x2="674.5" y2="529" stroke="black" stroke-width="3"/> 
  <text x="1145.79" y="358" fill="black" font-size="15">00QKF01AA006</text>
  <line x1="685" y1="200" x2="685" y2="308" stroke="black" stroke-width="3"/> 
  <image x="615" y="225" width="175" height="25" xlink:href="DS_ana_tenzor.svg">
    <title>00SAF41CT002</title>
    <rt:dyn type="ShowFrame" mode="constant" value="true"/> 
    <rt:dyn type="X" mode="constant" value="&quot;T&quot;"/> 
    <rt:dyn type="FKKS" mode="constant" value="&quot;00SAF41CT002&quot;"/> 
    <rt:dyn type="ValueToTheRight" mode="constant" value="false"/> 
    <rt:dyn type="Color_Readings" mode="constant" value="true"/> 
  </image>
  <image x="665.911" y="292.516" width="70" height="70" xlink:href="DS_motor_tenzor.svg" transform="rotate(270 0.00012207 0)">
    <title>00SAF41AN001</title>
    <rt:dyn type="DeviceType" mode="constant" value="&quot;fan&quot;"/> 
    <rt:dyn type="Operate" mode="constant" value="true"/> 
    <rt:dyn type="KKS" mode="constant" value="&quot;00SAF41AN001&quot;"/> 
    <rt:dyn type="DATA_NARY" mode="constant" value="&quot;TYPE2&quot;"/> 
  </image>
  <text x="1150" y="833.182" fill="black" font-size="15">Перепад<tspan x="1150" dy="15">давления</tspan>
  </text>
  <image x="507.424" y="734.091" width="70" height="65" xlink:href="DS_Reg_valve_tenzor.svg">
    <title>00SBS04AA203</title>
    <rt:dyn type="KKS" mode="constant" value="&quot;00SBS04AA203&quot;"/> 
    <rt:dyn type="DATA_NARY" mode="constant" value="&quot;TYPE2&quot;"/> 
    <rt:dyn type="Operate" mode="constant" value="true"/> 
  </image>
  <image x="507.424" y="485" width="70" height="65" xlink:href="DS_Reg_valve_tenzor.svg">
    <title>&quot;00QKF11AA205&quot;</title>
    <rt:dyn type="KKS" mode="constant" value="&quot;00QKF11AA205&quot;"/> 
    <rt:dyn type="DATA_NARY" mode="constant" value="&quot;TYPE2&quot;"/> 
    <rt:dyn type="Operate" mode="constant" value="true"/> 
  </image>
  <image x="430.53" y="493.633" width="65" height="25" xlink:href="DS_TPTS_Reg_degree.svg">
    <title>&quot;00QKF11AA205&quot;</title>
    <rt:dyn type="KKS" mode="constant" value="&quot;00QKF11AA205&quot;"/> 
    <rt:dyn type="SIGNAL" mode="constant" value="&quot;XQ54&quot;"/> 
  </image>
  <text x="451.515" y="480.03" fill="black" font-size="15">00QKF11AA205</text>
  <image x="1221.47" y="493.633" width="65" height="25" xlink:href="DS_TPTS_Reg_degree.svg">
    <title>&quot;00QKF11AA206&quot;</title>
    <rt:dyn type="KKS" mode="constant" value="&quot;00QKF11AA206&quot;"/> 
    <rt:dyn type="SIGNAL" mode="constant" value="&quot;XQ54&quot;"/> 
  </image>
  <text x="1144.57" y="477.546" fill="black" font-size="15">00QKF11AA206</text>
  <image x="430.53" y="742.663" width="65" height="25" xlink:href="DS_TPTS_Reg_degree.svg">
    <title>&quot;00SBS04AA203&quot;</title>
    <rt:dyn type="KKS" mode="constant" value="&quot;00SBS04AA203&quot;"/> 
    <rt:dyn type="SIGNAL" mode="constant" value="&quot;XQ54&quot;"/> 
  </image>
  <image x="1221.47" y="742.663" width="65" height="25" xlink:href="DS_TPTS_Reg_degree.svg">
    <title>&quot;00SBS04AA204&quot;</title>
    <rt:dyn type="KKS" mode="constant" value="&quot;00SBS04AA204&quot;"/> 
    <rt:dyn type="SIGNAL" mode="constant" value="&quot;XQ54&quot;"/> 
  </image>
  <text x="1146.09" y="729.636" fill="black" font-size="15">00SBS04AA204</text>
  <text x="1146.55" y="601.742" fill="black" font-size="15">00SBS03AA004</text>
  <text x="451.515" y="728.091" fill="black" font-size="15">00SBS04AA203</text>
  <rect x="417.468" y="237.05" width="50" height="50" rx="0" ry="0" fill="Col_BGSand" stroke="black" transform="rotate(45 325 675)"/> 
  <line x1="665.07" y1="466.063" x2="735.07" y2="466.063" stroke="black"/> 
  <line x1="700.07" y1="431.061" x2="700.07" y2="501.063" stroke="black"/> 
  <polygon points="681.11,472.052 665.78,466.384 681.11,460.717" fill="black" stroke="black"/> 
  <polygon points="-33.0567,472.052 -48.3897,466.384 -33.0567,460.717" fill="black" stroke="black" transform="flipX(342.722)"/> 
  <rect x="592.831" y="413.826" width="50" height="50" rx="0" ry="0" fill="Col_BGSand" stroke="black" transform="rotate(45 325 675)"/> 
  <line x1="699.07" y1="680.061" x2="699.07" y2="750.063" stroke="black"/> 
  <image x="1025" y="31.5" width="25" height="25" xlink:href="bin_indicator.svg">
    <title>00SAF41CT006</title>
    <rt:dyn type="PointID" mode="constant" value="&quot;00SAF41CT006_XG01&quot;"/> 
  </image>
  <image x="1142" y="31.5" width="25" height="25" xlink:href="bin_indicator.svg">
    <title>00SAF41CT006</title>
    <rt:dyn type="PointID" mode="constant" value="&quot;00SAF41CT006_XG51&quot;"/> 
  </image>
  <image x="620.757" y="795.94" width="25" height="25" xlink:href="bin_indicator.svg">
    <title>00SAF41CP001</title>
    <rt:dyn type="PointID" mode="constant" value="&quot;00SAF41CP001_XG01&quot;"/> 
  </image>
  <image x="620.757" y="847.423" width="25" height="25" xlink:href="bin_indicator.svg">
    <title>00SAF41CP001</title>
    <rt:dyn type="PointID" mode="constant" value="&quot;00SAF41CP001_XG51&quot;"/> 
  </image>
  <image x="1104.82" y="795.94" width="25" height="25" xlink:href="bin_indicator.svg">
    <title>00SAF41CP002</title>
    <rt:dyn type="PointID" mode="constant" value="&quot;00SAF41CP002_XG01&quot;"/> 
  </image>
  <image x="1104.82" y="847.423" width="25" height="25" xlink:href="bin_indicator.svg">
    <title>00SAF41CP002</title>
    <rt:dyn type="PointID" mode="constant" value="&quot;00SAF41CP002_XG51&quot;"/> 
  </image>
  <image x="719.697" y="665.625" width="25" height="25" xlink:href="bin_indicator.svg">
    <title>00SAF41AH001T</title>
    <rt:dyn type="PointID" mode="constant" value="&quot;00SAF41AH001T_XG01&quot;"/> 
  </image>
  <image x="1005.15" y="665.625" width="25" height="25" xlink:href="bin_indicator.svg">
    <title>00SAF41AH002T</title>
    <rt:dyn type="PointID" mode="constant" value="&quot;00SAF41AH002T_XG01&quot;"/> 
  </image>
  <image x="719.697" y="868.879" width="25" height="25" xlink:href="bin_indicator.svg">
    <title>00SAF41AH001T</title>
    <rt:dyn type="PointID" mode="constant" value="&quot;00SAF41AA001T_XG51&quot;"/> 
  </image>
  <image x="1005.15" y="868.879" width="25" height="25" xlink:href="bin_indicator.svg">
    <title>00SAF41AH002T</title>
    <rt:dyn type="PointID" mode="constant" value="&quot;00SAF41AA002T_XG51&quot;"/> 
  </image>
  <image x="532.682" y="359.697" width="70" height="65" xlink:href="DS_CO_valve_tenzor.svg">
    <title>&quot;00QKF01AA005&quot;</title>
    <rt:dyn type="KKS" mode="constant" value="&quot;00QKF01AA005&quot;"/> 
    <rt:dyn type="DATA_NARY" mode="constant" value="&quot;TYPE2&quot;"/> 
    <rt:dyn type="Operate" mode="constant" value="true"/> 
  </image>
  <image x="523.155" y="610.212" width="70" height="65" xlink:href="DS_CO_valve_tenzor.svg">
    <title>&quot;00SBS03AA003&quot;</title>
    <rt:dyn type="KKS" mode="constant" value="&quot;00SBS03AA003&quot;"/> 
    <rt:dyn type="DATA_NARY" mode="constant" value="&quot;TYPE2&quot;"/> 
    <rt:dyn type="Operate" mode="constant" value="true"/> 
  </image>
  <image x="787.273" y="275.258" width="181.818" height="24.2424" xlink:href="bitwise_tablo_4bits.svg">
    <title>00SAF41AN001002</title>
    <rt:dyn type="PointID_1" mode="constant" value="&quot;00SAF41AN001002_Z0 0&quot;"/> 
    <rt:dyn type="Text_0001" mode="constant" value="&quot;АВР НЕ ГОТОВ&quot;"/> 
    <rt:dyn type="Text_0000" mode="constant" value="&quot;АВР ДИСТ&quot;"/> 
    <rt:dyn type="Color_0010" mode="constant" value="&quot;Col_Yellow&quot;"/> 
    <rt:dyn type="Color_0001" mode="constant" value="&quot;Col_Green&quot;"/> 
    <rt:dyn type="Text_0010" mode="constant" value="&quot;АВР ГОТОВ&quot;"/> 
    <rt:dyn type="PointID_2" mode="constant" value="&quot;00SAF41AN001002_Z0 1&quot;"/> 
    <rt:dyn type="PointID_3" mode="constant" value="&quot;00SAF41AN001002_Z0 2&quot;"/> 
    <rt:dyn type="PointID_4" mode="constant" value="&quot;00SAF41AN001002_Z0 3&quot;"/> 
    <rt:dyn type="Text_0100" mode="constant" value="&quot;АВР СРАБОТАЛ&quot;"/> 
    <rt:dyn type="Color_0100" mode="constant" value="&quot;Col_Red&quot;"/> 
    <rt:dyn type="Color_0000" mode="constant" value="&quot;Col_Grey3&quot;"/> 
  </image>
  <text x="1039" y="105.501" fill="black" font-size="15">00UFC23R001</text>
  <line x1="1020" y1="74.5" x2="1169.5" y2="75.5" stroke="black"/> 
  <line x1="1169.5" y1="74.5" x2="1170" y2="124.501" stroke="black"/> 
  <line x1="1020.5" y1="123.501" x2="1170" y2="124.501" stroke="black"/> 
  <line x1="1019.5" y1="74.5" x2="1020" y2="124.501" stroke="black"/> 
  <line x1="1077.42" y1="400.516" x2="1077.42" y2="525.516" stroke="black" stroke-width="3"/> 
  <line x1="1077" y1="652" x2="1077" y2="777" stroke="black" stroke-width="3"/> 
  <line x1="1051.07" y1="683.061" x2="1051.07" y2="753.063" stroke="black"/> 
  <line x1="1051.5" y1="348.5" x2="1051.5" y2="998.5" stroke="black" stroke-width="3"/> 
  <polygon points="1016.22,830.076 1051.97,795.076 1087.47,830.076 1051.84,864.701" fill="Col_BGSand" stroke="black"/> 
  <line x1="1016.4" y1="829.887" x2="1087.28" y2="829.887" stroke="black"/> 
  <image x="627" y="902.151" width="175" height="25" xlink:href="DS_ana_tenzor.svg">
    <title>00SAF41CT004</title>
    <rt:dyn type="ShowFrame" mode="constant" value="true"/> 
    <rt:dyn type="X" mode="constant" value="&quot;T&quot;"/> 
    <rt:dyn type="FKKS" mode="constant" value="&quot;00SAF41CT004&quot;"/> 
    <rt:dyn type="ValueToTheRight" mode="constant" value="false"/> 
    <rt:dyn type="Color_Readings" mode="constant" value="true"/> 
  </image>
  <line x1="1076" y1="651.5" x2="1600" y2="652" stroke="black" stroke-width="3"/> 
  <rect x="843.854" y="167.046" width="50" height="50" rx="0" ry="0" fill="Col_BGSand" stroke="black" transform="rotate(45 325 675)"/> 
  <line x1="1016.07" y1="718.063" x2="1086.07" y2="718.063" stroke="black"/> 
  <line x1="1076" y1="776.5" x2="1600" y2="777" stroke="black" stroke-width="3"/> 
  <polygon points="1067.11,724.052 1051.78,718.384 1067.11,712.717" fill="black" stroke="black"/> 
  <polygon points="-350.057,724.052 -365.39,718.384 -350.057,712.717" fill="black" stroke="black" transform="flipX(342.722)"/> 
  <line x1="1051" y1="683" x2="1051" y2="753.002" stroke="black"/> 
  <rect x="665.664" y="-11.1449" width="50" height="50" rx="0" ry="0" fill="Col_BGSand" stroke="black" transform="rotate(45 325 675)"/> 
  <line x1="1016.07" y1="466.063" x2="1086.07" y2="466.063" stroke="black"/> 
  <line x1="1051.07" y1="431.061" x2="1051.07" y2="501.063" stroke="black"/> 
  <polygon points="1032.11,472.052 1016.78,466.384 1032.11,460.717" fill="black" stroke="black"/> 
  <polygon points="-384.057,472.052 -399.39,466.384 -384.057,460.717" fill="black" stroke="black" transform="flipX(342.722)"/> 
  <polygon points="91.038,83.8725 104.418,91.5165 104.418,76.2295 91.038,83.8725" fill="black" stroke="black" stroke-width="1" transform="flipX(1780.03) rotate(180 1279.17 367.814)"/> 
  <g transform="rotate(120 1212.44 532.643)">
    <polygon points="1070.64,229.481 1084.02,237.125 1084.02,221.838 1070.64,229.481" fill="black" stroke="black" stroke-width="1" transform="rotate(180 1279.17 367.814)"/> 
  </g>
  <line x1="1077.75" y1="400.75" x2="1403.75" y2="401.25" stroke="black" stroke-width="3"/> 
  <line x1="1077.75" y1="525.75" x2="1403.75" y2="526.25" stroke="black" stroke-width="3"/> 
  <polygon points="91.0379,334.372 104.418,342.017 104.418,326.729 91.0379,334.372" fill="black" stroke="black" stroke-width="1" transform="flipX(1780.03) rotate(180 1279.17 367.814)"/> 
  <g transform="rotate(120 1212.44 532.643)">
    <polygon points="1289.98,106.887 1303.36,114.531 1303.36,99.2437 1289.98,106.887" fill="black" stroke="black" stroke-width="1" transform="rotate(180 1279.17 367.814)"/> 
  </g>
  <line x1="1036.25" y1="197" x2="1036.25" y2="311" stroke="black" stroke-width="3"/> 
  <image x="1015" y="293" width="70" height="70" xlink:href="DS_motor_tenzor.svg" transform="rotate(270 0.00012207 0)">
    <title>00SAF41AN002</title>
    <rt:dyn type="DeviceType" mode="constant" value="&quot;fan&quot;"/> 
    <rt:dyn type="Operate" mode="constant" value="true"/> 
    <rt:dyn type="KKS" mode="constant" value="&quot;00SAF41AN002&quot;"/> 
    <rt:dyn type="DATA_NARY" mode="constant" value="&quot;TYPE2&quot;"/> 
  </image>
  <image x="1171.29" y="360.182" width="70" height="65" xlink:href="DS_CO_valve_tenzor.svg">
    <title>&quot;00QKF01AA006&quot;</title>
    <rt:dyn type="KKS" mode="constant" value="&quot;00QKF01AA006&quot;"/> 
    <rt:dyn type="DATA_NARY" mode="constant" value="&quot;TYPE2&quot;"/> 
    <rt:dyn type="Operate" mode="constant" value="true"/> 
  </image>
  <image x="1144.42" y="484.5" width="70" height="65" xlink:href="DS_Reg_valve_tenzor.svg">
    <title>&quot;00QKF11AA206&quot;</title>
    <rt:dyn type="KKS" mode="constant" value="&quot;00QKF11AA206&quot;"/> 
    <rt:dyn type="DATA_NARY" mode="constant" value="&quot;TYPE2&quot;"/> 
    <rt:dyn type="Operate" mode="constant" value="true"/> 
  </image>
  <image x="1167.17" y="610.727" width="70" height="65" xlink:href="DS_CO_valve_tenzor.svg">
    <title>&quot;00SBS03AA004&quot;</title>
    <rt:dyn type="KKS" mode="constant" value="&quot;00SBS03AA004&quot;"/> 
    <rt:dyn type="DATA_NARY" mode="constant" value="&quot;TYPE2&quot;"/> 
    <rt:dyn type="Operate" mode="constant" value="true"/> 
  </image>
  <image x="1144.42" y="736.136" width="70" height="65" xlink:href="DS_Reg_valve_tenzor.svg">
    <title>&quot;00SBS04AA204&quot;</title>
    <rt:dyn type="KKS" mode="constant" value="&quot;00SBS04AA204&quot;"/> 
    <rt:dyn type="Operate" mode="constant" value="true"/> 
    <rt:dyn type="DATA_NARY" mode="constant" value="&quot;TYPE2&quot;"/> 
  </image>
  <image x="1375" y="762" width="175" height="25" xlink:href="DS_ana_tenzor.svg">
    <title>00SBS04CT004</title>
    <rt:dyn type="ShowFrame" mode="constant" value="true"/> 
    <rt:dyn type="X" mode="constant" value="&quot;T&quot;"/> 
    <rt:dyn type="FKKS" mode="constant" value="&quot;00SBS04CT004&quot;"/> 
    <rt:dyn type="ValueToTheRight" mode="constant" value="false"/> 
    <rt:dyn type="Color_Readings" mode="constant" value="true"/> 
  </image>
  <polygon points="663.716,832.701 699.466,797.701 734.966,832.701 699.336,867.326" fill="Col_BGSand" stroke="black"/> 
  <line x1="663.896" y1="832.512" x2="734.776" y2="832.512" stroke="black"/> 
  <line x1="664" y1="715.064" x2="734" y2="715.064" stroke="black"/> 
  <polygon points="715.04,721.053 699.71,715.385 715.04,709.718" fill="black" stroke="black"/> 
  <polygon points="2.01306,721.053 -13.3199,715.385 2.01306,709.718" fill="black" stroke="black" transform="flipX(342.722)"/> 
  <text x="756.75" y="675.625" fill="black" font-size="15">00SAF41<tspan x="756.75" dy="15">AH001T</tspan>
  </text>
  <text x="928.25" y="675.625" fill="black" font-size="15">00SAF41<tspan x="928.25" dy="15">AH002T</tspan>
  </text>
  <image x="976.939" y="902.151" width="175" height="25" xlink:href="DS_ana_tenzor.svg">
    <title>00SAF41CT005</title>
    <rt:dyn type="ShowFrame" mode="constant" value="true"/> 
    <rt:dyn type="X" mode="constant" value="&quot;T&quot;"/> 
    <rt:dyn type="FKKS" mode="constant" value="&quot;00SAF41CT005&quot;"/> 
    <rt:dyn type="ValueToTheRight" mode="constant" value="false"/> 
    <rt:dyn type="Color_Readings" mode="constant" value="true"/> 
  </image>
  <text x="757.25" y="879.125" fill="black" font-size="15">00SAF41<tspan x="757.25" dy="15">AH001T</tspan>
  </text>
  <text x="928.75" y="879.125" fill="black" font-size="15">00SAF41<tspan x="928.75" dy="15">AH002T</tspan>
  </text>
  <image x="1016.25" y="947.75" width="70" height="45" xlink:href="DS_pivot_valve_tenzor.svg">
    <title>00SAF41AA002</title>
    <rt:dyn type="KKS" mode="constant" value="&quot;00SAF41AA002&quot;"/> 
    <rt:dyn type="Operate" mode="constant" value="true"/> 
    <rt:dyn type="DATA_NARY" mode="constant" value="&quot;TYPE2&quot;"/> 
  </image>
  <image x="1093" y="936.5" width="70" height="70" xlink:href="DS_motor_rect_tenzor.svg">
    <title>00SAF41AA002E</title>
    <rt:dyn type="Operate" mode="constant" value="true"/> 
    <rt:dyn type="KKS" mode="constant" value="&quot;00SAF41AA002E&quot;"/> 
    <rt:dyn type="DATA_NARY" mode="constant" value="&quot;TYPE2&quot;"/> 
  </image>
  <image x="590.75" y="936.5" width="70" height="70" xlink:href="DS_motor_rect_tenzor.svg">
    <title>00SAF41AA001E</title>
    <rt:dyn type="Operate" mode="constant" value="true"/> 
    <rt:dyn type="KKS" mode="constant" value="&quot;00SAF41AA001E&quot;"/> 
    <rt:dyn type="DATA_NARY" mode="constant" value="&quot;TYPE2&quot;"/> 
  </image>
  <text x="449.5" y="975" fill="black" font-size="15">00SAF41AA001E</text>
  <text x="1197.5" y="975" fill="black" font-size="15">00SAF41AA002E</text>
  <image x="964.667" y="225.606" width="175" height="25" xlink:href="DS_ana_tenzor.svg">
    <title>00SAF41CT003</title>
    <rt:dyn type="ShowFrame" mode="constant" value="true"/> 
    <rt:dyn type="X" mode="constant" value="&quot;T&quot;"/> 
    <rt:dyn type="FKKS" mode="constant" value="&quot;00SAF41CT003&quot;"/> 
    <rt:dyn type="ValueToTheRight" mode="constant" value="false"/> 
    <rt:dyn type="Color_Readings" mode="constant" value="true"/> 
  </image>
  <g transform="rotate(180 1212.44 532.643)">
    <polygon points="729.034,-173.54 754.034,-173.54 742.034,-198.54 742.034,-198.54" fill="black" stroke="black" stroke-width="1" transform="rotate(180 1279.17 367.814)"/> 
  </g>
  <line x1="608.574" y1="156.118" x2="608.574" y2="175.118" stroke="black" stroke-width="3"/> 
  <text x="25" y="25" fill="black" font-size="15">00UFC 00CXV44 00SAF41</text>
  <image x="490" y="300" width="160" height="30" xlink:href="ps_tenzor_m0.svg">
    <title>00SAF41AN001</title>
    <rt:dyn type="KKS" mode="constant" value="&quot;00SAF41AN001&quot;"/> 
  </image>
  <image x="1100" y="300" width="160" height="30" xlink:href="ps_tenzor_m0.svg">
    <title>00SAF41AN002</title>
    <rt:dyn type="KKS" mode="constant" value="&quot;00SAF41AN002&quot;"/> 
  </image>
  <text x="1620.58" y="297.227" fill="black" font-size="15">00SAF01AN002</text>
  <rect x="1465" y="221" width="285.364" height="85.3637" rx="0" ry="0" fill="Col_BGSand" stroke="black" stroke-width="2"/> 
  <text x="1605.67" y="239.697" fill="black" font-size="15" text-anchor="middle">Режим работы 00SAF41</text>
  <image x="1479.94" y="268.485" width="181.818" height="24.2424" xlink:href="bitwise_tablo_4bits.svg">
    <title>00SAF41YY000_XK92</title>
    <rt:dyn type="PointID_1" mode="constant" value="&quot;00SAF41YY000_XK92&quot;"/> 
    <rt:dyn type="Text_0000" mode="constant" value="&quot;АВТОМАТИЧЕСКИЙ&quot;"/> 
    <rt:dyn type="Color_0001" mode="constant" value="&quot;Col_Green&quot;"/> 
    <rt:dyn type="Text_0001" mode="constant" value="&quot;ДИСТАНЦИОННЫЙ&quot;"/> 
    <rt:dyn type="Color_0000" mode="constant" value="&quot;Col_Green&quot;"/> 
  </image>
  <image x="1678.67" y="262.909" width="60" height="30" xlink:href="ps_tenzor_system.svg">
    <title>00SAF41YY000</title>
    <rt:dyn type="KKS" mode="constant" value="&quot;00SAF41YY000&quot;"/> 
  </image>
  <image x="494.091" y="433.939" width="100" height="30" xlink:href="DS_Reg_set.svg">
    <title>&quot;00QKF11AA205&quot;</title>
    <rt:dyn type="KKS" mode="constant" value="&quot;00QKF11AA205&quot;"/> 
    <rt:dyn type="DATA_NARY" mode="constant" value="&quot;TYPE2&quot;"/> 
    <rt:dyn type="Operate" mode="constant" value="true"/> 
    <rt:dyn type="ShowGoodColor" mode="constant" value="true"/> 
  </image>
  <image x="495.606" y="683.939" width="100" height="30" xlink:href="DS_Reg_set.svg">
    <title>&quot;00SBS04AA203&quot;</title>
    <rt:dyn type="KKS" mode="constant" value="&quot;00SBS04AA203&quot;"/> 
    <rt:dyn type="DATA_NARY" mode="constant" value="&quot;TYPE2&quot;"/> 
    <rt:dyn type="Operate" mode="constant" value="true"/> 
    <rt:dyn type="ShowGoodColor" mode="constant" value="true"/> 
  </image>
  <image x="1128.94" y="432.424" width="100" height="30" xlink:href="DS_Reg_set.svg">
    <title>&quot;00QKF11AA206&quot;</title>
    <rt:dyn type="KKS" mode="constant" value="&quot;00QKF11AA206&quot;"/> 
    <rt:dyn type="DATA_NARY" mode="constant" value="&quot;TYPE2&quot;"/> 
    <rt:dyn type="Operate" mode="constant" value="true"/> 
    <rt:dyn type="ShowGoodColor" mode="constant" value="true"/> 
  </image>
  <image x="1133.09" y="682.424" width="100" height="30" xlink:href="DS_Reg_set.svg">
    <title>&quot;00SBS04AA204&quot;</title>
    <rt:dyn type="KKS" mode="constant" value="&quot;00SBS04AA204&quot;"/> 
    <rt:dyn type="DATA_NARY" mode="constant" value="&quot;TYPE2&quot;"/> 
    <rt:dyn type="Operate" mode="constant" value="true"/> 
    <rt:dyn type="ShowGoodColor" mode="constant" value="true"/> 
  </image>
</svg>
