<?xml  version="1.0" encoding="UTF-8"?>
<svg color="Col_BGSand" xmlns="http://www.w3.org/2000/svg" xmlns:rt="http://www.rts.co.at/2001/XMLSchema/RtSvgPL" xmlns:xlink="http://www.w3.org/1999/xlink" xmlns:xsi="http://www.w3.org/2001/XMLSchema-instance" xsi:schemaLocation="http://www.w3.org/2000/svg C:\RTS\RtSvg\XML\SVG.xsd" viewBox="0 0 1920 1080" width="1920" height="1080" id="00sab20_24-27_29">
  <rt:model modelversion="7.2.0.24" revision="1"/> 
  <text x="25" y="25" font-size="15">00UYB 00CXV11GH003 00SAB20/00SAB24/00SAB25/00SAB26/00SAB27/00SAB29</text>
  <line x1="390" y1="355.643" x2="390" y2="279" stroke="black" stroke-width="3"/> 
  <line x1="375" y1="263.5" x2="375.475" y2="200.288" stroke="black" stroke-width="3"/> 
  <image x="355.236" y="246" width="70" height="70" xlink:href="DS_motor_tenzor.svg" transform="rotate(270 0 0)">
    <title>00SAB20AN001</title>
    <rt:dyn type="KKS" mode="constant" value="&quot;00SAB20AN001&quot;"/> 
    <rt:dyn type="DATA_NARY" mode="constant" value="&quot;TYPE2&quot;"/> 
    <rt:dyn type="Operate" mode="constant" value="true"/> 
    <rt:dyn type="DeviceType" mode="constant" value="&quot;fan&quot;"/> 
  </image>
  <text x="463.666" y="278.5" fill="black" font-size="15" text-anchor="middle">00SAB20<tspan x="463.666" dy="15">AN001</tspan>
  </text>
  <line x1="374" y1="200" x2="625.5" y2="201" stroke="black" stroke-width="3"/> 
  <line x1="499.805" y1="199.287" x2="500" y2="150" stroke="black" stroke-width="3"/> 
  <polygon points="-337.729,402.111 -327.729,419.111 -347.729,419.111" transform="rotate(210 453.5 42.9997) rotate(90 31.3333 552.5) rotate(0 1.4013e-045 3.14533e-039) flipY(460.5)"/> 
  <line x1="625" y1="262" x2="624.625" y2="200.44" stroke="black" stroke-width="3"/> 
  <text x="713.186" y="278.5" fill="black" font-size="15" text-anchor="middle">00SAB20<tspan x="713.186" dy="15">AN002</tspan>
  </text>
  <text x="977.424" y="86.2122" fill="black" font-size="15" text-anchor="middle">Í à    ê ð î â ë þ</text>
  <line x1="639.061" y1="354.143" x2="389.561" y2="354.143" stroke="black" stroke-width="3"/> 
  <g>
    <g transform="flipX(699.732)">
      <line x1="702.464" y1="177.75" x2="815.964" y2="178" stroke="black" stroke-width="1"/> 
      <line x1="815.464" y1="178" x2="815.464" y2="192" stroke="black" stroke-width="1"/> 
    </g>
    <line x1="594" y1="192" x2="574" y2="192" stroke="black" stroke-width="1"/> 
  </g>
  <image x="641.5" y="163.25" width="175" height="25" xlink:href="DS_ana_tenzor.svg">
    <title>00SAB20CP002</title>
    <rt:dyn type="FKKS" mode="constant" value="&quot;00SAB20CP002&quot;"/> 
    <rt:dyn type="X" mode="constant" value="&quot;P&quot;"/> 
    <rt:dyn type="ShowFrame" mode="constant" value="true"/> 
    <rt:dyn type="ValueToTheRight" mode="constant" value="false"/> 
    <rt:dyn type="Color_Readings" mode="constant" value="true"/> 
  </image>
  <g transform="flipX(406.167)">
    <g transform="flipX(699.732)">
      <line x1="884.797" y1="177.833" x2="998.297" y2="178.083" stroke="black" stroke-width="1"/> 
      <line x1="997.797" y1="178.083" x2="997.797" y2="192.083" stroke="black" stroke-width="1"/> 
    </g>
    <line x1="411.667" y1="192.083" x2="391.667" y2="192.083" stroke="black" stroke-width="1"/> 
  </g>
  <image x="170.725" y="164.288" width="175" height="25" xlink:href="DS_ana_tenzor.svg">
    <title>00SAB20CP001</title>
    <rt:dyn type="FKKS" mode="constant" value="&quot;00SAB20CP001&quot;"/> 
    <rt:dyn type="X" mode="constant" value="&quot;P&quot;"/> 
    <rt:dyn type="ShowFrame" mode="constant" value="true"/> 
    <rt:dyn type="ValueToTheRight" mode="constant" value="false"/> 
    <rt:dyn type="Color_Readings" mode="constant" value="true"/> 
  </image>
  <line x1="849" y1="151" x2="499" y2="151" stroke="black" stroke-width="3"/> 
  <line x1="850.259" y1="153" x2="850.454" y2="103.713" stroke="black" stroke-width="3"/> 
  <polygon points="-758.286,559.908 -748.286,576.908 -768.286,576.908" transform="rotate(210 453.5 42.9997) rotate(90 31.3333 552.5) rotate(0 1.4013e-045 3.14533e-039) flipY(460.5)"/> 
  <line x1="503.561" y1="387.143" x2="503.561" y2="353.685" stroke="black" stroke-width="3"/> 
  <line x1="390" y1="633.5" x2="390" y2="557" stroke="black" stroke-width="3"/> 
  <line x1="375" y1="538.5" x2="375" y2="475.288" stroke="black" stroke-width="3"/> 
  <image x="354.675" y="518.857" width="70" height="70" xlink:href="DS_motor_tenzor.svg" transform="rotate(270 0 0)">
    <title>00SAB26AN001</title>
    <rt:dyn type="KKS" mode="constant" value="&quot;00SAB26AN001&quot;"/> 
    <rt:dyn type="DATA_NARY" mode="constant" value="&quot;TYPE2&quot;"/> 
    <rt:dyn type="Operate" mode="constant" value="true"/> 
    <rt:dyn type="DeviceType" mode="constant" value="&quot;fan&quot;"/> 
  </image>
  <text x="463.105" y="551.357" fill="black" font-size="15" text-anchor="middle">00SAB26<tspan x="463.105" dy="15">AN001</tspan>
  </text>
  <line x1="374" y1="475" x2="625.5" y2="476" stroke="black" stroke-width="3"/> 
  <line x1="499.805" y1="474.287" x2="500" y2="425" stroke="black" stroke-width="3"/> 
  <polygon points="-312.111,359.739 -302.111,376.739 -322.111,376.739" transform="rotate(210 453.5 42.9997) rotate(90 31.3333 552.5) rotate(0 1.4013e-045 3.14533e-039) flipY(460.5)"/> 
  <line x1="637.5" y1="633" x2="637.475" y2="587.288" stroke="black" stroke-width="3"/> 
  <line x1="625" y1="537" x2="625" y2="475.44" stroke="black" stroke-width="3"/> 
  <image x="603.835" y="518.857" width="70" height="70" xlink:href="DS_motor_tenzor.svg" transform="rotate(270 0 0)">
    <title>00SAB26AN002</title>
    <rt:dyn type="KKS" mode="constant" value="&quot;00SAB26AN002&quot;"/> 
    <rt:dyn type="DATA_NARY" mode="constant" value="&quot;TYPE2&quot;"/> 
    <rt:dyn type="Operate" mode="constant" value="true"/> 
    <rt:dyn type="DeviceType" mode="constant" value="&quot;fan&quot;"/> 
  </image>
  <text x="712.625" y="551.357" fill="black" font-size="15" text-anchor="middle">00SAB26<tspan x="712.625" dy="15">AN002</tspan>
  </text>
  <line x1="638.5" y1="632" x2="389" y2="632" stroke="black" stroke-width="3"/> 
  <g>
    <g transform="flipX(699.732)">
      <line x1="702.464" y1="452.75" x2="815.964" y2="453" stroke="black" stroke-width="1"/> 
      <line x1="815.464" y1="453" x2="815.464" y2="467" stroke="black" stroke-width="1"/> 
    </g>
    <line x1="594" y1="467" x2="574" y2="467" stroke="black" stroke-width="1"/> 
  </g>
  <image x="641.5" y="438.25" width="175" height="25" xlink:href="DS_ana_tenzor.svg">
    <title>00SAB26CP002</title>
    <rt:dyn type="FKKS" mode="constant" value="&quot;00SAB26CP002&quot;"/> 
    <rt:dyn type="X" mode="constant" value="&quot;P&quot;"/> 
    <rt:dyn type="ShowFrame" mode="constant" value="true"/> 
    <rt:dyn type="ValueToTheRight" mode="constant" value="false"/> 
    <rt:dyn type="Color_Readings" mode="constant" value="true"/> 
  </image>
  <g transform="flipX(406.167)">
    <g transform="flipX(699.732)">
      <line x1="884.797" y1="452.833" x2="998.297" y2="453.083" stroke="black" stroke-width="1"/> 
      <line x1="997.797" y1="453.083" x2="997.797" y2="467.083" stroke="black" stroke-width="1"/> 
    </g>
    <line x1="411.667" y1="467.083" x2="391.667" y2="467.083" stroke="black" stroke-width="1"/> 
  </g>
  <image x="170.725" y="439.288" width="175" height="25" xlink:href="DS_ana_tenzor.svg">
    <title>00SAB26CP001</title>
    <rt:dyn type="FKKS" mode="constant" value="&quot;00SAB26CP001&quot;"/> 
    <rt:dyn type="X" mode="constant" value="&quot;P&quot;"/> 
    <rt:dyn type="ShowFrame" mode="constant" value="true"/> 
    <rt:dyn type="ValueToTheRight" mode="constant" value="false"/> 
    <rt:dyn type="Color_Readings" mode="constant" value="true"/> 
  </image>
  <line x1="900" y1="425" x2="499" y2="425" stroke="black" stroke-width="3"/> 
  <line x1="900.012" y1="427" x2="899.711" y2="104.874" stroke="black" stroke-width="3"/> 
  <polygon points="-999.199,421.464 -989.199,438.464 -1009.2,438.464" transform="rotate(210 453.5 42.9997) rotate(90 31.3333 552.5) rotate(0 1.4013e-045 3.14533e-039) flipY(460.5)"/> 
  <line x1="503" y1="665" x2="503" y2="631.542" stroke="black" stroke-width="3"/> 
  <line x1="376.75" y1="813.662" x2="376.75" y2="750.45" stroke="black" stroke-width="3"/> 
  <text x="464" y="827" fill="black" font-size="15" text-anchor="middle">00SAB27<tspan x="464" dy="15">AN001</tspan>
  </text>
  <line x1="375.275" y1="750.162" x2="626.775" y2="751.162" stroke="black" stroke-width="3"/> 
  <line x1="501.08" y1="749.449" x2="501.275" y2="700.162" stroke="black" stroke-width="3"/> 
  <polygon points="-286.61,315.571 -276.61,332.571 -296.61,332.571" transform="rotate(210 453.5 42.9997) rotate(90 31.3333 552.5) rotate(0 1.4013e-045 3.14533e-039) flipY(460.5)"/> 
  <line x1="625.9" y1="812.162" x2="625.9" y2="750.602" stroke="black" stroke-width="3"/> 
  <text x="713.9" y="827.519" fill="black" font-size="15" text-anchor="middle">00SAB27<tspan x="713.9" dy="15">AN002</tspan>
  </text>
  <line x1="639.775" y1="908.162" x2="390.275" y2="908.162" stroke="black" stroke-width="3"/> 
  <g>
    <g transform="flipX(699.732)">
      <line x1="701.189" y1="727.912" x2="814.689" y2="728.162" stroke="black" stroke-width="1"/> 
      <line x1="814.189" y1="728.162" x2="814.189" y2="742.162" stroke="black" stroke-width="1"/> 
    </g>
    <line x1="595.275" y1="742.162" x2="575.275" y2="742.162" stroke="black" stroke-width="1"/> 
  </g>
  <image x="642.775" y="713.412" width="175" height="25" xlink:href="DS_ana_tenzor.svg">
    <title>00SAB27CP002</title>
    <rt:dyn type="FKKS" mode="constant" value="&quot;00SAB27CP002&quot;"/> 
    <rt:dyn type="X" mode="constant" value="&quot;P&quot;"/> 
    <rt:dyn type="ShowFrame" mode="constant" value="true"/> 
    <rt:dyn type="ValueToTheRight" mode="constant" value="false"/> 
    <rt:dyn type="Color_Readings" mode="constant" value="true"/> 
  </image>
  <g transform="flipX(406.167)">
    <g transform="flipX(699.732)">
      <line x1="886.072" y1="727.995" x2="999.572" y2="728.245" stroke="black" stroke-width="1"/> 
      <line x1="999.072" y1="728.245" x2="999.072" y2="742.245" stroke="black" stroke-width="1"/> 
    </g>
    <line x1="410.392" y1="742.245" x2="390.392" y2="742.245" stroke="black" stroke-width="1"/> 
  </g>
  <image x="172" y="714.45" width="175" height="25" xlink:href="DS_ana_tenzor.svg">
    <title>00SAB27CP001</title>
    <rt:dyn type="FKKS" mode="constant" value="&quot;00SAB27CP001&quot;"/> 
    <rt:dyn type="X" mode="constant" value="&quot;P&quot;"/> 
    <rt:dyn type="ShowFrame" mode="constant" value="true"/> 
    <rt:dyn type="ValueToTheRight" mode="constant" value="false"/> 
    <rt:dyn type="Color_Readings" mode="constant" value="true"/> 
  </image>
  <line x1="950" y1="700" x2="500.275" y2="700.162" stroke="black" stroke-width="3"/> 
  <line x1="950" y1="702" x2="950.698" y2="103.875" stroke="black" stroke-width="3"/> 
  <polygon points="-1237.73,282.279 -1227.73,299.279 -1247.73,299.279" transform="rotate(210 453.5 42.9997) rotate(90 31.3333 552.5) rotate(0 1.4013e-045 3.14533e-039) flipY(460.5)"/> 
  <line x1="504.275" y1="941.162" x2="504.275" y2="907.704" stroke="black" stroke-width="3"/> 
  <polygon points="-262.035,273.006 -252.035,290.006 -272.035,290.006" transform="rotate(210 453.5 42.9997) rotate(90 31.3333 552.5) rotate(0 1.4013e-045 3.14533e-039) flipY(460.5)"/> 
  <line x1="999.151" y1="702.151" x2="999.849" y2="104.027" stroke="black" stroke-width="3"/> 
  <polygon points="-237.716,230.885 -227.716,247.885 -247.716,247.885" transform="rotate(210 453.5 42.9997) rotate(90 31.3333 552.5) rotate(0 1.4013e-045 3.14533e-039) flipY(460.5)"/> 
  <line x1="1048.79" y1="428.703" x2="1048.49" y2="106.577" stroke="black" stroke-width="3"/> 
  <polygon points="-211.959,186.272 -201.959,203.272 -221.959,203.272" transform="rotate(210 453.5 42.9997) rotate(90 31.3333 552.5) rotate(0 1.4013e-045 3.14533e-039) flipY(460.5)"/> 
  <line x1="1100" y1="153.667" x2="1100" y2="105.901" stroke="black" stroke-width="3"/> 
  <line x1="1453.42" y1="428" x2="1048" y2="428" stroke="black" stroke-width="3"/> 
  <line x1="1452.67" y1="152" x2="1100" y2="152" stroke="black" stroke-width="3"/> 
  <line x1="1450.21" y1="700" x2="1000.49" y2="700.162" stroke="black" stroke-width="3"/> 
  <line x1="1327.4" y1="265.627" x2="1327.4" y2="202.415" stroke="black" stroke-width="3"/> 
  <text x="1416.5" y="279.484" fill="black" font-size="15" text-anchor="middle">00SAB29<tspan x="1416.5" dy="15">AN001</tspan>
  </text>
  <line x1="1326.4" y1="202.127" x2="1577.9" y2="203.127" stroke="black" stroke-width="3"/> 
  <line x1="1451.4" y1="202.414" x2="1451.4" y2="153.127" stroke="black" stroke-width="3"/> 
  <line x1="1577.4" y1="264.127" x2="1577.4" y2="202.567" stroke="black" stroke-width="3"/> 
  <text x="1666.02" y="279.484" fill="black" font-size="15" text-anchor="middle">00SAB29<tspan x="1666.02" dy="15">AN002</tspan>
  </text>
  <line x1="1591.32" y1="360.561" x2="1341.82" y2="360.561" stroke="black" stroke-width="3"/> 
  <g>
    <g transform="flipX(699.732)">
      <line x1="-249.933" y1="179.877" x2="-136.433" y2="180.127" stroke="black" stroke-width="1"/> 
      <line x1="-136.933" y1="180.127" x2="-136.933" y2="194.127" stroke="black" stroke-width="1"/> 
    </g>
    <line x1="1546.4" y1="194.127" x2="1526.4" y2="194.127" stroke="black" stroke-width="1"/> 
  </g>
  <image x="1593.9" y="165.377" width="175" height="25" xlink:href="DS_ana_tenzor.svg">
    <title>00SAB29CP002</title>
    <rt:dyn type="FKKS" mode="constant" value="&quot;00SAB29CP002&quot;"/> 
    <rt:dyn type="X" mode="constant" value="&quot;P&quot;"/> 
    <rt:dyn type="ShowFrame" mode="constant" value="true"/> 
    <rt:dyn type="ValueToTheRight" mode="constant" value="false"/> 
    <rt:dyn type="Color_Readings" mode="constant" value="true"/> 
  </image>
  <g transform="flipX(406.167)">
    <g transform="flipX(699.732)">
      <line x1="1837.19" y1="179.96" x2="1950.69" y2="180.21" stroke="black" stroke-width="1"/> 
      <line x1="1950.19" y1="180.21" x2="1950.19" y2="194.21" stroke="black" stroke-width="1"/> 
    </g>
    <line x1="-540.73" y1="194.21" x2="-560.73" y2="194.21" stroke="black" stroke-width="1"/> 
  </g>
  <image x="1123.12" y="166.415" width="175" height="25" xlink:href="DS_ana_tenzor.svg">
    <title>00SAB29CP001</title>
    <rt:dyn type="FKKS" mode="constant" value="&quot;00SAB29CP001&quot;"/> 
    <rt:dyn type="X" mode="constant" value="&quot;P&quot;"/> 
    <rt:dyn type="ShowFrame" mode="constant" value="true"/> 
    <rt:dyn type="ValueToTheRight" mode="constant" value="false"/> 
    <rt:dyn type="Color_Readings" mode="constant" value="true"/> 
  </image>
  <polygon points="-287.051,-268.265 -277.051,-251.265 -297.051,-251.265" transform="rotate(210 453.5 42.9997) rotate(90 31.3333 552.5) rotate(0 1.4013e-045 3.14533e-039) flipY(460.5)"/> 
  <line x1="1456.4" y1="393.127" x2="1456.4" y2="359.669" stroke="black" stroke-width="3"/> 
  <line x1="1325.91" y1="549.091" x2="1325.91" y2="475.86" stroke="black" stroke-width="3"/> 
  <text x="1417.46" y="559.864" fill="black" font-size="15" text-anchor="middle">00SAB25<tspan x="1417.46" dy="15">AN001</tspan>
  </text>
  <line x1="1326.4" y1="477.127" x2="1577.9" y2="478.127" stroke="black" stroke-width="3"/> 
  <line x1="1452.5" y1="476.293" x2="1452.7" y2="427.006" stroke="black" stroke-width="3"/> 
  <line x1="1577.4" y1="546.061" x2="1577.4" y2="477.567" stroke="black" stroke-width="3"/> 
  <text x="1666.98" y="559.864" fill="black" font-size="15" text-anchor="middle">00SAB25<tspan x="1666.98" dy="15">AN002</tspan>
  </text>
  <line x1="1592.86" y1="640.507" x2="1343.36" y2="640.507" stroke="black" stroke-width="3"/> 
  <g>
    <g transform="flipX(699.732)">
      <line x1="-249.933" y1="454.877" x2="-136.433" y2="455.127" stroke="black" stroke-width="1"/> 
      <line x1="-136.933" y1="455.127" x2="-136.933" y2="469.127" stroke="black" stroke-width="1"/> 
    </g>
    <line x1="1546.4" y1="469.127" x2="1526.4" y2="469.127" stroke="black" stroke-width="1"/> 
  </g>
  <image x="1593.9" y="440.377" width="175" height="25" xlink:href="DS_ana_tenzor.svg">
    <title>00SAB25CP002</title>
    <rt:dyn type="FKKS" mode="constant" value="&quot;00SAB25CP002&quot;"/> 
    <rt:dyn type="X" mode="constant" value="&quot;P&quot;"/> 
    <rt:dyn type="ShowFrame" mode="constant" value="true"/> 
    <rt:dyn type="ValueToTheRight" mode="constant" value="false"/> 
    <rt:dyn type="Color_Readings" mode="constant" value="true"/> 
  </image>
  <g transform="flipX(406.167)">
    <g transform="flipX(699.732)">
      <line x1="1837.19" y1="454.96" x2="1950.69" y2="455.21" stroke="black" stroke-width="1"/> 
      <line x1="1950.19" y1="455.21" x2="1950.19" y2="469.21" stroke="black" stroke-width="1"/> 
    </g>
    <line x1="-540.73" y1="469.21" x2="-560.73" y2="469.21" stroke="black" stroke-width="1"/> 
  </g>
  <image x="1123.12" y="441.415" width="175" height="25" xlink:href="DS_ana_tenzor.svg">
    <title>00SAB25CP001</title>
    <rt:dyn type="FKKS" mode="constant" value="&quot;00SAB25CP001&quot;"/> 
    <rt:dyn type="X" mode="constant" value="&quot;P&quot;"/> 
    <rt:dyn type="ShowFrame" mode="constant" value="true"/> 
    <rt:dyn type="ValueToTheRight" mode="constant" value="false"/> 
    <rt:dyn type="Color_Readings" mode="constant" value="true"/> 
  </image>
  <polygon points="-529.387,-409.287 -519.387,-392.287 -539.387,-392.287" transform="rotate(210 453.5 42.9997) rotate(90 31.3333 552.5) rotate(0 1.4013e-045 3.14533e-039) flipY(460.5)"/> 
  <line x1="1457.36" y1="673.507" x2="1457.36" y2="640.049" stroke="black" stroke-width="3"/> 
  <line x1="1328.67" y1="814.789" x2="1329.15" y2="751.577" stroke="black" stroke-width="3"/> 
  <text x="1417.4" y="828.127" fill="black" font-size="15" text-anchor="middle">00SAB24<tspan x="1417.4" dy="15">AN001</tspan>
  </text>
  <line x1="1327.67" y1="751.289" x2="1579.17" y2="752.289" stroke="black" stroke-width="3"/> 
  <line x1="1450.48" y1="750.576" x2="1450" y2="699" stroke="black" stroke-width="3"/> 
  <line x1="1578.67" y1="813.289" x2="1578.3" y2="751.729" stroke="black" stroke-width="3"/> 
  <text x="1663.3" y="828.646" fill="black" font-size="15" text-anchor="middle">00SAB24<tspan x="1663.3" dy="15">AN002</tspan>
  </text>
  <line x1="1593.11" y1="909.53" x2="1343.61" y2="909.53" stroke="black" stroke-width="3"/> 
  <g>
    <g transform="flipX(699.732)">
      <line x1="-251.208" y1="730.039" x2="-137.708" y2="730.289" stroke="black" stroke-width="1"/> 
      <line x1="-138.208" y1="730.289" x2="-138.208" y2="744.289" stroke="black" stroke-width="1"/> 
    </g>
    <line x1="1547.67" y1="744.289" x2="1527.67" y2="744.289" stroke="black" stroke-width="1"/> 
  </g>
  <image x="1595.17" y="715.539" width="175" height="25" xlink:href="DS_ana_tenzor.svg">
    <title>00SAB24CP002</title>
    <rt:dyn type="FKKS" mode="constant" value="&quot;00SAB24CP002&quot;"/> 
    <rt:dyn type="X" mode="constant" value="&quot;P&quot;"/> 
    <rt:dyn type="ShowFrame" mode="constant" value="true"/> 
    <rt:dyn type="ValueToTheRight" mode="constant" value="false"/> 
    <rt:dyn type="Color_Readings" mode="constant" value="true"/> 
  </image>
  <g transform="flipX(406.167)">
    <g transform="flipX(699.732)">
      <line x1="1838.47" y1="730.122" x2="1951.97" y2="730.372" stroke="black" stroke-width="1"/> 
      <line x1="1951.47" y1="730.372" x2="1951.47" y2="744.372" stroke="black" stroke-width="1"/> 
    </g>
    <line x1="-542.005" y1="744.372" x2="-562.005" y2="744.372" stroke="black" stroke-width="1"/> 
  </g>
  <image x="1124.4" y="716.577" width="175" height="25" xlink:href="DS_ana_tenzor.svg">
    <title>00SAB24CP001</title>
    <rt:dyn type="FKKS" mode="constant" value="&quot;00SAB24CP001&quot;"/> 
    <rt:dyn type="X" mode="constant" value="&quot;P&quot;"/> 
    <rt:dyn type="ShowFrame" mode="constant" value="true"/> 
    <rt:dyn type="ValueToTheRight" mode="constant" value="false"/> 
    <rt:dyn type="Color_Readings" mode="constant" value="true"/> 
  </image>
  <polygon points="-757.744,-551.811 -747.744,-534.811 -767.744,-534.811" transform="rotate(210 453.5 42.9997) rotate(90 31.3333 552.5) rotate(0 1.4013e-045 3.14533e-039) flipY(460.5)"/> 
  <line x1="1466.61" y1="942.53" x2="1466.61" y2="909.072" stroke="black" stroke-width="3"/> 
  <image x="411.121" y="209.697" width="181.818" height="24.2424" xlink:href="bitwise_tablo_4bits.svg">
    <title>00SAB20AN001002</title>
    <rt:dyn type="PointID_1" mode="constant" value="&quot;00SAB20AN001002_Z0 0&quot;"/> 
    <rt:dyn type="Text_0001" mode="constant" value="&quot;ÀÂÐ ÍÅ ÃÎÒÎÂ&quot;"/> 
    <rt:dyn type="Text_0000" mode="constant" value="&quot;ÀÂÐ ÄÈÑÒ&quot;"/> 
    <rt:dyn type="Color_0010" mode="constant" value="&quot;Col_Yellow&quot;"/> 
    <rt:dyn type="Color_0001" mode="constant" value="&quot;Col_Green&quot;"/> 
    <rt:dyn type="Text_0010" mode="constant" value="&quot;ÀÂÐ ÃÎÒÎÂ&quot;"/> 
    <rt:dyn type="PointID_2" mode="constant" value="&quot;00SAB20AN001002_Z0 1&quot;"/> 
    <rt:dyn type="PointID_3" mode="constant" value="&quot;00SAB20AN001002_Z0 2&quot;"/> 
    <rt:dyn type="PointID_4" mode="constant" value="&quot;00SAB20AN001002_Z0 3&quot;"/> 
    <rt:dyn type="Text_0100" mode="constant" value="&quot;ÀÂÐ ÑÐÀÁÎÒÀË&quot;"/> 
    <rt:dyn type="Color_0100" mode="constant" value="&quot;Col_Red&quot;"/> 
    <rt:dyn type="Color_0000" mode="constant" value="&quot;Col_Grey3&quot;"/> 
  </image>
  <image x="411.061" y="482.424" width="181.818" height="24.2424" xlink:href="bitwise_tablo_4bits.svg">
    <title>00SAB26AN001002</title>
    <rt:dyn type="PointID_1" mode="constant" value="&quot;00SAB26AN001002_Z0 0&quot;"/> 
    <rt:dyn type="Text_0001" mode="constant" value="&quot;ÀÂÐ ÍÅ ÃÎÒÎÂ&quot;"/> 
    <rt:dyn type="Text_0000" mode="constant" value="&quot;ÀÂÐ ÄÈÑÒ&quot;"/> 
    <rt:dyn type="Color_0010" mode="constant" value="&quot;Col_Yellow&quot;"/> 
    <rt:dyn type="Color_0001" mode="constant" value="&quot;Col_Green&quot;"/> 
    <rt:dyn type="Text_0010" mode="constant" value="&quot;ÀÂÐ ÃÎÒÎÂ&quot;"/> 
    <rt:dyn type="PointID_2" mode="constant" value="&quot;00SAB26AN001002_Z0 1&quot;"/> 
    <rt:dyn type="PointID_3" mode="constant" value="&quot;00SAB26AN001002_Z0 2&quot;"/> 
    <rt:dyn type="PointID_4" mode="constant" value="&quot;00SAB26AN001002_Z0 3&quot;"/> 
    <rt:dyn type="Text_0100" mode="constant" value="&quot;ÀÂÐ ÑÐÀÁÎÒÀË&quot;"/> 
    <rt:dyn type="Color_0100" mode="constant" value="&quot;Col_Red&quot;"/> 
    <rt:dyn type="Color_0000" mode="constant" value="&quot;Col_Grey3&quot;"/> 
  </image>
  <image x="411.545" y="770.182" width="181.818" height="24.2424" xlink:href="bitwise_tablo_4bits.svg">
    <title>00SAB27AN001002</title>
    <rt:dyn type="PointID_1" mode="constant" value="&quot;00SAB27AN001002_Z0 0&quot;"/> 
    <rt:dyn type="Text_0001" mode="constant" value="&quot;ÀÂÐ ÍÅ ÃÎÒÎÂ&quot;"/> 
    <rt:dyn type="Text_0000" mode="constant" value="&quot;ÀÂÐ ÄÈÑÒ&quot;"/> 
    <rt:dyn type="Color_0010" mode="constant" value="&quot;Col_Yellow&quot;"/> 
    <rt:dyn type="Color_0001" mode="constant" value="&quot;Col_Green&quot;"/> 
    <rt:dyn type="Text_0010" mode="constant" value="&quot;ÀÂÐ ÃÎÒÎÂ&quot;"/> 
    <rt:dyn type="PointID_2" mode="constant" value="&quot;00SAB27AN001002_Z0 1&quot;"/> 
    <rt:dyn type="PointID_3" mode="constant" value="&quot;00SAB27AN001002_Z0 2&quot;"/> 
    <rt:dyn type="PointID_4" mode="constant" value="&quot;00SAB27AN001002_Z0 3&quot;"/> 
    <rt:dyn type="Text_0100" mode="constant" value="&quot;ÀÂÐ ÑÐÀÁÎÒÀË&quot;"/> 
    <rt:dyn type="Color_0100" mode="constant" value="&quot;Col_Red&quot;"/> 
    <rt:dyn type="Color_0000" mode="constant" value="&quot;Col_Grey3&quot;"/> 
  </image>
  <image x="1364" y="209.697" width="181.818" height="24.2424" xlink:href="bitwise_tablo_4bits.svg">
    <title>00SAB29AN001002</title>
    <rt:dyn type="PointID_1" mode="constant" value="&quot;00SAB29AN001002_Z0 0&quot;"/> 
    <rt:dyn type="Text_0001" mode="constant" value="&quot;ÀÂÐ ÍÅ ÃÎÒÎÂ&quot;"/> 
    <rt:dyn type="Text_0000" mode="constant" value="&quot;ÀÂÐ ÄÈÑÒ&quot;"/> 
    <rt:dyn type="Color_0010" mode="constant" value="&quot;Col_Yellow&quot;"/> 
    <rt:dyn type="Color_0001" mode="constant" value="&quot;Col_Green&quot;"/> 
    <rt:dyn type="Text_0010" mode="constant" value="&quot;ÀÂÐ ÃÎÒÎÂ&quot;"/> 
    <rt:dyn type="PointID_2" mode="constant" value="&quot;00SAB29AN001002_Z0 1&quot;"/> 
    <rt:dyn type="PointID_3" mode="constant" value="&quot;00SAB29AN001002_Z0 2&quot;"/> 
    <rt:dyn type="PointID_4" mode="constant" value="&quot;00SAB29AN001002_Z0 3&quot;"/> 
    <rt:dyn type="Text_0100" mode="constant" value="&quot;ÀÂÐ ÑÐÀÁÎÒÀË&quot;"/> 
    <rt:dyn type="Color_0100" mode="constant" value="&quot;Col_Red&quot;"/> 
    <rt:dyn type="Color_0000" mode="constant" value="&quot;Col_Grey3&quot;"/> 
  </image>
  <image x="1363.61" y="483.939" width="181.818" height="24.2424" xlink:href="bitwise_tablo_4bits.svg">
    <title>00SAB25AN001002</title>
    <rt:dyn type="PointID_1" mode="constant" value="&quot;00SAB25AN001002_Z0 0&quot;"/> 
    <rt:dyn type="Text_0001" mode="constant" value="&quot;ÀÂÐ ÍÅ ÃÎÒÎÂ&quot;"/> 
    <rt:dyn type="Text_0000" mode="constant" value="&quot;ÀÂÐ ÄÈÑÒ&quot;"/> 
    <rt:dyn type="Color_0010" mode="constant" value="&quot;Col_Yellow&quot;"/> 
    <rt:dyn type="Color_0001" mode="constant" value="&quot;Col_Green&quot;"/> 
    <rt:dyn type="Text_0010" mode="constant" value="&quot;ÀÂÐ ÃÎÒÎÂ&quot;"/> 
    <rt:dyn type="PointID_2" mode="constant" value="&quot;00SAB25AN001002_Z0 1&quot;"/> 
    <rt:dyn type="PointID_3" mode="constant" value="&quot;00SAB25AN001002_Z0 2&quot;"/> 
    <rt:dyn type="PointID_4" mode="constant" value="&quot;00SAB25AN001002_Z0 3&quot;"/> 
    <rt:dyn type="Text_0100" mode="constant" value="&quot;ÀÂÐ ÑÐÀÁÎÒÀË&quot;"/> 
    <rt:dyn type="Color_0100" mode="constant" value="&quot;Col_Red&quot;"/> 
    <rt:dyn type="Color_0000" mode="constant" value="&quot;Col_Grey3&quot;"/> 
  </image>
  <image x="1363.64" y="758.697" width="181.818" height="24.2424" xlink:href="bitwise_tablo_4bits.svg">
    <title>00SAB24AN001002</title>
    <rt:dyn type="PointID_1" mode="constant" value="&quot;00SAB24AN001002_Z0 0&quot;"/> 
    <rt:dyn type="Text_0001" mode="constant" value="&quot;ÀÂÐ ÍÅ ÃÎÒÎÂ&quot;"/> 
    <rt:dyn type="Text_0000" mode="constant" value="&quot;ÀÂÐ ÄÈÑÒ&quot;"/> 
    <rt:dyn type="Color_0010" mode="constant" value="&quot;Col_Yellow&quot;"/> 
    <rt:dyn type="Color_0001" mode="constant" value="&quot;Col_Green&quot;"/> 
    <rt:dyn type="Text_0010" mode="constant" value="&quot;ÀÂÐ ÃÎÒÎÂ&quot;"/> 
    <rt:dyn type="PointID_2" mode="constant" value="&quot;00SAB24AN001002_Z0 1&quot;"/> 
    <rt:dyn type="PointID_3" mode="constant" value="&quot;00SAB24AN001002_Z0 2&quot;"/> 
    <rt:dyn type="PointID_4" mode="constant" value="&quot;00SAB24AN001002_Z0 3&quot;"/> 
    <rt:dyn type="Text_0100" mode="constant" value="&quot;ÀÂÐ ÑÐÀÁÎÒÀË&quot;"/> 
    <rt:dyn type="Color_0100" mode="constant" value="&quot;Col_Red&quot;"/> 
    <rt:dyn type="Color_0000" mode="constant" value="&quot;Col_Grey3&quot;"/> 
  </image>
  <line x1="639.5" y1="355.643" x2="639.5" y2="279" stroke="black" stroke-width="3"/> 
  <image x="604.396" y="246" width="70" height="70" xlink:href="DS_motor_tenzor.svg" transform="rotate(270 0 0)">
    <title>00SAB20AN002</title>
    <rt:dyn type="KKS" mode="constant" value="&quot;00SAB20AN002&quot;"/> 
    <rt:dyn type="DATA_NARY" mode="constant" value="&quot;TYPE2&quot;"/> 
    <rt:dyn type="Operate" mode="constant" value="true"/> 
    <rt:dyn type="DeviceType" mode="constant" value="&quot;fan&quot;"/> 
  </image>
  <line x1="390.5" y1="909.643" x2="390.5" y2="833" stroke="black" stroke-width="3"/> 
  <image x="355.95" y="795.019" width="70" height="70" xlink:href="DS_motor_tenzor.svg" transform="rotate(270 0 0)">
    <title>00SAB27AN001</title>
    <rt:dyn type="KKS" mode="constant" value="&quot;00SAB27AN001&quot;"/> 
    <rt:dyn type="DATA_NARY" mode="constant" value="&quot;TYPE2&quot;"/> 
    <rt:dyn type="Operate" mode="constant" value="true"/> 
    <rt:dyn type="DeviceType" mode="constant" value="&quot;fan&quot;"/> 
  </image>
  <line x1="640.5" y1="909.643" x2="640.5" y2="833" stroke="black" stroke-width="3"/> 
  <image x="605.11" y="795.019" width="70" height="70" xlink:href="DS_motor_tenzor.svg" transform="rotate(270 0 0)">
    <title>00SAB27AN002</title>
    <rt:dyn type="KKS" mode="constant" value="&quot;00SAB27AN002&quot;"/> 
    <rt:dyn type="DATA_NARY" mode="constant" value="&quot;TYPE2&quot;"/> 
    <rt:dyn type="Operate" mode="constant" value="true"/> 
    <rt:dyn type="DeviceType" mode="constant" value="&quot;fan&quot;"/> 
  </image>
  <line x1="1342.5" y1="359.643" x2="1342.5" y2="283" stroke="black" stroke-width="3"/> 
  <image x="1308.07" y="246.984" width="70" height="70" xlink:href="DS_motor_tenzor.svg" transform="rotate(270 0 0)">
    <title>00SAB29AN001</title>
    <rt:dyn type="KKS" mode="constant" value="&quot;00SAB29AN001&quot;"/> 
    <rt:dyn type="DATA_NARY" mode="constant" value="&quot;TYPE2&quot;"/> 
    <rt:dyn type="Operate" mode="constant" value="true"/> 
    <rt:dyn type="DeviceType" mode="constant" value="&quot;fan&quot;"/> 
  </image>
  <line x1="1592.5" y1="361.643" x2="1592.5" y2="285" stroke="black" stroke-width="3"/> 
  <image x="1557.23" y="246.984" width="70" height="70" xlink:href="DS_motor_tenzor.svg" transform="rotate(270 0 0)">
    <title>00SAB29AN002</title>
    <rt:dyn type="KKS" mode="constant" value="&quot;00SAB29AN002&quot;"/> 
    <rt:dyn type="DATA_NARY" mode="constant" value="&quot;TYPE2&quot;"/> 
    <rt:dyn type="Operate" mode="constant" value="true"/> 
    <rt:dyn type="DeviceType" mode="constant" value="&quot;fan&quot;"/> 
  </image>
  <line x1="1344.46" y1="640.023" x2="1344.46" y2="563.38" stroke="black" stroke-width="3"/> 
  <image x="1309.03" y="527.364" width="70" height="70" xlink:href="DS_motor_tenzor.svg" transform="rotate(270 0 0)">
    <title>00SAB25AN001</title>
    <rt:dyn type="KKS" mode="constant" value="&quot;00SAB25AN001&quot;"/> 
    <rt:dyn type="DATA_NARY" mode="constant" value="&quot;TYPE2&quot;"/> 
    <rt:dyn type="Operate" mode="constant" value="true"/> 
    <rt:dyn type="DeviceType" mode="constant" value="&quot;fan&quot;"/> 
  </image>
  <line x1="1593.46" y1="642.023" x2="1593.46" y2="565.38" stroke="black" stroke-width="3"/> 
  <image x="1558.19" y="527.364" width="70" height="70" xlink:href="DS_motor_tenzor.svg" transform="rotate(270 0 0)">
    <title>00SAB25AN002</title>
    <rt:dyn type="KKS" mode="constant" value="&quot;00SAB25AN002&quot;"/> 
    <rt:dyn type="DATA_NARY" mode="constant" value="&quot;TYPE2&quot;"/> 
    <rt:dyn type="Operate" mode="constant" value="true"/> 
    <rt:dyn type="DeviceType" mode="constant" value="&quot;fan&quot;"/> 
  </image>
  <line x1="1344.5" y1="909.643" x2="1344.5" y2="833" stroke="black" stroke-width="3"/> 
  <image x="1309.35" y="796.146" width="70" height="70" xlink:href="DS_motor_tenzor.svg" transform="rotate(270 0 0)">
    <title>00SAB24AN001</title>
    <rt:dyn type="KKS" mode="constant" value="&quot;00SAB24AN001&quot;"/> 
    <rt:dyn type="DATA_NARY" mode="constant" value="&quot;TYPE2&quot;"/> 
    <rt:dyn type="Operate" mode="constant" value="true"/> 
    <rt:dyn type="DeviceType" mode="constant" value="&quot;fan&quot;"/> 
  </image>
  <line x1="1593.5" y1="910.643" x2="1593.5" y2="834" stroke="black" stroke-width="3"/> 
  <image x="1558.51" y="796.146" width="70" height="70" xlink:href="DS_motor_tenzor.svg" transform="rotate(270 0 0)">
    <title>00SAB24AN002</title>
    <rt:dyn type="KKS" mode="constant" value="&quot;00SAB24AN002&quot;"/> 
    <rt:dyn type="DATA_NARY" mode="constant" value="&quot;TYPE2&quot;"/> 
    <rt:dyn type="Operate" mode="constant" value="true"/> 
    <rt:dyn type="DeviceType" mode="constant" value="&quot;fan&quot;"/> 
  </image>
  <image x="94.561" y="91.758" width="181.818" height="24.2424" xlink:href="bitwise_tablo_4bits.svg">
    <title>00SAB20_XK92</title>
    <rt:dyn type="PointID_1" mode="constant" value="&quot;00SAB20_XK92&quot;"/> 
    <rt:dyn type="Text_0000" mode="constant" value="&quot;ÀÂÒÎÌÀÒÈ×ÅÑÊÈÉ&quot;"/> 
    <rt:dyn type="Color_0001" mode="constant" value="&quot;Col_Green&quot;"/> 
    <rt:dyn type="Text_0001" mode="constant" value="&quot;ÄÈÑÒÀÍÖÈÎÍÍÛÉ&quot;"/> 
    <rt:dyn type="Color_0000" mode="constant" value="&quot;Col_Green&quot;"/> 
  </image>
  <text x="124.995" y="72.928" fill="black" font-size="15">Ðåæèì ðàáîòû 00SAB20</text>
  <rect x="84" y="51" width="275.758" height="81.8182" rx="0" ry="0" fill="none" stroke="black" stroke-width="2"/> 
  <image x="284.066" y="88.879" width="60" height="30" xlink:href="ps_tenzor_system.svg">
    <title>00SAB20</title>
    <rt:dyn type="KKS" mode="constant" value="&quot;00SAB20&quot;"/> 
  </image>
  <image x="34.4399" y="380.243" width="181.818" height="24.2424" xlink:href="bitwise_tablo_4bits.svg">
    <title>00SAB26_XK92</title>
    <rt:dyn type="PointID_1" mode="constant" value="&quot;00SAB26_XK92&quot;"/> 
    <rt:dyn type="Text_0000" mode="constant" value="&quot;ÀÂÒÎÌÀÒÈ×ÅÑÊÈÉ&quot;"/> 
    <rt:dyn type="Color_0001" mode="constant" value="&quot;Col_Green&quot;"/> 
    <rt:dyn type="Text_0001" mode="constant" value="&quot;ÄÈÑÒÀÍÖÈÎÍÍÛÉ&quot;"/> 
    <rt:dyn type="Color_0000" mode="constant" value="&quot;Col_Green&quot;"/> 
  </image>
  <text x="64.8739" y="361.413" fill="black" font-size="15">Ðåæèì ðàáîòû 00SAB26</text>
  <rect x="23.8789" y="339.485" width="275.758" height="81.8182" rx="0" ry="0" fill="none" stroke="black" stroke-width="2"/> 
  <image x="223.945" y="377.364" width="60" height="30" xlink:href="ps_tenzor_system.svg">
    <title>00SAB26</title>
    <rt:dyn type="KKS" mode="constant" value="&quot;00SAB26&quot;"/> 
  </image>
  <image x="26.8642" y="657.516" width="181.818" height="24.2424" xlink:href="bitwise_tablo_4bits.svg">
    <title>00SAB27_XK92</title>
    <rt:dyn type="PointID_1" mode="constant" value="&quot;00SAB27_XK92&quot;"/> 
    <rt:dyn type="Text_0000" mode="constant" value="&quot;ÀÂÒÎÌÀÒÈ×ÅÑÊÈÉ&quot;"/> 
    <rt:dyn type="Color_0001" mode="constant" value="&quot;Col_Green&quot;"/> 
    <rt:dyn type="Text_0001" mode="constant" value="&quot;ÄÈÑÒÀÍÖÈÎÍÍÛÉ&quot;"/> 
    <rt:dyn type="Color_0000" mode="constant" value="&quot;Col_Green&quot;"/> 
  </image>
  <text x="57.2982" y="638.685" fill="black" font-size="15">Ðåæèì ðàáîòû 00SAB27</text>
  <rect x="16.3032" y="616.757" width="275.758" height="81.8182" rx="0" ry="0" fill="none" stroke="black" stroke-width="2"/> 
  <image x="216.369" y="654.636" width="60" height="30" xlink:href="ps_tenzor_system.svg">
    <title>00SAB27</title>
    <rt:dyn type="KKS" mode="constant" value="&quot;00SAB27&quot;"/> 
  </image>
  <image x="1238.99" y="84.7884" width="181.818" height="24.2424" xlink:href="bitwise_tablo_4bits.svg">
    <title>00SAB29_XK92</title>
    <rt:dyn type="PointID_1" mode="constant" value="&quot;00SAB29_XK92&quot;"/> 
    <rt:dyn type="Text_0000" mode="constant" value="&quot;ÀÂÒÎÌÀÒÈ×ÅÑÊÈÉ&quot;"/> 
    <rt:dyn type="Color_0001" mode="constant" value="&quot;Col_Green&quot;"/> 
    <rt:dyn type="Text_0001" mode="constant" value="&quot;ÄÈÑÒÀÍÖÈÎÍÍÛÉ&quot;"/> 
    <rt:dyn type="Color_0000" mode="constant" value="&quot;Col_Green&quot;"/> 
  </image>
  <text x="1269.42" y="65.9584" fill="black" font-size="15">Ðåæèì ðàáîòû 00SAB29</text>
  <rect x="1228.42" y="44.0303" width="275.758" height="81.8182" rx="0" ry="0" fill="none" stroke="black" stroke-width="2"/> 
  <image x="1428.49" y="81.9093" width="60" height="30" xlink:href="ps_tenzor_system.svg">
    <title>00SAB29</title>
    <rt:dyn type="KKS" mode="constant" value="&quot;00SAB29&quot;"/> 
  </image>
  <image x="1026.93" y="529.204" width="181.818" height="24.2424" xlink:href="bitwise_tablo_4bits.svg">
    <title>00SAB25_XK92</title>
    <rt:dyn type="PointID_1" mode="constant" value="&quot;00SAB25_XK92&quot;"/> 
    <rt:dyn type="Text_0000" mode="constant" value="&quot;ÀÂÒÎÌÀÒÈ×ÅÑÊÈÉ&quot;"/> 
    <rt:dyn type="Color_0001" mode="constant" value="&quot;Col_Green&quot;"/> 
    <rt:dyn type="Text_0001" mode="constant" value="&quot;ÄÈÑÒÀÍÖÈÎÍÍÛÉ&quot;"/> 
    <rt:dyn type="Color_0000" mode="constant" value="&quot;Col_Green&quot;"/> 
  </image>
  <text x="1057.36" y="510.373" fill="black" font-size="15">Ðåæèì ðàáîòû 00SAB25</text>
  <rect x="1016.36" y="488.445" width="275.758" height="81.8182" rx="0" ry="0" fill="none" stroke="black" stroke-width="2"/> 
  <image x="1215.36" y="524.849" width="60" height="30" xlink:href="ps_tenzor_system.svg">
    <title>00SAB25</title>
    <rt:dyn type="KKS" mode="constant" value="&quot;00SAB25&quot;"/> 
  </image>
  <image x="1010.22" y="816.607" width="181.818" height="24.2424" xlink:href="bitwise_tablo_4bits.svg">
    <title>00SAB24_XK92</title>
    <rt:dyn type="PointID_1" mode="constant" value="&quot;00SAB24_XK92&quot;"/> 
    <rt:dyn type="Text_0000" mode="constant" value="&quot;ÀÂÒÎÌÀÒÈ×ÅÑÊÈÉ&quot;"/> 
    <rt:dyn type="Color_0001" mode="constant" value="&quot;Col_Green&quot;"/> 
    <rt:dyn type="Text_0001" mode="constant" value="&quot;ÄÈÑÒÀÍÖÈÎÍÍÛÉ&quot;"/> 
    <rt:dyn type="Color_0000" mode="constant" value="&quot;Col_Green&quot;"/> 
  </image>
  <text x="1040.64" y="797.777" fill="black" font-size="15">Ðåæèì ðàáîòû 00SAB24</text>
  <rect x="999.636" y="775.849" width="275.758" height="81.8182" rx="0" ry="0" fill="none" stroke="black" stroke-width="2"/> 
  <image x="1199.72" y="813.727" width="60" height="30" xlink:href="ps_tenzor_system.svg">
    <title>00SAB24</title>
    <rt:dyn type="KKS" mode="constant" value="&quot;00SAB24&quot;"/> 
  </image>
  <g transform="rotate(360 609.241 429.584) scale(0.765552 0.765552 609.241 429.584)">
    <rect x="270.673" y="146.816" width="66.8757" height="34.9577" rx="0" ry="0" fill="Col_BGSand" stroke="black"/> 
    <polygon points="306.594,146.985 271.494,181.595 302.333,181.345 336.754,146.995" fill="Col_Grey2" stroke="black"/> 
  </g>
  <g transform="rotate(360 609.241 429.584) scale(0.765552 0.765552 609.241 429.584)">
    <rect x="599.847" y="144.836" width="66.8757" height="34.9577" rx="0" ry="0" fill="Col_BGSand" stroke="black"/> 
    <polygon points="635.768,145.005 600.668,179.615 631.507,179.365 665.928,145.015" fill="Col_Grey2" stroke="black"/> 
  </g>
  <g transform="rotate(360 609.241 429.584) scale(0.765552 0.765552 609.241 429.584)">
    <rect x="273.285" y="503.777" width="66.8757" height="34.9577" rx="0" ry="0" fill="Col_BGSand" stroke="black"/> 
    <polygon points="309.206,503.946 274.106,538.556 304.945,538.306 339.366,503.956" fill="Col_Grey2" stroke="black"/> 
  </g>
  <g transform="rotate(360 609.241 429.584) scale(0.765552 0.765552 609.241 429.584)">
    <rect x="593.91" y="503.065" width="66.8757" height="34.9577" rx="0" ry="0" fill="Col_BGSand" stroke="black"/> 
    <polygon points="629.831,503.234 594.731,537.844 625.57,537.594 659.991,503.244" fill="Col_Grey2" stroke="black"/> 
  </g>
  <g transform="rotate(360 609.241 429.584) scale(0.765552 0.765552 609.241 429.584)">
    <rect x="273.285" y="862.599" width="66.8757" height="34.9577" rx="0" ry="0" fill="Col_BGSand" stroke="black"/> 
    <polygon points="309.206,862.768 274.106,897.378 304.945,897.128 339.366,862.778" fill="Col_Grey2" stroke="black"/> 
  </g>
  <g transform="rotate(360 609.241 429.584) scale(0.765552 0.765552 609.241 429.584)">
    <rect x="595.889" y="863.233" width="66.8757" height="34.9577" rx="0" ry="0" fill="Col_BGSand" stroke="black"/> 
    <polygon points="631.81,863.402 596.71,898.012 627.549,897.762 661.97,863.412" fill="Col_Grey2" stroke="black"/> 
  </g>
  <g transform="rotate(360 609.241 429.584) scale(0.765552 0.765552 609.241 429.584)">
    <rect x="1514.22" y="146.816" width="66.8757" height="34.9577" rx="0" ry="0" fill="Col_BGSand" stroke="black"/> 
    <polygon points="1550.14,146.985 1515.04,181.595 1545.88,181.345 1580.3,146.995" fill="Col_Grey2" stroke="black"/> 
  </g>
  <g transform="rotate(360 609.241 429.584) scale(0.765552 0.765552 609.241 429.584)">
    <rect x="1840.78" y="146.816" width="66.8757" height="34.9577" rx="0" ry="0" fill="Col_BGSand" stroke="black"/> 
    <polygon points="1876.7,146.985 1841.6,181.595 1872.44,181.345 1906.86,146.995" fill="Col_Grey2" stroke="black"/> 
  </g>
  <g transform="rotate(360 609.241 429.584) scale(0.765552 0.765552 609.241 429.584)">
    <rect x="1513.59" y="510.981" width="66.8757" height="34.9577" rx="0" ry="0" fill="Col_BGSand" stroke="black"/> 
    <polygon points="1549.51,511.15 1514.41,545.76 1545.25,545.51 1579.67,511.16" fill="Col_Grey2" stroke="black"/> 
  </g>
  <g transform="rotate(360 609.241 429.584) scale(0.765552 0.765552 609.241 429.584)">
    <rect x="1838.8" y="510.982" width="66.8757" height="34.9577" rx="0" ry="0" fill="Col_BGSand" stroke="black"/> 
    <polygon points="1874.72,511.151 1839.62,545.761 1870.46,545.511 1904.88,511.161" fill="Col_Grey2" stroke="black"/> 
  </g>
  <g transform="rotate(360 609.241 429.584) scale(0.765552 0.765552 609.241 429.584)">
    <rect x="1516.2" y="863.945" width="66.8757" height="34.9577" rx="0" ry="0" fill="Col_BGSand" stroke="black"/> 
    <polygon points="1552.12,864.114 1517.02,898.724 1547.86,898.474 1582.28,864.124" fill="Col_Grey2" stroke="black"/> 
  </g>
  <g transform="rotate(360 609.241 429.584) scale(0.765552 0.765552 609.241 429.584)">
    <rect x="1842.76" y="865.924" width="66.8757" height="34.9577" rx="0" ry="0" fill="Col_BGSand" stroke="black"/> 
    <polygon points="1878.68,866.093 1843.58,900.703 1874.42,900.453 1908.84,866.103" fill="Col_Grey2" stroke="black"/> 
  </g>
  <image x="308.227" y="316.803" width="160" height="30" xlink:href="ps_tenzor_m0.svg">
    <title>00SAB20AN001</title>
    <rt:dyn type="KKS" mode="constant" value="&quot;00SAB20AN001&quot;"/> 
  </image>
  <image x="559.243" y="317.273" width="160" height="30" xlink:href="ps_tenzor_m0.svg">
    <title>00SAB20AN002</title>
    <rt:dyn type="KKS" mode="constant" value="&quot;00SAB20AN002&quot;"/> 
  </image>
  <image x="308.227" y="592.015" width="160" height="30" xlink:href="ps_tenzor_m0.svg">
    <title>00SAB26AN001</title>
    <rt:dyn type="KKS" mode="constant" value="&quot;00SAB26AN001&quot;"/> 
  </image>
  <image x="559.244" y="592.485" width="160" height="30" xlink:href="ps_tenzor_m0.svg">
    <title>00SAB26AN002</title>
    <rt:dyn type="KKS" mode="constant" value="&quot;00SAB26AN002&quot;"/> 
  </image>
  <image x="309.742" y="870.803" width="160" height="30" xlink:href="ps_tenzor_m0.svg">
    <title>00SAB27AN001</title>
    <rt:dyn type="KKS" mode="constant" value="&quot;00SAB27AN001&quot;"/> 
  </image>
  <image x="560.759" y="871.273" width="160" height="30" xlink:href="ps_tenzor_m0.svg">
    <title>00SAB27AN002</title>
    <rt:dyn type="KKS" mode="constant" value="&quot;00SAB27AN002&quot;"/> 
  </image>
  <image x="1262.77" y="322.318" width="160" height="30" xlink:href="ps_tenzor_m0.svg">
    <title>00SAB29AN001</title>
    <rt:dyn type="KKS" mode="constant" value="&quot;00SAB29AN001&quot;"/> 
  </image>
  <image x="1513.79" y="322.788" width="160" height="30" xlink:href="ps_tenzor_m0.svg">
    <title>00SAB29AN002</title>
    <rt:dyn type="KKS" mode="constant" value="&quot;00SAB29AN002&quot;"/> 
  </image>
  <image x="1264.29" y="602.621" width="160" height="30" xlink:href="ps_tenzor_m0.svg">
    <title>00SAB25AN001</title>
    <rt:dyn type="KKS" mode="constant" value="&quot;00SAB25AN001&quot;"/> 
  </image>
  <image x="1515.3" y="603.091" width="160" height="30" xlink:href="ps_tenzor_m0.svg">
    <title>00SAB25AN002</title>
    <rt:dyn type="KKS" mode="constant" value="&quot;00SAB25AN002&quot;"/> 
  </image>
  <image x="1262.77" y="870.803" width="160" height="30" xlink:href="ps_tenzor_m0.svg">
    <title>00SAB24AN001</title>
    <rt:dyn type="KKS" mode="constant" value="&quot;00SAB24AN001&quot;"/> 
  </image>
  <image x="1513.79" y="871.273" width="160" height="30" xlink:href="ps_tenzor_m0.svg">
    <title>00SAB24AN002</title>
    <rt:dyn type="KKS" mode="constant" value="&quot;00SAB24AN002&quot;"/> 
  </image>
</svg>
