<?xml  version="1.0" encoding="UTF-8"?>
<svg color="Col_BGSand" xmlns="http://www.w3.org/2000/svg" xmlns:rt="http://www.rts.co.at/2001/XMLSchema/RtSvgPL" xmlns:xlink="http://www.w3.org/1999/xlink" xmlns:xsi="http://www.w3.org/2001/XMLSchema-instance" xsi:schemaLocation="http://www.w3.org/2000/svg C:\RTS\RtSvg\XML\SVG.xsd" viewBox="0 0 1920 1080" width="1920" height="1080" id="00sas56_63-66_83_85" fill="Col_Grey3">
  <rt:model modelversion="7.2.0.24" comment="Создано VNIIAES-ASUTP\voroninrs 10.12.2012 14:48:20"/> 
  <line x1="298" y1="433" x2="298" y2="433" stroke="black"/> 
  <line x1="344" y1="425" x2="342" y2="0"/> 
  <line x1="592.727" y1="690.909" x2="592.727" y2="690.909" stroke="black"/> 
  <line x1="749.091" y1="939.091" x2="749.091" y2="939.091" stroke="black"/> 
  <line x1="638.182" y1="881.818" x2="638.182" y2="881.818" stroke="black"/> 
  <line x1="214.545" y1="692.727" x2="214.545" y2="692.727" stroke="black"/> 
  <line x1="259.091" y1="771.818" x2="259.091" y2="771.818" stroke="black"/> 
  <line x1="195.455" y1="720" x2="195.455" y2="720" stroke="black"/> 
  <line x1="186.364" y1="713.636" x2="186.364" y2="713.636" stroke="black"/> 
  <line x1="191.818" y1="715.455" x2="191.818" y2="715.455" stroke="black"/> 
  <line x1="985.455" y1="149.091" x2="985.455" y2="149.091" stroke="black"/> 
  <line x1="1150" y1="365" x2="1150" y2="365" stroke="black"/> 
  <line x1="1274" y1="337" x2="1274" y2="337" stroke="black"/> 
  <line x1="1029" y1="375" x2="1029" y2="375" stroke="black"/> 
  <line x1="1215.33" y1="421.333" x2="1215.33" y2="421.333" stroke="black"/> 
  <line x1="1007" y1="314.75" x2="1007" y2="314.75" stroke="black"/> 
  <line x1="1027.27" y1="820" x2="1027.27" y2="820" stroke="black"/> 
  <line x1="675" y1="65" x2="675" y2="65" stroke="black"/> 
  <line x1="1468" y1="294" x2="1468" y2="294" stroke="black"/> 
  <line x1="1066.67" y1="766" x2="1066.67" y2="766" stroke="black"/> 
  <line x1="251" y1="241" x2="251" y2="241" stroke="black"/> 
  <text x="25" y="25" fill="black" font-size="15">02UXD 00CXV99 00SAS56 / 00SAS63 - 00SAS66 / 00SAS83 / 00SAS85</text>
  <g transform="rotate(270 1212.44 532.643)">
    <polygon points="971.901,1115.1 985.282,1122.74 985.282,1107.45 971.901,1115.1" fill="black" stroke="black" stroke-width="1" transform="rotate(180 1279.17 367.814)"/> 
  </g>
  <line x1="300.317" y1="171.848" x2="300.333" y2="544.576" stroke="black" stroke-width="3"/> 
  <rect x="249.894" y="238.484" width="749.5" height="271.213" rx="0" ry="0" fill="none" stroke="black"/> 
  <line x1="454.454" y1="170.303" x2="454.469" y2="461.212" stroke="black" stroke-width="3"/> 
  <g transform="rotate(270 1212.44 532.643)">
    <polygon points="971.901,960.969 985.281,968.609 985.281,953.319 971.901,960.969" fill="black" stroke="black" stroke-width="1" transform="rotate(180 1279.17 367.814)"/> 
  </g>
  <line x1="749.394" y1="459.697" x2="453.939" y2="459.682" stroke="black" stroke-width="3"/> 
  <text x="329.934" y="340.166" fill="black" font-size="15">00SAS56<tspan x="329.934" dy="15">AN001</tspan>
  </text>
  <image x="264.864" y="307.666" width="70" height="70" xlink:href="ps_AirVent.svg">
    <title>00SAS56AN001</title>
    <rt:dyn type="KKS" mode="constant" value="&quot;00SAS56AN001&quot;"/> 
    <rt:dyn type="Operate" mode="constant" value="true"/> 
    <rt:dyn type="TYPE" mode="constant" value="&quot;TYPE2&quot;"/> 
  </image>
  <g transform="rotate(270 1212.44 532.643)">
    <polygon points="1355.78,1115.1 1369.16,1122.74 1369.16,1107.45 1355.78,1115.1" fill="black" stroke="black" stroke-width="1" transform="rotate(180 1279.17 367.814)"/> 
  </g>
  <text x="484.449" y="411.379" fill="black" font-size="15">00SAS63<tspan x="484.449" dy="15">AN001</tspan>
  </text>
  <image x="419.461" y="378.879" width="70" height="70" xlink:href="ps_AirVent.svg">
    <title>00SAS63AN001</title>
    <rt:dyn type="KKS" mode="constant" value="&quot;00SAS63AN001&quot;"/> 
    <rt:dyn type="Operate" mode="constant" value="true"/> 
    <rt:dyn type="TYPE" mode="constant" value="&quot;TYPE2&quot;"/> 
  </image>
  <line x1="748.394" y1="167.273" x2="748.409" y2="458.182" stroke="black" stroke-width="3"/> 
  <g transform="rotate(270 1212.44 532.643)">
    <polygon points="971.901,667.029 985.281,674.669 985.281,659.379 971.901,667.029" fill="black" stroke="black" stroke-width="1" transform="rotate(180 1279.17 367.814)"/> 
  </g>
  <text x="778.389" y="408.349" fill="black" font-size="15">00SAS66<tspan x="778.389" dy="15">AN001</tspan>
  </text>
  <image x="713.401" y="375.849" width="70" height="70" xlink:href="ps_AirVent.svg">
    <title>00SAS66AN001</title>
    <rt:dyn type="KKS" mode="constant" value="&quot;00SAS66AN001&quot;"/> 
    <rt:dyn type="Operate" mode="constant" value="true"/> 
    <rt:dyn type="TYPE" mode="constant" value="&quot;TYPE2&quot;"/> 
  </image>
  <line x1="610.007" y1="165.758" x2="610.007" y2="443.94" stroke="black" stroke-width="3"/> 
  <g transform="rotate(270 1212.44 532.643)">
    <polygon points="971.901,805.423 985.281,813.063 985.281,797.773 971.901,805.423" fill="black" stroke="black" stroke-width="1" transform="rotate(180 1279.17 367.814)"/> 
  </g>
  <text x="501.667" y="270.682" fill="black" font-size="15">00SAS64<tspan x="501.667" dy="15">AN001</tspan>
  </text>
  <image x="575.007" y="239.485" width="70" height="70" xlink:href="ps_AirVent.svg">
    <title>00SAS64AN001</title>
    <rt:dyn type="KKS" mode="constant" value="&quot;00SAS64AN001&quot;"/> 
    <rt:dyn type="Operate" mode="constant" value="true"/> 
    <rt:dyn type="TYPE" mode="constant" value="&quot;TYPE2&quot;"/> 
  </image>
  <g transform="rotate(270 1212.44 532.643)">
    <polygon points="1355.78,806.102 1369.16,813.742 1369.16,798.452 1355.78,806.102" fill="black" stroke="black" stroke-width="1" transform="rotate(180 1279.17 367.814)"/> 
  </g>
  <g transform="rotate(270 1212.44 532.643)">
    <polygon points="971.902,531.769 985.282,539.409 985.282,524.119 971.902,531.769" fill="black" stroke="black" stroke-width="1" transform="rotate(180 1279.17 367.814)"/> 
  </g>
  <line x1="883.65" y1="173.333" x2="883.666" y2="546.061" stroke="black" stroke-width="3"/> 
  <text x="916.267" y="338.651" fill="black" font-size="15">00SAS85<tspan x="916.267" dy="15">AN001</tspan>
  </text>
  <image x="849.197" y="306.151" width="70" height="70" xlink:href="ps_AirVent.svg">
    <title>00SAS85AN001</title>
    <rt:dyn type="KKS" mode="constant" value="&quot;00SAS85AN001&quot;"/> 
    <rt:dyn type="Operate" mode="constant" value="true"/> 
    <rt:dyn type="TYPE" mode="constant" value="&quot;TYPE2&quot;"/> 
  </image>
  <g transform="rotate(270 1212.44 532.643)">
    <polygon points="1355.78,531.769 1369.16,539.409 1369.16,524.119 1355.78,531.769" fill="black" stroke="black" stroke-width="1" transform="rotate(180 1279.17 367.814)"/> 
  </g>
  <rect x="1009.24" y="238.485" width="235.394" height="271.151" rx="0" ry="0" fill="none" stroke="black"/> 
  <g transform="rotate(270 1212.44 532.643)">
    <polygon points="971.901,281.011 985.281,288.651 985.281,273.361 971.901,281.011" fill="black" stroke="black" stroke-width="1" transform="rotate(180 1279.17 367.814)"/> 
  </g>
  <line x1="1134.41" y1="169.757" x2="1134.42" y2="542.485" stroke="black" stroke-width="3"/> 
  <text x="1170.39" y="337.287" fill="black" font-size="15">00SAS65<tspan x="1170.39" dy="15">AN001</tspan>
  </text>
  <image x="1097.95" y="304.575" width="70" height="70" xlink:href="ps_AirVent.svg">
    <title>00SAS65AN001</title>
    <rt:dyn type="KKS" mode="constant" value="&quot;00SAS65AN001&quot;"/> 
    <rt:dyn type="Operate" mode="constant" value="true"/> 
    <rt:dyn type="TYPE" mode="constant" value="&quot;TYPE2&quot;"/> 
  </image>
  <g transform="rotate(270 1212.44 532.643)">
    <polygon points="1355.78,281.011 1369.16,288.651 1369.16,273.361 1355.78,281.011" fill="black" stroke="black" stroke-width="1" transform="rotate(180 1279.17 367.814)"/> 
  </g>
  <g transform="rotate(270 1212.44 532.643)">
    <polygon points="969.416,34.0449 982.796,41.6849 982.796,26.3949 969.416,34.0449" fill="black" stroke="black" stroke-width="1" transform="rotate(180 1279.17 367.814)"/> 
  </g>
  <line x1="1381.37" y1="166.757" x2="1381.39" y2="539.485" stroke="black" stroke-width="3"/> 
  <text x="1412.01" y="340.56" fill="black" font-size="15">00SAS83<tspan x="1412.01" dy="15">AN001</tspan>
  </text>
  <image x="1346.94" y="308.06" width="70" height="70" xlink:href="ps_AirVent.svg">
    <title>00SAS83AN001</title>
    <rt:dyn type="KKS" mode="constant" value="&quot;00SAS83AN001&quot;"/> 
    <rt:dyn type="Operate" mode="constant" value="true"/> 
    <rt:dyn type="TYPE" mode="constant" value="&quot;TYPE2&quot;"/> 
  </image>
  <g transform="rotate(270 1212.44 532.643)">
    <polygon points="1353.3,34.0449 1366.68,41.6849 1366.68,26.3949 1353.3,34.0449" fill="black" stroke="black" stroke-width="1" transform="rotate(180 1279.17 367.814)"/> 
  </g>
  <text x="313.03" y="487.348" fill="black" font-size="15">02UXD13R008</text>
  <text x="1007.76" y="490.317" fill="black" font-size="15">02UXD13R036</text>
  <text x="1255.24" y="495.317" fill="black" font-size="15">02UXD13R004</text>
  <line x1="609.325" y1="477.121" x2="609.324" y2="544.12" stroke="black" stroke-width="3"/> 
  <path d="M-18.2097 328.382 A16.9474 17 0 0 0 -52.0347 329.08 " fill="none" stroke="black" stroke-width="2" transform="rotate(90 221.908 717.061)"/> 
  <rect x="1253.68" y="237.5" width="235.394" height="271.151" rx="0" ry="0" fill="none" stroke="black"/> 
</svg>
