<?xml  version="1.0" encoding="UTF-8"?>
<svg color="Col_BGSand" xmlns="http://www.w3.org/2000/svg" xmlns:rt="http://www.rts.co.at/2001/XMLSchema/RtSvgPL" xmlns:xlink="http://www.w3.org/1999/xlink" xmlns:xsi="http://www.w3.org/2001/XMLSchema-instance" xsi:schemaLocation="http://www.w3.org/2000/svg C:\RTS\RtSvg\XML\SVG.xsd" viewBox="0 0 1920 980" width="1920" height="980" id="00sah43">
  <rt:model modelversion="7.2.0.24" revision="1"/> 
  <line x1="1275" y1="474" x2="1079" y2="474" stroke="black" stroke-width="3"/> 
  <line x1="526" y1="474" x2="378" y2="474" stroke="black" stroke-width="3"/> 
  <line x1="1225" y1="535.167" x2="1078.67" y2="535.167" stroke="black" stroke-width="3"/> 
  <line x1="779" y1="850" x2="779" y2="268.667" stroke="black" stroke-width="3"/> 
  <line x1="762" y1="276" x2="762" y2="174" stroke="black" stroke-width="3"/> 
  <image x="745.208" y="244.318" width="70" height="70" xlink:href="DS_motor_tenzor.svg" transform="rotate(270 0 0)">
    <title>00SAH43AN001</title>
    <rt:dyn type="KKS" mode="constant" value="&quot;00SAH43AN001&quot;"/> 
    <rt:dyn type="DATA_NARY" mode="constant" value="&quot;TYPE2&quot;"/> 
    <rt:dyn type="Operate" mode="constant" value="true"/> 
    <rt:dyn type="DeviceType" mode="constant" value="&quot;fan&quot;"/> 
  </image>
  <text x="854" y="276.818" fill="black" font-size="15" text-anchor="middle">00SAH43<tspan x="854" dy="15">AN001</tspan>
  </text>
  <polyline points="1148.51,929.257 1198.51,929.257 1198.01,979.257 1148.51,978.757 1148.51,929.257" fill="Col_BGSand" stroke="black" stroke-width="3" transform="rotate(44.0618 1325.51 325.508)"/> 
  <text x="831.5" y="699.5" fill="black" font-size="15" text-anchor="middle">00SAH43<tspan x="831.5" dy="15">AT001</tspan>
  </text>
  <line x1="747.208" y1="671.742" x2="816.208" y2="671.742" stroke="black" stroke-dasharray="5,5"/> 
  <text x="707.848" y="762.514" fill="black" font-size="15" text-anchor="middle">00SAH43<tspan x="707.848" dy="15">AA001</tspan>
  </text>
  <line x1="761.333" y1="175" x2="1064.67" y2="175.333" stroke="black" stroke-width="3"/> 
  <image x="745.208" y="739.742" width="70" height="45" xlink:href="DS_pivot_valve_tenzor.svg">
    <title>00SAH43AA001</title>
    <rt:dyn type="KKS" mode="constant" value="&quot;00SAH43AA001&quot;"/> 
    <rt:dyn type="DATA_NARY" mode="constant" value="&quot;TYPE2&quot;"/> 
    <rt:dyn type="Operate" mode="constant" value="true"/> 
  </image>
  <line x1="1079" y1="850" x2="1079.15" y2="268.819" stroke="black" stroke-width="3"/> 
  <line x1="1062.15" y1="275.152" x2="1063.15" y2="175.152" stroke="black" stroke-width="3"/> 
  <image x="1045.36" y="244.318" width="70" height="70" xlink:href="DS_motor_tenzor.svg" transform="rotate(270 0 0)">
    <title>00SAH43AN002</title>
    <rt:dyn type="KKS" mode="constant" value="&quot;00SAH43AN002&quot;"/> 
    <rt:dyn type="DATA_NARY" mode="constant" value="&quot;TYPE2&quot;"/> 
    <rt:dyn type="Operate" mode="constant" value="true"/> 
    <rt:dyn type="DeviceType" mode="constant" value="&quot;fan&quot;"/> 
  </image>
  <text x="1154.15" y="276.818" fill="black" font-size="15" text-anchor="middle">00SAH43<tspan x="1154.15" dy="15">AN002</tspan>
  </text>
  <polyline points="1364.3,720.631 1414.3,720.631 1413.8,770.631 1364.3,770.131 1364.3,720.631" fill="Col_BGSand" stroke="black" stroke-width="3" transform="rotate(44.0618 1325.51 325.508)"/> 
  <text x="1029" y="704" fill="black" font-size="15" text-anchor="middle">00SAH43<tspan x="1029" dy="15">AT002</tspan>
  </text>
  <line x1="1047.36" y1="671.894" x2="1116.36" y2="671.894" stroke="black" stroke-dasharray="5,5"/> 
  <text x="1006.97" y="759.697" fill="black" font-size="15" text-anchor="middle">00SAH43<tspan x="1006.97" dy="15">AA002</tspan>
  </text>
  <image x="1045.36" y="739.894" width="70" height="45" xlink:href="DS_pivot_valve_tenzor.svg">
    <title>00SAH43AA002</title>
    <rt:dyn type="KKS" mode="constant" value="&quot;00SAH43AA002&quot;"/> 
    <rt:dyn type="DATA_NARY" mode="constant" value="&quot;TYPE2&quot;"/> 
    <rt:dyn type="Operate" mode="constant" value="true"/> 
  </image>
  <polygon points="31.525,285.5 41.525,302.5 21.529,302.5" transform="flipX(518.835) flipX(399.833) rotate(90 93.3313 598.5)"/> 
  <line x1="779" y1="537.531" x2="629" y2="537.531" stroke="black" stroke-width="3"/> 
  <text x="833.054" y="555.667" fill="black" font-size="15" text-anchor="middle">00SAH43<tspan x="833.054" dy="15">AH001</tspan>
  </text>
  <image x="1013.45" y="432.818" width="130" height="130" xlink:href="ps_TempValve.svg">
    <title>00SAH43AH002</title>
  </image>
  <text x="1025.15" y="553.636" fill="black" font-size="15" text-anchor="middle">00SAH43<tspan x="1025.15" dy="15">AH002</tspan>
  </text>
  <polygon points="30.858,-60.504 40.858,-43.504 20.862,-43.504" transform="flipX(981.835) rotate(90 93.3313 598.5)"/> 
  <line x1="379" y1="473" x2="379" y2="773" stroke="black" stroke-width="3"/> 
  <polygon points="-32.1687,31.165 -22.1687,48.165 -42.1647,48.165" transform="flipX(519.5) flipX(244.5) flipX(399.833) rotate(90 93.3313 598.5)"/> 
  <line x1="1481.42" y1="773" x2="1479" y2="473" stroke="black" stroke-width="3"/> 
  <image x="504.67" y="402.125" width="65" height="25" xlink:href="DS_Reg_degree.svg">
    <title>00SBP34AA205</title>
    <rt:dyn type="KKS" mode="constant" value="&quot;00SBP34AA205&quot;"/> 
    <rt:dyn type="SIGNAL" mode="constant" value="&quot;XQ54&quot;"/> 
  </image>
  <image x="1245.67" y="402.125" width="65" height="25" xlink:href="DS_Reg_degree.svg">
    <title>00SBP34AA206</title>
    <rt:dyn type="KKS" mode="constant" value="&quot;00SBP34AA206&quot;"/> 
    <rt:dyn type="SIGNAL" mode="constant" value="&quot;XQ54&quot;"/> 
  </image>
  <polygon points="-32.1687,-266.165 -22.1687,-249.165 -42.1647,-249.165" transform="flipX(518.835) flipX(399.833) rotate(90 93.3313 598.5)"/> 
  <polygon points="124.948,-33.0469 134.948,-16.0469 114.952,-16.0469" transform="rotate(90 597.288 812.119) rotate(0 1.4013e-045 6.72692e-039) flipX(519.5) flipX(244.5) flipX(399.833) rotate(90 93.3313 598.5)"/> 
  <polygon points="-174.762,-30.6657 -164.762,-13.6657 -184.758,-13.6657" transform="rotate(90 597.288 812.119) rotate(0 1.4013e-045 6.72692e-039) flipX(519.5) flipX(244.5) flipX(399.833) rotate(90 93.3313 598.5)"/> 
  <polygon points="-576.095,-301.878 -566.095,-284.878 -586.091,-284.878" transform="flipY(677.288) rotate(90 597.288 812.119) rotate(0 1.4013e-045 6.72692e-039) flipX(519.5) flipX(244.5) flipX(399.833) rotate(90 93.3313 598.5)"/> 
  <polygon points="525.39,-308.09 535.39,-291.09 515.393,-291.09" transform="flipY(677.288) rotate(90 597.288 812.119) rotate(0 1.4013e-045 6.72692e-039) flipX(519.5) flipX(244.5) flipX(399.833) rotate(90 93.3313 598.5)"/> 
  <text x="1315" y="109" fill="black" font-size="15">Ðåæèì ðàáîòû 00SAH43</text>
  <rect x="1311" y="80" width="273.242" height="85.364" rx="0" ry="0" fill="none" stroke="black" stroke-width="2"/> 
  <image x="1316.56" y="122.788" width="181.818" height="24.2424" xlink:href="bitwise_tablo_4bits.svg">
    <title>00SAH43_XK92</title>
    <rt:dyn type="PointID_1" mode="constant" value="&quot;00SAH43_XK92&quot;"/> 
    <rt:dyn type="Text_0000" mode="constant" value="&quot;ÀÂÒÎÌÀÒÈ×ÅÑÊÈÉ&quot;"/> 
    <rt:dyn type="Color_0001" mode="constant" value="&quot;Col_Green&quot;"/> 
    <rt:dyn type="Text_0001" mode="constant" value="&quot;ÄÈÑÒÀÍÖÈÎÍÍÛÉ&quot;"/> 
    <rt:dyn type="Color_0000" mode="constant" value="&quot;Col_Green&quot;"/> 
  </image>
  <image x="1517.97" y="119.91" width="60" height="30" xlink:href="ps_tenzor_system.svg">
    <title>00SAH43</title>
    <rt:dyn type="KKS" mode="constant" value="&quot;00SAH43&quot;"/> 
  </image>
  <line x1="298" y1="433" x2="298" y2="433" stroke="black"/> 
  <line x1="592.727" y1="690.909" x2="592.727" y2="690.909" stroke="black"/> 
  <line x1="749.091" y1="939.091" x2="749.091" y2="939.091" stroke="black"/> 
  <line x1="638.182" y1="881.818" x2="638.182" y2="881.818" stroke="black"/> 
  <line x1="214.545" y1="692.727" x2="214.545" y2="692.727" stroke="black"/> 
  <line x1="259.091" y1="771.818" x2="259.091" y2="771.818" stroke="black"/> 
  <line x1="195.455" y1="720" x2="195.455" y2="720" stroke="black"/> 
  <line x1="186.364" y1="713.636" x2="186.364" y2="713.636" stroke="black"/> 
  <line x1="191.818" y1="715.455" x2="191.818" y2="715.455" stroke="black"/> 
  <line x1="985.455" y1="149.091" x2="985.455" y2="149.091" stroke="black"/> 
  <line x1="1150" y1="365" x2="1150" y2="365" stroke="black"/> 
  <line x1="1274" y1="337" x2="1274" y2="337" stroke="black"/> 
  <line x1="1029" y1="375" x2="1029" y2="375" stroke="black"/> 
  <line x1="1215.33" y1="421.333" x2="1215.33" y2="421.333" stroke="black"/> 
  <line x1="1007" y1="314.75" x2="1007" y2="314.75" stroke="black"/> 
  <line x1="1027.27" y1="820" x2="1027.27" y2="820" stroke="black"/> 
  <line x1="675" y1="65" x2="675" y2="65" stroke="black"/> 
  <line x1="1468" y1="294" x2="1468" y2="294" stroke="black"/> 
  <line x1="1066.67" y1="766" x2="1066.67" y2="766" stroke="black"/> 
  <line x1="328.303" y1="463.303" x2="328.303" y2="463.303" stroke="black"/> 
  <line x1="623.03" y1="721.212" x2="623.03" y2="721.212" stroke="black"/> 
  <line x1="779.394" y1="969.394" x2="779.394" y2="969.394" stroke="black"/> 
  <line x1="668.485" y1="912.121" x2="668.485" y2="912.121" stroke="black"/> 
  <line x1="244.848" y1="723.03" x2="244.848" y2="723.03" stroke="black"/> 
  <line x1="289.394" y1="802.121" x2="289.394" y2="802.121" stroke="black"/> 
  <line x1="225.758" y1="750.303" x2="225.758" y2="750.303" stroke="black"/> 
  <line x1="216.667" y1="743.939" x2="216.667" y2="743.939" stroke="black"/> 
  <line x1="222.121" y1="745.758" x2="222.121" y2="745.758" stroke="black"/> 
  <line x1="1015.76" y1="179.394" x2="1015.76" y2="179.394" stroke="black"/> 
  <line x1="1180.3" y1="395.303" x2="1180.3" y2="395.303" stroke="black"/> 
  <line x1="1304.3" y1="367.303" x2="1304.3" y2="367.303" stroke="black"/> 
  <line x1="1059.3" y1="405.303" x2="1059.3" y2="405.303" stroke="black"/> 
  <line x1="1245.63" y1="451.636" x2="1245.63" y2="451.636" stroke="black"/> 
  <line x1="1037.3" y1="345.053" x2="1037.3" y2="345.053" stroke="black"/> 
  <line x1="1057.57" y1="850.303" x2="1057.57" y2="850.303" stroke="black"/> 
  <line x1="705.303" y1="95.303" x2="705.303" y2="95.303" stroke="black"/> 
  <line x1="1498.3" y1="324.303" x2="1498.3" y2="324.303" stroke="black"/> 
  <line x1="1096.97" y1="796.303" x2="1096.97" y2="796.303" stroke="black"/> 
  <line x1="813.972" y1="881.759" x2="813.972" y2="881.759" stroke="black"/> 
  <line x1="440.303" y1="943.303" x2="440.303" y2="943.303" stroke="black"/> 
  <line x1="428.303" y1="902.303" x2="428.303" y2="902.303" stroke="black"/> 
  <line x1="871.303" y1="783.303" x2="871.303" y2="783.303" stroke="black"/> 
  <line x1="1426.3" y1="784.303" x2="1426.3" y2="784.303" stroke="black"/> 
  <line x1="1399.3" y1="828.303" x2="1399.3" y2="828.303" stroke="black"/> 
  <line x1="468.303" y1="1061.3" x2="468.303" y2="1061.3" stroke="black"/> 
  <line x1="449.303" y1="1063.3" x2="449.303" y2="1063.3" stroke="black"/> 
  <line x1="865.303" y1="736.303" x2="865.303" y2="736.303" stroke="black"/> 
  <line x1="285" y1="175.757" x2="285" y2="175.757" stroke="black"/> 
  <line x1="397.121" y1="922.726" x2="397.121" y2="922.726" stroke="black"/> 
  <text x="25" y="25" fill="black" font-size="15">04UYC 00CXV60 00SAH43</text>
  <line x1="1245.63" y1="636.303" x2="1245.63" y2="636.303" stroke="black"/> 
  <line x1="898.5" y1="174" x2="898.5" y2="72" stroke="black" stroke-width="3"/> 
  <polygon points="5.23828,-1032.09 15.2383,-1015.09 -4.75873,-1015.09" transform="flipY(791.5) flipY(677.288) rotate(90 597.288 812.119) rotate(0 1.4013e-045 6.72692e-039) flipX(519.5) flipX(244.5) flipX(399.833) rotate(90 93.3313 598.5)"/> 
  <line x1="1480" y1="474.5" x2="1284" y2="474.5" stroke="black" stroke-width="3"/> 
  <image x="1243" y="431.625" width="70" height="65" xlink:href="DS_Reg_valve_tenzor.svg">
    <title>00SBP34AA206</title>
    <rt:dyn type="DATA_NARY" mode="constant" value="&quot;TYPE2&quot;"/> 
    <rt:dyn type="Operate" mode="constant" value="true"/> 
    <rt:dyn type="KKS" mode="constant" value="&quot;00SBP34AA206&quot;"/> 
  </image>
  <line x1="904.379" y1="108.212" x2="904.379" y2="143.394" stroke="black" stroke-width="1"/> 
  <line x1="1055.55" y1="126.741" x2="905.549" y2="126.742" stroke="black" stroke-width="1"/> 
  <image x="926.666" y="114.242" width="175" height="25" xlink:href="DS_ana_tenzor.svg">
    <title>00SAH43CT003</title>
    <rt:dyn type="FKKS" mode="constant" value="&quot;00SAH43CT003&quot;"/> 
    <rt:dyn type="X" mode="constant" value="&quot;T&quot;"/> 
    <rt:dyn type="ShowFrame" mode="constant" value="true"/> 
    <rt:dyn type="ValueToTheRight" mode="constant" value="false"/> 
    <rt:dyn type="Color_Readings" mode="constant" value="true"/> 
  </image>
  <line x1="774.616" y1="347.53" x2="624.616" y2="347.531" stroke="black" stroke-width="1"/> 
  <line x1="774.622" y1="329.939" x2="774.62" y2="365.121" stroke="black" stroke-width="1"/> 
  <line x1="1086.59" y1="330.453" x2="1086.59" y2="365.635" stroke="black" stroke-width="1"/> 
  <line x1="1235.76" y1="348.044" x2="1085.76" y2="348.045" stroke="black" stroke-width="1"/> 
  <image x="1111.85" y="334.999" width="175" height="25" xlink:href="DS_ana_tenzor.svg">
    <title>00SAH43CT002</title>
    <rt:dyn type="FKKS" mode="constant" value="&quot;00SAH43CT002&quot;"/> 
    <rt:dyn type="X" mode="constant" value="&quot;T&quot;"/> 
    <rt:dyn type="ShowFrame" mode="constant" value="true"/> 
    <rt:dyn type="ValueToTheRight" mode="constant" value="false"/> 
    <rt:dyn type="Color_Readings" mode="constant" value="true"/> 
  </image>
  <polyline points="771.061,618.788 725.606,618.788 725.606,729.394 775.606,729.394" fill="none" stroke="black" stroke-dasharray="5,5"/> 
  <line x1="774.592" y1="600.606" x2="774.591" y2="635.788" stroke="black" stroke-width="1"/> 
  <line x1="774.592" y1="714.242" x2="774.591" y2="749.424" stroke="black" stroke-width="1"/> 
  <line x1="726.667" y1="672.258" x2="576.667" y2="672.259" stroke="black" stroke-width="1"/> 
  <image x="517.576" y="659.758" width="175" height="25" xlink:href="DS_ana_tenzor.svg">
    <title>00SAH43CP001</title>
    <rt:dyn type="FKKS" mode="constant" value="&quot;00SAH43CP001&quot;"/> 
    <rt:dyn type="X" mode="constant" value="&quot;dP&quot;"/> 
    <rt:dyn type="ShowFrame" mode="constant" value="true"/> 
    <rt:dyn type="ValueToTheRight" mode="constant" value="false"/> 
    <rt:dyn type="Color_Readings" mode="constant" value="true"/> 
  </image>
  <polyline points="445.956,616 396.252,616 396.252,726.349 446.252,726.349" fill="none" stroke="black" stroke-dasharray="5,5" transform="flipX(764.978)"/> 
  <line x1="1083.74" y1="596.061" x2="1083.74" y2="631.243" stroke="black" stroke-width="1"/> 
  <line x1="1083.74" y1="709.697" x2="1083.74" y2="744.879" stroke="black" stroke-width="1"/> 
  <line x1="1283.24" y1="671.834" x2="1133.24" y2="671.835" stroke="black" stroke-width="1"/> 
  <line x1="532.698" y1="720.682" x2="382.697" y2="720.682" stroke="black" stroke-width="1"/> 
  <line x1="383.228" y1="703.636" x2="383.227" y2="738.818" stroke="black" stroke-width="1"/> 
  <image x="410" y="708.182" width="175" height="25" xlink:href="DS_ana_tenzor.svg">
    <title>00SBP34CT005</title>
    <rt:dyn type="FKKS" mode="constant" value="&quot;00SBP34CT005&quot;"/> 
    <rt:dyn type="X" mode="constant" value="&quot;T&quot;"/> 
    <rt:dyn type="ShowFrame" mode="constant" value="true"/> 
    <rt:dyn type="ValueToTheRight" mode="constant" value="false"/> 
    <rt:dyn type="Color_Readings" mode="constant" value="true"/> 
  </image>
  <line x1="1476.15" y1="711.076" x2="1326.15" y2="711.077" stroke="black" stroke-width="1"/> 
  <line x1="1475.68" y1="694.545" x2="1475.68" y2="729.727" stroke="black" stroke-width="1"/> 
  <image x="1163.55" y="657.697" width="175" height="25" xlink:href="DS_ana_tenzor.svg">
    <title>00SAH43CP002</title>
    <rt:dyn type="FKKS" mode="constant" value="&quot;00SAH43CP002&quot;"/> 
    <rt:dyn type="X" mode="constant" value="&quot;dP&quot;"/> 
    <rt:dyn type="ShowFrame" mode="constant" value="true"/> 
    <rt:dyn type="ValueToTheRight" mode="constant" value="false"/> 
    <rt:dyn type="Color_Readings" mode="constant" value="true"/> 
  </image>
  <image x="573.121" y="334.484" width="175" height="25" xlink:href="DS_ana_tenzor.svg">
    <title>00SAH43CT001</title>
    <rt:dyn type="FKKS" mode="constant" value="&quot;00SAH43CT001&quot;"/> 
    <rt:dyn type="X" mode="constant" value="&quot;T&quot;"/> 
    <rt:dyn type="ShowFrame" mode="constant" value="true"/> 
    <rt:dyn type="ValueToTheRight" mode="constant" value="false"/> 
    <rt:dyn type="Color_Readings" mode="constant" value="true"/> 
  </image>
  <image x="1282.21" y="698.576" width="175" height="25" xlink:href="DS_ana_tenzor.svg">
    <title>00SBP34CT006</title>
    <rt:dyn type="FKKS" mode="constant" value="&quot;00SBP34CT006&quot;"/> 
    <rt:dyn type="X" mode="constant" value="&quot;T&quot;"/> 
    <rt:dyn type="ShowFrame" mode="constant" value="true"/> 
    <rt:dyn type="ValueToTheRight" mode="constant" value="false"/> 
    <rt:dyn type="Color_Readings" mode="constant" value="true"/> 
  </image>
  <line x1="780" y1="474" x2="550" y2="474" stroke="black" stroke-width="3"/> 
  <image x="502" y="431.625" width="70" height="65" xlink:href="DS_Reg_valve_tenzor.svg">
    <title>00SBP34AA205</title>
    <rt:dyn type="DATA_NARY" mode="constant" value="&quot;TYPE2&quot;"/> 
    <rt:dyn type="Operate" mode="constant" value="true"/> 
    <rt:dyn type="KKS" mode="constant" value="&quot;00SBP34AA205&quot;"/> 
  </image>
  <image x="713.304" y="432.667" width="130" height="130" xlink:href="ps_TempValve.svg">
    <title>00SAH43AH001</title>
  </image>
  <text x="468" y="450" fill="black" font-size="15" text-anchor="middle">00SBP34<tspan x="468" dy="15">AA205</tspan>
  </text>
  <text x="1346" y="450" fill="black" font-size="15" text-anchor="middle">00SBP34<tspan x="1346" dy="15">AA206</tspan>
  </text>
  <image x="485.273" y="367.788" width="100" height="30" xlink:href="DS_Reg_set.svg">
    <title>&quot;00SBP34AA205&quot;</title>
    <rt:dyn type="KKS" mode="constant" value="&quot;00SBP34AA203&quot;"/> 
    <rt:dyn type="DATA_NARY" mode="constant" value="&quot;TYPE2&quot;"/> 
    <rt:dyn type="Operate" mode="constant" value="true"/> 
    <rt:dyn type="ShowGoodColor" mode="constant" value="true"/> 
  </image>
  <image x="1225.15" y="367.242" width="100" height="30" xlink:href="DS_Reg_set.svg">
    <title>&quot;00SBP34AA205&quot;</title>
    <rt:dyn type="KKS" mode="constant" value="&quot;00SBP34AA203&quot;"/> 
    <rt:dyn type="DATA_NARY" mode="constant" value="&quot;TYPE2&quot;"/> 
    <rt:dyn type="Operate" mode="constant" value="true"/> 
    <rt:dyn type="ShowGoodColor" mode="constant" value="true"/> 
  </image>
</svg>
