<?xml  version="1.0" encoding="UTF-8"?>
<svg color="Col_BGSand" xmlns="http://www.w3.org/2000/svg" xmlns:rt="http://www.rts.co.at/2001/XMLSchema/RtSvgPL" xmlns:xlink="http://www.w3.org/1999/xlink" xmlns:xsi="http://www.w3.org/2001/XMLSchema-instance" xsi:schemaLocation="http://www.w3.org/2000/svg C:\RTS\RtSvg\XML\SVG.xsd" viewBox="0 0 1920 1080" width="1920" height="1080" id="00sab31">
  <rt:model modelversion="7.2.0.24" revision="1"/> 
  <text x="25" y="25" font-size="15">00UYB 00CXV11GH003 00SAB31</text>
  <line x1="675.731" y1="598.091" x2="675.731" y2="532.729" stroke="black" stroke-width="3"/> 
  <line x1="923.636" y1="463.636" x2="923.636" y2="367.864" stroke="black" stroke-width="3"/> 
  <text x="746.598" y="372.482" fill="black" font-size="15" text-anchor="middle">00SAB31<tspan x="746.598" dy="15">AN001</tspan>
  </text>
  <line x1="657.598" y1="311.197" x2="909.098" y2="312.197" stroke="black" stroke-width="3"/> 
  <line x1="781.885" y1="309.893" x2="782.08" y2="260.606" stroke="black" stroke-width="3"/> 
  <polygon points="-501.025,386.784 -491.025,403.784 -511.025,403.784" transform="rotate(210 453.5 42.9997) rotate(90 31.3333 552.5) rotate(0 1.4013e-045 3.14533e-039) flipY(460.5)"/> 
  <line x1="907.779" y1="364.833" x2="907.779" y2="311.637" stroke="black" stroke-width="3"/> 
  <image x="887.433" y="340.054" width="70" height="70" xlink:href="DS_motor_tenzor.svg" transform="rotate(270 0 0)">
    <title>00SAB31AN002</title>
    <rt:dyn type="KKS" mode="constant" value="&quot;00SAB31AN002&quot;"/> 
    <rt:dyn type="DATA_NARY" mode="constant" value="&quot;TYPE2&quot;"/> 
    <rt:dyn type="Operate" mode="constant" value="true"/> 
    <rt:dyn type="DeviceType" mode="constant" value="&quot;fan&quot;"/> 
  </image>
  <text x="996.223" y="372.482" fill="black" font-size="15" text-anchor="middle">00SAB31<tspan x="996.223" dy="15">AN002</tspan>
  </text>
  <line x1="927" y1="596" x2="676.121" y2="596" stroke="black" stroke-width="3"/> 
  <polygon points="-817.592,177.457 -807.592,194.457 -827.592,194.457" transform="rotate(210 453.5 42.9997) rotate(90 31.3333 552.5) rotate(0 1.4013e-045 3.14533e-039) flipY(460.5)"/> 
  <line x1="805.133" y1="629.728" x2="805.133" y2="596.27" stroke="black" stroke-width="3"/> 
  <image x="45.8035" y="156" width="181.818" height="24.2424" xlink:href="bitwise_tablo_4bits.svg">
    <title>00SAB31_XK92</title>
    <rt:dyn type="PointID_1" mode="constant" value="&quot;00SAB31_XK92&quot;"/> 
    <rt:dyn type="Text_0000" mode="constant" value="&quot;ÀÂÒÎÌÀÒÈ×ÅÑÊÈÉ&quot;"/> 
    <rt:dyn type="Color_0001" mode="constant" value="&quot;Col_Green&quot;"/> 
    <rt:dyn type="Text_0001" mode="constant" value="&quot;ÄÈÑÒÀÍÖÈÎÍÍÛÉ&quot;"/> 
    <rt:dyn type="Color_0000" mode="constant" value="&quot;Col_Green&quot;"/> 
  </image>
  <text x="76.2375" y="137.17" fill="black" font-size="15">Ðåæèì ðàáîòû 00SAB31</text>
  <rect x="35.2425" y="115.242" width="275.758" height="81.8182" rx="0" ry="0" fill="none" stroke="black" stroke-width="2"/> 
  <image x="235.309" y="153.121" width="60" height="30" xlink:href="ps_tenzor_system.svg">
    <title>00SAB31</title>
    <rt:dyn type="KKS" mode="constant" value="&quot;00SAB31&quot;"/> 
  </image>
  <image x="701.143" y="319.379" width="181.818" height="24.2424" xlink:href="bitwise_tablo_4bits.svg">
    <title>00SAB31AN001002</title>
    <rt:dyn type="PointID_1" mode="constant" value="&quot;00SAB31AN001002_Z0 0&quot;"/> 
    <rt:dyn type="Text_0001" mode="constant" value="&quot;ÀÂÐ ÍÅ ÃÎÒÎÂ&quot;"/> 
    <rt:dyn type="Text_0000" mode="constant" value="&quot;ÀÂÐ ÄÈÑÒ&quot;"/> 
    <rt:dyn type="Color_0010" mode="constant" value="&quot;Col_Yellow&quot;"/> 
    <rt:dyn type="Color_0001" mode="constant" value="&quot;Col_Green&quot;"/> 
    <rt:dyn type="Text_0010" mode="constant" value="&quot;ÀÂÐ ÃÎÒÎÂ&quot;"/> 
    <rt:dyn type="PointID_2" mode="constant" value="&quot;00SAB31AN001002_Z0 1&quot;"/> 
    <rt:dyn type="PointID_3" mode="constant" value="&quot;00SAB31AN001002_Z0 2&quot;"/> 
    <rt:dyn type="PointID_4" mode="constant" value="&quot;00SAB31AN001002_Z0 3&quot;"/> 
    <rt:dyn type="Text_0100" mode="constant" value="&quot;ÀÂÐ ÑÐÀÁÎÒÀË&quot;"/> 
    <rt:dyn type="Color_0100" mode="constant" value="&quot;Col_Red&quot;"/> 
    <rt:dyn type="Color_0000" mode="constant" value="&quot;Col_Grey3&quot;"/> 
  </image>
  <polyline points="954.74,878.049 1004.74,878.049 1004.24,928.05 954.74,927.55 954.74,878.049" fill="Col_BGSand" stroke="black" stroke-width="3" transform="rotate(44.0618 1325.51 325.508)"/> 
  <text x="730.894" y="528.402" fill="black" font-size="15" text-anchor="middle">00KLS31<tspan x="730.894" dy="15">AT001</tspan>
  </text>
  <line x1="643.602" y1="500.197" x2="712.602" y2="500.197" stroke="black" stroke-dasharray="5,5"/> 
  <line x1="603.727" y1="542.122" x2="666.602" y2="541.697" stroke="black" stroke-width="1"/> 
  <line x1="604.612" y1="458.697" x2="665.612" y2="458.197" stroke="black" stroke-width="1"/> 
  <line x1="604.394" y1="458.122" x2="604.394" y2="541.788" stroke="black" stroke-width="1"/> 
  <line x1="667.102" y1="451.197" x2="667.102" y2="465.197" stroke="black" stroke-width="1"/> 
  <line x1="667.102" y1="533.697" x2="667.102" y2="548.197" stroke="black" stroke-width="1"/> 
  <line x1="604.602" y1="500.409" x2="575.394" y2="500.409" stroke="black" stroke-width="1"/> 
  <image x="400.394" y="487.788" width="175" height="25" xlink:href="DS_ana_tenzor.svg">
    <title>00SAB31CP001</title>
    <rt:dyn type="FKKS" mode="constant" value="&quot;00SAB31CP001&quot;"/> 
    <rt:dyn type="X" mode="constant" value="&quot;P&quot;"/> 
    <rt:dyn type="ShowFrame" mode="constant" value="true"/> 
    <rt:dyn type="ValueToTheRight" mode="constant" value="false"/> 
    <rt:dyn type="Color_Readings" mode="constant" value="true"/> 
  </image>
  <polyline points="1131.55,702.718 1181.55,702.718 1181.05,752.718 1131.55,752.218 1131.55,702.718" fill="Col_BGSand" stroke="black" stroke-width="3" transform="rotate(44.0618 1325.51 325.508)"/> 
  <line x1="892.586" y1="497.167" x2="961.586" y2="497.167" stroke="black" stroke-dasharray="5,5"/> 
  <line x1="933.787" y1="447.167" x2="933.787" y2="461.167" stroke="black" stroke-width="1"/> 
  <line x1="933.787" y1="530.667" x2="933.787" y2="545.167" stroke="black" stroke-width="1"/> 
  <line x1="933.821" y1="537.137" x2="996.696" y2="536.712" stroke="black" stroke-width="1"/> 
  <line x1="934.706" y1="453.712" x2="995.706" y2="453.212" stroke="black" stroke-width="1"/> 
  <line x1="996.439" y1="453.303" x2="996.439" y2="536.969" stroke="black" stroke-width="1"/> 
  <line x1="1026.67" y1="493.091" x2="997.458" y2="493.091" stroke="black" stroke-width="1"/> 
  <image x="1015.64" y="480.47" width="175" height="25" xlink:href="DS_ana_tenzor.svg">
    <title>00SAB31CP002</title>
    <rt:dyn type="FKKS" mode="constant" value="&quot;00SAB31CP002&quot;"/> 
    <rt:dyn type="X" mode="constant" value="&quot;P&quot;"/> 
    <rt:dyn type="ShowFrame" mode="constant" value="true"/> 
    <rt:dyn type="ValueToTheRight" mode="constant" value="false"/> 
    <rt:dyn type="Color_Readings" mode="constant" value="true"/> 
  </image>
  <text x="869.848" y="528.402" fill="black" font-size="15" text-anchor="middle">00KLS31<tspan x="869.848" dy="15">AT002</tspan>
  </text>
  <line x1="658.47" y1="363.484" x2="658.47" y2="310.288" stroke="black" stroke-width="3"/> 
  <line x1="675.136" y1="465.151" x2="675.136" y2="369.379" stroke="black" stroke-width="3"/> 
  <image x="638.273" y="340.054" width="70" height="70" xlink:href="DS_motor_tenzor.svg" transform="rotate(270 0 0)">
    <title>00SAB31AN001</title>
    <rt:dyn type="KKS" mode="constant" value="&quot;00SAB31AN001&quot;"/> 
    <rt:dyn type="DATA_NARY" mode="constant" value="&quot;TYPE2&quot;"/> 
    <rt:dyn type="Operate" mode="constant" value="true"/> 
    <rt:dyn type="DeviceType" mode="constant" value="&quot;fan&quot;"/> 
  </image>
  <g transform="rotate(360 609.241 429.584) scale(0.765552 0.765552 609.241 429.584)">
    <rect x="667.139" y="596.085" width="66.8757" height="34.9577" rx="0" ry="0" fill="Col_BGSand" stroke="black"/> 
    <polygon points="703.06,596.255 667.96,630.865 698.799,630.615 733.22,596.265" fill="Col_Grey2" stroke="black"/> 
  </g>
  <line x1="924.894" y1="595.756" x2="924.894" y2="530.394" stroke="black" stroke-width="3"/> 
  <g transform="rotate(360 609.241 429.584) scale(0.765552 0.765552 609.241 429.584)">
    <rect x="989.742" y="598.065" width="66.8757" height="34.9577" rx="0" ry="0" fill="Col_BGSand" stroke="black"/> 
    <polygon points="1025.66,598.235 990.563,632.845 1021.4,632.595 1055.82,598.245" fill="Col_Grey2" stroke="black"/> 
  </g>
  <image x="590.045" y="410.197" width="160" height="30" xlink:href="ps_tenzor_m0.svg">
    <title>00SAB31AN001</title>
    <rt:dyn type="KKS" mode="constant" value="&quot;00SAB31AN001&quot;"/> 
  </image>
  <image x="841.061" y="410.197" width="160" height="30" xlink:href="ps_tenzor_m0.svg">
    <title>00SAB31AN002</title>
    <rt:dyn type="KKS" mode="constant" value="&quot;00SAB31AN002&quot;"/> 
  </image>
</svg>
