<?xml  version="1.0" encoding="UTF-8"?>
<svg color="Col_BGSand" xmlns="http://www.w3.org/2000/svg" xmlns:rt="http://www.rts.co.at/2001/XMLSchema/RtSvgPL" xmlns:xlink="http://www.w3.org/1999/xlink" xmlns:xsi="http://www.w3.org/2001/XMLSchema-instance" xsi:schemaLocation="http://www.w3.org/2000/svg C:\RTS\RtSvg\XML\SVG.xsd" viewBox="0 0 1920 1080" width="1920" height="1080" id="00sat72_87">
  <rt:model modelversion="7.2.0.24" revision="1"/> 
  <text x="25" y="25" font-size="15">00UST 00CXV13 00SAT72 / 00SAT87</text>
  <rect x="37.5152" y="48.5758" width="285.364" height="85.3637" rx="0" ry="0" fill="Col_BGSand" stroke="black" stroke-width="2"/> 
  <text x="56.8852" y="72.6668" fill="black" font-size="15">Режим работы 00SAT72</text>
  <image x="50.4551" y="96.0608" width="181.818" height="24.2424" xlink:href="bitwise_tablo_4bits.svg">
    <title>00SAT72_XK92</title>
    <rt:dyn type="PointID_1" mode="constant" value="&quot;00SAT72_XK92&quot;"/> 
    <rt:dyn type="Text_0000" mode="constant" value="&quot;АВТОМАТИЧЕСКИЙ&quot;"/> 
    <rt:dyn type="Color_0001" mode="constant" value="&quot;Col_Green&quot;"/> 
    <rt:dyn type="Text_0001" mode="constant" value="&quot;ДИСТАНЦИОННЫЙ&quot;"/> 
    <rt:dyn type="Color_0000" mode="constant" value="&quot;Col_Green&quot;"/> 
  </image>
  <image x="249.185" y="90.4848" width="60" height="30" xlink:href="ps_tenzor_system.svg">
    <title>00SAT72</title>
    <rt:dyn type="KKS" mode="constant" value="&quot;00SAT72&quot;"/> 
  </image>
  <polygon points="-1167.93,177.084 -1157.93,194.084 -1177.93,194.084" transform="rotate(210 453.5 42.9997) rotate(90 31.3333 552.5) rotate(0 1.4013e-045 3.14533e-039) flipY(460.5)"/> 
  <line x1="615.273" y1="358.182" x2="615.273" y2="186.97" stroke="black" stroke-width="3"/> 
  <g transform="flipX(25.3379)">
    <line x1="-647.269" y1="883.819" x2="-586.269" y2="883.819" stroke="black" stroke-width="1"/> 
    <line x1="-585.279" y1="876.319" x2="-585.279" y2="890.319" stroke="black" stroke-width="1"/> 
  </g>
  <text x="559.243" y="344.924" fill="black" font-size="15" text-anchor="middle">00SAT72<tspan x="559.243" dy="15">AN001</tspan>
  </text>
  <g transform="rotate(0 609.241 429.584) scale(0.765552 0.765552 609.241 429.584)">
    <rect x="582.035" y="206.19" width="66.8757" height="34.9577" rx="0" ry="0" fill="Col_BGSand" stroke="black"/> 
    <polygon points="617.955,206.359 582.845,240.965 613.695,240.715 648.115,206.369" fill="Col_Grey2" stroke="black"/> 
  </g>
  <line x1="631.939" y1="943.546" x2="631.939" y2="336.97" stroke="black" stroke-width="3"/> 
  <image x="596.077" y="321.876" width="70" height="70" xlink:href="DS_motor_tenzor.svg" transform="rotate(270 0 0)">
    <title>00SAT72AN001</title>
    <rt:dyn type="KKS" mode="constant" value="&quot;00SAT72AN001&quot;"/> 
    <rt:dyn type="DATA_NARY" mode="constant" value="&quot;TYPE2&quot;"/> 
    <rt:dyn type="Operate" mode="constant" value="true"/> 
    <rt:dyn type="DeviceType" mode="constant" value="&quot;fan&quot;"/> 
  </image>
  <polyline points="1055.44,1044.86 1105.44,1044.86 1104.94,1094.86 1055.44,1094.36 1055.44,1044.86" fill="Col_BGSand" stroke="black" stroke-width="3" transform="rotate(44.0618 1325.51 325.508)"/> 
  <text x="685" y="720.743" fill="black" font-size="15" text-anchor="middle">00SAT72<tspan x="685" dy="15">AT001</tspan>
  </text>
  <line x1="599.954" y1="690.111" x2="668.954" y2="690.111" stroke="black"/> 
  <text x="710.727" y="815.924" fill="black" font-size="15" text-anchor="middle">00SAT72<tspan x="710.727" dy="15">AA001</tspan>
  </text>
  <image x="600.248" y="795.924" width="70" height="45" xlink:href="DS_pivot_valve_tenzor.svg">
    <title>00SAT72AA001</title>
    <rt:dyn type="KKS" mode="constant" value="&quot;00SAT72AA001&quot;"/> 
    <rt:dyn type="DATA_NARY" mode="constant" value="&quot;TYPE2&quot;"/> 
    <rt:dyn type="Operate" mode="constant" value="true"/> 
  </image>
  <image x="655.152" y="871.197" width="174.242" height="24.2424" xlink:href="DS_ana_tenzor.svg">
    <title>00SAT72CT001</title>
    <rt:dyn type="FKKS" mode="constant" value="&quot;00SAT72CT001&quot;"/> 
    <rt:dyn type="X" mode="constant" value="&quot;T&quot;"/> 
    <rt:dyn type="ShowFrame" mode="constant" value="true"/> 
    <rt:dyn type="ValueToTheRight" mode="constant" value="false"/> 
    <rt:dyn type="Color_Readings" mode="constant" value="true"/> 
  </image>
  <line x1="631.454" y1="548.091" x2="103.151" y2="548.091" stroke="black" stroke-width="3"/> 
  <line x1="632" y1="478" x2="179.818" y2="478" stroke="black" stroke-width="3"/> 
  <text x="577.424" y="564.621" fill="black" font-size="15" text-anchor="middle">00SAT72<tspan x="577.424" dy="15">AH001</tspan>
  </text>
  <polygon points="26.8332,1234.11 36.8332,1251.11 16.8332,1251.11" transform="flipX(503.622) rotate(90 31.3333 552.5) rotate(0 1.4013e-045 3.14533e-039) flipY(460.5)"/> 
  <line x1="153.153" y1="477.53" x2="95.5779" y2="477.53" stroke="black" stroke-width="3"/> 
  <image x="126.711" y="405.246" width="65" height="25" xlink:href="DS_Reg_degree.svg">
    <title>00SBU30AA215</title>
    <rt:dyn type="KKS" mode="constant" value="&quot;00SBU30AA215&quot;"/> 
    <rt:dyn type="SIGNAL" mode="constant" value="&quot;XQ54&quot;"/> 
  </image>
  <polygon points="-43.3691,336.527 -33.3691,353.527 -53.3691,353.527" transform="flipX(169.258) flipX(122.287) rotate(90 31.3333 552.5) rotate(0 1.4013e-045 3.14533e-039) flipY(460.5)"/> 
  <image x="124.211" y="434.489" width="70" height="65" xlink:href="DS_Reg_valve_tenzor.svg">
    <title>00SBU30AA215</title>
    <rt:dyn type="DATA_NARY" mode="constant" value="&quot;TYPE2&quot;"/> 
    <rt:dyn type="Operate" mode="constant" value="true"/> 
    <rt:dyn type="KKS" mode="constant" value="&quot;00SBU30AA215&quot;"/> 
  </image>
  <image x="331.818" y="440.485" width="70" height="70" xlink:href="DS_motor_tenzor.svg" transform="rotate(180 0 0)">
    <title>00SBU30AP015</title>
    <rt:dyn type="KKS" mode="constant" value="&quot;00SBU30AP015&quot;"/> 
    <rt:dyn type="DATA_NARY" mode="constant" value="&quot;TYPE2&quot;"/> 
    <rt:dyn type="Operate" mode="constant" value="true"/> 
  </image>
  <text x="159.211" y="504.121" fill="black" font-size="15" text-anchor="middle">00SBU30<tspan x="159.211" dy="15">AA215</tspan>
  </text>
  <text x="366.818" y="429.364" fill="black" font-size="15" text-anchor="middle">00SBU30<tspan x="366.818" dy="15">AP015</tspan>
  </text>
  <polyline points="393.545,395.015 557.544,395.015 557.544,471.788" fill="none" stroke="black"/> 
  <line x1="400.666" y1="334.016" x2="400.666" y2="348.016" stroke="black" stroke-width="1" transform="rotate(90 414.288 484.879)"/> 
  <image x="367.788" y="382.394" width="175" height="25" xlink:href="DS_ana_tenzor.svg">
    <title>00SAT72CT002</title>
    <rt:dyn type="FKKS" mode="constant" value="&quot;00SAT72CT002&quot;"/> 
    <rt:dyn type="X" mode="constant" value="&quot;T&quot;"/> 
    <rt:dyn type="ShowFrame" mode="constant" value="true"/> 
    <rt:dyn type="ValueToTheRight" mode="constant" value="false"/> 
    <rt:dyn type="Color_Readings" mode="constant" value="true"/> 
  </image>
  <image x="568.303" y="448.091" width="130" height="128.857" xlink:href="ps_TempValve.svg">
    <title>00SAT72AH001</title>
  </image>
  <g transform="flipX(25.3379)">
    <line x1="-632.148" y1="218.773" x2="-571.148" y2="218.773" stroke="black" stroke-width="1"/> 
    <line x1="-570.158" y1="211.273" x2="-570.158" y2="225.273" stroke="black" stroke-width="1"/> 
  </g>
  <image x="640.031" y="206.152" width="174.242" height="24.2424" xlink:href="DS_ana_tenzor.svg">
    <title>00SAT72CT003</title>
    <rt:dyn type="FKKS" mode="constant" value="&quot;00SAT72CT003&quot;"/> 
    <rt:dyn type="X" mode="constant" value="&quot;T&quot;"/> 
    <rt:dyn type="ShowFrame" mode="constant" value="true"/> 
    <rt:dyn type="ValueToTheRight" mode="constant" value="false"/> 
    <rt:dyn type="Color_Readings" mode="constant" value="true"/> 
  </image>
  <text x="603.94" y="137.349" fill="black" font-size="15" text-anchor="middle">К вытяжным вентиляторам<tspan x="603.94" dy="15">00SAT44,  кондиц.00SAT87</tspan>
  </text>
  <text x="49.8485" y="482.798" fill="black" font-size="15" text-anchor="middle">00SBU30</text>
  <text x="49.8486" y="553" fill="black" font-size="15" text-anchor="middle">00SBU30</text>
  <polygon points="-520.456,568.926 -510.456,585.926 -530.456,585.926" transform="rotate(210 453.5 42.9997) rotate(90 31.3333 552.5) rotate(0 1.4013e-045 3.14533e-039) flipY(460.5)"/> 
  <line x1="1087.51" y1="455.152" x2="1087.51" y2="333.949" stroke="black" stroke-width="3"/> 
  <polygon points="-411.242,85.823 -401.242,102.823 -421.242,102.823" transform="rotate(210 453.5 42.9997) rotate(90 31.3333 552.5) rotate(0 1.4013e-045 3.14533e-039) flipY(460.5)"/> 
  <polygon points="-517.528,24.4587 -507.528,41.4589 -527.528,41.4589" transform="rotate(210 453.5 42.9997) rotate(90 31.3333 552.5) rotate(0 1.4013e-045 3.14533e-039) flipY(460.5)"/> 
  <rect x="935.5" y="411.213" width="696.47" height="363.635" rx="0" ry="0" fill="none" stroke="black"/> 
  <line x1="988.547" y1="873.334" x2="988.547" y2="752.131" stroke="black" stroke-width="3"/> 
  <polygon points="-822.882,-37.5599 -812.882,-20.5599 -832.882,-20.5599" transform="rotate(210 453.5 42.9997) rotate(90 31.3333 552.5) rotate(0 1.4013e-045 3.14533e-039) flipY(460.5)"/> 
  <polygon points="-929.166,-98.9231 -919.166,-81.923 -939.166,-81.923" transform="rotate(210 453.5 42.9997) rotate(90 31.3333 552.5) rotate(0 1.4013e-045 3.14533e-039) flipY(460.5)"/> 
  <line x1="1062" y1="632" x2="993" y2="632" stroke="black" stroke-width="3"/> 
  <polygon points="110.833,1125.25 120.833,1142.25 100.833,1142.25" transform="flipX(945.015) flipX(169.258) flipX(122.287) rotate(90 31.3333 552.5) rotate(0 1.4013e-045 3.14533e-039) flipY(460.5)"/> 
  <polygon points="92.8329,994.255 102.833,1011.26 82.8333,1011.26" transform="flipX(945.015) flipX(169.258) flipX(122.287) rotate(90 31.3333 552.5) rotate(0 1.4013e-045 3.14533e-039) flipY(460.5)"/> 
  <rect x="4.697" y="35.4546" width="834.848" height="927.273" rx="0" ry="0" fill="none" stroke="black" stroke-dasharray="15,5"/> 
  <image x="1197.12" y="502.121" width="174.242" height="24.2424" xlink:href="DS_ana_tenzor.svg">
    <title>00SAT87CT001</title>
    <rt:dyn type="FKKS" mode="constant" value="&quot;00SAT87CT001&quot;"/> 
    <rt:dyn type="X" mode="constant" value="&quot;T&quot;"/> 
    <rt:dyn type="ShowFrame" mode="constant" value="true"/> 
    <rt:dyn type="ValueToTheRight" mode="constant" value="false"/> 
    <rt:dyn type="Color_Readings" mode="constant" value="true"/> 
  </image>
  <line x1="372.939" y1="-200.469" x2="372.939" y2="-176.224" stroke="black" stroke-width="3" transform="rotate(90 414.288 484.879)"/> 
  <rect x="861.258" y="35.9546" width="827.273" height="927.273" rx="0" ry="0" fill="none" stroke="black" stroke-dasharray="15,5"/> 
  <rect x="890.545" y="53.1212" width="285.364" height="85.3637" rx="0" ry="0" fill="Col_BGSand" stroke="black" stroke-width="2"/> 
  <text x="909.915" y="77.2122" fill="black" font-size="15">Режим работы 00SAT87</text>
  <image x="903.485" y="100.606" width="181.818" height="24.2424" xlink:href="bitwise_tablo_4bits.svg">
    <title>00SAT87_XK92</title>
    <rt:dyn type="PointID_1" mode="constant" value="&quot;00SAT87_XK92&quot;"/> 
    <rt:dyn type="Text_0000" mode="constant" value="&quot;АВТОМАТИЧЕСКИЙ&quot;"/> 
    <rt:dyn type="Color_0001" mode="constant" value="&quot;Col_Green&quot;"/> 
    <rt:dyn type="Text_0001" mode="constant" value="&quot;ДИСТАНЦИОННЫЙ&quot;"/> 
    <rt:dyn type="Color_0000" mode="constant" value="&quot;Col_Green&quot;"/> 
  </image>
  <image x="1102.22" y="95.0302" width="60" height="30" xlink:href="ps_tenzor_system.svg">
    <title>00SAT87</title>
    <rt:dyn type="KKS" mode="constant" value="&quot;00SAT87&quot;"/> 
  </image>
  <text x="1087.27" y="294.924" fill="black" font-size="15" text-anchor="middle">К вытяжным вентиляторам<tspan x="1087.27" dy="15">00SAT44</tspan>
  </text>
  <text x="988.788" y="897.576" fill="black" font-size="15" text-anchor="middle">От приточной установки<tspan x="988.788" dy="15">00SAT72</tspan>
  </text>
  <text x="744.091" y="73.3334" fill="black" font-size="15" font-weight="bold" text-anchor="middle">00SAT72</text>
  <text x="1589.55" y="75.2273" fill="black" font-size="15" font-weight="bold" text-anchor="middle">00SAT87</text>
  <text x="556.212" y="868.652" fill="black" font-size="15" text-anchor="middle">00SAT72<tspan x="556.212" dy="15">AA001E</tspan>
  </text>
  <image x="522.878" y="783.424" width="70" height="70" xlink:href="DS_motor_rect_tenzor.svg">
    <title>00SAT72AA001E</title>
    <rt:dyn type="KKS" mode="constant" value="&quot;00SAT72AA001E&quot;"/> 
    <rt:dyn type="DATA_NARY" mode="constant" value="&quot;TYPE2&quot;"/> 
    <rt:dyn type="Operate" mode="constant" value="&quot;true&quot;"/> 
  </image>
  <image x="1195.61" y="708.182" width="181.818" height="24.2424" xlink:href="bitwise_tablo_4bits.svg">
    <title>00SAT87AH001002</title>
    <rt:dyn type="PointID_1" mode="constant" value="&quot;00SAT87AH001002_Z0 0&quot;"/> 
    <rt:dyn type="Text_0001" mode="constant" value="&quot;АВР НЕ ГОТОВ&quot;"/> 
    <rt:dyn type="Text_0000" mode="constant" value="&quot;АВР ДИСТ&quot;"/> 
    <rt:dyn type="Color_0010" mode="constant" value="&quot;Col_Yellow&quot;"/> 
    <rt:dyn type="Color_0001" mode="constant" value="&quot;Col_Green&quot;"/> 
    <rt:dyn type="Text_0010" mode="constant" value="&quot;АВР ГОТОВ&quot;"/> 
    <rt:dyn type="PointID_2" mode="constant" value="&quot;00SAT87AH001002_Z0 1&quot;"/> 
    <rt:dyn type="PointID_3" mode="constant" value="&quot;00SAT87AH001002_Z0 2&quot;"/> 
    <rt:dyn type="PointID_4" mode="constant" value="&quot;00SAT87AH001002_Z0 3&quot;"/> 
    <rt:dyn type="Text_0100" mode="constant" value="&quot;АВР СРАБОТАЛ&quot;"/> 
    <rt:dyn type="Color_0100" mode="constant" value="&quot;Col_Red&quot;"/> 
    <rt:dyn type="Color_0000" mode="constant" value="&quot;Col_Grey3&quot;"/> 
  </image>
  <text x="1062.27" y="576.364" fill="black" font-size="15" text-anchor="middle">00SAT87<tspan x="1062.27" dy="15">AH001</tspan>
  </text>
  <text x="1487.5" y="576.227" fill="black" font-size="15" text-anchor="middle">00SAT87<tspan x="1487.5" dy="15">AN002</tspan>
  </text>
  <image x="724.773" y="451.606" width="25" height="25" xlink:href="bin_indicator.svg">
    <title>00SAT72AN001_XB06</title>
    <rt:dyn type="PointID" mode="constant" value="&quot;00SAT72AN001_XB06&quot;"/> 
  </image>
  <text x="737.273" y="493.106" fill="black" font-size="15" text-anchor="middle">Прогрев<tspan x="737.273" dy="15">системы</tspan>
  </text>
  <image x="724.773" y="519.789" width="25" height="25" xlink:href="bin_indicator.svg">
    <title>00SAT72AH001_EK11</title>
    <rt:dyn type="PointID" mode="constant" value="&quot;00SAT72AH001_EK11&quot;"/> 
  </image>
  <text x="737.273" y="561.288" fill="black" font-size="15" text-anchor="middle">Угроза<tspan x="737.273" dy="15">замораживания</tspan>
  </text>
  <line x1="1136" y1="614.5" x2="1067" y2="614.5" stroke="black" stroke-width="3"/> 
  <image x="1029.44" y="594.545" width="70" height="70" xlink:href="DS_motor_tenzor.svg" transform="rotate(360 0 0)">
    <title>00SAT87AH001</title>
    <rt:dyn type="KKS" mode="constant" value="&quot;00SAT87AH001&quot;"/> 
    <rt:dyn type="DATA_NARY" mode="constant" value="&quot;TYPE2&quot;"/> 
    <rt:dyn type="Operate" mode="constant" value="true"/> 
    <rt:dyn type="DeviceType" mode="constant" value="&quot;fan&quot;"/> 
  </image>
  <line x1="1492" y1="630" x2="1423" y2="630" stroke="black" stroke-width="3"/> 
  <polygon points="108.833,695.255 118.833,712.255 98.833,712.255" transform="flipX(945.015) flipX(169.258) flipX(122.287) rotate(90 31.3333 552.5) rotate(0 1.4013e-045 3.14533e-039) flipY(460.5)"/> 
  <polygon points="90.8329,564.26 100.833,581.265 80.8333,581.265" transform="flipX(945.015) flipX(169.258) flipX(122.287) rotate(90 31.3333 552.5) rotate(0 1.4013e-045 3.14533e-039) flipY(460.5)"/> 
  <line x1="1566" y1="612.5" x2="1497" y2="612.5" stroke="black" stroke-width="3"/> 
  <image x="1455.19" y="594" width="70" height="70" xlink:href="DS_motor_tenzor.svg" transform="rotate(360 0 0)">
    <title>00SAT87AH002</title>
    <rt:dyn type="KKS" mode="constant" value="&quot;00SAT87AH002&quot;"/> 
    <rt:dyn type="DATA_NARY" mode="constant" value="&quot;TYPE2&quot;"/> 
    <rt:dyn type="Operate" mode="constant" value="true"/> 
    <rt:dyn type="DeviceType" mode="constant" value="&quot;fan&quot;"/> 
  </image>
  <image x="698.258" y="319.788" width="25" height="25" xlink:href="bin_indicator.svg">
    <title>00SAT72CP002_XG51</title>
    <rt:dyn type="PointID" mode="constant" value="&quot;00SAT72CP002_XG51&quot;"/> 
  </image>
  <text x="710.758" y="361.288" fill="black" font-size="15" text-anchor="middle">Перепад<tspan x="710.758" dy="15">давления</tspan>
<tspan x="710.758" dy="15">&lt;1,1 кПа</tspan>
  </text>
  <line x1="1475.91" y1="455.152" x2="1475.91" y2="333.949" stroke="black" stroke-width="3"/> 
  <polygon points="-217.044,-250.538 -207.044,-233.538 -227.044,-233.538" transform="rotate(210 453.5 42.9997) rotate(90 31.3333 552.5) rotate(0 1.4013e-045 3.14533e-039) flipY(460.5)"/> 
  <polygon points="-323.33,-311.903 -313.33,-294.903 -333.33,-294.903" transform="rotate(210 453.5 42.9997) rotate(90 31.3333 552.5) rotate(0 1.4013e-045 3.14533e-039) flipY(460.5)"/> 
  <text x="1475.15" y="301.401" fill="black" font-size="15" text-anchor="middle">На кровлю</text>
  <text x="1556.21" y="754.015" fill="black" font-size="15" text-anchor="middle">UST14R010</text>
  <image x="542.197" y="616.758" width="25" height="25" xlink:href="bin_indicator.svg">
    <title>00SAT72CP001_XG01</title>
    <rt:dyn type="PointID" mode="constant" value="&quot;00SAT72CP001_XG01&quot;"/> 
  </image>
  <text x="554.697" y="657.046" fill="black" font-size="15" text-anchor="middle">Перепад<tspan x="554.697" dy="15">давления</tspan>
<tspan x="554.697" dy="15">&gt;0,15 кПа</tspan>
  </text>
  <image x="542.197" y="692.517" width="25" height="25" xlink:href="bin_indicator.svg">
    <title>00SAT72CP001_XG51</title>
    <rt:dyn type="PointID" mode="constant" value="&quot;00SAT72CP001_XG51&quot;"/> 
  </image>
  <text x="554.697" y="734.319" fill="black" font-size="15" text-anchor="middle">Перепад<tspan x="554.697" dy="15">давления</tspan>
<tspan x="554.697" dy="15">&lt;0,04 кПа</tspan>
  </text>
  <line x1="373.939" y1="-588.866" x2="373.939" y2="-564.621" stroke="black" stroke-width="3" transform="rotate(90 414.288 484.879)"/> 
  <line x1="792.636" y1="-101.502" x2="792.636" y2="-77.2573" stroke="black" stroke-width="3" transform="rotate(90 414.288 484.879)"/> 
  <image x="985.5" y="671.303" width="160" height="30" xlink:href="ps_tenzor_m0.svg">
    <title>00SAT87AH001</title>
    <rt:dyn type="KKS" mode="constant" value="&quot;00SAT87AH001&quot;"/> 
  </image>
  <image x="1421.38" y="671.304" width="160" height="30" xlink:href="ps_tenzor_m0.svg">
    <title>00SAT87AH002</title>
    <rt:dyn type="KKS" mode="constant" value="&quot;00SAT87AH002&quot;"/> 
  </image>
  <g transform="flipX(25.3379)">
    <line x1="-648.814" y1="622.621" x2="-587.814" y2="622.621" stroke="black" stroke-width="1"/> 
    <line x1="-586.824" y1="615.121" x2="-586.824" y2="629.121" stroke="black" stroke-width="1"/> 
  </g>
  <image x="656.697" y="610" width="174.242" height="24.2424" xlink:href="DS_ana_tenzor.svg">
    <title>00SAT72CT004</title>
    <rt:dyn type="FKKS" mode="constant" value="&quot;00SAT72CT004&quot;"/> 
    <rt:dyn type="X" mode="constant" value="&quot;T&quot;"/> 
    <rt:dyn type="ShowFrame" mode="constant" value="true"/> 
    <rt:dyn type="ValueToTheRight" mode="constant" value="false"/> 
    <rt:dyn type="Color_Readings" mode="constant" value="true"/> 
  </image>
  <image x="109.212" y="370.273" width="100" height="30" xlink:href="DS_Reg_set.svg">
    <title>&quot;00SBU30AA215&quot;</title>
    <rt:dyn type="KKS" mode="constant" value="&quot;00SBU30AA215&quot;"/> 
    <rt:dyn type="DATA_NARY" mode="constant" value="&quot;TYPE2&quot;"/> 
    <rt:dyn type="Operate" mode="constant" value="true"/> 
    <rt:dyn type="ShowGoodColor" mode="constant" value="true"/> 
  </image>
</svg>
