<?xml  version="1.0" encoding="UTF-8"?>
<svg color="Col_BGSand" xmlns="http://www.w3.org/2000/svg" xmlns:rt="http://www.rts.co.at/2001/XMLSchema/RtSvgPL" xmlns:xlink="http://www.w3.org/1999/xlink" xmlns:xsi="http://www.w3.org/2001/XMLSchema-instance" xsi:schemaLocation="http://www.w3.org/2000/svg C:\RTS\RtSvg\XML\SVG.xsd" viewBox="0 0 1920 1080" width="1920" height="1080" id="00saf40" fill="Col_Grey3">
  <rt:model modelversion="7.2.0.23" comment="Создано VNIIAES-ASUTP\voroninrs 10.12.2012 14:48:20"/> 
  <line x1="1075.42" y1="402.516" x2="1075.42" y2="527.516" stroke="black" stroke-width="3"/> 
  <line x1="1075" y1="654" x2="1075" y2="779" stroke="black" stroke-width="3"/> 
  <line x1="298" y1="433" x2="298" y2="433" stroke="black"/> 
  <line x1="344" y1="425" x2="342" y2="0"/> 
  <g transform="rotate(180 1212.44 532.643)">
    <polygon points="622.46,-230.658 647.46,-230.658 635.46,-255.658 635.46,-255.658" fill="black" stroke="black" stroke-width="1" transform="rotate(180 1279.17 367.814)"/> 
  </g>
  <line x1="592.727" y1="690.909" x2="592.727" y2="690.909" stroke="black"/> 
  <line x1="749.091" y1="939.091" x2="749.091" y2="939.091" stroke="black"/> 
  <line x1="638.182" y1="881.818" x2="638.182" y2="881.818" stroke="black"/> 
  <line x1="214.545" y1="692.727" x2="214.545" y2="692.727" stroke="black"/> 
  <line x1="259.091" y1="771.818" x2="259.091" y2="771.818" stroke="black"/> 
  <line x1="195.455" y1="720" x2="195.455" y2="720" stroke="black"/> 
  <line x1="186.364" y1="713.636" x2="186.364" y2="713.636" stroke="black"/> 
  <line x1="191.818" y1="715.455" x2="191.818" y2="715.455" stroke="black"/> 
  <line x1="985.455" y1="149.091" x2="985.455" y2="149.091" stroke="black"/> 
  <line x1="1150" y1="365" x2="1150" y2="365" stroke="black"/> 
  <line x1="1274" y1="337" x2="1274" y2="337" stroke="black"/> 
  <line x1="1029" y1="375" x2="1029" y2="375" stroke="black"/> 
  <line x1="1215.33" y1="421.333" x2="1215.33" y2="421.333" stroke="black"/> 
  <line x1="1007" y1="314.75" x2="1007" y2="314.75" stroke="black"/> 
  <line x1="1027.27" y1="820" x2="1027.27" y2="820" stroke="black"/> 
  <line x1="675" y1="65" x2="675" y2="65" stroke="black"/> 
  <line x1="1468" y1="294" x2="1468" y2="294" stroke="black"/> 
  <line x1="1066.67" y1="766" x2="1066.67" y2="766" stroke="black"/> 
  <image x="163" y="1000" width="175" height="25" xlink:href="DS_ana_tenzor.svg">
    <title>00SAF40CT001</title>
    <rt:dyn type="ShowFrame" mode="constant" value="true"/> 
    <rt:dyn type="X" mode="constant" value="&quot;T&quot;"/> 
    <rt:dyn type="FKKS" mode="constant" value="&quot;00SAF40CT001&quot;"/> 
    <rt:dyn type="ValueToTheRight" mode="constant" value="false"/> 
    <rt:dyn type="Color_Readings" mode="constant" value="true"/> 
  </image>
  <line x1="1050" y1="1000" x2="700" y2="1000" stroke="black" stroke-width="3"/> 
  <line x1="684.004" y1="199" x2="1035" y2="200" stroke="black" stroke-width="3"/> 
  <line x1="875" y1="175" x2="875" y2="200" stroke="black" stroke-width="3"/> 
  <line x1="500" y1="175" x2="1625" y2="175" stroke="black" stroke-width="3"/> 
  <text x="447" y="52.25" fill="black" font-size="15">00UFC17R001</text>
  <line x1="502" y1="99" x2="502" y2="174" stroke="black" stroke-width="3"/> 
  <g transform="rotate(180 1212.44 532.643)">
    <polygon points="870.975,-228.658 895.975,-228.658 883.975,-253.658 883.975,-253.658" fill="black" stroke="black" stroke-width="1" transform="rotate(180 1279.17 367.814)"/> 
  </g>
  <line x1="750" y1="101" x2="750" y2="176" stroke="black" stroke-width="3"/> 
  <g transform="rotate(180 1212.44 532.643)">
    <polygon points="1246.46,-229.658 1271.46,-229.658 1259.46,-254.658 1259.46,-254.658" fill="black" stroke="black" stroke-width="1" transform="rotate(180 1279.17 367.814)"/> 
  </g>
  <line x1="1126" y1="100" x2="1126" y2="175" stroke="black" stroke-width="3"/> 
  <g transform="rotate(180 1212.44 532.643)">
    <polygon points="1747.46,-228.658 1772.46,-228.658 1760.46,-253.658 1760.46,-253.658" fill="black" stroke="black" stroke-width="1" transform="rotate(180 1279.17 367.814)"/> 
  </g>
  <line x1="1627" y1="101" x2="1627" y2="176" stroke="black" stroke-width="3"/> 
  <g transform="rotate(180 1212.44 532.643)">
    <polygon points="1747.46,-228.658 1772.46,-228.658 1760.46,-253.658 1760.46,-253.658" fill="black" stroke="black" stroke-width="1" transform="rotate(180 1279.17 367.814)"/> 
  </g>
  <line x1="1627" y1="101" x2="1627" y2="176" stroke="black" stroke-width="3"/> 
  <text x="701.5" y="54.25" fill="black" font-size="15">00UFC10R001</text>
  <text x="1073.5" y="53.75" fill="black" font-size="15">00UFC17R002</text>
  <text x="1571.5" y="53.75" fill="black" font-size="15">00UFC10R010</text>
  <g transform="rotate(180 1212.44 532.643)">
    <polygon points="1496.46,-231.658 1521.46,-231.658 1509.46,-256.658 1509.46,-256.658" fill="black" stroke="black" stroke-width="1" transform="rotate(180 1279.17 367.814)"/> 
  </g>
  <line x1="1376" y1="98" x2="1376" y2="173" stroke="black" stroke-width="3"/> 
  <text x="1321.5" y="52.75" fill="black" font-size="15">00UFC10R007</text>
  <text x="545" y="287.727" fill="black" font-size="15">00SAF40AN001</text>
  <text x="515.333" y="352.258" fill="black" font-size="15">00QKF01AA003</text>
  <text x="725" y="500" fill="black" font-size="15">00SAF40AC001</text>
  <line x1="700" y1="925" x2="625" y2="925" stroke="black"/> 
  <line x1="700" y1="834.5" x2="625" y2="834.5" stroke="black"/> 
  <line x1="625" y1="834" x2="625" y2="925" stroke="black"/> 
  <text x="720.625" y="847" fill="black" font-size="15">00SAF40AT001</text>
  <line x1="1125" y1="925" x2="1050" y2="925" stroke="black"/> 
  <line x1="1125" y1="834" x2="1125" y2="925" stroke="black"/> 
  <line x1="1125" y1="834.5" x2="1050" y2="834.5" stroke="black"/> 
  <text x="816" y="977" fill="black" font-size="15">00UFC13R001</text>
  <text x="983.75" y="1022.13" fill="black" font-size="15">00SAF40AA002</text>
  <text x="911.125" y="847" fill="black" font-size="15">00SAF40AT002</text>
  <text x="1150" y="884" fill="black" font-size="15">Перепад<tspan x="1150" dy="15">давления</tspan>
  </text>
  <text x="910.5" y="752" fill="black" font-size="15">00SAF40AH002</text>
  <text x="908" y="500" fill="black" font-size="15">00SAF40AC002</text>
  <text x="1111.85" y="352.258" fill="black" font-size="15">00QKF01AA002</text>
  <text x="1083.33" y="287.727" fill="black" font-size="15">00SAF40AN002</text>
  <image x="716" y="116" width="70" height="45" xlink:href="DS_pivot_valve_tenzor.svg">
    <title>00SAF40AA003</title>
    <rt:dyn type="KKS" mode="constant" value="&quot;00SAF40AA003&quot;"/> 
    <rt:dyn type="Operate" mode="constant" value="true"/> 
    <rt:dyn type="DATA_NARY" mode="constant" value="&quot;TYPE2&quot;"/> 
  </image>
  <text x="794.211" y="143.5" fill="black" font-size="15">00SAF40AA003</text>
  <text x="190" y="964" fill="black" font-size="15">Температура</text>
  <text x="164" y="978" fill="black" font-size="15">наружного воздуха</text>
  <line x1="700" y1="350" x2="700" y2="1000" stroke="black" stroke-width="3"/> 
  <g transform="rotate(120 1212.44 532.643)">
    <polygon points="953.663,-220.11 967.043,-212.466 967.043,-227.753 953.663,-220.11" fill="black" stroke="black" stroke-width="1" transform="rotate(180 1279.17 367.814)"/> 
  </g>
  <line x1="150.911" y1="652.516" x2="674.911" y2="653.016" stroke="black" stroke-width="3"/> 
  <g transform="rotate(180 1212.44 532.643)">
    <polygon points="784.371,447.858 797.751,455.502 797.751,440.215 784.371,447.858" fill="black" stroke="black" stroke-width="1" transform="rotate(180 1279.17 367.814)"/> 
  </g>
  <line x1="150.911" y1="777.516" x2="674.911" y2="778.016" stroke="black" stroke-width="3"/> 
  <image x="180.303" y="764" width="175" height="25" xlink:href="DS_ana_tenzor.svg">
    <title>00SBS04CT001</title>
    <rt:dyn type="ShowFrame" mode="constant" value="true"/> 
    <rt:dyn type="X" mode="constant" value="&quot;T&quot;"/> 
    <rt:dyn type="FKKS" mode="constant" value="&quot;00SBS04CT001&quot;"/> 
    <rt:dyn type="ValueToTheRight" mode="constant" value="false"/> 
    <rt:dyn type="Color_Readings" mode="constant" value="true"/> 
  </image>
  <text x="435" y="602.5" fill="black" font-size="15">00SBS03AA001</text>
  <image x="625.911" y="791.516" width="175" height="25" xlink:href="DS_ana_tenzor.svg">
    <title>00SAF40CT004</title>
    <rt:dyn type="ShowFrame" mode="constant" value="true"/> 
    <rt:dyn type="X" mode="constant" value="&quot;T&quot;"/> 
    <rt:dyn type="FKKS" mode="constant" value="&quot;00SAF40CT004&quot;"/> 
    <rt:dyn type="ValueToTheRight" mode="constant" value="false"/> 
    <rt:dyn type="Color_Readings" mode="constant" value="true"/> 
  </image>
  <text x="623" y="1022.13" fill="black" font-size="15">00SAF40AA001</text>
  <text x="525" y="882" fill="black" font-size="15">Перепад<tspan x="525" dy="15">давления</tspan>
  </text>
  <text x="720" y="752" fill="black" font-size="15">00SAF40AH001</text>
  <image x="665" y="937.5" width="70" height="45" xlink:href="DS_pivot_valve_tenzor.svg">
    <title>00SAF40AA001</title>
    <rt:dyn type="KKS" mode="constant" value="&quot;00SAF40AA001&quot;"/> 
    <rt:dyn type="Operate" mode="constant" value="true"/> 
    <rt:dyn type="DATA_NARY" mode="constant" value="&quot;TYPE2&quot;"/> 
  </image>
  <line x1="674.911" y1="653.016" x2="674.911" y2="778.016" stroke="black" stroke-width="3"/> 
  <g transform="rotate(120 1212.44 532.643)">
    <polygon points="1170.18,-345.107 1183.56,-337.463 1183.56,-352.75 1170.18,-345.107" fill="black" stroke="black" stroke-width="1" transform="rotate(180 1279.17 367.814)"/> 
  </g>
  <line x1="348.913" y1="402.516" x2="674.915" y2="403.016" stroke="black" stroke-width="3"/> 
  <g transform="rotate(180 1212.44 532.643)">
    <polygon points="784.375,197.857 797.755,205.502 797.755,190.214 784.375,197.857" fill="black" stroke="black" stroke-width="1" transform="rotate(180 1279.17 367.814)"/> 
  </g>
  <line x1="348.913" y1="527.516" x2="674.915" y2="528.016" stroke="black" stroke-width="3"/> 
  <line x1="674.915" y1="403.016" x2="674.915" y2="528.016" stroke="black" stroke-width="3"/> 
  <line x1="685" y1="198" x2="685" y2="315.5" stroke="black" stroke-width="3"/> 
  <image x="611" y="225" width="175" height="25" xlink:href="DS_ana_tenzor.svg">
    <title>00SAF40CT002</title>
    <rt:dyn type="ShowFrame" mode="constant" value="true"/> 
    <rt:dyn type="X" mode="constant" value="&quot;T&quot;"/> 
    <rt:dyn type="FKKS" mode="constant" value="&quot;00SAF40CT002&quot;"/> 
    <rt:dyn type="ValueToTheRight" mode="constant" value="false"/> 
    <rt:dyn type="Color_Readings" mode="constant" value="true"/> 
  </image>
  <text x="1235.26" y="250" fill="black" font-size="15">Набор 2</text>
  <text x="456.316" y="250" fill="black" font-size="15">Набор 1</text>
  <image x="665.911" y="293.133" width="70" height="70" xlink:href="DS_motor_tenzor.svg" transform="rotate(270 0.00012207 0)">
    <title>00SAF40AN001</title>
    <rt:dyn type="DeviceType" mode="constant" value="&quot;fan&quot;"/> 
    <rt:dyn type="Operate" mode="constant" value="true"/> 
    <rt:dyn type="KKS" mode="constant" value="&quot;00SAF40AN001&quot;"/> 
    <rt:dyn type="DATA_NARY" mode="constant" value="&quot;TYPE2&quot;"/> 
  </image>
  <image x="473.424" y="484.757" width="70" height="65" xlink:href="DS_Reg_valve_tenzor.svg">
    <title>00QKF11AA203</title>
    <rt:dyn type="Operate" mode="constant" value="true"/> 
    <rt:dyn type="KKS" mode="constant" value="&quot;00QKF11AA203&quot;"/> 
    <rt:dyn type="DATA_NARY" mode="constant" value="&quot;TYPE2&quot;"/> 
  </image>
  <image x="564.424" y="485.061" width="65" height="25" xlink:href="DS_Reg_degree.svg">
    <title>00QKF11AA203</title>
    <rt:dyn type="KKS" mode="constant" value="&quot;00QKF11AA203&quot;"/> 
    <rt:dyn type="SIGNAL" mode="constant" value="&quot;XQ54&quot;"/> 
  </image>
  <text x="453.424" y="479.061" fill="black" font-size="15">00QKF11AA203</text>
  <image x="1117.73" y="486.576" width="65" height="25" xlink:href="DS_Reg_degree.svg">
    <title>00QKF11AA204</title>
    <rt:dyn type="KKS" mode="constant" value="&quot;00QKF11AA204&quot;"/> 
    <rt:dyn type="SIGNAL" mode="constant" value="&quot;XQ54&quot;"/> 
  </image>
  <text x="1181.21" y="476.576" fill="black" font-size="15">00QKF11AA204</text>
  <image x="1157.73" y="735.061" width="65" height="25" xlink:href="DS_Reg_degree.svg">
    <title>00SBS04AA202</title>
    <rt:dyn type="KKS" mode="constant" value="&quot;00SBS04AA202&quot;"/> 
    <rt:dyn type="SIGNAL" mode="constant" value="&quot;XQ54&quot;"/> 
  </image>
  <image x="450.697" y="736.787" width="70" height="65" xlink:href="DS_Reg_valve_tenzor.svg">
    <title>00SBS04AA201</title>
    <rt:dyn type="Operate" mode="constant" value="true"/> 
    <rt:dyn type="KKS" mode="constant" value="&quot;00SBS04AA201&quot;"/> 
    <rt:dyn type="DATA_NARY" mode="constant" value="&quot;TYPE2&quot;"/> 
  </image>
  <image x="531.97" y="738.091" width="65" height="25" xlink:href="DS_Reg_degree.svg">
    <title>00SBS04AA201</title>
    <rt:dyn type="KKS" mode="constant" value="&quot;00SBS04AA201&quot;"/> 
    <rt:dyn type="SIGNAL" mode="constant" value="&quot;XQ54&quot;"/> 
  </image>
  <text x="420.97" y="731.576" fill="black" font-size="15">00SBS04AA201</text>
  <rect x="416.054" y="234.221" width="50" height="50" rx="0" ry="0" fill="Col_BGSand" stroke="black" transform="rotate(45 325 675)"/> 
  <line x1="666.07" y1="463.063" x2="736.07" y2="463.063" stroke="black"/> 
  <line x1="701.07" y1="428.061" x2="701.07" y2="498.063" stroke="black"/> 
  <polygon points="682.11,469.052 666.78,463.384 682.11,457.717" fill="black" stroke="black"/> 
  <polygon points="-34.0567,469.052 -49.3897,463.384 -34.0567,457.717" fill="black" stroke="black" transform="flipX(342.722)"/> 
  <rect x="596.366" y="415.948" width="50" height="50" rx="0" ry="0" fill="Col_BGSand" stroke="black" transform="rotate(45 325 675)"/> 
  <line x1="665.07" y1="719.063" x2="735.07" y2="719.063" stroke="black"/> 
  <line x1="700.07" y1="684.061" x2="700.07" y2="754.063" stroke="black"/> 
  <polygon points="717.11,725.052 701.78,719.384 717.11,713.717" fill="black" stroke="black"/> 
  <polygon points="0.943199,725.052 -14.3898,719.384 0.943199,713.717" fill="black" stroke="black" transform="flipX(342.722)"/> 
  <line x1="1049.07" y1="685.061" x2="1049.07" y2="755.063" stroke="black"/> 
  <image x="632.757" y="839.94" width="25" height="25" xlink:href="bin_indicator.svg">
    <title>00SAF40CP001</title>
    <rt:dyn type="PointID" mode="constant" value="&quot;00SAF40CP001_XG01&quot;"/> 
  </image>
  <image x="632.757" y="894.423" width="25" height="25" xlink:href="bin_indicator.svg">
    <title>00SAF40CP001</title>
    <rt:dyn type="PointID" mode="constant" value="&quot;00SAF40CP001_XG51&quot;"/> 
  </image>
  <image x="1092.82" y="839.94" width="25" height="25" xlink:href="bin_indicator.svg">
    <title>00SAF40CP002</title>
    <rt:dyn type="PointID" mode="constant" value="&quot;00SAF40CP002_XG01&quot;"/> 
  </image>
  <image x="1092.82" y="894.423" width="25" height="25" xlink:href="bin_indicator.svg">
    <title>00SAF40CP002</title>
    <rt:dyn type="PointID" mode="constant" value="&quot;00SAF40CP002_XG51&quot;"/> 
  </image>
  <text x="1218.86" y="602.5" fill="black" font-size="15">00SBS03AA002</text>
  <image x="455.625" y="610.682" width="70" height="65" xlink:href="DS_CO_valve_tenzor.svg">
    <title>&quot;00SBS03AA001&quot;</title>
    <rt:dyn type="KKS" mode="constant" value="&quot;00SBS03AA001&quot;"/> 
    <rt:dyn type="DATA_NARY" mode="constant" value="&quot;TYPE2&quot;"/> 
    <rt:dyn type="Operate" mode="constant" value="true"/> 
  </image>
  <image x="540.833" y="361.212" width="70" height="65" xlink:href="DS_CO_valve_tenzor.svg">
    <title>&quot;00SBS03AA001&quot;</title>
    <rt:dyn type="KKS" mode="constant" value="&quot;00QKF01AA003&quot;"/> 
    <rt:dyn type="DATA_NARY" mode="constant" value="&quot;TYPE2&quot;"/> 
    <rt:dyn type="Operate" mode="constant" value="true"/> 
  </image>
  <image x="729.599" y="675.75" width="25" height="25" xlink:href="bin_indicator.svg">
    <title>00SAF40AH001T</title>
    <rt:dyn type="PointID" mode="constant" value="&quot;00SAF40AH001T_XG01&quot;"/> 
  </image>
  <text x="763.75" y="685.75" fill="black" font-size="15">00SAF40<tspan x="763.75" dy="15">AH001T</tspan>
  </text>
  <image x="999.177" y="675" width="25" height="25" xlink:href="bin_indicator.svg">
    <title>00SAF40AH002T</title>
    <rt:dyn type="PointID" mode="constant" value="&quot;00SAF40AH002T_XG01&quot;"/> 
  </image>
  <image x="729.599" y="895.94" width="25" height="25" xlink:href="bin_indicator.svg">
    <title>00SAF40AH001T</title>
    <rt:dyn type="PointID" mode="constant" value="&quot;00SAF40AA001T_XG51&quot;"/> 
  </image>
  <image x="997.178" y="895.94" width="25" height="25" xlink:href="bin_indicator.svg">
    <title>00SAF40AH002T</title>
    <rt:dyn type="PointID" mode="constant" value="&quot;00SAF40AA002T_XG51&quot;"/> 
  </image>
  <image x="787.273" y="265.258" width="181.818" height="24.2424" xlink:href="bitwise_tablo_4bits.svg">
    <title>00SAF40AN001002</title>
    <rt:dyn type="PointID_1" mode="constant" value="&quot;00SAF40AN001002_Z0 0&quot;"/> 
    <rt:dyn type="Text_0001" mode="constant" value="&quot;АВР НЕ ГОТОВ&quot;"/> 
    <rt:dyn type="Text_0000" mode="constant" value="&quot;АВР ДИСТ&quot;"/> 
    <rt:dyn type="Color_0010" mode="constant" value="&quot;Col_Yellow&quot;"/> 
    <rt:dyn type="Color_0001" mode="constant" value="&quot;Col_Green&quot;"/> 
    <rt:dyn type="Text_0010" mode="constant" value="&quot;АВР ГОТОВ&quot;"/> 
    <rt:dyn type="PointID_2" mode="constant" value="&quot;00SAF40AN001002_Z0 1&quot;"/> 
    <rt:dyn type="PointID_3" mode="constant" value="&quot;00SAF40AN001002_Z0 2&quot;"/> 
    <rt:dyn type="PointID_4" mode="constant" value="&quot;00SAF40AN001002_Z0 3&quot;"/> 
    <rt:dyn type="Text_0100" mode="constant" value="&quot;АВР СРАБОТАЛ&quot;"/> 
    <rt:dyn type="Color_0100" mode="constant" value="&quot;Col_Red&quot;"/> 
    <rt:dyn type="Color_0000" mode="constant" value="&quot;Col_Grey3&quot;"/> 
  </image>
  <text x="1218.86" y="728.576" fill="black" font-size="15">00SBS04AA202</text>
  <image x="1091" y="929.5" width="70" height="70" xlink:href="DS_motor_rect_tenzor.svg">
    <title>00SAF40AA002E</title>
    <rt:dyn type="Operate" mode="constant" value="true"/> 
    <rt:dyn type="KKS" mode="constant" value="&quot;00SAF40AA002E&quot;"/> 
    <rt:dyn type="DATA_NARY" mode="constant" value="&quot;TYPE2&quot;"/> 
  </image>
  <text x="923.75" y="685" fill="black" font-size="15">00SAF40<tspan x="923.75" dy="15">AH002T</tspan>
  </text>
  <text x="767.5" y="905.94" fill="black" font-size="15">00SAF40<tspan x="767.5" dy="15">AA001T</tspan>
  </text>
  <text x="923.75" y="905.94" fill="black" font-size="15">00SAF40<tspan x="923.75" dy="15">AA002T</tspan>
  </text>
  <image x="588.75" y="929.5" width="70" height="70" xlink:href="DS_motor_rect_tenzor.svg">
    <title>00SAF40AA001E</title>
    <rt:dyn type="Operate" mode="constant" value="true"/> 
    <rt:dyn type="KKS" mode="constant" value="&quot;00SAF40AA001E&quot;"/> 
    <rt:dyn type="DATA_NARY" mode="constant" value="&quot;TYPE2&quot;"/> 
  </image>
  <text x="435" y="969.5" fill="black" font-size="15">00SAF40AA001E</text>
  <text x="1183" y="969.5" fill="black" font-size="15">00SAF40AA002E</text>
  <line x1="1049.5" y1="350.5" x2="1049.5" y2="1000.5" stroke="black" stroke-width="3"/> 
  <polygon points="1014.22,883.076 1049.97,848.076 1085.47,883.076 1049.84,917.701" fill="Col_BGSand" stroke="black"/> 
  <line x1="1014.4" y1="882.887" x2="1085.28" y2="882.887" stroke="black"/> 
  <polygon points="664.216,883.076 699.966,848.076 735.466,883.076 699.836,917.701" fill="Col_BGSand" stroke="black"/> 
  <line x1="664.396" y1="882.887" x2="735.276" y2="882.887" stroke="black"/> 
  <line x1="875" y1="1001.5" x2="875" y2="1051.5" stroke="black" stroke-width="5"/> 
  <g transform="rotate(180 1212.44 532.643)">
    <polygon points="995.96,721.842 1020.96,721.842 1007.96,696.842 1008.96,696.842" fill="black" stroke="black" stroke-width="1" transform="rotate(180 1279.17 367.814)"/> 
  </g>
  <image x="1014.5" y="937.5" width="70" height="45" xlink:href="DS_pivot_valve_tenzor.svg">
    <title>00SAF40AA002</title>
    <rt:dyn type="KKS" mode="constant" value="&quot;00SAF40AA002&quot;"/> 
    <rt:dyn type="Operate" mode="constant" value="true"/> 
    <rt:dyn type="DATA_NARY" mode="constant" value="&quot;TYPE2&quot;"/> 
  </image>
  <image x="974.788" y="790.364" width="175" height="25" xlink:href="DS_ana_tenzor.svg">
    <title>00SAF40CT005</title>
    <rt:dyn type="ShowFrame" mode="constant" value="true"/> 
    <rt:dyn type="X" mode="constant" value="&quot;T&quot;"/> 
    <rt:dyn type="FKKS" mode="constant" value="&quot;00SAF40CT005&quot;"/> 
    <rt:dyn type="ValueToTheRight" mode="constant" value="false"/> 
    <rt:dyn type="Color_Readings" mode="constant" value="true"/> 
  </image>
  <line x1="1074" y1="653.5" x2="1598" y2="654" stroke="black" stroke-width="3"/> 
  <rect x="843.853" y="169.874" width="50" height="50" rx="0" ry="0" fill="Col_BGSand" stroke="black" transform="rotate(45 325 675)"/> 
  <line x1="1014.07" y1="720.063" x2="1084.07" y2="720.063" stroke="black"/> 
  <line x1="1074" y1="778.5" x2="1598" y2="779" stroke="black" stroke-width="3"/> 
  <polygon points="1065.11,726.052 1049.78,720.384 1065.11,714.717" fill="black" stroke="black"/> 
  <polygon points="-348.057,726.052 -363.39,720.384 -348.057,714.717" fill="black" stroke="black" transform="flipX(342.722)"/> 
  <line x1="1049" y1="685" x2="1049" y2="755.002" stroke="black"/> 
  <image x="1243.36" y="610.712" width="70" height="65" xlink:href="DS_CO_valve_tenzor.svg">
    <title>&quot;00SBS03AA002&quot;</title>
    <rt:dyn type="KKS" mode="constant" value="&quot;00SBS03AA002&quot;"/> 
    <rt:dyn type="DATA_NARY" mode="constant" value="&quot;TYPE2&quot;"/> 
    <rt:dyn type="Operate" mode="constant" value="true"/> 
  </image>
  <image x="1243.36" y="735.757" width="70" height="65" xlink:href="DS_Reg_valve_tenzor.svg">
    <title>00SBS04AA202</title>
    <rt:dyn type="Operate" mode="constant" value="true"/> 
    <rt:dyn type="KKS" mode="constant" value="&quot;00SBS04AA202&quot;"/> 
    <rt:dyn type="DATA_NARY" mode="constant" value="&quot;TYPE2&quot;"/> 
  </image>
  <image x="1400" y="764" width="175" height="25" xlink:href="DS_ana_tenzor.svg">
    <title>00SBS04CT002</title>
    <rt:dyn type="ShowFrame" mode="constant" value="true"/> 
    <rt:dyn type="X" mode="constant" value="&quot;T&quot;"/> 
    <rt:dyn type="FKKS" mode="constant" value="&quot;00SBS04CT002&quot;"/> 
    <rt:dyn type="ValueToTheRight" mode="constant" value="false"/> 
    <rt:dyn type="Color_Readings" mode="constant" value="true"/> 
  </image>
  <rect x="666.37" y="-9.02363" width="50" height="50" rx="0" ry="0" fill="Col_BGSand" stroke="black" transform="rotate(45 325 675)"/> 
  <line x1="1015.07" y1="468.063" x2="1085.07" y2="468.063" stroke="black"/> 
  <line x1="1050.07" y1="433.061" x2="1050.07" y2="503.063" stroke="black"/> 
  <polygon points="1031.11,474.052 1015.78,468.384 1031.11,462.717" fill="black" stroke="black"/> 
  <polygon points="-383.057,474.052 -398.39,468.384 -383.057,462.717" fill="black" stroke="black" transform="flipX(342.722)"/> 
  <polygon points="89.038,81.8725 102.418,89.5165 102.418,74.2295 89.038,81.8725" fill="black" stroke="black" stroke-width="1" transform="flipX(1780.03) rotate(180 1279.17 367.814)"/> 
  <g transform="rotate(120 1212.44 532.643)">
    <polygon points="1067.91,228.747 1081.29,236.391 1081.29,221.104 1067.91,228.747" fill="black" stroke="black" stroke-width="1" transform="rotate(180 1279.17 367.814)"/> 
  </g>
  <line x1="1075.75" y1="402.75" x2="1401.75" y2="403.25" stroke="black" stroke-width="3"/> 
  <line x1="1075.75" y1="527.75" x2="1401.75" y2="528.25" stroke="black" stroke-width="3"/> 
  <image x="1201.21" y="485.272" width="70" height="65" xlink:href="DS_Reg_valve_tenzor.svg">
    <title>00QKF11AA204</title>
    <rt:dyn type="Operate" mode="constant" value="true"/> 
    <rt:dyn type="KKS" mode="constant" value="&quot;00QKF11AA204&quot;"/> 
    <rt:dyn type="DATA_NARY" mode="constant" value="&quot;TYPE2&quot;"/> 
  </image>
  <image x="1137.35" y="360.182" width="70" height="65" xlink:href="DS_CO_valve_tenzor.svg">
    <title>&quot;00SBS03AA002&quot;</title>
    <rt:dyn type="KKS" mode="constant" value="&quot;00QKF01AA002&quot;"/> 
    <rt:dyn type="DATA_NARY" mode="constant" value="&quot;TYPE2&quot;"/> 
    <rt:dyn type="Operate" mode="constant" value="true"/> 
  </image>
  <polygon points="89.0379,332.372 102.418,340.017 102.418,324.729 89.0379,332.372" fill="black" stroke="black" stroke-width="1" transform="flipX(1780.03) rotate(180 1279.17 367.814)"/> 
  <g transform="rotate(120 1212.44 532.643)">
    <polygon points="1287.25,106.153 1300.63,113.797 1300.63,98.51 1287.25,106.153" fill="black" stroke="black" stroke-width="1" transform="rotate(180 1279.17 367.814)"/> 
  </g>
  <line x1="1034.25" y1="199" x2="1034.25" y2="313" stroke="black" stroke-width="3"/> 
  <image x="960.394" y="228.152" width="175" height="25" xlink:href="DS_ana_tenzor.svg">
    <title>00SAF40CT003</title>
    <rt:dyn type="ShowFrame" mode="constant" value="true"/> 
    <rt:dyn type="X" mode="constant" value="&quot;T&quot;"/> 
    <rt:dyn type="FKKS" mode="constant" value="&quot;00SAF40CT003&quot;"/> 
    <rt:dyn type="ValueToTheRight" mode="constant" value="false"/> 
    <rt:dyn type="Color_Readings" mode="constant" value="true"/> 
  </image>
  <image x="1013.75" y="293.133" width="70" height="70" xlink:href="DS_motor_tenzor.svg" transform="rotate(270 0.00012207 0)">
    <title>00SAF40AN002</title>
    <rt:dyn type="DeviceType" mode="constant" value="&quot;fan&quot;"/> 
    <rt:dyn type="Operate" mode="constant" value="true"/> 
    <rt:dyn type="KKS" mode="constant" value="&quot;00SAF40AN002&quot;"/> 
    <rt:dyn type="DATA_NARY" mode="constant" value="&quot;TYPE2&quot;"/> 
  </image>
  <rect x="413" y="22" width="175" height="50.5" rx="0" ry="0" fill="none" stroke="black"/> 
  <rect x="667.5" y="24" width="175" height="50.5" rx="0" ry="0" fill="none" stroke="black"/> 
  <rect x="1039.5" y="23.5" width="175" height="50.5" rx="0" ry="0" fill="none" stroke="black"/> 
  <rect x="1289.5" y="22.5" width="175" height="50.5" rx="0" ry="0" fill="none" stroke="black"/> 
  <rect x="1539.5" y="23.5" width="175" height="50.5" rx="0" ry="0" fill="none" stroke="black"/> 
  <text x="25" y="25" fill="black" font-size="15">00UFC 00CXV44 00SAF40</text>
  <image x="490" y="300" width="160" height="30" xlink:href="ps_tenzor_m0.svg">
    <title>00SAF40AN001</title>
    <rt:dyn type="KKS" mode="constant" value="&quot;00SAF40AN001&quot;"/> 
  </image>
  <image x="1100" y="300" width="160" height="30" xlink:href="ps_tenzor_m0.svg">
    <title>00SAF40AN002</title>
    <rt:dyn type="KKS" mode="constant" value="&quot;00SAF40AN002&quot;"/> 
  </image>
  <text x="1646.58" y="294.227" fill="black" font-size="15">00SAF01AN002</text>
  <g>
    <line x1="1546.37" y1="277.5" x2="1607.37" y2="277" stroke="black" stroke-width="1"/> 
    <line x1="1608.36" y1="270" x2="1608.36" y2="284" stroke="black" stroke-width="1"/> 
  </g>
  <rect x="1491" y="218" width="285.364" height="85.3637" rx="0" ry="0" fill="Col_BGSand" stroke="black" stroke-width="2"/> 
  <text x="1631.67" y="236.697" fill="black" font-size="15" text-anchor="middle">Режим работы 00SAF40</text>
  <image x="1505.94" y="265.485" width="181.818" height="24.2424" xlink:href="bitwise_tablo_4bits.svg">
    <title>00SAF40YY000_XK92</title>
    <rt:dyn type="PointID_1" mode="constant" value="&quot;00SAF40YY000_XK92&quot;"/> 
    <rt:dyn type="Text_0000" mode="constant" value="&quot;АВТОМАТИЧЕСКИЙ&quot;"/> 
    <rt:dyn type="Color_0001" mode="constant" value="&quot;Col_Green&quot;"/> 
    <rt:dyn type="Text_0001" mode="constant" value="&quot;ДИСТАНЦИОННЫЙ&quot;"/> 
    <rt:dyn type="Color_0000" mode="constant" value="&quot;Col_Green&quot;"/> 
  </image>
  <image x="1704.67" y="259.909" width="60" height="30" xlink:href="ps_tenzor_system.svg">
    <title>00SAF40YY000</title>
    <rt:dyn type="KKS" mode="constant" value="&quot;00SAF40YY000&quot;"/> 
  </image>
  <image x="458" y="432" width="100" height="30" xlink:href="DS_Reg_set.svg">
    <title>&quot;00QKF11AA203&quot;</title>
    <rt:dyn type="KKS" mode="constant" value="&quot;00QKF11AA203&quot;"/> 
    <rt:dyn type="DATA_NARY" mode="constant" value="&quot;TYPE2&quot;"/> 
    <rt:dyn type="Operate" mode="constant" value="true"/> 
    <rt:dyn type="ShowGoodColor" mode="constant" value="true"/> 
  </image>
  <image x="442.576" y="685.454" width="100" height="30" xlink:href="DS_Reg_set.svg">
    <title>&quot;00SBS04AA201&quot;</title>
    <rt:dyn type="KKS" mode="constant" value="&quot;00SBS04AA201&quot;"/> 
    <rt:dyn type="DATA_NARY" mode="constant" value="&quot;TYPE2&quot;"/> 
    <rt:dyn type="Operate" mode="constant" value="true"/> 
    <rt:dyn type="ShowGoodColor" mode="constant" value="true"/> 
  </image>
  <image x="1192.58" y="428.364" width="100" height="30" xlink:href="DS_Reg_set.svg">
    <title>&quot;00QKF11AA204&quot;</title>
    <rt:dyn type="KKS" mode="constant" value="&quot;00QKF11AA204&quot;"/> 
    <rt:dyn type="DATA_NARY" mode="constant" value="&quot;TYPE2&quot;"/> 
    <rt:dyn type="Operate" mode="constant" value="true"/> 
    <rt:dyn type="ShowGoodColor" mode="constant" value="true"/> 
  </image>
  <image x="1230.45" y="680.394" width="100" height="30" xlink:href="DS_Reg_set.svg">
    <title>&quot;00SBS04AA202&quot;</title>
    <rt:dyn type="KKS" mode="constant" value="&quot;00SBS04AA202&quot;"/> 
    <rt:dyn type="DATA_NARY" mode="constant" value="&quot;TYPE2&quot;"/> 
    <rt:dyn type="Operate" mode="constant" value="true"/> 
    <rt:dyn type="ShowGoodColor" mode="constant" value="true"/> 
  </image>
</svg>
