<?xml  version="1.0" encoding="UTF-8"?>
<svg color="Col_BGSand" xmlns="http://www.w3.org/2000/svg" xmlns:rt="http://www.rts.co.at/2001/XMLSchema/RtSvgPL" xmlns:xlink="http://www.w3.org/1999/xlink" xmlns:xsi="http://www.w3.org/2001/XMLSchema-instance" xsi:schemaLocation="http://www.w3.org/2000/svg C:\RTS\RtSvg\XML\SVG.xsd" viewBox="0 0 1920 1080" width="1920" height="1080" id="00sat33_34_66_67">
  <rt:model modelversion="7.2.0.24" revision="1"/> 
  <text x="25" y="25" font-size="15">00UST 00CXV13 00SAT33 / 00SAT34 / 00SAT66 / 00SAT67</text>
  <rect x="37.5152" y="48.5758" width="285.364" height="85.3637" rx="0" ry="0" fill="Col_BGSand" stroke="black" stroke-width="2"/> 
  <text x="56.8852" y="72.6668" fill="black" font-size="15">Режим работы 00SAT67</text>
  <image x="50.4551" y="96.0608" width="181.818" height="24.2424" xlink:href="bitwise_tablo_4bits.svg">
    <title>00SAT67_XK92</title>
    <rt:dyn type="PointID_1" mode="constant" value="&quot;00SAT67_XK92&quot;"/> 
    <rt:dyn type="Text_0000" mode="constant" value="&quot;АВТОМАТИЧЕСКИЙ&quot;"/> 
    <rt:dyn type="Color_0001" mode="constant" value="&quot;Col_Green&quot;"/> 
    <rt:dyn type="Text_0001" mode="constant" value="&quot;ДИСТАНЦИОННЫЙ&quot;"/> 
    <rt:dyn type="Color_0000" mode="constant" value="&quot;Col_Green&quot;"/> 
  </image>
  <image x="249.185" y="90.4848" width="60" height="30" xlink:href="ps_tenzor_system.svg">
    <title>00SAT67</title>
    <rt:dyn type="KKS" mode="constant" value="&quot;00SAT67&quot;"/> 
  </image>
  <polygon points="-1167.93,177.084 -1157.93,194.084 -1177.93,194.084" transform="rotate(210 453.5 42.9997) rotate(90 31.3333 552.5) rotate(0 1.4013e-045 3.14533e-039) flipY(460.5)"/> 
  <line x1="615.273" y1="358.182" x2="615.273" y2="186.97" stroke="black" stroke-width="3"/> 
  <g transform="flipX(25.3379)">
    <line x1="-647.269" y1="883.819" x2="-586.269" y2="883.819" stroke="black" stroke-width="1"/> 
    <line x1="-585.279" y1="876.319" x2="-585.279" y2="890.319" stroke="black" stroke-width="1"/> 
  </g>
  <text x="559.242" y="344.924" fill="black" font-size="15" text-anchor="middle">00SAT67<tspan x="559.242" dy="15">AN001</tspan>
  </text>
  <g transform="rotate(0 609.241 429.584) scale(0.765552 0.765552 609.241 429.584)">
    <rect x="581.675" y="204.885" width="66.8757" height="34.9577" rx="0" ry="0" fill="Col_BGSand" stroke="black"/> 
    <polygon points="617.595,205.054 582.485,239.66 613.335,239.41 647.755,205.064" fill="Col_Grey2" stroke="black"/> 
  </g>
  <line x1="630.879" y1="943.546" x2="631.939" y2="336.97" stroke="black" stroke-width="3"/> 
  <image x="596.077" y="321.876" width="70" height="70" xlink:href="DS_motor_tenzor.svg" transform="rotate(270 0 0)">
    <title>00SAT67AN001</title>
    <rt:dyn type="KKS" mode="constant" value="&quot;00SAT67AN001&quot;"/> 
    <rt:dyn type="DATA_NARY" mode="constant" value="&quot;TYPE2&quot;"/> 
    <rt:dyn type="Operate" mode="constant" value="true"/> 
    <rt:dyn type="DeviceType" mode="constant" value="&quot;fan&quot;"/> 
  </image>
  <polyline points="1054.72,1045.56 1104.72,1045.56 1104.22,1095.56 1054.72,1095.06 1054.72,1045.56" fill="Col_BGSand" stroke="black" stroke-width="3" transform="rotate(44.0618 1325.51 325.508)"/> 
  <text x="685" y="720.743" fill="black" font-size="15" text-anchor="middle">00SAT67<tspan x="685" dy="15">AT001</tspan>
  </text>
  <line x1="598.954" y1="690.111" x2="667.954" y2="690.111" stroke="black"/> 
  <line x1="563.957" y1="637.41" x2="624.957" y2="637.41" stroke="black" stroke-width="1"/> 
  <line x1="563.277" y1="636.835" x2="563.277" y2="745.425" stroke="black" stroke-width="1"/> 
  <line x1="625.347" y1="629.91" x2="625.347" y2="643.91" stroke="black" stroke-width="1"/> 
  <line x1="562.947" y1="691.168" x2="533.737" y2="691.168" stroke="black" stroke-width="1"/> 
  <text x="704.697" y="796.061" fill="black" font-size="15" text-anchor="middle">00SAT67<tspan x="704.697" dy="15">AA001</tspan>
  </text>
  <image x="595.703" y="776.742" width="70" height="45" xlink:href="DS_pivot_valve_tenzor.svg">
    <title>00SAT67AA001</title>
    <rt:dyn type="KKS" mode="constant" value="&quot;00SAT67AA001&quot;"/> 
    <rt:dyn type="DATA_NARY" mode="constant" value="&quot;TYPE2&quot;"/> 
    <rt:dyn type="Operate" mode="constant" value="true"/> 
  </image>
  <line x1="563.757" y1="744.319" x2="624.757" y2="744.319" stroke="black" stroke-width="1"/> 
  <line x1="625.347" y1="736.819" x2="625.347" y2="750.819" stroke="black" stroke-width="1"/> 
  <image x="655.152" y="871.197" width="174.242" height="24.2424" xlink:href="DS_ana_tenzor.svg">
    <title>00SAT67CT001</title>
    <rt:dyn type="FKKS" mode="constant" value="&quot;00SAT67CT001&quot;"/> 
    <rt:dyn type="X" mode="constant" value="&quot;T&quot;"/> 
    <rt:dyn type="ShowFrame" mode="constant" value="true"/> 
    <rt:dyn type="ValueToTheRight" mode="constant" value="false"/> 
    <rt:dyn type="Color_Readings" mode="constant" value="true"/> 
  </image>
  <line x1="631.454" y1="548.091" x2="103.151" y2="548.091" stroke="black" stroke-width="3"/> 
  <line x1="633" y1="476" x2="174.818" y2="476" stroke="black" stroke-width="3"/> 
  <text x="581.97" y="568.788" fill="black" font-size="15" text-anchor="middle">00SAT67<tspan x="581.97" dy="15">AH001</tspan>
  </text>
  <polygon points="26.8332,1234.11 36.8332,1251.11 16.8332,1251.11" transform="flipX(503.622) rotate(90 31.3333 552.5) rotate(0 1.4013e-045 3.14533e-039) flipY(460.5)"/> 
  <line x1="153.153" y1="474.53" x2="95.5779" y2="474.53" stroke="black" stroke-width="3"/> 
  <image x="126.711" y="402.246" width="65" height="25" xlink:href="DS_Reg_degree.svg">
    <title>00SBU30AA210</title>
    <rt:dyn type="KKS" mode="constant" value="&quot;00SBU30AA210&quot;"/> 
    <rt:dyn type="SIGNAL" mode="constant" value="&quot;XQ54&quot;"/> 
  </image>
  <polygon points="-46.3691,336.528 -36.3691,353.528 -56.3691,353.528" transform="flipX(169.258) flipX(122.287) rotate(90 31.3333 552.5) rotate(0 1.4013e-045 3.14533e-039) flipY(460.5)"/> 
  <image x="124.211" y="431.489" width="70" height="65" xlink:href="DS_Reg_valve_tenzor.svg">
    <title>00SBU30AA210</title>
    <rt:dyn type="DATA_NARY" mode="constant" value="&quot;TYPE2&quot;"/> 
    <rt:dyn type="Operate" mode="constant" value="true"/> 
    <rt:dyn type="KKS" mode="constant" value="&quot;00SBU30AA210&quot;"/> 
  </image>
  <image x="331.818" y="437.485" width="70" height="70" xlink:href="DS_motor_tenzor.svg" transform="rotate(180 0 0)">
    <title>00SBU30AP010</title>
    <rt:dyn type="KKS" mode="constant" value="&quot;00SBU30AP010&quot;"/> 
    <rt:dyn type="DATA_NARY" mode="constant" value="&quot;TYPE2&quot;"/> 
    <rt:dyn type="Operate" mode="constant" value="true"/> 
  </image>
  <text x="157.727" y="500.606" fill="black" font-size="15" text-anchor="middle">00SBU30<tspan x="157.727" dy="15">AA210</tspan>
  </text>
  <text x="366.818" y="426.364" fill="black" font-size="15" text-anchor="middle">00SBU30<tspan x="366.818" dy="15">AP010</tspan>
  </text>
  <polyline points="393.545,392.015 557.544,392.015 557.544,468.788" fill="none" stroke="black"/> 
  <line x1="397.666" y1="334.016" x2="397.666" y2="348.016" stroke="black" stroke-width="1" transform="rotate(90 414.288 484.879)"/> 
  <image x="367.788" y="379.394" width="175" height="25" xlink:href="DS_ana_tenzor.svg">
    <title>00SAT67CT002</title>
    <rt:dyn type="FKKS" mode="constant" value="&quot;00SAT67CT002&quot;"/> 
    <rt:dyn type="X" mode="constant" value="&quot;T&quot;"/> 
    <rt:dyn type="ShowFrame" mode="constant" value="true"/> 
    <rt:dyn type="ValueToTheRight" mode="constant" value="false"/> 
    <rt:dyn type="Color_Readings" mode="constant" value="true"/> 
  </image>
  <image x="568.303" y="448.091" width="130" height="128.857" xlink:href="ps_TempValve.svg">
    <title>00SAT67AH001</title>
  </image>
  <g transform="flipX(25.3379)">
    <line x1="-630.117" y1="219.289" x2="-569.117" y2="219.289" stroke="black" stroke-width="1"/> 
    <line x1="-568.127" y1="211.789" x2="-568.127" y2="225.789" stroke="black" stroke-width="1"/> 
  </g>
  <image x="638" y="206.667" width="174.242" height="24.2424" xlink:href="DS_ana_tenzor.svg">
    <title>00SAT67CT003</title>
    <rt:dyn type="FKKS" mode="constant" value="&quot;00SAT67CT003&quot;"/> 
    <rt:dyn type="X" mode="constant" value="&quot;T&quot;"/> 
    <rt:dyn type="ShowFrame" mode="constant" value="true"/> 
    <rt:dyn type="ValueToTheRight" mode="constant" value="false"/> 
    <rt:dyn type="Color_Readings" mode="constant" value="true"/> 
  </image>
  <text x="49.8485" y="479.798" fill="black" font-size="15" text-anchor="middle">00SBU30</text>
  <text x="49.8486" y="553" fill="black" font-size="15" text-anchor="middle">00SBU30</text>
  <polygon points="-520.456,568.926 -510.456,585.926 -530.456,585.926" transform="rotate(210 453.5 42.9997) rotate(90 31.3333 552.5) rotate(0 1.4013e-045 3.14533e-039) flipY(460.5)"/> 
  <rect x="4.697" y="35.4546" width="834.848" height="927.273" rx="0" ry="0" fill="none" stroke="black" stroke-dasharray="15,5"/> 
  <rect x="861.258" y="35.9546" width="827.273" height="927.273" rx="0" ry="0" fill="none" stroke="black" stroke-dasharray="15,5"/> 
  <rect x="890.545" y="53.1212" width="285.364" height="85.3637" rx="0" ry="0" fill="Col_BGSand" stroke="black" stroke-width="2"/> 
  <text x="909.915" y="77.2122" fill="black" font-size="15">Режим работы 00SAT66</text>
  <image x="903.485" y="100.606" width="181.818" height="24.2424" xlink:href="bitwise_tablo_4bits.svg">
    <title>00SAT66_XK92</title>
    <rt:dyn type="PointID_1" mode="constant" value="&quot;00SAT66_XK92&quot;"/> 
    <rt:dyn type="Text_0000" mode="constant" value="&quot;АВТОМАТИЧЕСКИЙ&quot;"/> 
    <rt:dyn type="Color_0001" mode="constant" value="&quot;Col_Green&quot;"/> 
    <rt:dyn type="Text_0001" mode="constant" value="&quot;ДИСТАНЦИОННЫЙ&quot;"/> 
    <rt:dyn type="Color_0000" mode="constant" value="&quot;Col_Green&quot;"/> 
  </image>
  <image x="1102.22" y="95.0302" width="60" height="30" xlink:href="ps_tenzor_system.svg">
    <title>00SAT66</title>
    <rt:dyn type="KKS" mode="constant" value="&quot;00SAT66&quot;"/> 
  </image>
  <text x="745.606" y="73.7122" fill="black" font-size="15" font-weight="bold" text-anchor="middle">00SAT67,<tspan x="745.606" dy="15">00SAT33-34</tspan>
  </text>
  <text x="1610.76" y="70.3031" fill="black" font-size="15" font-weight="bold" text-anchor="middle">00SAT66</text>
  <text x="551.667" y="849.091" fill="black" font-size="15" text-anchor="middle">00SAT67<tspan x="551.667" dy="15">AA001E</tspan>
  </text>
  <image x="518.333" y="764.242" width="70" height="70" xlink:href="DS_motor_rect_tenzor.svg">
    <title>00SAT67AA001E</title>
    <rt:dyn type="Operate" mode="constant" value="true"/> 
    <rt:dyn type="KKS" mode="constant" value="&quot;00SAT67AA001E&quot;"/> 
  </image>
  <polygon points="-737.327,-559.651 -727.327,-542.651 -747.327,-542.651" transform="rotate(210 453.5 42.9997) rotate(90 31.3333 552.5) rotate(0 1.4013e-045 3.14533e-039) flipY(460.5)"/> 
  <line x1="1470.6" y1="353.637" x2="1470.6" y2="182.425" stroke="black" stroke-width="3"/> 
  <g transform="flipX(25.3379)">
    <line x1="-1502.6" y1="879.274" x2="-1441.6" y2="879.274" stroke="black" stroke-width="1"/> 
    <line x1="-1440.61" y1="871.774" x2="-1440.61" y2="885.774" stroke="black" stroke-width="1"/> 
  </g>
  <text x="1407.73" y="340.379" fill="black" font-size="15" text-anchor="middle">00SAT66<tspan x="1407.73" dy="15">AN001</tspan>
  </text>
  <g transform="rotate(0 609.241 429.584) scale(0.765552 0.765552 609.241 429.584)">
    <rect x="1698.95" y="198.947" width="66.8757" height="34.9577" rx="0" ry="0" fill="Col_BGSand" stroke="black"/> 
    <polygon points="1734.87,199.116 1699.76,233.722 1730.61,233.472 1765.03,199.126" fill="Col_Grey2" stroke="black"/> 
  </g>
  <line x1="1485.27" y1="939.001" x2="1485.27" y2="332.425" stroke="black" stroke-width="3"/> 
  <image x="1451.41" y="317.331" width="70" height="70" xlink:href="DS_motor_tenzor.svg" transform="rotate(270 0 0)">
    <title>00SAT66AN001</title>
    <rt:dyn type="KKS" mode="constant" value="&quot;00SAT66AN001&quot;"/> 
    <rt:dyn type="DATA_NARY" mode="constant" value="&quot;TYPE2&quot;"/> 
    <rt:dyn type="Operate" mode="constant" value="true"/> 
    <rt:dyn type="DeviceType" mode="constant" value="&quot;fan&quot;"/> 
  </image>
  <polyline points="1664.76,448.857 1714.76,448.857 1714.26,498.857 1664.76,498.357 1664.76,448.857" fill="Col_BGSand" stroke="black" stroke-width="3" transform="rotate(44.0618 1325.51 325.508)"/> 
  <text x="1538.33" y="716.198" fill="black" font-size="15" text-anchor="middle">00SAT66<tspan x="1538.33" dy="15">AT001</tspan>
  </text>
  <line x1="1452.29" y1="685.566" x2="1521.29" y2="685.566" stroke="black"/> 
  <line x1="1417.29" y1="632.865" x2="1478.29" y2="632.865" stroke="black" stroke-width="1"/> 
  <line x1="1416.61" y1="632.29" x2="1416.61" y2="740.88" stroke="black" stroke-width="1"/> 
  <line x1="1478.68" y1="625.365" x2="1478.68" y2="639.365" stroke="black" stroke-width="1"/> 
  <line x1="1416.28" y1="686.623" x2="1387.07" y2="686.623" stroke="black" stroke-width="1"/> 
  <text x="1558.03" y="791.516" fill="black" font-size="15" text-anchor="middle">00SAT66<tspan x="1558.03" dy="15">AA001</tspan>
  </text>
  <image x="1449.04" y="772.197" width="70" height="45" xlink:href="DS_pivot_valve_tenzor.svg">
    <title>00SAT66AA001</title>
    <rt:dyn type="KKS" mode="constant" value="&quot;00SAT66AA001&quot;"/> 
    <rt:dyn type="DATA_NARY" mode="constant" value="&quot;TYPE2&quot;"/> 
    <rt:dyn type="Operate" mode="constant" value="true"/> 
  </image>
  <line x1="1417.09" y1="739.774" x2="1478.09" y2="739.774" stroke="black" stroke-width="1"/> 
  <line x1="1478.68" y1="732.274" x2="1478.68" y2="746.274" stroke="black" stroke-width="1"/> 
  <image x="1510.49" y="866.652" width="174.242" height="24.2424" xlink:href="DS_ana_tenzor.svg">
    <title>00SAT66CT001</title>
    <rt:dyn type="FKKS" mode="constant" value="&quot;00SAT66CT001&quot;"/> 
    <rt:dyn type="X" mode="constant" value="&quot;T&quot;"/> 
    <rt:dyn type="ShowFrame" mode="constant" value="true"/> 
    <rt:dyn type="ValueToTheRight" mode="constant" value="false"/> 
    <rt:dyn type="Color_Readings" mode="constant" value="true"/> 
  </image>
  <line x1="1484.79" y1="540.546" x2="956.484" y2="540.546" stroke="black" stroke-width="3"/> 
  <line x1="1486" y1="471" x2="1028.15" y2="471" stroke="black" stroke-width="3"/> 
  <text x="1430.45" y="558.561" fill="black" font-size="15" text-anchor="middle">00SAT66<tspan x="1430.45" dy="15">AH001</tspan>
  </text>
  <polygon points="19.2882,380.776 29.2882,397.776 9.2882,397.776" transform="flipX(503.622) rotate(90 31.3333 552.5) rotate(0 1.4013e-045 3.14533e-039) flipY(460.5)"/> 
  <line x1="1006.49" y1="469.985" x2="948.911" y2="469.985" stroke="black" stroke-width="3"/> 
  <image x="980.044" y="397.701" width="65" height="25" xlink:href="DS_Reg_degree.svg">
    <title>00SBU30AA209</title>
    <rt:dyn type="KKS" mode="constant" value="&quot;00SBU30AA209&quot;"/> 
    <rt:dyn type="SIGNAL" mode="constant" value="&quot;XQ54&quot;"/> 
  </image>
  <polygon points="-50.9141,1189.86 -40.9141,1206.86 -60.9141,1206.86" transform="flipX(169.258) flipX(122.287) rotate(90 31.3333 552.5) rotate(0 1.4013e-045 3.14533e-039) flipY(460.5)"/> 
  <image x="977.544" y="426.944" width="70" height="65" xlink:href="DS_Reg_valve_tenzor.svg">
    <title>00SBU30AA209</title>
    <rt:dyn type="DATA_NARY" mode="constant" value="&quot;TYPE2&quot;"/> 
    <rt:dyn type="Operate" mode="constant" value="true"/> 
    <rt:dyn type="KKS" mode="constant" value="&quot;00SBU30AA209&quot;"/> 
  </image>
  <image x="1185.15" y="432.94" width="70" height="70" xlink:href="DS_motor_tenzor.svg" transform="rotate(180 0 0)">
    <title>00SBU30AP009</title>
    <rt:dyn type="KKS" mode="constant" value="&quot;00SBU30AP009&quot;"/> 
    <rt:dyn type="DATA_NARY" mode="constant" value="&quot;TYPE2&quot;"/> 
    <rt:dyn type="Operate" mode="constant" value="true"/> 
  </image>
  <text x="1011.06" y="496.061" fill="black" font-size="15" text-anchor="middle">00SBU30<tspan x="1011.06" dy="15">AA209</tspan>
  </text>
  <text x="1220.15" y="421.819" fill="black" font-size="15" text-anchor="middle">00SBU30<tspan x="1220.15" dy="15">AP009</tspan>
  </text>
  <polyline points="1246.88,387.47 1410.88,387.47 1410.88,464.243" fill="none" stroke="black"/> 
  <line x1="393.121" y1="-519.317" x2="393.121" y2="-505.317" stroke="black" stroke-width="1" transform="rotate(90 414.288 484.879)"/> 
  <image x="1221.12" y="374.849" width="175" height="25" xlink:href="DS_ana_tenzor.svg">
    <title>00SAT66CT002</title>
    <rt:dyn type="FKKS" mode="constant" value="&quot;00SAT66CT002&quot;"/> 
    <rt:dyn type="X" mode="constant" value="&quot;T&quot;"/> 
    <rt:dyn type="ShowFrame" mode="constant" value="true"/> 
    <rt:dyn type="ValueToTheRight" mode="constant" value="false"/> 
    <rt:dyn type="Color_Readings" mode="constant" value="true"/> 
  </image>
  <image x="1421.64" y="443.546" width="130" height="128.857" xlink:href="ps_TempValve.svg">
    <title>00SAT66AH001</title>
  </image>
  <g transform="flipX(25.3379)">
    <line x1="-1486.21" y1="215.743" x2="-1425.21" y2="215.743" stroke="black" stroke-width="1"/> 
    <line x1="-1424.22" y1="208.243" x2="-1424.22" y2="222.243" stroke="black" stroke-width="1"/> 
  </g>
  <image x="1494.09" y="203.121" width="174.242" height="24.2424" xlink:href="DS_ana_tenzor.svg">
    <title>00SAT66CT003</title>
    <rt:dyn type="FKKS" mode="constant" value="&quot;00SAT66CT003&quot;"/> 
    <rt:dyn type="X" mode="constant" value="&quot;T&quot;"/> 
    <rt:dyn type="ShowFrame" mode="constant" value="true"/> 
    <rt:dyn type="ValueToTheRight" mode="constant" value="false"/> 
    <rt:dyn type="Color_Readings" mode="constant" value="true"/> 
  </image>
  <text x="1469.5" y="145.5" fill="black" font-size="15" text-anchor="middle">К вытяжным вентиляторам<tspan x="1469.5" dy="15">00SAT32 - 00SAT35</tspan>
  </text>
  <text x="903.182" y="475.253" fill="black" font-size="15" text-anchor="middle">00SBU30</text>
  <text x="903.182" y="545.455" fill="black" font-size="15" text-anchor="middle">00SBU30</text>
  <polygon points="-88.8528,-169.541 -78.8528,-152.541 -98.8528,-152.541" transform="rotate(210 453.5 42.9997) rotate(90 31.3333 552.5) rotate(0 1.4013e-045 3.14533e-039) flipY(460.5)"/> 
  <text x="1405" y="844.925" fill="black" font-size="15" text-anchor="middle">00SAT66<tspan x="1405" dy="15">AA001E</tspan>
  </text>
  <image x="1371.67" y="759.697" width="70" height="70" xlink:href="DS_motor_rect_tenzor.svg">
    <title>00SAT66AA001E</title>
    <rt:dyn type="Operate" mode="constant" value="true"/> 
    <rt:dyn type="KKS" mode="constant" value="&quot;00SAT66AA001E&quot;"/> 
  </image>
  <image x="721.743" y="448.576" width="25" height="25" xlink:href="bin_indicator.svg">
    <title>00SAT67AN001_XB06</title>
    <rt:dyn type="PointID" mode="constant" value="&quot;00SAT67AN001_XB06&quot;"/> 
  </image>
  <text x="734.243" y="490.076" fill="black" font-size="15" text-anchor="middle">Прогрев<tspan x="734.243" dy="15">системы</tspan>
  </text>
  <image x="721.743" y="516.759" width="25" height="25" xlink:href="bin_indicator.svg">
    <title>00SAT67AH001_EK11</title>
    <rt:dyn type="PointID" mode="constant" value="&quot;00SAT67AH001_EK11&quot;"/> 
  </image>
  <text x="734.243" y="558.258" fill="black" font-size="15" text-anchor="middle">Угроза<tspan x="734.243" dy="15">замораживания</tspan>
  </text>
  <image x="1582.35" y="442.515" width="25" height="25" xlink:href="bin_indicator.svg">
    <title>00SAT66AN001_XB06</title>
    <rt:dyn type="PointID" mode="constant" value="&quot;00SAT66AN001_XB06&quot;"/> 
  </image>
  <text x="1594.85" y="484.015" fill="black" font-size="15" text-anchor="middle">Прогрев<tspan x="1594.85" dy="15">системы</tspan>
  </text>
  <image x="1582.35" y="510.698" width="25" height="25" xlink:href="bin_indicator.svg">
    <title>00SAT66AH001_EK11</title>
    <rt:dyn type="PointID" mode="constant" value="&quot;00SAT66AH001_EK11&quot;"/> 
  </image>
  <text x="1594.85" y="552.197" fill="black" font-size="15" text-anchor="middle">Угроза<tspan x="1594.85" dy="15">замораживания</tspan>
  </text>
  <image x="705.833" y="319.788" width="25" height="25" xlink:href="bin_indicator.svg">
    <title>00SAT67CP002_XG51</title>
    <rt:dyn type="PointID" mode="constant" value="&quot;00SAT67CP002_XG51&quot;"/> 
  </image>
  <text x="718.333" y="361.288" fill="black" font-size="15" text-anchor="middle">Перепад<tspan x="718.333" dy="15">давления</tspan>
<tspan x="718.333" dy="15">&lt;1,14 кПа</tspan>
  </text>
  <image x="1557.35" y="313.727" width="25" height="25" xlink:href="bin_indicator.svg">
    <title>00SAT66CP002_XG51</title>
    <rt:dyn type="PointID" mode="constant" value="&quot;00SAT66CP002_XG51&quot;"/> 
  </image>
  <text x="1569.85" y="355.227" fill="black" font-size="15" text-anchor="middle">Перепад<tspan x="1569.85" dy="15">давления</tspan>
<tspan x="1569.85" dy="15">&lt;1,17 кПа</tspan>
  </text>
  <text x="159.242" y="217.273" fill="black" font-size="15" text-anchor="middle">00SAT33<tspan x="159.242" dy="15">AN001</tspan>
  </text>
  <line x1="416.519" y1="292.91" x2="416.519" y2="214" stroke="black" stroke-width="3"/> 
  <polygon points="-601.992,766.817 -591.992,783.817 -611.992,783.817" transform="rotate(210 453.5 42.9997) rotate(90 31.3333 552.5) rotate(0 1.4013e-045 3.14533e-039) flipY(460.5)"/> 
  <polygon points="-714.971,684.864 -704.971,701.864 -724.971,701.864" transform="rotate(210 453.5 42.9997) rotate(90 31.3333 552.5) rotate(0 1.4013e-045 3.14533e-039) flipY(460.5)"/> 
  <text x="344.091" y="214.242" fill="black" font-size="15" text-anchor="middle">00SAT34<tspan x="344.091" dy="15">AN001</tspan>
  </text>
  <text x="322.121" y="157.045" fill="black" font-size="15" text-anchor="middle">На кровлю</text>
  <line x1="403.019" y1="229.91" x2="403.019" y2="151" stroke="black" stroke-width="3"/> 
  <image x="384" y="190.454" width="70" height="70" xlink:href="DS_motor_tenzor.svg" transform="rotate(270 0 0)">
    <title>00SAT34AN001</title>
    <rt:dyn type="KKS" mode="constant" value="&quot;00SAT34AN001&quot;"/> 
    <rt:dyn type="DATA_NARY" mode="constant" value="&quot;TYPE2&quot;"/> 
    <rt:dyn type="Operate" mode="constant" value="true"/> 
    <rt:dyn type="DeviceType" mode="constant" value="&quot;fan&quot;"/> 
  </image>
  <line x1="233.515" y1="293.91" x2="233.515" y2="215" stroke="black" stroke-width="3"/> 
  <polygon points="-807.339,842.85 -797.339,859.85 -817.339,859.85" transform="rotate(210 453.5 42.9997) rotate(90 31.3333 552.5) rotate(0 1.4013e-045 3.14533e-039) flipY(460.5)"/> 
  <polygon points="-691.654,928.115 -681.654,945.115 -701.654,945.115" transform="rotate(210 453.5 42.9997) rotate(90 31.3333 552.5) rotate(0 1.4013e-045 3.14533e-039) flipY(460.5)"/> 
  <line x1="217.5" y1="226.91" x2="217.5" y2="148" stroke="black" stroke-width="3"/> 
  <image x="198.633" y="190" width="70" height="70" xlink:href="DS_motor_tenzor.svg" transform="rotate(270 0 0)">
    <title>00SAT33AN001</title>
    <rt:dyn type="KKS" mode="constant" value="&quot;00SAT33AN001&quot;"/> 
    <rt:dyn type="DATA_NARY" mode="constant" value="&quot;TYPE2&quot;"/> 
    <rt:dyn type="Operate" mode="constant" value="true"/> 
    <rt:dyn type="DeviceType" mode="constant" value="&quot;fan&quot;"/> 
  </image>
  <g transform="flipX(25.3379)">
    <line x1="-1499.81" y1="605.622" x2="-1438.81" y2="605.622" stroke="black" stroke-width="1"/> 
    <line x1="-1437.82" y1="598.122" x2="-1437.82" y2="612.122" stroke="black" stroke-width="1"/> 
  </g>
  <image x="1507.69" y="593" width="174.242" height="24.2424" xlink:href="DS_ana_tenzor.svg">
    <title>00SAT66CT004</title>
    <rt:dyn type="FKKS" mode="constant" value="&quot;00SAT66CT004&quot;"/> 
    <rt:dyn type="X" mode="constant" value="&quot;T&quot;"/> 
    <rt:dyn type="ShowFrame" mode="constant" value="true"/> 
    <rt:dyn type="ValueToTheRight" mode="constant" value="false"/> 
    <rt:dyn type="Color_Readings" mode="constant" value="true"/> 
  </image>
  <image x="1300" y="613" width="25" height="25" xlink:href="bin_indicator.svg">
    <title>00SAT66CP001_XG01</title>
    <rt:dyn type="PointID" mode="constant" value="&quot;00SAT66CP001_XG01&quot;"/> 
  </image>
  <text x="1312.5" y="653.288" fill="black" font-size="15" text-anchor="middle">Перепад<tspan x="1312.5" dy="15">давления</tspan>
<tspan x="1312.5" dy="15">&gt;0,15 кПа</tspan>
  </text>
  <image x="1300" y="688.759" width="25" height="25" xlink:href="bin_indicator.svg">
    <title>00SAT66CP001_XG51</title>
    <rt:dyn type="PointID" mode="constant" value="&quot;00SAT66CP001_XG51&quot;"/> 
  </image>
  <text x="1312.5" y="730.561" fill="black" font-size="15" text-anchor="middle">Перепад<tspan x="1312.5" dy="15">давления</tspan>
<tspan x="1312.5" dy="15">&lt;0,04 кПа</tspan>
  </text>
  <g transform="flipX(25.3379)">
    <line x1="-649.814" y1="607.622" x2="-588.814" y2="607.622" stroke="black" stroke-width="1"/> 
    <line x1="-587.824" y1="600.122" x2="-587.824" y2="614.122" stroke="black" stroke-width="1"/> 
  </g>
  <image x="657.694" y="595" width="174.242" height="24.2424" xlink:href="DS_ana_tenzor.svg">
    <title>00SAT67CT004</title>
    <rt:dyn type="FKKS" mode="constant" value="&quot;00SAT67CT004&quot;"/> 
    <rt:dyn type="X" mode="constant" value="&quot;T&quot;"/> 
    <rt:dyn type="ShowFrame" mode="constant" value="true"/> 
    <rt:dyn type="ValueToTheRight" mode="constant" value="false"/> 
    <rt:dyn type="Color_Readings" mode="constant" value="true"/> 
  </image>
  <image x="463" y="625" width="25" height="25" xlink:href="bin_indicator.svg">
    <title>00SAT67CP001_XG01</title>
    <rt:dyn type="PointID" mode="constant" value="&quot;00SAT67CP001_XG01&quot;"/> 
  </image>
  <text x="475.5" y="665.288" fill="black" font-size="15" text-anchor="middle">Перепад<tspan x="475.5" dy="15">давления</tspan>
<tspan x="475.5" dy="15">&gt;0,15 кПа</tspan>
  </text>
  <image x="463" y="700.759" width="25" height="25" xlink:href="bin_indicator.svg">
    <title>00SAT67CP001_XG51</title>
    <rt:dyn type="PointID" mode="constant" value="&quot;00SAT67CP001_XG51&quot;"/> 
  </image>
  <text x="475.5" y="742.561" fill="black" font-size="15" text-anchor="middle">Перепад<tspan x="475.5" dy="15">давления</tspan>
<tspan x="475.5" dy="15">&lt;0,04 кПа</tspan>
  </text>
  <image x="107" y="366" width="100" height="30" xlink:href="DS_Reg_set.svg">
    <title>&quot;00SBU30AA210&quot;</title>
    <rt:dyn type="KKS" mode="constant" value="&quot;00SBU30AA210&quot;"/> 
    <rt:dyn type="DATA_NARY" mode="constant" value="&quot;TYPE2&quot;"/> 
    <rt:dyn type="Operate" mode="constant" value="true"/> 
    <rt:dyn type="ShowGoodColor" mode="constant" value="true"/> 
  </image>
  <image x="959.243" y="362.727" width="100" height="30" xlink:href="DS_Reg_set.svg">
    <title>&quot;00SBU30AA209&quot;</title>
    <rt:dyn type="KKS" mode="constant" value="&quot;00SBU30AA209&quot;"/> 
    <rt:dyn type="DATA_NARY" mode="constant" value="&quot;TYPE2&quot;"/> 
    <rt:dyn type="Operate" mode="constant" value="true"/> 
    <rt:dyn type="ShowGoodColor" mode="constant" value="true"/> 
  </image>
</svg>
