<?xml  version="1.0" encoding="UTF-8"?>
<svg color="Col_BGSand" xmlns="http://www.w3.org/2000/svg" xmlns:rt="http://www.rts.co.at/2001/XMLSchema/RtSvgPL" xmlns:xlink="http://www.w3.org/1999/xlink" xmlns:xsi="http://www.w3.org/2001/XMLSchema-instance" xsi:schemaLocation="http://www.w3.org/2000/svg C:\RTS\RtSvg\XML\SVG.xsd" viewBox="0 0 1920 1080" width="1920" height="1080" id="00sab40_46">
  <rt:model modelversion="7.2.0.24" revision="1"/> 
  <line x1="759" y1="602.333" x2="626.33" y2="602.333" stroke="black" stroke-width="3"/> 
  <line x1="327" y1="949" x2="327" y2="358.182" stroke="black" stroke-width="3"/> 
  <line x1="309.758" y1="347.091" x2="309.758" y2="181" stroke="black" stroke-width="3"/> 
  <text x="400.853" y="356.833" fill="black" font-size="15" text-anchor="middle">00SAB40<tspan x="400.853" dy="15">AN001</tspan>
  </text>
  <polyline points="868.882,1290.31 918.882,1290.31 918.382,1340.31 868.882,1339.81 868.882,1290.31" fill="Col_BGSand" stroke="black" stroke-width="3" transform="rotate(44.0618 1325.51 325.508)"/> 
  <text x="379.5" y="764.5" fill="black" font-size="15" text-anchor="middle">00SAB40<tspan x="379.5" dy="15">AT001</tspan>
  </text>
  <polygon points="327.366,941.666 337.366,958.666 317.366,958.666"/> 
  <line x1="295.208" y1="736.742" x2="364.208" y2="736.742" stroke="black" stroke-dasharray="5,5"/> 
  <text x="257.848" y="874.514" fill="black" font-size="15" text-anchor="middle">00SAB40<tspan x="257.848" dy="15">AA001</tspan>
  </text>
  <line x1="255.333" y1="778.667" x2="318.208" y2="778.667" stroke="black" stroke-width="1"/> 
  <line x1="256.218" y1="695.242" x2="317.218" y2="695.242" stroke="black" stroke-width="1"/> 
  <line x1="256" y1="694.667" x2="256" y2="778.333" stroke="black" stroke-width="1"/> 
  <line x1="318.208" y1="687.742" x2="318.208" y2="701.742" stroke="black" stroke-width="1"/> 
  <line x1="318.208" y1="770.242" x2="318.208" y2="784.742" stroke="black" stroke-width="1"/> 
  <line x1="256.208" y1="738.242" x2="227" y2="738" stroke="black" stroke-width="1"/> 
  <line x1="309" y1="183" x2="612.67" y2="183" stroke="black" stroke-width="3"/> 
  <text x="25" y="25" font-size="15">00UYB 00CXV11GH003 0SAB40/00SAB46</text>
  <image x="293.208" y="851.742" width="70" height="45" xlink:href="DS_pivot_valve_tenzor.svg">
    <title>00SAB40AA001</title>
    <rt:dyn type="KKS" mode="constant" value="&quot;00SAB40AA001&quot;"/> 
    <rt:dyn type="DATA_NARY" mode="constant" value="&quot;TYPE2&quot;"/> 
    <rt:dyn type="Operate" mode="constant" value="true"/> 
  </image>
  <image x="52" y="724.333" width="175" height="25" xlink:href="DS_ana_tenzor.svg">
    <title>00SAB40CP001</title>
    <rt:dyn type="FKKS" mode="constant" value="&quot;00SAB40CP001&quot;"/> 
    <rt:dyn type="X" mode="constant" value="&quot;dP&quot;"/> 
    <rt:dyn type="ShowFrame" mode="constant" value="true"/> 
    <rt:dyn type="ValueToTheRight" mode="constant" value="false"/> 
    <rt:dyn type="Color_Readings" mode="constant" value="true"/> 
  </image>
  <line x1="337" y1="160" x2="337" y2="175.75" stroke="black" stroke-width="1"/> 
  <line x1="327.5" y1="176" x2="346.5" y2="176" stroke="black" stroke-width="1"/> 
  <line x1="207.5" y1="160" x2="337.5" y2="160" stroke="black" stroke-width="1"/> 
  <line x1="376.5" y1="120.5" x2="376.5" y2="173.917" stroke="black" stroke-width="1"/> 
  <line x1="367.333" y1="174.167" x2="386.333" y2="174.167" stroke="black" stroke-width="1"/> 
  <line x1="207" y1="120.5" x2="377" y2="121" stroke="black" stroke-width="1"/> 
  <line x1="462" y1="182.5" x2="462.5" y2="50" stroke="black" stroke-width="3"/> 
  <polygon points="-514.33,764 -504.334,781 -524.33,781" transform="rotate(90 426.5 42.9997) rotate(90 31.3333 552.5) rotate(0 1.4013e-045 3.14533e-039) flipY(460.5)"/> 
  <line x1="406.667" y1="83" x2="451.5" y2="83" stroke="black" stroke-width="1"/> 
  <line x1="450.5" y1="76.3333" x2="450.5" y2="90.3333" stroke="black" stroke-width="1"/> 
  <line x1="627.424" y1="949" x2="627.424" y2="356.667" stroke="black" stroke-width="3"/> 
  <line x1="611.273" y1="352.121" x2="611.273" y2="183.152" stroke="black" stroke-width="3"/> 
  <image x="592.213" y="324.333" width="70" height="70" xlink:href="DS_motor_tenzor.svg" transform="rotate(270 0 0)">
    <title>00SAB40AN002</title>
    <rt:dyn type="KKS" mode="constant" value="&quot;00SAB40AN002&quot;"/> 
    <rt:dyn type="DATA_NARY" mode="constant" value="&quot;TYPE2&quot;"/> 
    <rt:dyn type="Operate" mode="constant" value="true"/> 
    <rt:dyn type="DeviceType" mode="constant" value="&quot;fan&quot;"/> 
  </image>
  <text x="701.003" y="356.833" fill="black" font-size="15" text-anchor="middle">00SAB40<tspan x="701.003" dy="15">AN002</tspan>
  </text>
  <polyline points="1084.68,1081.68 1134.68,1081.68 1134.18,1131.68 1084.68,1131.18 1084.68,1081.68" fill="Col_BGSand" stroke="black" stroke-width="3" transform="rotate(44.0618 1325.51 325.508)"/> 
  <text x="577.5" y="769.5" fill="black" font-size="15" text-anchor="middle">00SAB40<tspan x="577.5" dy="15">AT002</tspan>
  </text>
  <line x1="595.36" y1="736.894" x2="664.36" y2="736.894" stroke="black" stroke-dasharray="5,5"/> 
  <text x="555" y="873.167" fill="black" font-size="15" text-anchor="middle">00SAB40<tspan x="555" dy="15">AA002</tspan>
  </text>
  <line x1="637.48" y1="778.818" x2="700.36" y2="778.818" stroke="black" stroke-width="1"/> 
  <line x1="639.37" y1="695.394" x2="700.37" y2="695.394" stroke="black" stroke-width="1"/> 
  <line x1="700.15" y1="694.818" x2="700.15" y2="778.484" stroke="black" stroke-width="1"/> 
  <line x1="638.36" y1="687.894" x2="638.36" y2="701.894" stroke="black" stroke-width="1"/> 
  <line x1="637.36" y1="770.394" x2="637.36" y2="784.894" stroke="black" stroke-width="1"/> 
  <line x1="729.36" y1="738.394" x2="700.15" y2="738.151" stroke="black" stroke-width="1"/> 
  <image x="593.36" y="851.894" width="70" height="45" xlink:href="DS_pivot_valve_tenzor.svg">
    <title>00SAB40AA002</title>
    <rt:dyn type="KKS" mode="constant" value="&quot;00SAB40AA002&quot;"/> 
    <rt:dyn type="DATA_NARY" mode="constant" value="&quot;TYPE2&quot;"/> 
    <rt:dyn type="Operate" mode="constant" value="true"/> 
  </image>
  <image x="730.15" y="724.484" width="175" height="25" xlink:href="DS_ana_tenzor.svg">
    <title>00SAB40CP002</title>
    <rt:dyn type="FKKS" mode="constant" value="&quot;00SAB40CP002&quot;"/> 
    <rt:dyn type="X" mode="constant" value="&quot;dP&quot;"/> 
    <rt:dyn type="ShowFrame" mode="constant" value="true"/> 
    <rt:dyn type="ValueToTheRight" mode="constant" value="false"/> 
    <rt:dyn type="Color_Readings" mode="constant" value="true"/> 
  </image>
  <g transform="flipX(653.5)">
    <line x1="723.5" y1="159.5" x2="723.5" y2="175.25" stroke="black" stroke-width="1"/> 
    <line x1="714" y1="175.5" x2="733" y2="175.5" stroke="black" stroke-width="1"/> 
    <line x1="594" y1="159.5" x2="724" y2="159.5" stroke="black" stroke-width="1"/> 
  </g>
  <g transform="flipX(571.667)">
    <line x1="591.5" y1="121.5" x2="591.5" y2="174.917" stroke="black" stroke-width="1"/> 
    <line x1="582.333" y1="175.167" x2="601.333" y2="175.167" stroke="black" stroke-width="1"/> 
    <line x1="422.334" y1="122" x2="591.334" y2="122" stroke="black" stroke-width="1"/> 
  </g>
  <image x="678.5" y="145" width="175" height="25" xlink:href="DS_ana_tenzor.svg">
    <title>00SAB40CT002</title>
    <rt:dyn type="FKKS" mode="constant" value="&quot;00SAB40CT002&quot;"/> 
    <rt:dyn type="X" mode="constant" value="&quot;T&quot;"/> 
    <rt:dyn type="ShowFrame" mode="constant" value="true"/> 
    <rt:dyn type="ValueToTheRight" mode="constant" value="false"/> 
    <rt:dyn type="Color_Readings" mode="constant" value="true"/> 
  </image>
  <image x="102" y="108" width="175" height="25" xlink:href="DS_ana_tenzor.svg">
    <title>00SAB40CP003</title>
    <rt:dyn type="FKKS" mode="constant" value="&quot;00SAB40CP003&quot;"/> 
    <rt:dyn type="X" mode="constant" value="&quot;P&quot;"/> 
    <rt:dyn type="ShowFrame" mode="constant" value="true"/> 
    <rt:dyn type="ValueToTheRight" mode="constant" value="false"/> 
    <rt:dyn type="Color_Readings" mode="constant" value="true"/> 
  </image>
  <image x="102.25" y="145" width="175" height="25" xlink:href="DS_ana_tenzor.svg">
    <title>00SAB40CT001</title>
    <rt:dyn type="FKKS" mode="constant" value="&quot;00SAB40CT001&quot;"/> 
    <rt:dyn type="X" mode="constant" value="&quot;T&quot;"/> 
    <rt:dyn type="ShowFrame" mode="constant" value="true"/> 
    <rt:dyn type="ValueToTheRight" mode="constant" value="false"/> 
    <rt:dyn type="Color_Readings" mode="constant" value="true"/> 
  </image>
  <line x1="948" y1="526.667" x2="626.3" y2="526.303" stroke="black" stroke-width="3"/> 
  <line x1="326.303" y1="526.303" x2="23" y2="526" stroke="black" stroke-width="3"/> 
  <polygon points="98.161,1055.5 108.161,1072.5 88.165,1072.5" transform="flipX(684.833) flipX(399.833) rotate(90 93.3313 598.5)"/> 
  <image x="165.636" y="484.261" width="70" height="65" xlink:href="DS_Reg_valve_tenzor.svg">
    <title>00SBT04AA229</title>
    <rt:dyn type="DATA_NARY" mode="constant" value="&quot;TYPE2&quot;"/> 
    <rt:dyn type="Operate" mode="constant" value="true"/> 
    <rt:dyn type="KKS" mode="constant" value="&quot;00SBT04AA229&quot;"/> 
  </image>
  <image x="168.306" y="454.761" width="65" height="25" xlink:href="DS_Reg_degree.svg">
    <title>00SBT04AA229</title>
    <rt:dyn type="KKS" mode="constant" value="&quot;00SBT04AA229&quot;"/> 
    <rt:dyn type="SIGNAL" mode="constant" value="&quot;XQ54&quot;"/> 
  </image>
  <line x1="326.667" y1="604" x2="194" y2="604" stroke="black" stroke-width="3"/> 
  <image x="261.303" y="499.303" width="130" height="130" xlink:href="ps_TempValve.svg">
    <title>00SAB40AH001</title>
    <rt:dyn type="KKS" mode="constant" value="&quot;00SAB40AH001&quot;"/> 
    <rt:dyn type="TYPE" mode="constant" value="&quot;TYPE2&quot;"/> 
  </image>
  <text x="381.053" y="622.303" fill="black" font-size="15" text-anchor="middle">00SAB40<tspan x="381.053" dy="15">AH001</tspan>
  </text>
  <image x="716.79" y="484.412" width="70" height="65" xlink:href="DS_Reg_valve_tenzor.svg">
    <title>00SBT04AA230</title>
    <rt:dyn type="DATA_NARY" mode="constant" value="&quot;TYPE2&quot;"/> 
    <rt:dyn type="Operate" mode="constant" value="true"/> 
    <rt:dyn type="KKS" mode="constant" value="&quot;00SBT04AA230&quot;"/> 
  </image>
  <image x="719.46" y="454.912" width="65" height="25" xlink:href="DS_Reg_degree.svg">
    <title>00SBT04AA230</title>
    <rt:dyn type="KKS" mode="constant" value="&quot;00SBT04AA230&quot;"/> 
    <rt:dyn type="SIGNAL" mode="constant" value="&quot;XQ54&quot;"/> 
  </image>
  <image x="561.45" y="499.454" width="130" height="130" xlink:href="ps_TempValve.svg">
    <title>00SAB40AH002</title>
    <rt:dyn type="KKS" mode="constant" value="&quot;00SAB40AH002&quot;"/> 
    <rt:dyn type="TYPE" mode="constant" value="&quot;TYPE2&quot;"/> 
  </image>
  <text x="574.3" y="620.803" fill="black" font-size="15" text-anchor="middle">00SAB40<tspan x="574.3" dy="15">AH002</tspan>
  </text>
  <line x1="23.455" y1="884.455" x2="23" y2="524.667" stroke="black" stroke-width="3"/> 
  <polygon points="364.182,338.559 374.182,355.559 354.182,355.559" transform="rotate(30 27.8333 903.333) rotate(90 31.3333 552.5) rotate(0 1.4013e-045 3.14533e-039) flipY(460.5)"/> 
  <line x1="31.788" y1="845.705" x2="123.455" y2="845.705" stroke="black" stroke-width="1"/> 
  <line x1="31.621" y1="838.455" x2="31.621" y2="852.955" stroke="black" stroke-width="1"/> 
  <image x="73.455" y="831.455" width="175" height="25" xlink:href="DS_ana_tenzor.svg">
    <title>00SBT04CT029</title>
    <rt:dyn type="FKKS" mode="constant" value="&quot;00SBT04CT029&quot;"/> 
    <rt:dyn type="X" mode="constant" value="&quot;T&quot;"/> 
    <rt:dyn type="ShowFrame" mode="constant" value="true"/> 
    <rt:dyn type="ValueToTheRight" mode="constant" value="false"/> 
    <rt:dyn type="Color_Readings" mode="constant" value="true"/> 
  </image>
  <line x1="947.95" y1="874.515" x2="948" y2="525.333" stroke="black" stroke-width="3"/> 
  <polygon points="-98.014,1139.24 -88.0138,1156.24 -108.014,1156.24" transform="rotate(30 27.8333 903.333) rotate(90 31.3333 552.5) rotate(0 1.4013e-045 3.14533e-039) flipY(460.5)"/> 
  <line x1="849.76" y1="845.015" x2="941.43" y2="845.015" stroke="black" stroke-width="1"/> 
  <line x1="941.59" y1="837.182" x2="941.59" y2="851.682" stroke="black" stroke-width="1"/> 
  <image x="724.09" y="831.455" width="175" height="25" xlink:href="DS_ana_tenzor.svg">
    <title>00SBT04CT030</title>
    <rt:dyn type="FKKS" mode="constant" value="&quot;00SBT04CT030&quot;"/> 
    <rt:dyn type="X" mode="constant" value="&quot;T&quot;"/> 
    <rt:dyn type="ShowFrame" mode="constant" value="true"/> 
    <rt:dyn type="ValueToTheRight" mode="constant" value="false"/> 
    <rt:dyn type="Color_Readings" mode="constant" value="true"/> 
  </image>
  <polygon points="97.494,-1052.5 107.494,-1035.5 87.498,-1035.5" transform="flipX(1248.83) rotate(90 93.3313 598.5)"/> 
  <image x="261.333" y="68" width="175" height="25" xlink:href="DS_ana_tenzor.svg">
    <title>00SAB40CT003</title>
    <rt:dyn type="FKKS" mode="constant" value="&quot;00SAB40CT003&quot;"/> 
    <rt:dyn type="X" mode="constant" value="&quot;T&quot;"/> 
    <rt:dyn type="ShowFrame" mode="constant" value="true"/> 
    <rt:dyn type="ValueToTheRight" mode="constant" value="false"/> 
    <rt:dyn type="Color_Readings" mode="constant" value="true"/> 
  </image>
  <image x="678.5" y="108" width="175" height="25" xlink:href="DS_ana_tenzor.svg">
    <title>00SAB40CP004</title>
    <rt:dyn type="FKKS" mode="constant" value="&quot;00SAB40CP004&quot;"/> 
    <rt:dyn type="X" mode="constant" value="&quot;P&quot;"/> 
    <rt:dyn type="ShowFrame" mode="constant" value="true"/> 
    <rt:dyn type="ValueToTheRight" mode="constant" value="false"/> 
    <rt:dyn type="Color_Readings" mode="constant" value="true"/> 
  </image>
  <polygon points="627,943.454 637,960.454 617,960.454"/> 
  <line x1="1712" y1="603.333" x2="1579.33" y2="602.666" stroke="black" stroke-width="3"/> 
  <line x1="1280" y1="950" x2="1280" y2="352.121" stroke="black" stroke-width="3"/> 
  <line x1="1263.8" y1="336.97" x2="1263.8" y2="184" stroke="black" stroke-width="3"/> 
  <image x="1245.09" y="318.273" width="70" height="70" xlink:href="DS_motor_tenzor.svg" transform="rotate(270 0 0)">
    <title>00SAB46AN001</title>
    <rt:dyn type="KKS" mode="constant" value="&quot;00SAB46AN001&quot;"/> 
    <rt:dyn type="DATA_NARY" mode="constant" value="&quot;TYPE2&quot;"/> 
    <rt:dyn type="Operate" mode="constant" value="true"/> 
    <rt:dyn type="DeviceType" mode="constant" value="&quot;fan&quot;"/> 
  </image>
  <text x="1353.88" y="350.773" fill="black" font-size="15" text-anchor="middle">00SAB46<tspan x="1353.88" dy="15">AN001</tspan>
  </text>
  <polyline points="1554.43,628.277 1604.43,628.277 1603.93,678.277 1554.43,677.777 1554.43,628.277" fill="Col_BGSand" stroke="black" stroke-width="3" transform="rotate(44.0618 1325.51 325.508)"/> 
  <text x="1332.5" y="765.5" fill="black" font-size="15" text-anchor="middle">00SAB46<tspan x="1332.5" dy="15">AT001</tspan>
  </text>
  <polygon points="1280.37,942.666 1290.37,959.666 1270.37,959.666"/> 
  <line x1="1248.21" y1="737.742" x2="1317.21" y2="737.742" stroke="black" stroke-dasharray="5,5"/> 
  <text x="1210.85" y="875.514" fill="black" font-size="15" text-anchor="middle">00SAB46<tspan x="1210.85" dy="15">AA001</tspan>
  </text>
  <line x1="1208.33" y1="779.667" x2="1271.21" y2="779.667" stroke="black" stroke-width="1"/> 
  <line x1="1209.22" y1="696.242" x2="1270.22" y2="696.242" stroke="black" stroke-width="1"/> 
  <line x1="1209" y1="695.667" x2="1209" y2="779.333" stroke="black" stroke-width="1"/> 
  <line x1="1271.21" y1="688.742" x2="1271.21" y2="702.742" stroke="black" stroke-width="1"/> 
  <line x1="1271.21" y1="771.242" x2="1271.21" y2="785.742" stroke="black" stroke-width="1"/> 
  <line x1="1209.21" y1="739.242" x2="1180" y2="739" stroke="black" stroke-width="1"/> 
  <line x1="1262.33" y1="184" x2="1565.67" y2="184.333" stroke="black" stroke-width="3"/> 
  <image x="1246.21" y="852.742" width="70" height="45" xlink:href="DS_pivot_valve_tenzor.svg">
    <title>00SAB46AA001</title>
    <rt:dyn type="KKS" mode="constant" value="&quot;00SAB46AA001&quot;"/> 
    <rt:dyn type="DATA_NARY" mode="constant" value="&quot;TYPE2&quot;"/> 
    <rt:dyn type="Operate" mode="constant" value="true"/> 
  </image>
  <image x="1005" y="725.333" width="175" height="25" xlink:href="DS_ana_tenzor.svg">
    <title>00SAB46CP001</title>
    <rt:dyn type="FKKS" mode="constant" value="&quot;00SAB46CP001&quot;"/> 
    <rt:dyn type="X" mode="constant" value="&quot;dP&quot;"/> 
    <rt:dyn type="ShowFrame" mode="constant" value="true"/> 
    <rt:dyn type="ValueToTheRight" mode="constant" value="false"/> 
    <rt:dyn type="Color_Readings" mode="constant" value="true"/> 
  </image>
  <line x1="1290" y1="161" x2="1290" y2="176.75" stroke="black" stroke-width="1"/> 
  <line x1="1280.5" y1="177" x2="1299.5" y2="177" stroke="black" stroke-width="1"/> 
  <line x1="1160.5" y1="161" x2="1290.5" y2="161" stroke="black" stroke-width="1"/> 
  <line x1="1329.5" y1="121.5" x2="1329.83" y2="174.917" stroke="black" stroke-width="1"/> 
  <line x1="1320.33" y1="175.167" x2="1339.33" y2="175.167" stroke="black" stroke-width="1"/> 
  <line x1="1160" y1="121.5" x2="1330" y2="122" stroke="black" stroke-width="1"/> 
  <line x1="1415" y1="183.5" x2="1415.5" y2="51" stroke="black" stroke-width="3"/> 
  <polygon points="-1467.33,765 -1457.33,782 -1477.33,782" transform="rotate(90 426.5 42.9997) rotate(90 31.3333 552.5) rotate(0 1.4013e-045 3.14533e-039) flipY(460.5)"/> 
  <line x1="1435.67" y1="84" x2="1480.5" y2="84" stroke="black" stroke-width="1"/> 
  <line x1="1436.5" y1="77.3333" x2="1436.5" y2="91.3333" stroke="black" stroke-width="1"/> 
  <line x1="1580.15" y1="950" x2="1580.15" y2="359.697" stroke="black" stroke-width="3"/> 
  <line x1="1563.77" y1="341.515" x2="1563.77" y2="184.152" stroke="black" stroke-width="3"/> 
  <image x="1546.61" y="318.273" width="70" height="70" xlink:href="DS_motor_tenzor.svg" transform="rotate(270 0 0)">
    <title>00SAB46AN002</title>
    <rt:dyn type="KKS" mode="constant" value="&quot;00SAB46AN002&quot;"/> 
    <rt:dyn type="DATA_NARY" mode="constant" value="&quot;TYPE2&quot;"/> 
    <rt:dyn type="Operate" mode="constant" value="true"/> 
    <rt:dyn type="DeviceType" mode="constant" value="&quot;fan&quot;"/> 
  </image>
  <text x="1655.4" y="350.773" fill="black" font-size="15" text-anchor="middle">00SAB46<tspan x="1655.4" dy="15">AN002</tspan>
  </text>
  <polyline points="1770.23,419.648 1820.23,419.648 1819.73,469.647 1770.23,469.147 1770.23,419.648" fill="Col_BGSand" stroke="black" stroke-width="3" transform="rotate(44.0618 1325.51 325.508)"/> 
  <text x="1530.5" y="770.5" fill="black" font-size="15" text-anchor="middle">00SAB46<tspan x="1530.5" dy="15">AT002</tspan>
  </text>
  <line x1="1548.36" y1="737.894" x2="1617.36" y2="737.894" stroke="black" stroke-dasharray="5,5"/> 
  <text x="1508" y="874.167" fill="black" font-size="15" text-anchor="middle">00SAB46<tspan x="1508" dy="15">AA002</tspan>
  </text>
  <line x1="1587.48" y1="781.818" x2="1650.36" y2="781.818" stroke="black" stroke-width="1"/> 
  <line x1="1589.37" y1="698.394" x2="1650.37" y2="698.394" stroke="black" stroke-width="1"/> 
  <line x1="1650.15" y1="697.818" x2="1650.15" y2="781.484" stroke="black" stroke-width="1"/> 
  <line x1="1588.36" y1="690.894" x2="1588.36" y2="704.894" stroke="black" stroke-width="1"/> 
  <line x1="1587.36" y1="773.394" x2="1587.36" y2="787.894" stroke="black" stroke-width="1"/> 
  <line x1="1679.36" y1="741.394" x2="1650.15" y2="741.151" stroke="black" stroke-width="1"/> 
  <image x="1546.36" y="852.894" width="70" height="45" xlink:href="DS_pivot_valve_tenzor.svg">
    <title>00SAB46AA002</title>
    <rt:dyn type="KKS" mode="constant" value="&quot;00SAB46AA002&quot;"/> 
    <rt:dyn type="DATA_NARY" mode="constant" value="&quot;TYPE2&quot;"/> 
    <rt:dyn type="Operate" mode="constant" value="true"/> 
  </image>
  <image x="1680.15" y="727.484" width="175" height="25" xlink:href="DS_ana_tenzor.svg">
    <title>00SAB46CP002</title>
    <rt:dyn type="FKKS" mode="constant" value="&quot;00SAB46CP002&quot;"/> 
    <rt:dyn type="X" mode="constant" value="&quot;dP&quot;"/> 
    <rt:dyn type="ShowFrame" mode="constant" value="true"/> 
    <rt:dyn type="ValueToTheRight" mode="constant" value="false"/> 
    <rt:dyn type="Color_Readings" mode="constant" value="true"/> 
  </image>
  <g transform="flipX(653.5)">
    <line x1="-229.5" y1="160.5" x2="-229.5" y2="176.25" stroke="black" stroke-width="1"/> 
    <line x1="-239" y1="176.5" x2="-220" y2="176.5" stroke="black" stroke-width="1"/> 
    <line x1="-359" y1="160.5" x2="-229" y2="160.5" stroke="black" stroke-width="1"/> 
  </g>
  <g transform="flipX(571.667)">
    <line x1="-361.5" y1="122.5" x2="-361.167" y2="175.917" stroke="black" stroke-width="1"/> 
    <line x1="-370.667" y1="176.167" x2="-351.667" y2="176.167" stroke="black" stroke-width="1"/> 
    <line x1="-530.666" y1="123" x2="-361.666" y2="123" stroke="black" stroke-width="1"/> 
  </g>
  <image x="1631.5" y="146" width="175" height="25" xlink:href="DS_ana_tenzor.svg">
    <title>00SAB46CT002</title>
    <rt:dyn type="FKKS" mode="constant" value="&quot;00SAB46CT002&quot;"/> 
    <rt:dyn type="X" mode="constant" value="&quot;T&quot;"/> 
    <rt:dyn type="ShowFrame" mode="constant" value="true"/> 
    <rt:dyn type="ValueToTheRight" mode="constant" value="false"/> 
    <rt:dyn type="Color_Readings" mode="constant" value="true"/> 
  </image>
  <image x="1055" y="109" width="175" height="25" xlink:href="DS_ana_tenzor.svg">
    <title>00SAB46CP003</title>
    <rt:dyn type="FKKS" mode="constant" value="&quot;00SAB46CP003&quot;"/> 
    <rt:dyn type="X" mode="constant" value="&quot;P&quot;"/> 
    <rt:dyn type="ShowFrame" mode="constant" value="true"/> 
    <rt:dyn type="ValueToTheRight" mode="constant" value="false"/> 
    <rt:dyn type="Color_Readings" mode="constant" value="true"/> 
  </image>
  <image x="1055.25" y="146" width="175" height="25" xlink:href="DS_ana_tenzor.svg">
    <title>00SAB46CT001</title>
    <rt:dyn type="FKKS" mode="constant" value="&quot;00SAB46CT001&quot;"/> 
    <rt:dyn type="X" mode="constant" value="&quot;T&quot;"/> 
    <rt:dyn type="ShowFrame" mode="constant" value="true"/> 
    <rt:dyn type="ValueToTheRight" mode="constant" value="false"/> 
    <rt:dyn type="Color_Readings" mode="constant" value="true"/> 
  </image>
  <line x1="1901" y1="527.667" x2="1579.3" y2="527.303" stroke="black" stroke-width="3"/> 
  <line x1="1279.3" y1="527.303" x2="976" y2="527" stroke="black" stroke-width="3"/> 
  <polygon points="99.161,102.498 109.161,119.498 89.165,119.498" transform="flipX(684.833) flipX(399.833) rotate(90 93.3313 598.5)"/> 
  <image x="1118.64" y="485.261" width="70" height="65" xlink:href="DS_Reg_valve_tenzor.svg">
    <title>00SBT04AA231</title>
    <rt:dyn type="DATA_NARY" mode="constant" value="&quot;TYPE2&quot;"/> 
    <rt:dyn type="Operate" mode="constant" value="true"/> 
    <rt:dyn type="KKS" mode="constant" value="&quot;00SBT04AA231&quot;"/> 
  </image>
  <image x="1121.31" y="455.761" width="65" height="25" xlink:href="DS_Reg_degree.svg">
    <title>00SBT04AA231</title>
    <rt:dyn type="KKS" mode="constant" value="&quot;00SBT04AA231&quot;"/> 
    <rt:dyn type="SIGNAL" mode="constant" value="&quot;XQ54&quot;"/> 
  </image>
  <line x1="1279.67" y1="605.667" x2="1147" y2="605" stroke="black" stroke-width="3"/> 
  <image x="1214.3" y="500.303" width="130" height="130" xlink:href="ps_TempValve.svg">
    <title>00SAB46AH001</title>
    <rt:dyn type="KKS" mode="constant" value="&quot;00SAB46AH001&quot;"/> 
    <rt:dyn type="TYPE" mode="constant" value="&quot;TYPE2&quot;"/> 
  </image>
  <text x="1334.05" y="623.303" fill="black" font-size="15" text-anchor="middle">00SAB46<tspan x="1334.05" dy="15">AH001</tspan>
  </text>
  <image x="1669.79" y="485.412" width="70" height="65" xlink:href="DS_Reg_valve_tenzor.svg">
    <title>00SBT04AA232</title>
    <rt:dyn type="DATA_NARY" mode="constant" value="&quot;TYPE2&quot;"/> 
    <rt:dyn type="Operate" mode="constant" value="true"/> 
    <rt:dyn type="KKS" mode="constant" value="&quot;00SBT04AA232&quot;"/> 
  </image>
  <image x="1672.46" y="455.912" width="65" height="25" xlink:href="DS_Reg_degree.svg">
    <title>00SBT04AA232</title>
    <rt:dyn type="KKS" mode="constant" value="&quot;00SBT04AA232&quot;"/> 
    <rt:dyn type="SIGNAL" mode="constant" value="&quot;XQ54&quot;"/> 
  </image>
  <image x="1514.45" y="500.454" width="130" height="130" xlink:href="ps_TempValve.svg">
    <title>00SAB46AH002</title>
    <rt:dyn type="KKS" mode="constant" value="&quot;00SAB46AH002&quot;"/> 
    <rt:dyn type="TYPE" mode="constant" value="&quot;TYPE2&quot;"/> 
  </image>
  <text x="1527.3" y="621.803" fill="black" font-size="15" text-anchor="middle">00SAB46<tspan x="1527.3" dy="15">AH002</tspan>
  </text>
  <line x1="976.455" y1="885.455" x2="976" y2="525.667" stroke="black" stroke-width="3"/> 
  <polygon points="-111.452,1164.37 -101.452,1181.37 -121.452,1181.37" transform="rotate(30 27.8333 903.333) rotate(90 31.3333 552.5) rotate(0 1.4013e-045 3.14533e-039) flipY(460.5)"/> 
  <line x1="984.788" y1="847.288" x2="1076.46" y2="847.288" stroke="black" stroke-width="1"/> 
  <line x1="984.621" y1="839.455" x2="984.621" y2="853.955" stroke="black" stroke-width="1"/> 
  <image x="1026.46" y="832.455" width="175" height="25" xlink:href="DS_ana_tenzor.svg">
    <title>00SBT04CT031</title>
    <rt:dyn type="FKKS" mode="constant" value="&quot;00SBT04CT031&quot;"/> 
    <rt:dyn type="X" mode="constant" value="&quot;T&quot;"/> 
    <rt:dyn type="ShowFrame" mode="constant" value="true"/> 
    <rt:dyn type="ValueToTheRight" mode="constant" value="false"/> 
    <rt:dyn type="Color_Readings" mode="constant" value="true"/> 
  </image>
  <line x1="1900.95" y1="875.515" x2="1901" y2="526.333" stroke="black" stroke-width="3"/> 
  <polygon points="-573.648,1965.01 -563.648,1982.01 -583.648,1982.01" transform="rotate(30 27.8333 903.333) rotate(90 31.3333 552.5) rotate(0 1.4013e-045 3.14533e-039) flipY(460.5)"/> 
  <line x1="1802.76" y1="846.015" x2="1894.43" y2="846.015" stroke="black" stroke-width="1"/> 
  <line x1="1894.59" y1="838.182" x2="1894.59" y2="852.682" stroke="black" stroke-width="1"/> 
  <image x="1677.09" y="832.455" width="175" height="25" xlink:href="DS_ana_tenzor.svg">
    <title>00SBT04CT032</title>
    <rt:dyn type="FKKS" mode="constant" value="&quot;00SBT04CT032&quot;"/> 
    <rt:dyn type="X" mode="constant" value="&quot;T&quot;"/> 
    <rt:dyn type="ShowFrame" mode="constant" value="true"/> 
    <rt:dyn type="ValueToTheRight" mode="constant" value="false"/> 
    <rt:dyn type="Color_Readings" mode="constant" value="true"/> 
  </image>
  <polygon points="98.494,-99.502 108.494,-82.502 88.498,-82.502" transform="flipX(1248.83) rotate(90 93.3313 598.5)"/> 
  <image x="1458.33" y="69" width="175" height="25" xlink:href="DS_ana_tenzor.svg">
    <title>00SAB46CT003</title>
    <rt:dyn type="FKKS" mode="constant" value="&quot;00SAB46CT003&quot;"/> 
    <rt:dyn type="X" mode="constant" value="&quot;T&quot;"/> 
    <rt:dyn type="ShowFrame" mode="constant" value="true"/> 
    <rt:dyn type="ValueToTheRight" mode="constant" value="false"/> 
    <rt:dyn type="Color_Readings" mode="constant" value="true"/> 
  </image>
  <image x="1631.5" y="109" width="175" height="25" xlink:href="DS_ana_tenzor.svg">
    <title>00SAB46CP004</title>
    <rt:dyn type="FKKS" mode="constant" value="&quot;00SAB46CP004&quot;"/> 
    <rt:dyn type="X" mode="constant" value="&quot;P&quot;"/> 
    <rt:dyn type="ShowFrame" mode="constant" value="true"/> 
    <rt:dyn type="ValueToTheRight" mode="constant" value="false"/> 
    <rt:dyn type="Color_Readings" mode="constant" value="true"/> 
  </image>
  <polygon points="1580,944.454 1590,961.454 1570,961.454"/> 
  <image x="603.379" y="54.4853" width="181.818" height="24.2424" xlink:href="bitwise_tablo_4bits.svg">
    <title>00SAB40_XK92</title>
    <rt:dyn type="PointID_1" mode="constant" value="&quot;00SAB40_XK92&quot;"/> 
    <rt:dyn type="Text_0000" mode="constant" value="&quot;ÀÂÒÎÌÀÒÈ×ÅÑÊÈÉ&quot;"/> 
    <rt:dyn type="Color_0001" mode="constant" value="&quot;Col_Green&quot;"/> 
    <rt:dyn type="Text_0001" mode="constant" value="&quot;ÄÈÑÒÀÍÖÈÎÍÍÛÉ&quot;"/> 
    <rt:dyn type="Color_0000" mode="constant" value="&quot;Col_Green&quot;"/> 
  </image>
  <text x="633.813" y="35.6553" fill="black" font-size="15">Ðåæèì ðàáîòû 00SAB40</text>
  <rect x="592.818" y="13.7273" width="275.758" height="81.8182" rx="0" ry="0" fill="none" stroke="black" stroke-width="2"/> 
  <image x="792.884" y="51.6063" width="60" height="30" xlink:href="ps_tenzor_system.svg">
    <title>00SAB40</title>
    <rt:dyn type="KKS" mode="constant" value="&quot;00SAB40&quot;"/> 
  </image>
  <image x="921.561" y="56.0004" width="181.818" height="24.2424" xlink:href="bitwise_tablo_4bits.svg">
    <title>00SAB46_XK92</title>
    <rt:dyn type="PointID_1" mode="constant" value="&quot;00SAB46_XK92&quot;"/> 
    <rt:dyn type="Text_0000" mode="constant" value="&quot;ÀÂÒÎÌÀÒÈ×ÅÑÊÈÉ&quot;"/> 
    <rt:dyn type="Color_0001" mode="constant" value="&quot;Col_Green&quot;"/> 
    <rt:dyn type="Text_0001" mode="constant" value="&quot;ÄÈÑÒÀÍÖÈÎÍÍÛÉ&quot;"/> 
    <rt:dyn type="Color_0000" mode="constant" value="&quot;Col_Green&quot;"/> 
  </image>
  <text x="951.995" y="37.1705" fill="black" font-size="15">Ðåæèì ðàáîòû 00SAB46</text>
  <rect x="911" y="15.2425" width="275.758" height="81.8182" rx="0" ry="0" fill="none" stroke="black" stroke-width="2"/> 
  <image x="1111.07" y="53.1215" width="60" height="30" xlink:href="ps_tenzor_system.svg">
    <title>00SAB46</title>
    <rt:dyn type="KKS" mode="constant" value="&quot;00SAB46&quot;"/> 
  </image>
  <image x="368.333" y="226.364" width="181.818" height="24.2424" xlink:href="bitwise_tablo_4bits.svg">
    <title>00SAB40AN001002</title>
    <rt:dyn type="PointID_1" mode="constant" value="&quot;00SAB40AN001002_Z0 0&quot;"/> 
    <rt:dyn type="Text_0001" mode="constant" value="&quot;ÀÂÐ ÍÅ ÃÎÒÎÂ&quot;"/> 
    <rt:dyn type="Text_0000" mode="constant" value="&quot;ÀÂÐ ÄÈÑÒ&quot;"/> 
    <rt:dyn type="Color_0010" mode="constant" value="&quot;Col_Yellow&quot;"/> 
    <rt:dyn type="Color_0001" mode="constant" value="&quot;Col_Green&quot;"/> 
    <rt:dyn type="Text_0010" mode="constant" value="&quot;ÀÂÐ ÃÎÒÎÂ&quot;"/> 
    <rt:dyn type="PointID_2" mode="constant" value="&quot;00SAB40AN001002_Z0 1&quot;"/> 
    <rt:dyn type="PointID_3" mode="constant" value="&quot;00SAB40AN001002_Z0 2&quot;"/> 
    <rt:dyn type="PointID_4" mode="constant" value="&quot;00SAB40AN001002_Z0 3&quot;"/> 
    <rt:dyn type="Text_0100" mode="constant" value="&quot;ÀÂÐ ÑÐÀÁÎÒÀË&quot;"/> 
    <rt:dyn type="Color_0100" mode="constant" value="&quot;Col_Red&quot;"/> 
    <rt:dyn type="Color_0000" mode="constant" value="&quot;Col_Grey3&quot;"/> 
  </image>
  <image x="1322.88" y="230.909" width="181.818" height="24.2424" xlink:href="bitwise_tablo_4bits.svg">
    <title>00SAB46AN001002</title>
    <rt:dyn type="PointID_1" mode="constant" value="&quot;00SAB46AN001002_Z0 0&quot;"/> 
    <rt:dyn type="Text_0001" mode="constant" value="&quot;ÀÂÐ ÍÅ ÃÎÒÎÂ&quot;"/> 
    <rt:dyn type="Text_0000" mode="constant" value="&quot;ÀÂÐ ÄÈÑÒ&quot;"/> 
    <rt:dyn type="Color_0010" mode="constant" value="&quot;Col_Yellow&quot;"/> 
    <rt:dyn type="Color_0001" mode="constant" value="&quot;Col_Green&quot;"/> 
    <rt:dyn type="Text_0010" mode="constant" value="&quot;ÀÂÐ ÃÎÒÎÂ&quot;"/> 
    <rt:dyn type="PointID_2" mode="constant" value="&quot;00SAB46AN001002_Z0 1&quot;"/> 
    <rt:dyn type="PointID_3" mode="constant" value="&quot;00SAB46AN001002_Z0 2&quot;"/> 
    <rt:dyn type="PointID_4" mode="constant" value="&quot;00SAB46AN001002_Z0 3&quot;"/> 
    <rt:dyn type="Text_0100" mode="constant" value="&quot;ÀÂÐ ÑÐÀÁÎÒÀË&quot;"/> 
    <rt:dyn type="Color_0100" mode="constant" value="&quot;Col_Red&quot;"/> 
    <rt:dyn type="Color_0000" mode="constant" value="&quot;Col_Grey3&quot;"/> 
  </image>
  <text x="200.909" y="555.531" fill="black" font-size="15" text-anchor="middle">00SBT04<tspan x="200.909" dy="15">AA229</tspan>
  </text>
  <text x="755.455" y="555.53" fill="black" font-size="15" text-anchor="middle">00SBT04<tspan x="755.455" dy="15">AA230</tspan>
  </text>
  <image x="291.061" y="324.333" width="70" height="70" xlink:href="DS_motor_tenzor.svg" transform="rotate(270 0 0)">
    <title>00SAB40AN001</title>
    <rt:dyn type="KKS" mode="constant" value="&quot;00SAB40AN001&quot;"/> 
    <rt:dyn type="DATA_NARY" mode="constant" value="&quot;TYPE2&quot;"/> 
    <rt:dyn type="Operate" mode="constant" value="true"/> 
    <rt:dyn type="DeviceType" mode="constant" value="&quot;fan&quot;"/> 
  </image>
  <text x="1156.21" y="558.561" fill="black" font-size="15" text-anchor="middle">00SBT04<tspan x="1156.21" dy="15">AA231</tspan>
  </text>
  <text x="1704.7" y="558.561" fill="black" font-size="15" text-anchor="middle">00SBT04<tspan x="1704.7" dy="15">AA232</tspan>
  </text>
  <g transform="rotate(360 609.241 429.584) scale(0.765552 0.765552 609.241 429.584)">
    <rect x="185.845" y="134.941" width="66.8757" height="34.9577" rx="0" ry="0" fill="Col_BGSand" stroke="black"/> 
    <polygon points="221.766,135.111 186.666,169.721 217.505,169.471 251.926,135.121" fill="Col_Grey2" stroke="black"/> 
  </g>
  <g transform="rotate(360 609.241 429.584) scale(0.765552 0.765552 609.241 429.584)">
    <rect x="578.472" y="134.941" width="66.8757" height="34.9577" rx="0" ry="0" fill="Col_BGSand" stroke="black"/> 
    <polygon points="614.393,135.111 579.293,169.721 610.132,169.471 644.553,135.121" fill="Col_Grey2" stroke="black"/> 
  </g>
  <g transform="rotate(360 609.241 429.584) scale(0.765552 0.765552 609.241 429.584)">
    <rect x="1430.81" y="138.266" width="66.8757" height="34.9577" rx="0" ry="0" fill="Col_BGSand" stroke="black"/> 
    <polygon points="1466.73,138.436 1431.63,173.046 1462.47,172.796 1496.89,138.446" fill="Col_Grey2" stroke="black"/> 
  </g>
  <g transform="rotate(360 609.241 429.584) scale(0.765552 0.765552 609.241 429.584)">
    <rect x="1822.65" y="136.92" width="66.8757" height="34.9577" rx="0" ry="0" fill="Col_BGSand" stroke="black"/> 
    <polygon points="1858.57,137.09 1823.47,171.7 1854.31,171.45 1888.73,137.1" fill="Col_Grey2" stroke="black"/> 
  </g>
  <line x1="230.455" y1="424.008" x2="322.122" y2="424.008" stroke="black" stroke-width="1"/> 
  <line x1="321.197" y1="416.758" x2="321.197" y2="431.258" stroke="black" stroke-width="1"/> 
  <image x="127.485" y="410.727" width="175" height="25" xlink:href="DS_ana_tenzor.svg">
    <title>00SAB40CT004</title>
    <rt:dyn type="FKKS" mode="constant" value="&quot;00SAB40CT004&quot;"/> 
    <rt:dyn type="X" mode="constant" value="&quot;T&quot;"/> 
    <rt:dyn type="ShowFrame" mode="constant" value="true"/> 
    <rt:dyn type="ValueToTheRight" mode="constant" value="false"/> 
    <rt:dyn type="Color_Readings" mode="constant" value="true"/> 
  </image>
  <line x1="632.454" y1="429.553" x2="724.121" y2="429.553" stroke="black" stroke-width="1"/> 
  <line x1="632.196" y1="422.303" x2="632.196" y2="436.803" stroke="black" stroke-width="1"/> 
  <image x="654.151" y="417.273" width="175" height="25" xlink:href="DS_ana_tenzor.svg">
    <title>00SAB40CT005</title>
    <rt:dyn type="FKKS" mode="constant" value="&quot;00SAB40CT005&quot;"/> 
    <rt:dyn type="X" mode="constant" value="&quot;T&quot;"/> 
    <rt:dyn type="ShowFrame" mode="constant" value="true"/> 
    <rt:dyn type="ValueToTheRight" mode="constant" value="false"/> 
    <rt:dyn type="Color_Readings" mode="constant" value="true"/> 
  </image>
  <line x1="1586" y1="428.235" x2="1677.67" y2="428.235" stroke="black" stroke-width="1"/> 
  <line x1="1586.74" y1="420.985" x2="1586.74" y2="435.485" stroke="black" stroke-width="1"/> 
  <line x1="1180.45" y1="435.099" x2="1272.12" y2="435.099" stroke="black" stroke-width="1"/> 
  <line x1="1271.2" y1="427.849" x2="1271.2" y2="442.349" stroke="black" stroke-width="1"/> 
  <image x="1068.33" y="421.818" width="175" height="25" xlink:href="DS_ana_tenzor.svg">
    <title>00SAB46CT004</title>
    <rt:dyn type="FKKS" mode="constant" value="&quot;00SAB46CT004&quot;"/> 
    <rt:dyn type="X" mode="constant" value="&quot;T&quot;"/> 
    <rt:dyn type="ShowFrame" mode="constant" value="true"/> 
    <rt:dyn type="ValueToTheRight" mode="constant" value="false"/> 
    <rt:dyn type="Color_Readings" mode="constant" value="true"/> 
  </image>
  <image x="1624.06" y="415.242" width="175" height="25" xlink:href="DS_ana_tenzor.svg">
    <title>00SAB46CT005</title>
    <rt:dyn type="FKKS" mode="constant" value="&quot;00SAB46CT005&quot;"/> 
    <rt:dyn type="X" mode="constant" value="&quot;T&quot;"/> 
    <rt:dyn type="ShowFrame" mode="constant" value="true"/> 
    <rt:dyn type="ValueToTheRight" mode="constant" value="false"/> 
    <rt:dyn type="Color_Readings" mode="constant" value="true"/> 
  </image>
  <image x="226.409" y="275.348" width="160" height="30" xlink:href="ps_tenzor_m0.svg">
    <title>00SAB40AN001</title>
    <rt:dyn type="KKS" mode="constant" value="&quot;00SAB40AN001&quot;"/> 
  </image>
  <image x="531.425" y="275.348" width="160" height="30" xlink:href="ps_tenzor_m0.svg">
    <title>00SAB40AN002</title>
    <rt:dyn type="KKS" mode="constant" value="&quot;00SAB40AN002&quot;"/> 
  </image>
  <image x="1183.98" y="270.803" width="160" height="30" xlink:href="ps_tenzor_m0.svg">
    <title>00SAB46AN001</title>
    <rt:dyn type="KKS" mode="constant" value="&quot;00SAB46AN001&quot;"/> 
  </image>
  <image x="1489" y="270.803" width="160" height="30" xlink:href="ps_tenzor_m0.svg">
    <title>00SAB46AN002</title>
    <rt:dyn type="KKS" mode="constant" value="&quot;00SAB46AN002&quot;"/> 
  </image>
  <image x="57.7273" y="486.97" width="100" height="30" xlink:href="DS_Reg_set.svg">
    <title>&quot;00SBT04AA229&quot;</title>
    <rt:dyn type="KKS" mode="constant" value="&quot;00SBT04AA229&quot;"/> 
    <rt:dyn type="DATA_NARY" mode="constant" value="&quot;TYPE2&quot;"/> 
    <rt:dyn type="Operate" mode="constant" value="true"/> 
    <rt:dyn type="ShowGoodColor" mode="constant" value="true"/> 
  </image>
  <image x="794.091" y="488.485" width="100" height="30" xlink:href="DS_Reg_set.svg">
    <title>&quot;00SBT04AA230&quot;</title>
    <rt:dyn type="KKS" mode="constant" value="&quot;00SBT04AA230&quot;"/> 
    <rt:dyn type="DATA_NARY" mode="constant" value="&quot;TYPE2&quot;"/> 
    <rt:dyn type="Operate" mode="constant" value="true"/> 
    <rt:dyn type="ShowGoodColor" mode="constant" value="true"/> 
  </image>
  <image x="1009.24" y="488.485" width="100" height="30" xlink:href="DS_Reg_set.svg">
    <title>&quot;00SBT04AA231&quot;</title>
    <rt:dyn type="KKS" mode="constant" value="&quot;00SBT04AA231&quot;"/> 
    <rt:dyn type="DATA_NARY" mode="constant" value="&quot;TYPE2&quot;"/> 
    <rt:dyn type="Operate" mode="constant" value="true"/> 
    <rt:dyn type="ShowGoodColor" mode="constant" value="true"/> 
  </image>
  <image x="1748.64" y="488.485" width="100" height="30" xlink:href="DS_Reg_set.svg">
    <title>&quot;00SBT04AA232&quot;</title>
    <rt:dyn type="KKS" mode="constant" value="&quot;00SBT04AA232&quot;"/> 
    <rt:dyn type="DATA_NARY" mode="constant" value="&quot;TYPE2&quot;"/> 
    <rt:dyn type="Operate" mode="constant" value="true"/> 
    <rt:dyn type="ShowGoodColor" mode="constant" value="true"/> 
  </image>
</svg>
