<?xml  version="1.0" encoding="windows-1251"?>
<svg color="Col_BGSand" xmlns="http://www.w3.org/2000/svg" xmlns:rt="http://www.rts.co.at/2001/XMLSchema/RtSvgPL" xmlns:xlink="http://www.w3.org/1999/xlink" xmlns:xsi="http://www.w3.org/2001/XMLSchema-instance" xsi:schemaLocation="http://www.w3.org/2000/svg C:\RTS\RtSvg\XML\SVG.xsd" viewBox="0 0 1920 980" width="1920" height="980" id="00sau41-00sau43,00sbp74" stroke="Col_Grey1">
  <rt:model modelversion="7.2.0.23" comment="Создано PERVAK-PC\User 10.12.2012 14:40:21"/> 
  <polyline points="1737,887 1737,937 1874,937 1875,887 1736,887" fill="Col_BGSand" stroke="black" stroke-width="2"/> 
  <polyline points="1738,625 1738,675 1875,675 1876,625 1737,625" fill="Col_BGSand" stroke="black" stroke-width="2"/> 
  <polyline points="1690,254 1909,254 1909,136 1690,136" fill="Col_BGSand" stroke="black" stroke-width="2"/> 
  <polyline points="1686.36,90.7576 1906.06,89.2424 1907,7 1688,7" fill="Col_BGSand" stroke="black" stroke-width="2"/> 
  <polyline points="1250,89.2424 1675,89.2424 1676,7 1250,7" fill="Col_BGSand" stroke="black" stroke-width="2"/> 
  <line x1="1650" y1="825" x2="1575" y2="825" stroke="black" stroke-width="3"/> 
  <line x1="1712" y1="917" x2="1450" y2="916.833" stroke="black" stroke-width="3"/> 
  <polygon points="299.25,675.75"/> 
  <line x1="89" y1="618" x2="89" y2="618" stroke="black"/> 
  <line x1="1063.33" y1="218.333" x2="1063.33" y2="218.333" stroke="black"/> 
  <g stroke-width="2">
    <line x1="1501.33" y1="431.333" x2="1500.67" y2="466.167" stroke="black"/> 
    <line x1="1500.67" y1="486.956" x2="1500.67" y2="519.667" stroke="black"/> 
    <line x1="1500.67" y1="465.667" x2="1510.67" y2="473.667" stroke="black"/> 
    <line x1="1509.67" y1="473.667" x2="1495.67" y2="478.667" stroke="black"/> 
    <line x1="1495.67" y1="478.667" x2="1502.67" y2="487.667" stroke="black"/> 
  </g>
  <polygon points="413.122,683.542 388.122,683.542 401.152,658.542" fill="black" stroke="black"/> 
  <image x="551.152" y="733.542" width="175" height="25" xlink:href="DS_ana.svg">
    <title>00SAU43CT004</title>
    <rt:dyn type="FKKS" mode="constant" value="&quot;00SAU43CP002&quot;"/> 
    <rt:dyn type="X" mode="constant" value="&quot;T&quot;"/> 
    <rt:dyn type="ShowFrame" mode="constant" value="true"/> 
    <rt:dyn type="Color_Readings" mode="constant" value="true"/> 
  </image>
  <line x1="626.152" y1="708.542" x2="401.152" y2="708.542" stroke="black" stroke-width="3"/> 
  <line x1="401.152" y1="683.542" x2="401.152" y2="716.542" stroke="black" stroke-width="3"/> 
  <polygon points="413.122,833.542 388.122,833.542 401.152,808.542" fill="black" stroke="black"/> 
  <line x1="401.152" y1="783.542" x2="401.152" y2="822.542" stroke="black" stroke-width="3"/> 
  <line x1="626.152" y1="708.542" x2="626.152" y2="733.542" stroke="black" stroke-width="3"/> 
  <line x1="626.152" y1="758.542" x2="626.152" y2="798.542" stroke="black" stroke-width="3"/> 
  <line x1="626.152" y1="798.042" x2="401.152" y2="798.042" stroke="black" stroke-width="3"/> 
  <text x="431.818" y="828.209" font-size="15">00SAU44AT017-019</text>
  <text x="105.455" y="40.3788" font-size="15">00SAU42AA002</text>
  <text x="109.091" y="436.455" font-size="15">00SAU42AA001</text>
  <text x="109.091" y="561.727" font-size="15">00SAU41AA001</text>
  <polygon points="835.691,-835.721 810.691,-835.721 823.721,-860.721" fill="black" stroke="black" transform="rotate(90 312.485 201.794)"/> 
  <polygon points="-276.634,2149.57 -301.634,2149.57 -288.604,2124.57" fill="black" stroke="black" transform="rotate(180 1805.13 692.702) rotate(270 312.485 201.794)"/> 
  <polygon points="-385.721,1614.31 -410.721,1614.31 -401.721,1590.31" fill="black" stroke="black" transform="rotate(270 312.485 201.794)"/> 
  <rect x="407.352" y="649.569" width="50" height="50" rx="0" ry="0" fill="Col_BGSand" stroke="black" transform="rotate(45 325 675)"/> 
  <line x1="365.152" y1="750.709" x2="435.152" y2="750.709" stroke="black"/> 
  <text x="1354.15" y="800.242" font-size="15">00SAU41AA002</text>
  <text x="1354.15" y="662.484" font-size="15">00SAU43AA003</text>
  <text x="1354.15" y="533" font-size="15">00SAU43AA001</text>
  <text x="1354.15" y="407.485" font-size="15">00SAU74AA201</text>
  <line x1="416.485" y1="750.209" x2="426.152" y2="758.542" stroke="black"/> 
  <line x1="399.652" y1="750.042" x2="419.479" y2="769.921" stroke="black"/> 
  <line x1="381.152" y1="751.542" x2="409.479" y2="776.79" stroke="black"/> 
  <text x="1743" y="919" font-size="15">01UYX07R017</text>
  <line x1="1500" y1="450" x2="1042" y2="450" stroke="black" stroke-width="3"/> 
  <line x1="1500" y1="500" x2="530.005" y2="500" stroke="black" stroke-width="3"/> 
  <line x1="1800" y1="225" x2="1675" y2="225" stroke="black" stroke-width="3"/> 
  <line x1="1488" y1="300" x2="1450" y2="300" stroke="black" stroke-width="3"/> 
  <line x1="1675" y1="283" x2="1525" y2="283.5" stroke="black" stroke-width="3"/> 
  <line x1="1550" y1="850" x2="75" y2="850" stroke="black" stroke-width="3"/> 
  <line x1="1550" y1="975" x2="25" y2="975" stroke="black" stroke-width="3"/> 
  <line x1="25" y1="84" x2="25" y2="975" stroke="black" stroke-width="3"/> 
  <line x1="1225" y1="25" x2="1225" y2="842" stroke="black" stroke-width="3"/> 
  <line x1="50" y1="485" x2="50" y2="940" stroke="black" stroke-width="3"/> 
  <line x1="1650" y1="582.667" x2="1650" y2="914.999" stroke="black" stroke-width="3"/> 
  <line x1="1500" y1="585" x2="1500" y2="713.333" stroke="black" stroke-width="3"/> 
  <line x1="1550" y1="918" x2="1550" y2="975" stroke="black" stroke-width="3"/> 
  <line x1="1418" y1="938" x2="50" y2="938" stroke="black" stroke-width="3"/> 
  <text x="460" y="544" font-size="15">00SAU43AH005-006</text>
  <text x="1459" y="255" font-size="15">00SAU43AN002</text>
  <text x="1744" y="657" fill-opacity="0.999939" font-size="15">01UYX07R033</text>
  <text x="1354.15" y="893.333" font-size="15">00SAU42AN001</text>
  <image x="1389" y="813.5" width="70" height="65" xlink:href="DS_reflux_valve.svg">
    <rt:dyn type="KKS" mode="constant" value="&quot;00SAU43AA003&quot;"/> 
    <rt:dyn type="Drive" mode="constant" value="&quot;fan&quot;"/> 
    <rt:dyn type="DATA_NARY" mode="constant" value="&quot;TYPE1&quot;"/> 
    <rt:dyn type="Operate" mode="constant" value="true"/> 
  </image>
  <line x1="1575" y1="363.5" x2="1450" y2="363.5" stroke="black" stroke-width="3"/> 
  <line x1="1700" y1="650" x2="1650" y2="650" stroke="black" stroke-width="3"/> 
  <line x1="1500" y1="175" x2="1450" y2="175" stroke="black" stroke-width="3"/> 
  <line x1="1650" y1="582.667" x2="1375" y2="583.5" stroke="black" stroke-width="3"/> 
  <line x1="1675" y1="490.5" x2="1575" y2="490.5" stroke="black" stroke-width="3"/> 
  <line x1="1500" y1="712.833" x2="1375" y2="712.833" stroke="black" stroke-width="3"/> 
  <polygon points="-249.841,460.169 -274.841,460.169 -261.811,435.169" fill="black" stroke="black" transform="rotate(180 1185.43 500.545) rotate(270 312.485 201.794)"/> 
  <polygon points="-123.751,1614.31 -148.751,1614.31 -135.721,1589.31" fill="black" stroke="black" transform="rotate(270 312.485 201.794)"/> 
  <line x1="1575" y1="365" x2="1575" y2="405" stroke="black" stroke-width="3"/> 
  <image x="1389" y="676" width="70" height="65" xlink:href="DS_reflux_valve.svg">
    <rt:dyn type="KKS" mode="constant" value="&quot;00SAU43AA003&quot;"/> 
    <rt:dyn type="Drive" mode="constant" value="&quot;fan&quot;"/> 
    <rt:dyn type="DATA_NARY" mode="constant" value="&quot;TYPE1&quot;"/> 
    <rt:dyn type="Operate" mode="constant" value="true"/> 
  </image>
  <image x="1389" y="547.439" width="70" height="65" xlink:href="DS_reflux_valve.svg">
    <rt:dyn type="KKS" mode="constant" value="&quot;00SAU43AA001&quot;"/> 
    <rt:dyn type="Drive" mode="constant" value="&quot;fan&quot;"/> 
    <rt:dyn type="DATA_NARY" mode="constant" value="&quot;TYPE1&quot;"/> 
    <rt:dyn type="Operate" mode="constant" value="true"/> 
  </image>
  <image x="1527" y="545.667" width="70" height="65" xlink:href="DS_reflux_valve.svg">
    <rt:dyn type="KKS" mode="constant" value="&quot;00SAU43AA002&quot;"/> 
    <rt:dyn type="Drive" mode="constant" value="&quot;fan&quot;"/> 
    <rt:dyn type="DATA_NARY" mode="constant" value="&quot;TYPE1&quot;"/> 
    <rt:dyn type="Operate" mode="constant" value="true"/> 
  </image>
  <line x1="875" y1="25" x2="875" y2="100" stroke="black" stroke-width="3"/> 
  <line x1="1675" y1="160" x2="1675" y2="284" stroke="black" stroke-width="3"/> 
  <line x1="1575" y1="470" x2="1575" y2="492" stroke="black" stroke-width="3"/> 
  <line x1="1675" y1="490" x2="1675" y2="650" stroke="black" stroke-width="3"/> 
  <line x1="75" y1="608" x2="75" y2="850" stroke="black" stroke-width="3"/> 
  <line x1="850" y1="25" x2="850" y2="100" stroke="black" stroke-width="3"/> 
  <line x1="800" y1="25" x2="800" y2="100" stroke="black" stroke-width="3"/> 
  <line x1="825" y1="25" x2="825" y2="100" stroke="black" stroke-width="3"/> 
  <image x="300" y="316" width="70" height="45" xlink:href="DS_pivot_valve.svg"/> 
  <line x1="1175.39" y1="349.864" x2="1175.39" y2="374.864" stroke="black" stroke-width="3"/> 
  <line x1="1450" y1="175" x2="1450" y2="365" stroke="black" stroke-width="3"/> 
  <text x="1440.91" y="27.1213" font-size="15">01UYX07R017</text>
  <image x="1475" y="265" width="70" height="70" xlink:href="DS_motor.svg" transform="rotate(90 0 0) flipX(-9.75132e-005) flipY(-0.000212431) flipX(0.000280619) flipX(0.000280619) flipY(-0.000212431) flipX(-9.75132e-005) rotate(270 -6.10352e-005 -6.10352e-005)">
    <title>00SAU03AN001</title>
    <rt:dyn type="KKS" mode="constant" value="&quot;00SAU43AN002&quot;"/> 
    <rt:dyn type="Operate" mode="constant" value="true"/> 
    <rt:dyn type="DATA_NARY" mode="constant" value="&quot;TYPE1&quot;"/> 
  </image>
  <line x1="1675" y1="158.5" x2="1525" y2="159" stroke="black" stroke-width="3"/> 
  <text x="1772.73" y="27.1213" font-size="15">01UYX07R038</text>
  <polygon points="-24.841,1110.17 -49.841,1110.17 -36.811,1085.17" fill="black" stroke="black" transform="rotate(180 1185.43 500.545) rotate(270 312.485 201.794)"/> 
  <polygon points="-85.7209,189.309 -110.721,189.309 -97.691,164.309" fill="black" stroke="black" transform="rotate(270 312.485 201.794)"/> 
  <polygon points="26.249,1064.31 1.24908,1064.31 14.279,1039.31" fill="black" stroke="black" transform="rotate(270 312.485 201.794)"/> 
  <image x="1389" y="412.5" width="70" height="65" xlink:href="DS_reflux_valve.svg">
    <rt:dyn type="KKS" mode="constant" value="&quot;00SAU74AA201&quot;"/> 
    <rt:dyn type="Drive" mode="constant" value="&quot;fan&quot;"/> 
    <rt:dyn type="DATA_NARY" mode="constant" value="&quot;TYPE1&quot;"/> 
    <rt:dyn type="Operate" mode="constant" value="true"/> 
  </image>
  <line x1="1050" y1="450" x2="525" y2="450" stroke="black" stroke-width="3"/> 
  <line x1="1190.39" y1="374.864" x2="1159.39" y2="374.864" stroke="black" stroke-width="3"/> 
  <line x1="290" y1="609" x2="75" y2="610" stroke="black" stroke-width="3"/> 
  <line x1="290" y1="487" x2="50" y2="486" stroke="black" stroke-width="3"/> 
  <line x1="275" y1="87" x2="25" y2="87" stroke="black" stroke-width="3"/> 
  <line x1="1225" y1="650" x2="250" y2="650" stroke="black" stroke-width="3"/> 
  <image x="425" y="392" width="175" height="25" xlink:href="DS_ana.svg">
    <title>00SAU43CT004</title>
    <rt:dyn type="FKKS" mode="constant" value="&quot;00SAU43CT002&quot;"/> 
    <rt:dyn type="X" mode="constant" value="&quot;T&quot;"/> 
    <rt:dyn type="ShowFrame" mode="constant" value="true"/> 
    <rt:dyn type="Color_Readings" mode="constant" value="true"/> 
  </image>
  <polygon points="340.97,94.1182 315.97,94.1182 329,69.1182" fill="black" stroke="black"/> 
  <image x="479" y="144.118" width="175" height="25" xlink:href="DS_ana.svg">
    <title>00SAU43CT004</title>
    <rt:dyn type="FKKS" mode="constant" value="&quot;00SAU43CP001&quot;"/> 
    <rt:dyn type="X" mode="constant" value="&quot;P&quot;"/> 
    <rt:dyn type="ShowFrame" mode="constant" value="true"/> 
    <rt:dyn type="Color_Readings" mode="constant" value="true"/> 
  </image>
  <line x1="554" y1="119.118" x2="329" y2="119.118" stroke="black" stroke-width="3"/> 
  <line x1="329" y1="94.1182" x2="329" y2="127.118" stroke="black" stroke-width="3"/> 
  <polygon points="340.97,244.118 315.97,244.118 329,219.118" fill="black" stroke="black"/> 
  <line x1="329" y1="194.118" x2="329" y2="233.118" stroke="black" stroke-width="3"/> 
  <line x1="554" y1="119.118" x2="554" y2="144.118" stroke="black" stroke-width="3"/> 
  <line x1="554" y1="169.118" x2="554" y2="209.118" stroke="black" stroke-width="3"/> 
  <line x1="554" y1="208.618" x2="329" y2="208.618" stroke="black" stroke-width="3"/> 
  <text x="359.667" y="238.785" font-size="15">00SAU44AT003</text>
  <rect x="-60.4526" y="283.802" width="50" height="50" rx="0" ry="0" fill="Col_BGSand" stroke="black" transform="rotate(45 325 675)"/> 
  <line x1="293" y1="161.285" x2="363" y2="161.285" stroke="black"/> 
  <image x="692" y="125" width="175" height="25" xlink:href="DS_ana.svg">
    <title>00SAU43CT004</title>
    <rt:dyn type="FKKS" mode="constant" value="&quot;00SAU43CT001&quot;"/> 
    <rt:dyn type="X" mode="constant" value="&quot;T&quot;"/> 
    <rt:dyn type="ShowFrame" mode="constant" value="true"/> 
    <rt:dyn type="Color_Readings" mode="constant" value="true"/> 
  </image>
  <line x1="937" y1="350" x2="937" y2="375" stroke="black" stroke-width="3"/> 
  <line x1="952" y1="375" x2="921" y2="375" stroke="black" stroke-width="3"/> 
  <line x1="638" y1="348" x2="638" y2="373" stroke="black" stroke-width="3"/> 
  <line x1="653" y1="373" x2="622" y2="373" stroke="black" stroke-width="3"/> 
  <line x1="335" y1="349" x2="335" y2="374" stroke="black" stroke-width="3"/> 
  <line x1="350" y1="374" x2="319" y2="374" stroke="black" stroke-width="3"/> 
  <image x="1725" y="178.03" width="175" height="25" xlink:href="DS_ana.svg">
    <title>00SAU43CT004</title>
    <rt:dyn type="FKKS" mode="constant" value="&quot;00SAU43CT003&quot;"/> 
    <rt:dyn type="X" mode="constant" value="&quot;T&quot;"/> 
    <rt:dyn type="ShowFrame" mode="constant" value="true"/> 
    <rt:dyn type="Color_Readings" mode="constant" value="true"/> 
  </image>
  <image x="1700" y="50" width="175" height="25" xlink:href="DS_ana.svg">
    <title>00SAU43CT004</title>
    <rt:dyn type="FKKS" mode="constant" value="&quot;00SAU43CT005&quot;"/> 
    <rt:dyn type="X" mode="constant" value="&quot;T&quot;"/> 
    <rt:dyn type="ShowFrame" mode="constant" value="true"/> 
    <rt:dyn type="Color_Readings" mode="constant" value="true"/> 
  </image>
  <image x="1500" y="50" width="175" height="25" xlink:href="DS_ana.svg">
    <title>00SAU43CT004</title>
    <rt:dyn type="FKKS" mode="constant" value="&quot;00SAU43CP003&quot;"/> 
    <rt:dyn type="X" mode="constant" value="&quot;P&quot;"/> 
    <rt:dyn type="ShowFrame" mode="constant" value="true"/> 
    <rt:dyn type="Color_Readings" mode="constant" value="true"/> 
  </image>
  <image x="1281.82" y="50" width="175" height="25" xlink:href="DS_ana.svg">
    <title>00SAU43CT004</title>
    <rt:dyn type="FKKS" mode="constant" value="&quot;00SAU43CT004&quot;"/> 
    <rt:dyn type="X" mode="constant" value="&quot;T&quot;"/> 
    <rt:dyn type="ShowFrame" mode="constant" value="true"/> 
    <rt:dyn type="Color_Readings" mode="constant" value="true"/> 
  </image>
  <text x="1522" y="540" font-size="15">00SAU43AA002</text>
  <text x="1781.21" y="155.152" font-size="15">01UYX07R031</text>
  <line x1="1687" y1="7" x2="1687" y2="92" stroke="black" stroke-width="2"/> 
  <line x1="1250" y1="91" x2="1250" y2="6" stroke="black" stroke-width="2"/> 
  <line x1="1691" y1="136" x2="1691" y2="254" stroke="black" stroke-width="2"/> 
  <polygon points="39.279,189.309 14.279,189.309 27.309,164.309" fill="black" stroke="black" transform="rotate(270 312.485 201.794)"/> 
  <polygon points="-386.811,1985.17 -411.811,1985.17 -398.781,1960.17" fill="black" stroke="black" transform="rotate(180 1185.43 500.545) rotate(270 312.485 201.794)"/> 
  <image x="150" y="49" width="70" height="65" xlink:href="DS_reflux_valve.svg">
    <rt:dyn type="KKS" mode="constant" value="&quot;00SAU20AA001&quot;"/> 
    <rt:dyn type="Drive" mode="constant" value="&quot;fan&quot;"/> 
    <rt:dyn type="DATA_NARY" mode="constant" value="&quot;TYPE1&quot;"/> 
    <rt:dyn type="Operate" mode="constant" value="true"/> 
  </image>
  <image x="150" y="448" width="70" height="65" xlink:href="DS_reflux_valve.svg">
    <rt:dyn type="KKS" mode="constant" value="&quot;00SAU20AA001&quot;"/> 
    <rt:dyn type="Drive" mode="constant" value="&quot;fan&quot;"/> 
    <rt:dyn type="DATA_NARY" mode="constant" value="&quot;TYPE1&quot;"/> 
    <rt:dyn type="Operate" mode="constant" value="true"/> 
  </image>
  <image x="151.182" y="572.47" width="70" height="65" xlink:href="DS_reflux_valve.svg">
    <rt:dyn type="KKS" mode="constant" value="&quot;00SAU20AA001&quot;"/> 
    <rt:dyn type="Drive" mode="constant" value="&quot;fan&quot;"/> 
    <rt:dyn type="DATA_NARY" mode="constant" value="&quot;TYPE1&quot;"/> 
    <rt:dyn type="Operate" mode="constant" value="true"/> 
  </image>
  <line x1="250" y1="25" x2="250" y2="840" stroke="black" stroke-width="3"/> 
  <line x1="1225" y1="25" x2="250" y2="25" stroke="black" stroke-width="3"/> 
  <line x1="675" y1="25" x2="675" y2="100" stroke="black" stroke-width="3"/> 
  <line x1="875" y1="100" x2="675" y2="100" stroke="black" stroke-width="3"/> 
  <line x1="775" y1="25" x2="775" y2="100" stroke="black" stroke-width="3"/> 
  <line x1="750" y1="25" x2="750" y2="100" stroke="black" stroke-width="3"/> 
  <line x1="725" y1="25" x2="725" y2="100" stroke="black" stroke-width="3"/> 
  <line x1="700" y1="25" x2="700" y2="100" stroke="black" stroke-width="3"/> 
  <line x1="1225" y1="361.5" x2="250" y2="361.5" stroke="black" stroke-width="3"/> 
  <line x1="1225" y1="250" x2="250" y2="250" stroke="black" stroke-width="3"/> 
  <text x="1087" y="400" font-size="15">01UYX07R028</text>
  <line x1="1225" y1="841.5" x2="250" y2="841.5" stroke="black" stroke-width="3"/> 
  <text x="1085" y="688" font-size="15">01UYX07R029</text>
  <text x="1086.36" y="309.727" font-size="15">00SAU43AA007</text>
  <text x="1089" y="57" font-size="15">01UYX07R026</text>
  <text x="875" y="309.727" font-size="15">00SAU43AA006</text>
  <text x="588" y="309.727" font-size="15">00SAU43AA005</text>
  <text x="281.818" y="309.727" font-size="15">00SAU43AA004</text>
  <text x="1100" y="275" font-size="15">01UYX07R027</text>
  <polygon points="336.94,124.382 311.94,124.382 324.97,99.3818" fill="black" stroke="black" transform="rotate(180 537.485 62.1909)"/> 
  <text x="1450" y="132" font-size="15">00SAU43AN001</text>
  <text x="1500" y="800.242" font-size="15">00SAU41AN001</text>
  <image x="602" y="316" width="70" height="45" xlink:href="DS_pivot_valve.svg"/> 
  <image x="902" y="318" width="70" height="45" xlink:href="DS_pivot_valve.svg"/> 
  <image x="1140" y="317" width="70" height="45" xlink:href="DS_pivot_valve.svg"/> 
  <image x="864" y="435" width="175" height="25" xlink:href="DS_ana.svg">
    <title>00SAU43CT004</title>
    <rt:dyn type="FKKS" mode="constant" value="&quot;00SBP74CT001&quot;"/> 
    <rt:dyn type="X" mode="constant" value="&quot;T&quot;"/> 
    <rt:dyn type="ShowFrame" mode="constant" value="true"/> 
    <rt:dyn type="Color_Readings" mode="constant" value="true"/> 
  </image>
  <image x="1475" y="140" width="70" height="70" xlink:href="DS_motor.svg" transform="rotate(90 0 0) flipX(-9.75132e-005) flipY(-0.000212431) flipX(0.000280619) flipX(0.000280619) flipY(-0.000212431) flipX(-9.75132e-005) rotate(270 -6.10352e-005 -6.10352e-005)">
    <title>00SAU03AN001</title>
    <rt:dyn type="KKS" mode="constant" value="&quot;00SAU43AN001&quot;"/> 
    <rt:dyn type="Operate" mode="constant" value="true"/> 
    <rt:dyn type="DATA_NARY" mode="constant" value="&quot;TYPE1&quot;"/> 
  </image>
  <image x="1525" y="805" width="70" height="70" xlink:href="DS_motor.svg" transform="rotate(90 0 0) flipX(-9.75132e-005) flipY(-0.000212431) flipX(0.000280619) flipX(0.000280619) flipY(-0.000212431) flipX(-9.75132e-005) rotate(270 -6.10352e-005 -6.10352e-005)">
    <title>00SAU03AN001</title>
    <rt:dyn type="KKS" mode="constant" value="&quot;00SAU41AN001&quot;"/> 
    <rt:dyn type="Operate" mode="constant" value="true"/> 
    <rt:dyn type="DeviceType" mode="constant" value="&quot;fan&quot;"/> 
    <rt:dyn type="DATA_NARY" mode="constant" value="&quot;TYPE1&quot;"/> 
  </image>
  <image x="1389" y="900" width="70" height="70" xlink:href="DS_motor.svg" transform="rotate(90 0 0) flipX(-9.75132e-005) flipY(-0.000212431) flipX(0.000280619) flipX(0.000280619) flipY(-0.000212431) flipX(-9.75132e-005) rotate(270 -6.10352e-005 -6.10352e-005)">
    <title>00SAU03AN001</title>
    <rt:dyn type="KKS" mode="constant" value="&quot;00SAU42AN001&quot;"/> 
    <rt:dyn type="Operate" mode="constant" value="true"/> 
    <rt:dyn type="DeviceType" mode="constant" value="&quot;fan&quot;"/> 
    <rt:dyn type="DATA_NARY" mode="constant" value="&quot;TYPE1&quot;"/> 
  </image>
  <image x="447.879" y="412.727" width="130" height="130" xlink:href="ps_TempValve.svg"/> 
  <image x="1510" y="370.303" width="130" height="130" xlink:href="ps_TempValve.svg"/> 
  <text x="1622.12" y="400.985" font-size="15">00SAU43AH001-00SAU43AH004</text>
  <image x="1361.52" y="367.273" width="65" height="25" xlink:href="DS_Reg_degree.svg">
    <rt:dyn type="KKS" mode="constant" value="&quot;00SAU74AA201&quot;"/> 
  </image>
</svg>
