<?xml  version="1.0" encoding="UTF-8"?>
<svg color="Col_BGSand" xmlns="http://www.w3.org/2000/svg" xmlns:rt="http://www.rts.co.at/2001/XMLSchema/RtSvgPL" xmlns:xlink="http://www.w3.org/1999/xlink" xmlns:xsi="http://www.w3.org/2001/XMLSchema-instance" xsi:schemaLocation="http://www.w3.org/2000/svg C:\RTS\RtSvg\XML\SVG.xsd" viewBox="0 0 1920 980" width="1920" height="980" id="00sab43">
  <rt:model modelversion="7.2.0.24" revision="1"/> 
  <text x="25" y="25" font-size="15">00UYB 00CXV11GH003 00SAB43</text>
  <line x1="470.56" y1="803.455" x2="470.671" y2="757.956" stroke="black" stroke-width="3"/> 
  <line x1="725.147" y1="518.188" x2="725.147" y2="422.416" stroke="black" stroke-width="3"/> 
  <text x="544.568" y="428.476" fill="black" font-size="15" text-anchor="middle">00SAB43<tspan x="544.568" dy="15">AN001</tspan>
  </text>
  <line x1="456.083" y1="303.621" x2="707.583" y2="304.621" stroke="black" stroke-width="3"/> 
  <line x1="580.37" y1="303.317" x2="580.37" y2="86.4545" stroke="black" stroke-width="3"/> 
  <text x="797.734" y="427.106" fill="black" font-size="15" text-anchor="middle">00SAB43<tspan x="797.734" dy="15">AN002</tspan>
  </text>
  <image x="36.7126" y="99.9398" width="181.818" height="24.2424" xlink:href="bitwise_tablo_4bits.svg">
    <title>00SAB43_XK92</title>
    <rt:dyn type="PointID_1" mode="constant" value="&quot;00SAB43_XK92&quot;"/> 
    <rt:dyn type="Text_0000" mode="constant" value="&quot;АВТОМАТИЧЕСКИЙ&quot;"/> 
    <rt:dyn type="Color_0001" mode="constant" value="&quot;Col_Green&quot;"/> 
    <rt:dyn type="Text_0001" mode="constant" value="&quot;ДИСТАНЦИОННЫЙ&quot;"/> 
    <rt:dyn type="Color_0000" mode="constant" value="&quot;Col_Green&quot;"/> 
  </image>
  <text x="67.1466" y="81.1098" fill="black" font-size="15">Режим работы 00SAB43</text>
  <rect x="26.1516" y="59.1818" width="275.758" height="81.8182" rx="0" ry="0" fill="none" stroke="black" stroke-width="2"/> 
  <image x="226.218" y="97.0609" width="60" height="30" xlink:href="ps_tenzor_system.svg">
    <title>00SAB43</title>
    <rt:dyn type="KKS" mode="constant" value="&quot;00SAB43&quot;"/> 
  </image>
  <image x="493.333" y="336.97" width="181.818" height="24.2424" xlink:href="bitwise_tablo_4bits.svg">
    <title>00SAB43AN001002</title>
    <rt:dyn type="PointID_1" mode="constant" value="&quot;00SAB43AN001002_Z0 0&quot;"/> 
    <rt:dyn type="Text_0001" mode="constant" value="&quot;АВР НЕ ГОТОВ&quot;"/> 
    <rt:dyn type="Text_0000" mode="constant" value="&quot;АВР ДИСТ&quot;"/> 
    <rt:dyn type="Color_0010" mode="constant" value="&quot;Col_Yellow&quot;"/> 
    <rt:dyn type="Color_0001" mode="constant" value="&quot;Col_Green&quot;"/> 
    <rt:dyn type="Text_0010" mode="constant" value="&quot;АВР ГОТОВ&quot;"/> 
    <rt:dyn type="PointID_2" mode="constant" value="&quot;00SAB43AN001002_Z0 1&quot;"/> 
    <rt:dyn type="PointID_3" mode="constant" value="&quot;00SAB43AN001002_Z0 2&quot;"/> 
    <rt:dyn type="PointID_4" mode="constant" value="&quot;00SAB43AN001002_Z0 3&quot;"/> 
    <rt:dyn type="Text_0100" mode="constant" value="&quot;АВР СРАБОТАЛ&quot;"/> 
    <rt:dyn type="Color_0100" mode="constant" value="&quot;Col_Red&quot;"/> 
    <rt:dyn type="Color_0000" mode="constant" value="&quot;Col_Grey3&quot;"/> 
  </image>
  <polyline points="962.599,1182.48 1012.6,1182.48 1012.1,1232.48 962.599,1231.98 962.599,1182.48" fill="Col_BGSand" stroke="black" stroke-width="3" transform="rotate(44.0618 1325.51 325.508)"/> 
  <text x="529.697" y="754.591" fill="black" font-size="15" text-anchor="middle">00SAB43<tspan x="529.697" dy="15">AT001</tspan>
  </text>
  <line x1="437.542" y1="724.424" x2="506.542" y2="724.424" stroke="black" stroke-dasharray="5,5"/> 
  <line x1="397.667" y1="765.174" x2="460.542" y2="765.174" stroke="black" stroke-width="1"/> 
  <line x1="398.552" y1="682.424" x2="459.552" y2="682.424" stroke="black" stroke-width="1"/> 
  <line x1="398.334" y1="682.349" x2="398.334" y2="766.015" stroke="black" stroke-width="1"/> 
  <line x1="461.042" y1="675.424" x2="461.042" y2="689.424" stroke="black" stroke-width="1"/> 
  <line x1="461.042" y1="757.924" x2="461.042" y2="772.424" stroke="black" stroke-width="1"/> 
  <line x1="398.542" y1="724.636" x2="369.334" y2="724.636" stroke="black" stroke-width="1"/> 
  <image x="194.333" y="712.015" width="175" height="25" xlink:href="DS_ana_tenzor.svg">
    <title>00SAB43CP001</title>
    <rt:dyn type="FKKS" mode="constant" value="&quot;00SAB43CP001&quot;"/> 
    <rt:dyn type="X" mode="constant" value="&quot;dP&quot;"/> 
    <rt:dyn type="ShowFrame" mode="constant" value="true"/> 
    <rt:dyn type="ValueToTheRight" mode="constant" value="false"/> 
    <rt:dyn type="Color_Readings" mode="constant" value="true"/> 
  </image>
  <polyline points="1148.69,1005.84 1198.69,1005.84 1198.19,1055.84 1148.69,1055.34 1148.69,1005.84" fill="Col_BGSand" stroke="black" stroke-width="3" transform="rotate(44.0618 1325.51 325.508)"/> 
  <line x1="694.101" y1="726.909" x2="763.101" y2="726.909" stroke="black" stroke-dasharray="5,5"/> 
  <line x1="735.409" y1="676.939" x2="735.409" y2="690.939" stroke="black" stroke-width="1"/> 
  <line x1="735.302" y1="760.409" x2="735.302" y2="774.909" stroke="black" stroke-width="1"/> 
  <line x1="735.336" y1="767.659" x2="798.211" y2="767.659" stroke="black" stroke-width="1"/> 
  <line x1="736.221" y1="683.939" x2="797.221" y2="683.939" stroke="black" stroke-width="1"/> 
  <line x1="797.954" y1="683.045" x2="797.954" y2="766.711" stroke="black" stroke-width="1"/> 
  <line x1="828.185" y1="727.833" x2="798.975" y2="727.833" stroke="black" stroke-width="1"/> 
  <image x="817.155" y="715.212" width="175" height="25" xlink:href="DS_ana_tenzor.svg">
    <title>00SAB43CP002</title>
    <rt:dyn type="FKKS" mode="constant" value="&quot;00SAB43CP002&quot;"/> 
    <rt:dyn type="X" mode="constant" value="&quot;dP&quot;"/> 
    <rt:dyn type="ShowFrame" mode="constant" value="true"/> 
    <rt:dyn type="ValueToTheRight" mode="constant" value="false"/> 
    <rt:dyn type="Color_Readings" mode="constant" value="true"/> 
  </image>
  <text x="671" y="758" fill="black" font-size="15" text-anchor="middle">00SAB43<tspan x="671" dy="15">AT002</tspan>
  </text>
  <line x1="456.455" y1="417.273" x2="456.455" y2="302.712" stroke="black" stroke-width="3"/> 
  <line x1="472.121" y1="521.218" x2="472.121" y2="425.446" stroke="black" stroke-width="3"/> 
  <image x="436.243" y="396.121" width="70" height="70" xlink:href="DS_motor_tenzor.svg" transform="rotate(270 0 0)">
    <title>00SAB43AN001</title>
    <rt:dyn type="KKS" mode="constant" value="&quot;00SAB43AN001&quot;"/> 
    <rt:dyn type="DATA_NARY" mode="constant" value="&quot;TYPE2&quot;"/> 
    <rt:dyn type="Operate" mode="constant" value="true"/> 
    <rt:dyn type="DeviceType" mode="constant" value="&quot;fan&quot;"/> 
  </image>
  <line x1="147.637" y1="519.727" x2="87.0455" y2="519.667" stroke="black" stroke-width="3"/> 
  <line x1="475.152" y1="520" x2="165" y2="520" stroke="black" stroke-width="3"/> 
  <line x1="87.5455" y1="718.212" x2="87.5305" y2="518.212" stroke="black" stroke-width="3"/> 
  <polygon points="472.548,866.696 482.548,883.696 462.548,883.696"/> 
  <text x="400" y="813.364" fill="black" font-size="15" text-anchor="middle">00SAB43<tspan x="400" dy="15">AA001</tspan>
  </text>
  <line x1="460.985" y1="474.348" x2="460.985" y2="488.348" stroke="black" stroke-width="1"/> 
  <image x="116.379" y="477.625" width="70" height="65" xlink:href="DS_Reg_valve_tenzor.svg">
    <title>00SBT04AA225</title>
    <rt:dyn type="DATA_NARY" mode="constant" value="&quot;TYPE2&quot;"/> 
    <rt:dyn type="Operate" mode="constant" value="true"/> 
    <rt:dyn type="KKS" mode="constant" value="&quot;00SBT04AA225&quot;"/> 
  </image>
  <image x="119.049" y="448.125" width="65" height="25" xlink:href="DS_Reg_degree.svg">
    <title>00SBT04AA225</title>
    <rt:dyn type="KKS" mode="constant" value="&quot;00SBT04AA225&quot;"/> 
    <rt:dyn type="SIGNAL" mode="constant" value="&quot;XQ54&quot;"/> 
  </image>
  <image x="433.512" y="793.364" width="70" height="45" xlink:href="DS_pivot_valve_tenzor.svg">
    <title>00SAB43AA001</title>
    <rt:dyn type="KKS" mode="constant" value="&quot;00SAB43AA001&quot;"/> 
    <rt:dyn type="DATA_NARY" mode="constant" value="&quot;TYPE2&quot;"/> 
    <rt:dyn type="Operate" mode="constant" value="true"/> 
  </image>
  <polygon points="88,187 98.0005,204 78,204" transform="rotate(0 31.3333 552.5) rotate(0 1.4013e-045 3.14533e-039) flipY(460.5)"/> 
  <text x="519.091" y="614.818" fill="black" font-size="15" text-anchor="middle">00SAB43<tspan x="519.091" dy="15">AH001</tspan>
  </text>
  <line x1="472.182" y1="876.697" x2="472.182" y2="832.03" stroke="black" stroke-width="3"/> 
  <line x1="461.424" y1="481.348" x2="374.637" y2="481.348" stroke="black" stroke-width="1"/> 
  <text x="671.364" y="613.682" fill="black" font-size="15" text-anchor="middle">00SAB43<tspan x="671.364" dy="15">AH002</tspan>
  </text>
  <line x1="470" y1="691.363" x2="470" y2="579" stroke="black" stroke-width="3"/> 
  <line x1="725.136" y1="805.775" x2="725.247" y2="760.276" stroke="black" stroke-width="3"/> 
  <line x1="979" y1="529" x2="732" y2="529" stroke="black" stroke-width="3"/> 
  <image x="951.83" y="456.852" width="65" height="25" xlink:href="DS_Reg_degree.svg">
    <title>00SBT04AA226</title>
    <rt:dyn type="KKS" mode="constant" value="&quot;00SBT04AA226&quot;"/> 
    <rt:dyn type="SIGNAL" mode="constant" value="&quot;XQ54&quot;"/> 
  </image>
  <line x1="1059.99" y1="529.529" x2="999.395" y2="529.47" stroke="black" stroke-width="3"/> 
  <image x="949.16" y="486.352" width="70" height="65" xlink:href="DS_Reg_valve_tenzor.svg">
    <title>00SBT04AA226</title>
    <rt:dyn type="DATA_NARY" mode="constant" value="&quot;TYPE2&quot;"/> 
    <rt:dyn type="Operate" mode="constant" value="true"/> 
    <rt:dyn type="KKS" mode="constant" value="&quot;00SBT04AA226&quot;"/> 
  </image>
  <line x1="1057.97" y1="729.456" x2="1057.95" y2="529.456" stroke="black" stroke-width="3"/> 
  <polygon points="1057.36,177.575 1067.36,194.575 1047.36,194.575" transform="rotate(0 31.3333 552.5) rotate(0 1.4013e-045 3.14533e-039) flipY(460.5)"/> 
  <polygon points="727.094,866.151 737.094,883.151 717.094,883.151"/> 
  <line x1="726.728" y1="876.152" x2="726.728" y2="831.485" stroke="black" stroke-width="3"/> 
  <image x="691.541" y="793.364" width="70" height="45" xlink:href="DS_pivot_valve_tenzor.svg">
    <title>00SAB43AA002</title>
    <rt:dyn type="KKS" mode="constant" value="&quot;00SAB43AA002&quot;"/> 
    <rt:dyn type="DATA_NARY" mode="constant" value="&quot;TYPE2&quot;"/> 
    <rt:dyn type="Operate" mode="constant" value="true"/> 
  </image>
  <line x1="739.288" y1="475.424" x2="739.288" y2="489.424" stroke="black" stroke-width="1"/> 
  <line x1="825.575" y1="482.424" x2="738.788" y2="482.424" stroke="black" stroke-width="1"/> 
  <line x1="94.0765" y1="644.455" x2="94.0765" y2="658.455" stroke="black" stroke-width="1"/> 
  <line x1="180.363" y1="651.455" x2="93.5765" y2="651.455" stroke="black" stroke-width="1"/> 
  <image x="112.001" y="639.061" width="175" height="25" xlink:href="DS_ana_tenzor.svg">
    <title>00SBT04CT025</title>
    <rt:dyn type="FKKS" mode="constant" value="&quot;00SBT04CT025&quot;"/> 
    <rt:dyn type="X" mode="constant" value="&quot;T&quot;"/> 
    <rt:dyn type="ShowFrame" mode="constant" value="true"/> 
    <rt:dyn type="ValueToTheRight" mode="constant" value="false"/> 
    <rt:dyn type="Color_Readings" mode="constant" value="true"/> 
  </image>
  <line x1="1049.89" y1="633.485" x2="1049.89" y2="647.485" stroke="black" stroke-width="1"/> 
  <line x1="1050.81" y1="641" x2="964.034" y2="641" stroke="black" stroke-width="1"/> 
  <image x="853.424" y="627.939" width="175" height="25" xlink:href="DS_ana_tenzor.svg">
    <title>00SBT04CT026</title>
    <rt:dyn type="FKKS" mode="constant" value="&quot;00SBT04CT026&quot;"/> 
    <rt:dyn type="X" mode="constant" value="&quot;T&quot;"/> 
    <rt:dyn type="ShowFrame" mode="constant" value="true"/> 
    <rt:dyn type="ValueToTheRight" mode="constant" value="false"/> 
    <rt:dyn type="Color_Readings" mode="constant" value="true"/> 
  </image>
  <text x="151.424" y="548.894" fill="black" font-size="15" text-anchor="middle">00SBT04<tspan x="151.424" dy="15">AA225</tspan>
  </text>
  <text x="989.03" y="557.621" fill="black" font-size="15" text-anchor="middle">00SBT04<tspan x="989.03" dy="15">AA226</tspan>
  </text>
  <text x="661.515" y="813.364" fill="black" font-size="15" text-anchor="middle">00SAB43<tspan x="661.515" dy="15">AA002</tspan>
  </text>
  <image x="261" y="467.848" width="175" height="25" xlink:href="DS_ana_tenzor.svg">
    <title>00SAB43CT004</title>
    <rt:dyn type="FKKS" mode="constant" value="&quot;00SAB43CT004&quot;"/> 
    <rt:dyn type="X" mode="constant" value="&quot;T&quot;"/> 
    <rt:dyn type="ShowFrame" mode="constant" value="true"/> 
    <rt:dyn type="ValueToTheRight" mode="constant" value="false"/> 
    <rt:dyn type="Color_Readings" mode="constant" value="true"/> 
  </image>
  <image x="772.121" y="469.363" width="175" height="25" xlink:href="DS_ana_tenzor.svg">
    <title>00SAB43CT005</title>
    <rt:dyn type="FKKS" mode="constant" value="&quot;00SAB43CT005&quot;"/> 
    <rt:dyn type="X" mode="constant" value="&quot;T&quot;"/> 
    <rt:dyn type="ShowFrame" mode="constant" value="true"/> 
    <rt:dyn type="ValueToTheRight" mode="constant" value="false"/> 
    <rt:dyn type="Color_Readings" mode="constant" value="true"/> 
  </image>
  <line x1="468.621" y1="253.133" x2="468.621" y2="296.208" stroke="black" stroke-width="1"/> 
  <line x1="468.03" y1="254.136" x2="381.243" y2="254.136" stroke="black" stroke-width="1"/> 
  <line x1="512.135" y1="662.211" x2="512.135" y2="676.211" stroke="black" stroke-width="1" transform="rotate(90 676.651 461.076)"/> 
  <line x1="514.076" y1="177.879" x2="514.076" y2="298.239" stroke="black" stroke-width="1"/> 
  <line x1="514.969" y1="177.379" x2="384.243" y2="177.379" stroke="black" stroke-width="1"/> 
  <line x1="514.165" y1="616.756" x2="514.165" y2="630.756" stroke="black" stroke-width="1" transform="rotate(90 676.651 461.076)"/> 
  <image x="223.636" y="164.242" width="175" height="25" xlink:href="DS_ana_tenzor.svg">
    <title>00SAB43CP003</title>
    <rt:dyn type="FKKS" mode="constant" value="&quot;00SAB43CP003&quot;"/> 
    <rt:dyn type="X" mode="constant" value="&quot;P&quot;"/> 
    <rt:dyn type="ShowFrame" mode="constant" value="true"/> 
    <rt:dyn type="ValueToTheRight" mode="constant" value="false"/> 
    <rt:dyn type="Color_Readings" mode="constant" value="true"/> 
  </image>
  <line x1="661.742" y1="253.636" x2="661.742" y2="296.711" stroke="black" stroke-width="1"/> 
  <line x1="747.999" y1="254.136" x2="661.212" y2="254.136" stroke="black" stroke-width="1"/> 
  <line x1="512.638" y1="469.09" x2="512.638" y2="483.09" stroke="black" stroke-width="1" transform="rotate(90 676.651 461.076)"/> 
  <line x1="637.046" y1="177.879" x2="637.046" y2="298.239" stroke="black" stroke-width="1"/> 
  <line x1="514.164" y1="493.787" x2="514.164" y2="507.787" stroke="black" stroke-width="1" transform="rotate(90 676.651 461.076)"/> 
  <line x1="769.211" y1="178.379" x2="638.485" y2="178.379" stroke="black" stroke-width="1"/> 
  <line x1="592.288" y1="121.788" x2="592.288" y2="135.788" stroke="black" stroke-width="1"/> 
  <line x1="678.575" y1="128.788" x2="591.788" y2="128.788" stroke="black" stroke-width="1"/> 
  <line x1="454.843" y1="580.861" x2="270" y2="580.861" stroke="black" stroke-width="3"/> 
  <polygon points="446.501,84.6668 456.501,101.667 436.501,101.667" transform="flipX(400.478) rotate(330 31.3333 552.5) rotate(0 1.4013e-045 3.14533e-039) flipY(460.5)"/> 
  <polygon points="754.455,-100.056 764.455,-83.0556 744.46,-83.0556" transform="flipX(415.629) flipX(400.478) rotate(330 31.3333 552.5) rotate(0 1.4013e-045 3.14533e-039) flipY(460.5)"/> 
  <line x1="920.599" y1="586.861" x2="733" y2="586.861" stroke="black" stroke-width="3"/> 
  <line x1="579.697" y1="87.4697" x2="938.783" y2="87.4849" stroke="black" stroke-width="3"/> 
  <line x1="937.273" y1="240" x2="937.273" y2="85.4546" stroke="black" stroke-width="3"/> 
  <line x1="1391.33" y1="950.606" x2="1391.33" y2="238.485" stroke="black" stroke-width="3"/> 
  <line x1="938.788" y1="238.47" x2="1673.64" y2="238.47" stroke="black" stroke-width="3"/> 
  <line x1="1087.28" y1="467.257" x2="1693.33" y2="467.257" stroke="black" stroke-width="3"/> 
  <line x1="1392.3" y1="708.182" x2="1693.82" y2="708.182" stroke="black" stroke-width="3"/> 
  <line x1="1243.33" y1="828.454" x2="1393.34" y2="828.44" stroke="black" stroke-width="3"/> 
  <line x1="1390.3" y1="952.121" x2="1692.39" y2="952.121" stroke="black" stroke-width="3"/> 
  <rect x="973.121" y="24.7879" width="200.515" height="155.061" rx="0" ry="0" fill="none" stroke="black" stroke-width="2"/> 
  <image x="985.757" y="40.4546" width="175" height="25" xlink:href="DS_ana_tenzor.svg">
    <title>00SAB43CT015</title>
    <rt:dyn type="FKKS" mode="constant" value="&quot;00SAB43CT015&quot;"/> 
    <rt:dyn type="X" mode="constant" value="&quot;T&quot;"/> 
    <rt:dyn type="ShowFrame" mode="constant" value="true"/> 
    <rt:dyn type="ValueToTheRight" mode="constant" value="false"/> 
    <rt:dyn type="Color_Readings" mode="constant" value="true"/> 
  </image>
  <rect x="1173.12" y="24.7879" width="200.515" height="155.061" rx="0" ry="0" fill="none" stroke="black" stroke-width="2"/> 
  <image x="1185.75" y="38.9394" width="175" height="25" xlink:href="DS_ana_tenzor.svg">
    <title>00SAB43CT016</title>
    <rt:dyn type="FKKS" mode="constant" value="&quot;00SAB43CT016&quot;"/> 
    <rt:dyn type="X" mode="constant" value="&quot;T&quot;"/> 
    <rt:dyn type="ShowFrame" mode="constant" value="true"/> 
    <rt:dyn type="ValueToTheRight" mode="constant" value="false"/> 
    <rt:dyn type="Color_Readings" mode="constant" value="true"/> 
  </image>
  <rect x="1391.3" y="24.7879" width="200.515" height="155.061" rx="0" ry="0" fill="none" stroke="black" stroke-width="2"/> 
  <image x="1403.94" y="40.4546" width="175" height="25" xlink:href="DS_ana_tenzor.svg">
    <title>00SAB43CT017</title>
    <rt:dyn type="FKKS" mode="constant" value="&quot;00SAB43CT017&quot;"/> 
    <rt:dyn type="X" mode="constant" value="&quot;T&quot;"/> 
    <rt:dyn type="ShowFrame" mode="constant" value="true"/> 
    <rt:dyn type="ValueToTheRight" mode="constant" value="false"/> 
    <rt:dyn type="Color_Readings" mode="constant" value="true"/> 
  </image>
  <rect x="1591.3" y="24.7879" width="200.515" height="155.061" rx="0" ry="0" fill="none" stroke="black" stroke-width="2"/> 
  <image x="1603.93" y="38.9394" width="175" height="25" xlink:href="DS_ana_tenzor.svg">
    <title>00SAB43CT018</title>
    <rt:dyn type="FKKS" mode="constant" value="&quot;00SAB43CT018&quot;"/> 
    <rt:dyn type="X" mode="constant" value="&quot;T&quot;"/> 
    <rt:dyn type="ShowFrame" mode="constant" value="true"/> 
    <rt:dyn type="ValueToTheRight" mode="constant" value="false"/> 
    <rt:dyn type="Color_Readings" mode="constant" value="true"/> 
  </image>
  <rect x="1400.39" y="251.121" width="200.515" height="155.061" rx="0" ry="0" fill="none" stroke="black" stroke-width="2"/> 
  <image x="1413.03" y="266.788" width="175" height="25" xlink:href="DS_ana_tenzor.svg">
    <title>00SAB43CT013</title>
    <rt:dyn type="FKKS" mode="constant" value="&quot;00SAB43CT013&quot;"/> 
    <rt:dyn type="X" mode="constant" value="&quot;T&quot;"/> 
    <rt:dyn type="ShowFrame" mode="constant" value="true"/> 
    <rt:dyn type="ValueToTheRight" mode="constant" value="false"/> 
    <rt:dyn type="Color_Readings" mode="constant" value="true"/> 
  </image>
  <rect x="1600.39" y="251.121" width="200.515" height="155.061" rx="0" ry="0" fill="none" stroke="black" stroke-width="2"/> 
  <image x="1613.02" y="265.273" width="175" height="25" xlink:href="DS_ana_tenzor.svg">
    <title>00SAB43CT014</title>
    <rt:dyn type="FKKS" mode="constant" value="&quot;00SAB43CT014&quot;"/> 
    <rt:dyn type="X" mode="constant" value="&quot;T&quot;"/> 
    <rt:dyn type="ShowFrame" mode="constant" value="true"/> 
    <rt:dyn type="ValueToTheRight" mode="constant" value="false"/> 
    <rt:dyn type="Color_Readings" mode="constant" value="true"/> 
  </image>
  <rect x="1401.91" y="495.546" width="200.515" height="155.061" rx="0" ry="0" fill="none" stroke="black" stroke-width="2"/> 
  <image x="1414.54" y="511.212" width="175" height="25" xlink:href="DS_ana_tenzor.svg">
    <title>00SAB43CT009</title>
    <rt:dyn type="FKKS" mode="constant" value="&quot;00SAB43CT009&quot;"/> 
    <rt:dyn type="X" mode="constant" value="&quot;T&quot;"/> 
    <rt:dyn type="ShowFrame" mode="constant" value="true"/> 
    <rt:dyn type="ValueToTheRight" mode="constant" value="false"/> 
    <rt:dyn type="Color_Readings" mode="constant" value="true"/> 
  </image>
  <rect x="1601.91" y="495.546" width="200.515" height="155.061" rx="0" ry="0" fill="none" stroke="black" stroke-width="2"/> 
  <image x="1614.54" y="509.697" width="175" height="25" xlink:href="DS_ana_tenzor.svg">
    <title>00SAB43CT010</title>
    <rt:dyn type="FKKS" mode="constant" value="&quot;00SAB43CT010&quot;"/> 
    <rt:dyn type="X" mode="constant" value="&quot;T&quot;"/> 
    <rt:dyn type="ShowFrame" mode="constant" value="true"/> 
    <rt:dyn type="ValueToTheRight" mode="constant" value="false"/> 
    <rt:dyn type="Color_Readings" mode="constant" value="true"/> 
  </image>
  <rect x="1421.61" y="736.455" width="200.515" height="155.061" rx="0" ry="0" fill="none" stroke="black" stroke-width="2"/> 
  <image x="1434.24" y="752.122" width="175" height="25" xlink:href="DS_ana_tenzor.svg">
    <title>00SAB43CT007</title>
    <rt:dyn type="FKKS" mode="constant" value="&quot;00SAB43CT007&quot;"/> 
    <rt:dyn type="X" mode="constant" value="&quot;T&quot;"/> 
    <rt:dyn type="ShowFrame" mode="constant" value="true"/> 
    <rt:dyn type="ValueToTheRight" mode="constant" value="false"/> 
    <rt:dyn type="Color_Readings" mode="constant" value="true"/> 
  </image>
  <rect x="1621.61" y="736.455" width="200.515" height="155.061" rx="0" ry="0" fill="none" stroke="black" stroke-width="2"/> 
  <image x="1634.24" y="750.607" width="175" height="25" xlink:href="DS_ana_tenzor.svg">
    <title>00SAB43CT008</title>
    <rt:dyn type="FKKS" mode="constant" value="&quot;00SAB43CT008&quot;"/> 
    <rt:dyn type="X" mode="constant" value="&quot;T&quot;"/> 
    <rt:dyn type="ShowFrame" mode="constant" value="true"/> 
    <rt:dyn type="ValueToTheRight" mode="constant" value="false"/> 
    <rt:dyn type="Color_Readings" mode="constant" value="true"/> 
  </image>
  <rect x="977.667" y="251.121" width="200.515" height="155.061" rx="0" ry="0" fill="none" stroke="black" stroke-width="2"/> 
  <image x="990.303" y="266.788" width="175" height="25" xlink:href="DS_ana_tenzor.svg">
    <title>00SAB43CT011</title>
    <rt:dyn type="FKKS" mode="constant" value="&quot;00SAB43CT011&quot;"/> 
    <rt:dyn type="X" mode="constant" value="&quot;T&quot;"/> 
    <rt:dyn type="ShowFrame" mode="constant" value="true"/> 
    <rt:dyn type="ValueToTheRight" mode="constant" value="false"/> 
    <rt:dyn type="Color_Readings" mode="constant" value="true"/> 
  </image>
  <rect x="1177.67" y="251.121" width="200.515" height="155.061" rx="0" ry="0" fill="none" stroke="black" stroke-width="2"/> 
  <image x="1190.3" y="265.273" width="175" height="25" xlink:href="DS_ana_tenzor.svg">
    <title>00SAB43CT012</title>
    <rt:dyn type="FKKS" mode="constant" value="&quot;00SAB43CT012&quot;"/> 
    <rt:dyn type="X" mode="constant" value="&quot;T&quot;"/> 
    <rt:dyn type="ShowFrame" mode="constant" value="true"/> 
    <rt:dyn type="ValueToTheRight" mode="constant" value="false"/> 
    <rt:dyn type="Color_Readings" mode="constant" value="true"/> 
  </image>
  <rect x="1151.91" y="617.212" width="200.515" height="155.061" rx="0" ry="0" fill="none" stroke="black" stroke-width="2"/> 
  <image x="1164.54" y="631.364" width="175" height="25" xlink:href="DS_ana_tenzor.svg">
    <title>00SAB43CT006</title>
    <rt:dyn type="FKKS" mode="constant" value="&quot;00SAB43CT006&quot;"/> 
    <rt:dyn type="X" mode="constant" value="&quot;T&quot;"/> 
    <rt:dyn type="ShowFrame" mode="constant" value="true"/> 
    <rt:dyn type="ValueToTheRight" mode="constant" value="false"/> 
    <rt:dyn type="Color_Readings" mode="constant" value="true"/> 
  </image>
  <image x="405.455" y="487.545" width="129.545" height="129.455" xlink:href="ps_TempValve.svg">
    <title>00SAB43AH001</title>
    <rt:dyn type="KKS" mode="constant" value="&quot;00SAB43AH001&quot;"/> 
    <rt:dyn type="TYPE" mode="constant" value="&quot;TYPE2&quot;"/> 
  </image>
  <line x1="725.5" y1="693.363" x2="725.5" y2="581" stroke="black" stroke-width="3"/> 
  <image x="660" y="495.121" width="130" height="130" xlink:href="ps_TempValve.svg">
    <title>00SAB43AH002</title>
    <rt:dyn type="KKS" mode="constant" value="&quot;00SAB43AH002&quot;"/> 
    <rt:dyn type="TYPE" mode="constant" value="&quot;TYPE2&quot;"/> 
  </image>
  <text x="1073.63" y="119.621" fill="black" font-size="15" text-anchor="middle">UYB29 R 404<tspan x="1073.63" dy="15">Кабельная шахта</tspan>
  </text>
  <text x="1270.54" y="119.621" fill="black" font-size="15" text-anchor="middle">UYB29 R 403<tspan x="1270.54" dy="15">Кабельная шахта</tspan>
  </text>
  <text x="1490.24" y="119.621" fill="black" font-size="15" text-anchor="middle">UYB33 R 404<tspan x="1490.24" dy="15">Кабельная шахта</tspan>
  </text>
  <text x="1690.3" y="119.621" fill="black" font-size="15" text-anchor="middle">UYB33 R 403<tspan x="1690.3" dy="15">Кабельная шахта</tspan>
  </text>
  <text x="1079.7" y="339.894" fill="black" font-size="15" text-anchor="middle">UYB22 R 404<tspan x="1079.7" dy="15">Кабельная шахта</tspan>
  </text>
  <text x="1276.61" y="339.894" fill="black" font-size="15" text-anchor="middle">UYB22 R 403<tspan x="1276.61" dy="15">Кабельная шахта</tspan>
  </text>
  <text x="1500.91" y="341.409" fill="black" font-size="15" text-anchor="middle">UYB25 R 404<tspan x="1500.91" dy="15">Кабельная шахта</tspan>
  </text>
  <text x="1697.82" y="341.409" fill="black" font-size="15" text-anchor="middle">UYB25 R 403<tspan x="1697.82" dy="15">Кабельная шахта</tspan>
  </text>
  <text x="1250.91" y="709.015" fill="black" font-size="15" text-anchor="middle">UYB10 R0005<tspan x="1250.91" dy="15">Кабельный этаж</tspan>
  </text>
  <text x="1502.42" y="593.409" fill="black" font-size="15" text-anchor="middle">UYB 18 R 403<tspan x="1502.42" dy="15">Кабельная шахта</tspan>
  </text>
  <text x="1706.97" y="596.439" fill="black" font-size="15" text-anchor="middle">UYB 18 R 404<tspan x="1706.97" dy="15">Кабельная шахта</tspan>
  </text>
  <text x="1523.64" y="829.773" fill="black" font-size="15" text-anchor="middle">UYB 14 R 403<tspan x="1523.64" dy="15">Кабельная шахта</tspan>
  </text>
  <image x="274.636" y="241" width="175" height="25" xlink:href="DS_ana_tenzor.svg">
    <title>00SAB43CT001</title>
    <rt:dyn type="FKKS" mode="constant" value="&quot;00SAB43CT001&quot;"/> 
    <rt:dyn type="X" mode="constant" value="&quot;T&quot;"/> 
    <rt:dyn type="ShowFrame" mode="constant" value="true"/> 
    <rt:dyn type="ValueToTheRight" mode="constant" value="false"/> 
    <rt:dyn type="Color_Readings" mode="constant" value="true"/> 
  </image>
  <image x="616.061" y="115.757" width="175" height="25" xlink:href="DS_ana_tenzor.svg">
    <title>00SAB43CT003</title>
    <rt:dyn type="FKKS" mode="constant" value="&quot;00SAB43CT003&quot;"/> 
    <rt:dyn type="X" mode="constant" value="&quot;T&quot;"/> 
    <rt:dyn type="ShowFrame" mode="constant" value="true"/> 
    <rt:dyn type="ValueToTheRight" mode="constant" value="false"/> 
    <rt:dyn type="Color_Readings" mode="constant" value="true"/> 
  </image>
  <g transform="rotate(360 609.241 429.584) scale(0.765552 0.765552 609.241 429.584)">
    <rect x="375.212" y="285.357" width="66.8757" height="34.9577" rx="0" ry="0" fill="Col_BGSand" stroke="black"/> 
    <polygon points="411.133,285.527 376.033,320.137 406.872,319.887 441.293,285.537" fill="Col_Grey2" stroke="black"/> 
  </g>
  <line x1="708.47" y1="418.197" x2="708.47" y2="303.636" stroke="black" stroke-width="3"/> 
  <g transform="rotate(360 609.241 429.584) scale(0.765552 0.765552 609.241 429.584)">
    <rect x="705.732" y="285.357" width="66.8757" height="34.9577" rx="0" ry="0" fill="Col_BGSand" stroke="black"/> 
    <polygon points="741.653,285.527 706.553,320.137 737.392,319.887 771.813,285.537" fill="Col_Grey2" stroke="black"/> 
  </g>
  <image x="687.944" y="394.606" width="70" height="70" xlink:href="DS_motor_tenzor.svg" transform="rotate(270 0 0)">
    <title>00SAB43AN002</title>
    <rt:dyn type="KKS" mode="constant" value="&quot;00SAB43AN002&quot;"/> 
    <rt:dyn type="DATA_NARY" mode="constant" value="&quot;TYPE2&quot;"/> 
    <rt:dyn type="Operate" mode="constant" value="true"/> 
    <rt:dyn type="DeviceType" mode="constant" value="&quot;fan&quot;"/> 
  </image>
  <polygon points="1088.64,378.697 1098.64,395.698 1078.64,395.698"/> 
  <line x1="1088.77" y1="466.353" x2="1088.77" y2="401.606" stroke="black" stroke-width="3"/> 
  <rect x="1071.64" y="439.486" width="34" height="16" rx="0" ry="0"/> 
  <line x1="1077.73" y1="399.925" x2="1100.73" y2="400.425" stroke="black" stroke-width="3"/> 
  <polygon points="1265.53,378 1275.53,395.001 1255.53,395.001"/> 
  <line x1="1264.88" y1="465.838" x2="1264.88" y2="401.091" stroke="black" stroke-width="3"/> 
  <rect x="1247.88" y="443.183" width="34" height="16" rx="0" ry="0"/> 
  <line x1="1254.03" y1="399.228" x2="1277.03" y2="399.728" stroke="black" stroke-width="3"/> 
  <polygon points="1514.88,377.879 1524.88,394.88 1504.88,394.88"/> 
  <line x1="1515.03" y1="465.535" x2="1515.03" y2="400.788" stroke="black" stroke-width="3"/> 
  <rect x="1497.88" y="439.668" width="34" height="16" rx="0" ry="0"/> 
  <line x1="1503.97" y1="399.107" x2="1526.97" y2="399.607" stroke="black" stroke-width="3"/> 
  <polygon points="1692.12,379.576 1702.12,396.577 1682.12,396.577"/> 
  <line x1="1692.27" y1="468.232" x2="1692.27" y2="403.485" stroke="black" stroke-width="3"/> 
  <rect x="1675.12" y="441.365" width="34" height="16" rx="0" ry="0"/> 
  <line x1="1681.21" y1="400.804" x2="1704.21" y2="401.304" stroke="black" stroke-width="3"/> 
  <polygon points="1058.82,150.606 1068.82,167.607 1048.82,167.607"/> 
  <line x1="1058.82" y1="238.262" x2="1058.82" y2="173.515" stroke="black" stroke-width="3"/> 
  <rect x="1041.82" y="212.395" width="34" height="16" rx="0" ry="0"/> 
  <line x1="1047.32" y1="171.834" x2="1070.32" y2="172.334" stroke="black" stroke-width="3"/> 
  <polygon points="1261.85,150.606 1271.85,167.607 1251.85,167.607"/> 
  <line x1="1261.85" y1="237.262" x2="1261.85" y2="172.515" stroke="black" stroke-width="3"/> 
  <rect x="1244.85" y="212.395" width="34" height="16" rx="0" ry="0"/> 
  <line x1="1250.35" y1="171.834" x2="1273.35" y2="172.334" stroke="black" stroke-width="3"/> 
  <polygon points="1487.61,151.091 1497.61,168.092 1477.61,168.092"/> 
  <line x1="1487.61" y1="237.747" x2="1487.61" y2="173" stroke="black" stroke-width="3"/> 
  <rect x="1470.61" y="210.88" width="34" height="16" rx="0" ry="0"/> 
  <line x1="1476.11" y1="172.319" x2="1499.11" y2="172.819" stroke="black" stroke-width="3"/> 
  <polygon points="1672.42,151.091 1682.42,168.092 1662.42,168.092"/> 
  <line x1="1672.57" y1="237.747" x2="1672.57" y2="173" stroke="black" stroke-width="3"/> 
  <rect x="1655.42" y="210.88" width="34" height="16" rx="0" ry="0"/> 
  <line x1="1661.51" y1="172.319" x2="1684.51" y2="172.819" stroke="black" stroke-width="3"/> 
  <polygon points="1244.7,743.515 1254.7,760.516 1234.7,760.516"/> 
  <line x1="1244.7" y1="830.171" x2="1244.7" y2="765.424" stroke="black" stroke-width="3"/> 
  <rect x="1227.7" y="803.304" width="34" height="16" rx="0" ry="0"/> 
  <line x1="1233.2" y1="764.743" x2="1256.2" y2="765.243" stroke="black" stroke-width="3"/> 
  <polygon points="1516.39,621.273 1526.39,638.274 1506.39,638.274"/> 
  <line x1="1516.54" y1="707.929" x2="1516.54" y2="643.182" stroke="black" stroke-width="3"/> 
  <rect x="1499.39" y="681.062" width="34" height="16" rx="0" ry="0"/> 
  <line x1="1505.48" y1="642.501" x2="1528.48" y2="643.001" stroke="black" stroke-width="3"/> 
  <polygon points="1692.63,621.97 1702.63,638.971 1682.63,638.971"/> 
  <line x1="1692.78" y1="708.626" x2="1692.78" y2="643.879" stroke="black" stroke-width="3"/> 
  <rect x="1675.63" y="681.759" width="34" height="16" rx="0" ry="0"/> 
  <line x1="1681.72" y1="643.198" x2="1704.72" y2="643.698" stroke="black" stroke-width="3"/> 
  <polygon points="1514.88,864.273 1524.88,881.274 1504.88,881.274"/> 
  <line x1="1515.03" y1="950.929" x2="1515.03" y2="886.182" stroke="black" stroke-width="3"/> 
  <rect x="1497.88" y="924.062" width="34" height="16" rx="0" ry="0"/> 
  <line x1="1503.97" y1="885.501" x2="1526.97" y2="886.001" stroke="black" stroke-width="3"/> 
  <polygon points="1691.12,864.97 1701.12,881.971 1681.12,881.971"/> 
  <line x1="1691.27" y1="951.626" x2="1691.27" y2="886.879" stroke="black" stroke-width="3"/> 
  <rect x="1674.12" y="924.759" width="34" height="16" rx="0" ry="0"/> 
  <line x1="1680.21" y1="886.198" x2="1703.21" y2="886.698" stroke="black" stroke-width="3"/> 
  <image x="741.515" y="165.757" width="175" height="25" xlink:href="DS_ana_tenzor.svg">
    <title>00SAB43CP004</title>
    <rt:dyn type="FKKS" mode="constant" value="&quot;00SAB43CP004&quot;"/> 
    <rt:dyn type="X" mode="constant" value="&quot;P&quot;"/> 
    <rt:dyn type="ShowFrame" mode="constant" value="true"/> 
    <rt:dyn type="ValueToTheRight" mode="constant" value="false"/> 
    <rt:dyn type="Color_Readings" mode="constant" value="true"/> 
  </image>
  <image x="707.061" y="240.606" width="175" height="25" xlink:href="DS_ana_tenzor.svg">
    <title>00SAB43CT002</title>
    <rt:dyn type="FKKS" mode="constant" value="&quot;00SAB43CT002&quot;"/> 
    <rt:dyn type="X" mode="constant" value="&quot;T&quot;"/> 
    <rt:dyn type="ShowFrame" mode="constant" value="true"/> 
    <rt:dyn type="ValueToTheRight" mode="constant" value="false"/> 
    <rt:dyn type="Color_Readings" mode="constant" value="true"/> 
  </image>
  <image x="375.651" y="364.742" width="160" height="30" xlink:href="ps_tenzor_m0.svg">
    <title>00SAB43AN001</title>
    <rt:dyn type="KKS" mode="constant" value="&quot;00SAB43AN001&quot;"/> 
  </image>
  <image x="628.182" y="364.242" width="160" height="30" xlink:href="ps_tenzor_m0.svg">
    <title>00SAB43AN002</title>
    <rt:dyn type="KKS" mode="constant" value="&quot;00SAB43AN002&quot;"/> 
  </image>
  <image x="97" y="412" width="100" height="30" xlink:href="DS_Reg_set.svg">
    <title>&quot;00SBT04AA219&quot;</title>
    <rt:dyn type="KKS" mode="constant" value="&quot;00SBT04AA219&quot;"/> 
    <rt:dyn type="DATA_NARY" mode="constant" value="&quot;TYPE2&quot;"/> 
    <rt:dyn type="Operate" mode="constant" value="true"/> 
    <rt:dyn type="ShowGoodColor" mode="constant" value="true"/> 
  </image>
  <image x="934.243" y="420.303" width="100" height="30" xlink:href="DS_Reg_set.svg">
    <title>&quot;00SBT04AA226&quot;</title>
    <rt:dyn type="KKS" mode="constant" value="&quot;00SBT04AA226&quot;"/> 
    <rt:dyn type="DATA_NARY" mode="constant" value="&quot;TYPE2&quot;"/> 
    <rt:dyn type="Operate" mode="constant" value="true"/> 
    <rt:dyn type="ShowGoodColor" mode="constant" value="true"/> 
  </image>
</svg>
