<?xml  version="1.0" encoding="UTF-8"?>
<svg color="Col_BGSand" xmlns="http://www.w3.org/2000/svg" xmlns:rt="http://www.rts.co.at/2001/XMLSchema/RtSvgPL" xmlns:xlink="http://www.w3.org/1999/xlink" xmlns:xsi="http://www.w3.org/2001/XMLSchema-instance" xsi:schemaLocation="http://www.w3.org/2000/svg C:\RTS\RtSvg\XML\SVG.xsd" viewBox="0 0 1920 1080" width="1920" height="1080" id="00srp91" fill="Col_Grey3">
  <rt:model modelversion="7.2.0.23" comment="Ñîçäàíî VNIIAES-ASUTP\voroninrs 10.12.2012 14:48:20"/> 
  <line x1="580" y1="250" x2="580" y2="875" stroke="black" stroke-width="3"/> 
  <line x1="455" y1="875" x2="455" y2="250" stroke="black" stroke-width="3"/> 
  <line x1="355" y1="8" x2="355" y2="1017.5" stroke="black" stroke-width="3"/> 
  <line x1="680" y1="100" x2="680" y2="950" stroke="black" stroke-width="3"/> 
  <line x1="298" y1="433" x2="298" y2="433" stroke="black"/> 
  <line x1="344" y1="425" x2="342" y2="0"/> 
  <line x1="592.727" y1="690.909" x2="592.727" y2="690.909" stroke="black"/> 
  <line x1="749.091" y1="939.091" x2="749.091" y2="939.091" stroke="black"/> 
  <line x1="638.182" y1="881.818" x2="638.182" y2="881.818" stroke="black"/> 
  <line x1="214.545" y1="692.727" x2="214.545" y2="692.727" stroke="black"/> 
  <line x1="259.091" y1="771.818" x2="259.091" y2="771.818" stroke="black"/> 
  <line x1="195.455" y1="720" x2="195.455" y2="720" stroke="black"/> 
  <line x1="186.364" y1="713.636" x2="186.364" y2="713.636" stroke="black"/> 
  <line x1="191.818" y1="715.455" x2="191.818" y2="715.455" stroke="black"/> 
  <line x1="985.455" y1="149.091" x2="985.455" y2="149.091" stroke="black"/> 
  <line x1="1150" y1="365" x2="1150" y2="365" stroke="black"/> 
  <line x1="1274" y1="337" x2="1274" y2="337" stroke="black"/> 
  <line x1="1029" y1="375" x2="1029" y2="375" stroke="black"/> 
  <line x1="1215.33" y1="421.333" x2="1215.33" y2="421.333" stroke="black"/> 
  <line x1="1007" y1="314.75" x2="1007" y2="314.75" stroke="black"/> 
  <line x1="1027.27" y1="820" x2="1027.27" y2="820" stroke="black"/> 
  <line x1="675" y1="65" x2="675" y2="65" stroke="black"/> 
  <line x1="1468" y1="294" x2="1468" y2="294" stroke="black"/> 
  <line x1="1066.67" y1="766" x2="1066.67" y2="766" stroke="black"/> 
  <line x1="783.669" y1="851.456" x2="783.669" y2="851.456" stroke="black"/> 
  <line x1="410" y1="913" x2="410" y2="913" stroke="black"/> 
  <line x1="398" y1="872" x2="398" y2="872" stroke="black"/> 
  <line x1="841" y1="753" x2="841" y2="753" stroke="black"/> 
  <line x1="1396" y1="754" x2="1396" y2="754" stroke="black"/> 
  <line x1="1369" y1="798" x2="1369" y2="798" stroke="black"/> 
  <line x1="438" y1="1031" x2="438" y2="1031" stroke="black"/> 
  <line x1="419" y1="1033" x2="419" y2="1033" stroke="black"/> 
  <line x1="835" y1="706" x2="835" y2="706" stroke="black"/> 
  <line x1="254.697" y1="145.454" x2="254.697" y2="145.454" stroke="black"/> 
  <line x1="366.818" y1="892.423" x2="366.818" y2="892.423" stroke="black"/> 
  <image x="320" y="573.833" width="70" height="70" xlink:href="DS_motor_tenzor.svg" transform="rotate(270 0.00012207 0)">
    <title>00SRP91AP001</title>
    <rt:dyn type="DeviceType" mode="constant" value="&quot;pump&quot;"/> 
    <rt:dyn type="Operate" mode="constant" value="true"/> 
    <rt:dyn type="KKS" mode="constant" value="&quot;00SRP91AP001&quot;"/> 
    <rt:dyn type="DATA_NARY" mode="constant" value="&quot;TYPE2&quot;"/> 
  </image>
  <text x="25" y="25" fill="black" font-size="15">00UYB 00CXB31 00SRP91</text>
  <line x1="1215.33" y1="606" x2="1215.33" y2="606" stroke="black"/> 
  <image x="446.667" y="626.667" width="181.818" height="24.2424" xlink:href="bitwise_tablo_4bits.svg">
    <title>00SRP91AP001002</title>
    <rt:dyn type="PointID_1" mode="constant" value="&quot;00SRP91AP001002_Z0 0&quot;"/> 
    <rt:dyn type="Text_0001" mode="constant" value="&quot;ÀÂÐ ÍÅ ÃÎÒÎÂ&quot;"/> 
    <rt:dyn type="Text_0000" mode="constant" value="&quot;ÀÂÐ ÄÈÑÒ&quot;"/> 
    <rt:dyn type="Color_0010" mode="constant" value="&quot;Col_Yellow&quot;"/> 
    <rt:dyn type="Color_0001" mode="constant" value="&quot;Col_Green&quot;"/> 
    <rt:dyn type="Text_0010" mode="constant" value="&quot;ÀÂÐ ÃÎÒÎÂ&quot;"/> 
    <rt:dyn type="PointID_2" mode="constant" value="&quot;00SRP91AP001002_Z0 1&quot;"/> 
    <rt:dyn type="PointID_3" mode="constant" value="&quot;00SRP91AP001002_Z0 2&quot;"/> 
    <rt:dyn type="PointID_4" mode="constant" value="&quot;00SRP91AP001002_Z0 3&quot;"/> 
    <rt:dyn type="Text_0100" mode="constant" value="&quot;ÀÂÐ ÑÐÀÁÎÒÀË&quot;"/> 
    <rt:dyn type="Color_0100" mode="constant" value="&quot;Col_Red&quot;"/> 
    <rt:dyn type="Color_0000" mode="constant" value="&quot;Col_Grey3&quot;"/> 
  </image>
  <image x="646" y="573.833" width="70" height="70" xlink:href="DS_motor_tenzor.svg" transform="rotate(270 0.00012207 0)">
    <title>00SRP91AP002</title>
    <rt:dyn type="DeviceType" mode="constant" value="&quot;pump&quot;"/> 
    <rt:dyn type="Operate" mode="constant" value="true"/> 
    <rt:dyn type="KKS" mode="constant" value="&quot;00SRP91AP002&quot;"/> 
    <rt:dyn type="DATA_NARY" mode="constant" value="&quot;TYPE2&quot;"/> 
  </image>
  <line x1="895" y1="356.667" x2="895" y2="356.667" stroke="black"/> 
  <image x="273.889" y="534.556" width="175" height="25" xlink:href="DS_ana_tenzor.svg">
    <title>00SRP91CP001</title>
    <rt:dyn type="FKKS" mode="constant" value="&quot;00SRP91CP001&quot;"/> 
    <rt:dyn type="X" mode="constant" value="&quot;P&quot;"/> 
    <rt:dyn type="ShowFrame" mode="constant" value="true"/> 
    <rt:dyn type="ValueToTheRight" mode="constant" value="false"/> 
    <rt:dyn type="Color_Readings" mode="constant" value="true"/> 
  </image>
  <image x="586.111" y="534.556" width="175" height="25" xlink:href="DS_ana_tenzor.svg">
    <title>00SRP91CP002</title>
    <rt:dyn type="FKKS" mode="constant" value="&quot;00SRP91CP002&quot;"/> 
    <rt:dyn type="X" mode="constant" value="&quot;P&quot;"/> 
    <rt:dyn type="ShowFrame" mode="constant" value="true"/> 
    <rt:dyn type="ValueToTheRight" mode="constant" value="false"/> 
    <rt:dyn type="Color_Readings" mode="constant" value="true"/> 
  </image>
  <line x1="354" y1="251" x2="455" y2="250" stroke="black" stroke-width="3"/> 
  <line x1="579" y1="251" x2="680" y2="250" stroke="black" stroke-width="3"/> 
  <line x1="679" y1="101" x2="355" y2="100" stroke="black" stroke-width="3"/> 
  <text x="230" y="606.333" fill="black" font-size="15">00SRP91<tspan x="230" dy="15">AP001</tspan>
  </text>
  <text x="722" y="606.333" fill="black" font-size="15">00SRP91<tspan x="722" dy="15">AP002</tspan>
  </text>
  <text x="238" y="168.5" fill="black" font-size="15">00SRP91<tspan x="238" dy="15">AA001</tspan>
  </text>
  <text x="712" y="168.5" fill="black" font-size="15">00SRP91<tspan x="712" dy="15">AA002</tspan>
  </text>
  <text x="370" y="44.1667" fill="black" font-size="15">â 00SRP50</text>
  <line x1="1151" y1="250" x2="1151" y2="875" stroke="black" stroke-width="3"/> 
  <line x1="1251" y1="100" x2="1251" y2="1015" stroke="black" stroke-width="3"/> 
  <image x="1217" y="573.833" width="70" height="70" xlink:href="DS_motor_tenzor.svg" transform="rotate(270 0.00012207 0)">
    <title>00SRP91AP003</title>
    <rt:dyn type="DeviceType" mode="constant" value="&quot;pump&quot;"/> 
    <rt:dyn type="Operate" mode="constant" value="true"/> 
    <rt:dyn type="KKS" mode="constant" value="&quot;00SRP91AP003&quot;"/> 
    <rt:dyn type="DATA_NARY" mode="constant" value="&quot;TYPE2&quot;"/> 
  </image>
  <image x="1157.11" y="534.556" width="175" height="25" xlink:href="DS_ana_tenzor.svg">
    <title>00SRP91CP003</title>
    <rt:dyn type="FKKS" mode="constant" value="&quot;00SRP91CP003&quot;"/> 
    <rt:dyn type="X" mode="constant" value="&quot;P&quot;"/> 
    <rt:dyn type="ShowFrame" mode="constant" value="true"/> 
    <rt:dyn type="ValueToTheRight" mode="constant" value="false"/> 
    <rt:dyn type="Color_Readings" mode="constant" value="true"/> 
  </image>
  <line x1="1150" y1="251" x2="1251" y2="250" stroke="black" stroke-width="3"/> 
  <text x="1293" y="606.333" fill="black" font-size="15">00SRP91<tspan x="1293" dy="15">AP003</tspan>
  </text>
  <text x="1283" y="168.5" fill="black" font-size="15">00SRP91<tspan x="1283" dy="15">AA003</tspan>
  </text>
  <line x1="1251" y1="100" x2="1050" y2="100" stroke="black" stroke-width="3"/> 
  <text x="1044" y="84.5" fill="black" font-size="15">â 00SRP50</text>
  <rect x="257.171" y="432.667" width="599.667" height="250.667" rx="0" ry="0" fill="url(#PortalHatch3)" stroke="black" stroke-width="2" transform="flipX(525.167) flipY(724.667) rotate(0 525.167 724.667)"/> 
  <rect x="243.162" y="766.666" width="500" height="200" rx="0" ry="0" fill="Col_BGSand" stroke="black" stroke-width="2"/> 
  <line x1="90.8287" y1="791.666" x2="243.162" y2="791.666" stroke="black"/> 
  <text x="101.579" y="786.666" fill="black" font-size="20">&gt; 0.58 ì</text>
  <line x1="93.1618" y1="866.666" x2="244.324" y2="866.333" stroke="black"/> 
  <text x="100.245" y="856.666" fill="black" font-size="20">&lt; 0.39 ì</text>
  <line x1="106.162" y1="789.166" x2="117.662" y2="782.666" stroke="black" stroke-width="1"/> 
  <line x1="165.338" y1="860.166" x2="176.838" y2="853.666" stroke="black" stroke-width="1" transform="flipX(139.25)"/> 
  <line x1="91.4967" y1="942.333" x2="242.659" y2="942" stroke="black"/> 
  <text x="98.5797" y="932.333" fill="black" font-size="20">&lt; 0.1 ì</text>
  <line x1="167.003" y1="935.833" x2="178.503" y2="929.333" stroke="black" stroke-width="1" transform="flipX(139.25)"/> 
  <line x1="354.444" y1="765.556" x2="355" y2="950" stroke="black" stroke-width="3"/> 
  <line x1="455" y1="766.667" x2="455" y2="900" stroke="black" stroke-width="3"/> 
  <line x1="580" y1="765.556" x2="580" y2="900" stroke="black" stroke-width="3"/> 
  <line x1="680" y1="766.111" x2="680" y2="950" stroke="black" stroke-width="3"/> 
  <text x="85.0001" y="740.833" fill="black" font-size="15">00SRP91CL001</text>
  <rect x="-349.666" y="424.334" width="409.836" height="255.667" rx="0" ry="0" fill="url(#PortalHatch3)" stroke="black" stroke-width="2" transform="flipX(525.167) flipY(724.667) rotate(0 525.167 724.667)"/> 
  <rect x="1039.83" y="770" width="310.169" height="200" rx="0" ry="0" fill="Col_BGSand" stroke="black" stroke-width="2"/> 
  <line x1="887.497" y1="795" x2="1039.83" y2="795" stroke="black"/> 
  <text x="898.247" y="790" fill="black" font-size="20">&gt; 0.45 ì</text>
  <line x1="889.83" y1="870" x2="1040.99" y2="869.667" stroke="black"/> 
  <text x="896.913" y="860" fill="black" font-size="20">&lt; 0.3 ì</text>
  <line x1="902.83" y1="792.5" x2="914.33" y2="786" stroke="black" stroke-width="1"/> 
  <line x1="-631.33" y1="863.5" x2="-619.83" y2="857" stroke="black" stroke-width="1" transform="flipX(139.25)"/> 
  <line x1="888.165" y1="945.667" x2="1039.33" y2="945.334" stroke="black"/> 
  <text x="895.248" y="935.667" fill="black" font-size="20">&lt; 0.15 ì</text>
  <line x1="-629.665" y1="939.167" x2="-618.165" y2="932.667" stroke="black" stroke-width="1" transform="flipX(139.25)"/> 
  <line x1="1151.11" y1="768.89" x2="1151.67" y2="881.667" stroke="black" stroke-width="3"/> 
  <line x1="1251" y1="770" x2="1251" y2="903.333" stroke="black" stroke-width="3"/> 
  <text x="881.669" y="744.167" fill="black" font-size="15">00SRP91CL002</text>
  <image x="634" y="140" width="70" height="65" xlink:href="DS_CO_valve_tenzor.svg" transform="rotate(270 0 -10)">
    <title>00SRP91AA002</title>
    <rt:dyn type="KKS" mode="constant" value="&quot;00SRP91AA002&quot;"/> 
    <rt:dyn type="Operate" mode="constant" value="true"/> 
    <rt:dyn type="DATA_NARY" mode="constant" value="&quot;TYPE2&quot;"/> 
  </image>
  <image x="310" y="137" width="70" height="65" xlink:href="DS_CO_valve_tenzor.svg" transform="rotate(270 0 -10)">
    <title>00SRP91AA001</title>
    <rt:dyn type="KKS" mode="constant" value="&quot;00SRP91AA001&quot;"/> 
    <rt:dyn type="Operate" mode="constant" value="true"/> 
    <rt:dyn type="DATA_NARY" mode="constant" value="&quot;TYPE2&quot;"/> 
  </image>
  <image x="1206" y="141" width="70" height="65" xlink:href="DS_CO_valve_tenzor.svg" transform="rotate(270 0 -10)">
    <title>00SRP91AA003</title>
    <rt:dyn type="KKS" mode="constant" value="&quot;00SRP91AA003&quot;"/> 
    <rt:dyn type="Operate" mode="constant" value="true"/> 
    <rt:dyn type="DATA_NARY" mode="constant" value="&quot;TYPE2&quot;"/> 
  </image>
  <image x="309" y="304" width="70" height="65" xlink:href="DS_CO_valve_tenzor.svg" transform="rotate(270 0 -10)">
    <rt:dyn type="Drive" mode="constant" value="&quot;NONE&quot;"/> 
  </image>
  <image x="634" y="300" width="70" height="65" xlink:href="DS_CO_valve_tenzor.svg" transform="rotate(270 0 -10)">
    <rt:dyn type="Drive" mode="constant" value="&quot;NONE&quot;"/> 
  </image>
  <image x="534" y="301" width="70" height="65" xlink:href="DS_CO_valve_tenzor.svg" transform="rotate(270 0 -10)">
    <rt:dyn type="Drive" mode="constant" value="&quot;NONE&quot;"/> 
  </image>
  <image x="409" y="302" width="70" height="65" xlink:href="DS_CO_valve_tenzor.svg" transform="rotate(270 0 -10)">
    <rt:dyn type="Drive" mode="constant" value="&quot;NONE&quot;"/> 
  </image>
  <image x="1106" y="303" width="70" height="65" xlink:href="DS_CO_valve_tenzor.svg" transform="rotate(270 0 -10)">
    <rt:dyn type="Drive" mode="constant" value="&quot;NONE&quot;"/> 
  </image>
  <image x="1206" y="303" width="70" height="65" xlink:href="DS_CO_valve_tenzor.svg" transform="rotate(270 0 -10)">
    <rt:dyn type="Drive" mode="constant" value="&quot;NONE&quot;"/> 
  </image>
  <polygon points="-404.173,1861.17 -394.173,1878.17 -414.169,1878.17" fill="black" transform="flipX(1666.5) flipX(1191.5) flipX(133.5) flipX(1353.5) flipX(625.5) flipX(622.5) flipX(519.5) flipX(244.5) flipX(399.833) rotate(90 93.3313 598.5)"/> 
  <polygon points="-499.669,1181.17 -483.169,1173.17 -483.169,1189.67" fill="black" transform="flipX(1666.5) flipX(1191.5) flipX(133.5) flipX(1353.5) flipX(625.5) flipX(622.5) flipX(519.5) flipX(244.5) flipX(399.833) rotate(90 93.3313 598.5)"/> 
  <image x="71.5" y="777" width="25" height="25" xlink:href="bin_indicator.svg">
    <title>00SRP91CL001</title>
    <rt:dyn type="PointID" mode="constant" value="&quot;00SRP91CL001_XG01&quot;"/> 
  </image>
  <image x="71.5" y="854" width="25" height="25" xlink:href="bin_indicator.svg">
    <title>00SRP91CL001</title>
    <rt:dyn type="PointID" mode="constant" value="&quot;00SRP91CL001_XG51&quot;"/> 
  </image>
  <image x="71.5" y="929" width="25" height="25" xlink:href="bin_indicator.svg">
    <title>00SRP91CL001</title>
    <rt:dyn type="PointID" mode="constant" value="&quot;00SRP91CL001_XG52&quot;"/> 
  </image>
  <image x="867.5" y="781" width="25" height="25" xlink:href="bin_indicator.svg">
    <title>00SRP91CL002</title>
    <rt:dyn type="PointID" mode="constant" value="&quot;00SRP91CL002_XG01&quot;"/> 
  </image>
  <image x="867.5" y="858" width="25" height="25" xlink:href="bin_indicator.svg">
    <title>00SRP91CL002</title>
    <rt:dyn type="PointID" mode="constant" value="&quot;00SRP91CL002_XG51&quot;"/> 
  </image>
  <image x="867.5" y="933" width="25" height="25" xlink:href="bin_indicator.svg">
    <title>00SRP91CL002</title>
    <rt:dyn type="PointID" mode="constant" value="&quot;00SRP91CL002_XG52&quot;"/> 
  </image>
  <image x="1314.59" y="266.857" width="181.818" height="24.2424" xlink:href="bitwise_tablo_4bits.svg">
    <title>&quot;00SRP91AP003_XK92&quot;</title>
    <rt:dyn type="PointID_1" mode="constant" value="&quot;00SRP91AP003_XK92&quot;"/> 
    <rt:dyn type="Text_0000" mode="constant" value="&quot;ÀÂÒÎÌÀÒÈ×ÅÑÊÈÉ&quot;"/> 
    <rt:dyn type="Color_0001" mode="constant" value="&quot;Col_Green&quot;"/> 
    <rt:dyn type="Text_0001" mode="constant" value="&quot;ÄÈÑÒÀÍÖÈÎÍÍÛÉ&quot;"/> 
    <rt:dyn type="Color_0000" mode="constant" value="&quot;Col_Green&quot;"/> 
  </image>
  <text x="1352" y="247.857" fill="black" font-size="15">Ðåæèì ðàáîòû<tspan x="1352" dy="15">00SRP91AP003</tspan>
  </text>
  <rect x="1286" y="223.857" width="319" height="80" rx="0" ry="0" fill="none" stroke="black" stroke-width="2"/> 
  <image x="1516" y="263.978" width="60" height="30" xlink:href="ps_tenzor_system.svg">
    <title>00SRP91AP003</title>
    <rt:dyn type="KKS" mode="constant" value="&quot;00SRP91AP003&quot;"/> 
  </image>
  <image x="48.8759" y="254" width="181.818" height="24.2424" xlink:href="bitwise_tablo_4bits.svg">
    <title>&quot;00SRP91AP001_XK92&quot;</title>
    <rt:dyn type="PointID_1" mode="constant" value="&quot;00SRP91AP001_XK92&quot;"/> 
    <rt:dyn type="Text_0000" mode="constant" value="&quot;ÀÂÒÎÌÀÒÈ×ÅÑÊÈÉ&quot;"/> 
    <rt:dyn type="Color_0001" mode="constant" value="&quot;Col_Green&quot;"/> 
    <rt:dyn type="Text_0001" mode="constant" value="&quot;ÄÈÑÒÀÍÖÈÎÍÍÛÉ&quot;"/> 
    <rt:dyn type="Color_0000" mode="constant" value="&quot;Col_Green&quot;"/> 
  </image>
  <text x="86.2858" y="235" fill="black" font-size="15">Ðåæèì ðàáîòû<tspan x="86.2858" dy="15">00SRP91AP001/002</tspan>
  </text>
  <rect x="20.2858" y="211" width="319" height="80" rx="0" ry="0" fill="none" stroke="black" stroke-width="2"/> 
  <image x="250.286" y="251.121" width="60" height="30" xlink:href="ps_tenzor_system.svg">
    <title>00SRP91AP001</title>
    <rt:dyn type="KKS" mode="constant" value="&quot;00SRP91AP001&quot;"/> 
  </image>
  <image x="1175" y="650" width="160" height="30" xlink:href="ps_tenzor_m0.svg">
    <title>00SRP91AP003</title>
    <rt:dyn type="KKS" mode="constant" value="&quot;00SRP91AP003&quot;"/> 
  </image>
  <image x="640" y="650" width="160" height="30" xlink:href="ps_tenzor_m0.svg">
    <title>00SRP91AP002</title>
    <rt:dyn type="KKS" mode="constant" value="&quot;00SRP91AP002&quot;"/> 
  </image>
  <image x="265" y="650" width="160" height="30" xlink:href="ps_tenzor_m0.svg">
    <title>00SRP91AP001</title>
    <rt:dyn type="KKS" mode="constant" value="&quot;00SRP91AP001&quot;"/> 
  </image>
</svg>
