<?xml  version="1.0" encoding="windows-1251"?>
<svg color="Col_BGSand" xmlns="http://www.w3.org/2000/svg" xmlns:rt="http://www.rts.co.at/2001/XMLSchema/RtSvgPL" xmlns:xlink="http://www.w3.org/1999/xlink" xmlns:xsi="http://www.w3.org/2001/XMLSchema-instance" xsi:schemaLocation="http://www.w3.org/2000/svg C:\RTS\RtSvg\XML\SVG.xsd" viewBox="0 0 1914 1000" width="1914" height="1000" id="00ubn" stroke="black">
  <rt:model modelversion="7.2.0.24" comment="Создано VNIIAES-ASUTP\ermolova 01.07.2014 12:20:46" revision="2.0"/> 
  <line x1="1401" y1="375" x2="1401" y2="450" stroke="black" stroke-width="2"/> 
  <text x="885.333" y="38.3333" fill="black" font-size="26" text-anchor="middle">Здание 00UEL</text>
  <image x="675" y="465" width="175" height="25" xlink:href="DS_ana.svg">
    <title>00BKE00CE001_XQ20</title>
    <rt:dyn type="FName" mode="constant" value="true"/> 
    <rt:dyn type="ShowFrame" mode="constant" value="true"/> 
    <rt:dyn type="Color_Readings" mode="constant" value="true"/> 
    <rt:dyn type="X" mode="constant" value="&quot;U&quot;"/> 
    <rt:dyn type="FKKS" mode="constant" value="&quot;00BKE00CE001_XQ20&quot;"/> 
    <rt:dyn type="ValueToTheRight" mode="constant" value="false"/> 
  </image>
  <line x1="25" y1="450" x2="675" y2="450" stroke="black" stroke-width="3"/> 
  <line x1="400" y1="375" x2="400" y2="450" stroke="black" stroke-width="2"/> 
  <text x="493.916" y="527.18" fill="black" font-size="15" text-anchor="middle">00BKE61<tspan x="493.916" dy="15">GH001</tspan>
  </text>
  <text x="500" y="975" fill="black" font-size="15" text-anchor="middle">00BKE61<tspan x="500" dy="15">GH000</tspan>
  </text>
  <line x1="425" y1="950" x2="575" y2="950" stroke="black" stroke-width="3"/> 
  <line x1="925" y1="675" x2="650" y2="675" stroke="black" stroke-width="2"/> 
  <line x1="650" y1="575" x2="650" y2="675" stroke="black" stroke-width="2"/> 
  <text x="699.857" y="549.49" fill="black" font-size="15" text-anchor="middle">00BKE06</text>
  <text x="712.102" y="455.357" fill="black" font-size="15" text-anchor="middle">00BKE</text>
  <line x1="650" y1="450" x2="650" y2="541.837" stroke="black" stroke-width="2"/> 
  <image x="598.75" y="528.75" width="95" height="57.5" xlink:href="DS_breaker.svg" transform="rotate(270 17.5 -3.75)">
    <title>00BKE06GS001</title>
    <rt:dyn type="Operate" mode="constant" value="true"/> 
    <rt:dyn type="HasTray" mode="constant" value="true"/> 
    <rt:dyn type="KKS" mode="constant" value="&quot;00BKE06GS001&quot;"/> 
    <rt:dyn type="DATA_NARY" mode="constant" value="&quot;TYPE1&quot;"/> 
  </image>
  <image x="820" y="620" width="55" height="30" xlink:href="DS_AVR.svg">
    <title>00BKE06CH001</title>
    <rt:dyn type="KKS" mode="constant" value="&quot;00BKE06CH001&quot;"/> 
    <rt:dyn type="DATA_NARY" mode="constant" value="&quot;TYPE1&quot;"/> 
    <rt:dyn type="Operate" mode="constant" value="true"/> 
  </image>
  <image x="1575" y="475" width="175" height="25" xlink:href="DS_ana.svg">
    <title>00BKF00CE001_XQ20</title>
    <rt:dyn type="FName" mode="constant" value="true"/> 
    <rt:dyn type="ShowFrame" mode="constant" value="true"/> 
    <rt:dyn type="Color_Readings" mode="constant" value="true"/> 
    <rt:dyn type="X" mode="constant" value="&quot;U&quot;"/> 
    <rt:dyn type="FKKS" mode="constant" value="&quot;00BKF00CE001_XQ20&quot;"/> 
    <rt:dyn type="ValueToTheRight" mode="constant" value="false"/> 
  </image>
  <text x="1604.43" y="454.337" fill="black" font-size="15" text-anchor="middle">00BKF</text>
  <image x="363.082" y="125.415" width="75" height="25" xlink:href="obj_link.svg" transform="rotate(0 0 0) flipY(12.3617) rotate(90 37.3618 12.5)">
    <rt:dyn type="ModName" mode="constant" value="&quot;00BCE&quot;"/> 
  </image>
  <line x1="398.96" y1="175.003" x2="398.96" y2="208.676" stroke="black" stroke-width="2"/> 
  <line x1="398.96" y1="272.003" x2="398.96" y2="338.84" stroke="black" stroke-width="2"/> 
  <image x="347.71" y="328.753" width="95" height="57.5" xlink:href="DS_breaker.svg" transform="rotate(270 17.5 -3.75)">
    <title>00BKE01GS001</title>
    <rt:dyn type="Operate" mode="constant" value="true"/> 
    <rt:dyn type="HasTray" mode="constant" value="true"/> 
    <rt:dyn type="KKS" mode="constant" value="&quot;00BKE01GS001&quot;"/> 
    <rt:dyn type="DATA_NARY" mode="constant" value="&quot;TYPE1&quot;"/> 
  </image>
  <g>
    <circle cx="1640.09" cy="787.761" r="26.6666" fill="Col_Grey2" stroke="none" stroke-width="2" transform="flipY() translate(0 -828) translate(-830.09 15.1779) scale(0.75 0.75)"/> 
    <circle cx="1640.1" cy="745.088" r="26.6666" fill="Col_Grey2" stroke="black" stroke-width="2" transform="flipY() translate(0 -828) translate(-830.09 15.1779) scale(0.75 0.75)"/> 
    <line x1="400" y1="263.003" x2="400" y2="252.003" stroke="black" stroke-width="2"/> 
    <line x1="400" y1="253.003" x2="407.5" y2="246.003" stroke="black" stroke-width="2"/> 
    <line x1="1184.87" y1="253.003" x2="1192.37" y2="246.003" stroke="black" stroke-width="2" transform="flipX(792.432)"/> 
    <circle cx="1640.09" cy="787.761" r="26.6666" fill="none" stroke="black" stroke-width="2" transform="flipY() translate(0 -828) translate(-830.09 15.1779) scale(0.75 0.75)"/> 
    <polygon points="390.56,227.983 399.96,210.983 409.36,228.083" fill="none" stroke="black" stroke-width="2"/> 
  </g>
  <text x="400" y="92.6021" fill="black" font-size="15" text-anchor="middle">00BCE</text>
  <text x="450" y="242.602" fill="black" font-size="15" text-anchor="middle">00BKT16</text>
  <text x="450" y="361.99" fill="black" font-size="15" text-anchor="middle">00BKE01</text>
  <image x="1364.08" y="125" width="75" height="25" xlink:href="obj_link.svg" transform="rotate(0 0 0) flipY(12.3617) rotate(90 37.3618 12.5)">
    <rt:dyn type="ModName" mode="constant" value="&quot;00BCF&quot;"/> 
  </image>
  <line x1="1399.96" y1="174.588" x2="1399.96" y2="208.261" stroke="black" stroke-width="2"/> 
  <line x1="1399.96" y1="271.588" x2="1399.96" y2="338.425" stroke="black" stroke-width="2"/> 
  <image x="1348.71" y="328.338" width="95" height="57.5" xlink:href="DS_breaker.svg" transform="rotate(270 17.5 -3.75)">
    <title>00BKF01GS001</title>
    <rt:dyn type="Operate" mode="constant" value="true"/> 
    <rt:dyn type="HasTray" mode="constant" value="true"/> 
    <rt:dyn type="KKS" mode="constant" value="&quot;00BKF01GS001&quot;"/> 
    <rt:dyn type="DATA_NARY" mode="constant" value="&quot;TYPE1&quot;"/> 
  </image>
  <g>
    <circle cx="2974.76" cy="788.315" r="26.6666" fill="Col_Grey2" stroke="none" stroke-width="2" transform="flipY() translate(0 -828) translate(-830.09 15.1779) scale(0.75 0.75)"/> 
    <circle cx="2974.77" cy="745.642" r="26.6666" fill="Col_Grey2" stroke="black" stroke-width="2" transform="flipY() translate(0 -828) translate(-830.09 15.1779) scale(0.75 0.75)"/> 
    <line x1="1401" y1="262.588" x2="1401" y2="251.588" stroke="black" stroke-width="2"/> 
    <line x1="1401" y1="252.588" x2="1408.5" y2="245.588" stroke="black" stroke-width="2"/> 
    <line x1="183.87" y1="252.588" x2="191.37" y2="245.588" stroke="black" stroke-width="2" transform="flipX(792.432)"/> 
    <circle cx="2974.76" cy="788.315" r="26.6666" fill="none" stroke="black" stroke-width="2" transform="flipY() translate(0 -828) translate(-830.09 15.1779) scale(0.75 0.75)"/> 
    <polygon points="1391.56,227.568 1400.96,210.568 1410.36,227.668" fill="none" stroke="black" stroke-width="2"/> 
  </g>
  <text x="1401" y="90.5613" fill="black" font-size="15" text-anchor="middle">00BCF</text>
  <text x="1451" y="242.187" fill="black" font-size="15" text-anchor="middle">00BKT26</text>
  <text x="1451" y="361.575" fill="black" font-size="15" text-anchor="middle">00BKF01</text>
  <line x1="900" y1="450" x2="1576.25" y2="450" stroke="black" stroke-width="3"/> 
  <text x="1074.35" y="973.98" fill="black" font-size="15" text-anchor="middle">00BKE62<tspan x="1074.35" dy="15">GH000</tspan>
  </text>
  <line x1="450.228" y1="576.666" x2="450" y2="813.775" stroke="black" stroke-width="2"/> 
  <line x1="450.228" y1="451.667" x2="450.228" y2="491.999" stroke="black" stroke-width="2"/> 
  <g>
    <line x1="441.667" y1="503.15" x2="451" y2="487.15" stroke="black" stroke-width="3"/> 
    <line x1="144.667" y1="503.15" x2="154" y2="487.15" stroke="black" stroke-width="3" transform="flipX(302)"/> 
    <line x1="441.667" y1="512.15" x2="451" y2="496.15" stroke="black" stroke-width="3"/> 
    <line x1="144.667" y1="512.15" x2="154" y2="496.15" stroke="black" stroke-width="3" transform="flipX(302)"/> 
    <line x1="153.5" y1="520.483" x2="153.5" y2="499.15" stroke="black" stroke-width="3" transform="flipX(302)"/> 
    <line x1="441.667" y1="131.694" x2="451" y2="115.694" stroke="black" stroke-width="3" transform="flipY(345.422)"/> 
    <line x1="144.667" y1="131.694" x2="154" y2="115.694" stroke="black" stroke-width="3" transform="flipY(345.422) flipX(302)"/> 
    <line x1="441.667" y1="140.694" x2="451" y2="124.694" stroke="black" stroke-width="3" transform="flipY(345.422)"/> 
    <line x1="144.667" y1="140.694" x2="154" y2="124.694" stroke="black" stroke-width="3" transform="flipY(345.422) flipX(302)"/> 
    <line x1="153.5" y1="562.483" x2="153.5" y2="541.15" stroke="black" stroke-width="3" transform="flipX(302)"/> 
    <line x1="317.245" y1="585.816" x2="317.245" y2="564.483" stroke="black" stroke-width="3" transform="rotate(324.441 301 308.333) flipX(302)"/> 
  </g>
  <g>
    <line x1="441.667" y1="828" x2="451" y2="812" stroke="black" stroke-width="3"/> 
    <line x1="144.667" y1="828" x2="154" y2="812" stroke="black" stroke-width="3" transform="flipX(302)"/> 
    <line x1="441.667" y1="837" x2="451" y2="821" stroke="black" stroke-width="3"/> 
    <line x1="144.667" y1="837" x2="154" y2="821" stroke="black" stroke-width="3" transform="flipX(302)"/> 
    <line x1="153.5" y1="845.333" x2="153.5" y2="824" stroke="black" stroke-width="3" transform="flipX(302)"/> 
    <line x1="441.667" y1="-193.156" x2="451" y2="-209.156" stroke="black" stroke-width="3" transform="flipY(345.422)"/> 
    <line x1="144.667" y1="-193.156" x2="154" y2="-209.156" stroke="black" stroke-width="3" transform="flipY(345.422) flipX(302)"/> 
    <line x1="441.667" y1="-184.156" x2="451" y2="-200.156" stroke="black" stroke-width="3" transform="flipY(345.422)"/> 
    <line x1="144.667" y1="-184.156" x2="154" y2="-200.156" stroke="black" stroke-width="3" transform="flipY(345.422) flipX(302)"/> 
    <line x1="153.5" y1="887.333" x2="153.5" y2="866" stroke="black" stroke-width="3" transform="flipX(302)"/> 
    <line x1="506.159" y1="850.087" x2="506.159" y2="828.754" stroke="black" stroke-width="3" transform="rotate(324.441 301 308.333) flipX(302)"/> 
  </g>
  <line x1="450" y1="900" x2="450" y2="950" stroke="black" stroke-width="2"/> 
  <line x1="550" y1="911.735" x2="550" y2="950" stroke="black" stroke-width="2"/> 
  <line x1="550" y1="750" x2="550" y2="825.333" stroke="black" stroke-width="2"/> 
  <g>
    <line x1="540.667" y1="841" x2="550" y2="825" stroke="black" stroke-width="3"/> 
    <line x1="45.667" y1="841" x2="55" y2="825" stroke="black" stroke-width="3" transform="flipX(302)"/> 
    <line x1="540.667" y1="850" x2="550" y2="834" stroke="black" stroke-width="3"/> 
    <line x1="45.667" y1="850" x2="55" y2="834" stroke="black" stroke-width="3" transform="flipX(302)"/> 
    <line x1="54.5" y1="858.333" x2="54.5" y2="837" stroke="black" stroke-width="3" transform="flipX(302)"/> 
    <line x1="540.667" y1="-206.157" x2="550" y2="-222.157" stroke="black" stroke-width="3" transform="flipY(345.422)"/> 
    <line x1="45.667" y1="-206.157" x2="55" y2="-222.157" stroke="black" stroke-width="3" transform="flipY(345.422) flipX(302)"/> 
    <line x1="540.667" y1="-197.157" x2="550" y2="-213.157" stroke="black" stroke-width="3" transform="flipY(345.422)"/> 
    <line x1="45.667" y1="-197.157" x2="55" y2="-213.157" stroke="black" stroke-width="3" transform="flipY(345.422) flipX(302)"/> 
    <line x1="54.5" y1="900.333" x2="54.5" y2="879" stroke="black" stroke-width="3" transform="flipX(302)"/> 
    <line x1="433.181" y1="918.238" x2="433.181" y2="896.905" stroke="black" stroke-width="3" transform="rotate(324.441 301 308.333) flipX(302)"/> 
  </g>
  <line x1="450" y1="700" x2="1025" y2="700.333" stroke="black" stroke-width="2"/> 
  <line x1="1000" y1="950" x2="1150" y2="950" stroke="black" stroke-width="3"/> 
  <line x1="1025" y1="911.735" x2="1025" y2="950" stroke="black" stroke-width="2"/> 
  <line x1="1025" y1="700" x2="1025" y2="825" stroke="black" stroke-width="2"/> 
  <g>
    <line x1="1015.67" y1="841" x2="1025" y2="825" stroke="black" stroke-width="3"/> 
    <line x1="-429.333" y1="841" x2="-420" y2="825" stroke="black" stroke-width="3" transform="flipX(302)"/> 
    <line x1="1015.67" y1="850" x2="1025" y2="834" stroke="black" stroke-width="3"/> 
    <line x1="-429.333" y1="850" x2="-420" y2="834" stroke="black" stroke-width="3" transform="flipX(302)"/> 
    <line x1="-420.5" y1="858.333" x2="-420.5" y2="837" stroke="black" stroke-width="3" transform="flipX(302)"/> 
    <line x1="1015.67" y1="-206.157" x2="1025" y2="-222.157" stroke="black" stroke-width="3" transform="flipY(345.422)"/> 
    <line x1="-429.333" y1="-206.157" x2="-420" y2="-222.157" stroke="black" stroke-width="3" transform="flipY(345.422) flipX(302)"/> 
    <line x1="1015.67" y1="-197.157" x2="1025" y2="-213.157" stroke="black" stroke-width="3" transform="flipY(345.422)"/> 
    <line x1="-429.333" y1="-197.157" x2="-420" y2="-213.157" stroke="black" stroke-width="3" transform="flipY(345.422) flipX(302)"/> 
    <line x1="-420.5" y1="900.333" x2="-420.5" y2="879" stroke="black" stroke-width="3" transform="flipX(302)"/> 
    <line x1="46.7603" y1="1194.47" x2="46.7603" y2="1173.14" stroke="black" stroke-width="3" transform="rotate(324.441 301 308.333) flipX(302)"/> 
  </g>
  <text x="1168.69" y="527.03" fill="black" font-size="15" text-anchor="middle">00BKE62<tspan x="1168.69" dy="15">GH001</tspan>
  </text>
  <line x1="1125" y1="576.516" x2="1125" y2="814.796" stroke="black" stroke-width="2"/> 
  <line x1="1125" y1="451.517" x2="1125" y2="491.849" stroke="black" stroke-width="2"/> 
  <g>
    <line x1="1116.44" y1="503" x2="1125.77" y2="487" stroke="black" stroke-width="3"/> 
    <line x1="-530.105" y1="503" x2="-520.772" y2="487" stroke="black" stroke-width="3" transform="flipX(302)"/> 
    <line x1="1116.44" y1="512" x2="1125.77" y2="496" stroke="black" stroke-width="3"/> 
    <line x1="-530.105" y1="512" x2="-520.772" y2="496" stroke="black" stroke-width="3" transform="flipX(302)"/> 
    <line x1="-521.272" y1="520.333" x2="-521.272" y2="499" stroke="black" stroke-width="3" transform="flipX(302)"/> 
    <line x1="1116.44" y1="131.844" x2="1125.77" y2="115.844" stroke="black" stroke-width="3" transform="flipY(345.422)"/> 
    <line x1="-530.105" y1="131.844" x2="-520.772" y2="115.844" stroke="black" stroke-width="3" transform="flipY(345.422) flipX(302)"/> 
    <line x1="1116.44" y1="140.844" x2="1125.77" y2="124.844" stroke="black" stroke-width="3" transform="flipY(345.422)"/> 
    <line x1="-530.105" y1="140.844" x2="-520.772" y2="124.844" stroke="black" stroke-width="3" transform="flipY(345.422) flipX(302)"/> 
    <line x1="-521.272" y1="562.333" x2="-521.272" y2="541" stroke="black" stroke-width="3" transform="flipX(302)"/> 
    <line x1="-231.781" y1="978.101" x2="-231.781" y2="956.768" stroke="black" stroke-width="3" transform="rotate(324.441 301 308.333) flipX(302)"/> 
  </g>
  <g>
    <line x1="1116.44" y1="827.85" x2="1125.77" y2="811.85" stroke="black" stroke-width="3"/> 
    <line x1="-530.105" y1="827.85" x2="-520.772" y2="811.85" stroke="black" stroke-width="3" transform="flipX(302)"/> 
    <line x1="1116.44" y1="836.85" x2="1125.77" y2="820.85" stroke="black" stroke-width="3"/> 
    <line x1="-530.105" y1="836.85" x2="-520.772" y2="820.85" stroke="black" stroke-width="3" transform="flipX(302)"/> 
    <line x1="-521.272" y1="845.183" x2="-521.272" y2="823.85" stroke="black" stroke-width="3" transform="flipX(302)"/> 
    <line x1="1116.44" y1="-193.006" x2="1125.77" y2="-209.006" stroke="black" stroke-width="3" transform="flipY(345.422)"/> 
    <line x1="-530.105" y1="-193.006" x2="-520.772" y2="-209.006" stroke="black" stroke-width="3" transform="flipY(345.422) flipX(302)"/> 
    <line x1="1116.44" y1="-184.006" x2="1125.77" y2="-200.006" stroke="black" stroke-width="3" transform="flipY(345.422)"/> 
    <line x1="-530.105" y1="-184.006" x2="-520.772" y2="-200.006" stroke="black" stroke-width="3" transform="flipY(345.422) flipX(302)"/> 
    <line x1="-521.272" y1="887.183" x2="-521.272" y2="865.85" stroke="black" stroke-width="3" transform="flipX(302)"/> 
    <line x1="-42.8669" y1="1242.37" x2="-42.8669" y2="1221.04" stroke="black" stroke-width="3" transform="rotate(324.441 301 308.333) flipX(302)"/> 
  </g>
  <line x1="1124.77" y1="899.85" x2="1124.77" y2="949.85" stroke="black" stroke-width="2"/> 
  <path d="M403.902 1339.77 A8.20885 11.1255 0 0 0 387.501 1339.58 " fill="none" stroke="black" stroke-width="2" transform="rotate(90 929.675 549.996) rotate(270 320.236 530.133)"/> 
  <line x1="1017.2" y1="750" x2="550" y2="750" stroke="black" stroke-width="2"/> 
  <line x1="1125" y1="750" x2="1032.8" y2="750" stroke="black" stroke-width="2"/> 
  <line x1="925" y1="450" x2="925" y2="675" stroke="black" stroke-width="2"/> 
  <text x="775" y="974.667" fill="black" font-size="15" text-anchor="middle">00BKE41<tspan x="775" dy="15">GH000</tspan>
  </text>
  <line x1="700" y1="949.667" x2="850" y2="949.667" stroke="black" stroke-width="3"/> 
  <g>
    <line x1="716.667" y1="827.667" x2="726" y2="811.667" stroke="black" stroke-width="3"/> 
    <line x1="-130.333" y1="827.667" x2="-121" y2="811.667" stroke="black" stroke-width="3" transform="flipX(302)"/> 
    <line x1="716.667" y1="836.667" x2="726" y2="820.667" stroke="black" stroke-width="3"/> 
    <line x1="-130.333" y1="836.667" x2="-121" y2="820.667" stroke="black" stroke-width="3" transform="flipX(302)"/> 
    <line x1="-121.5" y1="845" x2="-121.5" y2="823.667" stroke="black" stroke-width="3" transform="flipX(302)"/> 
    <line x1="716.667" y1="-192.823" x2="726" y2="-208.823" stroke="black" stroke-width="3" transform="flipY(345.422)"/> 
    <line x1="-130.333" y1="-192.823" x2="-121" y2="-208.823" stroke="black" stroke-width="3" transform="flipY(345.422) flipX(302)"/> 
    <line x1="716.667" y1="-183.823" x2="726" y2="-199.823" stroke="black" stroke-width="3" transform="flipY(345.422)"/> 
    <line x1="-130.333" y1="-183.823" x2="-121" y2="-199.823" stroke="black" stroke-width="3" transform="flipY(345.422) flipX(302)"/> 
    <line x1="-121.5" y1="887" x2="-121.5" y2="865.667" stroke="black" stroke-width="3" transform="flipX(302)"/> 
    <line x1="282.248" y1="1009.74" x2="282.248" y2="988.407" stroke="black" stroke-width="3" transform="rotate(324.441 301 308.333) flipX(302)"/> 
  </g>
  <line x1="725" y1="899.667" x2="725" y2="949.667" stroke="black" stroke-width="2"/> 
  <line x1="825" y1="911.402" x2="825" y2="949.667" stroke="black" stroke-width="2"/> 
  <line x1="825" y1="750" x2="825" y2="825" stroke="black" stroke-width="2"/> 
  <g>
    <line x1="815.667" y1="840.667" x2="825" y2="824.667" stroke="black" stroke-width="3"/> 
    <line x1="-229.333" y1="840.667" x2="-220" y2="824.667" stroke="black" stroke-width="3" transform="flipX(302)"/> 
    <line x1="815.667" y1="849.667" x2="825" y2="833.667" stroke="black" stroke-width="3"/> 
    <line x1="-229.333" y1="849.667" x2="-220" y2="833.667" stroke="black" stroke-width="3" transform="flipX(302)"/> 
    <line x1="-220.5" y1="858" x2="-220.5" y2="836.667" stroke="black" stroke-width="3" transform="flipX(302)"/> 
    <line x1="815.667" y1="-205.824" x2="825" y2="-221.824" stroke="black" stroke-width="3" transform="flipY(345.422)"/> 
    <line x1="-229.333" y1="-205.824" x2="-220" y2="-221.824" stroke="black" stroke-width="3" transform="flipY(345.422) flipX(302)"/> 
    <line x1="815.667" y1="-196.824" x2="825" y2="-212.824" stroke="black" stroke-width="3" transform="flipY(345.422)"/> 
    <line x1="-229.333" y1="-196.824" x2="-220" y2="-212.824" stroke="black" stroke-width="3" transform="flipY(345.422) flipX(302)"/> 
    <line x1="-220.5" y1="900" x2="-220.5" y2="878.667" stroke="black" stroke-width="3" transform="flipX(302)"/> 
    <line x1="209.27" y1="1077.89" x2="209.27" y2="1056.56" stroke="black" stroke-width="3" transform="rotate(324.441 301 308.333) flipX(302)"/> 
  </g>
  <path d="M108.573 935.087 A8.20885 11.1255 0 0 0 92.1717 934.897 " fill="none" stroke="black" stroke-width="2" transform="rotate(360 929.675 549.996) rotate(270 320.236 530.133)"/> 
  <line x1="725" y1="757.878" x2="725" y2="813.775" stroke="black" stroke-width="2"/> 
  <line x1="725" y1="700" x2="725" y2="743" stroke="black" stroke-width="2"/> 
  <text x="1318.92" y="524.03" fill="black" font-size="15" text-anchor="middle">00BKF31<tspan x="1318.92" dy="15">GH001</tspan>
  </text>
  <line x1="1275.23" y1="573.516" x2="1275" y2="625" stroke="black" stroke-width="2"/> 
  <line x1="1275.23" y1="448.517" x2="1275.23" y2="488.849" stroke="black" stroke-width="2"/> 
  <g>
    <line x1="1266.67" y1="500" x2="1276" y2="484" stroke="black" stroke-width="3"/> 
    <line x1="-680.333" y1="500" x2="-671" y2="484" stroke="black" stroke-width="3" transform="flipX(302)"/> 
    <line x1="1266.67" y1="509" x2="1276" y2="493" stroke="black" stroke-width="3"/> 
    <line x1="-680.333" y1="509" x2="-671" y2="493" stroke="black" stroke-width="3" transform="flipX(302)"/> 
    <line x1="-671.5" y1="517.333" x2="-671.5" y2="496" stroke="black" stroke-width="3" transform="flipX(302)"/> 
    <line x1="1266.67" y1="134.844" x2="1276" y2="118.844" stroke="black" stroke-width="3" transform="flipY(345.422)"/> 
    <line x1="-680.333" y1="134.844" x2="-671" y2="118.844" stroke="black" stroke-width="3" transform="flipY(345.422) flipX(302)"/> 
    <line x1="1266.67" y1="143.844" x2="1276" y2="127.844" stroke="black" stroke-width="3" transform="flipY(345.422)"/> 
    <line x1="-680.333" y1="143.844" x2="-671" y2="127.844" stroke="black" stroke-width="3" transform="flipY(345.422) flipX(302)"/> 
    <line x1="-671.5" y1="559.333" x2="-671.5" y2="538" stroke="black" stroke-width="3" transform="flipX(302)"/> 
    <line x1="-355.739" y1="1063.02" x2="-355.739" y2="1041.69" stroke="black" stroke-width="3" transform="rotate(324.441 301 308.333) flipX(302)"/> 
  </g>
  <image x="1313.14" y="674.585" width="75" height="25" xlink:href="obj_link.svg" transform="rotate(180 0 0) flipY(12.3617) rotate(90 37.3618 12.5)">
    <rt:dyn type="ModName" mode="constant" value="&quot;00UNE&quot;"/> 
  </image>
  <text x="1275" y="725" fill="black" font-size="15" text-anchor="middle">00UNE</text>
</svg>
