<?xml  version="1.0" encoding="UTF-8"?>
<svg color="Col_BGSand" xmlns="http://www.w3.org/2000/svg" xmlns:rt="http://www.rts.co.at/2001/XMLSchema/RtSvgPL" xmlns:xlink="http://www.w3.org/1999/xlink" xmlns:xsi="http://www.w3.org/2001/XMLSchema-instance" xsi:schemaLocation="http://www.w3.org/2000/svg C:\RTS\RtSvg\XML\SVG.xsd" viewBox="0 0 1920 1080" width="1920" height="1080" id="02ugv_vent" fill="Col_Grey3" stroke-linecap="inherit" stroke-linejoin="inherit" font-size="1" font-weight="inherit">
  <rt:model modelversion="7.2.0.24" comment="Создано VNIIAES-ASUTP\voroninrs 10.12.2012 14:48:20"/> 
  <line x1="298" y1="433" x2="298" y2="433" stroke="black"/> 
  <line x1="344" y1="425" x2="342" y2="0"/> 
  <line x1="592.727" y1="690.909" x2="592.727" y2="690.909" stroke="black"/> 
  <line x1="749.091" y1="939.091" x2="749.091" y2="939.091" stroke="black"/> 
  <line x1="638.182" y1="881.818" x2="638.182" y2="881.818" stroke="black"/> 
  <line x1="214.545" y1="692.727" x2="214.545" y2="692.727" stroke="black"/> 
  <line x1="259.091" y1="771.818" x2="259.091" y2="771.818" stroke="black"/> 
  <line x1="195.455" y1="720" x2="195.455" y2="720" stroke="black"/> 
  <line x1="186.364" y1="713.636" x2="186.364" y2="713.636" stroke="black"/> 
  <line x1="191.818" y1="715.455" x2="191.818" y2="715.455" stroke="black"/> 
  <line x1="985.455" y1="149.091" x2="985.455" y2="149.091" stroke="black"/> 
  <line x1="1150" y1="365" x2="1150" y2="365" stroke="black"/> 
  <line x1="1274" y1="337" x2="1274" y2="337" stroke="black"/> 
  <line x1="1029" y1="375" x2="1029" y2="375" stroke="black"/> 
  <line x1="1215.33" y1="421.333" x2="1215.33" y2="421.333" stroke="black"/> 
  <line x1="1007" y1="314.75" x2="1007" y2="314.75" stroke="black"/> 
  <line x1="1027.27" y1="820" x2="1027.27" y2="820" stroke="black"/> 
  <line x1="675" y1="65" x2="675" y2="65" stroke="black"/> 
  <line x1="1468" y1="294" x2="1468" y2="294" stroke="black"/> 
  <line x1="1066.67" y1="766" x2="1066.67" y2="766" stroke="black"/> 
  <line x1="668.894" y1="135.194" x2="668.894" y2="330.648" stroke="black" stroke-width="3"/> 
  <image x="632.531" y="198.073" width="70" height="45" xlink:href="DS_pivot_valve_tenzor.svg">
    <title>00SAP30AA001</title>
    <rt:dyn type="KKS" mode="constant" value="&quot;00SAP30AA001&quot;"/> 
    <rt:dyn type="DATA_NARY" mode="constant" value="&quot;TYPE2&quot;"/> 
    <rt:dyn type="Operate" mode="constant" value="true"/> 
    <rt:dyn type="Has_Stop_Button" mode="constant" value="true"/> 
  </image>
  <line x1="1418.37" y1="133.679" x2="1418.37" y2="320.042" stroke="black" stroke-width="3"/> 
  <line x1="1417.37" y1="135.194" x2="667.985" y2="135.527" stroke="black" stroke-width="3"/> 
  <line x1="1036.28" y1="76.1034" x2="1036.26" y2="136.707" stroke="black" stroke-width="3"/> 
  <g transform="rotate(270 1212.44 532.643)">
    <polygon points="877.999,379.159 891.379,386.799 891.379,371.509 877.999,379.159" fill="black" stroke="black" stroke-width="1" transform="rotate(180 1279.17 367.814)"/> 
  </g>
  <image x="1384.01" y="198.073" width="70" height="45" xlink:href="DS_pivot_valve_tenzor.svg">
    <title>00SAP30AA002</title>
    <rt:dyn type="KKS" mode="constant" value="&quot;00SAP30AA002&quot;"/> 
    <rt:dyn type="DATA_NARY" mode="constant" value="&quot;TYPE2&quot;"/> 
    <rt:dyn type="Operate" mode="constant" value="true"/> 
    <rt:dyn type="Has_Stop_Button" mode="constant" value="true"/> 
  </image>
  <line x1="1437.01" y1="441.846" x2="679.439" y2="441.846" stroke="black" stroke-width="3"/> 
  <line x1="1059.2" y1="442.453" x2="1059.24" y2="631.916" stroke="black" stroke-width="3"/> 
  <line x1="1435.48" y1="351.86" x2="1435.5" y2="443.376" stroke="black" stroke-width="3"/> 
  <line x1="680.955" y1="348.83" x2="680.954" y2="443.376" stroke="black" stroke-width="3"/> 
  <line x1="636.023" y1="985.008" x2="636.008" y2="1045.61" visibility="visible" rt:detect="enabled" stroke="black" stroke-width="3"/> 
  <text x="706.167" y="218.073" visibility="visible" rt:detect="enabled" fill="black" font-size="15">00SAP30<tspan x="706.167" dy="15">AA001</tspan>
  </text>
  <text x="722.319" y="326.785" visibility="visible" rt:detect="enabled" fill="black" font-size="15">00SAP30<tspan x="722.319" dy="15">AN001</tspan>
  </text>
  <text x="1459.74" y="218.073" visibility="visible" rt:detect="enabled" fill="black" font-size="15">00SAP30<tspan x="1459.74" dy="15">AA002</tspan>
  </text>
  <text x="1472.86" y="326.785" visibility="visible" rt:detect="enabled" fill="black" font-size="15">00SAP30<tspan x="1472.86" dy="15">AN002</tspan>
  </text>
  <text x="25" y="25" fill="black" font-size="15">01UGV 00CXV43 СИСТЕМА ВЕНТИЛЯЦИИ ЗОНЫ 02UGV</text>
  <rect x="1505.7" y="45.5455" width="285.364" height="85.3637" rx="0" ry="0" fill="Col_BGSand" stroke="black" stroke-width="2"/> 
  <text x="1525.07" y="69.6355" fill="black" font-size="15">Режим работы 02UGV</text>
  <image x="1518.64" y="93.0305" width="181.818" height="24.2424" xlink:href="bitwise_tablo_4bits.svg">
    <title>00CXV4302UGVV_XK92</title>
    <rt:dyn type="PointID_1" mode="constant" value="&quot;00CXV4302UGVV_XK92&quot;"/> 
    <rt:dyn type="Text_0000" mode="constant" value="&quot;АВТОМАТИЧЕСКИЙ&quot;"/> 
    <rt:dyn type="Color_0001" mode="constant" value="&quot;Col_Green&quot;"/> 
    <rt:dyn type="Text_0001" mode="constant" value="&quot;ДИСТАНЦИОННЫЙ&quot;"/> 
    <rt:dyn type="Color_0000" mode="constant" value="&quot;Col_Green&quot;"/> 
  </image>
  <image x="1717.37" y="87.4535" width="60" height="30" xlink:href="ps_tenzor_system.svg">
    <title>00CXV4302UGVV</title>
    <rt:dyn type="KKS" mode="constant" value="&quot;00CXV4302UGVV&quot;"/> 
  </image>
  <rect x="526.409" y="449.083" width="160.106" height="84.3484" rx="0" ry="0" fill="none" stroke="black"/> 
  <rect x="190.046" y="422.318" width="201.015" height="119.197" rx="0" ry="0" fill="none" stroke="black"/> 
  <rect x="303.182" y="655.151" width="177.273" height="87.8788" rx="0" ry="0" fill="none" stroke="black"/> 
  <line x1="618.073" y1="847.644" x2="618.073" y2="906.734" stroke="black" stroke-width="3"/> 
  <text x="521" y="920.682" fill="black" font-size="15">00SAP50<tspan x="521" dy="15">AN001002</tspan>
  </text>
  <line x1="636.143" y1="925.462" x2="636.143" y2="984.552" stroke="black" stroke-width="3"/> 
  <line x1="1139.54" y1="631.901" x2="381.97" y2="631.901" stroke="black" stroke-width="3"/> 
  <line x1="383.865" y1="630.909" x2="383.865" y2="657.32" stroke="black" stroke-width="3"/> 
  <line x1="878.939" y1="583.431" x2="260.212" y2="583.431" stroke="black" stroke-width="3"/> 
  <line x1="261.114" y1="532.431" x2="261.099" y2="814.794" stroke="black" stroke-width="3"/> 
  <line x1="618.333" y1="813.734" x2="260.758" y2="813.734" stroke="black" stroke-width="3"/> 
  <line x1="618.318" y1="812.22" x2="618.343" y2="847.138" stroke="black" stroke-width="3"/> 
  <text x="195.636" y="455.53" visibility="visible" rt:detect="enabled" fill="black" font-size="15">02UGV10R001<tspan x="195.636" dy="15">Монтажная площадка</tspan>
<tspan x="195.636" dy="15">помещения решетчатого</tspan>
<tspan x="195.636" dy="15">контейнера</tspan>
  </text>
  <text x="533.515" y="474.719" visibility="visible" rt:detect="enabled" fill="black" font-size="15">02UGV10R002<tspan x="533.515" dy="15">Монтажная</tspan>
<tspan x="533.515" dy="15">площадка насосов</tspan>
  </text>
  <text x="791.061" y="473.712" visibility="visible" rt:detect="enabled" fill="black" font-size="15">02UGV10R003<tspan x="791.061" dy="15">Венткамера</tspan>
<tspan x="791.061" dy="15">приточная</tspan>
  </text>
  <text x="1112.27" y="489.871" visibility="visible" rt:detect="enabled" fill="black" font-size="15">02UGV10R004<tspan x="1112.27" dy="15">Венткамера</tspan>
<tspan x="1112.27" dy="15">вытяжная</tspan>
  </text>
  <text x="304.697" y="686.349" visibility="visible" rt:detect="enabled" fill="black" font-size="15">02UGV05R001<tspan x="304.697" dy="15">Пощение решетчатого</tspan>
<tspan x="304.697" dy="15">контейнера</tspan>
  </text>
  <text x="674.394" y="687.349" visibility="visible" rt:detect="enabled" fill="black" font-size="15">02UGV05R004<tspan x="674.394" dy="15">Помещение арматуры</tspan>
<tspan x="674.394" dy="15">и трубопроводов</tspan>
  </text>
  <text x="1031.97" y="687.349" visibility="visible" rt:detect="enabled" fill="black" font-size="15">02UGV05R004<tspan x="1031.97" dy="15">Приемный резервуар</tspan>
<tspan x="1031.97" dy="15">с насосом</tspan>
  </text>
  <line x1="757.737" y1="771.803" x2="262.273" y2="771.818" stroke="black" stroke-width="3"/> 
  <line x1="758.094" y1="738.523" x2="758.119" y2="773.441" stroke="black" stroke-width="3"/> 
  <line x1="1100.15" y1="795.553" x2="389.546" y2="795.553" stroke="black" stroke-width="3"/> 
  <line x1="322.743" y1="735.485" x2="322.743" y2="773.364" stroke="black" stroke-width="3"/> 
  <line x1="1100.53" y1="741.008" x2="1100.54" y2="797.068" stroke="black" stroke-width="3"/> 
  <line x1="877.773" y1="524.848" x2="877.773" y2="584.945" stroke="black" stroke-width="3"/> 
  <line x1="1101.67" y1="498.953" x2="1057.73" y2="498.953" stroke="black" stroke-width="3"/> 
  <line x1="390.049" y1="735.942" x2="390.049" y2="753.636" stroke="black" stroke-width="3"/> 
  <line x1="807.592" y1="738.492" x2="807.592" y2="796.061" stroke="black" stroke-width="3"/> 
  <line x1="390" y1="788" x2="390" y2="797.061" stroke="black" stroke-width="3"/> 
  <line x1="604.962" y1="394.525" x2="604.977" y2="444.524" stroke="black" stroke-width="3"/> 
  <line x1="615.44" y1="392.697" x2="594.5" y2="392.697" stroke="black" stroke-width="3"/> 
  <g transform="rotate(270 1212.44 532.643)">
    <polygon points="1188.76,810.46 1202.15,818.1 1202.15,802.81 1188.76,810.46" fill="black" stroke="black" stroke-width="1" transform="rotate(180 1279.17 367.814)"/> 
  </g>
  <g transform="rotate(270 443.954 292.094)">
    <line x1="250.594" y1="957.04" x2="223.595" y2="957.04" stroke="black" stroke-width="3"/> 
    <g transform="rotate(270 1212.44 532.643)">
      <polygon points="1752.96,1178.34 1766.35,1185.98 1766.35,1170.69 1752.96,1178.34" fill="black" stroke="black" stroke-width="1" transform="rotate(180 1279.17 367.814)"/> 
    </g>
  </g>
  <rect x="342.576" y="841.515" width="589.394" height="150" rx="0" ry="0" fill="none" stroke="black"/> 
  <line x1="615.44" y1="459.694" x2="594.5" y2="459.694" stroke="black" stroke-width="3"/> 
  <g transform="rotate(270 1212.44 532.643)">
    <polygon points="1255.76,810.46 1269.15,818.1 1269.15,802.81 1255.76,810.46" fill="black" stroke="black" stroke-width="1" transform="rotate(180 1279.17 367.814)"/> 
  </g>
  <line x1="622.94" y1="523.691" x2="602" y2="523.691" stroke="black" stroke-width="3"/> 
  <g transform="rotate(270 1212.44 532.643)">
    <polygon points="1319.76,802.96 1333.15,810.6 1333.15,795.31 1319.76,802.96" fill="black" stroke="black" stroke-width="1" transform="rotate(180 1279.17 367.814)"/> 
  </g>
  <line x1="612.5" y1="525" x2="612.5" y2="585.097" stroke="black" stroke-width="3"/> 
  <line x1="888.243" y1="524.325" x2="867.303" y2="524.325" stroke="black" stroke-width="3"/> 
  <g transform="rotate(270 1212.44 532.643)">
    <polygon points="1320.39,537.657 1333.78,545.297 1333.78,530.007 1320.39,537.657" fill="black" stroke="black" stroke-width="1" transform="rotate(180 1279.17 367.814)"/> 
  </g>
  <line x1="268.19" y1="371.643" x2="268.204" y2="421.642" stroke="black" stroke-width="3"/> 
  <line x1="278.667" y1="369.815" x2="257.727" y2="369.815" stroke="black" stroke-width="3"/> 
  <g transform="rotate(270 1212.44 532.643)">
    <polygon points="1165.88,1147.23 1179.27,1154.87 1179.27,1139.58 1165.88,1147.23" fill="black" stroke="black" stroke-width="1" transform="rotate(180 1279.17 367.814)"/> 
  </g>
  <line x1="278.667" y1="438.812" x2="257.727" y2="438.812" stroke="black" stroke-width="3"/> 
  <g transform="rotate(270 1212.44 532.643)">
    <polygon points="1234.88,1147.23 1248.27,1154.87 1248.27,1139.58 1234.88,1147.23" fill="black" stroke="black" stroke-width="1" transform="rotate(180 1279.17 367.814)"/> 
  </g>
  <line x1="271.577" y1="530.931" x2="250.636" y2="530.931" stroke="black" stroke-width="3"/> 
  <g transform="rotate(270 1212.44 532.643)">
    <polygon points="1327,1154.32 1340.39,1161.96 1340.39,1146.67 1327,1154.32" fill="black" stroke="black" stroke-width="1" transform="rotate(180 1279.17 367.814)"/> 
  </g>
  <line x1="394.335" y1="670.931" x2="373.394" y2="670.931" stroke="black" stroke-width="3"/> 
  <g transform="rotate(270 1212.44 532.643)">
    <polygon points="1467,1031.57 1480.39,1039.21 1480.39,1023.92 1467,1031.57" fill="black" stroke="black" stroke-width="1" transform="rotate(180 1279.17 367.814)"/> 
  </g>
  <line x1="333.214" y1="734.991" x2="312.273" y2="734.991" stroke="black" stroke-width="3"/> 
  <g transform="rotate(270 1212.44 532.643)">
    <polygon points="1531.06,1092.69 1544.45,1100.33 1544.45,1085.04 1531.06,1092.69" fill="black" stroke="black" stroke-width="1" transform="rotate(180 1279.17 367.814)"/> 
  </g>
  <line x1="768.577" y1="737.536" x2="747.636" y2="737.536" stroke="black" stroke-width="3"/> 
  <g transform="rotate(270 1212.44 532.643)">
    <polygon points="1533.61,657.323 1547,664.963 1547,649.673 1533.61,657.323" fill="black" stroke="black" stroke-width="1" transform="rotate(180 1279.17 367.814)"/> 
  </g>
  <line x1="1111" y1="738.991" x2="1090.06" y2="738.991" stroke="black" stroke-width="3"/> 
  <g transform="rotate(270 1212.44 532.643)">
    <polygon points="1535.06,314.9 1548.45,322.54 1548.45,307.25 1535.06,314.9" fill="black" stroke="black" stroke-width="1" transform="rotate(180 1279.17 367.814)"/> 
  </g>
  <line x1="400.881" y1="737.477" x2="379.939" y2="737.477" stroke="black" stroke-width="3"/> 
  <g transform="flipY(732.043) flipX(518.193) rotate(270 1212.44 532.643)">
    <polygon points="1540.67,769.449 1554.06,777.089 1554.06,761.799 1540.67,769.449" fill="black" stroke="black" stroke-width="1" transform="rotate(180 1279.17 367.814)"/> 
  </g>
  <line x1="818.063" y1="742.027" x2="797.121" y2="742.027" stroke="black" stroke-width="3"/> 
  <g transform="flipY(732.043) flipX(518.193) rotate(270 1212.44 532.643)">
    <polygon points="1537.12,1186.64 1550.51,1194.28 1550.51,1178.99 1537.12,1186.64" fill="black" stroke="black" stroke-width="1" transform="rotate(180 1279.17 367.814)"/> 
  </g>
  <rect x="782.469" y="449.591" width="160.106" height="84.3484" rx="0" ry="0" fill="none" stroke="black"/> 
  <rect x="670.349" y="658.682" width="177.273" height="87.8788" rx="0" ry="0" fill="none" stroke="black"/> 
  <line x1="755.636" y1="630.909" x2="755.636" y2="657.32" stroke="black" stroke-width="3"/> 
  <line x1="766.486" y1="670.931" x2="745.545" y2="670.931" stroke="black" stroke-width="3"/> 
  <g transform="rotate(270 1212.44 532.643)">
    <polygon points="1467,659.409 1480.39,667.049 1480.39,651.759 1467,659.409" fill="black" stroke="black" stroke-width="1" transform="rotate(180 1279.17 367.814)"/> 
  </g>
  <rect x="1023.38" y="655.652" width="177.273" height="87.8788" rx="0" ry="0" fill="none" stroke="black"/> 
  <line x1="1139.93" y1="630.394" x2="1139.93" y2="656.805" stroke="black" stroke-width="3"/> 
  <line x1="1150.4" y1="670.416" x2="1129.45" y2="670.416" stroke="black" stroke-width="3"/> 
  <g transform="rotate(270 1212.44 532.643)">
    <polygon points="1466.49,275.505 1479.88,283.145 1479.88,267.855 1466.49,275.505" fill="black" stroke="black" stroke-width="1" transform="rotate(180 1279.17 367.814)"/> 
  </g>
  <rect x="1094.59" y="458.682" width="160.106" height="84.3484" rx="0" ry="0" fill="none" stroke="black"/> 
  <line x1="646.486" y1="1044.53" x2="625.545" y2="1044.53" stroke="black" stroke-width="3"/> 
  <g transform="rotate(270 1212.44 532.643)">
    <polygon points="1857.6,779.414 1870.99,787.054 1870.99,771.764 1857.6,779.414" fill="black" stroke="black" stroke-width="1" transform="rotate(180 1279.17 367.814)"/> 
  </g>
  <line x1="544.091" y1="377.455" x2="544.091" y2="451.696" stroke="black" stroke-width="1"/> 
  <image x="985" y="327.879" width="181.818" height="24.2424" xlink:href="bitwise_tablo_4bits.svg">
    <title>00SAP30AN001002_Z0</title>
    <rt:dyn type="PointID_1" mode="constant" value="&quot;00SAP30AN001002_Z0 0&quot;"/> 
    <rt:dyn type="Text_0001" mode="constant" value="&quot;АВР НЕ ГОТОВ&quot;"/> 
    <rt:dyn type="Text_0000" mode="constant" value="&quot;АВР ДИСТ&quot;"/> 
    <rt:dyn type="Color_0010" mode="constant" value="&quot;Col_Yellow&quot;"/> 
    <rt:dyn type="Color_0001" mode="constant" value="&quot;Col_Green&quot;"/> 
    <rt:dyn type="Text_0010" mode="constant" value="&quot;АВР ГОТОВ&quot;"/> 
    <rt:dyn type="PointID_2" mode="constant" value="&quot;00SAP30AN001002_Z0 1&quot;"/> 
    <rt:dyn type="PointID_3" mode="constant" value="&quot;00SAP30AN001002_Z0 2&quot;"/> 
    <rt:dyn type="PointID_4" mode="constant" value="&quot;00SAP30AN001002_Z0 3&quot;"/> 
    <rt:dyn type="Text_0100" mode="constant" value="&quot;АВР СРАБОТАЛ&quot;"/> 
    <rt:dyn type="Color_0100" mode="constant" value="&quot;Col_Red&quot;"/> 
    <rt:dyn type="Color_0000" mode="constant" value="&quot;Col_Grey3&quot;"/> 
  </image>
  <image x="650.136" y="294.285" width="70" height="70" xlink:href="DS_motor_tenzor.svg" transform="rotate(270 0.00012207 0)">
    <title>00SAP30AN001</title>
    <rt:dyn type="DeviceType" mode="constant" value="&quot;fan&quot;"/> 
    <rt:dyn type="Operate" mode="constant" value="true"/> 
    <rt:dyn type="KKS" mode="constant" value="&quot;00SAP30AN001&quot;"/> 
    <rt:dyn type="DATA_NARY" mode="constant" value="&quot;TYPE2&quot;"/> 
  </image>
  <image x="1400.13" y="294.285" width="70" height="70" xlink:href="DS_motor_tenzor.svg" transform="rotate(270 0.00012207 0)">
    <title>00SAP30AN002</title>
    <rt:dyn type="DeviceType" mode="constant" value="&quot;fan&quot;"/> 
    <rt:dyn type="Operate" mode="constant" value="true"/> 
    <rt:dyn type="KKS" mode="constant" value="&quot;00SAP30AN002&quot;"/> 
    <rt:dyn type="DATA_NARY" mode="constant" value="&quot;TYPE2&quot;"/> 
  </image>
  <path d="M895.772 752.621 A12.6666 19 0 0 0 895.772 790.621 " fill="none" stroke="black" transform="flipX(643.429)"/> 
  <image x="625" y="375" width="160" height="30" xlink:href="ps_tenzor_m0.svg">
    <title>00SAP30AN001</title>
    <rt:dyn type="KKS" mode="constant" value="&quot;00SAP30AN001&quot;"/> 
  </image>
  <image x="1375" y="375" width="160" height="30" xlink:href="ps_tenzor_m0.svg">
    <title>00SAP30AN002</title>
    <rt:dyn type="KKS" mode="constant" value="&quot;00SAP30AN002&quot;"/> 
  </image>
  <image x="412" y="375" width="175" height="25" xlink:href="DS_ana_tenzor.svg">
    <title>00SAP31CT001</title>
    <rt:dyn type="FKKS" mode="constant" value="&quot;00SAP31CT001&quot;"/> 
    <rt:dyn type="X" mode="constant" value="&quot;T&quot;"/> 
    <rt:dyn type="ShowFrame" mode="constant" value="true"/> 
    <rt:dyn type="ValueToTheRight" mode="constant" value="false"/> 
    <rt:dyn type="Color_Readings" mode="constant" value="true"/> 
  </image>
  <image x="599.273" y="892.159" width="70" height="70" xlink:href="DS_motor_tenzor.svg" transform="rotate(270 0.00012207 0)">
    <title>00SAP50AN001002</title>
    <rt:dyn type="DeviceType" mode="constant" value="&quot;fan&quot;"/> 
    <rt:dyn type="Operate" mode="constant" value="true"/> 
    <rt:dyn type="KKS" mode="constant" value="&quot;00SAP50AN001002&quot;"/> 
    <rt:dyn type="DATA_NARY" mode="constant" value="&quot;TYPE2&quot;"/> 
  </image>
</svg>
