<?xml  version="1.0" encoding="UTF-8"?>
<svg color="Col_BGSand" xmlns="http://www.w3.org/2000/svg" xmlns:rt="http://www.rts.co.at/2001/XMLSchema/RtSvgPL" xmlns:xlink="http://www.w3.org/1999/xlink" xmlns:xsi="http://www.w3.org/2001/XMLSchema-instance" xsi:schemaLocation="http://www.w3.org/2000/svg C:\RTS\RtSvg\XML\SVG.xsd" viewBox="0 0 1920 1080" width="1920" height="1080" id="02ugv_texn" fill="Col_Grey3">
  <rt:model modelversion="7.2.0.24" comment="Создано VNIIAES-ASUTP\voroninrs 10.12.2012 14:48:20"/> 
  <g fill="black" stroke="black">
    <polygon points="346.212,384.091 346.212,759.091 1221.21,759.091 1221.21,384.091" fill="Col_Grey2" stroke="white" stroke-dashoffset="inherit"/> 
  </g>
  <rect x="347" y="490" width="874" height="266" rx="0" ry="0" fill="Col_Grey2"/> 
  <line x1="1436.11" y1="210.909" x2="556.106" y2="210.909" stroke="black" stroke-width="3"/> 
  <line x1="298" y1="433" x2="298" y2="433" stroke="black"/> 
  <line x1="344" y1="425" x2="342" y2="0"/> 
  <line x1="592.727" y1="690.909" x2="592.727" y2="690.909" stroke="black"/> 
  <line x1="749.091" y1="939.091" x2="749.091" y2="939.091" stroke="black"/> 
  <line x1="638.182" y1="881.818" x2="638.182" y2="881.818" stroke="black"/> 
  <line x1="214.545" y1="692.727" x2="214.545" y2="692.727" stroke="black"/> 
  <line x1="259.091" y1="771.818" x2="259.091" y2="771.818" stroke="black"/> 
  <line x1="195.455" y1="720" x2="195.455" y2="720" stroke="black"/> 
  <line x1="186.364" y1="713.636" x2="186.364" y2="713.636" stroke="black"/> 
  <line x1="191.818" y1="715.455" x2="191.818" y2="715.455" stroke="black"/> 
  <line x1="985.455" y1="149.091" x2="985.455" y2="149.091" stroke="black"/> 
  <line x1="1150" y1="365" x2="1150" y2="365" stroke="black"/> 
  <line x1="1274" y1="337" x2="1274" y2="337" stroke="black"/> 
  <line x1="1029" y1="375" x2="1029" y2="375" stroke="black"/> 
  <line x1="1215.33" y1="421.333" x2="1215.33" y2="421.333" stroke="black"/> 
  <line x1="1007" y1="314.75" x2="1007" y2="314.75" stroke="black"/> 
  <line x1="1027.27" y1="820" x2="1027.27" y2="820" stroke="black"/> 
  <line x1="675" y1="65" x2="675" y2="65" stroke="black"/> 
  <line x1="1468" y1="294" x2="1468" y2="294" stroke="black"/> 
  <line x1="1066.67" y1="766" x2="1066.67" y2="766" stroke="black"/> 
  <text x="25" y="25" fill="black" font-size="15">01UGV 00CXV43 ТЕХНОЛОГИЧЕСКИЕ СИСТЕМЫ ЗОНЫ 02UGV</text>
  <line x1="556.712" y1="209.606" x2="556.712" y2="661.727" stroke="black" stroke-width="3"/> 
  <g transform="rotate(360 1212.44 532.643)">
    <polygon points="1117.56,524.122 1130.94,531.762 1130.94,516.472 1117.56,524.122" fill="black" stroke="black" stroke-width="1" transform="rotate(180 1279.17 367.814)"/> 
  </g>
  <text x="1104.7" y="668.712" fill="black" font-size="15">00GQB02<tspan x="1104.7" dy="15">AP001</tspan>
  </text>
  <text x="609.227" y="669.621" fill="black" font-size="15">00GQB03<tspan x="609.227" dy="15">AP001</tspan>
  </text>
  <text x="194.091" y="431.288" fill="black" font-size="15">00GQA43AA001</text>
  <image x="538.015" y="637.121" width="70" height="70" xlink:href="DS_motor_tenzor.svg" transform="rotate(270 0.00012207 0)">
    <title>00GQB03AP001</title>
    <rt:dyn type="DeviceType" mode="constant" value="&quot;fan&quot;"/> 
    <rt:dyn type="Operate" mode="constant" value="true"/> 
    <rt:dyn type="KKS" mode="constant" value="&quot;00GQB03AP001&quot;"/> 
    <rt:dyn type="DATA_NARY" mode="constant" value="&quot;TYPE2&quot;"/> 
  </image>
  <line x1="1052.58" y1="303" x2="1052.08" y2="676.301" stroke="black" stroke-width="3"/> 
  <image x="1033" y="636.212" width="70" height="70" xlink:href="DS_motor_tenzor.svg" transform="rotate(270 0.00012207 0)">
    <title>00GQB02AP001</title>
    <rt:dyn type="DeviceType" mode="constant" value="&quot;fan&quot;"/> 
    <rt:dyn type="Operate" mode="constant" value="true"/> 
    <rt:dyn type="KKS" mode="constant" value="&quot;00GQB02AP001&quot;"/> 
    <rt:dyn type="DATA_NARY" mode="constant" value="&quot;TYPE2&quot;"/> 
  </image>
  <line x1="1428.58" y1="303.651" x2="1051.58" y2="304" stroke="black" stroke-width="3"/> 
  <g transform="rotate(360 1212.44 532.643)">
    <polygon points="1117.56,431.759 1130.94,439.399 1130.94,424.109 1117.56,431.759" fill="black" stroke="black" stroke-width="1" transform="rotate(180 1279.17 367.814)"/> 
  </g>
  <line x1="247.121" y1="489.631" x2="53.0336" y2="489.631" stroke="black" stroke-width="3"/> 
  <g transform="rotate(360 1212.44 532.643)">
    <polygon points="2424.88,246.002 2438.26,253.642 2438.26,238.352 2424.88,246.002" fill="black" stroke="black" stroke-width="1" transform="rotate(180 1279.17 367.814)"/> 
  </g>
  <line x1="345.969" y1="489.485" x2="268.333" y2="489.485" stroke="black" stroke-width="3"/> 
  <line x1="385.902" y1="523.562" x2="387.072" y2="680.212" stroke="black" stroke-width="3"/> 
  <text x="817.5" y="554.5" fill="black" font-size="15" text-anchor="middle">00GQB01BB001<tspan x="817.5" dy="15">Приемный</tspan>
<tspan x="817.5" dy="15">резервуар</tspan>
  </text>
  <line x1="345.606" y1="489.394" x2="1221.36" y2="489.394" stroke="black"/> 
  <line x1="1297.12" y1="507.576" x2="1297.12" y2="507.576" stroke="black"/> 
  <line x1="1109.24" y1="457.576" x2="1109.24" y2="457.576" stroke="black"/> 
  <text x="218.083" y="535.167" fill="black" font-size="15">Камера<tspan x="218.083" dy="15">отключения</tspan>
  </text>
  <rect x="192.667" y="393.333" width="138.667" height="208" rx="0" ry="0" fill="none" stroke="black" stroke-dasharray="5,5"/> 
  <text x="70.0834" y="439.167" fill="black" font-size="15">Подводящий<tspan x="70.0834" dy="15">трубопровод</tspan>
<tspan x="70.0834" dy="15">GQA</tspan>
  </text>
  <text x="1345.61" y="244.924" fill="black" font-size="15">На очистные<tspan x="1345.61" dy="15">сооружения</tspan>
  </text>
  <image x="354.182" y="524.333" width="25" height="25" xlink:href="bin_indicator.svg">
    <title>00GQB01CL002_XG02</title>
    <rt:dyn type="PointID" mode="constant" value="&quot;00GQB01CL002_XG02&quot;"/> 
  </image>
  <image x="354.182" y="556.151" width="25" height="25" xlink:href="bin_indicator.svg">
    <title>00GQB01CL002_XG01</title>
    <rt:dyn type="PointID" mode="constant" value="&quot;00GQB01CL002_XG01&quot;"/> 
  </image>
  <image x="354.182" y="655.121" width="25" height="25" xlink:href="bin_indicator.svg">
    <title>00GQB01CL002_XG51</title>
    <rt:dyn type="PointID" mode="constant" value="&quot;00GQB01CL002_XG51&quot;"/> 
  </image>
  <image x="727" y="663" width="181.818" height="24.2424" xlink:href="bitwise_tablo_4bits.svg">
    <title>00GQB0203AP001</title>
    <rt:dyn type="PointID_1" mode="constant" value="&quot;00GQB0203AP001_Z0 0&quot;"/> 
    <rt:dyn type="Text_0001" mode="constant" value="&quot;АВР НЕ ГОТОВ&quot;"/> 
    <rt:dyn type="Text_0000" mode="constant" value="&quot;АВР ДИСТ&quot;"/> 
    <rt:dyn type="Color_0010" mode="constant" value="&quot;Col_Yellow&quot;"/> 
    <rt:dyn type="Color_0001" mode="constant" value="&quot;Col_Green&quot;"/> 
    <rt:dyn type="Text_0010" mode="constant" value="&quot;АВР ГОТОВ&quot;"/> 
    <rt:dyn type="PointID_2" mode="constant" value="&quot;00GQB0203AP001_Z0 1&quot;"/> 
    <rt:dyn type="PointID_3" mode="constant" value="&quot;00GQB0203AP001_Z0 2&quot;"/> 
    <rt:dyn type="PointID_4" mode="constant" value="&quot;00GQB0203AP001_Z0 3&quot;"/> 
    <rt:dyn type="Text_0100" mode="constant" value="&quot;АВР СРАБОТАЛ&quot;"/> 
    <rt:dyn type="Color_0100" mode="constant" value="&quot;Col_Red&quot;"/> 
    <rt:dyn type="Color_0000" mode="constant" value="&quot;Col_Grey3&quot;"/> 
  </image>
  <rect x="1511.76" y="106.152" width="285.364" height="85.3637" rx="0" ry="0" fill="Col_BGSand" stroke="black" stroke-width="2"/> 
  <text x="1657.73" y="132.424" fill="black" font-size="15" text-anchor="middle">Режим работы 02UGV</text>
  <image x="1524.7" y="153.637" width="181.818" height="24.2424" xlink:href="bitwise_tablo_4bits.svg">
    <title>00CXV4302UGVT_XK92</title>
    <rt:dyn type="PointID_1" mode="constant" value="&quot;00CXV4302UGVT_XK92&quot;"/> 
    <rt:dyn type="Text_0000" mode="constant" value="&quot;АВТОМАТИЧЕСКИЙ&quot;"/> 
    <rt:dyn type="Color_0001" mode="constant" value="&quot;Col_Green&quot;"/> 
    <rt:dyn type="Text_0001" mode="constant" value="&quot;ДИСТАНЦИОННЫЙ&quot;"/> 
    <rt:dyn type="Color_0000" mode="constant" value="&quot;Col_Green&quot;"/> 
  </image>
  <image x="1723.43" y="148.06" width="60" height="30" xlink:href="ps_tenzor_system.svg">
    <title>00CXV4302UGVT</title>
    <rt:dyn type="KKS" mode="constant" value="&quot;00CXV4302UGVT&quot;"/> 
  </image>
  <text x="430.455" y="671.871" fill="black" font-size="15" text-anchor="middle">&lt;0,4 м</text>
  <text x="430.455" y="572.901" fill="black" font-size="15" text-anchor="middle">&gt;3,6 м</text>
  <text x="430.455" y="541.083" fill="black" font-size="15" text-anchor="middle">&gt;3,9 м</text>
  <image x="355" y="405.25" width="25" height="25" xlink:href="bin_indicator.svg">
    <title>00GQB01CL001_XG01</title>
    <rt:dyn type="PointID" mode="constant" value="&quot;00GQB01CL001_XG01&quot;"/> 
  </image>
  <text x="416" y="422" fill="black" font-size="15" text-anchor="middle">&gt;4,9 м</text>
  <text x="391.5" y="400.5" fill="black" font-size="15" text-anchor="middle">Уровень</text>
  <text x="389.5" y="514.5" fill="black" font-size="15" text-anchor="middle">Уровень</text>
  <line x1="465" y1="511" x2="1123" y2="511" stroke="black" stroke-dasharray="15,5"/> 
  <line x1="525" y1="526" x2="1062" y2="526" stroke="black" stroke-dasharray="15,5"/> 
  <image x="500" y="709.5" width="160" height="30" xlink:href="ps_tenzor_m0.svg">
    <title>00GQB03AP001</title>
    <rt:dyn type="KKS" mode="constant" value="&quot;00GQB03AP001&quot;"/> 
  </image>
  <image x="975" y="709.5" width="160" height="30" xlink:href="ps_tenzor_m0.svg">
    <title>00GQB02AP001</title>
    <rt:dyn type="KKS" mode="constant" value="&quot;00GQB02AP001&quot;"/> 
  </image>
  <image x="600" y="175" width="175" height="25" xlink:href="DS_ana_tenzor.svg">
    <title>00GQB04CF002</title>
    <rt:dyn type="FKKS" mode="constant" value="&quot;00GQB04CF002&quot;"/> 
    <rt:dyn type="X" mode="constant" value="&quot;F&quot;"/> 
    <rt:dyn type="ShowFrame" mode="constant" value="true"/> 
    <rt:dyn type="ValueToTheRight" mode="constant" value="false"/> 
    <rt:dyn type="Color_Readings" mode="constant" value="true"/> 
  </image>
  <image x="1100" y="265" width="175" height="25" xlink:href="DS_ana_tenzor.svg">
    <title>00GQB04CF001</title>
    <rt:dyn type="FKKS" mode="constant" value="&quot;00GQB04CF001&quot;"/> 
    <rt:dyn type="X" mode="constant" value="&quot;F&quot;"/> 
    <rt:dyn type="ShowFrame" mode="constant" value="true"/> 
    <rt:dyn type="ValueToTheRight" mode="constant" value="false"/> 
    <rt:dyn type="Color_Readings" mode="constant" value="true"/> 
  </image>
  <image x="221" y="447" width="70" height="65" xlink:href="DS_CO_valve_tenzor.svg">
    <title>00GQA43AA001</title>
    <rt:dyn type="DATA_NARY" mode="constant" value="&quot;TYPE2&quot;"/> 
    <rt:dyn type="Operate" mode="constant" value="true"/> 
    <rt:dyn type="KKS" mode="constant" value="&quot;00GQA43AA001&quot;"/> 
    <rt:dyn type="Has_Stop_Button" mode="constant" value="true"/> 
  </image>
</svg>
