<?xml  version="1.0" encoding="UTF-8"?>
<svg color="Col_BGSand" xmlns="http://www.w3.org/2000/svg" xmlns:rt="http://www.rts.co.at/2001/XMLSchema/RtSvgPL" xmlns:xlink="http://www.w3.org/1999/xlink" xmlns:xsi="http://www.w3.org/2001/XMLSchema-instance" xsi:schemaLocation="http://www.w3.org/2000/svg C:\RTS\RtSvg\XML\SVG.xsd" viewBox="0 0 1920 1080" width="1920" height="1080" id="05r008_009" fill="Col_Grey3">
  <rt:model modelversion="7.2.0.24" revision="1"/> 
  <polyline points="1230.44,362.712 1716.82,362.712 1716.82,686.955 1224.38,686.955" fill="none" stroke="black" stroke-width="3" transform="flipX(1082.72)"/> 
  <line x1="298" y1="433" x2="298" y2="433" stroke="black"/> 
  <line x1="344" y1="425" x2="342" y2="0"/> 
  <line x1="592.727" y1="690.909" x2="592.727" y2="690.909" stroke="black"/> 
  <line x1="749.091" y1="939.091" x2="749.091" y2="939.091" stroke="black"/> 
  <line x1="638.182" y1="881.818" x2="638.182" y2="881.818" stroke="black"/> 
  <line x1="214.545" y1="692.727" x2="214.545" y2="692.727" stroke="black"/> 
  <line x1="259.091" y1="771.818" x2="259.091" y2="771.818" stroke="black"/> 
  <line x1="195.455" y1="720" x2="195.455" y2="720" stroke="black"/> 
  <line x1="186.364" y1="713.636" x2="186.364" y2="713.636" stroke="black"/> 
  <line x1="191.818" y1="715.455" x2="191.818" y2="715.455" stroke="black"/> 
  <line x1="985.455" y1="149.091" x2="985.455" y2="149.091" stroke="black"/> 
  <line x1="1150" y1="365" x2="1150" y2="365" stroke="black"/> 
  <line x1="1274" y1="337" x2="1274" y2="337" stroke="black"/> 
  <line x1="1029" y1="375" x2="1029" y2="375" stroke="black"/> 
  <line x1="1215.33" y1="421.333" x2="1215.33" y2="421.333" stroke="black"/> 
  <line x1="1007" y1="314.75" x2="1007" y2="314.75" stroke="black"/> 
  <line x1="1027.27" y1="820" x2="1027.27" y2="820" stroke="black"/> 
  <line x1="675" y1="65" x2="675" y2="65" stroke="black"/> 
  <line x1="1468" y1="294" x2="1468" y2="294" stroke="black"/> 
  <line x1="1066.67" y1="766" x2="1066.67" y2="766" stroke="black"/> 
  <line x1="130.012" y1="525.559" x2="450" y2="525" stroke="black" stroke-width="3"/> 
  <g transform="flipX(76.3091) flipX(616.809) rotate(90 132.155 29.823) rotate(360 1.4013e-045 2.31881e-039) flipY(911) rotate(180 1212.44 532.643)">
    <polygon points="748.616,2518.86 773.619,2518.86 761.616,2543.86 761.616,2543.86" fill="black" stroke="black" stroke-width="1" transform="rotate(180 1279.17 367.814)"/> 
  </g>
  <g transform="rotate(90 850 184) rotate(0 1.4013e-045 3.88002e-039) flipX(225.309) flipX(76.3091) flipX(616.809) rotate(90 132.155 29.823) rotate(360 1.4013e-045 2.31881e-039) flipY(911) rotate(180 1212.44 532.643)">
    <polygon points="6.79224,1920.98 31.7922,1920.98 19.7922,1945.98 19.7922,1945.98" fill="black" stroke="black" stroke-width="1" transform="rotate(180 1279.17 367.814)"/> 
  </g>
  <line x1="1250" y1="275" x2="1250" y2="825" stroke="black" stroke-width="3"/> 
  <g transform="flipY(430.309) rotate(90 850 184) rotate(0 1.4013e-045 3.88002e-039) flipX(225.309) flipX(76.3091) flipX(616.809) rotate(90 132.155 29.823) rotate(360 1.4013e-045 2.31881e-039) flipY(911) rotate(180 1212.44 532.643)">
    <polygon points="6.79224,2160.36 31.7922,2160.36 19.7922,2185.36 19.7922,2185.36" fill="black" stroke="black" stroke-width="1" transform="rotate(180 1279.17 367.814)"/> 
  </g>
  <g transform="flipY(331.309) rotate(90 850 184) rotate(0 1.4013e-045 3.88002e-039) flipX(225.309) flipX(76.3091) flipX(616.809) rotate(90 132.155 29.823) rotate(360 1.4013e-045 2.31881e-039) flipY(911) rotate(180 1212.44 532.643)">
    <polygon points="-93.2078,1783.36 -68.2078,1783.36 -80.2078,1808.36 -80.2078,1808.36" fill="black" stroke="black" stroke-width="1" transform="rotate(180 1279.17 367.814)"/> 
  </g>
  <line x1="1350" y1="275" x2="1350" y2="825" stroke="black" stroke-width="3"/> 
  <g transform="flipY(791.802) flipY(430.309) rotate(90 850 184) rotate(0 1.4013e-045 3.88002e-039) flipX(225.309) flipX(76.3091) flipX(616.809) rotate(90 132.155 29.823) rotate(360 1.4013e-045 2.31881e-039) flipY(911)">
    <polygon points="-93.0023,2114.36 -68.0024,2114.36 -80.0024,2139.36 -80.0024,2139.36" fill="black" stroke="black" stroke-width="1" transform="rotate(180 1279.17 367.814)"/> 
  </g>
  <g transform="flipY(605.309) flipY(331.309) rotate(90 850 184) rotate(0 1.4013e-045 3.88002e-039) flipX(225.309) flipX(76.3091) flipX(616.809) rotate(90 132.155 29.823) rotate(360 1.4013e-045 2.31881e-039) flipY(911)">
    <polygon points="-252.003,2125.86 -227.003,2125.86 -239.003,2150.86 -239.003,2150.86" fill="black" stroke="black" stroke-width="1" transform="rotate(180 1279.17 367.814)"/> 
  </g>
  <g transform="flipY(426.309) flipY(331.309) rotate(90 850 184) rotate(0 1.4013e-045 3.88002e-039) flipX(225.309) flipX(76.3091) flipX(616.809) rotate(90 132.155 29.823) rotate(360 1.4013e-045 2.31881e-039) flipY(911)">
    <polygon points="-249.002,1946.86 -224.002,1946.86 -236.002,1971.86 -236.002,1971.86" fill="black" stroke="black" stroke-width="1" transform="rotate(180 1279.17 367.814)"/> 
  </g>
  <polygon points="1195.34,-114.372 1220.34,-114.372 1208.34,-89.372 1208.34,-89.372" fill="black" stroke="black" stroke-width="1" transform="rotate(180 1279.17 367.814)"/> 
  <line x1="1801" y1="450.5" x2="1851" y2="450.5" stroke="black" stroke-width="3"/> 
  <g transform="flipX(76.3091) flipX(616.809) rotate(90 132.155 29.823) rotate(360 1.4013e-045 2.31881e-039) flipY(911) rotate(180 1212.44 532.643)">
    <polygon points="673.293,4262.36 698.296,4262.36 686.293,4287.36 686.293,4287.36" fill="black" stroke="black" stroke-width="1" transform="rotate(180 1279.17 367.814)"/> 
  </g>
  <image x="225" y="489" width="175" height="25" xlink:href="DS_ana_tenzor.svg">
    <title>00SAE68CT007</title>
    <rt:dyn type="ShowFrame" mode="constant" value="true"/> 
    <rt:dyn type="X" mode="constant" value="&quot;T&quot;"/> 
    <rt:dyn type="FKKS" mode="constant" value="&quot;00SAE68CT007&quot;"/> 
    <rt:dyn type="ValueToTheRight" mode="constant" value="false"/> 
    <rt:dyn type="Color_Readings" mode="constant" value="true"/> 
  </image>
  <image x="458.727" y="329.114" width="175" height="25" xlink:href="DS_ana_tenzor.svg">
    <title>00SAE68CP005</title>
    <rt:dyn type="ShowFrame" mode="constant" value="true"/> 
    <rt:dyn type="X" mode="constant" value="&quot;P&quot;"/> 
    <rt:dyn type="FKKS" mode="constant" value="&quot;00SAE68CP005&quot;"/> 
    <rt:dyn type="ValueToTheRight" mode="constant" value="false"/> 
    <rt:dyn type="Color_Readings" mode="constant" value="true"/> 
  </image>
  <image x="460" y="653" width="175" height="25" xlink:href="DS_ana_tenzor.svg">
    <title>00SAE68CP006</title>
    <rt:dyn type="ShowFrame" mode="constant" value="true"/> 
    <rt:dyn type="X" mode="constant" value="&quot;P&quot;"/> 
    <rt:dyn type="FKKS" mode="constant" value="&quot;00SAE68CP006&quot;"/> 
    <rt:dyn type="ValueToTheRight" mode="constant" value="false"/> 
    <rt:dyn type="Color_Readings" mode="constant" value="true"/> 
  </image>
  <image x="988.5" y="309" width="175" height="25" xlink:href="DS_ana_tenzor.svg">
    <title>00SAE68CP011</title>
    <rt:dyn type="ShowFrame" mode="constant" value="true"/> 
    <rt:dyn type="X" mode="constant" value="&quot;P&quot;"/> 
    <rt:dyn type="FKKS" mode="constant" value="&quot;00SAE68CP011&quot;"/> 
    <rt:dyn type="ValueToTheRight" mode="constant" value="false"/> 
    <rt:dyn type="Color_Readings" mode="constant" value="true"/> 
  </image>
  <image x="988.5" y="354" width="175" height="25" xlink:href="DS_ana_tenzor.svg">
    <title>00SAE68CT008</title>
    <rt:dyn type="ShowFrame" mode="constant" value="true"/> 
    <rt:dyn type="X" mode="constant" value="&quot;T&quot;"/> 
    <rt:dyn type="FKKS" mode="constant" value="&quot;00SAE68CT008&quot;"/> 
    <rt:dyn type="ValueToTheRight" mode="constant" value="false"/> 
    <rt:dyn type="Color_Readings" mode="constant" value="true"/> 
  </image>
  <image x="991" y="639" width="175" height="25" xlink:href="DS_ana_tenzor.svg">
    <title>00SAE68CT009</title>
    <rt:dyn type="ShowFrame" mode="constant" value="true"/> 
    <rt:dyn type="X" mode="constant" value="&quot;T&quot;"/> 
    <rt:dyn type="FKKS" mode="constant" value="&quot;00SAE68CT009&quot;"/> 
    <rt:dyn type="ValueToTheRight" mode="constant" value="false"/> 
    <rt:dyn type="Color_Readings" mode="constant" value="true"/> 
  </image>
  <image x="991" y="684" width="175" height="25" xlink:href="DS_ana_tenzor.svg">
    <title>00SAE68CP012</title>
    <rt:dyn type="ShowFrame" mode="constant" value="true"/> 
    <rt:dyn type="X" mode="constant" value="&quot;P&quot;"/> 
    <rt:dyn type="FKKS" mode="constant" value="&quot;00SAE68CP012&quot;"/> 
    <rt:dyn type="ValueToTheRight" mode="constant" value="false"/> 
    <rt:dyn type="Color_Readings" mode="constant" value="true"/> 
  </image>
  <text x="644.144" y="422.947" fill="black" font-size="15">00SAE68AA005</text>
  <text x="634.083" y="747.499" fill="black" font-size="15">00SAE68AA006</text>
  <text x="939.545" y="299.47" fill="black" font-size="15" text-anchor="middle">00SAE68<tspan x="939.545" dy="15">AN005</tspan>
  </text>
  <image x="749.727" y="296.114" width="130" height="130" xlink:href="ps_TempValve.svg" transform="rotate(270 6.10352e-005 0)">
    <title>00SAE68AH005</title>
    <rt:dyn type="KKS" mode="constant" value="&quot;00SAE68AH005&quot;"/> 
    <rt:dyn type="Operate" mode="constant" value="true"/> 
    <rt:dyn type="TYPE" mode="constant" value="&quot;TYPE2&quot;"/> 
  </image>
  <text x="939" y="625" fill="black" font-size="15" text-anchor="middle">00SAE68<tspan x="939" dy="15">AN006</tspan>
  </text>
  <image x="744" y="621" width="130" height="130" xlink:href="ps_TempValve.svg" transform="rotate(270 0 -6.10352e-005)">
    <title>00SAE68AH006</title>
    <rt:dyn type="KKS" mode="constant" value="&quot;00SAE68AH006&quot;"/> 
    <rt:dyn type="Operate" mode="constant" value="true"/> 
    <rt:dyn type="TYPE" mode="constant" value="&quot;TYPE2&quot;"/> 
  </image>
  <text x="753.727" y="447.614" fill="black" font-size="15">00SAE68AH005</text>
  <text x="750" y="769.5" fill="black" font-size="15">00SAE68AH006</text>
  <text x="1533.48" y="300.985" fill="black" font-size="15" text-anchor="middle">00SAE69<tspan x="1533.48" dy="15">AN005</tspan>
  </text>
  <text x="1533.5" y="500" fill="black" font-size="15" text-anchor="middle">00SAE69<tspan x="1533.5" dy="15">AN006</tspan>
  </text>
  <image x="1612" y="314" width="175" height="25" xlink:href="DS_ana_tenzor.svg">
    <title>00SAE69CP005</title>
    <rt:dyn type="ShowFrame" mode="constant" value="true"/> 
    <rt:dyn type="X" mode="constant" value="&quot;P&quot;"/> 
    <rt:dyn type="FKKS" mode="constant" value="&quot;00SAE69CP005&quot;"/> 
    <rt:dyn type="ValueToTheRight" mode="constant" value="false"/> 
    <rt:dyn type="Color_Readings" mode="constant" value="true"/> 
  </image>
  <image x="1617" y="513" width="175" height="25" xlink:href="DS_ana_tenzor.svg">
    <title>00SAE69CP006</title>
    <rt:dyn type="ShowFrame" mode="constant" value="true"/> 
    <rt:dyn type="X" mode="constant" value="&quot;P&quot;"/> 
    <rt:dyn type="FKKS" mode="constant" value="&quot;00SAE69CP006&quot;"/> 
    <rt:dyn type="ValueToTheRight" mode="constant" value="false"/> 
    <rt:dyn type="Color_Readings" mode="constant" value="true"/> 
  </image>
  <text x="1161" y="238.5" fill="black" font-size="15" text-anchor="middle">â 02UBZ05R008, 02UBZ05R009</text>
  <text x="1450" y="238.5" fill="black" font-size="15" text-anchor="middle">èç 02UBZ05R008, 02UBZ05R009</text>
  <text x="1175" y="875.5" fill="black" font-size="15" text-anchor="middle">â 01UBZ05R008, 01UBZ05R009</text>
  <text x="1464" y="875.5" fill="black" font-size="15" text-anchor="middle">èç 01UBZ05R008, 01UBZ05R009</text>
  <text x="1269" y="502.5" fill="black" font-size="15">01UBZ<tspan x="1269" dy="15">08R005</tspan>
  </text>
  <line x1="1175" y1="500" x2="1250" y2="500" stroke="black" stroke-width="3"/> 
  <line x1="1350" y1="500" x2="1450" y2="500" stroke="black" stroke-width="3"/> 
  <image x="830.714" y="485.714" width="181.818" height="24.2424" xlink:href="bitwise_tablo_4bits.svg">
    <title>00SAE69AN001002</title>
    <rt:dyn type="PointID_1" mode="constant" value="&quot;00SAE68AN005006_Z0 0&quot;"/> 
    <rt:dyn type="Text_0001" mode="constant" value="&quot;ÀÂÐ ÍÅ ÃÎÒÎÂ&quot;"/> 
    <rt:dyn type="Text_0000" mode="constant" value="&quot;ÀÂÐ ÄÈÑÒ&quot;"/> 
    <rt:dyn type="Color_0010" mode="constant" value="&quot;Col_Yellow&quot;"/> 
    <rt:dyn type="Color_0001" mode="constant" value="&quot;Col_Green&quot;"/> 
    <rt:dyn type="Text_0010" mode="constant" value="&quot;ÀÂÐ ÃÎÒÎÂ&quot;"/> 
    <rt:dyn type="PointID_2" mode="constant" value="&quot;00SAE68AN005006_Z0 1&quot;"/> 
    <rt:dyn type="PointID_3" mode="constant" value="&quot;00SAE68AN005006_Z0 2&quot;"/> 
    <rt:dyn type="PointID_4" mode="constant" value="&quot;00SAE68AN005006_Z0 3&quot;"/> 
    <rt:dyn type="Text_0100" mode="constant" value="&quot;ÀÂÐ ÑÐÀÁÎÒÀË&quot;"/> 
    <rt:dyn type="Color_0100" mode="constant" value="&quot;Col_Red&quot;"/> 
    <rt:dyn type="Color_0000" mode="constant" value="&quot;Col_Grey3&quot;"/> 
  </image>
  <image x="1468.18" y="450" width="181.818" height="24.2424" xlink:href="bitwise_tablo_4bits.svg">
    <title>00SAE69AN005006</title>
    <rt:dyn type="PointID_1" mode="constant" value="&quot;00SAE69AN005006_Z0 0&quot;"/> 
    <rt:dyn type="Text_0001" mode="constant" value="&quot;ÀÂÐ ÍÅ ÃÎÒÎÂ&quot;"/> 
    <rt:dyn type="Text_0000" mode="constant" value="&quot;ÀÂÐ ÄÈÑÒ&quot;"/> 
    <rt:dyn type="Color_0010" mode="constant" value="&quot;Col_Yellow&quot;"/> 
    <rt:dyn type="Color_0001" mode="constant" value="&quot;Col_Green&quot;"/> 
    <rt:dyn type="Text_0010" mode="constant" value="&quot;ÀÂÐ ÃÎÒÎÂ&quot;"/> 
    <rt:dyn type="PointID_2" mode="constant" value="&quot;00SAE69AN005006_Z0 1&quot;"/> 
    <rt:dyn type="PointID_3" mode="constant" value="&quot;00SAE69AN005006_Z0 2&quot;"/> 
    <rt:dyn type="PointID_4" mode="constant" value="&quot;00SAE69AN005006_Z0 3&quot;"/> 
    <rt:dyn type="Text_0100" mode="constant" value="&quot;ÀÂÐ ÑÐÀÁÎÒÀË&quot;"/> 
    <rt:dyn type="Color_0100" mode="constant" value="&quot;Col_Red&quot;"/> 
    <rt:dyn type="Color_0000" mode="constant" value="&quot;Col_Grey3&quot;"/> 
  </image>
  <text x="25" y="25" fill="black" font-size="15" text-anchor="start">01UBZ-02UBZ 00CXV59 05R008, 05R009</text>
  <polyline points="960.758,340.091 1175.91,338.576 1177.42,668.879 956.212,668.879" fill="none" stroke="black" stroke-width="3"/> 
  <image x="652.666" y="664.333" width="70" height="45" xlink:href="DS_pivot_valve_tenzor.svg">
    <title>00SAE68AA006</title>
    <rt:dyn type="KKS" mode="constant" value="&quot;00SAE68AA006&quot;"/> 
    <rt:dyn type="Operate" mode="constant" value="true"/> 
    <rt:dyn type="DATA_NARY" mode="constant" value="&quot;TYPE2&quot;"/> 
    <rt:dyn type="Has_Stop_Button" mode="constant" value="true"/> 
  </image>
  <image x="662.727" y="339.781" width="70" height="45" xlink:href="DS_pivot_valve_tenzor.svg">
    <title>00SAE68AA005</title>
    <rt:dyn type="KKS" mode="constant" value="&quot;00SAE68AA005&quot;"/> 
    <rt:dyn type="Operate" mode="constant" value="true"/> 
    <rt:dyn type="DATA_NARY" mode="constant" value="&quot;TYPE2&quot;"/> 
    <rt:dyn type="Has_Stop_Button" mode="constant" value="true"/> 
  </image>
  <polyline points="1550.15,346.121 1800.67,346.121 1800.67,544.606 1542.58,544.606" fill="none" stroke="black" stroke-width="3"/> 
  <polyline points="1831.45,359.697 1923.89,359.697 1923.89,559.697 1829.94,559.697" fill="none" stroke="black" stroke-width="3" transform="flipX(1687.53)"/> 
  <image x="1498.5" y="325" width="70" height="70" xlink:href="DS_motor_tenzor.svg" transform="rotate(0 0.00012207 0)">
    <title>00SAE69AN005</title>
    <rt:dyn type="DeviceType" mode="constant" value="&quot;fan&quot;"/> 
    <rt:dyn type="Operate" mode="constant" value="true"/> 
    <rt:dyn type="KKS" mode="constant" value="&quot;00SAE69AN005&quot;"/> 
    <rt:dyn type="DATA_NARY" mode="constant" value="&quot;TYPE2&quot;"/> 
  </image>
  <image x="1498.5" y="525" width="70" height="70" xlink:href="DS_motor_tenzor.svg" transform="rotate(0 0.00012207 0)">
    <title>00SAE69AN006</title>
    <rt:dyn type="DeviceType" mode="constant" value="&quot;fan&quot;"/> 
    <rt:dyn type="Operate" mode="constant" value="true"/> 
    <rt:dyn type="KKS" mode="constant" value="&quot;00SAE69AN006&quot;"/> 
    <rt:dyn type="DATA_NARY" mode="constant" value="&quot;TYPE2&quot;"/> 
  </image>
  <image x="904" y="648" width="70" height="70" xlink:href="DS_motor_tenzor.svg" transform="rotate(0 0.00012207 0)">
    <title>00SAE68AN006</title>
    <rt:dyn type="DeviceType" mode="constant" value="&quot;fan&quot;"/> 
    <rt:dyn type="Operate" mode="constant" value="true"/> 
    <rt:dyn type="KKS" mode="constant" value="&quot;00SAE68AN006&quot;"/> 
    <rt:dyn type="DATA_NARY" mode="constant" value="&quot;TYPE2&quot;"/> 
  </image>
  <rect x="73.549" y="144.03" width="285.364" height="85.3637" rx="0" ry="0" fill="Col_BGSand" stroke="black" stroke-width="2"/> 
  <text x="93.231" y="168.121" fill="black" font-size="15">Ðåæèì ðàáîòû 05R008, 05R009</text>
  <image x="80.486" y="191.515" width="181.818" height="24.2424" xlink:href="bitwise_tablo_4bits.svg">
    <title>05R00805R009_XK92</title>
    <rt:dyn type="PointID_1" mode="constant" value="&quot;05R00805R009_XK92&quot;"/> 
    <rt:dyn type="Text_0000" mode="constant" value="&quot;ÀÂÒÎÌÀÒÈ×ÅÑÊÈÉ&quot;"/> 
    <rt:dyn type="Color_0001" mode="constant" value="&quot;Col_Green&quot;"/> 
    <rt:dyn type="Text_0001" mode="constant" value="&quot;ÄÈÑÒÀÍÖÈÎÍÍÛÉ&quot;"/> 
    <rt:dyn type="Color_0000" mode="constant" value="&quot;Col_Green&quot;"/> 
  </image>
  <image x="279.216" y="185.939" width="60" height="30" xlink:href="ps_tenzor_system.svg">
    <title>05R00805R009</title>
    <rt:dyn type="KKS" mode="constant" value="&quot;05R00805R009&quot;"/> 
  </image>
  <image x="904" y="322" width="70" height="70" xlink:href="DS_motor_tenzor.svg" transform="rotate(0 0.00012207 0)">
    <title>00SAE68AN005</title>
    <rt:dyn type="DeviceType" mode="constant" value="&quot;fan&quot;"/> 
    <rt:dyn type="Operate" mode="constant" value="true"/> 
    <rt:dyn type="KKS" mode="constant" value="&quot;00SAE68AN005&quot;"/> 
    <rt:dyn type="DATA_NARY" mode="constant" value="&quot;TYPE2&quot;"/> 
  </image>
  <image x="875" y="400" width="160" height="30" xlink:href="ps_tenzor_m0.svg">
    <title>00SAE68AN005</title>
    <rt:dyn type="KKS" mode="constant" value="&quot;00SAE68AN005&quot;"/> 
  </image>
  <image x="875" y="725" width="160" height="30" xlink:href="ps_tenzor_m0.svg">
    <title>00SAE68AN006</title>
    <rt:dyn type="KKS" mode="constant" value="&quot;00SAE68AN006&quot;"/> 
  </image>
  <image x="1475" y="400" width="160" height="30" xlink:href="ps_tenzor_m0.svg">
    <title>00SAE69AN005</title>
    <rt:dyn type="KKS" mode="constant" value="&quot;00SAE69AN005&quot;"/> 
  </image>
  <image x="1475" y="600" width="160" height="30" xlink:href="ps_tenzor_m0.svg">
    <title>00SAE69AN006</title>
    <rt:dyn type="KKS" mode="constant" value="&quot;00SAE69AN006&quot;"/> 
  </image>
</svg>
