<?xml  version="1.0" encoding="windows-1251"?>
<svg color="Col_BGSand" xmlns="http://www.w3.org/2000/svg" xmlns:rt="http://www.rts.co.at/2001/XMLSchema/RtSvgPL" xmlns:xlink="http://www.w3.org/1999/xlink" xmlns:xsi="http://www.w3.org/2001/XMLSchema-instance" xsi:schemaLocation="http://www.w3.org/2000/svg C:\RTS\RtSvg\XML\SVG.xsd" viewBox="0 0 1914 1000" width="1914" height="1000" id="00bch" stroke="black">
  <rt:model modelversion="7.2.0.24" comment="Создано VNIIAES-ASUTP\ermolova 01.07.2014 12:20:46" revision="2.0"/> 
  <line x1="99" y1="714.796" x2="99" y2="775" stroke="black" stroke-width="2"/> 
  <line x1="125" y1="350" x2="125" y2="425" stroke="black" stroke-width="2"/> 
  <line x1="1025" y1="425" x2="1725" y2="425" stroke="black" stroke-width="3"/> 
  <line x1="125" y1="75" x2="125" y2="138.499" stroke="black" stroke-width="2"/> 
  <text x="183.612" y="150" fill="black" font-size="15" text-anchor="middle">00BCF08</text>
  <text x="885.333" y="38.3333" fill="black" font-size="26" text-anchor="middle">Здание 05UYP</text>
  <image x="175" y="81" width="175" height="25" xlink:href="DS_ana.svg">
    <title>00BCF00GT601_XQ10</title>
    <rt:dyn type="FName" mode="constant" value="true"/> 
    <rt:dyn type="ShowFrame" mode="constant" value="true"/> 
    <rt:dyn type="Color_Readings" mode="constant" value="true"/> 
    <rt:dyn type="X" mode="constant" value="&quot;U&quot;"/> 
    <rt:dyn type="FKKS" mode="constant" value="&quot;00BCF00GT601_XQ10&quot;"/> 
    <rt:dyn type="ValueToTheRight" mode="constant" value="false"/> 
  </image>
  <line x1="75" y1="75" x2="175" y2="75" stroke="black" stroke-width="3"/> 
  <text x="213.633" y="75" fill="black" font-size="15" text-anchor="middle">00BCF</text>
  <line x1="125" y1="175" x2="125" y2="315.816" stroke="black" stroke-width="2"/> 
  <image x="73.75" y="128.75" width="95" height="57.5" xlink:href="DS_breaker.svg" transform="rotate(270 17.5 -3.75)">
    <title>00BCF08GS001</title>
    <rt:dyn type="Operate" mode="constant" value="true"/> 
    <rt:dyn type="HasTray" mode="constant" value="true"/> 
    <rt:dyn type="KKS" mode="constant" value="&quot;00BCF08GS001&quot;"/> 
    <rt:dyn type="DATA_NARY" mode="constant" value="&quot;TYPE1&quot;"/> 
  </image>
  <image x="73.75" y="303.75" width="95" height="57.5" xlink:href="DS_breaker.svg" transform="rotate(270 17.5 -3.75)">
    <title>00BCH18GS001</title>
    <rt:dyn type="Operate" mode="constant" value="true"/> 
    <rt:dyn type="HasTray" mode="constant" value="true"/> 
    <rt:dyn type="KKS" mode="constant" value="&quot;00BCG18GS001&quot;"/> 
    <rt:dyn type="DATA_NARY" mode="constant" value="&quot;TYPE1&quot;"/> 
  </image>
  <text x="182.49" y="336.378" fill="black" font-size="15" text-anchor="middle">00BCM01</text>
  <text x="1758.53" y="432.398" fill="black" font-size="15" text-anchor="middle">00BCN</text>
  <line x1="1650.22" y1="361.051" x2="1650" y2="425" stroke="black" stroke-width="2"/> 
  <line x1="1650" y1="75" x2="1650.22" y2="137.815" stroke="black" stroke-width="2"/> 
  <image x="1701.22" y="80.3163" width="175" height="25" xlink:href="DS_ana.svg">
    <title>00BCH00GT601_XQ10</title>
    <rt:dyn type="FName" mode="constant" value="true"/> 
    <rt:dyn type="ShowFrame" mode="constant" value="true"/> 
    <rt:dyn type="Color_Readings" mode="constant" value="true"/> 
    <rt:dyn type="X" mode="constant" value="&quot;U&quot;"/> 
    <rt:dyn type="FKKS" mode="constant" value="&quot;00BCH00GT601_XQ10&quot;"/> 
    <rt:dyn type="ValueToTheRight" mode="constant" value="false"/> 
  </image>
  <line x1="1600.22" y1="74.3163" x2="1700.22" y2="74.3163" stroke="black" stroke-width="3"/> 
  <text x="1738.86" y="74.3163" fill="black" font-size="15" text-anchor="middle">00BCH</text>
  <line x1="1650.22" y1="174.316" x2="1650.22" y2="324.316" stroke="black" stroke-width="2"/> 
  <line x1="99" y1="523.978" x2="99" y2="675" stroke="black" stroke-width="2"/> 
  <line x1="99" y1="425" x2="99" y2="491.837" stroke="black" stroke-width="2"/> 
  <image x="48" y="478.75" width="95" height="57.5" xlink:href="DS_breaker.svg" transform="rotate(270 17.5 -3.75)">
    <title>00BKT51GS001</title>
    <rt:dyn type="Operate" mode="constant" value="true"/> 
    <rt:dyn type="HasTray" mode="constant" value="true"/> 
    <rt:dyn type="KKS" mode="constant" value="&quot;00BKT51GS001&quot;"/> 
    <rt:dyn type="DATA_NARY" mode="constant" value="&quot;TYPE1&quot;"/> 
  </image>
  <g>
    <circle cx="1238.78" cy="302.406" r="26.6666" fill="Col_Grey2" stroke="none" stroke-width="2" transform="flipY() translate(0 -828) translate(-830.09 15.1779) scale(0.75 0.75)"/> 
    <circle cx="1238.79" cy="259.733" r="26.6666" fill="Col_Grey2" stroke="black" stroke-width="2" transform="flipY() translate(0 -828) translate(-830.09 15.1779) scale(0.75 0.75)"/> 
    <line x1="98.9851" y1="627.02" x2="98.9851" y2="616.02" stroke="black" stroke-width="2"/> 
    <line x1="98.9851" y1="617.02" x2="106.485" y2="610.02" stroke="black" stroke-width="2"/> 
    <line x1="1485.88" y1="617.02" x2="1493.38" y2="610.02" stroke="black" stroke-width="2" transform="flipX(792.432)"/> 
    <circle cx="1238.78" cy="302.406" r="26.6666" fill="none" stroke="black" stroke-width="2" transform="flipY() translate(0 -828) translate(-830.09 15.1779) scale(0.75 0.75)"/> 
    <polygon points="89.5451,592 98.9451,575 108.345,592.1" fill="none" stroke="black" stroke-width="2"/> 
  </g>
  <text x="146.674" y="513" fill="black" font-size="15" text-anchor="middle">00BKT51</text>
  <text x="163.143" y="700" fill="black" font-size="15" text-anchor="middle">00BKV02</text>
  <image x="68.7347" y="250" width="175" height="25" xlink:href="DS_ana.svg">
    <title>00BCM01GS001_XQ01</title>
    <rt:dyn type="FName" mode="constant" value="true"/> 
    <rt:dyn type="ShowFrame" mode="constant" value="true"/> 
    <rt:dyn type="Color_Readings" mode="constant" value="true"/> 
    <rt:dyn type="X" mode="constant" value="&quot;I&quot;"/> 
    <rt:dyn type="FKKS" mode="constant" value="&quot;00BCM01GS001_XQ01&quot;"/> 
    <rt:dyn type="ValueToTheRight" mode="constant" value="false"/> 
  </image>
  <image x="1600" y="250" width="175" height="25" xlink:href="DS_ana.svg">
    <title>00BCN01GS001_XQ01</title>
    <rt:dyn type="FName" mode="constant" value="true"/> 
    <rt:dyn type="ShowFrame" mode="constant" value="true"/> 
    <rt:dyn type="Color_Readings" mode="constant" value="true"/> 
    <rt:dyn type="X" mode="constant" value="&quot;I&quot;"/> 
    <rt:dyn type="FKKS" mode="constant" value="&quot;00BCN01GS001_XQ01&quot;"/> 
    <rt:dyn type="ValueToTheRight" mode="constant" value="false"/> 
  </image>
  <image x="47.75" y="667.5" width="95" height="57.5" xlink:href="DS_breaker.svg" transform="rotate(270 17.5 -3.75)">
    <title>00BKV02GS001</title>
    <rt:dyn type="Operate" mode="constant" value="true"/> 
    <rt:dyn type="HasTray" mode="constant" value="true"/> 
    <rt:dyn type="KKS" mode="constant" value="&quot;00BKV02GS001&quot;"/> 
    <rt:dyn type="DATA_NARY" mode="constant" value="&quot;TYPE1&quot;"/> 
  </image>
  <line x1="25" y1="775" x2="750" y2="775" stroke="black" stroke-width="3"/> 
  <text x="149" y="605.867" fill="black" font-size="15" text-anchor="middle">00BKT51</text>
  <line x1="25" y1="425" x2="725" y2="425" stroke="black" stroke-width="3"/> 
  <line x1="249" y1="525" x2="249" y2="575" stroke="black" stroke-width="2"/> 
  <line x1="249" y1="425" x2="249" y2="491.837" stroke="black" stroke-width="2"/> 
  <image x="197.75" y="478.75" width="95" height="57.5" xlink:href="DS_breaker.svg" transform="rotate(270 17.5 -3.75)">
    <title>00BKT53GS001</title>
    <rt:dyn type="Operate" mode="constant" value="true"/> 
    <rt:dyn type="HasTray" mode="constant" value="true"/> 
    <rt:dyn type="KKS" mode="constant" value="&quot;00BKT53GS001&quot;"/> 
    <rt:dyn type="DATA_NARY" mode="constant" value="&quot;TYPE1&quot;"/> 
  </image>
  <image x="287.143" y="624.585" width="75" height="25" xlink:href="obj_link.svg" transform="rotate(180 0 0) flipY(12.3617) rotate(90 37.3618 12.5)">
    <rt:dyn type="ModName" mode="constant" value="&quot;00UGA&quot;"/> 
  </image>
  <text x="249" y="664.031" fill="black" font-size="15" text-anchor="middle">00UGA</text>
  <text x="299" y="514.031" fill="black" font-size="15" text-anchor="middle">00BKT53</text>
  <line x1="399" y1="525" x2="399" y2="575" stroke="black" stroke-width="2"/> 
  <line x1="399" y1="425" x2="399" y2="491.837" stroke="black" stroke-width="2"/> 
  <image x="347.75" y="478.75" width="95" height="57.5" xlink:href="DS_breaker.svg" transform="rotate(270 17.5 -3.75)">
    <title>00GAC41AP001</title>
    <rt:dyn type="Operate" mode="constant" value="true"/> 
    <rt:dyn type="HasTray" mode="constant" value="true"/> 
    <rt:dyn type="KKS" mode="constant" value="&quot;00GAC41AP001&quot;"/> 
    <rt:dyn type="DATA_NARY" mode="constant" value="&quot;TYPE1&quot;"/> 
  </image>
  <text x="449" y="514.031" fill="black" font-size="15" text-anchor="middle">00BCM06</text>
  <g>
    <line x1="399" y1="575" x2="405.333" y2="564" stroke="black" stroke-width="2"/> 
    <line x1="458" y1="575" x2="464.333" y2="564" stroke="black" stroke-width="2" transform="flipX(428.5)"/> 
  </g>
  <text x="399" y="600" fill="black" font-size="15" text-anchor="middle">00GAC41<tspan x="399" dy="15">AP001</tspan>
  </text>
  <line x1="550.25" y1="525" x2="550.25" y2="575" stroke="black" stroke-width="2"/> 
  <line x1="550.25" y1="425" x2="550.25" y2="491.837" stroke="black" stroke-width="2"/> 
  <image x="499" y="478.75" width="95" height="57.5" xlink:href="DS_breaker.svg" transform="rotate(270 17.5 -3.75)">
    <title>00GAC42AP001</title>
    <rt:dyn type="Operate" mode="constant" value="true"/> 
    <rt:dyn type="HasTray" mode="constant" value="true"/> 
    <rt:dyn type="KKS" mode="constant" value="&quot;00GAC42AP001&quot;"/> 
    <rt:dyn type="DATA_NARY" mode="constant" value="&quot;TYPE1&quot;"/> 
  </image>
  <g>
    <line x1="550.25" y1="575" x2="556.583" y2="564" stroke="black" stroke-width="2"/> 
    <line x1="306.75" y1="575" x2="313.083" y2="564" stroke="black" stroke-width="2" transform="flipX(428.5)"/> 
  </g>
  <g>
    <circle cx="1981.56" cy="285.097" r="26.6666" fill="Col_Grey2" stroke="none" stroke-width="2" transform="flipY() translate(0 -828) translate(-830.09 15.1779) scale(0.75 0.75)"/> 
    <circle cx="2026.9" cy="285.097" r="26.6666" fill="Col_Grey2" stroke="none" stroke-width="2" transform="flipY() translate(0 -828) translate(-830.09 15.1779) scale(0.75 0.75)"/> 
    <circle cx="2005.57" cy="325.097" r="26.6666" fill="Col_Grey2" stroke="black" stroke-width="2" transform="flipY() translate(0 -828) translate(-830.09 15.1779) scale(0.75 0.75)"/> 
    <circle cx="1981.56" cy="285.097" r="26.6666" fill="none" stroke="black" stroke-width="2" transform="flipY() translate(0 -828) translate(-830.09 15.1779) scale(0.75 0.75)"/> 
    <line x1="674" y1="578" x2="674" y2="567" stroke="black" stroke-width="2"/> 
    <line x1="674" y1="568" x2="681.5" y2="561" stroke="black" stroke-width="2"/> 
    <line x1="910.85" y1="568" x2="918.35" y2="561" stroke="black" stroke-width="2" transform="flipX(792.432)"/> 
    <circle cx="2026.9" cy="285.097" r="26.6666" fill="none" stroke="black" stroke-width="2" transform="flipY() translate(0 -828) translate(-830.09 15.1779) scale(0.75 0.75)"/> 
    <polygon points="680.56,604.98 689.96,587.98 699.36,605.08" fill="none" stroke="black" stroke-width="2"/> 
    <g>
      <line x1="656.86" y1="611" x2="656.86" y2="600" stroke="black" stroke-width="2"/> 
      <line x1="656.86" y1="601" x2="664.36" y2="594" stroke="black" stroke-width="2"/> 
      <line x1="927.994" y1="601" x2="935.494" y2="594" stroke="black" stroke-width="2" transform="flipX(792.432)"/> 
    </g>
    <rect x="686.43" y="585.314" width="14.6667" height="8.99957" rx="0" ry="0" fill="Col_Grey2" stroke="none"/> 
    <rect x="684.1" y="589.647" width="8.00342" height="4.99939" rx="0" ry="0" fill="Col_Grey2" stroke="none"/> 
  </g>
  <line x1="674" y1="549" x2="674" y2="461.333" stroke="black" stroke-width="2"/> 
  <line x1="674" y1="449" x2="674" y2="424" stroke="black" stroke-width="2"/> 
  <rect x="666" y="490.667" width="15" height="25" rx="0" ry="0" fill="none" stroke="black" stroke-width="2"/> 
  <g>
    <polygon points="-19.046,541.87 -26.69,546.97 -26.69,552.06 -19.046,546.97 -11.402,552.06 -11.402,546.97 -19.046,541.87" fill="black" stroke="black" stroke-width="1" transform="flipY() translate(0 -828) translate(693.046 912.06) matrix(1 0 0 -1 0 0)"/> 
    <polygon points="-19.046,533.06 -26.69,538.159 -26.69,543.25 -19.046,538.159 -11.402,543.25 -11.402,538.159 -19.046,533.06" fill="black" stroke="black" stroke-width="1" transform="flipY() translate(0 -828) translate(693.046 912.06) matrix(1 0 0 -1 0 0)"/> 
  </g>
  <image x="725" y="435.204" width="175" height="25" xlink:href="DS_ana.svg">
    <title>00BCM02GT610_XQ10</title>
    <rt:dyn type="FName" mode="constant" value="true"/> 
    <rt:dyn type="ShowFrame" mode="constant" value="true"/> 
    <rt:dyn type="Color_Readings" mode="constant" value="true"/> 
    <rt:dyn type="X" mode="constant" value="&quot;U&quot;"/> 
    <rt:dyn type="FKKS" mode="constant" value="&quot;00BCM02GT610_XQ10&quot;"/> 
    <rt:dyn type="ValueToTheRight" mode="constant" value="false"/> 
  </image>
  <text x="753.102" y="429" fill="black" font-size="15" text-anchor="middle">00BCM</text>
  <line x1="199" y1="925" x2="199" y2="975" stroke="black" stroke-width="2"/> 
  <line x1="199" y1="775" x2="199" y2="888.265" stroke="black" stroke-width="2"/> 
  <image x="147.75" y="878.75" width="95" height="57.5" xlink:href="DS_breaker.svg" transform="rotate(270 17.5 -3.75)">
    <title>00BKV03GS022</title>
    <rt:dyn type="Operate" mode="constant" value="true"/> 
    <rt:dyn type="HasTray" mode="constant" value="true"/> 
    <rt:dyn type="KKS" mode="constant" value="&quot;00BKV03GS022&quot;"/> 
    <rt:dyn type="DATA_NARY" mode="constant" value="&quot;TYPE1&quot;"/> 
  </image>
  <line x1="174" y1="975" x2="224" y2="975" stroke="black" stroke-width="3"/> 
  <text x="249" y="911.929" fill="black" font-size="15" text-anchor="middle">00BKV03</text>
  <line x1="300" y1="864.796" x2="300" y2="975" stroke="black" stroke-width="2"/> 
  <line x1="300" y1="775" x2="300" y2="825" stroke="black" stroke-width="2"/> 
  <image x="248.75" y="817.5" width="95" height="57.5" xlink:href="DS_breaker.svg" transform="rotate(270 17.5 -3.75)">
    <title>00BKV04GS010</title>
    <rt:dyn type="Operate" mode="constant" value="true"/> 
    <rt:dyn type="HasTray" mode="constant" value="true"/> 
    <rt:dyn type="KKS" mode="constant" value="&quot;00BKV04GS010&quot;"/> 
    <rt:dyn type="DATA_NARY" mode="constant" value="&quot;TYPE1&quot;"/> 
  </image>
  <line x1="275" y1="975" x2="325" y2="975" stroke="black" stroke-width="3"/> 
  <text x="351.25" y="850" fill="black" font-size="15" text-anchor="middle">00BKV04</text>
  <line x1="600.25" y1="925" x2="600.25" y2="975" stroke="black" stroke-width="2"/> 
  <line x1="600.25" y1="775" x2="600.25" y2="888.265" stroke="black" stroke-width="2"/> 
  <image x="549" y="878.75" width="95" height="57.5" xlink:href="DS_breaker.svg" transform="rotate(270 17.5 -3.75)">
    <title>00BKV04GS062</title>
    <rt:dyn type="Operate" mode="constant" value="true"/> 
    <rt:dyn type="HasTray" mode="constant" value="true"/> 
    <rt:dyn type="KKS" mode="constant" value="&quot;00BKV04GS062&quot;"/> 
    <rt:dyn type="DATA_NARY" mode="constant" value="&quot;TYPE1&quot;"/> 
  </image>
  <line x1="575.25" y1="975" x2="625.25" y2="975" stroke="black" stroke-width="3"/> 
  <text x="650.25" y="911.929" fill="black" font-size="15" text-anchor="middle">00BKV04</text>
  <line x1="701.25" y1="864.796" x2="701.25" y2="975" stroke="black" stroke-width="2"/> 
  <line x1="701.25" y1="775" x2="701.25" y2="825" stroke="black" stroke-width="2"/> 
  <image x="650" y="817.5" width="95" height="57.5" xlink:href="DS_breaker.svg" transform="rotate(270 17.5 -3.75)">
    <title>00BKV05GS001</title>
    <rt:dyn type="Operate" mode="constant" value="true"/> 
    <rt:dyn type="HasTray" mode="constant" value="true"/> 
    <rt:dyn type="KKS" mode="constant" value="&quot;00BKV05GS001&quot;"/> 
    <rt:dyn type="DATA_NARY" mode="constant" value="&quot;TYPE1&quot;"/> 
  </image>
  <text x="752.5" y="850" fill="black" font-size="15" text-anchor="middle">00BKV05</text>
  <line x1="99" y1="864.796" x2="99" y2="975" stroke="black" stroke-width="2"/> 
  <line x1="99" y1="775" x2="99" y2="825" stroke="black" stroke-width="2"/> 
  <image x="47.75" y="817.5" width="95" height="57.5" xlink:href="DS_breaker.svg" transform="rotate(270 17.5 -3.75)">
    <title>00BKV03GS010</title>
    <rt:dyn type="Operate" mode="constant" value="true"/> 
    <rt:dyn type="HasTray" mode="constant" value="true"/> 
    <rt:dyn type="KKS" mode="constant" value="&quot;00BKV03GS010&quot;"/> 
    <rt:dyn type="DATA_NARY" mode="constant" value="&quot;TYPE1&quot;"/> 
  </image>
  <line x1="74" y1="975" x2="124" y2="975" stroke="black" stroke-width="3"/> 
  <text x="150.25" y="850" fill="black" font-size="15" text-anchor="middle">00BKV03</text>
  <line x1="399" y1="925" x2="399" y2="975" stroke="black" stroke-width="2"/> 
  <line x1="399" y1="775" x2="399" y2="888.265" stroke="black" stroke-width="2"/> 
  <image x="347.75" y="878.75" width="95" height="57.5" xlink:href="DS_breaker.svg" transform="rotate(270 17.5 -3.75)">
    <title>00BKV04GS032</title>
    <rt:dyn type="Operate" mode="constant" value="true"/> 
    <rt:dyn type="HasTray" mode="constant" value="true"/> 
    <rt:dyn type="KKS" mode="constant" value="&quot;00BKV04GS032&quot;"/> 
    <rt:dyn type="DATA_NARY" mode="constant" value="&quot;TYPE1&quot;"/> 
  </image>
  <line x1="374" y1="975" x2="424" y2="975" stroke="black" stroke-width="3"/> 
  <text x="449" y="911.929" fill="black" font-size="15" text-anchor="middle">00BKV04</text>
  <line x1="500" y1="864.796" x2="500" y2="975" stroke="black" stroke-width="2"/> 
  <line x1="500" y1="775" x2="500" y2="825" stroke="black" stroke-width="2"/> 
  <image x="448.75" y="817.5" width="95" height="57.5" xlink:href="DS_breaker.svg" transform="rotate(270 17.5 -3.75)">
    <title>00BKV04GS052</title>
    <rt:dyn type="Operate" mode="constant" value="true"/> 
    <rt:dyn type="HasTray" mode="constant" value="true"/> 
    <rt:dyn type="KKS" mode="constant" value="&quot;00BKV04GS052&quot;"/> 
    <rt:dyn type="DATA_NARY" mode="constant" value="&quot;TYPE1&quot;"/> 
  </image>
  <line x1="475" y1="975" x2="525" y2="975" stroke="black" stroke-width="3"/> 
  <text x="551.25" y="850" fill="black" font-size="15" text-anchor="middle">00BKV04</text>
  <image x="750" y="787.245" width="175" height="25" xlink:href="DS_ana.svg">
    <title>00BKV00CE001_XQ20</title>
    <rt:dyn type="FName" mode="constant" value="true"/> 
    <rt:dyn type="ShowFrame" mode="constant" value="true"/> 
    <rt:dyn type="Color_Readings" mode="constant" value="true"/> 
    <rt:dyn type="X" mode="constant" value="&quot;U&quot;"/> 
    <rt:dyn type="FKKS" mode="constant" value="&quot;00BKV00CE001_XQ20&quot;"/> 
    <rt:dyn type="ValueToTheRight" mode="constant" value="false"/> 
  </image>
  <text x="785.592" y="781" fill="black" font-size="15" text-anchor="middle">00BKV</text>
  <text x="550" y="600" fill="black" font-size="15" text-anchor="middle">00GAC42<tspan x="550" dy="15">AP001</tspan>
  </text>
  <text x="600" y="512.949" fill="black" font-size="15" text-anchor="middle">00BCM08</text>
  <image x="720" y="925" width="55" height="30" xlink:href="DS_AVR.svg">
    <title>00BKV05CH001</title>
    <rt:dyn type="KKS" mode="constant" value="&quot;00BKV05CH001&quot;"/> 
    <rt:dyn type="DATA_NARY" mode="constant" value="&quot;TYPE1&quot;"/> 
    <rt:dyn type="Operate" mode="constant" value="true"/> 
  </image>
  <line x1="1000" y1="975" x2="700" y2="975" stroke="black" stroke-width="2"/> 
  <line x1="1000" y1="975" x2="1000" y2="775" stroke="black" stroke-width="2"/> 
  <line x1="1195.25" y1="926" x2="1195.25" y2="976" stroke="black" stroke-width="2"/> 
  <line x1="1195.25" y1="776" x2="1195.25" y2="889.265" stroke="black" stroke-width="2"/> 
  <image x="1144" y="879.75" width="95" height="57.5" xlink:href="DS_breaker.svg" transform="rotate(270 17.5 -3.75)">
    <title>00BKU03GS022</title>
    <rt:dyn type="Operate" mode="constant" value="true"/> 
    <rt:dyn type="HasTray" mode="constant" value="true"/> 
    <rt:dyn type="KKS" mode="constant" value="&quot;00BKU03GS022&quot;"/> 
    <rt:dyn type="DATA_NARY" mode="constant" value="&quot;TYPE1&quot;"/> 
  </image>
  <line x1="1170.25" y1="976" x2="1220.25" y2="976" stroke="black" stroke-width="3"/> 
  <text x="1245.25" y="912.929" fill="black" font-size="15" text-anchor="middle">00BKU03</text>
  <line x1="1319.25" y1="865.796" x2="1319.25" y2="976" stroke="black" stroke-width="2"/> 
  <line x1="1319.25" y1="776" x2="1319.25" y2="826" stroke="black" stroke-width="2"/> 
  <image x="1268" y="818.5" width="95" height="57.5" xlink:href="DS_breaker.svg" transform="rotate(270 17.5 -3.75)">
    <title>00BKU04GS010</title>
    <rt:dyn type="Operate" mode="constant" value="true"/> 
    <rt:dyn type="HasTray" mode="constant" value="true"/> 
    <rt:dyn type="KKS" mode="constant" value="&quot;00BKU04GS010&quot;"/> 
    <rt:dyn type="DATA_NARY" mode="constant" value="&quot;TYPE1&quot;"/> 
  </image>
  <line x1="1294.25" y1="976" x2="1344.25" y2="976" stroke="black" stroke-width="3"/> 
  <text x="1370.5" y="851" fill="black" font-size="15" text-anchor="middle">00BKU04</text>
  <line x1="1559.5" y1="926" x2="1559.5" y2="976" stroke="black" stroke-width="2"/> 
  <line x1="1560" y1="775" x2="1559.5" y2="889.265" stroke="black" stroke-width="2"/> 
  <image x="1508.25" y="879.75" width="95" height="57.5" xlink:href="DS_breaker.svg" transform="rotate(270 17.5 -3.75)">
    <title>00BKU04GS052</title>
    <rt:dyn type="Operate" mode="constant" value="true"/> 
    <rt:dyn type="HasTray" mode="constant" value="true"/> 
    <rt:dyn type="KKS" mode="constant" value="&quot;00BKU04GS052&quot;"/> 
    <rt:dyn type="DATA_NARY" mode="constant" value="&quot;TYPE1&quot;"/> 
  </image>
  <line x1="1534.5" y1="976" x2="1584.5" y2="976" stroke="black" stroke-width="3"/> 
  <text x="1609.5" y="912.929" fill="black" font-size="15" text-anchor="middle">00BKU04</text>
  <line x1="1674.5" y1="865.796" x2="1674.5" y2="976" stroke="black" stroke-width="2"/> 
  <line x1="1674.5" y1="776" x2="1674.5" y2="826" stroke="black" stroke-width="2"/> 
  <image x="1623.25" y="818.5" width="95" height="57.5" xlink:href="DS_breaker.svg" transform="rotate(270 17.5 -3.75)">
    <title>00BKU04GS062</title>
    <rt:dyn type="Operate" mode="constant" value="true"/> 
    <rt:dyn type="HasTray" mode="constant" value="true"/> 
    <rt:dyn type="KKS" mode="constant" value="&quot;00BKU04GS062&quot;"/> 
    <rt:dyn type="DATA_NARY" mode="constant" value="&quot;TYPE1&quot;"/> 
  </image>
  <text x="1725.75" y="851" fill="black" font-size="15" text-anchor="middle">00BKV04</text>
  <line x1="1073.25" y1="865.796" x2="1073.25" y2="976" stroke="black" stroke-width="2"/> 
  <line x1="1073.25" y1="776" x2="1073.25" y2="826" stroke="black" stroke-width="2"/> 
  <image x="1022" y="818.5" width="95" height="57.5" xlink:href="DS_breaker.svg" transform="rotate(270 17.5 -3.75)">
    <title>00BKU03GS010</title>
    <rt:dyn type="Operate" mode="constant" value="true"/> 
    <rt:dyn type="HasTray" mode="constant" value="true"/> 
    <rt:dyn type="KKS" mode="constant" value="&quot;00BKV03GS010&quot;"/> 
    <rt:dyn type="DATA_NARY" mode="constant" value="&quot;TYPE1&quot;"/> 
  </image>
  <line x1="1048.25" y1="976" x2="1098.25" y2="976" stroke="black" stroke-width="3"/> 
  <text x="1124.5" y="851" fill="black" font-size="15" text-anchor="middle">00BKU03</text>
  <line x1="1440.25" y1="926" x2="1440.25" y2="976" stroke="black" stroke-width="2"/> 
  <line x1="1440.25" y1="776" x2="1440.25" y2="889.265" stroke="black" stroke-width="2"/> 
  <image x="1389" y="879.75" width="95" height="57.5" xlink:href="DS_breaker.svg" transform="rotate(270 17.5 -3.75)">
    <title>00BKU04GS032</title>
    <rt:dyn type="Operate" mode="constant" value="true"/> 
    <rt:dyn type="HasTray" mode="constant" value="true"/> 
    <rt:dyn type="KKS" mode="constant" value="&quot;00BKU04GS032&quot;"/> 
    <rt:dyn type="DATA_NARY" mode="constant" value="&quot;TYPE1&quot;"/> 
  </image>
  <line x1="1415.25" y1="976" x2="1465.25" y2="976" stroke="black" stroke-width="3"/> 
  <text x="1490.25" y="912.929" fill="black" font-size="15" text-anchor="middle">00BKU04</text>
  <line x1="1649" y1="975" x2="1699" y2="975" stroke="black" stroke-width="3"/> 
  <line x1="975" y1="775" x2="1725" y2="775" stroke="black" stroke-width="3"/> 
  <image x="1725" y="788.265" width="175" height="25" xlink:href="DS_ana.svg">
    <title>00BKU00CE001_XQ20</title>
    <rt:dyn type="FName" mode="constant" value="true"/> 
    <rt:dyn type="ShowFrame" mode="constant" value="true"/> 
    <rt:dyn type="Color_Readings" mode="constant" value="true"/> 
    <rt:dyn type="X" mode="constant" value="&quot;U&quot;"/> 
    <rt:dyn type="FKKS" mode="constant" value="&quot;00BKU00CE001_XQ20&quot;"/> 
    <rt:dyn type="ValueToTheRight" mode="constant" value="false"/> 
  </image>
  <text x="1761.08" y="780.357" fill="black" font-size="15" text-anchor="middle">00BKU</text>
  <line x1="1649.75" y1="715.818" x2="1649.75" y2="776.022" stroke="black" stroke-width="2"/> 
  <line x1="1649.75" y1="525" x2="1649.75" y2="676.022" stroke="black" stroke-width="2"/> 
  <line x1="1649.75" y1="426.022" x2="1649.75" y2="492.859" stroke="black" stroke-width="2"/> 
  <image x="1598.75" y="479.772" width="95" height="57.5" xlink:href="DS_breaker.svg" transform="rotate(270 17.5 -3.75)">
    <title>00BKT61GS001</title>
    <rt:dyn type="Operate" mode="constant" value="true"/> 
    <rt:dyn type="HasTray" mode="constant" value="true"/> 
    <rt:dyn type="KKS" mode="constant" value="&quot;00BKT61GS001&quot;"/> 
    <rt:dyn type="DATA_NARY" mode="constant" value="&quot;TYPE1&quot;"/> 
  </image>
  <g>
    <circle cx="3306.45" cy="301.043" r="26.6666" fill="Col_Grey2" stroke="none" stroke-width="2" transform="flipY() translate(0 -828) translate(-830.09 15.1779) scale(0.75 0.75)"/> 
    <circle cx="3306.46" cy="258.37" r="26.6666" fill="Col_Grey2" stroke="black" stroke-width="2" transform="flipY() translate(0 -828) translate(-830.09 15.1779) scale(0.75 0.75)"/> 
    <line x1="1649.74" y1="628.042" x2="1649.74" y2="617.042" stroke="black" stroke-width="2"/> 
    <line x1="1649.74" y1="618.042" x2="1657.24" y2="611.042" stroke="black" stroke-width="2"/> 
    <line x1="-64.87" y1="618.042" x2="-57.37" y2="611.042" stroke="black" stroke-width="2" transform="flipX(792.432)"/> 
    <circle cx="3306.45" cy="301.043" r="26.6666" fill="none" stroke="black" stroke-width="2" transform="flipY() translate(0 -828) translate(-830.09 15.1779) scale(0.75 0.75)"/> 
    <polygon points="1640.3,593.022 1649.7,576.022 1659.1,593.122" fill="none" stroke="black" stroke-width="2"/> 
  </g>
  <text x="1697.42" y="514.022" fill="black" font-size="15" text-anchor="middle">00BKT61</text>
  <text x="1713.89" y="701.022" fill="black" font-size="15" text-anchor="middle">00BKU02</text>
  <image x="1598.5" y="668.522" width="95" height="57.5" xlink:href="DS_breaker.svg" transform="rotate(270 17.5 -3.75)">
    <title>00BKU02GS001</title>
    <rt:dyn type="Operate" mode="constant" value="true"/> 
    <rt:dyn type="HasTray" mode="constant" value="true"/> 
    <rt:dyn type="KKS" mode="constant" value="&quot;00BKU02GS001&quot;"/> 
    <rt:dyn type="DATA_NARY" mode="constant" value="&quot;TYPE1&quot;"/> 
  </image>
  <text x="1707.75" y="607.889" fill="black" font-size="15" text-anchor="middle">00BKT61</text>
  <line x1="1501" y1="525.415" x2="1501" y2="575.415" stroke="black" stroke-width="2"/> 
  <line x1="1501" y1="425.415" x2="1501" y2="492.252" stroke="black" stroke-width="2"/> 
  <image x="1449.75" y="479.165" width="95" height="57.5" xlink:href="DS_breaker.svg" transform="rotate(270 17.5 -3.75)">
    <title>00BKT63GS001</title>
    <rt:dyn type="Operate" mode="constant" value="true"/> 
    <rt:dyn type="HasTray" mode="constant" value="true"/> 
    <rt:dyn type="KKS" mode="constant" value="&quot;00BKT63GS001&quot;"/> 
    <rt:dyn type="DATA_NARY" mode="constant" value="&quot;TYPE1&quot;"/> 
  </image>
  <image x="1539.14" y="625" width="75" height="25" xlink:href="obj_link.svg" transform="rotate(180 0 0) flipY(12.3617) rotate(90 37.3618 12.5)">
    <rt:dyn type="ModName" mode="constant" value="&quot;00UGA&quot;"/> 
  </image>
  <text x="1501" y="664.446" fill="black" font-size="15" text-anchor="middle">00UGA</text>
  <text x="1551" y="514.446" fill="black" font-size="15" text-anchor="middle">00BKT63</text>
  <line x1="1200" y1="525" x2="1200" y2="575" stroke="black" stroke-width="2"/> 
  <line x1="1200" y1="425" x2="1200" y2="491.837" stroke="black" stroke-width="2"/> 
  <image x="1148.75" y="478.75" width="95" height="57.5" xlink:href="DS_breaker.svg" transform="rotate(270 17.5 -3.75)">
    <title>00GAC43AP001</title>
    <rt:dyn type="Operate" mode="constant" value="true"/> 
    <rt:dyn type="HasTray" mode="constant" value="true"/> 
    <rt:dyn type="KKS" mode="constant" value="&quot;00GAC43AP001&quot;"/> 
    <rt:dyn type="DATA_NARY" mode="constant" value="&quot;TYPE1&quot;"/> 
  </image>
  <text x="1250" y="514.031" fill="black" font-size="15" text-anchor="middle">00BCN06</text>
  <g>
    <line x1="1200" y1="575" x2="1206.33" y2="564" stroke="black" stroke-width="2"/> 
    <line x1="-343" y1="575" x2="-336.667" y2="564" stroke="black" stroke-width="2" transform="flipX(428.5)"/> 
  </g>
  <text x="1200" y="600" fill="black" font-size="15" text-anchor="middle">00GAC43<tspan x="1200" dy="15">AP001</tspan>
  </text>
  <text x="735.061" y="556.888" fill="black" font-size="15" text-anchor="middle">00BCM02</text>
  <g>
    <circle cx="2516.23" cy="283.763" r="26.6666" fill="Col_Grey2" stroke="none" stroke-width="2" transform="flipY() translate(0 -828) translate(-830.09 15.1779) scale(0.75 0.75)"/> 
    <circle cx="2561.57" cy="283.763" r="26.6666" fill="Col_Grey2" stroke="none" stroke-width="2" transform="flipY() translate(0 -828) translate(-830.09 15.1779) scale(0.75 0.75)"/> 
    <circle cx="2540.24" cy="323.763" r="26.6666" fill="Col_Grey2" stroke="black" stroke-width="2" transform="flipY() translate(0 -828) translate(-830.09 15.1779) scale(0.75 0.75)"/> 
    <circle cx="2516.23" cy="283.763" r="26.6666" fill="none" stroke="black" stroke-width="2" transform="flipY() translate(0 -828) translate(-830.09 15.1779) scale(0.75 0.75)"/> 
    <line x1="1075" y1="579.001" x2="1075" y2="568.001" stroke="black" stroke-width="2"/> 
    <line x1="1075" y1="569.001" x2="1082.5" y2="562.001" stroke="black" stroke-width="2"/> 
    <line x1="509.85" y1="569.001" x2="517.35" y2="562.001" stroke="black" stroke-width="2" transform="flipX(792.432)"/> 
    <circle cx="2561.57" cy="283.763" r="26.6666" fill="none" stroke="black" stroke-width="2" transform="flipY() translate(0 -828) translate(-830.09 15.1779) scale(0.75 0.75)"/> 
    <polygon points="1081.56,605.981 1090.96,588.981 1100.36,606.081" fill="none" stroke="black" stroke-width="2"/> 
    <g>
      <line x1="1057.86" y1="612.001" x2="1057.86" y2="601.001" stroke="black" stroke-width="2"/> 
      <line x1="1057.86" y1="602.001" x2="1065.36" y2="595.001" stroke="black" stroke-width="2"/> 
      <line x1="526.994" y1="602.001" x2="534.494" y2="595.001" stroke="black" stroke-width="2" transform="flipX(792.432)"/> 
    </g>
    <rect x="1087.43" y="586.315" width="14.6667" height="8.99957" rx="0" ry="0" fill="Col_Grey2" stroke="none"/> 
    <rect x="1085.1" y="590.648" width="8.00342" height="4.99939" rx="0" ry="0" fill="Col_Grey2" stroke="none"/> 
  </g>
  <line x1="1075" y1="550.001" x2="1075" y2="462.334" stroke="black" stroke-width="2"/> 
  <line x1="1075" y1="450.001" x2="1075" y2="425.001" stroke="black" stroke-width="2"/> 
  <rect x="1067" y="491.668" width="15" height="25" rx="0" ry="0" fill="none" stroke="black" stroke-width="2"/> 
  <g>
    <polygon points="381.954,542.871 374.31,547.971 374.31,553.061 381.954,547.971 389.598,553.061 389.598,547.971 381.954,542.871" fill="black" stroke="black" stroke-width="1" transform="flipY() translate(0 -828) translate(693.046 912.06) matrix(1 0 0 -1 0 0)"/> 
    <polygon points="381.954,534.061 374.31,539.16 374.31,544.251 381.954,539.16 389.598,544.251 389.598,539.16 381.954,534.061" fill="black" stroke="black" stroke-width="1" transform="flipY() translate(0 -828) translate(693.046 912.06) matrix(1 0 0 -1 0 0)"/> 
  </g>
  <text x="1017.71" y="557.908" fill="black" font-size="15" text-anchor="middle">00BCN02</text>
  <line x1="1351.25" y1="525" x2="1351.25" y2="575" stroke="black" stroke-width="2"/> 
  <line x1="1351.25" y1="425" x2="1351.25" y2="491.837" stroke="black" stroke-width="2"/> 
  <image x="1300" y="478.75" width="95" height="57.5" xlink:href="DS_breaker.svg" transform="rotate(270 17.5 -3.75)">
    <title>00GAC44AP001</title>
    <rt:dyn type="Operate" mode="constant" value="true"/> 
    <rt:dyn type="HasTray" mode="constant" value="true"/> 
    <rt:dyn type="KKS" mode="constant" value="&quot;00GAC44AP001&quot;"/> 
    <rt:dyn type="DATA_NARY" mode="constant" value="&quot;TYPE1&quot;"/> 
  </image>
  <g>
    <line x1="1351.25" y1="575" x2="1357.58" y2="564" stroke="black" stroke-width="2"/> 
    <line x1="-494.25" y1="575" x2="-487.917" y2="564" stroke="black" stroke-width="2" transform="flipX(428.5)"/> 
  </g>
  <text x="1351" y="600" fill="black" font-size="15" text-anchor="middle">00GAC44<tspan x="1351" dy="15">AP001</tspan>
  </text>
  <text x="1401" y="512.949" fill="black" font-size="15" text-anchor="middle">00BCN08</text>
  <image x="1725" y="440.306" width="175" height="25" xlink:href="DS_ana.svg">
    <title>00BCN02GT610_XQ10</title>
    <rt:dyn type="FName" mode="constant" value="true"/> 
    <rt:dyn type="ShowFrame" mode="constant" value="true"/> 
    <rt:dyn type="Color_Readings" mode="constant" value="true"/> 
    <rt:dyn type="X" mode="constant" value="&quot;U&quot;"/> 
    <rt:dyn type="FKKS" mode="constant" value="&quot;00BCN02GT610_XQ10&quot;"/> 
    <rt:dyn type="ValueToTheRight" mode="constant" value="false"/> 
  </image>
  <text x="1708.61" y="153.364" fill="black" font-size="15" text-anchor="middle">00BCH09</text>
  <image x="1598.75" y="132.114" width="95" height="57.5" xlink:href="DS_breaker.svg" transform="rotate(270 17.5 -3.75)">
    <title>00BCH09GS001</title>
    <rt:dyn type="Operate" mode="constant" value="true"/> 
    <rt:dyn type="HasTray" mode="constant" value="true"/> 
    <rt:dyn type="KKS" mode="constant" value="&quot;00BCH09GS001&quot;"/> 
    <rt:dyn type="DATA_NARY" mode="constant" value="&quot;TYPE1&quot;"/> 
  </image>
  <image x="1598.75" y="307.114" width="95" height="57.5" xlink:href="DS_breaker.svg" transform="rotate(270 17.5 -3.75)">
    <title>00BCH18GS001</title>
    <rt:dyn type="Operate" mode="constant" value="true"/> 
    <rt:dyn type="HasTray" mode="constant" value="true"/> 
    <rt:dyn type="KKS" mode="constant" value="&quot;00BCG18GS001&quot;"/> 
    <rt:dyn type="DATA_NARY" mode="constant" value="&quot;TYPE1&quot;"/> 
  </image>
  <text x="1707.49" y="339.742" fill="black" font-size="15" text-anchor="middle">00BCN01</text>
  <line x1="199.327" y1="224.908" x2="124.327" y2="224.908" stroke="black" stroke-width="2"/> 
  <g stroke="black" stroke-width="2" transform="rotate(270 296 325)">
    <line x1="383.092" y1="228.327" x2="409.092" y2="228.327"/> 
    <line x1="387.092" y1="233.327" x2="405.092" y2="233.327"/> 
    <line x1="392.092" y1="238.327" x2="400.092" y2="238.327"/> 
  </g>
  <image x="149.327" y="213.908" width="25" height="25" xlink:href="bin_indicator.svg">
    <title>00BCF08GS001_XB10</title>
    <rt:dyn type="PointID" mode="constant" value="&quot;00BCF08GS001_XB10&quot;"/> 
    <rt:dyn type="Col_ON" mode="constant" value="&quot;Col_Yellow&quot;"/> 
  </image>
  <text x="174.327" y="207.908" fill="black" font-size="15" text-anchor="start">ЗН включен</text>
  <line x1="1725.88" y1="226.01" x2="1650.88" y2="226.01" stroke="black" stroke-width="2"/> 
  <g stroke="black" stroke-width="2" transform="rotate(270 296 325)">
    <line x1="381.99" y1="1754.88" x2="407.99" y2="1754.88"/> 
    <line x1="385.99" y1="1759.88" x2="403.99" y2="1759.88"/> 
    <line x1="390.99" y1="1764.88" x2="398.99" y2="1764.88"/> 
  </g>
  <image x="1675.88" y="215.01" width="25" height="25" xlink:href="bin_indicator.svg">
    <title>00BCH09GS001_XB10</title>
    <rt:dyn type="PointID" mode="constant" value="&quot;00BCH09GS001_XB10&quot;"/> 
    <rt:dyn type="Col_ON" mode="constant" value="&quot;Col_Yellow&quot;"/> 
  </image>
  <text x="1700.88" y="209.01" fill="black" font-size="15" text-anchor="start">ЗН включен</text>
  <line x1="1725" y1="400" x2="1650" y2="400" stroke="black" stroke-width="2"/> 
  <g stroke="black" stroke-width="2" transform="rotate(270 296 325)">
    <line x1="208" y1="1754" x2="234" y2="1754"/> 
    <line x1="212" y1="1759" x2="230" y2="1759"/> 
    <line x1="217" y1="1764" x2="225" y2="1764"/> 
  </g>
  <image x="1675" y="389" width="25" height="25" xlink:href="bin_indicator.svg">
    <title>00BCN01GS001_XB10</title>
    <rt:dyn type="PointID" mode="constant" value="&quot;00BCN01GS001_XB10&quot;"/> 
    <rt:dyn type="Col_ON" mode="constant" value="&quot;Col_Yellow&quot;"/> 
  </image>
  <text x="1700" y="383" fill="black" font-size="15" text-anchor="start">ЗН включен</text>
  <line x1="200" y1="400" x2="125" y2="400" stroke="black" stroke-width="2"/> 
  <g stroke="black" stroke-width="2" transform="rotate(270 296 325)">
    <line x1="208" y1="229" x2="234" y2="229"/> 
    <line x1="212" y1="234" x2="230" y2="234"/> 
    <line x1="217" y1="239" x2="225" y2="239"/> 
  </g>
  <image x="150" y="389" width="25" height="25" xlink:href="bin_indicator.svg">
    <title>00BCM01GS001_XB10</title>
    <rt:dyn type="PointID" mode="constant" value="&quot;00BCM01GS001_XB10&quot;"/> 
    <rt:dyn type="Col_ON" mode="constant" value="&quot;Col_Yellow&quot;"/> 
  </image>
  <text x="175" y="383" fill="black" font-size="15" text-anchor="start">ЗН включен</text>
</svg>
