<?xml  version="1.0" encoding="windows-1251"?>
<svg color="Col_BGSand" xmlns="http://www.w3.org/2000/svg" xmlns:rt="http://www.rts.co.at/2001/XMLSchema/RtSvgPL" xmlns:xlink="http://www.w3.org/1999/xlink" xmlns:xsi="http://www.w3.org/2001/XMLSchema-instance" xsi:schemaLocation="http://www.w3.org/2000/svg C:\RTS\RtSvg\XML\SVG.xsd" viewBox="0 0 1920 1080" width="1920" height="1080" id="10_20gde">
  <rt:model modelversion="7.2.0.24" comment="Создано VNIIAES-ASUTP\seregin 18.06.2015 16:09:49"/> 
  <text x="296.485" y="119.288" fill="black" font-size="15" text-anchor="middle">Аварийно-минимальный<tspan x="296.485" dy="15">уровень в баке №1 БДИ</tspan>
  </text>
  <text x="26.6667" y="38.4849" fill="black" font-size="15">00URG 00CXV30 СИСТЕМЫ 10GDE / 20GDE</text>
  <rect x="151.788" y="76.8637" width="289.394" height="77.2727" rx="0" ry="0" fill="none" stroke="black"/> 
  <text x="296.485" y="213.728" fill="black" font-size="15" text-anchor="middle">Включен насос<tspan x="296.485" dy="15">№1 БДИ</tspan>
  </text>
  <rect x="151.788" y="171.303" width="289.394" height="77.2727" rx="0" ry="0" fill="none" stroke="black"/> 
  <text x="296.485" y="310.197" fill="black" font-size="15" text-anchor="middle">Авария насоса<tspan x="296.485" dy="15">№1 БДИ</tspan>
  </text>
  <rect x="151.788" y="267.773" width="289.394" height="77.2727" rx="0" ry="0" fill="none" stroke="black"/> 
  <text x="296.485" y="404.637" fill="black" font-size="15" text-anchor="middle">Аварийное давление на<tspan x="296.485" dy="15">напоре насоса №1 БДИ</tspan>
  </text>
  <rect x="151.788" y="362.212" width="289.394" height="77.2727" rx="0" ry="0" fill="none" stroke="black"/> 
  <text x="659.11" y="119.804" fill="black" font-size="15" text-anchor="middle">Аварийно-минимальный<tspan x="659.11" dy="15">уровень в баке №2 БДИ</tspan>
  </text>
  <rect x="514.413" y="77.3789" width="289.394" height="77.2727" rx="0" ry="0" fill="none" stroke="black"/> 
  <rect x="514.413" y="171.819" width="289.394" height="77.2727" rx="0" ry="0" fill="none" stroke="black"/> 
  <rect x="514.413" y="268.288" width="289.394" height="77.2727" rx="0" ry="0" fill="none" stroke="black"/> 
  <rect x="514.413" y="362.728" width="289.394" height="77.2727" rx="0" ry="0" fill="none" stroke="black"/> 
  <text x="659.11" y="216.136" fill="black" font-size="15" text-anchor="middle">Включен насос<tspan x="659.11" dy="15">№2 БДИ</tspan>
  </text>
  <text x="659.11" y="310.076" fill="black" font-size="15" text-anchor="middle">Авария насоса<tspan x="659.11" dy="15">№2 БДИ</tspan>
  </text>
  <text x="659.11" y="405.152" fill="black" font-size="15" text-anchor="middle">Аварийное давление на<tspan x="659.11" dy="15">напоре насоса №2 БДИ</tspan>
  </text>
  <text x="296.485" y="642.015" fill="black" font-size="15" text-anchor="middle">Аварийно-минимальный<tspan x="296.485" dy="15">уровень в баке №1 БДБ</tspan>
  </text>
  <rect x="151.788" y="599.591" width="289.394" height="77.2727" rx="0" ry="0" fill="none" stroke="black"/> 
  <text x="296.485" y="736.455" fill="black" font-size="15" text-anchor="middle">Включен насос<tspan x="296.485" dy="15">№1 БДБ</tspan>
  </text>
  <rect x="151.788" y="694.03" width="289.394" height="77.2727" rx="0" ry="0" fill="none" stroke="black"/> 
  <text x="296.485" y="832.924" fill="black" font-size="15" text-anchor="middle">Авария насоса<tspan x="296.485" dy="15">№1 БДБ</tspan>
  </text>
  <rect x="151.788" y="790.5" width="289.394" height="77.2727" rx="0" ry="0" fill="none" stroke="black"/> 
  <text x="296.485" y="927.364" fill="black" font-size="15" text-anchor="middle">Аварийное давление на<tspan x="296.485" dy="15">напоре насоса №1 БДБ</tspan>
  </text>
  <rect x="151.788" y="884.939" width="289.394" height="77.2727" rx="0" ry="0" fill="none" stroke="black"/> 
  <text x="659.11" y="642.531" fill="black" font-size="15" text-anchor="middle">Аварийно-минимальный<tspan x="659.11" dy="15">уровень в баке №2 БДБ</tspan>
  </text>
  <rect x="514.413" y="600.106" width="289.394" height="77.2727" rx="0" ry="0" fill="none" stroke="black"/> 
  <rect x="514.413" y="694.546" width="289.394" height="77.2727" rx="0" ry="0" fill="none" stroke="black"/> 
  <rect x="514.413" y="791.015" width="289.394" height="77.2727" rx="0" ry="0" fill="none" stroke="black"/> 
  <rect x="514.413" y="885.455" width="289.394" height="77.2727" rx="0" ry="0" fill="none" stroke="black"/> 
  <text x="659.11" y="738.863" fill="black" font-size="15" text-anchor="middle">Включен насос<tspan x="659.11" dy="15">№2 БДБ</tspan>
  </text>
  <text x="659.11" y="832.803" fill="black" font-size="15" text-anchor="middle">Авария насоса<tspan x="659.11" dy="15">№2 БДБ</tspan>
  </text>
  <text x="659.11" y="927.879" fill="black" font-size="15" text-anchor="middle">Аварийное давление на<tspan x="659.11" dy="15">напоре насоса №2 БДБ</tspan>
  </text>
  <text x="1060.5" y="117.773" fill="black" font-size="15" text-anchor="middle">Аварийно-минимальный<tspan x="1060.5" dy="15">уровень в баке №1 БДИ</tspan>
  </text>
  <rect x="915.803" y="75.3485" width="289.394" height="77.2727" rx="0" ry="0" fill="none" stroke="black"/> 
  <text x="1060.5" y="212.213" fill="black" font-size="15" text-anchor="middle">Включен насос<tspan x="1060.5" dy="15">№1 БДИ</tspan>
  </text>
  <rect x="915.803" y="169.788" width="289.394" height="77.2727" rx="0" ry="0" fill="none" stroke="black"/> 
  <text x="1060.5" y="308.682" fill="black" font-size="15" text-anchor="middle">Авария насоса<tspan x="1060.5" dy="15">№1 БДИ</tspan>
  </text>
  <rect x="915.803" y="266.258" width="289.394" height="77.2727" rx="0" ry="0" fill="none" stroke="black"/> 
  <text x="1060.5" y="403.122" fill="black" font-size="15" text-anchor="middle">Аварийное давление на<tspan x="1060.5" dy="15">напоре насоса №1 БДИ</tspan>
  </text>
  <rect x="915.803" y="360.697" width="289.394" height="77.2727" rx="0" ry="0" fill="none" stroke="black"/> 
  <text x="1423.13" y="118.289" fill="black" font-size="15" text-anchor="middle">Аварийно-минимальный<tspan x="1423.13" dy="15">уровень в баке №2 БДИ</tspan>
  </text>
  <rect x="1278.43" y="75.8637" width="289.394" height="77.2727" rx="0" ry="0" fill="none" stroke="black"/> 
  <rect x="1278.43" y="170.304" width="289.394" height="77.2727" rx="0" ry="0" fill="none" stroke="black"/> 
  <rect x="1278.43" y="266.773" width="289.394" height="77.2727" rx="0" ry="0" fill="none" stroke="black"/> 
  <rect x="1278.43" y="361.213" width="289.394" height="77.2727" rx="0" ry="0" fill="none" stroke="black"/> 
  <text x="1423.13" y="214.621" fill="black" font-size="15" text-anchor="middle">Включен насос<tspan x="1423.13" dy="15">№2 БДИ</tspan>
  </text>
  <text x="1423.13" y="308.561" fill="black" font-size="15" text-anchor="middle">Авария насоса<tspan x="1423.13" dy="15">№2 БДИ</tspan>
  </text>
  <text x="1423.13" y="403.637" fill="black" font-size="15" text-anchor="middle">Аварийное давление на<tspan x="1423.13" dy="15">напоре насоса №2 БДИ</tspan>
  </text>
  <text x="1060.5" y="640.5" fill="black" font-size="15" text-anchor="middle">Аварийно-минимальный<tspan x="1060.5" dy="15">уровень в баке №1  БДБ</tspan>
  </text>
  <rect x="915.803" y="598.076" width="289.394" height="77.2727" rx="0" ry="0" fill="none" stroke="black"/> 
  <text x="1060.5" y="734.94" fill="black" font-size="15" text-anchor="middle">Включен насос<tspan x="1060.5" dy="15">№1  БДБ</tspan>
  </text>
  <rect x="915.803" y="692.515" width="289.394" height="77.2727" rx="0" ry="0" fill="none" stroke="black"/> 
  <text x="1060.5" y="831.409" fill="black" font-size="15" text-anchor="middle">Авария насоса<tspan x="1060.5" dy="15">№1  БДБ</tspan>
  </text>
  <rect x="915.803" y="788.985" width="289.394" height="77.2727" rx="0" ry="0" fill="none" stroke="black"/> 
  <text x="1060.5" y="925.849" fill="black" font-size="15" text-anchor="middle">Аварийное давление на<tspan x="1060.5" dy="15">напоре насоса №1  БДБ</tspan>
  </text>
  <rect x="915.803" y="883.424" width="289.394" height="77.2727" rx="0" ry="0" fill="none" stroke="black"/> 
  <text x="1423.13" y="641.016" fill="black" font-size="15" text-anchor="middle">Аварийно-минимальный<tspan x="1423.13" dy="15">уровень в баке №2 БДБ</tspan>
  </text>
  <rect x="1278.43" y="598.591" width="289.394" height="77.2727" rx="0" ry="0" fill="none" stroke="black"/> 
  <rect x="1278.43" y="693.031" width="289.394" height="77.2727" rx="0" ry="0" fill="none" stroke="black"/> 
  <rect x="1278.43" y="789.5" width="289.394" height="77.2727" rx="0" ry="0" fill="none" stroke="black"/> 
  <rect x="1278.43" y="883.94" width="289.394" height="77.2727" rx="0" ry="0" fill="none" stroke="black"/> 
  <text x="1423.13" y="737.348" fill="black" font-size="15" text-anchor="middle">Включен насос<tspan x="1423.13" dy="15">№2 БДБ</tspan>
  </text>
  <text x="1423.13" y="831.288" fill="black" font-size="15" text-anchor="middle">Авария насоса<tspan x="1423.13" dy="15">№2 БДБ</tspan>
  </text>
  <text x="1423.13" y="926.364" fill="black" font-size="15" text-anchor="middle">Аварийное давление на<tspan x="1423.13" dy="15">напоре насоса №2 БДБ</tspan>
  </text>
  <image x="173.909" y="83.9395" width="25" height="25" xlink:href="bin_indicator.svg">
    <title>10GDE10CL001_XH51</title>
    <rt:dyn type="PointID" mode="constant" value="&quot;10GDE10CL001_XH51&quot;"/> 
  </image>
  <image x="173.909" y="177.879" width="25" height="25" xlink:href="bin_indicator.svg">
    <title>10GDE10AP001_XB01</title>
    <rt:dyn type="PointID" mode="constant" value="&quot;10GDE10AP001_XB01&quot;"/> 
  </image>
  <image x="173.909" y="272.818" width="25" height="25" xlink:href="bin_indicator.svg">
    <title>10GDE10AP001_XB46</title>
    <rt:dyn type="PointID" mode="constant" value="&quot;10GDE10AP001_XB46&quot;"/> 
  </image>
  <image x="173.909" y="366.758" width="25" height="25" xlink:href="bin_indicator.svg">
    <title>10GDE10CP001_XH01</title>
    <rt:dyn type="PointID" mode="constant" value="&quot;10GDE10CP001_XH01&quot;"/> 
  </image>
  <image x="528.424" y="84.9394" width="25" height="25" xlink:href="bin_indicator.svg">
    <title>10GDE10CL002_XH51</title>
    <rt:dyn type="PointID" mode="constant" value="&quot;10GDE10CL002_XH51&quot;"/> 
  </image>
  <image x="528.424" y="178.879" width="25" height="25" xlink:href="bin_indicator.svg">
    <title>10GDE10AP002_XB01</title>
    <rt:dyn type="PointID" mode="constant" value="&quot;10GDE10AP002_XB01&quot;"/> 
  </image>
  <image x="528.424" y="273.818" width="25" height="25" xlink:href="bin_indicator.svg">
    <title>10GDE10AP002_XB46</title>
    <rt:dyn type="PointID" mode="constant" value="&quot;10GDE10AP002_XB46&quot;"/> 
  </image>
  <image x="528.424" y="367.758" width="25" height="25" xlink:href="bin_indicator.svg">
    <title>10GDE10CP002_XH01</title>
    <rt:dyn type="PointID" mode="constant" value="&quot;10GDE10CP002_XH01&quot;"/> 
  </image>
  <image x="925.394" y="82.8788" width="25" height="25" xlink:href="bin_indicator.svg">
    <title>20GDE10CL001_XH51</title>
    <rt:dyn type="PointID" mode="constant" value="&quot;20GDE10CL001_XH51&quot;"/> 
  </image>
  <image x="925.394" y="176.818" width="25" height="25" xlink:href="bin_indicator.svg">
    <title>20GDE10AP001_XB01</title>
    <rt:dyn type="PointID" mode="constant" value="&quot;20GDE10AP001_XB01&quot;"/> 
  </image>
  <image x="925.394" y="271.757" width="25" height="25" xlink:href="bin_indicator.svg">
    <title>20GDE10AP001_XB46</title>
    <rt:dyn type="PointID" mode="constant" value="&quot;20GDE10AP001_XB46&quot;"/> 
  </image>
  <image x="925.394" y="365.697" width="25" height="25" xlink:href="bin_indicator.svg">
    <title>20GDE10CP001_XH01</title>
    <rt:dyn type="PointID" mode="constant" value="&quot;20GDE10CP001_XH01&quot;"/> 
  </image>
  <image x="1282.97" y="81.9091" width="25" height="25" xlink:href="bin_indicator.svg">
    <title>20GDE10CL002_XH51</title>
    <rt:dyn type="PointID" mode="constant" value="&quot;20GDE10CL002_XH51&quot;"/> 
  </image>
  <image x="1282.97" y="175.849" width="25" height="25" xlink:href="bin_indicator.svg">
    <title>20GDE10AP002_XB01</title>
    <rt:dyn type="PointID" mode="constant" value="&quot;20GDE10AP002_XB01&quot;"/> 
  </image>
  <image x="1282.97" y="270.788" width="25" height="25" xlink:href="bin_indicator.svg">
    <title>20GDE10AP002_XB46</title>
    <rt:dyn type="PointID" mode="constant" value="&quot;20GDE10AP002_XB46&quot;"/> 
  </image>
  <image x="1282.97" y="364.728" width="25" height="25" xlink:href="bin_indicator.svg">
    <title>20GDE10CP002_XH01</title>
    <rt:dyn type="PointID" mode="constant" value="&quot;20GDE10CP002_XH01&quot;"/> 
  </image>
  <image x="169.333" y="604.636" width="25" height="25" xlink:href="bin_indicator.svg">
    <title>10GDE20CL001_XH51</title>
    <rt:dyn type="PointID" mode="constant" value="&quot;10GDE20CL001_XH51&quot;"/> 
  </image>
  <image x="169.333" y="698.576" width="25" height="25" xlink:href="bin_indicator.svg">
    <title>10GDE20AP001_XB01</title>
    <rt:dyn type="PointID" mode="constant" value="&quot;10GDE20AP001_XB01&quot;"/> 
  </image>
  <image x="169.333" y="793.515" width="25" height="25" xlink:href="bin_indicator.svg">
    <title>10GDE20AP001_XB46</title>
    <rt:dyn type="PointID" mode="constant" value="&quot;10GDE20AP001_XB46&quot;"/> 
  </image>
  <image x="169.333" y="887.455" width="25" height="25" xlink:href="bin_indicator.svg">
    <title>10GDE20CP001_XH01</title>
    <rt:dyn type="PointID" mode="constant" value="&quot;10GDE20CP001_XH01&quot;"/> 
  </image>
  <image x="528.424" y="607.666" width="25" height="25" xlink:href="bin_indicator.svg">
    <title>10GDE20CL002_XH51</title>
    <rt:dyn type="PointID" mode="constant" value="&quot;10GDE20CL002_XH51&quot;"/> 
  </image>
  <image x="528.424" y="701.606" width="25" height="25" xlink:href="bin_indicator.svg">
    <title>10GDE20AP002_XB01</title>
    <rt:dyn type="PointID" mode="constant" value="&quot;10GDE20AP002_XB01&quot;"/> 
  </image>
  <image x="528.424" y="796.545" width="25" height="25" xlink:href="bin_indicator.svg">
    <title>10GDE20AP002_XB46</title>
    <rt:dyn type="PointID" mode="constant" value="&quot;10GDE20AP002_XB46&quot;"/> 
  </image>
  <image x="528.424" y="890.485" width="25" height="25" xlink:href="bin_indicator.svg">
    <title>10GDE20CP002_XH01</title>
    <rt:dyn type="PointID" mode="constant" value="&quot;10GDE20CP002_XH01&quot;"/> 
  </image>
  <image x="928.424" y="606.151" width="25" height="25" xlink:href="bin_indicator.svg">
    <title>20GDE20CL001_XH51</title>
    <rt:dyn type="PointID" mode="constant" value="&quot;20GDE20CL001_XH51&quot;"/> 
  </image>
  <image x="928.424" y="700.091" width="25" height="25" xlink:href="bin_indicator.svg">
    <title>20GDE20AP001_XB01</title>
    <rt:dyn type="PointID" mode="constant" value="&quot;20GDE20AP001_XB01&quot;"/> 
  </image>
  <image x="928.424" y="795.03" width="25" height="25" xlink:href="bin_indicator.svg">
    <title>20GDE20AP001_XB46</title>
    <rt:dyn type="PointID" mode="constant" value="&quot;20GDE20AP001_XB46&quot;"/> 
  </image>
  <image x="928.424" y="888.97" width="25" height="25" xlink:href="bin_indicator.svg">
    <title>20GDE20CP001_XH01</title>
    <rt:dyn type="PointID" mode="constant" value="&quot;20GDE20CP001_XH01&quot;"/> 
  </image>
  <image x="1290.55" y="606.152" width="25" height="25" xlink:href="bin_indicator.svg">
    <title>20GDE20CL002_XH51</title>
    <rt:dyn type="PointID" mode="constant" value="&quot;20GDE20CL002_XH51&quot;"/> 
  </image>
  <image x="1290.55" y="700.092" width="25" height="25" xlink:href="bin_indicator.svg">
    <title>20GDE20AP002_XB01</title>
    <rt:dyn type="PointID" mode="constant" value="&quot;20GDE20AP002_XB01&quot;"/> 
  </image>
  <image x="1290.55" y="795.031" width="25" height="25" xlink:href="bin_indicator.svg">
    <title>20GDE20AP002_XB46</title>
    <rt:dyn type="PointID" mode="constant" value="&quot;20GDE20AP002_XB46&quot;"/> 
  </image>
  <image x="1290.55" y="888.97" width="25" height="25" xlink:href="bin_indicator.svg">
    <title>20GDE20CP002_XH01</title>
    <rt:dyn type="PointID" mode="constant" value="&quot;20GDE20CP002_XH01&quot;"/> 
  </image>
</svg>
