<?xml  version="1.0" encoding="UTF-8"?>
<svg color="Col_BGSand" xmlns="http://www.w3.org/2000/svg" xmlns:rt="http://www.rts.co.at/2001/XMLSchema/RtSvgPL" xmlns:xlink="http://www.w3.org/1999/xlink" xmlns:xsi="http://www.w3.org/2001/XMLSchema-instance" xsi:schemaLocation="http://www.w3.org/2000/svg C:\RTS\RtSvg\XML\SVG.xsd" viewBox="0 0 1914 980" width="1914" height="980" id="10MAX50ER001" fill="white">
  <rt:model modelversion="7.2.0.23" comment="Создано PAZDNIKOV\user 21.05.2013 12:12:50"/> 
  <line x1="1087.88" y1="537.879" x2="1087.88" y2="537.879" stroke="black"/> 
  <line x1="523.667" y1="665.758" x2="523.667" y2="665.758" stroke="black"/> 
  <line x1="981.242" y1="532.424" x2="981.242" y2="532.424" stroke="black"/> 
  <line x1="981.242" y1="559.697" x2="981.242" y2="559.697" stroke="black"/> 
  <line x1="1108.52" y1="453.636" x2="1108.52" y2="453.636" stroke="black"/> 
  <line x1="917.606" y1="541.515" x2="917.606" y2="541.515" stroke="black"/> 
  <line x1="890.333" y1="771.818" x2="890.333" y2="771.818" stroke="black"/> 
  <line x1="957" y1="629.394" x2="957" y2="629.394" stroke="black"/> 
  <line x1="1011.55" y1="135" x2="1011.55" y2="135" stroke="black"/> 
  <line x1="784.273" y1="514.242" x2="784.273" y2="514.242" stroke="black"/> 
  <line x1="657" y1="417.273" x2="657" y2="417.273" stroke="black"/> 
  <line x1="387.303" y1="477.879" x2="387.303" y2="477.879" stroke="black"/> 
  <line x1="1017" y1="150" x2="1017" y2="586.97" stroke="black"/> 
  <line x1="1017" y1="586" x2="686" y2="586" stroke="black"/> 
  <line x1="605" y1="504" x2="605" y2="504" stroke="black"/> 
  <line x1="685" y1="585" x2="685" y2="150" stroke="black"/> 
  <line x1="823" y1="263" x2="823" y2="263" stroke="black"/> 
  <line x1="685" y1="150" x2="1017" y2="150" stroke="black"/> 
  <line x1="892" y1="278" x2="892" y2="278" stroke="black"/> 
  <line x1="685" y1="176" x2="1016" y2="176" stroke="black"/> 
  <text x="809.091" y="45.303" fill="black" font-size="25">ЭЧСР - Разворот</text>
  <text x="732" y="170" fill="black" font-size="19">РЕГУЛЯТОР РАЗВОРОТА</text>
  <line x1="935.788" y1="150.606" x2="935.788" y2="150.606" stroke="black"/> 
  <line x1="796.394" y1="156.667" x2="796.394" y2="156.667" stroke="black"/> 
  <text x="777" y="200" fill="black" font-size="17">ВЫБОР ЗАДАНИЯ</text>
  <line x1="1329.73" y1="429.394" x2="1329.73" y2="429.394" stroke="black"/> 
  <line x1="820.636" y1="662.727" x2="820.636" y2="662.727" stroke="black"/> 
  <line x1="1399.42" y1="653.636" x2="1399.42" y2="653.636" stroke="black"/> 
  <line x1="1044.88" y1="641.515" x2="1044.88" y2="641.515" stroke="black"/> 
  <line x1="1141.85" y1="441.515" x2="1141.85" y2="441.515" stroke="black"/> 
  <line x1="866.091" y1="662.727" x2="866.091" y2="662.727" stroke="black"/> 
  <line x1="672.152" y1="638.485" x2="672.152" y2="638.485" stroke="black"/> 
  <line x1="529.727" y1="605.152" x2="529.727" y2="605.152" stroke="black"/> 
  <text x="762.121" y="495.455" fill="black" rt:fillperc="100%" font-size="19">СИНХР В РАБОТЕ</text>
  <text x="762.121" y="522.727" fill="black" rt:fillperc="100%" font-size="19">СИНХР УБАВ</text>
  <text x="762.121" y="550" fill="black" rt:fillperc="100%" font-size="19">СИНХР ПРИБ</text>
  <text x="762.121" y="575.758" fill="black" rt:fillperc="100%" font-size="19">Возврат на 1200</text>
  <text x="699" y="227.273" fill="black" rt:fillperc="100%" font-size="19">ЗДН 1200</text>
  <text x="699" y="348.485" fill="black" rt:fillperc="100%" font-size="19">ЗДН 3360</text>
  <text x="699" y="292.424" fill="black" rt:fillperc="100%" font-size="19">ЗДН 3000</text>
  <text x="886.364" y="227.273" fill="black" rt:fillperc="100%" font-size="19">n здн кон</text>
  <text x="874.242" y="346.97" fill="black" rt:fillperc="100%" font-size="19">ЗАКРЫТЬ PК</text>
  <text x="130.303" y="140.909" fill="black" rt:fillperc="100%" font-size="19">ТИП ПУСКА</text>
  <text x="260.606" y="324.848" fill="black" rt:fillperc="100%" font-size="17">ШП ПУСКА ТУРБИНЫ</text>
  <text x="266.667" y="454.545" fill="black" rt:fillperc="100%" font-size="17">КВ. ПОДТВ. УСЛОВИЙ</text>
  <text x="903.03" y="424.242" fill="black" rt:fillperc="100%" font-size="19">n здн тек</text>
  <text x="903.03" y="456.061" fill="black" rt:fillperc="100%" font-size="19">n</text>
  <text x="816.667" y="830.303" fill="black" font-size="19">Ргпк</text>
  <text x="603.697" y="783.334" fill="black" font-size="19">ТРМД</text>
  <text x="569.697" y="909.091" fill="black" font-size="19">ОБОБЩЕННОЕ<tspan x="569.697" dy="19">ЗАДАНИЕ</tspan>
  </text>
  <text x="1113.6" y="282.667" fill="black" rt:fillperc="100%" font-size="19">СК ТГ закрыты</text>
  <text x="1113.6" y="322.061" fill="black" rt:fillperc="100%" font-size="19">РК ЦВД закрыты</text>
  <text x="1113.6" y="360.606" fill="black" rt:fillperc="100%" font-size="19">Генератор в сети</text>
  <text x="1113.6" y="400.849" fill="black" rt:fillperc="100%" font-size="19">Вибрация &gt; 7.1</text>
  <text x="1113.6" y="438.727" fill="black" rt:fillperc="100%" font-size="19">Сраб пуск защита</text>
  <text x="1113.6" y="476.606" fill="black" rt:fillperc="100%" font-size="19">Сраб ПЗ</text>
  <text x="1113.6" y="517.515" fill="black" rt:fillperc="100%" font-size="19">Сраб защита ТГ</text>
  <text x="1532.76" y="108.182" fill="black" rt:fillperc="100%" font-size="19">КНОПКА ВЗВОДА СК</text>
  <text x="1532.76" y="185.455" fill="black" rt:fillperc="100%" font-size="19">НАКЛ ВОЗВРАТА 1200</text>
  <text x="1532.76" y="265.758" fill="black" rt:fillperc="100%" font-size="19">ВВОД ПУСК ЗАЩ</text>
  <line x1="1441.85" y1="420.803" x2="1691.85" y2="420.803" stroke="black"/> 
  <line x1="1442.37" y1="447.486" x2="1692.37" y2="447.486" stroke="black"/> 
  <line x1="1442.37" y1="420.803" x2="1442.37" y2="564.803" stroke="black"/> 
  <line x1="1690.85" y1="420.803" x2="1692.37" y2="564.803" stroke="black"/> 
  <line x1="1680.3" y1="546.97" x2="1680.3" y2="546.97" stroke="black"/> 
  <line x1="1443.88" y1="564.151" x2="1693.88" y2="564.151" stroke="black"/> 
  <text x="1472.67" y="445.47" fill="black" rt:fillperc="100%" font-size="19">РЕГУЛЯТОР ЗА СПП</text>
  <text x="1450.94" y="494.546" fill="black" rt:fillperc="100%" font-size="19">Т зад</text>
  <text x="1449.43" y="536.97" fill="black" rt:fillperc="100%" font-size="19">Т</text>
  <image x="697.485" y="238.394" width="110" height="31.5152" xlink:href="DS_TPTS_TZB_universal.svg">
    <title>10MAX50CH001</title>
    <rt:dyn type="KKS" mode="constant" value="&quot;10MAX50CH001TE0&quot;"/> 
    <rt:dyn type="Operate" mode="constant" value="true"/> 
  </image>
  <image x="697.485" y="354.545" width="110" height="30" xlink:href="DS_TPTS_TZB_universal.svg">
    <title>10MAX50CH012</title>
    <rt:dyn type="KKS" mode="constant" value="&quot;10MAX50CH012TE0&quot;"/> 
    <rt:dyn type="Operate" mode="constant" value="true"/> 
  </image>
  <image x="697.485" y="298.485" width="110" height="30" xlink:href="DS_TPTS_TZB_universal.svg">
    <title>10MAX50CH002</title>
    <rt:dyn type="KKS" mode="constant" value="&quot;10MAX50CH002TE0&quot;"/> 
    <rt:dyn type="Operate" mode="constant" value="true"/> 
  </image>
  <image x="870.212" y="354.545" width="110" height="30" xlink:href="DS_TPTS_TZB_universal.svg">
    <title>10MAX50CH020</title>
    <rt:dyn type="KKS" mode="constant" value="&quot;10MAX50CH020TE0&quot;"/> 
    <rt:dyn type="Operate" mode="constant" value="true"/> 
  </image>
  <image x="1531.76" y="274.849" width="110" height="30" xlink:href="DS_TPTS_TZB_universal.svg">
    <title>10MAY10CH004</title>
    <rt:dyn type="KKS" mode="constant" value="&quot;10MAY10CH110TE0&quot;"/> 
    <rt:dyn type="Operate" mode="constant" value="true"/> 
  </image>
  <image x="1531.76" y="206.667" width="110" height="30" xlink:href="DS_TPTS_TZB_universal.svg">
    <title>10MAX50CH022</title>
    <rt:dyn type="KKS" mode="constant" value="&quot;10MAX50CH022TE0&quot;"/> 
    <rt:dyn type="Operate" mode="constant" value="true"/> 
  </image>
  <image x="699" y="406.061" width="175" height="25" xlink:href="DS_ana.svg">
    <title>10MAX50DS002T</title>
    <rt:dyn type="FKKS" mode="constant" value="&quot;10MAX50DS002T&quot;"/> 
    <rt:dyn type="ShowFrame" mode="constant" value="true"/> 
  </image>
  <image x="699" y="440.909" width="175" height="25" xlink:href="DS_ana.svg">
    <title>10MAX50CS901</title>
    <rt:dyn type="FKKS" mode="constant" value="&quot;10MAX50CS901&quot;"/> 
    <rt:dyn type="ShowFrame" mode="constant" value="true"/> 
  </image>
  <image x="875.758" y="810.606" width="175" height="25" xlink:href="DS_ana.svg">
    <title>10LBA50CP901</title>
    <rt:dyn type="FKKS" mode="constant" value="&quot;10LBA50CP901&quot;"/> 
  </image>
  <image x="1508.52" y="474.849" width="175" height="25" xlink:href="DS_ana.svg">
    <title>10LBB00DT001_XQ01</title>
    <rt:dyn type="FKKS" mode="constant" value="&quot;10LBB00DT001_XQ01&quot;"/> 
    <rt:dyn type="FName" mode="constant" value="true"/> 
    <rt:dyn type="ShowFrame" mode="constant" value="true"/> 
  </image>
  <image x="1507" y="520.304" width="175" height="25" xlink:href="DS_ana.svg">
    <title>10LBB00FT001</title>
    <rt:dyn type="FKKS" mode="constant" value="&quot;10LBB00FT001&quot;"/> 
    <rt:dyn type="ShowFrame" mode="constant" value="true"/> 
  </image>
  <image x="600" y="940.909" width="65" height="25" xlink:href="DS_TPTS_Reg_degree.svg">
    <title>10MAX50DU002</title>
    <rt:dyn type="KKS" mode="constant" value="&quot;10MAX50DU002&quot;"/> 
    <rt:dyn type="SIGNAL" mode="constant" value="&quot;XQ01&quot;"/> 
    <rt:dyn type="ShowFrame" mode="constant" value="true"/> 
  </image>
  <image x="600" y="857.576" width="65" height="25" xlink:href="DS_TPTS_Reg_degree.svg">
    <title>10MAY50DU003A_XQ01</title>
    <rt:dyn type="KKS" mode="constant" value="&quot;10MAY50DU003A&quot;"/> 
    <rt:dyn type="ShowFrame" mode="constant" value="true"/> 
  </image>
  <image x="597.5" y="784.849" width="70" height="65" xlink:href="DS_Reg_valve.svg">
    <title>10MAY50DU003A</title>
    <rt:dyn type="KKS" mode="constant" value="&quot;10MAY50DU003A&quot;"/> 
    <rt:dyn type="DATA_NARY" mode="constant" value="&quot;TPTS&quot;"/> 
    <rt:dyn type="Operate" mode="constant" value="true"/> 
  </image>
  <line x1="425.758" y1="380.303" x2="425.858" y2="380.303" stroke="black"/> 
  <line x1="436.364" y1="377.273" x2="684.848" y2="377.273" stroke="black"/> 
  <line x1="525" y1="375.758" x2="524.242" y2="829" stroke="black"/> 
  <line x1="525" y1="829" x2="608.515" y2="827.879" stroke="black"/> 
  <line x1="1573.67" y1="562.728" x2="1575.19" y2="608.182" stroke="black"/> 
  <line x1="272.727" y1="712.121" x2="272.827" y2="712.121" stroke="black"/> 
  <line x1="712.788" y1="586.97" x2="712.788" y2="646.061" stroke="black"/> 
  <image x="317.182" y="353.637" width="120" height="50" xlink:href="DS_TPTS_KO.svg"/> 
  <polygon points="257.787,-564.727 256.817,-534.424 282.575,-548.061" fill="black" transform="rotate(90 346.212 680.91)"/> 
  <polygon points="663.091,361.212 662.121,391.514 687.881,377.878" fill="black"/> 
  <polygon points="287.182,297.394 286.212,327.697 311.97,314.06" fill="black" transform="rotate(90 346.212 680.91)"/> 
  <image x="699" y="502.121" width="25" height="25" xlink:href="bin_indicator.svg">
    <title>10MKA01EJ621_XG01</title>
    <rt:dyn type="PointID" mode="constant" value="&quot;10MKA01EJ621_XG01&quot;"/> 
    <rt:dyn type="Col_ON" mode="constant" value="&quot;Col_Yellow&quot;"/> 
  </image>
  <image x="698.485" y="527.121" width="25.5152" height="25.7578" xlink:href="bin_indicator.svg">
    <title>10MKA01EJ617_XG01</title>
    <rt:dyn type="PointID" mode="constant" value="&quot;10MKA01EJ617_XG01&quot;"/> 
    <rt:dyn type="Col_ON" mode="constant" value="&quot;Col_Yellow&quot;"/> 
  </image>
  <image x="699" y="557.182" width="25" height="25" xlink:href="bin_indicator.svg">
    <title>10MAX50EU001_ZV01</title>
    <rt:dyn type="PointID" mode="constant" value="&quot;10MAX50EU001_ZV01&quot;"/> 
    <rt:dyn type="Col_ON" mode="constant" value="&quot;Col_Yellow&quot;"/> 
  </image>
  <image x="699" y="474.848" width="25" height="25" xlink:href="bin_indicator.svg">
    <title>10MKA01EJ613_XG01</title>
    <rt:dyn type="PointID" mode="constant" value="&quot;10MKA01EJ613_XG01&quot;"/> 
    <rt:dyn type="Col_ON" mode="constant" value="&quot;Col_Yellow&quot;"/> 
  </image>
  <image x="1053.03" y="262.212" width="25" height="25" xlink:href="bin_indicator.svg">
    <title>10MAA00EU192</title>
    <rt:dyn type="PointID" mode="constant" value="&quot;10MAA00EU192_XG01&quot;"/> 
    <rt:dyn type="Col_ON" mode="constant" value="&quot;Col_Yellow&quot;"/> 
  </image>
  <image x="1053.03" y="340.151" width="25" height="25" xlink:href="bin_indicator.svg">
    <title>10MKA01EU401A_ZV10</title>
    <rt:dyn type="PointID" mode="constant" value="&quot;10MKA01EU401A_ZV10&quot;"/> 
    <rt:dyn type="Col_ON" mode="constant" value="&quot;Col_Yellow&quot;"/> 
  </image>
  <image x="1053.03" y="418.273" width="25" height="25" xlink:href="bin_indicator.svg">
    <title>10MAY10EK110_XK95</title>
    <rt:dyn type="PointID" mode="constant" value="&quot;10MAY10EK110_XK95&quot;"/> 
    <rt:dyn type="Col_ON" mode="constant" value="&quot;Col_Yellow&quot;"/> 
  </image>
  <image x="1053.03" y="497.061" width="25" height="25" xlink:href="bin_indicator.svg">
    <title>10MAY20EZ001</title>
    <rt:dyn type="PointID" mode="constant" value="&quot;10MAY20EZ001A_XG01&quot;"/> 
    <rt:dyn type="Col_ON" mode="constant" value="&quot;Col_Yellow&quot;"/> 
  </image>
  <image x="1053.03" y="301.606" width="25" height="25" xlink:href="bin_indicator.svg">
    <title>10MAA10CG241_ZV11</title>
    <rt:dyn type="PointID" mode="constant" value="&quot;10MAA10CG241_ZV11&quot;"/> 
    <rt:dyn type="Col_ON" mode="constant" value="&quot;Col_Yellow&quot;"/> 
  </image>
  <image x="1053.03" y="456.152" width="25" height="25" xlink:href="bin_indicator.svg">
    <title>10MAY10EK100_XK95</title>
    <rt:dyn type="PointID" mode="constant" value="&quot;10MAY10EK100_XK95&quot;"/> 
    <rt:dyn type="Col_ON" mode="constant" value="&quot;Col_Yellow&quot;"/> 
  </image>
  <image x="1053.03" y="380.394" width="25" height="25" xlink:href="bin_indicator.svg">
    <title>10MAD00EZ100</title>
    <rt:dyn type="PointID" mode="constant" value="&quot;10MAD00EZ100_XG01&quot;"/> 
    <rt:dyn type="Col_ON" mode="constant" value="&quot;Col_Yellow&quot;"/> 
  </image>
  <image x="119.697" y="174.333" width="25" height="25" xlink:href="bin_indicator.svg">
    <rt:dyn type="Col_ON" mode="constant" value="&quot;Col_Yellow&quot;"/> 
  </image>
  <image x="119.697" y="253.121" width="25" height="25" xlink:href="bin_indicator.svg">
    <rt:dyn type="PointID" mode="constant" value="&quot;&quot;"/> 
    <rt:dyn type="Col_ON" mode="constant" value="&quot;Col_Yellow&quot;"/> 
  </image>
  <image x="119.697" y="212.212" width="25" height="25" xlink:href="bin_indicator.svg">
    <rt:dyn type="Col_ON" mode="constant" value="&quot;Col_Yellow&quot;"/> 
  </image>
  <text x="163.394" y="193.03" fill="black" font-size="19">Из холодного</text>
  <text x="163.394" y="230.909" fill="black" font-size="19">Из неостывшего</text>
  <text x="163.394" y="271.818" fill="black" font-size="19">Из горячего</text>
  <line x1="1375.18" y1="799.091" x2="1375.18" y2="799.091" stroke="black"/> 
  <text x="679" y="804" fill="black" rt:fillperc="100%" font-size="19">10MAY50DU003</text>
  <image x="317.182" y="477.121" width="110" height="31.5152" xlink:href="DS_TPTS_TZB_universal.svg"/> 
  <image x="1531.76" y="119.545" width="110" height="30" xlink:href="DS_TPTS_TZB_universal.svg"/> 
  <image x="877.273" y="238.394" width="100" height="30" xlink:href="DS_TPTS_Reg_set.svg">
    <rt:dyn type="KKS" mode="constant" value="&quot;10MAX50DS002K&quot;"/> 
    <rt:dyn type="Operate" mode="constant" value="true"/> 
  </image>
  <path d="M1710 747 L1710 778.5 L1711.5 780 L1730 763.5 " fill="black" transform="rotate(360 902.625 478.125)"/> 
  <line x1="1713.31" y1="763.886" x2="1676.98" y2="763.886" stroke="black"/> 
  <image x="1543.46" y="628.879" width="70" height="65" xlink:href="DS_Reg_valve.svg">
    <title>10LBB00DT001</title>
    <rt:dyn type="KKS" mode="constant" value="&quot;10LBB00DT001&quot;"/> 
    <rt:dyn type="Operate" mode="constant" value="true"/> 
    <rt:dyn type="DATA_NARY" mode="constant" value="&quot;TPTS&quot;"/> 
  </image>
  <line x1="1640.98" y1="763.553" x2="1604.65" y2="763.553" stroke="black"/> 
  <line x1="1552.65" y1="763.22" x2="1516.32" y2="763.22" stroke="black"/> 
  <text x="1370.64" y="769.636" fill="black" font-size="21">греющий пар</text>
  <text x="1547.85" y="798.606" fill="black" font-size="21">РК ГП</text>
  <image x="1546.39" y="749.939" width="65.8817" height="25.1213" xlink:href="DS_Reg_degree.svg">
    <title>10LBD00CG240</title>
    <rt:dyn type="KKS" mode="constant" value="&quot;10LBD00CG240&quot;"/> 
    <rt:dyn type="ShowFrame" mode="constant" value="true"/> 
    <rt:dyn type="SIGNAL" mode="constant" value="&quot;XQ01&quot;"/> 
  </image>
  <image x="1547.39" y="697.909" width="65" height="25" xlink:href="DS_Reg_degree.svg">
    <title>10LBB00DT001</title>
    <rt:dyn type="KKS" mode="constant" value="&quot;10LBB00DT001&quot;"/> 
    <rt:dyn type="ShowFrame" mode="constant" value="true"/> 
  </image>
  <image x="1634.27" y="736.303" width="55" height="55" xlink:href="DS_TurbValve_cutout.svg">
    <rt:dyn type="KKS" mode="constant" value="&quot;&quot;"/> 
  </image>
  <rect x="621.5" y="646.5" width="489.136" height="95.712" rx="0" ry="0" fill="none" stroke="black"/> 
  <text x="689" y="731" fill="black" font-size="21">АВТОМАТИЧЕСКОЕ ПЕРЕКЛЮЧЕНИЕ</text>
  <line x1="621" y1="704" x2="1111" y2="704" stroke="black"/> 
  <image x="756.576" y="669.701" width="25" height="25" xlink:href="bin_indicator.svg">
    <title>10MAY50DU003_XC35</title>
    <rt:dyn type="PointID" mode="constant" value="&quot;10MAY50DU003_XC35&quot;"/> 
    <rt:dyn type="Col_ON" mode="constant" value="&quot;Col_Yellow&quot;"/> 
  </image>
  <image x="653.742" y="669.701" width="25" height="25" xlink:href="bin_indicator.svg">
    <title>10MKA01EU401A_ZV60</title>
    <rt:dyn type="PointID" mode="constant" value="&quot;10MKA01EU401A_ZV60&quot;"/> 
    <rt:dyn type="Col_ON" mode="constant" value="&quot;Col_Yellow&quot;"/> 
  </image>
  <image x="952.74" y="669.701" width="25" height="25" xlink:href="bin_indicator.svg">
    <title>10MAY50DU003_XC33</title>
    <rt:dyn type="PointID" mode="constant" value="&quot;10MAY50DU003_XC33&quot;"/> 
    <rt:dyn type="Col_ON" mode="constant" value="&quot;Col_Yellow&quot;"/> 
  </image>
  <text x="625.909" y="665.788" fill="black" font-size="18">Рег P разв</text>
  <text x="729.242" y="665.788" fill="black" font-size="18">Рег Р мин</text>
  <text x="825.576" y="665.788" fill="black" font-size="18">Рег Р ном</text>
  <text x="936.58" y="665.788" fill="black" font-size="18">Рег N</text>
  <image x="854.408" y="669.701" width="25" height="25" xlink:href="bin_indicator.svg">
    <title>10MAY50DU003_XC34</title>
    <rt:dyn type="PointID" mode="constant" value="&quot;10MAY50DU003_XC34&quot;"/> 
    <rt:dyn type="Col_ON" mode="constant" value="&quot;Col_Yellow&quot;"/> 
  </image>
  <image x="1037.97" y="669.701" width="25" height="25" xlink:href="bin_indicator.svg">
    <title>10MAY50DU003_XC37</title>
    <rt:dyn type="PointID" mode="constant" value="&quot;10MAY50DU003_XC37&quot;"/> 
    <rt:dyn type="Col_ON" mode="constant" value="&quot;Col_Yellow&quot;"/> 
  </image>
  <text x="1004" y="666.288" fill="black" font-size="19">Рег Р max</text>
</svg>
