<?xml  version="1.0" encoding="windows-1251"?>
<svg color="Col_BGSand" xmlns="http://www.w3.org/2000/svg" xmlns:rt="http://www.rts.co.at/2001/XMLSchema/RtSvgPL" xmlns:xlink="http://www.w3.org/1999/xlink" xmlns:xsi="http://www.w3.org/2001/XMLSchema-instance" xsi:schemaLocation="http://www.w3.org/2000/svg C:\RTS\RtSvg\XML\SVG.xsd" viewBox="0 0 1920 980" width="1920" height="980" id="10SAM21-10SAM70">
  <rt:model modelversion="7.2.0.24" comment="Создано VNIIAES-ASUTP\seregin 18.06.2015 16:09:49"/> 
  <line x1="1425" y1="400" x2="1425" y2="150" stroke="black" stroke-width="3"/> 
  <rect x="225" y="915.151" width="928" height="59.8486" rx="0" ry="0" fill="Col_BGSand" stroke="black" stroke-width="1"/> 
  <image x="560.667" y="930" width="175" height="25" xlink:href="DS_ana.svg">
    <title>10SAM41CT005</title>
    <rt:dyn type="FKKS" mode="constant" value="&quot;10SAM41CT005&quot;"/> 
    <rt:dyn type="X" mode="constant" value="&quot;T&quot;"/> 
    <rt:dyn type="ShowFrame" mode="constant" value="true"/> 
    <rt:dyn type="ValueToTheRight" mode="constant" value="false"/> 
    <rt:dyn type="Color_Readings" mode="constant" value="true"/> 
  </image>
  <text x="11.5152" y="36.4849" font-size="32">10SAM21/10SAM28/10SAM41/10SAM70</text>
  <polygon points="887.61,432.831 897.61,449.831 877.614,449.831" transform="rotate(90 271.331 333.5)"/> 
  <line x1="118.816" y1="931.5" x2="140.783" y2="931.95" stroke="black" stroke-width="3" transform="rotate(90 143.533 962.75)"/> 
  <line x1="253.939" y1="950" x2="175" y2="950" stroke="black" stroke-width="3"/> 
  <polygon points="887.456,334.952 897.456,351.952 877.46,351.952" transform="rotate(90 271.331 333.5)"/> 
  <line x1="118.662" y1="833.621" x2="140.629" y2="834.071" stroke="black" stroke-width="3" transform="rotate(90 143.533 962.75)"/> 
  <rect x="99.3337" y="720.515" width="195.333" height="99.3333" rx="0" ry="0" fill="Col_BGSand" stroke="black"/> 
  <rect x="75" y="158" width="218.803" height="34.7273" rx="0" ry="0" fill="Col_BGmain" stroke="black"/> 
  <line x1="349.334" y1="641.516" x2="349.334" y2="585.183" stroke="black" stroke-width="3"/> 
  <line x1="375.516" y1="468.364" x2="375" y2="349.576" stroke="black" stroke-width="3"/> 
  <line x1="374.334" y1="556.516" x2="106.001" y2="556.516" stroke="black" stroke-width="3"/> 
  <text x="462.547" y="471.895" fill="black" font-size="15" text-anchor="middle">10SAM41<tspan x="462.547" dy="15">AN001</tspan>
  </text>
  <image x="137.542" y="514.258" width="70" height="65" xlink:href="DS_CO_valve.svg">
    <title>10SBH03AA001</title>
    <rt:dyn type="DATA_NARY" mode="constant" value="&quot;TYPE1&quot;"/> 
    <rt:dyn type="Operate" mode="constant" value="true"/> 
    <rt:dyn type="KKS" mode="constant" value="&quot;10SBH03AA001&quot;"/> 
  </image>
  <line x1="374.849" y1="927.698" x2="374.183" y2="478.364" stroke="black" stroke-width="3"/> 
  <polyline points="931.117,1285.09 981.117,1285.09 980.617,1335.09 931.117,1334.59 931.117,1285.09" fill="Col_BGSand" stroke="black" stroke-width="3" transform="rotate(44.0618 1325.51 325.508)"/> 
  <text x="466.413" y="626.349" fill="black" font-size="15" text-anchor="middle">10SAM41AH001</text>
  <text x="171.637" y="491.213" fill="black" font-size="15" text-anchor="middle">10SBH03<tspan x="171.637" dy="15">AA001</tspan>
  </text>
  <polygon points="374.577,918.485 384.572,935.485 364.577,935.485"/> 
  <line x1="341.542" y1="776.258" x2="410.543" y2="776.258" stroke="black"/> 
  <image x="339.542" y="847.258" width="70" height="45" xlink:href="DS_pivot_valve.svg">
    <title>10SAM41AA001</title>
    <rt:dyn type="KKS" mode="constant" value="&quot;10SAM41AA001&quot;"/> 
    <rt:dyn type="DATA_NARY" mode="constant" value="&quot;TYPE1&quot;"/> 
    <rt:dyn type="Operate" mode="constant" value="true"/> 
  </image>
  <text x="302.424" y="865.758" fill="black" font-size="15" text-anchor="middle">10SAM41<tspan x="302.424" dy="15">AA001</tspan>
  </text>
  <text x="139.819" y="794.622" font-size="15">Норма</text>
  <line x1="307.542" y1="818.258" x2="364.542" y2="817.758" stroke="black" stroke-dasharray="5,5" stroke-width="2"/> 
  <line x1="302.553" y1="735.758" x2="363.553" y2="735.258" stroke="black" stroke-dasharray="5,5" stroke-width="2"/> 
  <line x1="302.542" y1="736.258" x2="303.542" y2="818.258" stroke="black" stroke-dasharray="5,5" stroke-width="2"/> 
  <line x1="364.542" y1="728.258" x2="364.542" y2="742.258" stroke="black" stroke-width="2"/> 
  <line x1="364.542" y1="809.758" x2="364.542" y2="824.258" stroke="black" stroke-width="2"/> 
  <line x1="302.542" y1="769.758" x2="295.542" y2="769.758" stroke="black" stroke-width="2"/> 
  <text x="164.603" y="181.455" fill="black" font-size="20" text-anchor="middle">+10UMA17 R002</text>
  <polygon points="494.347,488.497 504.347,505.497 484.351,505.497" transform="rotate(90 271.331 333.5)"/> 
  <line x1="350.334" y1="641.516" x2="108.668" y2="641.516" stroke="black" stroke-width="3"/> 
  <image x="219.672" y="568.974" width="65" height="25" xlink:href="DS_Reg_degree.svg">
    <title>10SBH04AA201</title>
    <rt:dyn type="KKS" mode="constant" value="&quot;10SBH04AA001&quot;"/> 
  </image>
  <image x="217.002" y="598.474" width="70" height="65" xlink:href="DS_Reg_valve.svg">
    <title>10SBH04AA201</title>
    <rt:dyn type="DATA_NARY" mode="constant" value="&quot;TYPE1&quot;"/> 
    <rt:dyn type="Operate" mode="constant" value="true"/> 
    <rt:dyn type="KKS" mode="constant" value="&quot;10SBH04AA201&quot;"/> 
  </image>
  <polygon points="579.01,587.162 589.01,604.162 569.014,604.162" transform="flipX(58.5) rotate(90 271.331 333.5)"/> 
  <line x1="174.334" y1="648.516" x2="174.334" y2="689.015" stroke="black" stroke-width="1"/> 
  <line x1="166.834" y1="648.516" x2="181.834" y2="648.516" stroke="black" stroke-width="1"/> 
  <image x="94.3337" y="677.515" width="175" height="25" xlink:href="DS_ana.svg">
    <title>10SBH04CT001</title>
    <rt:dyn type="FKKS" mode="constant" value="&quot;10SBH04CT001&quot;"/> 
    <rt:dyn type="X" mode="constant" value="&quot;T&quot;"/> 
    <rt:dyn type="ShowFrame" mode="constant" value="true"/> 
    <rt:dyn type="ValueToTheRight" mode="constant" value="false"/> 
    <rt:dyn type="Color_Readings" mode="constant" value="true"/> 
  </image>
  <line x1="382.333" y1="687.848" x2="522.663" y2="687.848" stroke="black" stroke-width="1"/> 
  <line x1="382.513" y1="680.515" x2="382.513" y2="695.515" stroke="black" stroke-width="1"/> 
  <image x="424.333" y="836.515" width="70" height="70" xlink:href="DS_motor_rect.svg">
    <title>10SAM41AA001E</title>
    <rt:dyn type="KKS" mode="constant" value="&quot;10SAM41AA001E&quot;"/> 
    <rt:dyn type="Operate" mode="constant" value="true"/> 
  </image>
  <text x="466.121" y="815.758" fill="black" font-size="15" text-anchor="middle">10SAM41<tspan x="466.121" dy="15">AA001E</tspan>
  </text>
  <polygon points="113.827,3044.41 123.827,3061.41 103.831,3061.41" transform="flipX(279.5) flipX(1547.29) flipX(183.5) rotate(90 271.331 333.5)"/> 
  <image x="105.334" y="737.848" width="175" height="25" xlink:href="DS_ana.svg">
    <title>10SAM41CP001</title>
    <rt:dyn type="FKKS" mode="constant" value="&quot;10SAM41CP001&quot;"/> 
    <rt:dyn type="X" mode="constant" value="&quot;T&quot;"/> 
    <rt:dyn type="ShowFrame" mode="constant" value="true"/> 
    <rt:dyn type="ValueToTheRight" mode="constant" value="false"/> 
    <rt:dyn type="Color_Readings" mode="constant" value="true"/> 
  </image>
  <line x1="375" y1="350" x2="894" y2="350" stroke="black" stroke-width="3"/> 
  <image x="399.333" y="674.515" width="175" height="25" xlink:href="DS_ana.svg">
    <title>10SAM41CT001</title>
    <rt:dyn type="FKKS" mode="constant" value="&quot;10SAM41CT001&quot;"/> 
    <rt:dyn type="X" mode="constant" value="&quot;T&quot;"/> 
    <rt:dyn type="ShowFrame" mode="constant" value="true"/> 
    <rt:dyn type="ValueToTheRight" mode="constant" value="false"/> 
    <rt:dyn type="Color_Readings" mode="constant" value="true"/> 
  </image>
  <text x="455.033" y="769.622" fill="black" font-size="15" text-anchor="middle">10SAM41<tspan x="455.033" dy="15">AT001</tspan>
  </text>
  <text x="92.5758" y="938.061" fill="black" font-size="24" text-anchor="middle">Наружный<tspan x="92.5758" dy="24">воздух</tspan>
  </text>
  <line x1="385.594" y1="416.242" x2="525.924" y2="416.242" stroke="black" stroke-width="1"/> 
  <line x1="385.774" y1="408.909" x2="385.774" y2="423.909" stroke="black" stroke-width="1"/> 
  <rect x="348.955" y="371.137" width="50" height="25" rx="0" ry="0" fill="Col_BGSand" stroke="black" stroke-width="3"/> 
  <line x1="349.705" y1="394.637" x2="398.955" y2="372.637" stroke="black" stroke-width="6"/> 
  <image x="451.941" y="402.243" width="175" height="25" xlink:href="DS_ana.svg">
    <title>10SAM41CT002</title>
    <rt:dyn type="FKKS" mode="constant" value="&quot;10SAM41CT002&quot;"/> 
    <rt:dyn type="X" mode="constant" value="&quot;T&quot;"/> 
    <rt:dyn type="ShowFrame" mode="constant" value="true"/> 
    <rt:dyn type="ValueToTheRight" mode="constant" value="false"/> 
    <rt:dyn type="Color_Readings" mode="constant" value="true"/> 
  </image>
  <image x="339.542" y="436.758" width="70" height="70" xlink:href="DS_motor.svg" transform="rotate(270 0 0)">
    <title>10SAM41AN001</title>
    <rt:dyn type="KKS" mode="constant" value="&quot;10SAM41AN001&quot;"/> 
    <rt:dyn type="DATA_NARY" mode="constant" value="&quot;TYPE1&quot;"/> 
    <rt:dyn type="Operate" mode="constant" value="true"/> 
    <rt:dyn type="DeviceType" mode="constant" value="&quot;fan&quot;"/> 
  </image>
  <image x="309.334" y="511.516" width="130" height="130" xlink:href="ps_TempValve.svg">
    <title>10SAM41AH001</title>
    <rt:dyn type="KKS" mode="constant" value="&quot;10SAM41AH001&quot;"/> 
    <rt:dyn type="Operate" mode="constant" value="true"/> 
  </image>
  <rect x="616.485" y="721.667" width="195.333" height="99.3333" rx="0" ry="0" fill="Col_BGSand" stroke="black"/> 
  <line x1="866.486" y1="642.667" x2="866.486" y2="586.334" stroke="black" stroke-width="3"/> 
  <line x1="892.667" y1="467.516" x2="892.151" y2="348.728" stroke="black" stroke-width="3"/> 
  <line x1="891.486" y1="557.667" x2="623.153" y2="557.667" stroke="black" stroke-width="3"/> 
  <text x="979.698" y="473.047" fill="black" font-size="15" text-anchor="middle">10SAM41<tspan x="979.698" dy="15">AN001</tspan>
  </text>
  <image x="654.694" y="515.41" width="70" height="65" xlink:href="DS_CO_valve.svg">
    <title>10SBH03AA001</title>
    <rt:dyn type="DATA_NARY" mode="constant" value="&quot;TYPE1&quot;"/> 
    <rt:dyn type="Operate" mode="constant" value="true"/> 
    <rt:dyn type="KKS" mode="constant" value="&quot;10SBH03AA001&quot;"/> 
  </image>
  <line x1="892" y1="928.849" x2="891.335" y2="479.516" stroke="black" stroke-width="3"/> 
  <polyline points="1303.56,926.272 1353.56,926.272 1353.06,976.272 1303.56,975.772 1303.56,926.272" fill="Col_BGSand" stroke="black" stroke-width="3" transform="rotate(44.0618 1325.51 325.508)"/> 
  <text x="983.565" y="627.5" fill="black" font-size="15" text-anchor="middle">10SAM41AH001</text>
  <text x="688.789" y="492.365" fill="black" font-size="15" text-anchor="middle">10SBH03<tspan x="688.789" dy="15">AA001</tspan>
  </text>
  <polygon points="891.729,919.636 901.724,936.636 881.729,936.636"/> 
  <line x1="858.693" y1="777.41" x2="927.695" y2="777.41" stroke="black"/> 
  <image x="856.693" y="848.41" width="70" height="45" xlink:href="DS_pivot_valve.svg">
    <title>10SAM41AA001</title>
    <rt:dyn type="KKS" mode="constant" value="&quot;10SAM41AA001&quot;"/> 
    <rt:dyn type="DATA_NARY" mode="constant" value="&quot;TYPE1&quot;"/> 
    <rt:dyn type="Operate" mode="constant" value="true"/> 
  </image>
  <text x="819.576" y="866.91" fill="black" font-size="15" text-anchor="middle">10SAM41<tspan x="819.576" dy="15">AA001</tspan>
  </text>
  <text x="656.971" y="795.774" font-size="15">Норма</text>
  <line x1="824.693" y1="819.41" x2="881.693" y2="818.91" stroke="black" stroke-dasharray="5,5" stroke-width="2"/> 
  <line x1="819.705" y1="736.91" x2="880.705" y2="736.41" stroke="black" stroke-dasharray="5,5" stroke-width="2"/> 
  <line x1="819.693" y1="737.41" x2="820.693" y2="819.41" stroke="black" stroke-dasharray="5,5" stroke-width="2"/> 
  <line x1="881.693" y1="729.41" x2="881.693" y2="743.41" stroke="black" stroke-width="2"/> 
  <line x1="881.693" y1="810.91" x2="881.693" y2="825.41" stroke="black" stroke-width="2"/> 
  <line x1="819.693" y1="770.91" x2="812.693" y2="770.91" stroke="black" stroke-width="2"/> 
  <polygon points="495.499,-28.6545 505.499,-11.6545 485.503,-11.6545" transform="rotate(90 271.331 333.5)"/> 
  <line x1="867.486" y1="642.667" x2="625.82" y2="642.667" stroke="black" stroke-width="3"/> 
  <image x="736.823" y="570.125" width="65" height="25" xlink:href="DS_Reg_degree.svg">
    <title>10SBH04AA201</title>
    <rt:dyn type="KKS" mode="constant" value="&quot;10SBH04AA001&quot;"/> 
  </image>
  <image x="734.154" y="599.625" width="70" height="65" xlink:href="DS_Reg_valve.svg">
    <title>10SBH04AA201</title>
    <rt:dyn type="DATA_NARY" mode="constant" value="&quot;TYPE1&quot;"/> 
    <rt:dyn type="Operate" mode="constant" value="true"/> 
    <rt:dyn type="KKS" mode="constant" value="&quot;10SBH04AA201&quot;"/> 
  </image>
  <polygon points="580.161,1104.31 590.161,1121.31 570.166,1121.31" transform="flipX(58.5) rotate(90 271.331 333.5)"/> 
  <line x1="691.486" y1="649.667" x2="691.486" y2="690.167" stroke="black" stroke-width="1"/> 
  <line x1="683.986" y1="649.667" x2="698.986" y2="649.667" stroke="black" stroke-width="1"/> 
  <image x="611.485" y="677.667" width="175" height="25" xlink:href="DS_ana.svg">
    <title>10SBH04CT001</title>
    <rt:dyn type="FKKS" mode="constant" value="&quot;10SBH04CT001&quot;"/> 
    <rt:dyn type="X" mode="constant" value="&quot;T&quot;"/> 
    <rt:dyn type="ShowFrame" mode="constant" value="true"/> 
    <rt:dyn type="ValueToTheRight" mode="constant" value="false"/> 
    <rt:dyn type="Color_Readings" mode="constant" value="true"/> 
  </image>
  <line x1="899.484" y1="690" x2="1039.81" y2="690" stroke="black" stroke-width="1"/> 
  <line x1="899.665" y1="682.667" x2="899.665" y2="697.667" stroke="black" stroke-width="1"/> 
  <image x="941.484" y="837.667" width="70" height="70" xlink:href="DS_motor_rect.svg">
    <title>10SAM41AA001E</title>
    <rt:dyn type="KKS" mode="constant" value="&quot;10SAM41AA001E&quot;"/> 
    <rt:dyn type="Operate" mode="constant" value="true"/> 
  </image>
  <text x="983.273" y="816.91" fill="black" font-size="15" text-anchor="middle">10SAM41<tspan x="983.273" dy="15">AA001E</tspan>
  </text>
  <image x="622.486" y="739" width="175" height="25" xlink:href="DS_ana.svg">
    <title>10SAM41CP001</title>
    <rt:dyn type="FKKS" mode="constant" value="&quot;10SAM41CP001&quot;"/> 
    <rt:dyn type="X" mode="constant" value="&quot;T&quot;"/> 
    <rt:dyn type="ShowFrame" mode="constant" value="true"/> 
    <rt:dyn type="ValueToTheRight" mode="constant" value="false"/> 
    <rt:dyn type="Color_Readings" mode="constant" value="true"/> 
  </image>
  <image x="916.484" y="676.667" width="175" height="25" xlink:href="DS_ana.svg">
    <title>10SAM41CT001</title>
    <rt:dyn type="FKKS" mode="constant" value="&quot;10SAM41CT001&quot;"/> 
    <rt:dyn type="X" mode="constant" value="&quot;T&quot;"/> 
    <rt:dyn type="ShowFrame" mode="constant" value="true"/> 
    <rt:dyn type="ValueToTheRight" mode="constant" value="false"/> 
    <rt:dyn type="Color_Readings" mode="constant" value="true"/> 
  </image>
  <text x="972.185" y="770.774" fill="black" font-size="15" text-anchor="middle">10SAM41<tspan x="972.185" dy="15">AT001</tspan>
  </text>
  <line x1="902.745" y1="417.394" x2="1043.08" y2="417.394" stroke="black" stroke-width="1"/> 
  <line x1="902.926" y1="410.061" x2="902.926" y2="425.061" stroke="black" stroke-width="1"/> 
  <rect x="866.107" y="372.289" width="50" height="25" rx="0" ry="0" fill="Col_BGSand" stroke="black" stroke-width="3"/> 
  <line x1="866.857" y1="395.789" x2="916.107" y2="373.789" stroke="black" stroke-width="6"/> 
  <image x="969.093" y="403.395" width="175" height="25" xlink:href="DS_ana.svg">
    <title>10SAM41CT002</title>
    <rt:dyn type="FKKS" mode="constant" value="&quot;10SAM41CT002&quot;"/> 
    <rt:dyn type="X" mode="constant" value="&quot;T&quot;"/> 
    <rt:dyn type="ShowFrame" mode="constant" value="true"/> 
    <rt:dyn type="ValueToTheRight" mode="constant" value="false"/> 
    <rt:dyn type="Color_Readings" mode="constant" value="true"/> 
  </image>
  <image x="856.693" y="437.91" width="70" height="70" xlink:href="DS_motor.svg" transform="rotate(270 0 0)">
    <title>10SAM41AN001</title>
    <rt:dyn type="KKS" mode="constant" value="&quot;10SAM41AN001&quot;"/> 
    <rt:dyn type="DATA_NARY" mode="constant" value="&quot;TYPE1&quot;"/> 
    <rt:dyn type="Operate" mode="constant" value="true"/> 
    <rt:dyn type="DeviceType" mode="constant" value="&quot;fan&quot;"/> 
  </image>
  <image x="826.486" y="512.667" width="130" height="130" xlink:href="ps_TempValve.svg">
    <title>10SAM41AH001</title>
    <rt:dyn type="KKS" mode="constant" value="&quot;10SAM41AH001&quot;"/> 
    <rt:dyn type="Operate" mode="constant" value="true"/> 
  </image>
  <line x1="425.516" y1="350" x2="425" y2="173" stroke="black" stroke-width="3"/> 
  <polygon points="600,250 609.995,267 590,267"/> 
  <polygon points="600,124 609.995,141 590,141"/> 
  <text x="530.083" y="200" fill="black" font-size="15" text-anchor="middle">10SAM28<tspan x="530.083" dy="15">AN001</tspan>
  </text>
  <line x1="600.516" y1="256.794" x2="600" y2="132.667" stroke="black" stroke-width="3"/> 
  <image x="565" y="165" width="70" height="70" xlink:href="DS_motor.svg" transform="rotate(270 0 0)">
    <title>10SAM28AN001</title>
    <rt:dyn type="KKS" mode="constant" value="&quot;10SAM28AN001&quot;"/> 
    <rt:dyn type="DATA_NARY" mode="constant" value="&quot;TYPE1&quot;"/> 
    <rt:dyn type="Operate" mode="constant" value="true"/> 
    <rt:dyn type="DeviceType" mode="constant" value="&quot;fan&quot;"/> 
  </image>
  <text x="586.083" y="300" fill="black" font-size="20" text-anchor="middle">+10UMA29 R003</text>
  <rect x="491.333" y="156" width="617.333" height="150" rx="0" ry="0" fill="none" stroke="black"/> 
  <polygon points="816.333,250.667 826.328,267.667 806.333,267.667"/> 
  <polygon points="816.333,124.667 826.328,141.667 806.333,141.667"/> 
  <text x="746.417" y="200.667" fill="black" font-size="15" text-anchor="middle">10SAM28<tspan x="746.417" dy="15">AN002</tspan>
  </text>
  <line x1="816.849" y1="257.461" x2="816.333" y2="133.334" stroke="black" stroke-width="3"/> 
  <image x="781.333" y="165.667" width="70" height="70" xlink:href="DS_motor.svg" transform="rotate(270 0 0)">
    <title>10SAM28AN002</title>
    <rt:dyn type="KKS" mode="constant" value="&quot;10SAM28AN002&quot;"/> 
    <rt:dyn type="DATA_NARY" mode="constant" value="&quot;TYPE1&quot;"/> 
    <rt:dyn type="Operate" mode="constant" value="true"/> 
    <rt:dyn type="DeviceType" mode="constant" value="&quot;fan&quot;"/> 
  </image>
  <text x="802.417" y="300.667" fill="black" font-size="20" text-anchor="middle">+10UMA26 R003</text>
  <polygon points="1029,250.334 1038.99,267.334 1019,267.334"/> 
  <polygon points="1029,124.334 1038.99,141.334 1019,141.334"/> 
  <text x="959.084" y="200.334" fill="black" font-size="15" text-anchor="middle">10SAM28<tspan x="959.084" dy="15">AN003</tspan>
  </text>
  <line x1="1029.52" y1="257.128" x2="1029" y2="133.001" stroke="black" stroke-width="3"/> 
  <image x="994" y="165.334" width="70" height="70" xlink:href="DS_motor.svg" transform="rotate(270 0 0)">
    <title>10SAM28AN003</title>
    <rt:dyn type="KKS" mode="constant" value="&quot;10SAM28AN003&quot;"/> 
    <rt:dyn type="DATA_NARY" mode="constant" value="&quot;TYPE1&quot;"/> 
    <rt:dyn type="Operate" mode="constant" value="true"/> 
    <rt:dyn type="DeviceType" mode="constant" value="&quot;fan&quot;"/> 
  </image>
  <text x="1015.08" y="300.334" fill="black" font-size="20" text-anchor="middle">+10UMA17 R004</text>
  <line x1="695.833" y1="156" x2="695.833" y2="305.333" stroke="black"/> 
  <line x1="909.833" y1="156" x2="909.833" y2="305.333" stroke="black"/> 
  <rect x="75" y="231" width="218.318" height="34.8182" rx="0" ry="0" fill="Col_BGmain" stroke="black"/> 
  <text x="167.118" y="254.546" fill="black" font-size="20" text-anchor="middle">+10UMA04 R006</text>
  <polygon points="187.831,3043.41 197.831,3060.41 177.835,3060.41" transform="flipX(279.5) flipX(1547.29) flipX(183.5) rotate(90 271.331 333.5)"/> 
  <line x1="300" y1="250" x2="425" y2="250" stroke="black" stroke-width="3"/> 
  <line x1="300" y1="175" x2="427" y2="175" stroke="black" stroke-width="3"/> 
  <rect x="294" y="164" width="11" height="24" rx="0" ry="0"/> 
  <rect x="292" y="238" width="11" height="24" rx="0" ry="0"/> 
  <g>
    <rect x="1400" y="175" width="50" height="25" rx="0" ry="0" fill="Col_BGSand" stroke="black" stroke-width="3"/> 
    <line x1="1400.75" y1="198.5" x2="1450" y2="176.5" stroke="black" stroke-width="6"/> 
  </g>
  <text x="1386.5" y="303.5" fill="black" font-size="15" text-anchor="middle">10SAM21<tspan x="1386.5" dy="15">AN001</tspan>
  </text>
  <image x="1390" y="215" width="70" height="70" xlink:href="DS_motor.svg" transform="rotate(270 0 0)">
    <title>10SAM21AN001</title>
    <rt:dyn type="KKS" mode="constant" value="&quot;10SAM21AN001&quot;"/> 
    <rt:dyn type="DATA_NARY" mode="constant" value="&quot;TYPE1&quot;"/> 
    <rt:dyn type="Operate" mode="constant" value="true"/> 
    <rt:dyn type="DeviceType" mode="constant" value="&quot;fan&quot;"/> 
  </image>
  <polygon points="287.831,4240.41 297.831,4257.41 277.835,4257.41" transform="flipX(279.5) flipX(1547.29) flipX(183.5) rotate(90 271.331 333.5)"/> 
  <rect x="974.5" y="545.5" width="11" height="24" rx="0" ry="0" transform="rotate(90 1291.5 692)"/> 
  <polygon points="1300,465 1309.99,482 1290,482"/> 
  <line x1="1425" y1="350" x2="1475" y2="350" stroke="black" stroke-width="3"/> 
  <text x="1396" y="119.667" fill="black" font-size="20" text-anchor="middle">+10UMA17 R005</text>
  <polygon points="-11.169,-1074.17 -1.16901,-1057.17 -21.165,-1057.17" transform="rotate(90 271.331 333.5)"/> 
  <line x1="1425" y1="400" x2="1600" y2="400" stroke="black" stroke-width="3"/> 
  <line x1="1424" y1="150" x2="1600" y2="150" stroke="black" stroke-width="3"/> 
  <line x1="1600" y1="400" x2="1600" y2="150" stroke="black" stroke-width="3"/> 
  <g>
    <rect x="1575" y="175" width="50" height="25" rx="0" ry="0" fill="Col_BGSand" stroke="black" stroke-width="3"/> 
    <line x1="1575.75" y1="198.5" x2="1625" y2="176.5" stroke="black" stroke-width="6"/> 
  </g>
  <text x="1644.5" y="302.5" fill="black" font-size="15" text-anchor="middle">10SAM21<tspan x="1644.5" dy="15">AN002</tspan>
  </text>
  <image x="1565" y="215" width="70" height="70" xlink:href="DS_motor.svg" transform="rotate(270 0 0)">
    <title>10SAM21AN002</title>
    <rt:dyn type="KKS" mode="constant" value="&quot;10SAM21AN002&quot;"/> 
    <rt:dyn type="DATA_NARY" mode="constant" value="&quot;TYPE1&quot;"/> 
    <rt:dyn type="Operate" mode="constant" value="true"/> 
    <rt:dyn type="DeviceType" mode="constant" value="&quot;fan&quot;"/> 
  </image>
  <polygon points="287.831,4415.41 297.831,4432.41 277.835,4432.41" transform="flipX(279.5) flipX(1547.29) flipX(183.5) rotate(90 271.331 333.5)"/> 
  <rect x="974.5" y="370.5" width="11" height="24" rx="0" ry="0" transform="rotate(90 1291.5 692)"/> 
  <line x1="1600" y1="350" x2="1650" y2="350" stroke="black" stroke-width="3"/> 
  <line x1="1493" y1="150" x2="1493" y2="52" stroke="black" stroke-width="3"/> 
  <line x1="1543" y1="150" x2="1543" y2="52" stroke="black" stroke-width="3"/> 
  <line x1="1492" y1="52.5" x2="1668" y2="52.5" stroke="black" stroke-width="3"/> 
  <rect x="663.5" y="478.5" width="11" height="24" rx="0" ry="0" transform="rotate(90 1291.5 692)"/> 
  <rect x="663.5" y="428.5" width="11" height="24" rx="0" ry="0" transform="rotate(90 1291.5 692)"/> 
  <line x1="1515" y1="425" x2="1515" y2="399" stroke="black" stroke-width="3"/> 
  <line x1="1300" y1="425" x2="1550" y2="425" stroke="black" stroke-width="3"/> 
  <rect x="1039.5" y="670.5" width="11" height="24" rx="0" ry="0" transform="rotate(90 1291.5 692)"/> 
  <rect x="1038.5" y="420.5" width="11" height="24" rx="0" ry="0" transform="rotate(90 1291.5 692)"/> 
  <line x1="1550" y1="450" x2="1550" y2="424" stroke="black" stroke-width="3"/> 
  <line x1="1300" y1="449" x2="1300" y2="423" stroke="black" stroke-width="3"/> 
  <polygon points="1551,465 1560.99,482 1541,482"/> 
  <text x="1401" y="487" fill="black" font-size="20" text-anchor="middle">+10UMA17 R002</text>
  <text x="1654.79" y="487.106" fill="black" font-size="20" text-anchor="middle">+10UMA04 R006</text>
  <rect x="1275" y="75" width="450" height="300" rx="0" ry="0" fill="none" stroke="black"/> 
  <rect x="1690" y="213" width="0" height="0" rx="0" ry="0"/> 
  <rect x="1275" y="451" width="224" height="49" rx="0" ry="0" fill="none" stroke="black"/> 
  <rect x="1526.41" y="451" width="224" height="49" rx="0" ry="0" fill="none" stroke="black"/> 
  <line x1="1425" y1="868" x2="1425" y2="684.663" stroke="black" stroke-width="3"/> 
  <g>
    <rect x="1400.32" y="710.663" width="50" height="25" rx="0" ry="0" fill="Col_BGSand" stroke="black" stroke-width="3"/> 
    <line x1="1401.07" y1="734.163" x2="1450.32" y2="712.163" stroke="black" stroke-width="6"/> 
  </g>
  <text x="1386" y="839" fill="black" font-size="15" text-anchor="middle">10SAM70<tspan x="1386" dy="15">AN001</tspan>
  </text>
  <image x="1390.32" y="750.663" width="70" height="70" xlink:href="DS_motor.svg" transform="rotate(270 0 0)">
    <title>10SAM70AN001</title>
    <rt:dyn type="KKS" mode="constant" value="&quot;10SAM70AN001&quot;"/> 
    <rt:dyn type="DATA_NARY" mode="constant" value="&quot;TYPE1&quot;"/> 
    <rt:dyn type="Operate" mode="constant" value="true"/> 
    <rt:dyn type="DeviceType" mode="constant" value="&quot;fan&quot;"/> 
  </image>
  <line x1="1425.32" y1="866.663" x2="1600.32" y2="866.663" stroke="black" stroke-width="3"/> 
  <line x1="1424.32" y1="685.663" x2="1600.32" y2="685.663" stroke="black" stroke-width="3"/> 
  <line x1="1601" y1="868" x2="1600.32" y2="684.663" stroke="black" stroke-width="3"/> 
  <g>
    <rect x="1575.32" y="710.663" width="50" height="25" rx="0" ry="0" fill="Col_BGSand" stroke="black" stroke-width="3"/> 
    <line x1="1576.07" y1="734.163" x2="1625.32" y2="712.163" stroke="black" stroke-width="6"/> 
  </g>
  <text x="1644.82" y="838.163" fill="black" font-size="15" text-anchor="middle">10SAM70<tspan x="1644.82" dy="15">AN002</tspan>
  </text>
  <image x="1565.32" y="750.663" width="70" height="70" xlink:href="DS_motor.svg" transform="rotate(270 0 0)">
    <title>10SAM70AN002</title>
    <rt:dyn type="KKS" mode="constant" value="&quot;10SAM70AN002&quot;"/> 
    <rt:dyn type="DATA_NARY" mode="constant" value="&quot;TYPE1&quot;"/> 
    <rt:dyn type="Operate" mode="constant" value="true"/> 
    <rt:dyn type="DeviceType" mode="constant" value="&quot;fan&quot;"/> 
  </image>
  <polygon points="828.827,4330.41 838.827,4347.41 818.831,4347.41" transform="flipX(279.5) flipX(1547.29) flipX(183.5) rotate(90 271.331 333.5)"/> 
  <rect x="1514.5" y="454.5" width="11" height="24" rx="0" ry="0" transform="rotate(90 1291.5 692)"/> 
  <line x1="1515" y1="890.996" x2="1565" y2="890.996" stroke="black" stroke-width="3"/> 
  <line x1="1543.32" y1="685.663" x2="1543.32" y2="587.663" stroke="black" stroke-width="3"/> 
  <rect x="1199.16" y="428.182" width="11" height="24" rx="0" ry="0" transform="rotate(90 1291.5 692)"/> 
  <line x1="1515.67" y1="918" x2="1515.32" y2="865.663" stroke="black" stroke-width="3"/> 
  <polygon points="1517,933 1526.99,950 1507,950"/> 
  <text x="1623.21" y="961.273" fill="black" font-size="20" text-anchor="middle">+10UMA10 R005</text>
  <rect x="1275.32" y="610.663" width="450" height="300" rx="0" ry="0" fill="none" stroke="black"/> 
  <rect x="1276.33" y="925" width="450.667" height="47.6666" rx="0" ry="0" fill="none" stroke="black"/> 
  <text x="1383" y="902" fill="black" font-size="20" text-anchor="middle">+10UMA10 R007</text>
  <polygon points="1544,571.333 1553.99,588.333 1534,588.333"/> 
  <text x="1053.18" y="961.212" fill="black" font-size="20" text-anchor="middle">+10UGB26 R003</text>
  <polygon points="25,275 475,275 475,325 1153.33,325 1153.33,915.333 25,914.242" fill="none" stroke="black"/> 
</svg>
