<?xml  version="1.0" encoding="windows-1251"?>
<svg color="Col_BGSand" xmlns="http://www.w3.org/2000/svg" xmlns:rt="http://www.rts.co.at/2001/XMLSchema/RtSvgPL" xmlns:xlink="http://www.w3.org/1999/xlink" xmlns:xsi="http://www.w3.org/2001/XMLSchema-instance" xsi:schemaLocation="http://www.w3.org/2000/svg C:\RTS\RtSvg\XML\SVG.xsd" viewBox="0 0 1920 980" width="1920" height="980" id="10SAM23/10SAM24/10SAM26,10LFN30/10LDB20/10SBS08">
  <rt:model modelversion="7.2.0.23" comment="loginov" revision="2.0"/> 
  <line x1="1720.3" y1="364.416" x2="1520.3" y2="364.416" stroke="black" stroke-width="1"/> 
  <line x1="513" y1="593" x2="513" y2="593"/> 
  <line x1="438" y1="887" x2="0" y2="0"/> 
  <line x1="608" y1="914" x2="608" y2="914" stroke="black"/> 
  <text x="347.909" y="221.083" fill="black" font-size="15">10SAM23<tspan x="347.909" dy="15">AN002</tspan>
  </text>
  <text x="17.576" y="50.5151" font-size="32">10SAM23/10SAM24/10SAM26</text>
  <text x="33" y="219.583" fill="black" font-size="15">10SAM23<tspan x="33" dy="15">AN001</tspan>
  </text>
  <line x1="146.5" y1="94.5" x2="146.5" y2="300.5" stroke="black" stroke-width="3"/> 
  <line x1="305" y1="94.5" x2="305" y2="300.5" stroke="black" stroke-width="3"/> 
  <line x1="146" y1="299" x2="305" y2="299" stroke="black" stroke-width="3"/> 
  <rect x="121.5" y="144" width="50" height="25" rx="0" ry="0" fill="Col_BGSand" stroke="black" stroke-width="3"/> 
  <line x1="121.867" y1="167.5" x2="171.117" y2="145.5" stroke="black" stroke-width="6"/> 
  <rect x="280.75" y="144" width="50" height="25" rx="0" ry="0" fill="Col_BGSand" stroke="black" stroke-width="3"/> 
  <line x1="280.974" y1="167.489" x2="330.224" y2="145.489" stroke="black" stroke-width="6"/> 
  <image x="111.258" y="187.083" width="70" height="70" xlink:href="DS_motor.svg" transform="rotate(270 0 0)">
    <title>10SAM23AN001</title>
    <rt:dyn type="KKS" mode="constant" value="&quot;10SAM23AN001&quot;"/> 
    <rt:dyn type="DATA_NARY" mode="constant" value="&quot;TYPE1&quot;"/> 
    <rt:dyn type="DeviceType" mode="constant" value="&quot;fan&quot;"/> 
    <rt:dyn type="Operate" mode="constant" value="true"/> 
  </image>
  <image x="269.5" y="188.583" width="70" height="70" xlink:href="DS_motor.svg" transform="rotate(270 0 0)">
    <title>10SAM23AN002</title>
    <rt:dyn type="KKS" mode="constant" value="&quot;10SAM23AN002&quot;"/> 
    <rt:dyn type="Operate" mode="constant" value="true"/> 
    <rt:dyn type="DeviceType" mode="constant" value="&quot;fan&quot;"/> 
    <rt:dyn type="DATA_NARY" mode="constant" value="&quot;TYPE1&quot;"/> 
  </image>
  <polygon points="230.33,337.752 220.67,337.752 225.17,323.252"/> 
  <line x1="459.5" y1="374.5" x2="459.5" y2="399.5" stroke="black" stroke-width="3" transform="rotate(90 375 237.5)"/> 
  <line x1="225.546" y1="300.006" x2="225.454" y2="321.252" stroke="black" stroke-width="3"/> 
  <polygon points="151.41,99.5 141.75,99.5 146.25,85"/> 
  <polygon points="309.91,99.5 300.25,99.5 304.75,85"/> 
  <line x1="451" y1="0" x2="451" y2="350" stroke="black" stroke-dasharray="5,5" stroke-width="2"/> 
  <line x1="0" y1="345" x2="900.5" y2="344.75" stroke="black" stroke-dasharray="5,5" stroke-width="2"/> 
  <line x1="900" y1="0" x2="900" y2="350" stroke="black" stroke-dasharray="5,5" stroke-width="2"/> 
  <text x="800.909" y="221.083" fill="black" font-size="15">10SAM24<tspan x="800.909" dy="15">AN002</tspan>
  </text>
  <text x="486" y="219.583" fill="black" font-size="15">10SAM24<tspan x="486" dy="15">AN001</tspan>
  </text>
  <line x1="599.5" y1="94.5" x2="599.5" y2="300.5" stroke="black" stroke-width="3"/> 
  <line x1="758" y1="94.5" x2="758" y2="300.5" stroke="black" stroke-width="3"/> 
  <line x1="599" y1="299" x2="758" y2="299" stroke="black" stroke-width="3"/> 
  <rect x="574.5" y="144" width="50" height="25" rx="0" ry="0" fill="Col_BGSand" stroke="black" stroke-width="3"/> 
  <line x1="574.867" y1="167.5" x2="624.117" y2="145.5" stroke="black" stroke-width="6"/> 
  <rect x="733.75" y="144" width="50" height="25" rx="0" ry="0" fill="Col_BGSand" stroke="black" stroke-width="3"/> 
  <line x1="733.974" y1="167.489" x2="783.224" y2="145.489" stroke="black" stroke-width="6"/> 
  <image x="564.258" y="187.083" width="70" height="70" xlink:href="DS_motor.svg" transform="rotate(270 0 0)">
    <title>10SAM24AN001</title>
    <rt:dyn type="KKS" mode="constant" value="&quot;10SAM24AN001&quot;"/> 
    <rt:dyn type="DATA_NARY" mode="constant" value="&quot;TYPE1&quot;"/> 
    <rt:dyn type="DeviceType" mode="constant" value="&quot;fan&quot;"/> 
    <rt:dyn type="Operate" mode="constant" value="true"/> 
  </image>
  <image x="722.5" y="188.583" width="70" height="70" xlink:href="DS_motor.svg" transform="rotate(270 0 0)">
    <title>10SAM24AN002</title>
    <rt:dyn type="KKS" mode="constant" value="&quot;10SAM24AN002&quot;"/> 
    <rt:dyn type="Operate" mode="constant" value="true"/> 
    <rt:dyn type="DeviceType" mode="constant" value="&quot;fan&quot;"/> 
    <rt:dyn type="DATA_NARY" mode="constant" value="&quot;TYPE1&quot;"/> 
  </image>
  <polygon points="683.33,337.752 673.67,337.752 678.17,323.252"/> 
  <line x1="459.5" y1="-78.5" x2="459.5" y2="-53.5" stroke="black" stroke-width="3" transform="rotate(90 375 237.5)"/> 
  <line x1="678.546" y1="300.006" x2="678.454" y2="321.252" stroke="black" stroke-width="3"/> 
  <polygon points="604.41,99.5 594.75,99.5 599.25,85"/> 
  <polygon points="762.91,99.5 753.25,99.5 757.75,85"/> 
  <text x="558.909" y="652.083" fill="black" font-size="15">10SAM26<tspan x="558.909" dy="15">AN002</tspan>
  </text>
  <text x="244" y="650.583" fill="black" font-size="15">10SAM26<tspan x="244" dy="15">AN001</tspan>
  </text>
  <line x1="357.5" y1="525.5" x2="357.5" y2="731.5" stroke="black" stroke-width="3"/> 
  <line x1="516" y1="525.5" x2="516" y2="731.5" stroke="black" stroke-width="3"/> 
  <line x1="357" y1="730" x2="516" y2="730" stroke="black" stroke-width="3"/> 
  <rect x="332.5" y="575" width="50" height="25" rx="0" ry="0" fill="Col_BGSand" stroke="black" stroke-width="3"/> 
  <line x1="332.867" y1="598.5" x2="382.117" y2="576.5" stroke="black" stroke-width="6"/> 
  <rect x="491.75" y="575" width="50" height="25" rx="0" ry="0" fill="Col_BGSand" stroke="black" stroke-width="3"/> 
  <line x1="491.974" y1="598.489" x2="541.224" y2="576.489" stroke="black" stroke-width="6"/> 
  <image x="322.258" y="618.083" width="70" height="70" xlink:href="DS_motor.svg" transform="rotate(270 0 0)">
    <title>10SAM26AN001</title>
    <rt:dyn type="KKS" mode="constant" value="&quot;10SAM26AN001&quot;"/> 
    <rt:dyn type="DATA_NARY" mode="constant" value="&quot;TYPE1&quot;"/> 
    <rt:dyn type="DeviceType" mode="constant" value="&quot;fan&quot;"/> 
    <rt:dyn type="Operate" mode="constant" value="true"/> 
  </image>
  <image x="480.5" y="619.583" width="70" height="70" xlink:href="DS_motor.svg" transform="rotate(270 0 0)">
    <title>10SAM26AN002</title>
    <rt:dyn type="KKS" mode="constant" value="&quot;10SAM26AN002&quot;"/> 
    <rt:dyn type="Operate" mode="constant" value="true"/> 
    <rt:dyn type="DeviceType" mode="constant" value="&quot;fan&quot;"/> 
    <rt:dyn type="DATA_NARY" mode="constant" value="&quot;TYPE1&quot;"/> 
  </image>
  <polygon points="441.33,768.752 431.67,768.752 436.17,754.252"/> 
  <line x1="890.5" y1="163.5" x2="890.5" y2="188.5" stroke="black" stroke-width="3" transform="rotate(90 375 237.5)"/> 
  <line x1="436.546" y1="731.006" x2="436.454" y2="752.252" stroke="black" stroke-width="3"/> 
  <polygon points="362.41,530.5 352.75,530.5 357.25,516"/> 
  <polygon points="520.91,530.5 511.25,530.5 515.75,516"/> 
  <line x1="960" y1="-0.42424" x2="960" y2="979.576" stroke="black" stroke-width="2"/> 
  <line x1="1110" y1="298" x2="1110" y2="298" stroke="black"/> 
  <rect x="1519.5" y="289.5" width="199.6" height="128.833" rx="0" ry="0" fill="none" stroke="black" stroke-width="3"/> 
  <line x1="1719.3" y1="309.416" x2="1519.3" y2="309.416" stroke="black" stroke-width="1"/> 
  <text x="1561.9" y="304.416" fill="black" font-size="15">10LDB30BB001</text>
  <line x1="1523.34" y1="418.251" x2="1619.34" y2="446.501" stroke="black" stroke-width="3"/> 
  <line x1="1714.67" y1="418.417" x2="1618.34" y2="446.251" stroke="black" stroke-width="3"/> 
  <line x1="1060.98" y1="317" x2="1060.98" y2="654" stroke="black" stroke-width="3"/> 
  <line x1="1030.48" y1="318" x2="1091.48" y2="318" stroke="black" stroke-width="3"/> 
  <image x="1016.98" y="338" width="70" height="65" xlink:href="DS_CO_valve.svg" transform="rotate(270 0 -10)"/> 
  <text x="1103.41" y="485.5" fill="black" font-size="15">10LFN30<tspan x="1103.41" dy="15">AP001</tspan>
  </text>
  <image x="1025.98" y="453" width="70" height="70" xlink:href="DS_motor.svg" transform="flipY(-1.13687e-013) rotate(270 0 0)">
    <title>10LFN30AP001</title>
    <rt:dyn type="KKS" mode="constant" value="&quot;10LFN30AP001&quot;"/> 
    <rt:dyn type="Operate" mode="constant" value="true"/> 
    <rt:dyn type="DeviceType" mode="constant" value="&quot;compr&quot;"/> 
    <rt:dyn type="DATA_NARY" mode="constant" value="&quot;TYPE1&quot;"/> 
  </image>
  <polygon points="1053.31,548.5 1068.31,548.5 1060.98,578.5" fill="Col_Grey2" stroke="black"/> 
  <line x1="1030.48" y1="653.5" x2="1091.48" y2="653.5" stroke="black" stroke-width="3"/> 
  <rect x="1225" y="314" width="234" height="122" rx="0" ry="0" fill="none" stroke="black" stroke-width="3"/> 
  <circle cx="1250.37" cy="338.974" r="16" fill="none" stroke="black" stroke-width="2"/> 
  <circle cx="1432.37" cy="338.974" r="16" fill="none" stroke="black" stroke-width="2"/> 
  <circle cx="1250.37" cy="409.474" r="16" fill="none" stroke="black" stroke-width="2"/> 
  <circle cx="1432.37" cy="409.474" r="16" fill="none" stroke="black" stroke-width="2"/> 
  <text x="1282.5" y="380" fill="black" font-size="15">10SBS07AA201</text>
  <image x="1254.5" y="278" width="175" height="25" xlink:href="DS_ana.svg">
    <title>10SBS07CT001</title>
    <rt:dyn type="FKKS" mode="constant" value="&quot;10SBS07CT001&quot;"/> 
    <rt:dyn type="X" mode="constant" value="&quot;T&quot;"/> 
    <rt:dyn type="ShowGoodColor" mode="constant" value="true"/> 
    <rt:dyn type="Color_Readings" mode="constant" value="true"/> 
    <rt:dyn type="ShowEU" mode="constant" value="true"/> 
    <rt:dyn type="ShowFrame" mode="constant" value="true"/> 
  </image>
  <line x1="1250" y1="425.379" x2="1250" y2="669.379" stroke="black" stroke-width="3"/> 
  <line x1="1432.65" y1="425.379" x2="1432.65" y2="669.379" stroke="black" stroke-width="3"/> 
  <line x1="1202" y1="670" x2="1486" y2="670" stroke="black" stroke-width="3"/> 
  <image x="1389" y="448" width="70" height="65" xlink:href="DS_CO_valve.svg" transform="rotate(270 0 -10)"/> 
  <image x="1387.67" y="547.333" width="70" height="65" xlink:href="DS_Reg_valve.svg" transform="rotate(270 -1.52178e-006 -9.99999)">
    <title>10SBS08AA201</title>
    <rt:dyn type="KKS" mode="constant" value="&quot;10SBS08AA201&quot;"/> 
    <rt:dyn type="DATA_NARY" mode="constant" value="&quot;TYPE1&quot;"/> 
    <rt:dyn type="Operate" mode="constant" value="true"/> 
  </image>
  <image x="1319" y="567.333" width="65" height="25" xlink:href="DS_Reg_degree.svg">
    <title>10SBS08AA201</title>
    <rt:dyn type="KKS" mode="constant" value="&quot;10SBS08AA201&quot;"/> 
  </image>
  <image x="1246" y="628.5" width="70" height="65" xlink:href="DS_CO_valve.svg" transform="rotate(360 0 -10)"/> 
  <image x="1306" y="628.5" width="70" height="65" xlink:href="DS_CO_valve.svg" transform="rotate(360 0 -10)"/> 
  <image x="1366" y="628.5" width="70" height="65" xlink:href="DS_CO_valve.svg" transform="rotate(360 0 -10)"/> 
  <image x="1584.3" y="319.916" width="70" height="70" xlink:href="ps_Mixer.svg">
    <title>10LDF15AM001</title>
    <rt:dyn type="KKS" mode="constant" value="&quot;10LDF15AM001&quot;"/> 
    <rt:dyn type="TYPE" mode="constant" value="&quot;TYPE1&quot;"/> 
    <rt:dyn type="Operate" mode="constant" value="true"/> 
  </image>
  <text x="1560.4" y="403.417" fill="black" font-size="15">10LDF15AM001</text>
  <line x1="1618" y1="445.333" x2="1618" y2="536" stroke="black" stroke-width="3"/> 
  <line x1="1187.15" y1="2.07312" x2="1187.15" y2="982.073" stroke="black" stroke-dasharray="5,5" stroke-width="2"/> 
  <line x1="1501.3" y1="2.07312" x2="1501.3" y2="982.073" stroke="black" stroke-dasharray="5,5" stroke-width="2"/> 
  <line x1="1737.67" y1="2.0731" x2="1737.67" y2="982.072" stroke="black" stroke-dasharray="5,5" stroke-width="2"/> 
  <line x1="1788.61" y1="436" x2="1788.61" y2="663.136" stroke="black" stroke-width="3"/> 
  <line x1="1758.11" y1="435.136" x2="1819.11" y2="435.136" stroke="black" stroke-width="3"/> 
  <image x="1753.61" y="514.568" width="70" height="70" xlink:href="DS_motor.svg" transform="flipY(-1.13687e-013) rotate(270 0 0)">
    <title>10GKF27AP001</title>
    <rt:dyn type="KKS" mode="constant" value="&quot;10GKF27AP001&quot;"/> 
    <rt:dyn type="Operate" mode="constant" value="true"/> 
    <rt:dyn type="DeviceType" mode="constant" value="&quot;compr&quot;"/> 
    <rt:dyn type="DATA_NARY" mode="constant" value="&quot;TYPE1&quot;"/> 
  </image>
  <line x1="1758.11" y1="662.636" x2="1819.11" y2="662.636" stroke="black" stroke-width="3"/> 
  <text x="1835.79" y="547.068" fill="black" font-size="15">10GKF27<tspan x="1835.79" dy="15">AP001</tspan>
  </text>
  <image x="973.485" y="416.727" width="175" height="25" xlink:href="DS_ana.svg">
    <title>10LFN30CP001</title>
    <rt:dyn type="FKKS" mode="constant" value="&quot;10LFN30CP001&quot;"/> 
    <rt:dyn type="X" mode="constant" value="&quot;P&quot;"/> 
    <rt:dyn type="ShowGoodColor" mode="constant" value="true"/> 
    <rt:dyn type="Color_Readings" mode="constant" value="true"/> 
    <rt:dyn type="ShowEU" mode="constant" value="true"/> 
    <rt:dyn type="ShowFrame" mode="constant" value="true"/> 
  </image>
  <text x="975.151" y="50.5151" font-size="32">10LFN30/10LDB20/10SBS08</text>
</svg>
