<?xml  version="1.0" encoding="windows-1251"?>
<svg color="Col_BGSand" xmlns="http://www.w3.org/2000/svg" xmlns:rt="http://www.rts.co.at/2001/XMLSchema/RtSvgPL" xmlns:xlink="http://www.w3.org/1999/xlink" xmlns:xsi="http://www.w3.org/2001/XMLSchema-instance" xsi:schemaLocation="http://www.w3.org/2000/svg C:\RTS\RtSvg\XML\SVG.xsd" viewBox="0 0 1914 1000" width="1914" height="1000" id="11jna_2">
  <title>Система аварийного и планового расхолаживания 1 контура и охлаждение бассейна выдержки - JNA4</title>
  <rt:model modelversion="7.2.0.23" comment="Создано VNIIAES-ASUTP\18.01.2012 11:22:09"/> 
  <line x1="877" y1="942.833" x2="915.167" y2="942.833" stroke="black"/> 
  <line x1="1393" y1="117.576" x2="1393" y2="192" stroke="black" stroke-width="3"/> 
  <text x="990.06" y="45.4545" font-size="32">11JNA-2</text>
  <line x1="788.061" y1="540" x2="1072" y2="540" stroke="black" stroke-width="3"/> 
  <line x1="825" y1="539.394" x2="825" y2="695.794" stroke="black" stroke-width="3"/> 
  <text x="455.757" y="851.485" font-size="15">11JNA10<tspan x="455.757" dy="15">AA003</tspan>
  </text>
  <line x1="754" y1="803.03" x2="754" y2="918.152" stroke="black" stroke-width="3"/> 
  <line x1="617.03" y1="804" x2="756.424" y2="804" stroke="black" stroke-width="3"/> 
  <image x="650.212" y="773.242" width="70" height="52.5" xlink:href="DS_reflux_valve.svg" transform="flipX(1.30679e-005) rotate(0 0 -3.75)">
    <title>&quot;11JNA10AA603&quot;</title>
    <rt:dyn type="KKS" mode="constant" value="&quot;11JNA10AA603&quot;"/> 
    <rt:dyn type="DATA_NARY" mode="constant" value="&quot;TPTS&quot;"/> 
  </image>
  <image x="635.606" y="946.97" width="175" height="25" xlink:href="DS_ana.svg">
    <title>11JNA10CT001</title>
    <rt:dyn type="FKKS" mode="constant" value="&quot;11JNA10CT001&quot;"/> 
    <rt:dyn type="X" mode="constant" value="&quot;T&quot;"/> 
    <rt:dyn type="ShowFrame" mode="constant" value="true"/> 
    <rt:dyn type="Color_Readings" mode="constant" value="true"/> 
    <rt:dyn type="ValueToTheRight" mode="constant" value="false"/> 
  </image>
  <line x1="1035" y1="781.818" x2="1035" y2="918.981" stroke="black" stroke-width="3"/> 
  <line x1="1071" y1="113.636" x2="1071" y2="916.667" stroke="black" stroke-width="3"/> 
  <line x1="1503" y1="414.401" x2="1503" y2="916.061" stroke="black" stroke-width="3"/> 
  <rect x="636.545" y="146.97" width="1271.96" height="17" rx="0" ry="0" fill="url(#PortalHatch1)" stroke="black" stroke-width="3"/> 
  <rect x="1390.91" y="150" width="8" height="16" rx="0" ry="0" fill="Col_BGSand" stroke="black"/> 
  <rect x="1389.27" y="149.28" width="9.13629" height="16.2124" rx="0" ry="0" fill="Col_BGSand" stroke="black"/> 
  <line x1="1503" y1="116.061" x2="1503" y2="280.303" stroke="black" stroke-width="3"/> 
  <rect x="1497.91" y="147.992" width="8.5" height="15.5" rx="0" ry="0" fill="Col_BGSand" stroke="black"/> 
  <text x="1449.27" y="115.994" fill="black" font-size="15" text-anchor="middle">11JNA-1</text>
  <text x="1017.3" y="115.994" fill="black" font-size="15" text-anchor="middle">11JNA-1</text>
  <text x="1874.35" y="139.5" fill="black" font-size="15" text-anchor="middle">UJA</text>
  <text x="1872.5" y="181.652" fill="black" font-size="15" text-anchor="middle">UKA</text>
  <image x="1324.18" y="245.636" width="175" height="25" xlink:href="DS_ana.svg">
    <title>11JNA12CF902</title>
    <rt:dyn type="FKKS" mode="constant" value="&quot;11JNA12CF902&quot;"/> 
    <rt:dyn type="X" mode="constant" value="&quot;F&quot;"/> 
    <rt:dyn type="ShowFrame" mode="constant" value="true"/> 
    <rt:dyn type="Color_Readings" mode="constant" value="true"/> 
    <rt:dyn type="ValueToTheRight" mode="constant" value="false"/> 
  </image>
  <g>
    <circle cx="1502.32" cy="385.562" r="28.7879" fill="none" stroke="black" stroke-width="3"/> 
    <line x1="1482.82" y1="365.913" x2="1470.7" y2="278.034" stroke="black" stroke-width="3"/> 
    <line x1="1522.21" y1="365.913" x2="1534.33" y2="280.034" stroke="black" stroke-width="3"/> 
    <line x1="1470.7" y1="279.55" x2="1535.85" y2="279.55" stroke="black" stroke-width="3"/> 
  </g>
  <image x="1320.58" y="441.364" width="175" height="25" xlink:href="DS_ana.svg">
    <title>11JNA12CF901</title>
    <rt:dyn type="FKKS" mode="constant" value="&quot;11JNA12CF901&quot;"/> 
    <rt:dyn type="X" mode="constant" value="&quot;F&quot;"/> 
    <rt:dyn type="ShowFrame" mode="constant" value="true"/> 
    <rt:dyn type="Color_Readings" mode="constant" value="true"/> 
    <rt:dyn type="ValueToTheRight" mode="constant" value="false"/> 
  </image>
  <image x="1472" y="482.5" width="70" height="52.5" xlink:href="DS_reflux_valve.svg" transform="rotate(90 0 -3.75)">
    <title>&quot;11JNA12AA601&quot;</title>
    <rt:dyn type="DATA_NARY" mode="constant" value="&quot;TPTS&quot;"/> 
    <rt:dyn type="KKS" mode="constant" value="&quot;11JNA12AA601&quot;"/> 
  </image>
  <text x="1390.33" y="698.606" font-size="15">11JNA12<tspan x="1390.33" dy="15">AP001</tspan>
  </text>
  <image x="1469.06" y="650.788" width="70" height="70" xlink:href="DS_motor.svg" transform="rotate(270 0 0) flipX() flipX()">
    <title>&quot;11JNA12AP001&quot;</title>
    <rt:dyn type="KKS" mode="constant" value="&quot;11JNA12AP001&quot;"/> 
    <rt:dyn type="DATA_NARY" mode="constant" value="&quot;TPTS&quot;"/> 
    <rt:dyn type="Operate" mode="constant" value="true"/> 
  </image>
  <image x="1320.58" y="560" width="175" height="25" xlink:href="DS_ana.svg">
    <title>11JNA12CP902</title>
    <rt:dyn type="FKKS" mode="constant" value="&quot;11JNA12CP902&quot;"/> 
    <rt:dyn type="X" mode="constant" value="&quot;P&quot;"/> 
    <rt:dyn type="ShowFrame" mode="constant" value="true"/> 
    <rt:dyn type="Color_Readings" mode="constant" value="true"/> 
    <rt:dyn type="ValueToTheRight" mode="constant" value="false"/> 
  </image>
  <image x="1320.58" y="780.273" width="175" height="25" xlink:href="DS_ana.svg">
    <title>11JNA12CP901</title>
    <rt:dyn type="FKKS" mode="constant" value="&quot;11JNA12CP901&quot;"/> 
    <rt:dyn type="X" mode="constant" value="&quot;P&quot;"/> 
    <rt:dyn type="ShowFrame" mode="constant" value="true"/> 
    <rt:dyn type="Color_Readings" mode="constant" value="true"/> 
    <rt:dyn type="ValueToTheRight" mode="constant" value="false"/> 
  </image>
  <text x="1527" y="873.492" font-size="15">11JNA12<tspan x="1527" dy="15">AA006</tspan>
  </text>
  <image x="1458" y="840.492" width="70" height="65" xlink:href="DS_CO_valve.svg" transform="flipY(-10) rotate(270 0 -10)">
    <title>&quot;11JNA12AA006&quot;</title>
    <rt:dyn type="KKS" mode="constant" value="&quot;11JNA12AA006&quot;"/> 
    <rt:dyn type="DATA_NARY" mode="constant" value="&quot;TPTS&quot;"/> 
    <rt:dyn type="Operate" mode="constant" value="true"/> 
  </image>
  <line x1="1612.3" y1="828" x2="1502" y2="828" stroke="black" stroke-width="3"/> 
  <line x1="1612.3" y1="386" x2="1531" y2="386" stroke="black" stroke-width="3"/> 
  <line x1="1610" y1="828.182" x2="1610" y2="384.992" stroke="black" stroke-width="3"/> 
  <image x="1579" y="482.5" width="70" height="52.5" xlink:href="DS_reflux_valve.svg" transform="rotate(90 0 -3.75)">
    <title>&quot;11JNA12AA602&quot;</title>
    <rt:dyn type="KKS" mode="constant" value="&quot;11JNA12AA602&quot;"/> 
    <rt:dyn type="DATA_NARY" mode="constant" value="&quot;TPTS&quot;"/> 
  </image>
  <g transform="flipY(410.77) rotate(90 555.27 359.305)">
    <path d="M595.752 964.301 A8 9.305 0 1 0 595.752 982.911 " fill="none" stroke="black" stroke-width="3" transform="flipY() translate(0 -828) translate(229.642 442.62)"/> 
  </g>
  <line x1="1510.79" y1="192" x2="1730.48" y2="192" stroke="black" stroke-width="3"/> 
  <text x="1770.64" y="698.606" font-size="15">11JNA11<tspan x="1770.64" dy="15">AP001</tspan>
  </text>
  <image x="1735.55" y="788.5" width="175" height="25" xlink:href="DS_ana.svg">
    <title>11JNA11CP901</title>
    <rt:dyn type="FKKS" mode="constant" value="&quot;11JNA11CP901&quot;"/> 
    <rt:dyn type="X" mode="constant" value="&quot;P&quot;"/> 
    <rt:dyn type="ShowFrame" mode="constant" value="true"/> 
    <rt:dyn type="Color_Readings" mode="constant" value="true"/> 
    <rt:dyn type="ValueToTheCenter" mode="constant" value="false"/> 
  </image>
  <line x1="1729" y1="192" x2="1729" y2="918.061" stroke="black" stroke-width="3"/> 
  <image x="1698.42" y="244.848" width="70" height="52.5" xlink:href="DS_reflux_valve.svg" transform="rotate(90 0 -3.75)">
    <title>&quot;11JNA11AA601&quot;</title>
    <rt:dyn type="KKS" mode="constant" value="&quot;11JNA11AA601&quot;"/> 
    <rt:dyn type="DATA_NARY" mode="constant" value="&quot;TPTS&quot;"/> 
  </image>
  <image x="1693" y="650.788" width="70" height="70" xlink:href="DS_motor.svg" transform="rotate(270 0 0) flipX() flipX()">
    <title>&quot;11JNA11AP001&quot;</title>
    <rt:dyn type="KKS" mode="constant" value="&quot;11JNA11AP001&quot;"/> 
    <rt:dyn type="DATA_NARY" mode="constant" value="&quot;TPTS&quot;"/> 
    <rt:dyn type="Operate" mode="constant" value="true"/> 
  </image>
  <text x="1756.24" y="873.492" font-size="15">11JNA11<tspan x="1756.24" dy="15">AA007</tspan>
  </text>
  <image x="1684" y="840.492" width="70" height="65" xlink:href="DS_CO_valve.svg" transform="flipY(-10) rotate(270 0 -10)">
    <title>&quot;11JNA11AA007&quot;</title>
    <rt:dyn type="KKS" mode="constant" value="&quot;11JNA11AA007&quot;"/> 
    <rt:dyn type="DATA_NARY" mode="constant" value="&quot;TPTS&quot;"/> 
    <rt:dyn type="Operate" mode="constant" value="true"/> 
  </image>
  <text x="1093.88" y="487.273" font-size="15">11JNA13<tspan x="1093.88" dy="15">AA005</tspan>
  </text>
  <image x="1026.12" y="451.464" width="70" height="65" xlink:href="DS_CO_valve.svg" transform="flipY(-10) flipY(-10) rotate(270 0 -10)">
    <title>&quot;11JNA13AA005&quot;</title>
    <rt:dyn type="KKS" mode="constant" value="&quot;11JNA13AA005&quot;"/> 
    <rt:dyn type="DATA_NARY" mode="constant" value="&quot;TPTS&quot;"/> 
    <rt:dyn type="Operate" mode="constant" value="true"/> 
  </image>
  <image x="1025.91" y="596" width="70" height="65" xlink:href="DS_Reg_valve.svg" transform="rotate(270 0 -10)">
    <title>11JNA13AA202</title>
    <rt:dyn type="Operate" mode="constant" value="TRUE"/> 
    <rt:dyn type="KKS" mode="constant" value="&quot;11JNA13AA202&quot;"/> 
    <rt:dyn type="DATA_NARY" mode="constant" value="&quot;TPTS&quot;"/> 
  </image>
  <image x="1077.45" y="564.97" width="65" height="25" xlink:href="DS_Reg_degree.svg">
    <title>&quot;11JNA13AA202&quot;</title>
    <rt:dyn type="KKS" mode="constant" value="&quot;11JNA13AA202&quot;"/> 
  </image>
  <g transform="flipY(410.77) rotate(90 555.27 359.305)">
    <path d="M366.126 533.203 A8 9.305 0 1 0 366.126 551.813 " fill="none" stroke="black" stroke-width="3" transform="flipY() translate(0 -828) translate(229.642 442.62)"/> 
  </g>
  <text x="1227.45" y="458.151" font-size="15">11JNA12<tspan x="1227.45" dy="15">AA001</tspan>
  </text>
  <text x="1290.52" y="293.939" font-size="15">11JNA14<tspan x="1290.52" dy="15">AA002</tspan>
  </text>
  <text x="1183.52" y="293.939" font-size="15">11JNA14<tspan x="1183.52" dy="15">AA001</tspan>
  </text>
  <g transform="flipY(410.77) rotate(90 555.27 359.305)">
    <path d="M433.126 533.203 A8 9.305 0 1 0 433.126 551.813 " fill="none" stroke="black" stroke-width="3" transform="flipY() translate(0 -828) translate(229.642 442.62)"/> 
  </g>
  <image x="919" y="497" width="70" height="65" xlink:href="DS_Reg_valve.svg" transform="flipX(-1.13687e-013) rotate(360 0 -10)">
    <title>&quot;11JNA13AA201&quot;</title>
    <rt:dyn type="Operate" mode="constant" value="TRUE"/> 
    <rt:dyn type="KKS" mode="constant" value="&quot;11JNA13AA201&quot;"/> 
    <rt:dyn type="DATA_NARY" mode="constant" value="&quot;TPTS&quot;"/> 
  </image>
  <text x="916.848" y="578.788" font-size="15">11JNA13<tspan x="916.848" dy="15">AA201</tspan>
  </text>
  <image x="924.424" y="468.182" width="65" height="25" xlink:href="DS_Reg_degree.svg">
    <title>&quot;11JNA13AA201&quot;</title>
    <rt:dyn type="KKS" mode="constant" value="&quot;11JNA13AA201&quot;"/> 
  </image>
  <text x="944.121" y="295.455" font-size="15">11JNA11<tspan x="944.121" dy="15">AA001</tspan>
  </text>
  <image x="1165.29" y="881.5" width="175" height="25" xlink:href="DS_ana.svg">
    <title>11JNA10CT903</title>
    <rt:dyn type="FKKS" mode="constant" value="&quot;11JNA10CT903&quot;"/> 
    <rt:dyn type="X" mode="constant" value="&quot;T&quot;"/> 
    <rt:dyn type="ShowFrame" mode="constant" value="true"/> 
    <rt:dyn type="Color_Readings" mode="constant" value="true"/> 
    <rt:dyn type="ValueToTheRight" mode="constant" value="false"/> 
  </image>
  <text x="1031" y="742.182" fill="black" font-size="15" text-anchor="middle">11JND</text>
  <line x1="1107" y1="786.364" x2="1107" y2="919.344" stroke="black" stroke-width="3"/> 
  <text x="1110.61" y="742.182" fill="black" font-size="15" text-anchor="middle">11JND</text>
  <line x1="1144.39" y1="192" x2="1492" y2="192" stroke="black" stroke-width="3"/> 
  <rect x="1066.5" y="147.78" width="9.13629" height="16.2124" rx="0" ry="0" fill="Col_BGSand" stroke="black"/> 
  <line x1="888.061" y1="423" x2="1060.79" y2="423" stroke="black" stroke-width="3"/> 
  <line x1="1729" y1="918" x2="1013.33" y2="918" stroke="black" stroke-width="3"/> 
  <line x1="790" y1="539.394" x2="790" y2="919.697" stroke="black" stroke-width="3"/> 
  <line x1="1062.3" y1="357" x2="860.03" y2="357" stroke="black" stroke-width="3"/> 
  <line x1="1082" y1="422" x2="1503" y2="422" stroke="black" stroke-width="3"/> 
  <line x1="1080.45" y1="357" x2="1420" y2="357" stroke="black" stroke-width="3"/> 
  <image x="1176" y="314.5" width="70" height="65" xlink:href="DS_CO_valve.svg" transform="flipX()">
    <title>&quot;11JNA14AA001&quot;</title>
    <rt:dyn type="KKS" mode="constant" value="&quot;11JNA14AA001&quot;"/> 
    <rt:dyn type="DATA_NARY" mode="constant" value="&quot;TPTS&quot;"/> 
    <rt:dyn type="Operate" mode="constant" value="true"/> 
  </image>
  <image x="1285" y="314.5" width="70" height="65" xlink:href="DS_CO_valve.svg" transform="flipX()">
    <title>&quot;11JNA14AA002&quot;</title>
    <rt:dyn type="KKS" mode="constant" value="&quot;11JNA14AA002&quot;"/> 
    <rt:dyn type="DATA_NARY" mode="constant" value="&quot;TPTS&quot;"/> 
    <rt:dyn type="Operate" mode="constant" value="true"/> 
  </image>
  <line x1="1144" y1="192" x2="1144" y2="355.5" stroke="black" stroke-width="3"/> 
  <image x="964.424" y="303.5" width="72.1819" height="65.0909" xlink:href="DS_CO_valve.svg" transform="flipX(-10) rotate(90 0 0) flipY(-10) flipY(-10) rotate(270 0 -10)">
    <title>&quot;11JNA11AA001&quot;</title>
    <rt:dyn type="KKS" mode="constant" value="&quot;11JNA11AA001&quot;"/> 
    <rt:dyn type="DATA_NARY" mode="constant" value="&quot;TPTS&quot;"/> 
    <rt:dyn type="Operate" mode="constant" value="true"/> 
  </image>
  <image x="1257.91" y="369.242" width="71.0001" height="65.394" xlink:href="DS_CO_valve.svg" transform="flipX(-30) flipX(-10) rotate(90 0 0) flipY(-10) flipY(-10) rotate(270 0 -10)">
    <title>&quot;11JNA12AA001&quot;</title>
    <rt:dyn type="KKS" mode="constant" value="&quot;11JNA12AA001&quot;"/> 
    <rt:dyn type="DATA_NARY" mode="constant" value="&quot;TPTS&quot;"/> 
    <rt:dyn type="Operate" mode="constant" value="true"/> 
  </image>
  <line x1="890" y1="422.727" x2="890" y2="542.424" stroke="black" stroke-width="3"/> 
  <text x="373.666" y="786.742" fill="black" font-size="15" text-anchor="middle">
    <title>11FAK, 11JMN</title>
11FAK, 11JMN</text>
  <line x1="504.818" y1="780.682" x2="574.424" y2="780.682" stroke="black" stroke-width="3"/> 
  <text x="948" y="936.5" font-size="15">11JNA10<tspan x="948" dy="15">AC001</tspan>
  </text>
  <text x="656.242" y="871.212" font-size="15">11JNA10<tspan x="656.242" dy="15">AA602</tspan>
  </text>
  <text x="656.242" y="754.545" font-size="15">11JNA10<tspan x="656.242" dy="15">AA603</tspan>
  </text>
  <text x="1404.85" y="504.546" font-size="15">11JNA12<tspan x="1404.85" dy="15">AA601</tspan>
  </text>
  <text x="1643.76" y="504.546" font-size="15">11JNA12<tspan x="1643.76" dy="15">AA602</tspan>
  </text>
  <text x="1768.12" y="258.485" font-size="15">11JNA11<tspan x="1768.12" dy="15">AA601</tspan>
  </text>
  <image x="1735.55" y="343.303" width="175" height="25" xlink:href="DS_ana.svg">
    <title>11JNA11CF901</title>
    <rt:dyn type="FKKS" mode="constant" value="&quot;11JNA11CF901&quot;"/> 
    <rt:dyn type="X" mode="constant" value="&quot;F&quot;"/> 
    <rt:dyn type="ShowFrame" mode="constant" value="true"/> 
    <rt:dyn type="Color_Readings" mode="constant" value="true"/> 
    <rt:dyn type="ValueToTheRight" mode="constant" value="false"/> 
  </image>
  <image x="1735.55" y="372.091" width="175" height="25" xlink:href="DS_ana.svg">
    <title>11JNA11CQ001</title>
    <rt:dyn type="FKKS" mode="constant" value="&quot;11JNA11CQ001&quot;"/> 
    <rt:dyn type="X" mode="constant" value="&quot;Q&quot;"/> 
    <rt:dyn type="ShowFrame" mode="constant" value="true"/> 
    <rt:dyn type="Color_Readings" mode="constant" value="true"/> 
    <rt:dyn type="ValueToTheRight" mode="constant" value="false"/> 
  </image>
  <image x="1735.55" y="400.879" width="175" height="25" xlink:href="DS_ana.svg">
    <title>11JNA11CP902</title>
    <rt:dyn type="FKKS" mode="constant" value="&quot;11JNA11CP902&quot;"/> 
    <rt:dyn type="X" mode="constant" value="&quot;P&quot;"/> 
    <rt:dyn type="ShowFrame" mode="constant" value="true"/> 
    <rt:dyn type="Color_Readings" mode="constant" value="true"/> 
    <rt:dyn type="ValueToTheRight" mode="constant" value="false"/> 
  </image>
  <text x="1098.67" y="630.121" font-size="15">11JNA13<tspan x="1098.67" dy="15">AA202</tspan>
  </text>
  <image x="1565.48" y="575.667" width="70" height="65" xlink:href="DS_CO_valve.svg" transform="flipY(-10) flipY(-10) rotate(270 0 -10)">
    <title>&quot;11JNA13AA005&quot;</title>
    <rt:dyn type="KKS" mode="constant" value="&quot;NULL&quot;"/> 
    <rt:dyn type="DATA_NARY" mode="constant" value="&quot;TPTS&quot;"/> 
    <rt:dyn type="Operate" mode="constant" value="true"/> 
    <rt:dyn type="Drive" mode="constant" value="&quot;NONE&quot;"/> 
  </image>
  <text x="1628.73" y="604.697" font-size="15">11JNA12<tspan x="1628.73" dy="15">AA101</tspan>
  </text>
  <image x="1165.29" y="849.091" width="175" height="25" xlink:href="DS_ana.svg">
    <title>11JNA10CR002</title>
    <rt:dyn type="FKKS" mode="constant" value="&quot;11JNA10CR002&quot;"/> 
    <rt:dyn type="X" mode="constant" value="&quot;R&quot;"/> 
    <rt:dyn type="ShowFrame" mode="constant" value="true"/> 
    <rt:dyn type="Color_Readings" mode="constant" value="true"/> 
    <rt:dyn type="ValueToTheRight" mode="constant" value="false"/> 
    <rt:dyn type="IsExp" mode="constant" value="true"/> 
  </image>
  <image x="1165.29" y="817.273" width="175" height="25" xlink:href="DS_ana.svg">
    <title>11JNA10CR001</title>
    <rt:dyn type="FKKS" mode="constant" value="&quot;11JNA10CR001&quot;"/> 
    <rt:dyn type="X" mode="constant" value="&quot;R&quot;"/> 
    <rt:dyn type="ShowFrame" mode="constant" value="true"/> 
    <rt:dyn type="Color_Readings" mode="constant" value="true"/> 
    <rt:dyn type="ValueToTheRight" mode="constant" value="false"/> 
    <rt:dyn type="IsExp" mode="constant" value="true"/> 
  </image>
  <g transform="flipX(239.576)">
    <line x1="-443.682" y1="963.803" x2="-443.682" y2="990.803" stroke="black" stroke-width="3"/> 
    <line x1="-535.515" y1="825.333" x2="-443.061" y2="825.273" stroke="black" stroke-width="3"/> 
    <line x1="-443.061" y1="824.273" x2="-443.061" y2="850.273" stroke="black" stroke-width="3"/> 
    <line x1="-423.061" y1="869" x2="-338.848" y2="868.667" stroke="black" stroke-width="3"/> 
    <line x1="-340" y1="992.333" x2="-340" y2="867" stroke="black" stroke-width="3"/> 
    <g>
      <rect x="-462.061" y="850.27" width="40" height="40" rx="0" ry="0" fill="Col_Grey4" stroke="black" stroke-width="3"/> 
      <line x1="-463.061" y1="849.27" x2="-422.061" y2="891.27" stroke="black" stroke-width="3"/> 
    </g>
    <g transform="rotate(180 1212.44 532.643)">
      <polygon points="-376.589,540.121 -363.209,547.765 -363.209,532.478 -376.589,540.121" fill="black" stroke="black" stroke-width="1" transform="rotate(180 1279.17 367.814)"/> 
    </g>
    <line x1="-497.061" y1="869.273" x2="-463.061" y2="869.273" stroke="black"/> 
    <g>
      <rect x="-461.711" y="934.969" width="40" height="40" rx="0" ry="0" fill="Col_Grey4" stroke="black" stroke-width="3"/> 
      <line x1="-462.711" y1="933.969" x2="-421.71" y2="975.969" stroke="black" stroke-width="3"/> 
    </g>
    <line x1="-480" y1="869.273" x2="-480" y2="922" stroke="black"/> 
    <line x1="-442.061" y1="890.273" x2="-442.061" y2="907.273" stroke="black"/> 
    <line x1="-442.061" y1="907" x2="-372.848" y2="907" stroke="black"/> 
    <line x1="-373" y1="907.273" x2="-373" y2="950" stroke="black"/> 
    <line x1="-480.682" y1="922" x2="-442.515" y2="922" stroke="black"/> 
    <line x1="-535.061" y1="823.803" x2="-535.061" y2="917.803" stroke="black" stroke-width="3"/> 
    <line x1="-443.061" y1="921.273" x2="-443.061" y2="934.803" stroke="black"/> 
    <line x1="-444.682" y1="991" x2="-340.181" y2="991.333" stroke="black" stroke-width="3"/> 
  </g>
  <line x1="877" y1="907.333" x2="877" y2="943.333" stroke="black"/> 
  <text x="852" y="985" fill="black" font-size="15" text-anchor="middle">KAA1</text>
  <text x="978.212" y="854.546" fill="black" font-size="15" text-anchor="middle">KAA1</text>
  <line x1="573.909" y1="918" x2="819.333" y2="918.667" stroke="black" stroke-width="3"/> 
  <line x1="618.364" y1="804.545" x2="617.349" y2="918.697" stroke="black" stroke-width="3"/> 
  <image x="650.212" y="887.364" width="70" height="52.5" xlink:href="DS_reflux_valve.svg" transform="flipX(1.30679e-005) rotate(360 0 -3.75)">
    <title>&quot;11JNA10AA602&quot;</title>
    <rt:dyn type="KKS" mode="constant" value="&quot;11JNA10AA602&quot;"/> 
    <rt:dyn type="DATA_NARY" mode="constant" value="&quot;TPTS&quot;"/> 
  </image>
  <line x1="860" y1="356.061" x2="860" y2="539.394" stroke="black" stroke-width="3"/> 
  <line x1="46.1515" y1="372" x2="575.06" y2="372" stroke="black" stroke-width="3"/> 
  <line x1="618.242" y1="458.859" x2="618.242" y2="715.858" stroke="black" stroke-width="3"/> 
  <text x="495.605" y="473.955" font-size="15">11JNA10<tspan x="495.605" dy="15">AA001</tspan>
  </text>
  <text x="385.515" y="473.955" font-size="15">11JNA16<tspan x="385.515" dy="15">AA002</tspan>
  </text>
  <text x="340.06" y="542.136" font-size="15">11JNA16<tspan x="340.06" dy="15">AA003</tspan>
  </text>
  <text x="342.03" y="636.499" font-size="15">11JNA16<tspan x="342.03" dy="15">AA001</tspan>
  </text>
  <text x="257.06" y="547.848" font-size="15">ФУ</text>
  <text x="175.06" y="523.848" font-size="15">УЛР</text>
  <text x="318.06" y="47.8484" font-size="15">+25.450</text>
  <text x="163.06" y="267.848" font-size="15">+6.495</text>
  <image x="293" y="197.667" width="175" height="25" xlink:href="DS_ana.svg">
    <title>11JNA10CL901</title>
    <rt:dyn type="FKKS" mode="constant" value="&quot;11JNA10CL901&quot;"/> 
    <rt:dyn type="X" mode="constant" value="&quot;L&quot;"/> 
    <rt:dyn type="ShowFrame" mode="constant" value="true"/> 
    <rt:dyn type="Color_Readings" mode="constant" value="true"/> 
    <rt:dyn type="ValueToTheRight" mode="constant" value="false"/> 
  </image>
  <g transform="flipX(1590.25)">
    <line x1="2713.94" y1="451.344" x2="2714.94" y2="597.344" stroke="black" stroke-width="3"/> 
    <rect x="2633.94" y="68.3444" width="17" height="236.5" rx="0" ry="0" fill="url(#PortalHatch1)" stroke="black" stroke-width="3"/> 
    <rect x="2632.94" y="305.344" width="428" height="17" rx="0" ry="0" fill="url(#PortalHatch1)" stroke="black" stroke-width="3"/> 
    <line x1="2654.94" y1="106.344" x2="3037.94" y2="106.344" stroke="black"/> 
    <rect x="3043.94" y="68.3444" width="17" height="236.5" rx="0" ry="0" fill="url(#PortalHatch1)" stroke="black" stroke-width="3"/> 
    <rect x="2562.94" y="417.344" width="17" height="307" rx="0" ry="0" fill="url(#PortalHatch1)" stroke="black" stroke-width="3"/> 
    <rect x="2581.94" y="417.344" width="299" height="17" rx="0" ry="0" fill="url(#PortalHatch1)" stroke="black" stroke-width="3"/> 
    <rect x="2873.8" y="417.072" width="17" height="307.273" rx="0" ry="0" fill="url(#PortalHatch1)" stroke="black" stroke-width="3"/> 
    <rect x="2936.94" y="500.344" width="14" height="223.909" rx="0" ry="0" fill="url(#PortalHatch1)" stroke="black" stroke-width="3"/> 
    <rect x="2957.94" y="527.844" width="54" height="169.5" rx="0" ry="0" fill="none" stroke="black"/> 
    <rect x="3019.94" y="501.844" width="14" height="222.409" rx="0" ry="0" fill="url(#PortalHatch1)" stroke="black" stroke-width="3"/> 
    <rect x="2531.29" y="719.697" width="544.636" height="17" rx="0" ry="0" fill="url(#PortalHatch1)" stroke="black" stroke-width="3"/> 
    <g>
      <rect x="2895.94" y="551.844" width="39" height="50" rx="0" ry="0" fill="Col_BGSand" stroke="black" stroke-width="2"/> 
      <line x1="2900.94" y1="551.344" x2="2900.94" y2="602.344" stroke="black"/> 
      <line x1="2905.77" y1="551.995" x2="2905.77" y2="602.995" stroke="black"/> 
      <line x1="2909.68" y1="550.904" x2="2909.68" y2="601.904" stroke="black"/> 
      <line x1="2914.51" y1="550.555" x2="2914.51" y2="601.555" stroke="black"/> 
      <line x1="2917.68" y1="550.693" x2="2917.68" y2="601.693" stroke="black"/> 
      <line x1="2922.51" y1="551.344" x2="2922.51" y2="602.344" stroke="black"/> 
      <line x1="2926.42" y1="550.253" x2="2926.42" y2="601.253" stroke="black"/> 
      <line x1="2931.25" y1="551.904" x2="2931.25" y2="602.904" stroke="black"/> 
      <polyline points="2903.94,600.344 2915.94,621.344 2926.94,602.344"/> 
    </g>
    <g transform="rotate(330 1212.44 532.643)">
      <g>
        <polygon points="-248.714,-208.355 -235.334,-200.711 -235.334,-215.998 -248.714,-208.355" fill="black" stroke="black" stroke-width="1" transform="rotate(180 1279.17 367.814)"/> 
      </g>
    </g>
    <line x1="2654.94" y1="195.344" x2="2603.94" y2="195.344" stroke="black" stroke-width="3"/> 
    <line x1="2605" y1="195.344" x2="2605" y2="919.697" stroke="black" stroke-width="3"/> 
    <rect x="2600.94" y="721.344" width="9" height="19" rx="0" ry="0" fill="Col_BGSand" stroke="black"/> 
    <line x1="2603.94" y1="452.344" x2="2714.94" y2="452.344" stroke="black" stroke-width="3"/> 
    <line x1="2605.94" y1="690.344" x2="2917.94" y2="690.344" stroke="black" stroke-width="3"/> 
    <line x1="2915.94" y1="619.344" x2="2915.94" y2="690.344" stroke="black" stroke-width="3"/> 
    <line x1="2640.94" y1="690.344" x2="2641.94" y2="597.344" stroke="black" stroke-width="3"/> 
    <line x1="2639.94" y1="597.344" x2="2866.94" y2="597.344" stroke="black" stroke-width="3"/> 
    <line x1="2865.94" y1="596.344" x2="2865.94" y2="691.344" stroke="black" stroke-width="3"/> 
    <g transform="rotate(90 1604.16 613.476)">
      <g transform="flipY(410.77) rotate(90 555.27 359.305)">
        <path d="M1308.37 1048.33 A8 9.305 0 1 0 1308.37 1066.94 " fill="none" stroke="black" stroke-width="3" transform="flipY() translate(0 -828) translate(229.642 442.62)"/> 
      </g>
    </g>
    <line x1="2736.94" y1="564.344" x2="2714.94" y2="564.344" stroke="black" stroke-width="3"/> 
    <line x1="2737.44" y1="563.344" x2="2737.44" y2="587.344" stroke="black" stroke-width="3"/> 
    <line x1="2737.94" y1="603.344" x2="2737.94" y2="689.344" stroke="black" stroke-width="3"/> 
    <line x1="2790.94" y1="90.3444" x2="2790.94" y2="52.3444" stroke="black"/> 
    <line x1="2790.94" y1="52" x2="2883.83" y2="52" stroke="black"/> 
    <g transform="rotate(330 1212.44 532.643)">
      <g>
        <polygon points="-290.366,-462.168 -276.986,-454.525 -276.986,-469.811 -290.366,-462.168" fill="black" stroke="black" stroke-width="1" transform="rotate(180 1279.17 367.814)"/> 
      </g>
    </g>
    <line x1="2954.94" y1="292.344" x2="2954.94" y2="274.344" stroke="black"/> 
    <line x1="2954.94" y1="274.344" x2="3017.94" y2="274.344" stroke="black"/> 
  </g>
  <image x="490.56" y="468.122" width="70" height="65" xlink:href="DS_CO_valve.svg" transform="flipX(20) rotate(180 0 0) flipY(-10) flipY(-10) flipY(-10) rotate(270 0 -10)">
    <title>&quot;11JNA10AA001&quot;</title>
    <rt:dyn type="KKS" mode="constant" value="&quot;11JNA10AA001&quot;"/> 
    <rt:dyn type="DATA_NARY" mode="constant" value="&quot;TPTS&quot;"/> 
    <rt:dyn type="Operate" mode="constant" value="true"/> 
  </image>
  <image x="381.56" y="468.122" width="70" height="65" xlink:href="DS_CO_valve.svg" transform="flipX(20) rotate(180 0 0) flipY(-10) flipY(-10) flipY(-10) rotate(270 0 -10)">
    <title>&quot;11JNA16AA002&quot;</title>
    <rt:dyn type="KKS" mode="constant" value="&quot;11JNA16AA002&quot;"/> 
    <rt:dyn type="DATA_NARY" mode="constant" value="&quot;TPTS&quot;"/> 
    <rt:dyn type="Operate" mode="constant" value="true"/> 
  </image>
  <image x="469.51" y="567.848" width="70" height="52.5" xlink:href="DS_reflux_valve.svg" transform="flipX()">
    <title>&quot;11JNA16AA602&quot;</title>
    <rt:dyn type="KKS" mode="constant" value="&quot;11JNA16AA602&quot;"/> 
    <rt:dyn type="DATA_NARY" mode="constant" value="&quot;TPTS&quot;"/> 
  </image>
  <image x="469.06" y="659.56" width="70" height="52.5" xlink:href="DS_reflux_valve.svg" transform="flipX()">
    <title>&quot;11JNA16AA601&quot;</title>
    <rt:dyn type="KKS" mode="constant" value="&quot;11JNA16AA601&quot;"/> 
    <rt:dyn type="DATA_NARY" mode="constant" value="&quot;TPTS&quot;"/> 
  </image>
  <image x="367.06" y="543.848" width="70" height="65" xlink:href="DS_CO_valve.svg" transform="flipX(-10) flipX(10) rotate(90 0 0) flipY(-10) rotate(270 0 -10)">
    <title>&quot;11JNA16AA003&quot;</title>
    <rt:dyn type="KKS" mode="constant" value="&quot;11JNA16AA003&quot;"/> 
    <rt:dyn type="DATA_NARY" mode="constant" value="&quot;TPTS&quot;"/> 
    <rt:dyn type="Operate" mode="constant" value="true"/> 
  </image>
  <image x="367.06" y="636.848" width="70" height="65" xlink:href="DS_CO_valve.svg" transform="flipX(-10) flipX(10) rotate(90 0 0) flipY(-10) rotate(270 0 -10)">
    <title>&quot;11JNA16AA001&quot;</title>
    <rt:dyn type="KKS" mode="constant" value="&quot;11JNA16AA001&quot;"/> 
    <rt:dyn type="DATA_NARY" mode="constant" value="&quot;TPTS&quot;"/> 
    <rt:dyn type="Operate" mode="constant" value="true"/> 
  </image>
  <g transform="flipX(1755.34) flipX(332.336) rotate(270 0 1.4013e-045) flipY(94.8316) rotate(270 0 1.4013e-045) flipX(448.838) flipX(1844.84) flipX(1153.84) flipX(1153.84) rotate(270 1153.84 98.3365)">
    <g transform="rotate(270 51.3365 123.226)"/> 
  </g>
  <text x="50.8182" y="720.273" fill="black" font-size="15" text-anchor="middle">JKM</text>
  <image x="481.06" y="107.848" width="25" height="192" xlink:href="DS_ana_bar.svg">
    <title>11JNA10CL901</title>
    <rt:dyn type="FKKS" mode="constant" value="&quot;11JNA10CL901&quot;"/> 
  </image>
  <g transform="flipX(332.336) rotate(270 0 1.4013e-045) flipY(94.8316) rotate(270 0 1.4013e-045) flipX(448.838) flipX(1844.84) flipX(1153.84) flipX(1153.84) rotate(270 1153.84 98.3365)">
    <g transform="rotate(270 51.3365 123.226)"/> 
  </g>
  <text x="473.849" y="563.742" font-size="15">11JNA16<tspan x="473.849" dy="15">AA602</tspan>
  </text>
  <text x="455.757" y="646.136" font-size="15">11JNA16<tspan x="455.757" dy="15">AA601</tspan>
  </text>
  <image x="293" y="256.924" width="175" height="25" xlink:href="DS_ana.svg">
    <title>11JNA10CT004</title>
    <rt:dyn type="FKKS" mode="constant" value="&quot;11JNA10CT004&quot;"/> 
    <rt:dyn type="X" mode="constant" value="&quot;T&quot;"/> 
    <rt:dyn type="ShowFrame" mode="constant" value="true"/> 
    <rt:dyn type="Color_Readings" mode="constant" value="true"/> 
    <rt:dyn type="ValueToTheRight" mode="constant" value="false"/> 
  </image>
  <g transform="flipY(410.77) rotate(90 555.27 359.305)"/> 
  <line x1="48" y1="372.74" x2="48" y2="660.606" stroke="black" stroke-width="3"/> 
  <text x="53.2424" y="484.849" font-size="15">11JKM10<tspan x="53.2424" dy="15">AA001</tspan>
  </text>
  <image x="3.682" y="400.47" width="70" height="65" xlink:href="DS_CO_valve.svg" transform="flipY(-10) rotate(270 0 -10)">
    <title>11JKM10AA001</title>
    <rt:dyn type="KKS" mode="constant" value="&quot;11JKM10AA001&quot;"/> 
    <rt:dyn type="DATA_NARY" mode="constant" value="&quot;TPTS&quot;"/> 
    <rt:dyn type="Operate" mode="constant" value="true"/> 
  </image>
  <text x="53.2424" y="614.424" font-size="15">12JKM10<tspan x="53.2424" dy="15">AA002</tspan>
  </text>
  <image x="3.22727" y="528.53" width="70" height="65" xlink:href="DS_CO_valve.svg" transform="flipY(-10) rotate(270 0 -10)">
    <title>12JKM10AA002</title>
    <rt:dyn type="KKS" mode="constant" value="&quot;12JKM10AA002&quot;"/> 
    <rt:dyn type="DATA_NARY" mode="constant" value="&quot;TPTS&quot;"/> 
    <rt:dyn type="Operate" mode="constant" value="true"/> 
  </image>
  <image x="293" y="227.045" width="175" height="25" xlink:href="DS_ana.svg">
    <title>11JNA10CL902</title>
    <rt:dyn type="FKKS" mode="constant" value="&quot;11JNA10CL902&quot;"/> 
    <rt:dyn type="X" mode="constant" value="&quot;L&quot;"/> 
    <rt:dyn type="ShowFrame" mode="constant" value="true"/> 
    <rt:dyn type="Color_Readings" mode="constant" value="true"/> 
    <rt:dyn type="ValueToTheRight" mode="constant" value="false"/> 
  </image>
  <image x="530.198" y="818.621" width="70" height="65" xlink:href="DS_CO_valve.svg" transform="flipY(-10) flipY(-10) rotate(270 0 -10)">
    <title>11JNA10AA003</title>
    <rt:dyn type="KKS" mode="constant" value="&quot;11JNA10AA003&quot;"/> 
    <rt:dyn type="DATA_NARY" mode="constant" value="&quot;TPTS&quot;"/> 
    <rt:dyn type="Operate" mode="constant" value="true"/> 
  </image>
  <rect x="631.545" y="146.97" width="17" height="589.394" rx="0" ry="0" fill="url(#PortalHatch1)" stroke="black" stroke-width="3"/> 
  <image x="686.424" y="213.546" width="25" height="25" xlink:href="bin_indicator.svg">
    <title>11JNA10CR001???</title>
    <rt:dyn type="PointID" mode="constant" value="&quot;11JNA10CR001_XG01&quot;"/> 
  </image>
  <text x="665.333" y="262.607" font-size="15">30 град.С</text>
  <image x="794" y="213.546" width="25" height="25" xlink:href="bin_indicator.svg">
    <title>11JNA10CR001???</title>
    <rt:dyn type="PointID" mode="constant" value="&quot;11JNA10CR001_XG01&quot;"/> 
  </image>
  <text x="772.909" y="262.607" font-size="15">15  град.С</text>
  <image x="948.758" y="973.121" width="175" height="25" xlink:href="DS_ana.svg">
    <title>11KAA10CF902</title>
    <rt:dyn type="FKKS" mode="constant" value="&quot;11KAA10CF902&quot;"/> 
    <rt:dyn type="X" mode="constant" value="&quot;T&quot;"/> 
    <rt:dyn type="ShowFrame" mode="constant" value="true"/> 
    <rt:dyn type="Color_Readings" mode="constant" value="true"/> 
    <rt:dyn type="ValueToTheRight" mode="constant" value="false"/> 
  </image>
  <text x="1521.39" y="265.151" font-size="15">11JNA12BN001</text>
  <text x="685.788" y="205.303" font-size="15">11JNA10DT001</text>
  <image x="812.545" y="919.727" width="55" height="25" xlink:href="obj_link.svg" transform="rotate(90 37.6379 12.5) flipX(37.4999)">
    <rt:event type="OnClick">LoadNew(&quot;kaa1&quot;)</rt:event>
  </image>
  <image x="10.5454" y="654.545" width="75" height="25" xlink:href="obj_link.svg" transform="rotate(90 37.3616 12.4999)">
    <rt:event type="OnClick">LoadNew(&quot;jkm&quot;)</rt:event>
  </image>
  <image x="450.939" y="768.182" width="75" height="25" xlink:href="obj_link.svg" transform="flipX(37.4999)">
    <rt:event type="OnClick">LoadNew(&quot;11fak,11jmn&quot;)</rt:event>
    <rt:dyn type="TextStr" mode="constant" value="&quot;&quot;"/> 
  </image>
  <image x="17.606" y="934.849" width="75" height="25" xlink:href="obj_link.svg">
    <rt:dyn type="TextStr" mode="constant" value="&quot;12JNA-3&quot;"/> 
    <rt:event type="OnClick">LoadNew(&quot;12jna_3&quot;)</rt:event>
  </image>
  <image x="114.576" y="934.849" width="75" height="25" xlink:href="obj_link.svg">
    <rt:dyn type="TextStr" mode="constant" value="&quot;12JNA-4&quot;"/> 
    <rt:event type="OnClick">LoadNew(&quot;12jna_4&quot;)</rt:event>
  </image>
  <image x="994.879" y="778.249" width="75" height="25" xlink:href="obj_link.svg" transform="rotate(90 37.6379 12.5) flipX(37.4999)">
    <rt:event type="OnClick">LoadNew(&quot;11jnd&quot;)</rt:event>
  </image>
  <image x="1064.58" y="778.249" width="75" height="25" xlink:href="obj_link.svg" transform="rotate(90 37.6379 12.5) flipX(37.4999)">
    <rt:event type="OnClick">LoadNew(&quot;11jnd&quot;)</rt:event>
  </image>
  <image x="1034.27" y="87.8789" width="75" height="25" xlink:href="obj_link.svg" transform="rotate(90 37.3616 12.4999)">
    <rt:event type="OnClick">LoadNew(&quot;11jna_1&quot;)</rt:event>
  </image>
  <image x="1353.45" y="82.6946" width="75" height="25" xlink:href="obj_link.svg" transform="flipY(12.3616) rotate(90 37.3616 12.4999)">
    <rt:event type="OnClick">LoadNew(&quot;11jna_1&quot;)</rt:event>
  </image>
  <image x="1463.64" y="82.6946" width="75" height="25" xlink:href="obj_link.svg" transform="flipY(12.3616) rotate(90 37.3616 12.4999)">
    <rt:event type="OnClick">LoadNew(&quot;11jna_1&quot;)</rt:event>
  </image>
  <image x="1403.85" y="627.677" width="75" height="25" xlink:href="obj_link.svg" transform="flipY(12.3616) rotate(90 37.3616 12.4999)">
    <rt:event type="OnClick">LoadNew(&quot;jna12&quot;)</rt:event>
  </image>
  <image x="1750.94" y="627.677" width="75" height="25" xlink:href="obj_link.svg" transform="flipY(12.3616) rotate(90 37.3616 12.4999)">
    <rt:event type="OnClick">LoadNew(&quot;jna11&quot;)</rt:event>
  </image>
  <image x="1375.18" y="342.424" width="75" height="25" xlink:href="obj_link.svg">
    <rt:dyn type="TextStr" mode="constant" value="&quot;JMN&quot;"/> 
    <rt:event type="OnClick">LoadNew(&quot;jmn&quot;)</rt:event>
  </image>
  <text x="743" y="296" fill="black" font-size="14" text-anchor="middle">СКОРОСТЬ<tspan x="743" dy="14">РАСХОЛАЖИВАНИЯ</tspan>
  </text>
  <image x="663" y="317" width="160" height="75" xlink:href="DS_TPTS_VL_spec.svg">
    <title>11JNA10CH001VL0</title>
    <rt:dyn type="KKS" mode="constant" value="&quot;11JNA10CH001VL0&quot;"/> 
    <rt:dyn type="Operate" mode="constant" value="true"/> 
    <rt:dyn type="VL_type" mode="constant" value="&quot;1o2&quot;"/> 
  </image>
  <line x1="1024" y1="917" x2="1024" y2="960" stroke="black" stroke-width="3"/> 
  <text x="882.758" y="732.333" font-size="15">11JNA13<tspan x="882.758" dy="15">AA008</tspan>
  </text>
  <line x1="824.939" y1="695" x2="1072" y2="695" stroke="black" stroke-width="3"/> 
  <image x="873.273" y="642.606" width="70" height="65" xlink:href="DS_CO_valve.svg" transform="rotate(90 0 0) flipY(-10) flipY(-10) rotate(270 0 -10)">
    <title>&quot;11JNA13AA008&quot;</title>
    <rt:dyn type="KKS" mode="constant" value="&quot;11JNA13AA008&quot;"/> 
    <rt:dyn type="DATA_NARY" mode="constant" value="&quot;TPTS&quot;"/> 
    <rt:dyn type="Operate" mode="constant" value="true"/> 
  </image>
  <text x="1165.76" y="996.333" font-size="15">11JNA10AA004</text>
  <line x1="1023" y1="959" x2="1481" y2="959" stroke="black" stroke-width="3"/> 
  <image x="1189.51" y="906.606" width="70" height="65" xlink:href="DS_CO_valve.svg" transform="rotate(90 0 0) flipY(-10) flipY(-10) rotate(270 0 -10)">
    <title>11JNA10AA004</title>
    <rt:dyn type="KKS" mode="constant" value="&quot;11JNA10AA004&quot;"/> 
    <rt:dyn type="DATA_NARY" mode="constant" value="&quot;TPTS&quot;"/> 
    <rt:dyn type="Operate" mode="constant" value="true"/> 
  </image>
  <text x="1321.82" y="996.818" font-size="15">11JNA10AA005</text>
  <image x="1345.57" y="907.091" width="70" height="65" xlink:href="DS_CO_valve.svg" transform="rotate(90 0 0) flipY(-10) flipY(-10) rotate(270 0 -10)">
    <title>11JNA10AA005</title>
    <rt:dyn type="KKS" mode="constant" value="&quot;11JNA10AA005&quot;"/> 
    <rt:dyn type="DATA_NARY" mode="constant" value="&quot;TPTS&quot;"/> 
    <rt:dyn type="Operate" mode="constant" value="true"/> 
  </image>
  <image x="1474" y="946" width="85" height="25" xlink:href="obj_link.svg">
    <rt:dyn type="TextStr" mode="constant" value="&quot;KUA10-50&quot;"/> 
    <rt:event type="OnClick">LoadNew(&quot;kua10_50&quot;)</rt:event>
  </image>
</svg>
