<?xml  version="1.0" encoding="windows-1251"?>
<svg color="Col_BGSand" xmlns="http://www.w3.org/2000/svg" xmlns:rt="http://www.rts.co.at/2001/XMLSchema/RtSvgPL" xmlns:xlink="http://www.w3.org/1999/xlink" xmlns:xsi="http://www.w3.org/2001/XMLSchema-instance" xsi:schemaLocation="http://www.w3.org/2000/svg C:\RTS\RtSvg\XML\SVG.xsd" viewBox="0 0 1920 980" width="1920" height="980" id="15SAS35-15SAS55">
  <rt:model modelversion="7.2.0.24" comment="Создано VNIIAES-ASUTP\seregin 18.06.2015 16:09:49"/> 
  <line x1="675" y1="875" x2="675" y2="225" stroke="black" stroke-width="3"/> 
  <line x1="326.5" y1="269" x2="326" y2="75" stroke="black" stroke-width="3"/> 
  <line x1="501.208" y1="390.909" x2="351.538" y2="392.242" stroke="black" stroke-width="3"/> 
  <line x1="300.878" y1="391.909" x2="151.208" y2="393.242" stroke="black" stroke-width="3"/> 
  <line x1="326.208" y1="367.242" x2="326.208" y2="334.242" stroke="black" stroke-width="3"/> 
  <polygon points="151.208,418.242 161.208,435.242 141.212,435.242"/> 
  <polygon points="499.208,486.759 509.208,503.759 489.208,503.759" transform="flipY(460.5)"/> 
  <image x="246.364" y="86.9697" width="175" height="25" xlink:href="DS_ana.svg">
    <title>15SAS55CT001</title>
    <rt:dyn type="FKKS" mode="constant" value="&quot;15SAS55CT001&quot;"/> 
    <rt:dyn type="X" mode="constant" value="&quot;T&quot;"/> 
    <rt:dyn type="ShowFrame" mode="constant" value="true"/> 
    <rt:dyn type="ValueToTheRight" mode="constant" value="false"/> 
    <rt:dyn type="Color_Readings" mode="constant" value="true"/> 
  </image>
  <image x="291.208" y="175.242" width="70" height="70" xlink:href="DS_motor.svg" transform="rotate(270 0 0)">
    <title>15SAS55AN001</title>
    <rt:dyn type="KKS" mode="constant" value="&quot;15SAS55AN001&quot;"/> 
    <rt:dyn type="DATA_NARY" mode="constant" value="&quot;TYPE1&quot;"/> 
    <rt:dyn type="Operate" mode="constant" value="true"/> 
    <rt:dyn type="DeviceType" mode="constant" value="&quot;fan&quot;"/> 
  </image>
  <text x="397.848" y="205.014" fill="black" font-size="15" text-anchor="middle">15SAS55<tspan x="397.848" dy="15">AN001</tspan>
  </text>
  <polyline points="566.272,978.023 616.272,978.023 615.772,1028.02 566.272,1027.52 566.272,978.023" fill="none" stroke="black" stroke-width="3" transform="rotate(44.0618 1325.51 325.508)"/> 
  <line x1="301.208" y1="292.242" x2="301.208" y2="312.242" stroke="black" stroke-width="3"/> 
  <line x1="351.208" y1="292.242" x2="351.208" y2="312.242" stroke="black" stroke-width="3"/> 
  <polyline points="778.401,901.28 828.951,901.854 827.441,951.654 778.401,950.774 778.401,901.28" fill="none" stroke="black" stroke-width="3" transform="scale(1.2596 1.2596 1325.51 325.508) rotate(44.0618 1325.51 325.508)"/> 
  <line x1="292.708" y1="412.242" x2="361.958" y2="412.242" stroke="black" stroke-width="3"/> 
  <g>
    <polygon points="2316.79,412.242 2299.79,407.242 2299.79,417.742" transform="flipX(1300.5)"/> 
  </g>
  <g transform="rotate(180 1310.95 462.826)">
    <polygon points="349.087,513.41 332.087,508.41 332.087,518.91" transform="flipX(1300.5)"/> 
  </g>
  <image x="191.208" y="350.742" width="70" height="65" xlink:href="DS_CO_valve.svg">
    <title>10QKC01AA009</title>
    <rt:dyn type="DATA_NARY" mode="constant" value="&quot;TYPE1&quot;"/> 
    <rt:dyn type="Operate" mode="constant" value="true"/> 
    <rt:dyn type="KKS" mode="constant" value="&quot;10QKC01AA009&quot;"/> 
  </image>
  <image x="391.208" y="349.742" width="70" height="65" xlink:href="DS_Reg_valve.svg">
    <title>10QKC11AA209</title>
    <rt:dyn type="DATA_NARY" mode="constant" value="&quot;TYPE1&quot;"/> 
    <rt:dyn type="Operate" mode="constant" value="true"/> 
    <rt:dyn type="KKS" mode="constant" value="&quot;10QKC11AA209&quot;"/> 
  </image>
  <line x1="150.878" y1="422.575" x2="151.208" y2="391.242" stroke="black" stroke-width="3"/> 
  <line x1="499.798" y1="421.075" x2="500.128" y2="389.742" stroke="black" stroke-width="3"/> 
  <line x1="326.208" y1="503.242" x2="326.208" y2="456.242" stroke="black" stroke-width="3"/> 
  <polyline points="841.767,1262.28 891.767,1262.28 891.267,1312.28 841.767,1311.78 841.767,1262.28" fill="none" stroke="black" stroke-width="3" transform="rotate(44.0618 1325.51 325.508)"/> 
  <text x="226.848" y="339.514" fill="black" font-size="15" text-anchor="middle">10QKC01<tspan x="226.848" dy="15">AA009</tspan>
  </text>
  <text x="322.208" y="437.742" fill="black" font-size="15" text-anchor="middle">15SAS55AC001</text>
  <line x1="501.208" y1="524.909" x2="351.538" y2="526.242" stroke="black" stroke-width="3"/> 
  <line x1="300.878" y1="525.909" x2="151.208" y2="527.242" stroke="black" stroke-width="3"/> 
  <polygon points="151.208,552.242 161.208,569.242 141.212,569.242"/> 
  <polygon points="499.208,352.759 509.208,369.759 489.208,369.759" transform="flipY(460.5)"/> 
  <polyline points="852.381,977.724 902.93,978.304 901.419,1028.1 852.381,1027.22 852.381,977.724" fill="none" stroke="black" stroke-width="3" transform="scale(1.2596 1.2596 1325.51 325.508) rotate(44.0618 1325.51 325.508)"/> 
  <line x1="292.708" y1="546.242" x2="361.958" y2="546.242" stroke="black" stroke-width="3"/> 
  <g>
    <polygon points="2316.79,546.242 2299.79,541.242 2299.79,551.742" transform="flipX(1300.5)"/> 
  </g>
  <g transform="rotate(180 1310.95 462.826)">
    <polygon points="349.087,379.41 332.087,374.41 332.087,384.91" transform="flipX(1300.5)"/> 
  </g>
  <image x="191.208" y="484.742" width="70" height="65" xlink:href="DS_CO_valve.svg">
    <title>10SBC03AA009</title>
    <rt:dyn type="DATA_NARY" mode="constant" value="&quot;TYPE1&quot;"/> 
    <rt:dyn type="Operate" mode="constant" value="true"/> 
    <rt:dyn type="KKS" mode="constant" value="&quot;10SBC03AA009&quot;"/> 
  </image>
  <line x1="150.878" y1="556.575" x2="151.208" y2="525.242" stroke="black" stroke-width="3"/> 
  <line x1="499.798" y1="555.075" x2="500.128" y2="523.742" stroke="black" stroke-width="3"/> 
  <line x1="326" y1="665.333" x2="326.208" y2="590.242" stroke="black" stroke-width="3"/> 
  <text x="226.208" y="474.439" fill="black" font-size="15" text-anchor="middle">10SBC03<tspan x="226.208" dy="15">AA009</tspan>
  </text>
  <text x="322.208" y="571.742" fill="black" font-size="15" text-anchor="middle">15SAS55AH001</text>
  <polygon points="326.238,943.242 336.238,960.242 316.238,960.242"/> 
  <line x1="325.848" y1="942.514" x2="326" y2="824.5" stroke="black" stroke-width="3"/> 
  <line x1="315.238" y1="940.742" x2="338.238" y2="941.242" stroke="black" stroke-width="3"/> 
  <image x="353.94" y="486.97" width="175" height="25" xlink:href="DS_ana.svg">
    <title>10SBC04CT009</title>
    <rt:dyn type="FKKS" mode="constant" value="&quot;10SBC04CT009&quot;"/> 
    <rt:dyn type="X" mode="constant" value="&quot;T&quot;"/> 
    <rt:dyn type="ShowFrame" mode="constant" value="true"/> 
    <rt:dyn type="ValueToTheRight" mode="constant" value="false"/> 
    <rt:dyn type="Color_Readings" mode="constant" value="true"/> 
  </image>
  <line x1="293.208" y1="697.742" x2="362.208" y2="697.742" stroke="black" stroke-dasharray="5,5"/> 
  <image x="291.208" y="865.742" width="70" height="45" xlink:href="DS_pivot_valve.svg">
    <title>15SAS55AA001</title>
    <rt:dyn type="KKS" mode="constant" value="&quot;15SAS55AA001&quot;"/> 
    <rt:dyn type="DATA_NARY" mode="constant" value="&quot;TYPE1&quot;"/> 
    <rt:dyn type="Operate" mode="constant" value="true"/> 
  </image>
  <text x="257.848" y="888.514" fill="black" font-size="15" text-anchor="middle">15SAS55<tspan x="257.848" dy="15">AA001</tspan>
  </text>
  <polyline points="171.708,669.252 245.708,668.752 245.708,718.742 171.708,718.752 171.708,668.752" fill="none" stroke="black" stroke-width="3"/> 
  <text x="185.708" y="691.585">Перепад<tspan x="185.708" dy="10">давления</tspan>
  </text>
  <line x1="259.208" y1="739.742" x2="316.208" y2="739.242" stroke="black" stroke-dasharray="5,5" stroke-width="2"/> 
  <line x1="254.218" y1="657.242" x2="315.218" y2="656.742" stroke="black" stroke-dasharray="5,5" stroke-width="2"/> 
  <line x1="254.208" y1="657.742" x2="255.208" y2="739.742" stroke="black" stroke-dasharray="5,5" stroke-width="2"/> 
  <line x1="316.208" y1="649.742" x2="316.208" y2="663.742" stroke="black" stroke-width="2"/> 
  <line x1="316.208" y1="731.242" x2="316.208" y2="745.742" stroke="black" stroke-width="2"/> 
  <line x1="254.208" y1="691.242" x2="247.208" y2="691.242" stroke="black" stroke-width="2"/> 
  <image x="372" y="938" width="175" height="25" xlink:href="DS_ana.svg">
    <title>15SAC51CT005</title>
    <rt:dyn type="FKKS" mode="constant" value="&quot;15SAC51CT005&quot;"/> 
    <rt:dyn type="X" mode="constant" value="&quot;T&quot;"/> 
    <rt:dyn type="ShowFrame" mode="constant" value="true"/> 
    <rt:dyn type="ValueToTheRight" mode="constant" value="false"/> 
    <rt:dyn type="Color_Readings" mode="constant" value="true"/> 
  </image>
  <image x="393.878" y="320.242" width="65" height="25" xlink:href="DS_Reg_degree.svg">
    <title>10QKC11AA209</title>
    <rt:dyn type="KKS" mode="constant" value="&quot;10QKC11AA209&quot;"/> 
  </image>
  <image x="243.848" y="619.514" width="175" height="25" xlink:href="DS_ana.svg">
    <title>15SAS55CT003</title>
    <rt:dyn type="FKKS" mode="constant" value="&quot;15SAS55CT003&quot;"/> 
    <rt:dyn type="X" mode="constant" value="&quot;T&quot;"/> 
    <rt:dyn type="ShowFrame" mode="constant" value="true"/> 
    <rt:dyn type="ValueToTheRight" mode="constant" value="false"/> 
    <rt:dyn type="Color_Readings" mode="constant" value="true"/> 
  </image>
  <line x1="324.667" y1="75.3333" x2="577" y2="75" stroke="black" stroke-width="3"/> 
  <text x="161" y="945.667" fill="black" font-size="20" text-anchor="middle">10UBA30R002</text>
  <text x="11.5152" y="38.4849" font-size="32">15SAS35/15SAS55</text>
  <line x1="326.5" y1="775" x2="326.5" y2="731.5" stroke="black" stroke-width="3"/> 
  <text x="258.5" y="780.5" fill="black" font-size="15" text-anchor="middle">15SAC55<tspan x="258.5" dy="15">AA201</tspan>
  </text>
  <image x="216" y="800" width="65" height="25" xlink:href="DS_Reg_degree.svg">
    <title>15SAC55AA201</title>
    <rt:dyn type="KKS" mode="constant" value="&quot;15SAC55AA201&quot;"/> 
  </image>
  <line x1="1500.65" y1="269.152" x2="1500.15" y2="75.1515" stroke="black" stroke-width="3"/> 
  <line x1="1675.36" y1="391.061" x2="1525.69" y2="392.394" stroke="black" stroke-width="3"/> 
  <line x1="1475.03" y1="392.061" x2="1325.36" y2="393.394" stroke="black" stroke-width="3"/> 
  <line x1="1500.36" y1="367.394" x2="1500.36" y2="334.394" stroke="black" stroke-width="3"/> 
  <polygon points="1325.36,419.394 1335.36,436.394 1315.36,436.394"/> 
  <polygon points="1673.36,486.608 1683.36,503.608 1663.36,503.608" transform="flipY(460.5)"/> 
  <image x="1428.36" y="89.394" width="175" height="25" xlink:href="DS_ana.svg">
    <title>15SAS55CT002</title>
    <rt:dyn type="FKKS" mode="constant" value="&quot;15SAS55CT002&quot;"/> 
    <rt:dyn type="X" mode="constant" value="&quot;T&quot;"/> 
    <rt:dyn type="ShowFrame" mode="constant" value="true"/> 
    <rt:dyn type="ValueToTheRight" mode="constant" value="false"/> 
    <rt:dyn type="Color_Readings" mode="constant" value="true"/> 
  </image>
  <image x="1465.36" y="175.394" width="70" height="70" xlink:href="DS_motor.svg" transform="rotate(270 0 0)">
    <title>15SAS55AN002</title>
    <rt:dyn type="KKS" mode="constant" value="&quot;15SAS55AN002&quot;"/> 
    <rt:dyn type="DATA_NARY" mode="constant" value="&quot;TYPE1&quot;"/> 
    <rt:dyn type="Operate" mode="constant" value="true"/> 
    <rt:dyn type="DeviceType" mode="constant" value="&quot;fan&quot;"/> 
  </image>
  <text x="1572" y="205.166" fill="black" font-size="15" text-anchor="middle">15SAS55<tspan x="1572" dy="15">AN002</tspan>
  </text>
  <polyline points="1410.16,161.586 1460.16,161.586 1459.66,211.586 1410.16,211.086 1410.16,161.586" fill="none" stroke="black" stroke-width="3" transform="rotate(44.0618 1325.51 325.508)"/> 
  <line x1="1475.36" y1="292.394" x2="1475.36" y2="312.394" stroke="black" stroke-width="3"/> 
  <line x1="1525.36" y1="292.394" x2="1525.36" y2="312.394" stroke="black" stroke-width="3"/> 
  <polyline points="1448.29,253.089 1498.83,253.663 1497.32,303.463 1448.29,302.583 1448.29,253.089" fill="none" stroke="black" stroke-width="3" transform="scale(1.2596 1.2596 1325.51 325.508) rotate(44.0618 1325.51 325.508)"/> 
  <line x1="1466.86" y1="412.394" x2="1536.11" y2="412.394" stroke="black" stroke-width="3"/> 
  <g>
    <polygon points="1142.64,412.394 1125.64,407.394 1125.64,417.894" transform="flipX(1300.5)"/> 
  </g>
  <g transform="rotate(180 1310.95 462.826)">
    <polygon points="1523.28,513.258 1506.28,508.259 1506.28,518.758" transform="flipX(1300.5)"/> 
  </g>
  <image x="1365.36" y="350.894" width="70" height="65" xlink:href="DS_CO_valve.svg">
    <title>10QKC01AA010</title>
    <rt:dyn type="DATA_NARY" mode="constant" value="&quot;TYPE1&quot;"/> 
    <rt:dyn type="Operate" mode="constant" value="true"/> 
    <rt:dyn type="KKS" mode="constant" value="&quot;10QKC01AA010&quot;"/> 
  </image>
  <image x="1565.36" y="349.894" width="70" height="65" xlink:href="DS_Reg_valve.svg">
    <title>10QKC11AA210</title>
    <rt:dyn type="DATA_NARY" mode="constant" value="&quot;TYPE1&quot;"/> 
    <rt:dyn type="Operate" mode="constant" value="true"/> 
    <rt:dyn type="KKS" mode="constant" value="&quot;10QKC11AA210&quot;"/> 
  </image>
  <line x1="1325.03" y1="423.727" x2="1325.36" y2="392.394" stroke="black" stroke-width="3"/> 
  <line x1="1673.95" y1="421.227" x2="1674.28" y2="389.894" stroke="black" stroke-width="3"/> 
  <line x1="1500.36" y1="503.394" x2="1500.36" y2="456.394" stroke="black" stroke-width="3"/> 
  <polyline points="1685.65,445.84 1735.65,445.84 1735.15,495.84 1685.65,495.34 1685.65,445.84" fill="none" stroke="black" stroke-width="3" transform="rotate(44.0618 1325.51 325.508)"/> 
  <text x="1397" y="339.666" fill="black" font-size="15" text-anchor="middle">10QKC01<tspan x="1397" dy="15">AA010</tspan>
  </text>
  <text x="1496.36" y="437.894" fill="black" font-size="15" text-anchor="middle">15SAS55AC002</text>
  <line x1="1675.36" y1="525.061" x2="1525.69" y2="526.394" stroke="black" stroke-width="3"/> 
  <line x1="1475.03" y1="526.061" x2="1325.36" y2="527.394" stroke="black" stroke-width="3"/> 
  <polygon points="1325.36,553.394 1335.36,570.394 1315.36,570.394"/> 
  <polygon points="1673.36,352.608 1683.36,369.608 1663.36,369.608" transform="flipY(460.5)"/> 
  <polyline points="1522.26,329.533 1572.8,330.113 1571.29,379.913 1522.26,379.033 1522.26,329.533" fill="none" stroke="black" stroke-width="3" transform="scale(1.2596 1.2596 1325.51 325.508) rotate(44.0618 1325.51 325.508)"/> 
  <line x1="1466.86" y1="546.394" x2="1536.11" y2="546.394" stroke="black" stroke-width="3"/> 
  <g>
    <polygon points="1142.64,546.394 1125.64,541.394 1125.64,551.894" transform="flipX(1300.5)"/> 
  </g>
  <g transform="rotate(180 1310.95 462.826)">
    <polygon points="1523.28,379.259 1506.28,374.259 1506.28,384.759" transform="flipX(1300.5)"/> 
  </g>
  <image x="1365.36" y="484.894" width="70" height="65" xlink:href="DS_CO_valve.svg">
    <title>10SBC03AA010</title>
    <rt:dyn type="DATA_NARY" mode="constant" value="&quot;TYPE1&quot;"/> 
    <rt:dyn type="Operate" mode="constant" value="true"/> 
    <rt:dyn type="KKS" mode="constant" value="&quot;10SBC03AA010&quot;"/> 
  </image>
  <line x1="1325.03" y1="557.727" x2="1325.36" y2="526.394" stroke="black" stroke-width="3"/> 
  <line x1="1673.95" y1="555.227" x2="1674.28" y2="523.894" stroke="black" stroke-width="3"/> 
  <line x1="1500.15" y1="665.484" x2="1500.36" y2="590.394" stroke="black" stroke-width="3"/> 
  <text x="1400.36" y="474.591" fill="black" font-size="15" text-anchor="middle">10SBC03<tspan x="1400.36" dy="15">AA009</tspan>
  </text>
  <text x="1496.36" y="571.894" fill="black" font-size="15" text-anchor="middle">15SAS55AH002</text>
  <polygon points="1500.39,943.394 1510.39,960.394 1490.39,960.394"/> 
  <line x1="1500" y1="942.666" x2="1500.15" y2="824.651" stroke="black" stroke-width="3"/> 
  <line x1="1489.39" y1="940.894" x2="1512.39" y2="941.394" stroke="black" stroke-width="3"/> 
  <image x="1536" y="489" width="175" height="25" xlink:href="DS_ana.svg">
    <title>10SBC04CT010</title>
    <rt:dyn type="FKKS" mode="constant" value="&quot;10SBC04CT010&quot;"/> 
    <rt:dyn type="X" mode="constant" value="&quot;T&quot;"/> 
    <rt:dyn type="ShowFrame" mode="constant" value="true"/> 
    <rt:dyn type="ValueToTheRight" mode="constant" value="false"/> 
    <rt:dyn type="Color_Readings" mode="constant" value="true"/> 
  </image>
  <line x1="1467.36" y1="697.894" x2="1536.36" y2="697.894" stroke="black" stroke-dasharray="5,5"/> 
  <image x="1465.36" y="865.894" width="70" height="45" xlink:href="DS_pivot_valve.svg">
    <title>15SAS55AA002</title>
    <rt:dyn type="KKS" mode="constant" value="&quot;15SAS55AA002&quot;"/> 
    <rt:dyn type="DATA_NARY" mode="constant" value="&quot;TYPE1&quot;"/> 
    <rt:dyn type="Operate" mode="constant" value="true"/> 
  </image>
  <text x="1432" y="888.666" fill="black" font-size="15" text-anchor="middle">15SAS55<tspan x="1432" dy="15">AA002</tspan>
  </text>
  <polyline points="1345.86,669.404 1419.86,668.904 1419.86,718.894 1345.86,718.904 1345.86,668.904" fill="none" stroke="black" stroke-width="3"/> 
  <text x="1359.86" y="691.737">Перепад<tspan x="1359.86" dy="10">давления</tspan>
  </text>
  <line x1="1433.36" y1="739.894" x2="1490.36" y2="739.394" stroke="black" stroke-dasharray="5,5" stroke-width="2"/> 
  <line x1="1428.37" y1="657.394" x2="1489.37" y2="656.894" stroke="black" stroke-dasharray="5,5" stroke-width="2"/> 
  <line x1="1428.36" y1="657.894" x2="1429.36" y2="739.894" stroke="black" stroke-dasharray="5,5" stroke-width="2"/> 
  <line x1="1490.36" y1="649.894" x2="1490.36" y2="663.894" stroke="black" stroke-width="2"/> 
  <line x1="1490.36" y1="731.394" x2="1490.36" y2="745.894" stroke="black" stroke-width="2"/> 
  <line x1="1428.36" y1="691.394" x2="1421.36" y2="691.394" stroke="black" stroke-width="2"/> 
  <image x="1568.03" y="320.394" width="65" height="25" xlink:href="DS_Reg_degree.svg">
    <title>10QKC11AA210</title>
    <rt:dyn type="KKS" mode="constant" value="&quot;10QKC11AA210&quot;"/> 
  </image>
  <image x="1418" y="619.666" width="175" height="25" xlink:href="DS_ana.svg">
    <title>15SAS55CT004</title>
    <rt:dyn type="FKKS" mode="constant" value="&quot;15SAS55CT004&quot;"/> 
    <rt:dyn type="X" mode="constant" value="&quot;T&quot;"/> 
    <rt:dyn type="ShowFrame" mode="constant" value="true"/> 
    <rt:dyn type="ValueToTheRight" mode="constant" value="false"/> 
    <rt:dyn type="Color_Readings" mode="constant" value="true"/> 
  </image>
  <polyline points="1129.32,245.281 1180.53,245.281 1180.03,295.281 1130.53,294.781 1130.53,245.281" fill="none" stroke="black" stroke-width="3" transform="rotate(46.4048 633.73 788.542) rotate(43.2565 1325.51 325.508)"/> 
  <line x1="1500.65" y1="775.151" x2="1500.65" y2="731.651" stroke="black" stroke-width="3"/> 
  <line x1="1475.65" y1="824.151" x2="1525.15" y2="775.151" stroke="black"/> 
  <line x1="1476.15" y1="775.651" x2="1523.65" y2="822.651" stroke="black"/> 
  <line x1="1525.15" y1="800.151" x2="1536.15" y2="800.151" stroke="black" stroke-width="2"/> 
  <line x1="1536.15" y1="796.151" x2="1536.15" y2="804.651" stroke="black" stroke-width="4"/> 
  <line x1="1463.65" y1="800.151" x2="1474.65" y2="800.151" stroke="black" stroke-width="2"/> 
  <line x1="1464.65" y1="796.151" x2="1464.65" y2="804.651" stroke="black" stroke-width="4"/> 
  <text x="1432.65" y="780.651" fill="black" font-size="15" text-anchor="middle">15SAC55<tspan x="1432.65" dy="15">AA202</tspan>
  </text>
  <image x="1390.15" y="800.151" width="65" height="25" xlink:href="DS_Reg_degree.svg">
    <title>15SAC55AA202</title>
    <rt:dyn type="KKS" mode="constant" value="&quot;15SAC55AA202&quot;"/> 
  </image>
  <image x="640" y="315" width="70" height="70" xlink:href="DS_motor.svg" transform="rotate(90 0 0)">
    <title>15SAS35AN001</title>
    <rt:dyn type="KKS" mode="constant" value="&quot;15SAS35AN001&quot;"/> 
    <rt:dyn type="DATA_NARY" mode="constant" value="&quot;TYPE1&quot;"/> 
    <rt:dyn type="Operate" mode="constant" value="true"/> 
    <rt:dyn type="DeviceType" mode="constant" value="&quot;fan&quot;"/> 
  </image>
  <text x="610.5" y="350" fill="black" font-size="15" text-anchor="middle">15SAS35<tspan x="610.5" dy="15">AN001</tspan>
  </text>
  <line x1="575" y1="127" x2="575" y2="75" stroke="black" stroke-width="3"/> 
  <polygon points="576,86.2417 586,103.242 566,103.242" transform="flipY(114.621)"/> 
  <line x1="564" y1="144.879" x2="587" y2="144.879" stroke="black" stroke-width="3"/> 
  <g>
    <polyline points="1122.29,1419.43 1173.5,1419.43 1173,1469.43 1123.5,1468.93 1123.5,1419.43" fill="none" stroke="black" stroke-width="3" transform="rotate(46.4048 633.73 788.542) rotate(43.2565 1325.51 325.508)"/> 
    <line x1="301.5" y1="824" x2="351" y2="775" stroke="black"/> 
    <line x1="302" y1="775.5" x2="349.5" y2="822.5" stroke="black"/> 
    <line x1="351" y1="800" x2="362" y2="800" stroke="black" stroke-width="2"/> 
    <line x1="362" y1="796" x2="362" y2="804.5" stroke="black" stroke-width="4"/> 
    <line x1="289.5" y1="800" x2="300.5" y2="800" stroke="black" stroke-width="2"/> 
    <line x1="290.5" y1="796" x2="290.5" y2="804.5" stroke="black" stroke-width="4"/> 
  </g>
  <line x1="475" y1="750" x2="325" y2="750" stroke="black" stroke-width="3"/> 
  <g transform="rotate(90 949.25 211.836)">
    <polyline points="989.753,258.626 1040.96,258.626 1040.46,308.626 990.963,308.126 990.963,258.626" fill="none" stroke="black" stroke-width="3" transform="rotate(46.4048 633.73 788.542) rotate(43.2565 1325.51 325.508)"/> 
    <line x1="1461.5" y1="684.599" x2="1511" y2="635.6" stroke="black"/> 
    <line x1="1462" y1="636.1" x2="1509.5" y2="683.099" stroke="black"/> 
    <line x1="1511" y1="660.6" x2="1522" y2="660.6" stroke="black" stroke-width="2"/> 
    <line x1="1522" y1="656.599" x2="1522" y2="665.099" stroke="black" stroke-width="4"/> 
    <line x1="1449.5" y1="660.6" x2="1460.5" y2="660.6" stroke="black" stroke-width="2"/> 
    <line x1="1450.5" y1="656.599" x2="1450.5" y2="665.099" stroke="black" stroke-width="4"/> 
  </g>
  <text x="500.763" y="659.5" fill="black" font-size="15" text-anchor="middle">15SAC55<tspan x="500.763" dy="15">AA203</tspan>
  </text>
  <image x="468.263" y="679" width="65" height="25" xlink:href="DS_Reg_degree.svg">
    <title>15SAC55AA203</title>
    <rt:dyn type="KKS" mode="constant" value="&quot;15SAC55AA203&quot;"/> 
  </image>
  <line x1="675" y1="750" x2="527" y2="750" stroke="black" stroke-width="3"/> 
  <line x1="1500" y1="750" x2="1048" y2="750" stroke="black" stroke-width="3"/> 
  <g transform="rotate(90 949.25 211.836)">
    <polyline points="240.041,252.194 291.248,252.194 290.748,302.194 241.251,301.694 241.251,252.194" fill="Col_BGSand" stroke="black" stroke-width="3" transform="rotate(46.4048 633.73 788.542) rotate(43.2565 1325.51 325.508)"/> 
    <line x1="1463.5" y1="-65.1381" x2="1513" y2="-114.137" stroke="black"/> 
    <line x1="1464" y1="-113.637" x2="1511.5" y2="-66.6381" stroke="black"/> 
    <line x1="1513" y1="-89.1371" x2="1524" y2="-89.1371" stroke="black" stroke-width="2"/> 
    <line x1="1524" y1="-93.1381" x2="1524" y2="-84.6381" stroke="black" stroke-width="4"/> 
    <line x1="1451.5" y1="-89.1371" x2="1462.5" y2="-89.1371" stroke="black" stroke-width="2"/> 
    <line x1="1452.5" y1="-93.1381" x2="1452.5" y2="-84.6381" stroke="black" stroke-width="4"/> 
  </g>
  <text x="1250.5" y="661.5" fill="black" font-size="15" text-anchor="middle">15SAC55<tspan x="1250.5" dy="15">AA204</tspan>
  </text>
  <image x="1218" y="681" width="65" height="25" xlink:href="DS_Reg_degree.svg">
    <title>15SAC55AA204</title>
    <rt:dyn type="KKS" mode="constant" value="&quot;15SAC55AA204&quot;"/> 
  </image>
  <text x="673" y="120.667" fill="black" font-size="20" text-anchor="middle">10UBA25R001</text>
  <rect x="500" y="100" width="275" height="150" rx="0" ry="0" fill="none" stroke="black" stroke-dasharray="5,5"/> 
  <rect x="961.333" y="819.303" width="0.1" height="0.1" rx="0" ry="0"/> 
  <g>
    <rect x="300.894" y="129.379" width="50" height="25" rx="0" ry="0" fill="Col_BGSand" stroke="black" stroke-width="3"/> 
    <line x1="301.644" y1="152.879" x2="350.894" y2="130.879" stroke="black" stroke-width="6"/> 
  </g>
  <text x="608" y="791.5" fill="black" font-size="15" text-anchor="middle">15SAC35<tspan x="608" dy="15">AA201</tspan>
  </text>
  <image x="565.5" y="811" width="65" height="25" xlink:href="DS_Reg_degree.svg">
    <title>15SAC35AA201</title>
    <rt:dyn type="KKS" mode="constant" value="&quot;15SAC35AA201&quot;"/> 
  </image>
  <g>
    <polyline points="1135.36,1070 1186.57,1070 1186.07,1120 1136.57,1119.5 1136.57,1070" fill="Col_BGSand" stroke="black" stroke-width="3" transform="rotate(46.4048 633.73 788.542) rotate(43.2565 1325.51 325.508)"/> 
    <line x1="651" y1="835" x2="700.5" y2="786" stroke="black"/> 
    <line x1="651.5" y1="786.5" x2="699" y2="833.5" stroke="black"/> 
    <line x1="700.5" y1="811" x2="711.5" y2="811" stroke="black" stroke-width="2"/> 
    <line x1="711.5" y1="807" x2="711.5" y2="815.5" stroke="black" stroke-width="4"/> 
    <line x1="639" y1="811" x2="650" y2="811" stroke="black" stroke-width="2"/> 
    <line x1="640" y1="807" x2="640" y2="815.5" stroke="black" stroke-width="4"/> 
  </g>
  <image x="587" y="705" width="175" height="25" xlink:href="DS_ana.svg">
    <title>10SAC35CT001</title>
    <rt:dyn type="FKKS" mode="constant" value="&quot;15SAC35CT001&quot;"/> 
    <rt:dyn type="X" mode="constant" value="&quot;T&quot;"/> 
    <rt:dyn type="ShowFrame" mode="constant" value="true"/> 
    <rt:dyn type="ValueToTheRight" mode="constant" value="false"/> 
    <rt:dyn type="Color_Readings" mode="constant" value="true"/> 
  </image>
  <g>
    <rect x="649.25" y="425" width="50" height="25" rx="0" ry="0" fill="Col_BGSand" stroke="black" stroke-width="3"/> 
    <line x1="650" y1="448.5" x2="699.25" y2="426.5" stroke="black" stroke-width="6"/> 
  </g>
  <polygon points="675,7.2417 685,24.242 665,24.242" transform="flipY(114.621)"/> 
  <line x1="663" y1="223.879" x2="686" y2="223.879" stroke="black" stroke-width="3"/> 
  <rect x="75" y="925" width="548" height="50" rx="0" ry="0" fill="none" stroke="black" stroke-dasharray="5,5"/> 
  <g>
    <polygon points="675,-664.758 685,-647.758 665,-647.758" transform="flipY(114.621)"/> 
    <line x1="663" y1="895.879" x2="686" y2="895.879" stroke="black" stroke-width="3"/> 
  </g>
  <g transform="rotate(90 596.5 950.19)">
    <polygon points="597,-727.758 607,-710.758 587,-710.758" transform="flipY(114.621)"/> 
    <line x1="585" y1="958.879" x2="608" y2="958.879" stroke="black" stroke-width="3"/> 
  </g>
  <g transform="rotate(90 596.5 950.19)">
    <polygon points="596.31,-15.5688 606.31,1.43121 586.31,1.43121" transform="flipY(114.621)"/> 
    <line x1="584.31" y1="246.69" x2="607.31" y2="246.69" stroke="black" stroke-width="3"/> 
  </g>
  <line x1="1313" y1="950" x2="600.33" y2="950" stroke="black" stroke-width="3"/> 
  <line x1="1050" y1="875" x2="1050" y2="225" stroke="black" stroke-width="3"/> 
  <image x="1015" y="315" width="70" height="70" xlink:href="DS_motor.svg" transform="rotate(90 0 0)">
    <title>15SAS35AN002</title>
    <rt:dyn type="KKS" mode="constant" value="&quot;15SAS35AN002&quot;"/> 
    <rt:dyn type="DATA_NARY" mode="constant" value="&quot;TYPE1&quot;"/> 
    <rt:dyn type="Operate" mode="constant" value="true"/> 
    <rt:dyn type="DeviceType" mode="constant" value="&quot;fan&quot;"/> 
  </image>
  <text x="988.5" y="350" fill="black" font-size="15" text-anchor="middle">15SAS35<tspan x="988.5" dy="15">AN002</tspan>
  </text>
  <text x="983" y="791.5" fill="black" font-size="15" text-anchor="middle">15SAC35<tspan x="983" dy="15">AA202</tspan>
  </text>
  <image x="940.5" y="811" width="65" height="25" xlink:href="DS_Reg_degree.svg">
    <title>15SAC35AA202</title>
    <rt:dyn type="KKS" mode="constant" value="&quot;15SAC35AA202&quot;"/> 
  </image>
  <g>
    <polyline points="1137.57,695.005 1188.78,695.005 1188.28,745.005 1138.78,744.505 1138.78,695.005" fill="Col_BGSand" stroke="black" stroke-width="3" transform="rotate(46.4048 633.73 788.542) rotate(43.2565 1325.51 325.508)"/> 
    <line x1="1026" y1="835" x2="1075.5" y2="786" stroke="black"/> 
    <line x1="1026.5" y1="786.5" x2="1074" y2="833.5" stroke="black"/> 
    <line x1="1075.5" y1="811" x2="1086.5" y2="811" stroke="black" stroke-width="2"/> 
    <line x1="1086.5" y1="807" x2="1086.5" y2="815.5" stroke="black" stroke-width="4"/> 
    <line x1="1014" y1="811" x2="1025" y2="811" stroke="black" stroke-width="2"/> 
    <line x1="1015" y1="807" x2="1015" y2="815.5" stroke="black" stroke-width="4"/> 
  </g>
  <image x="962" y="705" width="175" height="25" xlink:href="DS_ana.svg">
    <title>10SAC35CT002</title>
    <rt:dyn type="FKKS" mode="constant" value="&quot;15SAC51CT001&quot;"/> 
    <rt:dyn type="X" mode="constant" value="&quot;T&quot;"/> 
    <rt:dyn type="ShowFrame" mode="constant" value="true"/> 
    <rt:dyn type="ValueToTheRight" mode="constant" value="false"/> 
    <rt:dyn type="Color_Readings" mode="constant" value="true"/> 
  </image>
  <g>
    <rect x="1024.25" y="425" width="50" height="25" rx="0" ry="0" fill="Col_BGSand" stroke="black" stroke-width="3"/> 
    <line x1="1025" y1="448.5" x2="1074.25" y2="426.5" stroke="black" stroke-width="6"/> 
  </g>
  <polygon points="1050,7.2417 1060,24.242 1040,24.242" transform="flipY(114.621)"/> 
  <line x1="1038" y1="223.879" x2="1061" y2="223.879" stroke="black" stroke-width="3"/> 
  <g>
    <polygon points="1050,-664.758 1060,-647.758 1040,-647.758" transform="flipY(114.621)"/> 
    <line x1="1038" y1="895.879" x2="1061" y2="895.879" stroke="black" stroke-width="3"/> 
  </g>
  <g>
    <rect x="1475" y="129.5" width="50" height="25" rx="0" ry="0" fill="Col_BGSand" stroke="black" stroke-width="3"/> 
    <line x1="1475.75" y1="153" x2="1525" y2="131" stroke="black" stroke-width="6"/> 
  </g>
  <line x1="1247.67" y1="76.8333" x2="1500" y2="76.5" stroke="black" stroke-width="3"/> 
  <line x1="1248" y1="128" x2="1248" y2="76" stroke="black" stroke-width="3"/> 
  <polygon points="1249,85.2417 1259,102.242 1239,102.242" transform="flipY(114.621)"/> 
  <line x1="1237" y1="145.879" x2="1260" y2="145.879" stroke="black" stroke-width="3"/> 
  <rect x="1000" y="100" width="275" height="150" rx="0" ry="0" fill="none" stroke="black" stroke-dasharray="5,5"/> 
  <text x="1102" y="122.667" fill="black" font-size="20" text-anchor="middle">10UBA25R002</text>
  <text x="894" y="46.6667" fill="black" font-size="20" text-anchor="middle">10UBA37R001</text>
  <text x="1404" y="966.667" fill="black" font-size="20" text-anchor="middle">10UBA37R002</text>
  <rect x="1223" y="925" width="477" height="50" rx="0" ry="0" fill="none" stroke="black" stroke-dasharray="5,5"/> 
  <g transform="rotate(90 596.5 950.19)">
    <polygon points="596.31,332.552 606.31,349.552 586.31,349.552" transform="flipY(114.621)"/> 
    <line x1="584.31" y1="-101.431" x2="607.31" y2="-101.431" stroke="black" stroke-width="3"/> 
  </g>
  <g transform="rotate(90 596.5 950.19)">
    <polygon points="596.31,429.264 606.31,446.264 586.31,446.264" transform="flipY(114.621)"/> 
    <line x1="584.31" y1="-198.143" x2="607.31" y2="-198.143" stroke="black" stroke-width="3"/> 
  </g>
  <line x1="1756.35" y1="950" x2="1664" y2="950" stroke="black" stroke-width="3"/> 
  <text x="1828.94" y="944.545" fill="black" font-size="20" text-anchor="middle">Наружный<tspan x="1828.94" dy="20">воздух</tspan>
  </text>
</svg>
