<?xml  version="1.0" encoding="UTF-8"?>
<svg color="Col_BGSand" xmlns="http://www.w3.org/2000/svg" xmlns:rt="http://www.rts.co.at/2001/XMLSchema/RtSvgPL" xmlns:xlink="http://www.w3.org/1999/xlink" xmlns:xsi="http://www.w3.org/2001/XMLSchema-instance" xsi:schemaLocation="http://www.w3.org/2000/svg C:\RTS\RtSvg\XML\SVG.xsd" viewBox="0 0 1914 1000" width="1914" height="1000" id="mac">
  <title>Система паропроводов свежего пара LBA3</title>
  <rt:model modelversion="7.2.0.23" comment="Создано VNIIAES-ASUTP" revision="2.0"/> 
  <line x1="1862" y1="372.5" x2="1862" y2="866" stroke="black" stroke-width="3"/> 
  <line x1="1422" y1="564.75" x2="1422" y2="879.75" stroke="black" stroke-width="3"/> 
  <line x1="1670" y1="572.25" x2="1670" y2="891" stroke="black" stroke-width="3"/> 
  <line x1="118.25" y1="785" x2="338.25" y2="785" stroke="black" stroke-width="3"/> 
  <line x1="340" y1="599.75" x2="340" y2="848.5" stroke="black" stroke-width="3"/> 
  <line x1="649" y1="830" x2="775.25" y2="830" stroke="black" stroke-width="3"/> 
  <line x1="906.75" y1="830" x2="1280.75" y2="830" stroke="black" stroke-width="3"/> 
  <line x1="1000.75" y1="262.75" x2="1214.5" y2="262.75" stroke="black" stroke-width="3"/> 
  <line x1="578" y1="693.071" x2="578" y2="635.818" stroke="black" stroke-width="3" transform="flipY() translate(0 -828) translate(375.633 -461.599) scale(1 1.26192)"/> 
  <line x1="603.912" y1="787.541" x2="603.912" y2="685.526" stroke="black" stroke-width="3" transform="flipY() translate(0 -828) translate(220.394 -710.47) scale(1 1.83796)"/> 
  <line x1="609.306" y1="634.686" x2="609.306" y2="308.873" stroke="black" stroke-width="3" transform="flipY() translate(0 -828) translate(299.194 -506.099) scale(1 1.47908)"/> 
  <line x1="475" y1="634.686" x2="475" y2="313.944" stroke="black" stroke-width="3" transform="flipY() translate(0 -828) translate(299.194 -506.099) scale(1 1.47908)"/> 
  <line x1="494.324" y1="713.878" x2="494.324" y2="683.171" stroke="black" stroke-width="3" transform="flipY() translate(0 -828) translate(375.633 -461.599) scale(1 1.26192)"/> 
  <line x1="459.535" y1="673.113" x2="459.725" y2="629.343" stroke="black" stroke-width="3" transform="flipY() translate(0 -828) translate(273.715 -331.219) scale(1 1.12719)"/> 
  <polygon points="242.929,781.369 367.723,728.836 490.145,782.118 488.796,517.675 367.723,574.844 242.479,517.675 242.03,781.369" fill="Col_Grey4" stroke="black" stroke-width="1" transform="scale(1.08525 1 844.172 362.441) scale(1.23256 1.23256 853.715 528.435) scale(1.15237 1.15237 869.977 338.913) scale(0.666116 0.666116 882.868 664.717) scale(1.58208 1.58208 1185.63 493.856) flipY() translate(0 -828) translate(606.742 150.63) scale(0.9375 0.5625)"/> 
  <text x="1010.75" y="48.75" font-size="32">MAC</text>
  <line x1="604.545" y1="487.121" x2="604.545" y2="487.121" stroke="black"/> 
  <line x1="1228.79" y1="350.758" x2="1228.79" y2="350.758" stroke="black"/> 
  <path d="M175.033 351.274 A8.30548 8.30548 0 1 1 175.033 367.885 " fill="none" stroke="black" stroke-width="3" transform="flipY() translate(0 -828) translate(1134.06 578.736) matrix(-5.35408e-008 -1.14416 -1 4.67949e-008 0 0)"/> 
  <path d="M181.8 351.274 A8.30548 8.30548 0 1 1 181.8 367.885 " fill="none" stroke="black" stroke-width="3" transform="flipY() translate(0 -828) translate(1134.06 551.479) matrix(-5.35408e-008 -1.14416 -1 4.67949e-008 0 0)"/> 
  <path d="M181.563 242.214 A8.30548 8.30548 0 1 1 181.563 258.825 " fill="none" stroke="black" stroke-width="3" transform="flipY() translate(0 -828) translate(1159.25 551.208) matrix(-5.35408e-008 -1.14416 -1 4.67949e-008 0 0)"/> 
  <text x="824.313" y="273.928" fill="black" font-size="17" text-anchor="middle">MAA</text>
  <text x="692.643" y="415.122" fill="black" font-size="15" text-anchor="middle">III</text>
  <text x="733.953" y="403.309" fill="black" font-size="15" text-anchor="middle">II</text>
  <text x="773.463" y="389.269" fill="black" font-size="15" text-anchor="middle">I</text>
  <text x="870.305" y="391.269" fill="black" font-size="15" text-anchor="middle">I</text>
  <text x="911.355" y="405.309" fill="black" font-size="15" text-anchor="middle">II</text>
  <text x="953.005" y="417.122" fill="black" font-size="15" text-anchor="middle">III</text>
  <text x="333.875" y="939.25" fill="black" font-size="15" text-anchor="middle">в КСН<tspan x="333.875" dy="15">и деаэратор</tspan>
  </text>
  <text x="241.25" y="706.875" font-size="15">10LBQ15<tspan x="241.25" dy="15">AA610</tspan>
  </text>
  <text x="775.875" y="949.25" fill="black" font-size="15" text-anchor="middle">ПВД-6</text>
  <text x="673.75" y="706.875" font-size="15">10LBQ11<tspan x="673.75" dy="15">AA610</tspan>
  </text>
  <text x="564" y="824.75" fill="black" font-size="15" text-anchor="middle">СПП<tspan x="564" dy="15">I ступень</tspan>
  </text>
  <image x="285.5" y="610.25" width="175" height="25" xlink:href="DS_ana.svg">
    <title>&quot;10LBQ15CP001&quot;</title>
    <rt:dyn type="FKKS" mode="constant" value="&quot;10LBQ15CP001&quot;"/> 
    <rt:dyn type="X" mode="constant" value="&quot;P&quot;"/> 
    <rt:dyn type="ShowFrame" mode="constant" value="true"/> 
    <rt:dyn type="ValueToTheRight" mode="constant" value="false"/> 
    <rt:dyn type="Color_Readings" mode="constant" value="true"/> 
  </image>
  <image x="285.5" y="642.5" width="175" height="25" xlink:href="DS_ana.svg">
    <title>&quot;10LBQ15CT001&quot;</title>
    <rt:dyn type="FKKS" mode="constant" value="&quot;10LBQ15CT001&quot;"/> 
    <rt:dyn type="X" mode="constant" value="&quot;T&quot;"/> 
    <rt:dyn type="ShowFrame" mode="constant" value="true"/> 
    <rt:dyn type="ValueToTheRight" mode="constant" value="false"/> 
    <rt:dyn type="Color_Readings" mode="constant" value="true"/> 
  </image>
  <image x="654" y="610.25" width="175" height="25" xlink:href="DS_ana.svg">
    <title>&quot;10LBQ11CP001&quot;</title>
    <rt:dyn type="FKKS" mode="constant" value="&quot;10LBQ11CP001&quot;"/> 
    <rt:dyn type="X" mode="constant" value="&quot;P&quot;"/> 
    <rt:dyn type="ShowFrame" mode="constant" value="true"/> 
    <rt:dyn type="ValueToTheRight" mode="constant" value="false"/> 
    <rt:dyn type="Color_Readings" mode="constant" value="true"/> 
  </image>
  <image x="654" y="642.5" width="175" height="25" xlink:href="DS_ana.svg">
    <title>&quot;10LBQ11CT001&quot;</title>
    <rt:dyn type="FKKS" mode="constant" value="&quot;10LBQ11CT001&quot;"/> 
    <rt:dyn type="X" mode="constant" value="&quot;T&quot;"/> 
    <rt:dyn type="ShowFrame" mode="constant" value="true"/> 
    <rt:dyn type="ValueToTheRight" mode="constant" value="false"/> 
    <rt:dyn type="Color_Readings" mode="constant" value="true"/> 
  </image>
  <text x="908.875" y="949.25" fill="black" font-size="15" text-anchor="middle">ПВД-5</text>
  <text x="936.25" y="706.875" font-size="15">10LBQ13<tspan x="936.25" dy="15">AA610</tspan>
  </text>
  <text x="1306.37" y="794.75" fill="black" font-size="15" text-anchor="middle">на подпитку<tspan x="1306.37" dy="15">теплосети</tspan>
  </text>
  <image x="854" y="610.25" width="175" height="25" xlink:href="DS_ana.svg">
    <title>&quot;10LBQ13CP001&quot;</title>
    <rt:dyn type="FKKS" mode="constant" value="&quot;10LBQ13CP001&quot;"/> 
    <rt:dyn type="X" mode="constant" value="&quot;P&quot;"/> 
    <rt:dyn type="ShowFrame" mode="constant" value="true"/> 
    <rt:dyn type="ValueToTheRight" mode="constant" value="false"/> 
    <rt:dyn type="Color_Readings" mode="constant" value="true"/> 
  </image>
  <image x="854" y="642.5" width="175" height="25" xlink:href="DS_ana.svg">
    <title>&quot;10LBQ13CT001&quot;</title>
    <rt:dyn type="FKKS" mode="constant" value="&quot;10LBQ13CT001&quot;"/> 
    <rt:dyn type="X" mode="constant" value="&quot;T&quot;"/> 
    <rt:dyn type="ShowFrame" mode="constant" value="true"/> 
    <rt:dyn type="ValueToTheRight" mode="constant" value="false"/> 
    <rt:dyn type="Color_Readings" mode="constant" value="true"/> 
  </image>
  <text x="75.9998" y="597.75" fill="black" font-size="15" text-anchor="middle">отвод пара от<tspan x="75.9998" dy="15">штоков РК, СКВД</tspan>
  </text>
  <image x="682.857" y="786.75" width="70" height="65" xlink:href="DS_CO_valve.svg" transform="flipX()">
    <title>&quot;10LBJ00AA001&quot;</title>
    <rt:dyn type="KKS" mode="constant" value="&quot;10LBJ00AA001&quot;"/> 
    <rt:dyn type="DATA_NARY" mode="constant" value="&quot;TPTS&quot;"/> 
    <rt:dyn type="Drive" mode="constant" value="&quot;moto&quot;"/> 
    <rt:dyn type="Operate" mode="constant" value="true"/> 
  </image>
  <text x="690.75" y="868.5" font-size="15">10LBJ00<tspan x="690.75" dy="15">AA001</tspan>
  </text>
  <image x="643.5" y="287.75" width="175" height="25" xlink:href="DS_ana.svg">
    <title>&quot;10MAA10CT011&quot;</title>
    <rt:dyn type="FKKS" mode="constant" value="&quot;10MAA10CT011&quot;"/> 
    <rt:dyn type="X" mode="constant" value="&quot;T&quot;"/> 
    <rt:dyn type="ShowFrame" mode="constant" value="true"/> 
    <rt:dyn type="ValueToTheRight" mode="constant" value="false"/> 
    <rt:dyn type="Color_Readings" mode="constant" value="true"/> 
  </image>
  <image x="830.5" y="287.75" width="175" height="25" xlink:href="DS_ana.svg">
    <title>&quot;10MAA10CT013&quot;</title>
    <rt:dyn type="FKKS" mode="constant" value="&quot;10MAA10CT013&quot;"/> 
    <rt:dyn type="X" mode="constant" value="&quot;T&quot;"/> 
    <rt:dyn type="ShowFrame" mode="constant" value="true"/> 
    <rt:dyn type="ValueToTheRight" mode="constant" value="false"/> 
    <rt:dyn type="Color_Readings" mode="constant" value="true"/> 
  </image>
  <image x="733.25" y="325" width="175" height="25" xlink:href="DS_ana.svg">
    <title>&quot;10MAA10CT012&quot;</title>
    <rt:dyn type="FKKS" mode="constant" value="&quot;10MAA10CT012&quot;"/> 
    <rt:dyn type="X" mode="constant" value="&quot;T&quot;"/> 
    <rt:dyn type="ShowFrame" mode="constant" value="true"/> 
    <rt:dyn type="ValueToTheRight" mode="constant" value="false"/> 
    <rt:dyn type="Color_Readings" mode="constant" value="true"/> 
  </image>
  <image x="736.807" y="194.25" width="175" height="25" xlink:href="DS_ana.svg">
    <title>&quot;10MAA10CT001&quot;</title>
    <rt:dyn type="FKKS" mode="constant" value="&quot;10MAA10CT001&quot;"/> 
    <rt:dyn type="X" mode="constant" value="&quot;T&quot;"/> 
    <rt:dyn type="ShowFrame" mode="constant" value="true"/> 
    <rt:dyn type="ValueToTheRight" mode="constant" value="false"/> 
    <rt:dyn type="Color_Readings" mode="constant" value="true"/> 
  </image>
  <image x="302.25" y="874.237" width="75" height="25" xlink:href="obj_link.svg" transform="rotate(90 37.809 12.4999)">
    <rt:dyn type="TextStr" mode="constant" value="&quot;LBG&quot;"/> 
  </image>
  <image x="1200.25" y="250.25" width="75" height="25" xlink:href="obj_link.svg">
    <rt:dyn type="TextStr" mode="constant" value="&quot;LCC30,40&quot;"/> 
  </image>
  <image x="1727" y="861" width="75" height="25" xlink:href="obj_link.svg">
    <rt:dyn type="TextStr" mode="constant" value="&quot;LCX&quot;"/> 
  </image>
  <image x="871" y="874.237" width="75" height="25" xlink:href="obj_link.svg" transform="rotate(90 37.8089 12.5)">
    <rt:dyn type="TextStr" mode="constant" value="&quot;&quot;"/> 
  </image>
  <image x="735.25" y="874.237" width="75" height="25" xlink:href="obj_link.svg" transform="rotate(90 37.809 12.4999)">
    <rt:dyn type="TextStr" mode="constant" value="&quot;&quot;"/> 
  </image>
  <image x="600.25" y="814.75" width="75" height="25" xlink:href="obj_link.svg" transform="flipX(37.4999)">
    <rt:dyn type="TextStr" mode="constant" value="&quot;LBJ&quot;"/> 
  </image>
  <image x="931.574" y="786.125" width="70" height="65" xlink:href="DS_Reg_valve.svg">
    <title>&quot;10LBG62AA201&quot;</title>
    <rt:dyn type="KKS" mode="constant" value="&quot;10LBG62AA201&quot;"/> 
    <rt:dyn type="DATA_NARY" mode="constant" value="&quot;TPTS&quot;"/> 
    <rt:dyn type="Operate" mode="constant" value="true"/> 
  </image>
  <image x="934.004" y="757.625" width="65" height="25" xlink:href="DS_Reg_degree.svg">
    <title>&quot;10LBG62AA201&quot;</title>
    <rt:dyn type="KKS" mode="constant" value="&quot;10LBG62AA201&quot;"/> 
  </image>
  <text x="937.754" y="865.375" font-size="15">10LBG62<tspan x="937.754" dy="15">AA201</tspan>
  </text>
  <image x="1016.75" y="786.875" width="70" height="65" xlink:href="DS_CO_valve.svg" transform="flipX()">
    <title>&quot;10LBG62AA001&quot;</title>
    <rt:dyn type="KKS" mode="constant" value="&quot;10LBG62AA001&quot;"/> 
    <rt:dyn type="DATA_NARY" mode="constant" value="&quot;TPTS&quot;"/> 
    <rt:dyn type="Drive" mode="constant" value="&quot;moto&quot;"/> 
    <rt:dyn type="Operate" mode="constant" value="true"/> 
  </image>
  <text x="1016.25" y="768.5" font-size="15">10LBG62<tspan x="1016.25" dy="15">AA001</tspan>
  </text>
  <image x="1091.75" y="839.5" width="175" height="25" xlink:href="DS_ana.svg">
    <title>&quot;10LBG60CP001&quot;</title>
    <rt:dyn type="FKKS" mode="constant" value="&quot;10LBG60CP001&quot;"/> 
    <rt:dyn type="X" mode="constant" value="&quot;P&quot;"/> 
    <rt:dyn type="ShowFrame" mode="constant" value="true"/> 
    <rt:dyn type="ValueToTheRight" mode="constant" value="false"/> 
    <rt:dyn type="Color_Readings" mode="constant" value="true"/> 
  </image>
  <image x="1091.75" y="870.25" width="175" height="25" xlink:href="DS_ana.svg">
    <title>&quot;10LBG60CT001&quot;</title>
    <rt:dyn type="FKKS" mode="constant" value="&quot;10LBG60CT001&quot;"/> 
    <rt:dyn type="X" mode="constant" value="&quot;T&quot;"/> 
    <rt:dyn type="ShowFrame" mode="constant" value="true"/> 
    <rt:dyn type="ValueToTheRight" mode="constant" value="false"/> 
    <rt:dyn type="Color_Readings" mode="constant" value="true"/> 
  </image>
  <path d="M248.443 396.291 A8.30548 8.30548 0 1 1 248.443 412.902 " fill="none" stroke="black" stroke-width="3" transform="flipY() translate(0 -828) translate(1097.12 551.479) matrix(-5.35408e-008 -1.14416 -1 4.67949e-008 0 0)"/> 
  <image x="1555.75" y="610.25" width="175" height="25" xlink:href="DS_ana.svg">
    <title>&quot;10LBS20CP001&quot;</title>
    <rt:dyn type="FKKS" mode="constant" value="&quot;10LBS20CP001&quot;"/> 
    <rt:dyn type="X" mode="constant" value="&quot;P&quot;"/> 
    <rt:dyn type="ShowFrame" mode="constant" value="true"/> 
    <rt:dyn type="ValueToTheRight" mode="constant" value="false"/> 
    <rt:dyn type="Color_Readings" mode="constant" value="true"/> 
  </image>
  <image x="1555.75" y="642.5" width="175" height="25" xlink:href="DS_ana.svg">
    <title>&quot;10LBS20CT001&quot;</title>
    <rt:dyn type="FKKS" mode="constant" value="&quot;10LBS20CT001&quot;"/> 
    <rt:dyn type="X" mode="constant" value="&quot;T&quot;"/> 
    <rt:dyn type="ShowFrame" mode="constant" value="true"/> 
    <rt:dyn type="ValueToTheRight" mode="constant" value="false"/> 
    <rt:dyn type="Color_Readings" mode="constant" value="true"/> 
  </image>
  <image x="1735.75" y="697.75" width="175" height="25" xlink:href="DS_ana.svg">
    <title>&quot;10LBS25CP001&quot;</title>
    <rt:dyn type="FKKS" mode="constant" value="&quot;10LBS25CP001&quot;"/> 
    <rt:dyn type="X" mode="constant" value="&quot;P&quot;"/> 
    <rt:dyn type="ShowFrame" mode="constant" value="true"/> 
    <rt:dyn type="ValueToTheRight" mode="constant" value="false"/> 
    <rt:dyn type="Color_Readings" mode="constant" value="true"/> 
  </image>
  <image x="1735.75" y="730" width="175" height="25" xlink:href="DS_ana.svg">
    <title>&quot;10LBS25CT001&quot;</title>
    <rt:dyn type="FKKS" mode="constant" value="&quot;10LBS25CT001&quot;"/> 
    <rt:dyn type="X" mode="constant" value="&quot;T&quot;"/> 
    <rt:dyn type="ShowFrame" mode="constant" value="true"/> 
    <rt:dyn type="ValueToTheRight" mode="constant" value="false"/> 
    <rt:dyn type="Color_Readings" mode="constant" value="true"/> 
  </image>
  <image x="1309" y="610.25" width="175" height="25" xlink:href="DS_ana.svg">
    <title>&quot;10LBS30CP001&quot;</title>
    <rt:dyn type="FKKS" mode="constant" value="&quot;10LBS30CP001&quot;"/> 
    <rt:dyn type="X" mode="constant" value="&quot;P&quot;"/> 
    <rt:dyn type="ShowFrame" mode="constant" value="true"/> 
    <rt:dyn type="ValueToTheRight" mode="constant" value="false"/> 
    <rt:dyn type="Color_Readings" mode="constant" value="true"/> 
  </image>
  <image x="1309" y="642.5" width="175" height="25" xlink:href="DS_ana.svg">
    <title>&quot;10LBS30CT001&quot;</title>
    <rt:dyn type="FKKS" mode="constant" value="&quot;10LBS30CT001&quot;"/> 
    <rt:dyn type="X" mode="constant" value="&quot;T&quot;"/> 
    <rt:dyn type="ShowFrame" mode="constant" value="true"/> 
    <rt:dyn type="ValueToTheRight" mode="constant" value="false"/> 
    <rt:dyn type="Color_Readings" mode="constant" value="true"/> 
  </image>
  <image x="1019" y="200.25" width="175" height="25" xlink:href="DS_ana.svg">
    <title>&quot;10LBS40CP001&quot;</title>
    <rt:dyn type="FKKS" mode="constant" value="&quot;10LBS40CP001&quot;"/> 
    <rt:dyn type="X" mode="constant" value="&quot;P&quot;"/> 
    <rt:dyn type="ShowFrame" mode="constant" value="true"/> 
    <rt:dyn type="ValueToTheRight" mode="constant" value="false"/> 
    <rt:dyn type="Color_Readings" mode="constant" value="true"/> 
  </image>
  <image x="1019" y="232" width="175" height="25" xlink:href="DS_ana.svg">
    <title>&quot;10LBS40CT001&quot;</title>
    <rt:dyn type="FKKS" mode="constant" value="&quot;10LBS40CT001&quot;"/> 
    <rt:dyn type="X" mode="constant" value="&quot;T&quot;"/> 
    <rt:dyn type="ShowFrame" mode="constant" value="true"/> 
    <rt:dyn type="ValueToTheRight" mode="constant" value="false"/> 
    <rt:dyn type="Color_Readings" mode="constant" value="true"/> 
  </image>
  <image x="1272" y="818.75" width="90" height="25" xlink:href="obj_link.svg">
    <rt:dyn type="TextStr" mode="constant" value="&quot;LBG40_60&quot;"/> 
  </image>
  <text x="1119.5" y="317" font-size="15">10NAA<tspan x="1119.5" dy="15">20AA001</tspan>
  </text>
  <g transform="rotate(270 1083.87 479.375) flipX(480.125) rotate(270 1629.73 978.788) flipY(125) rotate(180 1210.44 541.647)">
    <g transform="rotate(90 1212.44 532.643)">
      <polygon points="1909.53,-727.428 1922.91,-719.778 1922.91,-735.073 1909.53,-727.428" fill="black" stroke="black" stroke-width="1" transform="rotate(180 1279.17 367.814)"/> 
    </g>
  </g>
  <image x="161.242" y="742.576" width="70" height="65" xlink:href="DS_CO_valve.svg" transform="flipX()">
    <title>&quot;10NAA30AA001&quot;</title>
    <rt:dyn type="KKS" mode="constant" value="&quot;10NAA30AA001&quot;"/> 
    <rt:dyn type="DATA_NARY" mode="constant" value="&quot;TPTS&quot;"/> 
    <rt:dyn type="Drive" mode="constant" value="&quot;moto&quot;"/> 
    <rt:dyn type="Operate" mode="constant" value="true"/> 
  </image>
  <text x="162" y="822.25" font-size="15">10NAA30<tspan x="162" dy="15">AA001</tspan>
  </text>
  <g transform="flipX(480.125) rotate(270 1629.73 978.788) flipY(125) rotate(180 1210.44 541.647)">
    <g transform="rotate(90 1212.44 532.643)">
      <polygon points="849.127,-412.39 862.507,-404.74 862.507,-420.035 849.127,-412.39" fill="black" stroke="black" stroke-width="1" transform="rotate(180 1279.17 367.814)"/> 
    </g>
  </g>
  <text x="63.8483" y="792.296" font-size="15">к ПСВ</text>
  <line x1="162" y1="600" x2="692.745" y2="600" stroke="black" stroke-width="3"/> 
  <image x="285.5" y="799" width="175" height="25" xlink:href="DS_ana.svg">
    <title>&quot;10LBG02CP001&quot;</title>
    <rt:dyn type="FKKS" mode="constant" value="&quot;10LBG02CP001&quot;"/> 
    <rt:dyn type="X" mode="constant" value="&quot;P&quot;"/> 
    <rt:dyn type="ShowFrame" mode="constant" value="true"/> 
    <rt:dyn type="ValueToTheRight" mode="constant" value="false"/> 
    <rt:dyn type="Color_Readings" mode="constant" value="true"/> 
  </image>
  <line x1="783.5" y1="451" x2="908.25" y2="451" stroke="black" stroke-width="3"/> 
  <line x1="732.25" y1="451" x2="764.75" y2="451" stroke="black" stroke-width="3"/> 
  <line x1="773.25" y1="426" x2="868.25" y2="426" stroke="black" stroke-width="3"/> 
  <line x1="782" y1="486" x2="900.75" y2="486" stroke="black" stroke-width="3"/> 
  <line x1="1704.75" y1="372.5" x2="1704.75" y2="456.5" stroke="black" stroke-width="3"/> 
  <line x1="1733.92" y1="354.5" x2="1733.92" y2="419.5" stroke="black" stroke-width="3"/> 
  <line x1="1833.92" y1="354.5" x2="1833.92" y2="419.5" stroke="black" stroke-width="3"/> 
  <path d="M-453.584 984.268 A8.30548 8.30548 0 1 1 -453.584 1000.88 " fill="none" stroke="black" stroke-width="3" transform="rotate(90 582.024 935.001) flipY() translate(0 -828) translate(1097.12 551.479) matrix(-5.35408e-008 -1.14416 -1 4.67949e-008 0 0)"/> 
  <polygon points="1517.51,778.962 1642.3,726.429 1764.72,779.711 1763.37,515.269 1642.3,572.438 1517.06,515.269 1516.61,778.962" fill="Col_Grey4" stroke="black" stroke-width="1" transform="scale(1.03878 1.03878 599.576 333.831) scale(1.27079 1.27079 627.576 333.83) scale(0.5177 0.5177 214.115 449.091) scale(1.58208 1.58208 1185.63 493.856) flipY() translate(0 -828) translate(606.742 150.63) scale(0.9375 0.5625)"/> 
  <text x="1782.75" y="327.21" fill="black" font-size="17" text-anchor="middle">MAC20</text>
  <text x="1733.38" y="372.25" fill="black" font-size="15" text-anchor="middle">V</text>
  <text x="1833.75" y="372.25" fill="black" font-size="15" text-anchor="middle">V</text>
  <text x="1704.25" y="382.75" fill="black" font-size="15" text-anchor="middle">VI</text>
  <text x="1864.13" y="382.75" fill="black" font-size="15" text-anchor="middle">VI</text>
  <line x1="1758.75" y1="421" x2="1758.75" y2="448.5" stroke="black" stroke-width="3"/> 
  <line x1="1758.75" y1="466.25" x2="1758.75" y2="561.25" stroke="black" stroke-width="3"/> 
  <line x1="1101" y1="561" x2="1101" y2="705" stroke="black" stroke-width="3"/> 
  <line x1="1733.42" y1="419" x2="1834.92" y2="419" stroke="black" stroke-width="3"/> 
  <line x1="1418" y1="455.5" x2="1861.75" y2="455.5" stroke="black" stroke-width="3"/> 
  <line x1="1574.5" y1="372.5" x2="1574.5" y2="456" stroke="black" stroke-width="3"/> 
  <line x1="1418.5" y1="372.5" x2="1418.5" y2="456.5" stroke="black" stroke-width="3"/> 
  <line x1="1447.67" y1="354.5" x2="1447.67" y2="419.5" stroke="black" stroke-width="3"/> 
  <line x1="1547.67" y1="354.5" x2="1547.67" y2="419.5" stroke="black" stroke-width="3"/> 
  <path d="M-203.4 985.268 A8.30548 8.30548 0 1 1 -203.4 1001.88 " fill="none" stroke="black" stroke-width="3" transform="rotate(90 582.024 935.001) flipY() translate(0 -828) translate(1097.12 551.479) matrix(-5.35408e-008 -1.14416 -1 4.67949e-008 0 0)"/> 
  <polygon points="1235.1,778.962 1359.9,726.429 1482.32,779.711 1480.97,515.269 1359.9,572.438 1234.65,515.269 1234.2,778.962" fill="Col_Grey4" stroke="black" stroke-width="1" transform="scale(1.03878 1.03878 599.576 333.831) scale(1.27079 1.27079 627.576 333.83) scale(0.5177 0.5177 214.115 449.091) scale(1.58208 1.58208 1185.63 493.856) flipY() translate(0 -828) translate(606.742 150.63) scale(0.9375 0.5625)"/> 
  <text x="1497.04" y="327.21" fill="black" font-size="17" text-anchor="middle">MAC10</text>
  <text x="1447.13" y="372.25" fill="black" font-size="15" text-anchor="middle">V</text>
  <text x="1547.5" y="372.25" fill="black" font-size="15" text-anchor="middle">V</text>
  <text x="1418" y="382.75" fill="black" font-size="15" text-anchor="middle">VI</text>
  <text x="1577.88" y="382.75" fill="black" font-size="15" text-anchor="middle">VI</text>
  <line x1="1472.5" y1="420" x2="1472.5" y2="447.5" stroke="black" stroke-width="3"/> 
  <line x1="1472.5" y1="465.25" x2="1472.5" y2="560.25" stroke="black" stroke-width="3"/> 
  <line x1="1074" y1="263.5" x2="1074" y2="386" stroke="black" stroke-width="3"/> 
  <line x1="1225.25" y1="703" x2="1102.75" y2="703" stroke="black" stroke-width="3"/> 
  <line x1="1447.17" y1="419" x2="1548.67" y2="419" stroke="black" stroke-width="3"/> 
  <line x1="317" y1="689.506" x2="317" y2="544.687" stroke="black" stroke-width="3" transform="flipY() translate(0 -828) translate(375.633 -461.599) scale(1 1.26192)"/> 
  <path d="M206.113 395.4 A8.30548 8.30548 0 1 1 206.113 412.011 " fill="none" stroke="black" stroke-width="3" transform="flipY() translate(0 -828) translate(1097.12 551.479) matrix(-5.35408e-008 -1.14416 -1 4.67949e-008 0 0)"/> 
  <path d="M206.113 315.15 A8.30548 8.30548 0 1 1 206.113 331.761 " fill="none" stroke="black" stroke-width="3" transform="flipY() translate(0 -828) translate(1097.12 551.479) matrix(-5.35408e-008 -1.14416 -1 4.67949e-008 0 0)"/> 
  <path d="M206.113 179.4 A8.30548 8.30548 0 1 1 206.113 196.011 " fill="none" stroke="black" stroke-width="3" transform="flipY() translate(0 -828) translate(1097.12 551.479) matrix(-5.35408e-008 -1.14416 -1 4.67949e-008 0 0)"/> 
  <line x1="493.752" y1="373.25" x2="493.752" y2="456.75" stroke="black" stroke-width="3"/> 
  <line x1="337.752" y1="373.25" x2="337.752" y2="457.25" stroke="black" stroke-width="3"/> 
  <line x1="366.917" y1="355.25" x2="366.917" y2="420.25" stroke="black" stroke-width="3"/> 
  <line x1="466.917" y1="355.25" x2="466.917" y2="420.25" stroke="black" stroke-width="3"/> 
  <path d="M891.273 649.039 A8.30548 8.30548 0 1 1 891.273 665.65 " fill="none" stroke="black" stroke-width="3" transform="flipY(548.21) flipY(940.001) flipY() translate(0 -828) translate(1097.12 551.479) matrix(-5.35408e-008 -1.14416 -1 4.67949e-008 0 0)"/> 
  <path d="M698.354 984.518 A8.30548 8.30548 0 1 1 698.354 1001.13 " fill="none" stroke="black" stroke-width="3" transform="rotate(90 582.024 935.001) flipY() translate(0 -828) translate(1097.12 551.479) matrix(-5.35408e-008 -1.14416 -1 4.67949e-008 0 0)"/> 
  <polygon points="168.873,777.728 293.667,725.195 416.088,778.477 414.739,514.035 293.667,571.204 168.423,514.035 167.974,777.728" fill="Col_Grey4" stroke="black" stroke-width="1" transform="scale(1.03878 1.03878 599.576 333.831) scale(1.27079 1.27079 627.576 333.83) scale(0.5177 0.5177 214.115 449.091) scale(1.58208 1.58208 1185.63 493.856) flipY() translate(0 -828) translate(606.742 150.63) scale(0.9375 0.5625)"/> 
  <text x="415.75" y="327.21" fill="black" font-size="17" text-anchor="middle">MAC20</text>
  <text x="366.377" y="373" fill="black" font-size="15" text-anchor="middle">V</text>
  <text x="466.752" y="373" fill="black" font-size="15" text-anchor="middle">V</text>
  <text x="337.252" y="383.5" fill="black" font-size="15" text-anchor="middle">VI</text>
  <text x="497.127" y="383.5" fill="black" font-size="15" text-anchor="middle">VI</text>
  <line x1="440.752" y1="420.75" x2="440.752" y2="448.25" stroke="black" stroke-width="3"/> 
  <line x1="440.752" y1="466" x2="440.752" y2="561" stroke="black" stroke-width="3"/> 
  <line x1="376.502" y1="456.75" x2="376.502" y2="514.25" stroke="black" stroke-width="3"/> 
  <line x1="448.767" y1="513.25" x2="685.75" y2="513.25" stroke="black" stroke-width="3"/> 
  <line x1="366.417" y1="419.75" x2="467.917" y2="419.75" stroke="black" stroke-width="3"/> 
  <line x1="337.752" y1="456.25" x2="494.752" y2="456.25" stroke="black" stroke-width="3"/> 
  <line x1="163.516" y1="513.25" x2="433.502" y2="513.25" stroke="black" stroke-width="3"/> 
  <line x1="153.755" y1="561" x2="684.5" y2="561" stroke="black" stroke-width="3"/> 
  <line x1="207.502" y1="373.25" x2="207.502" y2="456.75" stroke="black" stroke-width="3"/> 
  <line x1="51.5018" y1="373.25" x2="51.5018" y2="457.25" stroke="black" stroke-width="3"/> 
  <line x1="80.667" y1="355.25" x2="80.667" y2="420.25" stroke="black" stroke-width="3"/> 
  <line x1="180.667" y1="355.25" x2="180.667" y2="420.25" stroke="black" stroke-width="3"/> 
  <path d="M891.273 935.289 A8.30548 8.30548 0 1 1 891.273 951.9 " fill="none" stroke="black" stroke-width="3" transform="flipY(548.209) flipY(940.001) flipY() translate(0 -828) translate(1097.12 551.479) matrix(-5.35408e-008 -1.14416 -1 4.67949e-008 0 0)"/> 
  <path d="M948.538 984.518 A8.30548 8.30548 0 1 1 948.538 1001.13 " fill="none" stroke="black" stroke-width="3" transform="rotate(90 582.024 935.001) flipY() translate(0 -828) translate(1097.12 551.479) matrix(-5.35408e-008 -1.14416 -1 4.67949e-008 0 0)"/> 
  <polygon points="-113.531,777.728 11.2633,725.195 133.684,778.477 132.335,514.035 11.2633,571.204 -113.981,514.035 -114.43,777.728" fill="Col_Grey4" stroke="black" stroke-width="1" transform="scale(1.03878 1.03878 599.576 333.831) scale(1.27079 1.27079 627.576 333.83) scale(0.5177 0.5177 214.115 449.091) scale(1.58208 1.58208 1185.63 493.856) flipY() translate(0 -828) translate(606.742 150.63) scale(0.9375 0.5625)"/> 
  <text x="130.042" y="327.21" fill="black" font-size="17" text-anchor="middle">MAC10</text>
  <text x="80.127" y="373" fill="black" font-size="15" text-anchor="middle">V</text>
  <text x="180.502" y="373" fill="black" font-size="15" text-anchor="middle">V</text>
  <text x="51.0018" y="383.5" fill="black" font-size="15" text-anchor="middle">VI</text>
  <text x="210.877" y="383.5" fill="black" font-size="15" text-anchor="middle">VI</text>
  <line x1="154.502" y1="420.75" x2="154.502" y2="448.25" stroke="black" stroke-width="3"/> 
  <line x1="154.502" y1="466" x2="154.502" y2="561" stroke="black" stroke-width="3"/> 
  <line x1="90.252" y1="456.75" x2="90.252" y2="514.25" stroke="black" stroke-width="3"/> 
  <line x1="146.014" y1="513.25" x2="89.752" y2="513.25" stroke="black" stroke-width="3"/> 
  <line x1="80.167" y1="419.75" x2="181.667" y2="419.75" stroke="black" stroke-width="3"/> 
  <line x1="51.5019" y1="456.25" x2="208.502" y2="456.25" stroke="black" stroke-width="3"/> 
  <line x1="702.75" y1="513.25" x2="765.75" y2="513.25" stroke="black" stroke-width="3"/> 
  <line x1="782.012" y1="513.25" x2="902.25" y2="513.25" stroke="black" stroke-width="3"/> 
  <line x1="917.012" y1="513.25" x2="1465.75" y2="513.25" stroke="black" stroke-width="3"/> 
  <path d="M205.676 -383.6 A8.30548 8.30548 0 1 1 205.676 -366.989 " fill="none" stroke="black" stroke-width="3" transform="flipY() translate(0 -828) translate(1097.12 551.479) matrix(-5.35408e-008 -1.14416 -1 4.67949e-008 0 0)"/> 
  <line x1="1480.75" y1="513.25" x2="1668.5" y2="513.25" stroke="black" stroke-width="3"/> 
  <path d="M249.376 315.65 A8.30548 8.30548 0 1 1 249.376 332.261 " fill="none" stroke="black" stroke-width="3" transform="flipY() translate(0 -828) translate(1097.12 551.479) matrix(-5.35408e-008 -1.14416 -1 4.67949e-008 0 0)"/> 
  <path d="M249.376 179.9 A8.30548 8.30548 0 1 1 249.376 196.511 " fill="none" stroke="black" stroke-width="3" transform="flipY() translate(0 -828) translate(1097.12 551.479) matrix(-5.35408e-008 -1.14416 -1 4.67949e-008 0 0)"/> 
  <line x1="702.25" y1="562.75" x2="765.25" y2="562.75" stroke="black" stroke-width="3"/> 
  <line x1="781.512" y1="562.75" x2="901.75" y2="562.75" stroke="black" stroke-width="3"/> 
  <line x1="916.512" y1="562.75" x2="1760" y2="562.25" stroke="black" stroke-width="3"/> 
  <text x="1130.5" y="601.25" font-size="15">10NAA10<tspan x="1130.5" dy="15">AA610</tspan>
  </text>
  <text x="1238" y="708.5" font-size="15">к ПСВ</text>
  <image x="1130.27" y="660.5" width="70" height="65" xlink:href="DS_CO_valve.svg" transform="flipX()">
    <title>&quot;10NAA10AA001&quot;</title>
    <rt:dyn type="KKS" mode="constant" value="&quot;10NAA10AA001&quot;"/> 
    <rt:dyn type="DATA_NARY" mode="constant" value="&quot;TPTS&quot;"/> 
    <rt:dyn type="Drive" mode="constant" value="&quot;moto&quot;"/> 
    <rt:dyn type="Operate" mode="constant" value="true"/> 
  </image>
  <text x="1131.5" y="740" font-size="15">10NAA10<tspan x="1131.5" dy="15">AA001</tspan>
  </text>
  <g transform="rotate(270 1629.73 978.788) flipY(125) rotate(180 1210.44 541.647)">
    <g transform="rotate(90 1212.44 532.643)">
      <polygon points="466.979,-495.678 480.359,-488.028 480.359,-503.323 466.979,-495.678" fill="black" stroke="black" stroke-width="1" transform="rotate(180 1279.17 367.814)"/> 
    </g>
  </g>
  <text x="1448.5" y="706.875" font-size="15">10LBS30<tspan x="1448.5" dy="15">AA610</tspan>
  </text>
  <image x="1385.5" y="874.237" width="75" height="25" xlink:href="obj_link.svg" transform="rotate(90 37.8089 12.5)">
    <rt:dyn type="TextStr" mode="constant" value="&quot;&quot;"/> 
  </image>
  <text x="1394.75" y="949.25" font-size="15">к ПНД-3</text>
  <path d="M-376.579 879.268 A8.30548 8.30548 0 1 1 -376.579 895.879 " fill="none" stroke="black" stroke-width="3" transform="rotate(90 582.024 935.001) flipY() translate(0 -828) translate(1097.12 551.479) matrix(-5.35408e-008 -1.14416 -1 4.67949e-008 0 0)"/> 
  <line x1="1669.25" y1="512" x2="1669.65" y2="553.5" stroke="black" stroke-width="3"/> 
  <image x="1632.75" y="874.237" width="75" height="25" xlink:href="obj_link.svg" transform="rotate(90 37.8089 12.5)">
    <rt:dyn type="TextStr" mode="constant" value="&quot;&quot;"/> 
  </image>
  <text x="1632.75" y="949.25" font-size="15">к ПНД-2</text>
  <text x="1279" y="269" font-size="15">к ПНД-4</text>
  <image x="1825.75" y="874.237" width="75" height="25" xlink:href="obj_link.svg" transform="rotate(90 37.8089 12.5)">
    <rt:dyn type="TextStr" mode="constant" value="&quot;&quot;"/> 
  </image>
  <text x="1825.75" y="949.25" font-size="15">к ПНД-2</text>
  <image x="786.806" y="93.5001" width="75" height="25" xlink:href="obj_link.svg" transform="rotate(90 37.8089 12.5)">
    <rt:dyn type="TextStr" mode="constant" value="&quot;&quot;"/> 
  </image>
  <text x="823.057" y="53.5" fill="black" font-size="17" text-anchor="middle">MAA</text>
  <line x1="690.75" y1="486" x2="768.25" y2="486" stroke="black" stroke-width="3"/> 
  <line x1="917.548" y1="486" x2="953.25" y2="486" stroke="black" stroke-width="3"/> 
  <image x="1049" y="285.75" width="70" height="65" xlink:href="DS_CO_valve.svg" transform="rotate(90 -0.00012207 -10) flipX()">
    <title>&quot;10NAA20AA001&quot;</title>
    <rt:dyn type="KKS" mode="constant" value="&quot;10NAA20AA001&quot;"/> 
    <rt:dyn type="DATA_NARY" mode="constant" value="&quot;TPTS&quot;"/> 
    <rt:dyn type="Drive" mode="constant" value="&quot;moto&quot;"/> 
    <rt:dyn type="Operate" mode="constant" value="true"/> 
  </image>
  <text x="1057" y="404.75" font-size="15">к ПСВ</text>
  <text x="812" y="884.75" font-size="15">LAD00</text>
  <text x="362" y="881" font-size="15">LBG</text>
  <image x="157.5" y="588" width="75" height="25" xlink:href="obj_link.svg">
    <rt:dyn type="TextStr" mode="constant" value="&quot;LBW&quot;"/> 
  </image>
  <image x="302" y="681.875" width="70" height="52.5" xlink:href="DS_reflux_valve.svg" transform="rotate(270 0 -3.75)">
    <title>&quot;10LBQ11AA610&quot;</title>
    <rt:dyn type="Drive" mode="constant" value="&quot;hydro&quot;"/> 
    <rt:dyn type="SIG_Open" mode="constant" value="&quot;10LBQ15CG610_XB01&quot;"/> 
    <rt:dyn type="SIG_Close" mode="constant" value="&quot;10LBQ15CG611_XB02&quot;"/> 
    <rt:dyn type="DATA_NARY" mode="constant" value="&quot;TPTS&quot;"/> 
  </image>
  <image x="735.5" y="681.875" width="70" height="52.5" xlink:href="DS_reflux_valve.svg" transform="rotate(270 0 -3.75)">
    <title>&quot;10LBQ11AA610&quot;</title>
    <rt:dyn type="Drive" mode="constant" value="&quot;hydro&quot;"/> 
    <rt:dyn type="SIG_Open" mode="constant" value="&quot;10LBQ11CG610_XB01&quot;"/> 
    <rt:dyn type="SIG_Close" mode="constant" value="&quot;10LBQ11CG611_XB02&quot;"/> 
    <rt:dyn type="DATA_NARY" mode="constant" value="&quot;TPTS&quot;"/> 
  </image>
  <image x="869.75" y="681.875" width="70" height="52.5" xlink:href="DS_reflux_valve.svg" transform="rotate(270 0 -3.75)">
    <title>&quot;10LBQ11AA610&quot;</title>
    <rt:dyn type="Drive" mode="constant" value="&quot;hydro&quot;"/> 
    <rt:dyn type="SIG_Open" mode="constant" value="&quot;10LBQ13CG610_XB01&quot;"/> 
    <rt:dyn type="SIG_Close" mode="constant" value="&quot;10LBQ13CG611_XB02&quot;"/> 
    <rt:dyn type="DATA_NARY" mode="constant" value="&quot;TPTS&quot;"/> 
  </image>
  <image x="1062" y="576.25" width="70" height="52.5" xlink:href="DS_reflux_valve.svg" transform="rotate(270 0 -3.75)">
    <title>&quot;10LBQ11AA610&quot;</title>
    <rt:dyn type="Drive" mode="constant" value="&quot;hydro&quot;"/> 
    <rt:dyn type="SIG_Open" mode="constant" value="&quot;10NAA10CG610_XB01&quot;"/> 
    <rt:dyn type="SIG_Close" mode="constant" value="&quot;10NAA10CG611_XB02&quot;"/> 
    <rt:dyn type="DATA_NARY" mode="constant" value="&quot;TPTS&quot;"/> 
  </image>
  <image x="1383" y="681.875" width="70" height="52.5" xlink:href="DS_reflux_valve.svg" transform="rotate(270 0 -3.75)">
    <title>&quot;10LBQ11AA610&quot;</title>
    <rt:dyn type="Drive" mode="constant" value="&quot;hydro&quot;"/> 
    <rt:dyn type="SIG_Open" mode="constant" value="&quot;10LBS30CG610_XB01&quot;"/> 
    <rt:dyn type="SIG_Close" mode="constant" value="&quot;10LBS30CG611_XB02&quot;"/> 
    <rt:dyn type="DATA_NARY" mode="constant" value="&quot;TPTS&quot;"/> 
  </image>
  <image x="186.5" y="159" width="175" height="25" xlink:href="DS_ana.svg">
    <title>&quot;10MAC10CP001&quot;</title>
    <rt:dyn type="FKKS" mode="constant" value="&quot;10MAC10CP001&quot;"/> 
    <rt:dyn type="X" mode="constant" value="&quot;P&quot;"/> 
    <rt:dyn type="ShowFrame" mode="constant" value="true"/> 
    <rt:dyn type="ValueToTheRight" mode="constant" value="false"/> 
    <rt:dyn type="Color_Readings" mode="constant" value="true"/> 
  </image>
  <image x="186.5" y="194.25" width="175" height="25" xlink:href="DS_ana.svg">
    <title>&quot;10MAC20CP001&quot;</title>
    <rt:dyn type="FKKS" mode="constant" value="&quot;10MAC20CP001&quot;"/> 
    <rt:dyn type="X" mode="constant" value="&quot;P&quot;"/> 
    <rt:dyn type="ShowFrame" mode="constant" value="true"/> 
    <rt:dyn type="ValueToTheRight" mode="constant" value="false"/> 
    <rt:dyn type="Color_Readings" mode="constant" value="true"/> 
  </image>
  <image x="1548" y="159" width="175" height="25" xlink:href="DS_ana.svg">
    <title>&quot;10MAC30CP001&quot;</title>
    <rt:dyn type="FKKS" mode="constant" value="&quot;10MAC30CP001&quot;"/> 
    <rt:dyn type="X" mode="constant" value="&quot;P&quot;"/> 
    <rt:dyn type="ShowFrame" mode="constant" value="true"/> 
    <rt:dyn type="ValueToTheRight" mode="constant" value="false"/> 
    <rt:dyn type="Color_Readings" mode="constant" value="true"/> 
  </image>
  <image x="1548" y="194.25" width="175" height="25" xlink:href="DS_ana.svg">
    <title>&quot;10MAC40CP001&quot;</title>
    <rt:dyn type="FKKS" mode="constant" value="&quot;10MAC40CP001&quot;"/> 
    <rt:dyn type="X" mode="constant" value="&quot;P&quot;"/> 
    <rt:dyn type="ShowFrame" mode="constant" value="true"/> 
    <rt:dyn type="ValueToTheRight" mode="constant" value="false"/> 
    <rt:dyn type="Color_Readings" mode="constant" value="true"/> 
  </image>
  <image x="736.806" y="159" width="175" height="25" xlink:href="DS_ana_900.svg">
    <title>&quot;10MAA10CP901&quot;</title>
    <rt:dyn type="FKKS" mode="constant" value="&quot;10MAA10CP901&quot;"/> 
    <rt:dyn type="X" mode="constant" value="&quot;P&quot;"/> 
    <rt:dyn type="ShowFrame" mode="constant" value="true"/> 
    <rt:dyn type="ValueToTheRight" mode="constant" value="false"/> 
    <rt:dyn type="Color_Readings" mode="constant" value="true"/> 
    <rt:dyn type="FKKS1" mode="constant" value="&quot;10MAA10CP001_XQ01&quot;"/> 
    <rt:dyn type="FKKS2" mode="constant" value="&quot;10MAA10CP002_XQ01&quot;"/> 
    <rt:dyn type="FKKS3" mode="constant" value="&quot;10MAA10CP003_XQ01&quot;"/> 
    <rt:dyn type="Show_MIS" mode="constant" value="true"/> 
  </image>
</svg>
