<?xml  version="1.0" encoding="windows-1251"?>
<svg color="Col_BGSand" xmlns="http://www.w3.org/2000/svg" xmlns:rt="http://www.rts.co.at/2001/XMLSchema/RtSvgPL" xmlns:xlink="http://www.w3.org/1999/xlink" xmlns:xsi="http://www.w3.org/2001/XMLSchema-instance" xsi:schemaLocation="http://www.w3.org/2000/svg C:\RTS\RtSvg\XML\SVG.xsd" viewBox="0 0 1920 980" width="1920" height="980" id="asrk_23urt">
  <title>АО воды в здании 23URT (подпитка градирни)</title>
  <rt:model modelversion="7.2.0.24" comment="UMod 7_all_asrk&#10;LMod 7_asrk_22sac51&#10;RMod 7_asrk_arkt" revision="3"/> 
  <rect x="1032" y="570" width="150" height="21.2122" rx="0" ry="0" fill="Col_BGItemSel"/> 
  <rect x="188" y="569" width="150" height="21.2122" rx="0" ry="0" fill="Col_BGItemSel"/> 
  <text x="501.576" y="35.4546" font-size="30" font-weight="700">АО воды в здании 23URT (подпитка градирни)</text>
  <image x="196" y="216.03" width="175" height="25" xlink:href="DS_ana.svg">
    <title>&quot;20GHC02CF001&quot;</title>
    <rt:dyn type="FKKS" mode="constant" value="&quot;20GHC02CF001&quot;"/> 
    <rt:dyn type="X" mode="constant" value="&quot;F&quot;"/> 
    <rt:dyn type="Color_Readings" mode="constant" value="true"/> 
    <rt:dyn type="ValueToTheRight" mode="constant" value="false"/> 
  </image>
  <text x="196.152" y="212" fill="black" font-size="18" text-anchor="start">20GHC02CF001</text>
  <rect x="-230" y="811.25" width="0" height="0" rx="0" ry="0"/> 
  <text x="90" y="30.5" fill="black" font-size="15" font-weight="700" text-anchor="middle">
    <title>Схема КИП насосов охлаждения бассейна выдержки</title>
ASRK_23URT</text>
  <rect x="451.101" y="195" width="150" height="21.2122" rx="0" ry="0" fill="Col_BGItemSel"/> 
  <image x="443.893" y="217.287" width="175" height="25" xlink:href="DS_ana_ASRK.svg">
    <title>&quot;20GHC10CR802B01&quot;</title>
    <rt:dyn type="IsExp" mode="constant" value="true"/> 
    <rt:dyn type="ShowFrame" mode="constant" value="true"/> 
    <rt:dyn type="Color_Readings" mode="constant" value="true"/> 
    <rt:dyn type="FKKS" mode="constant" value="&quot;20GHC10CR802B01&quot;"/> 
    <rt:dyn type="ValueToTheRight" mode="constant" value="false"/> 
    <rt:dyn type="SetBounds" mode="constant" value="true"/> 
    <rt:dyn type="Show_Map" mode="constant" value="false"/> 
    <rt:dyn type="X" mode="constant" value="&quot;A&quot;"/> 
  </image>
  <text x="448.133" y="211.985" fill="black" font-size="18" text-anchor="start">20GHC10CR802</text>
  <g>
    <circle cx="413.372" cy="218.373" r="25" fill="Col_Grey2" stroke="black" stroke-width="1"/> 
    <line x1="394.122" y1="219.123" x2="434.122" y2="219.123" stroke="black" stroke-dasharray="4,5"/> 
    <rect x="393.372" y="210.623" width="40" height="15.75" rx="0" ry="0" fill="Col_Grey4" stroke="black" stroke-width="1"/> 
  </g>
  <polyline points="125,250 1025,250 1025,625" fill="none" stroke="black" stroke-width="3"/> 
  <polyline points="125,625 1700,625" fill="none" stroke="black" stroke-width="3"/> 
  <polygon points="905.149,1236.15 892.649,1261.65 918.65,1261.15" transform="rotate(270 822.636 568.511) flipY(392.405) rotate(90 1392.93 388.195) scale(0.62 0.62 1341 369.75) rotate(270 1341 369.75)"/> 
  <polygon points="300.31,1235.65 287.81,1261.15 313.811,1260.65" transform="rotate(270 822.636 568.511) flipY(392.405) rotate(90 1392.93 388.195) scale(0.62 0.62 1341 369.75) rotate(270 1341 369.75)"/> 
  <polygon points="300.31,-1183.2 287.81,-1157.7 313.811,-1158.2" transform="rotate(270 822.636 568.511) flipY(392.405) rotate(90 1392.93 388.195) scale(0.62 0.62 1341 369.75) rotate(270 1341 369.75)"/> 
  <image x="192" y="592.03" width="175" height="25" xlink:href="DS_ana.svg">
    <title>&quot;20GHC01CF001&quot;</title>
    <rt:dyn type="FKKS" mode="constant" value="&quot;20GHC01CF001&quot;"/> 
    <rt:dyn type="X" mode="constant" value="&quot;F&quot;"/> 
    <rt:dyn type="Color_Readings" mode="constant" value="true"/> 
    <rt:dyn type="ValueToTheRight" mode="constant" value="false"/> 
  </image>
  <text x="192.152" y="588" fill="black" font-size="18" text-anchor="start">20GHC01CF001</text>
  <image x="1035" y="592.03" width="175" height="25" xlink:href="DS_ana.svg">
    <title>20GHC00CP001</title>
    <rt:dyn type="FKKS" mode="constant" value="&quot;20GHC00CP001&quot;"/> 
    <rt:dyn type="X" mode="constant" value="&quot;P&quot;"/> 
    <rt:dyn type="Color_Readings" mode="constant" value="true"/> 
    <rt:dyn type="ValueToTheRight" mode="constant" value="false"/> 
  </image>
  <text x="1035.15" y="588" fill="black" font-size="18" text-anchor="start">20GHC00CP001</text>
  <rect x="448.101" y="570" width="150" height="21.2122" rx="0" ry="0" fill="Col_BGItemSel"/> 
  <image x="440.893" y="592.287" width="175" height="25" xlink:href="DS_ana_ASRK.svg">
    <title>&quot;20GHC10CR801B01&quot;</title>
    <rt:dyn type="IsExp" mode="constant" value="true"/> 
    <rt:dyn type="ShowFrame" mode="constant" value="true"/> 
    <rt:dyn type="Color_Readings" mode="constant" value="true"/> 
    <rt:dyn type="FKKS" mode="constant" value="&quot;20GHC10CR801B01&quot;"/> 
    <rt:dyn type="ValueToTheRight" mode="constant" value="false"/> 
    <rt:dyn type="SetBounds" mode="constant" value="true"/> 
    <rt:dyn type="Show_Map" mode="constant" value="false"/> 
    <rt:dyn type="X" mode="constant" value="&quot;A&quot;"/> 
  </image>
  <text x="445.133" y="586.985" fill="black" font-size="18" text-anchor="start">20GHC10CR801</text>
  <g>
    <circle cx="410.372" cy="593.373" r="25" fill="Col_Grey2" stroke="black" stroke-width="1"/> 
    <line x1="391.122" y1="594.123" x2="431.122" y2="594.123" stroke="black" stroke-dasharray="4,5"/> 
    <rect x="390.372" y="585.623" width="40" height="15.75" rx="0" ry="0" fill="Col_Grey4" stroke="black" stroke-width="1"/> 
  </g>
  <image x="715" y="207.5" width="70" height="65" xlink:href="DS_CO_valve.svg" transform="rotate(360 -3.05176e-005 -10)">
    <title>&quot;20GHC02AA001&quot;</title>
    <rt:dyn type="KKS" mode="constant" value="&quot;20GHC02AA001&quot;"/> 
    <rt:dyn type="Drive" mode="constant" value="&quot;moto&quot;"/> 
    <rt:dyn type="DATA_NARY" mode="constant" value="&quot;TPTS&quot;"/> 
  </image>
  <text x="1508" y="662.5" fill="black" font-size="15" text-anchor="middle">20GHC00AA201</text>
  <image x="1467" y="582" width="70" height="65" xlink:href="DS_Reg_valve.svg" transform="flipX() rotate(90 -2.30496e-006 -9.99997) rotate(270 0 -10)">
    <title>20GHC00AA201</title>
    <rt:dyn type="KKS" mode="constant" value="&quot;20GHC00AA201&quot;"/> 
    <rt:dyn type="DATA_NARY" mode="constant" value="&quot;TPTS&quot;"/> 
  </image>
  <text x="758" y="287.5" fill="black" font-size="15" text-anchor="middle">20GHC02AA001</text>
  <text x="760" y="660.5" fill="black" font-size="15" text-anchor="middle">20GHC01AA001</text>
  <image x="715" y="582.5" width="70" height="65" xlink:href="DS_CO_valve.svg" transform="rotate(360 -3.05176e-005 -10)">
    <title>&quot;20GHC01AA001&quot;</title>
    <rt:dyn type="KKS" mode="constant" value="&quot;20GHC01AA001&quot;"/> 
    <rt:dyn type="Drive" mode="constant" value="&quot;moto&quot;"/> 
    <rt:dyn type="DATA_NARY" mode="constant" value="&quot;TPTS&quot;"/> 
  </image>
  <image x="1468" y="556" width="65" height="25" xlink:href="DS_Reg_degree.svg">
    <title>20GHC00AA201_XQ08</title>
    <rt:dyn type="KKS" mode="constant" value="&quot;20GHC00AA201&quot;"/> 
    <rt:dyn type="ShowFrame" mode="constant" value="true"/> 
    <rt:dyn type="SIGNAL" mode="constant" value="&quot;XQ08&quot;"/> 
  </image>
  <g>
    <rect x="-188.5" y="139" width="137.5" height="46.5" rx="0" ry="0" fill="white" fill-opacity="0.849997" stroke="black" transform="rotate(180 399.5 200.5)"/> 
    <text x="917.5" y="242" font-size="15" text-anchor="middle">20GHC02BR001</text>
  </g>
  <g>
    <rect x="-188.5" y="-234" width="137.5" height="46.5" rx="0" ry="0" fill="white" fill-opacity="0.849997" stroke="black" transform="rotate(180 399.5 200.5)"/> 
    <text x="917.5" y="615" font-size="15" text-anchor="middle">20GHC01BR001</text>
  </g>
  <g>
    <rect x="-588.5" y="-236" width="137.5" height="46.5" rx="0" ry="0" fill="white" fill-opacity="0.849997" stroke="black" transform="rotate(180 399.5 200.5)"/> 
    <text x="1317.5" y="617" font-size="15" text-anchor="middle">20GHC00BR001</text>
  </g>
</svg>
