<?xml  version="1.0" encoding="windows-1251"?>
<svg color="Col_BGSand" xmlns="http://www.w3.org/2000/svg" xmlns:rt="http://www.rts.co.at/2001/XMLSchema/RtSvgPL" xmlns:xlink="http://www.w3.org/1999/xlink" xmlns:xsi="http://www.w3.org/2001/XMLSchema-instance" xsi:schemaLocation="http://www.w3.org/2000/svg C:\RTS\RtSvg\XML\SVG.xsd" viewBox="0 0 1914 1000" width="1914" height="1000" id="asrk_kpm22" fill="none">
  <title>РК системы очистки радиоактивных технологических сдувок</title>
  <rt:model modelversion="7.2.0.24" comment="UMod 7_all_asrk&#10;LMod 7_asrk_kpm21&#10;RMod 7_asrk_kpm23" revision="3"/> 
  <line x1="905" y1="227" x2="905" y2="317.756" stroke="black"/> 
  <line x1="1326" y1="868.5" x2="1326" y2="980" stroke="black"/> 
  <line x1="392.121" y1="664" x2="685.042" y2="664" stroke="black" stroke-width="3"/> 
  <line x1="351" y1="164" x2="351" y2="403.879" stroke="black" stroke-width="3"/> 
  <line x1="190" y1="164" x2="352" y2="164" stroke="black" stroke-width="3"/> 
  <line x1="684" y1="578" x2="975.03" y2="578" stroke="black" stroke-width="3"/> 
  <line x1="350.212" y1="404" x2="687.012" y2="404" stroke="black" stroke-width="3"/> 
  <line x1="1152.61" y1="921.227" x2="1222.31" y2="921.227" stroke="black" stroke-width="3"/> 
  <line x1="1078.21" y1="980" x2="1844.88" y2="980" stroke="black" stroke-width="3"/> 
  <text x="953" y="35" fill="black" font-size="30" font-weight="700" text-anchor="middle">
    <title>Система очистки радиоактивных технологических сдувок</title>
Система очистки р/а технологических сдувок 20KPM22</text>
  <line x1="1843" y1="129.182" x2="1843" y2="981" stroke="black" stroke-width="3"/> 
  <text x="1751.58" y="943" fill="black" font-size="15">20KPM22<tspan x="1751.58" dy="15">AA017</tspan>
  </text>
  <line x1="1752" y1="229.182" x2="1752" y2="474.929" stroke="black" stroke-width="3"/> 
  <path d="M1487.01 -551.454 A8.80483 8.80483 0 1 1 1487.01 -533.844 " fill="none" stroke="black" stroke-width="3" transform="rotate(270 1616.75 883.029) flipY() translate(0 -828) translate(229.642 442.62)"/> 
  <text x="1740" y="619.546" fill="black" font-size="15">20KPM22<tspan x="1740" dy="15">AN001</tspan>
  </text>
  <image x="1806.88" y="581.01" width="70" height="70" xlink:href="DS_motor.svg" transform="rotate(90 0 0) flipX() flipX()">
    <rt:dyn type="KKS" mode="constant" value="&quot;NULL&quot;"/> 
    <rt:dyn type="Operate" mode="constant" value="true"/> 
  </image>
  <line x1="1669.64" y1="783" x2="1843.88" y2="783" stroke="black" stroke-width="3"/> 
  <rect x="603.41" y="325.818" width="17" height="501.863" rx="0" ry="0" fill="url(#PortalHatch1)" stroke="black" stroke-width="3" transform="rotate(90 499.629 673.886)"/> 
  <g transform="flipX(1383.52) flipX(81.2424) rotate(270 1829.73 859.091) flipY(578) rotate(180 1210.44 541.647)">
    <g transform="rotate(90 1212.44 532.643)">
      <polygon points="3964.45,-1047.35 3977.83,-1039.7 3977.83,-1054.99 3964.45,-1047.35" fill="black" stroke="black" stroke-width="1" transform="rotate(180 1279.17 367.814)"/> 
    </g>
  </g>
  <text x="1724" y="725" fill="black" font-size="15">20KPM32<tspan x="1724" dy="15">AA008</tspan>
  </text>
  <line x1="1663" y1="318" x2="1663" y2="981" stroke="black" stroke-width="3"/> 
  <text x="1573.61" y="943" fill="black" font-size="15">20KPM22<tspan x="1573.61" dy="15">AA013</tspan>
  </text>
  <text x="1561.21" y="619.546" fill="black" font-size="15">20KPM22<tspan x="1561.21" dy="15">AN002</tspan>
  </text>
  <image x="1627.79" y="581.01" width="70" height="70" xlink:href="DS_motor.svg" transform="rotate(90 0 0) flipX() flipX()">
    <rt:dyn type="KKS" mode="constant" value="&quot;NULL&quot;"/> 
    <rt:dyn type="Operate" mode="constant" value="true"/> 
  </image>
  <line x1="1541" y1="783" x2="1654.13" y2="783" stroke="black" stroke-width="3"/> 
  <line x1="1534" y1="363" x2="1534" y2="981" stroke="black" stroke-width="3"/> 
  <path d="M1805.34 135.904 A8.80483 8.80483 0 1 1 1805.34 153.514 " fill="none" stroke="black" stroke-width="3" transform="rotate(270 1616.75 883.029) flipY() translate(0 -828) translate(229.642 442.62)"/> 
  <path d="M1487.04 -422.885 A8.80483 8.80483 0 1 1 1487.04 -405.275 " fill="none" stroke="black" stroke-width="3" transform="rotate(270 1616.75 883.029) flipY() translate(0 -828) translate(229.642 442.62)"/> 
  <text x="1566.58" y="705.273" fill="black" font-size="15">20KPM22<tspan x="1566.58" dy="15">AA014</tspan>
  </text>
  <line x1="1541" y1="754" x2="1664" y2="754" stroke="black" stroke-width="3"/> 
  <path d="M1515.74 -422.885 A8.80483 8.80483 0 1 1 1515.74 -405.275 " fill="none" stroke="black" stroke-width="3" transform="rotate(270 1616.75 883.029) flipY() translate(0 -828) translate(229.642 442.62)"/> 
  <text x="1573.61" y="524.092" fill="black" font-size="15">20KPM22<tspan x="1573.61" dy="15">AA012</tspan>
  </text>
  <line x1="1660.85" y1="476" x2="1844.91" y2="476" stroke="black" stroke-width="3"/> 
  <text x="1760.3" y="503.059" fill="black" font-size="15">20KPM22<tspan x="1760.3" dy="15">AA015</tspan>
  </text>
  <text x="1573.61" y="413.153" fill="black" font-size="15">20KPM22<tspan x="1573.61" dy="15">AA010</tspan>
  </text>
  <line x1="1533" y1="364" x2="1661.37" y2="364" stroke="black" stroke-width="3"/> 
  <line x1="696.909" y1="318" x2="1664.42" y2="318" stroke="black" stroke-width="3"/> 
  <line x1="1547.12" y1="230" x2="1754.03" y2="230" stroke="black" stroke-width="3"/> 
  <image x="1320.7" y="275.606" width="70" height="65" xlink:href="DS_CO_valve.svg" transform="rotate(360 -0.00012207 -10)">
    <rt:dyn type="KKS" mode="constant" value="&quot;NULL&quot;"/> 
    <rt:dyn type="Operate" mode="constant" value="true"/> 
    <rt:dyn type="Drive" mode="constant" value="&quot;moto&quot;"/> 
  </image>
  <text x="1310.82" y="266.97" fill="black" font-size="15">20KPM22<tspan x="1310.82" dy="15">AA009</tspan>
  </text>
  <text x="1574.21" y="267.212" fill="black" font-size="15">20KPM22<tspan x="1574.21" dy="15">AA201</tspan>
  </text>
  <image x="1573.67" y="187.61" width="70" height="65" xlink:href="DS_Reg_valve.svg" transform="flipX(0.000192988) rotate(0 0 -10.0001)">
    <rt:dyn type="KKS" mode="constant" value="&quot;NULL&quot;"/> 
  </image>
  <text x="1493.36" y="229.788" fill="black" font-size="15" text-anchor="middle">воздух из<tspan x="1493.36" dy="15">помещений</tspan>
  </text>
  <line x1="498" y1="131" x2="1843.88" y2="131" stroke="black" stroke-width="3"/> 
  <text x="1760.3" y="77.121" fill="black" font-size="15">20KPM32<tspan x="1760.3" dy="15">AA007</tspan>
  </text>
  <line x1="1718.09" y1="59.4848" x2="1718.09" y2="130.697" stroke="black" stroke-width="3"/> 
  <text x="1579.03" y="86.848" fill="black" font-size="15">20KPM32<tspan x="1579.03" dy="15">AA012</tspan>
  </text>
  <line x1="114" y1="60" x2="1720.48" y2="60" stroke="black" stroke-width="3"/> 
  <text x="1404.91" y="86.879" fill="black" font-size="15">20KPM32<tspan x="1404.91" dy="15">AA201</tspan>
  </text>
  <text x="1047.18" y="77.667" fill="black" font-size="15">20KPM32AT001</text>
  <line x1="1394" y1="193" x2="1394" y2="318.576" stroke="black" stroke-width="3"/> 
  <line x1="543" y1="194" x2="1395.51" y2="194" stroke="black" stroke-width="3"/> 
  <rect x="984.743" y="782.258" width="65.9747" height="62.8944" rx="0" ry="0" fill="Col_Grey4" transform="rotate(314.645 525.5 325)"/> 
  <line x1="1220" y1="275.636" x2="1218.48" y2="362" stroke="black" stroke-dasharray="5,5"/> 
  <text x="1237" y="362.5" fill="black" font-size="15">20KPM22<tspan x="1237" dy="15">AT004-007</tspan>
  </text>
  <text x="1235.31" y="147.909" fill="black" font-size="15">20KPM22<tspan x="1235.31" dy="15">AA202</tspan>
  </text>
  <text x="640.849" y="147.909" fill="black" font-size="15">20KPM22<tspan x="640.849" dy="15">AA007</tspan>
  </text>
  <line x1="974" y1="319" x2="974" y2="579" stroke="black" stroke-width="3"/> 
  <text x="1016.91" y="439.788" fill="black" font-size="15">20KPM22<tspan x="1016.91" dy="15">AA006</tspan>
  </text>
  <line x1="766" y1="318" x2="766" y2="578" stroke="black" stroke-width="3"/> 
  <text x="811.56" y="405.394" fill="black" font-size="15">20KPM32<tspan x="811.56" dy="15">AA003</tspan>
  </text>
  <line x1="929" y1="328" x2="929" y2="455" stroke="black"/> 
  <image x="763" y="275.182" width="70" height="65" xlink:href="DS_CO_valve.svg" transform="rotate(360 -0.00012207 -10)">
    <rt:dyn type="KKS" mode="constant" value="&quot;NULL&quot;"/> 
    <rt:dyn type="Drive" mode="constant" value="&quot;moto&quot;"/> 
  </image>
  <text x="770.97" y="352.455" fill="black" font-size="15">20KPM22<tspan x="770.97" dy="15">AA005</tspan>
  </text>
  <line x1="982.909" y1="464" x2="1294.21" y2="464" stroke="black" stroke-width="3"/> 
  <rect x="1406.97" y="267.061" width="68.1812" height="92.4244" rx="0" ry="0" fill="Col_Grey4"/> 
  <rect x="1408.49" y="301.575" width="65.1515" height="25.7576" rx="0" ry="0" fill="url(#PortalHatch3)"/> 
  <text x="1442.67" y="375.758" fill="black" font-size="15" text-anchor="middle">20KPM22<tspan x="1442.67" dy="15">AT008</tspan>
  </text>
  <line x1="1116.92" y1="463" x2="1116.92" y2="755" stroke="black" stroke-width="3"/> 
  <text x="1148.44" y="506.016" fill="black" font-size="15">20KPM32<tspan x="1148.44" dy="15">AA002</tspan>
  </text>
  <line x1="1294" y1="463" x2="1294" y2="754" stroke="black" stroke-width="3"/> 
  <text x="1327.19" y="506.016" fill="black" font-size="15">20KPM32<tspan x="1327.19" dy="15">AA001</tspan>
  </text>
  <rect x="1260.88" y="549.697" width="70" height="70" rx="0" ry="0" fill="Col_Grey4"/> 
  <text x="1216.67" y="576.485" fill="black" font-size="15" text-anchor="middle">20KPM32<tspan x="1216.67" dy="15">AH001</tspan>
  </text>
  <line x1="1219.64" y1="783" x2="1525.19" y2="783" stroke="black" stroke-width="3"/> 
  <line x1="1115.24" y1="754" x2="1524.18" y2="754" stroke="black" stroke-width="3"/> 
  <text x="1389" y="698" fill="black" font-size="15">20KPM32<tspan x="1389" dy="15">AA009</tspan>
  </text>
  <text x="1025" y="704" fill="black" font-size="15">20KPM32<tspan x="1025" dy="15">AA010</tspan>
  </text>
  <text x="1201" y="704" fill="black" font-size="15">20KPM32<tspan x="1201" dy="15">AA011</tspan>
  </text>
  <path d="M1611.4 -182.969 A8.80483 8.80483 0 1 1 1611.4 -165.359 " fill="none" stroke="black" stroke-width="3" transform="rotate(270 1616.75 883.029) flipY() translate(0 -828) translate(229.642 442.62)"/> 
  <line x1="1118.45" y1="657.5" x2="1285.12" y2="657.5" stroke="black" stroke-width="3"/> 
  <line x1="1303.3" y1="657.5" x2="1373" y2="657.5" stroke="black" stroke-width="3"/> 
  <text x="1432.7" y="645.394" fill="black" font-size="15" text-anchor="middle">воздух из<tspan x="1432.7" dy="15">помещений</tspan>
  </text>
  <g transform="flipX(1107.76) flipX(1383.52) flipX(81.2424) rotate(270 1829.73 859.091) flipY(578) rotate(180 1210.44 541.647)">
    <g transform="rotate(90 1212.44 532.643)">
      <polygon points="4679.3,-641.444 4692.68,-633.794 4692.68,-649.084 4679.3,-641.444" fill="black" stroke="black" stroke-width="1" transform="rotate(180 1279.17 367.814)"/> 
    </g>
  </g>
  <g transform="flipX(1107.76) flipX(1383.52) flipX(81.2424) rotate(270 1829.73 859.091) flipY(578) rotate(180 1210.44 541.647)">
    <g transform="rotate(90 1212.44 532.643)">
      <polygon points="4679.81,-619.201 4693.2,-611.551 4693.2,-626.841 4679.81,-619.201" fill="black" stroke="black" stroke-width="1" transform="rotate(180 1279.17 367.814)"/> 
    </g>
  </g>
  <line x1="1221" y1="756" x2="1221" y2="782.939" stroke="black" stroke-width="3"/> 
  <line x1="1220" y1="920.121" x2="1220" y2="980.204" stroke="black" stroke-width="3"/> 
  <line x1="1151.61" y1="957" x2="1221.31" y2="957" stroke="black" stroke-width="3"/> 
  <g transform="scale(0.559998 0.559998 635.788 749.242)">
    <rect x="720.484" y="-29.6018" width="72.7274" height="180.303" rx="0" ry="0" fill="Col_Grey4"/> 
    <rect x="694.348" y="-1.94986" width="125" height="125" rx="0" ry="0" fill="Col_Grey4" stroke="black"/> 
    <line x1="719.688" y1="21.1412" x2="819.689" y2="21.1412" stroke="black" stroke-width="3"/> 
    <line x1="719.688" y1="20.8082" x2="767.017" y2="61.8085" stroke="black" stroke-width="3"/> 
    <line x1="720.347" y1="97.8085" x2="818.359" y2="97.8085" stroke="black" stroke-width="3"/> 
    <line x1="721.688" y1="97.1415" x2="767.017" y2="60.4745" stroke="black" stroke-width="3"/> 
    <line x1="802.939" y1="-2.32887" x2="802.939" y2="123.429" stroke="black"/> 
    <line x1="711.514" y1="-0.813866" x2="709.999" y2="123.429" stroke="black"/> 
  </g>
  <text x="797.56" y="506.016" fill="black" font-size="15">20KPM32<tspan x="797.56" dy="15">AA004</tspan>
  </text>
  <line x1="765.242" y1="464" x2="966.909" y2="464" stroke="black" stroke-width="3"/> 
  <path d="M1628.84 200.548 A8.80483 8.80483 0 1 1 1628.84 218.158 " fill="none" stroke="black" transform="rotate(270 830.938 543.084) rotate(270 1616.75 883.029) flipY() translate(0 -828) translate(229.642 442.62)"/> 
  <g transform="scale(0.559998 0.559998 635.788 749.242)">
    <rect x="718.699" y="433.813" width="72.7274" height="180.303" rx="0" ry="0" fill="Col_Grey4"/> 
    <rect x="692.563" y="461.465" width="125" height="125" rx="0" ry="0" fill="Col_Grey4" stroke="black"/> 
    <line x1="717.902" y1="484.556" x2="817.904" y2="484.556" stroke="black" stroke-width="3"/> 
    <line x1="717.902" y1="484.223" x2="765.232" y2="525.223" stroke="black" stroke-width="3"/> 
    <line x1="718.562" y1="561.223" x2="816.574" y2="561.223" stroke="black" stroke-width="3"/> 
    <line x1="719.902" y1="560.556" x2="765.232" y2="523.889" stroke="black" stroke-width="3"/> 
    <line x1="801.154" y1="461.086" x2="801.154" y2="586.843" stroke="black"/> 
    <line x1="709.729" y1="462.601" x2="708.214" y2="586.843" stroke="black"/> 
  </g>
  <path d="M1628.84 315.184 A8.80483 8.80483 0 1 1 1628.84 332.794 " fill="none" stroke="black" transform="rotate(270 830.938 543.084) rotate(270 1616.75 883.029) flipY() translate(0 -828) translate(229.642 442.62)"/> 
  <line x1="929" y1="473" x2="929" y2="571.606" stroke="black"/> 
  <line x1="929" y1="588" x2="929" y2="715" stroke="black"/> 
  <rect x="1086.12" y="549.697" width="70" height="70" rx="0" ry="0" fill="Col_Grey4"/> 
  <text x="1046.42" y="576.485" fill="black" font-size="15" text-anchor="middle">20KPM32<tspan x="1046.42" dy="15">AH002</tspan>
  </text>
  <text x="624.182" y="354.939" fill="black" font-size="15" text-anchor="middle">20KPM22<tspan x="624.182" dy="15">AT002</tspan>
  </text>
  <text x="625.697" y="620.091" fill="black" font-size="15" text-anchor="middle">20KPM22<tspan x="625.697" dy="15">AT003</tspan>
  </text>
  <line x1="535.091" y1="131" x2="535.091" y2="404" stroke="black" stroke-width="3"/> 
  <text x="543.606" y="265.545" fill="black" font-size="15">20KPM32<tspan x="543.606" dy="15">AA005</tspan>
  </text>
  <path d="M2075.89 575.6 A8.80483 8.80483 0 1 1 2075.89 593.21 " fill="none" stroke="black" stroke-width="3" transform="rotate(270 1616.75 883.029) flipY() translate(0 -828) translate(229.642 442.62)"/> 
  <line x1="499" y1="131" x2="499" y2="394.341" stroke="black" stroke-width="3"/> 
  <path d="M2074.62 139.427 A8.80483 8.80483 0 1 1 2074.62 157.036 " fill="none" stroke="black" stroke-width="3" transform="flipX(484.223) flipX(476.223) rotate(270 830.938 543.084) rotate(270 1616.75 883.029) flipY() translate(0 -828) translate(229.642 442.62)"/> 
  <text x="417.788" y="350.242" fill="black" font-size="15">20KPM22<tspan x="417.788" dy="15">AA003</tspan>
  </text>
  <path d="M2075.89 611.934 A8.80483 8.80483 0 1 1 2075.89 629.544 " fill="none" stroke="black" stroke-width="3" transform="rotate(270 1616.75 883.029) flipY() translate(0 -828) translate(229.642 442.62)"/> 
  <line x1="412" y1="193" x2="412" y2="401.916" stroke="black" stroke-width="3"/> 
  <line x1="1294.21" y1="636.788" x2="1373" y2="636.788" stroke="black" stroke-width="3"/> 
  <line x1="410.273" y1="194" x2="489.063" y2="194" stroke="black" stroke-width="3"/> 
  <line x1="506" y1="195" x2="527" y2="195" stroke="black" stroke-width="3"/> 
  <line x1="499" y1="412.068" x2="499" y2="665" stroke="black" stroke-width="3"/> 
  <text x="532.242" y="506.016" fill="black" font-size="15">20KPM32<tspan x="532.242" dy="15">AA006</tspan>
  </text>
  <text x="417.788" y="610.849" fill="black" font-size="15">20KPM22<tspan x="417.788" dy="15">AA004</tspan>
  </text>
  <line x1="391.606" y1="403" x2="393.106" y2="665" stroke="black" stroke-width="3"/> 
  <text x="219.545" y="309.485" fill="black" font-size="15">20KPM22<tspan x="219.545" dy="15">AT001</tspan>
  </text>
  <g transform="flipX(1107.76) flipX(1383.52) flipX(81.2424) rotate(270 1829.73 859.091) flipY(578) rotate(180 1210.44 541.647)">
    <g transform="rotate(90 1212.44 532.643)">
      <polygon points="4381.33,-297.505 4394.71,-289.855 4394.71,-305.145 4381.33,-297.505" fill="black" stroke="black" stroke-width="1" transform="rotate(180 1279.17 367.814)"/> 
    </g>
  </g>
  <text x="1016.15" y="983.757" fill="black" font-size="15" text-anchor="middle">в вент. трубу</text>
  <line x1="373.97" y1="714" x2="929" y2="714" stroke="black"/> 
  <line x1="373.97" y1="411" x2="373.97" y2="714.03" stroke="black"/> 
  <text x="697.727" y="100.909" fill="black" font-size="15">20KPM32AC001</text>
  <g transform="scale(1.0524 1.0524 1.4013e-045 1.4013e-045) flipX(963.818) rotate(270 964.576 96.9697) rotate(90 1175.94 787.121) scale(0.380039 0.380039 1162.3 219.697) rotate(270 1162.3 219.697) rotate(270 412.288 437.863)">
    <g transform="rotate(90 1094.11 578.015)">
      <rect x="-562.045" y="968.824" width="130.303" height="134.849" rx="0" ry="0" fill="Col_Grey4" stroke="black" stroke-width="3"/> 
      <line x1="-498.445" y1="983.944" x2="-449.955" y2="1008.19" stroke="black" stroke-width="3"/> 
      <line x1="-544.735" y1="1064.08" x2="-496.244" y2="1088.33" stroke="black" stroke-width="3"/> 
      <line x1="-451.475" y1="1008.19" x2="-546.925" y2="1064.26" stroke="black" stroke-width="3"/> 
      <line x1="-497.265" y1="1087.73" x2="-497.265" y2="1102.73" stroke="black" stroke-width="3"/> 
      <line x1="-497.115" y1="970.874" x2="-497.115" y2="985.874" stroke="black" stroke-width="3"/> 
    </g>
  </g>
  <text x="272.879" y="117.303" fill="black" font-size="15">20KPM22<tspan x="272.879" dy="15">AC002</tspan>
  </text>
  <line x1="191" y1="111" x2="191" y2="557.97" stroke="black" stroke-width="3"/> 
  <text x="229.152" y="421.636" fill="black" font-size="15">20KPM22<tspan x="229.152" dy="15">AA001</tspan>
  </text>
  <line x1="113.004" y1="273" x2="190.614" y2="273" stroke="black" stroke-width="3"/> 
  <text x="190.061" y="86.758" fill="black" font-size="15" text-anchor="middle">воздух из<tspan x="190.061" dy="15">помещений</tspan>
  </text>
  <path d="M1901.34 995.21 A8.80483 8.80483 0 1 1 1901.34 1012.82 " fill="none" stroke="black" stroke-width="3" transform="rotate(270 1616.75 883.029) flipY() translate(0 -828) translate(229.642 442.62)"/> 
  <g transform="flipY(964.394) rotate(270 16.8485 43.1818) flipX(1107.76) flipX(1383.52) flipX(81.2424) rotate(270 1829.73 859.091) flipY(578) rotate(180 1210.44 541.647)">
    <g transform="rotate(90 1212.44 532.643)">
      <polygon points="2354.6,-786.458 2367.98,-778.807 2367.98,-794.098 2354.6,-786.458" fill="black" stroke="black" stroke-width="1" transform="rotate(180 1279.17 367.814)"/> 
    </g>
  </g>
  <text x="448.576" y="942.098" fill="black" font-size="15">KBB</text>
  <text x="498.499" y="868.431" fill="black" font-size="15">20KPM20<tspan x="498.499" dy="15">AA201</tspan>
  </text>
  <line x1="653.5" y1="822.758" x2="655" y2="924.29" stroke="black" stroke-width="3"/> 
  <g transform="flipY(964.394) rotate(270 16.8485 43.1818) flipX(1107.76) flipX(1383.52) flipX(81.2424) rotate(270 1829.73 859.091) flipY(578) rotate(180 1210.44 541.647)">
    <g transform="rotate(90 1212.44 532.643)">
      <polygon points="2355.54,-595.777 2368.92,-588.127 2368.92,-603.417 2355.54,-595.777" fill="black" stroke="black" stroke-width="1" transform="rotate(180 1279.17 367.814)"/> 
    </g>
  </g>
  <text x="617.257" y="942.098" fill="black" font-size="15">KTA, KTC</text>
  <text x="690.181" y="868.431" fill="black" font-size="15">20KPM20<tspan x="690.181" dy="15">AA202</tspan>
  </text>
  <line x1="815.091" y1="822.758" x2="816.591" y2="924.29" stroke="black" stroke-width="3"/> 
  <g transform="flipY(964.394) rotate(270 16.8485 43.1818) flipX(1107.76) flipX(1383.52) flipX(81.2424) rotate(270 1829.73 859.091) flipY(578) rotate(180 1210.44 541.647)">
    <g transform="rotate(90 1212.44 532.643)">
      <polygon points="2355.54,-434.188 2368.92,-426.537 2368.92,-441.827 2355.54,-434.188" fill="black" stroke="black" stroke-width="1" transform="rotate(180 1279.17 367.814)"/> 
    </g>
  </g>
  <text x="800.848" y="942.098" fill="black" font-size="15">KBF</text>
  <text x="829" y="823" fill="black" font-size="15">UKC</text>
  <text x="295" y="894" fill="black" font-size="15">UKA</text>
  <line x1="115" y1="770" x2="115" y2="822.03" stroke="black" stroke-width="3"/> 
  <line x1="29.0324" y1="761" x2="327.515" y2="761" stroke="black" stroke-width="3"/> 
  <line x1="189.79" y1="468" x2="259.49" y2="468" stroke="black" stroke-width="3"/> 
  <line x1="191.18" y1="499" x2="260.88" y2="499" stroke="black" stroke-width="3"/> 
  <text x="191.909" y="605.212" fill="black" font-size="15" text-anchor="middle">20KPL</text>
  <g transform="scale(0.690003 0.690003 619.121 885.606) rotate(90 619.121 885.606)">
    <ellipse cx="522.981" cy="281.424" rx="56.0606" ry="21.2121" fill="Col_Grey4"/> 
    <rect x="466.98" y="279.394" width="111.424" height="158.909" rx="0" ry="0" fill="Col_Grey4"/> 
    <ellipse cx="522.471" cy="435.854" rx="56.0606" ry="21.2121" fill="Col_Grey4"/> 
  </g>
  <text x="946.394" y="802.636" fill="black" font-size="15">20KPM22<tspan x="946.394" dy="15">BB001</tspan>
  </text>
  <rect x="1075.97" y="79.697" width="68.1812" height="92.4244" rx="0" ry="0" fill="Col_Grey4"/> 
  <rect x="1077.49" y="114.211" width="65.1515" height="25.7576" rx="0" ry="0" fill="url(#PortalHatch3)"/> 
  <text x="1666.61" y="176.242" fill="black" font-size="15">20KPM22<tspan x="1666.61" dy="15">AA011</tspan>
  </text>
  <g transform="scale(1.0524 1.0524 1.4013e-045 1.4013e-045) flipX(963.818) rotate(270 964.576 96.9697) rotate(90 1175.94 787.121) scale(0.380039 0.380039 1162.3 219.697) rotate(270 1162.3 219.697) rotate(270 412.288 437.863)">
    <g transform="rotate(90 1094.11 578.015)">
      <rect x="-484.314" y="-195.91" width="130.303" height="134.849" rx="0" ry="0" fill="Col_Grey4" stroke="black" stroke-width="3"/> 
      <line x1="-420.714" y1="-180.79" x2="-372.224" y2="-156.54" stroke="black" stroke-width="3"/> 
      <line x1="-467.004" y1="-100.66" x2="-418.514" y2="-76.4098" stroke="black" stroke-width="3"/> 
      <line x1="-373.744" y1="-156.54" x2="-469.194" y2="-100.48" stroke="black" stroke-width="3"/> 
      <line x1="-419.534" y1="-77.0098" x2="-419.534" y2="-62.0098" stroke="black" stroke-width="3"/> 
      <line x1="-419.384" y1="-193.86" x2="-419.384" y2="-178.86" stroke="black" stroke-width="3"/> 
    </g>
  </g>
  <g transform="scale(1.0524 1.0524 1.4013e-045 1.4013e-045) flipX(963.818) rotate(270 964.576 96.9697) rotate(90 1175.94 787.121) scale(0.380039 0.380039 1162.3 219.697) rotate(270 1162.3 219.697) rotate(270 412.288 437.863)">
    <g transform="rotate(90 1094.11 578.015)">
      <rect x="-562.045" y="1145.9" width="130.303" height="134.849" rx="0" ry="0" fill="Col_Grey4" stroke="black" stroke-width="3"/> 
      <line x1="-498.445" y1="1161.02" x2="-449.955" y2="1185.27" stroke="black" stroke-width="3"/> 
      <line x1="-544.735" y1="1241.15" x2="-496.244" y2="1265.4" stroke="black" stroke-width="3"/> 
      <line x1="-451.475" y1="1185.27" x2="-546.925" y2="1241.33" stroke="black" stroke-width="3"/> 
      <line x1="-497.265" y1="1264.8" x2="-497.265" y2="1279.8" stroke="black" stroke-width="3"/> 
      <line x1="-497.115" y1="1147.95" x2="-497.115" y2="1162.95" stroke="black" stroke-width="3"/> 
    </g>
  </g>
  <text x="197.061" y="204.303" fill="black" font-size="15">20KPM22<tspan x="197.061" dy="15">AC001</tspan>
  </text>
  <image x="130.09" y="219.606" width="70" height="65" xlink:href="DS_CO_valve.svg" transform="rotate(270 0 0) flipY(-10.0004) flipX(-0.000205135) rotate(270 -0.00012207 -10)">
    <rt:dyn type="KKS" mode="constant" value="&quot;NULL&quot;"/> 
    <rt:dyn type="Drive" mode="constant" value="&quot;moto&quot;"/> 
  </image>
  <text x="30.5757" y="250.394" fill="black" font-size="15">20KPM22<tspan x="30.5757" dy="15">AA002</tspan>
  </text>
  <line x1="115" y1="59.4848" x2="115" y2="753" stroke="black" stroke-width="3"/> 
  <g transform="rotate(270 16.8485 43.1818) flipX(1107.76) flipX(1383.52) flipX(81.2424) rotate(270 1829.73 859.091) flipY(578) rotate(180 1210.44 541.647)">
    <g transform="rotate(90 1212.44 532.643)">
      <polygon points="3249.78,-1060.02 3263.16,-1052.37 3263.16,-1067.66 3249.78,-1060.02" fill="black" stroke="black" stroke-width="1" transform="rotate(180 1279.17 367.814)"/> 
    </g>
  </g>
  <line x1="53" y1="366.03" x2="53" y2="761" stroke="black" stroke-width="3"/> 
  <text x="30.5757" y="345.848" fill="black" font-size="15">20KPM22<tspan x="30.5757" dy="15">AA118</tspan>
  </text>
  <line x1="53" y1="367.061" x2="104.788" y2="367.061" stroke="black" stroke-width="3"/> 
  <line x1="125.485" y1="367.061" x2="192" y2="367.061" stroke="black" stroke-width="3"/> 
  <g transform="flipX(1107.76) flipX(1383.52) flipX(81.2424) rotate(270 1829.73 859.091) flipY(578) rotate(180 1210.44 541.647)">
    <g transform="rotate(90 1212.44 532.643)">
      <polygon points="3332.85,-515.777 3346.23,-508.127 3346.23,-523.417 3332.85,-515.777" fill="black" stroke="black" stroke-width="1" transform="rotate(180 1279.17 367.814)"/> 
    </g>
  </g>
  <line x1="29.0324" y1="821" x2="816.909" y2="821" stroke="black" stroke-width="3"/> 
  <g transform="flipX(1107.76) flipX(1383.52) flipX(81.2424) rotate(270 1829.73 859.091) flipY(578) rotate(180 1210.44 541.647)">
    <g transform="rotate(90 1212.44 532.643)">
      <polygon points="3332.85,-455.686 3346.23,-448.036 3346.23,-463.326 3332.85,-455.686" fill="black" stroke="black" stroke-width="1" transform="rotate(180 1279.17 367.814)"/> 
    </g>
  </g>
  <text x="63.7273" y="795.788" fill="black" font-size="15" text-anchor="middle">
    <title>KBC40_60</title>
KPM22, 23</text>
  <path d="M2441.76 497.879 A8.80483 8.80483 0 1 1 2441.76 515.488 " fill="none" stroke="black" stroke-width="3" transform="rotate(270 830.938 543.084) rotate(270 1616.75 883.029) flipY() translate(0 -828) translate(229.642 442.62)"/> 
  <line x1="147" y1="651.446" x2="147" y2="763.03" stroke="black" stroke-width="3"/> 
  <text x="176" y="702.303" fill="black" font-size="15">20KPM20<tspan x="176" dy="15">AA203</tspan>
  </text>
  <g transform="rotate(270 16.8485 43.1818) flipX(1107.76) flipX(1383.52) flipX(81.2424) rotate(270 1829.73 859.091) flipY(578) rotate(180 1210.44 541.647)">
    <g transform="rotate(90 1212.44 532.643)">
      <polygon points="2706.85,-1104.4 2720.23,-1096.75 2720.23,-1112.04 2706.85,-1104.4" fill="black" stroke="black" stroke-width="1" transform="rotate(180 1279.17 367.814)"/> 
    </g>
  </g>
  <text x="146.636" y="647.879" fill="black" font-size="15" text-anchor="middle">
    <title>KBC40_60</title>
20KPL</text>
  <text x="244.182" y="797.242" fill="black" font-size="15">20KPM20<tspan x="244.182" dy="15">AA002</tspan>
  </text>
  <line x1="329" y1="551.918" x2="329" y2="821" stroke="black" stroke-width="3"/> 
  <image x="303.258" y="648.319" width="70" height="65" xlink:href="DS_CO_valve.svg" transform="flipY(-10.0004) flipX(-0.000205135) rotate(270 -0.00012207 -10)">
    <rt:dyn type="KKS" mode="constant" value="&quot;NULL&quot;"/> 
    <rt:dyn type="Drive" mode="constant" value="&quot;moto&quot;"/> 
  </image>
  <text x="243.152" y="638.758" fill="black" font-size="15">20KPM20<tspan x="243.152" dy="15">AA001</tspan>
  </text>
  <line x1="463.318" y1="822.757" x2="464.818" y2="924.29" stroke="black" stroke-width="3"/> 
  <rect x="678.531" y="915.514" width="17" height="150" rx="0" ry="0" fill="url(#PortalHatch1)" stroke="black" stroke-width="3" transform="rotate(90 272.137 943.333) rotate(90 499.629 673.886)"/> 
  <text x="304.788" y="524.242" fill="black" font-size="15">20KTB</text>
  <g transform="rotate(270 329.5 354)">
    <rect x="334.818" y="328.576" width="68.1812" height="92.4244" rx="0" ry="0" fill="Col_Grey4"/> 
    <rect x="336.338" y="363.09" width="65.1515" height="25.7576" rx="0" ry="0" fill="url(#PortalHatch3)"/> 
  </g>
  <line x1="363" y1="411.5" x2="384" y2="411.5" stroke="black"/> 
  <line x1="918.576" y1="327.5" x2="939.576" y2="327.5" stroke="black"/> 
  <text x="656.424" y="963.455" fill="black" font-size="15" text-anchor="middle">сдувки из баков</text>
  <image x="1270.88" y="557.197" width="50" height="55" xlink:href="TPTS_switch.svg"/> 
  <image x="1095.12" y="557.197" width="50" height="55" xlink:href="TPTS_switch.svg"/> 
  <image x="130.09" y="314.424" width="70" height="65" xlink:href="DS_CO_valve.svg" transform="rotate(270 0 0) flipY(-10.0004) flipX(-0.000205135) rotate(270 -0.00012207 -10)">
    <rt:dyn type="KKS" mode="constant" value="&quot;NULL&quot;"/> 
    <rt:dyn type="Drive" mode="constant" value="&quot;moto&quot;"/> 
  </image>
  <image x="420.454" y="350.788" width="70" height="65" xlink:href="DS_CO_valve.svg" transform="rotate(270 0 0) flipY(-10.0004) flipX(-0.000205135) rotate(270 -0.00012207 -10)">
    <rt:dyn type="KKS" mode="constant" value="&quot;NULL&quot;"/> 
    <rt:dyn type="Drive" mode="constant" value="&quot;moto&quot;"/> 
  </image>
  <image x="420.454" y="612.909" width="70" height="65" xlink:href="DS_CO_valve.svg" transform="rotate(270 0 0) flipY(-10.0004) flipX(-0.000205135) rotate(270 -0.00012207 -10)">
    <rt:dyn type="KKS" mode="constant" value="&quot;NULL&quot;"/> 
    <rt:dyn type="Drive" mode="constant" value="&quot;moto&quot;"/> 
  </image>
  <image x="122.364" y="668.97" width="70" height="65" xlink:href="DS_Reg_valve.svg" transform="flipY(-9.99998) rotate(90 1.31673e-005 -10)"/> 
  <image x="439.636" y="837.621" width="70" height="65" xlink:href="DS_Reg_valve.svg" transform="rotate(90 1.31673e-005 -10)"/> 
  <image x="629.03" y="837.621" width="70" height="65" xlink:href="DS_Reg_valve.svg" transform="rotate(90 1.31673e-005 -10)">
    <rt:dyn type="DATA_NARY" mode="constant" value="&quot;NONE&quot;"/> 
  </image>
  <image x="165.394" y="391.697" width="70" height="65" xlink:href="DS_CO_valve.svg" transform="flipY(-10.0004) flipX(-0.000205135) rotate(270 -0.00012207 -10)">
    <rt:dyn type="KKS" mode="constant" value="&quot;NULL&quot;"/> 
    <rt:dyn type="Drive" mode="constant" value="&quot;moto&quot;"/> 
  </image>
  <image x="474.485" y="468.97" width="70" height="65" xlink:href="DS_CO_valve.svg" transform="flipY(-10.0004) flipX(-0.000205135) rotate(270 -0.00012207 -10)">
    <rt:dyn type="KKS" mode="constant" value="&quot;NULL&quot;"/> 
    <rt:dyn type="Drive" mode="constant" value="&quot;moto&quot;"/> 
  </image>
  <image x="512.364" y="281.091" width="70" height="65" xlink:href="DS_CO_valve.svg" transform="flipY(-10.0004) flipX(-0.000205135) rotate(270 -0.00012207 -10)">
    <rt:dyn type="KKS" mode="constant" value="&quot;NULL&quot;"/> 
    <rt:dyn type="Drive" mode="constant" value="&quot;moto&quot;"/> 
  </image>
  <image x="741.152" y="475.03" width="70" height="65" xlink:href="DS_CO_valve.svg" transform="flipY(-10.0004) flipX(-0.000205135) rotate(270 -0.00012207 -10)">
    <rt:dyn type="KKS" mode="constant" value="&quot;NULL&quot;"/> 
    <rt:dyn type="Drive" mode="constant" value="&quot;moto&quot;"/> 
  </image>
  <image x="741.152" y="362.909" width="70" height="65" xlink:href="DS_CO_valve.svg" transform="flipY(-10.0004) flipX(-0.000205135) rotate(270 -0.00012207 -10)">
    <rt:dyn type="KKS" mode="constant" value="&quot;NULL&quot;"/> 
    <rt:dyn type="Drive" mode="constant" value="&quot;moto&quot;"/> 
  </image>
  <image x="950.242" y="368.97" width="70" height="65" xlink:href="DS_CO_valve.svg" transform="flipY(-10.0004) flipX(-0.000205135) rotate(270 -0.00012207 -10)">
    <rt:dyn type="KKS" mode="constant" value="&quot;NULL&quot;"/> 
    <rt:dyn type="Drive" mode="constant" value="&quot;moto&quot;"/> 
  </image>
  <image x="1092.67" y="671.56" width="70" height="65" xlink:href="DS_CO_valve.svg" transform="flipY(-10.0004) flipX(-0.000205135) rotate(270 -0.00012207 -10)">
    <rt:dyn type="KKS" mode="constant" value="&quot;NULL&quot;"/> 
    <rt:dyn type="Drive" mode="constant" value="&quot;moto&quot;"/> 
  </image>
  <image x="1268.42" y="671.56" width="70" height="65" xlink:href="DS_CO_valve.svg" transform="flipY(-10.0004) flipX(-0.000205135) rotate(270 -0.00012207 -10)">
    <rt:dyn type="KKS" mode="constant" value="&quot;NULL&quot;"/> 
    <rt:dyn type="Drive" mode="constant" value="&quot;moto&quot;"/> 
  </image>
  <image x="1507.82" y="671.56" width="70" height="65" xlink:href="DS_CO_valve.svg" transform="flipY(-10.0004) flipX(-0.000205135) rotate(270 -0.00012207 -10)">
    <rt:dyn type="KKS" mode="constant" value="&quot;NULL&quot;"/> 
    <rt:dyn type="Drive" mode="constant" value="&quot;moto&quot;"/> 
  </image>
  <image x="1638.11" y="908.924" width="70" height="65" xlink:href="DS_CO_valve.svg" transform="flipY(-10.0004) flipX(-0.000205135) rotate(270 -0.00012207 -10)">
    <rt:dyn type="KKS" mode="constant" value="&quot;NULL&quot;"/> 
    <rt:dyn type="Drive" mode="constant" value="&quot;moto&quot;"/> 
  </image>
  <image x="1818.42" y="908.924" width="70" height="65" xlink:href="DS_CO_valve.svg" transform="flipY(-10.0004) flipX(-0.000205135) rotate(270 -0.00012207 -10)">
    <rt:dyn type="KKS" mode="constant" value="&quot;NULL&quot;"/> 
    <rt:dyn type="Drive" mode="constant" value="&quot;moto&quot;"/> 
  </image>
  <image x="1638.11" y="481.091" width="70" height="65" xlink:href="DS_CO_valve.svg" transform="flipY(-10.0004) flipX(-0.000205135) rotate(270 -0.00012207 -10)">
    <rt:dyn type="KKS" mode="constant" value="&quot;NULL&quot;"/> 
    <rt:dyn type="Drive" mode="constant" value="&quot;moto&quot;"/> 
  </image>
  <image x="1638.11" y="376.545" width="70" height="65" xlink:href="DS_CO_valve.svg" transform="flipY(-10.0004) flipX(-0.000205135) rotate(270 -0.00012207 -10)">
    <rt:dyn type="KKS" mode="constant" value="&quot;NULL&quot;"/> 
    <rt:dyn type="Drive" mode="constant" value="&quot;moto&quot;"/> 
  </image>
  <image x="1404.79" y="88.6667" width="70" height="65" xlink:href="DS_Reg_valve.svg" transform="flipX(0.000192988) rotate(0 0 -10.0001)">
    <rt:dyn type="KKS" mode="constant" value="&quot;NULL&quot;"/> 
    <rt:dyn type="Operate" mode="constant" value="true"/> 
  </image>
  <image x="1232.06" y="150.667" width="70" height="65" xlink:href="DS_Reg_valve.svg" transform="flipX(0.000192988) rotate(0 0 -10.0001)">
    <rt:dyn type="KKS" mode="constant" value="&quot;NULL&quot;"/> 
    <rt:dyn type="Operate" mode="constant" value="true"/> 
  </image>
  <image x="1589.64" y="6.0606" width="70" height="65" xlink:href="DS_CO_valve.svg" transform="rotate(270 0 0) flipY(-10.0004) flipX(-0.000205135) rotate(270 -0.00012207 -10)">
    <rt:dyn type="KKS" mode="constant" value="&quot;NULL&quot;"/> 
    <rt:dyn type="Drive" mode="constant" value="&quot;moto&quot;"/> 
  </image>
  <image x="1680.55" y="177.273" width="70" height="65" xlink:href="DS_CO_valve.svg" transform="rotate(270 0 0) flipY(-10.0004) flipX(-0.000205135) rotate(270 -0.00012207 -10)">
    <rt:dyn type="KKS" mode="constant" value="&quot;NULL&quot;"/> 
    <rt:dyn type="Drive" mode="constant" value="&quot;moto&quot;"/> 
  </image>
  <image x="1774.48" y="78.7879" width="70" height="65" xlink:href="DS_CO_valve.svg" transform="rotate(270 0 0) flipY(-10.0004) flipX(-0.000205135) rotate(270 -0.00012207 -10)">
    <rt:dyn type="KKS" mode="constant" value="&quot;NULL&quot;"/> 
    <rt:dyn type="Drive" mode="constant" value="&quot;moto&quot;"/> 
  </image>
  <image x="1772.97" y="422.727" width="70" height="65" xlink:href="DS_CO_valve.svg" transform="rotate(270 0 0) flipY(-10.0004) flipX(-0.000205135) rotate(270 -0.00012207 -10)">
    <rt:dyn type="KKS" mode="constant" value="&quot;NULL&quot;"/> 
    <rt:dyn type="Drive" mode="constant" value="&quot;moto&quot;"/> 
  </image>
  <image x="1738.12" y="730" width="70" height="65" xlink:href="DS_CO_valve.svg" transform="rotate(270 0 0) flipY(-10.0004) flipX(-0.000205135) rotate(270 -0.00012207 -10)">
    <rt:dyn type="KKS" mode="constant" value="&quot;NULL&quot;"/> 
    <rt:dyn type="Drive" mode="constant" value="&quot;moto&quot;"/> 
  </image>
  <image x="1397.21" y="699.728" width="70" height="65" xlink:href="DS_CO_valve.svg" transform="rotate(270 0 0) flipY(-10.0004) flipX(-0.000205135) rotate(270 -0.00012207 -10)">
    <rt:dyn type="KKS" mode="constant" value="&quot;NULL&quot;"/> 
    <rt:dyn type="Drive" mode="constant" value="&quot;moto&quot;"/> 
  </image>
  <image x="645.697" y="142.303" width="70" height="65" xlink:href="DS_CO_valve.svg" transform="rotate(270 0 0) flipY(-10.0004) flipX(-0.000205135) rotate(270 -0.00012207 -10)">
    <rt:dyn type="KKS" mode="constant" value="&quot;NULL&quot;"/> 
    <rt:dyn type="Drive" mode="constant" value="&quot;moto&quot;"/> 
  </image>
  <image x="1092.68" y="471.682" width="70" height="65" xlink:href="DS_CO_valve.svg" transform="flipY(-10.0004) flipX(-0.000205135) rotate(270 -0.00012207 -10)">
    <rt:dyn type="KKS" mode="constant" value="&quot;NULL&quot;"/> 
    <rt:dyn type="Drive" mode="constant" value="&quot;moto&quot;"/> 
  </image>
  <image x="1268.43" y="471.682" width="70" height="65" xlink:href="DS_CO_valve.svg" transform="flipY(-10.0004) flipX(-0.000205135) rotate(270 -0.00012207 -10)">
    <rt:dyn type="KKS" mode="constant" value="&quot;NULL&quot;"/> 
    <rt:dyn type="Drive" mode="constant" value="&quot;moto&quot;"/> 
  </image>
  <image x="235.314" y="454.545" width="75" height="25" xlink:href="obj_link.svg">
    <rt:event type="OnClick"/> 
    <rt:dyn type="TextStr" mode="constant" value="&quot;KPM21&quot;"/> 
    <rt:dyn type="ModName" mode="constant" value="&quot;7_asrk_kpm21&quot;"/> 
  </image>
  <image x="235.314" y="484.849" width="75" height="25" xlink:href="obj_link.svg">
    <rt:event type="OnClick"/> 
    <rt:dyn type="TextStr" mode="constant" value="&quot;KPM23&quot;"/> 
    <rt:dyn type="ModName" mode="constant" value="&quot;7_asrk_kpm23&quot;"/> 
  </image>
  <image x="1107.65" y="908.621" width="75" height="25" xlink:href="obj_link.svg">
    <rt:event type="OnClick">LoadNew(&quot;&quot;)</rt:event>
    <rt:dyn type="TextStr" mode="constant" value="&quot;KPM21&quot;"/> 
    <rt:dyn type="ModName" mode="constant" value="&quot;7_asrk_kpm21&quot;"/> 
  </image>
  <image x="1107.65" y="942.925" width="75" height="25" xlink:href="obj_link.svg">
    <rt:event type="OnClick">LoadNew(&quot;&quot;)</rt:event>
    <rt:dyn type="TextStr" mode="constant" value="&quot;KPM23&quot;"/> 
    <rt:dyn type="ModName" mode="constant" value="&quot;7_asrk_kpm23&quot;"/> 
  </image>
  <image x="153.273" y="538.151" width="75" height="25" xlink:href="obj_link.svg" transform="rotate(270 37.3618 12.5)">
    <rt:event type="OnClick">LoadNew(&quot;&quot;)</rt:event>
    <rt:dyn type="TextStr" mode="constant" value="&quot;&quot;"/> 
  </image>
  <image x="289.636" y="553.03" width="75" height="25" xlink:href="obj_link.svg" transform="flipY(12.6382) rotate(270 37.3618 12.5)">
    <rt:event type="OnClick">LoadNew(&quot;&quot;)</rt:event>
    <rt:dyn type="TextStr" mode="constant" value="&quot;&quot;"/> 
  </image>
  <rect x="891.898" y="202.213" width="150" height="21.2122" rx="0" ry="0" fill="Col_BGItemSel"/> 
  <image x="891.718" y="225.939" width="175" height="25" xlink:href="DS_ana_ASRK.svg">
    <title>&quot;20KPM22CR602B01&quot;</title>
    <rt:dyn type="IsExp" mode="constant" value="true"/> 
    <rt:dyn type="ShowFrame" mode="constant" value="true"/> 
    <rt:dyn type="Color_Readings" mode="constant" value="true"/> 
    <rt:dyn type="FKKS" mode="constant" value="&quot;20KPM22CR602B01&quot;"/> 
    <rt:dyn type="ValueToTheRight" mode="constant" value="false"/> 
    <rt:dyn type="SetBounds" mode="constant" value="true"/> 
    <rt:dyn type="Show_Map" mode="constant" value="false"/> 
    <rt:dyn type="X" mode="constant" value="&quot;A&quot;"/> 
  </image>
  <text x="895.958" y="219.637" fill="black" font-size="18" text-anchor="start">20KPM22CR602</text>
  <image x="1730.55" y="854.546" width="75" height="25" xlink:href="obj_link.svg" transform="rotate(0 37.3619 12.5)">
    <rt:dyn type="TextStr" mode="constant" value="&quot;PK&quot;"/> 
    <rt:event type="OnClick"/> 
    <rt:dyn type="ModName" mode="constant" value="&quot;7_all_asrk&quot;"/> 
  </image>
  <circle cx="685.283" cy="726.841" r="3.14044" fill="black" stroke="black" stroke-width="1" transform="flipY() translate(0 -828) translate(219.956 -216.972)"/> 
  <circle cx="1106.04" cy="64.9721" r="3.14044" fill="black" stroke="black" stroke-width="1" transform="flipY() translate(0 -828) translate(219.956 -216.972)"/> 
  <rect x="1295.38" y="909.85" width="150" height="21.2122" rx="0" ry="0" fill="Col_BGItemSel"/> 
  <image x="1295.2" y="933.576" width="175" height="25" xlink:href="DS_ana_ASRK.svg">
    <title>&quot;20KPM22CR601B01&quot;</title>
    <rt:dyn type="IsExp" mode="constant" value="true"/> 
    <rt:dyn type="ShowFrame" mode="constant" value="true"/> 
    <rt:dyn type="Color_Readings" mode="constant" value="true"/> 
    <rt:dyn type="FKKS" mode="constant" value="&quot;20KPM22CR601B01&quot;"/> 
    <rt:dyn type="ValueToTheRight" mode="constant" value="false"/> 
    <rt:dyn type="SetBounds" mode="constant" value="true"/> 
    <rt:dyn type="Show_Map" mode="constant" value="false"/> 
    <rt:dyn type="X" mode="constant" value="&quot;A&quot;"/> 
  </image>
  <text x="1299.44" y="927.274" fill="black" font-size="18" text-anchor="start">20KPM22CR601</text>
  <text x="87.5" y="25" fill="black" font-size="15" font-weight="700" text-anchor="middle">
    <title>Схема КИП насосов охлаждения бассейна выдержки</title>
ASRK_KPM22</text>
  <rect x="891.898" y="249.213" width="150" height="21.2122" rx="0" ry="0" fill="Col_BGItemSel"/> 
  <image x="891.718" y="272.939" width="175" height="25" xlink:href="DS_ana_ASRK.svg">
    <title>&quot;20KPM22CR001B01&quot;</title>
    <rt:dyn type="IsExp" mode="constant" value="true"/> 
    <rt:dyn type="ShowFrame" mode="constant" value="true"/> 
    <rt:dyn type="Color_Readings" mode="constant" value="true"/> 
    <rt:dyn type="FKKS" mode="constant" value="&quot;20KPM22CR001B01&quot;"/> 
    <rt:dyn type="ValueToTheRight" mode="constant" value="false"/> 
    <rt:dyn type="SetBounds" mode="constant" value="true"/> 
    <rt:dyn type="Show_Map" mode="constant" value="false"/> 
    <rt:dyn type="X" mode="constant" value="&quot;G&quot;"/> 
  </image>
  <text x="895.958" y="266.637" fill="black" font-size="18" text-anchor="start">20KPM22CR001</text>
  <rect x="1293.75" y="841" width="150" height="21.2122" rx="0" ry="0" fill="Col_BGItemSel"/> 
  <image x="1293.57" y="864.726" width="175" height="25" xlink:href="DS_ana_ASRK.svg">
    <title>&quot;20KPM22CR002B01&quot;</title>
    <rt:dyn type="IsExp" mode="constant" value="true"/> 
    <rt:dyn type="ShowFrame" mode="constant" value="true"/> 
    <rt:dyn type="Color_Readings" mode="constant" value="true"/> 
    <rt:dyn type="FKKS" mode="constant" value="&quot;20KPM22CR002B01&quot;"/> 
    <rt:dyn type="ValueToTheRight" mode="constant" value="false"/> 
    <rt:dyn type="SetBounds" mode="constant" value="true"/> 
    <rt:dyn type="Show_Map" mode="constant" value="false"/> 
    <rt:dyn type="X" mode="constant" value="&quot;G&quot;"/> 
  </image>
  <text x="1297.81" y="858.424" fill="black" font-size="18" text-anchor="start">20KPM22CR002</text>
  <text x="1099" y="293" fill="black" font-size="15">Гр/ч</text>
  <g>
    <text x="1095" y="244" fill="black" font-size="15">Бк/м</text>
    <text x="1132" y="233" fill="black" font-size="12">3</text>
  </g>
  <text x="1497" y="882" fill="black" font-size="15">Гр/ч</text>
  <g>
    <text x="1484" y="950" fill="black" font-size="15">Бк/м</text>
    <text x="1521" y="939" fill="black" font-size="12">3</text>
  </g>
  <g>
    <polyline points="858.817,255 881.317,300 835.817,300 858.817,255" fill="Col_Grey4" stroke="black" stroke-width="1"/> 
  </g>
  <g>
    <polyline points="1261.82,846.228 1284.32,891.228 1238.82,891.228 1261.82,846.228" fill="Col_Grey4" stroke="black" stroke-width="1"/> 
  </g>
  <g>
    <circle cx="858" cy="225" r="25" fill="Col_Grey2" stroke="black" stroke-width="1"/> 
    <line x1="838.75" y1="225.75" x2="878.75" y2="225.75" stroke="black" stroke-dasharray="4,5"/> 
    <rect x="838" y="217.25" width="40" height="15.75" rx="0" ry="0" fill="Col_Grey4" stroke="black" stroke-width="1"/> 
  </g>
  <g>
    <circle cx="1262" cy="944" r="25" fill="Col_Grey2" stroke="black" stroke-width="1"/> 
    <line x1="1242.75" y1="944.75" x2="1282.75" y2="944.75" stroke="black" stroke-dasharray="4,5"/> 
    <rect x="1242" y="936.25" width="40" height="15.75" rx="0" ry="0" fill="Col_Grey4" stroke="black" stroke-width="1"/> 
  </g>
</svg>
