<?xml  version="1.0" encoding="windows-1251"?>
<svg color="Col_BGSand" xmlns="http://www.w3.org/2000/svg" xmlns:rt="http://www.rts.co.at/2001/XMLSchema/RtSvgPL" xmlns:xlink="http://www.w3.org/1999/xlink" xmlns:xsi="http://www.w3.org/2001/XMLSchema-instance" xsi:schemaLocation="http://www.w3.org/2000/svg C:\RTS\RtSvg\XML\SVG.xsd" viewBox="0 0 1920 980" width="1920" height="980" id="asrk_20ukc_g" fill="none" stroke="black">
  <title>Здание 20UKC.Радиационный контроль системы хранения ЖРО (КРК) отм. +8,400</title>
  <rt:model modelversion="7.2.0.24" comment="UMod 7_all_asrk&#10;LMod 20ukc&#10;RMod 7_asrk_20ukh" revision="3"/> 
  <line x1="835" y1="687.742" x2="835" y2="650" stroke="black"/> 
  <line x1="1306.5" y1="707.25" x2="1206" y2="707.5" stroke="black"/> 
  <text x="975" y="32.1818" fill="black" font-size="30" font-weight="700" text-anchor="middle">Здание 20UKC.Радиационный контроль системы хранения ЖРО (КРК) отм. +8,400</text>
  <rect x="235" y="200" width="450" height="600" rx="0" ry="0" fill="none" stroke="black" stroke-width="5"/> 
  <circle cx="461.706" cy="475" r="48.2942" fill="none" stroke="black" stroke-width="5"/> 
  <text x="402" y="400" fill="black" font-size="15">20KPK10BB001</text>
  <circle cx="460" cy="475" r="150.294" fill="none" stroke="black" stroke-width="5"/> 
  <text x="410" y="550" fill="black" font-size="15">Резервный бак</text>
  <text x="535" y="775" fill="black" font-size="15">20UKC14R032</text>
  <rect x="710" y="200" width="450" height="600" rx="0" ry="0" fill="none" stroke="black" stroke-width="5"/> 
  <rect x="1185" y="200" width="450" height="600" rx="0" ry="0" fill="none" stroke="black" stroke-width="5"/> 
  <rect x="210" y="150" width="1450" height="725" rx="0" ry="0" fill="none" stroke="black" stroke-width="5"/> 
  <circle cx="935" cy="475" r="150.294" fill="none" stroke="black" stroke-width="5"/> 
  <circle cx="936.706" cy="475" r="48.2942" fill="none" stroke="black" stroke-width="5"/> 
  <text x="885" y="550" fill="black" font-size="15">Бак среднеактивных<tspan x="885" dy="15">сорбентов</tspan>
  </text>
  <circle cx="1410" cy="475" r="150.294" fill="none" stroke="black" stroke-width="5"/> 
  <circle cx="1411.71" cy="475" r="48.2942" fill="none" stroke="black" stroke-width="5"/> 
  <text x="1360" y="550" fill="black" font-size="15">Бак низкоактивных<tspan x="1360" dy="15">сорбентов</tspan>
  </text>
  <text x="1485" y="775" fill="black" font-size="15">20UKC14R034</text>
  <text x="880" y="400" fill="black" font-size="15">20KPK30BB001</text>
  <text x="1352" y="400" fill="black" font-size="15">20KPK30BB002</text>
  <rect x="1378.82" y="622.956" width="12.6921" height="42.6205" rx="0" ry="0" stroke-width="5" transform="rotate(71.0826 1390.35 498.843)"/> 
  <g transform="rotate(4.40384 1262 601) rotate(44.9704 1270 329.5)">
    <line x1="1437.36" y1="502.371" x2="1470.63" y2="502.566" stroke="black" stroke-width="5"/> 
    <rect x="1436.63" y="483.566" width="32" height="63" rx="0" ry="0" stroke-width="5"/> 
    <line x1="1438.72" y1="530.064" x2="1469.63" y2="529.566" stroke="black" stroke-width="5"/> 
  </g>
  <circle cx="1249.95" cy="506.058" r="8.57141" fill="black" stroke="black" stroke-width="3"/> 
  <line x1="1242" y1="507" x2="1202" y2="507" stroke="black"/> 
  <line x1="1206" y1="708" x2="1203" y2="508" stroke="black"/> 
  <rect x="1436.11" y="455.794" width="12.6921" height="42.6205" rx="0" ry="0" stroke-width="5" transform="flipX(1261.1) rotate(71.0826 1390.35 498.843)"/> 
  <rect x="1589.78" y="7.39615" width="12.6921" height="42.6205" rx="0" ry="0" stroke-width="5" transform="flipX(1261.1) rotate(71.0826 1390.35 498.843)"/> 
  <g transform="flipX(1083) rotate(4.40384 1262 601) rotate(44.9704 1270 329.5)">
    <line x1="1324.28" y1="637.253" x2="1357.55" y2="637.448" stroke="black" stroke-width="5"/> 
    <rect x="1323.55" y="618.448" width="32" height="63" rx="0" ry="0" stroke-width="5"/> 
    <line x1="1325.64" y1="664.946" x2="1356.55" y2="664.448" stroke="black" stroke-width="5"/> 
  </g>
  <g transform="flipX(584) rotate(4.40384 1262 601) rotate(44.9704 1270 329.5)">
    <line x1="982.338" y1="1034.31" x2="1015.61" y2="1034.5" stroke="black" stroke-width="5"/> 
    <rect x="981.608" y="1015.5" width="32" height="63" rx="0" ry="0" stroke-width="5"/> 
    <line x1="983.698" y1="1062" x2="1014.61" y2="1061.5" stroke="black" stroke-width="5"/> 
  </g>
  <circle cx="1025.95" cy="610.058" r="8.57141" fill="black" stroke="black" stroke-width="3"/> 
  <line x1="1025" y1="650" x2="1025" y2="611.008" stroke="black"/> 
  <line x1="1025" y1="650" x2="835" y2="650" stroke="black"/> 
  <line x1="360" y1="688.992" x2="360" y2="650" stroke="black"/> 
  <circle cx="551.95" cy="612.058" r="8.57141" fill="black" stroke="black" stroke-width="3"/> 
  <line x1="550" y1="650" x2="550" y2="611.008" stroke="black"/> 
  <line x1="551" y1="650" x2="360" y2="650" stroke="black"/> 
  <text x="1032.3" y="775" fill="black" font-size="15">20UKC14R033</text>
  <image x="1747.91" y="912.121" width="75" height="25" xlink:href="obj_link.svg" transform="rotate(0 37.3619 12.5)">
    <rt:dyn type="TextStr" mode="constant" value="&quot;PK&quot;"/> 
    <rt:event type="OnClick">LoadNew(&quot;&quot;)</rt:event>
    <rt:dyn type="ModName" mode="constant" value="&quot;7_all_asrk&quot;"/> 
  </image>
  <text x="90" y="30.5" fill="black" font-size="15" font-weight="700" text-anchor="middle">
    <title>Схема КИП насосов охлаждения бассейна выдержки</title>
ASRK_20UKC_G</text>
  <text x="1339.8" y="667.757" fill="black" font-size="15">БДБГ-13Р</text>
  <text x="864.805" y="669.03" fill="black" font-size="15">БДБГ-13Р</text>
  <text x="389.805" y="668.03" fill="black" font-size="15">БДБГ-13Р</text>
  <rect x="393.181" y="675.273" width="150" height="21.2122" rx="0" ry="0" fill="Col_BGItemSel"/> 
  <image x="393.001" y="699" width="175" height="25" xlink:href="DS_ana_ASRK.svg">
    <title>&quot;20KPK10CR001B01&quot;</title>
    <rt:dyn type="IsExp" mode="constant" value="true"/> 
    <rt:dyn type="ShowFrame" mode="constant" value="true"/> 
    <rt:dyn type="Color_Readings" mode="constant" value="true"/> 
    <rt:dyn type="FKKS" mode="constant" value="&quot;20KPK10CR001B01&quot;"/> 
    <rt:dyn type="ValueToTheRight" mode="constant" value="false"/> 
    <rt:dyn type="SetBounds" mode="constant" value="true"/> 
    <rt:dyn type="Show_Map" mode="constant" value="false"/> 
    <rt:dyn type="X" mode="constant" value="&quot;G&quot;"/> 
  </image>
  <text x="397.242" y="692.697" fill="black" font-size="18" text-anchor="start">20KPK10CR001</text>
  <rect x="868.181" y="676.273" width="150" height="21.2122" rx="0" ry="0" fill="Col_BGItemSel"/> 
  <image x="868.001" y="700" width="175" height="25" xlink:href="DS_ana_ASRK.svg">
    <title>&quot;20KPK30CR001B01&quot;</title>
    <rt:dyn type="IsExp" mode="constant" value="true"/> 
    <rt:dyn type="ShowFrame" mode="constant" value="true"/> 
    <rt:dyn type="Color_Readings" mode="constant" value="true"/> 
    <rt:dyn type="FKKS" mode="constant" value="&quot;20KPK30CR001B01&quot;"/> 
    <rt:dyn type="ValueToTheRight" mode="constant" value="false"/> 
    <rt:dyn type="SetBounds" mode="constant" value="true"/> 
    <rt:dyn type="Show_Map" mode="constant" value="false"/> 
    <rt:dyn type="X" mode="constant" value="&quot;G&quot;"/> 
  </image>
  <text x="872.242" y="693.697" fill="black" font-size="18" text-anchor="start">20KPK30CR001</text>
  <rect x="1343.18" y="675" width="150" height="21.2122" rx="0" ry="0" fill="Col_BGItemSel"/> 
  <image x="1343" y="698.727" width="175" height="25" xlink:href="DS_ana_ASRK.svg">
    <title>&quot;20KPK30CR002B01&quot;</title>
    <rt:dyn type="IsExp" mode="constant" value="true"/> 
    <rt:dyn type="ShowFrame" mode="constant" value="true"/> 
    <rt:dyn type="Color_Readings" mode="constant" value="true"/> 
    <rt:dyn type="FKKS" mode="constant" value="&quot;20KPK30CR002B01&quot;"/> 
    <rt:dyn type="ValueToTheRight" mode="constant" value="false"/> 
    <rt:dyn type="SetBounds" mode="constant" value="true"/> 
    <rt:dyn type="Show_Map" mode="constant" value="false"/> 
    <rt:dyn type="X" mode="constant" value="&quot;G&quot;"/> 
  </image>
  <text x="1347.24" y="692.424" fill="black" font-size="18" text-anchor="start">20KPK30CR002</text>
  <g>
    <polyline points="359.817,680 382.317,725 336.817,725 359.817,680" fill="Col_Grey4" stroke="black" stroke-width="1"/> 
  </g>
  <g>
    <polyline points="834.817,680 857.317,725 811.817,725 834.817,680" fill="Col_Grey4" stroke="black" stroke-width="1"/> 
  </g>
  <g>
    <polyline points="1310.82,680 1333.32,725 1287.82,725 1310.82,680" fill="Col_Grey4" stroke="black" stroke-width="1"/> 
  </g>
</svg>
