<?xml  version="1.0" encoding="windows-1251"?>
<svg color="Col_BGSand" xmlns="http://www.w3.org/2000/svg" xmlns:rt="http://www.rts.co.at/2001/XMLSchema/RtSvgPL" xmlns:xlink="http://www.w3.org/1999/xlink" xmlns:xsi="http://www.w3.org/2001/XMLSchema-instance" xsi:schemaLocation="http://www.w3.org/2000/svg C:\RTS\RtSvg\XML\SVG.xsd" viewBox="0 0 1914 1000" width="1914" height="1000" id="asrk_kla22_42">
  <title>РК вентсистемы разрежения внутреннего контаймента 20KLA22</title>
  <rt:model modelversion="7.2.0.24" comment="UMod 7_all_asrk&#10;LMod 7_asrk_kla21&#10;RMod 7_asrk_klc21" revision="3"/> 
  <line x1="1755" y1="155.879" x2="1755" y2="368.03" stroke="black" stroke-width="3"/> 
  <line x1="1835.83" y1="261.954" x2="1756.09" y2="261.954" stroke="black" stroke-width="3"/> 
  <text x="961.909" y="42.4244" font-size="30" font-weight="700" text-anchor="middle">
    <title>Система вентиляции зданий</title>
РК вентсистемы разрежения внутреннего контаймента 20KLA22</text>
  <line x1="1791.09" y1="454.545" x2="1791.09" y2="454.545" stroke="black"/> 
  <line x1="296.197" y1="176" x2="296.197" y2="558" stroke="black" stroke-width="3"/> 
  <line x1="1757" y1="158.181" x2="1610.03" y2="158.181" stroke="black" stroke-width="3"/> 
  <line x1="1619.12" y1="176.697" x2="296.197" y2="176.697" stroke="black" stroke-width="3"/> 
  <g transform="flipX(1829.73) flipX(1092.61) rotate(270 1446.39 199.242) flipY(189.5) flipY(776.515) rotate(330 1212.44 532.643)">
    <g>
      <polygon points="1063.25,335.657 1076.63,343.307 1076.63,328.017 1063.25,335.657" fill="black" stroke="black" stroke-width="1" transform="rotate(180 1279.17 367.814)"/> 
    </g>
  </g>
  <text x="1571.37" y="212.606" font-size="15">20KLA22<tspan x="1571.37" dy="15">AN001</tspan>
  </text>
  <image x="1566.09" y="136.243" width="70" height="70" xlink:href="DS_motor.svg" transform="flipY(-0.00012207) rotate(90 0 0) flipX(-0.00012207) rotate(270 -0.00012207 0)">
    <rt:dyn type="KKS" mode="constant" value="&quot;NULL&quot;"/> 
    <rt:dyn type="DeviceType" mode="constant" value="&quot;fan&quot;"/> 
  </image>
  <text x="490.197" y="235.697" fill="black" font-size="15" text-anchor="middle">20KLA22<tspan x="490.197" dy="15">AH001</tspan>
  </text>
  <text x="347.197" y="203.727" fill="black" font-size="15" text-anchor="middle">20KLA22<tspan x="347.197" dy="15">AA001</tspan>
  </text>
  <g>
    <rect x="573.237" y="162.926" width="65" height="65" rx="0" ry="0" fill="Col_Grey4" transform="rotate(360 532.506 746.174) rotate(0 532.1 745.087) rotate(314.645 525.5 325)"/> 
    <line x1="489.704" y1="134.371" x2="489.704" y2="220.735" stroke="black" stroke-dasharray="5,5"/> 
    <line x1="1432.01" y1="-666.553" x2="1405.48" y2="-666.553" stroke="black" stroke-width="12" transform="rotate(270 1375.94 219.682)"/> 
  </g>
  <g>
    <rect x="648.436" y="237.639" width="65" height="65" rx="0" ry="0" fill="Col_Grey4" transform="rotate(360 532.506 746.174) rotate(0 532.1 745.087) rotate(314.645 525.5 325)"/> 
    <line x1="595.703" y1="133.371" x2="595.703" y2="219.735" stroke="black" stroke-dasharray="5,5"/> 
  </g>
  <g>
    <rect x="718.708" y="308.786" width="65" height="65" rx="0" ry="0" fill="Col_Grey4" transform="rotate(360 532.506 746.174) rotate(0 532.1 745.087) rotate(314.645 525.5 325)"/> 
    <line x1="695.703" y1="133.371" x2="695.703" y2="219.735" stroke="black" stroke-dasharray="5,5"/> 
  </g>
  <g>
    <rect x="820.592" y="413.365" width="65" height="65" rx="0" ry="0" fill="Col_Grey4" transform="rotate(360 532.506 746.174) rotate(0 532.1 745.087) rotate(314.645 525.5 325)"/> 
    <line x1="841.703" y1="134.371" x2="841.703" y2="220.735" stroke="black" stroke-dasharray="5,5"/> 
  </g>
  <g>
    <rect x="963.946" y="558.505" width="65" height="65" rx="0" ry="0" fill="Col_Grey4" transform="rotate(360 532.506 746.174) rotate(0 532.1 745.087) rotate(314.645 525.5 325)"/> 
    <line x1="1045.7" y1="134.371" x2="1045.7" y2="220.735" stroke="black" stroke-dasharray="5,5"/> 
  </g>
  <image x="1277.73" y="123.727" width="70" height="65" xlink:href="DS_CO_valve.svg" transform="rotate(270 6.32897e-005 4.4512e-005) flipY(-10.0001) rotate(90 -0.00012207 -10.0001)">
    <rt:dyn type="KKS" mode="constant" value="&quot;NULL&quot;"/> 
    <rt:dyn type="Drive" mode="constant" value="&quot;NONE&quot;"/> 
  </image>
  <text x="1301.93" y="203.727" fill="black" font-size="15" text-anchor="middle">20KLA22<tspan x="1301.93" dy="15">AA003</tspan>
  </text>
  <text x="598.197" y="235.697" fill="black" font-size="15" text-anchor="middle">20KLA22<tspan x="598.197" dy="15">AT001</tspan>
  </text>
  <text x="698.197" y="235.697" fill="black" font-size="15" text-anchor="middle">20KLA22<tspan x="698.197" dy="15">AT002</tspan>
  </text>
  <text x="843.197" y="235.697" fill="black" font-size="15" text-anchor="middle">20KLA22<tspan x="843.197" dy="15">AT003</tspan>
  </text>
  <text x="1047.2" y="235.697" fill="black" font-size="15" text-anchor="middle">20KLA22<tspan x="1047.2" dy="15">AT004</tspan>
  </text>
  <line x1="1348.73" y1="175" x2="1348.73" y2="558" stroke="black" stroke-width="3"/> 
  <line x1="1619" y1="383.698" x2="296.197" y2="383.698" stroke="black" stroke-width="3"/> 
  <text x="490.198" y="442.698" fill="black" font-size="15" text-anchor="middle">20KLA22<tspan x="490.198" dy="15">AH002</tspan>
  </text>
  <text x="347.197" y="409.576" fill="black" font-size="15" text-anchor="middle">20KLA22<tspan x="347.197" dy="15">AA002</tspan>
  </text>
  <g>
    <rect x="425.962" y="308.385" width="65" height="65" rx="0" ry="0" fill="Col_Grey4" transform="rotate(360 532.506 746.174) rotate(0 532.1 745.087) rotate(314.645 525.5 325)"/> 
    <line x1="489.704" y1="341.372" x2="489.704" y2="427.736" stroke="black" stroke-dasharray="5,5"/> 
    <line x1="1225.02" y1="-666.554" x2="1198.49" y2="-666.554" stroke="black" stroke-width="12" transform="rotate(270 1375.94 219.682)"/> 
  </g>
  <g>
    <rect x="501.161" y="383.098" width="65" height="65" rx="0" ry="0" fill="Col_Grey4" transform="rotate(360 532.506 746.174) rotate(0 532.1 745.087) rotate(314.645 525.5 325)"/> 
    <line x1="595.704" y1="340.371" x2="595.704" y2="426.736" stroke="black" stroke-dasharray="5,5"/> 
  </g>
  <g>
    <rect x="571.432" y="454.245" width="65" height="65" rx="0" ry="0" fill="Col_Grey4" transform="rotate(360 532.506 746.174) rotate(0 532.1 745.087) rotate(314.645 525.5 325)"/> 
    <line x1="695.704" y1="340.371" x2="695.704" y2="426.736" stroke="black" stroke-dasharray="5,5"/> 
  </g>
  <g>
    <rect x="673.314" y="558.824" width="65" height="65" rx="0" ry="0" fill="Col_Grey4" transform="rotate(360 532.506 746.174) rotate(0 532.1 745.087) rotate(314.645 525.5 325)"/> 
    <line x1="841.704" y1="341.372" x2="841.704" y2="427.736" stroke="black" stroke-dasharray="5,5"/> 
  </g>
  <g>
    <rect x="816.669" y="703.964" width="65" height="65" rx="0" ry="0" fill="Col_Grey4" transform="rotate(360 532.506 746.174) rotate(0 532.1 745.087) rotate(314.645 525.5 325)"/> 
    <line x1="1045.7" y1="341.372" x2="1045.7" y2="427.736" stroke="black" stroke-dasharray="5,5"/> 
  </g>
  <text x="1301.93" y="409.576" fill="black" font-size="15" text-anchor="middle">20KLA22<tspan x="1301.93" dy="15">AA004</tspan>
  </text>
  <text x="597.727" y="442.03" fill="black" font-size="15" text-anchor="middle">20KLA22<tspan x="597.727" dy="15">AT005</tspan>
  </text>
  <text x="698.198" y="442.698" fill="black" font-size="15" text-anchor="middle">20KLA22<tspan x="698.198" dy="15">AT006</tspan>
  </text>
  <text x="843.198" y="442.698" fill="black" font-size="15" text-anchor="middle">20KLA22<tspan x="843.198" dy="15">AT007</tspan>
  </text>
  <text x="1047.2" y="442.698" fill="black" font-size="15" text-anchor="middle">20KLA22<tspan x="1047.2" dy="15">AT008</tspan>
  </text>
  <line x1="1348.35" y1="557.849" x2="113" y2="557.849" stroke="black" stroke-width="3"/> 
  <text x="1409.79" y="203.727" fill="black" font-size="15" text-anchor="middle">20KLA22<tspan x="1409.79" dy="15">AA005</tspan>
  </text>
  <text x="1507.27" y="204.124" fill="black" font-size="15" text-anchor="middle">20KLA22<tspan x="1507.27" dy="15">AA201</tspan>
  </text>
  <image x="1470.61" y="133.791" width="70" height="65" xlink:href="DS_Reg_valve.svg" transform="flipX() rotate(90 -2.30496e-006 -9.99997) rotate(270 0 -10)">
    <rt:dyn type="KKS" mode="constant" value="&quot;NULL&quot;"/> 
  </image>
  <text x="1689.98" y="184.515" fill="black" font-size="15" text-anchor="middle">20KLA22<tspan x="1689.98" dy="15">AA007</tspan>
  </text>
  <text x="1571.37" y="419.97" font-size="15">20KLA22<tspan x="1571.37" dy="15">AN002</tspan>
  </text>
  <text x="1409.79" y="409.576" fill="black" font-size="15" text-anchor="middle">20KLA22<tspan x="1409.79" dy="15">AA006</tspan>
  </text>
  <text x="1507.27" y="409.879" fill="black" font-size="15" text-anchor="middle">20KLA22<tspan x="1507.27" dy="15">AA202</tspan>
  </text>
  <image x="1470.61" y="340.546" width="70" height="65" xlink:href="DS_Reg_valve.svg" transform="flipX() rotate(90 -2.30496e-006 -9.99997) rotate(270 0 -10)">
    <rt:dyn type="KKS" mode="constant" value="&quot;NULL&quot;"/> 
    <rt:dyn type="Operate" mode="constant" value="true"/> 
  </image>
  <text x="1689.98" y="393.94" fill="black" font-size="15" text-anchor="middle">20KLA22<tspan x="1689.98" dy="15">AA008</tspan>
  </text>
  <text x="1834.27" y="289.242" fill="black" font-size="15" text-anchor="middle">В венттрубу</text>
  <circle cx="1569.5" cy="783.397" r="2.60962" fill="black" stroke="black" stroke-width="1" transform="flipY() translate(0 -828) translate(219.956 -216.972)"/> 
  <text x="1253.93" y="586.364" fill="black" font-size="15" text-anchor="middle">20KLA22<tspan x="1253.93" dy="15">AA009</tspan>
  </text>
  <line x1="1757" y1="367.47" x2="1610.03" y2="367.47" stroke="black" stroke-width="3"/> 
  <image x="1566.09" y="343.607" width="70" height="70" xlink:href="DS_motor.svg" transform="flipY(-0.00012207) rotate(90 0 0) flipX(-0.00012207) rotate(270 -0.00012207 0)">
    <rt:dyn type="KKS" mode="constant" value="&quot;NULL&quot;"/> 
    <rt:dyn type="Operate" mode="constant" value="true"/> 
    <rt:dyn type="DeviceType" mode="constant" value="&quot;fan&quot;"/> 
  </image>
  <line x1="1789.32" y1="77.1212" x2="1789.32" y2="262" stroke="black"/> 
  <line x1="1635.79" y1="718" x2="1092" y2="718" stroke="black" stroke-width="3"/> 
  <line x1="1290.13" y1="-173.07" x2="1290.13" y2="-25.0701" stroke="black" transform="rotate(90 689.25 117.497)"/> 
  <line x1="1177.38" y1="-175.07" x2="1177.38" y2="-23.0701" stroke="black" transform="rotate(90 689.25 117.497)"/> 
  <line x1="1120.54" y1="736.122" x2="213.061" y2="736.122" stroke="black" stroke-width="3"/> 
  <g transform="flipX(459) scale(1.27 1.27 1043.36 910.606) scale(1.0524 1.0524 1.4013e-045 1.4013e-045) flipX(963.818) rotate(270 964.576 96.9697) rotate(90 1175.94 787.121) scale(0.380039 0.380039 1162.3 219.697) rotate(270 1162.3 219.697) rotate(270 412.288 437.863)">
    <g transform="rotate(90 1094.11 578.015)">
      <rect x="-2053.56" y="1146.12" width="130.303" height="134.849" rx="0" ry="0" fill="Col_Grey4" stroke="black" stroke-width="3"/> 
      <line x1="-1989.95" y1="1161.24" x2="-1941.47" y2="1185.49" stroke="black" stroke-width="3"/> 
      <line x1="-2036.25" y1="1241.37" x2="-1987.75" y2="1265.62" stroke="black" stroke-width="3"/> 
      <line x1="-1942.99" y1="1185.49" x2="-2038.44" y2="1241.55" stroke="black" stroke-width="3"/> 
      <line x1="-1988.77" y1="1265.02" x2="-1988.77" y2="1280.02" stroke="black" stroke-width="3"/> 
      <line x1="-1988.62" y1="1148.17" x2="-1988.62" y2="1163.17" stroke="black" stroke-width="3"/> 
    </g>
  </g>
  <text x="1017.63" y="660.516" font-size="15">20SBJ07<tspan x="1017.63" dy="15">AA016</tspan>
  </text>
  <text x="1140.91" y="746.273" font-size="15">20KLA42<tspan x="1140.91" dy="15">AN001</tspan>
  </text>
  <image x="1068.81" y="696.122" width="70" height="70" xlink:href="DS_motor.svg" transform="flipY(-0.00012207) rotate(90 0 0) flipX(-0.00012207) rotate(270 -0.00012207 0)">
    <rt:dyn type="KKS" mode="constant" value="&quot;NULL&quot;"/> 
    <rt:dyn type="Operate" mode="constant" value="true"/> 
    <rt:dyn type="DeviceType" mode="constant" value="&quot;fan&quot;"/> 
  </image>
  <g transform="flipY(776.515) rotate(330 1212.44 532.643)">
    <g>
      <polygon points="1822.79,124.545 1836.17,132.189 1836.17,116.902 1822.79,124.545" fill="black" stroke="black" stroke-width="1" transform="rotate(180 1279.17 367.814)"/> 
    </g>
  </g>
  <line x1="981.363" y1="606" x2="981.363" y2="719.122" stroke="black"/> 
  <line x1="829.363" y1="605" x2="830.605" y2="719.364" stroke="black"/> 
  <g transform="flipY(189.5) flipY(776.515) rotate(330 1212.44 532.643)">
    <g>
      <polygon points="2210.01,-846.109 2223.39,-838.465 2223.39,-853.752 2210.01,-846.109" fill="black" stroke="black" stroke-width="1" transform="rotate(180 1279.17 367.814)"/> 
    </g>
  </g>
  <image x="955.814" y="625.348" width="70" height="65" xlink:href="DS_CO_valve.svg" transform="flipX(-1.13687e-013) flipY(-10) flipY(-10) rotate(270 0 -10)">
    <rt:dyn type="KKS" mode="constant" value="&quot;NULL&quot;"/> 
    <rt:dyn type="Drive" mode="constant" value="&quot;NONE&quot;"/> 
  </image>
  <text x="905.484" y="666.394" fill="black" font-size="15" text-anchor="middle">20KLA42<tspan x="905.484" dy="15">AH001</tspan>
  </text>
  <line x1="1634.77" y1="717.545" x2="1634.77" y2="923.545" stroke="black" stroke-width="3"/> 
  <image x="784.272" y="623.97" width="70" height="65" xlink:href="DS_Reg_valve.svg" transform="flipY(-10) rotate(360 0 -10) rotate(270 0 -10)">
    <rt:dyn type="KKS" mode="constant" value="&quot;NULL&quot;"/> 
    <rt:dyn type="Operate" mode="constant" value="true"/> 
  </image>
  <text x="761.909" y="657.304" fill="black" font-size="15" text-anchor="middle">20SBJ08<tspan x="761.909" dy="15">AA216</tspan>
  </text>
  <g>
    <rect x="198.378" y="579.486" width="65" height="65" rx="0" ry="0" fill="Col_Grey4" transform="rotate(360 532.506 746.174) rotate(0 532.1 745.087) rotate(314.645 525.5 325)"/> 
    <line x1="522.657" y1="693.795" x2="522.657" y2="780.159" stroke="black" stroke-dasharray="5,5"/> 
  </g>
  <text x="522.363" y="674" fill="black" font-size="15" text-anchor="middle">20KLA42<tspan x="522.363" dy="15">AT001</tspan>
  </text>
  <image x="363.363" y="683" width="70" height="65" xlink:href="DS_CO_valve.svg" transform="rotate(270 6.32897e-005 4.4512e-005) flipY(-10.0001) rotate(90 -0.00012207 -10.0001)">
    <rt:dyn type="KKS" mode="constant" value="&quot;NULL&quot;"/> 
    <rt:dyn type="Drive" mode="constant" value="&quot;NONE&quot;"/> 
  </image>
  <text x="388.363" y="760" fill="black" font-size="15" text-anchor="middle">20KLA42<tspan x="388.363" dy="15">AA001</tspan>
  </text>
  <text x="1418.8" y="742.454" fill="black" font-size="15" text-anchor="middle">20KLA42<tspan x="1418.8" dy="15">AA003</tspan>
  </text>
  <g transform="flipX(1829.73) flipX(1092.61) rotate(270 1446.39 199.242) flipY(189.5) flipY(776.515) rotate(330 1212.44 532.643)">
    <g>
      <polygon points="662.895,1976.53 676.275,1984.18 676.275,1968.89 662.895,1976.53" fill="black" stroke="black" stroke-width="1" transform="rotate(180 1279.17 367.814)"/> 
    </g>
  </g>
  <text x="168.94" y="741.788" fill="black" font-size="15" text-anchor="middle">АТМ</text>
  <line x1="1635.94" y1="923.151" x2="1092" y2="923.151" stroke="black" stroke-width="3"/> 
  <line x1="1495.28" y1="-173.221" x2="1495.28" y2="-25.2216" stroke="black" transform="rotate(90 689.25 117.497)"/> 
  <line x1="1382.53" y1="-175.221" x2="1382.53" y2="-23.2216" stroke="black" transform="rotate(90 689.25 117.497)"/> 
  <line x1="1120.69" y1="941.273" x2="213.213" y2="941.273" stroke="black" stroke-width="3"/> 
  <g transform="flipX(459) scale(1.27 1.27 1043.36 910.606) scale(1.0524 1.0524 1.4013e-045 1.4013e-045) flipX(963.818) rotate(270 964.576 96.9697) rotate(90 1175.94 787.121) scale(0.380039 0.380039 1162.3 219.697) rotate(270 1162.3 219.697) rotate(270 412.288 437.863)">
    <g transform="rotate(90 1094.11 578.015)">
      <rect x="-2457.46" y="1146.42" width="130.303" height="134.849" rx="0" ry="0" fill="Col_Grey4" stroke="black" stroke-width="3"/> 
      <line x1="-2393.85" y1="1161.54" x2="-2345.37" y2="1185.79" stroke="black" stroke-width="3"/> 
      <line x1="-2440.15" y1="1241.67" x2="-2391.65" y2="1265.92" stroke="black" stroke-width="3"/> 
      <line x1="-2346.89" y1="1185.79" x2="-2442.34" y2="1241.85" stroke="black" stroke-width="3"/> 
      <line x1="-2392.67" y1="1265.32" x2="-2392.67" y2="1280.32" stroke="black" stroke-width="3"/> 
      <line x1="-2392.52" y1="1148.47" x2="-2392.52" y2="1163.47" stroke="black" stroke-width="3"/> 
    </g>
  </g>
  <text x="1017.78" y="865.667" font-size="15">20SBJ07<tspan x="1017.78" dy="15">AA015</tspan>
  </text>
  <text x="1141.06" y="951.424" font-size="15">20KLA42<tspan x="1141.06" dy="15">AN002</tspan>
  </text>
  <image x="1068.96" y="901.273" width="70" height="70" xlink:href="DS_motor.svg" transform="flipY(-0.00012207) rotate(90 0 0) flipX(-0.00012207) rotate(270 -0.00012207 0)">
    <rt:dyn type="KKS" mode="constant" value="&quot;NULL&quot;"/> 
    <rt:dyn type="DATA_NARY" mode="constant" value="&quot;TPTS&quot;"/> 
    <rt:dyn type="Operate" mode="constant" value="true"/> 
    <rt:dyn type="DeviceType" mode="constant" value="&quot;fan&quot;"/> 
  </image>
  <g transform="flipY(776.515) rotate(330 1212.44 532.643)">
    <g>
      <polygon points="1720.08,302.13 1733.46,309.774 1733.46,294.487 1720.08,302.13" fill="black" stroke="black" stroke-width="1" transform="rotate(180 1279.17 367.814)"/> 
    </g>
  </g>
  <line x1="981.514" y1="811.151" x2="981.514" y2="924.273" stroke="black"/> 
  <line x1="829.514" y1="810.151" x2="830.756" y2="924.516" stroke="black"/> 
  <g transform="flipY(189.5) flipY(776.515) rotate(330 1212.44 532.643)">
    <g>
      <polygon points="2312.45,-1023.85 2325.83,-1016.21 2325.83,-1031.49 2312.45,-1023.85" fill="black" stroke="black" stroke-width="1" transform="rotate(180 1279.17 367.814)"/> 
    </g>
  </g>
  <image x="955.966" y="830.5" width="70" height="65" xlink:href="DS_CO_valve.svg" transform="flipX(-1.13687e-013) flipY(-10) flipY(-10) rotate(270 0 -10)">
    <rt:dyn type="KKS" mode="constant" value="&quot;NULL&quot;"/> 
    <rt:dyn type="Drive" mode="constant" value="&quot;NONE&quot;"/> 
  </image>
  <text x="905.635" y="871.545" fill="black" font-size="15" text-anchor="middle">20KLA42<tspan x="905.635" dy="15">AH002</tspan>
  </text>
  <image x="784.423" y="829.121" width="70" height="65" xlink:href="DS_Reg_valve.svg" transform="flipY(-10) rotate(360 0 -10) rotate(270 0 -10)">
    <rt:dyn type="KKS" mode="constant" value="&quot;NULL&quot;"/> 
    <rt:dyn type="Operate" mode="constant" value="true"/> 
  </image>
  <text x="762.06" y="862.456" fill="black" font-size="15" text-anchor="middle">20SBJ08<tspan x="762.06" dy="15">AA215</tspan>
  </text>
  <g>
    <rect x="52.5221" y="723.754" width="65" height="65" rx="0" ry="0" fill="Col_Grey4" transform="rotate(360 532.506 746.174) rotate(0 532.1 745.087) rotate(314.645 525.5 325)"/> 
    <line x1="522.808" y1="898.946" x2="522.808" y2="985.31" stroke="black" stroke-dasharray="5,5"/> 
  </g>
  <text x="522.514" y="879.151" fill="black" font-size="15" text-anchor="middle">20KLA42<tspan x="522.514" dy="15">AT002</tspan>
  </text>
  <text x="388.515" y="965.151" fill="black" font-size="15" text-anchor="middle">20KLA42<tspan x="388.515" dy="15">AA002</tspan>
  </text>
  <text x="1418.81" y="947.605" fill="black" font-size="15" text-anchor="middle">20KLA42<tspan x="1418.81" dy="15">AA004</tspan>
  </text>
  <g transform="flipX(1829.73) flipX(1092.61) rotate(270 1446.39 199.242) flipY(189.5) flipY(776.515) rotate(330 1212.44 532.643)">
    <g>
      <polygon points="840.615,2078.96 853.995,2086.61 853.995,2071.32 840.615,2078.96" fill="black" stroke="black" stroke-width="1" transform="rotate(180 1279.17 367.814)"/> 
    </g>
  </g>
  <text x="169.092" y="946.94" fill="black" font-size="15" text-anchor="middle">АТМ</text>
  <line x1="1717.07" y1="819.076" x2="1637.33" y2="819.076" stroke="black" stroke-width="3"/> 
  <image x="51.4394" y="545.001" width="75" height="25" xlink:href="obj_link.svg">
    <rt:event type="OnClick">LoadNew(&quot;&quot;)</rt:event>
    <rt:dyn type="TextStr" mode="constant" value="&quot;KLA00&quot;"/> 
  </image>
  <image x="1710.53" y="804.637" width="75" height="25" xlink:href="obj_link.svg">
    <rt:event type="OnClick">LoadNew(&quot;&quot;)</rt:event>
    <rt:dyn type="TextStr" mode="constant" value="&quot;KLA00&quot;"/> 
    <rt:dyn type="ModName" mode="constant" value="&quot;kla00&quot;"/> 
  </image>
  <image x="363.363" y="887.879" width="70" height="65" xlink:href="DS_CO_valve.svg" transform="rotate(270 6.32897e-005 4.4512e-005) flipY(-10.0001) rotate(90 -0.00012207 -10.0001)">
    <rt:dyn type="KKS" mode="constant" value="&quot;NULL&quot;"/> 
    <rt:dyn type="Drive" mode="constant" value="&quot;NONE&quot;"/> 
  </image>
  <image x="1393.84" y="665.667" width="70" height="65" xlink:href="DS_CO_valve.svg" transform="rotate(270 6.32897e-005 4.4512e-005) flipY(-10.0001) rotate(90 -0.00012207 -10.0001)">
    <rt:dyn type="KKS" mode="constant" value="&quot;NULL&quot;"/> 
    <rt:dyn type="Drive" mode="constant" value="&quot;NONE&quot;"/> 
  </image>
  <image x="1393.84" y="870.697" width="70" height="65" xlink:href="DS_CO_valve.svg" transform="rotate(270 6.32897e-005 4.4512e-005) flipY(-10.0001) rotate(90 -0.00012207 -10.0001)">
    <rt:dyn type="KKS" mode="constant" value="&quot;NULL&quot;"/> 
    <rt:dyn type="Drive" mode="constant" value="&quot;NONE&quot;"/> 
  </image>
  <image x="866.136" y="593.939" width="75" height="25" xlink:href="obj_link.svg">
    <rt:event type="OnClick"/> 
    <rt:dyn type="TextStr" mode="constant" value="&quot;SBJ&quot;"/> 
  </image>
  <image x="866.136" y="797.97" width="75" height="25" xlink:href="obj_link.svg">
    <rt:event type="OnClick"/> 
    <rt:dyn type="TextStr" mode="constant" value="&quot;SBJ&quot;"/> 
  </image>
  <line x1="265" y1="345.06" x2="265" y2="558.848" stroke="black"/> 
  <line x1="244" y1="453.06" x2="244" y2="558.848" stroke="black"/> 
  <circle cx="45.5573" cy="486.499" r="3.14044" fill="black" stroke="black" stroke-width="1" transform="flipY() translate(0 -828) translate(219.956 -216.972)"/> 
  <circle cx="23.5573" cy="486.499" r="3.14044" fill="black" stroke="black" stroke-width="1" transform="flipY() translate(0 -828) translate(219.956 -216.972)"/> 
  <line x1="917" y1="541.596" x2="917" y2="685.596" stroke="black" transform="rotate(90 689.25 117.497)"/> 
  <image x="1277.73" y="330.303" width="70" height="65" xlink:href="DS_CO_valve.svg" transform="rotate(270 6.32897e-005 4.4512e-005) flipY(-10.0001) rotate(90 -0.00012207 -10.0001)">
    <rt:dyn type="KKS" mode="constant" value="&quot;NULL&quot;"/> 
    <rt:dyn type="Drive" mode="constant" value="&quot;NONE&quot;"/> 
  </image>
  <image x="1229.73" y="504.546" width="70" height="65" xlink:href="DS_CO_valve.svg" transform="rotate(270 6.32897e-005 4.4512e-005) flipY(-10.0001) rotate(90 -0.00012207 -10.0001)">
    <rt:dyn type="KKS" mode="constant" value="&quot;NULL&quot;"/> 
    <rt:dyn type="Drive" mode="constant" value="&quot;NONE&quot;"/> 
  </image>
  <image x="1383.06" y="124.333" width="70" height="65" xlink:href="DS_CO_valve.svg" transform="rotate(270 6.32897e-005 4.4512e-005) flipY(-10.0001) rotate(90 -0.00012207 -10.0001)">
    <rt:dyn type="KKS" mode="constant" value="&quot;NULL&quot;"/> 
    <rt:dyn type="Drive" mode="constant" value="&quot;NONE&quot;"/> 
  </image>
  <image x="1383.06" y="330.909" width="70" height="65" xlink:href="DS_CO_valve.svg" transform="rotate(270 6.32897e-005 4.4512e-005) flipY(-10.0001) rotate(90 -0.00012207 -10.0001)">
    <rt:dyn type="KKS" mode="constant" value="&quot;NULL&quot;"/> 
    <rt:dyn type="Drive" mode="constant" value="&quot;NONE&quot;"/> 
  </image>
  <image x="1664.64" y="106.151" width="70" height="65" xlink:href="DS_CO_valve.svg" transform="rotate(270 6.32897e-005 4.4512e-005) flipY(-10.0001) rotate(90 -0.00012207 -10.0001)">
    <rt:dyn type="KKS" mode="constant" value="&quot;NULL&quot;"/> 
    <rt:dyn type="Drive" mode="constant" value="&quot;NONE&quot;"/> 
  </image>
  <image x="1664.64" y="313.636" width="70" height="65" xlink:href="DS_CO_valve.svg" transform="rotate(270 6.32897e-005 4.4512e-005) flipY(-10.0001) rotate(90 -0.00012207 -10.0001)">
    <rt:dyn type="KKS" mode="constant" value="&quot;NULL&quot;"/> 
    <rt:dyn type="Drive" mode="constant" value="&quot;NONE&quot;"/> 
  </image>
  <image x="322" y="124.333" width="70" height="65" xlink:href="DS_CO_valve.svg" transform="rotate(270 6.32897e-005 4.4512e-005) flipY(-10.0001) rotate(90 -0.00012207 -10.0001)">
    <rt:dyn type="KKS" mode="constant" value="&quot;NULL&quot;"/> 
    <rt:dyn type="Drive" mode="constant" value="&quot;NONE&quot;"/> 
  </image>
  <image x="322" y="330.909" width="70" height="65" xlink:href="DS_CO_valve.svg" transform="rotate(270 6.32897e-005 4.4512e-005) flipY(-10.0001) rotate(90 -0.00012207 -10.0001)">
    <rt:dyn type="KKS" mode="constant" value="&quot;NULL&quot;"/> 
    <rt:dyn type="Drive" mode="constant" value="&quot;NONE&quot;"/> 
  </image>
  <rect x="1713.8" y="37.6681" width="150" height="21.2122" rx="0" ry="0" fill="Col_BGItemSel"/> 
  <image x="1713.62" y="61.3939" width="175" height="25" xlink:href="DS_ana_ASRK.svg">
    <title>&quot;20KLA22CR601B01&quot;</title>
    <rt:dyn type="IsExp" mode="constant" value="true"/> 
    <rt:dyn type="ShowFrame" mode="constant" value="true"/> 
    <rt:dyn type="Color_Readings" mode="constant" value="true"/> 
    <rt:dyn type="FKKS" mode="constant" value="&quot;20KLA22CR601B01&quot;"/> 
    <rt:dyn type="ValueToTheRight" mode="constant" value="false"/> 
    <rt:dyn type="SetBounds" mode="constant" value="true"/> 
    <rt:dyn type="Show_Map" mode="constant" value="false"/> 
    <rt:dyn type="X" mode="constant" value="&quot;A&quot;"/> 
  </image>
  <text x="1717.86" y="55.0921" fill="black" font-size="18" text-anchor="start">20KLA22CR601</text>
  <line x1="1024.85" y1="562.747" x2="1024.85" y2="706.747" stroke="black" transform="rotate(90 689.25 117.497)"/> 
  <rect x="61.5502" y="415.243" width="150" height="21.2122" rx="0" ry="0" fill="Col_BGItemSel"/> 
  <image x="61.3701" y="438.969" width="175" height="25" xlink:href="DS_ana_ASRK.svg">
    <title>&quot;20KLA22CR401B01&quot;</title>
    <rt:dyn type="IsExp" mode="constant" value="true"/> 
    <rt:dyn type="ShowFrame" mode="constant" value="true"/> 
    <rt:dyn type="Color_Readings" mode="constant" value="true"/> 
    <rt:dyn type="FKKS" mode="constant" value="&quot;20KLA22CR401B01&quot;"/> 
    <rt:dyn type="ValueToTheRight" mode="constant" value="false"/> 
    <rt:dyn type="SetBounds" mode="constant" value="true"/> 
    <rt:dyn type="Show_Map" mode="constant" value="false"/> 
    <rt:dyn type="X" mode="constant" value="&quot;A&quot;"/> 
  </image>
  <text x="65.6101" y="432.667" fill="black" font-size="18" text-anchor="start">20KLA22CR401</text>
  <rect x="61.7017" y="307.395" width="150" height="21.2122" rx="0" ry="0" fill="Col_BGItemSel"/> 
  <image x="61.5216" y="331.121" width="175" height="25" xlink:href="DS_ana_ASRK.svg">
    <title>&quot;20KLA22CR201B01&quot;</title>
    <rt:dyn type="IsExp" mode="constant" value="true"/> 
    <rt:dyn type="ShowFrame" mode="constant" value="true"/> 
    <rt:dyn type="Color_Readings" mode="constant" value="true"/> 
    <rt:dyn type="FKKS" mode="constant" value="&quot;20KLA22CR201B01&quot;"/> 
    <rt:dyn type="ValueToTheRight" mode="constant" value="false"/> 
    <rt:dyn type="SetBounds" mode="constant" value="true"/> 
    <rt:dyn type="Show_Map" mode="constant" value="false"/> 
    <rt:dyn type="X" mode="constant" value="&quot;A&quot;"/> 
  </image>
  <text x="65.7616" y="324.819" fill="black" font-size="18" text-anchor="start">20KLA22CR201</text>
  <image x="1784.27" y="924.242" width="75" height="25" xlink:href="obj_link.svg" transform="rotate(0 37.3619 12.5)">
    <rt:dyn type="TextStr" mode="constant" value="&quot;PK&quot;"/> 
    <rt:event type="OnClick">LoadNew(&quot;&quot;)</rt:event>
    <rt:dyn type="ModName" mode="constant" value="&quot;7_all_asrk&quot;"/> 
  </image>
  <text x="75" y="33.5" fill="black" font-size="15" font-weight="700" text-anchor="middle">
    <title>Схема КИП насосов охлаждения бассейна выдержки</title>
ASRK_KLA22_42</text>
  <g>
    <circle cx="30.5" cy="338.8" r="25" fill="Col_Grey2" stroke="black" stroke-width="1"/> 
    <polygon points="30.5,313.8 10.5,338.8 30.5,363.8 50.5,338.8" fill="Col_Grey3" stroke="black" stroke-width="1"/> 
    <polygon points="10.5,338.8 50,338.55 29.75,363.05" fill="Col_Grey4"/> 
    <polygon points="11,840.95 50.5,840.7 30.25,865.2" fill="Col_Grey4" transform="flipY(589.75)"/> 
    <polygon points="30.5,313.8 10.5,338.8 30.5,363.8 50.5,338.8" fill="none" stroke="black" stroke-width="1"/> 
    <line x1="10.5" y1="338.8" x2="50.5" y2="338.8" stroke="black" stroke-dasharray="4,5"/> 
  </g>
  <g>
    <circle cx="30.5" cy="450" r="25" fill="Col_Grey2" stroke="black" stroke-width="1"/> 
    <polygon points="30.5,425 10.5,450 30.5,475 50.5,450" fill="Col_Grey3" stroke="black" stroke-width="1"/> 
    <polygon points="10.5,450 50,449.75 29.75,474.25" fill="Col_Grey2"/> 
    <polygon points="30.5,425 10.5,450 30.5,475 50.5,450" fill="none" stroke="black" stroke-width="1"/> 
    <line x1="10.5" y1="450" x2="50.5" y2="450" stroke="black" stroke-dasharray="4,5"/> 
  </g>
  <g>
    <circle cx="1675" cy="75" r="25" fill="Col_Grey2" stroke="black" stroke-width="1"/> 
    <line x1="1655.75" y1="75.75" x2="1695.75" y2="75.75" stroke="black" stroke-dasharray="4,5"/> 
    <rect x="1655" y="67.25" width="40" height="15.75" rx="0" ry="0" fill="Col_Grey4" stroke="black" stroke-width="1"/> 
  </g>
</svg>
