<?xml  version="1.0" encoding="windows-1251"?>
<svg color="Col_BGSand" xmlns="http://www.w3.org/2000/svg" xmlns:rt="http://www.rts.co.at/2001/XMLSchema/RtSvgPL" xmlns:xlink="http://www.w3.org/1999/xlink" xmlns:xsi="http://www.w3.org/2001/XMLSchema-instance" xsi:schemaLocation="http://www.w3.org/2000/svg C:\RTS\RtSvg\XML\SVG.xsd" viewBox="0 0 1914 1000" width="1914" height="1000" id="asrk_uja_14" fill="Col_BGSand">
  <title>РК в реакторном здании UJA отм. + 14.5</title>
  <rt:model modelversion="7.2.0.24" comment="UMod 7_all_asrk&#10;LMod 7_asrk_uja_06&#10;RMod 7_asrk_uja_26" revision="3"/> 
  <ellipse cx="959.381" cy="502.926" rx="435.075" ry="427.233" fill="none" stroke="black" stroke-width="20"/> 
  <ellipse cx="952.596" cy="494" rx="82.9026" ry="83.55" fill="none" stroke="black" stroke-width="50"/> 
  <line x1="714.303" y1="792.818" x2="621.303" y2="700.818" stroke="black" stroke-width="18"/> 
  <line x1="832.303" y1="868.818" x2="707.303" y2="787.818" stroke="black" stroke-width="18"/> 
  <line x1="1016" y1="866" x2="824" y2="866" stroke="black" stroke-width="18"/> 
  <line x1="1009" y1="740" x2="1009" y2="875" stroke="black" stroke-width="18"/> 
  <line x1="789" y1="226" x2="790" y2="301" stroke="black" stroke-width="18"/> 
  <line x1="1272" y1="275" x2="1140" y2="182" stroke="black" stroke-width="18"/> 
  <line x1="1314" y1="380" x2="1215" y2="381" stroke="black" stroke-width="10"/> 
  <line x1="1308.3" y1="433.818" x2="1220.52" y2="434.394" stroke="black" stroke-width="18"/> 
  <line x1="1345.5" y1="449.155" x2="1301.71" y2="449.063" stroke="black" stroke-width="18"/> 
  <line x1="700" y1="620" x2="615" y2="620" stroke="black" stroke-width="10"/> 
  <line x1="725" y1="566.578" x2="593" y2="567" stroke="black" stroke-width="18"/> 
  <line x1="1242.59" y1="286.832" x2="1263.59" y2="253.832" stroke="black" stroke-width="18"/> 
  <line x1="901.303" y1="941.818" x2="1000" y2="941" stroke="black" stroke-width="18"/> 
  <line x1="1306.3" y1="402.818" x2="1306.3" y2="455.818" stroke="black" stroke-width="10"/> 
  <line x1="827" y1="378" x2="768.611" y2="328.107" stroke="black" stroke-width="40"/> 
  <line x1="901.303" y1="60.8173" x2="1001.3" y2="59.8178" stroke="black" stroke-width="18"/> 
  <line x1="618" y1="575" x2="618" y2="601" stroke="black" stroke-width="10"/> 
  <line x1="884.424" y1="119" x2="884.333" y2="428" stroke="black" stroke-width="18"/> 
  <line x1="1016.42" y1="119" x2="1016.33" y2="428" stroke="black" stroke-width="18"/> 
  <line x1="1018" y1="119" x2="883.333" y2="119" stroke="black" stroke-width="18"/> 
  <line x1="881.729" y1="125.1" x2="889.833" y2="115.976" stroke="black" stroke-width="18"/> 
  <line x1="767.73" y1="125.101" x2="775.834" y2="115.977" stroke="black" stroke-width="18" transform="flipX(893.448)"/> 
  <polygon points="900,587.333 1000,586 1000,769 900,769" fill="black" stroke="black"/> 
  <polygon points="887.5,122.84 950,125 950,200 884,200" fill="black" stroke="black"/> 
  <circle cx="909.745" cy="157.84" r="27.8715"/> 
  <line x1="875" y1="235" x2="798" y2="235" stroke="black" stroke-width="18"/> 
  <line x1="789.983" y1="294.495" x2="670" y2="422" stroke="black" stroke-width="18"/> 
  <line x1="707" y1="625" x2="707" y2="567" stroke="black" stroke-width="18"/> 
  <line x1="716" y1="558" x2="727" y2="686" stroke="black" stroke-width="18"/> 
  <line x1="614" y1="590" x2="613.333" y2="620.667" stroke="black"/> 
  <line x1="637" y1="598.75" x2="681.5" y2="598.25" stroke="black"/> 
  <line x1="636.5" y1="576" x2="636.5" y2="626" stroke="black"/> 
  <line x1="641.5" y1="576" x2="641.5" y2="626" stroke="black"/> 
  <line x1="646.5" y1="576" x2="646.5" y2="626" stroke="black"/> 
  <line x1="651.5" y1="576" x2="651.5" y2="626" stroke="black"/> 
  <line x1="656.5" y1="576" x2="656.5" y2="626" stroke="black"/> 
  <line x1="661.5" y1="576" x2="661.5" y2="626" stroke="black"/> 
  <line x1="666.5" y1="576" x2="666.5" y2="626" stroke="black"/> 
  <line x1="671.5" y1="576" x2="671.5" y2="626" stroke="black"/> 
  <line x1="676.5" y1="576" x2="676.5" y2="626" stroke="black"/> 
  <line x1="681.5" y1="576" x2="681.5" y2="626" stroke="black"/> 
  <line x1="703.278" y1="288.844" x2="697.519" y2="240.089" stroke="black" stroke-width="18" transform="rotate(52.3693 706 234)"/> 
  <line x1="1012" y1="775" x2="1089" y2="775" stroke="black" stroke-width="18"/> 
  <line x1="1267" y1="571" x2="1204" y2="637" stroke="black" stroke-width="18"/> 
  <line x1="1332" y1="571" x2="1261" y2="573" stroke="black" stroke-width="18"/> 
  <line x1="1217" y1="308" x2="1225" y2="443" stroke="black" stroke-width="18"/> 
  <line x1="1227" y1="380" x2="1228" y2="437" stroke="black" stroke-width="18"/> 
  <line x1="1246" y1="400.75" x2="1290.5" y2="400.25" stroke="black"/> 
  <line x1="1245.5" y1="378" x2="1245.5" y2="428" stroke="black"/> 
  <line x1="1250.5" y1="378" x2="1250.5" y2="428" stroke="black"/> 
  <line x1="1255.5" y1="378" x2="1255.5" y2="428" stroke="black"/> 
  <line x1="1260.5" y1="378" x2="1260.5" y2="428" stroke="black"/> 
  <line x1="1265.5" y1="378" x2="1265.5" y2="428" stroke="black"/> 
  <line x1="1270.5" y1="378" x2="1270.5" y2="428" stroke="black"/> 
  <line x1="1275.5" y1="378" x2="1275.5" y2="428" stroke="black"/> 
  <line x1="1280.5" y1="378" x2="1280.5" y2="428" stroke="black"/> 
  <line x1="1285.5" y1="378" x2="1285.5" y2="428" stroke="black"/> 
  <line x1="1290.5" y1="378" x2="1290.5" y2="428" stroke="black"/> 
  <line x1="1348" y1="403" x2="1348" y2="457.818" stroke="black" stroke-width="10"/> 
  <line x1="1233" y1="250" x2="1235" y2="284" stroke="black" stroke-width="18"/> 
  <line x1="1150" y1="184" x2="1015" y2="184" stroke="black" stroke-width="18"/> 
  <rect x="624.134" y="301.133" width="12.1572" height="24.924" rx="0" ry="0" transform="rotate(324.877 889.529 177.363) rotate(35.4838 926.333 666.5)"/> 
  <line x1="899" y1="192" x2="916" y2="192" stroke="black"/> 
  <line x1="1302.17" y1="374" x2="1301.5" y2="404.667" stroke="black"/> 
  <line x1="1311.17" y1="375" x2="1310.5" y2="405.667" stroke="black"/> 
  <line x1="1324" y1="408" x2="1305" y2="408" stroke="black" stroke-width="10"/> 
  <line x1="1321" y1="412" x2="1345" y2="412" stroke="black"/> 
  <line x1="1324" y1="404" x2="1348" y2="404" stroke="black"/> 
  <line x1="636" y1="284" x2="607.498" y2="317.421" stroke="black"/> 
  <line x1="582.498" y1="367.421" x2="607.498" y2="318.421" stroke="black"/> 
  <line x1="577.498" y1="415.421" x2="581.498" y2="367.421" stroke="black"/> 
  <line x1="584" y1="575" x2="584" y2="412" stroke="black" stroke-width="18"/> 
  <line x1="677.114" y1="418.997" x2="575.214" y2="421.418" stroke="black" stroke-width="18"/> 
  <line x1="700" y1="525" x2="641.611" y2="475.107" stroke="black" stroke-width="40"/> 
  <line x1="656" y1="725" x2="730.723" y2="680" stroke="black" stroke-width="18"/> 
  <line x1="822.066" y1="563.685" x2="767.145" y2="508.789" stroke="black" stroke-width="40" transform="rotate(309.1 791.187 564.151)"/> 
  <line x1="674.056" y1="709.763" x2="613.192" y2="649.484" stroke="black" stroke-width="40" transform="rotate(309.1 791.187 564.151)"/> 
  <line x1="700.436" y1="318.736" x2="720.728" y2="314.803" stroke="black" stroke-width="18" transform="rotate(52.3693 706 234)"/> 
  <line x1="713.892" y1="319.008" x2="735.63" y2="292.199" stroke="black" stroke-width="18" transform="rotate(52.3693 706 234)"/> 
  <line x1="729.591" y1="295.119" x2="812.159" y2="283.014" stroke="black" stroke-width="18" transform="rotate(52.3693 706 234)"/> 
  <line x1="641" y1="275" x2="671" y2="242" stroke="black"/> 
  <line x1="722.484" y1="212.616" x2="697.021" y2="247.281" stroke="black" stroke-width="18" transform="rotate(52.3693 706 234)"/> 
  <g>
    <line x1="354.547" y1="649.494" x2="340.529" y2="653.787" stroke="black" stroke-width="18" transform="rotate(84.9695 647.467 683.348)"/> 
    <line x1="313.793" y1="644.903" x2="303.242" y2="627.912" stroke="black" stroke-width="18" transform="rotate(84.9695 647.467 683.348)"/> 
    <circle cx="645.378" cy="358.556" r="19" stroke="black"/> 
    <line x1="318.846" y1="689.859" x2="321.411" y2="674.08" stroke="black" stroke-width="18" transform="rotate(84.9695 647.467 683.348)"/> 
  </g>
  <g transform="rotate(71.23 1252.5 321.5)">
    <line x1="360.112" y1="25.247" x2="346.094" y2="29.5399" stroke="black" stroke-width="18" transform="rotate(84.9695 647.467 683.348)"/> 
    <line x1="319.358" y1="20.656" x2="308.807" y2="3.66492" stroke="black" stroke-width="18" transform="rotate(84.9695 647.467 683.348)"/> 
    <circle cx="1267.71" cy="309.362" r="19" stroke="black"/> 
    <line x1="324.411" y1="65.612" x2="326.976" y2="49.833" stroke="black" stroke-width="18" transform="rotate(84.9695 647.467 683.348)"/> 
  </g>
  <circle cx="949.524" cy="709.333" r="32.6666"/> 
  <circle cx="948.485" cy="625" r="33.8489"/> 
  <line x1="1253.93" y1="266.763" x2="1213.91" y2="314.763" stroke="black" stroke-width="18"/> 
  <line x1="1323" y1="454" x2="1325" y2="575" stroke="black" stroke-width="18"/> 
  <g transform="rotate(288.018 1290 646) rotate(71.4979 1252.5 321.5)">
    <line x1="459.795" y1="-251.775" x2="445.777" y2="-247.482" stroke="black" stroke-width="18" transform="rotate(84.9695 647.467 683.348)"/> 
    <line x1="419.041" y1="-256.366" x2="406.482" y2="-267.389" stroke="black" stroke-width="18" transform="rotate(84.9695 647.467 683.348)"/> 
    <circle cx="1552.41" cy="384.37" r="19" stroke="black"/> 
    <line x1="424.094" y1="-211.41" x2="426.659" y2="-227.189" stroke="black" stroke-width="18" transform="rotate(84.9695 647.467 683.348)"/> 
  </g>
  <line x1="1287" y1="704" x2="1175" y2="821" stroke="black" stroke-width="18"/> 
  <line x1="1180" y1="811" x2="1083" y2="775" stroke="black" stroke-width="18"/> 
  <line x1="1275" y1="706.24" x2="1206.07" y2="645.765" stroke="black" stroke-width="18"/> 
  <line x1="1209" y1="650" x2="1205.67" y2="630.409" stroke="black" stroke-width="18"/> 
  <line x1="1282" y1="716" x2="1328" y2="647" stroke="black"/> 
  <line x1="1333" y1="625" x2="1325" y2="653" stroke="black"/> 
  <line x1="1334" y1="627" x2="1334" y2="573" stroke="black"/> 
  <line x1="943.828" y1="916.638" x2="951.599" y2="823.804" stroke="black" stroke-width="40" transform="rotate(309.1 791.187 564.151)"/> 
  <line x1="1344.07" y1="215.446" x2="1335.31" y2="140.011" stroke="black" stroke-width="18" transform="rotate(52.3693 706 234)"/> 
  <line x1="652.993" y1="662.219" x2="638.975" y2="666.512" stroke="black" stroke-width="18" transform="rotate(84.9695 647.467 683.348)"/> 
  <line x1="612.239" y1="657.628" x2="601.688" y2="640.637" stroke="black" stroke-width="18" transform="rotate(84.9695 647.467 683.348)"/> 
  <circle cx="658.872" cy="656.968" r="19" stroke="black"/> 
  <line x1="617.292" y1="702.584" x2="619.857" y2="686.805" stroke="black" stroke-width="18" transform="rotate(84.9695 647.467 683.348)"/> 
  <circle cx="1185.37" cy="731.47" r="22.6284" stroke="black" stroke-width="5"/> 
  <line x1="1125.55" y1="926.176" x2="1133.32" y2="833.342" stroke="black" stroke-width="40" transform="rotate(309.1 791.187 564.151)"/> 
  <line x1="1141.48" y1="806.262" x2="1082.27" y2="735.646" stroke="black" stroke-width="40" transform="rotate(309.1 791.187 564.151)"/> 
  <line x1="1270.45" y1="679.549" x2="1207.24" y2="613.233" stroke="black" stroke-width="40" transform="rotate(309.1 791.187 564.151)"/> 
  <line x1="725" y1="227" x2="788" y2="227" stroke="black"/> 
  <line x1="620" y1="709" x2="583" y2="658" stroke="black"/> 
  <line x1="589" y1="644" x2="583" y2="660" stroke="black"/> 
  <line x1="1323" y1="403" x2="1322" y2="356" stroke="black"/> 
  <line x1="1322" y1="357" x2="1297" y2="294" stroke="black"/> 
  <line x1="1276" y1="269" x2="1298" y2="297" stroke="black"/> 
  <line x1="907.051" y1="725" x2="865" y2="725" stroke="black" stroke-width="10"/> 
  <line x1="907.051" y1="625" x2="865" y2="625" stroke="black" stroke-width="10"/> 
  <line x1="870" y1="725" x2="870" y2="620" stroke="black" stroke-width="10"/> 
  <line x1="878" y1="768" x2="878" y2="725" stroke="black" stroke-width="7"/> 
  <line x1="874" y1="767" x2="909" y2="766" stroke="black" stroke-width="7"/> 
  <circle cx="1241.14" cy="660.039" r="8.57141" fill="black" stroke="black" stroke-width="0"/> 
  <line x1="1453.97" y1="648" x2="1243.36" y2="659.091" stroke="black"/> 
  <circle cx="1235.08" cy="331.252" r="8.57141" fill="black" stroke="black" stroke-width="0"/> 
  <line x1="1453.97" y1="333" x2="1235.79" y2="330.303" stroke="black"/> 
  <line x1="688.818" y1="325.758" x2="352.454" y2="364.394" stroke="black"/> 
  <circle cx="688.111" cy="326.706" r="8.57141" fill="black" stroke="black" stroke-width="0"/> 
  <line x1="690.333" y1="686.364" x2="353.972" y2="672.044" stroke="black"/> 
  <circle cx="689.627" cy="684.282" r="8.57141" fill="black" stroke="black" stroke-width="0"/> 
  <text x="922.151" y="493.939" fill="black" font-size="15">20UJA21<tspan x="922.151" dy="15">R701</tspan>
  </text>
  <text x="918.182" y="305.303" fill="black" font-size="15">20UJA16<tspan x="918.182" dy="15">R704</tspan>
  </text>
  <text x="919.697" y="215.455" fill="black" font-size="15">20UJA17<tspan x="919.697" dy="15">R705</tspan>
  </text>
  <line x1="900" y1="235" x2="912.667" y2="178.667" stroke="black"/> 
  <line x1="900" y1="234" x2="1000" y2="234" stroke="black"/> 
  <text x="713.636" y="481.061" fill="black" font-size="15">20UJA24R001</text>
  <text x="1092.42" y="531.061" fill="black" font-size="15">20UJA24R002</text>
  <text x="925.182" y="625.758" fill="black" font-size="15">R702</text>
  <text x="932.757" y="712.121" fill="black" font-size="15">R703</text>
  <text x="746" y="643" fill="black" font-size="15" transform="rotate(0 811.364 650)">20UJA20R706</text>
  <line x1="744" y1="650" x2="850" y2="650" stroke="black"/> 
  <line x1="884.848" y1="670.454" x2="850" y2="650" stroke="black"/> 
  <text x="697.909" y="269.697" fill="black" font-size="15">20UJA24<tspan x="697.909" dy="15">R008</tspan>
  </text>
  <text x="1045.45" y="221.97" fill="black" font-size="15">20UJA24R002</text>
  <text x="1054.55" y="150.758" fill="black" font-size="15">20UJA24R011</text>
  <text x="1234.27" y="371.697" fill="black" font-size="15">20UJA24R006</text>
  <text x="1432.33" y="445.061" fill="black" font-size="15">20UJA16R601</text>
  <line x1="1500" y1="450" x2="1425" y2="450" stroke="black"/> 
  <line x1="1334.85" y1="426.515" x2="1425" y2="450" stroke="black"/> 
  <text x="1253.12" y="607.97" fill="black" font-size="15">20UJA24R007</text>
  <text x="931.818" y="899.242" fill="black" font-size="15">20UJA24R009</text>
  <text x="551.939" y="638.394" fill="black" font-size="15">20UJA24R004</text>
  <text x="753" y="182" fill="black" font-size="15">20UJA24R010</text>
  <text x="987.326" y="35.6362" fill="black" font-size="30" font-weight="700" text-anchor="middle">Радиационный контроль в реакторном здании UJA отм. + 14.5</text>
  <text x="1291.85" y="642.425" fill="black" font-size="15">ГЦНА-4</text>
  <text x="1260.03" y="296.455" fill="black" font-size="15">ГЦНА-3</text>
  <text x="613.06" y="318.182" fill="black" font-size="15">ГЦНА-2</text>
  <text x="578.212" y="677.273" fill="black" font-size="15">ГЦНА-1</text>
  <image x="1747.91" y="912.121" width="75" height="25" xlink:href="obj_link.svg" transform="rotate(0 37.3619 12.5)">
    <rt:dyn type="TextStr" mode="constant" value="&quot;PK&quot;"/> 
    <rt:event type="OnClick">LoadNew(&quot;&quot;)</rt:event>
    <rt:dyn type="ModName" mode="constant" value="&quot;7_all_asrk&quot;"/> 
  </image>
  <text x="75" y="30.5" fill="black" font-size="15" font-weight="700" text-anchor="middle">
    <title>Схема КИП насосов охлаждения бассейна выдержки</title>
ASRK_UJA_14</text>
  <rect x="193.138" y="328" width="139.394" height="21.2122" rx="0" ry="0" fill="Col_BGItemSel"/> 
  <image x="192.958" y="351.759" width="175" height="25" xlink:href="DS_ana_ASRK.svg">
    <title>&quot;20UJA24CR002B01&quot;</title>
    <rt:dyn type="IsExp" mode="constant" value="true"/> 
    <rt:dyn type="ShowFrame" mode="constant" value="true"/> 
    <rt:dyn type="Color_Readings" mode="constant" value="true"/> 
    <rt:dyn type="FKKS" mode="constant" value="&quot;20UJA24CR002B01&quot;"/> 
    <rt:dyn type="ValueToTheRight" mode="constant" value="false"/> 
    <rt:dyn type="SetBounds" mode="constant" value="true"/> 
    <rt:dyn type="Show_Map" mode="constant" value="false"/> 
    <rt:dyn type="X" mode="constant" value="&quot;G&quot;"/> 
  </image>
  <text x="201.958" y="344.759" fill="black" font-size="18" text-anchor="start">20UJA24CR002</text>
  <rect x="1495.14" y="302" width="139.394" height="21.2122" rx="0" ry="0" fill="Col_BGItemSel"/> 
  <image x="1494.96" y="325.759" width="175" height="25" xlink:href="DS_ana_ASRK.svg">
    <title>&quot;20UJA24CR003B01&quot;</title>
    <rt:dyn type="IsExp" mode="constant" value="true"/> 
    <rt:dyn type="ShowFrame" mode="constant" value="true"/> 
    <rt:dyn type="Color_Readings" mode="constant" value="true"/> 
    <rt:dyn type="FKKS" mode="constant" value="&quot;20UJA24CR003B01&quot;"/> 
    <rt:dyn type="ValueToTheRight" mode="constant" value="false"/> 
    <rt:dyn type="SetBounds" mode="constant" value="true"/> 
    <rt:dyn type="Show_Map" mode="constant" value="false"/> 
    <rt:dyn type="X" mode="constant" value="&quot;G&quot;"/> 
  </image>
  <text x="1503.96" y="318.759" fill="black" font-size="18" text-anchor="start">20UJA24CR003</text>
  <rect x="1486.14" y="617" width="139.394" height="21.2122" rx="0" ry="0" fill="Col_BGItemSel"/> 
  <image x="1485.96" y="640.759" width="175" height="25" xlink:href="DS_ana_ASRK.svg">
    <title>&quot;20UJA24CR004B01&quot;</title>
    <rt:dyn type="IsExp" mode="constant" value="true"/> 
    <rt:dyn type="ShowFrame" mode="constant" value="true"/> 
    <rt:dyn type="Color_Readings" mode="constant" value="true"/> 
    <rt:dyn type="FKKS" mode="constant" value="&quot;20UJA24CR004B01&quot;"/> 
    <rt:dyn type="ValueToTheRight" mode="constant" value="false"/> 
    <rt:dyn type="SetBounds" mode="constant" value="true"/> 
    <rt:dyn type="Show_Map" mode="constant" value="false"/> 
    <rt:dyn type="X" mode="constant" value="&quot;G&quot;"/> 
  </image>
  <text x="1494.96" y="633.759" fill="black" font-size="18" text-anchor="start">20UJA24CR004</text>
  <rect x="257.376" y="634.604" width="139.394" height="21.2122" rx="0" ry="0" fill="Col_BGItemSel"/> 
  <image x="257.196" y="658.363" width="175" height="25" xlink:href="DS_ana_ASRK.svg">
    <title>&quot;20UJA24CR001B01&quot;</title>
    <rt:dyn type="IsExp" mode="constant" value="true"/> 
    <rt:dyn type="ShowFrame" mode="constant" value="true"/> 
    <rt:dyn type="Color_Readings" mode="constant" value="true"/> 
    <rt:dyn type="FKKS" mode="constant" value="&quot;20UJA24CR001B01&quot;"/> 
    <rt:dyn type="ValueToTheRight" mode="constant" value="false"/> 
    <rt:dyn type="SetBounds" mode="constant" value="true"/> 
    <rt:dyn type="Show_Map" mode="constant" value="false"/> 
    <rt:dyn type="X" mode="constant" value="&quot;G&quot;"/> 
  </image>
  <text x="266.196" y="651.363" fill="black" font-size="18" text-anchor="start">20UJA24CR001</text>
  <g>
    <polyline points="161.817,334 184.317,379 138.817,379 161.817,334" fill="Col_Grey4" stroke="black" stroke-width="1"/> 
  </g>
  <g>
    <polyline points="225,639.228 247.5,684.228 202,684.228 225,639.228" fill="Col_Grey4" stroke="black" stroke-width="1"/> 
  </g>
  <g>
    <polyline points="1461.82,308 1484.32,353 1438.82,353 1461.82,308" fill="Col_Grey4" stroke="black" stroke-width="1"/> 
  </g>
  <g>
    <polyline points="1456.82,621 1479.32,666 1433.82,666 1456.82,621" fill="Col_Grey4" stroke="black" stroke-width="1"/> 
  </g>
</svg>
