<?xml  version="1.0" encoding="windows-1251"?>
<svg color="Col_BGSand" xmlns="http://www.w3.org/2000/svg" xmlns:rt="http://www.rts.co.at/2001/XMLSchema/RtSvgPL" xmlns:xlink="http://www.w3.org/1999/xlink" xmlns:xsi="http://www.w3.org/2001/XMLSchema-instance" xsi:schemaLocation="http://www.w3.org/2000/svg C:\RTS\RtSvg\XML\SVG.xsd" viewBox="0 0 1914 1000" width="1914" height="1000" id="asrk_kpm21" fill="none">
  <title>РК системы очистки радиоактивных технологических сдувок</title>
  <rt:model modelversion="7.2.0.24" comment="UMod 7_all_asrk&#10;LMod 7_asrk_kpf&#10;RMod 7_asrk_kpm22" revision="3"/> 
  <line x1="1338" y1="869" x2="1338" y2="980" stroke="black"/> 
  <line x1="913" y1="227" x2="913" y2="317.756" stroke="black"/> 
  <line x1="400.121" y1="664" x2="693.042" y2="664" stroke="black" stroke-width="3"/> 
  <line x1="359" y1="164" x2="359" y2="403.879" stroke="black" stroke-width="3"/> 
  <line x1="198" y1="164" x2="360" y2="164" stroke="black" stroke-width="3"/> 
  <line x1="692" y1="578" x2="983.03" y2="578" stroke="black" stroke-width="3"/> 
  <line x1="358.212" y1="404" x2="695.012" y2="404" stroke="black" stroke-width="3"/> 
  <line x1="1160.61" y1="921.227" x2="1230.31" y2="921.227" stroke="black" stroke-width="3"/> 
  <line x1="1086.21" y1="980" x2="1852.88" y2="980" stroke="black" stroke-width="3"/> 
  <text x="971.121" y="32.5758" fill="black" font-size="30" font-weight="700" text-anchor="middle">
    <title>Система очистки радиоактивных технологических сдувок</title>
РК системы очистки р/а технологических сдувок 20KPM21</text>
  <line x1="1851" y1="129.182" x2="1851" y2="981" stroke="black" stroke-width="3"/> 
  <text x="1762.79" y="942.424" fill="black" font-size="15">20KPM21<tspan x="1762.79" dy="15">AA017</tspan>
  </text>
  <line x1="1760" y1="229.182" x2="1760" y2="474.929" stroke="black" stroke-width="3"/> 
  <path d="M1487.01 -559.454 A8.80483 8.80483 0 1 1 1487.01 -541.844 " fill="none" stroke="black" stroke-width="3" transform="rotate(270 1616.75 883.029) flipY() translate(0 -828) translate(229.642 442.62)"/> 
  <text x="1748" y="619.546" fill="black" font-size="15">20KPM21<tspan x="1748" dy="15">AN001</tspan>
  </text>
  <image x="1814.88" y="581.01" width="70" height="70" xlink:href="DS_motor.svg" transform="rotate(90 0 0) flipX() flipX()">
    <rt:dyn type="KKS" mode="constant" value="&quot;NULL&quot;"/> 
    <rt:dyn type="Operate" mode="constant" value="true"/> 
  </image>
  <line x1="1677.64" y1="783" x2="1851.88" y2="783" stroke="black" stroke-width="3"/> 
  <rect x="603.41" y="317.818" width="17" height="501.863" rx="0" ry="0" fill="url(#PortalHatch1)" stroke="black" stroke-width="3" transform="rotate(90 499.629 673.886)"/> 
  <g transform="flipX(1383.52) flipX(81.2424) rotate(270 1829.73 859.091) flipY(578) rotate(180 1210.44 541.647)">
    <g transform="rotate(90 1212.44 532.643)">
      <polygon points="3956.45,-1047.35 3969.83,-1039.7 3969.83,-1054.99 3956.45,-1047.35" fill="black" stroke="black" stroke-width="1" transform="rotate(180 1279.17 367.814)"/> 
    </g>
  </g>
  <text x="1732" y="725" fill="black" font-size="15">20KPM31<tspan x="1732" dy="15">AA008</tspan>
  </text>
  <line x1="1671" y1="318" x2="1671" y2="981" stroke="black" stroke-width="3"/> 
  <text x="1581.61" y="943" fill="black" font-size="15">20KPM21<tspan x="1581.61" dy="15">AA013</tspan>
  </text>
  <text x="1569.21" y="619.546" fill="black" font-size="15">20KPM21<tspan x="1569.21" dy="15">AN002</tspan>
  </text>
  <image x="1635.79" y="581.01" width="70" height="70" xlink:href="DS_motor.svg" transform="rotate(90 0 0) flipX() flipX()">
    <rt:dyn type="KKS" mode="constant" value="&quot;NULL&quot;"/> 
    <rt:dyn type="Operate" mode="constant" value="true"/> 
  </image>
  <line x1="1549" y1="783" x2="1662.13" y2="783" stroke="black" stroke-width="3"/> 
  <line x1="1542" y1="363" x2="1542" y2="981" stroke="black" stroke-width="3"/> 
  <path d="M1805.34 127.904 A8.80483 8.80483 0 1 1 1805.34 145.514 " fill="none" stroke="black" stroke-width="3" transform="rotate(270 1616.75 883.029) flipY() translate(0 -828) translate(229.642 442.62)"/> 
  <path d="M1487.04 -430.885 A8.80483 8.80483 0 1 1 1487.04 -413.275 " fill="none" stroke="black" stroke-width="3" transform="rotate(270 1616.75 883.029) flipY() translate(0 -828) translate(229.642 442.62)"/> 
  <text x="1574.58" y="705.273" fill="black" font-size="15">20KPM21<tspan x="1574.58" dy="15">AA014</tspan>
  </text>
  <line x1="1549" y1="754" x2="1672" y2="754" stroke="black" stroke-width="3"/> 
  <path d="M1515.74 -430.885 A8.80483 8.80483 0 1 1 1515.74 -413.275 " fill="none" stroke="black" stroke-width="3" transform="rotate(270 1616.75 883.029) flipY() translate(0 -828) translate(229.642 442.62)"/> 
  <text x="1581.61" y="524.092" fill="black" font-size="15">20KPM21<tspan x="1581.61" dy="15">AA012</tspan>
  </text>
  <line x1="1668.85" y1="476" x2="1852.91" y2="476" stroke="black" stroke-width="3"/> 
  <text x="1768.3" y="503.059" fill="black" font-size="15">20KPM21<tspan x="1768.3" dy="15">AA015</tspan>
  </text>
  <text x="1581.61" y="413.153" fill="black" font-size="15">20KPM21<tspan x="1581.61" dy="15">AA010</tspan>
  </text>
  <line x1="1541" y1="364" x2="1669.37" y2="364" stroke="black" stroke-width="3"/> 
  <line x1="704.909" y1="318" x2="1672.42" y2="318" stroke="black" stroke-width="3"/> 
  <line x1="1555.12" y1="230" x2="1762.03" y2="230" stroke="black" stroke-width="3"/> 
  <image x="1328.7" y="275.606" width="70" height="65" xlink:href="DS_CO_valve.svg" transform="rotate(360 -0.00012207 -10)">
    <rt:dyn type="KKS" mode="constant" value="&quot;NULL&quot;"/> 
    <rt:dyn type="Operate" mode="constant" value="true"/> 
    <rt:dyn type="Drive" mode="constant" value="&quot;moto&quot;"/> 
  </image>
  <text x="1318.82" y="266.97" fill="black" font-size="15">20KPM21<tspan x="1318.82" dy="15">AA009</tspan>
  </text>
  <text x="1582.21" y="267.212" fill="black" font-size="15">20KPM21<tspan x="1582.21" dy="15">AA201</tspan>
  </text>
  <image x="1581.67" y="187.61" width="70" height="65" xlink:href="DS_Reg_valve.svg" transform="flipX(0.000192988) rotate(0 0 -10.0001)">
    <rt:dyn type="KKS" mode="constant" value="&quot;NULL&quot;"/> 
  </image>
  <text x="1501.36" y="229.788" fill="black" font-size="15" text-anchor="middle">воздух из<tspan x="1501.36" dy="15">помещений</tspan>
  </text>
  <line x1="506" y1="131" x2="1851.88" y2="131" stroke="black" stroke-width="3"/> 
  <text x="1768.3" y="77.121" fill="black" font-size="15">20KPM31<tspan x="1768.3" dy="15">AA007</tspan>
  </text>
  <line x1="1726.09" y1="59.4848" x2="1726.09" y2="130.697" stroke="black" stroke-width="3"/> 
  <text x="1587.03" y="86.848" fill="black" font-size="15">20KPM31<tspan x="1587.03" dy="15">AA012</tspan>
  </text>
  <line x1="122" y1="60" x2="1728.48" y2="60" stroke="black" stroke-width="3"/> 
  <text x="1412.91" y="86.879" fill="black" font-size="15">20KPM31<tspan x="1412.91" dy="15">AA201</tspan>
  </text>
  <text x="1055.18" y="77.667" fill="black" font-size="15">20KPM31AT001</text>
  <line x1="1402" y1="193" x2="1402" y2="318.576" stroke="black" stroke-width="3"/> 
  <line x1="551" y1="194" x2="1403.51" y2="194" stroke="black" stroke-width="3"/> 
  <rect x="955.23" y="752.376" width="65.9747" height="62.8944" rx="0" ry="0" fill="Col_Grey4" transform="rotate(314.645 525.5 325)"/> 
  <line x1="1178" y1="275.636" x2="1176.48" y2="362" stroke="black" stroke-dasharray="5,5"/> 
  <text x="1198" y="366.5" fill="black" font-size="15">20KPM21<tspan x="1198" dy="15">AT004-007</tspan>
  </text>
  <text x="1243.31" y="147.909" fill="black" font-size="15">20KPM21<tspan x="1243.31" dy="15">AA202</tspan>
  </text>
  <text x="648.849" y="147.909" fill="black" font-size="15">20KPM21<tspan x="648.849" dy="15">AA007</tspan>
  </text>
  <line x1="982" y1="319" x2="982" y2="579" stroke="black" stroke-width="3"/> 
  <text x="1024.91" y="439.788" fill="black" font-size="15">20KPM21<tspan x="1024.91" dy="15">AA006</tspan>
  </text>
  <line x1="774" y1="318" x2="774" y2="578" stroke="black" stroke-width="3"/> 
  <text x="805.56" y="405.394" fill="black" font-size="15">20KPM31<tspan x="805.56" dy="15">AA003</tspan>
  </text>
  <line x1="937" y1="328" x2="937" y2="455" stroke="black"/> 
  <image x="771" y="275.182" width="70" height="65" xlink:href="DS_CO_valve.svg" transform="rotate(360 -0.00012207 -10)">
    <rt:dyn type="KKS" mode="constant" value="&quot;NULL&quot;"/> 
  </image>
  <text x="778.97" y="352.455" fill="black" font-size="15">20KPM21<tspan x="778.97" dy="15">AA005</tspan>
  </text>
  <line x1="990.909" y1="464" x2="1302.21" y2="464" stroke="black" stroke-width="3"/> 
  <rect x="1414.97" y="267.061" width="68.1812" height="92.4244" rx="0" ry="0" fill="Col_Grey4"/> 
  <rect x="1416.49" y="301.575" width="65.1515" height="25.7576" rx="0" ry="0" fill="url(#PortalHatch3)"/> 
  <text x="1450.67" y="375.758" fill="black" font-size="15" text-anchor="middle">20KPM21<tspan x="1450.67" dy="15">AT008</tspan>
  </text>
  <line x1="1124.92" y1="463" x2="1124.92" y2="755" stroke="black" stroke-width="3"/> 
  <text x="1156.44" y="506.016" fill="black" font-size="15">20KPM31<tspan x="1156.44" dy="15">AA002</tspan>
  </text>
  <line x1="1302" y1="463" x2="1302" y2="754" stroke="black" stroke-width="3"/> 
  <text x="1335.19" y="506.016" fill="black" font-size="15">20KPM31<tspan x="1335.19" dy="15">AA001</tspan>
  </text>
  <rect x="1268.88" y="549.697" width="70" height="70" rx="0" ry="0" fill="Col_Grey4"/> 
  <text x="1224.67" y="576.485" fill="black" font-size="15" text-anchor="middle">20KPM31<tspan x="1224.67" dy="15">AH001</tspan>
  </text>
  <line x1="1227.64" y1="783" x2="1533.19" y2="783" stroke="black" stroke-width="3"/> 
  <line x1="1123.24" y1="754" x2="1532.18" y2="754" stroke="black" stroke-width="3"/> 
  <text x="1397" y="698" fill="black" font-size="15">20KPM31<tspan x="1397" dy="15">AA009</tspan>
  </text>
  <text x="1033" y="704" fill="black" font-size="15">20KPM31<tspan x="1033" dy="15">AA010</tspan>
  </text>
  <text x="1209" y="704" fill="black" font-size="15">20KPM31<tspan x="1209" dy="15">AA011</tspan>
  </text>
  <path d="M1611.4 -190.969 A8.80483 8.80483 0 1 1 1611.4 -173.359 " fill="none" stroke="black" stroke-width="3" transform="rotate(270 1616.75 883.029) flipY() translate(0 -828) translate(229.642 442.62)"/> 
  <line x1="1126.45" y1="657.5" x2="1293.12" y2="657.5" stroke="black" stroke-width="3"/> 
  <line x1="1311.3" y1="657.5" x2="1381" y2="657.5" stroke="black" stroke-width="3"/> 
  <text x="1440.7" y="645.394" fill="black" font-size="15" text-anchor="middle">воздух из<tspan x="1440.7" dy="15">помещений</tspan>
  </text>
  <g transform="flipX(1107.76) flipX(1383.52) flipX(81.2424) rotate(270 1829.73 859.091) flipY(578) rotate(180 1210.44 541.647)">
    <g transform="rotate(90 1212.44 532.643)">
      <polygon points="4687.3,-641.444 4700.68,-633.794 4700.68,-649.084 4687.3,-641.444" fill="black" stroke="black" stroke-width="1" transform="rotate(180 1279.17 367.814)"/> 
    </g>
  </g>
  <g transform="flipX(1107.76) flipX(1383.52) flipX(81.2424) rotate(270 1829.73 859.091) flipY(578) rotate(180 1210.44 541.647)">
    <g transform="rotate(90 1212.44 532.643)">
      <polygon points="4687.81,-619.201 4701.2,-611.551 4701.2,-626.841 4687.81,-619.201" fill="black" stroke="black" stroke-width="1" transform="rotate(180 1279.17 367.814)"/> 
    </g>
  </g>
  <line x1="1229" y1="756" x2="1229" y2="782.939" stroke="black" stroke-width="3"/> 
  <line x1="1228" y1="920.121" x2="1228" y2="980.204" stroke="black" stroke-width="3"/> 
  <line x1="1159.61" y1="957" x2="1229.31" y2="957" stroke="black" stroke-width="3"/> 
  <g transform="scale(0.559998 0.559998 635.788 749.242)">
    <rect x="734.77" y="-29.6018" width="72.7274" height="180.303" rx="0" ry="0" fill="Col_Grey4"/> 
    <rect x="708.634" y="-1.94986" width="125" height="125" rx="0" ry="0" fill="Col_Grey4" stroke="black"/> 
    <line x1="733.974" y1="21.1412" x2="833.975" y2="21.1412" stroke="black" stroke-width="3"/> 
    <line x1="733.974" y1="20.8082" x2="781.303" y2="61.8085" stroke="black" stroke-width="3"/> 
    <line x1="734.633" y1="97.8085" x2="832.645" y2="97.8085" stroke="black" stroke-width="3"/> 
    <line x1="735.974" y1="97.1415" x2="781.303" y2="60.4745" stroke="black" stroke-width="3"/> 
    <line x1="817.225" y1="-2.32887" x2="817.225" y2="123.429" stroke="black"/> 
    <line x1="725.8" y1="-0.813866" x2="724.285" y2="123.429" stroke="black"/> 
  </g>
  <text x="805.56" y="506.016" fill="black" font-size="15">20KPM31<tspan x="805.56" dy="15">AA004</tspan>
  </text>
  <line x1="773.242" y1="464" x2="974.909" y2="464" stroke="black" stroke-width="3"/> 
  <path d="M1620.84 200.548 A8.80483 8.80483 0 1 1 1620.84 218.158 " fill="none" stroke="black" transform="rotate(270 830.938 543.084) rotate(270 1616.75 883.029) flipY() translate(0 -828) translate(229.642 442.62)"/> 
  <g transform="scale(0.559998 0.559998 635.788 749.242)">
    <rect x="732.985" y="433.813" width="72.7274" height="180.303" rx="0" ry="0" fill="Col_Grey4"/> 
    <rect x="706.849" y="461.465" width="125" height="125" rx="0" ry="0" fill="Col_Grey4" stroke="black"/> 
    <line x1="732.188" y1="484.556" x2="832.19" y2="484.556" stroke="black" stroke-width="3"/> 
    <line x1="732.188" y1="484.223" x2="779.518" y2="525.223" stroke="black" stroke-width="3"/> 
    <line x1="732.848" y1="561.223" x2="830.86" y2="561.223" stroke="black" stroke-width="3"/> 
    <line x1="734.188" y1="560.556" x2="779.518" y2="523.889" stroke="black" stroke-width="3"/> 
    <line x1="815.44" y1="461.086" x2="815.44" y2="586.843" stroke="black"/> 
    <line x1="724.015" y1="462.601" x2="722.5" y2="586.843" stroke="black"/> 
  </g>
  <path d="M1620.84 315.184 A8.80483 8.80483 0 1 1 1620.84 332.794 " fill="none" stroke="black" transform="rotate(270 830.938 543.084) rotate(270 1616.75 883.029) flipY() translate(0 -828) translate(229.642 442.62)"/> 
  <line x1="937" y1="473" x2="937" y2="571.606" stroke="black"/> 
  <line x1="937" y1="588" x2="937" y2="715" stroke="black"/> 
  <rect x="1096.12" y="549.697" width="70" height="70" rx="0" ry="0" fill="Col_Grey4"/> 
  <text x="1054.42" y="576.485" fill="black" font-size="15" text-anchor="middle">20KPM31<tspan x="1054.42" dy="15">AH002</tspan>
  </text>
  <text x="632.182" y="354.939" fill="black" font-size="15" text-anchor="middle">20KPM21<tspan x="632.182" dy="15">AT002</tspan>
  </text>
  <text x="633.697" y="620.091" fill="black" font-size="15" text-anchor="middle">20KPM21<tspan x="633.697" dy="15">AT003</tspan>
  </text>
  <line x1="543.091" y1="131" x2="543.091" y2="404" stroke="black" stroke-width="3"/> 
  <text x="551.606" y="265.545" fill="black" font-size="15">20KPM31<tspan x="551.606" dy="15">AA005</tspan>
  </text>
  <path d="M2075.89 567.6 A8.80483 8.80483 0 1 1 2075.89 585.21 " fill="none" stroke="black" stroke-width="3" transform="rotate(270 1616.75 883.029) flipY() translate(0 -828) translate(229.642 442.62)"/> 
  <line x1="507" y1="131" x2="507" y2="394.341" stroke="black" stroke-width="3"/> 
  <path d="M2066.62 139.427 A8.80483 8.80483 0 1 1 2066.62 157.036 " fill="none" stroke="black" stroke-width="3" transform="flipX(484.223) flipX(476.223) rotate(270 830.938 543.084) rotate(270 1616.75 883.029) flipY() translate(0 -828) translate(229.642 442.62)"/> 
  <text x="425.788" y="350.242" fill="black" font-size="15">20KPM21<tspan x="425.788" dy="15">AA003</tspan>
  </text>
  <path d="M2075.89 603.934 A8.80483 8.80483 0 1 1 2075.89 621.544 " fill="none" stroke="black" stroke-width="3" transform="rotate(270 1616.75 883.029) flipY() translate(0 -828) translate(229.642 442.62)"/> 
  <line x1="420" y1="193" x2="420" y2="401.916" stroke="black" stroke-width="3"/> 
  <line x1="1302.21" y1="636.788" x2="1381" y2="636.788" stroke="black" stroke-width="3"/> 
  <line x1="418.273" y1="194" x2="497.063" y2="194" stroke="black" stroke-width="3"/> 
  <line x1="514" y1="195" x2="535" y2="195" stroke="black" stroke-width="3"/> 
  <line x1="507" y1="412.068" x2="507" y2="665" stroke="black" stroke-width="3"/> 
  <text x="540.242" y="506.016" fill="black" font-size="15">20KPM31<tspan x="540.242" dy="15">AA006</tspan>
  </text>
  <text x="425.788" y="610.849" fill="black" font-size="15">20KPM21<tspan x="425.788" dy="15">AA004</tspan>
  </text>
  <line x1="399.606" y1="403" x2="401.106" y2="665" stroke="black" stroke-width="3"/> 
  <text x="227.545" y="309.485" fill="black" font-size="15">20KPM21<tspan x="227.545" dy="15">AT001</tspan>
  </text>
  <g transform="flipX(1107.76) flipX(1383.52) flipX(81.2424) rotate(270 1829.73 859.091) flipY(578) rotate(180 1210.44 541.647)">
    <g transform="rotate(90 1212.44 532.643)">
      <polygon points="4389.33,-297.505 4402.71,-289.855 4402.71,-305.145 4389.33,-297.505" fill="black" stroke="black" stroke-width="1" transform="rotate(180 1279.17 367.814)"/> 
    </g>
  </g>
  <text x="1024.15" y="983.757" fill="black" font-size="15" text-anchor="middle">в вент. трубу</text>
  <line x1="381.97" y1="714" x2="937" y2="714" stroke="black"/> 
  <line x1="381.97" y1="411" x2="381.97" y2="714.03" stroke="black"/> 
  <text x="705.727" y="100.909" fill="black" font-size="15">20KPM31AC001</text>
  <g transform="scale(1.0524 1.0524 1.4013e-045 1.4013e-045) flipX(963.818) rotate(270 964.576 96.9697) rotate(90 1175.94 787.121) scale(0.380039 0.380039 1162.3 219.697) rotate(270 1162.3 219.697) rotate(270 412.288 437.863)">
    <g transform="rotate(90 1094.11 578.015)">
      <rect x="-562.045" y="948.823" width="130.303" height="134.849" rx="0" ry="0" fill="Col_Grey4" stroke="black" stroke-width="3"/> 
      <line x1="-498.445" y1="963.943" x2="-449.955" y2="988.193" stroke="black" stroke-width="3"/> 
      <line x1="-544.735" y1="1044.07" x2="-496.244" y2="1068.32" stroke="black" stroke-width="3"/> 
      <line x1="-451.475" y1="988.193" x2="-546.925" y2="1044.25" stroke="black" stroke-width="3"/> 
      <line x1="-497.265" y1="1067.72" x2="-497.265" y2="1082.72" stroke="black" stroke-width="3"/> 
      <line x1="-497.115" y1="950.873" x2="-497.115" y2="965.873" stroke="black" stroke-width="3"/> 
    </g>
  </g>
  <text x="280.879" y="117.303" fill="black" font-size="15">20KPM21<tspan x="280.879" dy="15">AC002</tspan>
  </text>
  <line x1="199" y1="111" x2="199" y2="557.97" stroke="black" stroke-width="3"/> 
  <text x="237.152" y="421.636" fill="black" font-size="15">20KPM21<tspan x="237.152" dy="15">AA001</tspan>
  </text>
  <line x1="121.004" y1="273" x2="198.614" y2="273" stroke="black" stroke-width="3"/> 
  <text x="198.061" y="86.758" fill="black" font-size="15" text-anchor="middle">воздух из<tspan x="198.061" dy="15">помещений</tspan>
  </text>
  <path d="M1901.34 987.21 A8.80483 8.80483 0 1 1 1901.34 1004.82 " fill="none" stroke="black" stroke-width="3" transform="rotate(270 1616.75 883.029) flipY() translate(0 -828) translate(229.642 442.62)"/> 
  <g transform="flipY(964.394) rotate(270 16.8485 43.1818) flipX(1107.76) flipX(1383.52) flipX(81.2424) rotate(270 1829.73 859.091) flipY(578) rotate(180 1210.44 541.647)">
    <g transform="rotate(90 1212.44 532.643)">
      <polygon points="2354.6,-778.458 2367.98,-770.807 2367.98,-786.098 2354.6,-778.458" fill="black" stroke="black" stroke-width="1" transform="rotate(180 1279.17 367.814)"/> 
    </g>
  </g>
  <text x="456.576" y="942.098" fill="black" font-size="15">KBB</text>
  <text x="506.499" y="868.431" fill="black" font-size="15">20KPM20<tspan x="506.499" dy="15">AA201</tspan>
  </text>
  <line x1="661.5" y1="822.758" x2="663" y2="924.29" stroke="black" stroke-width="3"/> 
  <g transform="flipY(964.394) rotate(270 16.8485 43.1818) flipX(1107.76) flipX(1383.52) flipX(81.2424) rotate(270 1829.73 859.091) flipY(578) rotate(180 1210.44 541.647)">
    <g transform="rotate(90 1212.44 532.643)">
      <polygon points="2355.54,-587.777 2368.92,-580.127 2368.92,-595.417 2355.54,-587.777" fill="black" stroke="black" stroke-width="1" transform="rotate(180 1279.17 367.814)"/> 
    </g>
  </g>
  <text x="625.257" y="942.098" fill="black" font-size="15">KTA, KTC</text>
  <text x="698.181" y="868.431" fill="black" font-size="15">20KPM20<tspan x="698.181" dy="15">AA202</tspan>
  </text>
  <line x1="823.091" y1="822.758" x2="824.591" y2="924.29" stroke="black" stroke-width="3"/> 
  <g transform="flipY(964.394) rotate(270 16.8485 43.1818) flipX(1107.76) flipX(1383.52) flipX(81.2424) rotate(270 1829.73 859.091) flipY(578) rotate(180 1210.44 541.647)">
    <g transform="rotate(90 1212.44 532.643)">
      <polygon points="2355.54,-426.188 2368.92,-418.537 2368.92,-433.827 2355.54,-426.188" fill="black" stroke="black" stroke-width="1" transform="rotate(180 1279.17 367.814)"/> 
    </g>
  </g>
  <text x="808.848" y="942.098" fill="black" font-size="15">KBF</text>
  <text x="837" y="823" fill="black" font-size="15">UKC</text>
  <text x="303" y="894" fill="black" font-size="15">UKA</text>
  <line x1="123" y1="770" x2="123" y2="822.03" stroke="black" stroke-width="3"/> 
  <line x1="37.0324" y1="761" x2="335.515" y2="761" stroke="black" stroke-width="3"/> 
  <line x1="197.79" y1="468" x2="267.49" y2="468" stroke="black" stroke-width="3"/> 
  <line x1="199.18" y1="499" x2="268.88" y2="499" stroke="black" stroke-width="3"/> 
  <text x="199.909" y="605.212" fill="black" font-size="15" text-anchor="middle">20KPL</text>
  <g transform="scale(0.690003 0.690003 619.121 885.606) rotate(90 619.121 885.606)">
    <ellipse cx="522.981" cy="269.831" rx="56.0606" ry="21.2121" fill="Col_Grey4"/> 
    <rect x="466.98" y="267.801" width="111.424" height="158.909" rx="0" ry="0" fill="Col_Grey4"/> 
    <ellipse cx="522.471" cy="424.261" rx="56.0606" ry="21.2121" fill="Col_Grey4"/> 
  </g>
  <text x="954.394" y="802.636" fill="black" font-size="15">20KPM21<tspan x="954.394" dy="15">BB001</tspan>
  </text>
  <rect x="1083.97" y="79.697" width="68.1812" height="92.4244" rx="0" ry="0" fill="Col_Grey4"/> 
  <rect x="1085.49" y="114.211" width="65.1515" height="25.7576" rx="0" ry="0" fill="url(#PortalHatch3)"/> 
  <text x="1674.61" y="176.242" fill="black" font-size="15">20KPM21<tspan x="1674.61" dy="15">AA011</tspan>
  </text>
  <g transform="scale(1.0524 1.0524 1.4013e-045 1.4013e-045) flipX(963.818) rotate(270 964.576 96.9697) rotate(90 1175.94 787.121) scale(0.380039 0.380039 1162.3 219.697) rotate(270 1162.3 219.697) rotate(270 412.288 437.863)">
    <g transform="rotate(90 1094.11 578.015)">
      <rect x="-484.314" y="-215.911" width="130.303" height="134.849" rx="0" ry="0" fill="Col_Grey4" stroke="black" stroke-width="3"/> 
      <line x1="-420.714" y1="-200.791" x2="-372.224" y2="-176.541" stroke="black" stroke-width="3"/> 
      <line x1="-467.004" y1="-120.661" x2="-418.514" y2="-96.4109" stroke="black" stroke-width="3"/> 
      <line x1="-373.744" y1="-176.541" x2="-469.194" y2="-120.481" stroke="black" stroke-width="3"/> 
      <line x1="-419.534" y1="-97.0109" x2="-419.534" y2="-82.0109" stroke="black" stroke-width="3"/> 
      <line x1="-419.384" y1="-213.861" x2="-419.384" y2="-198.861" stroke="black" stroke-width="3"/> 
    </g>
  </g>
  <g transform="scale(1.0524 1.0524 1.4013e-045 1.4013e-045) flipX(963.818) rotate(270 964.576 96.9697) rotate(90 1175.94 787.121) scale(0.380039 0.380039 1162.3 219.697) rotate(270 1162.3 219.697) rotate(270 412.288 437.863)">
    <g transform="rotate(90 1094.11 578.015)">
      <rect x="-562.045" y="1125.89" width="130.303" height="134.849" rx="0" ry="0" fill="Col_Grey4" stroke="black" stroke-width="3"/> 
      <line x1="-498.445" y1="1141.01" x2="-449.955" y2="1165.26" stroke="black" stroke-width="3"/> 
      <line x1="-544.735" y1="1221.14" x2="-496.244" y2="1245.39" stroke="black" stroke-width="3"/> 
      <line x1="-451.475" y1="1165.26" x2="-546.925" y2="1221.32" stroke="black" stroke-width="3"/> 
      <line x1="-497.265" y1="1244.79" x2="-497.265" y2="1259.79" stroke="black" stroke-width="3"/> 
      <line x1="-497.115" y1="1127.94" x2="-497.115" y2="1142.94" stroke="black" stroke-width="3"/> 
    </g>
  </g>
  <text x="205.061" y="204.303" fill="black" font-size="15">20KPM21<tspan x="205.061" dy="15">AC001</tspan>
  </text>
  <image x="138.09" y="219.606" width="70" height="65" xlink:href="DS_CO_valve.svg" transform="rotate(270 0 0) flipY(-10.0004) flipX(-0.000205135) rotate(270 -0.00012207 -10)">
    <rt:dyn type="KKS" mode="constant" value="&quot;NULL&quot;"/> 
  </image>
  <text x="38.5757" y="250.394" fill="black" font-size="15">20KPM21<tspan x="38.5757" dy="15">AA002</tspan>
  </text>
  <line x1="123" y1="59.4848" x2="123" y2="753" stroke="black" stroke-width="3"/> 
  <g transform="rotate(270 16.8485 43.1818) flipX(1107.76) flipX(1383.52) flipX(81.2424) rotate(270 1829.73 859.091) flipY(578) rotate(180 1210.44 541.647)">
    <g transform="rotate(90 1212.44 532.643)">
      <polygon points="3249.78,-1052.02 3263.16,-1044.37 3263.16,-1059.66 3249.78,-1052.02" fill="black" stroke="black" stroke-width="1" transform="rotate(180 1279.17 367.814)"/> 
    </g>
  </g>
  <line x1="61" y1="366.03" x2="61" y2="761" stroke="black" stroke-width="3"/> 
  <text x="38.5757" y="345.848" fill="black" font-size="15">20KPM21<tspan x="38.5757" dy="15">AA118</tspan>
  </text>
  <line x1="61" y1="367.061" x2="112.788" y2="367.061" stroke="black" stroke-width="3"/> 
  <line x1="133.485" y1="367.061" x2="200" y2="367.061" stroke="black" stroke-width="3"/> 
  <g transform="flipX(1107.76) flipX(1383.52) flipX(81.2424) rotate(270 1829.73 859.091) flipY(578) rotate(180 1210.44 541.647)">
    <g transform="rotate(90 1212.44 532.643)">
      <polygon points="3340.85,-515.777 3354.23,-508.127 3354.23,-523.417 3340.85,-515.777" fill="black" stroke="black" stroke-width="1" transform="rotate(180 1279.17 367.814)"/> 
    </g>
  </g>
  <line x1="37.0324" y1="821" x2="824.909" y2="821" stroke="black" stroke-width="3"/> 
  <g transform="flipX(1107.76) flipX(1383.52) flipX(81.2424) rotate(270 1829.73 859.091) flipY(578) rotate(180 1210.44 541.647)">
    <g transform="rotate(90 1212.44 532.643)">
      <polygon points="3340.85,-455.686 3354.23,-448.036 3354.23,-463.326 3340.85,-455.686" fill="black" stroke="black" stroke-width="1" transform="rotate(180 1279.17 367.814)"/> 
    </g>
  </g>
  <text x="71.7273" y="795.788" fill="black" font-size="15" text-anchor="middle">
    <title>KBC40_60</title>
KPM22, 23</text>
  <path d="M2433.76 497.879 A8.80483 8.80483 0 1 1 2433.76 515.488 " fill="none" stroke="black" stroke-width="3" transform="rotate(270 830.938 543.084) rotate(270 1616.75 883.029) flipY() translate(0 -828) translate(229.642 442.62)"/> 
  <line x1="155" y1="651.446" x2="155" y2="763.03" stroke="black" stroke-width="3"/> 
  <text x="184" y="702.303" fill="black" font-size="15">20KPM20<tspan x="184" dy="15">AA203</tspan>
  </text>
  <g transform="rotate(270 16.8485 43.1818) flipX(1107.76) flipX(1383.52) flipX(81.2424) rotate(270 1829.73 859.091) flipY(578) rotate(180 1210.44 541.647)">
    <g transform="rotate(90 1212.44 532.643)">
      <polygon points="2706.85,-1096.4 2720.23,-1088.75 2720.23,-1104.04 2706.85,-1096.4" fill="black" stroke="black" stroke-width="1" transform="rotate(180 1279.17 367.814)"/> 
    </g>
  </g>
  <text x="154.636" y="647.879" fill="black" font-size="15" text-anchor="middle">
    <title>KBC40_60</title>
20KPL</text>
  <text x="252.182" y="797.242" fill="black" font-size="15">20KPM20<tspan x="252.182" dy="15">AA002</tspan>
  </text>
  <line x1="337" y1="551.918" x2="337" y2="821" stroke="black" stroke-width="3"/> 
  <image x="311.258" y="648.319" width="70" height="65" xlink:href="DS_CO_valve.svg" transform="flipY(-10.0004) flipX(-0.000205135) rotate(270 -0.00012207 -10)">
    <rt:dyn type="KKS" mode="constant" value="&quot;NULL&quot;"/> 
  </image>
  <text x="251.152" y="638.758" fill="black" font-size="15">20KPM20<tspan x="251.152" dy="15">AA001</tspan>
  </text>
  <line x1="471.318" y1="822.757" x2="472.818" y2="924.29" stroke="black" stroke-width="3"/> 
  <rect x="670.531" y="915.514" width="17" height="150" rx="0" ry="0" fill="url(#PortalHatch1)" stroke="black" stroke-width="3" transform="rotate(90 272.137 943.333) rotate(90 499.629 673.886)"/> 
  <text x="312.788" y="524.242" fill="black" font-size="15">20KTB</text>
  <g transform="rotate(270 329.5 354)">
    <rect x="334.818" y="336.576" width="68.1812" height="92.4244" rx="0" ry="0" fill="Col_Grey4"/> 
    <rect x="336.338" y="371.09" width="65.1515" height="25.7576" rx="0" ry="0" fill="url(#PortalHatch3)"/> 
  </g>
  <line x1="371" y1="411.5" x2="392" y2="411.5" stroke="black"/> 
  <line x1="926.576" y1="327.5" x2="947.576" y2="327.5" stroke="black"/> 
  <text x="664.424" y="963.455" fill="black" font-size="15" text-anchor="middle">сдувки из баков</text>
  <image x="1278.88" y="557.197" width="50" height="55" xlink:href="TPTS_switch.svg"/> 
  <image x="1106.12" y="557.197" width="50" height="55" xlink:href="TPTS_switch.svg"/> 
  <image x="138.09" y="314.424" width="70" height="65" xlink:href="DS_CO_valve.svg" transform="rotate(270 0 0) flipY(-10.0004) flipX(-0.000205135) rotate(270 -0.00012207 -10)">
    <rt:dyn type="KKS" mode="constant" value="&quot;NULL&quot;"/> 
  </image>
  <image x="428.454" y="350.788" width="70" height="65" xlink:href="DS_CO_valve.svg" transform="rotate(270 0 0) flipY(-10.0004) flipX(-0.000205135) rotate(270 -0.00012207 -10)">
    <rt:dyn type="KKS" mode="constant" value="&quot;NULL&quot;"/> 
  </image>
  <image x="428.454" y="612.909" width="70" height="65" xlink:href="DS_CO_valve.svg" transform="rotate(270 0 0) flipY(-10.0004) flipX(-0.000205135) rotate(270 -0.00012207 -10)">
    <rt:dyn type="KKS" mode="constant" value="&quot;NULL&quot;"/> 
  </image>
  <image x="130.364" y="668.97" width="70" height="65" xlink:href="DS_Reg_valve.svg" transform="flipY(-9.99998) rotate(90 1.31673e-005 -10)">
    <rt:dyn type="DATA_NARY" mode="constant" value="&quot;NONE&quot;"/> 
  </image>
  <image x="447.636" y="837.621" width="70" height="65" xlink:href="DS_Reg_valve.svg" transform="rotate(90 1.31673e-005 -10)">
    <rt:dyn type="DATA_NARY" mode="constant" value="&quot;NONE&quot;"/> 
  </image>
  <image x="637.03" y="837.621" width="70" height="65" xlink:href="DS_Reg_valve.svg" transform="rotate(90 1.31673e-005 -10)">
    <rt:dyn type="DATA_NARY" mode="constant" value="&quot;NONE&quot;"/> 
  </image>
  <image x="173.394" y="391.697" width="70" height="65" xlink:href="DS_CO_valve.svg" transform="flipY(-10.0004) flipX(-0.000205135) rotate(270 -0.00012207 -10)">
    <rt:dyn type="KKS" mode="constant" value="&quot;NULL&quot;"/> 
  </image>
  <image x="482.485" y="468.97" width="70" height="65" xlink:href="DS_CO_valve.svg" transform="flipY(-10.0004) flipX(-0.000205135) rotate(270 -0.00012207 -10)">
    <rt:dyn type="KKS" mode="constant" value="&quot;NULL&quot;"/> 
  </image>
  <image x="519.364" y="281.091" width="70" height="65" xlink:href="DS_CO_valve.svg" transform="flipY(-10.0004) flipX(-0.000205135) rotate(270 -0.00012207 -10)">
    <rt:dyn type="KKS" mode="constant" value="&quot;NULL&quot;"/> 
  </image>
  <image x="749.152" y="475.03" width="70" height="65" xlink:href="DS_CO_valve.svg" transform="flipY(-10.0004) flipX(-0.000205135) rotate(270 -0.00012207 -10)">
    <rt:dyn type="KKS" mode="constant" value="&quot;NULL&quot;"/> 
  </image>
  <image x="749.152" y="362.909" width="70" height="65" xlink:href="DS_CO_valve.svg" transform="flipY(-10.0004) flipX(-0.000205135) rotate(270 -0.00012207 -10)">
    <rt:dyn type="KKS" mode="constant" value="&quot;NULL&quot;"/> 
  </image>
  <image x="958.242" y="368.97" width="70" height="65" xlink:href="DS_CO_valve.svg" transform="flipY(-10.0004) flipX(-0.000205135) rotate(270 -0.00012207 -10)">
    <rt:dyn type="KKS" mode="constant" value="&quot;NULL&quot;"/> 
  </image>
  <image x="1100.67" y="671.56" width="70" height="65" xlink:href="DS_CO_valve.svg" transform="flipY(-10.0004) flipX(-0.000205135) rotate(270 -0.00012207 -10)">
    <rt:dyn type="KKS" mode="constant" value="&quot;NULL&quot;"/> 
  </image>
  <image x="1276.42" y="671.56" width="70" height="65" xlink:href="DS_CO_valve.svg" transform="flipY(-10.0004) flipX(-0.000205135) rotate(270 -0.00012207 -10)">
    <rt:dyn type="KKS" mode="constant" value="&quot;NULL&quot;"/> 
  </image>
  <image x="1515.82" y="671.56" width="70" height="65" xlink:href="DS_CO_valve.svg" transform="flipY(-10.0004) flipX(-0.000205135) rotate(270 -0.00012207 -10)">
    <rt:dyn type="KKS" mode="constant" value="&quot;NULL&quot;"/> 
  </image>
  <image x="1646.11" y="908.924" width="70" height="65" xlink:href="DS_CO_valve.svg" transform="flipY(-10.0004) flipX(-0.000205135) rotate(270 -0.00012207 -10)">
    <rt:dyn type="KKS" mode="constant" value="&quot;NULL&quot;"/> 
  </image>
  <image x="1826.42" y="908.924" width="70" height="65" xlink:href="DS_CO_valve.svg" transform="flipY(-10.0004) flipX(-0.000205135) rotate(270 -0.00012207 -10)">
    <rt:dyn type="KKS" mode="constant" value="&quot;NULL&quot;"/> 
  </image>
  <image x="1646.11" y="481.091" width="70" height="65" xlink:href="DS_CO_valve.svg" transform="flipY(-10.0004) flipX(-0.000205135) rotate(270 -0.00012207 -10)">
    <rt:dyn type="KKS" mode="constant" value="&quot;NULL&quot;"/> 
  </image>
  <image x="1646.11" y="376.545" width="70" height="65" xlink:href="DS_CO_valve.svg" transform="flipY(-10.0004) flipX(-0.000205135) rotate(270 -0.00012207 -10)">
    <rt:dyn type="KKS" mode="constant" value="&quot;NULL&quot;"/> 
  </image>
  <image x="1412.79" y="88.6667" width="70" height="65" xlink:href="DS_Reg_valve.svg" transform="flipX(0.000192988) rotate(0 0 -10.0001)">
    <rt:dyn type="KKS" mode="constant" value="&quot;NULL&quot;"/> 
  </image>
  <image x="1240.06" y="150.667" width="70" height="65" xlink:href="DS_Reg_valve.svg" transform="flipX(0.000192988) rotate(0 0 -10.0001)">
    <rt:dyn type="KKS" mode="constant" value="&quot;NULL&quot;"/> 
  </image>
  <image x="1597.64" y="6.0606" width="70" height="65" xlink:href="DS_CO_valve.svg" transform="rotate(270 0 0) flipY(-10.0004) flipX(-0.000205135) rotate(270 -0.00012207 -10)">
    <rt:dyn type="KKS" mode="constant" value="&quot;NULL&quot;"/> 
  </image>
  <image x="1688.55" y="177.273" width="70" height="65" xlink:href="DS_CO_valve.svg" transform="rotate(270 0 0) flipY(-10.0004) flipX(-0.000205135) rotate(270 -0.00012207 -10)">
    <rt:dyn type="KKS" mode="constant" value="&quot;NULL&quot;"/> 
  </image>
  <image x="1782.48" y="78.7879" width="70" height="65" xlink:href="DS_CO_valve.svg" transform="rotate(270 0 0) flipY(-10.0004) flipX(-0.000205135) rotate(270 -0.00012207 -10)">
    <rt:dyn type="KKS" mode="constant" value="&quot;NULL&quot;"/> 
  </image>
  <image x="1780.97" y="422.727" width="70" height="65" xlink:href="DS_CO_valve.svg" transform="rotate(270 0 0) flipY(-10.0004) flipX(-0.000205135) rotate(270 -0.00012207 -10)">
    <rt:dyn type="KKS" mode="constant" value="&quot;NULL&quot;"/> 
  </image>
  <image x="1746.12" y="730" width="70" height="65" xlink:href="DS_CO_valve.svg" transform="rotate(270 0 0) flipY(-10.0004) flipX(-0.000205135) rotate(270 -0.00012207 -10)">
    <rt:dyn type="KKS" mode="constant" value="&quot;NULL&quot;"/> 
  </image>
  <image x="1405.21" y="699.728" width="70" height="65" xlink:href="DS_CO_valve.svg" transform="rotate(270 0 0) flipY(-10.0004) flipX(-0.000205135) rotate(270 -0.00012207 -10)">
    <rt:dyn type="KKS" mode="constant" value="&quot;NULL&quot;"/> 
  </image>
  <image x="653.697" y="142.303" width="70" height="65" xlink:href="DS_CO_valve.svg" transform="rotate(270 0 0) flipY(-10.0004) flipX(-0.000205135) rotate(270 -0.00012207 -10)">
    <rt:dyn type="KKS" mode="constant" value="&quot;NULL&quot;"/> 
  </image>
  <image x="1100.68" y="471.682" width="70" height="65" xlink:href="DS_CO_valve.svg" transform="flipY(-10.0004) flipX(-0.000205135) rotate(270 -0.00012207 -10)">
    <rt:dyn type="KKS" mode="constant" value="&quot;NULL&quot;"/> 
  </image>
  <image x="1276.43" y="471.682" width="70" height="65" xlink:href="DS_CO_valve.svg" transform="flipY(-10.0004) flipX(-0.000205135) rotate(270 -0.00012207 -10)">
    <rt:dyn type="KKS" mode="constant" value="&quot;NULL&quot;"/> 
  </image>
  <image x="243.314" y="454.545" width="75" height="25" xlink:href="obj_link.svg">
    <rt:event type="OnClick">LoadNew(&quot;&quot;)</rt:event>
    <rt:dyn type="TextStr" mode="constant" value="&quot;KPM22&quot;"/> 
    <rt:dyn type="ModName" mode="constant" value="&quot;7_asrk_kpm22&quot;"/> 
  </image>
  <image x="243.314" y="484.849" width="75" height="25" xlink:href="obj_link.svg">
    <rt:event type="OnClick">LoadNew(&quot;&quot;)</rt:event>
    <rt:dyn type="TextStr" mode="constant" value="&quot;KPM23&quot;"/> 
    <rt:dyn type="ModName" mode="constant" value="&quot;7_asrk_kpm23&quot;"/> 
  </image>
  <image x="1115.65" y="908.621" width="75" height="25" xlink:href="obj_link.svg">
    <rt:event type="OnClick">LoadNew(&quot;&quot;)</rt:event>
    <rt:dyn type="TextStr" mode="constant" value="&quot;KPM22&quot;"/> 
    <rt:dyn type="ModName" mode="constant" value="&quot;7_asrk_kpm22&quot;"/> 
  </image>
  <image x="1115.65" y="942.925" width="75" height="25" xlink:href="obj_link.svg">
    <rt:event type="OnClick">LoadNew(&quot;&quot;)</rt:event>
    <rt:dyn type="TextStr" mode="constant" value="&quot;KPM23&quot;"/> 
    <rt:dyn type="ModName" mode="constant" value="&quot;7_asrk_kpm23&quot;"/> 
  </image>
  <image x="161.273" y="538.151" width="75" height="25" xlink:href="obj_link.svg" transform="rotate(270 37.3618 12.5)">
    <rt:event type="OnClick"/> 
    <rt:dyn type="TextStr" mode="constant" value="&quot;&quot;"/> 
  </image>
  <image x="297.636" y="553.03" width="75" height="25" xlink:href="obj_link.svg" transform="flipY(12.6382) rotate(270 37.3618 12.5)">
    <rt:event type="OnClick"/> 
    <rt:dyn type="TextStr" mode="constant" value="&quot;&quot;"/> 
  </image>
  <rect x="899.898" y="201.213" width="150" height="21.2122" rx="0" ry="0" fill="Col_BGItemSel"/> 
  <image x="899.718" y="224.939" width="175" height="25" xlink:href="DS_ana_ASRK.svg">
    <title>&quot;20KPM21CR602B01&quot;</title>
    <rt:dyn type="IsExp" mode="constant" value="true"/> 
    <rt:dyn type="ShowFrame" mode="constant" value="true"/> 
    <rt:dyn type="Color_Readings" mode="constant" value="true"/> 
    <rt:dyn type="FKKS" mode="constant" value="&quot;20KPM21CR602B01&quot;"/> 
    <rt:dyn type="ValueToTheRight" mode="constant" value="false"/> 
    <rt:dyn type="SetBounds" mode="constant" value="true"/> 
    <rt:dyn type="Show_Map" mode="constant" value="false"/> 
    <rt:dyn type="X" mode="constant" value="&quot;A&quot;"/> 
  </image>
  <text x="903.958" y="218.637" fill="black" font-size="18" text-anchor="start">20KPM21CR602</text>
  <image x="1738.55" y="854.546" width="75" height="25" xlink:href="obj_link.svg" transform="rotate(0 37.3619 12.5)">
    <rt:dyn type="TextStr" mode="constant" value="&quot;PK&quot;"/> 
    <rt:event type="OnClick">LoadNew(&quot;&quot;)</rt:event>
    <rt:dyn type="ModName" mode="constant" value="&quot;7_all_asrk&quot;"/> 
  </image>
  <circle cx="693.283" cy="726.841" r="3.14044" fill="black" stroke="black" stroke-width="1" transform="flipY() translate(0 -828) translate(219.956 -216.972)"/> 
  <circle cx="1118.04" cy="64.9721" r="3.14044" fill="black" stroke="black" stroke-width="1" transform="flipY() translate(0 -828) translate(219.956 -216.972)"/> 
  <rect x="1304.38" y="908.85" width="150" height="21.2122" rx="0" ry="0" fill="Col_BGItemSel"/> 
  <image x="1304.2" y="932.576" width="175" height="25" xlink:href="DS_ana_ASRK.svg">
    <title>&quot;20KPM21CR601B01&quot;</title>
    <rt:dyn type="IsExp" mode="constant" value="true"/> 
    <rt:dyn type="ShowFrame" mode="constant" value="true"/> 
    <rt:dyn type="Color_Readings" mode="constant" value="true"/> 
    <rt:dyn type="FKKS" mode="constant" value="&quot;20KPM21CR601B01&quot;"/> 
    <rt:dyn type="ValueToTheRight" mode="constant" value="false"/> 
    <rt:dyn type="SetBounds" mode="constant" value="true"/> 
    <rt:dyn type="Show_Map" mode="constant" value="false"/> 
    <rt:dyn type="X" mode="constant" value="&quot;A&quot;"/> 
  </image>
  <text x="1308.44" y="926.274" fill="black" font-size="18" text-anchor="start">20KPM21CR601</text>
  <text x="87.5" y="25" fill="black" font-size="15" font-weight="700" text-anchor="middle">
    <title>Схема КИП насосов охлаждения бассейна выдержки</title>
ASRK_KPM21</text>
  <g>
    <circle cx="865.372" cy="225" r="25" fill="Col_Grey2" stroke="black" stroke-width="1"/> 
    <line x1="846.122" y1="225.75" x2="886.122" y2="225.75" stroke="black" stroke-dasharray="4,5"/> 
    <rect x="845.372" y="217.25" width="40" height="15.75" rx="0" ry="0" fill="Col_Grey4" stroke="black" stroke-width="1"/> 
  </g>
  <g>
    <circle cx="1273.37" cy="932.75" r="25" fill="Col_Grey2" stroke="black" stroke-width="1"/> 
    <line x1="1254.12" y1="933.5" x2="1294.12" y2="933.5" stroke="black" stroke-dasharray="4,5"/> 
    <rect x="1253.37" y="925" width="40" height="15.75" rx="0" ry="0" fill="Col_Grey4" stroke="black" stroke-width="1"/> 
  </g>
  <g>
    <polyline points="866.817,255 889.317,300 843.817,300 866.817,255" fill="Col_Grey4" stroke="black" stroke-width="1"/> 
  </g>
  <g>
    <polyline points="1271.82,843.15 1294.32,888.15 1248.82,888.15 1271.82,843.15" fill="Col_Grey4" stroke="black" stroke-width="1"/> 
  </g>
  <rect x="899.898" y="250.213" width="150" height="21.2122" rx="0" ry="0" fill="Col_BGItemSel"/> 
  <image x="899.718" y="273.939" width="175" height="25" xlink:href="DS_ana_ASRK.svg">
    <title>&quot;20KPM21CR001B01&quot;</title>
    <rt:dyn type="IsExp" mode="constant" value="true"/> 
    <rt:dyn type="ShowFrame" mode="constant" value="true"/> 
    <rt:dyn type="Color_Readings" mode="constant" value="true"/> 
    <rt:dyn type="FKKS" mode="constant" value="&quot;20KPM21CR001B01&quot;"/> 
    <rt:dyn type="ValueToTheRight" mode="constant" value="false"/> 
    <rt:dyn type="SetBounds" mode="constant" value="true"/> 
    <rt:dyn type="Show_Map" mode="constant" value="false"/> 
    <rt:dyn type="X" mode="constant" value="&quot;G&quot;"/> 
  </image>
  <text x="903.958" y="267.637" fill="black" font-size="18" text-anchor="start">20KPM21CR001</text>
  <rect x="1302.75" y="840" width="150" height="21.2122" rx="0" ry="0" fill="Col_BGItemSel"/> 
  <image x="1302.57" y="863.726" width="175" height="25" xlink:href="DS_ana_ASRK.svg">
    <title>&quot;20KPM21CR002B01&quot;</title>
    <rt:dyn type="IsExp" mode="constant" value="true"/> 
    <rt:dyn type="ShowFrame" mode="constant" value="true"/> 
    <rt:dyn type="Color_Readings" mode="constant" value="true"/> 
    <rt:dyn type="FKKS" mode="constant" value="&quot;20KPM21CR002B01&quot;"/> 
    <rt:dyn type="ValueToTheRight" mode="constant" value="false"/> 
    <rt:dyn type="SetBounds" mode="constant" value="true"/> 
    <rt:dyn type="Show_Map" mode="constant" value="false"/> 
    <rt:dyn type="X" mode="constant" value="&quot;G&quot;"/> 
  </image>
  <text x="1306.81" y="857.424" fill="black" font-size="18" text-anchor="start">20KPM21CR002</text>
  <text x="1505" y="882" fill="black" font-size="15">Гр/ч</text>
  <text x="1107" y="295" fill="black" font-size="15">Гр/ч</text>
  <g>
    <text x="1103" y="246" fill="black" font-size="15">Бк/м</text>
    <text x="1140" y="235" fill="black" font-size="12">3</text>
  </g>
  <g>
    <text x="1493" y="950" fill="black" font-size="15">Бк/м</text>
    <text x="1530" y="939" fill="black" font-size="12">3</text>
  </g>
</svg>
