<?xml  version="1.0" encoding="windows-1251"?>
<svg color="Col_BGSand" xmlns="http://www.w3.org/2000/svg" xmlns:rt="http://www.rts.co.at/2001/XMLSchema/RtSvgPL" xmlns:xlink="http://www.w3.org/1999/xlink" xmlns:xsi="http://www.w3.org/2001/XMLSchema-instance" xsi:schemaLocation="http://www.w3.org/2000/svg C:\RTS\RtSvg\XML\SVG.xsd" viewBox="0 0 1914 1000" width="1914" height="1000" id="asrk_kle42">
  <title>РК систем вентилляции помещений НЭ и СВО в здании UKC (20KLE42,22)</title>
  <rt:model modelversion="7.2.0.24" comment="UMod 7_all_asrk&#10;LMod 7_asrk_kle24&#10;RMod 7_asrk_kpf" revision="3"/> 
  <line x1="862" y1="502" x2="862" y2="502" stroke="black"/> 
  <text x="975" y="25" font-size="30" font-weight="700" text-anchor="middle">РК систем вентилляции помещений НЭ и СВО в здании UKC (20KLE42,22)</text>
  <line x1="1878.5" y1="150" x2="1175" y2="150" stroke="black" stroke-width="3"/> 
  <line x1="1878" y1="150" x2="1878" y2="923" stroke="black" stroke-width="3"/> 
  <line x1="721.347" y1="771.666" x2="721.347" y2="921.666" stroke="black" stroke-width="3"/> 
  <line x1="487.531" y1="921.666" x2="925" y2="921.666" stroke="black" stroke-width="3"/> 
  <line x1="489.571" y1="771.666" x2="721.347" y2="771.666" stroke="black" stroke-width="3"/> 
  <text x="446.347" y="821.666" font-size="15">20KLE22<tspan x="446.347" dy="15">AN001</tspan>
  </text>
  <text x="541.347" y="960.952" font-size="15">20KLE22<tspan x="541.347" dy="15">AA202</tspan>
  </text>
  <image x="536.347" y="879.166" width="70" height="65" xlink:href="DS_Reg_valve.svg" transform="rotate(0 0 0) flipX() flipX() flipY(-10) flipY(-10)">
    <rt:dyn type="KKS" mode="constant" value="&quot;NULL&quot;"/> 
    <rt:dyn type="Operate" mode="constant" value="true"/> 
    <rt:dyn type="DATA_NARY" mode="constant" value="&quot;TPTS&quot;"/> 
    <rt:dyn type="NoSP" mode="constant" value="true"/> 
  </image>
  <text x="446.347" y="971.666" font-size="15">20KLE22<tspan x="446.347" dy="15">AN002</tspan>
  </text>
  <line x1="271.347" y1="907.666" x2="457.939" y2="907.666" stroke="black" stroke-width="3"/> 
  <image x="436.347" y="886.666" width="70" height="70" xlink:href="DS_motor.svg" transform="flipX(-1.26362e-005)">
    <rt:dyn type="KKS" mode="constant" value="&quot;NULL&quot;"/> 
    <rt:dyn type="DATA_NARY" mode="constant" value="&quot;TPTS&quot;"/> 
    <rt:dyn type="Operate" mode="constant" value="true"/> 
    <rt:dyn type="DeviceType" mode="constant" value="&quot;fan&quot;"/> 
  </image>
  <image x="639.667" y="878.667" width="70" height="65" xlink:href="DS_CO_valve.svg">
    <rt:dyn type="KKS" mode="constant" value="&quot;NULL&quot;"/> 
    <rt:dyn type="DATA_NARY" mode="constant" value="&quot;TPTS&quot;"/> 
    <rt:dyn type="Operate" mode="constant" value="true"/> 
  </image>
  <text x="645.667" y="959.432" font-size="15">20KLE22<tspan x="645.667" dy="15">AA010</tspan>
  </text>
  <line x1="271.347" y1="757.666" x2="457.939" y2="757.666" stroke="black" stroke-width="3"/> 
  <image x="639.667" y="728.667" width="70" height="65" xlink:href="DS_CO_valve.svg">
    <rt:dyn type="KKS" mode="constant" value="&quot;NULL&quot;"/> 
    <rt:dyn type="DATA_NARY" mode="constant" value="&quot;TPTS&quot;"/> 
    <rt:dyn type="Operate" mode="constant" value="true"/> 
  </image>
  <text x="645.667" y="808.432" font-size="15">20KLE22<tspan x="645.667" dy="15">AA009</tspan>
  </text>
  <image x="436.347" y="736.666" width="70" height="70" xlink:href="DS_motor.svg" transform="flipX(-1.26362e-005)">
    <rt:dyn type="KKS" mode="constant" value="&quot;NULL&quot;"/> 
    <rt:dyn type="DATA_NARY" mode="constant" value="&quot;TPTS&quot;"/> 
    <rt:dyn type="Operate" mode="constant" value="true"/> 
    <rt:dyn type="DeviceType" mode="constant" value="&quot;fan&quot;"/> 
  </image>
  <line x1="271.347" y1="755.85" x2="271.347" y2="907.89" stroke="black" stroke-width="3"/> 
  <line x1="196.347" y1="821.696" x2="271.347" y2="821.696" stroke="black" stroke-width="3"/> 
  <text x="129.515" y="818.182" font-size="15">В вент<tspan x="129.515" dy="15">трубу</tspan>
  </text>
  <line x1="925" y1="397" x2="925" y2="922" stroke="black" stroke-width="3"/> 
  <line x1="924.455" y1="922" x2="1879" y2="922.25" stroke="black" stroke-width="3"/> 
  <image x="953.088" y="879.5" width="70" height="65" xlink:href="DS_CO_valve.svg">
    <rt:dyn type="KKS" mode="constant" value="&quot;NULL&quot;"/> 
    <rt:dyn type="DATA_NARY" mode="constant" value="&quot;TPTS&quot;"/> 
    <rt:dyn type="Operate" mode="constant" value="true"/> 
  </image>
  <image x="1790.7" y="879.5" width="70" height="65" xlink:href="DS_CO_valve.svg">
    <rt:dyn type="KKS" mode="constant" value="&quot;NULL&quot;"/> 
    <rt:dyn type="DATA_NARY" mode="constant" value="&quot;TPTS&quot;"/> 
    <rt:dyn type="Operate" mode="constant" value="true"/> 
  </image>
  <g transform="scale(0.73 0.73 439.5 285.5)">
    <rect x="891.673" y="1880.31" width="65" height="65" rx="0" ry="0" fill="Col_Grey4" transform="rotate(360 532.506 746.174) rotate(0 532.1 745.087) rotate(314.645 525.5 325)"/> 
    <line x1="1935.35" y1="1114.65" x2="1935.35" y2="1201.01" stroke="black" stroke-dasharray="5,5"/> 
  </g>
  <g transform="scale(0.73 0.73 439.5 285.5)">
    <rect x="819.472" y="1807.22" width="65" height="65" rx="0" ry="0" fill="Col_Grey4" transform="rotate(360 532.506 746.174) rotate(0 532.1 745.087) rotate(314.645 525.5 325)"/> 
    <line x1="1832.61" y1="1114.65" x2="1832.61" y2="1201.02" stroke="black" stroke-dasharray="5,5"/> 
  </g>
  <g transform="scale(0.73 0.73 439.5 285.5)">
    <rect x="498.793" y="1481.73" width="65" height="65" rx="0" ry="0" fill="Col_Grey4" transform="rotate(360 532.506 746.174) rotate(0 532.1 745.087) rotate(314.645 525.5 325)"/> 
    <line x1="1375.68" y1="1114.08" x2="1375.68" y2="1200.45" stroke="black" stroke-dasharray="5,5"/> 
  </g>
  <g transform="scale(0.73 0.73 439.5 285.5)">
    <rect x="684.172" y="1670.23" width="65" height="65" rx="0" ry="0" fill="Col_Grey4" transform="rotate(360 532.506 746.174) rotate(0 532.1 745.087) rotate(314.645 525.5 325)"/> 
    <line x1="1640.06" y1="1114.65" x2="1640.06" y2="1201.02" stroke="black" stroke-dasharray="5,5"/> 
  </g>
  <text x="1788.58" y="960.38" font-size="15">20KLE22<tspan x="1788.58" dy="15">AA004</tspan>
  </text>
  <text x="930.945" y="961.286" font-size="15">20KLE22AA008</text>
  <text x="1434.5" y="969.584" font-size="15">20KLE22AT104</text>
  <text x="1625.69" y="961.584" font-size="15">20KLE22<tspan x="1625.69" dy="15">AH004</tspan>
  </text>
  <line x1="926.003" y1="747" x2="1878.5" y2="747.25" stroke="black" stroke-width="3"/> 
  <image x="953.088" y="705.333" width="70" height="65" xlink:href="DS_CO_valve.svg">
    <rt:dyn type="KKS" mode="constant" value="&quot;NULL&quot;"/> 
    <rt:dyn type="DATA_NARY" mode="constant" value="&quot;TPTS&quot;"/> 
    <rt:dyn type="Operate" mode="constant" value="true"/> 
  </image>
  <image x="1790.7" y="704.5" width="70" height="65" xlink:href="DS_CO_valve.svg">
    <rt:dyn type="KKS" mode="constant" value="&quot;NULL&quot;"/> 
    <rt:dyn type="DATA_NARY" mode="constant" value="&quot;TPTS&quot;"/> 
    <rt:dyn type="Operate" mode="constant" value="true"/> 
  </image>
  <g transform="scale(0.73 0.73 439.5 285.5)">
    <rect x="1061.42" y="1712.65" width="65" height="65" rx="0" ry="0" fill="Col_Grey4" transform="rotate(360 532.506 746.174) rotate(0 532.1 745.087) rotate(314.645 525.5 325)"/> 
    <line x1="1935.35" y1="876.063" x2="1935.35" y2="962.426" stroke="black" stroke-dasharray="5,5"/> 
  </g>
  <g transform="scale(0.73 0.73 439.5 285.5)">
    <rect x="989.219" y="1639.56" width="65" height="65" rx="0" ry="0" fill="Col_Grey4" transform="rotate(360 532.506 746.174) rotate(0 532.1 745.087) rotate(314.645 525.5 325)"/> 
    <line x1="1832.61" y1="876.069" x2="1832.61" y2="962.433" stroke="black" stroke-dasharray="5,5"/> 
  </g>
  <g transform="scale(0.73 0.73 439.5 285.5)">
    <rect x="668.54" y="1314.07" width="65" height="65" rx="0" ry="0" fill="Col_Grey4" transform="rotate(360 532.506 746.174) rotate(0 532.1 745.087) rotate(314.645 525.5 325)"/> 
    <line x1="1375.68" y1="875.498" x2="1375.68" y2="961.862" stroke="black" stroke-dasharray="5,5"/> 
  </g>
  <g transform="scale(0.73 0.73 439.5 285.5)">
    <rect x="853.919" y="1502.57" width="65" height="65" rx="0" ry="0" fill="Col_Grey4" transform="rotate(360 532.506 746.174) rotate(0 532.1 745.087) rotate(314.645 525.5 325)"/> 
    <line x1="1640.06" y1="876.069" x2="1640.06" y2="962.433" stroke="black" stroke-dasharray="5,5"/> 
  </g>
  <text x="1788.58" y="785.796" font-size="15">20KLE22<tspan x="1788.58" dy="15">AA003</tspan>
  </text>
  <text x="930.945" y="786.796" font-size="15">20KLE22AA007</text>
  <text x="1434.5" y="794.417" font-size="15">20KLE22AT103</text>
  <text x="1625.69" y="792.417" font-size="15">20KLE22<tspan x="1625.69" dy="15">AH003</tspan>
  </text>
  <line x1="926" y1="572" x2="1878" y2="572.5" stroke="black" stroke-width="3"/> 
  <image x="953.088" y="529.497" width="70" height="65" xlink:href="DS_CO_valve.svg">
    <rt:dyn type="KKS" mode="constant" value="&quot;NULL&quot;"/> 
    <rt:dyn type="DATA_NARY" mode="constant" value="&quot;TPTS&quot;"/> 
    <rt:dyn type="Operate" mode="constant" value="true"/> 
  </image>
  <image x="1790.7" y="529.5" width="70" height="65" xlink:href="DS_CO_valve.svg">
    <rt:dyn type="KKS" mode="constant" value="&quot;NULL&quot;"/> 
    <rt:dyn type="DATA_NARY" mode="constant" value="&quot;TPTS&quot;"/> 
    <rt:dyn type="Operate" mode="constant" value="true"/> 
  </image>
  <g transform="scale(0.73 0.73 439.5 285.5)">
    <rect x="1232.79" y="1543.39" width="65" height="65" rx="0" ry="0" fill="Col_Grey4" transform="rotate(360 532.506 746.174) rotate(0 532.1 745.087) rotate(314.645 525.5 325)"/> 
    <line x1="1935.35" y1="635.191" x2="1935.35" y2="721.555" stroke="black" stroke-dasharray="5,5"/> 
  </g>
  <g transform="scale(0.73 0.73 439.5 285.5)">
    <rect x="1160.59" y="1470.3" width="65" height="65" rx="0" ry="0" fill="Col_Grey4" transform="rotate(360 532.506 746.174) rotate(0 532.1 745.087) rotate(314.645 525.5 325)"/> 
    <line x1="1832.61" y1="635.197" x2="1832.61" y2="721.562" stroke="black" stroke-dasharray="5,5"/> 
  </g>
  <g transform="scale(0.73 0.73 439.5 285.5)">
    <rect x="839.911" y="1144.81" width="65" height="65" rx="0" ry="0" fill="Col_Grey4" transform="rotate(360 532.506 746.174) rotate(0 532.1 745.087) rotate(314.645 525.5 325)"/> 
    <line x1="1375.68" y1="634.627" x2="1375.68" y2="720.991" stroke="black" stroke-dasharray="5,5"/> 
  </g>
  <g transform="scale(0.73 0.73 439.5 285.5)">
    <rect x="1025.29" y="1333.31" width="65" height="65" rx="0" ry="0" fill="Col_Grey4" transform="rotate(360 532.506 746.174) rotate(0 532.1 745.087) rotate(314.645 525.5 325)"/> 
    <line x1="1640.06" y1="635.197" x2="1640.06" y2="721.561" stroke="black" stroke-dasharray="5,5"/> 
  </g>
  <text x="1788.58" y="609.265" font-size="15">20KLE22<tspan x="1788.58" dy="15">AA002</tspan>
  </text>
  <text x="930.945" y="611.286" font-size="15">20KLE22AA006</text>
  <text x="1434.5" y="619.581" font-size="15">20KLE22AT102</text>
  <text x="1625.69" y="612.581" font-size="15">20KLE22<tspan x="1625.69" dy="15">AH002</tspan>
  </text>
  <line x1="924.455" y1="397" x2="1878.5" y2="397" stroke="black" stroke-width="3"/> 
  <image x="953.088" y="354.499" width="70" height="65" xlink:href="DS_CO_valve.svg">
    <rt:dyn type="KKS" mode="constant" value="&quot;NULL&quot;"/> 
    <rt:dyn type="DATA_NARY" mode="constant" value="&quot;TPTS&quot;"/> 
    <rt:dyn type="Operate" mode="constant" value="true"/> 
  </image>
  <image x="1790.7" y="354.5" width="70" height="65" xlink:href="DS_CO_valve.svg">
    <rt:dyn type="KKS" mode="constant" value="&quot;NULL&quot;"/> 
    <rt:dyn type="DATA_NARY" mode="constant" value="&quot;TPTS&quot;"/> 
    <rt:dyn type="Operate" mode="constant" value="true"/> 
  </image>
  <g transform="scale(0.73 0.73 439.5 285.5)">
    <rect x="1406.76" y="1378.39" width="65" height="65" rx="0" ry="0" fill="Col_Grey4" transform="rotate(360 532.506 746.174) rotate(0 532.1 745.087) rotate(314.645 525.5 325)"/> 
    <line x1="1940.2" y1="395.467" x2="1940.2" y2="481.831" stroke="black" stroke-dasharray="5,5"/> 
  </g>
  <g transform="scale(0.73 0.73 439.5 285.5)">
    <rect x="1334.56" y="1305.3" width="65" height="65" rx="0" ry="0" fill="Col_Grey4" transform="rotate(360 532.506 746.174) rotate(0 532.1 745.087) rotate(314.645 525.5 325)"/> 
    <line x1="1837.46" y1="395.473" x2="1837.46" y2="481.838" stroke="black" stroke-dasharray="5,5"/> 
  </g>
  <g transform="scale(0.73 0.73 439.5 285.5)">
    <rect x="1013.88" y="979.8" width="65" height="65" rx="0" ry="0" fill="Col_Grey4" transform="rotate(360 532.506 746.174) rotate(0 532.1 745.087) rotate(314.645 525.5 325)"/> 
    <line x1="1380.53" y1="394.903" x2="1380.53" y2="481.267" stroke="black" stroke-dasharray="5,5"/> 
  </g>
  <g transform="scale(0.73 0.73 439.5 285.5)">
    <rect x="1199.26" y="1168.31" width="65" height="65" rx="0" ry="0" fill="Col_Grey4" transform="rotate(360 532.506 746.174) rotate(0 532.1 745.087) rotate(314.645 525.5 325)"/> 
    <line x1="1644.91" y1="395.473" x2="1644.91" y2="481.836" stroke="black" stroke-dasharray="5,5"/> 
  </g>
  <text x="1788.58" y="433.755" font-size="15">20KLE22<tspan x="1788.58" dy="15">AA001</tspan>
  </text>
  <text x="930.945" y="435.776" font-size="15">20KLE22AA005</text>
  <text x="1438.05" y="439.583" font-size="15">20KLE22AT101</text>
  <text x="1625.69" y="445.583" font-size="15">20KLE22<tspan x="1625.69" dy="15">AH001</tspan>
  </text>
  <line x1="1325" y1="150" x2="1325" y2="275" stroke="black" stroke-dasharray="5,5" stroke-width="1"/> 
  <line x1="26.1509" y1="274" x2="26.1509" y2="703.03" stroke="black" stroke-width="3"/> 
  <line x1="750" y1="275" x2="25" y2="275" stroke="black" stroke-width="3"/> 
  <image x="39.0965" y="232.5" width="70" height="65" xlink:href="DS_CO_valve.svg">
    <rt:dyn type="KKS" mode="constant" value="&quot;NULL&quot;"/> 
    <rt:dyn type="DATA_NARY" mode="constant" value="&quot;TPTS&quot;"/> 
    <rt:dyn type="Operate" mode="constant" value="true"/> 
  </image>
  <text x="36.9753" y="311.633" font-size="15">20KLE42<tspan x="36.9753" dy="15">AA001</tspan>
  </text>
  <g transform="scale(0.73 0.73 439.5 285.5)">
    <rect x="208.426" y="-72.7083" width="65" height="65" rx="0" ry="0" fill="Col_Grey4" transform="rotate(360 532.506 746.174) rotate(0 532.1 745.087) rotate(314.645 525.5 325)"/> 
    <line x1="65.6947" y1="228.354" x2="65.6947" y2="314.718" stroke="black" stroke-dasharray="5,5"/> 
  </g>
  <text x="137.272" y="319.898" font-size="15">20KLE42<tspan x="137.272" dy="15">AT001</tspan>
  </text>
  <line x1="758" y1="262" x2="901" y2="262" stroke="black" stroke-width="3"/> 
  <image x="715.75" y="240" width="70" height="70" xlink:href="DS_motor.svg" transform="flipX(-8.58556e-005) flipX(-1.26362e-005)">
    <rt:dyn type="KKS" mode="constant" value="&quot;NULL&quot;"/> 
    <rt:dyn type="DATA_NARY" mode="constant" value="&quot;TPTS&quot;"/> 
    <rt:dyn type="Operate" mode="constant" value="true"/> 
    <rt:dyn type="DeviceType" mode="constant" value="&quot;fan&quot;"/> 
  </image>
  <line x1="900" y1="261" x2="900" y2="555" stroke="black" stroke-width="3"/> 
  <line x1="900" y1="278" x2="1025" y2="278" stroke="black" stroke-width="3"/> 
  <rect x="1026.39" y="103" width="173.612" height="200" rx="0" ry="0" fill="none" stroke="black" stroke-width="1"/> 
  <polygon points="-545.084,2559.31 -557.584,2584.81 -531.584,2584.31" transform="flipX(1167.09) rotate(90 169.605 77.602) flipY(392.405) rotate(90 1392.93 388.195) scale(0.62 0.62 1341 369.75) rotate(270 1341 369.75)"/> 
  <text x="1050" y="128" font-size="15">Помещения<tspan x="1050" dy="15">здания UKC</tspan>
  </text>
  <text x="724.122" y="325" font-size="15">20KLE42<tspan x="724.122" dy="15">AN001</tspan>
  </text>
  <text x="819.245" y="299.755" font-size="15">20KLE42<tspan x="819.245" dy="15">AA601</tspan>
  </text>
  <polygon points="-338.632,2802.84 -351.132,2828.34 -325.132,2827.84" transform="flipX(1167.09) rotate(90 169.605 77.602) flipY(392.405) rotate(90 1392.93 388.195) scale(0.62 0.62 1341 369.75) rotate(270 1341 369.75)"/> 
  <image x="815" y="231.633" width="70" height="52.5" xlink:href="DS_reflux_valve.svg" transform="flipX(0.000250627)"/> 
  <text x="541.347" y="810.952" font-size="15">20KLE22<tspan x="541.347" dy="15">AA201</tspan>
  </text>
  <image x="536.347" y="729.166" width="70" height="65" xlink:href="DS_Reg_valve.svg" transform="rotate(0 0 0) flipX() flipX() flipY(-10) flipY(-10)">
    <rt:dyn type="KKS" mode="constant" value="&quot;NULL&quot;"/> 
    <rt:dyn type="Operate" mode="constant" value="true"/> 
    <rt:dyn type="DATA_NARY" mode="constant" value="&quot;TPTS&quot;"/> 
    <rt:dyn type="NoSP" mode="constant" value="true"/> 
  </image>
  <line x1="750" y1="567.5" x2="25" y2="567.75" stroke="black" stroke-width="3"/> 
  <image x="39.0965" y="525.378" width="70" height="65" xlink:href="DS_CO_valve.svg">
    <rt:dyn type="KKS" mode="constant" value="&quot;NULL&quot;"/> 
    <rt:dyn type="DATA_NARY" mode="constant" value="&quot;TPTS&quot;"/> 
    <rt:dyn type="Operate" mode="constant" value="true"/> 
  </image>
  <text x="36.9753" y="604.51" font-size="15">20KLE42<tspan x="36.9753" dy="15">AA002</tspan>
  </text>
  <g transform="scale(0.73 0.73 439.5 285.5)">
    <rect x="-76.691" y="209.552" width="65" height="65" rx="0" ry="0" fill="Col_Grey4" transform="rotate(360 532.506 746.174) rotate(0 532.1 745.087) rotate(314.645 525.5 325)"/> 
    <line x1="66.1607" y1="629.556" x2="66.1607" y2="715.92" stroke="black" stroke-dasharray="5,5"/> 
  </g>
  <text x="137.612" y="612.776" font-size="15">20KLE42<tspan x="137.612" dy="15">AT002</tspan>
  </text>
  <line x1="758.34" y1="554.878" x2="901.34" y2="554.878" stroke="black" stroke-width="3"/> 
  <image x="716.09" y="532.878" width="70" height="70" xlink:href="DS_motor.svg" transform="flipX(-8.58556e-005) flipX(-1.26362e-005)">
    <rt:dyn type="KKS" mode="constant" value="&quot;NULL&quot;"/> 
    <rt:dyn type="DATA_NARY" mode="constant" value="&quot;TPTS&quot;"/> 
    <rt:dyn type="Operate" mode="constant" value="true"/> 
    <rt:dyn type="DeviceType" mode="constant" value="&quot;fan&quot;"/> 
  </image>
  <text x="724.462" y="617.878" font-size="15">20KLE42<tspan x="724.462" dy="15">AN002</tspan>
  </text>
  <text x="819.585" y="592.633" font-size="15">20KLE42<tspan x="819.585" dy="15">AA602</tspan>
  </text>
  <image x="815.34" y="524.511" width="70" height="52.5" xlink:href="DS_reflux_valve.svg" transform="flipX(0.000250627)"/> 
  <g>
    <rect x="1628.21" y="360.455" width="70" height="70" rx="0" ry="0" fill="Col_Grey4"/> 
    <image x="1638.21" y="367.955" width="50" height="55" xlink:href="DS_switch.svg">
      <rt:dyn type="KKS" mode="constant" value="&quot;NULL&quot;"/> 
      <rt:dyn type="DATA_NARY" mode="constant" value="&quot;TPTS&quot;"/> 
      <rt:dyn type="Operate" mode="constant" value="TRUE"/> 
    </image>
  </g>
  <g>
    <rect x="1628.2" y="528.637" width="70" height="70" rx="0" ry="0" fill="Col_Grey4"/> 
    <image x="1638.2" y="536.137" width="50" height="55" xlink:href="DS_switch.svg">
      <rt:dyn type="KKS" mode="constant" value="&quot;NULL&quot;"/> 
      <rt:dyn type="DATA_NARY" mode="constant" value="&quot;TPTS&quot;"/> 
      <rt:dyn type="Operate" mode="constant" value="true"/> 
    </image>
  </g>
  <g>
    <rect x="1628.2" y="707.425" width="70" height="70" rx="0" ry="0" fill="Col_Grey4"/> 
    <image x="1638.2" y="714.925" width="50" height="55" xlink:href="DS_switch.svg">
      <rt:dyn type="KKS" mode="constant" value="&quot;NULL&quot;"/> 
      <rt:dyn type="DATA_NARY" mode="constant" value="&quot;TPTS&quot;"/> 
      <rt:dyn type="Operate" mode="constant" value="true"/> 
    </image>
  </g>
  <g>
    <rect x="1628.2" y="877.122" width="70" height="70" rx="0" ry="0" fill="Col_Grey4"/> 
    <image x="1638.2" y="884.622" width="50" height="55" xlink:href="DS_switch.svg">
      <rt:dyn type="KKS" mode="constant" value="&quot;NULL&quot;"/> 
      <rt:dyn type="DATA_NARY" mode="constant" value="&quot;TPTS&quot;"/> 
      <rt:dyn type="Operate" mode="constant" value="true"/> 
    </image>
  </g>
  <polygon points="537.797,3708.59 525.297,3734.09 551.297,3733.59" transform="flipX(328.541) flipX(1167.09) rotate(90 169.605 77.602) flipY(392.405) rotate(90 1392.93 388.195) scale(0.62 0.62 1341 369.75) rotate(270 1341 369.75)"/> 
  <rect x="579.818" y="56.0604" width="104.849" height="199.485" rx="0" ry="0" fill="none" stroke="black" stroke-width="1"/> 
  <text x="690.667" y="200.545" font-size="15">20QKK01<tspan x="690.667" dy="15">AA011</tspan>
  </text>
  <text x="585.667" y="199.545" font-size="15">20QKK11<tspan x="585.667" dy="15">AA211</tspan>
  </text>
  <polygon points="0.744141,-55.6038 -11.7559,-30.1038 14.2441,-30.6038" transform="rotate(90 1392.93 388.195) scale(0.62 0.62 1341 369.75) rotate(270 1341 369.75)"/> 
  <text x="576.667" y="310.787" font-size="15">20KLE42AC001</text>
  <image x="543.758" y="107.576" width="70" height="65" xlink:href="DS_Reg_valve.svg" transform="flipY() rotate(270 0 0) flipX() flipX() flipY(-10) flipY(-10)">
    <rt:dyn type="KKS" mode="constant" value="&quot;NULL&quot;"/> 
    <rt:dyn type="Operate" mode="constant" value="true"/> 
    <rt:dyn type="DATA_NARY" mode="constant" value="&quot;TPTS&quot;"/> 
    <rt:dyn type="NoSP" mode="constant" value="true"/> 
  </image>
  <image x="640.667" y="121.045" width="70" height="65" xlink:href="DS_CO_valve.svg" transform="rotate(270 0 -9.99997)">
    <rt:dyn type="KKS" mode="constant" value="&quot;NULL&quot;"/> 
    <rt:dyn type="DATA_NARY" mode="constant" value="&quot;TPTS&quot;"/> 
    <rt:dyn type="Operate" mode="constant" value="true"/> 
  </image>
  <g>
    <polygon points="609.297,247.131 659.297,247.631 659.297,297.131 609.297,297.131" fill="Col_Grey4" stroke="black" stroke-width="2"/> 
    <line x1="624.297" y1="272.631" x2="634.797" y2="261.631" stroke="black" stroke-width="3"/> 
    <line x1="634.297" y1="281.631" x2="644.297" y2="272.131" stroke="black" stroke-width="3"/> 
    <line x1="634.297" y1="282.131" x2="634.297" y2="262.131" stroke="black" stroke-width="3"/> 
    <line x1="609.297" y1="272.631" x2="625.047" y2="272.631" stroke="black" stroke-width="3"/> 
    <line x1="643.627" y1="272.131" x2="659.377" y2="272.131" stroke="black" stroke-width="3"/> 
  </g>
  <polygon points="168.486,107.152 155.986,132.652 181.986,132.152" transform="flipY(130.905) rotate(90 1392.93 388.195) scale(0.62 0.62 1341 369.75) rotate(270 1341 369.75)"/> 
  <rect x="346.302" y="56.0604" width="104.849" height="199.485" rx="0" ry="0" fill="none" stroke="black" stroke-width="1"/> 
  <text x="457.151" y="200.545" font-size="15">20SBC13<tspan x="457.151" dy="15">AA005</tspan>
  </text>
  <text x="352.151" y="199.545" font-size="15">20SBC14<tspan x="352.151" dy="15">AA205</tspan>
  </text>
  <image x="366.151" y="43.5454" width="75" height="25" xlink:href="obj_link.svg">
    <rt:dyn type="TextStr" mode="constant" value="&quot;SBC&quot;"/> 
  </image>
  <polygon points="-375.894,-55.6039 -388.394,-30.1039 -362.394,-30.6039" transform="rotate(90 1392.93 388.195) scale(0.62 0.62 1341 369.75) rotate(270 1341 369.75)"/> 
  <text x="343.151" y="310.787" font-size="15">20KLE42AH001</text>
  <image x="310.243" y="109.09" width="70" height="65" xlink:href="DS_Reg_valve.svg" transform="flipY() rotate(270 0 0) flipX() flipX() flipY(-10) flipY(-10)">
    <rt:dyn type="KKS" mode="constant" value="&quot;NULL&quot;"/> 
    <rt:dyn type="Operate" mode="constant" value="true"/> 
    <rt:dyn type="DATA_NARY" mode="constant" value="&quot;TPTS&quot;"/> 
    <rt:dyn type="NoSP" mode="constant" value="true"/> 
  </image>
  <image x="407.151" y="121.045" width="70" height="65" xlink:href="DS_CO_valve.svg" transform="rotate(270 0 -9.99997)">
    <rt:dyn type="KKS" mode="constant" value="&quot;NULL&quot;"/> 
    <rt:dyn type="DATA_NARY" mode="constant" value="&quot;TPTS&quot;"/> 
    <rt:dyn type="Operate" mode="constant" value="true"/> 
  </image>
  <g>
    <polygon points="375.782,247.131 425.781,247.631 425.781,297.131 375.782,297.131" fill="Col_Grey4" stroke="black" stroke-width="2"/> 
    <line x1="390.782" y1="272.631" x2="401.281" y2="261.631" stroke="black" stroke-width="3"/> 
    <line x1="400.781" y1="281.631" x2="410.781" y2="272.131" stroke="black" stroke-width="3"/> 
    <line x1="400.781" y1="282.131" x2="400.781" y2="262.131" stroke="black" stroke-width="3"/> 
    <line x1="375.782" y1="272.631" x2="391.532" y2="272.631" stroke="black" stroke-width="3"/> 
    <line x1="410.112" y1="272.131" x2="425.862" y2="272.131" stroke="black" stroke-width="3"/> 
  </g>
  <polygon points="-208.152,107.152 -220.652,132.652 -194.652,132.152" transform="flipY(130.905) rotate(90 1392.93 388.195) scale(0.62 0.62 1341 369.75) rotate(270 1341 369.75)"/> 
  <rect x="579.817" y="350.303" width="104.849" height="199.485" rx="0" ry="0" fill="none" stroke="black" stroke-width="1"/> 
  <text x="690.666" y="494.787" font-size="15">20QKK01<tspan x="690.666" dy="15">AA012</tspan>
  </text>
  <text x="585.666" y="493.787" font-size="15">20QKK11<tspan x="585.666" dy="15">AA212</tspan>
  </text>
  <polygon points="0.744064,418.981 -11.7559,444.481 14.2441,443.981" transform="rotate(90 1392.93 388.195) scale(0.62 0.62 1341 369.75) rotate(270 1341 369.75)"/> 
  <text x="576.666" y="605.03" font-size="15">20KLE42AC002</text>
  <image x="543.757" y="401.818" width="70" height="65" xlink:href="DS_Reg_valve.svg" transform="flipY(-1.13687e-013) rotate(270 0 0) flipX() flipX() flipY(-10) flipY(-10)">
    <rt:dyn type="KKS" mode="constant" value="&quot;NULL&quot;"/> 
    <rt:dyn type="Operate" mode="constant" value="true"/> 
    <rt:dyn type="DATA_NARY" mode="constant" value="&quot;TPTS&quot;"/> 
    <rt:dyn type="NoSP" mode="constant" value="true"/> 
  </image>
  <image x="640.666" y="415.287" width="70" height="65" xlink:href="DS_CO_valve.svg" transform="rotate(270 0 -9.99997)">
    <rt:dyn type="KKS" mode="constant" value="&quot;NULL&quot;"/> 
    <rt:dyn type="DATA_NARY" mode="constant" value="&quot;TPTS&quot;"/> 
    <rt:dyn type="Operate" mode="constant" value="true"/> 
  </image>
  <g>
    <polygon points="609.296,541.374 659.296,541.874 659.296,591.374 609.296,591.374" fill="Col_Grey4" stroke="black" stroke-width="2"/> 
    <line x1="624.296" y1="566.874" x2="634.796" y2="555.874" stroke="black" stroke-width="3"/> 
    <line x1="634.296" y1="575.874" x2="644.296" y2="566.374" stroke="black" stroke-width="3"/> 
    <line x1="634.296" y1="576.374" x2="634.296" y2="556.374" stroke="black" stroke-width="3"/> 
    <line x1="609.296" y1="566.874" x2="625.046" y2="566.874" stroke="black" stroke-width="3"/> 
    <line x1="643.626" y1="566.374" x2="659.376" y2="566.374" stroke="black" stroke-width="3"/> 
  </g>
  <polygon points="168.486,-367.433 155.986,-341.933 181.986,-342.433" transform="flipY(130.905) rotate(90 1392.93 388.195) scale(0.62 0.62 1341 369.75) rotate(270 1341 369.75)"/> 
  <rect x="346.303" y="353.333" width="104.849" height="199.485" rx="0" ry="0" fill="none" stroke="black" stroke-width="1"/> 
  <text x="457.152" y="497.818" font-size="15">20SBC13<tspan x="457.152" dy="15">AA006</tspan>
  </text>
  <text x="352.152" y="496.818" font-size="15">20SBC14<tspan x="352.152" dy="15">AA206</tspan>
  </text>
  <image x="366.152" y="340.818" width="75" height="25" xlink:href="obj_link.svg">
    <rt:dyn type="TextStr" mode="constant" value="&quot;SBC&quot;"/> 
  </image>
  <polygon points="-375.894,423.868 -388.394,449.368 -362.394,448.868" transform="rotate(90 1392.93 388.195) scale(0.62 0.62 1341 369.75) rotate(270 1341 369.75)"/> 
  <text x="343.152" y="608.06" font-size="15">20KLE42AH002</text>
  <image x="310.243" y="406.363" width="70" height="65" xlink:href="DS_Reg_valve.svg" transform="flipY(-5.68434e-014) rotate(270 0 0) flipX() flipX() flipY(-10) flipY(-10)">
    <rt:dyn type="KKS" mode="constant" value="&quot;NULL&quot;"/> 
    <rt:dyn type="Operate" mode="constant" value="true"/> 
    <rt:dyn type="DATA_NARY" mode="constant" value="&quot;TPTS&quot;"/> 
    <rt:dyn type="NoSP" mode="constant" value="true"/> 
  </image>
  <image x="407.152" y="418.318" width="70" height="65" xlink:href="DS_CO_valve.svg" transform="rotate(270 0 -9.99997)">
    <rt:dyn type="KKS" mode="constant" value="&quot;NULL&quot;"/> 
    <rt:dyn type="DATA_NARY" mode="constant" value="&quot;TPTS&quot;"/> 
    <rt:dyn type="Operate" mode="constant" value="true"/> 
  </image>
  <g>
    <polygon points="375.782,544.404 425.782,544.904 425.782,594.404 375.782,594.404" fill="Col_Grey4" stroke="black" stroke-width="2"/> 
    <line x1="390.782" y1="569.904" x2="401.282" y2="558.904" stroke="black" stroke-width="3"/> 
    <line x1="400.782" y1="578.904" x2="410.782" y2="569.404" stroke="black" stroke-width="3"/> 
    <line x1="400.782" y1="579.404" x2="400.782" y2="559.404" stroke="black" stroke-width="3"/> 
    <line x1="375.782" y1="569.904" x2="391.532" y2="569.904" stroke="black" stroke-width="3"/> 
    <line x1="410.112" y1="569.404" x2="425.862" y2="569.404" stroke="black" stroke-width="3"/> 
  </g>
  <polygon points="-208.152,-372.32 -220.652,-346.82 -194.652,-347.32" transform="flipY(130.905) rotate(90 1392.93 388.195) scale(0.62 0.62 1341 369.75) rotate(270 1341 369.75)"/> 
  <image x="49.875" y="162.5" width="50" height="55" xlink:href="DS_switch.svg">
    <rt:dyn type="KKS" mode="constant" value="&quot;NULL&quot;"/> 
    <rt:dyn type="DATA_NARY" mode="constant" value="&quot;TPTS&quot;"/> 
    <rt:dyn type="Operate" mode="constant" value="true"/> 
  </image>
  <text x="73" y="141.25" fill="black" font-size="15" text-anchor="middle">20KLE42<tspan x="73" dy="15">AA001E</tspan>
  </text>
  <image x="48.6249" y="456.25" width="50" height="55" xlink:href="DS_switch.svg">
    <rt:dyn type="KKS" mode="constant" value="&quot;NULL&quot;"/> 
    <rt:dyn type="DATA_NARY" mode="constant" value="&quot;TPTS&quot;"/> 
    <rt:dyn type="Operate" mode="constant" value="true"/> 
  </image>
  <text x="71.7499" y="435" fill="black" font-size="15" text-anchor="middle">20KLE42<tspan x="71.7499" dy="15">AA002E</tspan>
  </text>
  <polygon points="-893.879,937.064 -906.379,962.564 -880.379,962.064" transform="rotate(90 1392.93 388.195) scale(0.62 0.62 1341 369.75) rotate(270 1341 369.75)"/> 
  <text x="96" y="25" fill="black" font-size="15" font-weight="700" text-anchor="middle">
    <title>Схема КИП насосов охлаждения бассейна выдержки</title>
ASRK_KLE42</text>
  <image x="289.667" y="715" width="70" height="65" xlink:href="DS_CO_valve.svg">
    <rt:dyn type="KKS" mode="constant" value="&quot;NULL&quot;"/> 
    <rt:dyn type="DATA_NARY" mode="constant" value="&quot;TPTS&quot;"/> 
    <rt:dyn type="Operate" mode="constant" value="true"/> 
  </image>
  <text x="293.667" y="795.765" font-size="15">20KLE22<tspan x="293.667" dy="15">AA011</tspan>
  </text>
  <image x="290.333" y="864.333" width="70" height="65" xlink:href="DS_CO_valve.svg">
    <rt:dyn type="KKS" mode="constant" value="&quot;NULL&quot;"/> 
    <rt:dyn type="DATA_NARY" mode="constant" value="&quot;TPTS&quot;"/> 
    <rt:dyn type="Operate" mode="constant" value="true"/> 
  </image>
  <text x="294.333" y="945.098" font-size="15">20KLE22<tspan x="294.333" dy="15">AA012</tspan>
  </text>
  <image x="595" y="43" width="75" height="25" xlink:href="obj_link.svg">
    <rt:event type="OnClick"/> 
    <rt:dyn type="TextStr" mode="constant" value="&quot;QKK&quot;"/> 
  </image>
  <image x="592" y="337" width="75" height="25" xlink:href="obj_link.svg">
    <rt:event type="OnClick"/> 
    <rt:dyn type="TextStr" mode="constant" value="&quot;QKK&quot;"/> 
  </image>
  <g>
    <rect x="1320.94" y="163" width="150" height="21.2122" rx="0" ry="0" fill="Col_BGItemSel"/> 
    <text x="1325" y="180.424" fill="black" font-size="18" text-anchor="start">20KLE22CR401</text>
  </g>
  <g>
    <rect x="1320.94" y="225" width="150" height="21.2122" rx="0" ry="0" fill="Col_BGItemSel"/> 
    <text x="1325" y="242.424" fill="black" font-size="18" text-anchor="start">20KLE22CR201</text>
  </g>
  <g>
    <text x="1546" y="206" fill="black" font-size="15">Бк/м</text>
    <text x="1583" y="195" fill="black" font-size="12">3</text>
  </g>
  <g>
    <text x="1535" y="268" fill="black" font-size="15">Бк/м</text>
    <text x="1572" y="257" fill="black" font-size="12">3</text>
  </g>
  <g>
    <circle cx="1275.75" cy="200.75" r="25" fill="Col_Grey2" stroke="black" stroke-width="1"/> 
    <polygon points="1275.75,175.75 1255.75,200.75 1275.75,225.75 1295.75,200.75" fill="Col_Grey3" stroke="black" stroke-width="1"/> 
    <polygon points="1255.75,200.75 1295.25,200.5 1275,225" fill="Col_Grey2"/> 
    <polygon points="1275.75,175.75 1255.75,200.75 1275.75,225.75 1295.75,200.75" fill="none" stroke="black" stroke-width="1"/> 
    <line x1="1255.75" y1="200.75" x2="1295.75" y2="200.75" stroke="black" stroke-dasharray="4,5"/> 
  </g>
  <g>
    <circle cx="1275.75" cy="261.8" r="25" fill="Col_Grey2" stroke="black" stroke-width="1"/> 
    <polygon points="1275.75,236.8 1255.75,261.8 1275.75,286.8 1295.75,261.8" fill="Col_Grey3" stroke="black" stroke-width="1"/> 
    <polygon points="1255.75,261.8 1295.25,261.55 1275,286.05" fill="Col_Grey4"/> 
    <polygon points="1256.25,917.95 1295.75,917.7 1275.5,942.2" fill="Col_Grey4" transform="flipY(589.75)"/> 
    <polygon points="1275.75,236.8 1255.75,261.8 1275.75,286.8 1295.75,261.8" fill="none" stroke="black" stroke-width="1"/> 
    <line x1="1255.75" y1="261.8" x2="1295.75" y2="261.8" stroke="black" stroke-dasharray="4,5"/> 
  </g>
  <image x="1314" y="190" width="175" height="25" xlink:href="DS_ana_ASRK.svg">
    <title>&quot;20KLE22CR401B01&quot;</title>
    <rt:dyn type="IsExp" mode="constant" value="true"/> 
    <rt:dyn type="ShowFrame" mode="constant" value="true"/> 
    <rt:dyn type="Color_Readings" mode="constant" value="true"/> 
    <rt:dyn type="FKKS" mode="constant" value="&quot;20KLE22CR401B01&quot;"/> 
    <rt:dyn type="ValueToTheRight" mode="constant" value="false"/> 
    <rt:dyn type="SetBounds" mode="constant" value="true"/> 
    <rt:dyn type="Show_Map" mode="constant" value="false"/> 
    <rt:dyn type="X" mode="constant" value="&quot;A&quot;"/> 
  </image>
  <image x="1313" y="250" width="175" height="25" xlink:href="DS_ana_ASRK.svg">
    <title>&quot;20KLE22CR201B01&quot;</title>
    <rt:dyn type="IsExp" mode="constant" value="true"/> 
    <rt:dyn type="ShowFrame" mode="constant" value="true"/> 
    <rt:dyn type="Color_Readings" mode="constant" value="true"/> 
    <rt:dyn type="FKKS" mode="constant" value="&quot;20KLE22CR201B01&quot;"/> 
    <rt:dyn type="ValueToTheRight" mode="constant" value="false"/> 
    <rt:dyn type="SetBounds" mode="constant" value="true"/> 
    <rt:dyn type="Show_Map" mode="constant" value="false"/> 
    <rt:dyn type="X" mode="constant" value="&quot;A&quot;"/> 
  </image>
</svg>
