<?xml  version="1.0" encoding="windows-1251"?>
<svg color="Col_BGSand" xmlns="http://www.w3.org/2000/svg" xmlns:rt="http://www.rts.co.at/2001/XMLSchema/RtSvgPL" xmlns:xlink="http://www.w3.org/1999/xlink" xmlns:xsi="http://www.w3.org/2001/XMLSchema-instance" xsi:schemaLocation="http://www.w3.org/2000/svg C:\RTS\RtSvg\XML\SVG.xsd" viewBox="0 0 1914 1000" width="1914" height="1000" id="mkg">
  <title>Система вентиляции корпуса генератора</title>
  <rt:model revision="3" modelversion="7.2.0.24" comment="UMod all_skutg&#10;LMod mkf50&#10;RMod mka01"/> 
  <rect x="1096" y="511.5" width="38.4999" height="30.9999" rx="0" ry="0" fill="Col_BGSand" stroke="black" stroke-width="3"/> 
  <rect x="616" y="511.5" width="38.4999" height="30.9999" rx="0" ry="0" fill="Col_BGSand" stroke="black" stroke-width="3"/> 
  <rect x="422.25" y="511.5" width="38.4999" height="30.9999" rx="0" ry="0" fill="Col_BGSand" stroke="black" stroke-width="3"/> 
  <line x1="290.166" y1="509.002" x2="289.833" y2="755.668" stroke="black" stroke-width="3"/> 
  <g>
    <rect x="227" y="97" width="1173" height="416" rx="0" ry="0" fill="gray" stroke="black" stroke-width="3"/> 
    <rect x="945" y="586" width="5" height="0.1" rx="0" ry="0"/> 
    <rect x="207" y="195" width="20" height="175" rx="0" ry="0" fill="gray" stroke="black" stroke-width="3"/> 
    <rect x="1399" y="195" width="20" height="175" rx="0" ry="0" fill="gray" stroke="black" stroke-width="3"/> 
    <rect x="228" y="219" width="47" height="126" rx="0" ry="0" fill="none" stroke="black" stroke-width="3"/> 
    <rect x="550.424" y="218.485" width="525.576" height="126.515" rx="0" ry="0" fill="none" stroke="black" stroke-width="3"/> 
    <g>
      <rect x="275" y="208" width="100" height="151" rx="0" ry="0" fill="none" stroke="black" stroke-width="3"/> 
      <rect x="375" y="194" width="151" height="175" rx="0" ry="0" fill="none" stroke="black" stroke-width="3"/> 
      <g>
        <rect x="275" y="172" width="52" height="36" rx="0" ry="0" fill="none" stroke="black" stroke-width="3"/> 
        <line x1="294" y1="171" x2="294" y2="207" stroke="black" stroke-width="3"/> 
        <line x1="312.5" y1="171" x2="312.5" y2="207" stroke="black" stroke-width="3"/> 
      </g>
      <g>
        <rect x="275.5" y="359" width="52" height="36" rx="0" ry="0" fill="none" stroke="black" stroke-width="3"/> 
        <line x1="294.5" y1="358" x2="294.5" y2="394" stroke="black" stroke-width="3"/> 
        <line x1="313" y1="358" x2="313" y2="394" stroke="black" stroke-width="3"/> 
      </g>
      <line x1="526" y1="194" x2="550" y2="220" stroke="black" stroke-width="3"/> 
      <line x1="526.667" y1="132.181" x2="552" y2="158.514" stroke="black" stroke-width="3" transform="flipY(250.757)"/> 
    </g>
    <g transform="flipX(578.442)">
      <rect x="-193.348" y="206.985" width="100" height="151" rx="0" ry="0" fill="none" stroke="black" stroke-width="3"/> 
      <rect x="-93.348" y="192.985" width="151" height="175" rx="0" ry="0" fill="none" stroke="black" stroke-width="3"/> 
      <g>
        <rect x="-193.348" y="170.985" width="52" height="36" rx="0" ry="0" fill="none" stroke="black" stroke-width="3"/> 
        <line x1="-174.348" y1="169.985" x2="-174.348" y2="205.985" stroke="black" stroke-width="3"/> 
        <line x1="-155.848" y1="169.985" x2="-155.848" y2="205.985" stroke="black" stroke-width="3"/> 
      </g>
      <g>
        <rect x="-192.848" y="357.985" width="52" height="36" rx="0" ry="0" fill="none" stroke="black" stroke-width="3"/> 
        <line x1="-173.848" y1="356.985" x2="-173.848" y2="392.985" stroke="black" stroke-width="3"/> 
        <line x1="-155.348" y1="356.985" x2="-155.348" y2="392.985" stroke="black" stroke-width="3"/> 
      </g>
      <line x1="57.6519" y1="192.985" x2="81.6519" y2="218.985" stroke="black" stroke-width="3"/> 
      <line x1="58.3188" y1="133.196" x2="81.884" y2="158.014" stroke="black" stroke-width="3" transform="flipY(250.757)"/> 
    </g>
    <rect x="1351" y="220" width="47" height="126" rx="0" ry="0" fill="none" stroke="black" stroke-width="3"/> 
    <g>
      <rect x="550" y="109" width="525" height="80" rx="0" ry="0" fill="none" stroke="black" stroke-width="3"/> 
      <g>
        <circle cx="499" cy="152.417" r="9.66656" fill="gray" stroke="black" stroke-width="3"/> 
        <polyline points="494.667,161.333 550,189 550,179.333 505.25,145.25" fill="gray" stroke="black" stroke-width="3"/> 
      </g>
      <g transform="flipX(679.657)">
        <circle cx="232.814" cy="152.185" r="9.66656" fill="gray" stroke="black" stroke-width="3"/> 
        <polyline points="228.481,161.101 283.814,188.768 283.814,179.101 239.064,145.018" fill="gray" stroke="black" stroke-width="3"/> 
      </g>
    </g>
    <g transform="flipY(189.464)">
      <rect x="551" y="-77.322" width="525" height="80" rx="0" ry="0" fill="none" stroke="black" stroke-width="3"/> 
      <g>
        <circle cx="500" cy="-33.905" r="9.66656" fill="gray" stroke="black" stroke-width="3"/> 
        <polyline points="495.667,-24.989 551,2.67801 551,-6.989 506.25,-41.072" fill="gray" stroke="black" stroke-width="3"/> 
      </g>
      <g transform="flipX(679.657)">
        <circle cx="231.814" cy="-34.137" r="9.66656" fill="gray" stroke="black" stroke-width="3"/> 
        <polyline points="227.481,-25.221 282.814,2.44601 282.814,-7.22099 238.064,-41.304" fill="gray" stroke="black" stroke-width="3"/> 
      </g>
    </g>
  </g>
  <text x="1485" y="270.5" font-size="15">Сторона<tspan x="1485" dy="15">турбины</tspan>
  </text>
  <text x="78" y="270.5" font-size="15">Сторона<tspan x="78" dy="15">возбудителя</tspan>
  </text>
  <text x="784.273" y="295" font-size="15">
    <title>Система вентиляции корпуса генератора</title>
20MKA10</text>
  <image x="272.667" y="406.667" width="175" height="25" xlink:href="DS_ana.svg">
    <title>&quot;20MKA20CT002&quot;</title>
    <rt:dyn type="FKKS" mode="constant" value="&quot;20MKA20CT002&quot;"/> 
    <rt:dyn type="ShowFrame" mode="constant" value="true"/> 
    <rt:dyn type="X" mode="constant" value="&quot;T&quot;"/> 
    <rt:dyn type="ValueToTheRight" mode="constant" value="false"/> 
    <rt:dyn type="Color_Readings" mode="constant" value="true"/> 
  </image>
  <image x="272.667" y="446.667" width="175" height="25" xlink:href="DS_ana.svg">
    <title>&quot;20MKA20CT001&quot;</title>
    <rt:dyn type="FKKS" mode="constant" value="&quot;20MKA20CT001&quot;"/> 
    <rt:dyn type="ShowFrame" mode="constant" value="true"/> 
    <rt:dyn type="X" mode="constant" value="&quot;T&quot;"/> 
    <rt:dyn type="ValueToTheRight" mode="constant" value="false"/> 
    <rt:dyn type="Color_Readings" mode="constant" value="true"/> 
  </image>
  <image x="1176.33" y="406" width="175" height="25" xlink:href="DS_ana.svg">
    <title>&quot;20MKA20CT003&quot;</title>
    <rt:dyn type="FKKS" mode="constant" value="&quot;20MKA20CT003&quot;"/> 
    <rt:dyn type="ShowFrame" mode="constant" value="true"/> 
    <rt:dyn type="X" mode="constant" value="&quot;T&quot;"/> 
    <rt:dyn type="ValueToTheRight" mode="constant" value="false"/> 
    <rt:dyn type="Color_Readings" mode="constant" value="true"/> 
  </image>
  <image x="1176.33" y="446" width="175" height="25" xlink:href="DS_ana.svg">
    <title>&quot;20MKA20CT004&quot;</title>
    <rt:dyn type="FKKS" mode="constant" value="&quot;20MKA20CT004&quot;"/> 
    <rt:dyn type="ShowFrame" mode="constant" value="true"/> 
    <rt:dyn type="X" mode="constant" value="&quot;T&quot;"/> 
    <rt:dyn type="ValueToTheRight" mode="constant" value="false"/> 
    <rt:dyn type="Color_Readings" mode="constant" value="true"/> 
  </image>
  <g>
    <line x1="270.167" y1="511.667" x2="269.833" y2="758.333" stroke="black" stroke-width="3"/> 
    <line x1="280.667" y1="511.333" x2="279.833" y2="755.001" stroke="black" stroke-width="3"/> 
    <line x1="300.166" y1="512.335" x2="300" y2="757.333" stroke="black" stroke-width="3"/> 
    <g transform="scale(0.78 0.78 407 786.667)">
      <circle cx="250.59" cy="787.949" r="43" fill="gray" stroke="black" stroke-width="3"/> 
      <circle cx="250.876" cy="787.736" r="35.7141" fill="none" stroke="black" stroke-width="3"/> 
    </g>
  </g>
  <g>
    <polyline points="245,515 223.5,492.5 225,520" fill="Col_BGSand"/> 
    <line x1="227" y1="493" x2="245" y2="513.5" stroke="black" stroke-width="3"/> 
  </g>
  <g transform="flipX(389.814)">
    <polyline points="-602.257,514.414 -623.757,491.914 -622.257,519.414" fill="Col_BGSand"/> 
    <line x1="-620.257" y1="492.414" x2="-602.257" y2="512.914" stroke="black" stroke-width="3"/> 
  </g>
  <image x="50" y="775" width="175" height="25" xlink:href="DS_ana.svg">
    <title>&quot;20MKG12CP001&quot;</title>
    <rt:dyn type="FKKS" mode="constant" value="&quot;20MKG12CP001&quot;"/> 
    <rt:dyn type="ShowFrame" mode="constant" value="true"/> 
    <rt:dyn type="X" mode="constant" value="&quot;P&quot;"/> 
    <rt:dyn type="ValueToTheRight" mode="constant" value="false"/> 
    <rt:dyn type="Color_Readings" mode="constant" value="true"/> 
  </image>
  <g>
    <line x1="145.515" y1="933.333" x2="237" y2="933.333" stroke="black" stroke-width="3"/> 
    <g>
      <circle cx="261" cy="959.558" r="24.2424" fill="Col_BGSand" stroke="black" stroke-width="3"/> 
      <circle cx="261.758" cy="949" r="24.2424" fill="Col_BGSand" stroke="Col_BGSand" stroke-width="3"/> 
    </g>
    <line x1="237" y1="931.75" x2="237" y2="958.75" stroke="black" stroke-width="3"/> 
    <line x1="285.25" y1="821.25" x2="285.25" y2="961" stroke="black" stroke-width="3"/> 
  </g>
  <g transform="flipX(1097.13)">
    <g>
      <line x1="837.427" y1="511.667" x2="837.093" y2="758.333" stroke="black" stroke-width="3"/> 
      <line x1="847.927" y1="511.333" x2="847.093" y2="755.001" stroke="black" stroke-width="3"/> 
      <line x1="867.426" y1="512.335" x2="867.26" y2="757.333" stroke="black" stroke-width="3"/> 
      <g transform="scale(0.78 0.78 407 786.667)">
        <circle cx="977.872" cy="787.949" r="43" fill="gray" stroke="black" stroke-width="3"/> 
        <circle cx="978.158" cy="787.736" r="35.7141" fill="none" stroke="black" stroke-width="3"/> 
      </g>
    </g>
    <g>
      <polyline points="812.26,515 790.76,492.5 792.26,520" fill="Col_BGSand"/> 
      <line x1="794.26" y1="493" x2="812.26" y2="513.5" stroke="black" stroke-width="3"/> 
    </g>
    <g>
      <line x1="712.775" y1="933.333" x2="804.26" y2="933.333" stroke="black" stroke-width="3"/> 
      <g>
        <circle cx="828.26" cy="959.558" r="24.2424" fill="Col_BGSand" stroke="black" stroke-width="3"/> 
        <circle cx="829.018" cy="949" r="24.2424" fill="Col_BGSand" stroke="Col_BGSand" stroke-width="3"/> 
      </g>
      <line x1="804.26" y1="931.75" x2="804.26" y2="958.75" stroke="black" stroke-width="3"/> 
      <line x1="852.51" y1="821.25" x2="852.51" y2="961" stroke="black" stroke-width="3"/> 
    </g>
  </g>
  <line x1="1337.45" y1="511.122" x2="1337.29" y2="756.12" stroke="black" stroke-width="3"/> 
  <image x="1400" y="775" width="175" height="25" xlink:href="DS_ana.svg">
    <title>&quot;20MKG18CP001&quot;</title>
    <rt:dyn type="FKKS" mode="constant" value="&quot;20MKG18CP001&quot;"/> 
    <rt:dyn type="ShowFrame" mode="constant" value="true"/> 
    <rt:dyn type="X" mode="constant" value="&quot;P&quot;"/> 
    <rt:dyn type="ValueToTheRight" mode="constant" value="false"/> 
    <rt:dyn type="Color_Readings" mode="constant" value="true"/> 
  </image>
  <text x="477" y="750" font-size="15">Жидкость в корпусе</text>
  <text x="1140.75" y="750" font-size="15">Жидкость в корпусе</text>
  <image x="393" y="773.758" width="25" height="25" xlink:href="bin_indicator.svg">
    <title>&quot;20MKG14CL001_XG01&quot;</title>
    <rt:dyn type="PointID" mode="constant" value="&quot;20MKG14CL001_XG01&quot;"/> 
  </image>
  <image x="504" y="773.758" width="25" height="25" xlink:href="bin_indicator.svg">
    <title>&quot;20MKG14CL002_XG01&quot;</title>
    <rt:dyn type="PointID" mode="constant" value="&quot;20MKG14CL002_XG01&quot;"/> 
  </image>
  <image x="393" y="851.758" width="25" height="25" xlink:href="bin_indicator.svg">
    <title>&quot;20MKG14CL003_XG01&quot;</title>
    <rt:dyn type="PointID" mode="constant" value="&quot;20MKG14CL003_XG01&quot;"/> 
  </image>
  <image x="504" y="851.758" width="25" height="25" xlink:href="bin_indicator.svg">
    <title>&quot;20MKG14CL004_XG01&quot;</title>
    <rt:dyn type="PointID" mode="constant" value="&quot;20MKG14CL004_XG01&quot;"/> 
  </image>
  <image x="585.424" y="773.758" width="25" height="25" xlink:href="bin_indicator.svg">
    <title>&quot;20MKG15CL001_XG01&quot;</title>
    <rt:dyn type="PointID" mode="constant" value="&quot;20MKG15CL001_XG01&quot;"/> 
  </image>
  <image x="695.424" y="773.758" width="25" height="25" xlink:href="bin_indicator.svg">
    <title>&quot;20MKG15CL002_XG01&quot;</title>
    <rt:dyn type="PointID" mode="constant" value="&quot;20MKG15CL002_XG01&quot;"/> 
  </image>
  <image x="585.424" y="851.758" width="25" height="25" xlink:href="bin_indicator.svg">
    <title>&quot;20MKG15CL003_XG01&quot;</title>
    <rt:dyn type="PointID" mode="constant" value="&quot;20MKG15CL003_XG01&quot;"/> 
  </image>
  <image x="695.424" y="851.758" width="25" height="25" xlink:href="bin_indicator.svg">
    <title>&quot;20MKG15CL004_XG01&quot;</title>
    <rt:dyn type="PointID" mode="constant" value="&quot;20MKG15CL004_XG01&quot;"/> 
  </image>
  <image x="1065.91" y="773.758" width="25" height="25" xlink:href="bin_indicator.svg">
    <title>&quot;20MKG17CL001_XG01&quot;</title>
    <rt:dyn type="PointID" mode="constant" value="&quot;20MKG17CL001_XG01&quot;"/> 
  </image>
  <image x="1175.91" y="773.758" width="25" height="25" xlink:href="bin_indicator.svg">
    <title>&quot;20MKG17CL002_XG01&quot;</title>
    <rt:dyn type="PointID" mode="constant" value="&quot;20MKG17CL002_XG01&quot;"/> 
  </image>
  <image x="1065.91" y="851.758" width="25" height="25" xlink:href="bin_indicator.svg">
    <title>&quot;20MKG17CL003_XG01&quot;</title>
    <rt:dyn type="PointID" mode="constant" value="&quot;20MKG17CL003_XG01&quot;"/> 
  </image>
  <image x="1175.91" y="851.758" width="25" height="25" xlink:href="bin_indicator.svg">
    <title>&quot;20MKG17CL004_XG01&quot;</title>
    <rt:dyn type="PointID" mode="constant" value="&quot;20MKG17CL004_XG01&quot;"/> 
  </image>
  <image x="871" y="766" width="70" height="70" xlink:href="DS_motor.svg" transform="flipX(-7.05786e-005)">
    <title>&quot;20MKG11AN001&quot;</title>
    <rt:dyn type="KKS" mode="constant" value="&quot;20MKG11AN001&quot;"/> 
    <rt:dyn type="DATA_NARY" mode="constant" value="&quot;TPTS&quot;"/> 
    <rt:dyn type="DeviceType" mode="constant" value="&quot;fan&quot;"/> 
    <rt:dyn type="Operate" mode="constant" value="true"/> 
  </image>
  <line x1="760.182" y1="512.121" x2="760" y2="789.394" stroke="black" stroke-width="3"/> 
  <line x1="758.697" y1="788" x2="875.36" y2="788" stroke="black" stroke-width="3"/> 
  <line x1="759" y1="684.833" x2="875.66" y2="684.833" stroke="black" stroke-width="3"/> 
  <image x="768.757" y="545.273" width="175" height="25" xlink:href="DS_ana.svg">
    <title>&quot;20MKG10CT001&quot;</title>
    <rt:dyn type="FKKS" mode="constant" value="&quot;20MKG10CT001&quot;"/> 
    <rt:dyn type="ShowFrame" mode="constant" value="true"/> 
    <rt:dyn type="X" mode="constant" value="&quot;T&quot;"/> 
    <rt:dyn type="ValueToTheRight" mode="constant" value="false"/> 
    <rt:dyn type="Color_Readings" mode="constant" value="true"/> 
  </image>
  <image x="768.757" y="585.273" width="175" height="25" xlink:href="DS_ana.svg">
    <title>&quot;20MKG10CP001&quot;</title>
    <rt:dyn type="FKKS" mode="constant" value="&quot;20MKG10CP001&quot;"/> 
    <rt:dyn type="ShowFrame" mode="constant" value="true"/> 
    <rt:dyn type="X" mode="constant" value="&quot;P&quot;"/> 
    <rt:dyn type="ValueToTheRight" mode="constant" value="false"/> 
    <rt:dyn type="Color_Readings" mode="constant" value="true"/> 
  </image>
  <text x="988.61" y="700.91" fill="black" font-size="17" text-anchor="middle">20MKG10<tspan x="988.61" dy="17">AN001</tspan>
  </text>
  <text x="988.61" y="794.788" fill="black" font-size="17" text-anchor="middle">20MKG11<tspan x="988.61" dy="17">AN001</tspan>
  </text>
  <image x="869" y="664" width="70" height="70" xlink:href="DS_motor.svg" transform="flipX(-7.05786e-005)">
    <title>&quot;20MKG10AN001&quot;</title>
    <rt:dyn type="KKS" mode="constant" value="&quot;20MKG10AN001&quot;"/> 
    <rt:dyn type="DATA_NARY" mode="constant" value="&quot;TPTS&quot;"/> 
    <rt:dyn type="DeviceType" mode="constant" value="&quot;fan&quot;"/> 
    <rt:dyn type="Operate" mode="constant" value="true"/> 
  </image>
  <image x="1478" y="919" width="75" height="25" xlink:href="obj_link.svg">
    <rt:dyn type="TextStr" mode="constant" value="&quot;MKF50&quot;"/> 
  </image>
  <image x="75" y="919" width="75" height="25" xlink:href="obj_link.svg" transform="flipX(37.5)">
    <rt:dyn type="TextStr" mode="constant" value="&quot;MKF50&quot;"/> 
  </image>
  <image x="785" y="711.5" width="60" height="45" xlink:href="DS_TPTS_AVR_sel.svg">
    <title>&quot;20MKG10ED001&quot;</title>
    <rt:dyn type="KKS" mode="constant" value="&quot;20MKG10ED001&quot;"/> 
    <rt:dyn type="Operate" mode="constant" value="true"/> 
    <rt:dyn type="VL_type" mode="constant" value="&quot;1o2&quot;"/> 
  </image>
  <line x1="461.625" y1="514.497" x2="461.625" y2="934.496" stroke="black" stroke-width="3"/> 
  <polygon points="-191.357,-1264.94 -203.857,-1239.45 -177.857,-1239.95" transform="flipY(130.905) rotate(90 1392.93 388.195) scale(0.62 0.62 1341 369.75) rotate(270 1341 369.75)"/> 
  <rect x="445.813" y="770.746" width="31.6249" height="30.9999" rx="0" ry="0" fill="Col_BGSand" stroke="black" stroke-width="2"/> 
  <rect x="432.875" y="762.246" width="57.5" height="8.75" rx="0" ry="0" fill="Col_BGSand" stroke="black" stroke-width="2"/> 
  <rect x="432.875" y="801.496" width="57.5" height="8.75" rx="0" ry="0" fill="Col_BGSand" stroke="black" stroke-width="2"/> 
  <rect x="445.813" y="846.996" width="31.6249" height="30.9999" rx="0" ry="0" fill="Col_BGSand" stroke="black" stroke-width="2"/> 
  <rect x="432.875" y="838.496" width="57.5" height="8.75" rx="0" ry="0" fill="Col_BGSand" stroke="black" stroke-width="2"/> 
  <rect x="432.875" y="877.746" width="57.5" height="8.75" rx="0" ry="0" fill="Col_BGSand" stroke="black" stroke-width="2"/> 
  <line x1="653.5" y1="514.5" x2="653.5" y2="934.499" stroke="black" stroke-width="3"/> 
  <polygon points="118.12,-1264.94 105.62,-1239.45 131.62,-1239.95" transform="flipY(130.905) rotate(90 1392.93 388.195) scale(0.62 0.62 1341 369.75) rotate(270 1341 369.75)"/> 
  <rect x="637.688" y="846.999" width="31.6249" height="30.9999" rx="0" ry="0" fill="Col_BGSand" stroke="black" stroke-width="2"/> 
  <rect x="624.75" y="838.499" width="57.5" height="8.75" rx="0" ry="0" fill="Col_BGSand" stroke="black" stroke-width="2"/> 
  <rect x="624.75" y="877.749" width="57.5" height="8.75" rx="0" ry="0" fill="Col_BGSand" stroke="black" stroke-width="2"/> 
  <rect x="637.688" y="770.749" width="31.6249" height="30.9999" rx="0" ry="0" fill="Col_BGSand" stroke="black" stroke-width="2"/> 
  <rect x="624.75" y="762.249" width="57.5" height="8.75" rx="0" ry="0" fill="Col_BGSand" stroke="black" stroke-width="2"/> 
  <rect x="624.75" y="801.499" width="57.5" height="8.75" rx="0" ry="0" fill="Col_BGSand" stroke="black" stroke-width="2"/> 
  <line x1="1133.25" y1="514.5" x2="1133.25" y2="934.499" stroke="black" stroke-width="3"/> 
  <polygon points="891.913,-1264.94 879.413,-1239.45 905.413,-1239.95" transform="flipY(130.905) rotate(90 1392.93 388.195) scale(0.62 0.62 1341 369.75) rotate(270 1341 369.75)"/> 
  <rect x="1117.44" y="770.749" width="31.6249" height="30.9999" rx="0" ry="0" fill="Col_BGSand" stroke="black" stroke-width="2"/> 
  <rect x="1104.5" y="762.249" width="57.5" height="8.75" rx="0" ry="0" fill="Col_BGSand" stroke="black" stroke-width="2"/> 
  <rect x="1104.5" y="801.499" width="57.5" height="8.75" rx="0" ry="0" fill="Col_BGSand" stroke="black" stroke-width="2"/> 
  <rect x="1117.44" y="846.999" width="31.6249" height="30.9999" rx="0" ry="0" fill="Col_BGSand" stroke="black" stroke-width="2"/> 
  <rect x="1104.5" y="838.499" width="57.5" height="8.75" rx="0" ry="0" fill="Col_BGSand" stroke="black" stroke-width="2"/> 
  <rect x="1104.5" y="877.749" width="57.5" height="8.75" rx="0" ry="0" fill="Col_BGSand" stroke="black" stroke-width="2"/> 
  <image x="369.121" y="553" width="175" height="25" xlink:href="DS_ana.svg">
    <title>&quot;20MKG14CP001&quot;</title>
    <rt:dyn type="FKKS" mode="constant" value="&quot;20MKG14CP001&quot;"/> 
    <rt:dyn type="ShowFrame" mode="constant" value="true"/> 
    <rt:dyn type="X" mode="constant" value="&quot;P&quot;"/> 
    <rt:dyn type="ValueToTheRight" mode="constant" value="false"/> 
    <rt:dyn type="Color_Readings" mode="constant" value="true"/> 
  </image>
  <image x="1642.88" y="376.5" width="175" height="25" xlink:href="DS_ana.svg">
    <title>&quot;20MKA23FT001&quot;</title>
    <rt:dyn type="FKKS" mode="constant" value="&quot;20MKA23FT001_XQ01&quot;"/> 
    <rt:dyn type="ShowFrame" mode="constant" value="true"/> 
    <rt:dyn type="X" mode="constant" value="&quot;T&quot;"/> 
    <rt:dyn type="ValueToTheRight" mode="constant" value="false"/> 
    <rt:dyn type="Color_Readings" mode="constant" value="true"/> 
    <rt:dyn type="FName" mode="constant" value="true"/> 
  </image>
  <text x="1604.13" y="371" font-size="15">MAX T точки  росы воздуха в ТГ</text>
  <image x="1642.88" y="445.5" width="175" height="25" xlink:href="DS_ana.svg">
    <title>&quot;20MKA23FT002&quot;</title>
    <rt:dyn type="FKKS" mode="constant" value="&quot;20MKA23FT002_XQ01&quot;"/> 
    <rt:dyn type="ShowFrame" mode="constant" value="true"/> 
    <rt:dyn type="X" mode="constant" value="&quot;T&quot;"/> 
    <rt:dyn type="ValueToTheRight" mode="constant" value="false"/> 
    <rt:dyn type="Color_Readings" mode="constant" value="true"/> 
    <rt:dyn type="FName" mode="constant" value="true"/> 
  </image>
  <text x="1607.88" y="439" font-size="15">MIN T точки росы воздуха в ТГ</text>
  <image x="1642.88" y="516.25" width="175" height="25" xlink:href="DS_ana.svg">
    <title>&quot;20MKA23FT003&quot;</title>
    <rt:dyn type="FKKS" mode="constant" value="&quot;20MKA23FT003_XQ01&quot;"/> 
    <rt:dyn type="ShowFrame" mode="constant" value="true"/> 
    <rt:dyn type="X" mode="constant" value="&quot;T&quot;"/> 
    <rt:dyn type="ValueToTheRight" mode="constant" value="false"/> 
    <rt:dyn type="Color_Readings" mode="constant" value="true"/> 
    <rt:dyn type="FName" mode="constant" value="true"/> 
  </image>
  <text x="1654.13" y="509.75" font-size="15">MAX dT точек росы</text>
  <image x="1642.88" y="585" width="175" height="25" xlink:href="DS_ana.svg">
    <title>&quot;20MKA24FT001&quot;</title>
    <rt:dyn type="FKKS" mode="constant" value="&quot;20MKA24FT001_XQ01&quot;"/> 
    <rt:dyn type="ShowFrame" mode="constant" value="true"/> 
    <rt:dyn type="X" mode="constant" value="&quot;T&quot;"/> 
    <rt:dyn type="ValueToTheRight" mode="constant" value="false"/> 
    <rt:dyn type="Color_Readings" mode="constant" value="true"/> 
    <rt:dyn type="FName" mode="constant" value="true"/> 
  </image>
  <text x="1567.88" y="579.5" font-size="15">Требуемая MIN T входящего дистиллята</text>
  <image x="1642.88" y="669.5" width="175" height="25" xlink:href="DS_ana.svg">
    <title>&quot;20MKA24FT002&quot;</title>
    <rt:dyn type="FKKS" mode="constant" value="&quot;20MKA24FT002_XQ01&quot;"/> 
    <rt:dyn type="ShowFrame" mode="constant" value="true"/> 
    <rt:dyn type="X" mode="constant" value="&quot;T&quot;"/> 
    <rt:dyn type="ValueToTheRight" mode="constant" value="false"/> 
    <rt:dyn type="Color_Readings" mode="constant" value="true"/> 
    <rt:dyn type="FName" mode="constant" value="true"/> 
  </image>
  <text x="1730.38" y="649.5" font-size="15" text-anchor="middle">dT между Т входящего<tspan x="1730.38" dy="15">дистиллята и MAX  T точки росы</tspan>
  </text>
  <text x="980.5" y="33" font-size="30" font-weight="700" text-anchor="middle">
    <title>Система охлаждения обмотки статора и нажимных колец</title>
Система вентиляции корпуса генератора</text>
  <text x="32.75" y="32.25" fill="black" font-size="15" font-weight="700" text-anchor="start">MKG</text>
</svg>
