<?xml  version="1.0" encoding="UTF-8"?>
<svg color="Col_BGSand" xmlns="http://www.w3.org/2000/svg" xmlns:rt="http://www.rts.co.at/2001/XMLSchema/RtSvgPL" xmlns:xlink="http://www.w3.org/1999/xlink" xmlns:xsi="http://www.w3.org/2001/XMLSchema-instance" xsi:schemaLocation="http://www.w3.org/2000/svg C:\RTS\RtSvg\XML\SVG.xsd" viewBox="0 0 1914 1000" width="1914" height="1000" id="all_00uga_00cxs82">
  <rt:model modelversion="7.2.0.23" comment="Ñîçäàíî ÀÎ &quot;ÐÀÑÓ&quot;" revision="1.0"/> 
  <polygon points="1682.5,-866.75 1682.58,-856.75 1689,-862"/> 
  <g transform="flipY(411.111) rotate(90 1.4013e-045 1.4013e-045) flipX(1463.73) flipX(448.838) flipX(1844.84) flipX(1153.84) flipX(1153.84) rotate(270 1153.84 98.3365)">
    <g transform="rotate(270 51.3365 123.226)"/> 
  </g>
  <g transform="rotate(270 51.3365 123.226)">
    <polygon points="4003.99,1176.23 4003.99,1201.71 3963.23,1201.71 3950.49,1188.97 3963.23,1176.23 4003.99,1176.23" fill="#e1e1e1" stroke="black" stroke-width="0.97168" transform="rotate(0 0 1.4013e-045) flipX(46.3365)">
      <title>FAK10_2</title>
      <rt:event type="OnClick">LoadNew(&quot;fal50_70&quot;)</rt:event>
    </polygon>
  </g>
  <line x1="39.6667" y1="177.5" x2="39.6667" y2="177.5"/> 
  <text x="944.817" y="95.4545" fill="black" font-size="30" text-anchor="middle">ÌÏÓ 00CXS82</text>
  <image x="1706.38" y="147.523" width="181.818" height="24.2424" xlink:href="bitwise_tablo_4bits.svg">
    <title>00CXV82_Z0</title>
    <rt:dyn type="PointID_1" mode="constant" value="&quot;00CXS82_Z0 0&quot;"/> 
    <rt:dyn type="Color_0001" mode="constant" value="&quot;Col_Green&quot;"/> 
    <rt:dyn type="PointID_2" mode="constant" value="&quot;00CXS82_Z0 1&quot;"/> 
    <rt:dyn type="Text_0010" mode="constant" value="&quot;ÇÈÌÀ&quot;"/> 
    <rt:dyn type="Text_0001" mode="constant" value="&quot;ËÅÒÎ&quot;"/> 
    <rt:dyn type="Color_0010" mode="constant" value="&quot;Col_Blue&quot;"/> 
  </image>
  <text x="1631.38" y="166.311" font-size="20">Ðåæèì</text>
  <image x="650" y="275" width="250" height="25" xlink:href="obj_Button.svg">
    <rt:event type="OnClick">LoadNew(&quot;00saq05_42_00gac96&quot;)</rt:event>
    <rt:dyn type="Label" mode="constant" value="&quot;00GAC96 / 00SAQ42 / 00SAQ05&quot;"/> 
  </image>
  <rect x="625" y="225" width="525" height="250" rx="0" ry="0" fill="none" stroke="black" stroke-width="2"/> 
  <line x1="925" y1="225" x2="925" y2="475" stroke="black" stroke-width="2"/> 
  <image x="950" y="275" width="175" height="25" xlink:href="obj_Button.svg">
    <rt:event type="OnClick">LoadNew(&quot;00gac01_02_03&quot;)</rt:event>
    <rt:dyn type="Label" mode="constant" value="&quot;00GAC45-50&quot;"/> 
  </image>
</svg>
