<?xml version="1.0" encoding="windows-1251"?>
<svg xmlns="http://www.w3.org/2000/svg" xmlns:rt="http://www.rts.co.at/2001/XMLSchema/RtSvgPL" xmlns:xlink="http://www.w3.org/1999/xlink" xmlns:xsi="http://www.w3.org/2001/XMLSchema-instance" color="Col_BGSand" xsi:schemaLocation="http://www.w3.org/2000/svg C:\RTS\RtSvg\XML\SVG.xsd" viewBox="0 0 1914 1000" width="1914" height="1000" id="asrk_uja_06" fill="Col_BGSand">
  <rt:model modelversion="7.2.0.24" comment="Создано VNIIAES-ASUTP" />
  <ellipse cx="959.381" cy="508.926" rx="435.075" ry="427.233" fill="none" stroke="black" stroke-width="20" />
  <ellipse cx="952.885" cy="508.55" rx="93.0165" ry="89.4137" fill="none" stroke="black" stroke-width="40" />
  <line x1="1051.3" y1="347.818" x2="851.303" y2="347.818" stroke="black" stroke-width="18" />
  <line x1="1057.3" y1="667.818" x2="845.303" y2="668.818" stroke="black" stroke-width="18" />
  <line x1="740.303" y1="798.818" x2="647.303" y2="706.818" stroke="black" stroke-width="18" />
  <line x1="858.303" y1="874.818" x2="733.303" y2="793.818" stroke="black" stroke-width="18" />
  <line x1="1051.3" y1="872.818" x2="851.303" y2="872.818" stroke="black" stroke-width="18" />
  <line x1="1221.3" y1="756.818" x2="1045.3" y2="873.818" stroke="black" stroke-width="18" />
  <line x1="1218.3" y1="381.818" x2="1217.3" y2="763.818" stroke="black" stroke-width="18" />
  <line x1="692.303" y1="261.818" x2="692.303" y2="645.818" stroke="black" stroke-width="18" />
  <line x1="766.303" y1="191.818" x2="644.303" y2="306.818" stroke="black" stroke-width="18" />
  <line x1="1284.88" y1="304.821" x2="1136.39" y2="192.7" stroke="black" stroke-width="18" />
  <line x1="1312.3" y1="358.818" x2="1281.97" y2="301.151" stroke="black" stroke-width="18" />
  <line x1="1301.3" y1="372.818" x2="1209.3" y2="373.818" stroke="black" stroke-width="18" />
  <line x1="1308.3" y1="439.818" x2="1220.52" y2="440.394" stroke="black" stroke-width="18" />
  <line x1="1345.5" y1="457.155" x2="1301.71" y2="457.063" stroke="black" stroke-width="18" />
  <line x1="613.636" y1="366.818" x2="600.277" y2="423.338" stroke="black" stroke-width="18" />
  <line x1="701.303" y1="640.818" x2="610.394" y2="640.818" stroke="black" stroke-width="18" />
  <line x1="685.514" y1="582.396" x2="589.636" y2="581.818" stroke="black" stroke-width="18" />
  <line x1="1142.21" y1="193.818" x2="1051.3" y2="193.818" stroke="black" stroke-width="18" />
  <line x1="863.303" y1="193.818" x2="760.394" y2="193.818" stroke="black" stroke-width="18" />
  <line x1="884.888" y1="215.945" x2="856.1" y2="191.702" stroke="black" stroke-width="18" />
  <line x1="1026.3" y1="237.818" x2="1026.3" y2="211.317" stroke="black" stroke-width="18" />
  <line x1="1029.3" y1="215.818" x2="1059.37" y2="191.752" stroke="black" stroke-width="18" />
  <line x1="876.303" y1="215.818" x2="1026.3" y2="215.818" stroke="black" stroke-width="18" />
  <line x1="1197.53" y1="278.44" x2="1214.3" y2="253.699" stroke="black" stroke-width="18" />
  <line x1="1311.3" y1="381.818" x2="1311.3" y2="352.818" stroke="black" stroke-width="18" />
  <line x1="1051.3" y1="870.211" x2="1050.59" y2="840.032" stroke="black" stroke-width="18" />
  <line x1="901.303" y1="947.818" x2="1001.3" y2="948.818" stroke="black" stroke-width="18" />
  <line x1="1319.39" y1="481.818" x2="1319.3" y2="612.818" stroke="black" stroke-width="15" />
  <line x1="1320.3" y1="624.818" x2="1216.3" y2="624.818" stroke="black" stroke-width="15" />
  <line x1="1318.3" y1="608.818" x2="1312.24" y2="640.818" stroke="black" stroke-width="18" />
  <line x1="649.303" y1="648.818" x2="649.303" y2="713.191" stroke="black" stroke-width="18" />
  <line x1="1310.97" y1="481.818" x2="1310.3" y2="513.818" stroke="black" stroke-width="18" />
  <line x1="1306.3" y1="408.818" x2="1306.3" y2="461.818" stroke="black" stroke-width="10" />
  <line x1="1310.46" y1="595.861" x2="1310.3" y2="628.537" stroke="black" stroke-width="18" />
  <line x1="886.303" y1="237.818" x2="886.303" y2="211.317" stroke="black" stroke-width="18" />
  <line x1="678.303" y1="270.818" x2="676.303" y2="293.241" stroke="black" stroke-width="18" />
  <line x1="693.303" y1="343.818" x2="670.101" y2="318.702" stroke="black" stroke-width="18" />
  <line x1="937.303" y1="606.818" x2="937.303" y2="659.818" stroke="black" stroke-width="10" />
  <line x1="937.303" y1="349.818" x2="937.303" y2="402.818" stroke="black" stroke-width="10" />
  <line x1="966.303" y1="351.818" x2="966.303" y2="404.818" stroke="black" stroke-width="10" />
  <line x1="966.303" y1="606.818" x2="966.303" y2="659.818" stroke="black" stroke-width="10" />
  <polygon points="941.303,357.318 941.803,658.318 961.803,655.818 960.803,356.818" />
  <line x1="684.303" y1="426.151" x2="601.303" y2="426.151" stroke="black" stroke-width="10" />
  <line x1="596.637" y1="420.818" x2="595.636" y2="556.818" stroke="black" stroke-width="10" />
  <line x1="598.972" y1="531.818" x2="599.303" y2="556.818" stroke="black" stroke-width="18" />
  <line x1="600.636" y1="428.937" x2="600.303" y2="454.151" stroke="black" stroke-width="18" />
  <g>
    <line x1="994.665" y1="690.063" x2="995.303" y2="864.818" stroke="black" stroke-width="18" />
    <rect x="988.303" y="694.151" width="13.3333" height="150.667" rx="0" ry="0" />
    <line x1="991.682" y1="749.846" x2="991.135" y2="781.818" stroke="black" stroke-width="23" />
  </g>
  <line x1="1003.7" y1="685.517" x2="896.12" y2="685.517" stroke="black" stroke-width="18" />
  <g>
    <line x1="905.665" y1="693.396" x2="906.303" y2="868.151" stroke="black" stroke-width="18" />
    <rect x="899.303" y="697.484" width="13.3333" height="150.667" rx="0" ry="0" />
    <line x1="910.349" y1="749.847" x2="909.802" y2="781.818" stroke="black" stroke-width="23" />
  </g>
  <rect x="642.97" y="656.818" width="12.6668" height="25" rx="0" ry="0" />
  <g>
    <rect x="1212.3" y="682.318" width="12.6668" height="25" rx="0" ry="0" />
    <line x1="1226.3" y1="706.818" x2="1231.3" y2="681.818" stroke="black" />
  </g>
  <line x1="640.553" y1="657.818" x2="636.303" y2="681.818" stroke="black" />
  <rect x="588.651" y="-143.47" width="12.6668" height="25" rx="0" ry="0" transform="rotate(90 581.333 201.5)" />
  <line x1="901.553" y1="207.568" x2="926.303" y2="202.568" stroke="black" />
  <g>
    <line x1="1118.3" y1="399.818" x2="1117.3" y2="608.818" stroke="black" stroke-width="18" />
    <line x1="1120.85" y1="408.244" x2="1044.3" y2="345.818" stroke="black" stroke-width="18" />
    <line x1="1120.3" y1="602.818" x2="1051.3" y2="669.818" stroke="black" stroke-width="18" />
    <line x1="1114.3" y1="515.82" x2="1045.3" y2="516.818" stroke="black" stroke-width="18" />
  </g>
  <g transform="flipX(1177.5)">
    <line x1="1570.7" y1="400.818" x2="1569.7" y2="609.818" stroke="black" stroke-width="18" />
    <line x1="1573.24" y1="409.244" x2="1496.7" y2="346.818" stroke="black" stroke-width="18" />
    <line x1="1572.7" y1="603.818" x2="1503.7" y2="670.818" stroke="black" stroke-width="18" />
    <line x1="1566.69" y1="516.82" x2="1496.7" y2="515.818" stroke="black" stroke-width="18" />
  </g>
  <line x1="901.303" y1="66.8173" x2="1001.3" y2="65.8178" stroke="black" stroke-width="18" />
  <g>
    <line x1="1304.05" y1="409.068" x2="1270.8" y2="409.068" stroke="black" />
    <line x1="1270.8" y1="409.068" x2="1251.3" y2="431.068" stroke="black" />
    <line x1="1275.3" y1="409.318" x2="1275.3" y2="433.818" stroke="black" />
    <line x1="1270.8" y1="409.068" x2="1270.8" y2="433.568" stroke="black" />
    <line x1="1266.3" y1="414.068" x2="1266.3" y2="438.568" stroke="black" />
    <line x1="1261.8" y1="418.568" x2="1261.8" y2="443.068" stroke="black" />
    <line x1="1256.3" y1="425.068" x2="1256.3" y2="436.818" stroke="black" />
    <line x1="1252.8" y1="428.568" x2="1252.8" y2="440.318" stroke="black" />
    <line x1="1279.8" y1="408.818" x2="1279.8" y2="433.318" stroke="black" />
  </g>
  <g transform="flipX(1298) flipY(460.5)">
    <line x1="1992.45" y1="309.182" x2="1959.2" y2="309.182" stroke="black" />
    <line x1="1959.2" y1="309.182" x2="1939.7" y2="331.182" stroke="black" />
    <line x1="1963.7" y1="309.432" x2="1963.7" y2="333.932" stroke="black" />
    <line x1="1959.2" y1="309.182" x2="1959.2" y2="333.682" stroke="black" />
    <line x1="1954.7" y1="314.182" x2="1954.7" y2="338.682" stroke="black" />
    <line x1="1950.2" y1="318.682" x2="1950.2" y2="343.182" stroke="black" />
    <line x1="1944.7" y1="325.182" x2="1944.7" y2="336.932" stroke="black" />
    <line x1="1941.2" y1="328.682" x2="1941.2" y2="340.432" stroke="black" />
    <line x1="1968.2" y1="308.932" x2="1968.2" y2="333.432" stroke="black" />
  </g>
  <line x1="606.303" y1="586.818" x2="605.303" y2="612.818" stroke="black" stroke-width="10" />
  <g transform="flipX(1298) flipY(460.5)">
    <line x1="1636.95" y1="676.182" x2="1603.7" y2="676.182" stroke="black" />
    <line x1="1603.7" y1="676.182" x2="1584.2" y2="698.182" stroke="black" />
    <line x1="1608.2" y1="676.432" x2="1608.2" y2="700.932" stroke="black" />
    <line x1="1603.7" y1="676.182" x2="1603.7" y2="700.682" stroke="black" />
    <line x1="1599.2" y1="681.182" x2="1599.2" y2="705.682" stroke="black" />
    <line x1="1594.7" y1="685.682" x2="1594.7" y2="710.182" stroke="black" />
    <line x1="1589.2" y1="692.182" x2="1589.2" y2="703.932" stroke="black" />
    <line x1="1585.7" y1="695.682" x2="1585.7" y2="707.432" stroke="black" />
    <line x1="1612.7" y1="675.932" x2="1612.7" y2="700.432" stroke="black" />
  </g>
  <line x1="959.803" y1="219.818" x2="959.803" y2="244.318" stroke="black" />
  <text x="713.606" y="307.575" fill="black" font-size="15">10UJA10R001</text>
  <text x="1060.58" y="307.575" fill="black" font-size="15">10UJA10R002</text>
  <text x="887.849" y="151.515" fill="black" font-size="15">10UJA 10R010</text>
  <text x="887.849" y="907.575" fill="black" font-size="15">10UJA 10R010</text>
  <text x="713.606" y="740.909" fill="black" font-size="15">10UJA10R005</text>
  <text x="1229.73" y="400" fill="black" font-size="15">10UJA10R502</text>
  <text x="605" y="350" fill="black" font-size="15">
    10UJA10
    <tspan x="605" dy="15">R507</tspan>
  </text>
  <text x="1233.21" y="588.333" fill="black" font-size="15">
    10UJA10
    <tspan x="1233.21" dy="15">R008</tspan>
  </text>
  <line x1="1321.18" y1="636.878" x2="1304.52" y2="672.727" stroke="black" stroke-width="1" />
  <line x1="1304.52" y1="671.666" x2="1224.21" y2="671.212" stroke="black" stroke-width="1" />
  <text x="603.515" y="513.757" fill="black" font-size="15">
    10UJA10
    <tspan x="603.515" dy="15">R006</tspan>
  </text>
  <text x="1237.3" y="701.515" fill="black" font-size="15">
    10UJA10
    <tspan x="1237.3" dy="15">R009</tspan>
  </text>
  <text x="914.576" y="810.606" fill="black" font-size="15">
    10UJA10
    <tspan x="914.576" dy="15">R009</tspan>
  </text>
  <line x1="627.493" y1="560.341" x2="387.304" y2="560.818" stroke="black" />
  <circle cx="621.581" cy="560.875" r="8.57141" fill="black" stroke="black" stroke-width="3" />
  <circle cx="1286.58" cy="463.837" r="8.57141" fill="black" stroke="black" stroke-width="3" />
  <line x1="1625" y1="465" x2="1290" y2="464.977" stroke="black" />
  <text x="987.326" y="39.6362" fill="black" font-size="32" text-anchor="middle">Радиационный контроль в реакторном здании UJA отм. + 0.6</text>
  <g>
    <rect x="1643.47" y="432.362" width="139.394" height="21.2122" rx="0" ry="0" fill="Col_BGItemSel" />
    <image x="1643.29" y="456.12" width="175" height="25" xlink:href="DS_ana_ASRK.svg">
      <title>"10UJA10CR002"</title>
      <rt:dyn type="IsExp" mode="constant" value="true" />
      <rt:dyn type="ShowFrame" mode="constant" value="true" />
      <rt:dyn type="Color_Readings" mode="constant" value="true" />
      <rt:dyn type="FKKS" mode="constant" value="&quot;10UJA10CR002&quot;" />
      <rt:dyn type="ValueToTheRight" mode="constant" value="false" />
      <rt:dyn type="SetBounds" mode="constant" value="true" />
      <rt:dyn type="Show_Map" mode="constant" value="false" />
    </image>
    <text x="1652.29" y="449.12" fill="black" font-size="18" text-anchor="start">10UJA10CR002</text>
    <image x="1585.29" y="436.12" width="50" height="46" xlink:href="ASRK_block_MPDg.svg">
      <title>"10UJA10CR002"</title>
      <rt:dyn type="KKS" mode="constant" value="&quot;10UJA10CR002&quot;" />
    </image>
  </g>
  <g>
    <rect x="232.864" y="524.786" width="139.394" height="21.2122" rx="0" ry="0" fill="Col_BGItemSel" />
    <image x="232.684" y="548.544" width="175" height="25" xlink:href="DS_ana_ASRK.svg">
      <title>"10UJA10CR001"</title>
      <rt:dyn type="IsExp" mode="constant" value="true" />
      <rt:dyn type="ShowFrame" mode="constant" value="true" />
      <rt:dyn type="Color_Readings" mode="constant" value="true" />
      <rt:dyn type="FKKS" mode="constant" value="&quot;10UJA10CR001&quot;" />
      <rt:dyn type="ValueToTheRight" mode="constant" value="false" />
      <rt:dyn type="SetBounds" mode="constant" value="true" />
      <rt:dyn type="Show_Map" mode="constant" value="false" />
    </image>
    <text x="241.684" y="541.544" fill="black" font-size="18" text-anchor="start">10UJA10CR001</text>
    <image x="174.684" y="528.544" width="50" height="46" xlink:href="ASRK_block_MPDg.svg">
      <title>"10UJA10CR001"</title>
      <rt:dyn type="KKS" mode="constant" value="&quot;10UJA10CR001&quot;" />
    </image>
  </g>
  <text x="1267.85" y="512.121" fill="black" font-size="15" text-anchor="middle">
    ФУ
    <tspan x="1267.85" dy="15">системы</tspan>
    <tspan x="1267.85" dy="15">KLA02</tspan>
  </text>
  <text x="640.333" y="450" fill="black" font-size="15" text-anchor="middle">
    ФУ
    <tspan x="640.333" dy="15">системы</tspan>
    <tspan x="640.333" dy="15">KLA02</tspan>
  </text>
  <text x="560.545" y="625.758" fill="black" font-size="15">10UJA10R501</text>
  <image x="1747.91" y="912.121" width="75" height="25" xlink:href="obj_link.svg" transform="rotate(0 37.3619 12.5)">
    <rt:dyn type="TextStr" mode="constant" value="&quot;PK&quot;" />
    <rt:event type="OnClick">LoadNew("all_asrk")</rt:event>
  </image>
</svg>
