<?xml version="1.0" encoding="windows-1251"?>
<svg xmlns="http://www.w3.org/2000/svg" xmlns:rt="http://www.rts.co.at/2001/XMLSchema/RtSvgPL" xmlns:xlink="http://www.w3.org/1999/xlink" xmlns:xsi="http://www.w3.org/2001/XMLSchema-instance" color="Col_BGSand" xsi:schemaLocation="http://www.w3.org/2000/svg C:\RTS\RtSvg\XML\SVG.xsd" viewBox="0 0 1914 1000" width="1914" height="1000" id="asrk_uks_00">
  <desc>0000000000</desc>
  <title>0000000000</title>
  <rt:model modelversion="7.2.0.24" comment="Создано VNIIAES-ASUTP\vasilchenko 02.12.2013 15:32:30" />
  <rect x="318" y="395" width="585" height="0.999994" rx="0" ry="0" />
  <rect x="303" y="580" width="450" height="1.00002" rx="0" ry="0" />
  <rect x="320" y="693" width="406" height="1.00002" rx="0" ry="0" />
  <rect x="324" y="850" width="355" height="1.00002" rx="0" ry="0" />
  <text x="464.909" y="81.0606" font-size="15">00UKS10R057</text>
  <text x="663.394" y="81.0606" font-size="15">R058</text>
  <text x="769.455" y="81.0606" font-size="15">00UKS10R059</text>
  <text x="925.515" y="81.0606" font-size="15">UKS10R060</text>
  <text x="1102.79" y="81.0606" font-size="15">R061</text>
  <text x="1210.36" y="81.0606" font-size="15">00UKS10R062</text>
  <text x="467.939" y="165.333" font-size="15">00UKS10R049</text>
  <text x="663.394" y="165.333" font-size="15">R065</text>
  <text x="766.424" y="165.333" font-size="15">R051</text>
  <text x="887" y="206" font-size="15">R052</text>
  <text x="996.727" y="165.333" font-size="15">R054</text>
  <text x="994.212" y="246.121" font-size="15">R053</text>
  <text x="1093.7" y="165.333" font-size="15">R063</text>
  <text x="1092.52" y="246.121" font-size="15">R064</text>
  <text x="1207.33" y="165.333" font-size="15">00UKS10R056</text>
  <text x="1213.91" y="246.121" font-size="15">00UKS10R055</text>
  <text x="469.455" y="334.848" font-size="15">00UKS10R045</text>
  <text x="764.576" y="334.848" font-size="15">00UKS10R046</text>
  <text x="1187.64" y="334.848" font-size="15">00UKS10R047</text>
  <text x="596.728" y="421.97" font-size="15">00UKS10R069</text>
  <text x="920.97" y="412.879" font-size="15">00UKS10R070</text>
  <text x="908" y="505" font-size="15">00UKS10R041</text>
  <text x="1093.7" y="411.364" font-size="15">R042</text>
  <text x="1213.39" y="411.364" font-size="15">R073</text>
  <text x="1090.67" y="511.364" font-size="15">R071</text>
  <text x="1217.94" y="502.273" font-size="15">00UKS10R044</text>
  <text x="590.667" y="535.606" font-size="15">00UKS10R040</text>
  <text x="434.606" y="535.606" font-size="15">00UKS10R037</text>
  <text x="590.667" y="618.939" font-size="15">00UKS10R020</text>
  <text x="445.212" y="618.94" font-size="15">R017</text>
  <text x="752.788" y="488.636" font-size="15">00UKS10R068</text>
  <text x="904" y="631" font-size="15">R024</text>
  <text x="917.939" y="759.849" font-size="15">R022</text>
  <text x="996.727" y="761.364" font-size="15">R025</text>
  <text x="999.758" y="641.666" font-size="15">R027</text>
  <text x="599.758" y="761.364" font-size="15">00UKS10R019</text>
  <text x="427.03" y="809.849" font-size="15">00UKS10R012</text>
  <text x="446.728" y="885.606" font-size="15">R005</text>
  <text x="440.667" y="956.818" font-size="15">00UKS10R003</text>
  <text x="598.243" y="899.242" font-size="15">00UKS10R007</text>
  <text x="695.212" y="943.182" font-size="15">00UKS10R038</text>
  <text x="872.485" y="908.333" font-size="15">00UKS10R008</text>
  <text x="1136.12" y="897.727" font-size="15">00UKS10R009</text>
  <text x="1330.06" y="865.909" font-size="15">R011</text>
  <text x="1330.06" y="954.909" font-size="15">R010</text>
  <text x="1086.12" y="693.182" font-size="15">R028</text>
  <text x="1311.88" y="678.03" font-size="15">R035</text>
  <text x="1310.36" y="612.879" font-size="15">R036</text>
  <text x="763.394" y="705.303" font-size="15">00UKS10R023</text>
  <text x="748.242" y="726.515" font-size="15">00UKS10R026</text>
  <text x="1114.91" y="638.636" font-size="15">R030</text>
  <text x="1090.67" y="746.212" font-size="15">R029</text>
  <text x="1325.51" y="721.97" font-size="15">R033</text>
  <text x="469.97" y="246.121" font-size="15">00UKS10R048</text>
  <text x="661.424" y="246.121" font-size="15">R066</text>
  <text x="767.909" y="246.121" font-size="15">R050</text>
  <g transform="scale(0.768999 0.768999 1329.55 510.606)">
    <line x1="1345.62" y1="410.628" x2="1371.62" y2="410.628" stroke="black" />
    <line x1="1371.62" y1="360.027" x2="1371.62" y2="410.628" stroke="black" />
    <line x1="1346.62" y1="360.627" x2="1371.42" y2="360.827" stroke="black" />
    <line x1="1346.62" y1="410.628" x2="1346.62" y2="360.627" stroke="black" />
    <rect x="1357.22" y="370.827" width="2.65002" height="29.8" rx="0" ry="0" />
    <line x1="1346.37" y1="370.377" x2="1371.62" y2="370.627" stroke="black" />
    <line x1="1346.62" y1="375.877" x2="1371.62" y2="375.627" stroke="black" />
    <line x1="1346.62" y1="380.627" x2="1371.62" y2="380.627" stroke="black" />
    <line x1="1346.62" y1="385.627" x2="1371.62" y2="385.627" stroke="black" />
    <line x1="1346.62" y1="390.627" x2="1371.62" y2="390.627" stroke="black" />
    <line x1="1346.37" y1="395.627" x2="1371.62" y2="395.627" stroke="black" />
    <line x1="1346.37" y1="400.628" x2="1371.62" y2="400.628" stroke="black" />
  </g>
  <g transform="rotate(270 604.545 628.03) rotate(360 1329.55 510.606) scale(0.949939 0.949939 1329.55 510.606)">
    <line x1="420.056" y1="1424.89" x2="446.056" y2="1424.89" stroke="black" />
    <line x1="446.056" y1="1374.29" x2="446.056" y2="1424.89" stroke="black" />
    <line x1="421.056" y1="1374.89" x2="445.856" y2="1375.09" stroke="black" />
    <line x1="421.056" y1="1424.89" x2="421.056" y2="1374.89" stroke="black" />
    <rect x="431.306" y="1384.58" width="2.99987" height="30.3097" rx="0" ry="0" />
    <line x1="420.806" y1="1384.64" x2="446.056" y2="1384.89" stroke="black" />
    <line x1="421.056" y1="1390.14" x2="446.056" y2="1389.89" stroke="black" />
    <line x1="421.056" y1="1394.89" x2="446.056" y2="1394.89" stroke="black" />
    <line x1="421.056" y1="1399.89" x2="446.056" y2="1399.89" stroke="black" />
    <line x1="421.056" y1="1404.89" x2="446.056" y2="1404.89" stroke="black" />
    <line x1="420.806" y1="1409.89" x2="446.056" y2="1409.89" stroke="black" />
    <line x1="420.806" y1="1414.89" x2="446.056" y2="1414.89" stroke="black" />
  </g>
  <g transform="rotate(270 604.545 628.03) rotate(360 1329.55 510.606) scale(0.949939 0.949939 1329.55 510.606)">
    <line x1="414.25" y1="516.374" x2="440.25" y2="516.374" stroke="black" />
    <line x1="440.25" y1="465.775" x2="440.25" y2="516.374" stroke="black" />
    <line x1="415.25" y1="466.375" x2="440.05" y2="466.575" stroke="black" />
    <line x1="415.25" y1="516.374" x2="415.25" y2="466.375" stroke="black" />
    <rect x="425.5" y="476.065" width="2.99987" height="30.3097" rx="0" ry="0" />
    <line x1="415" y1="476.125" x2="440.25" y2="476.375" stroke="black" />
    <line x1="415.25" y1="481.625" x2="440.25" y2="481.375" stroke="black" />
    <line x1="415.25" y1="486.375" x2="440.25" y2="486.375" stroke="black" />
    <line x1="415.25" y1="491.375" x2="440.25" y2="491.375" stroke="black" />
    <line x1="415.25" y1="496.375" x2="440.25" y2="496.375" stroke="black" />
    <line x1="415" y1="501.375" x2="440.25" y2="501.375" stroke="black" />
    <line x1="415" y1="506.375" x2="440.25" y2="506.375" stroke="black" />
  </g>
  <g transform="scale(0.768999 0.768999 1329.55 510.606)">
    <line x1="353.144" y1="470.997" x2="379.143" y2="470.997" stroke="black" />
    <line x1="379.143" y1="420.396" x2="379.143" y2="470.997" stroke="black" />
    <line x1="354.144" y1="420.996" x2="378.943" y2="421.196" stroke="black" />
    <line x1="354.144" y1="470.997" x2="354.144" y2="420.996" stroke="black" />
    <rect x="364.744" y="431.196" width="2.65002" height="29.8" rx="0" ry="0" />
    <line x1="353.894" y1="430.746" x2="379.143" y2="430.996" stroke="black" />
    <line x1="354.144" y1="436.246" x2="379.143" y2="435.996" stroke="black" />
    <line x1="354.144" y1="440.996" x2="379.143" y2="440.996" stroke="black" />
    <line x1="354.144" y1="445.996" x2="379.143" y2="445.996" stroke="black" />
    <line x1="354.144" y1="450.996" x2="379.143" y2="450.996" stroke="black" />
    <line x1="353.894" y1="455.996" x2="379.143" y2="455.996" stroke="black" />
    <line x1="353.894" y1="460.997" x2="379.143" y2="460.997" stroke="black" />
  </g>
  <g transform="scale(0.768999 0.768999 1329.55 510.606)">
    <line x1="1404.97" y1="190.113" x2="1430.97" y2="190.113" stroke="black" />
    <line x1="1430.97" y1="139.512" x2="1430.97" y2="190.113" stroke="black" />
    <line x1="1405.97" y1="140.112" x2="1430.77" y2="140.312" stroke="black" />
    <line x1="1405.97" y1="190.113" x2="1405.97" y2="140.112" stroke="black" />
    <rect x="1416.57" y="150.312" width="2.65002" height="29.8" rx="0" ry="0" />
    <line x1="1405.72" y1="149.862" x2="1430.97" y2="150.112" stroke="black" />
    <line x1="1405.97" y1="155.362" x2="1430.97" y2="155.112" stroke="black" />
    <line x1="1405.97" y1="160.112" x2="1430.97" y2="160.112" stroke="black" />
    <line x1="1405.97" y1="165.112" x2="1430.97" y2="165.112" stroke="black" />
    <line x1="1405.97" y1="170.112" x2="1430.97" y2="170.112" stroke="black" />
    <line x1="1405.72" y1="175.112" x2="1430.97" y2="175.112" stroke="black" />
    <line x1="1405.72" y1="180.113" x2="1430.97" y2="180.113" stroke="black" />
  </g>
  <circle cx="902.955" cy="300.058" r="8.57141" fill="black" stroke="black" stroke-width="3" />
  <circle cx="911.955" cy="391.058" r="8.57141" fill="black" stroke="black" stroke-width="3" />
  <circle cx="756.612" cy="578.989" r="8.57141" fill="black" stroke="black" stroke-width="3" />
  <circle cx="721.763" cy="694.14" r="8.57141" fill="black" stroke="black" stroke-width="3" />
  <circle cx="682.955" cy="847.058" r="8.57141" fill="black" stroke="black" stroke-width="3" />
  <circle cx="1033.96" cy="910.058" r="8.57141" fill="black" stroke="black" stroke-width="3" />
  <text x="850.819" y="25.5454" fill="black" font-size="32" text-anchor="middle">РК здания переработки и хранения радиоактивных отходов UKS отм. 0,000.</text>
  <g transform="scale(1.29 1 725 516.667)">
    <rect x="477.31" y="895.03" width="12.6667" height="104.484" rx="0" ry="0" />
    <rect x="477.401" y="988.969" width="766.576" height="10.6062" rx="0" ry="0" />
    <rect x="1234.88" y="722.303" width="8.51553" height="275.758" rx="0" ry="0" />
    <rect x="477.31" y="32.9091" width="754.554" height="13.6359" rx="0" ry="0" />
    <rect x="477.31" y="651.091" width="12.1214" height="56.0604" rx="0" ry="0" />
    <rect x="475.795" y="726.848" width="12.6061" height="143.939" rx="0" ry="0" />
    <rect x="477.31" y="43.5152" width="10.6062" height="586.363" rx="0" ry="0" />
    <rect x="481.886" y="114" width="747" height="9" rx="0" ry="0" />
    <rect x="1223.73" y="35.9394" width="8.51553" height="275.758" rx="0" ry="0" />
    <rect x="1223.82" y="348.545" width="10.5756" height="113.152" rx="0" ry="0" />
    <rect x="1226.82" y="475.848" width="11.0906" height="143.909" rx="0" ry="0" />
    <rect x="1227.85" y="635.455" width="10.6062" height="27.2726" rx="0" ry="0" />
    <rect x="1231.36" y="682.424" width="10.6062" height="27.2726" rx="0" ry="0" />
    <rect x="480.886" y="196" width="332" height="9" rx="0" ry="0" />
    <rect x="913.886" y="194" width="315" height="9" rx="0" ry="0" />
    <rect x="485.886" y="278" width="740" height="10" rx="0" ry="0" />
    <rect x="1066.88" y="42" width="9" height="244" rx="0" ry="0" />
    <rect x="977.886" y="43" width="9" height="244" rx="0" ry="0" />
    <rect x="860.886" y="37" width="8" height="81" rx="0" ry="0" />
    <rect x="809.886" y="120" width="8" height="158" rx="0" ry="0" />
    <rect x="910.886" y="119" width="8" height="163" rx="0" ry="0" />
    <rect x="728.886" y="39" width="9" height="243" rx="0" ry="0" />
    <rect x="638.886" y="38" width="9" height="245" rx="0" ry="0" />
    <rect x="979.886" y="360" width="9" height="427" rx="0" ry="0" />
    <rect x="1064.88" y="385" width="7" height="393" rx="0" ry="0" />
    <rect x="855.886" y="430" width="7" height="92" rx="0" ry="0" />
    <rect x="602.886" y="366" width="7" height="236" rx="0" ry="0" />
    <rect x="603.886" y="666" width="7" height="92" rx="0" ry="0" />
    <rect x="728.886" y="619" width="9" height="163" rx="0" ry="0" />
    <rect x="603.886" y="825" width="9" height="170" rx="0" ry="0" />
    <rect x="728.886" y="360" width="7" height="29" rx="0" ry="0" />
    <rect x="728.886" y="434" width="7" height="31" rx="0" ry="0" />
    <rect x="728.886" y="481" width="7" height="42" rx="0" ry="0" />
    <rect x="603.886" y="619" width="7" height="31" rx="0" ry="0" />
    <rect x="729.886" y="564" width="7" height="21" rx="0" ry="0" />
    <rect x="854.886" y="362" width="7" height="28" rx="0" ry="0" />
    <rect x="856.886" y="631" width="7" height="149" rx="0" ry="0" />
    <rect x="855.886" y="561" width="7" height="16" rx="0" ry="0" />
    <rect x="854.886" y="605" width="7" height="12" rx="0" ry="0" />
    <rect x="1120.88" y="360" width="108" height="7.99999" rx="0" ry="0" />
    <rect x="798.886" y="361" width="301" height="7.99999" rx="0" ry="0" />
    <rect x="562.886" y="362" width="193" height="7.99999" rx="0" ry="0" />
    <rect x="478.886" y="363" width="45" height="9" rx="0" ry="0" />
    <rect x="856.886" y="442" width="287" height="7.99999" rx="0" ry="0" />
    <rect x="477.886" y="485" width="254" height="7.99999" rx="0" ry="0" />
    <rect x="859.886" y="564" width="268" height="8.99999" rx="0" ry="0" />
    <rect x="1147.88" y="564" width="85" height="9" rx="0" ry="0" />
    <rect x="652.886" y="568" width="79" height="9" rx="0" ry="0" />
    <rect x="534.886" y="569" width="85" height="9" rx="0" ry="0" />
    <rect x="1033.89" y="817" width="85" height="9" rx="0" ry="0" />
    <rect x="1145.88" y="816" width="93" height="9" rx="0" ry="0" />
    <rect x="1152.88" y="770" width="89" height="6" rx="0" ry="0" />
    <rect x="1152.88" y="649" width="82" height="6" rx="0" ry="0" />
    <rect x="1152.88" y="689" width="86" height="5" rx="0" ry="0" />
    <rect x="1205.88" y="731" width="33" height="6" rx="0" ry="0" />
    <rect x="1151.88" y="732" width="38" height="6" rx="0" ry="0" />
    <rect x="1150.88" y="571" width="6" height="132" rx="0" ry="0" />
    <rect x="605.886" y="733" width="126" height="9" rx="0" ry="0" />
    <rect x="604.886" y="774" width="153" height="9" rx="0" ry="0" />
    <rect x="798.886" y="773" width="153" height="9" rx="0" ry="0" />
    <rect x="1015.89" y="772" width="98" height="9" rx="0" ry="0" />
    <rect x="968.886" y="773" width="31" height="8" rx="0" ry="0" />
    <rect x="1108.88" y="722" width="6" height="69" rx="0" ry="0" />
    <rect x="1108.88" y="630" width="6" height="75" rx="0" ry="0" />
    <rect x="1108.88" y="570" width="6" height="49" rx="0" ry="0" />
    <rect x="1070.88" y="649" width="38" height="6" rx="0" ry="0" />
    <rect x="1149.88" y="721" width="7" height="68" rx="0" ry="0" />
    <rect x="908.886" y="570" width="8" height="135" rx="0" ry="0" />
    <rect x="908.886" y="725" width="8" height="25" rx="0" ry="0" />
    <rect x="859.886" y="652" width="53" height="5" rx="0" ry="0" />
    <rect x="856.886" y="610" width="53" height="5" rx="0" ry="0" />
    <rect x="860.886" y="736" width="31" height="5" rx="0" ry="0" />
    <rect x="904.886" y="736" width="24" height="4" rx="0" ry="0" />
    <rect x="969.886" y="736" width="15" height="4" rx="0" ry="0" />
    <rect x="941.886" y="736" width="15" height="4" rx="0" ry="0" />
    <rect x="645.886" y="446" width="5" height="41" rx="0" ry="0" />
    <rect x="973.886" y="818" width="45" height="9" rx="0" ry="0" />
    <rect x="806.886" y="818" width="155" height="9" rx="0" ry="0" />
    <rect x="690.886" y="818" width="103" height="10" rx="0" ry="0" />
    <rect x="603.886" y="820" width="45" height="9" rx="0" ry="0" />
    <rect x="683.886" y="910" width="51" height="9" rx="0" ry="0" />
    <rect x="731.886" y="863" width="88" height="9" rx="0" ry="0" />
    <rect x="680.886" y="958" width="57" height="9" rx="0" ry="0" />
    <rect x="679.886" y="910" width="8.00002" height="57" rx="0" ry="0" />
    <rect x="728.886" y="958" width="9.00002" height="36" rx="0" ry="0" />
    <rect x="729.886" y="821" width="9.00002" height="98" rx="0" ry="0" />
    <rect x="813.886" y="863" width="9.00002" height="98" rx="0" ry="0" />
    <rect x="979.886" y="811" width="10" height="183" rx="0" ry="0" />
    <rect x="916.886" y="669" width="31" height="5" rx="0" ry="0" />
    <rect x="941.886" y="671" width="6" height="69" rx="0" ry="0" />
    <rect x="908.886" y="764" width="8" height="13" rx="0" ry="0" />
    <rect x="1109.88" y="805" width="5" height="13" rx="0" ry="0" />
    <rect x="1151.88" y="804" width="5" height="13" rx="0" ry="0" />
    <rect x="483.886" y="569" width="21" height="9" rx="0" ry="0" />
    <rect x="1166.88" y="362" width="6" height="98" rx="0" ry="0" />
    <rect x="1155.88" y="441" width="17" height="9" rx="0" ry="0" />
    <rect x="1193.88" y="440" width="35" height="9" rx="0" ry="0" />
    <rect x="1191.88" y="402" width="6.00002" height="47" rx="0" ry="0" />
    <rect x="1191.88" y="363" width="6" height="27" rx="0" ry="0" />
    <rect x="1067.88" y="482" width="167" height="9" rx="0" ry="0" />
    <rect x="675.886" y="446" width="24" height="4" rx="0" ry="0" />
    <rect x="645.886" y="445" width="12" height="5" rx="0" ry="0" />
    <rect x="718.886" y="445" width="14" height="5" rx="0" ry="0" />
    <rect x="814.886" y="975" width="7" height="21" rx="0" ry="0" />
    <rect x="562.886" y="571" width="5" height="139" rx="0" ry="0" />
    <rect x="563.886" y="818" width="4" height="90" rx="0" ry="0" />
    <rect x="563.886" y="730" width="4" height="63" rx="0" ry="0" />
    <rect x="477.886" y="774" width="89" height="9" rx="0" ry="0" />
    <rect x="477.886" y="822" width="86" height="9" rx="0" ry="0" />
    <rect x="477.886" y="905" width="100" height="8" rx="0" ry="0" />
    <rect x="591.886" y="907" width="15" height="4" rx="0" ry="0" />
    <g>
      <rect x="563.886" y="865" width="13" height="4" rx="0" ry="0" />
      <rect x="595.886" y="865" width="13" height="4" rx="0" ry="0" />
    </g>
    <g>
      <rect x="549.886" y="696" width="30" height="4" rx="0" ry="0" />
      <rect x="596.886" y="696" width="13" height="4" rx="0" ry="0" />
    </g>
    <g>
      <rect x="522.886" y="739" width="41" height="4" rx="0" ry="0" />
      <rect x="484.886" y="738" width="21" height="4" rx="0" ry="0" />
    </g>
    <rect x="483.886" y="696" width="30" height="4" rx="0" ry="0" />
    <rect x="524.886" y="696" width="14" height="4" rx="0" ry="0" />
    <rect x="486.886" y="655" width="78" height="5" rx="0" ry="0" />
    <rect x="528.886" y="657" width="5" height="43" rx="0" ry="0" />
    <rect x="1182.88" y="821" width="4" height="55" rx="0" ry="0" />
    <rect x="1182.88" y="893" width="5" height="74" rx="0" ry="0" />
    <rect x="1184.88" y="899" width="53" height="5" rx="0" ry="0" />
    <rect x="646.886" y="820" width="7" height="16" rx="0" ry="0" />
    <rect x="688.886" y="818" width="7" height="16" rx="0" ry="0" />
    <rect x="814.886" y="819" width="7" height="16" rx="0" ry="0" />
    <rect x="897.886" y="819" width="7" height="16" rx="0" ry="0" />
    <rect x="644.886" y="356" width="7" height="10" rx="0" ry="0" />
    <rect x="645.886" y="287" width="7" height="10" rx="0" ry="0" />
    <rect x="496.886" y="844" width="71" height="4" rx="0" ry="0" />
    <rect x="725.886" y="355" width="15" height="7" rx="0" ry="0" />
    <rect x="728.886" y="285" width="7" height="10" rx="0" ry="0" />
    <rect x="812.886" y="358" width="7" height="10" rx="0" ry="0" />
    <rect x="812.886" y="283" width="7" height="10" rx="0" ry="0" />
    <rect x="562.886" y="359" width="7" height="10" rx="0" ry="0" />
    <rect x="561.886" y="283" width="7" height="10" rx="0" ry="0" />
    <rect x="896.886" y="357" width="7" height="10" rx="0" ry="0" />
    <rect x="896.886" y="282" width="7" height="10" rx="0" ry="0" />
    <rect x="975.886" y="354" width="15" height="7" rx="0" ry="0" />
    <rect x="978.886" y="284" width="7" height="10" rx="0" ry="0" />
    <rect x="1063.88" y="352" width="7" height="21" rx="0" ry="0" />
    <rect x="1064.88" y="283" width="7" height="10" rx="0" ry="0" />
    <rect x="1145.88" y="357" width="7" height="10" rx="0" ry="0" />
    <rect x="1145.88" y="282" width="7" height="10" rx="0" ry="0" />
    <text x="1087.15" y="471.97" font-size="15">00UKS10R072</text>
    <text x="1091.85" y="538.636" font-size="15">00UKS10R043</text>
    <rect x="1069.88" y="504" width="149" height="3" rx="0" ry="0" />
    <rect x="1216.88" y="537" width="3" height="29" rx="0" ry="0" />
    <rect x="1216.88" y="505" width="4" height="26" rx="0" ry="0" />
    <g transform="rotate(90 1067.5 454)">
      <rect x="1058" y="309.125" width="13" height="4" rx="0" ry="0" />
      <rect x="1090" y="309.125" width="13" height="4" rx="0" ry="0" />
    </g>
    <text x="738.886" y="605" font-size="15">00UKS10R021</text>
    <text x="622.886" y="803" font-size="15">00UKS10R013</text>
    <g transform="flipX(838.667)">
      <line x1="793.458" y1="674" x2="832.465" y2="708.667" stroke="black" />
      <line x1="832.465" y1="708.5" x2="882.455" y2="708.5" stroke="black" />
    </g>
    <g transform="flipX(838.667)">
      <line x1="746.458" y1="687" x2="845.465" y2="735.667" stroke="black" />
      <line x1="845.465" y1="735.5" x2="895.454" y2="735.5" stroke="black" />
    </g>
    <g transform="flipX(838.667)">
      <line x1="575.458" y1="608" x2="614.465" y2="642.667" stroke="black" />
      <line x1="614.465" y1="642.5" x2="664.455" y2="642.5" stroke="black" />
    </g>
    <g transform="flipX(838.667)">
      <line x1="588.458" y1="717" x2="627.465" y2="751.667" stroke="black" />
      <line x1="627.465" y1="751.5" x2="677.455" y2="751.5" stroke="black" />
    </g>
    <g transform="flipX(838.667)">
      <line x1="549.458" y1="769" x2="588.465" y2="803.667" stroke="black" />
      <line x1="588.465" y1="803.5" x2="638.455" y2="803.5" stroke="black" />
    </g>
    <text x="978.886" y="799" font-size="15">00UKS10R031</text>
    <text x="570.525" y="663.636" font-size="15">R018</text>
    <g transform="scale(0.768999 0.768999 1329.55 510.606)">
      <line x1="520.35" y1="706.408" x2="546.349" y2="706.408" stroke="black" />
      <line x1="546.349" y1="655.807" x2="546.349" y2="706.408" stroke="black" />
      <line x1="521.35" y1="656.407" x2="546.149" y2="656.607" stroke="black" />
      <line x1="521.35" y1="706.408" x2="521.35" y2="656.407" stroke="black" />
      <rect x="531.95" y="666.607" width="2.65002" height="29.8" rx="0" ry="0" />
      <line x1="521.1" y1="666.157" x2="546.349" y2="666.407" stroke="black" />
      <line x1="521.35" y1="671.657" x2="546.349" y2="671.407" stroke="black" />
      <line x1="521.35" y1="676.407" x2="546.349" y2="676.407" stroke="black" />
      <line x1="521.35" y1="681.407" x2="546.349" y2="681.407" stroke="black" />
      <line x1="521.35" y1="686.407" x2="546.349" y2="686.407" stroke="black" />
      <line x1="521.1" y1="691.407" x2="546.349" y2="691.407" stroke="black" />
      <line x1="521.1" y1="696.408" x2="546.349" y2="696.408" stroke="black" />
    </g>
    <g transform="rotate(270 604.545 628.03) rotate(360 1329.55 510.606) scale(0.949939 0.949939 1329.55 510.606)">
      <line x1="331.629" y1="936.852" x2="357.629" y2="936.852" stroke="black" />
      <line x1="357.629" y1="886.252" x2="357.629" y2="936.852" stroke="black" />
      <line x1="332.629" y1="886.852" x2="357.429" y2="887.052" stroke="black" />
      <line x1="332.629" y1="936.852" x2="332.629" y2="886.852" stroke="black" />
      <rect x="342.879" y="896.542" width="2.99987" height="30.3097" rx="0" ry="0" />
      <line x1="332.379" y1="896.602" x2="357.629" y2="896.852" stroke="black" />
      <line x1="332.629" y1="902.102" x2="357.629" y2="901.852" stroke="black" />
      <line x1="332.629" y1="906.852" x2="357.629" y2="906.852" stroke="black" />
      <line x1="332.629" y1="911.852" x2="357.629" y2="911.852" stroke="black" />
      <line x1="332.629" y1="916.852" x2="357.629" y2="916.852" stroke="black" />
      <line x1="332.379" y1="921.852" x2="357.629" y2="921.852" stroke="black" />
      <line x1="332.379" y1="926.852" x2="357.629" y2="926.852" stroke="black" />
    </g>
  </g>
  <image x="1794.88" y="942.424" width="75" height="25" xlink:href="obj_link.svg" transform="rotate(0 37.3619 12.5)">
    <rt:dyn type="TextStr" mode="constant" value="&quot;PK&quot;" />
    <rt:event type="OnClick">LoadNew("asrk_all")</rt:event>
  </image>
  <g>
    <rect x="177.135" y="815.213" width="150" height="21.2122" rx="0" ry="0" fill="Col_BGItemSel" />
    <image x="176.955" y="838.94" width="175" height="25" xlink:href="DS_ana.svg">
      <title>00UKS11CR003</title>
      <rt:dyn type="IsExp" mode="constant" value="true" />
      <rt:dyn type="ShowFrame" mode="constant" value="true" />
      <rt:dyn type="Color_Readings" mode="constant" value="true" />
      <rt:dyn type="FKKS" mode="constant" value="&quot;00UKS11CR003&quot;" />
      <rt:dyn type="ValueToTheRight" mode="constant" value="false" />
    </image>
    <text x="181.195" y="832.637" fill="black" font-size="18" text-anchor="start">00UKS11CR003</text>
    <image x="118.945" y="818.94" width="50" height="46" xlink:href="ASRK_block_MPDg.svg">
      <title>00UKS11CR003</title>
      <rt:dyn type="KKS" mode="constant" value="&quot;00UKS11CR003&quot;" />
    </image>
  </g>
  <g>
    <rect x="177.135" y="658.152" width="150" height="21.2122" rx="0" ry="0" fill="Col_BGItemSel" />
    <image x="176.955" y="681.88" width="175" height="25" xlink:href="DS_ana.svg">
      <title>00UKS11CR002</title>
      <rt:dyn type="IsExp" mode="constant" value="true" />
      <rt:dyn type="ShowFrame" mode="constant" value="true" />
      <rt:dyn type="Color_Readings" mode="constant" value="true" />
      <rt:dyn type="FKKS" mode="constant" value="&quot;00UKS11CR002&quot;" />
      <rt:dyn type="ValueToTheRight" mode="constant" value="false" />
    </image>
    <text x="181.195" y="675.577" fill="black" font-size="18" text-anchor="start">00UKS11CR002</text>
    <image x="118.945" y="661.88" width="50" height="46" xlink:href="ASRK_block_MPDg.svg">
      <title>00UKS11CR002</title>
      <rt:dyn type="KKS" mode="constant" value="&quot;00UKS11CR002&quot;" />
    </image>
  </g>
  <g>
    <rect x="177.135" y="543.456" width="150" height="21.2122" rx="0" ry="0" fill="Col_BGItemSel" />
    <image x="176.955" y="567.183" width="175" height="25" xlink:href="DS_ana.svg">
      <title>00UKS11CR001</title>
      <rt:dyn type="IsExp" mode="constant" value="true" />
      <rt:dyn type="ShowFrame" mode="constant" value="true" />
      <rt:dyn type="Color_Readings" mode="constant" value="true" />
      <rt:dyn type="FKKS" mode="constant" value="&quot;00UKS11CR001&quot;" />
      <rt:dyn type="ValueToTheRight" mode="constant" value="false" />
    </image>
    <text x="181.195" y="560.88" fill="black" font-size="18" text-anchor="start">00UKS11CR001</text>
    <image x="118.945" y="547.183" width="50" height="46" xlink:href="ASRK_block_MPDg.svg">
      <title>00UKS11CR001</title>
      <rt:dyn type="KKS" mode="constant" value="&quot;00UKS11CR001&quot;" />
    </image>
  </g>
  <g>
    <rect x="177.135" y="359.152" width="150" height="21.2122" rx="0" ry="0" fill="Col_BGItemSel" />
    <image x="176.955" y="382.879" width="175" height="25" xlink:href="DS_ana.svg">
      <title>00UKS11CR015</title>
      <rt:dyn type="IsExp" mode="constant" value="true" />
      <rt:dyn type="ShowFrame" mode="constant" value="true" />
      <rt:dyn type="Color_Readings" mode="constant" value="true" />
      <rt:dyn type="FKKS" mode="constant" value="&quot;00UKS11CR015&quot;" />
      <rt:dyn type="ValueToTheRight" mode="constant" value="false" />
    </image>
    <text x="181.195" y="376.576" fill="black" font-size="18" text-anchor="start">00UKS11CR015</text>
    <image x="118.945" y="362.879" width="50" height="46" xlink:href="ASRK_block_MPDg.svg">
      <title>00UKS11CR015</title>
      <rt:dyn type="KKS" mode="constant" value="&quot;00UKS11CR015&quot;" />
    </image>
  </g>
  <text x="628.212" y="315.152" font-size="15">Пом. выгрузки ТРО</text>
  <text x="947.91" y="386.364" font-size="15">НЗК</text>
  <text x="763.061" y="528.788" font-size="15">
    Пом. уст-ки
    <tspan x="763.061" dy="15">сортир-ки</tspan>
    <tspan x="763.061" dy="15">и измельч.</tspan>
  </text>
  <text x="608.515" y="656.06" font-size="15">
    Пресс
    <tspan x="608.515" dy="15">высокого</tspan>
    <tspan x="608.515" dy="15">давления</tspan>
  </text>
  <text x="587.303" y="936.364" font-size="15">
    Перегруз.
    <tspan x="587.303" dy="15">гор.</tspan>
    <tspan x="587.303" dy="15">отходов</tspan>
  </text>
  <text x="867.606" y="940.909" font-size="15">Уст. сжигания РАО</text>
  <line x1="897" y1="301" x2="1475" y2="301" stroke="black" />
  <g>
    <rect x="1512.41" y="265.213" width="150" height="21.2122" rx="0" ry="0" fill="Col_BGItemSel" />
    <image x="1512.23" y="288.94" width="175" height="25" xlink:href="DS_ana.svg">
      <title>00UKS11CR010</title>
      <rt:dyn type="IsExp" mode="constant" value="true" />
      <rt:dyn type="ShowFrame" mode="constant" value="true" />
      <rt:dyn type="Color_Readings" mode="constant" value="true" />
      <rt:dyn type="FKKS" mode="constant" value="&quot;00UKS11CR010&quot;" />
      <rt:dyn type="ValueToTheRight" mode="constant" value="false" />
    </image>
    <text x="1516.47" y="282.637" fill="black" font-size="18" text-anchor="start">00UKS11CR010</text>
    <image x="1454.22" y="268.94" width="50" height="46" xlink:href="ASRK_block_MPDg.svg">
      <title>00UKS11CR010</title>
      <rt:dyn type="KKS" mode="constant" value="&quot;00UKS11CR010&quot;" />
    </image>
  </g>
  <line x1="1029.73" y1="910.606" x2="1479.73" y2="910.606" stroke="black" />
  <g>
    <rect x="1512.41" y="878.849" width="150" height="21.2122" rx="0" ry="0" fill="Col_BGItemSel" />
    <image x="1512.23" y="902.576" width="175" height="25" xlink:href="DS_ana.svg">
      <title>00UKS11CR006</title>
      <rt:dyn type="IsExp" mode="constant" value="true" />
      <rt:dyn type="ShowFrame" mode="constant" value="true" />
      <rt:dyn type="Color_Readings" mode="constant" value="true" />
      <rt:dyn type="FKKS" mode="constant" value="&quot;00UKS11CR006&quot;" />
      <rt:dyn type="ValueToTheRight" mode="constant" value="false" />
    </image>
    <text x="1516.47" y="896.273" fill="black" font-size="18" text-anchor="start">00UKS11CR006</text>
    <image x="1454.22" y="882.576" width="50" height="46" xlink:href="ASRK_block_MPDg.svg">
      <title>00UKS11CR006</title>
      <rt:dyn type="KKS" mode="constant" value="&quot;00UKS11CR006&quot;" />
    </image>
  </g>
</svg>
