<?xml  version="1.0" encoding="UTF-8"?>
<svg color="Col_BGSand" xmlns="http://www.w3.org/2000/svg" xmlns:rt="http://www.rts.co.at/2001/XMLSchema/RtSvgPL" xmlns:xlink="http://www.w3.org/1999/xlink" xmlns:xsi="http://www.w3.org/2001/XMLSchema-instance" xsi:schemaLocation="http://www.w3.org/2000/svg C:\RTS\RtSvg\XML\SVG.xsd" viewBox="0 0 1920 980" width="1920" height="980" id="asrk_03ukh">
  <rt:model modelversion="7.2.0.23" comment="loginov"/> 
  <line x1="75" y1="148" x2="1850" y2="148" stroke="black" stroke-width="5"/> 
  <text x="500" y="32" font-size="32">Радиационный контроль венттрубы 03UKH, здание 00UYB</text>
  <line x1="75" y1="975" x2="1850" y2="975" stroke="black" stroke-width="5"/> 
  <line x1="75" y1="976" x2="75" y2="148" stroke="black" stroke-width="5"/> 
  <line x1="1850" y1="976" x2="1850" y2="148" stroke="black" stroke-width="5"/> 
  <line x1="1100" y1="420" x2="1100" y2="148" stroke="black" stroke-width="5"/> 
  <line x1="1100" y1="419" x2="1850" y2="419" stroke="black" stroke-width="5"/> 
  <line x1="825" y1="146" x2="875" y2="48" stroke="black" stroke-width="5"/> 
  <line x1="1100" y1="148" x2="1050" y2="48" stroke="black" stroke-width="5"/> 
  <line x1="875" y1="48" x2="1050" y2="48" stroke="black"/> 
  <line x1="1132.73" y1="298" x2="974" y2="298" stroke="black" stroke-width="3"/> 
  <line x1="1775" y1="310" x2="1775" y2="172" stroke="black" stroke-width="3"/> 
  <line x1="1050" y1="173" x2="1775" y2="173" stroke="black" stroke-width="3"/> 
  <line x1="1050" y1="173" x2="1050" y2="90" stroke="black" stroke-width="3"/> 
  <line x1="975" y1="123" x2="975" y2="298" stroke="black" stroke-width="3"/> 
  <text x="1378.18" y="165.758" font-size="15">контроль выброса</text>
  <line x1="925" y1="850" x2="925" y2="123" stroke="black" stroke-width="3"/> 
  <polygon points="386.756,1065.16 398.04,1055.27 399.646,1068.49" fill="black" stroke="black" transform="flipX(1151) rotate(221.213 708.5 406.5)"/> 
  <image x="1150" y="97" width="175" height="25" xlink:href="DS_ana.svg">
    <title>00UKH43CF001</title>
    <rt:dyn type="FKKS" mode="constant" value="&quot;00UKH43CF001&quot;"/> 
    <rt:dyn type="X" mode="constant" value="&quot;F&quot;"/> 
    <rt:dyn type="IsExp" mode="constant" value="true"/> 
    <rt:dyn type="Color_Readings" mode="constant" value="true"/> 
    <rt:dyn type="ValueToTheRight" mode="constant" value="false"/> 
  </image>
  <image x="1734.24" y="932.424" width="75" height="25" xlink:href="obj_link.svg" transform="rotate(0 37.3619 12.5)">
    <rt:dyn type="TextStr" mode="constant" value="&quot;PK&quot;"/> 
    <rt:event type="OnClick">LoadNew(&quot;asrk_all&quot;)</rt:event>
  </image>
  <line x1="315.152" y1="849.151" x2="340.152" y2="849.151" stroke="black" stroke-width="3"/> 
  <line x1="863.151" y1="849.151" x2="988.151" y2="849.151" stroke="black" stroke-width="3"/> 
  <text x="229" y="773" font-size="15" text-anchor="middle">От столов разборки<tspan x="229" dy="15">грязной одежды</tspan>
  </text>
  <line x1="1511.48" y1="786.248" x2="986.485" y2="786.248" stroke="black" stroke-width="3"/> 
  <rect x="1305.98" y="762.748" width="23" height="48" rx="0" ry="0" fill="white" stroke="black"/> 
  <rect x="1308.98" y="762.748" width="17" height="48" rx="0" ry="0" fill="url(#PortalHatch1)" stroke="black"/> 
  <text x="1034.74" y="718.364" font-size="15" text-anchor="middle">00KLS34<tspan x="1034.74" dy="15">CR403</tspan>
  </text>
  <text x="1464.09" y="718.364" font-size="15" text-anchor="middle">00KLS34<tspan x="1464.09" dy="15">CR401</tspan>
  </text>
  <line x1="1511.48" y1="907.345" x2="986.485" y2="907.345" stroke="black" stroke-width="3"/> 
  <rect x="1305.98" y="883.845" width="23" height="48" rx="0" ry="0" fill="white" stroke="black"/> 
  <rect x="1308.98" y="883.845" width="17" height="48" rx="0" ry="0" fill="url(#PortalHatch1)" stroke="black"/> 
  <text x="1034.74" y="841.545" font-size="15" text-anchor="middle">00KLS34<tspan x="1034.74" dy="15">CR404</tspan>
  </text>
  <text x="1464.09" y="841.545" font-size="15" text-anchor="middle">00KLS34<tspan x="1464.09" dy="15">CR402</tspan>
  </text>
  <line x1="985.485" y1="786.151" x2="985.485" y2="908.151" stroke="black" stroke-width="3"/> 
  <line x1="1510.48" y1="786.151" x2="1510.48" y2="908.151" stroke="black" stroke-width="3"/> 
  <text x="1249.88" y="854.727" font-size="20" font-weight="bold">KLS34</text>
  <image x="1356.42" y="743.878" width="70" height="65" xlink:href="DS_CO_valve.svg" transform="rotate(360 -3.05176e-005 -10)">
    <rt:dyn type="KKS" mode="constant" value="&quot;NULL&quot;"/> 
    <rt:dyn type="Operate" mode="constant" value="true"/> 
    <rt:dyn type="Drive" mode="constant" value="&quot;NONE&quot;"/> 
  </image>
  <image x="1357.94" y="865.303" width="70" height="65" xlink:href="DS_CO_valve.svg" transform="rotate(360 -3.05176e-005 -10)">
    <rt:dyn type="KKS" mode="constant" value="&quot;NULL&quot;"/> 
    <rt:dyn type="Operate" mode="constant" value="true"/> 
    <rt:dyn type="Drive" mode="constant" value="&quot;NONE&quot;"/> 
  </image>
  <image x="1081.48" y="743.849" width="70" height="65" xlink:href="DS_CO_valve.svg" transform="rotate(360 -3.05176e-005 -10)">
    <rt:dyn type="KKS" mode="constant" value="&quot;NULL&quot;"/> 
    <rt:dyn type="Operate" mode="constant" value="true"/> 
    <rt:dyn type="Drive" mode="constant" value="&quot;NONE&quot;"/> 
  </image>
  <image x="1083" y="865.272" width="70" height="65" xlink:href="DS_CO_valve.svg" transform="rotate(360 -3.05176e-005 -10)">
    <rt:dyn type="KKS" mode="constant" value="&quot;NULL&quot;"/> 
    <rt:dyn type="Operate" mode="constant" value="true"/> 
    <rt:dyn type="Drive" mode="constant" value="&quot;NONE&quot;"/> 
  </image>
  <text x="1219.54" y="763.818" font-size="15" text-anchor="middle">00KLS34AT001</text>
  <text x="1225.79" y="967.061" font-size="15" text-anchor="middle">00KLS34AT002</text>
  <g>
    <line x1="1463.79" y1="748.415" x2="1464.17" y2="787.415" stroke="black" stroke-width="3"/> 
    <polygon points="1456.04,761.415 1471.04,761.415 1471.04,776.415 1463.79,783.665 1456.04,776.415"/> 
    <circle cx="1464.17" cy="748.415" r="8.62109" fill="Col_Grey3" stroke="black"/> 
  </g>
  <image x="1185.54" y="764.576" width="70" height="70" xlink:href="DS_motor.svg" transform="flipX(9.85729e-005) rotate(0 1.52588e-005 0)">
    <title>00KLS34AT001</title>
    <rt:dyn type="KKS" mode="constant" value="&quot;00KLS34AT001&quot;"/> 
    <rt:dyn type="DATA_NARY" mode="constant" value="&quot;TPTS&quot;"/> 
    <rt:dyn type="DeviceType" mode="constant" value="&quot;fan&quot;"/> 
  </image>
  <image x="1192.54" y="884.485" width="70" height="70" xlink:href="DS_motor.svg" transform="flipX(9.85729e-005) rotate(0 1.52588e-005 0)">
    <title>00KLS34AT002</title>
    <rt:dyn type="KKS" mode="constant" value="&quot;00KLS34AT002&quot;"/> 
    <rt:dyn type="DATA_NARY" mode="constant" value="&quot;TPTS&quot;"/> 
    <rt:dyn type="DeviceType" mode="constant" value="&quot;fan&quot;"/> 
  </image>
  <text x="1439.09" y="809.273" font-size="15">ФД-2М</text>
  <text x="1439.09" y="929.393" font-size="15">ФД-2М</text>
  <text x="1009.74" y="809.273" font-size="15">ФД-2М</text>
  <text x="1009.74" y="929.394" font-size="15">ФД-2М</text>
  <g>
    <polygon points="1457.2,882.324 1472.2,882.324 1472.2,897.324 1464.95,904.574 1457.2,897.324"/> 
    <line x1="1464.95" y1="869.324" x2="1465.32" y2="908.324" stroke="black" stroke-width="3"/> 
    <circle cx="1465.32" cy="869.324" r="8.62109" fill="Col_Grey3" stroke="black"/> 
  </g>
  <g>
    <polygon points="1027.73,759.248 1042.73,759.248 1042.73,774.248 1035.48,781.498 1027.73,774.248"/> 
    <line x1="1035.48" y1="746.248" x2="1035.86" y2="785.248" stroke="black" stroke-width="3"/> 
    <circle cx="1035.86" cy="746.248" r="8.62109" fill="Col_Grey3" stroke="black"/> 
  </g>
  <g>
    <polygon points="1027.73,881.345 1042.73,881.345 1042.73,896.345 1035.48,903.595 1027.73,896.345"/> 
    <line x1="1035.48" y1="868.345" x2="1035.86" y2="907.345" stroke="black" stroke-width="3"/> 
    <circle cx="1035.86" cy="868.345" r="8.62109" fill="Col_Grey3" stroke="black"/> 
  </g>
  <line x1="865.151" y1="786.248" x2="340.152" y2="786.248" stroke="black" stroke-width="3"/> 
  <rect x="532.651" y="762.748" width="23" height="48" rx="0" ry="0" fill="white" stroke="black"/> 
  <rect x="535.651" y="762.748" width="17" height="48" rx="0" ry="0" fill="url(#PortalHatch1)" stroke="black"/> 
  <text x="388.409" y="718.364" font-size="15" text-anchor="middle">00KLS31<tspan x="388.409" dy="15">CR401</tspan>
  </text>
  <text x="817.758" y="718.364" font-size="15" text-anchor="middle">00KLS31<tspan x="817.758" dy="15">CR403</tspan>
  </text>
  <line x1="865.151" y1="907.345" x2="340.152" y2="907.345" stroke="black" stroke-width="3"/> 
  <rect x="532.651" y="883.845" width="23" height="48" rx="0" ry="0" fill="white" stroke="black"/> 
  <rect x="535.651" y="883.845" width="17" height="48" rx="0" ry="0" fill="url(#PortalHatch1)" stroke="black"/> 
  <text x="388.409" y="841.545" font-size="15" text-anchor="middle">00KLS31<tspan x="388.409" dy="15">CR402</tspan>
  </text>
  <text x="817.758" y="841.545" font-size="15" text-anchor="middle">00KLS31<tspan x="817.758" dy="15">CR404</tspan>
  </text>
  <line x1="339.152" y1="786.151" x2="339.152" y2="908.151" stroke="black" stroke-width="3"/> 
  <line x1="864.151" y1="786.151" x2="864.151" y2="908.151" stroke="black" stroke-width="3"/> 
  <text x="549.545" y="854.727" font-size="20" font-weight="bold">KLS31</text>
  <image x="709.091" y="743.878" width="70" height="65" xlink:href="DS_CO_valve.svg" transform="rotate(360 -3.05176e-005 -10)">
    <rt:dyn type="KKS" mode="constant" value="&quot;NULL&quot;"/> 
    <rt:dyn type="Operate" mode="constant" value="true"/> 
    <rt:dyn type="Drive" mode="constant" value="&quot;NONE&quot;"/> 
  </image>
  <image x="710.607" y="865.303" width="70" height="65" xlink:href="DS_CO_valve.svg" transform="rotate(360 -3.05176e-005 -10)">
    <rt:dyn type="KKS" mode="constant" value="&quot;NULL&quot;"/> 
    <rt:dyn type="Operate" mode="constant" value="true"/> 
    <rt:dyn type="Drive" mode="constant" value="&quot;NONE&quot;"/> 
  </image>
  <image x="435.152" y="743.849" width="70" height="65" xlink:href="DS_CO_valve.svg" transform="rotate(360 -3.05176e-005 -10)">
    <rt:dyn type="KKS" mode="constant" value="&quot;NULL&quot;"/> 
    <rt:dyn type="Operate" mode="constant" value="true"/> 
    <rt:dyn type="Drive" mode="constant" value="&quot;NONE&quot;"/> 
  </image>
  <image x="436.667" y="865.272" width="70" height="65" xlink:href="DS_CO_valve.svg" transform="rotate(360 -3.05176e-005 -10)">
    <rt:dyn type="KKS" mode="constant" value="&quot;NULL&quot;"/> 
    <rt:dyn type="Operate" mode="constant" value="true"/> 
    <rt:dyn type="Drive" mode="constant" value="&quot;NONE&quot;"/> 
  </image>
  <text x="638.788" y="762.727" font-size="15" text-anchor="middle">00KLS31AT001</text>
  <text x="638.849" y="967.818" font-size="15" text-anchor="middle">00KLS31AT002</text>
  <g>
    <line x1="817.462" y1="748.415" x2="817.841" y2="787.415" stroke="black" stroke-width="3"/> 
    <polygon points="809.712,761.415 824.712,761.415 824.712,776.415 817.462,783.665 809.712,776.415"/> 
    <circle cx="817.841" cy="748.415" r="8.62109" fill="Col_Grey3" stroke="black"/> 
  </g>
  <image x="605.607" y="765.333" width="70" height="70" xlink:href="DS_motor.svg" transform="rotate(0 1.52588e-005 0)">
    <title>00KLS31AT001</title>
    <rt:dyn type="KKS" mode="constant" value="&quot;00KLS31AT001&quot;"/> 
    <rt:dyn type="DATA_NARY" mode="constant" value="&quot;TPTS&quot;"/> 
    <rt:dyn type="DeviceType" mode="constant" value="&quot;fan&quot;"/> 
  </image>
  <image x="605.607" y="885.242" width="70" height="70" xlink:href="DS_motor.svg" transform="rotate(0 1.52588e-005 0)">
    <title>00KLS31AT002</title>
    <rt:dyn type="KKS" mode="constant" value="&quot;00KLS31AT002&quot;"/> 
    <rt:dyn type="DATA_NARY" mode="constant" value="&quot;TPTS&quot;"/> 
    <rt:dyn type="DeviceType" mode="constant" value="&quot;fan&quot;"/> 
  </image>
  <text x="792.758" y="809.273" font-size="15">ФД-2М</text>
  <text x="792.758" y="929.393" font-size="15">ФД-2М</text>
  <text x="363.409" y="809.273" font-size="15">ФД-2М</text>
  <text x="363.409" y="929.394" font-size="15">ФД-2М</text>
  <g>
    <polygon points="810.863,882.324 825.863,882.324 825.863,897.324 818.613,904.574 810.863,897.324"/> 
    <line x1="818.613" y1="869.324" x2="818.992" y2="908.324" stroke="black" stroke-width="3"/> 
    <circle cx="818.992" cy="869.324" r="8.62109" fill="Col_Grey3" stroke="black"/> 
  </g>
  <g>
    <polygon points="381.402,759.248 396.402,759.248 396.402,774.248 389.152,781.498 381.402,774.248"/> 
    <line x1="389.152" y1="746.248" x2="389.531" y2="785.248" stroke="black" stroke-width="3"/> 
    <circle cx="389.531" cy="746.248" r="8.62109" fill="Col_Grey3" stroke="black"/> 
  </g>
  <g>
    <polygon points="381.402,881.345 396.402,881.345 396.402,896.345 389.152,903.595 381.402,896.345"/> 
    <line x1="389.152" y1="868.345" x2="389.531" y2="907.345" stroke="black" stroke-width="3"/> 
    <circle cx="389.531" cy="868.345" r="8.62109" fill="Col_Grey3" stroke="black"/> 
  </g>
  <line x1="1510.76" y1="849.151" x2="1535.76" y2="849.151" stroke="black" stroke-width="3"/> 
  <polygon points="389.231,87.9361 402.448,86.3261 399.114,99.2161" fill="white" stroke="black" transform="flipX(1554.07) flipX(1151) rotate(221.213 708.5 406.5)"/> 
  <text x="1653.18" y="840" font-size="15" text-anchor="middle">От ванны дезактивации<tspan x="1653.18" dy="15">СИЗ и спецобуви</tspan>
<tspan x="1653.18" dy="15">UYB14R018</tspan>
  </text>
  <line x1="315" y1="571" x2="340" y2="571" stroke="black" stroke-width="3"/> 
  <line x1="863" y1="571" x2="988" y2="571" stroke="black" stroke-width="3"/> 
  <text x="1626.67" y="471.182" font-size="15" text-anchor="middle">Из служебных помещений<tspan x="1626.67" dy="15">ЗКД +0.0; ВИ</tspan>
  </text>
  <line x1="1511.33" y1="508.097" x2="986.334" y2="508.097" stroke="black" stroke-width="3"/> 
  <rect x="1305.83" y="484.597" width="23" height="48" rx="0" ry="0" fill="white" stroke="black"/> 
  <rect x="1308.83" y="484.597" width="17" height="48" rx="0" ry="0" fill="url(#PortalHatch1)" stroke="black"/> 
  <text x="1034.59" y="440.212" font-size="15" text-anchor="middle">00KLF30<tspan x="1034.59" dy="15">CR403</tspan>
  </text>
  <text x="1463.94" y="440.212" font-size="15" text-anchor="middle">00KLS30<tspan x="1463.94" dy="15">CR401</tspan>
  </text>
  <line x1="1511.33" y1="629.194" x2="986.334" y2="629.194" stroke="black" stroke-width="3"/> 
  <rect x="1305.83" y="605.694" width="23" height="48" rx="0" ry="0" fill="white" stroke="black"/> 
  <rect x="1308.83" y="605.694" width="17" height="48" rx="0" ry="0" fill="url(#PortalHatch1)" stroke="black"/> 
  <text x="1034.59" y="563.394" font-size="15" text-anchor="middle">00KLF30<tspan x="1034.59" dy="15">CR404</tspan>
  </text>
  <text x="1464.55" y="564.242" font-size="15" text-anchor="middle">00KLS30<tspan x="1464.55" dy="15">CR402</tspan>
  </text>
  <line x1="985.334" y1="508" x2="985.334" y2="630" stroke="black" stroke-width="3"/> 
  <line x1="1510.33" y1="508" x2="1510.33" y2="630" stroke="black" stroke-width="3"/> 
  <text x="1249.73" y="576.576" font-size="20" font-weight="bold">KLS30</text>
  <image x="1356.27" y="465.727" width="70" height="65" xlink:href="DS_CO_valve.svg" transform="rotate(360 -3.05176e-005 -10)">
    <rt:dyn type="KKS" mode="constant" value="&quot;NULL&quot;"/> 
    <rt:dyn type="Operate" mode="constant" value="true"/> 
    <rt:dyn type="Drive" mode="constant" value="&quot;NONE&quot;"/> 
  </image>
  <image x="1357.79" y="587.152" width="70" height="65" xlink:href="DS_CO_valve.svg" transform="rotate(360 -3.05176e-005 -10)">
    <rt:dyn type="KKS" mode="constant" value="&quot;NULL&quot;"/> 
    <rt:dyn type="Operate" mode="constant" value="true"/> 
    <rt:dyn type="Drive" mode="constant" value="&quot;NONE&quot;"/> 
  </image>
  <image x="1081.33" y="465.697" width="70" height="65" xlink:href="DS_CO_valve.svg" transform="rotate(360 -3.05176e-005 -10)">
    <rt:dyn type="KKS" mode="constant" value="&quot;NULL&quot;"/> 
    <rt:dyn type="Operate" mode="constant" value="true"/> 
    <rt:dyn type="Drive" mode="constant" value="&quot;NONE&quot;"/> 
  </image>
  <image x="1082.85" y="587.121" width="70" height="65" xlink:href="DS_CO_valve.svg" transform="rotate(360 -3.05176e-005 -10)">
    <rt:dyn type="KKS" mode="constant" value="&quot;NULL&quot;"/> 
    <rt:dyn type="Operate" mode="constant" value="true"/> 
    <rt:dyn type="Drive" mode="constant" value="&quot;NONE&quot;"/> 
  </image>
  <text x="1219.39" y="485.667" font-size="15" text-anchor="middle">00KLS30AT001</text>
  <text x="1225.15" y="688.485" font-size="15" text-anchor="middle">00KLS30AT002</text>
  <g>
    <line x1="1463.64" y1="470.264" x2="1464.02" y2="509.264" stroke="black" stroke-width="3"/> 
    <polygon points="1455.89,483.264 1470.89,483.264 1470.89,498.264 1463.64,505.514 1455.89,498.264"/> 
    <circle cx="1464.02" cy="470.264" r="8.62109" fill="Col_Grey3" stroke="black"/> 
  </g>
  <image x="1185.39" y="486.425" width="70" height="70" xlink:href="DS_motor.svg" transform="flipX(9.85729e-005) rotate(0 1.52588e-005 0)">
    <title>00KLS30AT001</title>
    <rt:dyn type="KKS" mode="constant" value="&quot;00KLS30AT001&quot;"/> 
    <rt:dyn type="DATA_NARY" mode="constant" value="&quot;TPTS&quot;"/> 
    <rt:dyn type="DeviceType" mode="constant" value="&quot;fan&quot;"/> 
  </image>
  <image x="1192.39" y="606.334" width="70" height="70" xlink:href="DS_motor.svg" transform="flipX(9.85729e-005) rotate(0 1.52588e-005 0)">
    <title>00KLS34AT002</title>
    <rt:dyn type="KKS" mode="constant" value="&quot;00KLS34AT002&quot;"/> 
    <rt:dyn type="DATA_NARY" mode="constant" value="&quot;TPTS&quot;"/> 
    <rt:dyn type="DeviceType" mode="constant" value="&quot;fan&quot;"/> 
  </image>
  <text x="1438.94" y="531.122" font-size="15">ФД-2М</text>
  <text x="1438.94" y="651.242" font-size="15">ФД-2М</text>
  <text x="1009.59" y="531.122" font-size="15">ФД-2М</text>
  <text x="1009.59" y="651.243" font-size="15">ФД-2М</text>
  <g>
    <polygon points="1457.05,604.173 1472.05,604.173 1472.05,619.173 1464.8,626.423 1457.05,619.173"/> 
    <line x1="1464.8" y1="591.173" x2="1465.17" y2="630.173" stroke="black" stroke-width="3"/> 
    <circle cx="1465.17" cy="591.173" r="8.62109" fill="Col_Grey3" stroke="black"/> 
  </g>
  <g>
    <polygon points="1027.58,481.097 1042.58,481.097 1042.58,496.097 1035.33,503.347 1027.58,496.097"/> 
    <line x1="1035.33" y1="468.097" x2="1035.71" y2="507.097" stroke="black" stroke-width="3"/> 
    <circle cx="1035.71" cy="468.097" r="8.62109" fill="Col_Grey3" stroke="black"/> 
  </g>
  <g>
    <polygon points="1027.58,603.194 1042.58,603.194 1042.58,618.194 1035.33,625.444 1027.58,618.194"/> 
    <line x1="1035.33" y1="590.194" x2="1035.71" y2="629.194" stroke="black" stroke-width="3"/> 
    <circle cx="1035.71" cy="590.194" r="8.62109" fill="Col_Grey3" stroke="black"/> 
  </g>
  <line x1="865" y1="508.097" x2="340" y2="508.097" stroke="black" stroke-width="3"/> 
  <rect x="532.5" y="484.597" width="23" height="48" rx="0" ry="0" fill="white" stroke="black"/> 
  <rect x="535.5" y="484.597" width="17" height="48" rx="0" ry="0" fill="url(#PortalHatch1)" stroke="black"/> 
  <text x="388.257" y="440.212" font-size="15" text-anchor="middle">00KLS36<tspan x="388.257" dy="15">CR401</tspan>
  </text>
  <text x="817.606" y="440.212" font-size="15" text-anchor="middle">00KLS36<tspan x="817.606" dy="15">CR403</tspan>
  </text>
  <line x1="865" y1="629.194" x2="340" y2="629.194" stroke="black" stroke-width="3"/> 
  <rect x="532.5" y="605.694" width="23" height="48" rx="0" ry="0" fill="white" stroke="black"/> 
  <rect x="535.5" y="605.694" width="17" height="48" rx="0" ry="0" fill="url(#PortalHatch1)" stroke="black"/> 
  <text x="387.273" y="562.727" font-size="15" text-anchor="middle">00KLS36<tspan x="387.273" dy="15">CR402</tspan>
  </text>
  <text x="816.061" y="562.727" font-size="15" text-anchor="middle">00KLS36<tspan x="816.061" dy="15">CR404</tspan>
  </text>
  <line x1="339" y1="508" x2="339" y2="630" stroke="black" stroke-width="3"/> 
  <line x1="864" y1="508" x2="864" y2="630" stroke="black" stroke-width="3"/> 
  <text x="549.394" y="576.576" font-size="20" font-weight="bold">KLS36</text>
  <image x="708.939" y="465.727" width="70" height="65" xlink:href="DS_CO_valve.svg" transform="rotate(360 -3.05176e-005 -10)">
    <rt:dyn type="KKS" mode="constant" value="&quot;NULL&quot;"/> 
    <rt:dyn type="Operate" mode="constant" value="true"/> 
    <rt:dyn type="Drive" mode="constant" value="&quot;NONE&quot;"/> 
  </image>
  <image x="710.455" y="587.152" width="70" height="65" xlink:href="DS_CO_valve.svg" transform="rotate(360 -3.05176e-005 -10)">
    <rt:dyn type="KKS" mode="constant" value="&quot;NULL&quot;"/> 
    <rt:dyn type="Operate" mode="constant" value="true"/> 
    <rt:dyn type="Drive" mode="constant" value="&quot;NONE&quot;"/> 
  </image>
  <image x="435" y="465.697" width="70" height="65" xlink:href="DS_CO_valve.svg" transform="rotate(360 -3.05176e-005 -10)">
    <rt:dyn type="KKS" mode="constant" value="&quot;NULL&quot;"/> 
    <rt:dyn type="Operate" mode="constant" value="true"/> 
    <rt:dyn type="Drive" mode="constant" value="&quot;NONE&quot;"/> 
  </image>
  <image x="436.515" y="587.121" width="70" height="65" xlink:href="DS_CO_valve.svg" transform="rotate(360 -3.05176e-005 -10)">
    <rt:dyn type="KKS" mode="constant" value="&quot;NULL&quot;"/> 
    <rt:dyn type="Operate" mode="constant" value="true"/> 
    <rt:dyn type="Drive" mode="constant" value="&quot;NONE&quot;"/> 
  </image>
  <text x="639.455" y="486.424" font-size="15" text-anchor="middle">00KLS36AT001</text>
  <text x="637.273" y="688.485" font-size="15" text-anchor="middle">00KLS36AT002</text>
  <g>
    <line x1="817.311" y1="470.264" x2="817.69" y2="509.264" stroke="black" stroke-width="3"/> 
    <polygon points="809.561,483.264 824.561,483.264 824.561,498.264 817.311,505.514 809.561,498.264"/> 
    <circle cx="817.69" cy="470.264" r="8.62109" fill="Col_Grey3" stroke="black"/> 
  </g>
  <image x="605.455" y="487.182" width="70" height="70" xlink:href="DS_motor.svg" transform="rotate(0 1.52588e-005 0)">
    <title>00KLS36AT001</title>
    <rt:dyn type="KKS" mode="constant" value="&quot;00KLS36AT001&quot;"/> 
    <rt:dyn type="DATA_NARY" mode="constant" value="&quot;TPTS&quot;"/> 
    <rt:dyn type="DeviceType" mode="constant" value="&quot;fan&quot;"/> 
  </image>
  <image x="605.455" y="607.091" width="70" height="70" xlink:href="DS_motor.svg" transform="rotate(0 1.52588e-005 0)">
    <title>00KLS36AT002</title>
    <rt:dyn type="KKS" mode="constant" value="&quot;00KLS36AT002&quot;"/> 
    <rt:dyn type="DATA_NARY" mode="constant" value="&quot;TPTS&quot;"/> 
    <rt:dyn type="DeviceType" mode="constant" value="&quot;fan&quot;"/> 
  </image>
  <text x="792.606" y="531.122" font-size="15">ФД-2М</text>
  <text x="792.606" y="651.242" font-size="15">ФД-2М</text>
  <text x="363.257" y="531.122" font-size="15">ФД-2М</text>
  <text x="363.257" y="651.243" font-size="15">ФД-2М</text>
  <g>
    <polygon points="810.712,604.173 825.712,604.173 825.712,619.173 818.462,626.423 810.712,619.173"/> 
    <line x1="818.462" y1="591.173" x2="818.841" y2="630.173" stroke="black" stroke-width="3"/> 
    <circle cx="818.841" cy="591.173" r="8.62109" fill="Col_Grey3" stroke="black"/> 
  </g>
  <g>
    <polygon points="381.25,481.097 396.25,481.097 396.25,496.097 389,503.347 381.25,496.097"/> 
    <line x1="389" y1="468.097" x2="389.379" y2="507.097" stroke="black" stroke-width="3"/> 
    <circle cx="389.379" cy="468.097" r="8.62109" fill="Col_Grey3" stroke="black"/> 
  </g>
  <g>
    <polygon points="381.25,603.194 396.25,603.194 396.25,618.194 389,625.444 381.25,618.194"/> 
    <line x1="389" y1="590.194" x2="389.379" y2="629.194" stroke="black" stroke-width="3"/> 
    <circle cx="389.379" cy="590.194" r="8.62109" fill="Col_Grey3" stroke="black"/> 
  </g>
  <line x1="1510.61" y1="571" x2="1535.61" y2="571" stroke="black" stroke-width="3"/> 
  <text x="229.697" y="218.697" font-size="15" text-anchor="middle">От помещений<tspan x="229.697" dy="15">спец.прачечной и  ВЦ</tspan>
  </text>
  <polygon points="428.054,1037.17 439.338,1027.28 440.944,1040.5" fill="black" stroke="black" transform="flipY(123.467) flipY(117.308) flipX(1151) rotate(221.213 708.5 406.5)"/> 
  <g transform="flipX(1024.33)">
    <line x1="998.667" y1="88.9693" x2="1051.67" y2="88.9693" stroke="black"/> 
    <line x1="1050.67" y1="89.3023" x2="1050.67" y2="100.302" stroke="black"/> 
    <line x1="1043.17" y1="89.3023" x2="1043.17" y2="100.302" stroke="black"/> 
    <line x1="1035.33" y1="89.3023" x2="1035.33" y2="100.302" stroke="black"/> 
    <line x1="1027.83" y1="89.3023" x2="1027.83" y2="100.302" stroke="black"/> 
    <line x1="1020.33" y1="89.3023" x2="1020.33" y2="100.302" stroke="black"/> 
    <line x1="1012.83" y1="89.3023" x2="1012.83" y2="100.302" stroke="black"/> 
    <line x1="1005.83" y1="89.3023" x2="1005.83" y2="100.302" stroke="black"/> 
  </g>
  <line x1="316.303" y1="270.727" x2="316.303" y2="685" stroke="black" stroke-width="3"/> 
  <g>
    <polygon points="-296.675,1455.6 -283.458,1453.99 -286.792,1466.88" fill="white" stroke="black" transform="flipX(1151) rotate(221.213 708.5 406.5)"/> 
    <line x1="314.972" y1="272.081" x2="156.242" y2="272.081" stroke="black" stroke-width="3"/> 
    <text x="189.576" y="266.667" font-size="15">UYB14R018</text>
  </g>
  <g>
    <polygon points="-320.675,1427.23 -307.458,1425.62 -310.792,1438.51" fill="white" stroke="black" transform="flipX(1151) rotate(221.213 708.5 406.5)"/> 
    <line x1="315.608" y1="309.233" x2="156.878" y2="309.233" stroke="black" stroke-width="3"/> 
    <text x="190.212" y="303.819" font-size="15">UYB14R023</text>
  </g>
  <g>
    <polygon points="-346.589,1398.61 -333.372,1397 -336.706,1409.89" fill="white" stroke="black" transform="flipX(1151) rotate(221.213 708.5 406.5)"/> 
    <line x1="314.972" y1="347.839" x2="156.242" y2="347.839" stroke="black" stroke-width="3"/> 
    <text x="189.576" y="342.424" font-size="15">UYB14R028</text>
  </g>
  <g>
    <polygon points="-370.588,1370.24 -357.371,1368.63 -360.705,1381.52" fill="white" stroke="black" transform="flipX(1151) rotate(221.213 708.5 406.5)"/> 
    <line x1="315.609" y1="384.991" x2="156.879" y2="384.991" stroke="black" stroke-width="3"/> 
    <text x="190.213" y="379.576" font-size="15">UYB14R030</text>
  </g>
  <g>
    <polygon points="-394.506,1343.9 -381.289,1342.29 -384.623,1355.18" fill="white" stroke="black" transform="flipX(1151) rotate(221.213 708.5 406.5)"/> 
    <line x1="314.972" y1="420.566" x2="156.242" y2="420.566" stroke="black" stroke-width="3"/> 
    <text x="189.576" y="415.152" font-size="15">UYB14R032</text>
  </g>
  <g>
    <polygon points="-418.505,1315.52 -405.288,1313.91 -408.622,1326.8" fill="white" stroke="black" transform="flipX(1151) rotate(221.213 708.5 406.5)"/> 
    <line x1="315.609" y1="457.718" x2="156.879" y2="457.718" stroke="black" stroke-width="3"/> 
    <text x="190.213" y="452.304" font-size="15">UYB14R041</text>
  </g>
  <g>
    <polygon points="-444.42,1286.91 -431.203,1285.3 -434.537,1298.19" fill="white" stroke="black" transform="flipX(1151) rotate(221.213 708.5 406.5)"/> 
    <line x1="314.972" y1="496.324" x2="156.242" y2="496.324" stroke="black" stroke-width="3"/> 
    <text x="189.576" y="490.909" font-size="15">UKU33R013</text>
  </g>
  <g>
    <polygon points="-468.419,1258.53 -455.202,1256.92 -458.536,1269.81" fill="white" stroke="black" transform="flipX(1151) rotate(221.213 708.5 406.5)"/> 
    <line x1="315.609" y1="533.476" x2="156.879" y2="533.476" stroke="black" stroke-width="3"/> 
    <text x="190.213" y="528.061" font-size="15">UKU33R014</text>
  </g>
  <g>
    <polygon points="-493.376,1230.04 -480.159,1228.43 -483.493,1241.32" fill="white" stroke="black" transform="flipX(1151) rotate(221.213 708.5 406.5)"/> 
    <line x1="315.609" y1="571.355" x2="156.879" y2="571.355" stroke="black" stroke-width="3"/> 
    <text x="190.213" y="565.94" font-size="15">UKU33R015</text>
  </g>
  <g>
    <polygon points="-518.292,1202.57 -505.075,1200.96 -508.409,1213.85" fill="white" stroke="black" transform="flipX(1151) rotate(221.213 708.5 406.5)"/> 
    <line x1="314.972" y1="608.445" x2="156.242" y2="608.445" stroke="black" stroke-width="3"/> 
    <text x="189.576" y="603.03" font-size="15">UKU33R016</text>
  </g>
  <g>
    <polygon points="-542.291,1174.19 -529.074,1172.58 -532.408,1185.47" fill="white" stroke="black" transform="flipX(1151) rotate(221.213 708.5 406.5)"/> 
    <line x1="315.609" y1="645.597" x2="156.879" y2="645.597" stroke="black" stroke-width="3"/> 
    <text x="190.213" y="640.182" font-size="15">UKU33R024</text>
  </g>
  <g>
    <polygon points="-567.248,1145.7 -554.031,1144.09 -557.365,1156.98" fill="white" stroke="black" transform="flipX(1151) rotate(221.213 708.5 406.5)"/> 
    <line x1="315.609" y1="683.476" x2="156.879" y2="683.476" stroke="black" stroke-width="3"/> 
    <text x="190.213" y="678.061" font-size="15">UKU33R025</text>
  </g>
  <g>
    <polygon points="-664.625,1038.14 -651.408,1036.53 -654.742,1049.42" fill="white" stroke="black" transform="flipX(1151) rotate(221.213 708.5 406.5)"/> 
    <line x1="313.215" y1="828.536" x2="154.485" y2="828.536" stroke="black" stroke-width="3"/> 
    <text x="187.819" y="823.121" font-size="15">UYB14R030</text>
  </g>
  <g>
    <polygon points="-689.582,1009.65 -676.365,1008.04 -679.699,1020.93" fill="white" stroke="black" transform="flipX(1151) rotate(221.213 708.5 406.5)"/> 
    <line x1="313.215" y1="866.415" x2="154.485" y2="866.415" stroke="black" stroke-width="3"/> 
    <text x="187.819" y="861" font-size="15">UYB14R032</text>
  </g>
  <line x1="313" y1="828" x2="313" y2="868" stroke="black" stroke-width="3"/> 
  <line x1="311.515" y1="921.818" x2="311.515" y2="923.333" stroke="black"/> 
  <polygon points="744.599,195.419 757.816,193.809 754.482,206.699" fill="white" stroke="black" transform="flipX(1732.43) flipX(1151) rotate(221.213 708.5 406.5)"/> 
  <line x1="1694.58" y1="534.021" x2="1535.85" y2="534.021" stroke="black" stroke-width="3"/> 
  <text x="1569.18" y="528.607" font-size="15">UYB10R020</text>
  <polygon points="720.599,167.049 733.816,165.439 730.482,178.329" fill="white" stroke="black" transform="flipX(1733.06) flipX(1151) rotate(221.213 708.5 406.5)"/> 
  <line x1="1695.21" y1="571.172" x2="1536.48" y2="571.172" stroke="black" stroke-width="3"/> 
  <text x="1569.82" y="565.759" font-size="15">UYB10R021</text>
  <polygon points="694.685,138.429 707.902,136.819 704.568,149.709" fill="white" stroke="black" transform="flipX(1732.43) flipX(1151) rotate(221.213 708.5 406.5)"/> 
  <line x1="1694.58" y1="609.779" x2="1535.85" y2="609.779" stroke="black" stroke-width="3"/> 
  <text x="1569.18" y="604.364" font-size="15">UYB10R022</text>
  <polygon points="670.686,110.059 683.903,108.449 680.569,121.339" fill="white" stroke="black" transform="flipX(1733.07) flipX(1151) rotate(221.213 708.5 406.5)"/> 
  <line x1="1695.22" y1="646.931" x2="1536.49" y2="646.931" stroke="black" stroke-width="3"/> 
  <text x="1569.82" y="641.516" font-size="15">UYB10R024</text>
  <polygon points="646.768,83.7192 659.985,82.1092 656.651,94.9992" fill="white" stroke="black" transform="flipX(1732.43) flipX(1151) rotate(221.213 708.5 406.5)"/> 
  <line x1="1694.58" y1="682.505" x2="1535.85" y2="682.505" stroke="black" stroke-width="3"/> 
  <text x="1569.18" y="677.091" font-size="15">UYB33R017</text>
  <polygon points="622.769,55.3392 635.986,53.7292 632.652,66.6192" fill="white" stroke="black" transform="flipX(1733.07) flipX(1151) rotate(221.213 708.5 406.5)"/> 
  <line x1="1695.22" y1="719.657" x2="1536.49" y2="719.657" stroke="black" stroke-width="3"/> 
  <text x="1569.82" y="714.244" font-size="15">UYB33R018</text>
  <polygon points="596.854,26.7292 610.071,25.1192 606.737,38.0091" fill="white" stroke="black" transform="flipX(1732.43) flipX(1151) rotate(221.213 708.5 406.5)"/> 
  <line x1="1694.58" y1="758.264" x2="1535.85" y2="758.264" stroke="black" stroke-width="3"/> 
  <text x="1569.18" y="752.849" font-size="15">UYB33R020</text>
  <line x1="1537" y1="533.758" x2="1537" y2="758" stroke="black" stroke-width="3"/> 
  <text x="1541.82" y="200.606" fill="black" font-size="18" text-anchor="start">03UKH42CR401</text>
  <image x="1520.59" y="97" width="175" height="25" xlink:href="DS_ana.svg">
    <title>03UKH42CR401A</title>
    <rt:dyn type="FKKS" mode="constant" value="&quot;03UKH42CR401A&quot;"/> 
    <rt:dyn type="X" mode="constant" value="&quot;OAb&quot;"/> 
    <rt:dyn type="IsExp" mode="constant" value="true"/> 
    <rt:dyn type="Color_Readings" mode="constant" value="true"/> 
    <rt:dyn type="ShowFrame" mode="constant" value="true"/> 
    <rt:dyn type="ValueToTheRight" mode="constant" value="false"/> 
  </image>
  <line x1="1776" y1="310" x2="1726.67" y2="310" stroke="black" stroke-width="3"/> 
  <image x="1520.59" y="274" width="175" height="25" xlink:href="DS_ana.svg">
    <title>03UKH42CR402</title>
    <rt:dyn type="FKKS" mode="constant" value="&quot;03UKH42CR402&quot;"/> 
    <rt:dyn type="X" mode="constant" value="&quot;Ab&quot;"/> 
    <rt:dyn type="IsExp" mode="constant" value="true"/> 
    <rt:dyn type="Color_Readings" mode="constant" value="true"/> 
    <rt:dyn type="ShowFrame" mode="constant" value="true"/> 
    <rt:dyn type="ValueToTheRight" mode="constant" value="false"/> 
  </image>
  <text x="1544.85" y="315.909" font-size="15">03UKH42CR402</text>
  <rect x="1485.76" y="236.97" width="242.424" height="127.788" rx="0" ry="0" fill="none" stroke="black" stroke-width="3"/> 
  <rect x="1132.73" y="235.455" width="316.665" height="131.697" rx="0" ry="0" fill="none" stroke="black" stroke-width="3"/> 
  <image x="1139.79" y="191.939" width="70" height="65" xlink:href="DS_CO_valve.svg" transform="rotate(360 -3.05176e-005 -10)">
    <rt:dyn type="KKS" mode="constant" value="&quot;NULL&quot;"/> 
    <rt:dyn type="Operate" mode="constant" value="true"/> 
    <rt:dyn type="Drive" mode="constant" value="&quot;NONE&quot;"/> 
  </image>
  <image x="1139.79" y="324.394" width="70" height="65" xlink:href="DS_CO_valve.svg" transform="rotate(360 -3.05176e-005 -10)">
    <rt:dyn type="KKS" mode="constant" value="&quot;NULL&quot;"/> 
    <rt:dyn type="Operate" mode="constant" value="true"/> 
    <rt:dyn type="Drive" mode="constant" value="&quot;NONE&quot;"/> 
  </image>
  <image x="1368.39" y="192.97" width="70" height="65" xlink:href="DS_CO_valve.svg" transform="rotate(360 -3.05176e-005 -10)">
    <rt:dyn type="KKS" mode="constant" value="&quot;NULL&quot;"/> 
    <rt:dyn type="Operate" mode="constant" value="true"/> 
    <rt:dyn type="Drive" mode="constant" value="&quot;moto&quot;"/> 
  </image>
  <image x="1368.39" y="324.909" width="70" height="65" xlink:href="DS_CO_valve.svg" transform="rotate(360 -3.05176e-005 -10)">
    <rt:dyn type="KKS" mode="constant" value="&quot;NULL&quot;"/> 
    <rt:dyn type="Operate" mode="constant" value="true"/> 
    <rt:dyn type="Drive" mode="constant" value="&quot;moto&quot;"/> 
  </image>
  <text x="1581.21" y="394.545" font-size="15">ФД-2М</text>
  <line x1="1487.43" y1="310" x2="1447.88" y2="310" stroke="black" stroke-width="3"/> 
  <g>
    <line x1="1606.1" y1="327.688" x2="1606.48" y2="366.688" stroke="black" stroke-width="3"/> 
    <polygon points="1598.35,340.688 1613.35,340.688 1613.35,355.688 1606.1,362.938 1598.35,355.688"/> 
    <circle cx="1606.48" cy="327.688" r="8.62109" fill="Col_Grey3" stroke="black"/> 
  </g>
  <image x="1255.88" y="215.667" width="70" height="70" xlink:href="DS_motor.svg" transform="flipX(-5.2611e-006) rotate(0 1.52588e-005 0)">
    <title>00KUK00AN001</title>
    <rt:dyn type="KKS" mode="constant" value="&quot;00KUK00AN001&quot;"/> 
    <rt:dyn type="DATA_NARY" mode="constant" value="&quot;TPTS&quot;"/> 
    <rt:dyn type="DeviceType" mode="constant" value="&quot;fan&quot;"/> 
  </image>
  <text x="1290.88" y="206.788" font-size="15" text-anchor="middle">00KUK00AN001</text>
  <text x="1290.12" y="329.273" font-size="15" text-anchor="middle">00KUK00AN002</text>
  <image x="1578.09" y="206.788" width="60" height="60" xlink:href="ASRK_block_OAaer.svg">
    <title>03UKH42CR402</title>
    <rt:dyn type="KKS" mode="constant" value="&quot;03UKH42CR402&quot;"/> 
  </image>
  <image x="1255.88" y="344.606" width="70" height="70" xlink:href="DS_motor.svg" transform="flipX(-5.2611e-006) rotate(0 1.52588e-005 0)">
    <title>00KUK00AN002</title>
    <rt:dyn type="KKS" mode="constant" value="&quot;00KUK00AN002&quot;"/> 
    <rt:dyn type="DATA_NARY" mode="constant" value="&quot;TPTS&quot;"/> 
    <rt:dyn type="DeviceType" mode="constant" value="&quot;fan&quot;"/> 
  </image>
</svg>
