<?xml version="1.0" encoding="windows-1251"?>
<svg xmlns="http://www.w3.org/2000/svg" xmlns:rt="http://www.rts.co.at/2001/XMLSchema/RtSvgPL" xmlns:xlink="http://www.w3.org/1999/xlink" xmlns:xsi="http://www.w3.org/2001/XMLSchema-instance" color="Col_BGSand" xsi:schemaLocation="http://www.w3.org/2000/svg C:\RTS\RtSvg\XML\SVG.xsd" viewBox="0 0 1914 1000" width="1914" height="1000" id="asrk_kpm21" fill="none">
  <title>Системы очистки радиоактивных технологических сдувок</title>
  <rt:model modelversion="7.2.0.22" comment="Создано VNIIAES-ASUTP" />
  <line x1="1355.3" y1="816.97" x2="1355.3" y2="980.332" stroke="black" />
  <line x1="1196.15" y1="319.334" x2="1196.15" y2="386" stroke="black" />
  <line x1="886" y1="227" x2="886" y2="317.756" stroke="black" />
  <line x1="373.121" y1="664" x2="666.042" y2="664" stroke="black" stroke-width="3" />
  <line x1="332" y1="164" x2="332" y2="403.879" stroke="black" stroke-width="3" />
  <line x1="171" y1="164" x2="333" y2="164" stroke="black" stroke-width="3" />
  <line x1="665" y1="578" x2="956.03" y2="578" stroke="black" stroke-width="3" />
  <line x1="331.212" y1="404" x2="668.012" y2="404" stroke="black" stroke-width="3" />
  <line x1="1167.61" y1="921.227" x2="1237.31" y2="921.227" stroke="black" stroke-width="3" />
  <line x1="1059.21" y1="980" x2="1825.88" y2="980" stroke="black" stroke-width="3" />
  <text x="634.273" y="39.4242" fill="black" font-size="32">
    <title>Система очистки радиоактивных технологических сдувок</title>
    Система очистки р/а технологических сдувок 10KPM21
  </text>
  <line x1="1824" y1="129.182" x2="1824" y2="981" stroke="black" stroke-width="3" />
  <text x="1735.79" y="942.424" fill="black" font-size="15">
    10KPM21
    <tspan x="1735.79" dy="15">AA017</tspan>
  </text>
  <line x1="1733" y1="229.182" x2="1733" y2="474.929" stroke="black" stroke-width="3" />
  <path d="M1487.01 -532.454 A8.80483 8.80483 0 1 1 1487.01 -514.844 " fill="none" stroke="black" stroke-width="3" transform="rotate(270 1616.75 883.029) flipY() translate(0 -828) translate(229.642 442.62)" />
  <text x="1721" y="619.546" fill="black" font-size="15">
    10KPM21
    <tspan x="1721" dy="15">AN001</tspan>
  </text>
  <image x="1787.88" y="581.01" width="70" height="70" xlink:href="DS_motor.svg" transform="rotate(90 0 0) flipX() flipX()">
    <rt:dyn type="KKS" mode="constant" value="&quot;NULL&quot;" />
    <rt:dyn type="Operate" mode="constant" value="true" />
  </image>
  <line x1="1650.64" y1="783" x2="1824.88" y2="783" stroke="black" stroke-width="3" />
  <rect x="603.41" y="344.818" width="17" height="501.863" rx="0" ry="0" fill="url(#PortalHatch1)" stroke="black" stroke-width="3" transform="rotate(90 499.629 673.886)" />
  <g transform="flipX(1383.52) flipX(81.2424) rotate(270 1829.73 859.091) flipY(578) rotate(180 1210.44 541.647)">
    <g transform="rotate(90 1212.44 532.643)">
      <polygon points="3983.45,-1047.35 3996.83,-1039.7 3996.83,-1054.99 3983.45,-1047.35" fill="black" stroke="black" stroke-width="1" transform="rotate(180 1279.17 367.814)" />
    </g>
  </g>
  <text x="1705" y="725" fill="black" font-size="15">
    10KPM31
    <tspan x="1705" dy="15">AA008</tspan>
  </text>
  <line x1="1644" y1="318" x2="1644" y2="981" stroke="black" stroke-width="3" />
  <text x="1554.61" y="943" fill="black" font-size="15">
    10KPM21
    <tspan x="1554.61" dy="15">AA013</tspan>
  </text>
  <text x="1542.21" y="619.546" fill="black" font-size="15">
    10KPM21
    <tspan x="1542.21" dy="15">AN002</tspan>
  </text>
  <image x="1608.79" y="581.01" width="70" height="70" xlink:href="DS_motor.svg" transform="rotate(90 0 0) flipX() flipX()">
    <rt:dyn type="KKS" mode="constant" value="&quot;NULL&quot;" />
    <rt:dyn type="Operate" mode="constant" value="true" />
  </image>
  <line x1="1522" y1="783" x2="1635.13" y2="783" stroke="black" stroke-width="3" />
  <line x1="1515" y1="363" x2="1515" y2="981" stroke="black" stroke-width="3" />
  <path d="M1805.34 154.904 A8.80483 8.80483 0 1 1 1805.34 172.514 " fill="none" stroke="black" stroke-width="3" transform="rotate(270 1616.75 883.029) flipY() translate(0 -828) translate(229.642 442.62)" />
  <path d="M1487.04 -403.885 A8.80483 8.80483 0 1 1 1487.04 -386.275 " fill="none" stroke="black" stroke-width="3" transform="rotate(270 1616.75 883.029) flipY() translate(0 -828) translate(229.642 442.62)" />
  <text x="1547.58" y="705.273" fill="black" font-size="15">
    10KPM21
    <tspan x="1547.58" dy="15">AA014</tspan>
  </text>
  <line x1="1522" y1="754" x2="1645" y2="754" stroke="black" stroke-width="3" />
  <path d="M1515.74 -403.885 A8.80483 8.80483 0 1 1 1515.74 -386.275 " fill="none" stroke="black" stroke-width="3" transform="rotate(270 1616.75 883.029) flipY() translate(0 -828) translate(229.642 442.62)" />
  <text x="1554.61" y="524.092" fill="black" font-size="15">
    10KPM21
    <tspan x="1554.61" dy="15">AA012</tspan>
  </text>
  <line x1="1641.85" y1="476" x2="1825.91" y2="476" stroke="black" stroke-width="3" />
  <text x="1741.3" y="503.059" fill="black" font-size="15">
    10KPM21
    <tspan x="1741.3" dy="15">AA015</tspan>
  </text>
  <text x="1554.61" y="413.153" fill="black" font-size="15">
    10KPM21
    <tspan x="1554.61" dy="15">AA010</tspan>
  </text>
  <line x1="1514" y1="364" x2="1642.37" y2="364" stroke="black" stroke-width="3" />
  <line x1="677.909" y1="318" x2="1645.42" y2="318" stroke="black" stroke-width="3" />
  <line x1="1528.12" y1="230" x2="1735.03" y2="230" stroke="black" stroke-width="3" />
  <image x="1301.7" y="275.606" width="70" height="65" xlink:href="DS_CO_valve.svg" transform="rotate(360 -0.00012207 -10)">
    <rt:dyn type="KKS" mode="constant" value="&quot;NULL&quot;" />
    <rt:dyn type="Operate" mode="constant" value="true" />
    <rt:dyn type="Drive" mode="constant" value="&quot;moto&quot;" />
  </image>
  <text x="1291.82" y="266.97" fill="black" font-size="15">
    10KPM21
    <tspan x="1291.82" dy="15">AA009</tspan>
  </text>
  <text x="1555.21" y="267.212" fill="black" font-size="15">
    10KPM21
    <tspan x="1555.21" dy="15">AA201</tspan>
  </text>
  <image x="1554.67" y="187.61" width="70" height="65" xlink:href="DS_Reg_valve.svg" transform="flipX(0.000192988) rotate(0 0 -10.0001)">
    <rt:dyn type="KKS" mode="constant" value="&quot;NULL&quot;" />
    <rt:dyn type="Operate" mode="constant" value="true" />
  </image>
  <text x="1474.36" y="229.788" fill="black" font-size="15" text-anchor="middle">
    воздух из
    <tspan x="1474.36" dy="15">помещений</tspan>
  </text>
  <line x1="479" y1="131" x2="1824.88" y2="131" stroke="black" stroke-width="3" />
  <text x="1741.3" y="77.121" fill="black" font-size="15">
    10KPM31
    <tspan x="1741.3" dy="15">AA007</tspan>
  </text>
  <line x1="1699.09" y1="59.4848" x2="1699.09" y2="130.697" stroke="black" stroke-width="3" />
  <text x="1560.03" y="86.848" fill="black" font-size="15">
    10KPM31
    <tspan x="1560.03" dy="15">AA012</tspan>
  </text>
  <line x1="95" y1="60" x2="1701.48" y2="60" stroke="black" stroke-width="3" />
  <text x="1385.91" y="86.879" fill="black" font-size="15">
    10KPM31
    <tspan x="1385.91" dy="15">AA201</tspan>
  </text>
  <text x="1028.18" y="77.667" fill="black" font-size="15">10KPM31AT001</text>
  <line x1="1375" y1="193" x2="1375" y2="318.576" stroke="black" stroke-width="3" />
  <line x1="524" y1="194" x2="1376.51" y2="194" stroke="black" stroke-width="3" />
  <rect x="896.203" y="692.611" width="65.9747" height="62.8944" rx="0" ry="0" fill="Col_Grey4" transform="rotate(314.645 525.5 325)" />
  <line x1="1094" y1="275.636" x2="1092.48" y2="362" stroke="black" stroke-dasharray="5,5" />
  <text x="1052.03" y="254.939" fill="black" font-size="15">
    10KPM21
    <tspan x="1052.03" dy="15">AT004-007</tspan>
  </text>
  <text x="1216.31" y="147.909" fill="black" font-size="15">
    10KPM21
    <tspan x="1216.31" dy="15">AA202</tspan>
  </text>
  <text x="621.849" y="147.909" fill="black" font-size="15">
    10KPM21
    <tspan x="621.849" dy="15">AA007</tspan>
  </text>
  <line x1="955" y1="319" x2="955" y2="579" stroke="black" stroke-width="3" />
  <text x="997.909" y="439.788" fill="black" font-size="15">
    10KPM21
    <tspan x="997.909" dy="15">AA006</tspan>
  </text>
  <line x1="747" y1="318" x2="747" y2="578" stroke="black" stroke-width="3" />
  <text x="778.56" y="405.394" fill="black" font-size="15">
    10KPM31
    <tspan x="778.56" dy="15">AA003</tspan>
  </text>
  <line x1="910" y1="328" x2="910" y2="455" stroke="black" />
  <image x="744" y="275.182" width="70" height="65" xlink:href="DS_CO_valve.svg" transform="rotate(360 -0.00012207 -10)">
    <rt:dyn type="KKS" mode="constant" value="&quot;NULL&quot;" />
    <rt:dyn type="Operate" mode="constant" value="true" />
    <rt:dyn type="Drive" mode="constant" value="&quot;moto&quot;" />
  </image>
  <text x="751.97" y="352.455" fill="black" font-size="15">
    10KPM21
    <tspan x="751.97" dy="15">AA005</tspan>
  </text>
  <line x1="963.909" y1="464" x2="1275.21" y2="464" stroke="black" stroke-width="3" />
  <rect x="1387.97" y="267.061" width="68.1812" height="92.4244" rx="0" ry="0" fill="Col_Grey4" />
  <rect x="1389.49" y="301.575" width="65.1515" height="25.7576" rx="0" ry="0" fill="url(#PortalHatch3)" />
  <text x="1423.67" y="375.758" fill="black" font-size="15" text-anchor="middle">
    10KPM21
    <tspan x="1423.67" dy="15">AT008</tspan>
  </text>
  <line x1="1097.92" y1="463" x2="1097.92" y2="755" stroke="black" stroke-width="3" />
  <text x="1129.44" y="506.016" fill="black" font-size="15">
    10KPM31
    <tspan x="1129.44" dy="15">AA002</tspan>
  </text>
  <line x1="1275" y1="463" x2="1275" y2="754" stroke="black" stroke-width="3" />
  <text x="1308.19" y="506.016" fill="black" font-size="15">
    10KPM31
    <tspan x="1308.19" dy="15">AA001</tspan>
  </text>
  <rect x="1241.88" y="549.697" width="70" height="70" rx="0" ry="0" fill="Col_Grey4" />
  <text x="1197.67" y="576.485" fill="black" font-size="15" text-anchor="middle">
    10KPM31
    <tspan x="1197.67" dy="15">AH001</tspan>
  </text>
  <line x1="1200.64" y1="783" x2="1506.19" y2="783" stroke="black" stroke-width="3" />
  <line x1="1096.24" y1="754" x2="1505.18" y2="754" stroke="black" stroke-width="3" />
  <text x="1370" y="698" fill="black" font-size="15">
    10KPM31
    <tspan x="1370" dy="15">AA009</tspan>
  </text>
  <text x="1006" y="704" fill="black" font-size="15">
    10KPM31
    <tspan x="1006" dy="15">AA010</tspan>
  </text>
  <text x="1182" y="704" fill="black" font-size="15">
    10KPM31
    <tspan x="1182" dy="15">AA011</tspan>
  </text>
  <path d="M1611.4 -163.969 A8.80483 8.80483 0 1 1 1611.4 -146.359 " fill="none" stroke="black" stroke-width="3" transform="rotate(270 1616.75 883.029) flipY() translate(0 -828) translate(229.642 442.62)" />
  <line x1="1099.45" y1="657.5" x2="1266.12" y2="657.5" stroke="black" stroke-width="3" />
  <line x1="1284.3" y1="657.5" x2="1354" y2="657.5" stroke="black" stroke-width="3" />
  <text x="1413.7" y="645.394" fill="black" font-size="15" text-anchor="middle">
    воздух из
    <tspan x="1413.7" dy="15">помещений</tspan>
  </text>
  <g transform="flipX(1107.76) flipX(1383.52) flipX(81.2424) rotate(270 1829.73 859.091) flipY(578) rotate(180 1210.44 541.647)">
    <g transform="rotate(90 1212.44 532.643)">
      <polygon points="4660.3,-641.444 4673.68,-633.794 4673.68,-649.084 4660.3,-641.444" fill="black" stroke="black" stroke-width="1" transform="rotate(180 1279.17 367.814)" />
    </g>
  </g>
  <g transform="flipX(1107.76) flipX(1383.52) flipX(81.2424) rotate(270 1829.73 859.091) flipY(578) rotate(180 1210.44 541.647)">
    <g transform="rotate(90 1212.44 532.643)">
      <polygon points="4660.81,-619.201 4674.2,-611.551 4674.2,-626.841 4660.81,-619.201" fill="black" stroke="black" stroke-width="1" transform="rotate(180 1279.17 367.814)" />
    </g>
  </g>
  <line x1="1202" y1="756" x2="1202" y2="782.939" stroke="black" stroke-width="3" />
  <line x1="1235" y1="920.121" x2="1235" y2="980.204" stroke="black" stroke-width="3" />
  <line x1="1166.61" y1="957" x2="1236.31" y2="957" stroke="black" stroke-width="3" />
  <g transform="scale(0.559998 0.559998 635.788 749.242)">
    <rect x="686.556" y="-29.6018" width="72.7274" height="180.303" rx="0" ry="0" fill="Col_Grey4" />
    <rect x="660.42" y="-1.94986" width="125" height="125" rx="0" ry="0" fill="Col_Grey4" stroke="black" />
    <line x1="685.76" y1="21.1412" x2="785.761" y2="21.1412" stroke="black" stroke-width="3" />
    <line x1="685.76" y1="20.8082" x2="733.089" y2="61.8085" stroke="black" stroke-width="3" />
    <line x1="686.419" y1="97.8085" x2="784.431" y2="97.8085" stroke="black" stroke-width="3" />
    <line x1="687.76" y1="97.1415" x2="733.089" y2="60.4745" stroke="black" stroke-width="3" />
    <line x1="769.011" y1="-2.32887" x2="769.011" y2="123.429" stroke="black" />
    <line x1="677.586" y1="-0.813866" x2="676.071" y2="123.429" stroke="black" />
  </g>
  <text x="778.56" y="506.016" fill="black" font-size="15">
    10KPM31
    <tspan x="778.56" dy="15">AA004</tspan>
  </text>
  <line x1="746.242" y1="464" x2="947.909" y2="464" stroke="black" stroke-width="3" />
  <path d="M1647.84 200.548 A8.80483 8.80483 0 1 1 1647.84 218.158 " fill="none" stroke="black" transform="rotate(270 830.938 543.084) rotate(270 1616.75 883.029) flipY() translate(0 -828) translate(229.642 442.62)" />
  <g transform="scale(0.559998 0.559998 635.788 749.242)">
    <rect x="684.771" y="433.813" width="72.7274" height="180.303" rx="0" ry="0" fill="Col_Grey4" />
    <rect x="658.635" y="461.465" width="125" height="125" rx="0" ry="0" fill="Col_Grey4" stroke="black" />
    <line x1="683.974" y1="484.556" x2="783.976" y2="484.556" stroke="black" stroke-width="3" />
    <line x1="683.974" y1="484.223" x2="731.304" y2="525.223" stroke="black" stroke-width="3" />
    <line x1="684.634" y1="561.223" x2="782.646" y2="561.223" stroke="black" stroke-width="3" />
    <line x1="685.974" y1="560.556" x2="731.304" y2="523.889" stroke="black" stroke-width="3" />
    <line x1="767.226" y1="461.086" x2="767.226" y2="586.843" stroke="black" />
    <line x1="675.801" y1="462.601" x2="674.286" y2="586.843" stroke="black" />
  </g>
  <path d="M1647.84 315.184 A8.80483 8.80483 0 1 1 1647.84 332.794 " fill="none" stroke="black" transform="rotate(270 830.938 543.084) rotate(270 1616.75 883.029) flipY() translate(0 -828) translate(229.642 442.62)" />
  <line x1="910" y1="473" x2="910" y2="571.606" stroke="black" />
  <line x1="910" y1="588" x2="910" y2="715" stroke="black" />
  <rect x="1069.12" y="549.697" width="70" height="70" rx="0" ry="0" fill="Col_Grey4" />
  <text x="1027.42" y="576.485" fill="black" font-size="15" text-anchor="middle">
    10KPM31
    <tspan x="1027.42" dy="15">AH002</tspan>
  </text>
  <text x="605.182" y="354.939" fill="black" font-size="15" text-anchor="middle">
    10KPM21
    <tspan x="605.182" dy="15">AT002</tspan>
  </text>
  <text x="606.697" y="620.091" fill="black" font-size="15" text-anchor="middle">
    10KPM21
    <tspan x="606.697" dy="15">AT003</tspan>
  </text>
  <line x1="516.091" y1="131" x2="516.091" y2="404" stroke="black" stroke-width="3" />
  <text x="524.606" y="265.545" fill="black" font-size="15">
    10KPM31
    <tspan x="524.606" dy="15">AA005</tspan>
  </text>
  <path d="M2075.89 594.6 A8.80483 8.80483 0 1 1 2075.89 612.21 " fill="none" stroke="black" stroke-width="3" transform="rotate(270 1616.75 883.029) flipY() translate(0 -828) translate(229.642 442.62)" />
  <line x1="480" y1="131" x2="480" y2="394.341" stroke="black" stroke-width="3" />
  <path d="M2093.62 139.427 A8.80483 8.80483 0 1 1 2093.62 157.036 " fill="none" stroke="black" stroke-width="3" transform="flipX(484.223) flipX(476.223) rotate(270 830.938 543.084) rotate(270 1616.75 883.029) flipY() translate(0 -828) translate(229.642 442.62)" />
  <text x="398.788" y="350.242" fill="black" font-size="15">
    10KPM21
    <tspan x="398.788" dy="15">AA003</tspan>
  </text>
  <path d="M2075.89 630.934 A8.80483 8.80483 0 1 1 2075.89 648.544 " fill="none" stroke="black" stroke-width="3" transform="rotate(270 1616.75 883.029) flipY() translate(0 -828) translate(229.642 442.62)" />
  <line x1="393" y1="193" x2="393" y2="401.916" stroke="black" stroke-width="3" />
  <line x1="1275.21" y1="636.788" x2="1354" y2="636.788" stroke="black" stroke-width="3" />
  <line x1="391.273" y1="194" x2="470.063" y2="194" stroke="black" stroke-width="3" />
  <line x1="487" y1="195" x2="508" y2="195" stroke="black" stroke-width="3" />
  <line x1="480" y1="412.068" x2="480" y2="665" stroke="black" stroke-width="3" />
  <text x="513.242" y="506.016" fill="black" font-size="15">
    10KPM31
    <tspan x="513.242" dy="15">AA006</tspan>
  </text>
  <text x="398.788" y="610.849" fill="black" font-size="15">
    10KPM21
    <tspan x="398.788" dy="15">AA004</tspan>
  </text>
  <line x1="372.606" y1="403" x2="374.106" y2="665" stroke="black" stroke-width="3" />
  <text x="200.545" y="309.485" fill="black" font-size="15">
    10KPM21
    <tspan x="200.545" dy="15">AT001</tspan>
  </text>
  <g transform="flipX(1107.76) flipX(1383.52) flipX(81.2424) rotate(270 1829.73 859.091) flipY(578) rotate(180 1210.44 541.647)">
    <g transform="rotate(90 1212.44 532.643)">
      <polygon points="4362.33,-297.505 4375.71,-289.855 4375.71,-305.145 4362.33,-297.505" fill="black" stroke="black" stroke-width="1" transform="rotate(180 1279.17 367.814)" />
    </g>
  </g>
  <text x="997.151" y="983.757" fill="black" font-size="15" text-anchor="middle">в вент. трубу</text>
  <line x1="354.97" y1="714" x2="910" y2="714" stroke="black" />
  <line x1="354.97" y1="411" x2="354.97" y2="714.03" stroke="black" />
  <text x="678.727" y="100.909" fill="black" font-size="15">10KPM31AC001</text>
  <g transform="scale(1.0524 1.0524 1.4013e-045 1.4013e-045) flipX(963.818) rotate(270 964.576 96.9697) rotate(90 1175.94 787.121) scale(0.380039 0.380039 1162.3 219.697) rotate(270 1162.3 219.697) rotate(270 412.288 437.863)">
    <g transform="rotate(90 1094.11 578.015)">
      <rect x="-562.045" y="1016.33" width="130.303" height="134.849" rx="0" ry="0" fill="Col_Grey4" stroke="black" stroke-width="3" />
      <line x1="-498.445" y1="1031.45" x2="-449.955" y2="1055.7" stroke="black" stroke-width="3" />
      <line x1="-544.735" y1="1111.58" x2="-496.244" y2="1135.83" stroke="black" stroke-width="3" />
      <line x1="-451.475" y1="1055.7" x2="-546.925" y2="1111.76" stroke="black" stroke-width="3" />
      <line x1="-497.265" y1="1135.23" x2="-497.265" y2="1150.23" stroke="black" stroke-width="3" />
      <line x1="-497.115" y1="1018.38" x2="-497.115" y2="1033.38" stroke="black" stroke-width="3" />
    </g>
  </g>
  <text x="253.879" y="117.303" fill="black" font-size="15">
    10KPM21
    <tspan x="253.879" dy="15">AC002</tspan>
  </text>
  <line x1="172" y1="111" x2="172" y2="557.97" stroke="black" stroke-width="3" />
  <text x="210.152" y="421.636" fill="black" font-size="15">
    10KPM21
    <tspan x="210.152" dy="15">AA001</tspan>
  </text>
  <line x1="94.004" y1="273" x2="171.614" y2="273" stroke="black" stroke-width="3" />
  <text x="171.061" y="86.758" fill="black" font-size="15" text-anchor="middle">
    воздух из
    <tspan x="171.061" dy="15">помещений</tspan>
  </text>
  <path d="M1901.34 1014.21 A8.80483 8.80483 0 1 1 1901.34 1031.82 " fill="none" stroke="black" stroke-width="3" transform="rotate(270 1616.75 883.029) flipY() translate(0 -828) translate(229.642 442.62)" />
  <g transform="flipY(964.394) rotate(270 16.8485 43.1818) flipX(1107.76) flipX(1383.52) flipX(81.2424) rotate(270 1829.73 859.091) flipY(578) rotate(180 1210.44 541.647)">
    <g transform="rotate(90 1212.44 532.643)">
      <polygon points="2354.6,-805.458 2367.98,-797.807 2367.98,-813.098 2354.6,-805.458" fill="black" stroke="black" stroke-width="1" transform="rotate(180 1279.17 367.814)" />
    </g>
  </g>
  <text x="429.576" y="942.098" fill="black" font-size="15">KBB</text>
  <text x="479.499" y="868.431" fill="black" font-size="15">
    10KPM20
    <tspan x="479.499" dy="15">AA201</tspan>
  </text>
  <line x1="634.5" y1="822.758" x2="636" y2="924.29" stroke="black" stroke-width="3" />
  <g transform="flipY(964.394) rotate(270 16.8485 43.1818) flipX(1107.76) flipX(1383.52) flipX(81.2424) rotate(270 1829.73 859.091) flipY(578) rotate(180 1210.44 541.647)">
    <g transform="rotate(90 1212.44 532.643)">
      <polygon points="2355.54,-614.777 2368.92,-607.127 2368.92,-622.417 2355.54,-614.777" fill="black" stroke="black" stroke-width="1" transform="rotate(180 1279.17 367.814)" />
    </g>
  </g>
  <text x="598.257" y="942.098" fill="black" font-size="15">KTA, KTC</text>
  <text x="671.181" y="868.431" fill="black" font-size="15">
    10KPM20
    <tspan x="671.181" dy="15">AA202</tspan>
  </text>
  <line x1="796.091" y1="822.758" x2="797.591" y2="924.29" stroke="black" stroke-width="3" />
  <g transform="flipY(964.394) rotate(270 16.8485 43.1818) flipX(1107.76) flipX(1383.52) flipX(81.2424) rotate(270 1829.73 859.091) flipY(578) rotate(180 1210.44 541.647)">
    <g transform="rotate(90 1212.44 532.643)">
      <polygon points="2355.54,-453.188 2368.92,-445.537 2368.92,-460.827 2355.54,-453.188" fill="black" stroke="black" stroke-width="1" transform="rotate(180 1279.17 367.814)" />
    </g>
  </g>
  <text x="781.848" y="942.098" fill="black" font-size="15">KBF</text>
  <text x="810" y="823" fill="black" font-size="15">UKC</text>
  <text x="276" y="894" fill="black" font-size="15">UKA</text>
  <line x1="96" y1="770" x2="96" y2="822.03" stroke="black" stroke-width="3" />
  <line x1="10.0324" y1="761" x2="308.515" y2="761" stroke="black" stroke-width="3" />
  <line x1="170.79" y1="468" x2="240.49" y2="468" stroke="black" stroke-width="3" />
  <line x1="172.18" y1="499" x2="241.88" y2="499" stroke="black" stroke-width="3" />
  <text x="172.909" y="605.212" fill="black" font-size="15" text-anchor="middle">10KPL</text>
  <g transform="scale(0.690003 0.690003 619.121 885.606) rotate(90 619.121 885.606)">
    <ellipse cx="522.981" cy="308.96" rx="56.0606" ry="21.2121" fill="Col_Grey4" />
    <rect x="466.98" y="306.93" width="111.424" height="158.909" rx="0" ry="0" fill="Col_Grey4" />
    <ellipse cx="522.471" cy="463.39" rx="56.0606" ry="21.2121" fill="Col_Grey4" />
  </g>
  <text x="927.394" y="802.636" fill="black" font-size="15">
    10KPM21
    <tspan x="927.394" dy="15">BB001</tspan>
  </text>
  <rect x="1056.97" y="79.697" width="68.1812" height="92.4244" rx="0" ry="0" fill="Col_Grey4" />
  <rect x="1058.49" y="114.211" width="65.1515" height="25.7576" rx="0" ry="0" fill="url(#PortalHatch3)" />
  <text x="1647.61" y="176.242" fill="black" font-size="15">
    10KPM21
    <tspan x="1647.61" dy="15">AA011</tspan>
  </text>
  <g transform="scale(1.0524 1.0524 1.4013e-045 1.4013e-045) flipX(963.818) rotate(270 964.576 96.9697) rotate(90 1175.94 787.121) scale(0.380039 0.380039 1162.3 219.697) rotate(270 1162.3 219.697) rotate(270 412.288 437.863)">
    <g transform="rotate(90 1094.11 578.015)">
      <rect x="-484.314" y="-148.404" width="130.303" height="134.849" rx="0" ry="0" fill="Col_Grey4" stroke="black" stroke-width="3" />
      <line x1="-420.714" y1="-133.284" x2="-372.224" y2="-109.034" stroke="black" stroke-width="3" />
      <line x1="-467.004" y1="-53.1543" x2="-418.514" y2="-28.9043" stroke="black" stroke-width="3" />
      <line x1="-373.744" y1="-109.034" x2="-469.194" y2="-52.9743" stroke="black" stroke-width="3" />
      <line x1="-419.534" y1="-29.5043" x2="-419.534" y2="-14.5043" stroke="black" stroke-width="3" />
      <line x1="-419.384" y1="-146.354" x2="-419.384" y2="-131.354" stroke="black" stroke-width="3" />
    </g>
  </g>
  <g transform="scale(1.0524 1.0524 1.4013e-045 1.4013e-045) flipX(963.818) rotate(270 964.576 96.9697) rotate(90 1175.94 787.121) scale(0.380039 0.380039 1162.3 219.697) rotate(270 1162.3 219.697) rotate(270 412.288 437.863)">
    <g transform="rotate(90 1094.11 578.015)">
      <rect x="-562.045" y="1193.4" width="130.303" height="134.849" rx="0" ry="0" fill="Col_Grey4" stroke="black" stroke-width="3" />
      <line x1="-498.445" y1="1208.52" x2="-449.955" y2="1232.77" stroke="black" stroke-width="3" />
      <line x1="-544.735" y1="1288.65" x2="-496.244" y2="1312.9" stroke="black" stroke-width="3" />
      <line x1="-451.475" y1="1232.77" x2="-546.925" y2="1288.83" stroke="black" stroke-width="3" />
      <line x1="-497.265" y1="1312.3" x2="-497.265" y2="1327.3" stroke="black" stroke-width="3" />
      <line x1="-497.115" y1="1195.45" x2="-497.115" y2="1210.45" stroke="black" stroke-width="3" />
    </g>
  </g>
  <text x="178.061" y="204.303" fill="black" font-size="15">
    10KPM21
    <tspan x="178.061" dy="15">AC001</tspan>
  </text>
  <image x="111.09" y="219.606" width="70" height="65" xlink:href="DS_CO_valve.svg" transform="rotate(270 0 0) flipY(-10.0004) flipX(-0.000205135) rotate(270 -0.00012207 -10)">
    <rt:dyn type="KKS" mode="constant" value="&quot;NULL&quot;" />
    <rt:dyn type="Operate" mode="constant" value="true" />
    <rt:dyn type="Drive" mode="constant" value="&quot;moto&quot;" />
  </image>
  <text x="11.5757" y="250.394" fill="black" font-size="15">
    10KPM21
    <tspan x="11.5757" dy="15">AA002</tspan>
  </text>
  <line x1="96" y1="59.4848" x2="96" y2="753" stroke="black" stroke-width="3" />
  <g transform="rotate(270 16.8485 43.1818) flipX(1107.76) flipX(1383.52) flipX(81.2424) rotate(270 1829.73 859.091) flipY(578) rotate(180 1210.44 541.647)">
    <g transform="rotate(90 1212.44 532.643)">
      <polygon points="3249.78,-1079.02 3263.16,-1071.37 3263.16,-1086.66 3249.78,-1079.02" fill="black" stroke="black" stroke-width="1" transform="rotate(180 1279.17 367.814)" />
    </g>
  </g>
  <line x1="34" y1="366.03" x2="34" y2="761" stroke="black" stroke-width="3" />
  <text x="11.5757" y="345.848" fill="black" font-size="15">
    10KPM21
    <tspan x="11.5757" dy="15">AA118</tspan>
  </text>
  <line x1="34" y1="367.061" x2="85.7879" y2="367.061" stroke="black" stroke-width="3" />
  <line x1="106.485" y1="367.061" x2="173" y2="367.061" stroke="black" stroke-width="3" />
  <g transform="flipX(1107.76) flipX(1383.52) flipX(81.2424) rotate(270 1829.73 859.091) flipY(578) rotate(180 1210.44 541.647)">
    <g transform="rotate(90 1212.44 532.643)">
      <polygon points="3313.85,-515.777 3327.23,-508.127 3327.23,-523.417 3313.85,-515.777" fill="black" stroke="black" stroke-width="1" transform="rotate(180 1279.17 367.814)" />
    </g>
  </g>
  <line x1="10.0324" y1="821" x2="797.909" y2="821" stroke="black" stroke-width="3" />
  <g transform="flipX(1107.76) flipX(1383.52) flipX(81.2424) rotate(270 1829.73 859.091) flipY(578) rotate(180 1210.44 541.647)">
    <g transform="rotate(90 1212.44 532.643)">
      <polygon points="3313.85,-455.686 3327.23,-448.036 3327.23,-463.326 3313.85,-455.686" fill="black" stroke="black" stroke-width="1" transform="rotate(180 1279.17 367.814)" />
    </g>
  </g>
  <text x="44.7273" y="795.788" fill="black" font-size="15" text-anchor="middle">
    <title>KBC40_60</title>
    KPM22, 23
  </text>
  <path d="M2460.76 497.879 A8.80483 8.80483 0 1 1 2460.76 515.488 " fill="none" stroke="black" stroke-width="3" transform="rotate(270 830.938 543.084) rotate(270 1616.75 883.029) flipY() translate(0 -828) translate(229.642 442.62)" />
  <line x1="128" y1="651.446" x2="128" y2="763.03" stroke="black" stroke-width="3" />
  <text x="157" y="702.303" fill="black" font-size="15">
    10KPM20
    <tspan x="157" dy="15">AA203</tspan>
  </text>
  <g transform="rotate(270 16.8485 43.1818) flipX(1107.76) flipX(1383.52) flipX(81.2424) rotate(270 1829.73 859.091) flipY(578) rotate(180 1210.44 541.647)">
    <g transform="rotate(90 1212.44 532.643)">
      <polygon points="2706.85,-1123.4 2720.23,-1115.75 2720.23,-1131.04 2706.85,-1123.4" fill="black" stroke="black" stroke-width="1" transform="rotate(180 1279.17 367.814)" />
    </g>
  </g>
  <text x="127.636" y="647.879" fill="black" font-size="15" text-anchor="middle">
    <title>KBC40_60</title>
    10KPL
  </text>
  <text x="225.182" y="797.242" fill="black" font-size="15">
    10KPM20
    <tspan x="225.182" dy="15">AA002</tspan>
  </text>
  <line x1="310" y1="551.918" x2="310" y2="821" stroke="black" stroke-width="3" />
  <image x="284.258" y="648.319" width="70" height="65" xlink:href="DS_CO_valve.svg" transform="flipY(-10.0004) flipX(-0.000205135) rotate(270 -0.00012207 -10)">
    <rt:dyn type="KKS" mode="constant" value="&quot;NULL&quot;" />
    <rt:dyn type="Operate" mode="constant" value="true" />
    <rt:dyn type="Drive" mode="constant" value="&quot;moto&quot;" />
  </image>
  <text x="224.152" y="638.758" fill="black" font-size="15">
    10KPM20
    <tspan x="224.152" dy="15">AA001</tspan>
  </text>
  <line x1="444.318" y1="822.757" x2="445.818" y2="924.29" stroke="black" stroke-width="3" />
  <rect x="697.531" y="915.514" width="17" height="150" rx="0" ry="0" fill="url(#PortalHatch1)" stroke="black" stroke-width="3" transform="rotate(90 272.137 943.333) rotate(90 499.629 673.886)" />
  <text x="285.788" y="524.242" fill="black" font-size="15">10KTB</text>
  <g transform="rotate(270 329.5 354)">
    <rect x="334.818" y="309.576" width="68.1812" height="92.4244" rx="0" ry="0" fill="Col_Grey4" />
    <rect x="336.338" y="344.09" width="65.1515" height="25.7576" rx="0" ry="0" fill="url(#PortalHatch3)" />
  </g>
  <line x1="344" y1="411.5" x2="365" y2="411.5" stroke="black" />
  <line x1="899.576" y1="327.5" x2="920.576" y2="327.5" stroke="black" />
  <text x="637.424" y="963.455" fill="black" font-size="15" text-anchor="middle">сдувки из баков</text>
  <image x="1251.88" y="557.197" width="50" height="55" xlink:href="TPTS_switch.svg" />
  <image x="1079.12" y="557.197" width="50" height="55" xlink:href="TPTS_switch.svg" />
  <image x="111.09" y="314.424" width="70" height="65" xlink:href="DS_CO_valve.svg" transform="rotate(270 0 0) flipY(-10.0004) flipX(-0.000205135) rotate(270 -0.00012207 -10)">
    <rt:dyn type="KKS" mode="constant" value="&quot;NULL&quot;" />
    <rt:dyn type="Operate" mode="constant" value="true" />
    <rt:dyn type="Drive" mode="constant" value="&quot;moto&quot;" />
  </image>
  <image x="401.454" y="350.788" width="70" height="65" xlink:href="DS_CO_valve.svg" transform="rotate(270 0 0) flipY(-10.0004) flipX(-0.000205135) rotate(270 -0.00012207 -10)">
    <rt:dyn type="KKS" mode="constant" value="&quot;NULL&quot;" />
    <rt:dyn type="Operate" mode="constant" value="true" />
    <rt:dyn type="Drive" mode="constant" value="&quot;moto&quot;" />
  </image>
  <image x="401.454" y="612.909" width="70" height="65" xlink:href="DS_CO_valve.svg" transform="rotate(270 0 0) flipY(-10.0004) flipX(-0.000205135) rotate(270 -0.00012207 -10)">
    <rt:dyn type="KKS" mode="constant" value="&quot;NULL&quot;" />
    <rt:dyn type="Operate" mode="constant" value="true" />
    <rt:dyn type="Drive" mode="constant" value="&quot;moto&quot;" />
  </image>
  <image x="103.364" y="668.97" width="70" height="65" xlink:href="DS_Reg_valve.svg" transform="rotate(90 1.31673e-005 -10)">
    <rt:dyn type="DATA_NARY" mode="constant" value="&quot;NONE&quot;" />
  </image>
  <image x="420.636" y="837.621" width="70" height="65" xlink:href="DS_Reg_valve.svg" transform="rotate(90 1.31673e-005 -10)">
    <rt:dyn type="DATA_NARY" mode="constant" value="&quot;NONE&quot;" />
  </image>
  <image x="610.03" y="837.621" width="70" height="65" xlink:href="DS_Reg_valve.svg" transform="rotate(90 1.31673e-005 -10)">
    <rt:dyn type="DATA_NARY" mode="constant" value="&quot;NONE&quot;" />
  </image>
  <image x="146.394" y="391.697" width="70" height="65" xlink:href="DS_CO_valve.svg" transform="flipY(-10.0004) flipX(-0.000205135) rotate(270 -0.00012207 -10)">
    <rt:dyn type="KKS" mode="constant" value="&quot;NULL&quot;" />
    <rt:dyn type="Operate" mode="constant" value="true" />
    <rt:dyn type="Drive" mode="constant" value="&quot;moto&quot;" />
  </image>
  <image x="455.485" y="468.97" width="70" height="65" xlink:href="DS_CO_valve.svg" transform="flipY(-10.0004) flipX(-0.000205135) rotate(270 -0.00012207 -10)">
    <rt:dyn type="KKS" mode="constant" value="&quot;NULL&quot;" />
    <rt:dyn type="Operate" mode="constant" value="true" />
    <rt:dyn type="Drive" mode="constant" value="&quot;moto&quot;" />
  </image>
  <image x="493.364" y="281.091" width="70" height="65" xlink:href="DS_CO_valve.svg" transform="flipY(-10.0004) flipX(-0.000205135) rotate(270 -0.00012207 -10)">
    <rt:dyn type="KKS" mode="constant" value="&quot;NULL&quot;" />
    <rt:dyn type="Operate" mode="constant" value="true" />
    <rt:dyn type="Drive" mode="constant" value="&quot;moto&quot;" />
  </image>
  <image x="722.152" y="475.03" width="70" height="65" xlink:href="DS_CO_valve.svg" transform="flipY(-10.0004) flipX(-0.000205135) rotate(270 -0.00012207 -10)">
    <rt:dyn type="KKS" mode="constant" value="&quot;NULL&quot;" />
    <rt:dyn type="Operate" mode="constant" value="true" />
    <rt:dyn type="Drive" mode="constant" value="&quot;moto&quot;" />
  </image>
  <image x="722.152" y="362.909" width="70" height="65" xlink:href="DS_CO_valve.svg" transform="flipY(-10.0004) flipX(-0.000205135) rotate(270 -0.00012207 -10)">
    <rt:dyn type="KKS" mode="constant" value="&quot;NULL&quot;" />
    <rt:dyn type="Operate" mode="constant" value="true" />
    <rt:dyn type="Drive" mode="constant" value="&quot;moto&quot;" />
  </image>
  <image x="931.242" y="368.97" width="70" height="65" xlink:href="DS_CO_valve.svg" transform="flipY(-10.0004) flipX(-0.000205135) rotate(270 -0.00012207 -10)">
    <rt:dyn type="KKS" mode="constant" value="&quot;NULL&quot;" />
    <rt:dyn type="Operate" mode="constant" value="true" />
    <rt:dyn type="Drive" mode="constant" value="&quot;moto&quot;" />
  </image>
  <image x="1073.67" y="671.56" width="70" height="65" xlink:href="DS_CO_valve.svg" transform="flipY(-10.0004) flipX(-0.000205135) rotate(270 -0.00012207 -10)">
    <rt:dyn type="KKS" mode="constant" value="&quot;NULL&quot;" />
    <rt:dyn type="Operate" mode="constant" value="true" />
    <rt:dyn type="Drive" mode="constant" value="&quot;moto&quot;" />
  </image>
  <image x="1249.42" y="671.56" width="70" height="65" xlink:href="DS_CO_valve.svg" transform="flipY(-10.0004) flipX(-0.000205135) rotate(270 -0.00012207 -10)">
    <rt:dyn type="KKS" mode="constant" value="&quot;NULL&quot;" />
    <rt:dyn type="Operate" mode="constant" value="true" />
    <rt:dyn type="Drive" mode="constant" value="&quot;moto&quot;" />
  </image>
  <image x="1488.82" y="671.56" width="70" height="65" xlink:href="DS_CO_valve.svg" transform="flipY(-10.0004) flipX(-0.000205135) rotate(270 -0.00012207 -10)">
    <rt:dyn type="KKS" mode="constant" value="&quot;NULL&quot;" />
    <rt:dyn type="Operate" mode="constant" value="true" />
    <rt:dyn type="Drive" mode="constant" value="&quot;moto&quot;" />
  </image>
  <image x="1619.11" y="908.924" width="70" height="65" xlink:href="DS_CO_valve.svg" transform="flipY(-10.0004) flipX(-0.000205135) rotate(270 -0.00012207 -10)">
    <rt:dyn type="KKS" mode="constant" value="&quot;NULL&quot;" />
    <rt:dyn type="Operate" mode="constant" value="true" />
    <rt:dyn type="Drive" mode="constant" value="&quot;moto&quot;" />
  </image>
  <image x="1799.42" y="908.924" width="70" height="65" xlink:href="DS_CO_valve.svg" transform="flipY(-10.0004) flipX(-0.000205135) rotate(270 -0.00012207 -10)">
    <rt:dyn type="KKS" mode="constant" value="&quot;NULL&quot;" />
    <rt:dyn type="Operate" mode="constant" value="true" />
    <rt:dyn type="Drive" mode="constant" value="&quot;moto&quot;" />
  </image>
  <image x="1619.11" y="481.091" width="70" height="65" xlink:href="DS_CO_valve.svg" transform="flipY(-10.0004) flipX(-0.000205135) rotate(270 -0.00012207 -10)">
    <rt:dyn type="KKS" mode="constant" value="&quot;NULL&quot;" />
    <rt:dyn type="Operate" mode="constant" value="true" />
    <rt:dyn type="Drive" mode="constant" value="&quot;moto&quot;" />
  </image>
  <image x="1619.11" y="376.545" width="70" height="65" xlink:href="DS_CO_valve.svg" transform="flipY(-10.0004) flipX(-0.000205135) rotate(270 -0.00012207 -10)">
    <rt:dyn type="KKS" mode="constant" value="&quot;NULL&quot;" />
    <rt:dyn type="Operate" mode="constant" value="true" />
    <rt:dyn type="Drive" mode="constant" value="&quot;moto&quot;" />
  </image>
  <image x="1385.79" y="88.6667" width="70" height="65" xlink:href="DS_Reg_valve.svg" transform="flipX(0.000192988) rotate(0 0 -10.0001)">
    <rt:dyn type="KKS" mode="constant" value="&quot;NULL&quot;" />
    <rt:dyn type="Operate" mode="constant" value="true" />
  </image>
  <image x="1213.06" y="150.667" width="70" height="65" xlink:href="DS_Reg_valve.svg" transform="flipX(0.000192988) rotate(0 0 -10.0001)">
    <rt:dyn type="KKS" mode="constant" value="&quot;NULL&quot;" />
    <rt:dyn type="Operate" mode="constant" value="true" />
  </image>
  <g>
    <rect x="872.898" y="250.213" width="150" height="21.2122" rx="0" ry="0" fill="Col_BGItemSel" />
    <image x="872.718" y="273.939" width="175" height="25" xlink:href="DS_ana_ASRK.svg">
      <title>"10KPM21CR001"</title>
      <rt:dyn type="IsExp" mode="constant" value="true" />
      <rt:dyn type="ShowFrame" mode="constant" value="true" />
      <rt:dyn type="Color_Readings" mode="constant" value="true" />
      <rt:dyn type="FKKS" mode="constant" value="&quot;10KPM21CR001&quot;" />
      <rt:dyn type="ValueToTheRight" mode="constant" value="false" />
      <rt:dyn type="SetBounds" mode="constant" value="true" />
      <rt:dyn type="Show_Map" mode="constant" value="false" />
    </image>
    <text x="876.958" y="267.637" fill="black" font-size="18" text-anchor="start">10KPM21CR001</text>
    <image x="814.718" y="253.939" width="50" height="46" xlink:href="ASRK_block_MPDg.svg">
      <title>"10KPM21CR001"</title>
      <rt:dyn type="KKS" mode="constant" value="&quot;10KPM21CR001&quot;" />
    </image>
  </g>
  <g>
    <rect x="1163.75" y="346.85" width="150" height="21.2122" rx="0" ry="0" fill="Col_BGItemSel" />
    <image x="1163.57" y="370.576" width="175" height="25" xlink:href="DS_ana_ASRK.svg">
      <title>"10KPM21CR002"</title>
      <rt:dyn type="IsExp" mode="constant" value="true" />
      <rt:dyn type="ShowFrame" mode="constant" value="true" />
      <rt:dyn type="Color_Readings" mode="constant" value="true" />
      <rt:dyn type="FKKS" mode="constant" value="&quot;10KPM21CR002&quot;" />
      <rt:dyn type="ValueToTheRight" mode="constant" value="false" />
      <rt:dyn type="SetBounds" mode="constant" value="true" />
      <rt:dyn type="Show_Map" mode="constant" value="false" />
    </image>
    <text x="1167.81" y="364.274" fill="black" font-size="18" text-anchor="start">10KPM21CR002</text>
    <image x="1105.57" y="350.576" width="50" height="46" xlink:href="ASRK_block_MPDg.svg">
      <title>"10KPM21CR002"</title>
      <rt:dyn type="KKS" mode="constant" value="&quot;10KPM21CR002&quot;" />
    </image>
  </g>
  <image x="1570.64" y="6.0606" width="70" height="65" xlink:href="DS_CO_valve.svg" transform="rotate(270 0 0) flipY(-10.0004) flipX(-0.000205135) rotate(270 -0.00012207 -10)">
    <rt:dyn type="KKS" mode="constant" value="&quot;NULL&quot;" />
    <rt:dyn type="Operate" mode="constant" value="true" />
    <rt:dyn type="Drive" mode="constant" value="&quot;moto&quot;" />
  </image>
  <image x="1661.55" y="177.273" width="70" height="65" xlink:href="DS_CO_valve.svg" transform="rotate(270 0 0) flipY(-10.0004) flipX(-0.000205135) rotate(270 -0.00012207 -10)">
    <rt:dyn type="KKS" mode="constant" value="&quot;NULL&quot;" />
    <rt:dyn type="Operate" mode="constant" value="true" />
    <rt:dyn type="Drive" mode="constant" value="&quot;moto&quot;" />
  </image>
  <image x="1755.48" y="78.7879" width="70" height="65" xlink:href="DS_CO_valve.svg" transform="rotate(270 0 0) flipY(-10.0004) flipX(-0.000205135) rotate(270 -0.00012207 -10)">
    <rt:dyn type="KKS" mode="constant" value="&quot;NULL&quot;" />
    <rt:dyn type="Operate" mode="constant" value="true" />
    <rt:dyn type="Drive" mode="constant" value="&quot;moto&quot;" />
  </image>
  <image x="1753.97" y="422.727" width="70" height="65" xlink:href="DS_CO_valve.svg" transform="rotate(270 0 0) flipY(-10.0004) flipX(-0.000205135) rotate(270 -0.00012207 -10)">
    <rt:dyn type="KKS" mode="constant" value="&quot;NULL&quot;" />
    <rt:dyn type="Operate" mode="constant" value="true" />
    <rt:dyn type="Drive" mode="constant" value="&quot;moto&quot;" />
  </image>
  <image x="1719.12" y="730" width="70" height="65" xlink:href="DS_CO_valve.svg" transform="rotate(270 0 0) flipY(-10.0004) flipX(-0.000205135) rotate(270 -0.00012207 -10)">
    <rt:dyn type="KKS" mode="constant" value="&quot;NULL&quot;" />
    <rt:dyn type="Operate" mode="constant" value="true" />
    <rt:dyn type="Drive" mode="constant" value="&quot;moto&quot;" />
  </image>
  <image x="1378.21" y="699.728" width="70" height="65" xlink:href="DS_CO_valve.svg" transform="rotate(270 0 0) flipY(-10.0004) flipX(-0.000205135) rotate(270 -0.00012207 -10)">
    <rt:dyn type="KKS" mode="constant" value="&quot;NULL&quot;" />
    <rt:dyn type="Operate" mode="constant" value="true" />
    <rt:dyn type="Drive" mode="constant" value="&quot;moto&quot;" />
  </image>
  <image x="626.697" y="142.303" width="70" height="65" xlink:href="DS_CO_valve.svg" transform="rotate(270 0 0) flipY(-10.0004) flipX(-0.000205135) rotate(270 -0.00012207 -10)">
    <rt:dyn type="KKS" mode="constant" value="&quot;NULL&quot;" />
    <rt:dyn type="Operate" mode="constant" value="true" />
    <rt:dyn type="Drive" mode="constant" value="&quot;moto&quot;" />
  </image>
  <image x="1073.68" y="471.682" width="70" height="65" xlink:href="DS_CO_valve.svg" transform="flipY(-10.0004) flipX(-0.000205135) rotate(270 -0.00012207 -10)">
    <rt:dyn type="KKS" mode="constant" value="&quot;NULL&quot;" />
    <rt:dyn type="Operate" mode="constant" value="true" />
    <rt:dyn type="Drive" mode="constant" value="&quot;moto&quot;" />
  </image>
  <image x="1249.43" y="471.682" width="70" height="65" xlink:href="DS_CO_valve.svg" transform="flipY(-10.0004) flipX(-0.000205135) rotate(270 -0.00012207 -10)">
    <rt:dyn type="KKS" mode="constant" value="&quot;NULL&quot;" />
    <rt:dyn type="Operate" mode="constant" value="true" />
    <rt:dyn type="Drive" mode="constant" value="&quot;moto&quot;" />
  </image>
  <image x="216.314" y="454.545" width="75" height="25" xlink:href="obj_link.svg">
    <rt:event type="OnClick">LoadNew("asrk_kpm22")</rt:event>
    <rt:dyn type="TextStr" mode="constant" value="&quot;KPM22&quot;" />
  </image>
  <image x="216.314" y="484.849" width="75" height="25" xlink:href="obj_link.svg">
    <rt:event type="OnClick">LoadNew("asrk_kpm23")</rt:event>
    <rt:dyn type="TextStr" mode="constant" value="&quot;KPM23&quot;" />
  </image>
  <image x="1122.65" y="908.621" width="75" height="25" xlink:href="obj_link.svg">
    <rt:event type="OnClick">LoadNew("asrk_kpm22")</rt:event>
    <rt:dyn type="TextStr" mode="constant" value="&quot;KPM22&quot;" />
  </image>
  <image x="1122.65" y="942.925" width="75" height="25" xlink:href="obj_link.svg">
    <rt:event type="OnClick">LoadNew("asrk_kpm23")</rt:event>
    <rt:dyn type="TextStr" mode="constant" value="&quot;KPM23&quot;" />
  </image>
  <image x="134.273" y="538.151" width="75" height="25" xlink:href="obj_link.svg" transform="rotate(270 37.3618 12.5)">
    <rt:event type="OnClick">LoadNew("")</rt:event>
    <rt:dyn type="TextStr" mode="constant" value="&quot;&quot;" />
  </image>
  <image x="270.636" y="553.03" width="75" height="25" xlink:href="obj_link.svg" transform="flipY(12.6382) rotate(270 37.3618 12.5)">
    <rt:event type="OnClick">LoadNew("")</rt:event>
    <rt:dyn type="TextStr" mode="constant" value="&quot;&quot;" />
  </image>
  <image x="808" y="194.061" width="60" height="60" xlink:href="ASRK_block_OAupr.svg">
    <title>"10KPM21CR601"</title>
    <rt:dyn type="KKS" mode="constant" value="&quot;10KPM21CR601&quot;" />
  </image>
  <rect x="872.898" y="201.213" width="150" height="21.2122" rx="0" ry="0" fill="Col_BGItemSel" />
  <image x="872.718" y="224.939" width="175" height="25" xlink:href="DS_ana_ASRK.svg">
    <title>"10KPM21CR601"</title>
    <rt:dyn type="IsExp" mode="constant" value="true" />
    <rt:dyn type="ShowFrame" mode="constant" value="true" />
    <rt:dyn type="Color_Readings" mode="constant" value="true" />
    <rt:dyn type="FKKS" mode="constant" value="&quot;10KPM21CR601&quot;" />
    <rt:dyn type="ValueToTheRight" mode="constant" value="false" />
    <rt:dyn type="SetBounds" mode="constant" value="true" />
    <rt:dyn type="Show_Map" mode="constant" value="false" />
  </image>
  <text x="876.958" y="218.637" fill="black" font-size="18" text-anchor="start">10KPM21CR601</text>
  <image x="1711.55" y="854.546" width="75" height="25" xlink:href="obj_link.svg" transform="rotate(0 37.3619 12.5)">
    <rt:dyn type="TextStr" mode="constant" value="&quot;PK&quot;" />
    <rt:event type="OnClick">LoadNew("all_asrk")</rt:event>
  </image>
  <circle cx="666.283" cy="726.841" r="3.14044" fill="black" stroke="black" stroke-width="1" transform="flipY() translate(0 -828) translate(219.956 -216.972)" />
  <circle cx="976.646" cy="726.052" r="3.14044" fill="black" stroke="black" stroke-width="1" transform="flipY() translate(0 -828) translate(219.956 -216.972)" />
  <circle cx="1135.4" cy="64.2654" r="3.14044" fill="black" stroke="black" stroke-width="1" transform="flipY() translate(0 -828) translate(219.956 -216.972)" />
  <rect x="1321.38" y="908.85" width="150" height="21.2122" rx="0" ry="0" fill="Col_BGItemSel" />
  <image x="1321.2" y="932.576" width="175" height="25" xlink:href="DS_ana_ASRK.svg">
    <title>"10KPM21CR601"</title>
    <rt:dyn type="IsExp" mode="constant" value="true" />
    <rt:dyn type="ShowFrame" mode="constant" value="true" />
    <rt:dyn type="Color_Readings" mode="constant" value="true" />
    <rt:dyn type="FKKS" mode="constant" value="&quot;10KPM21CR601&quot;" />
    <rt:dyn type="ValueToTheRight" mode="constant" value="false" />
    <rt:dyn type="SetBounds" mode="constant" value="true" />
    <rt:dyn type="Show_Map" mode="constant" value="false" />
  </image>
  <text x="1325.44" y="926.274" fill="black" font-size="18" text-anchor="start">10KPM21CR601</text>
  <image x="1253.97" y="903.182" width="60" height="60" xlink:href="ASRK_block_OAupr.svg">
    <title>"10KPM21CR601"</title>
    <rt:dyn type="KKS" mode="constant" value="&quot;10KPM21CR601&quot;" />
  </image>
  <image x="1253.97" y="841.606" width="60" height="60" xlink:href="ASRK_block_OAaer.svg">
    <title>"10KPM21CR401"</title>
    <rt:dyn type="KKS" mode="constant" value="&quot;10KPM21CR401&quot;" />
  </image>
  <rect x="1321.39" y="848.425" width="150" height="21.2122" rx="0" ry="0" fill="Col_BGItemSel" />
  <image x="1321.21" y="872.151" width="175" height="25" xlink:href="DS_ana.svg">
    <title>"10KPM21CR401"</title>
    <rt:dyn type="IsExp" mode="constant" value="true" />
    <rt:dyn type="ShowFrame" mode="constant" value="true" />
    <rt:dyn type="Color_Readings" mode="constant" value="true" />
    <rt:dyn type="FKKS" mode="constant" value="&quot;10KPM21CR401&quot;" />
    <rt:dyn type="ValueToTheRight" mode="constant" value="false" />
  </image>
  <text x="1325.45" y="865.849" fill="black" font-size="18" text-anchor="start">10KPM21CR401</text>
  <image x="1253.97" y="779.454" width="60" height="60" xlink:href="ASRK_block_OAyod.svg">
    <title>"10KPM21CR201"</title>
    <rt:dyn type="KKS" mode="constant" value="&quot;10KPM21CR201&quot;" />
  </image>
  <rect x="1321.38" y="787.001" width="150" height="21.2122" rx="0" ry="0" fill="Col_BGItemSel" />
  <image x="1321.2" y="810.727" width="175" height="25" xlink:href="DS_ana.svg">
    <title>"10KPM21CR201"</title>
    <rt:dyn type="IsExp" mode="constant" value="true" />
    <rt:dyn type="ShowFrame" mode="constant" value="true" />
    <rt:dyn type="Color_Readings" mode="constant" value="true" />
    <rt:dyn type="FKKS" mode="constant" value="&quot;10KPM21CR201&quot;" />
    <rt:dyn type="ValueToTheRight" mode="constant" value="false" />
  </image>
  <text x="1325.44" y="804.425" fill="black" font-size="18" text-anchor="start">10KPM21CR201</text>
</svg>
