<?xml version="1.0" encoding="windows-1251"?>
<svg xmlns="http://www.w3.org/2000/svg" xmlns:rt="http://www.rts.co.at/2001/XMLSchema/RtSvgPL" xmlns:xlink="http://www.w3.org/1999/xlink" xmlns:xsi="http://www.w3.org/2001/XMLSchema-instance" color="Col_BGSand" xsi:schemaLocation="http://www.w3.org/2000/svg C:\RTS\RtSvg\XML\SVG.xsd" viewBox="0 0 1914 1000" width="1914" height="1000" id="asrk_uka_36">
  <desc>0000000000</desc>
  <title>0000000000</title>
  <rt:model modelversion="7.2.0.24" comment="Создано VNIIAES-ASUTP" />
  <line x1="1247.91" y1="622.727" x2="1340.33" y2="946.97" stroke="black" />
  <path d="M1497.69 576.947 A457 477.998 0 1 0 583.914 567.246 " fill="none" stroke="black" stroke-width="20" transform="rotate(0 1.4013e-045 1.4013e-045) flipY(351.196)" />
  <line x1="886.561" y1="452.575" x2="900.733" y2="444.464" stroke="Col_BGSand" stroke-width="22" />
  <line x1="1723.89" y1="876.242" x2="343.895" y2="875.999" stroke="black" stroke-width="10" />
  <line x1="1687.89" y1="881.242" x2="1687.89" y2="844.242" stroke="black" stroke-width="10" />
  <line x1="1618.89" y1="439.242" x2="1618.89" y2="363.242" stroke="black" stroke-width="10" />
  <line x1="1406.89" y1="414.242" x2="1618.89" y2="415.909" stroke="black" stroke-width="10" />
  <line x1="1728.16" y1="129.03" x2="1727.89" y2="881.242" stroke="black" stroke-width="10" />
  <line x1="443.895" y1="360.242" x2="443.895" y2="435.242" stroke="black" stroke-width="10" />
  <line x1="668.895" y1="416.303" x2="443.895" y2="416.909" stroke="black" stroke-width="10" />
  <line x1="709.895" y1="472.242" x2="663.895" y2="410.242" stroke="black" stroke-width="20" />
  <line x1="1064.91" y1="626.326" x2="1064.39" y2="835.242" stroke="black" stroke-width="20" />
  <line x1="528.895" y1="401.242" x2="503.895" y2="401.242" stroke="black" stroke-width="20" />
  <line x1="343.895" y1="880.242" x2="343.895" y2="457.242" stroke="black" stroke-width="10" />
  <line x1="443.895" y1="307.242" x2="445.971" y2="130.246" stroke="black" stroke-width="10" />
  <line x1="346.349" y1="124.485" x2="343.895" y2="482.06" stroke="black" stroke-width="10" />
  <line x1="592.895" y1="132.242" x2="349.895" y2="129.242" stroke="black" stroke-width="10" />
  <line x1="1738.89" y1="130.242" x2="1489.89" y2="129.242" stroke="black" stroke-width="10" />
  <line x1="1624.22" y1="318.575" x2="1623.89" y2="131.242" stroke="black" stroke-width="10" />
  <line x1="1685.89" y1="423.242" x2="1724.56" y2="423.242" stroke="black" stroke-width="10" />
  <line x1="1681.89" y1="313.242" x2="1723.62" y2="313.878" stroke="black" stroke-width="10" />
  <line x1="1684.89" y1="260.242" x2="1722.1" y2="260.242" stroke="black" stroke-width="10" />
  <line x1="1682.89" y1="210.242" x2="1724.94" y2="210.242" stroke="black" stroke-width="7" />
  <g transform="flipY(99.5) flipX(178.5) rotate(270 641 570.75)">
    <line x1="1746.99" y1="-1432.35" x2="1747.39" y2="-1419.55" stroke="black" />
    <line x1="1744.59" y1="-1401.55" x2="1744.99" y2="-1416.35" stroke="black" />
    <line x1="1742.29" y1="-1432.34" x2="1742.69" y2="-1419.54" stroke="black" />
    <line x1="1739.89" y1="-1401.54" x2="1740.29" y2="-1416.34" stroke="black" />
    <line x1="1737.79" y1="-1432.15" x2="1738.19" y2="-1419.34" stroke="black" />
    <line x1="1735.39" y1="-1402.34" x2="1735.79" y2="-1417.15" stroke="black" />
    <line x1="1733.09" y1="-1433.13" x2="1733.49" y2="-1420.32" stroke="black" />
    <line x1="1730.69" y1="-1402.32" x2="1731.09" y2="-1417.13" stroke="black" />
    <line x1="1728.69" y1="-1432.95" x2="1729.09" y2="-1420.15" stroke="black" />
    <line x1="1726.29" y1="-1402.15" x2="1726.69" y2="-1416.95" stroke="black" />
    <line x1="1724.19" y1="-1432.74" x2="1724.59" y2="-1419.95" stroke="black" />
    <line x1="1721.79" y1="-1401.95" x2="1722.19" y2="-1416.74" stroke="black" />
    <line x1="1719.49" y1="-1432.72" x2="1719.89" y2="-1419.93" stroke="black" />
    <line x1="1717.09" y1="-1401.93" x2="1717.49" y2="-1416.72" stroke="black" />
    <line x1="1748.19" y1="-1416.75" x2="1688.99" y2="-1417.55" stroke="black" />
    <line x1="1689.39" y1="-1420.75" x2="1748.59" y2="-1419.55" stroke="black" />
    <line x1="1748.19" y1="-1420.35" x2="1748.19" y2="-1416.75" stroke="black" />
    <line x1="1689.59" y1="-1420.75" x2="1689.59" y2="-1417.55" stroke="black" />
    <line x1="1707.49" y1="-1433.54" x2="1707.89" y2="-1420.74" stroke="black" />
    <line x1="1702.99" y1="-1433.34" x2="1703.39" y2="-1420.54" stroke="black" />
    <line x1="1698.29" y1="-1433.32" x2="1698.69" y2="-1420.52" stroke="black" />
    <line x1="1715.99" y1="-1432.74" x2="1716.39" y2="-1419.95" stroke="black" />
    <line x1="1711.49" y1="-1432.54" x2="1711.89" y2="-1419.74" stroke="black" />
    <line x1="1711.59" y1="-1401.86" x2="1711.99" y2="-1416.66" stroke="black" />
    <line x1="1706.89" y1="-1402.84" x2="1707.29" y2="-1417.65" stroke="black" />
    <line x1="1702.49" y1="-1402.66" x2="1702.89" y2="-1417.46" stroke="black" />
    <line x1="1697.99" y1="-1402.46" x2="1698.39" y2="-1417.25" stroke="black" />
    <line x1="1693.29" y1="-1402.45" x2="1693.69" y2="-1417.24" stroke="black" />
    <line x1="1693.29" y1="-1433.15" x2="1693.69" y2="-1420.34" stroke="black" />
  </g>
  <path d="M1455.27 570.109 A418 505.522 0 0 0 626.859 567.149 " fill="none" stroke="black" stroke-width="10" transform="rotate(0 1.4013e-045 1.4013e-045) flipY(351.196)" />
  <line x1="1064.65" y1="860.242" x2="1064.65" y2="877.599" stroke="black" stroke-width="20" />
  <line x1="661.901" y1="860.261" x2="661.895" y2="877.618" stroke="black" stroke-width="10" />
  <g>
    <g>
      <line x1="738.712" y1="512.297" x2="738.833" y2="445.792" stroke="black" stroke-width="10" transform="rotate(37.0565 628 558)" />
      <line x1="681.302" y1="509.284" x2="680.038" y2="442.588" stroke="black" stroke-width="10" transform="rotate(37.0565 628 558)" />
      <line x1="636.008" y1="505.738" x2="636.008" y2="435.738" stroke="black" stroke-width="10" transform="rotate(37.0565 628 558)" />
      <line x1="749.895" y1="587.242" x2="630.895" y2="491.242" stroke="black" stroke-width="10" />
    </g>
    <line x1="594.607" y1="505.673" x2="594.607" y2="435.672" stroke="black" stroke-width="10" transform="rotate(37.0565 628 558)" />
  </g>
  <g transform="rotate(281.413 1298.5 621)">
    <g>
      <line x1="1417.98" y1="209.544" x2="1416.82" y2="137.429" stroke="black" stroke-width="10" transform="rotate(37.0565 628 558)" />
      <line x1="1371.09" y1="208.436" x2="1369.83" y2="141.741" stroke="black" stroke-width="10" transform="rotate(37.0565 628 558)" />
      <line x1="1327.73" y1="205.08" x2="1327.73" y2="135.08" stroke="black" stroke-width="10" transform="rotate(37.0565 628 558)" />
      <line x1="1474.42" y1="754.965" x2="1355.42" y2="658.965" stroke="black" stroke-width="10" />
    </g>
    <line x1="1273.88" y1="202.92" x2="1273.88" y2="132.92" stroke="black" stroke-width="10" transform="rotate(37.0565 628 558)" />
  </g>
  <line x1="1580.89" y1="402.242" x2="1555.89" y2="402.242" stroke="black" stroke-width="20" />
  <line x1="471.895" y1="403.242" x2="446.895" y2="403.242" stroke="black" stroke-width="30" />
  <rect x="451.895" y="396.242" width="17" height="14" rx="0" ry="0" fill="white" />
  <line x1="1616.89" y1="398.242" x2="1584.89" y2="398.242" stroke="black" stroke-width="30" />
  <rect x="1588.89" y="392.242" width="17" height="14" rx="0" ry="0" fill="white" />
  <line x1="443.895" y1="471.242" x2="443.895" y2="810.242" stroke="black" stroke-width="10" />
  <line x1="443.895" y1="862.242" x2="443.895" y2="874.242" stroke="black" stroke-width="10" />
  <line x1="661.895" y1="518.242" x2="660.895" y2="814.242" stroke="black" stroke-width="10" />
  <line x1="615.912" y1="809.636" x2="440.912" y2="810.242" stroke="black" stroke-width="10" />
  <line x1="660.935" y1="810.242" x2="648.895" y2="810.242" stroke="black" stroke-width="10" />
  <line x1="675.935" y1="757.261" x2="663.895" y2="757.261" stroke="black" stroke-width="10" />
  <line x1="748.895" y1="583.242" x2="747.895" y2="769.261" stroke="black" stroke-width="10" />
  <line x1="744.935" y1="758.261" x2="700.895" y2="758.261" stroke="black" stroke-width="10" />
  <line x1="970.895" y1="617.242" x2="969.895" y2="835.242" stroke="black" stroke-width="10" />
  <line x1="970.395" y1="860.242" x2="970.395" y2="879.601" stroke="black" stroke-width="10" />
  <line x1="747.895" y1="825.261" x2="747.895" y2="851.261" stroke="black" stroke-width="10" />
  <line x1="849.895" y1="846.261" x2="849.895" y2="873.261" stroke="black" stroke-width="10" />
  <line x1="854.895" y1="847.761" x2="747.895" y2="847.761" stroke="black" stroke-width="5" />
  <line x1="747.901" y1="860.261" x2="747.895" y2="877.618" stroke="black" stroke-width="10" />
  <line x1="752.895" y1="685.261" x2="719.895" y2="685.261" stroke="black" stroke-width="5" />
  <line x1="722.895" y1="756.261" x2="722.895" y2="682.261" stroke="black" stroke-width="5" />
  <line x1="1072.93" y1="811.242" x2="1018.89" y2="811.242" stroke="black" stroke-width="10" />
  <line x1="995.895" y1="811.242" x2="970.895" y2="811.242" stroke="black" stroke-width="10" />
  <line x1="1268.89" y1="612.242" x2="1126.89" y2="610.242" stroke="black" stroke-width="10" />
  <line x1="1350.89" y1="567.242" x2="1350.89" y2="587.242" stroke="black" stroke-width="10" />
  <line x1="1350.89" y1="599.242" x2="1350.89" y2="782.242" stroke="black" stroke-width="10" />
  <line x1="1443.89" y1="496.242" x2="1443.89" y2="614.242" stroke="black" stroke-width="10" />
  <line x1="1470.89" y1="610.242" x2="1286.89" y2="612.242" stroke="black" stroke-width="10" />
  <line x1="1468.89" y1="607.242" x2="1468.89" y2="810.242" stroke="black" stroke-width="10" />
  <line x1="1621.89" y1="810.242" x2="1450.89" y2="810.242" stroke="black" stroke-width="10" />
  <line x1="1616.89" y1="760.242" x2="1616.89" y2="805.242" stroke="black" stroke-width="10" />
  <line x1="1618.89" y1="860.242" x2="1618.89" y2="878.242" stroke="black" stroke-width="10" />
  <line x1="1529.89" y1="860.242" x2="1529.89" y2="878.242" stroke="black" stroke-width="10" />
  <line x1="1468.89" y1="860.242" x2="1468.89" y2="878.242" stroke="black" stroke-width="10" />
  <line x1="1393.89" y1="860.242" x2="1393.89" y2="878.242" stroke="black" stroke-width="10" />
  <line x1="1393.89" y1="810.242" x2="1302.89" y2="810.242" stroke="black" stroke-width="10" />
  <line x1="1379.89" y1="780.742" x2="1346.89" y2="780.742" stroke="black" stroke-width="5" />
  <line x1="1378.39" y1="781.242" x2="1378.39" y2="707.242" stroke="black" stroke-width="5" />
  <line x1="1379.89" y1="710.242" x2="1346.89" y2="710.242" stroke="black" stroke-width="5" />
  <line x1="1293.89" y1="735.242" x2="1293.89" y2="612.242" stroke="black" stroke-width="5" />
  <line x1="1243.89" y1="855.242" x2="1243.89" y2="873.242" stroke="black" stroke-width="10" />
  <line x1="1305.89" y1="810.242" x2="1243.89" y2="860.242" stroke="black" stroke-width="5" />
  <line x1="1616.89" y1="474.242" x2="1616.89" y2="730.242" stroke="black" stroke-width="10" />
  <line x1="1637.89" y1="510.242" x2="1612.89" y2="510.242" stroke="black" stroke-width="10" />
  <line x1="1683.89" y1="132.242" x2="1684.89" y2="490.242" stroke="black" stroke-width="10" />
  <line x1="1725.89" y1="810.242" x2="1686.89" y2="810.242" stroke="black" stroke-width="5" />
  <line x1="1687.89" y1="805.242" x2="1687.89" y2="828.242" stroke="black" stroke-width="10" />
  <line x1="1688.89" y1="370.242" x2="1727.56" y2="370.242" stroke="black" stroke-width="10" />
  <line x1="1689.89" y1="572.242" x2="1728.56" y2="572.242" stroke="black" stroke-width="10" />
  <line x1="1688.89" y1="617.242" x2="1727.56" y2="617.242" stroke="black" stroke-width="10" />
  <line x1="1684.89" y1="535.242" x2="1683.89" y2="735.242" stroke="black" stroke-width="10" />
  <line x1="344.895" y1="878.456" x2="344.895" y2="841.456" stroke="black" stroke-width="10" />
  <line x1="385.164" y1="126.244" x2="384.895" y2="878.456" stroke="black" stroke-width="10" />
  <line x1="342.895" y1="420.456" x2="381.565" y2="420.456" stroke="black" stroke-width="10" />
  <line x1="338.895" y1="310.456" x2="380.625" y2="311.092" stroke="black" stroke-width="10" />
  <line x1="341.895" y1="257.456" x2="379.105" y2="257.456" stroke="black" stroke-width="10" />
  <line x1="339.895" y1="207.456" x2="381.945" y2="207.456" stroke="black" stroke-width="7" />
  <g transform="flipY(99.5) flipX(178.5) rotate(270 641 570.75)">
    <line x1="1744.2" y1="-89.3549" x2="1744.6" y2="-76.555" stroke="black" />
    <line x1="1741.8" y1="-58.555" x2="1742.2" y2="-73.3549" stroke="black" />
    <line x1="1739.5" y1="-89.3449" x2="1739.9" y2="-76.545" stroke="black" />
    <line x1="1737.1" y1="-58.545" x2="1737.5" y2="-73.345" stroke="black" />
    <line x1="1735" y1="-89.145" x2="1735.4" y2="-76.345" stroke="black" />
    <line x1="1732.6" y1="-59.345" x2="1733" y2="-74.145" stroke="black" />
    <line x1="1730.3" y1="-90.1249" x2="1730.7" y2="-77.3251" stroke="black" />
    <line x1="1727.9" y1="-59.3251" x2="1728.3" y2="-74.1249" stroke="black" />
    <line x1="1725.9" y1="-89.945" x2="1726.3" y2="-77.145" stroke="black" />
    <line x1="1723.5" y1="-59.145" x2="1723.9" y2="-73.9449" stroke="black" />
    <line x1="1721.4" y1="-89.7449" x2="1721.8" y2="-76.9449" stroke="black" />
    <line x1="1719" y1="-58.945" x2="1719.4" y2="-73.745" stroke="black" />
    <line x1="1716.7" y1="-89.7249" x2="1717.1" y2="-76.925" stroke="black" />
    <line x1="1714.3" y1="-58.925" x2="1714.7" y2="-73.725" stroke="black" />
    <line x1="1745.4" y1="-73.7549" x2="1686.2" y2="-74.555" stroke="black" />
    <line x1="1686.6" y1="-77.7549" x2="1745.8" y2="-76.555" stroke="black" />
    <line x1="1745.4" y1="-77.3549" x2="1745.4" y2="-73.7549" stroke="black" />
    <line x1="1686.8" y1="-77.7549" x2="1686.8" y2="-74.555" stroke="black" />
    <line x1="1704.7" y1="-90.545" x2="1705.1" y2="-77.745" stroke="black" />
    <line x1="1700.2" y1="-90.3449" x2="1700.6" y2="-77.545" stroke="black" />
    <line x1="1695.5" y1="-90.325" x2="1695.9" y2="-77.525" stroke="black" />
    <line x1="1713.2" y1="-89.7449" x2="1713.6" y2="-76.9449" stroke="black" />
    <line x1="1708.7" y1="-89.545" x2="1709.1" y2="-76.745" stroke="black" />
    <line x1="1708.8" y1="-58.865" x2="1709.2" y2="-73.655" stroke="black" />
    <line x1="1704.1" y1="-59.845" x2="1704.5" y2="-74.645" stroke="black" />
    <line x1="1699.7" y1="-59.655" x2="1700.1" y2="-74.4648" stroke="black" />
    <line x1="1695.2" y1="-59.4649" x2="1695.6" y2="-74.2549" stroke="black" />
    <line x1="1690.5" y1="-59.445" x2="1690.9" y2="-74.245" stroke="black" />
    <line x1="1690.5" y1="-90.145" x2="1690.9" y2="-77.345" stroke="black" />
  </g>
  <line x1="382.895" y1="807.456" x2="343.895" y2="807.456" stroke="black" stroke-width="5" />
  <line x1="344.895" y1="802.456" x2="344.895" y2="825.456" stroke="black" stroke-width="10" />
  <line x1="345.895" y1="367.456" x2="384.565" y2="367.456" stroke="black" stroke-width="10" />
  <line x1="346.895" y1="569.456" x2="385.565" y2="569.456" stroke="black" stroke-width="10" />
  <line x1="345.895" y1="614.456" x2="384.565" y2="614.456" stroke="black" stroke-width="10" />
  <line x1="1463.89" y1="780.742" x2="1430.89" y2="780.742" stroke="black" stroke-width="5" />
  <line x1="1330.96" y1="780.992" x2="1311.96" y2="780.492" stroke="black" stroke-width="5" />
  <line x1="1313.89" y1="781.242" x2="1293.89" y2="733.242" stroke="black" stroke-width="5" />
  <circle cx="1085.07" cy="805.504" r="8.57141" fill="black" stroke="black" stroke-width="3" />
  <line x1="1085.79" y1="806.061" x2="1052.45" y2="950" stroke="black" />
  <text x="1157" y="719.697" fill="black" font-size="15" text-anchor="start">БПУ ТАИ</text>
  <g>
    <rect x="912.236" y="915.397" width="139.394" height="21.2122" rx="0" ry="0" fill="Col_BGItemSel" />
    <image x="906.344" y="939.155" width="175" height="25" xlink:href="DS_ana_ASRK.svg">
      <title>"11UBB14CR001"</title>
      <rt:dyn type="IsExp" mode="constant" value="true" />
      <rt:dyn type="ShowFrame" mode="constant" value="true" />
      <rt:dyn type="Color_Readings" mode="constant" value="true" />
      <rt:dyn type="FKKS" mode="constant" value="&quot;11UBB14CR001&quot;" />
      <rt:dyn type="ValueToTheRight" mode="constant" value="false" />
      <rt:dyn type="SetBounds" mode="constant" value="true" />
      <rt:dyn type="Show_Map" mode="constant" value="false" />
    </image>
    <text x="910.933" y="932.155" fill="black" font-size="18" text-anchor="start">11UBB14CR001</text>
    <image x="848.343" y="919.155" width="50" height="46" xlink:href="ASRK_block_MPDg.svg">
      <title>"11UBB14CR001"</title>
      <rt:dyn type="KKS" mode="constant" value="&quot;11UBB14CR001&quot;" />
    </image>
  </g>
  <circle cx="1248.7" cy="625.201" r="8.57141" fill="black" stroke="black" stroke-width="3" />
  <g>
    <rect x="1330.42" y="915.397" width="139.394" height="21.2122" rx="0" ry="0" fill="Col_BGItemSel" />
    <image x="1324.53" y="939.155" width="175" height="25" xlink:href="DS_ana_ASRK.svg">
      <title>"12UBB14CR001"</title>
      <rt:dyn type="IsExp" mode="constant" value="true" />
      <rt:dyn type="ShowFrame" mode="constant" value="true" />
      <rt:dyn type="Color_Readings" mode="constant" value="true" />
      <rt:dyn type="FKKS" mode="constant" value="&quot;12UBB14CR001&quot;" />
      <rt:dyn type="ValueToTheRight" mode="constant" value="false" />
      <rt:dyn type="SetBounds" mode="constant" value="true" />
      <rt:dyn type="Show_Map" mode="constant" value="false" />
    </image>
    <text x="1329.11" y="932.155" fill="black" font-size="18" text-anchor="start">12UBB14CR001</text>
    <image x="1266.52" y="919.155" width="50" height="46" xlink:href="ASRK_block_MPDg.svg">
      <title>"12UBB14CR001"</title>
      <rt:dyn type="KKS" mode="constant" value="&quot;12UBB14CR001&quot;" />
    </image>
  </g>
  <text x="768.576" y="719.697" fill="black" font-size="15" text-anchor="start">Пом. спецсистем ТАИ</text>
  <text x="987.326" y="63.6362" fill="black" font-size="32" text-anchor="middle">Радиационный контроль в пристройке здания UKA отм. + 3.6 и +4.8</text>
  <text x="466.091" y="301.303" fill="black" font-size="15" text-anchor="start">11UBP13R001</text>
  <text x="1494.73" y="301.303" fill="black" font-size="15" text-anchor="start">12UBP13R001</text>
  <text x="1361.55" y="580.303" fill="black" font-size="15" text-anchor="start">
    10UBB13
    <tspan x="1361.55" dy="15">R001</tspan>
  </text>
  <text x="1484.12" y="724.546" fill="black" font-size="15" text-anchor="start">12UBP13R002</text>
  <text x="485.788" y="724.546" fill="black" font-size="15" text-anchor="start">11UBP13R002</text>
  <text x="1467.61" y="840.909" fill="black" font-size="15" text-anchor="start">10UBB13R016</text>
  <text x="485.788" y="837.879" fill="black" font-size="15" text-anchor="start">10UBB13R006</text>
  <text x="1120.64" y="760.606" fill="black" font-size="15" text-anchor="start">10UBB13R011</text>
  <text x="790.333" y="680.303" fill="black" font-size="15" text-anchor="start">10UBB13R009</text>
  <text x="978.212" y="703.03" fill="black" font-size="15" text-anchor="start">
    10UBB13
    <tspan x="978.212" dy="15">R021</tspan>
  </text>
  <text x="993.364" y="848.485" fill="black" font-size="15" text-anchor="start">R010</text>
  <text x="681.242" y="827.273" fill="black" font-size="15" text-anchor="start">R005</text>
  <text x="681.242" y="643.939" fill="black" font-size="15" text-anchor="start">R007</text>
  <text x="1385.79" y="672.727" fill="black" font-size="15" text-anchor="start">R023</text>
  <text x="1300.94" y="716.667" fill="black" font-size="15" text-anchor="start">R022</text>
  <text x="390.333" y="663.636" fill="black" font-size="15" text-anchor="start">R003</text>
  <text x="1625.18" y="583.334" fill="black" font-size="15" text-anchor="start">R003</text>
  <image x="1747.91" y="912.121" width="75" height="25" xlink:href="obj_link.svg" transform="rotate(0 37.3619 12.5)">
    <rt:dyn type="TextStr" mode="constant" value="&quot;PK&quot;" />
    <rt:event type="OnClick">LoadNew("all_asrk")</rt:event>
  </image>
</svg>
