<?xml version="1.0" encoding="windows-1251"?>
<svg xmlns="http://www.w3.org/2000/svg" xmlns:rt="http://www.rts.co.at/2001/XMLSchema/RtSvgPL" xmlns:xlink="http://www.w3.org/1999/xlink" xmlns:xsi="http://www.w3.org/2001/XMLSchema-instance" color="Col_BGSand" xsi:schemaLocation="http://www.w3.org/2000/svg C:\RTS\RtSvg\XML\SVG.xsd" viewBox="0 0 1914 1000" width="1914" height="1000" id="asrk_uja_81" fill="Col_BGSand">
  <rt:model modelversion="7.2.0.24" comment="Создано VNIIAES-ASUTP" />
  <ellipse cx="959.381" cy="539.926" rx="435.075" ry="427.233" fill="none" stroke="black" stroke-width="20" />
  <ellipse cx="952.596" cy="531" rx="82.9026" ry="83.55" fill="none" stroke="black" stroke-width="50" />
  <line x1="714.303" y1="829.818" x2="621.303" y2="737.818" stroke="black" stroke-width="18" />
  <line x1="832.303" y1="905.818" x2="707.303" y2="824.818" stroke="black" stroke-width="18" />
  <line x1="1051.3" y1="903.818" x2="824" y2="903" stroke="black" stroke-width="18" />
  <line x1="1060" y1="802" x2="1058.3" y2="911.818" stroke="black" stroke-width="18" />
  <line x1="789" y1="263" x2="790" y2="338" stroke="black" stroke-width="18" />
  <line x1="878" y1="229" x2="816" y2="229" stroke="black" stroke-width="18" />
  <line x1="1284.88" y1="339.821" x2="1136.39" y2="227.7" stroke="black" stroke-width="18" />
  <line x1="1312.3" y1="393.818" x2="1281.97" y2="336.151" stroke="black" stroke-width="18" />
  <line x1="1303.3" y1="407.818" x2="1209" y2="409" stroke="black" stroke-width="18" />
  <line x1="1308.3" y1="470.818" x2="1220.52" y2="471.394" stroke="black" stroke-width="18" />
  <line x1="1345.5" y1="486.155" x2="1301.71" y2="486.063" stroke="black" stroke-width="18" />
  <line x1="701.303" y1="671.818" x2="611" y2="674" stroke="black" stroke-width="18" />
  <line x1="725" y1="603.578" x2="597" y2="605" stroke="black" stroke-width="18" />
  <line x1="1197" y1="312" x2="1214.3" y2="288.699" stroke="black" stroke-width="18" />
  <line x1="1311.3" y1="416.818" x2="1311.3" y2="387.818" stroke="black" stroke-width="18" />
  <line x1="901.303" y1="978.818" x2="1001.3" y2="979.818" stroke="black" stroke-width="18" />
  <line x1="623.303" y1="679.818" x2="623.303" y2="744.191" stroke="black" stroke-width="18" />
  <line x1="1306.3" y1="439.818" x2="1306.3" y2="492.818" stroke="black" stroke-width="10" />
  <line x1="791" y1="387" x2="768.611" y2="365.107" stroke="black" stroke-width="18" />
  <line x1="901.303" y1="97.8173" x2="1001.3" y2="96.8178" stroke="black" stroke-width="18" />
  <line x1="618" y1="612" x2="618" y2="638" stroke="black" stroke-width="10" />
  <line x1="884.424" y1="156" x2="884.333" y2="465" stroke="black" stroke-width="18" />
  <line x1="1016.42" y1="156" x2="1016.33" y2="465" stroke="black" stroke-width="18" />
  <line x1="1018" y1="156" x2="883.333" y2="156" stroke="black" stroke-width="18" />
  <line x1="881.729" y1="162.1" x2="889.833" y2="152.976" stroke="black" stroke-width="18" />
  <line x1="767.73" y1="162.101" x2="775.834" y2="152.977" stroke="black" stroke-width="18" transform="flipX(893.448)" />
  <polygon points="900,624.333 1000,623 1000,806 900,806" fill="black" stroke="black" />
  <g>
    <circle cx="949.524" cy="746.333" r="32.6666" />
    <rect x="985.565" y="741.932" width="12.6668" height="25" rx="0" ry="0" transform="rotate(36.437 926.333 666.5)" />
    <line x1="916.857" y1="778.333" x2="927.524" y2="786.333" stroke="black" />
  </g>
  <g>
    <circle cx="949.667" cy="662.333" r="32.6666" />
    <rect x="935.789" y="674.268" width="12.6668" height="25" rx="0" ry="0" transform="rotate(36.437 926.333 666.5)" />
    <line x1="917" y1="694.333" x2="927.667" y2="702.333" stroke="black" />
  </g>
  <polygon points="887.5,159.84 950,162 950,237 884,237" fill="black" stroke="black" />
  <circle cx="909.745" cy="194.84" r="27.8715" />
  <line x1="875" y1="272" x2="798" y2="272" stroke="black" stroke-width="18" />
  <line x1="792.983" y1="330.495" x2="733" y2="397" stroke="black" stroke-width="18" />
  <line x1="847.389" y1="437" x2="825" y2="415.107" stroke="black" stroke-width="18" />
  <g transform="rotate(308.425 806 457)">
    <line x1="685.526" y1="488.834" x2="663.137" y2="466.941" stroke="black" stroke-width="18" />
    <line x1="741.915" y1="538.834" x2="719.526" y2="516.941" stroke="black" stroke-width="18" />
  </g>
  <line x1="707" y1="681" x2="707" y2="604" stroke="black" stroke-width="18" />
  <line x1="725" y1="637" x2="725" y2="560" stroke="black" stroke-width="18" />
  <line x1="725" y1="630" x2="706.553" y2="654.603" stroke="black" stroke-width="18" />
  <line x1="614" y1="637" x2="613.333" y2="667.667" stroke="black" />
  <line x1="637" y1="635.75" x2="681.5" y2="635.25" stroke="black" />
  <line x1="636.5" y1="613" x2="636.5" y2="663" stroke="black" />
  <line x1="641.5" y1="613" x2="641.5" y2="663" stroke="black" />
  <line x1="646.5" y1="613" x2="646.5" y2="663" stroke="black" />
  <line x1="651.5" y1="613" x2="651.5" y2="663" stroke="black" />
  <line x1="656.5" y1="613" x2="656.5" y2="663" stroke="black" />
  <line x1="661.5" y1="613" x2="661.5" y2="663" stroke="black" />
  <line x1="666.5" y1="613" x2="666.5" y2="663" stroke="black" />
  <line x1="671.5" y1="613" x2="671.5" y2="663" stroke="black" />
  <line x1="676.5" y1="613" x2="676.5" y2="663" stroke="black" />
  <line x1="681.5" y1="613" x2="681.5" y2="663" stroke="black" />
  <g>
    <rect x="616.97" y="687.818" width="12.6668" height="25" rx="0" ry="0" />
    <line x1="614.553" y1="688.818" x2="610.303" y2="712.818" stroke="black" />
  </g>
  <g transform="rotate(90 846.5 237)">
    <rect x="873.917" y="211" width="12.6668" height="25" rx="0" ry="0" />
    <line x1="871.5" y1="212" x2="867.25" y2="236" stroke="black" />
  </g>
  <g transform="rotate(296.035 806 457)">
    <line x1="510.044" y1="541.477" x2="453.885" y2="488.027" stroke="black" stroke-width="18" />
    <line x1="557.273" y1="585.759" x2="534.883" y2="563.866" stroke="black" stroke-width="18" />
  </g>
  <line x1="892" y1="875.001" x2="892" y2="837" stroke="black" stroke-width="18" />
  <line x1="1009" y1="876" x2="1010" y2="836.999" stroke="black" stroke-width="18" />
  <line x1="735.304" y1="275.593" x2="735.304" y2="237.592" stroke="black" stroke-width="18" transform="rotate(52.3693 706 234)" />
  <line x1="1050" y1="811" x2="1107" y2="811" stroke="black" stroke-width="18" />
  <line x1="1082" y1="737" x2="1081.3" y2="818.818" stroke="black" stroke-width="18" />
  <line x1="1079" y1="747" x2="1116" y2="747" stroke="black" stroke-width="18" />
  <line x1="1194" y1="649" x2="1102" y2="749" stroke="black" stroke-width="18" />
  <g>
    <line x1="735.681" y1="406.893" x2="652" y2="326" stroke="black" stroke-width="18" />
    <line x1="657.27" y1="317.307" x2="613" y2="358" stroke="black" stroke-width="18" />
    <line x1="615" y1="355" x2="592" y2="406" stroke="black" stroke-width="18" />
    <line x1="728" y1="566" x2="588" y2="449" stroke="black" stroke-width="18" />
    <line x1="592" y1="404" x2="583" y2="462" stroke="black" stroke-width="18" />
  </g>
  <g transform="flipY(515.5) flipX(1634)">
    <line x1="2075.41" y1="392.893" x2="1991.73" y2="312" stroke="black" stroke-width="18" />
    <line x1="1997" y1="303.307" x2="1952.73" y2="344" stroke="black" stroke-width="18" />
    <line x1="1954.73" y1="341" x2="1931.73" y2="392" stroke="black" stroke-width="18" />
    <line x1="2061" y1="548" x2="1927.73" y2="435" stroke="black" stroke-width="18" />
    <line x1="1931.73" y1="390" x2="1922.73" y2="448" stroke="black" stroke-width="18" />
  </g>
  <line x1="1158.01" y1="683.696" x2="1116" y2="647" stroke="black" stroke-width="18" />
  <line x1="1098" y1="634" x2="1066.92" y2="606.304" stroke="black" stroke-width="18" />
  <line x1="1226" y1="481" x2="1154" y2="483" stroke="black" stroke-width="18" />
  <line x1="1125" y1="483.997" x2="1086" y2="484.997" stroke="black" stroke-width="18" />
  <line x1="1214" y1="414" x2="1216" y2="487" stroke="black" stroke-width="10" />
  <line x1="1227" y1="417" x2="1228" y2="474" stroke="black" stroke-width="18" />
  <line x1="1246" y1="437.75" x2="1290.5" y2="437.25" stroke="black" />
  <line x1="1245.5" y1="415" x2="1245.5" y2="465" stroke="black" />
  <line x1="1250.5" y1="415" x2="1250.5" y2="465" stroke="black" />
  <line x1="1255.5" y1="415" x2="1255.5" y2="465" stroke="black" />
  <line x1="1260.5" y1="415" x2="1260.5" y2="465" stroke="black" />
  <line x1="1265.5" y1="415" x2="1265.5" y2="465" stroke="black" />
  <line x1="1270.5" y1="415" x2="1270.5" y2="465" stroke="black" />
  <line x1="1275.5" y1="415" x2="1275.5" y2="465" stroke="black" />
  <line x1="1280.5" y1="415" x2="1280.5" y2="465" stroke="black" />
  <line x1="1285.5" y1="415" x2="1285.5" y2="465" stroke="black" />
  <line x1="1290.5" y1="415" x2="1290.5" y2="465" stroke="black" />
  <line x1="1348" y1="440" x2="1348" y2="494.818" stroke="black" stroke-width="10" />
  <line x1="1232" y1="305.889" x2="1150" y2="318.889" stroke="black" stroke-width="18" />
  <line x1="1181" y1="265.77" x2="1015" y2="305" stroke="black" stroke-width="18" />
  <g transform="rotate(344.059 1138 221.5) rotate(90 846.5 237)">
    <rect x="877.367" y="-65.855" width="12.6668" height="25" rx="0" ry="0" />
    <line x1="874.95" y1="-64.855" x2="870.7" y2="-40.855" stroke="black" />
  </g>
  <g transform="rotate(82.7287 673.5 727) rotate(0 1.4013e-045 1.4013e-045) flipX(724.5) flipY(777) flipY(777) rotate(313.199 722.5 777)">
    <rect x="739.061" y="699.003" width="12.6668" height="25" rx="0" ry="0" />
    <line x1="736.644" y1="700.003" x2="732.394" y2="724.003" stroke="black" />
  </g>
  <rect x="624.281" y="324.132" width="12.1572" height="24.924" rx="0" ry="0" transform="rotate(324.877 889.529 177.363) rotate(35.4838 926.333 666.5)" />
  <line x1="899" y1="229" x2="916" y2="229" stroke="black" />
  <g>
    <rect x="1068.17" y="104.269" width="19.6849" height="55.2348" rx="0" ry="0" fill="Col_BGSand" stroke="black" transform="rotate(293.544 1123.33 109.5)" />
    <rect x="1082.76" y="111.01" width="14.0608" height="43.4714" rx="0" ry="0" transform="rotate(292.251 1123.33 109.5)" />
    <rect x="1099.42" y="105.55" width="29.11" height="58.046" rx="0" ry="0" fill="Col_BGSand" stroke="black" transform="rotate(293.544 1123.33 109.5)" />
    <rect x="1094.87" y="126.62" width="3.02295" height="14.3269" rx="0" ry="0" fill="Col_BGSand" stroke="black" transform="rotate(293.544 1123.33 109.5)" />
    <rect x="1077.55" y="127.076" width="5.27039" height="13.3476" rx="0" ry="0" fill="Col_BGSand" stroke="black" transform="rotate(293.544 1123.33 109.5)" />
    <rect x="1128.67" y="90.4515" width="17.0697" height="88.3806" rx="0" ry="0" fill="Col_BGSand" stroke="black" transform="rotate(293.544 1123.33 109.5)" />
    <line x1="1186.34" y1="157.285" x2="1193.69" y2="157.692" stroke="black" stroke-width="18" transform="rotate(21.8874 1239.59 107.999)" />
    <line x1="1120.89" y1="155.312" x2="1128.24" y2="155.719" stroke="black" stroke-width="18" transform="rotate(21.8874 1239.59 107.999)" />
    <line x1="1159.47" y1="103.051" x2="1155.35" y2="208.161" stroke="black" stroke-width="0.199219" transform="rotate(21.8874 1239.59 107.999)" />
  </g>
  <g transform="rotate(310.158 782.75 70.75)">
    <rect x="928.075" y="-290.228" width="19.6849" height="55.2348" rx="0" ry="0" fill="Col_BGSand" stroke="black" transform="rotate(293.544 1123.33 109.5)" />
    <rect x="951.599" y="-286.549" width="14.0608" height="43.4714" rx="0" ry="0" transform="rotate(292.251 1123.33 109.5)" />
    <rect x="959.325" y="-288.947" width="29.11" height="58.046" rx="0" ry="0" fill="Col_BGSand" stroke="black" transform="rotate(293.544 1123.33 109.5)" />
    <rect x="954.775" y="-267.876" width="3.02295" height="14.3269" rx="0" ry="0" fill="Col_BGSand" stroke="black" transform="rotate(293.544 1123.33 109.5)" />
    <rect x="937.455" y="-267.42" width="5.27039" height="13.3476" rx="0" ry="0" fill="Col_BGSand" stroke="black" transform="rotate(293.544 1123.33 109.5)" />
    <rect x="988.57" y="-304.045" width="17.0697" height="88.3806" rx="0" ry="0" fill="Col_BGSand" stroke="black" transform="rotate(293.544 1123.33 109.5)" />
    <line x1="787.959" y1="285.917" x2="795.309" y2="286.324" stroke="black" stroke-width="18" transform="rotate(21.8874 1239.59 107.999)" />
    <line x1="722.509" y1="283.944" x2="729.859" y2="284.351" stroke="black" stroke-width="18" transform="rotate(21.8874 1239.59 107.999)" />
    <line x1="761.089" y1="231.683" x2="756.969" y2="336.793" stroke="black" stroke-width="0.199219" transform="rotate(21.8874 1239.59 107.999)" />
  </g>
  <text x="747" y="208" fill="black" font-size="15">10UJA18R016</text>
  <text x="674" y="239" fill="black" font-size="15">10UJA18R014</text>
  <text x="607" y="424" fill="black" font-size="15">10UJA18R008</text>
  <text x="732" y="480" fill="black" font-size="15">10UJA18R001</text>
  <text x="595" y="583" fill="black" font-size="15">10UJA18R013</text>
  <text x="639" y="697" fill="black" font-size="15">10UJA18R007</text>
  <text x="730" y="665" fill="black" font-size="15">10UJA10R501</text>
  <line x1="693" y1="637" x2="729" y2="673" stroke="black" />
  <line x1="836" y1="671" x2="728" y2="672" stroke="black" />
  <text x="928.212" y="674.242" fill="black" font-size="15">R702</text>
  <text x="926.697" y="762.121" fill="black" font-size="15">R703</text>
  <text x="664" y="727" fill="black" font-size="15">10UJA18R004</text>
  <line x1="1185.84" y1="797.523" x2="1146.84" y2="798.523" stroke="black" stroke-width="18" transform="rotate(322.178 1200.73 789.497)" />
  <line x1="1277" y1="733" x2="1197" y2="813" stroke="black" />
  <line x1="1066" y1="907" x2="1201" y2="809" stroke="black" />
  <text x="1119" y="767" fill="black" font-size="15">10UJA18R012</text>
  <text x="1003" y="693" fill="black" font-size="15">10UJA18R005</text>
  <text x="896" y="832" fill="black" font-size="15">10UJA18R006</text>
  <text x="925.182" y="559.091" fill="black" font-size="15">
    10UJA14
    <tspan x="925.182" dy="15">R701</tspan>
  </text>
  <text x="920.636" y="313.636" fill="black" font-size="15">
    10UJA16
    <tspan x="920.636" dy="15">R704</tspan>
  </text>
  <text x="888.818" y="200" fill="black" font-size="15">R705</text>
  <text x="1031.24" y="212.121" fill="black" font-size="15">10UJA18R017</text>
  <text x="1037.3" y="425.758" fill="black" font-size="15">10UJA18R002</text>
  <text x="1145" y="350" fill="black" font-size="15">10UJA18R010</text>
  <text x="1259" y="511" fill="black" font-size="15">10UJA18R015</text>
  <text x="1170" y="383" fill="black" font-size="15">10UJA10R502</text>
  <line x1="1201" y1="387" x2="1275" y2="387" stroke="black" />
  <line x1="1238" y1="431" x2="1201" y2="386" stroke="black" />
  <line x1="1302.17" y1="411" x2="1301.5" y2="441.667" stroke="black" />
  <line x1="1311.17" y1="412" x2="1310.5" y2="442.667" stroke="black" />
  <line x1="1324" y1="445" x2="1305" y2="445" stroke="black" stroke-width="10" />
  <line x1="1321" y1="449" x2="1345" y2="449" stroke="black" />
  <line x1="1324" y1="441" x2="1348" y2="441" stroke="black" />
  <text x="1398" y="392" fill="black" font-size="15">10UJA16R601</text>
  <line x1="1411" y1="399" x2="1492" y2="400" stroke="black" />
  <line x1="1339" y1="468" x2="1412" y2="399" stroke="black" />
  <text x="1106" y="547" fill="black" font-size="15">10UJA18R003</text>
  <text x="1202" y="626" fill="black" font-size="15">10UJA18R011</text>
  <text x="1167.61" y="101" fill="black" font-size="15">10UKA18R010</text>
  <text x="618" y="101" fill="black" font-size="15">10UKA18R007</text>
  <line x1="1100" y1="255.03" x2="1600" y2="255.007" stroke="black" />
  <circle cx="1095.67" cy="252.353" r="8.57141" fill="black" stroke="black" stroke-width="3" />
  <circle cx="1138.1" cy="864.473" r="8.57141" fill="black" stroke="black" stroke-width="3" />
  <line x1="1476.52" y1="865.636" x2="1141.52" y2="865.613" stroke="black" />
  <line x1="710.556" y1="846.289" x2="470.367" y2="846.766" stroke="black" />
  <circle cx="704.644" cy="846.823" r="8.57141" fill="black" stroke="black" stroke-width="3" />
  <line x1="801.736" y1="252.35" x2="416.091" y2="251.394" stroke="black" />
  <circle cx="795.824" cy="252.884" r="8.57141" fill="black" stroke="black" stroke-width="3" />
  <text x="987.326" y="39.6362" fill="black" font-size="32" text-anchor="middle">Радиационный контроль в реакторном здании UJA отм. + 8.14</text>
  <g>
    <rect x="1637.41" y="220.241" width="139.394" height="21.2122" rx="0" ry="0" fill="Col_BGItemSel" />
    <image x="1637.23" y="243.999" width="175" height="25" xlink:href="DS_ana_ASRK.svg">
      <title>"10UJA18CR004"</title>
      <rt:dyn type="IsExp" mode="constant" value="true" />
      <rt:dyn type="ShowFrame" mode="constant" value="true" />
      <rt:dyn type="Color_Readings" mode="constant" value="true" />
      <rt:dyn type="FKKS" mode="constant" value="&quot;10UJA18CR004&quot;" />
      <rt:dyn type="ValueToTheRight" mode="constant" value="false" />
      <rt:dyn type="SetBounds" mode="constant" value="true" />
      <rt:dyn type="Show_Map" mode="constant" value="false" />
    </image>
    <text x="1646.23" y="236.999" fill="black" font-size="18" text-anchor="start">10UJA18CR004</text>
    <image x="1579.23" y="223.999" width="50" height="46" xlink:href="ASRK_block_MPDg.svg">
      <title>"10UJA18CR004"</title>
      <rt:dyn type="KKS" mode="constant" value="&quot;10UJA18CR004&quot;" />
    </image>
  </g>
  <g>
    <rect x="260.137" y="214.18" width="139.394" height="21.2122" rx="0" ry="0" fill="Col_BGItemSel" />
    <image x="259.957" y="237.938" width="175" height="25" xlink:href="DS_ana_ASRK.svg">
      <title>"10UJA18CR003"</title>
      <rt:dyn type="IsExp" mode="constant" value="true" />
      <rt:dyn type="ShowFrame" mode="constant" value="true" />
      <rt:dyn type="Color_Readings" mode="constant" value="true" />
      <rt:dyn type="FKKS" mode="constant" value="&quot;10UJA18CR003&quot;" />
      <rt:dyn type="ValueToTheRight" mode="constant" value="false" />
      <rt:dyn type="SetBounds" mode="constant" value="true" />
      <rt:dyn type="Show_Map" mode="constant" value="false" />
    </image>
    <text x="268.957" y="230.938" fill="black" font-size="18" text-anchor="start">10UJA18CR003</text>
    <image x="201.957" y="217.938" width="50" height="46" xlink:href="ASRK_block_MPDg.svg">
      <title>"10UJA18CR003"</title>
      <rt:dyn type="KKS" mode="constant" value="&quot;10UJA18CR003&quot;" />
    </image>
  </g>
  <g>
    <rect x="1510.14" y="830.847" width="139.394" height="21.2122" rx="0" ry="0" fill="Col_BGItemSel" />
    <image x="1509.96" y="854.605" width="175" height="25" xlink:href="DS_ana_ASRK.svg">
      <title>"10UJA18CR001"</title>
      <rt:dyn type="IsExp" mode="constant" value="true" />
      <rt:dyn type="ShowFrame" mode="constant" value="true" />
      <rt:dyn type="Color_Readings" mode="constant" value="true" />
      <rt:dyn type="FKKS" mode="constant" value="&quot;10UJA18CR001&quot;" />
      <rt:dyn type="ValueToTheRight" mode="constant" value="false" />
      <rt:dyn type="SetBounds" mode="constant" value="true" />
      <rt:dyn type="Show_Map" mode="constant" value="false" />
    </image>
    <text x="1518.96" y="847.605" fill="black" font-size="18" text-anchor="start">10UJA18CR001</text>
    <image x="1451.96" y="834.605" width="50" height="46" xlink:href="ASRK_block_MPDg.svg">
      <title>"10UJA18CR001"</title>
      <rt:dyn type="KKS" mode="constant" value="&quot;10UJA18CR001&quot;" />
    </image>
  </g>
  <g>
    <rect x="307.107" y="806.605" width="139.394" height="21.2122" rx="0" ry="0" fill="Col_BGItemSel" />
    <image x="306.927" y="830.363" width="175" height="25" xlink:href="DS_ana_ASRK.svg">
      <title>"10UJA18CR002"</title>
      <rt:dyn type="IsExp" mode="constant" value="true" />
      <rt:dyn type="ShowFrame" mode="constant" value="true" />
      <rt:dyn type="Color_Readings" mode="constant" value="true" />
      <rt:dyn type="FKKS" mode="constant" value="&quot;10UJA18CR002&quot;" />
      <rt:dyn type="ValueToTheRight" mode="constant" value="false" />
      <rt:dyn type="SetBounds" mode="constant" value="true" />
      <rt:dyn type="Show_Map" mode="constant" value="false" />
    </image>
    <text x="315.927" y="823.363" fill="black" font-size="18" text-anchor="start">10UJA18CR002</text>
    <image x="248.927" y="810.363" width="50" height="46" xlink:href="ASRK_block_MPDg.svg">
      <title>"10UJA18CR002"</title>
      <rt:dyn type="KKS" mode="constant" value="&quot;10UJA18CR002&quot;" />
    </image>
  </g>
  <text x="911.546" y="512.121" fill="black" font-size="15">
    Шахта
    <tspan x="911.546" dy="15">реактора</tspan>
  </text>
  <text x="937.303" y="393.939" fill="black" font-size="15">БВ</text>
  <text x="932.758" y="653.121" fill="black" font-size="15">ВКУ</text>
  <text x="934.273" y="738.939" fill="black" font-size="15">БЗТ</text>
  <image x="1747.91" y="912.121" width="75" height="25" xlink:href="obj_link.svg" transform="rotate(0 37.3619 12.5)">
    <rt:dyn type="TextStr" mode="constant" value="&quot;PK&quot;" />
    <rt:event type="OnClick">LoadNew("all_asrk")</rt:event>
  </image>
</svg>
