<?xml  version="1.0" encoding="UTF-8"?>
<svg color="Col_BGSand" xmlns="http://www.w3.org/2000/svg" xmlns:rt="http://www.rts.co.at/2001/XMLSchema/RtSvgPL" xmlns:xlink="http://www.w3.org/1999/xlink" xmlns:xsi="http://www.w3.org/2001/XMLSchema-instance" xsi:schemaLocation="http://www.w3.org/2000/svg C:\RTS\RtSvg\XML\SVG.xsd" viewBox="0 0 1914 1000" width="1914" height="1000" id="блок Г-Т" stroke="black">
  <rt:model modelversion="7.2.0.24" comment="Создано VNIIAES-ASUTP\ermolova 04.07.2014 14:53:12"/> 
  <polyline points="233,595 233.5,874 433,924.5" fill="none" stroke="black" stroke-width="3" transform="flipX(529.434)"/> 
  <polyline points="425,595 425.5,874 625,924.5" fill="none" stroke="black" stroke-width="3"/> 
  <line x1="825" y1="427" x2="825" y2="547" stroke="black" stroke-width="3"/> 
  <line x1="425" y1="430" x2="425" y2="550" stroke="black" stroke-width="3"/> 
  <polyline points="825,385 825,250 425,250 425,385.5" fill="none" stroke-width="3"/> 
  <line x1="625" y1="249" x2="625" y2="75" stroke="black" stroke-width="3"/> 
  <polyline points="176,350 176,250 426,250" fill="none" stroke-width="3"/> 
  <polyline points="-554.5,325 -554.5,250 -304.5,250" fill="none" stroke-width="3" transform="flipX(259.25)"/> 
  <circle cx="1914.78" cy="749.741" r="26.6666" fill="Col_Grey2" stroke="none" stroke-width="2" transform="flipY() translate(0 -828) translate(-830.09 15.1779) scale(0.75 0.75)"/> 
  <circle cx="1958.79" cy="750.43" r="29.3301" fill="Col_Grey2" stroke="none" stroke-width="2" transform="flipY() translate(0 -828) translate(-830.09 15.1779) scale(0.75 0.75)"/> 
  <circle cx="1940.12" cy="787.763" r="26.6666" fill="Col_Grey2" stroke="black" stroke-width="2" transform="flipY() translate(0 -828) translate(-830.09 15.1779) scale(0.75 0.75)"/> 
  <circle cx="1916.11" cy="747.763" r="26.6666" fill="none" stroke="black" stroke-width="2" transform="flipY() translate(0 -828) translate(-830.09 15.1779) scale(0.75 0.75)"/> 
  <line x1="624.905" y1="231.001" x2="624.905" y2="220.001" stroke="black" stroke-width="2"/> 
  <line x1="624.905" y1="221.001" x2="632.405" y2="214.001" stroke="black" stroke-width="2"/> 
  <line x1="959.955" y1="221.001" x2="967.455" y2="214.001" stroke="black" stroke-width="2" transform="flipX(792.432)"/> 
  <circle cx="1961.45" cy="747.763" r="26.6666" fill="none" stroke="black" stroke-width="2" transform="flipY() translate(0 -828) translate(-830.09 15.1779) scale(0.75 0.75)"/> 
  <polygon points="596,259.071 605.4,242.071 614.8,259.171" fill="none" stroke="black" stroke-width="2"/> 
  <image x="373" y="379.695" width="95" height="57.5" xlink:href="DS_breaker.svg" transform="rotate(270 17.5 -3.75)">
    <title>10BAY31EG207</title>
    <rt:dyn type="Operate" mode="constant" value="true"/> 
    <rt:dyn type="HasTray" mode="constant" value="false"/> 
    <rt:dyn type="KKS" mode="constant" value="&quot;10BAY31EG207&quot;"/> 
    <rt:dyn type="DATA_NARY" mode="constant" value="&quot;TYPE1&quot;"/> 
  </image>
  <image x="373" y="543.445" width="95" height="57.5" xlink:href="DS_breaker.svg" transform="rotate(270 17.5 -3.75)">
    <title>10BAY31EG205</title>
    <rt:dyn type="Operate" mode="constant" value="true"/> 
    <rt:dyn type="HasTray" mode="constant" value="false"/> 
    <rt:dyn type="KKS" mode="constant" value="&quot;10BAY31EG205&quot;"/> 
    <rt:dyn type="DATA_NARY" mode="constant" value="&quot;TYPE1&quot;"/> 
  </image>
  <image x="773.159" y="379.695" width="95" height="57.5" xlink:href="DS_breaker.svg" transform="rotate(270 17.5 -3.75)">
    <title>10BAY32EG206</title>
    <rt:dyn type="Operate" mode="constant" value="true"/> 
    <rt:dyn type="HasTray" mode="constant" value="false"/> 
    <rt:dyn type="KKS" mode="constant" value="&quot;10BAY32EG206&quot;"/> 
    <rt:dyn type="DATA_NARY" mode="constant" value="&quot;TYPE1&quot;"/> 
  </image>
  <image x="773.159" y="543.445" width="95" height="57.5" xlink:href="DS_breaker.svg" transform="rotate(270 17.5 -3.75)">
    <title>10BAY32EG204</title>
    <rt:dyn type="Operate" mode="constant" value="true"/> 
    <rt:dyn type="HasTray" mode="constant" value="false"/> 
    <rt:dyn type="KKS" mode="constant" value="&quot;10BAY32EG204&quot;"/> 
    <rt:dyn type="DATA_NARY" mode="constant" value="&quot;TYPE1&quot;"/> 
  </image>
  <image x="613.651" y="103.364" width="25" height="25" xlink:href="bin_indicator.svg">
    <title>10BAY31EG201_LS01</title>
    <rt:dyn type="PointID" mode="constant" value="&quot;10BAY31EG201_LS01&quot;"/> 
  </image>
  <image x="613.651" y="150" width="25" height="25" xlink:href="bin_indicator.svg">
    <title>10BAY31EG201_LS02</title>
    <rt:dyn type="PointID" mode="constant" value="&quot;10BAY31EG201_LS02&quot;"/> 
  </image>
  <path d="M1023.5 315 "/> 
  <path d="M1386.5 520 "/> 
  <polygon points="72.653,-72.3053 60.153,-46.8063 86.153,-46.8063" transform="rotate(90 1392.93 388.195) scale(0.62 0.62 1341 369.75) rotate(270 1341 369.75)"/> 
  <text x="318.5" y="693" fill="black" font-size="15" text-anchor="middle">Фаза A</text>
  <text x="318" y="741" fill="black" font-size="15" text-anchor="middle">Фаза B</text>
  <text x="318" y="791" fill="black" font-size="15" text-anchor="middle">Фаза C</text>
  <text x="721" y="699" fill="black" font-size="15" text-anchor="middle">Фаза A</text>
  <text x="720.5" y="747" fill="black" font-size="15" text-anchor="middle">Фаза B</text>
  <text x="720.5" y="795" fill="black" font-size="15" text-anchor="middle">Фаза C</text>
  <text x="470.5" y="404.5" fill="black" font-size="15" text-anchor="middle">10BAC01<tspan x="470.5" dy="15">GS100</tspan>
  </text>
  <text x="471" y="575.5" fill="black" font-size="15" text-anchor="middle">10BAC01</text>
  <text x="873" y="404.5" fill="black" font-size="15" text-anchor="middle">10BAC02<tspan x="873" dy="15">GS100</tspan>
  </text>
  <text x="873.5" y="575.5" fill="black" font-size="15" text-anchor="middle">10BAC02</text>
  <text x="175" y="361" fill="black" font-size="15" text-anchor="middle">К 10BBT01</text>
  <text x="1075" y="363" fill="black" font-size="15" text-anchor="middle">К 10BBT02</text>
  <line x1="642.178" y1="260.731" x2="642.178" y2="249.731" stroke="black" stroke-width="2"/> 
  <line x1="642.178" y1="250.731" x2="649.678" y2="243.731" stroke="black" stroke-width="2"/> 
  <line x1="942.682" y1="250.731" x2="950.182" y2="243.731" stroke="black" stroke-width="2" transform="flipX(792.432)"/> 
  <text x="729" y="121" fill="black" font-size="15" text-anchor="middle">Блок подключен к сети</text>
  <text x="727" y="171" fill="black" font-size="15" text-anchor="middle">Блок отключен от сети</text>
  <text x="626" y="295" fill="black" font-size="15" text-anchor="middle">10BAT01</text>
  <text x="626" y="984" fill="black" font-size="15" text-anchor="middle">10MKA01</text>
  <text x="1572.89" y="426.5" fill="black" font-size="15" text-anchor="middle">Полная мощность</text>
  <text x="1566.22" y="469.227" fill="black" font-size="15" text-anchor="middle">Активная мощность</text>
  <text x="1557.89" y="513.955" fill="black" font-size="15" text-anchor="middle">Реактивная мощность</text>
  <text x="1527.06" y="560.682" fill="black" font-size="15" text-anchor="middle">Линейное напряжение ветви 1</text>
  <text x="1527.06" y="605.409" fill="black" font-size="15" text-anchor="middle">Линейное напряжение ветви 2</text>
  <text x="1607.89" y="652.136" fill="black" font-size="15" text-anchor="middle">Частота</text>
  <text x="1550.39" y="696.864" fill="black" font-size="15" text-anchor="middle">Коэффициент мощности</text>
  <text x="1527.89" y="822.985" fill="black" font-size="15" text-anchor="middle">Ток возбуждения возбудителя</text>
  <text x="1553.72" y="862.712" fill="black" font-size="15" text-anchor="middle">Ток ротора генератора</text>
  <text x="1501.22" y="904.44" fill="black" font-size="15" text-anchor="middle">Напряжение возбуждения генератора</text>
  <text x="1475" y="371.5" fill="black" font-size="24" text-anchor="middle">Генератор</text>
  <rect x="1200" y="350" width="648.985" height="375.5" rx="0" ry="0" fill="none"/> 
  <text x="1475" y="772" fill="black" font-size="24" text-anchor="middle">Система возбуждения<tspan x="1475" dy="24">генератора</tspan>
  </text>
  <rect x="1200" y="749.242" width="650" height="200.758" rx="0" ry="0" fill="none"/> 
  <text x="630" y="49.2424" fill="black" font-size="15" text-anchor="middle">500 кВ</text>
  <circle cx="626" cy="925" r="40" fill="Col_BGSand" stroke-width="4"/> 
  <g transform="rotate(324.874 1375 491)">
    <line x1="510.702" y1="401.635" x2="510.702" y2="390.635" stroke="black" stroke-width="2"/> 
    <line x1="510.702" y1="391.635" x2="518.202" y2="384.635" stroke="black" stroke-width="2"/> 
    <line x1="1074.16" y1="391.635" x2="1081.66" y2="384.635" stroke="black" stroke-width="2" transform="flipX(792.432)"/> 
  </g>
  <g transform="rotate(324.874 1375 491)">
    <line x1="505.889" y1="401.94" x2="505.889" y2="390.94" stroke="black" stroke-width="2"/> 
    <line x1="505.889" y1="391.94" x2="513.389" y2="384.94" stroke="black" stroke-width="2"/> 
    <line x1="1078.98" y1="391.94" x2="1086.48" y2="384.94" stroke="black" stroke-width="2" transform="flipX(792.432)"/> 
  </g>
  <g transform="rotate(360 1375 491)">
    <line x1="639.917" y1="915.699" x2="639.917" y2="904.699" stroke="black" stroke-width="2"/> 
    <line x1="639.917" y1="905.699" x2="647.417" y2="898.699" stroke="black" stroke-width="2"/> 
    <line x1="944.947" y1="905.699" x2="952.447" y2="898.699" stroke="black" stroke-width="2" transform="flipX(792.432)"/> 
  </g>
  <g transform="rotate(360 1375 491)">
    <line x1="635.107" y1="916.004" x2="635.107" y2="905.004" stroke="black" stroke-width="2"/> 
    <line x1="635.107" y1="906.004" x2="642.607" y2="899.004" stroke="black" stroke-width="2"/> 
    <line x1="949.76" y1="906.004" x2="957.26" y2="899.004" stroke="black" stroke-width="2" transform="flipX(792.432)"/> 
  </g>
  <path d="M610.855 941.48 C615.855 928.98 620.855 928.98 625.855 941.48 C630.855 951.48 635.855 951.48 640.855 941.48 C643.355 938.98 643.355 933.98 640.855 936.48 C635.855 948.98 630.855 948.98 625.855 936.48 C620.855 926.48 615.855 926.48 610.855 936.48 C608.355 938.98 608.355 943.98 610.855 941.48 " id="wave" fill="black" stroke="black" stroke-width="1"/> 
  <image x="355.091" y="678.833" width="175" height="25" xlink:href="DS_ana.svg">
    <title>10MKC95EG202_XQ01</title>
    <rt:dyn type="FName" mode="constant" value="true"/> 
    <rt:dyn type="ShowFrame" mode="constant" value="true"/> 
    <rt:dyn type="Color_Readings" mode="constant" value="true"/> 
    <rt:dyn type="X" mode="constant" value="&quot;I&quot;"/> 
    <rt:dyn type="FKKS" mode="constant" value="&quot;10MKC95EG202_XQ01&quot;"/> 
    <rt:dyn type="ValueToTheRight" mode="constant" value="false"/> 
  </image>
  <image x="355.091" y="726.833" width="175" height="25" xlink:href="DS_ana.svg">
    <title>10MKC95EG202_XQ02</title>
    <rt:dyn type="FName" mode="constant" value="true"/> 
    <rt:dyn type="ShowFrame" mode="constant" value="true"/> 
    <rt:dyn type="Color_Readings" mode="constant" value="true"/> 
    <rt:dyn type="X" mode="constant" value="&quot;I&quot;"/> 
    <rt:dyn type="FKKS" mode="constant" value="&quot;10MKC95EG202_XQ02&quot;"/> 
    <rt:dyn type="ValueToTheRight" mode="constant" value="false"/> 
  </image>
  <image x="355.091" y="776.833" width="175" height="25" xlink:href="DS_ana.svg">
    <title>10MKC95EG202_XQ03</title>
    <rt:dyn type="FName" mode="constant" value="true"/> 
    <rt:dyn type="ShowFrame" mode="constant" value="true"/> 
    <rt:dyn type="Color_Readings" mode="constant" value="true"/> 
    <rt:dyn type="X" mode="constant" value="&quot;I&quot;"/> 
    <rt:dyn type="FKKS" mode="constant" value="&quot;10MKC95EG202_XQ03&quot;"/> 
    <rt:dyn type="ValueToTheRight" mode="constant" value="false"/> 
  </image>
  <image x="756" y="678.833" width="175" height="25" xlink:href="DS_ana.svg">
    <title>10MKC95EG202_XQ05</title>
    <rt:dyn type="FName" mode="constant" value="true"/> 
    <rt:dyn type="ShowFrame" mode="constant" value="true"/> 
    <rt:dyn type="Color_Readings" mode="constant" value="true"/> 
    <rt:dyn type="X" mode="constant" value="&quot;I&quot;"/> 
    <rt:dyn type="FKKS" mode="constant" value="&quot;10MKC95EG202_XQ05&quot;"/> 
    <rt:dyn type="ValueToTheRight" mode="constant" value="false"/> 
  </image>
  <image x="756" y="726.833" width="175" height="25" xlink:href="DS_ana.svg">
    <title>10MKC95EG202_XQ06</title>
    <rt:dyn type="FName" mode="constant" value="true"/> 
    <rt:dyn type="ShowFrame" mode="constant" value="true"/> 
    <rt:dyn type="Color_Readings" mode="constant" value="true"/> 
    <rt:dyn type="X" mode="constant" value="&quot;I&quot;"/> 
    <rt:dyn type="FKKS" mode="constant" value="&quot;10MKC95EG202_XQ06&quot;"/> 
    <rt:dyn type="ValueToTheRight" mode="constant" value="false"/> 
  </image>
  <image x="756" y="776.833" width="175" height="25" xlink:href="DS_ana.svg">
    <title>10MKC95EG202_XQ07</title>
    <rt:dyn type="FName" mode="constant" value="true"/> 
    <rt:dyn type="ShowFrame" mode="constant" value="true"/> 
    <rt:dyn type="Color_Readings" mode="constant" value="true"/> 
    <rt:dyn type="X" mode="constant" value="&quot;I&quot;"/> 
    <rt:dyn type="FKKS" mode="constant" value="&quot;10MKC95EG202_XQ07&quot;"/> 
    <rt:dyn type="ValueToTheRight" mode="constant" value="false"/> 
  </image>
  <text x="968.667" y="46.6666" fill="black" font-size="26" text-anchor="middle">Блок Г-Т</text>
  <image x="1648.67" y="402.333" width="175" height="25" xlink:href="DS_ana.svg">
    <title>10MKC95EG202_XQ23</title>
    <rt:dyn type="FName" mode="constant" value="true"/> 
    <rt:dyn type="ShowFrame" mode="constant" value="true"/> 
    <rt:dyn type="Color_Readings" mode="constant" value="true"/> 
    <rt:dyn type="X" mode="constant" value="&quot;S&quot;"/> 
    <rt:dyn type="FKKS" mode="constant" value="&quot;10MKC95EG202_XQ23&quot;"/> 
    <rt:dyn type="ValueToTheRight" mode="constant" value="false"/> 
  </image>
  <image x="1648.67" y="447.833" width="175" height="25" xlink:href="DS_ana.svg">
    <title>10MKC95EG202_XQ21</title>
    <rt:dyn type="FName" mode="constant" value="true"/> 
    <rt:dyn type="ShowFrame" mode="constant" value="true"/> 
    <rt:dyn type="Color_Readings" mode="constant" value="true"/> 
    <rt:dyn type="X" mode="constant" value="&quot;P&quot;"/> 
    <rt:dyn type="FKKS" mode="constant" value="&quot;10MKC95EG202_XQ21&quot;"/> 
    <rt:dyn type="ValueToTheRight" mode="constant" value="false"/> 
  </image>
  <image x="1648.67" y="493.333" width="175" height="25" xlink:href="DS_ana.svg">
    <title>10MKC95EG202_XQ22</title>
    <rt:dyn type="FName" mode="constant" value="true"/> 
    <rt:dyn type="ShowFrame" mode="constant" value="true"/> 
    <rt:dyn type="Color_Readings" mode="constant" value="true"/> 
    <rt:dyn type="X" mode="constant" value="&quot;Q&quot;"/> 
    <rt:dyn type="FKKS" mode="constant" value="&quot;10MKC95EG202_XQ22&quot;"/> 
    <rt:dyn type="ValueToTheRight" mode="constant" value="false"/> 
  </image>
  <image x="1648.67" y="538.833" width="175" height="25" xlink:href="DS_ana.svg">
    <title>10MKC95EG202_XQ14</title>
    <rt:dyn type="FName" mode="constant" value="true"/> 
    <rt:dyn type="ShowFrame" mode="constant" value="true"/> 
    <rt:dyn type="Color_Readings" mode="constant" value="true"/> 
    <rt:dyn type="X" mode="constant" value="&quot;U&quot;"/> 
    <rt:dyn type="FKKS" mode="constant" value="&quot;10MKC95EG202_XQ14&quot;"/> 
    <rt:dyn type="ValueToTheRight" mode="constant" value="false"/> 
  </image>
  <image x="1648.67" y="584.333" width="175" height="25" xlink:href="DS_ana.svg">
    <title>10MKC95EG202_XQ15</title>
    <rt:dyn type="FName" mode="constant" value="true"/> 
    <rt:dyn type="ShowFrame" mode="constant" value="true"/> 
    <rt:dyn type="Color_Readings" mode="constant" value="true"/> 
    <rt:dyn type="X" mode="constant" value="&quot;U&quot;"/> 
    <rt:dyn type="FKKS" mode="constant" value="&quot;10MKC95EG202_XQ15&quot;"/> 
    <rt:dyn type="ValueToTheRight" mode="constant" value="false"/> 
  </image>
  <image x="1648.67" y="629.833" width="175" height="25" xlink:href="DS_ana.svg">
    <title>10MKC95EG202_XQ17</title>
    <rt:dyn type="FName" mode="constant" value="true"/> 
    <rt:dyn type="ShowFrame" mode="constant" value="true"/> 
    <rt:dyn type="Color_Readings" mode="constant" value="true"/> 
    <rt:dyn type="X" mode="constant" value="&quot;f&quot;"/> 
    <rt:dyn type="FKKS" mode="constant" value="&quot;10MKC95EG202_XQ17&quot;"/> 
    <rt:dyn type="ValueToTheRight" mode="constant" value="false"/> 
  </image>
  <image x="1648.67" y="799.667" width="175" height="25" xlink:href="DS_ana.svg">
    <title>10MKC95EG202_XQ25</title>
    <rt:dyn type="FName" mode="constant" value="true"/> 
    <rt:dyn type="ShowFrame" mode="constant" value="true"/> 
    <rt:dyn type="Color_Readings" mode="constant" value="true"/> 
    <rt:dyn type="X" mode="constant" value="&quot;I&quot;"/> 
    <rt:dyn type="FKKS" mode="constant" value="&quot;10MKC95EG202_XQ25&quot;"/> 
    <rt:dyn type="ValueToTheRight" mode="constant" value="false"/> 
  </image>
  <image x="1648.67" y="845.167" width="175" height="25" xlink:href="DS_ana.svg">
    <title>10MKC95EG202_XQ26</title>
    <rt:dyn type="FName" mode="constant" value="true"/> 
    <rt:dyn type="ShowFrame" mode="constant" value="true"/> 
    <rt:dyn type="Color_Readings" mode="constant" value="true"/> 
    <rt:dyn type="X" mode="constant" value="&quot;I&quot;"/> 
    <rt:dyn type="FKKS" mode="constant" value="&quot;10MKC95EG202_XQ26&quot;"/> 
    <rt:dyn type="ValueToTheRight" mode="constant" value="false"/> 
  </image>
  <image x="1648.67" y="890.667" width="175" height="25" xlink:href="DS_ana.svg">
    <title>10MKC95EG202_XQ27</title>
    <rt:dyn type="FName" mode="constant" value="true"/> 
    <rt:dyn type="ShowFrame" mode="constant" value="true"/> 
    <rt:dyn type="Color_Readings" mode="constant" value="true"/> 
    <rt:dyn type="X" mode="constant" value="&quot;U&quot;"/> 
    <rt:dyn type="FKKS" mode="constant" value="&quot;10MKC95EG202_XQ27&quot;"/> 
    <rt:dyn type="ValueToTheRight" mode="constant" value="false"/> 
  </image>
  <image x="1648.67" y="675.333" width="175" height="25" xlink:href="DS_ana.svg">
    <title>10MKC95EG202_XQ24</title>
    <rt:dyn type="FName" mode="constant" value="true"/> 
    <rt:dyn type="ShowFrame" mode="constant" value="true"/> 
    <rt:dyn type="Color_Readings" mode="constant" value="true"/> 
    <rt:dyn type="FKKS" mode="constant" value="&quot;10MKC95EG202_XQ24&quot;"/> 
    <rt:dyn type="ValueToTheRight" mode="constant" value="false"/> 
  </image>
  <polygon points="-1083.85,1756.49 -1096.35,1781.99 -1070.35,1781.99" fill="black" transform="rotate(90 1.4013e-045 1.4013e-045) flipX(1202.57) flipX(1782.15) flipX(1338.9) rotate(90 425.31 342.095) rotate(0 1.4013e-045 1.4013e-045) flipY(392.405) rotate(90 1392.93 388.195) scale(0.62 0.62 1341 369.75) rotate(270 1341 369.75)"/> 
  <polygon points="-2532.44,1755.49 -2544.94,1780.99 -2518.94,1780.99" fill="black" transform="rotate(90 1.4013e-045 1.4013e-045) flipX(1202.57) flipX(1782.15) flipX(1338.9) rotate(90 425.31 342.095) rotate(0 1.4013e-045 1.4013e-045) flipY(392.405) rotate(90 1392.93 388.195) scale(0.62 0.62 1341 369.75) rotate(270 1341 369.75)"/> 
</svg>
