<?xml version="1.0" encoding="windows-1251"?>
<svg xmlns="http://www.w3.org/2000/svg" xmlns:rt="http://www.rts.co.at/2001/XMLSchema/RtSvgPL" xmlns:xlink="http://www.w3.org/1999/xlink" xmlns:xsi="http://www.w3.org/2001/XMLSchema-instance" color="Col_BGSand" xsi:schemaLocation="http://www.w3.org/2000/svg C:\RTS\RtSvg\XML\SVG.xsd" viewBox="0 0 1920 1080" width="1920" height="1080" id="gcb10_4">
  <rt:model modelversion="7.2.0.24" comment="Создано VNIIAES-ASUTP\seregin 07.08.2013 18:14:20" />
  <polygon points="373.211,1207.85 373.211,1226.85 390.211,1216.85" transform="rotate(270 327.167 125.501) rotate(0 1.4013e-045 1.4013e-045) flipX(158.5)" />
  <line x1="237.56" y1="152.939" x2="237.56" y2="302.94" stroke="black" stroke-width="3" />
  <rect x="487.985" y="303.031" width="201.53" height="183.394" rx="0" ry="0" fill="none" stroke="black" stroke-width="3" />
  <line x1="638.986" y1="386.031" x2="688.986" y2="386.031" stroke="black" stroke-width="3" />
  <line x1="638.986" y1="447.59" x2="638.986" y2="386.031" stroke="black" stroke-width="3" />
  <line x1="538.987" y1="446.94" x2="639.485" y2="446.94" stroke="black" stroke-width="3" />
  <line x1="537.985" y1="448.665" x2="537.985" y2="386.031" stroke="black" stroke-width="3" />
  <line x1="487.985" y1="386.031" x2="537.985" y2="386.031" stroke="black" stroke-width="3" />
  <line x1="588" y1="303.031" x2="588" y2="330.364" stroke="black" stroke-width="3" />
  <line x1="671.348" y1="152.606" x2="671.348" y2="302.606" stroke="black" stroke-width="3" />
  <text x="651.212" y="1005.97" font-size="15">00GCB12AA003</text>
  <text x="787.077" y="809.091" font-size="15">00GCB12AP002</text>
  <text x="651.212" y="874.668" font-size="15">00GCB12AA004</text>
  <text x="787.835" y="942.424" font-size="15">00GCB12AP001</text>
  <line x1="111.454" y1="150.971" x2="672.818" y2="150.971" stroke="black" stroke-width="3" />
  <image x="192.56" y="175.606" width="70" height="65" xlink:href="DS_CO_valve.svg" transform="rotate(270 0.000244141 -10.0001)">
    <title>00GCB12AA001</title>
    <rt:dyn type="Operate" mode="constant" value="true" />
    <rt:dyn type="KKS" mode="constant" value="&quot;00GCB12AA001&quot;" />
    <rt:dyn type="DATA_NARY" mode="constant" value="&quot;TPTS&quot;" />
  </image>
  <line x1="320" y1="983" x2="320" y2="486.97" stroke="black" stroke-width="3" />
  <image x="626.348" y="175.606" width="70" height="65" xlink:href="DS_CO_valve.svg" transform="rotate(270 0.000244141 -10.0001)">
    <title>00GCB12AA001</title>
    <rt:dyn type="Operate" mode="constant" value="true" />
    <rt:dyn type="KKS" mode="constant" value="&quot;00GCB12AA002&quot;" />
    <rt:dyn type="DATA_NARY" mode="constant" value="&quot;TPTS&quot;" />
  </image>
  <line x1="926.911" y1="781" x2="1137.27" y2="781" stroke="black" stroke-width="3" />
  <image x="939.18" y="747.818" width="175" height="25" xlink:href="DS_ana.svg">
    <title>00GCB12CP001</title>
    <rt:dyn type="FKKS" mode="constant" value="&quot;00GCB12CP001&quot;" />
    <rt:dyn type="ShowFrame" mode="constant" value="true" />
    <rt:dyn type="Color_Readings" mode="constant" value="true" />
    <rt:dyn type="X" mode="constant" value="&quot;P&quot;" />
    <rt:dyn type="ValueToTheRight" mode="constant" value="false" />
  </image>
  <text x="60.727" y="207.637" font-size="15">00GCB12AA001</text>
  <text x="700.121" y="215.212" font-size="15">00GCB12AA002</text>
  <text x="524.364" y="347.031" font-size="15">00GCB12AT002</text>
  <text x="63.758" y="84.9091" font-size="15" font-weight="normal">
    От смесителя гидромеханического
    <tspan x="63.758" dy="15">00GCB10BB003 после</tspan>
    <tspan x="63.758" dy="15">клапана 00GCB10AA011</tspan>
  </text>
  <text x="911" y="32" font-size="32">Узел сгущения шлама</text>
  <rect x="220.137" y="303.182" width="201.53" height="183.394" rx="0" ry="0" fill="none" stroke="black" stroke-width="3" />
  <line x1="371.138" y1="386.182" x2="421.138" y2="386.182" stroke="black" stroke-width="3" />
  <line x1="371.138" y1="447.741" x2="371.138" y2="386.182" stroke="black" stroke-width="3" />
  <line x1="271.139" y1="447.091" x2="371.637" y2="447.091" stroke="black" stroke-width="3" />
  <line x1="270.137" y1="448.816" x2="270.137" y2="386.182" stroke="black" stroke-width="3" />
  <line x1="220.137" y1="386.182" x2="270.137" y2="386.182" stroke="black" stroke-width="3" />
  <line x1="320" y1="303.182" x2="320" y2="330.515" stroke="black" stroke-width="3" />
  <text x="256.516" y="347.182" font-size="15">00GCB12AT001</text>
  <text x="651.212" y="736.666" font-size="15">00GCB12AA005</text>
  <line x1="651.121" y1="716.561" x2="926" y2="716.561" stroke="black" stroke-width="3" />
  <text x="787.077" y="541.787" font-size="15">00GCB12AP004</text>
  <line x1="590.228" y1="583.303" x2="925" y2="583.303" stroke="black" stroke-width="3" />
  <text x="651.212" y="606.303" font-size="15">00GCB12AA006</text>
  <text x="787.077" y="675.12" font-size="15">00GCB12AP003</text>
  <line x1="588" y1="717" x2="588" y2="487.848" stroke="black" stroke-width="3" />
  <line x1="925" y1="983" x2="925" y2="583" stroke="black" stroke-width="3" />
  <line x1="587.924" y1="983" x2="587.924" y2="849.182" stroke="black" stroke-width="3" />
  <line x1="641" y1="1053" x2="641" y2="651.402" stroke="black" stroke-width="1" />
  <line x1="640" y1="652" x2="775.236" y2="652" stroke="black" />
  <line x1="463.03" y1="896.061" x2="463.03" y2="896.061" stroke="black" />
  <image x="681.637" y="609.529" width="70" height="65" xlink:href="DS_CO_valve.svg" transform="rotate(0 0.000244141 -10.0001)">
    <title>00GCB12AA006</title>
    <rt:dyn type="Operate" mode="constant" value="true" />
    <rt:dyn type="KKS" mode="constant" value="&quot;00GCB12AA006&quot;" />
    <rt:dyn type="DATA_NARY" mode="constant" value="&quot;TPTS&quot;" />
  </image>
  <line x1="774" y1="652" x2="854" y2="593" stroke="black" />
  <image x="818.744" y="548.303" width="70" height="70" xlink:href="DS_motor.svg" transform="flipX(0.000446053) rotate(180 0.000244141 -0.000244141)">
    <title>00GCB12AP004</title>
    <rt:dyn type="KKS" mode="constant" value="&quot;00GCB12AP004&quot;" />
    <rt:dyn type="DATA_NARY" mode="constant" value="&quot;TPTS&quot;" />
    <rt:dyn type="Operate" mode="constant" value="true" />
  </image>
  <path d="M-1759.31 602.992 A8.30551 11.9749 0 1 0 -1759.31 626.942 " fill="none" stroke="black" stroke-width="3" transform="rotate(270 1252.34 770.048) flipX(332.641) flipX(878.38) flipY() translate(0 -828) translate(638.352 55.1549) matrix(-1 0 0 1 0 0)" />
  <line x1="587" y1="716.561" x2="629" y2="716.561" stroke="black" stroke-width="3" />
  <line x1="652.545" y1="851.437" x2="927.424" y2="851.437" stroke="black" stroke-width="3" />
  <path d="M-1624.44 601.568 A8.30551 11.9749 0 1 0 -1624.44 625.518 " fill="none" stroke="black" stroke-width="3" transform="rotate(270 1252.34 770.048) flipX(332.641) flipX(878.38) flipY() translate(0 -828) translate(638.352 55.1549) matrix(-1 0 0 1 0 0)" />
  <line x1="588.424" y1="851.437" x2="630.424" y2="851.437" stroke="black" stroke-width="3" />
  <line x1="652.576" y1="982.71" x2="927.455" y2="982.71" stroke="black" stroke-width="3" />
  <path d="M-1493.16 601.537 A8.30551 11.9749 0 1 0 -1493.16 625.487 " fill="none" stroke="black" stroke-width="3" transform="rotate(270 1252.34 770.048) flipX(332.641) flipX(878.38) flipY() translate(0 -828) translate(638.352 55.1549) matrix(-1 0 0 1 0 0)" />
  <line x1="319" y1="982.71" x2="630.455" y2="982.71" stroke="black" stroke-width="3" />
  <line x1="550" y1="784.863" x2="775.661" y2="784.863" stroke="black" />
  <line x1="774.425" y1="785.069" x2="854.425" y2="726.069" stroke="black" />
  <line x1="641" y1="919.402" x2="776.236" y2="919.402" stroke="black" />
  <line x1="775" y1="919.402" x2="855" y2="860.402" stroke="black" />
  <line x1="640" y1="1052.4" x2="775.236" y2="1052.4" stroke="black" />
  <line x1="774" y1="1052.4" x2="854" y2="993.402" stroke="black" />
  <image x="681.637" y="741.994" width="70" height="65" xlink:href="DS_CO_valve.svg" transform="rotate(0 0.000244141 -10.0001)">
    <title>00GCB12AA005</title>
    <rt:dyn type="Operate" mode="constant" value="true" />
    <rt:dyn type="KKS" mode="constant" value="&quot;00GCB12AA005&quot;" />
    <rt:dyn type="DATA_NARY" mode="constant" value="&quot;TPTS&quot;" />
  </image>
  <image x="681.637" y="877.894" width="70" height="65" xlink:href="DS_CO_valve.svg" transform="rotate(0 0.000244141 -10.0001)">
    <title>00GCB12AA004</title>
    <rt:dyn type="Operate" mode="constant" value="true" />
    <rt:dyn type="KKS" mode="constant" value="&quot;00GCB12AA004&quot;" />
    <rt:dyn type="DATA_NARY" mode="constant" value="&quot;TPTS&quot;" />
  </image>
  <image x="681.637" y="1010.3" width="70" height="65" xlink:href="DS_CO_valve.svg" transform="rotate(0 0.000244141 -10.0001)">
    <title>00GCB12AA003</title>
    <rt:dyn type="Operate" mode="constant" value="true" />
    <rt:dyn type="KKS" mode="constant" value="&quot;00GCB12AA003&quot;" />
    <rt:dyn type="DATA_NARY" mode="constant" value="&quot;TPTS&quot;" />
  </image>
  <image x="818.744" y="681.561" width="70" height="70" xlink:href="DS_motor.svg" transform="flipX(0.000446053) rotate(180 0.000244141 -0.000244141)">
    <title>00GCB12AP003</title>
    <rt:dyn type="KKS" mode="constant" value="&quot;00GCB12AP003&quot;" />
    <rt:dyn type="DATA_NARY" mode="constant" value="&quot;TPTS&quot;" />
    <rt:dyn type="Operate" mode="constant" value="true" />
  </image>
  <image x="818.744" y="815.607" width="70" height="70" xlink:href="DS_motor.svg" transform="flipX(0.000512646) rotate(180 0.000244141 -0.000244141)">
    <title>00GCB12AP002</title>
    <rt:dyn type="KKS" mode="constant" value="&quot;00GCB12AP002&quot;" />
    <rt:dyn type="DATA_NARY" mode="constant" value="&quot;TPTS&quot;" />
    <rt:dyn type="Operate" mode="constant" value="true" />
  </image>
  <image x="818.744" y="948.865" width="70" height="70" xlink:href="DS_motor.svg" transform="flipX(0.000512646) rotate(180 0.000244141 -0.000244141)">
    <title>00GCB12AP001</title>
    <rt:dyn type="KKS" mode="constant" value="&quot;00GCB12AP001&quot;" />
    <rt:dyn type="DATA_NARY" mode="constant" value="&quot;TPTS&quot;" />
    <rt:dyn type="Operate" mode="constant" value="true" />
  </image>
  <line x1="690.849" y1="343.5" x2="1419" y2="343.652" stroke="black" stroke-width="1" />
  <line x1="1328" y1="527.546" x2="1328" y2="343" stroke="black" stroke-width="1" />
  <line x1="1418.15" y1="527.698" x2="1418.15" y2="343" stroke="black" stroke-width="1" />
  <line x1="1328" y1="832" x2="1328" y2="644.273" stroke="black" stroke-width="1" />
  <line x1="1329" y1="831" x2="1584" y2="831" stroke="black" stroke-width="1" />
  <line x1="1418" y1="832" x2="1418" y2="644.213" stroke="black" stroke-width="1" />
  <line x1="1420.55" y1="715" x2="1584" y2="715" stroke="black" stroke-width="1" />
  <image x="1614.91" y="736.97" width="175" height="25" xlink:href="DS_ana.svg">
    <title>00GCB13CP001</title>
    <rt:dyn type="FKKS" mode="constant" value="&quot;00GCB13CP001&quot;" />
    <rt:dyn type="ShowFrame" mode="constant" value="true" />
    <rt:dyn type="Color_Readings" mode="constant" value="true" />
    <rt:dyn type="X" mode="constant" value="&quot;P&quot;" />
    <rt:dyn type="ValueToTheRight" mode="constant" value="false" />
  </image>
  <line x1="1583.59" y1="832" x2="1583.59" y2="715.485" stroke="black" stroke-width="1" />
  <line x1="1583.15" y1="770" x2="1842.18" y2="770" stroke="black" stroke-width="1" />
  <polygon points="692.151,271.971 692.151,290.971 709.151,280.971" transform="rotate(270 493.742 774.258) rotate(270 327.167 125.501) rotate(0 1.4013e-045 1.4013e-045) flipX(158.5)" />
  <text x="456.97" y="771.818" font-size="15" text-anchor="middle">
    Коагулированная вода
    <tspan x="456.97" dy="15">на уплотнение</tspan>
  </text>
  <image x="1817.58" y="752.121" width="85" height="25" xlink:href="obj_link.svg" transform="rotate(0 37.3619 12.5)">
    <rt:dyn type="TextStr" mode="constant" value="&quot;GCB10-3&quot;" />
    <rt:event type="OnClick">LoadNew("")</rt:event>
    <rt:dyn type="ModName" mode="constant" value="&quot;gcb10_3&quot;" />
  </image>
  <image x="41.8181" y="138.485" width="85" height="25" xlink:href="obj_link.svg" transform="rotate(0 37.3619 12.5)">
    <rt:dyn type="TextStr" mode="constant" value="&quot;GCB10-3&quot;" />
    <rt:event type="OnClick">LoadNew("")</rt:event>
    <rt:dyn type="ModName" mode="constant" value="&quot;gcb10_3&quot;" />
  </image>
  <image x="1123.64" y="765.758" width="85" height="25" xlink:href="obj_link.svg" transform="rotate(0 37.3619 12.5)">
    <rt:dyn type="TextStr" mode="constant" value="&quot;GCR10&quot;" />
    <rt:event type="OnClick">LoadNew("")</rt:event>
    <rt:dyn type="ModName" mode="constant" value="&quot;gcr10&quot;" />
  </image>
  <image x="284" y="241.06" width="70" height="70" xlink:href="DS_motor.svg" transform="flipX(0.000446053) rotate(180 0.000244141 -0.000244141)">
    <title>00GCB12AT001</title>
    <rt:dyn type="KKS" mode="constant" value="&quot;00GCB12AT001&quot;" />
    <rt:dyn type="DATA_NARY" mode="constant" value="&quot;TPTS&quot;" />
    <rt:dyn type="Operate" mode="constant" value="true" />
    <rt:dyn type="DeviceType" mode="constant" value="&quot;motor&quot;" />
  </image>
  <image x="553.182" y="241.06" width="70" height="70" xlink:href="DS_motor.svg" transform="flipX(0.000446053) rotate(180 0.000244141 -0.000244141)">
    <title>00GCB12AT002</title>
    <rt:dyn type="KKS" mode="constant" value="&quot;00GCB12AT002&quot;" />
    <rt:dyn type="DATA_NARY" mode="constant" value="&quot;TPTS&quot;" />
    <rt:dyn type="Operate" mode="constant" value="true" />
    <rt:dyn type="DeviceType" mode="constant" value="&quot;motor&quot;" />
  </image>
  <image x="944.5" y="634" width="60" height="45" xlink:href="DS_TPTS_AVR_sel.svg">
    <title>00GCB12ED002</title>
    <rt:dyn type="KKS" mode="constant" value="&quot;00GCB12ED002&quot;" />
    <rt:dyn type="Operate" mode="constant" value="true" />
    <rt:dyn type="VL_type" mode="constant" value="&quot;1o2&quot;" />
  </image>
  <image x="1343" y="727" width="60" height="45" xlink:href="DS_TPTS_AVR_sel.svg">
    <title>00GCB13ED001</title>
    <rt:dyn type="KKS" mode="constant" value="&quot;00GCB13ED001&quot;" />
    <rt:dyn type="Operate" mode="constant" value="true" />
    <rt:dyn type="VL_type" mode="constant" value="&quot;1o2&quot;" />
  </image>
  <image x="944.5" y="883" width="60" height="45" xlink:href="DS_TPTS_AVR_sel.svg">
    <title>00GCB12ED001</title>
    <rt:dyn type="KKS" mode="constant" value="&quot;00GCB12ED001&quot;" />
    <rt:dyn type="Operate" mode="constant" value="true" />
    <rt:dyn type="VL_type" mode="constant" value="&quot;1o2&quot;" />
  </image>
  <image x="400" y="175" width="110" height="30" xlink:href="DS_TPTS_TE_spec.svg">
    <rt:dyn type="KKS" mode="constant" value="&quot;00GCB12CH101TE0&quot;" />
    <rt:dyn type="Operate" mode="constant" value="TRUE" />
  </image>
  <image x="400" y="525" width="125" height="25" xlink:href="bitwise_tablo_4bits.svg">
    <rt:dyn type="PointID_1" mode="constant" value="&quot;00GCB12EU011_ZV01&quot;" />
    <rt:dyn type="PointID_2" mode="constant" value="&quot;00GCB12EU011_ZV02&quot;" />
    <rt:dyn type="PointID_3" mode="constant" value="&quot;00GCB12EU011_ZV03&quot;" />
    <rt:dyn type="PointID_4" mode="constant" value="&quot;00GCB12EU011_ZV04&quot;" />
    <rt:dyn type="Text_0001" mode="constant" value="&quot;ЗАПОЛНЕНИЕ&quot;" />
    <rt:dyn type="Grad_Style" mode="constant" value="false" />
    <rt:dyn type="Text_0010" mode="constant" value="&quot;ВОРОШЕНИЕ&quot;" />
    <rt:dyn type="Text_0100" mode="constant" value="&quot;ОЖИДАНИЕ&quot;" />
    <rt:dyn type="Text_1000" mode="constant" value="&quot;ОТКАЧКА&quot;" />
  </image>
  <image x="1552" y="425" width="160" height="75" xlink:href="DS_TPTS_VL_spec.svg">
    <rt:dyn type="KKS" mode="constant" value="&quot;00GCB13CH001VL0&quot;" />
    <rt:dyn type="Operate" mode="constant" value="true" />
    <rt:dyn type="VL_type" mode="constant" value="&quot;1o2&quot;" />
  </image>
  <image x="309" y="361" width="25" height="25" xlink:href="bin_indicator.svg">
    <rt:dyn type="PointID" mode="constant" value="&quot;00GCB12CL001_XG01&quot;" />
  </image>
  <image x="309" y="455" width="25" height="25" xlink:href="bin_indicator.svg">
    <rt:dyn type="PointID" mode="constant" value="&quot;00GCB12CL002_XG52&quot;" />
  </image>
  <image x="575" y="360" width="25" height="25" xlink:href="bin_indicator.svg">
    <rt:dyn type="PointID" mode="constant" value="&quot;00GCB12CL003_XG01&quot;" />
  </image>
  <image x="575" y="455" width="25" height="25" xlink:href="bin_indicator.svg">
    <rt:dyn type="PointID" mode="constant" value="&quot;00GCB12CL004_XG52&quot;" />
  </image>
  <image x="1471" y="678" width="70" height="70" xlink:href="DS_motor.svg" transform="flipX(0.000446053) rotate(180 0.000244141 -0.000244141)">
    <title>00GCB13AP001</title>
    <rt:dyn type="KKS" mode="constant" value="&quot;00GCB13AP001&quot;" />
    <rt:dyn type="DATA_NARY" mode="constant" value="&quot;TPTS&quot;" />
    <rt:dyn type="Operate" mode="constant" value="true" />
  </image>
  <image x="1471" y="794" width="70" height="70" xlink:href="DS_motor.svg" transform="flipX(0.000446053) rotate(180 0.000244141 -0.000244141)">
    <title>00GCB13AP002</title>
    <rt:dyn type="KKS" mode="constant" value="&quot;00GCB13AP002&quot;" />
    <rt:dyn type="DATA_NARY" mode="constant" value="&quot;TPTS&quot;" />
    <rt:dyn type="Operate" mode="constant" value="true" />
  </image>
  <text x="1445" y="765.5" font-size="15">00GCB13AP001</text>
  <text x="1445" y="881.5" font-size="15">00GCB13AP002</text>
  <text x="1433.51" y="551.326" font-size="15">00GCB13BB002</text>
  <image x="1401.16" y="586.273" width="175" height="25" xlink:href="DS_ana.svg">
    <title>00GCB13CL004</title>
    <rt:dyn type="FKKS" mode="constant" value="&quot;00GCB13CL004&quot;" />
    <rt:dyn type="ShowFrame" mode="constant" value="true" />
    <rt:dyn type="Color_Readings" mode="constant" value="true" />
    <rt:dyn type="X" mode="constant" value="&quot;L&quot;" />
    <rt:dyn type="ValueToTheRight" mode="constant" value="false" />
  </image>
  <image x="1487" y="615" width="25" height="25" xlink:href="bin_indicator.svg">
    <rt:dyn type="PointID" mode="constant" value="&quot;00GCB13CL006_XG54&quot;" />
  </image>
  <g>
    <rect x="1395.63" y="525" width="218.895" height="118.985" rx="0" ry="0" fill="none" stroke="black" stroke-width="3" />
    <image x="1579.53" y="533.985" width="30" height="105" xlink:href="DS_ana_bar.svg">
      <title>00GCB13CL004</title>
      <rt:dyn type="FKKS" mode="constant" value="&quot;00GCB13CL004&quot;" />
    </image>
  </g>
  <text x="1186.36" y="550.174" font-size="15">00GCB13BB001</text>
  <image x="1155.01" y="585.121" width="175" height="25" xlink:href="DS_ana.svg">
    <title>00GCB13CL001</title>
    <rt:dyn type="FKKS" mode="constant" value="&quot;00GCB13CL001&quot;" />
    <rt:dyn type="ShowFrame" mode="constant" value="true" />
    <rt:dyn type="Color_Readings" mode="constant" value="true" />
    <rt:dyn type="X" mode="constant" value="&quot;L&quot;" />
    <rt:dyn type="ValueToTheRight" mode="constant" value="false" />
  </image>
  <polygon points="373.211,1117.7 373.211,1136.7 390.211,1126.7" transform="rotate(270 327.167 125.501) rotate(0 1.4013e-045 1.4013e-045) flipX(158.5)" />
  <image x="1237" y="613" width="25" height="25" xlink:href="bin_indicator.svg">
    <rt:dyn type="PointID" mode="constant" value="&quot;00GCB13CL003_XG54&quot;" />
  </image>
  <g>
    <rect x="1149.23" y="526.015" width="218.895" height="118.985" rx="0" ry="0" fill="none" stroke="black" stroke-width="3" />
    <image x="1333.13" y="535" width="30" height="105" xlink:href="DS_ana_bar.svg">
      <title>00GCB13CL001</title>
      <rt:dyn type="FKKS" mode="constant" value="&quot;00GCB13CL001&quot;" />
    </image>
  </g>
  <text x="1424.38" y="444.75" font-size="15">00GCB13BB001</text>
  <text x="1424.38" y="471" font-size="15">00GCB13BB002</text>
  <text x="330.625" y="194.375" font-size="15">Запуск</text>
</svg>
