<?xml  version="1.0" encoding="windows-1251"?>
<svg color="Col_BGSand" xmlns="http://www.w3.org/2000/svg" xmlns:rt="http://www.rts.co.at/2001/XMLSchema/RtSvgPL" xmlns:xlink="http://www.w3.org/1999/xlink" xmlns:xsi="http://www.w3.org/2001/XMLSchema-instance" xsi:schemaLocation="http://www.w3.org/2000/svg C:\RTS\RtSvg\XML\SVG.xsd" viewBox="0 0 1940 1000" width="1940" height="1000" id="jro0_2">
  <title>Блок подготовки ЖРО</title>
  <rt:model modelversion="7.2.0.24" comment="Создано VNIIAES-ASUTP\seregin 07.08.2013 18:14:20" revision="1.0"/> 
  <line x1="172" y1="115.634" x2="172" y2="99.7805" stroke="black"/> 
  <polyline points="132,645 49,645 49,951 681,951 681,673 792,673" fill="none" stroke="black"/> 
  <polyline points="1201,124 1201,725 1070,725" fill="none" stroke="black" stroke-width="3"/> 
  <polyline points="313,107 313,74 1859,72.7073 1859,717.829 1754,720" fill="none" stroke="black" stroke-width="3"/> 
  <line x1="312" y1="289.78" x2="312" y2="683.683" stroke="black" stroke-width="3"/> 
  <line x1="133" y1="280.024" x2="133" y2="692.22" stroke="black" stroke-width="3"/> 
  <line x1="177.11" y1="677.634" x2="177.11" y2="433" stroke="black"/> 
  <line x1="253.884" y1="291" x2="253.884" y2="661.951" stroke="black"/> 
  <line x1="417" y1="677.634" x2="417" y2="433" stroke="black"/> 
  <polyline points="380,681 380,281 54,281" fill="none" stroke="black" stroke-width="3"/> 
  <line x1="497" y1="115.829" x2="497" y2="660.951" stroke="black"/> 
  <line x1="557" y1="676.488" x2="557" y2="124" stroke="black" stroke-width="3"/> 
  <line x1="906" y1="116.61" x2="906" y2="294.659" stroke="black"/> 
  <line x1="1375" y1="243.78" x2="1375" y2="354.756" stroke="black"/> 
  <polyline points="1553,304 1553,244 1256,244 1256,354" fill="none" stroke="black"/> 
  <line x1="1554.05" y1="525" x2="1480.88" y2="525" stroke="black"/> 
  <text x="1902.98" y="165.134" font-size="15" text-anchor="middle">00KPN80<tspan x="1902.98" dy="15">AA008</tspan>
  </text>
  <rect x="1613.7" y="555.048" width="23.1708" height="93.9025" rx="0" ry="0" fill="Col_Grey3" stroke="black"/> 
  <polyline points="968,727.585 968,821 1626,821 1626,734" fill="none" stroke="black" stroke-width="3"/> 
  <path d="M1367.84 700.88 L1367.84 609.946 Q1475.8 610.424 1686.11 609.946 L1686.11 700.88 Q1519.1 806.231 1367.84 700.88 " fill="Col_Grey3" stroke="black" stroke-width="1" transform="scale(1.09969 1.09969 540.478 764.363)"/> 
  <path d="M391.133 904.415 L391.133 687.613 Q474.417 631.611 560.805 686.504 L558.586 903.505 Q474.417 954.872 391.133 904.415 " fill="Col_Grey3" stroke="black" stroke-width="1" transform="scale(1.09969 1.09969 540.478 764.363)"/> 
  <path d="M166.313 902.126 L166.313 685.324 Q249.596 629.322 335.985 684.215 L333.767 901.216 Q249.596 952.583 166.313 902.126 " fill="Col_Grey3" stroke="black" stroke-width="1" transform="scale(1.09969 1.09969 540.478 764.363)"/> 
  <line x1="463.03" y1="896.061" x2="463.03" y2="896.061" stroke="black"/> 
  <image x="131.65" y="868.723" width="175" height="25" xlink:href="DS_ana.svg">
    <title>&quot;00KPN80CL007&quot;</title>
    <rt:dyn type="FKKS" mode="constant" value="&quot;00KPN80CL007&quot;"/> 
    <rt:dyn type="ShowFrame" mode="constant" value="true"/> 
    <rt:dyn type="Color_Readings" mode="constant" value="true"/> 
    <rt:dyn type="X" mode="constant" value="&quot;L&quot;"/> 
    <rt:dyn type="ValueToTheRight" mode="constant" value="false"/> 
  </image>
  <image x="275.1" y="755.901" width="30" height="105" xlink:href="DS_ana_bar.svg">
    <title>&quot;00KPN80CL007&quot;</title>
    <rt:dyn type="FKKS" mode="constant" value="&quot;00KPN80CL007&quot;"/> 
  </image>
  <image x="277.6" y="719.966" width="25" height="25" xlink:href="bin_indicator.svg">
    <title>&quot;00KPN80CL008&quot;</title>
    <rt:dyn type="PointID" mode="constant" value="&quot;00KPN80CL008_XG01&quot;"/> 
  </image>
  <text x="160.12" y="694.481" font-size="15">00KPN80BB002</text>
  <image x="381.089" y="867.723" width="175" height="25" xlink:href="DS_ana.svg">
    <title>&quot;00KPN80CL009&quot;</title>
    <rt:dyn type="FKKS" mode="constant" value="&quot;00KPN80CL009&quot;"/> 
    <rt:dyn type="ShowFrame" mode="constant" value="true"/> 
    <rt:dyn type="Color_Readings" mode="constant" value="true"/> 
    <rt:dyn type="X" mode="constant" value="&quot;L&quot;"/> 
    <rt:dyn type="ValueToTheRight" mode="constant" value="false"/> 
  </image>
  <image x="523.809" y="754.901" width="30" height="105" xlink:href="DS_ana_bar.svg">
    <title>&quot;00KPN80CL009&quot;</title>
    <rt:dyn type="FKKS" mode="constant" value="&quot;00KPN80CL009&quot;"/> 
  </image>
  <image x="526.309" y="718.966" width="25" height="25" xlink:href="bin_indicator.svg">
    <title>&quot;00KPN80CL010&quot;</title>
    <rt:dyn type="PointID" mode="constant" value="&quot;00KPN80CL010_XG01&quot;"/> 
  </image>
  <text x="407.301" y="693.481" font-size="15">00KPN80BB003</text>
  <line x1="702.927" y1="634.146" x2="702.927" y2="634.146" stroke="black"/> 
  <line x1="1305.37" y1="795.122" x2="1305.37" y2="795.122" stroke="black"/> 
  <line x1="1200.32" y1="889.642" x2="1200.32" y2="822" stroke="black" stroke-width="3"/> 
  <image x="1155.4" y="819.9" width="70" height="65" xlink:href="DS_CO_valve.svg" transform="rotate(270 0.000244141 -10.0001)">
    <title>&quot;00KPN80AA020&quot;</title>
    <rt:dyn type="Operate" mode="constant" value="true"/> 
    <rt:dyn type="KKS" mode="constant" value="&quot;00KPN80AA020&quot;"/> 
    <rt:dyn type="DATA_NARY" mode="constant" value="&quot;TPTS&quot;"/> 
  </image>
  <text x="1248.35" y="849.324" font-size="15" text-anchor="middle">00KPN80<tspan x="1248.35" dy="15">AA020</tspan>
  </text>
  <polygon points="257.33,989.05 257.33,1008.05 274.33,998.05" transform="flipY(738.803) flipY(143.405) flipY(114.561) flipY(394.864) flipY(450.924) rotate(0 1.4013e-045 1.9569e-039) flipY(519.712) rotate(270 327.167 125.501) rotate(0 1.4013e-045 1.4013e-045) flipX(158.5)"/> 
  <text x="1204.63" y="913.703" font-size="15" text-anchor="middle">К блоку цементирования<tspan x="1204.63" dy="15">(смеситель</tspan>
<tspan x="1204.63" dy="15">00KPN70AM001)</tspan>
  </text>
  <text x="1674.65" y="785.037" font-size="15" text-anchor="middle">00KPN80<tspan x="1674.65" dy="15">AA010</tspan>
  </text>
  <image x="1580.52" y="755.037" width="70" height="65" xlink:href="DS_CO_valve.svg" transform="rotate(270 0.000244141 -10.0001)">
    <title>&quot;00KPN80AA010&quot;</title>
    <rt:dyn type="Operate" mode="constant" value="true"/> 
    <rt:dyn type="KKS" mode="constant" value="&quot;00KPN80AA010&quot;"/> 
    <rt:dyn type="DATA_NARY" mode="constant" value="&quot;TPTS&quot;"/> 
  </image>
  <g transform="scale(0.859982 0.859982 631.365 492.076)">
    <path d="M1642.94 426.644 L1643.79 293.346 Q1647.19 252.222 1705.33 253.64 T1760.07 293.346 L1760.07 438.698 Q1760.07 496.839 1704.99 492.763 Q1643.79 496.839 1642.68 426.8 Z" fill="Col_Grey3" stroke="black" stroke-width="1"/> 
  </g>
  <rect x="1533.21" y="655.268" width="185.366" height="9.75604" rx="0" ry="0" fill="none" stroke="black"/> 
  <line x1="1625.11" y1="654.512" x2="1625.11" y2="525.243" stroke="black"/> 
  <polyline points="1683.78,520.869 1637.11,555.536 1681.11,547.536" fill="none" stroke="black"/> 
  <image x="1751.85" y="607.951" width="25" height="25" xlink:href="bin_indicator.svg">
    <title>&quot;00KPN80CL018&quot;</title>
    <rt:dyn type="PointID" mode="constant" value="&quot;00KPN80CL018_XG01&quot;"/> 
  </image>
  <image x="1721.55" y="607.951" width="25" height="25" xlink:href="bin_indicator.svg">
    <title>&quot;00KPN80CL017&quot;</title>
    <rt:dyn type="PointID" mode="constant" value="&quot;00KPN80CL017_XG01&quot;"/> 
  </image>
  <image x="1590.3" y="481.331" width="70" height="70" xlink:href="DS_motor.svg" transform="rotate(180 0 0) flipX(0.000512646) rotate(180 0.000244141 -0.000244141)">
    <title>&quot;00KPN80AT002&quot;</title>
    <rt:dyn type="KKS" mode="constant" value="&quot;00KPN80AT002&quot;"/> 
    <rt:dyn type="DATA_NARY" mode="constant" value="&quot;TPTS&quot;"/> 
    <rt:dyn type="Operate" mode="constant" value="true"/> 
    <rt:dyn type="DeviceType" mode="constant" value="&quot;motor&quot;"/> 
  </image>
  <text x="1643.86" y="476.703" font-size="15">00KPN80<tspan x="1643.86" dy="15">AT002</tspan>
  </text>
  <text x="1701.54" y="524.555" font-size="15">Протечка</text>
  <text x="1701.54" y="555.373" font-size="15">Протечка</text>
  <line x1="1783.11" y1="594.317" x2="1783.11" y2="373.585" stroke="black"/> 
  <text x="1820.17" y="471.329" font-size="15" text-anchor="middle">00KPN80<tspan x="1820.17" dy="15">AA034</tspan>
  </text>
  <image x="1738.66" y="399.17" width="70" height="65" xlink:href="DS_CO_valve.svg" transform="rotate(270 0.000244141 -10.0001)">
    <title>&quot;00KPN80AA034&quot;</title>
    <rt:dyn type="Operate" mode="constant" value="true"/> 
    <rt:dyn type="KKS" mode="constant" value="&quot;00KPN80AA034&quot;"/> 
    <rt:dyn type="DATA_NARY" mode="constant" value="&quot;TPTS&quot;"/> 
  </image>
  <polygon points="472.143,1572.52 472.143,1591.52 489.143,1581.52" transform="flipY(143.405) flipY(114.561) flipY(394.864) flipY(450.924) rotate(0 1.4013e-045 1.9569e-039) flipY(519.712) rotate(270 327.167 125.501) rotate(0 1.4013e-045 1.4013e-045) flipX(158.5)"/> 
  <text x="1754.79" y="354.378" font-size="15" font-weight="normal">Сдувка</text>
  <image x="1813.96" y="134.134" width="70" height="65" xlink:href="DS_CO_valve.svg" transform="rotate(270 0.000244141 -10.0001)">
    <title>&quot;00KPN80AA008&quot;</title>
    <rt:dyn type="Operate" mode="constant" value="true"/> 
    <rt:dyn type="KKS" mode="constant" value="&quot;00KPN80AA008&quot;"/> 
    <rt:dyn type="DATA_NARY" mode="constant" value="&quot;TPTS&quot;"/> 
  </image>
  <polyline points="1614.67,556 1554,556 1554,492" fill="none" stroke="black"/> 
  <image x="1362.8" y="514.732" width="175" height="25" xlink:href="DS_ana.svg">
    <title>&quot;00KPN80CP009&quot;</title>
    <rt:dyn type="FKKS" mode="constant" value="&quot;00KPN80CP009&quot;"/> 
    <rt:dyn type="ShowFrame" mode="constant" value="true"/> 
    <rt:dyn type="Color_Readings" mode="constant" value="true"/> 
    <rt:dyn type="X" mode="constant" value="&quot;P&quot;"/> 
    <rt:dyn type="ValueToTheRight" mode="constant" value="false"/> 
  </image>
  <line x1="1289.38" y1="477.118" x2="1289.38" y2="396.328" stroke="black" stroke-width="1" transform="rotate(90 1251.65 590.379)"/> 
  <line x1="1445.71" y1="643" x2="1445.71" y2="613" stroke="black" stroke-width="1"/> 
  <image x="1258.85" y="616.073" width="175" height="25" xlink:href="DS_ana.svg">
    <title>&quot;00KPN80CX002&quot;</title>
    <rt:dyn type="FKKS" mode="constant" value="&quot;00KPN80CX002&quot;"/> 
    <rt:dyn type="ShowFrame" mode="constant" value="true"/> 
    <rt:dyn type="Color_Readings" mode="constant" value="true"/> 
    <rt:dyn type="X" mode="constant" value="&quot;X&quot;"/> 
    <rt:dyn type="ValueToTheRight" mode="constant" value="false"/> 
  </image>
  <image x="1566.89" y="409.644" width="25" height="25" xlink:href="bin_indicator.svg">
    <title>00KPN80CL014_XG51</title>
    <rt:dyn type="PointID" mode="constant" value="&quot;00KPN80CL014_XG51&quot;"/> 
  </image>
  <image x="1536.58" y="409.644" width="25" height="25" xlink:href="bin_indicator.svg">
    <title>00KPN80CL013_XG51</title>
    <rt:dyn type="PointID" mode="constant" value="&quot;00KPN80CL013_XG51&quot;"/> 
  </image>
  <image x="1377.98" y="230.585" width="175" height="25" xlink:href="DS_ana.svg">
    <title>&quot;00KPN80CF002&quot;</title>
    <rt:dyn type="FKKS" mode="constant" value="&quot;00KPN80CF002&quot;"/> 
    <rt:dyn type="ShowFrame" mode="constant" value="true"/> 
    <rt:dyn type="Color_Readings" mode="constant" value="true"/> 
    <rt:dyn type="X" mode="constant" value="&quot;F&quot;"/> 
    <rt:dyn type="ValueToTheRight" mode="constant" value="false"/> 
  </image>
  <polygon points="-1258.25,1163.76 -1258.25,1182.76 -1241.25,1172.76" transform="flipY(927.772) flipY(123.652) flipY(450.924) rotate(0 1.4013e-045 1.9569e-039) flipY(519.712) rotate(270 327.167 125.501) rotate(0 1.4013e-045 1.4013e-045) flipX(158.5)"/> 
  <text x="1385.47" y="298.784" font-size="15">00KPN80<tspan x="1385.47" dy="15">AA019</tspan>
  </text>
  <image x="1330.5" y="269.232" width="70" height="65" xlink:href="DS_CO_valve.svg" transform="rotate(270 0.000244141 -10.0001)">
    <title>&quot;00KPN80AA019&quot;</title>
    <rt:dyn type="Operate" mode="constant" value="true"/> 
    <rt:dyn type="KKS" mode="constant" value="&quot;00KPN80AA019&quot;"/> 
    <rt:dyn type="DATA_NARY" mode="constant" value="&quot;TPTS&quot;"/> 
  </image>
  <polygon points="-1259.25,1045.43 -1259.25,1064.43 -1242.25,1054.43" transform="flipY(927.772) flipY(123.652) flipY(450.924) rotate(0 1.4013e-045 1.9569e-039) flipY(519.712) rotate(270 327.167 125.501) rotate(0 1.4013e-045 1.4013e-045) flipX(158.5)"/> 
  <text x="1249.71" y="379.671" font-size="15" font-weight="normal" text-anchor="middle">Фильтрат<tspan x="1249.71" dy="15">на УОВС</tspan>
  </text>
  <text x="1378.24" y="380.585" font-size="15" font-weight="normal" text-anchor="middle">Фильтрат в блок<tspan x="1378.24" dy="15">цементиования</tspan>
<tspan x="1378.24" dy="15">(бак</tspan>
<tspan x="1378.24" dy="15">00KPN80BB001)</tspan>
  </text>
  <text x="1549.88" y="356.402" font-size="15" text-anchor="middle">00KPN80<tspan x="1549.88" dy="15">BB005</tspan>
  </text>
  <text x="1266.3" y="302.773" font-size="15">00KPN80<tspan x="1266.3" dy="15">AA017</tspan>
  </text>
  <image x="1211.04" y="273.11" width="70" height="65" xlink:href="DS_CO_valve.svg" transform="rotate(270 0.000244141 -10.0001)">
    <title>&quot;00KPN80AA017&quot;</title>
    <rt:dyn type="Operate" mode="constant" value="true"/> 
    <rt:dyn type="KKS" mode="constant" value="&quot;00KPN80AA017&quot;"/> 
    <rt:dyn type="DATA_NARY" mode="constant" value="&quot;TPTS&quot;"/> 
  </image>
  <line x1="718.534" y1="243.341" x2="718.534" y2="354.317" stroke="black"/> 
  <polyline points="897,303.561 897,243.561 600,243.561 600,353.561" fill="none" stroke="black"/> 
  <line x1="900.584" y1="524.561" x2="827.414" y2="524.561" stroke="black"/> 
  <rect x="960.234" y="554.61" width="23.1708" height="93.9025" rx="0" ry="0" fill="Col_Grey3" stroke="black"/> 
  <path d="M765.444 700.481 L765.444 609.547 Q873.394 610.025 1083.7 609.547 L1083.7 700.481 Q916.704 805.832 765.444 700.481 " fill="Col_Grey3" stroke="black" stroke-width="1" transform="scale(1.09969 1.09969 540.478 764.363)"/> 
  <g transform="scale(0.859982 0.859982 631.365 492.076)">
    <path d="M883.077 426.134 L883.928 292.836 Q887.337 251.712 945.477 253.13 T1000.22 292.836 L1000.22 438.188 Q1000.22 496.329 941.227 491.365 Q883.928 496.329 882.817 426.29 Z" fill="Col_Grey3" stroke="black" stroke-width="1"/> 
  </g>
  <rect x="879.744" y="654.83" width="185.366" height="9.75604" rx="0" ry="0" fill="none" stroke="black"/> 
  <line x1="971.644" y1="654.074" x2="971.644" y2="524.804" stroke="black"/> 
  <polyline points="1030.31,520.43 983.644,555.098 1027.64,547.098" fill="none" stroke="black"/> 
  <text x="1043.07" y="522.921" font-size="15">Протечка</text>
  <text x="1043.07" y="553.739" font-size="15">Протечка</text>
  <line x1="1124.64" y1="593.879" x2="1124.64" y2="373.146" stroke="black"/> 
  <polygon points="472.581,914.054 472.581,933.054 489.581,923.054" transform="flipY(143.405) flipY(114.561) flipY(394.864) flipY(450.924) rotate(0 1.4013e-045 1.9569e-039) flipY(519.712) rotate(270 327.167 125.501) rotate(0 1.4013e-045 1.4013e-045) flipX(158.5)"/> 
  <text x="1095.32" y="353.939" font-size="15" font-weight="normal">Сдувка</text>
  <polyline points="960,555 900.534,555 900.534,491.561" fill="none" stroke="black"/> 
  <line x1="1288.94" y1="1138.58" x2="1288.94" y2="1057.79" stroke="black" stroke-width="1" transform="rotate(90 1251.65 590.379)"/> 
  <line x1="784.244" y1="642.562" x2="784.244" y2="612.562" stroke="black" stroke-width="1"/> 
  <polygon points="-1258.69,507.294 -1258.69,526.294 -1241.69,516.294" transform="flipY(927.772) flipY(123.652) flipY(450.924) rotate(0 1.4013e-045 1.9569e-039) flipY(519.712) rotate(270 327.167 125.501) rotate(0 1.4013e-045 1.4013e-045) flipX(158.5)"/> 
  <polygon points="-1259.69,388.966 -1259.69,407.966 -1242.69,397.966" transform="flipY(927.772) flipY(123.652) flipY(450.924) rotate(0 1.4013e-045 1.9569e-039) flipY(519.712) rotate(270 327.167 125.501) rotate(0 1.4013e-045 1.4013e-045) flipX(158.5)"/> 
  <text x="601.244" y="379.232" font-size="15" font-weight="normal" text-anchor="middle">Фильтрат<tspan x="601.244" dy="15">на УОВС</tspan>
  </text>
  <text x="723.774" y="380.146" font-size="15" font-weight="normal" text-anchor="middle">Фильтрат в блок<tspan x="723.774" dy="15">цементиования</tspan>
<tspan x="723.774" dy="15">(бак 00KPN80BB001)</tspan>
  </text>
  <text x="897.439" y="358.841" font-size="15" text-anchor="middle">00KPN80<tspan x="897.439" dy="15">BB004</tspan>
  </text>
  <polyline points="74,116 1565,116 1565,286" fill="none" stroke="black"/> 
  <text x="1162.9" y="473.451" font-size="15" text-anchor="middle">00KPN80<tspan x="1162.9" dy="15">AA033</tspan>
  </text>
  <image x="1079.5" y="399.5" width="70" height="65" xlink:href="DS_CO_valve.svg" transform="rotate(270 0.000244141 -10.0001)">
    <title>&quot;00KPN80AA033&quot;</title>
    <rt:dyn type="Operate" mode="constant" value="true"/> 
    <rt:dyn type="KKS" mode="constant" value="&quot;00KPN80AA033&quot;"/> 
    <rt:dyn type="DATA_NARY" mode="constant" value="&quot;TPTS&quot;"/> 
  </image>
  <image x="1109.3" y="605.333" width="25" height="25" xlink:href="bin_indicator.svg">
    <title>&quot;00KPN80CL016&quot;</title>
    <rt:dyn type="PointID" mode="constant" value="&quot;00KPN80CL016_XG01&quot;"/> 
  </image>
  <image x="1079" y="605.333" width="25" height="25" xlink:href="bin_indicator.svg">
    <title>&quot;00KPN80CL015&quot;</title>
    <rt:dyn type="PointID" mode="constant" value="&quot;00KPN80CL015_XG01&quot;"/> 
  </image>
  <image x="934.667" y="485.333" width="70" height="70" xlink:href="DS_motor.svg" transform="rotate(180 0 0) flipX(0.000512646) rotate(180 0.000244141 -0.000244141)">
    <title>&quot;00KPN80AT001&quot;</title>
    <rt:dyn type="KKS" mode="constant" value="&quot;00KPN80AT001&quot;"/> 
    <rt:dyn type="DATA_NARY" mode="constant" value="&quot;TPTS&quot;"/> 
    <rt:dyn type="Operate" mode="constant" value="true"/> 
    <rt:dyn type="DeviceType" mode="constant" value="&quot;motor&quot;"/> 
  </image>
  <text x="991.333" y="480.334" font-size="15">00KPN80<tspan x="991.333" dy="15">AT001</tspan>
  </text>
  <image x="701.333" y="514.333" width="175" height="25" xlink:href="DS_ana.svg">
    <title>&quot;00KPN80CP008&quot;</title>
    <rt:dyn type="FKKS" mode="constant" value="&quot;00KPN80CP008&quot;"/> 
    <rt:dyn type="ShowFrame" mode="constant" value="true"/> 
    <rt:dyn type="Color_Readings" mode="constant" value="true"/> 
    <rt:dyn type="X" mode="constant" value="&quot;P&quot;"/> 
    <rt:dyn type="ValueToTheRight" mode="constant" value="false"/> 
  </image>
  <image x="583.333" y="611" width="175" height="25" xlink:href="DS_ana.svg">
    <title>&quot;00KPN80CX001&quot;</title>
    <rt:dyn type="FKKS" mode="constant" value="&quot;00KPN80CX001&quot;"/> 
    <rt:dyn type="ShowFrame" mode="constant" value="true"/> 
    <rt:dyn type="Color_Readings" mode="constant" value="true"/> 
    <rt:dyn type="X" mode="constant" value="&quot;X&quot;"/> 
    <rt:dyn type="ValueToTheRight" mode="constant" value="false"/> 
  </image>
  <image x="913.633" y="409.644" width="25" height="25" xlink:href="bin_indicator.svg">
    <title>&quot;00KPN80CL012_XG51&quot;</title>
    <rt:dyn type="PointID" mode="constant" value="&quot;00KPN80CL012_XG51&quot;"/> 
  </image>
  <image x="883.333" y="409.644" width="25" height="25" xlink:href="bin_indicator.svg">
    <title>&quot;00KPN80CL011_XG51&quot;</title>
    <rt:dyn type="PointID" mode="constant" value="&quot;00KPN80CL011_XG51&quot;"/> 
  </image>
  <image x="722.333" y="231" width="175" height="25" xlink:href="DS_ana.svg">
    <title>&quot;00KPN80CF001&quot;</title>
    <rt:dyn type="FKKS" mode="constant" value="&quot;00KPN80CF001&quot;"/> 
    <rt:dyn type="ShowFrame" mode="constant" value="true"/> 
    <rt:dyn type="Color_Readings" mode="constant" value="true"/> 
    <rt:dyn type="X" mode="constant" value="&quot;F&quot;"/> 
    <rt:dyn type="ValueToTheRight" mode="constant" value="false"/> 
  </image>
  <text x="768.171" y="302.744" font-size="15" text-anchor="middle">00KPN80<tspan x="768.171" dy="15">AA018</tspan>
  </text>
  <image x="674.023" y="273.156" width="70" height="65" xlink:href="DS_CO_valve.svg" transform="rotate(270 0.000244141 -10.0001)">
    <title>&quot;00KPN80AA018&quot;</title>
    <rt:dyn type="Operate" mode="constant" value="true"/> 
    <rt:dyn type="KKS" mode="constant" value="&quot;00KPN80AA018&quot;"/> 
    <rt:dyn type="DATA_NARY" mode="constant" value="&quot;TPTS&quot;"/> 
  </image>
  <text x="643.78" y="305.183" font-size="15" text-anchor="middle">00KPN80<tspan x="643.78" dy="15">AA002</tspan>
  </text>
  <image x="554.25" y="273.156" width="70" height="65" xlink:href="DS_CO_valve.svg" transform="rotate(270 0.000244141 -10.0001)">
    <title>&quot;00KPN80AA002&quot;</title>
    <rt:dyn type="Operate" mode="constant" value="true"/> 
    <rt:dyn type="KKS" mode="constant" value="&quot;00KPN80AA002&quot;"/> 
    <rt:dyn type="DATA_NARY" mode="constant" value="&quot;TPTS&quot;"/> 
  </image>
  <text x="1018.25" y="784.75" font-size="15" text-anchor="middle">00KPN80<tspan x="1018.25" dy="15">AA005</tspan>
  </text>
  <image x="923.5" y="750.375" width="70" height="65" xlink:href="DS_CO_valve.svg" transform="rotate(270 0.000244141 -10.0001)">
    <title>&quot;00KPN80AA005&quot;</title>
    <rt:dyn type="Operate" mode="constant" value="true"/> 
    <rt:dyn type="KKS" mode="constant" value="&quot;00KPN80AA005&quot;"/> 
    <rt:dyn type="DATA_NARY" mode="constant" value="&quot;TPTS&quot;"/> 
  </image>
  <text x="1615.73" y="167.378" font-size="15" text-anchor="middle">00KPN80<tspan x="1615.73" dy="15">AA040</tspan>
  </text>
  <image x="1519.62" y="134.134" width="70" height="65" xlink:href="DS_CO_valve.svg" transform="rotate(270 0.000244141 -10.0001)">
    <title>&quot;00KPN80AA040&quot;</title>
    <rt:dyn type="Operate" mode="constant" value="true"/> 
    <rt:dyn type="KKS" mode="constant" value="&quot;00KPN80AA040&quot;"/> 
    <rt:dyn type="DATA_NARY" mode="constant" value="&quot;TPTS&quot;"/> 
  </image>
  <text x="955.975" y="166.159" font-size="15" text-anchor="middle">00KPN80<tspan x="955.975" dy="15">AA041</tspan>
  </text>
  <image x="860.625" y="134.134" width="70" height="65" xlink:href="DS_CO_valve.svg" transform="rotate(270 0.000244141 -10.0001)">
    <title>&quot;00KPN80AA041&quot;</title>
    <rt:dyn type="Operate" mode="constant" value="true"/> 
    <rt:dyn type="KKS" mode="constant" value="&quot;00KPN80AA041&quot;"/> 
    <rt:dyn type="DATA_NARY" mode="constant" value="&quot;TPTS&quot;"/> 
  </image>
  <text x="459.537" y="473.232" font-size="15" text-anchor="middle">00KPN80<tspan x="459.537" dy="15">AA023</tspan>
  </text>
  <text x="460.536" y="563.598" font-size="15" text-anchor="middle">00KPN80<tspan x="460.536" dy="15">AA043</tspan>
  </text>
  <image x="452.231" y="576.902" width="70" height="65" xlink:href="DS_CO_valve.svg" transform="rotate(270 0.000244141 -10.0001)">
    <title>&quot;00KPN80AA043&quot;</title>
    <rt:dyn type="Operate" mode="constant" value="true"/> 
    <rt:dyn type="KKS" mode="constant" value="&quot;00KPN80AA043&quot;"/> 
    <rt:dyn type="DATA_NARY" mode="constant" value="&quot;TPTS&quot;"/> 
  </image>
  <image x="372.036" y="472.079" width="70" height="65" xlink:href="DS_CO_valve.svg" transform="rotate(270 0.000244141 -10.0001)">
    <title>&quot;00KPN80AA023&quot;</title>
    <rt:dyn type="Operate" mode="constant" value="true"/> 
    <rt:dyn type="KKS" mode="constant" value="&quot;00KPN80AA023&quot;"/> 
    <rt:dyn type="DATA_NARY" mode="constant" value="&quot;TPTS&quot;"/> 
  </image>
  <text x="215.902" y="471.232" font-size="15" text-anchor="middle">00KPN80<tspan x="215.902" dy="15">AA022</tspan>
  </text>
  <text x="218.683" y="566.646" font-size="15" text-anchor="middle">00KPN80<tspan x="218.683" dy="15">AA042</tspan>
  </text>
  <image x="132" y="472.079" width="70" height="65" xlink:href="DS_CO_valve.svg" transform="rotate(270 0.000244141 -10.0001)">
    <title>&quot;00KPN80AA022&quot;</title>
    <rt:dyn type="Operate" mode="constant" value="true"/> 
    <rt:dyn type="KKS" mode="constant" value="&quot;00KPN80AA022&quot;"/> 
    <rt:dyn type="DATA_NARY" mode="constant" value="&quot;TPTS&quot;"/> 
  </image>
  <image x="208.727" y="576.902" width="70" height="65" xlink:href="DS_CO_valve.svg" transform="rotate(270 0.000244141 -10.0001)">
    <title>&quot;00KPN80AA042&quot;</title>
    <rt:dyn type="Operate" mode="constant" value="true"/> 
    <rt:dyn type="KKS" mode="constant" value="&quot;00KPN80AA042&quot;"/> 
    <rt:dyn type="DATA_NARY" mode="constant" value="&quot;TPTS&quot;"/> 
  </image>
  <polygon points="403.898,206.368 403.898,225.368 420.898,215.368" transform="flipY(143.405) flipY(114.561) flipY(394.864) flipY(450.924) rotate(0 1.4013e-045 1.9569e-039) flipY(519.712) rotate(270 327.167 125.501) rotate(0 1.4013e-045 1.4013e-045) flipX(158.5)"/> 
  <text x="388.634" y="421.402" font-size="15" font-weight="normal">Сдувка</text>
  <polygon points="403.898,-33.7051 403.898,-14.7051 420.898,-24.7051" transform="flipY(143.405) flipY(114.561) flipY(394.864) flipY(450.924) rotate(0 1.4013e-045 1.9569e-039) flipY(519.712) rotate(270 327.167 125.501) rotate(0 1.4013e-045 1.4013e-045) flipX(158.5)"/> 
  <text x="148.561" y="423.841" font-size="15" font-weight="normal">Сдувка</text>
  <line x1="201" y1="365" x2="201.1" y2="365" stroke="black"/> 
  <g>
    <path d="M-678.242 -141.975 A8.80483 8.80483 0 1 1 -678.242 -124.365 " fill="none" stroke="black" stroke-width="3" transform="flipX(560.7) rotate(360 1.4013e-045 4.33918e-039) matrix(-1 3.67394e-016 3.67394e-016 1 130.612 414.62)"/> 
    <line x1="313.476" y1="123.827" x2="313.476" y2="274" stroke="black" stroke-width="3"/> 
    <path d="M-676.766 -307.928 A8.80483 8.80483 0 1 1 -676.766 -290.318 " fill="none" stroke="black" stroke-width="3" transform="flipX(560.7) rotate(360 1.4013e-045 4.33918e-039) matrix(-1 3.67394e-016 3.67394e-016 1 130.612 414.62)"/> 
  </g>
  <image x="1015.51" y="536.818" width="25" height="25" xlink:href="bin_indicator.svg">
    <title>&quot;00KPN80CL004_XG01&quot;</title>
    <rt:dyn type="PointID" mode="constant" value="&quot;00KPN80CL004_XG01&quot;"/> 
  </image>
  <image x="1015" y="506" width="25" height="25" xlink:href="bin_indicator.svg">
    <title>&quot;00KPN80CL003_XG01&quot;</title>
    <rt:dyn type="PointID" mode="constant" value="&quot;00KPN80CL003_XG01&quot;"/> 
  </image>
  <image x="1670.75" y="538.452" width="25" height="25" xlink:href="bin_indicator.svg">
    <title>&quot;00KPN80CL006_XG01&quot;</title>
    <rt:dyn type="PointID" mode="constant" value="&quot;00KPN80CL006_XG01&quot;"/> 
  </image>
  <image x="1670.24" y="507.634" width="25" height="25" xlink:href="bin_indicator.svg">
    <title>&quot;00KPN80CL005_XG01&quot;</title>
    <rt:dyn type="PointID" mode="constant" value="&quot;00KPN80CL005_XG01&quot;"/> 
  </image>
  <g>
    <path d="M-433.539 -307.159 A8.80483 8.80483 0 1 1 -433.539 -289.549 " fill="none" stroke="black" stroke-width="3" transform="flipX(560.7) rotate(360 1.4013e-045 4.33918e-039) matrix(-1 3.67394e-016 3.67394e-016 1 130.612 414.62)"/> 
    <line x1="557" y1="107.854" x2="557" y2="73.7073" stroke="black" stroke-width="3"/> 
  </g>
  <g>
    <path d="M209.132 -308.378 A8.80483 8.80483 0 1 1 209.132 -290.768 " fill="none" stroke="black" stroke-width="3" transform="flipX(560.7) rotate(360 1.4013e-045 4.33918e-039) matrix(-1 3.67394e-016 3.67394e-016 1 130.612 414.62)"/> 
    <line x1="1199.67" y1="106.634" x2="1199.67" y2="72.4878" stroke="black" stroke-width="3"/> 
  </g>
  <g>
    <path d="M-736.54 -140.975 A8.80483 8.80483 0 1 1 -736.54 -123.365 " fill="none" stroke="black" stroke-width="1" transform="flipX(560.7) rotate(360 1.4013e-045 4.33918e-039) matrix(-1 3.67394e-016 3.67394e-016 1 130.612 414.62)"/> 
    <line x1="253.884" y1="273.927" x2="253.884" y2="116" stroke="black"/> 
  </g>
  <text x="361.195" y="164.134" font-size="15" text-anchor="middle">00KPN80<tspan x="361.195" dy="15">AA026</tspan>
  </text>
  <image x="268.622" y="134.134" width="70" height="65" xlink:href="DS_CO_valve.svg" transform="rotate(270 0.000244141 -10.0001)">
    <title>&quot;00KPN80AA026&quot;</title>
    <rt:dyn type="Operate" mode="constant" value="true"/> 
    <rt:dyn type="KKS" mode="constant" value="&quot;00KPN80AA026&quot;"/> 
    <rt:dyn type="DATA_NARY" mode="constant" value="&quot;TPTS&quot;"/> 
  </image>
  <text x="606.317" y="164.134" font-size="15" text-anchor="middle">00KPN80<tspan x="606.317" dy="15">AA027</tspan>
  </text>
  <image x="512.368" y="134.134" width="70" height="65" xlink:href="DS_CO_valve.svg" transform="rotate(270 0.000244141 -10.0001)">
    <title>&quot;00KPN80AA027&quot;</title>
    <rt:dyn type="Operate" mode="constant" value="true"/> 
    <rt:dyn type="KKS" mode="constant" value="&quot;00KPN80AA027&quot;"/> 
    <rt:dyn type="DATA_NARY" mode="constant" value="&quot;TPTS&quot;"/> 
  </image>
  <image x="84.7936" y="81.2439" width="175" height="25" xlink:href="DS_ana.svg">
    <title>&quot;00KPN80CP007&quot;</title>
    <rt:dyn type="FKKS" mode="constant" value="&quot;00KPN80CP007&quot;"/> 
    <rt:dyn type="ShowFrame" mode="constant" value="true"/> 
    <rt:dyn type="Color_Readings" mode="constant" value="true"/> 
    <rt:dyn type="X" mode="constant" value="&quot;P&quot;"/> 
    <rt:dyn type="ValueToTheRight" mode="constant" value="false"/> 
  </image>
  <polygon points="2388.77,-94.6948 2388.77,-75.6937 2405.77,-85.6948" transform="flipX(137.968) flipX(848.955) rotate(90 1.4013e-045 1.9569e-039) flipY(519.712) rotate(270 327.167 125.501) rotate(0 1.4013e-045 1.4013e-045) flipX(158.5)"/> 
  <text x="65.0833" y="142.833" font-size="15" font-weight="normal" text-anchor="middle">Сжатый воздух<tspan x="65.0833" dy="15">(SCB)</tspan>
  </text>
  <text x="178.741" y="362.5" font-size="15" text-anchor="middle">00KPN80<tspan x="178.741" dy="15">AA024</tspan>
  </text>
  <polygon points="2365.71,70.2608 2365.71,89.2619 2382.71,79.2608" transform="flipX(137.968) flipX(848.955) rotate(90 1.4013e-045 1.9569e-039) flipY(519.712) rotate(270 327.167 125.501) rotate(0 1.4013e-045 1.4013e-045) flipX(158.5)"/> 
  <text x="5.80483" y="305.158" font-size="15" font-weight="normal" text-anchor="start">Шлам<tspan x="5.80483" dy="15">с фильтров</tspan>
<tspan x="5.80483" dy="15">мембранных</tspan>
<tspan x="5.80483" dy="15">УОВС</tspan>
  </text>
  <image x="88.3532" y="332.5" width="70" height="65" xlink:href="DS_CO_valve.svg" transform="rotate(270 0.000244141 -10.0001)">
    <title>&quot;00KPN80AA024&quot;</title>
    <rt:dyn type="Operate" mode="constant" value="true"/> 
    <rt:dyn type="KKS" mode="constant" value="&quot;00KPN80AA024&quot;"/> 
    <rt:dyn type="DATA_NARY" mode="constant" value="&quot;TPTS&quot;"/> 
  </image>
  <text x="428.568" y="362.5" font-size="15" text-anchor="middle">00KPN80<tspan x="428.568" dy="15">AA025</tspan>
  </text>
  <image x="62.5853" y="248.317" width="175" height="25" xlink:href="DS_ana.svg">
    <title>&quot;00KPN80CF003&quot;</title>
    <rt:dyn type="FKKS" mode="constant" value="&quot;00KPN80CF003&quot;"/> 
    <rt:dyn type="ShowFrame" mode="constant" value="true"/> 
    <rt:dyn type="Color_Readings" mode="constant" value="true"/> 
    <rt:dyn type="X" mode="constant" value="&quot;F&quot;"/> 
    <rt:dyn type="ValueToTheRight" mode="constant" value="false"/> 
  </image>
  <image x="334.695" y="332.5" width="70" height="65" xlink:href="DS_CO_valve.svg" transform="rotate(270 0.000244141 -10.0001)">
    <title>&quot;00KPN80AA025&quot;</title>
    <rt:dyn type="Operate" mode="constant" value="true"/> 
    <rt:dyn type="KKS" mode="constant" value="&quot;00KPN80AA025&quot;"/> 
    <rt:dyn type="DATA_NARY" mode="constant" value="&quot;TPTS&quot;"/> 
  </image>
  <text x="729.146" y="762.5" font-size="15" text-anchor="middle">00KPN80<tspan x="729.146" dy="15">AA070</tspan>
  </text>
  <image x="636.793" y="733.524" width="70" height="65" xlink:href="DS_CO_valve.svg" transform="rotate(270 0.000244141 -10.0001)">
    <title>&quot;00KPN80AA070&quot;</title>
    <rt:dyn type="Operate" mode="constant" value="true"/> 
    <rt:dyn type="KKS" mode="constant" value="&quot;00KPN80AA070&quot;"/> 
    <rt:dyn type="DATA_NARY" mode="constant" value="&quot;TPTS&quot;"/> 
  </image>
  <polyline points="380,648 345,648 345,943" fill="none" stroke="black"/> 
  <path d="M-646.046 527.879 A8.80483 8.80483 0 1 1 -646.046 545.489 " fill="none" stroke="black" stroke-width="1" transform="flipX(560.7) rotate(360 1.4013e-045 4.33918e-039) matrix(-1 3.67394e-016 3.67394e-016 1 130.612 414.62)"/> 
  <polyline points="345,960 345,981 1390,981 1390,829" fill="none" stroke="black"/> 
  <path d="M398.856 397.05 A8.80483 8.80483 0 1 1 398.856 414.66 " fill="none" stroke="black" stroke-width="1" transform="flipX(560.7) rotate(360 1.4013e-045 4.33918e-039) matrix(-1 3.67394e-016 3.67394e-016 1 130.612 414.62)"/> 
  <polyline points="1390,812 1390,675 1450,675" fill="none" stroke="black"/> 
  <text x="1439.12" y="751.329" font-size="15" text-anchor="middle">00KPN80<tspan x="1439.12" dy="15">AA071</tspan>
  </text>
  <image x="1345.33" y="721.329" width="70" height="65" xlink:href="DS_CO_valve.svg" transform="rotate(270 0.000244141 -10.0001)">
    <title>&quot;00KPN80AA071&quot;</title>
    <rt:dyn type="Operate" mode="constant" value="true"/> 
    <rt:dyn type="KKS" mode="constant" value="&quot;00KPN80AA071&quot;"/> 
    <rt:dyn type="DATA_NARY" mode="constant" value="&quot;TPTS&quot;"/> 
  </image>
  <text x="960" y="40" font-size="28" text-anchor="middle">Блок подготовки ЖРО</text>
  <line x1="499.615" y1="932.646" x2="499.615" y2="932.646" stroke="black"/> 
  <text x="16" y="32" font-size="20" font-weight="bold">JRO0_2</text>
  <text x="800.488" y="618.598" font-size="15">00KPN80AT001</text>
  <text x="1463.9" y="618.598" font-size="15">00KPN80AT002</text>
  <image x="1344.39" y="198.78" width="175" height="25" xlink:href="DS_ana.svg">
    <title>&quot;00KPN80FF002&quot;</title>
    <rt:dyn type="FKKS" mode="constant" value="&quot;00KPN80FF002&quot;"/> 
    <rt:dyn type="ShowFrame" mode="constant" value="true"/> 
    <rt:dyn type="Color_Readings" mode="constant" value="true"/> 
    <rt:dyn type="X" mode="constant" value="&quot;V&quot;"/> 
    <rt:dyn type="ValueToTheRight" mode="constant" value="false"/> 
  </image>
  <image x="679.756" y="200" width="175" height="25" xlink:href="DS_ana.svg">
    <title>&quot;00KPN80FF001&quot;</title>
    <rt:dyn type="FKKS" mode="constant" value="&quot;00KPN80FF001&quot;"/> 
    <rt:dyn type="ShowFrame" mode="constant" value="true"/> 
    <rt:dyn type="Color_Readings" mode="constant" value="true"/> 
    <rt:dyn type="X" mode="constant" value="&quot;V&quot;"/> 
    <rt:dyn type="ValueToTheRight" mode="constant" value="false"/> 
  </image>
  <image x="51.7073" y="214.634" width="175" height="25" xlink:href="DS_ana.svg">
    <title>&quot;00KPN80FF003&quot;</title>
    <rt:dyn type="FKKS" mode="constant" value="&quot;00KPN80FF003&quot;"/> 
    <rt:dyn type="ShowFrame" mode="constant" value="true"/> 
    <rt:dyn type="Color_Readings" mode="constant" value="true"/> 
    <rt:dyn type="X" mode="constant" value="&quot;V&quot;"/> 
    <rt:dyn type="ValueToTheRight" mode="constant" value="false"/> 
  </image>
  <image x="884.634" y="673.171" width="171" height="27" xlink:href="ps_nvo2_multybin_indicator_txt.svg">
    <title>&quot;00KPN80EU001&quot;</title>
    <rt:dyn type="KKS" mode="constant" value="&quot;00KPN80EU001&quot;"/> 
    <rt:dyn type="Suffix1" mode="constant" value="&quot;ZV01&quot;"/> 
    <rt:dyn type="Suffix2" mode="constant" value="&quot;ZV02&quot;"/> 
    <rt:dyn type="Suffix3" mode="constant" value="&quot;ZV03&quot;"/> 
    <rt:dyn type="Suffix4" mode="constant" value="&quot;ZV04&quot;"/> 
    <rt:dyn type="Suffix5" mode="constant" value="&quot;ZV05&quot;"/> 
    <rt:dyn type="Suffix6" mode="constant" value="&quot;ZV06&quot;"/> 
    <rt:dyn type="Suffix7" mode="constant" value="&quot;ZV07&quot;"/> 
    <rt:dyn type="Suffix8" mode="constant" value="&quot;ZV08&quot;"/> 
    <rt:dyn type="T_String1" mode="constant" value="&quot;ЗАПОЛНЕНИЕ&quot;"/> 
    <rt:dyn type="T_String2" mode="constant" value="&quot;СГУЩЕНИЕ&quot;"/> 
    <rt:dyn type="T_String3" mode="constant" value="&quot;РЕГЕНЕРАЦИЯ&quot;"/> 
    <rt:dyn type="T_String4" mode="constant" value="&quot;ОТСТАИВАНИЕ ШЛАМА&quot;"/> 
    <rt:dyn type="T_String5" mode="constant" value="&quot;ГОТОВ К ЦЕМЕНТИР. &quot;"/> 
    <rt:dyn type="T_String6" mode="constant" value="&quot;ДЕЗАКТИВАЦИЯ&quot;"/> 
    <rt:dyn type="T_String7" mode="constant" value="&quot;ОЖИДАНИЕ&quot;"/> 
    <rt:dyn type="T_String8" mode="constant" value="&quot;ДИСТ. РЕЖИМ&quot;"/> 
    <rt:dyn type="T_Size" mode="constant" value="13"/> 
  </image>
  <image x="1543.17" y="671.951" width="171" height="27" xlink:href="ps_nvo2_multybin_indicator_txt.svg">
    <title>&quot;00KPN80EU002&quot;</title>
    <rt:dyn type="KKS" mode="constant" value="&quot;00KPN80EU002&quot;"/> 
    <rt:dyn type="Suffix1" mode="constant" value="&quot;ZV01&quot;"/> 
    <rt:dyn type="Suffix2" mode="constant" value="&quot;ZV02&quot;"/> 
    <rt:dyn type="Suffix3" mode="constant" value="&quot;ZV03&quot;"/> 
    <rt:dyn type="Suffix4" mode="constant" value="&quot;ZV04&quot;"/> 
    <rt:dyn type="Suffix5" mode="constant" value="&quot;ZV05&quot;"/> 
    <rt:dyn type="Suffix6" mode="constant" value="&quot;ZV06&quot;"/> 
    <rt:dyn type="Suffix7" mode="constant" value="&quot;ZV07&quot;"/> 
    <rt:dyn type="Suffix8" mode="constant" value="&quot;ZV08&quot;"/> 
    <rt:dyn type="T_String1" mode="constant" value="&quot;ЗАПОЛНЕНИЕ&quot;"/> 
    <rt:dyn type="T_String2" mode="constant" value="&quot;СГУЩЕНИЕ&quot;"/> 
    <rt:dyn type="T_String3" mode="constant" value="&quot;РЕГЕНЕРАЦИЯ&quot;"/> 
    <rt:dyn type="T_String4" mode="constant" value="&quot;ОТСТАИВАНИЕ ШЛАМА&quot;"/> 
    <rt:dyn type="T_String5" mode="constant" value="&quot;ГОТОВ К ЦЕМЕНТИР. &quot;"/> 
    <rt:dyn type="T_String6" mode="constant" value="&quot;ДЕЗАКТИВАЦИЯ&quot;"/> 
    <rt:dyn type="T_String7" mode="constant" value="&quot;ОЖИДАНИЕ&quot;"/> 
    <rt:dyn type="T_String8" mode="constant" value="&quot;ДИСТ. РЕЖИМ&quot;"/> 
    <rt:dyn type="T_Size" mode="constant" value="13"/> 
  </image>
  <image x="405.366" y="953.659" width="130" height="25" xlink:href="obj_Button.svg">
    <title>&quot;00KPN80EC006&quot;</title>
    <rt:dyn type="Label" mode="constant" value="&quot;00KPN80EC006&quot;"/> 
    <rt:event type="OnClick">LoadNew(&quot;00kpn80ec006_m1-7&quot;)</rt:event>
  </image>
  <image x="148.049" y="957.317" width="130" height="25" xlink:href="obj_Button.svg">
    <title>&quot;00KPN80EC005&quot;</title>
    <rt:dyn type="Label" mode="constant" value="&quot;00KPN80EC005&quot;"/> 
    <rt:event type="OnClick">LoadNew(&quot;00kpn80ec005_m1-7&quot;)</rt:event>
  </image>
  <image x="1767.34" y="743.683" width="130" height="25" xlink:href="obj_Button.svg">
    <title>&quot;00kpn80ec002_m1-5&quot;</title>
    <rt:dyn type="Label" mode="constant" value="&quot;00KPN80EC002&quot;"/> 
    <rt:event type="OnClick">LoadNew(&quot;00kpn80ec002_m1-5&quot;)</rt:event>
  </image>
  <image x="1767.34" y="778.562" width="130" height="25" xlink:href="obj_Button.svg">
    <title>&quot;00kpn80ec004_m1-7&quot;</title>
    <rt:dyn type="Label" mode="constant" value="&quot;00KPN80EC004&quot;"/> 
    <rt:event type="OnClick">LoadNew(&quot;00kpn80ec004_m1-7&quot;)</rt:event>
  </image>
  <image x="1689.51" y="950" width="130" height="25" xlink:href="obj_Button.svg">
    <title>&quot;00kpn00ec001_m1-5&quot;</title>
    <rt:dyn type="Label" mode="constant" value="&quot;00KPN00EC001&quot;"/> 
    <rt:event type="OnClick">LoadNew(&quot;00kpn00ec001_m1-5&quot;)</rt:event>
  </image>
  <image x="773.439" y="769.293" width="130" height="25" xlink:href="obj_Button.svg">
    <title>&quot;00kpn80ec001_m1-5&quot;</title>
    <rt:dyn type="Label" mode="constant" value="&quot;0KPN80EC001&quot;"/> 
    <rt:event type="OnClick">LoadNew(&quot;00kpn80ec001_m1-5&quot;)</rt:event>
  </image>
  <image x="773.439" y="804.172" width="130" height="25" xlink:href="obj_Button.svg">
    <title>&quot;00kpn80ec003_m1-7&quot;</title>
    <rt:dyn type="Label" mode="constant" value="&quot;00KPN80EC003&quot;"/> 
    <rt:event type="OnClick">LoadNew(&quot;00kpn80ec003_m1-7&quot;)</rt:event>
  </image>
  <image x="970" y="214.634" width="160" height="75" xlink:href="DS_TPTS_VL_spec.svg">
    <title>&quot;00KPN80CH002&quot;</title>
    <rt:dyn type="KKS" mode="constant" value="&quot;00KPN80CH002VL0&quot;"/> 
    <rt:dyn type="Operate" mode="constant" value="true"/> 
    <rt:dyn type="VL_type" mode="constant" value="&quot;1o2&quot;"/> 
  </image>
  <text x="1253.54" y="162.5" font-size="15" text-anchor="middle">00KPN80<tspan x="1253.54" dy="15">AA003</tspan>
  </text>
  <image x="1156.52" y="132.768" width="70" height="65" xlink:href="DS_CO_valve.svg" transform="rotate(270 0.000244141 -10.0001)">
    <title>&quot;00KPN80AA003&quot;</title>
    <rt:dyn type="Operate" mode="constant" value="true"/> 
    <rt:dyn type="KKS" mode="constant" value="&quot;00KPN80AA003&quot;"/> 
    <rt:dyn type="DATA_NARY" mode="constant" value="&quot;TPTS&quot;"/> 
  </image>
  <image x="1159.02" y="730.488" width="160" height="75" xlink:href="DS_TPTS_VL_spec.svg">
    <title>&quot;00KPN80CH001&quot;</title>
    <rt:dyn type="KKS" mode="constant" value="&quot;00KPN80CH001VL0&quot;"/> 
    <rt:dyn type="Operate" mode="constant" value="true"/> 
    <rt:dyn type="VL_type" mode="constant" value="&quot;1o2&quot;"/> 
  </image>
</svg>
