<?xml  version="1.0" encoding="windows-1251"?>
<svg color="Col_BGSand" xmlns="http://www.w3.org/2000/svg" xmlns:rt="http://www.rts.co.at/2001/XMLSchema/RtSvgPL" xmlns:xlink="http://www.w3.org/1999/xlink" xmlns:xsi="http://www.w3.org/2001/XMLSchema-instance" xsi:schemaLocation="http://www.w3.org/2000/svg C:\RTS\RtSvg\XML\SVG.xsd" viewBox="0 0 1940 1000" width="1940" height="1000" id="jro0_4_1" text-anchor="middle">
  <title>Промывка смесителя и дезактивация оборудования</title>
  <rt:model modelversion="7.2.0.24" comment="Создано VNIIAES-ASUTP\seregin 07.08.2013 18:14:20" revision="1.0"/> 
  <polyline points="335,704 296,704 296,976 1200,976 1200,700 1246,700" fill="none" stroke="black"/> 
  <polyline points="104,696 16,696 16,959 517,959 517,711 646,711" fill="none" stroke="black"/> 
  <line x1="1523.66" y1="835" x2="1548.05" y2="835" stroke="black"/> 
  <polyline points="649,840 618,840 618,813" fill="none" stroke="black"/> 
  <line x1="1105.39" y1="-146.346" x2="854.232" y2="-146.346" stroke="black" stroke-width="1" transform="rotate(270 1309.23 224.091)"/> 
  <polyline points="837.719,280.61 748.719,280.61 748.719,330.61" fill="none" stroke="black" stroke-width="3"/> 
  <polyline points="669.515,366.866 669.515,281.866 532.515,281.866 532.515,375.866" fill="none" stroke="black" stroke-width="3"/> 
  <polygon points="-1242.71,321.967 -1242.71,340.967 -1225.71,330.967" transform="flipY(927.772) flipY(123.652) flipY(450.924) rotate(0 1.4013e-045 1.9569e-039) flipY(519.712) rotate(270 327.167 125.501) rotate(0 1.4013e-045 1.4013e-045) flipX(158.5)"/> 
  <polyline points="1418,284 1329,284 1329,334" fill="none" stroke="black" stroke-width="3"/> 
  <line x1="720" y1="99" x2="720" y2="330.146" stroke="black"/> 
  <polyline points="247,725 247,56 490,56" fill="none" stroke="black" stroke-width="3"/> 
  <line x1="173" y1="668.539" x2="173" y2="405.975" stroke="black" stroke-width="1"/> 
  <line x1="375" y1="99" x2="375" y2="699.878" stroke="black"/> 
  <line x1="413" y1="674.637" x2="413" y2="412.073" stroke="black" stroke-width="1"/> 
  <polyline points="782,829 649,829 649,939 1733,939 1733,111 1750,111" fill="none" stroke="black" stroke-width="3"/> 
  <polyline points="1388,826 1523,826 1523,907" fill="none" stroke="black" stroke-width="3"/> 
  <line x1="1389" y1="819.659" x2="1389" y2="913.561" stroke="black" stroke-width="3"/> 
  <polyline points="780.976,798.195 782,914 1716,914 1716,56 1750,56" fill="none" stroke="black" stroke-width="3"/> 
  <polyline points="489,705 489,56 1637,56 1637,794 1474,794" fill="none" stroke="black" stroke-width="3"/> 
  <polyline points="1026,56 1026,796 850,796" fill="none" stroke="black" stroke-width="3"/> 
  <polyline points="1295.4,487.951 1295.4,642.951 1379.07,642.829" fill="none" stroke="black" stroke-width="3"/> 
  <rect x="1380.14" y="630.833" width="20.8844" height="60.7768" rx="0" ry="0" fill="Col_Grey3" stroke="black"/> 
  <polyline points="723,486 723,641 773,641" fill="none" stroke="black" stroke-width="3"/> 
  <rect x="773.576" y="630.364" width="21.9362" height="58.8068" rx="0" ry="0" fill="Col_Grey3" stroke="black"/> 
  <polyline points="301.341,579.781 347,580 347,712" fill="none" stroke="black" stroke-width="3"/> 
  <polyline points="1240,370 1240,285 1103,285 1103,379" fill="none" stroke="black" stroke-width="3"/> 
  <path d="M324.148 876.405 L324.148 713.085 Q409.24 634.976 493.977 713.085 L493.977 882.914 Q402.139 943.863 324.148 876.405 " fill="Col_Grey3" stroke="black" stroke-width="1" transform="scale(1.03045 1.03045 230.477 847.233)"/> 
  <g transform="scale(0.878787 0.878787 899.637 861.905)">
    <path d="M1269.05 741.103 L1269.93 653.236 L1644.93 653.236 L1644.91 744.552 Q1441.46 885.931 1269.05 741.103 Z" fill="Col_Grey3" stroke="black" stroke-width="1"/> 
  </g>
  <g transform="scale(0.878787 0.878787 899.637 861.905)">
    <path d="M587.223 741.426 L588.1 653.559 L963.105 653.559 L963.086 744.875 Q767.384 858.793 587.223 741.426 Z" fill="Col_Grey3" stroke="black" stroke-width="1"/> 
  </g>
  <text x="967" y="40" font-size="28" text-anchor="middle">Промывка смесителя и дезактивация оборудования</text>
  <line x1="463.03" y1="896.061" x2="463.03" y2="896.061" stroke="black"/> 
  <line x1="1390.77" y1="733.849" x2="1390.77" y2="606.94" stroke="black" stroke-width="1"/> 
  <polygon points="1495.03,201.017 1495.03,220.017 1512.03,210.017" transform="flipY(678.356) flipY(114.561) flipY(394.864) flipY(450.924) rotate(0 1.4013e-045 1.9569e-039) flipY(519.712) rotate(270 327.167 125.501) rotate(0 1.4013e-045 1.4013e-045) flipX(158.5)"/> 
  <polygon points="2613.92,369.578 2613.92,388.579 2630.92,378.578" transform="flipX(137.968) flipX(848.955) rotate(90 1.4013e-045 1.9569e-039) flipY(519.712) rotate(270 327.167 125.501) rotate(0 1.4013e-045 1.4013e-045) flipX(158.5)"/> 
  <polygon points="416.496,728.49 416.496,747.49 433.496,737.49" transform="flipY(143.405) flipY(114.561) flipY(394.864) flipY(450.924) rotate(0 1.4013e-045 1.9569e-039) flipY(519.712) rotate(270 327.167 125.501) rotate(0 1.4013e-045 1.4013e-045) flipX(158.5)"/> 
  <rect x="670.348" y="733.242" width="224.242" height="9.0907" rx="0" ry="0" fill="none" stroke="black" stroke-width="1"/> 
  <line x1="783.363" y1="732.879" x2="783.363" y2="605.97" stroke="black" stroke-width="1"/> 
  <polygon points="-1241.58,893.452 -1241.58,912.452 -1224.58,902.452" transform="flipY(927.772) flipY(123.652) flipY(450.924) rotate(0 1.4013e-045 1.9569e-039) flipY(519.712) rotate(270 327.167 125.501) rotate(0 1.4013e-045 1.4013e-045) flipX(158.5)"/> 
  <polygon points="1171.19,72.963 1171.19,91.963 1188.19,81.963" transform="flipX(848.955) rotate(90 1.4013e-045 1.9569e-039) flipY(519.712) rotate(270 327.167 125.501) rotate(0 1.4013e-045 1.4013e-045) flipX(158.5)"/> 
  <rect x="1271.54" y="732.958" width="224.242" height="9.0907" rx="0" ry="0" fill="none" stroke="black" stroke-width="1"/> 
  <line x1="1106.61" y1="457" x2="855.448" y2="457" stroke="black" stroke-width="1" transform="rotate(270 1309.23 224.091)"/> 
  <polygon points="417.436,1331.91 417.436,1350.91 434.436,1340.91" transform="flipY(143.405) flipY(114.561) flipY(394.864) flipY(450.924) rotate(0 1.4013e-045 1.9569e-039) flipY(519.712) rotate(270 327.167 125.501) rotate(0 1.4013e-045 1.4013e-045) flipX(158.5)"/> 
  <g transform="scale(0.859982 0.859982 631.365 492.076)">
    <path d="M674.722 456.961 L674.722 356.96 Q679.272 289.536 733.812 288.021 T800.482 350.142 L799.722 481.963 Q796.722 545.009 736.902 551.512 Q674.722 541.808 674.722 481.963 Z" fill="Col_Grey3" stroke="black" stroke-width="1"/> 
  </g>
  <text x="940.195" y="410.232" font-size="15" font-weight="normal" text-anchor="middle">Сдувка</text>
  <text x="1465.12" y="266.256" font-size="15" font-weight="normal" text-anchor="middle">Дезактивация<tspan x="1465.12" dy="15">(FKT)</tspan>
  </text>
  <text x="16" y="32" font-size="20" font-weight="bold" text-anchor="start">JRO0_4_1</text>
  <polygon points="4067.79,-153.212 4067.79,-134.211 4084.79,-144.212" transform="flipX(137.968) flipX(848.955) rotate(90 1.4013e-045 1.9569e-039) flipY(519.712) rotate(270 327.167 125.501) rotate(0 1.4013e-045 1.4013e-045) flipX(158.5)"/> 
  <polygon points="4067.79,-98.788 4067.79,-79.7868 4084.79,-89.7876" transform="flipX(137.968) flipX(848.955) rotate(90 1.4013e-045 1.9569e-039) flipY(519.712) rotate(270 327.167 125.501) rotate(0 1.4013e-045 1.4013e-045) flipX(158.5)"/> 
  <text x="1787.07" y="33.5" font-size="15" font-weight="normal">В JRO0_4_2</text>
  <text x="1787.68" y="92.0122" font-size="15" font-weight="normal">В JRO0_4_2</text>
  <image x="1771" y="43.7073" width="100" height="25" xlink:href="obj_Button.svg">
    <title>&quot;jro0_4_2</title>
    <rt:dyn type="Label" mode="constant" value="&quot;JRO0_4_2&quot;"/> 
    <rt:event type="OnClick">LoadNew(&quot;jro0_4_2&quot;)</rt:event>
  </image>
  <image x="1771" y="98.8049" width="100" height="25" xlink:href="obj_Button.svg">
    <title>jro0_4_2</title>
    <rt:dyn type="Label" mode="constant" value="&quot;JRO0_4_2&quot;"/> 
    <rt:event type="OnClick">LoadNew(&quot;jro0_4_2&quot;)</rt:event>
  </image>
  <polyline points="837.073,598.659 797.168,641 838.293,627.927" fill="none" stroke="black"/> 
  <polyline points="1445.61,597.439 1402.99,637.485 1444.39,629.146" fill="none" stroke="black"/> 
  <path d="M528.052 -960.345 A7.75 7.25 0 0 0 512.552 -960.345 " fill="none" stroke="black" stroke-width="3" transform="rotate(90 82.7501 478.161)"/> 
  <line x1="1522" y1="922" x2="1522" y2="938.667" stroke="black" stroke-width="3"/> 
  <image x="700.391" y="751.366" width="171" height="27" xlink:href="ps_nvo2_multybin_indicator_txt.svg">
    <title>&quot;00KPN80EU001&quot;</title>
    <rt:dyn type="KKS" mode="constant" value="&quot;00KPN80EU001&quot;"/> 
    <rt:dyn type="Suffix1" mode="constant" value="&quot;ZV01&quot;"/> 
    <rt:dyn type="Suffix2" mode="constant" value="&quot;ZV02&quot;"/> 
    <rt:dyn type="Suffix3" mode="constant" value="&quot;ZV03&quot;"/> 
    <rt:dyn type="Suffix4" mode="constant" value="&quot;ZV04&quot;"/> 
    <rt:dyn type="Suffix5" mode="constant" value="&quot;ZV05&quot;"/> 
    <rt:dyn type="Suffix6" mode="constant" value="&quot;ZV06&quot;"/> 
    <rt:dyn type="Suffix7" mode="constant" value="&quot;ZV07&quot;"/> 
    <rt:dyn type="Suffix8" mode="constant" value="&quot;ZV08&quot;"/> 
    <rt:dyn type="T_String1" mode="constant" value="&quot;ЗАПОЛНЕНИЕ&quot;"/> 
    <rt:dyn type="T_String2" mode="constant" value="&quot;СГУЩЕНИЕ&quot;"/> 
    <rt:dyn type="T_String3" mode="constant" value="&quot;РЕГЕНЕРАЦИЯ&quot;"/> 
    <rt:dyn type="T_String4" mode="constant" value="&quot;ОТСТАИВАНИЕ ШЛАМА&quot;"/> 
    <rt:dyn type="T_String5" mode="constant" value="&quot;ГОТОВ К ЦЕМЕНТИР. &quot;"/> 
    <rt:dyn type="T_String6" mode="constant" value="&quot;ДЕЗАКТИВАЦИЯ&quot;"/> 
    <rt:dyn type="T_String7" mode="constant" value="&quot;ОЖИДАНИЕ&quot;"/> 
    <rt:dyn type="T_String8" mode="constant" value="&quot;ДИСТ. РЕЖИМ&quot;"/> 
    <rt:dyn type="T_Size" mode="constant" value="13"/> 
  </image>
  <image x="1308.93" y="751.366" width="171" height="27" xlink:href="ps_nvo2_multybin_indicator_txt.svg">
    <title>&quot;00KPN80EU002&quot;</title>
    <rt:dyn type="KKS" mode="constant" value="&quot;00KPN80EU002&quot;"/> 
    <rt:dyn type="Suffix1" mode="constant" value="&quot;ZV01&quot;"/> 
    <rt:dyn type="Suffix2" mode="constant" value="&quot;ZV02&quot;"/> 
    <rt:dyn type="Suffix3" mode="constant" value="&quot;ZV03&quot;"/> 
    <rt:dyn type="Suffix4" mode="constant" value="&quot;ZV04&quot;"/> 
    <rt:dyn type="Suffix5" mode="constant" value="&quot;ZV05&quot;"/> 
    <rt:dyn type="Suffix6" mode="constant" value="&quot;ZV06&quot;"/> 
    <rt:dyn type="Suffix7" mode="constant" value="&quot;ZV07&quot;"/> 
    <rt:dyn type="Suffix8" mode="constant" value="&quot;ZV08&quot;"/> 
    <rt:dyn type="T_String1" mode="constant" value="&quot;ЗАПОЛНЕНИЕ&quot;"/> 
    <rt:dyn type="T_String2" mode="constant" value="&quot;СГУЩЕНИЕ&quot;"/> 
    <rt:dyn type="T_String3" mode="constant" value="&quot;РЕГЕНЕРАЦИЯ&quot;"/> 
    <rt:dyn type="T_String4" mode="constant" value="&quot;ОТСТАИВАНИЕ ШЛАМА&quot;"/> 
    <rt:dyn type="T_String5" mode="constant" value="&quot;ГОТОВ К ЦЕМЕНТИР. &quot;"/> 
    <rt:dyn type="T_String6" mode="constant" value="&quot;ДЕЗАКТИВАЦИЯ&quot;"/> 
    <rt:dyn type="T_String7" mode="constant" value="&quot;ОЖИДАНИЕ&quot;"/> 
    <rt:dyn type="T_String8" mode="constant" value="&quot;ДИСТ. РЕЖИМ&quot;"/> 
    <rt:dyn type="T_Size" mode="constant" value="13"/> 
  </image>
  <image x="813.902" y="824.268" width="130" height="25" xlink:href="obj_Button.svg">
    <title>&quot;00kpn80ec003_m1-7&quot;</title>
    <rt:dyn type="Label" mode="constant" value="&quot;00KPN80EC003&quot;"/> 
    <rt:event type="OnClick">LoadNew(&quot;00kpn80ec003_m1-7&quot;)</rt:event>
  </image>
  <image x="1208.9" y="820" width="130" height="25" xlink:href="obj_Button.svg">
    <title>&quot;00kpn80ec004_m1-7&quot;</title>
    <rt:dyn type="Label" mode="constant" value="&quot;00KPN80EC004&quot;"/> 
    <rt:event type="OnClick">LoadNew(&quot;00kpn80ec004_m1-7&quot;)</rt:event>
  </image>
  <image x="327.902" y="854.721" width="175" height="25" xlink:href="DS_ana.svg">
    <title>&quot;00KPN80CL009&quot;</title>
    <rt:dyn type="FKKS" mode="constant" value="&quot;00KPN80CL009&quot;"/> 
    <rt:dyn type="ShowFrame" mode="constant" value="true"/> 
    <rt:dyn type="Color_Readings" mode="constant" value="true"/> 
    <rt:dyn type="X" mode="constant" value="&quot;L&quot;"/> 
    <rt:dyn type="ValueToTheRight" mode="constant" value="false"/> 
  </image>
  <image x="467.622" y="741.995" width="30" height="105" xlink:href="DS_ana_bar.svg">
    <title>&quot;00KPN80CL009&quot;</title>
    <rt:dyn type="FKKS" mode="constant" value="&quot;00KPN80CL009&quot;"/> 
  </image>
  <image x="469.902" y="713.357" width="25" height="25" xlink:href="bin_indicator.svg">
    <title>&quot;00KPN80CL010_XG01&quot;</title>
    <rt:dyn type="PointID" mode="constant" value="&quot;00KPN80CL010_XG01&quot;"/> 
  </image>
  <text x="410.732" y="705.646" font-size="15">00KPN80BB003</text>
  <text x="584.293" y="328.305" font-size="15">00KPN80<tspan x="584.293" dy="15">AA002</tspan>
  </text>
  <image x="488.182" y="296.134" width="70" height="65" xlink:href="DS_CO_valve.svg" transform="rotate(270 0.000244141 -10.0001)">
    <title>&quot;00KPN80AA002&quot;</title>
    <rt:dyn type="Operate" mode="constant" value="true"/> 
    <rt:dyn type="KKS" mode="constant" value="&quot;00KPN80AA002&quot;"/> 
    <rt:dyn type="DATA_NARY" mode="constant" value="&quot;TPTS&quot;"/> 
  </image>
  <polyline points="69.6341,577.341 110.675,577.529 110.675,709.529" fill="none" stroke="black" stroke-width="3"/> 
  <path d="M84.1306 874.007 L84.1306 710.687 Q169.223 632.578 253.96 710.687 L253.96 880.516 Q162.122 941.465 84.1306 874.007 " fill="Col_Grey3" stroke="black" stroke-width="1" transform="scale(1.03045 1.03045 230.477 847.233)"/> 
  <polygon points="2388.05,367.139 2388.05,386.14 2405.05,376.139" transform="flipX(137.968) flipX(848.955) rotate(90 1.4013e-045 1.9569e-039) flipY(519.712) rotate(270 327.167 125.501) rotate(0 1.4013e-045 1.4013e-045) flipX(158.5)"/> 
  <image x="368.256" y="465.134" width="70" height="65" xlink:href="DS_CO_valve.svg" transform="rotate(270 0.000244141 -10.0001)">
    <title>&quot;00KPN80AA023&quot;</title>
    <rt:dyn type="Operate" mode="constant" value="true"/> 
    <rt:dyn type="KKS" mode="constant" value="&quot;00KPN80AA023&quot;"/> 
    <rt:dyn type="DATA_NARY" mode="constant" value="&quot;TPTS&quot;"/> 
  </image>
  <text x="452.073" y="539.988" font-size="15">00KPN80<tspan x="452.073" dy="15">AA023</tspan>
  </text>
  <polygon points="1501.13,-38.9833 1501.13,-19.9833 1518.13,-29.9833" transform="flipY(678.356) flipY(114.561) flipY(394.864) flipY(450.924) rotate(0 1.4013e-045 1.9569e-039) flipY(519.712) rotate(270 327.167 125.501) rotate(0 1.4013e-045 1.4013e-045) flipX(158.5)"/> 
  <text x="414.268" y="400.183" font-size="15" font-weight="normal" text-anchor="middle">Сдувка</text>
  <text x="173.659" y="395.305" font-size="15" font-weight="normal" text-anchor="middle">Сдувка</text>
  <image x="79.317" y="849.322" width="175" height="25" xlink:href="DS_ana.svg">
    <title>&quot;00KPN80CL007&quot;</title>
    <rt:dyn type="FKKS" mode="constant" value="&quot;00KPN80CL007&quot;"/> 
    <rt:dyn type="ShowFrame" mode="constant" value="true"/> 
    <rt:dyn type="Color_Readings" mode="constant" value="true"/> 
    <rt:dyn type="X" mode="constant" value="&quot;L&quot;"/> 
    <rt:dyn type="ValueToTheRight" mode="constant" value="false"/> 
  </image>
  <image x="223.767" y="740.444" width="30" height="105" xlink:href="DS_ana_bar.svg">
    <title>&quot;00KPN80CL007&quot;</title>
    <rt:dyn type="FKKS" mode="constant" value="&quot;00KPN80CL007&quot;"/> 
  </image>
  <image x="226.797" y="713.171" width="25" height="25" xlink:href="bin_indicator.svg">
    <title>&quot;00KPN80CL008_XG01&quot;</title>
    <rt:dyn type="PointID" mode="constant" value="&quot;00KPN80CL008_XG01&quot;"/> 
  </image>
  <text x="164.61" y="700.646" font-size="15">00KPN80BB002</text>
  <text x="72.5609" y="649.598" font-size="15">00KPN80<tspan x="72.5609" dy="15">AA037</tspan>
  </text>
  <text x="309.634" y="651.402" font-size="15">00KPN80<tspan x="309.634" dy="15">AA038</tspan>
  </text>
  <image x="302.182" y="578.134" width="70" height="65" xlink:href="DS_CO_valve.svg" transform="rotate(270 0.000244141 -10.0001)">
    <title>&quot;00KPN80AA038&quot;</title>
    <rt:dyn type="Operate" mode="constant" value="true"/> 
    <rt:dyn type="KKS" mode="constant" value="&quot;00KPN80AA038&quot;"/> 
    <rt:dyn type="DATA_NARY" mode="constant" value="&quot;TPTS&quot;"/> 
  </image>
  <image x="65.5728" y="576.318" width="70" height="65" xlink:href="DS_CO_valve.svg" transform="rotate(270 0.000244141 -10.0001)">
    <title>&quot;00KPN80AA037&quot;</title>
    <rt:dyn type="Operate" mode="constant" value="true"/> 
    <rt:dyn type="KKS" mode="constant" value="&quot;00KPN80AA037&quot;"/> 
    <rt:dyn type="DATA_NARY" mode="constant" value="&quot;TPTS&quot;"/> 
  </image>
  <text x="181.585" y="268.335" font-size="15">00KPN80<tspan x="181.585" dy="15">AA042</tspan>
  </text>
  <image x="330.625" y="238.335" width="70" height="65" xlink:href="DS_CO_valve.svg" transform="rotate(270 0.000244141 -10.0001)">
    <title>&quot;00KPN80AA043&quot;</title>
    <rt:dyn type="Operate" mode="constant" value="true"/> 
    <rt:dyn type="KKS" mode="constant" value="&quot;00KPN80AA043&quot;"/> 
    <rt:dyn type="DATA_NARY" mode="constant" value="&quot;TPTS&quot;"/> 
  </image>
  <text x="426.976" y="268.335" font-size="15">00KPN80<tspan x="426.976" dy="15">AA043</tspan>
  </text>
  <text x="209.634" y="540.427" font-size="15">00KPN80<tspan x="209.634" dy="15">AA022</tspan>
  </text>
  <text x="312.683" y="552.622" font-size="15" font-weight="normal">Дезактивация<tspan x="312.683" dy="15">(FKT)</tspan>
  </text>
  <image x="128.256" y="465.574" width="70" height="65" xlink:href="DS_CO_valve.svg" transform="rotate(270 0.000244141 -10.0001)">
    <title>&quot;00KPN80AA022&quot;</title>
    <rt:dyn type="Operate" mode="constant" value="true"/> 
    <rt:dyn type="KKS" mode="constant" value="&quot;00KPN80AA022&quot;"/> 
    <rt:dyn type="DATA_NARY" mode="constant" value="&quot;TPTS&quot;"/> 
  </image>
  <text x="67.5609" y="549.719" font-size="15" font-weight="normal">Дезактивация<tspan x="67.5609" dy="15">(FKT)</tspan>
  </text>
  <line x1="488.481" y1="158.093" x2="488.481" y2="136.956" stroke="black" stroke-width="3"/> 
  <image x="675.158" y="115.024" width="70" height="65" xlink:href="DS_CO_valve.svg" transform="rotate(270 0.000244141 -10.0001)">
    <title>&quot;00KPN80AA041&quot;</title>
    <rt:dyn type="Operate" mode="constant" value="true"/> 
    <rt:dyn type="KKS" mode="constant" value="&quot;00KPN80AA041&quot;"/> 
    <rt:dyn type="DATA_NARY" mode="constant" value="&quot;TPTS&quot;"/> 
  </image>
  <text x="1340.09" y="145.024" font-size="15">00KPN80<tspan x="1340.09" dy="15">AA040</tspan>
  </text>
  <text x="1677.93" y="145.024" font-size="15">00KPN80<tspan x="1677.93" dy="15">AA008</tspan>
  </text>
  <image x="1591.45" y="115.024" width="70" height="65" xlink:href="DS_CO_valve.svg" transform="rotate(270 0.000244141 -10.0001)">
    <title>&quot;00KPN80AA008&quot;</title>
    <rt:dyn type="Operate" mode="constant" value="true"/> 
    <rt:dyn type="KKS" mode="constant" value="&quot;00KPN80AA008&quot;"/> 
    <rt:dyn type="DATA_NARY" mode="constant" value="&quot;TPTS&quot;"/> 
  </image>
  <polygon points="1754.47,69.573 1754.47,88.573 1771.47,78.573" transform="flipX(848.955) rotate(90 1.4013e-045 1.9569e-039) flipY(519.712) rotate(270 327.167 125.501) rotate(0 1.4013e-045 1.4013e-045) flipX(158.5)"/> 
  <text x="1372.52" y="311.369" font-size="15">00KPN80<tspan x="1372.52" dy="15">AA036</tspan>
  </text>
  <image x="1336.85" y="241.122" width="70" height="65" xlink:href="DS_CO_valve.svg" transform="rotate(360 0.000244141 -10.0001)">
    <title>&quot;00KPN80AA036&quot;</title>
    <rt:dyn type="Operate" mode="constant" value="true"/> 
    <rt:dyn type="KKS" mode="constant" value="&quot;00KPN80AA036&quot;"/> 
    <rt:dyn type="DATA_NARY" mode="constant" value="&quot;TPTS&quot;"/> 
  </image>
  <text x="1104.15" y="403.841" font-size="15" font-weight="normal">На УОВС</text>
  <text x="1153.95" y="320.32" font-size="15">00KPN80<tspan x="1153.95" dy="15">AA017</tspan>
  </text>
  <image x="1057.52" y="291.183" width="70" height="65" xlink:href="DS_CO_valve.svg" transform="rotate(270 0.000244141 -10.0001)">
    <title>&quot;00KPN80AA017&quot;</title>
    <rt:dyn type="Operate" mode="constant" value="true"/> 
    <rt:dyn type="KKS" mode="constant" value="&quot;00KPN80AA017&quot;"/> 
    <rt:dyn type="DATA_NARY" mode="constant" value="&quot;TPTS&quot;"/> 
  </image>
  <image x="1087.07" y="253.317" width="175" height="25" xlink:href="DS_ana.svg">
    <title>&quot;00KPN80CF002&quot;</title>
    <rt:dyn type="FKKS" mode="constant" value="&quot;00KPN80CF002&quot;"/> 
    <rt:dyn type="ShowFrame" mode="constant" value="true"/> 
    <rt:dyn type="Color_Readings" mode="constant" value="true"/> 
    <rt:dyn type="X" mode="constant" value="&quot;F&quot;"/> 
    <rt:dyn type="ValueToTheRight" mode="constant" value="false"/> 
  </image>
  <image x="516.342" y="253.317" width="175" height="25" xlink:href="DS_ana.svg">
    <title>&quot;00KPN80CF001&quot;</title>
    <rt:dyn type="FKKS" mode="constant" value="&quot;00KPN80CF001&quot;"/> 
    <rt:dyn type="ShowFrame" mode="constant" value="true"/> 
    <rt:dyn type="Color_Readings" mode="constant" value="true"/> 
    <rt:dyn type="X" mode="constant" value="&quot;F&quot;"/> 
    <rt:dyn type="ValueToTheRight" mode="constant" value="false"/> 
  </image>
  <text x="791.464" y="308.305" font-size="15">00KPN80<tspan x="791.464" dy="15">AA035</tspan>
  </text>
  <image x="756.464" y="237.683" width="70" height="65" xlink:href="DS_CO_valve.svg" transform="rotate(360 0.000244141 -10.0001)">
    <title>&quot;00KPN80AA035&quot;</title>
    <rt:dyn type="Operate" mode="constant" value="true"/> 
    <rt:dyn type="KKS" mode="constant" value="&quot;00KPN80AA035&quot;"/> 
    <rt:dyn type="DATA_NARY" mode="constant" value="&quot;TPTS&quot;"/> 
  </image>
  <text x="884.634" y="266.036" font-size="15" font-weight="normal" text-anchor="middle">Дезактивация<tspan x="884.634" dy="15">(FKT)</tspan>
  </text>
  <image x="740.029" y="457.403" width="25" height="25" xlink:href="bin_indicator.svg">
    <title>&quot;00KPN80CL012_XG51&quot;</title>
    <rt:dyn type="PointID" mode="constant" value="&quot;00KPN80CL012_XG51&quot;"/> 
  </image>
  <image x="709.728" y="457.403" width="25" height="25" xlink:href="bin_indicator.svg">
    <title>&quot;00KPN80CL011_XG51&quot;</title>
    <rt:dyn type="PointID" mode="constant" value="&quot;00KPN80CL011_XG51&quot;"/> 
  </image>
  <text x="716.951" y="389.207" font-size="15">00KPN80<tspan x="716.951" dy="15">BB004</tspan>
  </text>
  <image x="893.329" y="485.085" width="70" height="65" xlink:href="DS_CO_valve.svg" transform="rotate(270 0.000244141 -10.0001)">
    <title>&quot;00KPN80AA033&quot;</title>
    <rt:dyn type="Operate" mode="constant" value="true"/> 
    <rt:dyn type="KKS" mode="constant" value="&quot;00KPN80AA033&quot;"/> 
    <rt:dyn type="DATA_NARY" mode="constant" value="&quot;TPTS&quot;"/> 
  </image>
  <image x="1496.55" y="487.524" width="70" height="65" xlink:href="DS_CO_valve.svg" transform="rotate(270 0.000244141 -10.0001)">
    <title>&quot;00KPN80AA034&quot;</title>
    <rt:dyn type="Operate" mode="constant" value="true"/> 
    <rt:dyn type="KKS" mode="constant" value="&quot;00KPN80AA034&quot;"/> 
    <rt:dyn type="DATA_NARY" mode="constant" value="&quot;TPTS&quot;"/> 
  </image>
  <text x="986.902" y="514.817" font-size="15">00KPN80<tspan x="986.902" dy="15">AA033</tspan>
  </text>
  <text x="1590.12" y="519.695" font-size="15">00KPN80<tspan x="1590.12" dy="15">AA034</tspan>
  </text>
  <image x="749.268" y="562.073" width="70" height="70" xlink:href="DS_motor.svg" transform="rotate(180 0 0) flipX(0.000512646) rotate(180 0.000244141 -0.000244141)">
    <title>&quot;00KPN80AT001&quot;</title>
    <rt:dyn type="KKS" mode="constant" value="&quot;00KPN80AT001&quot;"/> 
    <rt:dyn type="DATA_NARY" mode="constant" value="&quot;TPTS&quot;"/> 
    <rt:dyn type="Operate" mode="constant" value="true"/> 
    <rt:dyn type="DeviceType" mode="constant" value="&quot;motor&quot;"/> 
  </image>
  <text x="837.561" y="565.939" font-size="15">00KPN80<tspan x="837.561" dy="15">AT001</tspan>
  </text>
  <text x="898.244" y="607.36" font-size="15">Протечка</text>
  <text x="898.244" y="636.663" font-size="15">Протечка</text>
  <image x="831.517" y="590.61" width="25" height="25" xlink:href="bin_indicator.svg">
    <title>&quot;00KPN80CL003_XG01&quot;</title>
    <rt:dyn type="PointID" mode="constant" value="&quot;00KPN80CL003_XG01&quot;"/> 
  </image>
  <image x="831.517" y="619.913" width="25" height="25" xlink:href="bin_indicator.svg">
    <title>&quot;00KPN80CL004_XG01&quot;</title>
    <rt:dyn type="PointID" mode="constant" value="&quot;00KPN80CL004_XG01&quot;"/> 
  </image>
  <image x="1352.93" y="563.293" width="70" height="70" xlink:href="DS_motor.svg" transform="rotate(180 0.000145131 7.36639e-005) flipX(0.000512646) rotate(180 0.000244141 -0.000244141)">
    <title>&quot;00KPN80AT002&quot;</title>
    <rt:dyn type="KKS" mode="constant" value="&quot;00KPN80AT002&quot;"/> 
    <rt:dyn type="DATA_NARY" mode="constant" value="&quot;TPTS&quot;"/> 
    <rt:dyn type="Operate" mode="constant" value="true"/> 
    <rt:dyn type="DeviceType" mode="constant" value="&quot;motor&quot;"/> 
  </image>
  <text x="1443.78" y="567.256" font-size="15">00KPN80<tspan x="1443.78" dy="15">AT002</tspan>
  </text>
  <text x="1498.19" y="604.384" font-size="15">Протечка</text>
  <text x="1498.19" y="633.687" font-size="15">Протечка</text>
  <image x="1429.07" y="587.464" width="25" height="25" xlink:href="bin_indicator.svg">
    <title>&quot;00KPN80CL005_XG01&quot;</title>
    <rt:dyn type="PointID" mode="constant" value="&quot;00KPN80CL005_XG01&quot;"/> 
  </image>
  <image x="1429.07" y="616.766" width="25" height="25" xlink:href="bin_indicator.svg">
    <title>&quot;00KPN80CL006_XG01&quot;</title>
    <rt:dyn type="PointID" mode="constant" value="&quot;00KPN80CL006_XG01&quot;"/> 
  </image>
  <text x="1540.73" y="411.159" font-size="15" font-weight="normal" text-anchor="middle">Сдувка</text>
  <image x="1102.93" y="546.219" width="175" height="25" xlink:href="DS_ana.svg">
    <title>&quot;00KPN80CP009&quot;</title>
    <rt:dyn type="FKKS" mode="constant" value="&quot;00KPN80CP009&quot;"/> 
    <rt:dyn type="ShowFrame" mode="constant" value="true"/> 
    <rt:dyn type="Color_Readings" mode="constant" value="true"/> 
    <rt:dyn type="X" mode="constant" value="&quot;P&quot;"/> 
    <rt:dyn type="ValueToTheRight" mode="constant" value="false"/> 
  </image>
  <image x="532.195" y="554.756" width="175" height="25" xlink:href="DS_ana.svg">
    <title>&quot;00KPN80CP008&quot;</title>
    <rt:dyn type="FKKS" mode="constant" value="&quot;00KPN80CP008&quot;"/> 
    <rt:dyn type="ShowFrame" mode="constant" value="true"/> 
    <rt:dyn type="Color_Readings" mode="constant" value="true"/> 
    <rt:dyn type="X" mode="constant" value="&quot;P&quot;"/> 
    <rt:dyn type="ValueToTheRight" mode="constant" value="false"/> 
  </image>
  <image x="510.244" y="647.439" width="175" height="25" xlink:href="DS_ana.svg">
    <title>&quot;00KPN80CX001&quot;</title>
    <rt:dyn type="FKKS" mode="constant" value="&quot;00KPN80CX001&quot;"/> 
    <rt:dyn type="ShowFrame" mode="constant" value="true"/> 
    <rt:dyn type="Color_Readings" mode="constant" value="true"/> 
    <rt:dyn type="X" mode="constant" value="&quot;X&quot;"/> 
    <rt:dyn type="ValueToTheRight" mode="constant" value="false"/> 
  </image>
  <image x="1076.1" y="647.439" width="175" height="25" xlink:href="DS_ana.svg">
    <title>&quot;00KPN80CX002&quot;</title>
    <rt:dyn type="FKKS" mode="constant" value="&quot;00KPN80CX002&quot;"/> 
    <rt:dyn type="ShowFrame" mode="constant" value="true"/> 
    <rt:dyn type="Color_Readings" mode="constant" value="true"/> 
    <rt:dyn type="X" mode="constant" value="&quot;X&quot;"/> 
    <rt:dyn type="ValueToTheRight" mode="constant" value="false"/> 
  </image>
  <image x="915.587" y="687.463" width="25" height="25" xlink:href="bin_indicator.svg">
    <title>&quot;00KPN80CL016_XG01&quot;</title>
    <rt:dyn type="PointID" mode="constant" value="&quot;00KPN80CL016_XG01&quot;"/> 
  </image>
  <image x="878.287" y="687.463" width="25" height="25" xlink:href="bin_indicator.svg">
    <title>&quot;00KPN80CL015_XG01&quot;</title>
    <rt:dyn type="PointID" mode="constant" value="&quot;00KPN80CL015_XG01&quot;"/> 
  </image>
  <image x="1490.47" y="688.585" width="25" height="25" xlink:href="bin_indicator.svg">
    <title>&quot;00KPN80CL017_XG01&quot;</title>
    <rt:dyn type="PointID" mode="constant" value="&quot;00KPN80CL017_XG01&quot;"/> 
  </image>
  <image x="1521.29" y="688.585" width="25" height="25" xlink:href="bin_indicator.svg">
    <title>&quot;00KPN80CL018_XG01&quot;</title>
    <rt:dyn type="PointID" mode="constant" value="&quot;00KPN80CL018_XG01&quot;"/> 
  </image>
  <text x="693.317" y="704.13" font-size="15">00KPN80AT001</text>
  <text x="1296.56" y="702.782" font-size="15">00KPN80AT002</text>
  <image x="1344.11" y="843.622" width="70" height="65" xlink:href="DS_CO_valve.svg" transform="rotate(270 0.000244141 -10.0001)">
    <title>&quot;00KPN80AA010&quot;</title>
    <rt:dyn type="Operate" mode="constant" value="true"/> 
    <rt:dyn type="KKS" mode="constant" value="&quot;00KPN80AA010&quot;"/> 
    <rt:dyn type="DATA_NARY" mode="constant" value="&quot;TPTS&quot;"/> 
  </image>
  <text x="697.346" y="877.012" font-size="15">00KPN80<tspan x="697.346" dy="15">AA004</tspan>
  </text>
  <text x="831.805" y="877.012" font-size="15">00KPN80<tspan x="831.805" dy="15">AA005</tspan>
  </text>
  <text x="1436.46" y="879.451" font-size="15">00KPN80<tspan x="1436.46" dy="15">AA010</tspan>
  </text>
  <text x="1573.27" y="881.671" font-size="15">00KPN80<tspan x="1573.27" dy="15">AA009</tspan>
  </text>
  <image x="737.012" y="847.012" width="70" height="65" xlink:href="DS_CO_valve.svg" transform="rotate(270 0.000244141 -10.0001)">
    <title>&quot;00KPN80AA005&quot;</title>
    <rt:dyn type="Operate" mode="constant" value="true"/> 
    <rt:dyn type="KKS" mode="constant" value="&quot;00KPN80AA005&quot;"/> 
    <rt:dyn type="DATA_NARY" mode="constant" value="&quot;TPTS&quot;"/> 
  </image>
  <image x="603.865" y="847.012" width="70" height="65" xlink:href="DS_CO_valve.svg" transform="rotate(270 0.000244141 -10.0001)">
    <title>&quot;00KPN80AA004&quot;</title>
    <rt:dyn type="Operate" mode="constant" value="true"/> 
    <rt:dyn type="KKS" mode="constant" value="&quot;00KPN80AA004&quot;"/> 
    <rt:dyn type="DATA_NARY" mode="constant" value="&quot;TPTS&quot;"/> 
  </image>
  <image x="1477.76" y="847.781" width="70" height="65" xlink:href="DS_CO_valve.svg" transform="rotate(270 0.000244141 -10.0001)">
    <title>&quot;00KPN80AA009&quot;</title>
    <rt:dyn type="Operate" mode="constant" value="true"/> 
    <rt:dyn type="KKS" mode="constant" value="&quot;00KPN80AA009&quot;"/> 
    <rt:dyn type="DATA_NARY" mode="constant" value="&quot;TPTS&quot;"/> 
  </image>
  <image x="1532.2" y="821.829" width="175" height="25" xlink:href="DS_ana.svg">
    <title>&quot;00KPN80CP004&quot;</title>
    <rt:dyn type="FKKS" mode="constant" value="&quot;00KPN80CP004&quot;"/> 
    <rt:dyn type="ShowFrame" mode="constant" value="true"/> 
    <rt:dyn type="Color_Readings" mode="constant" value="true"/> 
    <rt:dyn type="X" mode="constant" value="&quot;P&quot;"/> 
    <rt:dyn type="ValueToTheRight" mode="constant" value="false"/> 
  </image>
  <image x="525.805" y="797.439" width="175" height="25" xlink:href="DS_ana.svg">
    <title>&quot;00KPN80CP002&quot;</title>
    <rt:dyn type="FKKS" mode="constant" value="&quot;00KPN80CP002&quot;"/> 
    <rt:dyn type="ShowFrame" mode="constant" value="true"/> 
    <rt:dyn type="Color_Readings" mode="constant" value="true"/> 
    <rt:dyn type="X" mode="constant" value="&quot;P&quot;"/> 
    <rt:dyn type="ValueToTheRight" mode="constant" value="false"/> 
  </image>
  <text x="533.415" y="397.744" font-size="15" font-weight="normal">На УОВС</text>
  <g>
    <rect x="241.5" y="91" width="18.5" height="15" rx="0" ry="0" fill="Col_BGSand" stroke="none"/> 
    <path d="M-744.573 -324.787 A8.80483 8.80483 0 1 1 -744.573 -307.177 " fill="none" stroke="black" stroke-width="3" transform="flipX(560.7) rotate(360 1.4013e-045 4.33918e-039) matrix(-1 3.67394e-016 3.67394e-016 1 130.612 414.62)"/> 
  </g>
  <image x="202.646" y="115.024" width="70" height="65" xlink:href="DS_CO_valve.svg" transform="rotate(270 0.000244141 -10.0001)">
    <title>&quot;00KPN80AA026&quot;</title>
    <rt:dyn type="Operate" mode="constant" value="true"/> 
    <rt:dyn type="KKS" mode="constant" value="&quot;00KPN80AA026&quot;"/> 
    <rt:dyn type="DATA_NARY" mode="constant" value="&quot;TPTS&quot;"/> 
  </image>
  <g>
    <rect x="483.5" y="90.5" width="18.5" height="14.5" rx="0" ry="0" fill="Col_BGSand" stroke="none"/> 
    <path d="M-502.573 -325.454 A8.80483 8.80483 0 1 1 -502.573 -307.844 " fill="none" stroke="black" stroke-width="3" transform="flipX(560.7) rotate(360 1.4013e-045 4.33918e-039) matrix(-1 3.67394e-016 3.67394e-016 1 130.612 414.62)"/> 
  </g>
  <image x="443.89" y="115.024" width="70" height="65" xlink:href="DS_CO_valve.svg" transform="rotate(270 0.000244141 -10.0001)">
    <title>&quot;00KPN80AA027&quot;</title>
    <rt:dyn type="Operate" mode="constant" value="true"/> 
    <rt:dyn type="KKS" mode="constant" value="&quot;00KPN80AA027&quot;"/> 
    <rt:dyn type="DATA_NARY" mode="constant" value="&quot;TPTS&quot;"/> 
  </image>
  <g>
    <rect x="1019.5" y="90.5" width="17.83" height="17.8333" rx="0" ry="0" fill="Col_BGSand" stroke="none"/> 
    <path d="M33.7606 -324.121 A8.80483 8.80483 0 1 1 33.7606 -306.511 " fill="none" stroke="black" stroke-width="3" transform="flipX(560.7) rotate(360 1.4013e-045 4.33918e-039) matrix(-1 3.67394e-016 3.67394e-016 1 130.612 414.62)"/> 
  </g>
  <polyline points="132,673 132,99 1290,99 1290,371" fill="none" stroke="black"/> 
  <image x="980.695" y="115.024" width="70" height="65" xlink:href="DS_CO_valve.svg" transform="rotate(270 0.000244141 -10.0001)">
    <title>&quot;00KPN80AA003&quot;</title>
    <rt:dyn type="Operate" mode="constant" value="true"/> 
    <rt:dyn type="KKS" mode="constant" value="&quot;00KPN80AA003&quot;"/> 
    <rt:dyn type="DATA_NARY" mode="constant" value="&quot;TPTS&quot;"/> 
  </image>
  <image x="1245.33" y="115.024" width="70" height="65" xlink:href="DS_CO_valve.svg" transform="rotate(270 0.000244141 -10.0001)">
    <title>&quot;00KPN80AA040&quot;</title>
    <rt:dyn type="Operate" mode="constant" value="true"/> 
    <rt:dyn type="KKS" mode="constant" value="&quot;00KPN80AA040&quot;"/> 
    <rt:dyn type="DATA_NARY" mode="constant" value="&quot;TPTS&quot;"/> 
  </image>
  <image x="86.7923" y="238.335" width="70" height="65" xlink:href="DS_CO_valve.svg" transform="rotate(270 0.000244141 -10.0001)">
    <title>&quot;00KPN80AA042&quot;</title>
    <rt:dyn type="Operate" mode="constant" value="true"/> 
    <rt:dyn type="KKS" mode="constant" value="&quot;00KPN80AA042&quot;"/> 
    <rt:dyn type="DATA_NARY" mode="constant" value="&quot;TPTS&quot;"/> 
  </image>
  <g transform="scale(0.859982 0.859982 631.365 492.076)">
    <path d="M1338.3 456.432 L1338.3 356.432 Q1342.85 289.008 1397.39 287.493 T1464.06 349.614 L1463.3 481.435 Q1460.3 544.48 1400.48 550.984 Q1338.3 541.279 1338.3 481.435 Z" fill="Col_Grey3" stroke="black" stroke-width="1"/> 
  </g>
  <text x="1287.68" y="387.988" font-size="15">00KPN80<tspan x="1287.68" dy="15">BB005</tspan>
  </text>
  <text x="1075.46" y="145.024" font-size="15">00KPN80<tspan x="1075.46" dy="15">AA003</tspan>
  </text>
  <text x="771.171" y="145.024" font-size="15">00KPN80<tspan x="771.171" dy="15">AA041</tspan>
  </text>
  <text x="538.683" y="145.024" font-size="15">00KPN80<tspan x="538.683" dy="15">AA027</tspan>
  </text>
  <text x="298.659" y="145.024" font-size="15">00KPN80<tspan x="298.659" dy="15">AA026</tspan>
  </text>
  <image x="341.366" y="916.951" width="130" height="25" xlink:href="obj_Button.svg">
    <title>&quot;00kpn80ec006_m1-7&quot;</title>
    <rt:dyn type="Label" mode="constant" value="&quot;00KPN80EC006&quot;"/> 
    <rt:event type="OnClick">LoadNew(&quot;00kpn80ec006_m1-7&quot;)</rt:event>
  </image>
  <image x="116.512" y="916.488" width="130" height="25" xlink:href="obj_Button.svg">
    <title>&quot;00kpn80ec005_m1-7&quot;</title>
    <rt:dyn type="Label" mode="constant" value="&quot;00KPN80EC005&quot;"/> 
    <rt:event type="OnClick">LoadNew(&quot;00kpn80ec005_m1-7&quot;)</rt:event>
  </image>
  <image x="996.829" y="816.951" width="160" height="75" xlink:href="DS_TPTS_VL_spec.svg">
    <title>&quot;00KPN80CH001VL0&quot;</title>
    <rt:dyn type="KKS" mode="constant" value="&quot;00KPN80CH001VL0&quot;"/> 
    <rt:dyn type="Operate" mode="constant" value="true"/> 
    <rt:dyn type="VL_type" mode="constant" value="&quot;1o2&quot;"/> 
  </image>
  <image x="848.366" y="181.122" width="160" height="75" xlink:href="DS_TPTS_VL_spec.svg">
    <title>&quot;00KPN80CH002VL0&quot;</title>
    <rt:dyn type="KKS" mode="constant" value="&quot;00KPN80CH002VL0&quot;"/> 
    <rt:dyn type="Operate" mode="constant" value="true"/> 
    <rt:dyn type="VL_type" mode="constant" value="&quot;1o2&quot;"/> 
  </image>
  <image x="1317.15" y="460.634" width="25" height="25" xlink:href="bin_indicator.svg">
    <title>&quot;00KPN80CL014_XG51&quot;</title>
    <rt:dyn type="PointID" mode="constant" value="&quot;00KPN80CL014_XG51&quot;"/> 
  </image>
  <image x="1286.85" y="460.634" width="25" height="25" xlink:href="bin_indicator.svg">
    <title>&quot;00KPN80CL013_XG51&quot;</title>
    <rt:dyn type="PointID" mode="constant" value="&quot;00KPN80CL013_XG51&quot;"/> 
  </image>
  <line x1="41.9512" y1="99" x2="132.195" y2="98.9024" stroke="black"/> 
  <polygon points="2362.8,-112.52 2362.8,-93.5185 2379.8,-103.519" transform="flipX(137.968) flipX(848.955) rotate(90 1.4013e-045 1.9569e-039) flipY(519.712) rotate(270 327.167 125.501) rotate(0 1.4013e-045 1.4013e-045) flipX(158.5)"/> 
  <text x="66.9512" y="126.951" font-size="15">Сжатый воздух<tspan x="66.9512" dy="15">(SCB)</tspan>
  </text>
  <image x="57.8049" y="67.1951" width="175" height="25" xlink:href="DS_ana.svg">
    <title>&quot;00KPN80CP007&quot;</title>
    <rt:dyn type="FKKS" mode="constant" value="&quot;00KPN80CP007&quot;"/> 
    <rt:dyn type="ShowFrame" mode="constant" value="true"/> 
    <rt:dyn type="Color_Readings" mode="constant" value="true"/> 
    <rt:dyn type="X" mode="constant" value="&quot;P&quot;"/> 
    <rt:dyn type="ValueToTheRight" mode="constant" value="false"/> 
  </image>
  <text x="65.8171" y="908.476" font-size="15">00KPN80<tspan x="65.8171" dy="15">AA070</tspan>
  </text>
  <image x="30.8171" y="916.414" width="70" height="65" xlink:href="DS_CO_valve.svg" transform="rotate(360 0.000244141 -10.0001)">
    <title>&quot;00KPN80AA070&quot;</title>
    <rt:dyn type="Operate" mode="constant" value="true"/> 
    <rt:dyn type="KKS" mode="constant" value="&quot;00KPN80AA070&quot;"/> 
    <rt:dyn type="DATA_NARY" mode="constant" value="&quot;TPTS&quot;"/> 
  </image>
  <text x="566.659" y="926.354" font-size="15">00KPN80<tspan x="566.659" dy="15">AA071</tspan>
  </text>
  <image x="531.659" y="934.292" width="70" height="65" xlink:href="DS_CO_valve.svg" transform="rotate(360 0.000244141 -10.0001)">
    <title>&quot;00KPN80AA071&quot;</title>
    <rt:dyn type="Operate" mode="constant" value="true"/> 
    <rt:dyn type="KKS" mode="constant" value="&quot;00KPN80AA071&quot;"/> 
    <rt:dyn type="DATA_NARY" mode="constant" value="&quot;TPTS&quot;"/> 
  </image>
  <g>
    <rect x="1194.39" y="905.156" width="17.83" height="17.8333" rx="0" ry="0" fill="Col_BGSand" stroke="none"/> 
    <path d="M208.65 490.535 A8.80483 8.80483 0 1 1 208.65 508.145 " fill="none" stroke="black" stroke-width="1" transform="flipX(560.7) rotate(360 1.4013e-045 4.33918e-039) matrix(-1 3.67394e-016 3.67394e-016 1 130.612 414.62)"/> 
  </g>
  <g>
    <rect x="1194.39" y="930.985" width="17.83" height="17.8333" rx="0" ry="0" fill="Col_BGSand" stroke="none"/> 
    <path d="M208.65 516.364 A8.80483 8.80483 0 1 1 208.65 533.974 " fill="none" stroke="black" stroke-width="1" transform="flipX(560.7) rotate(360 1.4013e-045 4.33918e-039) matrix(-1 3.67394e-016 3.67394e-016 1 130.612 414.62)"/> 
  </g>
  <line x1="1194" y1="914" x2="1215" y2="914" stroke="black" stroke-width="3"/> 
  <line x1="1193" y1="939" x2="1215" y2="939" stroke="black" stroke-width="3"/> 
  <g>
    <rect x="290.732" y="948.061" width="17.83" height="17.8333" rx="0" ry="0" fill="Col_BGSand" stroke="none"/> 
    <path d="M-695.008 533.44 A8.80483 8.80483 0 1 1 -695.008 551.05 " fill="none" stroke="black" stroke-width="1" transform="flipX(560.7) rotate(360 1.4013e-045 4.33918e-039) matrix(-1 3.67394e-016 3.67394e-016 1 130.612 414.62)"/> 
  </g>
  <line x1="290.5" y1="959" x2="314.5" y2="959" stroke="black"/> 
  <text x="434.024" y="730.793" font-size="15">L max</text>
  <text x="190.122" y="729.573" font-size="15">L max</text>
  <text x="732.805" y="447.866" font-size="15">L min</text>
  <text x="1262.07" y="478.049" font-size="15">L min</text>
  <image x="516.342" y="224.317" width="175" height="25" xlink:href="DS_ana.svg">
    <title>&quot;00KPN80FF001&quot;</title>
    <rt:dyn type="FKKS" mode="constant" value="&quot;00KPN80FF001&quot;"/> 
    <rt:dyn type="ShowFrame" mode="constant" value="true"/> 
    <rt:dyn type="Color_Readings" mode="constant" value="true"/> 
    <rt:dyn type="X" mode="constant" value="&quot;V&quot;"/> 
    <rt:dyn type="ValueToTheRight" mode="constant" value="false"/> 
  </image>
  <image x="1087" y="224.317" width="175" height="25" xlink:href="DS_ana.svg">
    <title>&quot;00KPN80FF002&quot;</title>
    <rt:dyn type="FKKS" mode="constant" value="&quot;00KPN80FF002&quot;"/> 
    <rt:dyn type="ShowFrame" mode="constant" value="true"/> 
    <rt:dyn type="Color_Readings" mode="constant" value="true"/> 
    <rt:dyn type="X" mode="constant" value="&quot;V&quot;"/> 
    <rt:dyn type="ValueToTheRight" mode="constant" value="false"/> 
  </image>
</svg>
