<?xml  version="1.0" encoding="UTF-8"?>
<svg color="Col_BGSand" xmlns="http://www.w3.org/2000/svg" xmlns:rt="http://www.rts.co.at/2001/XMLSchema/RtSvgPL" xmlns:xlink="http://www.w3.org/1999/xlink" xmlns:xsi="http://www.w3.org/2001/XMLSchema-instance" xsi:schemaLocation="http://www.w3.org/2000/svg C:\RTS\RtSvg\XML\SVG.xsd" viewBox="0 0 1914 1000" width="1914" height="1000" id="jro0_6" font-size="15" text-anchor="middle">
  <title>Контролируемые параметры (дискретные сигналы)</title>
  <rt:model modelversion="7.2.0.23" comment="Создано 14.04.14 Zagrebaylova S.V." revision="1.0"/> 
  <line x1="150.697" y1="123.226" x2="914" y2="123.226" stroke="black"/> 
  <line x1="333" y1="80.3333" x2="333" y2="828.049" stroke="black"/> 
  <text x="242.875" y="100.25" font-size="15" text-anchor="middle">Обозначение точки<tspan x="242.875" dy="15">контроля</tspan>
  </text>
  <text x="504" y="99.7927" font-size="15" text-anchor="middle">Наименование точки<tspan x="504" dy="15">контроля</tspan>
  </text>
  <line x1="150.697" y1="171" x2="914" y2="171" stroke="black"/> 
  <rect x="149.667" y="80.1212" width="764.992" height="747.928" rx="0" ry="0" fill="none" stroke="black" stroke-width="3"/> 
  <line x1="150.697" y1="255" x2="914" y2="255" stroke="black"/> 
  <line x1="150.697" y1="318" x2="914" y2="318" stroke="black"/> 
  <line x1="150.697" y1="364" x2="914" y2="364" stroke="black"/> 
  <line x1="150.697" y1="424" x2="914" y2="424" stroke="black"/> 
  <line x1="150.697" y1="485" x2="914" y2="485" stroke="black"/> 
  <line x1="149.697" y1="542" x2="914" y2="542" stroke="black"/> 
  <line x1="150.697" y1="600" x2="914" y2="600" stroke="black"/> 
  <line x1="149.667" y1="646.5" x2="914" y2="646.5" stroke="black"/> 
  <text x="504" y="390.963">Нижний уровень бетонита в бункере<tspan x="504" dy="15">00KPN70BB003</tspan>
  </text>
  <text x="504" y="665.842">Уровень протечки 1 в сальнике<tspan x="504" dy="15">привода фильтра - сгустителя</tspan>
<tspan x="504" dy="15">00KPN80AT001</tspan>
  </text>
  <line x1="673" y1="81.3333" x2="673" y2="828.049" stroke="black"/> 
  <text x="723.344" y="99.7927" font-size="15" text-anchor="middle">Значение<tspan x="723.344" dy="15">уставки</tspan>
  </text>
  <text x="960" y="40" fill="black" font-size="28" text-anchor="middle">Контролируемые параметры (дискретные сигналы)</text>
  <text x="242.875" y="151.744">00KPN70CG001</text>
  <line x1="149.212" y1="216" x2="914" y2="216" stroke="black"/> 
  <text x="242.875" y="197.691">00KPN70CG002</text>
  <text x="242.875" y="240.218">00KPN70CL001</text>
  <text x="504" y="144.244" font-size="15">Положение 1 смесителя<tspan x="504" dy="15">00KPN70AM001</tspan>
  </text>
  <text x="504" y="190.191">Положение 2 смесителя<tspan x="504" dy="15">00KNP10AM001</tspan>
  </text>
  <text x="504" y="233.176">Верхний уровень цемента в бункере<tspan x="504" dy="15">00KPN70BB001</tspan>
  </text>
  <line x1="148.334" y1="764.985" x2="914" y2="764.985" stroke="black"/> 
  <line x1="148.636" y1="703.894" x2="914" y2="703.894" stroke="black"/> 
  <line x1="941.954" y1="163" x2="1735" y2="163" stroke="black"/> 
  <line x1="1128" y1="80.1062" x2="1128" y2="903.659" stroke="black"/> 
  <text x="1036.17" y="100.381" font-size="15">Обозначение точки<tspan x="1036.17" dy="15">контроля</tspan>
  </text>
  <text x="1311.28" y="99.9233" font-size="15">Наименование точки<tspan x="1311.28" dy="15">контроля</tspan>
  </text>
  <line x1="941.954" y1="210" x2="1735" y2="210" stroke="black"/> 
  <line x1="941.954" y1="255" x2="1735" y2="255" stroke="black"/> 
  <rect x="943" y="79.3333" width="790.829" height="823.106" rx="2.31714" ry="0.983765" fill="none" stroke="black" stroke-width="3"/> 
  <line x1="941.954" y1="479.773" x2="1735" y2="479.773" stroke="black"/> 
  <line x1="941.924" y1="431.773" x2="1735" y2="431.707" stroke="black"/> 
  <line x1="941.954" y1="523.773" x2="1735" y2="523.773" stroke="black"/> 
  <line x1="941.954" y1="567.773" x2="1735" y2="567.773" stroke="black"/> 
  <line x1="941.954" y1="609.773" x2="1735" y2="609.773" stroke="black"/> 
  <line x1="941.954" y1="668.773" x2="1735" y2="668.773" stroke="black"/> 
  <line x1="941.954" y1="727" x2="1735" y2="727" stroke="black"/> 
  <line x1="941.954" y1="785.773" x2="1735" y2="785.773" stroke="black"/> 
  <line x1="941.954" y1="840.773" x2="1735" y2="840.773" stroke="black"/> 
  <line x1="1493" y1="81.1062" x2="1493" y2="903.659" stroke="black"/> 
  <text x="1545.32" y="99.9233" font-size="15">Значение<tspan x="1545.32" dy="15">уставки</tspan>
  </text>
  <line x1="941.469" y1="299.333" x2="1735" y2="299.333" stroke="black"/> 
  <text x="1311.28" y="230.177">Верхний уровень в промежуточном<tspan x="1311.28" dy="15">баке  00KPN80BB003</tspan>
  </text>
  <line x1="941.939" y1="344" x2="1735" y2="344" stroke="black"/> 
  <line x1="941.94" y1="389" x2="1735" y2="389" stroke="black"/> 
  <text x="1311.28" y="630.052">Положение тележки транспортной<tspan x="1311.28" dy="15">00KPN70AE001 ( положение 1 - стыковка</tspan>
<tspan x="1311.28" dy="15">со сливным штуцером смесителя)</tspan>
  </text>
  <text x="1311.28" y="687.719">Положение тележки транспортной<tspan x="1311.28" dy="15">00KPN70AE007 ( положение 2 - точка</tspan>
<tspan x="1311.28" dy="15">отбора проб)</tspan>
  </text>
  <text x="1311.28" y="746.325">Положение тележки транспортной<tspan x="1311.28" dy="15">00KPN70AE007 ( положение 3 - точка</tspan>
<tspan x="1311.28" dy="15">снятие/установка пробки НЗК)</tspan>
  </text>
  <text x="1311.28" y="803.961">Положение тележки транспортной<tspan x="1311.28" dy="15">00KPN70AE007 ( положение 4 - точка</tspan>
<tspan x="1311.28" dy="15">загрузки ТРО)</tspan>
  </text>
  <text x="504" y="283.049">Нижний уровень цемента в бункере<tspan x="504" dy="15">00KPN70BB001</tspan>
  </text>
  <text x="504" y="337.645">Верхний уровень бетонита в бункере<tspan x="504" dy="15">00KPN70BB003</tspan>
  </text>
  <text x="1311.28" y="407.598">Нижний уровень 2 в ресивере<tspan x="1311.28" dy="15">00KPN80BB005</tspan>
  </text>
  <text x="1311.28" y="586.628">Верхний уровень 2 в фильтре - сгустителе<tspan x="1311.28" dy="15">00KPN80AT002</tspan>
  </text>
  <text x="504" y="622.166">Нижний  уровень в баке промывочной<tspan x="504" dy="15">воды 00KPN80BB001</tspan>
  </text>
  <text x="504" y="450.918">Нижний уровень в дозирующем блоке<tspan x="504" dy="15">00KPN70AP001</tspan>
  </text>
  <text x="504" y="502.539">Уровень протечек в кожухе затвора на<tspan x="504" dy="15">сливе цементного компаунда</tspan>
<tspan x="504" dy="15">00KPN70AA001</tspan>
  </text>
  <text x="504" y="567.708">Давление сжатого воздуха перед<tspan x="504" dy="15">питателем 00KPN70AE005</tspan>
  </text>
  <text x="504" y="723.918">Уровень протечки 2 в сальнике<tspan x="504" dy="15">привода фильтра - сгустителя</tspan>
<tspan x="504" dy="15">00KPN80AT001</tspan>
  </text>
  <text x="504" y="786.221">Уровень протечки 1 в сальнике<tspan x="504" dy="15">привода фильтра - сгустителя</tspan>
<tspan x="504" dy="15">00KPN80AT002</tspan>
  </text>
  <text x="1311.28" y="183.577">Верхний уровень в промежуточном<tspan x="1311.28" dy="15">баке  00KPN80BB002</tspan>
  </text>
  <text x="1311.28" y="275.879">Нижний уровень 1 в ресивере<tspan x="1311.28" dy="15">00KPN80BB004</tspan>
  </text>
  <text x="1311.28" y="316.934">Нижний уровень 2 в ресивере<tspan x="1311.28" dy="15">00KPN80BB004</tspan>
  </text>
  <text x="1311.28" y="364.124">Нижний уровень 1 в ресивере<tspan x="1311.28" dy="15">00KPN80BB005</tspan>
  </text>
  <text x="1311.28" y="453.331">Верхний уровень 1 в фильтре - сгустителе<tspan x="1311.28" dy="15">00KPN80AT002</tspan>
  </text>
  <text x="1311.28" y="500.421">Верхний уровень 2 в фильтре - сгустителе<tspan x="1311.28" dy="15">00KPN80AT001</tspan>
  </text>
  <text x="1311.28" y="543.732">Верхний уровень 1 в фильтре - сгустителе<tspan x="1311.28" dy="15">00KPN80AT002</tspan>
  </text>
  <text x="1311.28" y="858.585">Положение тележки транспортной<tspan x="1311.28" dy="15">00KPN70AE007 ( положение 5 - точка</tspan>
<tspan x="1311.28" dy="15">установки НЗК)</tspan>
  </text>
  <text x="242.875" y="290.092">00KPN70CL002</text>
  <text x="242.875" y="398.006">00KPN70CL004</text>
  <text x="242.875" y="457.96">00KPN70CL006</text>
  <text x="242.875" y="517.539">00KPN70CL007</text>
  <text x="242.875" y="575.208">00KPN70CP001</text>
  <text x="242.875" y="629.788">00KPN80CL002</text>
  <text x="242.875" y="680.842">00KPN80CL003</text>
  <text x="242.875" y="344.688">00KPN70CL003</text>
  <text x="242.875" y="738.918">00KPN80CL004</text>
  <text x="242.366" y="801.22">00KPN80CL005</text>
  <text x="1036.17" y="190.62">00KPN80CL008</text>
  <text x="1036.17" y="237.219">00KPN80CL010</text>
  <text x="1036.17" y="323.977">00KPN80CL012</text>
  <text x="1036.17" y="371.166">00KPN80CL013</text>
  <text x="1036.17" y="414.641">00KPN80CL014</text>
  <text x="1036.17" y="460.373">00KPN80CL015</text>
  <text x="1036.17" y="507.463">00KPN80CL016</text>
  <text x="1036.17" y="550.774">00KPN80CL017</text>
  <text x="1036.17" y="593.671">00KPN80CL018</text>
  <text x="1035.05" y="645.122">00KPN70CG007</text>
  <text x="1036.17" y="702.841">00KPN70CG008</text>
  <text x="1036.17" y="761.447">00KPN70CG009</text>
  <text x="1036.17" y="819.083">00KPN70CG010</text>
  <text x="1036.17" y="873.707">00KPN70CG011</text>
  <text x="16" y="32" font-size="20" font-weight="bold" text-anchor="start">JRO0_6</text>
  <text x="723.344" y="151.998" font-size="17">0,63 м</text>
  <text x="723.344" y="197.945" font-size="17">1,03 м</text>
  <text x="723.344" y="240.472" font-size="17">2,0 м</text>
  <text x="723.344" y="290.346" font-size="17">1,45 м</text>
  <text x="723.344" y="344.942" font-size="17">1,6 м</text>
  <text x="723.344" y="398.26" font-size="17">0,6 м</text>
  <text x="723.344" y="458.214" font-size="17">0,5 м</text>
  <text x="723.344" y="517.793" font-size="17">0,1 м</text>
  <text x="723.344" y="575.462" font-size="17">0,03 МПа</text>
  <text x="723.344" y="630.042" font-size="17">0,8 м</text>
  <text x="723.344" y="681.096" font-size="17">0,1м</text>
  <text x="723.344" y="739.172" font-size="17">0,1 м</text>
  <text x="723.344" y="801.475" font-size="17">0,1 м</text>
  <text x="1545.32" y="190.041">0,1 м</text>
  <text x="1545.32" y="236.64">0,1 м</text>
  <text x="1545.32" y="282.342">0,216 м</text>
  <text x="1545.32" y="323.398">0,45 м</text>
  <text x="1545.32" y="414.061">2,9 м</text>
  <text x="1545.32" y="459.794">0,08 м</text>
  <text x="1545.32" y="645.174">0 м</text>
  <text x="1545.32" y="702.262">1,65 м</text>
  <text x="1545.32" y="760.868">2,7 м</text>
  <text x="1545.32" y="818.504">20,585 м</text>
  <line x1="941.366" y1="123.226" x2="1735" y2="123.226" stroke="black"/> 
  <text x="1311.28" y="141.805">Уровень протечки 2 в сальнике привода<tspan x="1311.28" dy="15">фильтра - сгустителя  00KPN80AT002</tspan>
  </text>
  <text x="1545.32" y="149.305">0,1 м</text>
  <text x="1036.17" y="149.884">00KPN80CL006</text>
  <text x="1036.17" y="282.921">00KPN80CL011</text>
  <image x="1650.5" y="860.976" width="25" height="25" xlink:href="bin_indicator.svg">
    <title>00KPN70CG011_XG01</title>
    <rt:dyn type="PointID" mode="constant" value="&quot;00KPN70CG011_XG01&quot;"/> 
  </image>
  <text x="1545.32" y="370.587">0,216 м</text>
  <text x="1545.32" y="506.884">0,08 м</text>
  <text x="1545.32" y="550.195">0,08 м</text>
  <text x="1545.32" y="593.091">0,08 м</text>
  <line x1="776.134" y1="81.3658" x2="776.134" y2="828.082" stroke="black"/> 
  <text x="842.927" y="97.561" font-size="15" text-anchor="middle">Срабатывание<tspan x="842.927" dy="15">уставки</tspan>
  </text>
  <image x="830.427" y="134.244" width="25" height="25" xlink:href="bin_indicator.svg">
    <title>00KPN70CG001_XG01</title>
    <rt:dyn type="PointID" mode="constant" value="&quot;00KPN70CG001_XG01&quot;"/> 
  </image>
  <image x="830.427" y="180.191" width="25" height="25" xlink:href="bin_indicator.svg">
    <title>00KPN70CG002_XG01</title>
    <rt:dyn type="PointID" mode="constant" value="&quot;00KPN70CG002_XG01&quot;"/> 
  </image>
  <image x="830" y="225" width="25" height="25" xlink:href="bin_indicator.svg">
    <title>00KPN70CL001_XG01</title>
    <rt:dyn type="PointID" mode="constant" value="&quot;00KPN70CL001_XG01&quot;"/> 
    <rt:dyn type="Col_ON" mode="constant" value="&quot;Col_Green&quot;"/> 
    <rt:dyn type="Col_OFF" mode="constant" value="&quot;Col_Red&quot;"/> 
  </image>
  <image x="830.427" y="272.592" width="25" height="25" xlink:href="bin_indicator.svg">
    <title>00KPN70CL002_XG51</title>
    <rt:dyn type="PointID" mode="constant" value="&quot;00KPN70CL002_XG51&quot;"/> 
    <rt:dyn type="Col_ON" mode="constant" value="&quot;Col_Green&quot;"/> 
    <rt:dyn type="Col_OFF" mode="constant" value="&quot;Col_Red&quot;"/> 
  </image>
  <image x="830.427" y="327.188" width="25" height="25" xlink:href="bin_indicator.svg">
    <title>00KPN70CL003_XG01</title>
    <rt:dyn type="PointID" mode="constant" value="&quot;00KPN70CL003_XG01&quot;"/> 
    <rt:dyn type="Col_ON" mode="constant" value="&quot;Col_Green&quot;"/> 
    <rt:dyn type="Col_OFF" mode="constant" value="&quot;Col_Red&quot;"/> 
  </image>
  <image x="830.427" y="380.506" width="25" height="25" xlink:href="bin_indicator.svg">
    <title>00KPN70CL004_XG51</title>
    <rt:dyn type="PointID" mode="constant" value="&quot;00KPN70CL004_XG51&quot;"/> 
    <rt:dyn type="Col_ON" mode="constant" value="&quot;Col_Green&quot;"/> 
    <rt:dyn type="Col_OFF" mode="constant" value="&quot;Col_Red&quot;"/> 
  </image>
  <image x="830.427" y="440.46" width="25" height="25" xlink:href="bin_indicator.svg">
    <title>00KPN70CL006_XG51</title>
    <rt:dyn type="PointID" mode="constant" value="&quot;00KPN70CL006_XG51&quot;"/> 
  </image>
  <image x="830.427" y="500.039" width="25" height="25" xlink:href="bin_indicator.svg">
    <title>00KPN70CL007_XG01</title>
    <rt:dyn type="PointID" mode="constant" value="&quot;00KPN70CL007_XG01&quot;"/> 
  </image>
  <image x="830.427" y="557.708" width="25" height="25" xlink:href="bin_indicator.svg">
    <title>00KPN70CP001_XG51</title>
    <rt:dyn type="PointID" mode="constant" value="&quot;00KPN70CP001_XG51&quot;"/> 
  </image>
  <image x="830.427" y="612.288" width="25" height="25" xlink:href="bin_indicator.svg">
    <title>00KPN80CL002_XG51</title>
    <rt:dyn type="PointID" mode="constant" value="&quot;00KPN80CL002_XG51&quot;"/> 
  </image>
  <image x="830.427" y="663.342" width="25" height="25" xlink:href="bin_indicator.svg">
    <title>00KPN80CL003_XG01</title>
    <rt:dyn type="PointID" mode="constant" value="&quot;00KPN80CL003_XG01&quot;"/> 
  </image>
  <image x="830.427" y="721.418" width="25" height="25" xlink:href="bin_indicator.svg">
    <title>00KPN80CL004_XG01</title>
    <rt:dyn type="PointID" mode="constant" value="&quot;00KPN80CL004_XG01&quot;"/> 
  </image>
  <image x="830.427" y="783.721" width="25" height="25" xlink:href="bin_indicator.svg">
    <title>00KPN80CL005_XG01</title>
    <rt:dyn type="PointID" mode="constant" value="&quot;00KPN80CL005_XG01&quot;"/> 
  </image>
  <text x="1663" y="98.7805" font-size="15" text-anchor="middle">Срабатывание<tspan x="1663" dy="15">уставки</tspan>
  </text>
  <image x="1650.5" y="132.384" width="25" height="25" xlink:href="bin_indicator.svg">
    <title>00KPN80CL006_XG01</title>
    <rt:dyn type="PointID" mode="constant" value="&quot;00KPN80CL006_XG01&quot;"/> 
  </image>
  <image x="1650.5" y="173.12" width="25" height="25" xlink:href="bin_indicator.svg">
    <title>00KPN80CL008_XG01</title>
    <rt:dyn type="PointID" mode="constant" value="&quot;00KPN80CL008_XG01&quot;"/> 
  </image>
  <image x="1650.5" y="219.719" width="25" height="25" xlink:href="bin_indicator.svg">
    <title>00KPN80CL010_XG01</title>
    <rt:dyn type="PointID" mode="constant" value="&quot;00KPN80CL010_XG01&quot;"/> 
  </image>
  <image x="1650.5" y="265.421" width="25" height="25" xlink:href="bin_indicator.svg">
    <title>00KPN80CL011_XG51</title>
    <rt:dyn type="PointID" mode="constant" value="&quot;00KPN80CL011_XG51&quot;"/> 
  </image>
  <image x="1650.5" y="306.477" width="25" height="25" xlink:href="bin_indicator.svg">
    <title>00KPN80CL012_XG51</title>
    <rt:dyn type="PointID" mode="constant" value="&quot;00KPN80CL012_XG51&quot;"/> 
  </image>
  <image x="1650.5" y="353.666" width="25" height="25" xlink:href="bin_indicator.svg">
    <title>00KPN80CL013_XG51</title>
    <rt:dyn type="PointID" mode="constant" value="&quot;00KPN80CL013_XG51&quot;"/> 
  </image>
  <image x="1650.5" y="442.873" width="25" height="25" xlink:href="bin_indicator.svg">
    <title>00KPN80CL015_XG01</title>
    <rt:dyn type="PointID" mode="constant" value="&quot;00KPN80CL015_XG01&quot;"/> 
  </image>
  <image x="1650.5" y="489.964" width="25" height="25" xlink:href="bin_indicator.svg">
    <title>00KPN80CL016_XG01</title>
    <rt:dyn type="PointID" mode="constant" value="&quot;00KPN80CL016_XG01&quot;"/> 
  </image>
  <image x="1650.5" y="534.928" width="25" height="25" xlink:href="bin_indicator.svg">
    <title>00KPN80CL017_XG01</title>
    <rt:dyn type="PointID" mode="constant" value="&quot;00KPN80CL017_XG01&quot;"/> 
  </image>
  <image x="1650.5" y="576.171" width="25" height="25" xlink:href="bin_indicator.svg">
    <title>00KPN80CL018_XG01</title>
    <rt:dyn type="PointID" mode="constant" value="&quot;00KPN80CL018_XG01&quot;"/> 
  </image>
  <image x="1650.5" y="627.674" width="25" height="25" xlink:href="bin_indicator.svg">
    <title>00KPN70CG007_XG01</title>
    <rt:dyn type="PointID" mode="constant" value="&quot;00KPN70CG007_XG01&quot;"/> 
  </image>
  <image x="1650.5" y="685.341" width="25" height="25" xlink:href="bin_indicator.svg">
    <title>00KPN70CG008_XG01</title>
    <rt:dyn type="PointID" mode="constant" value="&quot;00KPN70CG008_XG01&quot;"/> 
  </image>
  <image x="1650.5" y="743.947" width="25" height="25" xlink:href="bin_indicator.svg">
    <title>00KPN70CG009_XG01</title>
    <rt:dyn type="PointID" mode="constant" value="&quot;00KPN70CG009_XG01&quot;"/> 
  </image>
  <line x1="1596.52" y1="79.8049" x2="1596.52" y2="902.358" stroke="black"/> 
  <image x="1650.5" y="803.659" width="25" height="25" xlink:href="bin_indicator.svg">
    <title>00KPN70CG010_XG01</title>
    <rt:dyn type="PointID" mode="constant" value="&quot;00KPN70CG010_XG01&quot;"/> 
  </image>
  <image x="1650.5" y="398.781" width="25" height="25" xlink:href="bin_indicator.svg">
    <title>00KPN80CL014_XG51</title>
    <rt:dyn type="PointID" mode="constant" value="&quot;00KPN80CL014_XG51&quot;"/> 
  </image>
</svg>
