<?xml  version="1.0" encoding="UTF-8"?>
<svg color="Col_BGSand" xmlns="http://www.w3.org/2000/svg" xmlns:rt="http://www.rts.co.at/2001/XMLSchema/RtSvgPL" xmlns:xlink="http://www.w3.org/1999/xlink" xmlns:xsi="http://www.w3.org/2001/XMLSchema-instance" xsi:schemaLocation="http://www.w3.org/2000/svg C:\RTS\RtSvg\XML\SVG.xsd" viewBox="0 0 1940 1000" width="1940" height="1000" id="jro1_4_2" text-anchor="middle">
  <title>Промывка смесителя и дезактивация оборудования</title>
  <rt:model modelversion="7.2.0.24" comment="Создано VNIIAES-ASUTP\seregin 07.08.2013 18:14:20" revision="2"/> 
  <polyline points="692,867 692,982 200,981 200,650 400,650 400,980" fill="none" stroke="black" stroke-width="3"/> 
  <polyline points="900,292 900,593 1259,593 1259,615" fill="none" stroke="black"/> 
  <polyline points="269,100.303 1212,100.303 1212,310" fill="none" stroke="black" stroke-width="3"/> 
  <polyline points="1190,320 1190,200 560,200 560,228" fill="none" stroke="black"/> 
  <polyline points="654,276 654,228 359,228" fill="none" stroke="black"/> 
  <polyline points="1180,384 1180,284 561,284 561,371" fill="none" stroke="black"/> 
  <polyline points="1354,653 734,653 734,683" fill="none" stroke="black" stroke-width="3"/> 
  <line x1="356.667" y1="375" x2="356.767" y2="375" stroke="black"/> 
  <line x1="653.333" y1="371" x2="356" y2="371" stroke="black"/> 
  <polyline points="692,898 834,898 834,976" fill="none" stroke="black"/> 
  <polyline points="261,146.329 1199.39,146.329 1199.39,309.541" fill="none" stroke="black" stroke-width="3"/> 
  <polygon points="540.489,439.822 562.2,451.072 562.2,501.058 540.489,500.429" fill="Col_Grey3" stroke="black" transform="flipX(1316.36) flipX(1898.78) flipX(1522.27)"/> 
  <polygon points="424.056,438.549 445.767,449.799 445.767,499.785 424.056,499.156" fill="Col_Grey3" stroke="black" transform="flipX(1898.78) flipX(1522.27)"/> 
  <polyline points="523.659,632 631.152,632 631.152,682.597" fill="none" stroke="black" stroke-width="3"/> 
  <polygon points="1520.25,409.78 1520.25,201.239 1802.11,202.72 1802.11,412.544 1663.18,498.893" fill="Col_Grey3" stroke="black" stroke-width="2" transform="scale(0.613788 0.613788 616.683 481.046)"/> 
  <line x1="1276.88" y1="556" x2="1368.65" y2="556" stroke="black" stroke-width="1"/> 
  <line x1="1258.64" y1="609.756" x2="1258.64" y2="728.091" stroke="Col_Grey4" stroke-dasharray="15,5"/> 
  <text x="960" y="40" font-size="28" text-anchor="middle">Промывка смесителя и дезактивация оборудования</text>
  <line x1="463.03" y1="896.061" x2="463.03" y2="896.061" stroke="black"/> 
  <path d="M-48 250 "/> 
  <text x="16" y="32" font-size="20" font-weight="bold" text-anchor="start">JRO1_4_2</text>
  <polygon points="5192.39,421.842 5192.39,440.842 5209.39,430.842" transform="flipX(524.736) flipX(2409.04) rotate(90 1.4013e-045 1.9569e-039) flipY(519.712) rotate(270 327.167 125.501) rotate(0 1.4013e-045 1.4013e-045) flipX(158.5)"/> 
  <polygon points="328.447,2654.37 328.447,2673.37 345.447,2663.37" transform="flipY(852.44) flipY(796.379) flipX(1849.95) flipY(143.405) flipY(114.561) flipY(394.864) flipY(450.924) rotate(0 1.4013e-045 1.9569e-039) flipY(519.712) rotate(270 327.167 125.501)"/> 
  <line x1="1098.58" y1="671.133" x2="1098.6" y2="496.933" stroke="black" stroke-width="1" transform="rotate(90 1251.65 590.379)"/> 
  <line x1="1041.86" y1="173.496" x2="925.321" y2="173.496" stroke="black" stroke-width="3" transform="rotate(270 1309.23 224.091)"/> 
  <image x="1213.68" y="501.22" width="70" height="65" xlink:href="DS_CO_valve.svg" transform="rotate(270 0.000244141 -10.0001)">
    <title>10KPN10AA003</title>
    <rt:dyn type="Operate" mode="constant" value="true"/> 
    <rt:dyn type="KKS" mode="constant" value="&quot;10KPN10AA003&quot;"/> 
    <rt:dyn type="DATA_NARY" mode="constant" value="&quot;TPTS&quot;"/> 
  </image>
  <polygon points="-1012,1047.47 -1012,1066.47 -995,1056.47" transform="flipY(927.772) flipY(123.652) flipY(450.924) rotate(0 1.4013e-045 1.9569e-039) flipY(519.712) rotate(270 327.167 125.501) rotate(0 1.4013e-045 1.4013e-045) flipX(158.5)"/> 
  <line x1="1165.37" y1="1703.68" x2="1102.24" y2="1703.24" stroke="black" stroke-width="1" transform="rotate(270 500 944.242)"/> 
  <image x="1224.09" y="239.925" width="70" height="70" xlink:href="DS_motor.svg" transform="rotate(180 0 0) flipX(0.000512646) rotate(180 0.000244141 -0.000244141)">
    <title>10KPN10AM001AVL0</title>
    <rt:dyn type="KKS" mode="constant" value="&quot;NULL&quot;"/> 
    <rt:dyn type="DATA_NARY" mode="constant" value="&quot;NONE&quot;"/> 
    <rt:dyn type="Operate" mode="constant" value="true"/> 
    <rt:dyn type="DeviceType" mode="constant" value="&quot;motor&quot;"/> 
  </image>
  <image x="427.628" y="186.06" width="70" height="65" xlink:href="DS_CO_valve.svg" transform="rotate(360 0.000244141 -10.0001)">
    <title>10KPN20AA013</title>
    <rt:dyn type="Operate" mode="constant" value="true"/> 
    <rt:dyn type="KKS" mode="constant" value="&quot;10KPN20AA013&quot;"/> 
    <rt:dyn type="DATA_NARY" mode="constant" value="&quot;TPTS&quot;"/> 
  </image>
  <text x="474.878" y="615.012" font-size="15" font-weight="normal">Дезактивация<tspan x="474.878" dy="15">(1 FKA)</tspan>
  </text>
  <line x1="1029" y1="962.697" x2="1758.82" y2="963.212" stroke="black"/> 
  <line x1="1060.52" y1="41.74" x2="1060.52" y2="92.74" stroke="black" stroke-width="1" transform="rotate(270 1309.23 224.091)"/> 
  <image x="1099.53" y="439.196" width="70" height="70" xlink:href="DS_motor.svg" transform="rotate(180 0 0) flipX(0.000512646) rotate(180 0.000244141 -0.000244141)">
    <title>10KPN10AE001A</title>
    <rt:dyn type="KKS" mode="constant" value="&quot;10KPN10AE001A&quot;"/> 
    <rt:dyn type="DATA_NARY" mode="constant" value="&quot;TPTS&quot;"/> 
    <rt:dyn type="Operate" mode="constant" value="true"/> 
    <rt:dyn type="DeviceType" mode="constant" value="&quot;motor&quot;"/> 
  </image>
  <line x1="1059.73" y1="253.408" x2="1059.73" y2="304.408" stroke="black" stroke-width="1" transform="rotate(270 1309.23 224.091)"/> 
  <image x="1352.15" y="433.697" width="70" height="70" xlink:href="DS_motor.svg" transform="flipX(-0.000454647) rotate(180 0 0) flipX(0.000512646) rotate(180 0.000244141 -0.000244141)">
    <title>10KPN10AE001B</title>
    <rt:dyn type="KKS" mode="constant" value="&quot;10KPN10AE001B&quot;"/> 
    <rt:dyn type="DATA_NARY" mode="constant" value="&quot;TPTS&quot;"/> 
    <rt:dyn type="Operate" mode="constant" value="true"/> 
    <rt:dyn type="DeviceType" mode="constant" value="&quot;motor&quot;"/> 
  </image>
  <text x="1320.22" y="272.573" font-size="15">10KPN10<tspan x="1320.22" dy="15">AM001A</tspan>
  </text>
  <image x="279.693" y="103.394" width="70" height="65" xlink:href="DS_CO_valve.svg" transform="rotate(360 0.000244141 -10.0001)">
    <title>10KPN20AA012</title>
    <rt:dyn type="Operate" mode="constant" value="true"/> 
    <rt:dyn type="KKS" mode="constant" value="&quot;10KPN20AA012&quot;"/> 
    <rt:dyn type="DATA_NARY" mode="constant" value="&quot;TPTS&quot;"/> 
  </image>
  <image x="789.123" y="906.183" width="70" height="65" xlink:href="DS_CO_valve.svg" transform="rotate(270 0.000244141 -10.0001)">
    <title>10KPN20AA109</title>
    <rt:dyn type="DATA_NARY" mode="constant" value="&quot;TPTS&quot;"/> 
    <rt:dyn type="Drive" mode="constant" value="&quot;NONE&quot;"/> 
  </image>
  <image x="646.451" y="906.182" width="70" height="65" xlink:href="DS_CO_valve.svg" transform="rotate(270 0.000244141 -10.0001)">
    <title>10KPN20AA015</title>
    <rt:dyn type="Operate" mode="constant" value="true"/> 
    <rt:dyn type="KKS" mode="constant" value="&quot;10KPN20AA015&quot;"/> 
    <rt:dyn type="DATA_NARY" mode="constant" value="&quot;TPTS&quot;"/> 
  </image>
  <image x="427.628" y="103.394" width="70" height="65" xlink:href="DS_CO_valve.svg" transform="rotate(360 0.000244141 -10.0001)">
    <title>10KPN20AA011</title>
    <rt:dyn type="Operate" mode="constant" value="true"/> 
    <rt:dyn type="KKS" mode="constant" value="&quot;10KPN20AA011&quot;"/> 
    <rt:dyn type="DATA_NARY" mode="constant" value="&quot;TPTS&quot;"/> 
  </image>
  <image x="546.846" y="589.658" width="70" height="65" xlink:href="DS_CO_valve.svg" transform="rotate(360 0.000244141 -10.0001)">
    <title>10KPN20AA029</title>
    <rt:dyn type="Operate" mode="constant" value="true"/> 
    <rt:dyn type="KKS" mode="constant" value="&quot;10KPN20AA029&quot;"/> 
    <rt:dyn type="DATA_NARY" mode="constant" value="&quot;TPTS&quot;"/> 
  </image>
  <polygon points="2033.81,-63.999 2033.81,-44.999 2050.81,-54.999" transform="flipX(1971.68) flipX(2409.04) rotate(90 1.4013e-045 1.9569e-039) flipY(519.712) rotate(270 327.167 125.501) rotate(0 1.4013e-045 1.4013e-045) flipX(158.5)"/> 
  <polygon points="2033.81,-110.333 2033.81,-91.3327 2050.81,-101.333" transform="flipX(1971.68) flipX(2409.04) rotate(90 1.4013e-045 1.9569e-039) flipY(519.712) rotate(270 327.167 125.501) rotate(0 1.4013e-045 1.4013e-045) flipX(158.5)"/> 
  <image x="908.953" y="57.3333" width="70" height="65" xlink:href="DS_CO_valve.svg" transform="rotate(360 0.000244141 -10.0001)">
    <title>10KPN20AA030</title>
    <rt:dyn type="Operate" mode="constant" value="true"/> 
    <rt:dyn type="KKS" mode="constant" value="&quot;10KPN20AA030&quot;"/> 
    <rt:dyn type="DATA_NARY" mode="constant" value="&quot;TPTS&quot;"/> 
  </image>
  <text x="194.167" y="106.114" font-size="15">Из JRO1_4_1</text>
  <text x="193.167" y="154.598" font-size="15">Из JRO1_4_1</text>
  <image x="34.8179" y="89.6365" width="100" height="25" xlink:href="obj_Button.svg">
    <title>jro1_4_1</title>
    <rt:dyn type="Label" mode="constant" value="&quot;JRO1_4_1&quot;"/> 
    <rt:event type="OnClick">LoadNew(&quot;jro1_4_1&quot;)</rt:event>
  </image>
  <image x="34.8179" y="138.121" width="100" height="25" xlink:href="obj_Button.svg">
    <title>jro1_4_1</title>
    <rt:dyn type="Label" mode="constant" value="&quot;jro1_4_1&quot;"/> 
    <rt:event type="OnClick">LoadNew(&quot;JRO1_4_1&quot;)</rt:event>
  </image>
  <line x1="1133.06" y1="314.849" x2="1171.06" y2="314.849" stroke="black" stroke-width="1"/> 
  <image x="1110.45" y="285.47" width="50" height="55" xlink:href="DS_switch.svg">
    <title>10KPN10AM001B</title>
    <rt:dyn type="KKS" mode="constant" value="&quot;10KPN10AM001B&quot;"/> 
    <rt:dyn type="Operate" mode="constant" value="true"/> 
    <rt:dyn type="DATA_NARY" mode="constant" value="&quot;TPTS&quot;"/> 
  </image>
  <line x1="1134.06" y1="361.849" x2="1172.06" y2="361.849" stroke="black" stroke-width="1"/> 
  <image x="1110.45" y="336.955" width="50" height="55" xlink:href="DS_switch.svg">
    <title>10KPN10AM001C</title>
    <rt:dyn type="KKS" mode="constant" value="&quot;10KPN10AM001C&quot;"/> 
    <rt:dyn type="Operate" mode="constant" value="true"/> 
    <rt:dyn type="DATA_NARY" mode="constant" value="&quot;TPTS&quot;"/> 
  </image>
  <line x1="1134.06" y1="414.591" x2="1172.06" y2="414.591" stroke="black" stroke-width="1"/> 
  <image x="1110.45" y="388.016" width="50" height="55" xlink:href="DS_switch.svg">
    <title>10KPN10AM001D</title>
    <rt:dyn type="KKS" mode="constant" value="&quot;10KPN10AM001D&quot;"/> 
    <rt:dyn type="Operate" mode="constant" value="true"/> 
    <rt:dyn type="DATA_NARY" mode="constant" value="&quot;TPTS&quot;"/> 
  </image>
  <image x="1321.44" y="615.341" width="70" height="70" xlink:href="DS_motor.svg" transform="flipX(-0.000454647) rotate(180 0 0) flipX(0.000512646) rotate(180 0.000244141 -0.000244141)">
    <title>10KPN10AE004VL0</title>
    <rt:dyn type="KKS" mode="constant" value="&quot;NULL&quot;"/> 
    <rt:dyn type="DATA_NARY" mode="constant" value="&quot;NONE&quot;"/> 
    <rt:dyn type="Operate" mode="constant" value="true"/> 
    <rt:dyn type="DeviceType" mode="constant" value="&quot;motor&quot;"/> 
  </image>
  <text x="1356" y="697.5" font-size="15">10KPN10<tspan x="1356" dy="15">AE004</tspan>
  </text>
  <text x="1320.24" y="739.258" font-size="15">10KPN10<tspan x="1320.24" dy="15">CG001</tspan>
  </text>
  <rect x="992.78" y="717.073" width="765.954" height="278.881" rx="0" ry="0" fill="none" stroke="black" stroke-dasharray="10,10"/> 
  <line x1="1028.76" y1="976.792" x2="1028.76" y2="949.515" stroke="black" stroke-width="1"/> 
  <line x1="1022.2" y1="976.802" x2="1022.2" y2="949.525" stroke="black" stroke-width="1"/> 
  <rect x="1216.5" y="341.5" width="81.8182" height="7.57581" rx="0" ry="0" fill="none" stroke="black"/> 
  <text x="1681.05" y="741.939" font-size="15">10UKC04R014</text>
  <image x="1043.44" y="678.008" width="175" height="25" xlink:href="DS_ana.svg">
    <title>10KPN10CG003</title>
    <rt:dyn type="FKKS" mode="constant" value="&quot;10KPN10CG003&quot;"/> 
    <rt:dyn type="ShowFrame" mode="constant" value="true"/> 
    <rt:dyn type="Color_Readings" mode="constant" value="true"/> 
    <rt:dyn type="X" mode="constant" value="&quot;G&quot;"/> 
    <rt:dyn type="ValueToTheRight" mode="constant" value="false"/> 
  </image>
  <text x="1275.76" y="982.712" font-size="15">10KPN40CG002</text>
  <image x="1180.94" y="965.212" width="25" height="25" xlink:href="bin_indicator.svg">
    <title>10KPN40CG002_XG01</title>
    <rt:dyn type="PointID" mode="constant" value="&quot;10KPN40CG002_XG01&quot;"/> 
  </image>
  <image x="1542" y="965.212" width="25" height="25" xlink:href="bin_indicator.svg">
    <title>10KPN40CG003_XG01</title>
    <rt:dyn type="PointID" mode="constant" value="&quot;10KPN40CG003_XG01&quot;"/> 
  </image>
  <text x="1242.37" y="367.28" font-size="15">10KPN10AM001</text>
  <text x="975" y="227.591" font-size="15">10KPN20<tspan x="975" dy="15">AA018</tspan>
  </text>
  <text x="943.537" y="126.537" font-size="15">10KPN20<tspan x="943.537" dy="15">AA030</tspan>
  </text>
  <text x="462.628" y="173.409" font-size="15">10KPN20<tspan x="462.628" dy="15">AA011</tspan>
  </text>
  <text x="314.091" y="171.894" font-size="15">10KPN20<tspan x="314.091" dy="15">AA012</tspan>
  </text>
  <text x="462.628" y="255.864" font-size="15">10KPN20<tspan x="462.628" dy="15">AA013</tspan>
  </text>
  <text x="580.819" y="659.613" font-size="15">10KPN20<tspan x="580.819" dy="15">AA029</tspan>
  </text>
  <text x="1072.18" y="311.985" font-size="15">10KPN10<tspan x="1072.18" dy="15">AM001B</tspan>
  </text>
  <text x="1072.18" y="361.985" font-size="15">10KPN10<tspan x="1072.18" dy="15">AM001C</tspan>
  </text>
  <text x="1072.18" y="413.5" font-size="15">10KPN10<tspan x="1072.18" dy="15">AM001D</tspan>
  </text>
  <text x="740.225" y="936.182" font-size="15">10KPN20<tspan x="740.225" dy="15">AA015</tspan>
  </text>
  <text x="881.652" y="936.182" font-size="15">10KPN20<tspan x="881.652" dy="15">AA109</tspan>
  </text>
  <text x="786.965" y="986.178" font-size="15" font-weight="normal">К трапу</text>
  <text x="1133.76" y="515.866" font-size="15">10KPN10<tspan x="1133.76" dy="15">AE001A</tspan>
  </text>
  <text x="1387.17" y="510.988" font-size="15">10KPN10<tspan x="1387.17" dy="15">AE001B</tspan>
  </text>
  <text x="1314.51" y="532.012" font-size="15">10KPN10<tspan x="1314.51" dy="15">AA003</tspan>
  </text>
  <rect x="1239.12" y="727.329" width="39.0244" height="37.8049" rx="0" ry="0" fill="none" stroke="Col_Grey4"/> 
  <image x="1353.48" y="544.561" width="25" height="25" xlink:href="bin_indicator.svg">
    <title>10KPN10CL003_XG01</title>
    <rt:dyn type="PointID" mode="constant" value="&quot;10KPN10CL003_XG01&quot;"/> 
  </image>
  <text x="1430.1" y="561.482" font-size="15">Протечка</text>
  <image x="1171.15" y="410.212" width="175" height="25" xlink:href="DS_ana.svg">
    <title>10KPN10CW001</title>
    <rt:dyn type="FKKS" mode="constant" value="&quot;10KPN10CW001&quot;"/> 
    <rt:dyn type="ShowFrame" mode="constant" value="true"/> 
    <rt:dyn type="Color_Readings" mode="constant" value="true"/> 
    <rt:dyn type="X" mode="constant" value="&quot;W&quot;"/> 
    <rt:dyn type="ValueToTheRight" mode="constant" value="false"/> 
  </image>
  <line x1="1347" y1="390.969" x2="1383.36" y2="390.68" stroke="black" stroke-width="1"/> 
  <line x1="1357.77" y1="756.249" x2="1389.59" y2="756.249" stroke="black" stroke-width="1" transform="rotate(270 1177.58 587.008)"/> 
  <image x="1361" y="379" width="175" height="25" xlink:href="DS_ana.svg">
    <title>10KPN10CR001</title>
    <rt:dyn type="FKKS" mode="constant" value="&quot;10KPN10CR001&quot;"/> 
    <rt:dyn type="ShowFrame" mode="constant" value="true"/> 
    <rt:dyn type="Color_Readings" mode="constant" value="true"/> 
    <rt:dyn type="X" mode="constant" value="&quot;R&quot;"/> 
    <rt:dyn type="ValueToTheRight" mode="constant" value="false"/> 
  </image>
  <text x="579.048" y="262.5" font-size="15">10KPN20<tspan x="579.048" dy="15">BN001</tspan>
  </text>
  <image x="430.07" y="328" width="70" height="65" xlink:href="DS_CO_valve.svg" transform="rotate(360 0.000244141 -10.0001)">
    <title>10KPN20AA014</title>
    <rt:dyn type="Operate" mode="constant" value="true"/> 
    <rt:dyn type="KKS" mode="constant" value="&quot;10KPN20AA014&quot;"/> 
    <rt:dyn type="DATA_NARY" mode="constant" value="&quot;TPTS&quot;"/> 
  </image>
  <text x="464.913" y="397.804" font-size="15">10KPN20<tspan x="464.913" dy="15">AA014</tspan>
  </text>
  <text x="580.048" y="405.501" font-size="15">10KPN20<tspan x="580.048" dy="15">BN002</tspan>
  </text>
  <image x="942.243" y="242" width="70" height="65" xlink:href="DS_CO_valve.svg" transform="rotate(360 0.000244141 -10.0001)">
    <title>10KPN20AA019</title>
    <rt:dyn type="Operate" mode="constant" value="true"/> 
    <rt:dyn type="KKS" mode="constant" value="&quot;10KPN20AA019&quot;"/> 
    <rt:dyn type="DATA_NARY" mode="constant" value="&quot;TPTS&quot;"/> 
  </image>
  <text x="978" y="312.591" font-size="15">10KPN20<tspan x="978" dy="15">AA019</tspan>
  </text>
  <image x="991.24" y="551" width="70" height="65" xlink:href="DS_CO_valve.svg" transform="rotate(360 0.000244141 -10.0001)">
    <title>10KPN20AA017</title>
    <rt:dyn type="Operate" mode="constant" value="true"/> 
    <rt:dyn type="KKS" mode="constant" value="&quot;10KPN20AA017&quot;"/> 
    <rt:dyn type="DATA_NARY" mode="constant" value="&quot;TPTS&quot;"/> 
  </image>
  <text x="1026.77" y="621.988" font-size="15">10KPN20<tspan x="1026.77" dy="15">AA017</tspan>
  </text>
  <image x="941.243" y="157" width="70" height="65" xlink:href="DS_CO_valve.svg" transform="rotate(360 0.000244141 -10.0001)">
    <title>10KPN20AA018</title>
    <rt:dyn type="Operate" mode="constant" value="true"/> 
    <rt:dyn type="KKS" mode="constant" value="&quot;10KPN20AA018&quot;"/> 
    <rt:dyn type="DATA_NARY" mode="constant" value="&quot;TPTS&quot;"/> 
  </image>
  <line x1="1073.24" y1="1098.24" x2="774.242" y2="1098.24" stroke="black" stroke-width="1" transform="rotate(270 500 944.242)"/> 
  <path d="M-336.754 -139.62 A8.80483 8.80483 0 1 1 -336.754 -122.01 " fill="none" stroke="black" stroke-width="1" transform="flipX(560.7) rotate(360 1.4013e-045 4.33918e-039) matrix(-1 3.67394e-016 3.67394e-016 1 130.612 414.62)"/> 
  <rect x="1559.12" y="765.012" width="103.03" height="127.273" rx="0" ry="0" fill="Col_Grey2" stroke="black"/> 
  <rect x="1593.64" y="765.012" width="34" height="15" rx="0" ry="0" fill="Col_BGSand" stroke="black"/> 
  <circle cx="1567.88" cy="947.78" r="15.3352" fill="Col_Grey3" stroke="black"/> 
  <circle cx="1663.52" cy="947.78" r="15.3352" fill="Col_Grey3" stroke="black"/> 
  <rect x="1207.12" y="764.573" width="103.03" height="127.273" rx="0" ry="0" fill="Col_Grey2" stroke="black"/> 
  <rect x="1241.64" y="764.573" width="34" height="15" rx="0" ry="0" fill="Col_BGSand" stroke="black"/> 
  <circle cx="1217.88" cy="947.342" r="15.3352" fill="Col_Grey3" stroke="black"/> 
  <circle cx="1313.52" cy="947.342" r="15.3352" fill="Col_Grey3" stroke="black"/> 
  <text x="1635.78" y="982.712" font-size="15">10KPN40CG003</text>
  <polyline points="1156,886 1106,886 1106,847" fill="none" stroke="black"/> 
  <image x="1003.22" y="821.82" width="175" height="25" xlink:href="DS_ana.svg">
    <title>10KPN40CW001</title>
    <rt:dyn type="FKKS" mode="constant" value="&quot;10KPN40CW001&quot;"/> 
    <rt:dyn type="ShowFrame" mode="constant" value="true"/> 
    <rt:dyn type="Color_Readings" mode="constant" value="true"/> 
    <rt:dyn type="X" mode="constant" value="&quot;W&quot;"/> 
    <rt:dyn type="ValueToTheRight" mode="constant" value="false"/> 
  </image>
  <path d="M607.549 862.504 L607.549 693.602 Q693.489 618.078 782.55 693.602 L782.55 868.602 Q694.428 928.358 607.549 862.504 Z" fill="Col_Grey3" stroke="black" stroke-width="2"/> 
  <image x="608.39" y="838.725" width="175" height="25" xlink:href="DS_ana.svg">
    <title>10KPN10CL001</title>
    <rt:dyn type="FKKS" mode="constant" value="&quot;10KPN10CL001&quot;"/> 
    <rt:dyn type="ShowFrame" mode="constant" value="true"/> 
    <rt:dyn type="Color_Readings" mode="constant" value="true"/> 
    <rt:dyn type="X" mode="constant" value="&quot;L&quot;"/> 
    <rt:dyn type="ValueToTheRight" mode="constant" value="false"/> 
  </image>
  <image x="752.69" y="725.907" width="30" height="105" xlink:href="DS_ana_bar.svg">
    <title>10KPN10CL001</title>
    <rt:dyn type="FKKS" mode="constant" value="&quot;10KPN10CL001&quot;"/> 
  </image>
  <image x="715.122" y="802.439" width="25" height="25" xlink:href="bin_indicator.svg">
    <title>10KPN10CL002_XG01</title>
    <rt:dyn type="PointID" mode="constant" value="&quot;10KPN10CL002_XG01&quot;"/> 
  </image>
  <text x="691.805" y="705.793" font-size="15">10KPN10BB001</text>
  <line x1="693.171" y1="879.268" x2="693.171" y2="879.268" stroke="black"/> 
  <line x1="357" y1="146" x2="357" y2="650" stroke="black" stroke-width="3"/> 
  <g>
    <polygon points="2605.72,210.015 2606.27,246.669 2664.79,226.829 2663.6,228.002" fill="Col_Grey3" stroke="black" transform="flipX(1609.14)"/> 
    <circle cx="560.144" cy="228.344" r="9.09094" fill="Col_Grey3" stroke="black" stroke-width="1"/> 
  </g>
  <g>
    <polygon points="2608.72,352.016 2609.27,388.67 2666.6,370.003 2666.6,370.003" fill="Col_Grey3" stroke="black" transform="flipX(1609.14)"/> 
    <circle cx="560.14" cy="370.345" r="9.09094" fill="Col_Grey3" stroke="black" stroke-width="1"/> 
  </g>
  <line x1="654" y1="293" x2="654" y2="373" stroke="black"/> 
  <image x="1782.09" y="71.584" width="130" height="25" xlink:href="obj_Button.svg">
    <title>&quot;10kpn10ec002&quot;</title>
    <rt:dyn type="Label" mode="constant" value="&quot;10KPN10EC002&quot;"/> 
    <rt:event type="OnClick">LoadNew(&quot;10kpn10ec002_m1-5&quot;)</rt:event>
  </image>
  <image x="1782.09" y="34.5508" width="130" height="25" xlink:href="obj_Button.svg">
    <title>&quot;10kpn00ec001&quot;</title>
    <rt:dyn type="Label" mode="constant" value="&quot;10KPN00EC001&quot;"/> 
    <rt:event type="OnClick">LoadNew(&quot;10kpn00ec001_m1-6&quot;)</rt:event>
  </image>
  <image x="1782.09" y="109.09" width="130" height="25" xlink:href="obj_Button.svg">
    <title>&quot;10kpn10ec003&quot;</title>
    <rt:dyn type="Label" mode="constant" value="&quot;10KPN10EC003&quot;"/> 
    <rt:event type="OnClick">LoadNew(&quot;10kpn10ec003_m1-4&quot;)</rt:event>
  </image>
  <image x="1171.22" y="376.829" width="171" height="27" xlink:href="ps_nvo2_multybin_indicator_txt.svg">
    <title>10KPN10EU001</title>
    <rt:dyn type="KKS" mode="constant" value="&quot;10KPN10EU001&quot;"/> 
    <rt:dyn type="Suffix1" mode="constant" value="&quot;ZV01&quot;"/> 
    <rt:dyn type="Suffix2" mode="constant" value="&quot;ZV02&quot;"/> 
    <rt:dyn type="Suffix3" mode="constant" value="&quot;ZV03&quot;"/> 
    <rt:dyn type="Suffix4" mode="constant" value="&quot;ZV04&quot;"/> 
    <rt:dyn type="Suffix5" mode="constant" value="&quot;ZV05&quot;"/> 
    <rt:dyn type="Suffix6" mode="constant" value="&quot;ZV06&quot;"/> 
    <rt:dyn type="Suffix7" mode="constant" value="&quot;ZV07&quot;"/> 
    <rt:dyn type="Suffix8" mode="constant" value="&quot;ZV08&quot;"/> 
    <rt:dyn type="Suffix9" mode="constant" value="&quot;ZV09&quot;"/> 
    <rt:dyn type="Suffix10" mode="constant" value="&quot;ZV10&quot;"/> 
    <rt:dyn type="Suffix11" mode="constant" value="&quot;ZV11&quot;"/> 
    <rt:dyn type="T_String1" mode="constant" value="&quot;ГОТОВ К ЦЕМЕНТИР.&quot;"/> 
    <rt:dyn type="T_String2" mode="constant" value="&quot;ШЛАМ 20AT001 В СМЕСИТЕЛЕ&quot;"/> 
    <rt:dyn type="T_String3" mode="constant" value="&quot;ШЛАМ 20AT002 В СМЕСИТЕЛЕ&quot;"/> 
    <rt:dyn type="T_String4" mode="constant" value="&quot;СВЯЗУЮЩИЕ В СМЕСИТЕЛЕ&quot;"/> 
    <rt:dyn type="T_String5" mode="constant" value="&quot;ПЕРЕМЕШИВАНИЕ&quot;"/> 
    <rt:dyn type="T_String6" mode="constant" value="&quot;ВЫГРУЗКА КОМПАУНДА&quot;"/> 
    <rt:dyn type="T_String7" mode="constant" value="&quot;ПРЕДВАРИТЕЛЬНАЯ ПРОМЫВКА&quot;"/> 
    <rt:dyn type="T_String8" mode="constant" value="&quot;ПРОМЫВКА&quot;"/> 
    <rt:dyn type="T_String9" mode="constant" value="&quot;ДЕЗАКТИВАЦИЯ&quot;"/> 
    <rt:dyn type="T_String10" mode="constant" value="&quot;ОЖИДАНИЕ&quot;"/> 
    <rt:dyn type="T_String11" mode="constant" value="&quot;ДИСТ. РЕЖИМ&quot;"/> 
    <rt:dyn type="T_Size" mode="constant" value="13"/> 
  </image>
  <image x="1682" y="667.073" width="130" height="25" xlink:href="obj_Button.svg">
    <title>&quot;10kpn40ec001&quot;</title>
    <rt:dyn type="Label" mode="constant" value="&quot;10KPN40EC001&quot;"/> 
    <rt:event type="OnClick">LoadNew(&quot;10kpn40ec001_m1-7&quot;)</rt:event>
  </image>
  <image x="1246.14" y="612.195" width="25" height="25" xlink:href="bin_indicator.svg">
    <title>10KPN10CG006_XG01</title>
    <rt:dyn type="PointID" mode="constant" value="&quot;10KPN10CG006_XG01&quot;"/> 
  </image>
  <rect x="1220" y="503.659" width="56.0975" height="59.7561" rx="0" ry="0" fill="none" stroke="black"/> 
  <image x="1828.54" y="948.781" width="50" height="25" xlink:href="bin_indicator_txt.svg">
    <title>&quot;10KPN40AE001_ZV15&quot;</title>
    <rt:dyn type="T_String" mode="onchange" value="BIN(&quot;10KPN40AE001_ZV15&quot;).Value" trans="bt">
      <rt:xy value="false" value2="ДИСТ"/> 
      <rt:xy value2="АВТ"/> 
    </rt:dyn>
    <rt:dyn type="Col_ON" mode="constant" value="&quot;Col_Green&quot;"/> 
    <rt:dyn type="Col_OFF" mode="constant" value="&quot;Col_Red&quot;"/> 
    <rt:dyn type="PointID" mode="constant" value="&quot;10KPN40AE001_ZV15&quot;"/> 
  </image>
  <image x="1061.75" y="436.25" width="25" height="25" xlink:href="bin_indicator.svg">
    <title>10KPN10CG001_XG01</title>
    <rt:dyn type="PointID" mode="constant" value="&quot;10KPN10CG001_XG01&quot;"/> 
  </image>
  <image x="1061.75" y="463.25" width="25" height="25" xlink:href="bin_indicator.svg">
    <title>10KPN10CG004_XG01</title>
    <rt:dyn type="PointID" mode="constant" value="&quot;10KPN10CG004_XG01&quot;"/> 
  </image>
  <image x="1061.75" y="490" width="25" height="25" xlink:href="bin_indicator.svg">
    <title>10KPN10CG007_XG01</title>
    <rt:dyn type="PointID" mode="constant" value="&quot;10KPN10CG007_XG01&quot;"/> 
  </image>
  <text x="1027" y="505.938" font-size="15" text-anchor="middle">Авария 1</text>
  <text x="1036" y="453.313" font-size="15" text-anchor="middle">Верх 1</text>
  <text x="1034.75" y="479.813" font-size="15" text-anchor="middle">Пром 1</text>
  <image x="1433.88" y="436.25" width="25" height="25" xlink:href="bin_indicator.svg">
    <title>10KPN10CG002_XG01</title>
    <rt:dyn type="PointID" mode="constant" value="&quot;10KPN10CG002_XG01&quot;"/> 
  </image>
  <image x="1433.88" y="463.25" width="25" height="25" xlink:href="bin_indicator.svg">
    <title>10KPN10CG005_XG01</title>
    <rt:dyn type="PointID" mode="constant" value="&quot;10KPN10CG005_XG01&quot;"/> 
  </image>
  <image x="1433.88" y="490" width="25" height="25" xlink:href="bin_indicator.svg">
    <title>10KPN10CG008_XG01</title>
    <rt:dyn type="PointID" mode="constant" value="&quot;10KPN10CG008_XG01&quot;"/> 
  </image>
  <text x="1494.88" y="505.938" font-size="15" text-anchor="middle">Авария 2</text>
  <text x="1485.88" y="453.313" font-size="15" text-anchor="middle">Верх 2</text>
  <text x="1487.13" y="479.813" font-size="15" text-anchor="middle">Пром 2</text>
  <text x="1777.33" y="44.5508" font-size="15" font-weight="normal" text-anchor="end">ПУ цементированием<tspan x="1777.33" dy="15">ЖРО 10KPN</tspan>
  </text>
  <text x="1777.33" y="81.584" font-size="15" font-weight="normal" text-anchor="end">ПУ промывкой<tspan x="1777.33" dy="15">смесителя 10KPN10AM001</tspan>
  </text>
  <text x="1777.33" y="119.09" font-size="15" font-weight="normal" text-anchor="end">ПУ дезактивацией<tspan x="1777.33" dy="15">смесителя 10KPN10AM001</tspan>
  </text>
  <text x="1747" y="648.5" font-size="15" font-weight="normal" text-anchor="middle">ПУ транспортным<tspan x="1747" dy="15">блоком 10KPN10AM001</tspan>
  </text>
  <rect x="1248.64" y="736.231" width="20" height="20" rx="0" ry="0" fill="Col_Grey2" stroke="black"/> 
  <text x="1204" y="629" font-size="15" text-anchor="middle">Низ 1 и 2</text>
  <text x="453.318" y="708.619" font-size="15" text-anchor="middle">10KPN20<tspan x="453.318" dy="15">AA010</tspan>
  </text>
  <text x="253.319" y="708.619" font-size="15" text-anchor="middle">10KPN20<tspan x="253.319" dy="15">AA009</tspan>
  </text>
  <text x="260.499" y="863.258" font-size="15" text-anchor="middle">10KPN20<tspan x="260.499" dy="15">AP001</tspan>
  </text>
  <image x="110.757" y="762" width="175" height="25" xlink:href="DS_ana.svg">
    <title>10KPN20CP002</title>
    <rt:dyn type="FKKS" mode="constant" value="&quot;10KPN20CP002&quot;"/> 
    <rt:dyn type="ShowFrame" mode="constant" value="true"/> 
    <rt:dyn type="Color_Readings" mode="constant" value="true"/> 
    <rt:dyn type="X" mode="constant" value="&quot;P&quot;"/> 
    <rt:dyn type="ValueToTheRight" mode="constant" value="false"/> 
    <rt:dyn type="Base_Backgr_Color" mode="constant" value="&quot;Col_BGSand&quot;"/> 
  </image>
  <image x="326" y="762" width="175" height="25" xlink:href="DS_ana.svg">
    <title>10KPN20CP003</title>
    <rt:dyn type="FKKS" mode="constant" value="&quot;10KPN20CP003&quot;"/> 
    <rt:dyn type="ShowFrame" mode="constant" value="true"/> 
    <rt:dyn type="Color_Readings" mode="constant" value="true"/> 
    <rt:dyn type="X" mode="constant" value="&quot;P&quot;"/> 
    <rt:dyn type="ValueToTheRight" mode="constant" value="false"/> 
    <rt:dyn type="Base_Backgr_Color" mode="constant" value="&quot;Col_BGSand&quot;"/> 
  </image>
  <image x="356.318" y="678.619" width="70" height="65" xlink:href="DS_CO_valve.svg" transform="rotate(270 1.52588e-005 -10)">
    <title>10KPN20AA010</title>
    <rt:dyn type="DATA_NARY" mode="constant" value="&quot;TPTS&quot;"/> 
    <rt:dyn type="KKS" mode="constant" value="&quot;10KPN20AA010&quot;"/> 
    <rt:dyn type="Operate" mode="constant" value="true"/> 
  </image>
  <image x="155.94" y="678.619" width="70" height="65" xlink:href="DS_CO_valve.svg" transform="rotate(270 1.52588e-005 -10)">
    <title>10KPN20AA009</title>
    <rt:dyn type="DATA_NARY" mode="constant" value="&quot;TPTS&quot;"/> 
    <rt:dyn type="KKS" mode="constant" value="&quot;10KPN20AA009&quot;"/> 
    <rt:dyn type="Operate" mode="constant" value="true"/> 
  </image>
  <image x="163.659" y="830.049" width="70" height="70" xlink:href="DS_motor.svg" transform="rotate(90 0 0) flipY(2.55437e-005) rotate(180 3.05176e-005 0)">
    <title>10KPN20AP001VL0</title>
    <rt:dyn type="DeviceType" mode="constant" value="&quot;pump&quot;"/> 
    <rt:dyn type="KKS" mode="constant" value="&quot;10KPN20AP001VL0&quot;"/> 
    <rt:dyn type="DATA_NARY" mode="constant" value="&quot;TYPE1&quot;"/> 
    <rt:dyn type="Operate" mode="constant" value="true"/> 
    <rt:dyn type="IsDoser" mode="constant" value="TRUE"/> 
  </image>
  <image x="286" y="911" width="60" height="45" xlink:href="DS_TPTS_AVR_sel.svg">
    <title>10KPN20ED001</title>
    <rt:dyn type="KKS" mode="constant" value="&quot;10KPN20ED001&quot;"/> 
    <rt:dyn type="VL_type" mode="constant" value="&quot;1o2&quot;"/> 
    <rt:dyn type="Operate" mode="constant" value="TRUE"/> 
  </image>
  <image x="208" y="806" width="65" height="25" xlink:href="DS_Reg_degree.svg">
    <title>10KPN20AP001_XQ08</title>
    <rt:dyn type="KKS" mode="constant" value="&quot;10KPN20AP001&quot;"/> 
    <rt:dyn type="SIGNAL" mode="constant" value="&quot;XQ08&quot;"/> 
    <rt:dyn type="Color_Readings" mode="constant" value="TRUE"/> 
  </image>
  <text x="462.499" y="863.383" font-size="15" text-anchor="middle">10KPN20<tspan x="462.499" dy="15">AP002</tspan>
  </text>
  <image x="365.659" y="830.174" width="70" height="70" xlink:href="DS_motor.svg" transform="rotate(90 0 0) flipY(2.55437e-005) rotate(180 3.05176e-005 0)">
    <title>10KPN20AP002VL0</title>
    <rt:dyn type="DeviceType" mode="constant" value="&quot;pump&quot;"/> 
    <rt:dyn type="KKS" mode="constant" value="&quot;10KPN20AP002VL0&quot;"/> 
    <rt:dyn type="DATA_NARY" mode="constant" value="&quot;TYPE1&quot;"/> 
    <rt:dyn type="Operate" mode="constant" value="true"/> 
    <rt:dyn type="IsDoser" mode="constant" value="TRUE"/> 
  </image>
  <image x="408" y="806.125" width="65" height="25" xlink:href="DS_Reg_degree.svg">
    <title>10KPN20AP002_XQ08</title>
    <rt:dyn type="KKS" mode="constant" value="&quot;10KPN20AP002&quot;"/> 
    <rt:dyn type="SIGNAL" mode="constant" value="&quot;XQ08&quot;"/> 
    <rt:dyn type="Color_Readings" mode="constant" value="TRUE"/> 
  </image>
  <image x="1319" y="334.5" width="25" height="25" xlink:href="bin_indicator.svg">
    <title>10KPN10AM001A_XG01</title>
    <rt:dyn type="PointID" mode="constant" value="&quot;10KPN10AM001A_XG01&quot;"/> 
  </image>
  <text x="1312" y="328.5" font-size="15" text-anchor="middle">Неиспр.</text>
  <image x="409.5" y="903" width="37.5" height="37.5" xlink:href="DS_Reg_pump.svg" transform="rotate(0 37.5 37.5)">
    <title>10KPN20AP002</title>
    <rt:dyn type="KKS" mode="constant" value="&quot;10KPN20AP002&quot;"/> 
    <rt:dyn type="Outlet_dir" mode="constant" value="&quot;BT&quot;"/> 
    <rt:dyn type="DATA_NARY" mode="constant" value="&quot;TPTS&quot;"/> 
    <rt:dyn type="Operate" mode="constant" value="true"/> 
    <rt:dyn type="NoSP" mode="constant" value="false"/> 
  </image>
  <image x="146" y="903" width="37.5" height="37.5" xlink:href="DS_Reg_pump.svg" transform="rotate(0 37.5 37.5)">
    <title>10KPN20AP001</title>
    <rt:dyn type="KKS" mode="constant" value="&quot;10KPN20AP001&quot;"/> 
    <rt:dyn type="Outlet_dir" mode="constant" value="&quot;BT&quot;"/> 
    <rt:dyn type="DATA_NARY" mode="constant" value="&quot;TPTS&quot;"/> 
    <rt:dyn type="Operate" mode="constant" value="true"/> 
    <rt:dyn type="NoSP" mode="constant" value="false"/> 
  </image>
  <path d="M-90.7881 -139.62 A8.80483 8.80483 0 1 1 -90.7881 -122.01 " fill="none" stroke="black" stroke-width="1" transform="flipX(560.7) rotate(360 1.4013e-045 4.33918e-039) matrix(-1 3.67394e-016 3.67394e-016 1 130.612 414.62)"/> 
  <line x1="900" y1="199" x2="900" y2="275" stroke="black"/> 
  <image x="1392" y="615" width="25" height="25" xlink:href="bin_indicator.svg">
    <title>10KPN10AE004_XG01</title>
    <rt:dyn type="PointID" mode="constant" value="&quot;10KPN10AE004_XG01&quot;"/> 
  </image>
  <text x="1422" y="654.5" font-size="15" text-anchor="middle">Неиспр.</text>
  <polyline points="1155.98,937.342 1367.48,938.342 1367.48,863.342 1349.98,863.342 1350.08,888.342 1173.26,888.342 1173.48,863.342 1155.48,863.342 1155.98,937.342" fill="Col_Grey3" stroke="black"/> 
  <image x="1358" y="275" width="160" height="75" xlink:href="DS_TPTS_VL_spec.svg">
    <title>10KPN10AM001AVL0</title>
    <rt:dyn type="KKS" mode="constant" value="&quot;10KPN10AM001AVL0&quot;"/> 
    <rt:dyn type="Operate" mode="constant" value="TRUE"/> 
    <rt:dyn type="OneLine" mode="constant" value="FALSE"/> 
  </image>
  <image x="1450" y="613" width="160" height="75" xlink:href="DS_TPTS_VL_spec.svg">
    <title>10KPN10AE004VL0</title>
    <rt:dyn type="KKS" mode="constant" value="&quot;10KPN10AE004VL0&quot;"/> 
    <rt:dyn type="Operate" mode="constant" value="TRUE"/> 
    <rt:dyn type="OneLine" mode="constant" value="FALSE"/> 
  </image>
  <polyline points="1505.98,937.78 1717.48,938.78 1717.48,863.78 1699.98,863.78 1700.08,888.78 1523.26,888.78 1523.48,863.78 1505.48,863.78 1505.98,937.78" fill="Col_Grey3" stroke="black"/> 
  <text x="1264.51" y="918" font-size="15" text-anchor="middle">10KPN40AE001</text>
  <image x="1161.06" y="899.66" width="25" height="25" xlink:href="bin_indicator.svg">
    <title>10KPN40EU001_ZV01</title>
    <rt:dyn type="PointID" mode="constant" value="&quot;10KPN40EU001_ZV01&quot;"/> 
  </image>
  <text x="1612" y="918" font-size="15" text-anchor="middle">10KPN40AE001</text>
  <image x="1511.06" y="899.66" width="25" height="25" xlink:href="bin_indicator.svg">
    <title>10KPN40EU001_ZV02</title>
    <rt:dyn type="PointID" mode="constant" value="&quot;10KPN40EU001_ZV02&quot;"/> 
  </image>
  <image x="1097.5" y="642.165" width="50" height="25" xlink:href="bin_indicator_txt.svg">
    <title>10KPN10CG003_XH09</title>
    <rt:dyn type="PointID" mode="constant" value="&quot;10KPN10CG003_XH09&quot;"/> 
    <rt:dyn type="Col_ON" mode="constant" value="&quot;Col_Red&quot;"/> 
    <rt:dyn type="T_String" mode="constant" value="&quot;Ожид.&quot;"/> 
    <rt:dyn type="T_Font" mode="constant" value="&quot;Verdana&quot;"/> 
    <rt:dyn type="BitMask" mode="constant" value="01"/> 
  </image>
  <image x="1158.56" y="642.165" width="50" height="25" xlink:href="bin_indicator_txt.svg">
    <title>10KPN10CG003_XH07</title>
    <rt:dyn type="PointID" mode="constant" value="&quot;10KPN10CG003_XH07&quot;"/> 
    <rt:dyn type="Col_ON" mode="constant" value="&quot;Col_Red&quot;"/> 
    <rt:dyn type="T_String" mode="constant" value="&quot;Сред.&quot;"/> 
    <rt:dyn type="T_Font" mode="constant" value="&quot;Verdana&quot;"/> 
    <rt:dyn type="BitMask" mode="constant" value="10"/> 
  </image>
  <image x="1218.93" y="641.5" width="78" height="25.6649" xlink:href="bin_indicator_txt.svg">
    <title>10KPN10CG003_XH58</title>
    <rt:dyn type="PointID" mode="constant" value="&quot;10KPN10CG003_XH58&quot;"/> 
    <rt:dyn type="Col_ON" mode="constant" value="&quot;Col_Red&quot;"/> 
    <rt:dyn type="T_String" mode="constant" value="&quot;Стыковка&quot;"/> 
    <rt:dyn type="T_Font" mode="constant" value="&quot;Verdana&quot;"/> 
    <rt:dyn type="BitMask" mode="constant" value="00"/> 
  </image>
</svg>
