<?xml  version="1.0" encoding="windows-1251"?>
<svg color="Col_BGSand" xmlns="http://www.w3.org/2000/svg" xmlns:rt="http://www.rts.co.at/2001/XMLSchema/RtSvgPL" xmlns:xlink="http://www.w3.org/1999/xlink" xmlns:xsi="http://www.w3.org/2001/XMLSchema-instance" xsi:schemaLocation="http://www.w3.org/2000/svg C:\RTS\RtSvg\XML\SVG.xsd" viewBox="0 0 1914 1000" width="1914" height="1000" id="kla22_42">
  <title>Система вентиляции зданий</title>
  <rt:model modelversion="7.2.0.23" comment="Создано  19.03.2012 11:58:10"/> 
  <line x1="1755" y1="155.879" x2="1755" y2="368.03" stroke="black" stroke-width="3"/> 
  <line x1="1835.83" y1="261.954" x2="1756.09" y2="261.954" stroke="black" stroke-width="3"/> 
  <text x="960.909" y="64.4244" font-size="32" text-anchor="middle">
    <title>Система вентиляции зданий</title>
10KLA22/42EJ101</text>
  <line x1="1791.09" y1="454.545" x2="1791.09" y2="454.545" stroke="black"/> 
  <line x1="296.197" y1="176" x2="296.197" y2="558" stroke="black" stroke-width="3"/> 
  <line x1="1757" y1="158.181" x2="1610.03" y2="158.181" stroke="black" stroke-width="3"/> 
  <line x1="1619.12" y1="176.697" x2="296.197" y2="176.697" stroke="black" stroke-width="3"/> 
  <g transform="flipX(1829.73) flipX(1092.61) rotate(270 1446.39 199.242) flipY(189.5) flipY(776.515) rotate(330 1212.44 532.643)">
    <g>
      <polygon points="1063.25,335.657 1076.63,343.307 1076.63,328.017 1063.25,335.657" fill="black" stroke="black" stroke-width="1" transform="rotate(180 1279.17 367.814)"/> 
    </g>
  </g>
  <line x1="848.452" y1="60.5496" x2="848.452" y2="262.55" stroke="black" transform="rotate(90 689.25 117.497)"/> 
  <text x="1571.37" y="225.606" font-size="15">10KLA22<tspan x="1571.37" dy="15">AN001</tspan>
  </text>
  <image x="1566.09" y="140.243" width="70" height="70" xlink:href="DS_motor.svg" transform="flipY(-0.00012207) rotate(90 0 0) flipX(-0.00012207) rotate(270 -0.00012207 0)">
    <title>10KLA22AN001</title>
    <rt:dyn type="KKS" mode="constant" value="&quot;10KLA22AN001&quot;"/> 
    <rt:dyn type="DATA_NARY" mode="constant" value="&quot;TPTS&quot;"/> 
    <rt:dyn type="Operate" mode="constant" value="true"/> 
    <rt:dyn type="DeviceType" mode="constant" value="&quot;fan&quot;"/> 
  </image>
  <text x="490.197" y="235.697" fill="black" font-size="15" text-anchor="middle">10KLA22<tspan x="490.197" dy="15">AH001</tspan>
  </text>
  <image x="318.771" y="124.636" width="70" height="65" xlink:href="DS_CO_valve.svg" transform="rotate(270 6.32897e-005 4.4512e-005) flipY(-10.0001) rotate(90 -0.00012207 -10.0001)">
    <title>10KLA22AA001</title>
    <rt:dyn type="KKS" mode="constant" value="&quot;10KLA22AA001&quot;"/> 
    <rt:dyn type="DATA_NARY" mode="constant" value="&quot;TPTS&quot;"/> 
    <rt:dyn type="Operate" mode="constant" value="true"/> 
  </image>
  <text x="347.197" y="212.697" fill="black" font-size="15" text-anchor="middle">10KLA22<tspan x="347.197" dy="15">AA001</tspan>
  </text>
  <g>
    <rect x="573.237" y="162.926" width="65" height="65" rx="0" ry="0" fill="Col_Grey4" transform="rotate(360 532.506 746.174) rotate(0 532.1 745.087) rotate(314.645 525.5 325)"/> 
    <line x1="489.704" y1="134.371" x2="489.704" y2="220.735" stroke="black" stroke-dasharray="5,5"/> 
    <line x1="1432.01" y1="-666.553" x2="1405.48" y2="-666.553" stroke="black" stroke-width="12" transform="rotate(270 1375.94 219.682)"/> 
  </g>
  <g>
    <rect x="648.436" y="237.639" width="65" height="65" rx="0" ry="0" fill="Col_Grey4" transform="rotate(360 532.506 746.174) rotate(0 532.1 745.087) rotate(314.645 525.5 325)"/> 
    <line x1="595.703" y1="133.371" x2="595.703" y2="219.735" stroke="black" stroke-dasharray="5,5"/> 
  </g>
  <g>
    <rect x="718.708" y="308.786" width="65" height="65" rx="0" ry="0" fill="Col_Grey4" transform="rotate(360 532.506 746.174) rotate(0 532.1 745.087) rotate(314.645 525.5 325)"/> 
    <line x1="695.703" y1="133.371" x2="695.703" y2="219.735" stroke="black" stroke-dasharray="5,5"/> 
  </g>
  <g>
    <rect x="820.592" y="413.365" width="65" height="65" rx="0" ry="0" fill="Col_Grey4" transform="rotate(360 532.506 746.174) rotate(0 532.1 745.087) rotate(314.645 525.5 325)"/> 
    <line x1="841.703" y1="134.371" x2="841.703" y2="220.735" stroke="black" stroke-dasharray="5,5"/> 
  </g>
  <g>
    <rect x="963.946" y="558.505" width="65" height="65" rx="0" ry="0" fill="Col_Grey4" transform="rotate(360 532.506 746.174) rotate(0 532.1 745.087) rotate(314.645 525.5 325)"/> 
    <line x1="1045.7" y1="134.371" x2="1045.7" y2="220.735" stroke="black" stroke-dasharray="5,5"/> 
  </g>
  <circle cx="324.755" cy="867.65" r="3.14044" fill="black" stroke="black" stroke-width="1" transform="flipY() translate(0 -828) translate(219.956 -216.972)"/> 
  <circle cx="525.755" cy="867.65" r="3.14044" fill="black" stroke="black" stroke-width="1" transform="flipY() translate(0 -828) translate(219.956 -216.972)"/> 
  <line x1="544.667" y1="178.697" x2="544.667" y2="277.394" stroke="black"/> 
  <circle cx="549.755" cy="867.65" r="3.14044" fill="black" stroke="black" stroke-width="1" transform="flipY() translate(0 -828) translate(219.956 -216.972)"/> 
  <line x1="944.546" y1="107.182" x2="944.546" y2="178.334" stroke="black"/> 
  <circle cx="694.755" cy="867.65" r="3.14044" fill="black" stroke="black" stroke-width="1" transform="flipY() translate(0 -828) translate(219.956 -216.972)"/> 
  <image x="857.046" y="98.182" width="175" height="25" xlink:href="DS_ana.svg">
    <title>10KLA22CT001</title>
    <rt:dyn type="FKKS" mode="constant" value="&quot;10KLA22CT001&quot;"/> 
    <rt:dyn type="ShowFrame" mode="constant" value="true"/> 
    <rt:dyn type="X" mode="constant" value="&quot;T&quot;"/> 
    <rt:dyn type="Color_Readings" mode="constant" value="true"/> 
    <rt:dyn type="ValueToTheRight" mode="constant" value="false"/> 
  </image>
  <circle cx="724.603" cy="867.65" r="3.14044" fill="black" stroke="black" stroke-width="1" transform="flipY() translate(0 -828) translate(219.956 -216.972)"/> 
  <circle cx="752.755" cy="867.65" r="3.14044" fill="black" stroke="black" stroke-width="1" transform="flipY() translate(0 -828) translate(219.956 -216.972)"/> 
  <circle cx="896.755" cy="867.65" r="3.14044" fill="black" stroke="black" stroke-width="1" transform="flipY() translate(0 -828) translate(219.956 -216.972)"/> 
  <line x1="1228.73" y1="105.697" x2="1228.73" y2="176.849" stroke="black"/> 
  <image x="1141.23" y="98.182" width="175" height="25" xlink:href="DS_ana.svg">
    <title>10KLA22CR203</title>
    <rt:dyn type="FKKS" mode="constant" value="&quot;10KLA22CR203&quot;"/> 
    <rt:dyn type="ShowFrame" mode="constant" value="true"/> 
    <rt:dyn type="X" mode="constant" value="&quot;R&quot;"/> 
    <rt:dyn type="Color_Readings" mode="constant" value="true"/> 
    <rt:dyn type="ValueToTheRight" mode="constant" value="false"/> 
  </image>
  <image x="1276.5" y="123.727" width="70" height="65" xlink:href="DS_CO_valve.svg" transform="rotate(270 6.32897e-005 4.4512e-005) flipY(-10.0001) rotate(90 -0.00012207 -10.0001)">
    <title>10KLA22AA003</title>
    <rt:dyn type="KKS" mode="constant" value="&quot;10KLA22AA003&quot;"/> 
    <rt:dyn type="DATA_NARY" mode="constant" value="&quot;TPTS&quot;"/> 
    <rt:dyn type="Operate" mode="constant" value="true"/> 
  </image>
  <text x="1304.93" y="212.788" fill="black" font-size="15" text-anchor="middle">10KLA22<tspan x="1304.93" dy="15">AA003</tspan>
  </text>
  <circle cx="1009.12" cy="867.65" r="3.14044" fill="black" stroke="black" stroke-width="1" transform="flipY() translate(0 -828) translate(219.956 -216.972)"/> 
  <text x="598.197" y="235.697" fill="black" font-size="15" text-anchor="middle">10KLA22<tspan x="598.197" dy="15">AT001</tspan>
  </text>
  <text x="698.197" y="235.697" fill="black" font-size="15" text-anchor="middle">10KLA22<tspan x="698.197" dy="15">AT002</tspan>
  </text>
  <text x="843.197" y="235.697" fill="black" font-size="15" text-anchor="middle">10KLA22<tspan x="843.197" dy="15">AT003</tspan>
  </text>
  <text x="1047.2" y="235.697" fill="black" font-size="15" text-anchor="middle">10KLA22<tspan x="1047.2" dy="15">AT004</tspan>
  </text>
  <line x1="1348.73" y1="175" x2="1348.73" y2="558" stroke="black" stroke-width="3"/> 
  <line x1="746.167" y1="178.243" x2="746.167" y2="276.939" stroke="black"/> 
  <line x1="769.167" y1="180.243" x2="769.167" y2="278.939" stroke="black"/> 
  <line x1="914.167" y1="180.243" x2="914.167" y2="278.939" stroke="black"/> 
  <line x1="973.167" y1="180.243" x2="973.167" y2="278.939" stroke="black"/> 
  <line x1="1117.17" y1="180.243" x2="1117.17" y2="278.939" stroke="black"/> 
  <line x1="1229.17" y1="180.243" x2="1229.17" y2="278.939" stroke="black"/> 
  <image x="1141.23" y="264.304" width="175" height="25" xlink:href="DS_ana.svg">
    <title>10KLA22CR403</title>
    <rt:dyn type="FKKS" mode="constant" value="&quot;10KLA22CR403&quot;"/> 
    <rt:dyn type="ShowFrame" mode="constant" value="true"/> 
    <rt:dyn type="X" mode="constant" value="&quot;R&quot;"/> 
    <rt:dyn type="Color_Readings" mode="constant" value="true"/> 
    <rt:dyn type="ValueToTheRight" mode="constant" value="false"/> 
  </image>
  <image x="957.38" y="264.304" width="175" height="25" xlink:href="DS_ana.svg">
    <title>10KLA22CP005</title>
    <rt:dyn type="FKKS" mode="constant" value="&quot;10KLA22CP005&quot;"/> 
    <rt:dyn type="ShowFrame" mode="constant" value="true"/> 
    <rt:dyn type="X" mode="constant" value="&quot;P&quot;"/> 
    <rt:dyn type="Color_Readings" mode="constant" value="true"/> 
    <rt:dyn type="ValueToTheRight" mode="constant" value="false"/> 
  </image>
  <image x="754.197" y="264.304" width="175" height="25" xlink:href="DS_ana.svg">
    <title>10KLA22CP003</title>
    <rt:dyn type="FKKS" mode="constant" value="&quot;10KLA22CP003&quot;"/> 
    <rt:dyn type="ShowFrame" mode="constant" value="true"/> 
    <rt:dyn type="X" mode="constant" value="&quot;P&quot;"/> 
    <rt:dyn type="Color_Readings" mode="constant" value="true"/> 
    <rt:dyn type="ValueToTheRight" mode="constant" value="false"/> 
  </image>
  <image x="560.197" y="264.304" width="175" height="25" xlink:href="DS_ana.svg">
    <title>10KLA22CP001</title>
    <rt:dyn type="FKKS" mode="constant" value="&quot;10KLA22CP001&quot;"/> 
    <rt:dyn type="ShowFrame" mode="constant" value="true"/> 
    <rt:dyn type="X" mode="constant" value="&quot;P&quot;"/> 
    <rt:dyn type="Color_Readings" mode="constant" value="true"/> 
    <rt:dyn type="ValueToTheRight" mode="constant" value="false"/> 
  </image>
  <line x1="1619" y1="383.698" x2="296.197" y2="383.698" stroke="black" stroke-width="3"/> 
  <line x1="1055.45" y1="60.5493" x2="1055.45" y2="262.549" stroke="black" transform="rotate(90 689.25 117.497)"/> 
  <text x="490.198" y="442.698" fill="black" font-size="15" text-anchor="middle">10KLA22<tspan x="490.198" dy="15">AH002</tspan>
  </text>
  <image x="318.771" y="331.636" width="70" height="65" xlink:href="DS_CO_valve.svg" transform="rotate(270 6.32897e-005 4.4512e-005) flipY(-10.0001) rotate(90 -0.00012207 -10.0001)">
    <title>10KLA22AA002</title>
    <rt:dyn type="KKS" mode="constant" value="&quot;10KLA22AA002&quot;"/> 
    <rt:dyn type="DATA_NARY" mode="constant" value="&quot;TPTS&quot;"/> 
    <rt:dyn type="Operate" mode="constant" value="true"/> 
  </image>
  <text x="347.197" y="419.698" fill="black" font-size="15" text-anchor="middle">10KLA22<tspan x="347.197" dy="15">AA002</tspan>
  </text>
  <g>
    <rect x="425.962" y="308.385" width="65" height="65" rx="0" ry="0" fill="Col_Grey4" transform="rotate(360 532.506 746.174) rotate(0 532.1 745.087) rotate(314.645 525.5 325)"/> 
    <line x1="489.704" y1="341.372" x2="489.704" y2="427.736" stroke="black" stroke-dasharray="5,5"/> 
    <line x1="1225.02" y1="-666.554" x2="1198.49" y2="-666.554" stroke="black" stroke-width="12" transform="rotate(270 1375.94 219.682)"/> 
  </g>
  <g>
    <rect x="501.161" y="383.098" width="65" height="65" rx="0" ry="0" fill="Col_Grey4" transform="rotate(360 532.506 746.174) rotate(0 532.1 745.087) rotate(314.645 525.5 325)"/> 
    <line x1="595.704" y1="340.371" x2="595.704" y2="426.736" stroke="black" stroke-dasharray="5,5"/> 
  </g>
  <g>
    <rect x="571.432" y="454.245" width="65" height="65" rx="0" ry="0" fill="Col_Grey4" transform="rotate(360 532.506 746.174) rotate(0 532.1 745.087) rotate(314.645 525.5 325)"/> 
    <line x1="695.704" y1="340.371" x2="695.704" y2="426.736" stroke="black" stroke-dasharray="5,5"/> 
  </g>
  <g>
    <rect x="673.314" y="558.824" width="65" height="65" rx="0" ry="0" fill="Col_Grey4" transform="rotate(360 532.506 746.174) rotate(0 532.1 745.087) rotate(314.645 525.5 325)"/> 
    <line x1="841.704" y1="341.372" x2="841.704" y2="427.736" stroke="black" stroke-dasharray="5,5"/> 
  </g>
  <g>
    <rect x="816.669" y="703.964" width="65" height="65" rx="0" ry="0" fill="Col_Grey4" transform="rotate(360 532.506 746.174) rotate(0 532.1 745.087) rotate(314.645 525.5 325)"/> 
    <line x1="1045.7" y1="341.372" x2="1045.7" y2="427.736" stroke="black" stroke-dasharray="5,5"/> 
  </g>
  <circle cx="324.755" cy="660.65" r="3.14044" fill="black" stroke="black" stroke-width="1" transform="flipY() translate(0 -828) translate(219.956 -216.972)"/> 
  <circle cx="525.755" cy="660.65" r="3.14044" fill="black" stroke="black" stroke-width="1" transform="flipY() translate(0 -828) translate(219.956 -216.972)"/> 
  <line x1="544.667" y1="385.698" x2="544.667" y2="484.394" stroke="black"/> 
  <circle cx="549.755" cy="660.65" r="3.14044" fill="black" stroke="black" stroke-width="1" transform="flipY() translate(0 -828) translate(219.956 -216.972)"/> 
  <line x1="944.546" y1="314.182" x2="944.546" y2="385.335" stroke="black"/> 
  <circle cx="694.755" cy="660.65" r="3.14044" fill="black" stroke="black" stroke-width="1" transform="flipY() translate(0 -828) translate(219.956 -216.972)"/> 
  <image x="857.046" y="305.182" width="175" height="25" xlink:href="DS_ana.svg">
    <title>10KLA22CT002</title>
    <rt:dyn type="FKKS" mode="constant" value="&quot;10KLA22CT002&quot;"/> 
    <rt:dyn type="ShowFrame" mode="constant" value="true"/> 
    <rt:dyn type="X" mode="constant" value="&quot;T&quot;"/> 
    <rt:dyn type="Color_Readings" mode="constant" value="true"/> 
    <rt:dyn type="ValueToTheRight" mode="constant" value="false"/> 
  </image>
  <circle cx="724.603" cy="660.65" r="3.14044" fill="black" stroke="black" stroke-width="1" transform="flipY() translate(0 -828) translate(219.956 -216.972)"/> 
  <circle cx="752.755" cy="660.65" r="3.14044" fill="black" stroke="black" stroke-width="1" transform="flipY() translate(0 -828) translate(219.956 -216.972)"/> 
  <circle cx="896.755" cy="660.65" r="3.14044" fill="black" stroke="black" stroke-width="1" transform="flipY() translate(0 -828) translate(219.956 -216.972)"/> 
  <line x1="1228.73" y1="312.698" x2="1228.73" y2="383.85" stroke="black"/> 
  <image x="1141.23" y="305.182" width="175" height="25" xlink:href="DS_ana.svg">
    <title>10KLA22CR204</title>
    <rt:dyn type="FKKS" mode="constant" value="&quot;10KLA22CR204&quot;"/> 
    <rt:dyn type="ShowFrame" mode="constant" value="true"/> 
    <rt:dyn type="X" mode="constant" value="&quot;R&quot;"/> 
    <rt:dyn type="Color_Readings" mode="constant" value="true"/> 
    <rt:dyn type="ValueToTheRight" mode="constant" value="false"/> 
  </image>
  <image x="1276.5" y="330.728" width="70" height="65" xlink:href="DS_CO_valve.svg" transform="rotate(270 6.32897e-005 4.4512e-005) flipY(-10.0001) rotate(90 -0.00012207 -10.0001)">
    <title>10KLA22AA004</title>
    <rt:dyn type="KKS" mode="constant" value="&quot;10KLA22AA004&quot;"/> 
    <rt:dyn type="DATA_NARY" mode="constant" value="&quot;TPTS&quot;"/> 
    <rt:dyn type="Operate" mode="constant" value="true"/> 
  </image>
  <text x="1304.93" y="419.789" fill="black" font-size="15" text-anchor="middle">10KLA22<tspan x="1304.93" dy="15">AA004</tspan>
  </text>
  <circle cx="1009.12" cy="660.65" r="3.14044" fill="black" stroke="black" stroke-width="1" transform="flipY() translate(0 -828) translate(219.956 -216.972)"/> 
  <text x="597.727" y="442.03" fill="black" font-size="15" text-anchor="middle">10KLA22<tspan x="597.727" dy="15">AT005</tspan>
  </text>
  <text x="698.198" y="442.698" fill="black" font-size="15" text-anchor="middle">10KLA22<tspan x="698.198" dy="15">AT006</tspan>
  </text>
  <text x="843.198" y="442.698" fill="black" font-size="15" text-anchor="middle">10KLA22<tspan x="843.198" dy="15">AT007</tspan>
  </text>
  <text x="1047.2" y="442.698" fill="black" font-size="15" text-anchor="middle">10KLA22<tspan x="1047.2" dy="15">AT008</tspan>
  </text>
  <line x1="746.167" y1="385.243" x2="746.167" y2="483.939" stroke="black"/> 
  <line x1="769.167" y1="387.243" x2="769.167" y2="485.939" stroke="black"/> 
  <line x1="914.167" y1="387.243" x2="914.167" y2="485.939" stroke="black"/> 
  <line x1="973.167" y1="387.243" x2="973.167" y2="485.939" stroke="black"/> 
  <line x1="1117.17" y1="387.243" x2="1117.17" y2="485.939" stroke="black"/> 
  <line x1="1229.17" y1="387.243" x2="1229.17" y2="485.939" stroke="black"/> 
  <image x="1141.23" y="471.304" width="175" height="25" xlink:href="DS_ana.svg">
    <title>10KLA22CR404</title>
    <rt:dyn type="FKKS" mode="constant" value="&quot;10KLA22CR404&quot;"/> 
    <rt:dyn type="ShowFrame" mode="constant" value="true"/> 
    <rt:dyn type="X" mode="constant" value="&quot;R&quot;"/> 
    <rt:dyn type="Color_Readings" mode="constant" value="true"/> 
    <rt:dyn type="ValueToTheRight" mode="constant" value="false"/> 
  </image>
  <image x="957.38" y="471.304" width="175" height="25" xlink:href="DS_ana.svg">
    <title>10KLA22CP006</title>
    <rt:dyn type="FKKS" mode="constant" value="&quot;10KLA22CP006&quot;"/> 
    <rt:dyn type="ShowFrame" mode="constant" value="true"/> 
    <rt:dyn type="X" mode="constant" value="&quot;P&quot;"/> 
    <rt:dyn type="Color_Readings" mode="constant" value="true"/> 
    <rt:dyn type="ValueToTheRight" mode="constant" value="false"/> 
  </image>
  <image x="754.198" y="471.304" width="175" height="25" xlink:href="DS_ana.svg">
    <title>10KLA22CP006</title>
    <rt:dyn type="FKKS" mode="constant" value="&quot;10KLA22CP006&quot;"/> 
    <rt:dyn type="ShowFrame" mode="constant" value="true"/> 
    <rt:dyn type="X" mode="constant" value="&quot;P&quot;"/> 
    <rt:dyn type="Color_Readings" mode="constant" value="true"/> 
    <rt:dyn type="ValueToTheRight" mode="constant" value="false"/> 
  </image>
  <image x="560.198" y="471.304" width="175" height="25" xlink:href="DS_ana.svg">
    <title>10KLA22CP002</title>
    <rt:dyn type="FKKS" mode="constant" value="&quot;10KLA22CP002&quot;"/> 
    <rt:dyn type="ShowFrame" mode="constant" value="true"/> 
    <rt:dyn type="X" mode="constant" value="&quot;P&quot;"/> 
    <rt:dyn type="Color_Readings" mode="constant" value="true"/> 
    <rt:dyn type="ValueToTheRight" mode="constant" value="false"/> 
  </image>
  <line x1="1348.35" y1="557.849" x2="113" y2="557.849" stroke="black" stroke-width="3"/> 
  <image x="1370.36" y="124.666" width="70" height="65" xlink:href="DS_CO_valve.svg" transform="rotate(270 6.32897e-005 4.4512e-005) flipY(-10.0001) rotate(90 -0.00012207 -10.0001)">
    <title>10KLA22AA005</title>
    <rt:dyn type="KKS" mode="constant" value="&quot;10KLA22AA005&quot;"/> 
    <rt:dyn type="DATA_NARY" mode="constant" value="&quot;TPTS&quot;"/> 
    <rt:dyn type="Operate" mode="constant" value="true"/> 
  </image>
  <text x="1409.79" y="213.727" fill="black" font-size="15" text-anchor="middle">10KLA22<tspan x="1409.79" dy="15">AA005</tspan>
  </text>
  <image x="1471.68" y="101.973" width="65" height="25" xlink:href="DS_TPTS_Reg_degree.svg">
    <title>10KLA22AA201</title>
    <rt:dyn type="KKS" mode="constant" value="&quot;10KLA22AA201&quot;"/> 
  </image>
  <text x="1513.27" y="217.124" fill="black" font-size="15" text-anchor="middle">10KLA22<tspan x="1513.27" dy="15">AA201</tspan>
  </text>
  <image x="1470.61" y="133.791" width="70" height="65" xlink:href="DS_Reg_valve.svg" transform="rotate(90 -2.30496e-006 -9.99997) rotate(270 0 -10)">
    <title>10KLA22AA201</title>
    <rt:dyn type="KKS" mode="constant" value="&quot;10KLA22AA201&quot;"/> 
    <rt:dyn type="DATA_NARY" mode="constant" value="&quot;TPTS&quot;"/> 
    <rt:dyn type="Operate" mode="constant" value="true"/> 
  </image>
  <image x="1666.55" y="105.454" width="70" height="65" xlink:href="DS_CO_valve.svg" transform="rotate(270 6.32897e-005 4.4512e-005) flipY(-10.0001) rotate(90 -0.00012207 -10.0001)">
    <title>10KLA22AA007</title>
    <rt:dyn type="KKS" mode="constant" value="&quot;10KLA22AA007&quot;"/> 
    <rt:dyn type="DATA_NARY" mode="constant" value="&quot;TPTS&quot;"/> 
    <rt:dyn type="Operate" mode="constant" value="true"/> 
  </image>
  <text x="1689.98" y="194.515" fill="black" font-size="15" text-anchor="middle">10KLA22<tspan x="1689.98" dy="15">AA007</tspan>
  </text>
  <text x="1571.37" y="432.97" font-size="15">10KLA22<tspan x="1571.37" dy="15">AN002</tspan>
  </text>
  <image x="1370.36" y="330.515" width="70" height="65" xlink:href="DS_CO_valve.svg" transform="rotate(270 6.32897e-005 4.4512e-005) flipY(-10.0001) rotate(90 -0.00012207 -10.0001)">
    <title>10KLA22AA006</title>
    <rt:dyn type="KKS" mode="constant" value="&quot;10KLA22AA006&quot;"/> 
    <rt:dyn type="DATA_NARY" mode="constant" value="&quot;TPTS&quot;"/> 
    <rt:dyn type="Operate" mode="constant" value="true"/> 
  </image>
  <text x="1409.79" y="419.576" fill="black" font-size="15" text-anchor="middle">10KLA22<tspan x="1409.79" dy="15">AA006</tspan>
  </text>
  <image x="1471.68" y="307.728" width="65" height="25" xlink:href="DS_TPTS_Reg_degree.svg">
    <title>10KLA22AA202</title>
    <rt:dyn type="KKS" mode="constant" value="&quot;10KLA22AA202&quot;"/> 
  </image>
  <text x="1513.27" y="422.879" fill="black" font-size="15" text-anchor="middle">10KLA22<tspan x="1513.27" dy="15">AA202</tspan>
  </text>
  <image x="1470.61" y="339.546" width="70" height="65" xlink:href="DS_Reg_valve.svg" transform="rotate(90 -2.30496e-006 -9.99997) rotate(270 0 -10)">
    <title>10KLA22AA202</title>
    <rt:dyn type="KKS" mode="constant" value="&quot;10KLA22AA202&quot;"/> 
    <rt:dyn type="DATA_NARY" mode="constant" value="&quot;TPTS&quot;"/> 
    <rt:dyn type="Operate" mode="constant" value="true"/> 
  </image>
  <text x="1689.98" y="403.94" fill="black" font-size="15" text-anchor="middle">10KLA22<tspan x="1689.98" dy="15">AA008</tspan>
  </text>
  <text x="1834.27" y="289.242" fill="black" font-size="15" text-anchor="middle">
    <title>11FAK14AA002</title>
В венттрубу</text>
  <line x1="268" y1="312.212" x2="268" y2="557.607" stroke="black"/> 
  <circle cx="47.8283" cy="487.894" r="3.14044" fill="black" stroke="black" stroke-width="1" transform="flipY() translate(0 -828) translate(219.956 -216.972)"/> 
  <line x1="883" y1="538.747" x2="883" y2="682.747" stroke="black" transform="rotate(90 689.25 117.497)"/> 
  <image x="73.9091" y="298.091" width="175" height="25" xlink:href="DS_ana.svg">
    <title>10KLA22CM001</title>
    <rt:dyn type="FKKS" mode="constant" value="&quot;10KLA22CM001&quot;"/> 
    <rt:dyn type="ShowFrame" mode="constant" value="true"/> 
    <rt:dyn type="X" mode="constant" value="&quot;M&quot;"/> 
    <rt:dyn type="Color_Readings" mode="constant" value="true"/> 
    <rt:dyn type="ValueToTheRight" mode="constant" value="false"/> 
  </image>
  <line x1="916" y1="549.747" x2="916" y2="693.747" stroke="black" transform="rotate(90 689.25 117.497)"/> 
  <line x1="951" y1="561.747" x2="951" y2="705.747" stroke="black" transform="rotate(90 689.25 117.497)"/> 
  <line x1="988" y1="573.747" x2="988" y2="717.747" stroke="black" transform="rotate(90 689.25 117.497)"/> 
  <line x1="1024" y1="584.747" x2="1024" y2="728.747" stroke="black" transform="rotate(90 689.25 117.497)"/> 
  <line x1="1057" y1="596.747" x2="1057" y2="740.747" stroke="black" transform="rotate(90 689.25 117.497)"/> 
  <image x="62.7877" y="333.455" width="175" height="25" xlink:href="DS_ana.svg">
    <title>10KLA22CT003</title>
    <rt:dyn type="FKKS" mode="constant" value="&quot;10KLA22CT003&quot;"/> 
    <rt:dyn type="ShowFrame" mode="constant" value="true"/> 
    <rt:dyn type="X" mode="constant" value="&quot;T&quot;"/> 
    <rt:dyn type="Color_Readings" mode="constant" value="true"/> 
    <rt:dyn type="ValueToTheRight" mode="constant" value="false"/> 
  </image>
  <image x="50.303" y="368.333" width="175" height="25" xlink:href="DS_ana.svg">
    <title>10KLA22CR401</title>
    <rt:dyn type="FKKS" mode="constant" value="&quot;10KLA22CR401&quot;"/> 
    <rt:dyn type="ShowFrame" mode="constant" value="true"/> 
    <rt:dyn type="X" mode="constant" value="&quot;R&quot;"/> 
    <rt:dyn type="Color_Readings" mode="constant" value="true"/> 
    <rt:dyn type="ValueToTheRight" mode="constant" value="false"/> 
  </image>
  <image x="38.3332" y="403.696" width="175" height="25" xlink:href="DS_ana.svg">
    <title>10KLA22CR201</title>
    <rt:dyn type="FKKS" mode="constant" value="&quot;10KLA22CR201&quot;"/> 
    <rt:dyn type="ShowFrame" mode="constant" value="true"/> 
    <rt:dyn type="X" mode="constant" value="&quot;R&quot;"/> 
    <rt:dyn type="Color_Readings" mode="constant" value="true"/> 
    <rt:dyn type="ValueToTheRight" mode="constant" value="false"/> 
  </image>
  <image x="27.303" y="438.576" width="175" height="25" xlink:href="DS_ana.svg">
    <title>10KLA22CR402</title>
    <rt:dyn type="FKKS" mode="constant" value="&quot;10KLA22CR402&quot;"/> 
    <rt:dyn type="ShowFrame" mode="constant" value="true"/> 
    <rt:dyn type="X" mode="constant" value="&quot;R&quot;"/> 
    <rt:dyn type="Color_Readings" mode="constant" value="true"/> 
    <rt:dyn type="ValueToTheRight" mode="constant" value="false"/> 
  </image>
  <image x="16.3332" y="473.939" width="175" height="25" xlink:href="DS_ana.svg">
    <title>10KLA22CR202</title>
    <rt:dyn type="FKKS" mode="constant" value="&quot;10KLA22CR202&quot;"/> 
    <rt:dyn type="ShowFrame" mode="constant" value="true"/> 
    <rt:dyn type="X" mode="constant" value="&quot;R&quot;"/> 
    <rt:dyn type="Color_Readings" mode="constant" value="true"/> 
    <rt:dyn type="ValueToTheRight" mode="constant" value="false"/> 
  </image>
  <line x1="257" y1="344.212" x2="257" y2="558" stroke="black"/> 
  <line x1="245" y1="378.212" x2="245" y2="558" stroke="black"/> 
  <line x1="234" y1="415.212" x2="234" y2="558" stroke="black"/> 
  <line x1="222" y1="452.212" x2="222" y2="558" stroke="black"/> 
  <line x1="210.5" y1="484" x2="210.5" y2="558" stroke="black"/> 
  <circle cx="36.5572" cy="487.348" r="3.14044" fill="black" stroke="black" stroke-width="1" transform="flipY() translate(0 -828) translate(219.956 -216.972)"/> 
  <circle cx="25.5572" cy="487.348" r="3.14044" fill="black" stroke="black" stroke-width="1" transform="flipY() translate(0 -828) translate(219.956 -216.972)"/> 
  <circle cx="13.5572" cy="487.348" r="3.14044" fill="black" stroke="black" stroke-width="1" transform="flipY() translate(0 -828) translate(219.956 -216.972)"/> 
  <circle cx="2.5572" cy="487.348" r="3.14044" fill="black" stroke="black" stroke-width="1" transform="flipY() translate(0 -828) translate(219.956 -216.972)"/> 
  <circle cx="-9.44276" cy="487.348" r="3.14044" fill="black" stroke="black" stroke-width="1" transform="flipY() translate(0 -828) translate(219.956 -216.972)"/> 
  <circle cx="1569.5" cy="783.397" r="2.60962" fill="black" stroke="black" stroke-width="1" transform="flipY() translate(0 -828) translate(219.956 -216.972)"/> 
  <image x="1242.24" y="504.575" width="70" height="65" xlink:href="DS_CO_valve.svg" transform="rotate(270 6.32897e-005 4.4512e-005) flipY(-10.0001) rotate(90 -0.00012207 -10.0001)">
    <title>10KLA22AA009</title>
    <rt:dyn type="KKS" mode="constant" value="&quot;10KLA22AA009&quot;"/> 
    <rt:dyn type="DATA_NARY" mode="constant" value="&quot;TPTS&quot;"/> 
    <rt:dyn type="Operate" mode="constant" value="true"/> 
  </image>
  <text x="1267.61" y="592.364" fill="black" font-size="15" text-anchor="middle">10KLA22<tspan x="1267.61" dy="15">AA009</tspan>
  </text>
  <line x1="281.152" y1="275.364" x2="281.152" y2="557" stroke="black"/> 
  <line x1="846.859" y1="525.989" x2="846.859" y2="669.989" stroke="black" transform="rotate(90 689.25 117.497)"/> 
  <image x="89.0606" y="262.243" width="175" height="25" xlink:href="DS_ana.svg">
    <title>10KLA22CF001</title>
    <rt:dyn type="FKKS" mode="constant" value="&quot;10KLA22CF001&quot;"/> 
    <rt:dyn type="ShowFrame" mode="constant" value="true"/> 
    <rt:dyn type="X" mode="constant" value="&quot;F&quot;"/> 
    <rt:dyn type="Color_Readings" mode="constant" value="true"/> 
    <rt:dyn type="ValueToTheRight" mode="constant" value="false"/> 
  </image>
  <circle cx="61.6466" cy="487.476" r="3.14044" fill="black" stroke="black" stroke-width="1" transform="flipY() translate(0 -828) translate(219.956 -216.972)"/> 
  <line x1="1757" y1="367.47" x2="1610.03" y2="367.47" stroke="black" stroke-width="3"/> 
  <image x="1566.09" y="347.607" width="70" height="70" xlink:href="DS_motor.svg" transform="flipY(-0.00012207) rotate(90 0 0) flipX(-0.00012207) rotate(270 -0.00012207 0)">
    <title>10KLA22AN002</title>
    <rt:dyn type="KKS" mode="constant" value="&quot;10KLA22AN002&quot;"/> 
    <rt:dyn type="DATA_NARY" mode="constant" value="&quot;TPTS&quot;"/> 
    <rt:dyn type="Operate" mode="constant" value="true"/> 
    <rt:dyn type="DeviceType" mode="constant" value="&quot;fan&quot;"/> 
  </image>
  <image x="1666.55" y="314.879" width="70" height="65" xlink:href="DS_CO_valve.svg" transform="rotate(270 6.32897e-005 4.4512e-005) flipY(-10.0001) rotate(90 -0.00012207 -10.0001)">
    <title>10KLA22AA008</title>
    <rt:dyn type="KKS" mode="constant" value="&quot;10KLA22AA008&quot;"/> 
    <rt:dyn type="DATA_NARY" mode="constant" value="&quot;TPTS&quot;"/> 
    <rt:dyn type="Operate" mode="constant" value="true"/> 
  </image>
  <line x1="1789.32" y1="77.1212" x2="1789.32" y2="262" stroke="black"/> 
  <image x="1731.24" y="61.9697" width="175" height="25" xlink:href="DS_ana.svg">
    <title>10KLA22CR601</title>
    <rt:dyn type="FKKS" mode="constant" value="&quot;10KLA22CR601&quot;"/> 
    <rt:dyn type="ShowFrame" mode="constant" value="true"/> 
    <rt:dyn type="X" mode="constant" value="&quot;R&quot;"/> 
    <rt:dyn type="Color_Readings" mode="constant" value="true"/> 
    <rt:dyn type="ValueToTheRight" mode="constant" value="false"/> 
  </image>
  <line x1="1635.79" y1="718" x2="1086.33" y2="718" stroke="black" stroke-width="3"/> 
  <line x1="1290.13" y1="-173.07" x2="1290.13" y2="-25.0701" stroke="black" transform="rotate(90 689.25 117.497)"/> 
  <line x1="1177.38" y1="-175.07" x2="1177.38" y2="-23.0701" stroke="black" transform="rotate(90 689.25 117.497)"/> 
  <line x1="1120.54" y1="736.122" x2="213.061" y2="736.122" stroke="black" stroke-width="3"/> 
  <g transform="flipX(459) scale(1.27 1.27 1043.36 910.606) scale(1.0524 1.0524 1.4013e-045 1.4013e-045) flipX(963.818) rotate(270 964.576 96.9697) rotate(90 1175.94 787.121) scale(0.380039 0.380039 1162.3 219.697) rotate(270 1162.3 219.697) rotate(270 412.288 437.863)">
    <g transform="rotate(90 1094.11 578.015)">
      <rect x="-2053.56" y="1146.12" width="130.303" height="134.849" rx="0" ry="0" fill="Col_Grey4" stroke="black" stroke-width="3"/> 
      <line x1="-1989.95" y1="1161.24" x2="-1941.47" y2="1185.49" stroke="black" stroke-width="3"/> 
      <line x1="-2036.25" y1="1241.37" x2="-1987.75" y2="1265.62" stroke="black" stroke-width="3"/> 
      <line x1="-1942.99" y1="1185.49" x2="-2038.44" y2="1241.55" stroke="black" stroke-width="3"/> 
      <line x1="-1988.77" y1="1265.02" x2="-1988.77" y2="1280.02" stroke="black" stroke-width="3"/> 
      <line x1="-1988.62" y1="1148.17" x2="-1988.62" y2="1163.17" stroke="black" stroke-width="3"/> 
    </g>
  </g>
  <text x="1028.63" y="660.516" font-size="15">10SBJ07<tspan x="1028.63" dy="15">AA016</tspan>
  </text>
  <text x="1140.91" y="746.273" font-size="15">10KLA42<tspan x="1140.91" dy="15">AN001</tspan>
  </text>
  <image x="1068.81" y="700.122" width="70" height="70" xlink:href="DS_motor.svg" transform="flipY(-0.00012207) rotate(90 0 0) flipX(-0.00012207) rotate(270 -0.00012207 0)">
    <title>10KLA42AN001</title>
    <rt:dyn type="KKS" mode="constant" value="&quot;10KLA42AN001&quot;"/> 
    <rt:dyn type="DATA_NARY" mode="constant" value="&quot;TPTS&quot;"/> 
    <rt:dyn type="Operate" mode="constant" value="true"/> 
    <rt:dyn type="DeviceType" mode="constant" value="&quot;fan&quot;"/> 
  </image>
  <g transform="flipY(776.515) rotate(330 1212.44 532.643)">
    <g>
      <polygon points="1822.79,124.545 1836.17,132.189 1836.17,116.902 1822.79,124.545" fill="black" stroke="black" stroke-width="1" transform="rotate(180 1279.17 367.814)"/> 
    </g>
  </g>
  <line x1="981.363" y1="606" x2="981.363" y2="719.122" stroke="black"/> 
  <line x1="829.363" y1="605" x2="830.605" y2="719.364" stroke="black"/> 
  <g transform="flipY(189.5) flipY(776.515) rotate(330 1212.44 532.643)">
    <g>
      <polygon points="2210.01,-846.109 2223.39,-838.465 2223.39,-853.752 2210.01,-846.109" fill="black" stroke="black" stroke-width="1" transform="rotate(180 1279.17 367.814)"/> 
    </g>
  </g>
  <image x="955.814" y="625.348" width="70" height="65" xlink:href="DS_CO_valve.svg" transform="flipX(-1.13687e-013) flipY(-10) flipY(-10) rotate(270 0 -10)">
    <title>10SBJ07AA016</title>
    <rt:dyn type="KKS" mode="constant" value="&quot;10SBJ07AA016&quot;"/> 
    <rt:dyn type="DATA_NARY" mode="constant" value="&quot;TPTS&quot;"/> 
    <rt:dyn type="Operate" mode="constant" value="true"/> 
  </image>
  <text x="905.484" y="666.394" fill="black" font-size="15" text-anchor="middle">10KLA42<tspan x="905.484" dy="15">AH001</tspan>
  </text>
  <line x1="1634.77" y1="717.545" x2="1634.77" y2="923.545" stroke="black" stroke-width="3"/> 
  <image x="784.272" y="623.97" width="70" height="65" xlink:href="DS_Reg_valve.svg" transform="rotate(360 0 -10) rotate(270 0 -10)">
    <title>10SBJ08AA216</title>
    <rt:dyn type="KKS" mode="constant" value="&quot;10SBJ08AA216&quot;"/> 
    <rt:dyn type="DATA_NARY" mode="constant" value="&quot;TPTS&quot;"/> 
    <rt:dyn type="Operate" mode="constant" value="true"/> 
  </image>
  <image x="757" y="594.091" width="65" height="25" xlink:href="DS_TPTS_Reg_degree.svg">
    <title>10SBJ08AA216</title>
    <rt:dyn type="KKS" mode="constant" value="&quot;10SBJ08AA216&quot;"/> 
  </image>
  <text x="747.909" y="657.304" fill="black" font-size="15" text-anchor="middle">10SBJ08<tspan x="747.909" dy="15">AA216</tspan>
  </text>
  <image x="612.363" y="741" width="175" height="25" xlink:href="DS_ana.svg">
    <title>10KLA42CT003</title>
    <rt:dyn type="FKKS" mode="constant" value="&quot;10KLA42CT003&quot;"/> 
    <rt:dyn type="ShowFrame" mode="constant" value="true"/> 
    <rt:dyn type="X" mode="constant" value="&quot;T&quot;"/> 
    <rt:dyn type="Color_Readings" mode="constant" value="true"/> 
    <rt:dyn type="ValueToTheRight" mode="constant" value="false"/> 
  </image>
  <g>
    <rect x="198.378" y="579.486" width="65" height="65" rx="0" ry="0" fill="Col_Grey4" transform="rotate(360 532.506 746.174) rotate(0 532.1 745.087) rotate(314.645 525.5 325)"/> 
    <line x1="522.657" y1="693.795" x2="522.657" y2="780.159" stroke="black" stroke-dasharray="5,5"/> 
  </g>
  <circle cx="230.709" cy="308.226" r="3.14044" fill="black" stroke="black" stroke-width="1" transform="flipY() translate(0 -828) translate(219.956 -216.972)"/> 
  <circle cx="374.709" cy="308.226" r="3.14044" fill="black" stroke="black" stroke-width="1" transform="flipY() translate(0 -828) translate(219.956 -216.972)"/> 
  <text x="522.363" y="674" fill="black" font-size="15" text-anchor="middle">10KLA42<tspan x="522.363" dy="15">AT001</tspan>
  </text>
  <line x1="450.121" y1="639.667" x2="450.121" y2="738.363" stroke="black"/> 
  <line x1="595.121" y1="641.667" x2="595.121" y2="740.363" stroke="black"/> 
  <image x="435.151" y="622.728" width="175" height="25" xlink:href="DS_ana.svg">
    <title>10KLA42CP001</title>
    <rt:dyn type="FKKS" mode="constant" value="&quot;10KLA42CP001&quot;"/> 
    <rt:dyn type="ShowFrame" mode="constant" value="true"/> 
    <rt:dyn type="X" mode="constant" value="&quot;P&quot;"/> 
    <rt:dyn type="Color_Readings" mode="constant" value="true"/> 
    <rt:dyn type="ValueToTheRight" mode="constant" value="false"/> 
  </image>
  <image x="360.363" y="683" width="70" height="65" xlink:href="DS_CO_valve.svg" transform="rotate(270 6.32897e-005 4.4512e-005) flipY(-10.0001) rotate(90 -0.00012207 -10.0001)">
    <title>10KLA42AA001</title>
    <rt:dyn type="KKS" mode="constant" value="&quot;10KLA42AA001&quot;"/> 
    <rt:dyn type="DATA_NARY" mode="constant" value="&quot;TPTS&quot;"/> 
    <rt:dyn type="Operate" mode="constant" value="true"/> 
  </image>
  <text x="388.363" y="771" fill="black" font-size="15" text-anchor="middle">10KLA42<tspan x="388.363" dy="15">AA001</tspan>
  </text>
  <image x="1164.58" y="686.091" width="175" height="25" xlink:href="DS_ana.svg">
    <title>10KLA42CT001</title>
    <rt:dyn type="FKKS" mode="constant" value="&quot;10KLA42CT001&quot;"/> 
    <rt:dyn type="ShowFrame" mode="constant" value="true"/> 
    <rt:dyn type="X" mode="constant" value="&quot;T&quot;"/> 
    <rt:dyn type="Color_Readings" mode="constant" value="true"/> 
    <rt:dyn type="ValueToTheRight" mode="constant" value="false"/> 
  </image>
  <image x="1390.73" y="665.454" width="70" height="65" xlink:href="DS_CO_valve.svg" transform="rotate(270 6.32897e-005 4.4512e-005) flipY(-10.0001) rotate(90 -0.00012207 -10.0001)">
    <title>10KLA42AA003</title>
    <rt:dyn type="KKS" mode="constant" value="&quot;10KLA42AA003&quot;"/> 
    <rt:dyn type="DATA_NARY" mode="constant" value="&quot;TPTS&quot;"/> 
    <rt:dyn type="Operate" mode="constant" value="true"/> 
  </image>
  <text x="1418.73" y="753.454" fill="black" font-size="15" text-anchor="middle">10KLA42<tspan x="1418.73" dy="15">AA003</tspan>
  </text>
  <g transform="flipX(1829.73) flipX(1092.61) rotate(270 1446.39 199.242) flipY(189.5) flipY(776.515) rotate(330 1212.44 532.643)">
    <g>
      <polygon points="662.895,1976.53 676.275,1984.18 676.275,1968.89 662.895,1976.53" fill="black" stroke="black" stroke-width="1" transform="rotate(180 1279.17 367.814)"/> 
    </g>
  </g>
  <text x="168.94" y="741.788" fill="black" font-size="15" text-anchor="middle">
    <title>11FAK14AA002</title>
АТМ</text>
  <line x1="1635.94" y1="923.151" x2="1086.48" y2="923.151" stroke="black" stroke-width="3"/> 
  <line x1="1495.28" y1="-173.221" x2="1495.28" y2="-25.2216" stroke="black" transform="rotate(90 689.25 117.497)"/> 
  <line x1="1382.53" y1="-175.221" x2="1382.53" y2="-23.2216" stroke="black" transform="rotate(90 689.25 117.497)"/> 
  <line x1="1120.69" y1="941.273" x2="213.213" y2="941.273" stroke="black" stroke-width="3"/> 
  <g transform="flipX(459) scale(1.27 1.27 1043.36 910.606) scale(1.0524 1.0524 1.4013e-045 1.4013e-045) flipX(963.818) rotate(270 964.576 96.9697) rotate(90 1175.94 787.121) scale(0.380039 0.380039 1162.3 219.697) rotate(270 1162.3 219.697) rotate(270 412.288 437.863)">
    <g transform="rotate(90 1094.11 578.015)">
      <rect x="-2457.46" y="1146.42" width="130.303" height="134.849" rx="0" ry="0" fill="Col_Grey4" stroke="black" stroke-width="3"/> 
      <line x1="-2393.85" y1="1161.54" x2="-2345.37" y2="1185.79" stroke="black" stroke-width="3"/> 
      <line x1="-2440.15" y1="1241.67" x2="-2391.65" y2="1265.92" stroke="black" stroke-width="3"/> 
      <line x1="-2346.89" y1="1185.79" x2="-2442.34" y2="1241.85" stroke="black" stroke-width="3"/> 
      <line x1="-2392.67" y1="1265.32" x2="-2392.67" y2="1280.32" stroke="black" stroke-width="3"/> 
      <line x1="-2392.52" y1="1148.47" x2="-2392.52" y2="1163.47" stroke="black" stroke-width="3"/> 
    </g>
  </g>
  <text x="1028.78" y="865.667" font-size="15">10SBJ07<tspan x="1028.78" dy="15">AA015</tspan>
  </text>
  <text x="1141.06" y="951.424" font-size="15">10KLA42<tspan x="1141.06" dy="15">AN002</tspan>
  </text>
  <image x="1068.96" y="905.273" width="70" height="70" xlink:href="DS_motor.svg" transform="flipY(-0.00012207) rotate(90 0 0) flipX(-0.00012207) rotate(270 -0.00012207 0)">
    <title>10KLA42AN002</title>
    <rt:dyn type="KKS" mode="constant" value="&quot;10KLA42AN002&quot;"/> 
    <rt:dyn type="DATA_NARY" mode="constant" value="&quot;TPTS&quot;"/> 
    <rt:dyn type="Operate" mode="constant" value="true"/> 
    <rt:dyn type="DeviceType" mode="constant" value="&quot;fan&quot;"/> 
  </image>
  <g transform="flipY(776.515) rotate(330 1212.44 532.643)">
    <g>
      <polygon points="1720.08,302.13 1733.46,309.774 1733.46,294.487 1720.08,302.13" fill="black" stroke="black" stroke-width="1" transform="rotate(180 1279.17 367.814)"/> 
    </g>
  </g>
  <line x1="981.514" y1="811.151" x2="981.514" y2="924.273" stroke="black"/> 
  <line x1="829.514" y1="810.151" x2="830.756" y2="924.516" stroke="black"/> 
  <g transform="flipY(189.5) flipY(776.515) rotate(330 1212.44 532.643)">
    <g>
      <polygon points="2312.45,-1023.85 2325.83,-1016.21 2325.83,-1031.49 2312.45,-1023.85" fill="black" stroke="black" stroke-width="1" transform="rotate(180 1279.17 367.814)"/> 
    </g>
  </g>
  <image x="955.966" y="830.5" width="70" height="65" xlink:href="DS_CO_valve.svg" transform="flipX(-1.13687e-013) flipY(-10) flipY(-10) rotate(270 0 -10)">
    <title>10SBJ07AA015</title>
    <rt:dyn type="KKS" mode="constant" value="&quot;10SBJ07AA015&quot;"/> 
    <rt:dyn type="DATA_NARY" mode="constant" value="&quot;TPTS&quot;"/> 
    <rt:dyn type="Operate" mode="constant" value="true"/> 
  </image>
  <text x="905.635" y="871.545" fill="black" font-size="15" text-anchor="middle">10KLA42<tspan x="905.635" dy="15">AH002</tspan>
  </text>
  <image x="784.423" y="829.121" width="70" height="65" xlink:href="DS_Reg_valve.svg" transform="rotate(360 0 -10) rotate(270 0 -10)">
    <title>10SBJ08AA215</title>
    <rt:dyn type="KKS" mode="constant" value="&quot;10SBJ08AA215&quot;"/> 
    <rt:dyn type="DATA_NARY" mode="constant" value="&quot;TPTS&quot;"/> 
    <rt:dyn type="Operate" mode="constant" value="true"/> 
  </image>
  <image x="757.151" y="799.242" width="65" height="25" xlink:href="DS_TPTS_Reg_degree.svg">
    <title>10SBJ08AA215</title>
    <rt:dyn type="KKS" mode="constant" value="&quot;10SBJ08AA215&quot;"/> 
  </image>
  <text x="748.06" y="862.456" fill="black" font-size="15" text-anchor="middle">10SBJ08<tspan x="748.06" dy="15">AA215</tspan>
  </text>
  <image x="612.514" y="946.151" width="175" height="25" xlink:href="DS_ana.svg">
    <title>10KLA42CT004</title>
    <rt:dyn type="FKKS" mode="constant" value="&quot;10KLA42CT004&quot;"/> 
    <rt:dyn type="ShowFrame" mode="constant" value="true"/> 
    <rt:dyn type="X" mode="constant" value="&quot;T&quot;"/> 
    <rt:dyn type="Color_Readings" mode="constant" value="true"/> 
    <rt:dyn type="ValueToTheRight" mode="constant" value="false"/> 
  </image>
  <g>
    <rect x="52.5221" y="723.754" width="65" height="65" rx="0" ry="0" fill="Col_Grey4" transform="rotate(360 532.506 746.174) rotate(0 532.1 745.087) rotate(314.645 525.5 325)"/> 
    <line x1="522.808" y1="898.946" x2="522.808" y2="985.31" stroke="black" stroke-dasharray="5,5"/> 
  </g>
  <circle cx="230.861" cy="103.075" r="3.14044" fill="black" stroke="black" stroke-width="1" transform="flipY() translate(0 -828) translate(219.956 -216.972)"/> 
  <circle cx="374.861" cy="103.075" r="3.14044" fill="black" stroke="black" stroke-width="1" transform="flipY() translate(0 -828) translate(219.956 -216.972)"/> 
  <text x="522.514" y="879.151" fill="black" font-size="15" text-anchor="middle">10KLA42<tspan x="522.514" dy="15">AT002</tspan>
  </text>
  <line x1="450.273" y1="844.818" x2="450.273" y2="943.514" stroke="black"/> 
  <line x1="595.272" y1="846.818" x2="595.272" y2="945.514" stroke="black"/> 
  <image x="435.303" y="827.88" width="175" height="25" xlink:href="DS_ana.svg">
    <title>10KLA42CP002</title>
    <rt:dyn type="FKKS" mode="constant" value="&quot;10KLA42CP002&quot;"/> 
    <rt:dyn type="ShowFrame" mode="constant" value="true"/> 
    <rt:dyn type="X" mode="constant" value="&quot;P&quot;"/> 
    <rt:dyn type="Color_Readings" mode="constant" value="true"/> 
    <rt:dyn type="ValueToTheRight" mode="constant" value="false"/> 
  </image>
  <image x="360.515" y="888.151" width="70" height="65" xlink:href="DS_CO_valve.svg" transform="rotate(270 6.32897e-005 4.4512e-005) flipY(-10.0001) rotate(90 -0.00012207 -10.0001)">
    <title>10KLA42AA002</title>
    <rt:dyn type="KKS" mode="constant" value="&quot;10KLA42AA002&quot;"/> 
    <rt:dyn type="DATA_NARY" mode="constant" value="&quot;TPTS&quot;"/> 
    <rt:dyn type="Operate" mode="constant" value="true"/> 
  </image>
  <text x="388.515" y="976.151" fill="black" font-size="15" text-anchor="middle">10KLA42<tspan x="388.515" dy="15">AA002</tspan>
  </text>
  <image x="1164.73" y="891.242" width="175" height="25" xlink:href="DS_ana.svg">
    <title>10KLA42CT002</title>
    <rt:dyn type="FKKS" mode="constant" value="&quot;10KLA42CT002&quot;"/> 
    <rt:dyn type="ShowFrame" mode="constant" value="true"/> 
    <rt:dyn type="X" mode="constant" value="&quot;T&quot;"/> 
    <rt:dyn type="Color_Readings" mode="constant" value="true"/> 
    <rt:dyn type="ValueToTheRight" mode="constant" value="false"/> 
  </image>
  <image x="1390.88" y="870.605" width="70" height="65" xlink:href="DS_CO_valve.svg" transform="rotate(270 6.32897e-005 4.4512e-005) flipY(-10.0001) rotate(90 -0.00012207 -10.0001)">
    <title>10KLA42AA004</title>
    <rt:dyn type="KKS" mode="constant" value="&quot;10KLA42AA004&quot;"/> 
    <rt:dyn type="DATA_NARY" mode="constant" value="&quot;TPTS&quot;"/> 
    <rt:dyn type="Operate" mode="constant" value="true"/> 
  </image>
  <text x="1418.88" y="958.605" fill="black" font-size="15" text-anchor="middle">10KLA42<tspan x="1418.88" dy="15">AA004</tspan>
  </text>
  <g transform="flipX(1829.73) flipX(1092.61) rotate(270 1446.39 199.242) flipY(189.5) flipY(776.515) rotate(330 1212.44 532.643)">
    <g>
      <polygon points="840.615,2078.96 853.995,2086.61 853.995,2071.32 840.615,2078.96" fill="black" stroke="black" stroke-width="1" transform="rotate(180 1279.17 367.814)"/> 
    </g>
  </g>
  <text x="169.092" y="946.94" fill="black" font-size="15" text-anchor="middle">
    <title>11FAK14AA002</title>
АТМ</text>
  <line x1="1717.07" y1="819.076" x2="1637.33" y2="819.076" stroke="black" stroke-width="3"/> 
  <image x="51.4394" y="545.001" width="75" height="25" xlink:href="obj_link.svg">
    <rt:event type="OnClick">LoadNew(&quot;kla00&quot;)</rt:event>
    <rt:dyn type="TextStr" mode="constant" value="&quot;&quot;"/> 
  </image>
  <text x="83.5151" y="536.424" fill="black" font-size="15" text-anchor="middle">KLA00</text>
  <image x="1710.53" y="804.637" width="75" height="25" xlink:href="obj_link.svg">
    <rt:event type="OnClick">LoadNew(&quot;kla00&quot;)</rt:event>
    <rt:dyn type="TextStr" mode="constant" value="&quot;&quot;"/> 
  </image>
  <text x="1740.83" y="797.515" fill="black" font-size="15" text-anchor="middle">KLA00</text>
  <image x="866.136" y="593.939" width="75" height="25" xlink:href="obj_link.svg">
    <rt:event type="OnClick">LoadNew(&quot;sbj&quot;)</rt:event>
    <rt:dyn type="TextStr" mode="constant" value="&quot;SBJ&quot;"/> 
  </image>
  <image x="866.136" y="797.97" width="75" height="25" xlink:href="obj_link.svg">
    <rt:event type="OnClick">LoadNew(&quot;sbj&quot;)</rt:event>
    <rt:dyn type="TextStr" mode="constant" value="&quot;SBJ&quot;"/> 
  </image>
</svg>
