<?xml  version="1.0" encoding="windows-1251"?>
<svg color="Col_BGSand" xmlns="http://www.w3.org/2000/svg" xmlns:rt="http://www.rts.co.at/2001/XMLSchema/RtSvgPL" xmlns:xlink="http://www.w3.org/1999/xlink" xmlns:xsi="http://www.w3.org/2001/XMLSchema-instance" xsi:schemaLocation="http://www.w3.org/2000/svg C:\RTS\RtSvg\XML\SVG.xsd" viewBox="0 0 1914 1000" width="1914" height="1000" id="ktp">
  <rt:model modelversion="7.2.0.23" comment="—ÓÁ‰‡ÌÓ VNIIAES-ASUTP\pazdnikov 13.08.2012 14:22:11"/> 
  <line x1="575.182" y1="969.697" x2="227.243" y2="970" stroke="black" stroke-width="3"/> 
  <g transform="scale(1.04 1.42 134.273 927.273)">
    <circle cx="-691.668" cy="-400.697" r="59.8691" fill="#949494" stroke="none" stroke-width="1" transform="flipY() translate(0 -828) translate(758.982 313.678)"/> 
    <circle cx="-637.668" cy="-400.697" r="59.8691" fill="#949494" stroke="none" stroke-width="1" transform="flipY() translate(0 -828) translate(848.162 313.678)"/> 
    <rect x="-1191.5" y="-404.291" width="205.565" height="120.133" rx="0" ry="0" fill="#949494" stroke="none" stroke-width="0" transform="flipY() translate(0 -828) translate(960.476 257.409) scale(0.753357 0.999998)"/> 
  </g>
  <line x1="330.97" y1="746" x2="458" y2="746" stroke="black"/> 
  <rect x="1842.21" y="768" width="9" height="23" rx="0" ry="0" fill="Col_Grey4" stroke="none" transform="flipX(1700.71)"/> 
  <line x1="96.8497" y1="321.546" x2="96.8497" y2="68.0306" stroke="black" stroke-width="3"/> 
  <line x1="1269" y1="684.636" x2="1269" y2="384.848" stroke="black"/> 
  <circle cx="951" cy="531" r="59" fill="Col_Grey4" stroke="none"/> 
  <text x="995.424" y="467.97" font-size="15">10JEA10<tspan x="995.424" dy="15">AC001</tspan>
  </text>
  <rect x="910" y="468" width="9" height="23" rx="0" ry="0" fill="Col_Grey4" stroke="none"/> 
  <line x1="914" y1="513" x2="914" y2="419" stroke="black"/> 
  <rect x="983" y="473" width="9" height="23" rx="0" ry="0" fill="Col_Grey4" stroke="none"/> 
  <line x1="988" y1="519" x2="988" y2="420" stroke="black"/> 
  <circle cx="948" cy="830.879" r="59" fill="Col_Grey4" stroke="none"/> 
  <text x="995.424" y="781.515" font-size="15">10JEA20<tspan x="995.424" dy="15">AC001</tspan>
  </text>
  <rect x="907" y="767" width="9" height="23" rx="0" ry="0" fill="Col_Grey4" stroke="none"/> 
  <line x1="911" y1="795" x2="911" y2="750" stroke="black"/> 
  <rect x="982" y="767" width="9" height="23" rx="0" ry="0" fill="Col_Grey4" stroke="none"/> 
  <line x1="987" y1="800" x2="986" y2="749" stroke="black"/> 
  <line x1="676.697" y1="146.97" x2="677" y2="846.485" stroke="black"/> 
  <line x1="670.73" y1="847.015" x2="687.39" y2="847.015" stroke="black"/> 
  <text x="1101.21" y="332.212" font-size="15">11KTP10<tspan x="1101.21" dy="15">AA001</tspan>
  </text>
  <text x="1351.36" y="332.212" font-size="15">12KTP10<tspan x="1351.36" dy="15">AA002</tspan>
  </text>
  <line x1="1908.52" y1="148.485" x2="1909" y2="845.515" stroke="black"/> 
  <circle cx="1591.21" cy="528" r="59" fill="Col_Grey4" stroke="none"/> 
  <text x="1636.49" y="467.97" font-size="15">10JEA40<tspan x="1636.49" dy="15">AC001</tspan>
  </text>
  <rect x="1625.21" y="472" width="9" height="23" rx="0" ry="0" fill="Col_Grey4" stroke="none"/> 
  <text x="1636.49" y="781.515" font-size="15">10JEA30<tspan x="1636.49" dy="15">AC001</tspan>
  </text>
  <image x="1278.45" y="233.576" width="175" height="25" xlink:href="DS_ana.svg">
    <title>12KTP10CT003</title>
    <rt:dyn type="FKKS" mode="constant" value="&quot;12KTP10CT003&quot;"/> 
    <rt:dyn type="X" mode="constant" value="&quot;T&quot;"/> 
    <rt:dyn type="ShowFrame" mode="constant" value="true"/> 
    <rt:dyn type="Color_Readings" mode="constant" value="true"/> 
    <rt:dyn type="ValueToTheRight" mode="constant" value="false"/> 
  </image>
  <image x="684.909" y="233.576" width="175" height="25" xlink:href="DS_ana.svg">
    <title>12KTP10CT002</title>
    <rt:dyn type="FKKS" mode="constant" value="&quot;12KTP10CT002&quot;"/> 
    <rt:dyn type="X" mode="constant" value="&quot;T&quot;"/> 
    <rt:dyn type="ShowFrame" mode="constant" value="true"/> 
    <rt:dyn type="Color_Readings" mode="constant" value="true"/> 
    <rt:dyn type="ValueToTheRight" mode="constant" value="false"/> 
  </image>
  <text x="279.788" y="875.758" font-size="15">11KTP30<tspan x="279.788" dy="15">AA001</tspan>
  </text>
  <text x="535.788" y="875.758" font-size="15">12KTP30<tspan x="535.788" dy="15">AA002</tspan>
  </text>
  <text x="253.515" y="494.212" font-size="15">11KTP40AA003</text>
  <text x="252" y="674.121" font-size="15">12KTP40AA004</text>
  <polygon points="953.923,-419.034 967.303,-411.39 967.303,-426.677 953.923,-419.034" fill="black" stroke="black" stroke-width="1" transform="rotate(90 412.141 504.05) rotate(270 1279.17 367.814)"/> 
  <text x="182.121" y="588.909" font-size="15">‚ √Œ</text>
  <text x="71.727" y="848.182" font-size="15">10JEG10BB001</text>
  <line x1="1269" y1="289.394" x2="1269" y2="150" stroke="black"/> 
  <rect x="1550.21" y="472" width="9" height="23" rx="0" ry="0" fill="Col_Grey4" stroke="none"/> 
  <line x1="1911.48" y1="148" x2="676.636" y2="148" stroke="black"/> 
  <text x="235.788" y="21.2121" font-size="15">11KTP40AA001</text>
  <text x="231.242" y="201.515" font-size="15">12KTP40AA002</text>
  <text x="63.0606" y="21.2121" font-size="15">Í »œ”  ƒ</text>
  <text x="952.88" y="37.1212" font-size="32">KTP</text>
  <image x="213.539" y="848.826" width="25" height="130" xlink:href="DS_ana_bar.svg">
    <title>10JEG10CL001</title>
    <rt:dyn type="FKKS" mode="constant" value="&quot;10JEG10CL001&quot;"/> 
  </image>
  <image x="31.085" y="865.432" width="175" height="25" xlink:href="DS_ana.svg">
    <title>10JEG10CL001</title>
    <rt:dyn type="FKKS" mode="constant" value="&quot;10JEG10CL001&quot;"/> 
    <rt:dyn type="X" mode="constant" value="&quot;L&quot;"/> 
    <rt:dyn type="ShowFrame" mode="constant" value="true"/> 
    <rt:dyn type="Color_Readings" mode="constant" value="true"/> 
    <rt:dyn type="ValueToTheRight" mode="constant" value="false"/> 
  </image>
  <image x="31.085" y="893.311" width="175" height="25" xlink:href="DS_ana.svg">
    <title>10JEG10CP001</title>
    <rt:dyn type="FKKS" mode="constant" value="&quot;10JEG10CP001&quot;"/> 
    <rt:dyn type="X" mode="constant" value="&quot;P&quot;"/> 
    <rt:dyn type="ShowFrame" mode="constant" value="true"/> 
    <rt:dyn type="Color_Readings" mode="constant" value="true"/> 
    <rt:dyn type="ValueToTheRight" mode="constant" value="false"/> 
  </image>
  <image x="467.606" y="196.97" width="175" height="25" xlink:href="DS_ana.svg">
    <title>12KTP10CP001</title>
    <rt:dyn type="FKKS" mode="constant" value="&quot;12KTP10CP001&quot;"/> 
    <rt:dyn type="X" mode="constant" value="&quot;P&quot;"/> 
    <rt:dyn type="ShowFrame" mode="constant" value="true"/> 
    <rt:dyn type="Color_Readings" mode="constant" value="true"/> 
    <rt:dyn type="ValueToTheRight" mode="constant" value="false"/> 
  </image>
  <image x="378.212" y="77.9394" width="175" height="25" xlink:href="DS_ana.svg">
    <title>12KTP10CT001</title>
    <rt:dyn type="FKKS" mode="constant" value="&quot;12KTP10CT001&quot;"/> 
    <rt:dyn type="X" mode="constant" value="&quot;T&quot;"/> 
    <rt:dyn type="ShowFrame" mode="constant" value="true"/> 
    <rt:dyn type="Color_Readings" mode="constant" value="true"/> 
    <rt:dyn type="ValueToTheRight" mode="constant" value="false"/> 
  </image>
  <line x1="911" y1="954.333" x2="911" y2="791.001" stroke="black" stroke-width="3"/> 
  <line x1="1158.76" y1="243.364" x2="1384.52" y2="-124.818" stroke="black" stroke-width="3" transform="flipY() translate(0 -828) translate(0 0)"/> 
  <line x1="1384.52" y1="244.879" x2="1157.24" y2="-123.303" stroke="black" stroke-width="3" transform="flipY() translate(0 -828)"/> 
  <line x1="1156.48" y1="175.81" x2="1383.07" y2="-58.467" stroke="black" stroke-width="3" transform="flipY() translate(0 -828)"/> 
  <line x1="1383.92" y1="175.81" x2="1157.34" y2="-58.039" stroke="black" stroke-width="3" transform="flipY() translate(0 -828)"/> 
  <circle cx="1152.21" cy="349.85" r="67.7832" fill="Col_Grey4" stroke="black" stroke-width="0.824219" transform="flipY() translate(0 -828) translate(-123.185 -361.059) scale(1.21 1.21)"/> 
  <line x1="987" y1="887" x2="987.62" y2="791.001" stroke="black" stroke-width="3"/> 
  <line x1="1382.7" y1="952.818" x2="1629.67" y2="953" stroke="black" stroke-width="3"/> 
  <line x1="1381.18" y1="886.151" x2="1553.91" y2="887.424" stroke="black" stroke-width="3"/> 
  <circle cx="1591.21" cy="831.879" r="59" fill="Col_Grey4" stroke="none"/> 
  <rect x="1625.21" y="768" width="9" height="23" rx="0" ry="0" fill="Col_Grey4" stroke="none"/> 
  <line x1="1553.5" y1="888.19" x2="1554.13" y2="792.191" stroke="black" stroke-width="3"/> 
  <line x1="1629.67" y1="954.333" x2="1629.99" y2="793.848" stroke="black" stroke-width="3"/> 
  <line x1="1554" y1="796" x2="1554" y2="750" stroke="black"/> 
  <line x1="1630" y1="800" x2="1630" y2="750" stroke="black"/> 
  <line x1="914.53" y1="651.342" x2="914.53" y2="510.343" stroke="black" stroke-width="3"/> 
  <line x1="988" y1="588.342" x2="988.62" y2="492.343" stroke="black" stroke-width="3"/> 
  <line x1="1382.7" y1="584.636" x2="1553.91" y2="584" stroke="black" stroke-width="3"/> 
  <line x1="1381.18" y1="652.818" x2="1631.18" y2="653" stroke="black" stroke-width="3"/> 
  <line x1="1553.5" y1="586.342" x2="1554.13" y2="490.343" stroke="black" stroke-width="3"/> 
  <line x1="1629.99" y1="653.272" x2="1629.99" y2="512.273" stroke="black" stroke-width="3"/> 
  <text x="1268.48" y="772.737" font-size="15" text-anchor="middle">10JAA10BB001</text>
  <text x="1769.06" y="669.242" font-size="15">11KTP23AA001</text>
  <text x="1769.06" y="816.242" font-size="15">12KTP23AA002</text>
  <line x1="1747.88" y1="712.242" x2="1907.88" y2="712.242" stroke="black"/> 
  <line x1="1747.88" y1="783.242" x2="1908.88" y2="783.242" stroke="black"/> 
  <image x="1792.79" y="669.242" width="70" height="65" xlink:href="DS_CO_valve.svg" transform="flipX()">
    <title>11KTP23AA001</title>
    <rt:dyn type="KKS" mode="constant" value="&quot;11KTP23AA001&quot;"/> 
    <rt:dyn type="DATA_NARY" mode="constant" value="&quot;TPTS&quot;"/> 
    <rt:dyn type="Operate" mode="constant" value="true"/> 
  </image>
  <image x="1792.79" y="741.242" width="70" height="65" xlink:href="DS_CO_valve.svg" transform="flipX()">
    <title>12KTP23AA002</title>
    <rt:dyn type="KKS" mode="constant" value="&quot;12KTP23AA002&quot;"/> 
    <rt:dyn type="DATA_NARY" mode="constant" value="&quot;TPTS&quot;"/> 
    <rt:dyn type="Operate" mode="constant" value="true"/> 
  </image>
  <line x1="1748.38" y1="711.575" x2="1748.38" y2="784.242" stroke="black"/> 
  <line x1="1901.94" y1="847.015" x2="1918.6" y2="847.015" stroke="black"/> 
  <line x1="1552.71" y1="749.212" x2="1749.36" y2="746.515" stroke="black"/> 
  <line x1="1606" y1="732.773" x2="1720.61" y2="732.773" stroke="black"/> 
  <g transform="flipX(1541.09) flipX(1408.33) rotate(180 1212.44 532.643)">
    <polygon points="1471.05,360.756 1484.43,368.4 1484.43,353.114 1471.05,360.756" fill="black" stroke="black" stroke-width="1" transform="rotate(180 1279.17 367.814)"/> 
  </g>
  <line x1="1720.3" y1="691.454" x2="1613.37" y2="691.575" stroke="black"/> 
  <line x1="1719.56" y1="745.125" x2="1720.06" y2="690.459" stroke="black"/> 
  <line x1="1630" y1="521" x2="1630" y2="422" stroke="black"/> 
  <line x1="1554" y1="516" x2="1554" y2="422" stroke="black"/> 
  <line x1="1749.72" y1="386.121" x2="1909.72" y2="386.121" stroke="black"/> 
  <line x1="1749.72" y1="457.121" x2="1910.72" y2="457.121" stroke="black"/> 
  <line x1="1750.22" y1="385.454" x2="1750.22" y2="458.121" stroke="black"/> 
  <line x1="1554.55" y1="423.091" x2="1751.2" y2="420.394" stroke="black"/> 
  <line x1="1604" y1="404.818" x2="1721.45" y2="404.818" stroke="black"/> 
  <g transform="flipX(1541.09) flipX(1408.33) rotate(180 1212.44 532.643)">
    <polygon points="1471.89,34.6364 1485.27,42.2804 1485.27,26.9944 1471.89,34.6364" fill="black" stroke="black" stroke-width="1" transform="rotate(180 1279.17 367.814)"/> 
  </g>
  <line x1="1722.14" y1="365.333" x2="1615.21" y2="365.454" stroke="black"/> 
  <line x1="1721.4" y1="419.004" x2="1721.9" y2="364.338" stroke="black"/> 
  <image x="1792.79" y="343.485" width="70" height="65" xlink:href="DS_CO_valve.svg" transform="flipX()">
    <title>11KTP24AA001</title>
    <rt:dyn type="KKS" mode="constant" value="&quot;11KTP24AA001&quot;"/> 
    <rt:dyn type="DATA_NARY" mode="constant" value="&quot;TPTS&quot;"/> 
    <rt:dyn type="Operate" mode="constant" value="true"/> 
  </image>
  <text x="1769.06" y="340.454" font-size="15">11KTP24AA001</text>
  <image x="1792.79" y="413.667" width="70" height="65" xlink:href="DS_CO_valve.svg" transform="flipX()">
    <title>12KTP24AA002</title>
    <rt:dyn type="KKS" mode="constant" value="&quot;12KTP24AA002&quot;"/> 
    <rt:dyn type="DATA_NARY" mode="constant" value="&quot;TPTS&quot;"/> 
    <rt:dyn type="Operate" mode="constant" value="true"/> 
  </image>
  <text x="1769.06" y="493.485" font-size="15">12KTP24AA002</text>
  <image x="1725.09" y="233.576" width="175" height="25" xlink:href="DS_ana.svg">
    <title>12KTP10CT004</title>
    <rt:dyn type="FKKS" mode="constant" value="&quot;12KTP10CT004&quot;"/> 
    <rt:dyn type="X" mode="constant" value="&quot;T&quot;"/> 
    <rt:dyn type="ShowFrame" mode="constant" value="true"/> 
    <rt:dyn type="Color_Readings" mode="constant" value="true"/> 
    <rt:dyn type="ValueToTheRight" mode="constant" value="false"/> 
  </image>
  <line x1="989.09" y1="586.151" x2="1161.48" y2="584.636" stroke="black" stroke-width="3"/> 
  <line x1="911.302" y1="653.151" x2="1158.45" y2="652.818" stroke="black" stroke-width="3"/> 
  <line x1="987.24" y1="885.302" x2="1156.94" y2="884.636" stroke="black" stroke-width="3"/> 
  <line x1="909.453" y1="952.302" x2="1156.94" y2="951.303" stroke="black" stroke-width="3"/> 
  <line x1="678.803" y1="713.303" x2="838.803" y2="713.303" stroke="black"/> 
  <line x1="678.803" y1="784.303" x2="839.803" y2="784.303" stroke="black"/> 
  <line x1="838.303" y1="712.636" x2="838.303" y2="785.303" stroke="black"/> 
  <g transform="flipX(1408.33) rotate(180 1212.44 532.643)">
    <polygon points="1964.24,363.606 1977.62,371.25 1977.62,355.963 1964.24,363.606" fill="black" stroke="black" stroke-width="1" transform="rotate(180 1279.17 367.814)"/> 
  </g>
  <line x1="977.6" y1="694.303" x2="870.673" y2="694.424" stroke="black"/> 
  <line x1="838.453" y1="749.636" x2="986.82" y2="749.303" stroke="black"/> 
  <line x1="870.803" y1="748.969" x2="871.303" y2="694.303" stroke="black"/> 
  <line x1="872.909" y1="733.773" x2="982" y2="733.773" stroke="black"/> 
  <image x="718.152" y="671.273" width="70" height="65" xlink:href="DS_CO_valve.svg" transform="flipX()">
    <title>11KTP22AA001</title>
    <rt:dyn type="KKS" mode="constant" value="&quot;11KTP22AA001&quot;"/> 
    <rt:dyn type="DATA_NARY" mode="constant" value="&quot;TPTS&quot;"/> 
    <rt:dyn type="Operate" mode="constant" value="true"/> 
  </image>
  <text x="697.061" y="668.697" font-size="15">11KTP22AA001</text>
  <image x="718.152" y="740.939" width="70" height="65" xlink:href="DS_CO_valve.svg" transform="flipX()">
    <title>12KTP22AA002</title>
    <rt:dyn type="KKS" mode="constant" value="&quot;12KTP22AA002&quot;"/> 
    <rt:dyn type="DATA_NARY" mode="constant" value="&quot;TPTS&quot;"/> 
    <rt:dyn type="Operate" mode="constant" value="true"/> 
  </image>
  <text x="695.546" y="816.212" font-size="15">12KTP22AA002</text>
  <line x1="678" y1="381.97" x2="838" y2="381.97" stroke="black"/> 
  <line x1="678" y1="452.97" x2="839" y2="452.97" stroke="black"/> 
  <line x1="837.5" y1="381.303" x2="837.5" y2="453.97" stroke="black"/> 
  <g transform="flipX(1408.33) rotate(180 1212.44 532.643)">
    <polygon points="1964.04,35.2729 1977.42,42.9169 1977.42,27.6299 1964.04,35.2729" fill="black" stroke="black" stroke-width="1" transform="rotate(180 1279.17 367.814)"/> 
  </g>
  <line x1="976.8" y1="365.97" x2="869.87" y2="366.091" stroke="black"/> 
  <line x1="839.65" y1="420.303" x2="988.02" y2="419.97" stroke="black"/> 
  <line x1="870" y1="420.636" x2="870.5" y2="365.97" stroke="black"/> 
  <line x1="870.106" y1="404.44" x2="981" y2="404.44" stroke="black"/> 
  <image x="713.152" y="339.424" width="70" height="65" xlink:href="DS_CO_valve.svg" transform="flipX()">
    <title>11KTP21AA001</title>
    <rt:dyn type="KKS" mode="constant" value="&quot;11KTP21AA001&quot;"/> 
    <rt:dyn type="DATA_NARY" mode="constant" value="&quot;TPTS&quot;"/> 
    <rt:dyn type="Operate" mode="constant" value="true"/> 
  </image>
  <text x="697.061" y="333.848" font-size="15">11KTP21AA001</text>
  <image x="713.152" y="409.636" width="70" height="65" xlink:href="DS_CO_valve.svg" transform="flipX()">
    <title>12KTP21AA002</title>
    <rt:dyn type="KKS" mode="constant" value="&quot;12KTP21AA002&quot;"/> 
    <rt:dyn type="DATA_NARY" mode="constant" value="&quot;TPTS&quot;"/> 
    <rt:dyn type="Operate" mode="constant" value="true"/> 
  </image>
  <text x="695.546" y="484.394" font-size="15">12KTP21AA002</text>
  <g transform="scale(1.16 1 310.03 454.545) rotate(90 310.03 454.545)">
    <circle cx="-656.048" cy="-103.765" r="94.5212" fill="#949494" stroke="none" stroke-width="1" transform="flipY() translate(0 -828) translate(758.982 313.678)"/> 
    <circle cx="-566.049" cy="-103.945" r="94.5212" fill="#949494" stroke="none" stroke-width="1" transform="flipY() translate(0 -828) translate(848.162 313.678)"/> 
    <rect x="-1142.96" y="-141.618" width="241.585" height="188" rx="0.120026" ry="0.120026" fill="#949494" stroke="none" stroke-width="0" transform="flipY() translate(0 -828) translate(960.476 257.409) scale(0.753357 0.999998)"/> 
  </g>
  <image x="195.092" y="226.94" width="27" height="233" xlink:href="DS_ana_bar.svg">
    <title>10JEF10CL902</title>
    <rt:dyn type="FKKS" mode="constant" value="&quot;10JEF10CL902&quot;"/> 
  </image>
  <image x="16.4187" y="298.857" width="175" height="25" xlink:href="DS_ana.svg">
    <title>10JEF10CL902</title>
    <rt:dyn type="FKKS" mode="constant" value="&quot;10JEF10CL902&quot;"/> 
    <rt:dyn type="X" mode="constant" value="&quot;L&quot;"/> 
    <rt:dyn type="ShowFrame" mode="constant" value="true"/> 
    <rt:dyn type="Color_Readings" mode="constant" value="true"/> 
    <rt:dyn type="ValueToTheRight" mode="constant" value="false"/> 
  </image>
  <image x="16.4187" y="331.736" width="175" height="25" xlink:href="DS_ana.svg">
    <title>10JEF10CP001</title>
    <rt:dyn type="FKKS" mode="constant" value="&quot;10JEF10CP001&quot;"/> 
    <rt:dyn type="X" mode="constant" value="&quot;P&quot;"/> 
    <rt:dyn type="ShowFrame" mode="constant" value="true"/> 
    <rt:dyn type="Color_Readings" mode="constant" value="true"/> 
    <rt:dyn type="ValueToTheRight" mode="constant" value="false"/> 
  </image>
  <text x="35.5767" y="231.364" font-size="15">10JEF10BB001</text>
  <image x="999.874" y="556.576" width="175" height="25" xlink:href="DS_ana.svg">
    <title>12KTP10CT004</title>
    <rt:dyn type="FKKS" mode="constant" value="&quot;10JAA10CT001&quot;"/> 
    <rt:dyn type="X" mode="constant" value="&quot;T&quot;"/> 
    <rt:dyn type="ShowFrame" mode="constant" value="true"/> 
    <rt:dyn type="Color_Readings" mode="constant" value="true"/> 
    <rt:dyn type="ValueToTheRight" mode="constant" value="false"/> 
  </image>
  <image x="991.333" y="657.849" width="175" height="25" xlink:href="DS_ana.svg">
    <title>12KTP10CT004</title>
    <rt:dyn type="FKKS" mode="constant" value="&quot;12KTP10CT004&quot;"/> 
    <rt:dyn type="X" mode="constant" value="&quot;T&quot;"/> 
    <rt:dyn type="ShowFrame" mode="constant" value="true"/> 
    <rt:dyn type="Color_Readings" mode="constant" value="true"/> 
    <rt:dyn type="ValueToTheRight" mode="constant" value="false"/> 
  </image>
  <image x="991.878" y="600.667" width="175" height="25" xlink:href="DS_ana.svg">
    <title>12KTP10CT004</title>
    <rt:dyn type="FKKS" mode="constant" value="&quot;10JAA10CT001&quot;"/> 
    <rt:dyn type="X" mode="constant" value="&quot;dT&quot;"/> 
    <rt:dyn type="ShowFrame" mode="constant" value="true"/> 
    <rt:dyn type="Color_Readings" mode="constant" value="true"/> 
    <rt:dyn type="ValueToTheRight" mode="constant" value="false"/> 
  </image>
  <image x="991.878" y="900.546" width="175" height="25" xlink:href="DS_ana.svg">
    <title>12KTP10CT004</title>
    <rt:dyn type="FKKS" mode="constant" value="&quot;12KTP10CT004&quot;"/> 
    <rt:dyn type="X" mode="constant" value="&quot;dT&quot;"/> 
    <rt:dyn type="ShowFrame" mode="constant" value="true"/> 
    <rt:dyn type="Color_Readings" mode="constant" value="true"/> 
    <rt:dyn type="ValueToTheRight" mode="constant" value="false"/> 
  </image>
  <image x="971.636" y="956.848" width="175" height="25" xlink:href="DS_ana.svg">
    <title>12KTP10CT004</title>
    <rt:dyn type="FKKS" mode="constant" value="&quot;12KTP10CT004&quot;"/> 
    <rt:dyn type="X" mode="constant" value="&quot;T&quot;"/> 
    <rt:dyn type="ShowFrame" mode="constant" value="true"/> 
    <rt:dyn type="Color_Readings" mode="constant" value="true"/> 
    <rt:dyn type="ValueToTheRight" mode="constant" value="false"/> 
  </image>
  <image x="1385.98" y="900.546" width="175" height="25" xlink:href="DS_ana.svg">
    <title>12KTP10CT004</title>
    <rt:dyn type="FKKS" mode="constant" value="&quot;12KTP10CT004&quot;"/> 
    <rt:dyn type="X" mode="constant" value="&quot;dT&quot;"/> 
    <rt:dyn type="ShowFrame" mode="constant" value="true"/> 
    <rt:dyn type="Color_Readings" mode="constant" value="true"/> 
    <rt:dyn type="ValueToTheRight" mode="constant" value="false"/> 
  </image>
  <image x="1391.44" y="956.848" width="175" height="25" xlink:href="DS_ana.svg">
    <title>12KTP10CT004</title>
    <rt:dyn type="FKKS" mode="constant" value="&quot;12KTP10CT004&quot;"/> 
    <rt:dyn type="X" mode="constant" value="&quot;T&quot;"/> 
    <rt:dyn type="ShowFrame" mode="constant" value="true"/> 
    <rt:dyn type="Color_Readings" mode="constant" value="true"/> 
    <rt:dyn type="ValueToTheRight" mode="constant" value="false"/> 
  </image>
  <image x="1363.03" y="556.576" width="175" height="25" xlink:href="DS_ana.svg">
    <title>12KTP10CT004</title>
    <rt:dyn type="FKKS" mode="constant" value="&quot;12KTP10CT004&quot;"/> 
    <rt:dyn type="X" mode="constant" value="&quot;T&quot;"/> 
    <rt:dyn type="ShowFrame" mode="constant" value="true"/> 
    <rt:dyn type="Color_Readings" mode="constant" value="true"/> 
    <rt:dyn type="ValueToTheRight" mode="constant" value="false"/> 
  </image>
  <image x="1385.98" y="600.667" width="175" height="25" xlink:href="DS_ana.svg">
    <title>12KTP10CT004</title>
    <rt:dyn type="FKKS" mode="constant" value="&quot;12KTP10CT004&quot;"/> 
    <rt:dyn type="X" mode="constant" value="&quot;dT&quot;"/> 
    <rt:dyn type="ShowFrame" mode="constant" value="true"/> 
    <rt:dyn type="Color_Readings" mode="constant" value="true"/> 
    <rt:dyn type="ValueToTheRight" mode="constant" value="false"/> 
  </image>
  <image x="1391.44" y="657.849" width="175" height="25" xlink:href="DS_ana.svg">
    <title>12KTP10CT004</title>
    <rt:dyn type="FKKS" mode="constant" value="&quot;12KTP10CT004&quot;"/> 
    <rt:dyn type="X" mode="constant" value="&quot;T&quot;"/> 
    <rt:dyn type="ShowFrame" mode="constant" value="true"/> 
    <rt:dyn type="Color_Readings" mode="constant" value="true"/> 
    <rt:dyn type="ValueToTheRight" mode="constant" value="false"/> 
  </image>
  <line x1="246.394" y1="114" x2="96.3939" y2="114" stroke="black"/> 
  <line x1="458" y1="827.939" x2="458" y2="113.636" stroke="black"/> 
  <line x1="233.636" y1="583.348" x2="266.969" y2="583.348" stroke="black"/> 
  <line x1="264.773" y1="539.438" x2="264.773" y2="635.439" stroke="black"/> 
  <line x1="265.773" y1="539.772" x2="377.314" y2="539.772" stroke="black"/> 
  <line x1="265.773" y1="634.772" x2="376.314" y2="634.772" stroke="black"/> 
  <line x1="376.861" y1="540.499" x2="376.861" y2="634.439" stroke="black"/> 
  <image x="294.576" y="488.333" width="70" height="65" xlink:href="DS_CO_valve.svg" transform="rotate(90 -10.0001 0) rotate(270 0 0) flipX()">
    <title>11KTP40AA003</title>
    <rt:dyn type="KKS" mode="constant" value="&quot;11KTP40AA003&quot;"/> 
    <rt:dyn type="DATA_NARY" mode="constant" value="&quot;TPTS&quot;"/> 
    <rt:dyn type="Operate" mode="constant" value="true"/> 
  </image>
  <image x="294.576" y="582.848" width="70" height="65" xlink:href="DS_CO_valve.svg" transform="rotate(90 -10 0) rotate(270 0 0) flipX()">
    <title>12KTP40AA004</title>
    <rt:dyn type="KKS" mode="constant" value="&quot;12KTP40AA004&quot;"/> 
    <rt:dyn type="DATA_NARY" mode="constant" value="&quot;TPTS&quot;"/> 
    <rt:dyn type="Operate" mode="constant" value="true"/> 
  </image>
  <line x1="243.97" y1="67.4084" x2="243.97" y2="163.409" stroke="black"/> 
  <line x1="244.97" y1="67.7424" x2="356.511" y2="67.7424" stroke="black"/> 
  <line x1="244.97" y1="162.742" x2="355.511" y2="162.742" stroke="black"/> 
  <line x1="356.058" y1="68.4694" x2="356.058" y2="162.409" stroke="black"/> 
  <image x="263.061" y="26.3939" width="70" height="65" xlink:href="DS_CO_valve.svg" transform="rotate(0 0 -10) flipX()">
    <title>11KTP40AA001</title>
    <rt:dyn type="KKS" mode="constant" value="&quot;11KTP40AA001&quot;"/> 
    <rt:dyn type="DATA_NARY" mode="constant" value="&quot;TPTS&quot;"/> 
    <rt:dyn type="Operate" mode="constant" value="true"/> 
  </image>
  <image x="264.576" y="120.879" width="70" height="65" xlink:href="DS_CO_valve.svg" transform="rotate(0 0 -10) flipX()">
    <title>12KTP22AA002</title>
    <rt:dyn type="KKS" mode="constant" value="&quot;12KTP40AA002&quot;"/> 
    <rt:dyn type="DATA_NARY" mode="constant" value="&quot;TPTS&quot;"/> 
    <rt:dyn type="Operate" mode="constant" value="true"/> 
  </image>
  <line x1="398.409" y1="826.772" x2="398.409" y2="922.773" stroke="black"/> 
  <line x1="399.409" y1="827.106" x2="510.95" y2="827.106" stroke="black"/> 
  <line x1="399.409" y1="922.106" x2="509.95" y2="922.106" stroke="black"/> 
  <line x1="510.497" y1="827.833" x2="510.497" y2="921.773" stroke="black"/> 
  <line x1="460.03" y1="585" x2="376.182" y2="585" stroke="black"/> 
  <image x="364.095" y="836.803" width="70" height="65" xlink:href="DS_CO_valve.svg" transform="rotate(270 0 0) flipX()">
    <title>11KTP30AA001</title>
    <rt:dyn type="KKS" mode="constant" value="&quot;11KTP30AA001&quot;"/> 
    <rt:dyn type="DATA_NARY" mode="constant" value="&quot;TPTS&quot;"/> 
    <rt:dyn type="Operate" mode="constant" value="true"/> 
  </image>
  <image x="476.106" y="830.742" width="70" height="65" xlink:href="DS_CO_valve.svg" transform="rotate(270 0 0) flipX()">
    <title>12KTP30AA002</title>
    <rt:dyn type="KKS" mode="constant" value="&quot;12KTP30AA002&quot;"/> 
    <rt:dyn type="DATA_NARY" mode="constant" value="&quot;TPTS&quot;"/> 
    <rt:dyn type="Operate" mode="constant" value="true"/> 
  </image>
  <line x1="461" y1="921.061" x2="461" y2="971.212" stroke="black"/> 
  <line x1="1212.5" y1="289.166" x2="1212.5" y2="385.167" stroke="black"/> 
  <line x1="1213.5" y1="289.5" x2="1325.04" y2="289.5" stroke="black"/> 
  <line x1="1213.5" y1="384.5" x2="1324.04" y2="384.5" stroke="black"/> 
  <line x1="1324.59" y1="290.227" x2="1324.59" y2="384.167" stroke="black"/> 
  <image x="1177.67" y="293.742" width="70" height="65" xlink:href="DS_CO_valve.svg" transform="rotate(270 0 0) flipX()">
    <title>11KTP10AA001</title>
    <rt:dyn type="KKS" mode="constant" value="&quot;11KTP10AA001&quot;"/> 
    <rt:dyn type="DATA_NARY" mode="constant" value="&quot;TPTS&quot;"/> 
    <rt:dyn type="Operate" mode="constant" value="true"/> 
  </image>
  <image x="1289.82" y="293.742" width="70" height="65" xlink:href="DS_CO_valve.svg" transform="rotate(270 0 0) flipX()">
    <title>12KTP10AA002</title>
    <rt:dyn type="KKS" mode="constant" value="&quot;12KTP10AA002&quot;"/> 
    <rt:dyn type="DATA_NARY" mode="constant" value="&quot;TPTS&quot;"/> 
    <rt:dyn type="Operate" mode="constant" value="true"/> 
  </image>
  <image x="999.874" y="857.121" width="175" height="25" xlink:href="DS_ana.svg">
    <title>12KTP10CT004</title>
    <rt:dyn type="FKKS" mode="constant" value="&quot;12KTP10CT004&quot;"/> 
    <rt:dyn type="X" mode="constant" value="&quot;T&quot;"/> 
    <rt:dyn type="ShowFrame" mode="constant" value="true"/> 
    <rt:dyn type="Color_Readings" mode="constant" value="true"/> 
    <rt:dyn type="ValueToTheRight" mode="constant" value="false"/> 
  </image>
  <image x="1363.03" y="858.121" width="175" height="25" xlink:href="DS_ana.svg">
    <title>12KTP10CT004</title>
    <rt:dyn type="FKKS" mode="constant" value="&quot;12KTP10CT004&quot;"/> 
    <rt:dyn type="X" mode="constant" value="&quot;T&quot;"/> 
    <rt:dyn type="ShowFrame" mode="constant" value="true"/> 
    <rt:dyn type="Color_Readings" mode="constant" value="true"/> 
    <rt:dyn type="ValueToTheRight" mode="constant" value="false"/> 
  </image>
  <text x="946.212" y="542.303" fill="black" font-size="40" text-anchor="middle">1</text>
  <text x="1591.06" y="542.303" fill="black" font-size="40" text-anchor="middle">4</text>
  <text x="948.485" y="844.576" fill="black" font-size="40" text-anchor="middle">2</text>
  <text x="1588.79" y="844.576" fill="black" font-size="40" text-anchor="middle">3</text>
  <image x="31.085" y="920.667" width="175" height="25" xlink:href="DS_ana.svg">
    <title>10KTB12CP001</title>
    <rt:dyn type="FKKS" mode="constant" value="&quot;10KTB12CP001&quot;"/> 
    <rt:dyn type="X" mode="constant" value="&quot;P&quot;"/> 
    <rt:dyn type="ShowFrame" mode="constant" value="true"/> 
    <rt:dyn type="Color_Readings" mode="constant" value="true"/> 
    <rt:dyn type="ValueToTheRight" mode="constant" value="false"/> 
  </image>
  <image x="31.2424" y="948.485" width="175" height="25" xlink:href="DS_ana.svg">
    <title>10JEG10CT001</title>
    <rt:dyn type="FKKS" mode="constant" value="&quot;10JEG10CT001&quot;"/> 
    <rt:dyn type="X" mode="constant" value="&quot;T&quot;"/> 
    <rt:dyn type="ShowFrame" mode="constant" value="true"/> 
    <rt:dyn type="Color_Readings" mode="constant" value="true"/> 
    <rt:dyn type="ValueToTheRight" mode="constant" value="false"/> 
  </image>
  <polygon points="1450.95,330.759 1464.33,338.403 1463.73,323.507 1450.95,330.759" fill="black" stroke="black" stroke-width="1" transform="flipX(1040.2) rotate(180 1279.17 367.814)"/> 
  <polygon points="1450.95,2.12247 1464.33,9.76648 1464.33,-5.52054 1450.95,2.12247" fill="black" stroke="black" stroke-width="1" transform="flipX(1040.2) rotate(180 1279.17 367.814)"/> 
  <polygon points="942.46,331.171 955.84,338.815 955.84,323.529 942.46,331.171" fill="black" stroke="black" stroke-width="1" transform="rotate(180 1279.17 367.814)"/> 
  <polygon points="942.46,3.12253 955.84,10.7665 955.84,-4.52045 942.46,3.12253" fill="black" stroke="black" stroke-width="1" transform="rotate(180 1279.17 367.814)"/> 
  <line x1="458.515" y1="115" x2="354.273" y2="115" stroke="black"/> 
  <text x="116.091" y="66.6667" font-size="15">JEF</text>
  <line x1="678.212" y1="189.394" x2="458.515" y2="189.394" stroke="black"/> 
  <text x="614.576" y="971.212" font-size="15">ÓÚ »œ”  ƒ</text>
  <line x1="1130.21" y1="485.879" x2="1247.66" y2="485.879" stroke="black"/> 
  <g transform="flipX(1541.09) flipX(1408.33) rotate(180 1212.44 532.643)">
    <polygon points="998.102,115.696 1011.48,123.34 1011.48,108.054 998.102,115.696" fill="black" stroke="black" stroke-width="1" transform="rotate(180 1279.17 367.814)"/> 
  </g>
  <line x1="1248.35" y1="446.394" x2="1141.42" y2="446.515" stroke="black"/> 
  <line x1="1248" y1="487.121" x2="1248" y2="445.399" stroke="black"/> 
  <polygon points="1416.25,250.111 1429.63,257.755 1429.63,242.469 1416.25,250.111" fill="black" stroke="black" stroke-width="1" transform="rotate(180 1279.17 367.814)"/> 
  <line x1="1247.42" y1="465" x2="1272.67" y2="465" stroke="black"/> 
  <image x="1631.76" y="369.697" width="75" height="25" xlink:href="obj_link.svg" transform="flipX(37.4999)">
    <rt:dyn type="TextStr" mode="constant" value="&quot;KTB&quot;"/> 
    <rt:event type="OnClick">LoadNew(&quot;ktb&quot;)</rt:event>
  </image>
  <image x="1629.73" y="701.515" width="75" height="25" xlink:href="obj_link.svg" transform="flipX(37.4999)">
    <rt:dyn type="TextStr" mode="constant" value="&quot;KTB&quot;"/> 
    <rt:event type="OnClick">LoadNew(&quot;ktb&quot;)</rt:event>
  </image>
  <image x="1158.52" y="453.03" width="75" height="25" xlink:href="obj_link.svg" transform="flipX(37.4999)">
    <rt:dyn type="TextStr" mode="constant" value="&quot;KTB&quot;"/> 
    <rt:event type="OnClick">LoadNew(&quot;ktb&quot;)</rt:event>
  </image>
  <image x="526.697" y="957.06" width="75" height="25" xlink:href="obj_link.svg" transform="flipX(37.4999)">
    <rt:dyn type="TextStr" mode="constant" value="&quot;JEF&quot;"/> 
    <rt:event type="OnClick">LoadNew(&quot;jef&quot;)</rt:event>
  </image>
  <image x="262.364" y="731.818" width="75" height="25" xlink:href="obj_link.svg" transform="flipX(37.4999)">
    <rt:dyn type="TextStr" mode="constant" value="&quot;KTA&quot;"/> 
    <rt:event type="OnClick">LoadNew(&quot;kta&quot;)</rt:event>
  </image>
  <image x="884.273" y="368.182" width="75" height="25" xlink:href="obj_link.svg">
    <rt:dyn type="TextStr" mode="constant" value="&quot;KTB&quot;"/> 
    <rt:event type="OnClick">LoadNew(&quot;ktb&quot;)</rt:event>
  </image>
  <image x="886.818" y="703.546" width="75" height="25" xlink:href="obj_link.svg">
    <rt:dyn type="TextStr" mode="constant" value="&quot;KTB&quot;"/> 
    <rt:event type="OnClick">LoadNew(&quot;ktb&quot;)</rt:event>
  </image>
  <image x="58" y="53.5153" width="75" height="25" xlink:href="obj_link.svg" transform="rotate(90 37.6379 12.5) flipX(37.4999)">
    <rt:event type="OnClick">LoadNew(&quot;jef&quot;)</rt:event>
  </image>
  <text x="334.288" y="784.273" font-size="15">10KTA10AA001</text>
  <image x="367.788" y="693" width="70" height="65" xlink:href="DS_CO_valve.svg" transform="rotate(90 -10 0) rotate(270 0 0) flipX()">
    <title>10KTA10AA001</title>
    <rt:dyn type="KKS" mode="constant" value="&quot;10KTA10AA001&quot;"/> 
    <rt:dyn type="DATA_NARY" mode="constant" value="&quot;TPTS&quot;"/> 
    <rt:dyn type="Operate" mode="constant" value="true"/> 
  </image>
</svg>
