<?xml  version="1.0" encoding="windows-1251"?>
<svg color="Col_BGSand" xmlns="http://www.w3.org/2000/svg" xmlns:rt="http://www.rts.co.at/2001/XMLSchema/RtSvgPL" xmlns:xlink="http://www.w3.org/1999/xlink" xmlns:xsi="http://www.w3.org/2001/XMLSchema-instance" xsi:schemaLocation="http://www.w3.org/2000/svg C:\RTS\RtSvg\XML\SVG.xsd" viewBox="0 0 1914 1000" width="1914" height="1000" id="kua60_80" stroke="black">
  <desc>Система маслоснабжения регулирования турбины</desc>
  <title>KUA60-80 Система автоматизированного химического контроля 1 контура</title>
  <rt:model modelversion="ver 1.0" comment="Создано Svetlana-VAIO\Svetlana 18.10.2012 21:55:57"/> 
  <line x1="1767.5" y1="414.668" x2="1767.5" y2="160" stroke="black" stroke-width="3"/> 
  <line x1="346" y1="545" x2="378.702" y2="545" stroke="black"/> 
  <text x="803.788" y="36.4242" font-size="32">
    <title>Система автоматизированного химического контроля первого контура</title>
KUA60-80</text>
  <rect x="1851.09" y="125.546" width="0" height="0" rx="0" ry="0"/> 
  <rect x="1861.24" y="333.697" width="0" height="0" rx="0" ry="0"/> 
  <rect x="1851.39" y="810.849" width="0" height="0" rx="0" ry="0"/> 
  <image x="30.2424" y="570.424" width="175" height="25" xlink:href="DS_ana.svg">
    <title>10KUA80CT001</title>
    <rt:dyn type="FKKS" mode="constant" value="&quot;10KUA80CT001&quot;"/> 
    <rt:dyn type="ShowFrame" mode="constant" value="true"/> 
    <rt:dyn type="X" mode="constant" value="&quot;T&quot;"/> 
    <rt:dyn type="Color_Readings" mode="constant" value="true"/> 
    <rt:dyn type="ValueToTheRight" mode="constant" value="false"/> 
  </image>
  <line x1="1407.81" y1="555.454" x2="1407.81" y2="535.454" stroke="black" stroke-width="3"/> 
  <text x="1331.61" y="431.303" fill="black" font-size="15" text-anchor="middle">10KUA70AX002</text>
  <line x1="1258.61" y1="554.303" x2="1408.61" y2="554.303" stroke="black" stroke-width="3"/> 
  <line x1="1259.83" y1="555.515" x2="1259.83" y2="535.515" stroke="black" stroke-width="3"/> 
  <line x1="1036.03" y1="555.939" x2="1036.03" y2="535.939" stroke="black" stroke-width="3"/> 
  <text x="960.607" y="431.303" fill="black" font-size="15" text-anchor="middle">10KUA70AX003</text>
  <line x1="888.528" y1="555.939" x2="888.528" y2="535.939" stroke="black" stroke-width="3"/> 
  <line x1="674.136" y1="555.97" x2="674.136" y2="535.97" stroke="black" stroke-width="3"/> 
  <text x="597.608" y="431.303" fill="black" font-size="15" text-anchor="middle">10KUA80AX002</text>
  <line x1="524.608" y1="554.303" x2="674.608" y2="554.303" stroke="black" stroke-width="3"/> 
  <line x1="526.47" y1="554.879" x2="526.47" y2="534.879" stroke="black" stroke-width="3"/> 
  <line x1="307.547" y1="554.818" x2="307.547" y2="534.818" stroke="black" stroke-width="3"/> 
  <text x="229.441" y="431.303" fill="black" font-size="15" text-anchor="middle">10KUA80AX001</text>
  <line x1="158.442" y1="554.303" x2="308.441" y2="554.303" stroke="black" stroke-width="3"/> 
  <line x1="160.048" y1="554.818" x2="160.048" y2="534.818" stroke="black" stroke-width="3"/> 
  <line x1="1776" y1="554.303" x2="1776" y2="534.303" stroke="black" stroke-width="3"/> 
  <text x="1700.21" y="431.303" fill="black" font-size="15" text-anchor="middle">10KUA70AX001</text>
  <line x1="1626.88" y1="554.303" x2="1776.88" y2="554.303" stroke="black" stroke-width="3"/> 
  <line x1="1628.5" y1="554.303" x2="1628.5" y2="534.303" stroke="black" stroke-width="3"/> 
  <image x="1638.52" y="470.697" width="175" height="25" xlink:href="DS_ana.svg">
    <title>10KUA70CQ001</title>
    <rt:dyn type="FKKS" mode="constant" value="&quot;10KUA70CQ001&quot;"/> 
    <rt:dyn type="X" mode="constant" value="&quot;Q&quot;"/> 
    <rt:dyn type="ShowFrame" mode="constant" value="true"/> 
    <rt:dyn type="Color_Readings" mode="constant" value="true"/> 
    <rt:dyn type="ValueToTheRight" mode="constant" value="false"/> 
  </image>
  <image x="1638.52" y="439.803" width="175" height="25" xlink:href="DS_ana.svg">
    <title>10KUA70CQ002</title>
    <rt:dyn type="FKKS" mode="constant" value="&quot;10KUA70CQ002&quot;"/> 
    <rt:dyn type="X" mode="constant" value="&quot;Q&quot;"/> 
    <rt:dyn type="ShowFrame" mode="constant" value="true"/> 
    <rt:dyn type="Color_Readings" mode="constant" value="true"/> 
    <rt:dyn type="ValueToTheRight" mode="constant" value="false"/> 
  </image>
  <image x="1638.52" y="501.864" width="175" height="25" xlink:href="DS_ana.svg">
    <title>10KUA70CQ003</title>
    <rt:dyn type="FKKS" mode="constant" value="&quot;10KUA70CQ003&quot;"/> 
    <rt:dyn type="X" mode="constant" value="&quot;Q&quot;"/> 
    <rt:dyn type="ShowFrame" mode="constant" value="true"/> 
    <rt:dyn type="Color_Readings" mode="constant" value="true"/> 
    <rt:dyn type="ValueToTheRight" mode="constant" value="false"/> 
  </image>
  <image x="30.2424" y="602.424" width="175" height="25" xlink:href="DS_ana.svg">
    <title>10KUA80CP001</title>
    <rt:dyn type="FKKS" mode="constant" value="&quot;10KUA80CP001&quot;"/> 
    <rt:dyn type="ShowFrame" mode="constant" value="true"/> 
    <rt:dyn type="X" mode="constant" value="&quot;P&quot;"/> 
    <rt:dyn type="Color_Readings" mode="constant" value="true"/> 
    <rt:dyn type="ValueToTheRight" mode="constant" value="false"/> 
  </image>
  <text x="1030.61" y="766.03" fill="black" font-size="15" text-anchor="middle">10KUA60AX001</text>
  <image x="787.244" y="782.758" width="175" height="25" xlink:href="DS_ana.svg">
    <title>10KUA60CQ001</title>
    <rt:dyn type="FKKS" mode="constant" value="&quot;10KUA60CQ001&quot;"/> 
    <rt:dyn type="X" mode="constant" value="&quot;Q&quot;"/> 
    <rt:dyn type="ShowFrame" mode="constant" value="true"/> 
    <rt:dyn type="Color_Readings" mode="constant" value="true"/> 
    <rt:dyn type="ValueToTheRight" mode="constant" value="false"/> 
  </image>
  <image x="787.244" y="840.939" width="175" height="25" xlink:href="DS_ana.svg">
    <title>10KUA60CQ002</title>
    <rt:dyn type="FKKS" mode="constant" value="&quot;10KUA60CQ002&quot;"/> 
    <rt:dyn type="X" mode="constant" value="&quot;Q&quot;"/> 
    <rt:dyn type="ShowFrame" mode="constant" value="true"/> 
    <rt:dyn type="Color_Readings" mode="constant" value="true"/> 
    <rt:dyn type="ValueToTheRight" mode="constant" value="false"/> 
  </image>
  <image x="1064.91" y="840.939" width="175" height="25" xlink:href="DS_ana.svg">
    <title>10KUA60CQ006</title>
    <rt:dyn type="FKKS" mode="constant" value="&quot;10KUA60CQ006&quot;"/> 
    <rt:dyn type="X" mode="constant" value="&quot;Q&quot;"/> 
    <rt:dyn type="ShowFrame" mode="constant" value="true"/> 
    <rt:dyn type="Color_Readings" mode="constant" value="true"/> 
    <rt:dyn type="ValueToTheRight" mode="constant" value="false"/> 
  </image>
  <image x="787.244" y="869.939" width="175" height="25" xlink:href="DS_ana.svg">
    <title>10KUA60CQ003</title>
    <rt:dyn type="FKKS" mode="constant" value="&quot;10KUA60CQ003&quot;"/> 
    <rt:dyn type="X" mode="constant" value="&quot;Q&quot;"/> 
    <rt:dyn type="ShowFrame" mode="constant" value="true"/> 
    <rt:dyn type="Color_Readings" mode="constant" value="true"/> 
    <rt:dyn type="ValueToTheRight" mode="constant" value="false"/> 
  </image>
  <image x="1064.91" y="782.758" width="175" height="25" xlink:href="DS_ana.svg">
    <title>10KUA60CQ004</title>
    <rt:dyn type="FKKS" mode="constant" value="&quot;10KUA60CQ004&quot;"/> 
    <rt:dyn type="X" mode="constant" value="&quot;Q&quot;"/> 
    <rt:dyn type="ShowFrame" mode="constant" value="true"/> 
    <rt:dyn type="Color_Readings" mode="constant" value="true"/> 
    <rt:dyn type="ValueToTheRight" mode="constant" value="false"/> 
  </image>
  <image x="1064.91" y="811.939" width="175" height="25" xlink:href="DS_ana.svg">
    <title>10KUA60CQ005</title>
    <rt:dyn type="FKKS" mode="constant" value="&quot;10KUA60CQ005&quot;"/> 
    <rt:dyn type="X" mode="constant" value="&quot;Q&quot;"/> 
    <rt:dyn type="ShowFrame" mode="constant" value="true"/> 
    <rt:dyn type="Color_Readings" mode="constant" value="true"/> 
    <rt:dyn type="ValueToTheRight" mode="constant" value="false"/> 
  </image>
  <image x="700.333" y="970.182" width="175" height="25" xlink:href="DS_ana.svg">
    <title>10KUA60CT001</title>
    <rt:dyn type="FKKS" mode="constant" value="&quot;10KUA60CT001&quot;"/> 
    <rt:dyn type="ShowFrame" mode="constant" value="true"/> 
    <rt:dyn type="X" mode="constant" value="&quot;T&quot;"/> 
    <rt:dyn type="Color_Readings" mode="constant" value="true"/> 
    <rt:dyn type="ValueToTheRight" mode="constant" value="false"/> 
  </image>
  <image x="892.06" y="970.182" width="175" height="25" xlink:href="DS_ana.svg">
    <title>10KUA60CP001</title>
    <rt:dyn type="FKKS" mode="constant" value="&quot;10KUA60CP001&quot;"/> 
    <rt:dyn type="ShowFrame" mode="constant" value="true"/> 
    <rt:dyn type="X" mode="constant" value="&quot;P&quot;"/> 
    <rt:dyn type="Color_Readings" mode="constant" value="true"/> 
    <rt:dyn type="ValueToTheRight" mode="constant" value="false"/> 
  </image>
  <image x="1084.18" y="970.182" width="175" height="25" xlink:href="DS_ana.svg">
    <title>10KUA60CF001</title>
    <rt:dyn type="FKKS" mode="constant" value="&quot;10KUA60CF001&quot;"/> 
    <rt:dyn type="ShowFrame" mode="constant" value="true"/> 
    <rt:dyn type="X" mode="constant" value="&quot;F&quot;"/> 
    <rt:dyn type="Color_Readings" mode="constant" value="true"/> 
    <rt:dyn type="ValueToTheRight" mode="constant" value="false"/> 
  </image>
  <image x="30.2424" y="633.879" width="175" height="25" xlink:href="DS_ana.svg">
    <title>10KUA80CF001</title>
    <rt:dyn type="FKKS" mode="constant" value="&quot;10KUA80CF001&quot;"/> 
    <rt:dyn type="ShowFrame" mode="constant" value="true"/> 
    <rt:dyn type="X" mode="constant" value="&quot;F&quot;"/> 
    <rt:dyn type="Color_Readings" mode="constant" value="true"/> 
    <rt:dyn type="ValueToTheRight" mode="constant" value="false"/> 
  </image>
  <image x="440.879" y="570.939" width="175" height="25" xlink:href="DS_ana.svg">
    <title>10KUA80CT002</title>
    <rt:dyn type="FKKS" mode="constant" value="&quot;10KUA80CT002&quot;"/> 
    <rt:dyn type="ShowFrame" mode="constant" value="true"/> 
    <rt:dyn type="X" mode="constant" value="&quot;T&quot;"/> 
    <rt:dyn type="Color_Readings" mode="constant" value="true"/> 
    <rt:dyn type="ValueToTheRight" mode="constant" value="false"/> 
  </image>
  <image x="440.879" y="602.939" width="175" height="25" xlink:href="DS_ana.svg">
    <title>10KUA80CP002</title>
    <rt:dyn type="FKKS" mode="constant" value="&quot;10KUA80CP002&quot;"/> 
    <rt:dyn type="ShowFrame" mode="constant" value="true"/> 
    <rt:dyn type="X" mode="constant" value="&quot;P&quot;"/> 
    <rt:dyn type="Color_Readings" mode="constant" value="true"/> 
    <rt:dyn type="ValueToTheRight" mode="constant" value="false"/> 
  </image>
  <image x="441.091" y="634.394" width="175" height="25" xlink:href="DS_ana.svg">
    <title>10KUA80CF002</title>
    <rt:dyn type="FKKS" mode="constant" value="&quot;10KUA80CF002&quot;"/> 
    <rt:dyn type="ShowFrame" mode="constant" value="true"/> 
    <rt:dyn type="X" mode="constant" value="&quot;F&quot;"/> 
    <rt:dyn type="Color_Readings" mode="constant" value="true"/> 
    <rt:dyn type="ValueToTheRight" mode="constant" value="false"/> 
  </image>
  <image x="1270.36" y="501.864" width="175" height="25" xlink:href="DS_ana.svg">
    <title>10KUA70CQ005</title>
    <rt:dyn type="FKKS" mode="constant" value="&quot;10KUA70CQ005&quot;"/> 
    <rt:dyn type="X" mode="constant" value="&quot;Q&quot;"/> 
    <rt:dyn type="ShowFrame" mode="constant" value="true"/> 
    <rt:dyn type="Color_Readings" mode="constant" value="true"/> 
    <rt:dyn type="ValueToTheRight" mode="constant" value="false"/> 
  </image>
  <image x="809.06" y="571.939" width="175" height="25" xlink:href="DS_ana.svg">
    <title>10KUA70CT003</title>
    <rt:dyn type="FKKS" mode="constant" value="&quot;10KUA70CT003&quot;"/> 
    <rt:dyn type="ShowFrame" mode="constant" value="true"/> 
    <rt:dyn type="X" mode="constant" value="&quot;T&quot;"/> 
    <rt:dyn type="Color_Readings" mode="constant" value="true"/> 
    <rt:dyn type="ValueToTheRight" mode="constant" value="false"/> 
  </image>
  <image x="809.06" y="603.939" width="175" height="25" xlink:href="DS_ana.svg">
    <title>10KUA70CP003</title>
    <rt:dyn type="FKKS" mode="constant" value="&quot;10KUA70CP003&quot;"/> 
    <rt:dyn type="ShowFrame" mode="constant" value="true"/> 
    <rt:dyn type="X" mode="constant" value="&quot;P&quot;"/> 
    <rt:dyn type="Color_Readings" mode="constant" value="true"/> 
    <rt:dyn type="ValueToTheRight" mode="constant" value="false"/> 
  </image>
  <image x="809.272" y="635.394" width="175" height="25" xlink:href="DS_ana.svg">
    <title>10KUA70CF003</title>
    <rt:dyn type="FKKS" mode="constant" value="&quot;10KUA70CF003&quot;"/> 
    <rt:dyn type="ShowFrame" mode="constant" value="true"/> 
    <rt:dyn type="X" mode="constant" value="&quot;F&quot;"/> 
    <rt:dyn type="Color_Readings" mode="constant" value="true"/> 
    <rt:dyn type="ValueToTheRight" mode="constant" value="false"/> 
  </image>
  <image x="898.788" y="501.864" width="175" height="25" xlink:href="DS_ana.svg">
    <title>10KUA70CQ004</title>
    <rt:dyn type="FKKS" mode="constant" value="&quot;10KUA70CQ004&quot;"/> 
    <rt:dyn type="X" mode="constant" value="&quot;Q&quot;"/> 
    <rt:dyn type="ShowFrame" mode="constant" value="true"/> 
    <rt:dyn type="Color_Readings" mode="constant" value="true"/> 
    <rt:dyn type="ValueToTheRight" mode="constant" value="false"/> 
  </image>
  <line x1="890.106" y1="554.303" x2="1035.11" y2="554.303" stroke="black" stroke-width="3"/> 
  <image x="166.908" y="501.864" width="175" height="25" xlink:href="DS_ana.svg">
    <title>10KUA80CQ001</title>
    <rt:dyn type="FKKS" mode="constant" value="&quot;10KUA80CQ001&quot;"/> 
    <rt:dyn type="X" mode="constant" value="&quot;Q&quot;"/> 
    <rt:dyn type="ShowFrame" mode="constant" value="true"/> 
    <rt:dyn type="Color_Readings" mode="constant" value="true"/> 
    <rt:dyn type="ValueToTheRight" mode="constant" value="false"/> 
  </image>
  <image x="166.908" y="439.803" width="175" height="25" xlink:href="DS_ana.svg">
    <title>10KUA80CQ002</title>
    <rt:dyn type="FKKS" mode="constant" value="&quot;10KUA80CQ002&quot;"/> 
    <rt:dyn type="X" mode="constant" value="&quot;Q&quot;"/> 
    <rt:dyn type="ShowFrame" mode="constant" value="true"/> 
    <rt:dyn type="Color_Readings" mode="constant" value="true"/> 
    <rt:dyn type="ValueToTheRight" mode="constant" value="false"/> 
  </image>
  <image x="535.03" y="501.864" width="175" height="25" xlink:href="DS_ana.svg">
    <title>10KUA80CQ003</title>
    <rt:dyn type="FKKS" mode="constant" value="&quot;10KUA80CQ003&quot;"/> 
    <rt:dyn type="X" mode="constant" value="&quot;Q&quot;"/> 
    <rt:dyn type="ShowFrame" mode="constant" value="true"/> 
    <rt:dyn type="Color_Readings" mode="constant" value="true"/> 
    <rt:dyn type="ValueToTheRight" mode="constant" value="false"/> 
  </image>
  <line x1="304.667" y1="391" x2="654" y2="391" stroke="black"/> 
  <line x1="297" y1="413.364" x2="297" y2="158.697" stroke="black" stroke-width="3"/> 
  <line x1="1555.25" y1="2364.04" x2="1626.62" y2="2364.71" stroke="black" transform="rotate(90 1842.42 854.126)"/> 
  <text x="357.818" y="693.273" fill="black" font-size="15" text-anchor="middle">PGB60</text>
  <line x1="378" y1="632.061" x2="378" y2="544.182" stroke="black"/> 
  <rect x="114.667" y="412.833" width="232.882" height="153.696" rx="0" ry="0" fill="none" stroke-width="3"/> 
  <line x1="714.029" y1="542.454" x2="746.731" y2="542.454" stroke="black"/> 
  <line x1="1553.7" y1="1995.01" x2="1625.07" y2="1995.68" stroke="black" transform="rotate(90 1842.42 854.126)"/> 
  <text x="725.847" y="693.273" fill="black" font-size="15" text-anchor="middle">PGB60</text>
  <line x1="746.029" y1="630.515" x2="746.029" y2="542.636" stroke="black"/> 
  <line x1="1079.12" y1="544.485" x2="1111.82" y2="544.485" stroke="black"/> 
  <line x1="1554.73" y1="1629.92" x2="1626.1" y2="1630.59" stroke="black" transform="rotate(90 1842.42 854.126)"/> 
  <text x="1091.94" y="693.273" fill="black" font-size="15" text-anchor="middle">PGB60</text>
  <line x1="1111.12" y1="632.546" x2="1111.12" y2="544.667" stroke="black"/> 
  <image x="1175.15" y="571.939" width="175" height="25" xlink:href="DS_ana.svg">
    <title>10KUA70CT002</title>
    <rt:dyn type="FKKS" mode="constant" value="&quot;10KUA70CT002&quot;"/> 
    <rt:dyn type="ShowFrame" mode="constant" value="true"/> 
    <rt:dyn type="X" mode="constant" value="&quot;T&quot;"/> 
    <rt:dyn type="Color_Readings" mode="constant" value="true"/> 
    <rt:dyn type="ValueToTheRight" mode="constant" value="false"/> 
  </image>
  <image x="1175.15" y="603.939" width="175" height="25" xlink:href="DS_ana.svg">
    <title>10KUA70CP002</title>
    <rt:dyn type="FKKS" mode="constant" value="&quot;10KUA70CP002&quot;"/> 
    <rt:dyn type="ShowFrame" mode="constant" value="true"/> 
    <rt:dyn type="X" mode="constant" value="&quot;P&quot;"/> 
    <rt:dyn type="Color_Readings" mode="constant" value="true"/> 
    <rt:dyn type="ValueToTheRight" mode="constant" value="false"/> 
  </image>
  <image x="1175.36" y="635.394" width="175" height="25" xlink:href="DS_ana.svg">
    <title>10KUA70CF002</title>
    <rt:dyn type="FKKS" mode="constant" value="&quot;10KUA70CF002&quot;"/> 
    <rt:dyn type="ShowFrame" mode="constant" value="true"/> 
    <rt:dyn type="X" mode="constant" value="&quot;F&quot;"/> 
    <rt:dyn type="Color_Readings" mode="constant" value="true"/> 
    <rt:dyn type="ValueToTheRight" mode="constant" value="false"/> 
  </image>
  <line x1="1450.39" y1="545.515" x2="1483.09" y2="545.515" stroke="black"/> 
  <line x1="1556.76" y1="1258.65" x2="1628.13" y2="1259.32" stroke="black" transform="rotate(90 1842.42 854.126)"/> 
  <text x="1463.21" y="693.273" fill="black" font-size="15" text-anchor="middle">PGB60</text>
  <line x1="1482.39" y1="633.576" x2="1482.39" y2="545.697" stroke="black"/> 
  <image x="1546.82" y="574.97" width="175" height="25" xlink:href="DS_ana.svg">
    <title>10KUA70CT001</title>
    <rt:dyn type="FKKS" mode="constant" value="&quot;10KUA70CT001&quot;"/> 
    <rt:dyn type="ShowFrame" mode="constant" value="true"/> 
    <rt:dyn type="X" mode="constant" value="&quot;T&quot;"/> 
    <rt:dyn type="Color_Readings" mode="constant" value="true"/> 
    <rt:dyn type="ValueToTheRight" mode="constant" value="false"/> 
  </image>
  <image x="1546.82" y="606.97" width="175" height="25" xlink:href="DS_ana.svg">
    <title>10KUA70CP001</title>
    <rt:dyn type="FKKS" mode="constant" value="&quot;10KUA70CP001&quot;"/> 
    <rt:dyn type="ShowFrame" mode="constant" value="true"/> 
    <rt:dyn type="X" mode="constant" value="&quot;P&quot;"/> 
    <rt:dyn type="Color_Readings" mode="constant" value="true"/> 
    <rt:dyn type="ValueToTheRight" mode="constant" value="false"/> 
  </image>
  <image x="1546.82" y="638.424" width="175" height="25" xlink:href="DS_ana.svg">
    <title>10KUA70CF001</title>
    <rt:dyn type="FKKS" mode="constant" value="&quot;10KUA70CF001&quot;"/> 
    <rt:dyn type="ShowFrame" mode="constant" value="true"/> 
    <rt:dyn type="X" mode="constant" value="&quot;F&quot;"/> 
    <rt:dyn type="Color_Readings" mode="constant" value="true"/> 
    <rt:dyn type="ValueToTheRight" mode="constant" value="false"/> 
  </image>
  <line x1="1818.27" y1="544.515" x2="1850.97" y2="544.515" stroke="black"/> 
  <line x1="1556.76" y1="890.769" x2="1628.13" y2="891.439" stroke="black" transform="rotate(90 1842.42 854.126)"/> 
  <text x="1831.09" y="693.273" fill="black" font-size="15" text-anchor="middle">PGB60</text>
  <line x1="1850.27" y1="632.576" x2="1850.27" y2="544.697" stroke="black"/> 
  <image x="252.333" y="297.03" width="70" height="65" xlink:href="DS_CO_valve.svg" transform="rotate(270 0 -10)">
    <title>10KUA80AA002</title>
    <rt:dyn type="KKS" mode="constant" value="&quot;10KUA80AA002&quot;"/> 
    <rt:dyn type="DATA_NARY" mode="constant" value="&quot;TPTS&quot;"/> 
    <rt:dyn type="Operate" mode="constant" value="true"/> 
  </image>
  <text x="355.879" y="334.909" fill="black" font-size="15" text-anchor="middle">10KUA80<tspan x="355.879" dy="15">AA002</tspan>
  </text>
  <image x="251.773" y="196.136" width="70" height="65" xlink:href="DS_CO_valve.svg" transform="rotate(270 0 -10)">
    <title>10KUA80AA001</title>
    <rt:dyn type="KKS" mode="constant" value="&quot;10KUA80AA001&quot;"/> 
    <rt:dyn type="DATA_NARY" mode="constant" value="&quot;TPTS&quot;"/> 
    <rt:dyn type="Operate" mode="constant" value="true"/> 
  </image>
  <text x="356.319" y="234.015" fill="black" font-size="15" text-anchor="middle">10KUA80<tspan x="356.319" dy="15">AA001</tspan>
  </text>
  <text x="294.182" y="121.576" fill="black" font-size="15" text-anchor="middle">с напоров насосов<tspan x="294.182" dy="15">10KBA31(32,33)AP001</tspan>
  </text>
  <line x1="62.8793" y1="279" x2="296.212" y2="279" stroke="black"/> 
  <image x="111.364" y="235.97" width="70" height="65" xlink:href="DS_CO_valve.svg" transform="rotate(360 0 -10)">
    <title>10KUA80AA003</title>
    <rt:dyn type="KKS" mode="constant" value="&quot;10KUA80AA003&quot;"/> 
    <rt:dyn type="DATA_NARY" mode="constant" value="&quot;TPTS&quot;"/> 
    <rt:dyn type="Operate" mode="constant" value="true"/> 
  </image>
  <text x="143.697" y="214.182" fill="black" font-size="15" text-anchor="middle">10KUA80<tspan x="143.697" dy="15">AA003</tspan>
  </text>
  <text x="53.2122" y="241.091" fill="black" font-size="15" text-anchor="middle">в трап<tspan x="53.2122" dy="15">канализации</tspan>
  </text>
  <polygon points="1918.9,-530.625 1932.28,-522.981 1932.28,-538.268 1918.9,-530.625" fill="black" stroke="black" stroke-width="1" transform="flipX(43.1929) rotate(30 1177.69 946.798) rotate(30 712.777 99.9995) flipX(506.944) rotate(180 1279.17 367.814)"/> 
  <path d="M114.435 315.906 A8.80483 8.80483 0 1 1 114.435 333.516 " fill="none" stroke="black" transform="rotate(270 485.691 249.695) flipY() translate(0 -828) translate(229.642 442.62)"/> 
  <line x1="55" y1="391.818" x2="288.333" y2="391.818" stroke="black"/> 
  <image x="111.364" y="349.788" width="70" height="65" xlink:href="DS_CO_valve.svg" transform="rotate(360 0 -10)">
    <title>10KUA80AA003</title>
    <rt:dyn type="KKS" mode="constant" value="&quot;NULL&quot;"/> 
    <rt:dyn type="DATA_NARY" mode="constant" value="&quot;TPTS&quot;"/> 
    <rt:dyn type="Operate" mode="constant" value="true"/> 
    <rt:dyn type="Drive" mode="constant" value="&quot;NONE&quot;"/> 
  </image>
  <text x="145.197" y="345" fill="black" font-size="15" text-anchor="middle">10KPF60<tspan x="145.197" dy="15">AA134</tspan>
  </text>
  <line x1="214" y1="862.121" x2="214" y2="564.485" stroke="black" stroke-width="3"/> 
  <line x1="230.985" y1="412.03" x2="230.985" y2="392.03" stroke="black"/> 
  <line x1="302" y1="705.939" x2="302" y2="565" stroke="black"/> 
  <line x1="310" y1="697.818" x2="310" y2="565" stroke="black"/> 
  <rect x="705" y="776" width="552" height="188" rx="0" ry="0" fill="none" stroke-width="3"/> 
  <line x1="664.06" y1="415.304" x2="664.06" y2="160.636" stroke="black" stroke-width="3"/> 
  <image x="619.393" y="298.97" width="70" height="65" xlink:href="DS_CO_valve.svg" transform="rotate(270 0 -10)">
    <title>10KUA80AA005</title>
    <rt:dyn type="KKS" mode="constant" value="&quot;10KUA80AA005&quot;"/> 
    <rt:dyn type="DATA_NARY" mode="constant" value="&quot;TPTS&quot;"/> 
    <rt:dyn type="Operate" mode="constant" value="true"/> 
  </image>
  <text x="722.939" y="336.849" fill="black" font-size="15" text-anchor="middle">10KUA80<tspan x="722.939" dy="15">AA005</tspan>
  </text>
  <image x="618.833" y="198.075" width="70" height="65" xlink:href="DS_CO_valve.svg" transform="rotate(270 0 -10)">
    <title>10KUA80AA004</title>
    <rt:dyn type="KKS" mode="constant" value="&quot;10KUA80AA004&quot;"/> 
    <rt:dyn type="DATA_NARY" mode="constant" value="&quot;TPTS&quot;"/> 
    <rt:dyn type="Operate" mode="constant" value="true"/> 
  </image>
  <text x="723.379" y="235.955" fill="black" font-size="15" text-anchor="middle">10KUA80<tspan x="723.379" dy="15">AA004</tspan>
  </text>
  <text x="661.242" y="123.515" fill="black" font-size="15" text-anchor="middle">с напоров насосов<tspan x="661.242" dy="15">10KBC11(12,13)AP001</tspan>
  </text>
  <path d="M114.495 -51.1538 A8.80483 8.80483 0 1 1 114.495 -33.5438 " fill="none" stroke="black" transform="rotate(270 485.691 249.695) flipY() translate(0 -828) translate(229.642 442.62)"/> 
  <line x1="598.5" y1="412" x2="598.5" y2="392" stroke="black"/> 
  <line x1="673" y1="390.485" x2="1022.33" y2="390.485" stroke="black"/> 
  <line x1="1032.39" y1="413.789" x2="1032.39" y2="159.121" stroke="black" stroke-width="3"/> 
  <image x="987.726" y="297.455" width="70" height="65" xlink:href="DS_CO_valve.svg" transform="rotate(270 0 -10)">
    <title>10KUA70AA006</title>
    <rt:dyn type="KKS" mode="constant" value="&quot;10KUA70AA006&quot;"/> 
    <rt:dyn type="DATA_NARY" mode="constant" value="&quot;TPTS&quot;"/> 
    <rt:dyn type="Operate" mode="constant" value="true"/> 
  </image>
  <text x="1091.27" y="335.334" fill="black" font-size="15" text-anchor="middle">10KUA70<tspan x="1091.27" dy="15">AA006</tspan>
  </text>
  <image x="987.166" y="196.56" width="70" height="65" xlink:href="DS_CO_valve.svg" transform="rotate(270 0 -10)">
    <title>10KUA70AA005</title>
    <rt:dyn type="KKS" mode="constant" value="&quot;10KUA70AA005&quot;"/> 
    <rt:dyn type="DATA_NARY" mode="constant" value="&quot;TPTS&quot;"/> 
    <rt:dyn type="Operate" mode="constant" value="true"/> 
  </image>
  <text x="1091.71" y="234.44" fill="black" font-size="15" text-anchor="middle">10KUA70<tspan x="1091.71" dy="15">AA005</tspan>
  </text>
  <text x="1029.57" y="122" fill="black" font-size="15" text-anchor="middle">после Н-КФ<tspan x="1029.57" dy="15">10KBE51AT001(002)</tspan>
  </text>
  <path d="M115.01 -419.487 A8.80483 8.80483 0 1 1 115.01 -401.877 " fill="none" stroke="black" transform="rotate(270 485.691 249.695) flipY() translate(0 -828) translate(229.642 442.62)"/> 
  <line x1="966.833" y1="411.485" x2="966.833" y2="391.485" stroke="black"/> 
  <line x1="1041" y1="390.485" x2="1390.33" y2="390.485" stroke="black"/> 
  <line x1="1400.39" y1="413.789" x2="1400.39" y2="159.121" stroke="black" stroke-width="3"/> 
  <image x="1355.73" y="297.455" width="70" height="65" xlink:href="DS_CO_valve.svg" transform="rotate(270 0 -10)">
    <title>10KUA70AA004</title>
    <rt:dyn type="KKS" mode="constant" value="&quot;10KUA70AA004&quot;"/> 
    <rt:dyn type="DATA_NARY" mode="constant" value="&quot;TPTS&quot;"/> 
    <rt:dyn type="Operate" mode="constant" value="true"/> 
  </image>
  <text x="1459" y="335" fill="black" font-size="15" text-anchor="middle">10KUA70<tspan x="1459" dy="15">AA004</tspan>
  </text>
  <image x="1355.17" y="196.56" width="70" height="65" xlink:href="DS_CO_valve.svg" transform="rotate(270 0 -10)">
    <title>10KUA70AA003</title>
    <rt:dyn type="KKS" mode="constant" value="&quot;10KUA70AA003&quot;"/> 
    <rt:dyn type="DATA_NARY" mode="constant" value="&quot;TPTS&quot;"/> 
    <rt:dyn type="Operate" mode="constant" value="true"/> 
  </image>
  <text x="1459.71" y="234.44" fill="black" font-size="15" text-anchor="middle">10KUA70<tspan x="1459.71" dy="15">AA003</tspan>
  </text>
  <text x="1397.57" y="122" fill="black" font-size="15" text-anchor="middle">после ОН-АФ<tspan x="1397.57" dy="15">10KBE52AT001(002)</tspan>
  </text>
  <path d="M115.01 -787.487 A8.80483 8.80483 0 1 1 115.01 -769.877 " fill="none" stroke="black" transform="rotate(270 485.691 249.695) flipY() translate(0 -828) translate(229.642 442.62)"/> 
  <line x1="1334.83" y1="411.485" x2="1334.83" y2="391.485" stroke="black"/> 
  <line x1="1408" y1="390.485" x2="1704.73" y2="390.485" stroke="black"/> 
  <image x="1722.73" y="298.455" width="70" height="65" xlink:href="DS_CO_valve.svg" transform="rotate(270 0 -10)">
    <title>10KUA70AA002</title>
    <rt:dyn type="KKS" mode="constant" value="&quot;10KUA70AA002&quot;"/> 
    <rt:dyn type="DATA_NARY" mode="constant" value="&quot;TPTS&quot;"/> 
    <rt:dyn type="Operate" mode="constant" value="true"/> 
  </image>
  <text x="1826" y="336" fill="black" font-size="15" text-anchor="middle">10KUA70<tspan x="1826" dy="15">AA002</tspan>
  </text>
  <image x="1722.17" y="197.56" width="70" height="65" xlink:href="DS_CO_valve.svg" transform="rotate(270 0 -10)">
    <title>10KUA70AA001</title>
    <rt:dyn type="KKS" mode="constant" value="&quot;10KUA70AA001&quot;"/> 
    <rt:dyn type="DATA_NARY" mode="constant" value="&quot;TPTS&quot;"/> 
    <rt:dyn type="Operate" mode="constant" value="true"/> 
  </image>
  <text x="1826.71" y="235.44" fill="black" font-size="15" text-anchor="middle">10KUA70<tspan x="1826.71" dy="15">AA001</tspan>
  </text>
  <text x="1764.57" y="135" fill="black" font-size="15" text-anchor="middle">перед KBE50-60</text>
  <line x1="1704" y1="412.485" x2="1704" y2="391" stroke="black"/> 
  <line x1="268.121" y1="705" x2="1753.21" y2="705" stroke="black"/> 
  <path d="M-330.928 344.148 A8.80483 8.80483 0 1 1 -330.928 361.758 " fill="none" stroke="black" transform="rotate(90 354.423 791.569) rotate(270 485.691 249.695) flipY() translate(0 -828) translate(229.642 442.62)"/> 
  <line x1="310" y1="742" x2="310" y2="713.013" stroke="black"/> 
  <line x1="278.273" y1="742" x2="1769.88" y2="742" stroke="black"/> 
  <line x1="213.273" y1="862.302" x2="706" y2="862.302" stroke="black" stroke-width="3"/> 
  <line x1="1255" y1="863.302" x2="1785.03" y2="863.302" stroke="black" stroke-width="3"/> 
  <line x1="1030.56" y1="705" x2="1030.56" y2="565.546" stroke="black"/> 
  <line x1="1045.56" y1="696.728" x2="1045.56" y2="565" stroke="black"/> 
  <path d="M404.632 344.238 A8.80483 8.80483 0 1 1 404.632 361.848 " fill="none" stroke="black" transform="rotate(90 354.423 791.569) rotate(270 485.691 249.695) flipY() translate(0 -828) translate(229.642 442.62)"/> 
  <line x1="1045.56" y1="743.213" x2="1045.56" y2="712.923" stroke="black"/> 
  <line x1="1401.47" y1="705" x2="1401.47" y2="565.212" stroke="black"/> 
  <line x1="1416.47" y1="696.394" x2="1416.47" y2="565" stroke="black"/> 
  <path d="M775.541 344.572 A8.80483 8.80483 0 1 1 775.541 362.182 " fill="none" stroke="black" transform="rotate(90 354.423 791.569) rotate(270 485.691 249.695) flipY() translate(0 -828) translate(229.642 442.62)"/> 
  <line x1="1416.47" y1="742.879" x2="1416.47" y2="712.589" stroke="black"/> 
  <line x1="1769" y1="742" x2="1769" y2="567.121" stroke="black"/> 
  <line x1="1784" y1="865" x2="1784" y2="566" stroke="black" stroke-width="3"/> 
  <line x1="1753" y1="705" x2="1753" y2="568.758" stroke="black"/> 
  <path d="M300.43 307.81 A8.80483 8.80483 0 1 1 300.43 325.42 " fill="none" stroke="black" transform="rotate(90 354.423 791.569) rotate(270 485.691 249.695) flipY() translate(0 -828) translate(229.642 442.62)"/> 
  <line x1="941" y1="775.121" x2="941" y2="749.351" stroke="black"/> 
  <line x1="941.509" y1="734" x2="941.509" y2="705" stroke="black"/> 
  <line x1="885.015" y1="775.108" x2="885.015" y2="743" stroke="black"/> 
  <image x="911.151" y="902.788" width="175" height="25" xlink:href="DS_ana.svg">
    <title>10KUA60CQ007</title>
    <rt:dyn type="FKKS" mode="constant" value="&quot;10KUA60CQ007&quot;"/> 
    <rt:dyn type="X" mode="constant" value="&quot;Q&quot;"/> 
    <rt:dyn type="ShowFrame" mode="constant" value="true"/> 
    <rt:dyn type="Color_Readings" mode="constant" value="true"/> 
    <rt:dyn type="ValueToTheRight" mode="constant" value="false"/> 
  </image>
  <rect x="483.167" y="412.833" width="232.882" height="153.696" rx="0" ry="0" fill="none" stroke-width="3"/> 
  <text x="510" y="511.212" fill="black" font-size="15" text-anchor="middle">уд.<tspan x="510" dy="15">эл-ть</tspan>
  </text>
  <rect x="846.166" y="412.833" width="232.882" height="153.696" rx="0" ry="0" fill="none" stroke-width="3"/> 
  <text x="874.333" y="511.212" fill="black" font-size="15" text-anchor="middle">уд.<tspan x="874.333" dy="15">эл-ть</tspan>
  </text>
  <rect x="1217.17" y="413.166" width="232.882" height="153.696" rx="0" ry="0" fill="none" stroke-width="3"/> 
  <text x="1245.33" y="511.212" fill="black" font-size="15" text-anchor="middle">уд.<tspan x="1245.33" dy="15">эл-ть</tspan>
  </text>
  <rect x="1585.44" y="413.742" width="232.882" height="153.696" rx="0" ry="0" fill="none" stroke-width="3"/> 
  <text x="1612.3" y="511.212" fill="black" font-size="15" text-anchor="middle">уд.<tspan x="1612.3" dy="15">эл-ть</tspan>
  </text>
  <text x="1608.3" y="461" fill="black" font-size="20" text-anchor="middle">O</text>
  <text x="757" y="805" fill="black" font-size="20" text-anchor="middle">Cl</text>
  <text x="754.5" y="864.818" fill="black" font-size="20" text-anchor="middle">F</text>
  <text x="756.5" y="892" fill="black" font-size="20" text-anchor="middle">SO</text>
  <text x="1041.07" y="805" fill="black" font-size="20" text-anchor="middle">K</text>
  <text x="1042.07" y="834" fill="black" font-size="20" text-anchor="middle">Li</text>
  <text x="1042.07" y="861" fill="black" font-size="20" text-anchor="middle">Na</text>
  <text x="774.5" y="894" fill="black" font-size="13" text-anchor="middle">4</text>
  <text x="878" y="922" fill="black" font-size="20" text-anchor="middle">NH</text>
  <text x="897" y="924" fill="black" font-size="13" text-anchor="middle">3</text>
  <text x="1619.06" y="464.667" fill="black" font-size="13" text-anchor="middle">2</text>
  <text x="1607.3" y="488.273" fill="black" font-size="20" text-anchor="middle">H</text>
  <text x="1619.06" y="491.94" fill="black" font-size="13" text-anchor="middle">2</text>
  <text x="139.727" y="511.212" fill="black" font-size="15" text-anchor="middle">уд.<tspan x="139.727" dy="15">эл-ть</tspan>
  </text>
  <text x="135.727" y="461" fill="black" font-size="20" text-anchor="middle">O</text>
  <text x="146.487" y="464.667" fill="black" font-size="13" text-anchor="middle">2</text>
  <text x="49.0303" y="421.697" fill="black" font-size="15" text-anchor="middle">дистиллят</text>
  <polygon points="1696.92,-676.778 1710.3,-669.134 1710.3,-684.421 1696.92,-676.778" fill="black" stroke="black" stroke-width="1" transform="rotate(150 299.253 157.058) rotate(0 1.4013e-045 1.4013e-045) flipX(43.1929) rotate(30 1177.69 946.798) rotate(30 712.777 99.9995) flipX(506.944) rotate(180 1279.17 367.814)"/> 
  <polygon points="1696.92,-309.885 1710.3,-302.241 1710.3,-317.528 1696.92,-309.885" fill="black" stroke="black" stroke-width="1" transform="rotate(150 299.253 157.058) rotate(0 1.4013e-045 1.4013e-045) flipX(43.1929) rotate(30 1177.69 946.798) rotate(30 712.777 99.9995) flipX(506.944) rotate(180 1279.17 367.814)"/> 
  <polygon points="1696.92,58.2665 1710.3,65.9105 1710.3,50.6235 1696.92,58.2665" fill="black" stroke="black" stroke-width="1" transform="rotate(150 299.253 157.058) rotate(0 1.4013e-045 1.4013e-045) flipX(43.1929) rotate(30 1177.69 946.798) rotate(30 712.777 99.9995) flipX(506.944) rotate(180 1279.17 367.814)"/> 
  <polygon points="1696.92,426.448 1710.3,434.092 1710.3,418.805 1696.92,426.448" fill="black" stroke="black" stroke-width="1" transform="rotate(150 299.253 157.058) rotate(0 1.4013e-045 1.4013e-045) flipX(43.1929) rotate(30 1177.69 946.798) rotate(30 712.777 99.9995) flipX(506.944) rotate(180 1279.17 367.814)"/> 
  <polygon points="1696.92,793.599 1710.3,801.244 1710.3,785.956 1696.92,793.599" fill="black" stroke="black" stroke-width="1" transform="rotate(150 299.253 157.058) rotate(0 1.4013e-045 1.4013e-045) flipX(43.1929) rotate(30 1177.69 946.798) rotate(30 712.777 99.9995) flipX(506.944) rotate(180 1279.17 367.814)"/> 
  <image x="290" y="615.329" width="85" height="25" xlink:href="obj_link.svg" transform="rotate(270 42.3618 12.5001)">
    <rt:event type="OnClick">LoadNew(&quot;pgb60&quot;)</rt:event>
    <rt:dyn type="TextStr" mode="constant" value="&quot;&quot;"/> 
  </image>
  <image x="335" y="615.329" width="85" height="25" xlink:href="obj_link.svg" transform="flipY(12.6383) rotate(270 42.3618 12.5001)">
    <rt:event type="OnClick">LoadNew(&quot;pgb60&quot;)</rt:event>
    <rt:dyn type="TextStr" mode="constant" value="&quot;&quot;"/> 
  </image>
  <image x="658" y="613.329" width="85" height="25" xlink:href="obj_link.svg" transform="rotate(270 42.3618 12.5001)">
    <rt:event type="OnClick">LoadNew(&quot;pgb60&quot;)</rt:event>
    <rt:dyn type="TextStr" mode="constant" value="&quot;&quot;"/> 
  </image>
  <image x="703" y="613.329" width="85" height="25" xlink:href="obj_link.svg" transform="flipY(12.6383) rotate(270 42.3618 12.5001)">
    <rt:event type="OnClick">LoadNew(&quot;pgb60&quot;)</rt:event>
    <rt:dyn type="TextStr" mode="constant" value="&quot;&quot;"/> 
  </image>
  <image x="1025" y="613.329" width="85" height="25" xlink:href="obj_link.svg" transform="rotate(270 42.3618 12.5001)">
    <rt:event type="OnClick">LoadNew(&quot;pgb60&quot;)</rt:event>
    <rt:dyn type="TextStr" mode="constant" value="&quot;&quot;"/> 
  </image>
  <image x="1070" y="613.329" width="85" height="25" xlink:href="obj_link.svg" transform="flipY(12.6383) rotate(270 42.3618 12.5001)">
    <rt:event type="OnClick">LoadNew(&quot;pgb60&quot;)</rt:event>
    <rt:dyn type="TextStr" mode="constant" value="&quot;&quot;"/> 
  </image>
  <image x="1395" y="612.329" width="85" height="25" xlink:href="obj_link.svg" transform="rotate(270 42.3618 12.5001)">
    <rt:event type="OnClick">LoadNew(&quot;pgb60&quot;)</rt:event>
    <rt:dyn type="TextStr" mode="constant" value="&quot;&quot;"/> 
  </image>
  <image x="1440" y="612.329" width="85" height="25" xlink:href="obj_link.svg" transform="flipY(12.6383) rotate(270 42.3618 12.5001)">
    <rt:event type="OnClick">LoadNew(&quot;pgb60&quot;)</rt:event>
    <rt:dyn type="TextStr" mode="constant" value="&quot;&quot;"/> 
  </image>
  <image x="1765" y="614.329" width="85" height="25" xlink:href="obj_link.svg" transform="rotate(270 42.3618 12.5001)">
    <rt:event type="OnClick">LoadNew(&quot;pgb60&quot;)</rt:event>
    <rt:dyn type="TextStr" mode="constant" value="&quot;&quot;"/> 
  </image>
  <image x="1810" y="614.329" width="85" height="25" xlink:href="obj_link.svg" transform="flipY(12.6383) rotate(270 42.3618 12.5001)">
    <rt:event type="OnClick">LoadNew(&quot;pgb60&quot;)</rt:event>
    <rt:dyn type="TextStr" mode="constant" value="&quot;&quot;"/> 
  </image>
  <image x="5.48477" y="378.273" width="75" height="25" xlink:href="obj_link.svg">
    <rt:dyn type="TextStr" mode="constant" value="&quot;KPF10&quot;"/> 
    <rt:event type="OnClick">LoadNew(&quot;kpf10&quot;)</rt:event>
  </image>
  <image x="219.03" y="691.243" width="75" height="25" xlink:href="obj_link.svg" transform="flipX(37.4999)">
    <rt:dyn type="TextStr" mode="constant" value="&quot;KTA&quot;"/> 
    <rt:event type="OnClick">LoadNew(&quot;kta&quot;)</rt:event>
  </image>
  <image x="218.667" y="729.667" width="75" height="25" xlink:href="obj_link.svg" transform="flipX(37.4999)">
    <rt:dyn type="TextStr" mode="constant" value="&quot;KTC&quot;"/> 
    <rt:event type="OnClick">LoadNew(&quot;ktc&quot;)</rt:event>
  </image>
  <image x="787.244" y="811.939" width="175" height="25" xlink:href="DS_ana.svg">
    <title>10KUA60CQ008</title>
    <rt:dyn type="FKKS" mode="constant" value="&quot;10KUA60CQ008&quot;"/> 
    <rt:dyn type="X" mode="constant" value="&quot;Q&quot;"/> 
    <rt:dyn type="ShowFrame" mode="constant" value="true"/> 
    <rt:dyn type="Color_Readings" mode="constant" value="true"/> 
    <rt:dyn type="ValueToTheRight" mode="constant" value="false"/> 
  </image>
  <image x="911.151" y="932" width="175" height="25" xlink:href="DS_ana.svg">
    <title>10KUA60CQ010</title>
    <rt:dyn type="FKKS" mode="constant" value="&quot;10KUA60CQ010&quot;"/> 
    <rt:dyn type="X" mode="constant" value="&quot;Q&quot;"/> 
    <rt:dyn type="ShowFrame" mode="constant" value="true"/> 
    <rt:dyn type="Color_Readings" mode="constant" value="true"/> 
    <rt:dyn type="ValueToTheRight" mode="constant" value="false"/> 
  </image>
</svg>
