<?xml  version="1.0" encoding="windows-1251"?>
<svg color="Col_BGSand" xmlns="http://www.w3.org/2000/svg" xmlns:rt="http://www.rts.co.at/2001/XMLSchema/RtSvgPL" xmlns:xlink="http://www.w3.org/1999/xlink" xmlns:xsi="http://www.w3.org/2001/XMLSchema-instance" xsi:schemaLocation="http://www.w3.org/2000/svg C:\RTS\RtSvg\XML\SVG.xsd" viewBox="0 0 1914 1000" width="1914" height="1000" id="laa">
  <rt:model modelversion="7.2.0.23" comment="Создано VNIIAES-ASUTP\voroninrs 27.03.2013 16:12:51"/> 
  <line x1="919.076" y1="304.606" x2="919.076" y2="429.606" stroke="black" stroke-width="1"/> 
  <line x1="836.167" y1="296.667" x2="836.167" y2="421.667" stroke="black" stroke-width="1"/> 
  <line x1="960.5" y1="296.667" x2="960.5" y2="421.667" stroke="black" stroke-width="1"/> 
  <line x1="1208.17" y1="296.667" x2="1208.17" y2="421.667" stroke="black" stroke-width="1"/> 
  <line x1="1080.5" y1="296.667" x2="1080.5" y2="421.667" stroke="black" stroke-width="1"/> 
  <line x1="813.167" y1="280.667" x2="813.167" y2="405.667" stroke="black" stroke-width="3"/> 
  <line x1="939.5" y1="280.667" x2="939.5" y2="405.667" stroke="black" stroke-width="3"/> 
  <line x1="1186.17" y1="280.667" x2="1186.17" y2="405.667" stroke="black" stroke-width="3"/> 
  <line x1="1059.5" y1="280.667" x2="1059.5" y2="405.667" stroke="black" stroke-width="3"/> 
  <line x1="1238" y1="81.0002" x2="1238" y2="545" stroke="black" stroke-width="3"/> 
  <line x1="1272.17" y1="461" x2="1272.17" y2="551" stroke="black" stroke-width="1"/> 
  <line x1="1281.5" y1="514.863" x2="1281.5" y2="551" stroke="black" stroke-width="1"/> 
  <line x1="1337" y1="599" x2="1688.82" y2="599" stroke="black" stroke-width="1"/> 
  <line x1="744.803" y1="81" x2="744.803" y2="545" stroke="black" stroke-width="3"/> 
  <line x1="648" y1="417.5" x2="648" y2="544" stroke="black" stroke-width="1"/> 
  <line x1="659.5" y1="353.5" x2="659.5" y2="544" stroke="black" stroke-width="1"/> 
  <line x1="672.5" y1="289.5" x2="672.5" y2="544" stroke="black" stroke-width="1"/> 
  <line x1="686.5" y1="227.5" x2="686.5" y2="544" stroke="black" stroke-width="1"/> 
  <line x1="638" y1="478" x2="638" y2="551" stroke="black" stroke-width="1"/> 
  <line x1="249.424" y1="104.5" x2="736.5" y2="104.5" stroke="black" stroke-width="1"/> 
  <line x1="255.485" y1="227.5" x2="686.5" y2="227.5" stroke="black" stroke-width="1"/> 
  <line x1="253.97" y1="289.5" x2="672.5" y2="289.5" stroke="black" stroke-width="1"/> 
  <line x1="255.485" y1="354" x2="659.5" y2="354" stroke="black" stroke-width="1"/> 
  <line x1="257" y1="418" x2="648" y2="418" stroke="black" stroke-width="1"/> 
  <line x1="252.455" y1="540" x2="650" y2="540" stroke="black" stroke-width="1"/> 
  <line x1="255.485" y1="480" x2="638" y2="480" stroke="black" stroke-width="1"/> 
  <line x1="257" y1="604" x2="592" y2="604" stroke="black" stroke-width="1"/> 
  <line x1="1453.64" y1="490.485" x2="1453.64" y2="490.485" stroke="black"/> 
  <line x1="725.182" y1="783.334" x2="725.182" y2="783.334" stroke="black"/> 
  <line x1="410.5" y1="485" x2="410.5" y2="485" stroke="black"/> 
  <image x="528.333" y="887.788" width="175" height="25" xlink:href="DS_ana.svg">
    <title>10LAH01CT001</title>
    <rt:dyn type="X" mode="constant" value="&quot;T &quot;"/> 
    <rt:dyn type="ShowFrame" mode="constant" value="true"/> 
    <rt:dyn type="FKKS" mode="constant" value="&quot;10LAH01CT001&quot;"/> 
    <rt:dyn type="Color_Readings" mode="constant" value="true"/> 
    <rt:dyn type="ValueToTheRight" mode="constant" value="false"/> 
  </image>
  <image x="794" y="887.788" width="175" height="25" xlink:href="DS_ana.svg">
    <title>10LAB02CT001</title>
    <rt:dyn type="X" mode="constant" value="&quot;T &quot;"/> 
    <rt:dyn type="ShowFrame" mode="constant" value="true"/> 
    <rt:dyn type="FKKS" mode="constant" value="&quot;10LAB02CT001&quot;"/> 
    <rt:dyn type="Color_Readings" mode="constant" value="true"/> 
    <rt:dyn type="ValueToTheRight" mode="constant" value="false"/> 
  </image>
  <image x="1061" y="887.788" width="175" height="25" xlink:href="DS_ana.svg">
    <title>10LAB04CT001</title>
    <rt:dyn type="X" mode="constant" value="&quot;T &quot;"/> 
    <rt:dyn type="ShowFrame" mode="constant" value="true"/> 
    <rt:dyn type="FKKS" mode="constant" value="&quot;10LAB04CT001&quot;"/> 
    <rt:dyn type="Color_Readings" mode="constant" value="true"/> 
    <rt:dyn type="ValueToTheRight" mode="constant" value="false"/> 
  </image>
  <image x="666.939" y="950.151" width="175" height="25" xlink:href="DS_ana.svg">
    <title>10LAB01CT001</title>
    <rt:dyn type="X" mode="constant" value="&quot;T &quot;"/> 
    <rt:dyn type="ShowFrame" mode="constant" value="true"/> 
    <rt:dyn type="FKKS" mode="constant" value="&quot;10LAB01CT001&quot;"/> 
    <rt:dyn type="Color_Readings" mode="constant" value="true"/> 
    <rt:dyn type="ValueToTheRight" mode="constant" value="false"/> 
  </image>
  <image x="932.606" y="950.151" width="175" height="25" xlink:href="DS_ana.svg">
    <title>10LAB03CT001</title>
    <rt:dyn type="X" mode="constant" value="&quot;T &quot;"/> 
    <rt:dyn type="ShowFrame" mode="constant" value="true"/> 
    <rt:dyn type="FKKS" mode="constant" value="&quot;10LAB03CT001&quot;"/> 
    <rt:dyn type="Color_Readings" mode="constant" value="true"/> 
    <rt:dyn type="ValueToTheRight" mode="constant" value="false"/> 
  </image>
  <image x="1199.61" y="950.151" width="175" height="25" xlink:href="DS_ana.svg">
    <title>10LAB05CT001</title>
    <rt:dyn type="X" mode="constant" value="&quot;T &quot;"/> 
    <rt:dyn type="ShowFrame" mode="constant" value="true"/> 
    <rt:dyn type="FKKS" mode="constant" value="&quot;10LAB05CT001&quot;"/> 
    <rt:dyn type="Color_Readings" mode="constant" value="true"/> 
    <rt:dyn type="ValueToTheRight" mode="constant" value="false"/> 
  </image>
  <text x="639" y="830" font-size="15">LAJ01<tspan x="639" dy="15">AP001</tspan>
  </text>
  <text x="713" y="830" font-size="15">LAC10<tspan x="713" dy="15">AP001</tspan>
  </text>
  <text x="816" y="830" font-size="15">LAC20<tspan x="816" dy="15">AP001</tspan>
  </text>
  <text x="918" y="830" font-size="15">LAC30<tspan x="918" dy="15">AP001</tspan>
  </text>
  <text x="1011" y="830" font-size="15">LAC40<tspan x="1011" dy="15">AP001</tspan>
  </text>
  <text x="1101" y="830" font-size="15">LAC50<tspan x="1101" dy="15">AP001</tspan>
  </text>
  <text x="1189" y="830" font-size="15">LCM<tspan x="1189" dy="15">опорожнение</tspan>
  </text>
  <image x="511.5" y="762.5" width="75" height="25" xlink:href="obj_link.svg">
    <rt:event type="OnClick">LoadNew(&quot;LAJ&quot;)</rt:event>
    <rt:dyn type="TextStr" mode="constant" value="&quot;LAJ&quot;"/> 
  </image>
  <image x="511.5" y="821.5" width="75" height="25" xlink:href="obj_link.svg">
    <rt:event type="OnClick">LoadNew(&quot;LAC00&quot;)</rt:event>
    <rt:dyn type="TextStr" mode="constant" value="&quot;LAC00&quot;"/> 
  </image>
  <image x="1303" y="805" width="75" height="25" xlink:href="obj_link.svg">
    <rt:event type="OnClick">LoadNew(&quot;LCM&quot;)</rt:event>
    <rt:dyn type="TextStr" mode="constant" value="&quot;LCM&quot;"/> 
  </image>
  <circle cx="649.743" cy="645.273" r="110" fill="gray" stroke="black"/> 
  <circle cx="1249.74" cy="645.252" r="110" fill="gray" stroke="black"/> 
  <rect x="778.364" y="388.803" width="78.7879" height="154.545" rx="6.06061" ry="13.6364" fill="gray" stroke="black"/> 
  <rect x="900.516" y="388.803" width="78.7879" height="154.545" rx="6.06061" ry="13.6364" fill="gray" stroke="black"/> 
  <rect x="1021.67" y="388.803" width="78.7879" height="154.545" rx="6.06061" ry="13.6364" fill="gray" stroke="black"/> 
  <rect x="1147.82" y="388.803" width="78.7879" height="154.545" rx="6.06061" ry="13.6364" fill="gray" stroke="black"/> 
  <rect x="649.743" y="535.273" width="600" height="220" rx="0" ry="0" fill="url(#Cylinder_horizontal)" stroke="black"/> 
  <rect x="648.743" y="536.273" width="603" height="218" rx="0" ry="0" fill="gray" stroke="none"/> 
  <image x="619.788" y="607.152" width="175" height="25" xlink:href="DS_ana.svg">
    <title>10LAA10CP001B</title>
    <rt:dyn type="X" mode="constant" value="&quot;P &quot;"/> 
    <rt:dyn type="ShowFrame" mode="constant" value="true"/> 
    <rt:dyn type="FKKS" mode="constant" value="&quot;10LAA10CP001B&quot;"/> 
    <rt:dyn type="Color_Readings" mode="constant" value="true"/> 
    <rt:dyn type="ValueToTheRight" mode="constant" value="false"/> 
  </image>
  <image x="619.788" y="566.758" width="175" height="25" xlink:href="DS_ana.svg">
    <title>10LAA10CP001A</title>
    <rt:dyn type="X" mode="constant" value="&quot;P &quot;"/> 
    <rt:dyn type="ShowFrame" mode="constant" value="true"/> 
    <rt:dyn type="FKKS" mode="constant" value="&quot;10LAA10CP001A&quot;"/> 
    <rt:dyn type="Color_Readings" mode="constant" value="true"/> 
    <rt:dyn type="ValueToTheRight" mode="constant" value="false"/> 
  </image>
  <image x="619.788" y="646.516" width="175" height="25" xlink:href="DS_ana.svg">
    <title>10LAA10CP001C</title>
    <rt:dyn type="X" mode="constant" value="&quot;P &quot;"/> 
    <rt:dyn type="ShowFrame" mode="constant" value="true"/> 
    <rt:dyn type="FKKS" mode="constant" value="&quot;10LAA10CP001C&quot;"/> 
    <rt:dyn type="Color_Readings" mode="constant" value="true"/> 
    <rt:dyn type="ValueToTheRight" mode="constant" value="false"/> 
  </image>
  <image x="1125.7" y="566.758" width="175" height="25" xlink:href="DS_ana.svg">
    <title>10LAA10CL002A</title>
    <rt:dyn type="X" mode="constant" value="&quot;L &quot;"/> 
    <rt:dyn type="ShowFrame" mode="constant" value="true"/> 
    <rt:dyn type="FKKS" mode="constant" value="&quot;10LAA10CL002A&quot;"/> 
    <rt:dyn type="Color_Readings" mode="constant" value="true"/> 
    <rt:dyn type="ValueToTheRight" mode="constant" value="false"/> 
  </image>
  <image x="1125.7" y="607.152" width="175" height="25" xlink:href="DS_ana.svg">
    <title>10LAA10CL002B</title>
    <rt:dyn type="X" mode="constant" value="&quot;L &quot;"/> 
    <rt:dyn type="ShowFrame" mode="constant" value="true"/> 
    <rt:dyn type="FKKS" mode="constant" value="&quot;10LAA10CL002B&quot;"/> 
    <rt:dyn type="Color_Readings" mode="constant" value="true"/> 
    <rt:dyn type="ValueToTheRight" mode="constant" value="false"/> 
  </image>
  <image x="1125.7" y="646.516" width="175" height="25" xlink:href="DS_ana.svg">
    <title>10LAA10CL002C</title>
    <rt:dyn type="X" mode="constant" value="&quot;L &quot;"/> 
    <rt:dyn type="ShowFrame" mode="constant" value="true"/> 
    <rt:dyn type="FKKS" mode="constant" value="&quot;10LAA10CL002C&quot;"/> 
    <rt:dyn type="Color_Readings" mode="constant" value="true"/> 
    <rt:dyn type="ValueToTheRight" mode="constant" value="false"/> 
  </image>
  <image x="925.697" y="660.607" width="175" height="25" xlink:href="DS_ana.svg">
    <title>10LAA10CL001A</title>
    <rt:dyn type="X" mode="constant" value="&quot;L &quot;"/> 
    <rt:dyn type="ShowFrame" mode="constant" value="true"/> 
    <rt:dyn type="FKKS" mode="constant" value="&quot;10LAA10CL001A&quot;"/> 
    <rt:dyn type="Color_Readings" mode="constant" value="true"/> 
    <rt:dyn type="ValueToTheRight" mode="constant" value="false"/> 
  </image>
  <image x="925.697" y="702.122" width="175" height="25" xlink:href="DS_ana.svg">
    <title>10LAA10CL001B</title>
    <rt:dyn type="X" mode="constant" value="&quot;L &quot;"/> 
    <rt:dyn type="ShowFrame" mode="constant" value="true"/> 
    <rt:dyn type="FKKS" mode="constant" value="&quot;10LAA10CL001B&quot;"/> 
    <rt:dyn type="Color_Readings" mode="constant" value="true"/> 
    <rt:dyn type="ValueToTheRight" mode="constant" value="false"/> 
  </image>
  <image x="829.333" y="595.333" width="60.6666" height="130.667" xlink:href="DS_ana_bar.svg"/> 
  <text x="824.848" y="586.363" font-size="15">УРОВЕНЬ</text>
  <text x="19" y="107.576" font-size="15">регуляционный<tspan x="19" dy="15">ВПЭН</tspan>
  </text>
  <text x="19" y="362" font-size="15">КГП КС I ст. СПП</text>
  <text x="19" y="428" font-size="15">ПВС КС II ст. СПП</text>
  <text x="19" y="490" font-size="15">КГП  ПВД-5 гр. А</text>
  <text x="19" y="299" font-size="15">КГП I ст. СПП</text>
  <text x="19" y="550" font-size="15">ПВС из ПВД-5 гр. А</text>
  <text x="19" y="609" font-size="15">от гидропривода<tspan x="19" dy="15">КГТН</tspan>
  </text>
  <path d="M808.005 -701.117 A8.80483 8.80483 0 1 1 808.005 -683.506 " fill="none" stroke="black" stroke-width="1" transform="flipY(571.298) rotate(90 1.4013e-045 1.4013e-045) flipY(166.195) flipY() translate(0 -828) translate(229.642 442.62)"/> 
  <line x1="754" y1="104" x2="917.606" y2="104" stroke="black" stroke-width="1"/> 
  <line x1="916.591" y1="103.788" x2="916.091" y2="271.212" stroke="black" stroke-width="1"/> 
  <text x="1756.7" y="605" font-size="15">ПВС из ПВД-5 гр. Б</text>
  <line x1="1280.52" y1="515" x2="1707" y2="515" stroke="black" stroke-width="1"/> 
  <text x="1756.7" y="524" font-size="15">КГП ПВД-5 гр. Б</text>
  <line x1="1271" y1="461" x2="1690.33" y2="461" stroke="black" stroke-width="1"/> 
  <line x1="1262.83" y1="405" x2="1262.83" y2="535.834" stroke="black" stroke-width="1"/> 
  <line x1="1261.5" y1="404" x2="1664.58" y2="404" stroke="black" stroke-width="1"/> 
  <text x="1756.7" y="408.97" font-size="15">КГП II ст. СПП</text>
  <path d="M453.645 -1193.93 A8.80483 8.80483 0 1 1 453.645 -1176.32 " fill="none" stroke="black" stroke-width="1" transform="flipY(571.298) rotate(90 1.4013e-045 1.4013e-045) flipY(166.195) flipY() translate(0 -828) translate(229.642 442.62)"/> 
  <line x1="1246.33" y1="458.5" x2="1254.39" y2="458.5" stroke="black" stroke-width="1"/> 
  <line x1="1254.44" y1="353" x2="1254.44" y2="458.683" stroke="black" stroke-width="1"/> 
  <line x1="1254.44" y1="353" x2="1678.21" y2="353" stroke="black" stroke-width="1"/> 
  <line x1="812.667" y1="280.5" x2="1186.5" y2="280.5" stroke="black" stroke-width="3"/> 
  <line x1="1020.83" y1="260" x2="1020.83" y2="279" stroke="black" stroke-width="3"/> 
  <image x="984" y="212.667" width="75" height="25" xlink:href="obj_link.svg" transform="rotate(90 37.3618 12.5)">
    <rt:event type="OnClick">LoadNew(&quot;LCA&quot;)</rt:event>
    <rt:dyn type="TextStr" mode="constant" value="&quot;&quot;"/> 
  </image>
  <text x="998.333" y="181" font-size="15">LCA20</text>
  <path d="M615.645 -895.118 A8.80483 8.80483 0 1 1 615.645 -877.506 " fill="none" stroke="black" stroke-width="1" transform="flipY(571.298) rotate(90 1.4013e-045 1.4013e-045) flipY(166.195) flipY() translate(0 -828) translate(229.642 442.62)"/> 
  <path d="M615.645 -1194.12 A8.80483 8.80483 0 1 1 615.645 -1176.51 " fill="none" stroke="black" stroke-width="1" transform="flipY(571.298) rotate(90 1.4013e-045 1.4013e-045) flipY(166.195) flipY() translate(0 -828) translate(229.642 442.62)"/> 
  <path d="M615.645 -1142.12 A8.80483 8.80483 0 1 1 615.645 -1124.51 " fill="none" stroke="black" stroke-width="1" transform="flipY(571.298) rotate(90 1.4013e-045 1.4013e-045) flipY(166.195) flipY() translate(0 -828) translate(229.642 442.62)"/> 
  <path d="M615.645 -1015.12 A8.80483 8.80483 0 1 1 615.645 -997.506 " fill="none" stroke="black" stroke-width="1" transform="flipY(571.298) rotate(90 1.4013e-045 1.4013e-045) flipY(166.195) flipY() translate(0 -828) translate(229.642 442.62)"/> 
  <line x1="836" y1="297.5" x2="930" y2="297.5" stroke="black" stroke-width="1"/> 
  <line x1="948" y1="297.5" x2="1050" y2="297.5" stroke="black" stroke-width="1"/> 
  <line x1="1067" y1="297.5" x2="1178" y2="297.5" stroke="black" stroke-width="1"/> 
  <line x1="1195" y1="297.5" x2="1229.5" y2="297.5" stroke="black" stroke-width="1"/> 
  <line x1="1267.92" y1="173" x2="1267.92" y2="298" stroke="black" stroke-width="1"/> 
  <line x1="1247.42" y1="297" x2="1696.39" y2="297" stroke="black" stroke-width="1"/> 
  <image x="1297.78" y="254.878" width="68.515" height="64.8187" xlink:href="DS_CO_valve.svg">
    <title>10LAA10AA002</title>
    <rt:dyn type="KKS" mode="constant" value="&quot;10LAA10AA002&quot;"/> 
    <rt:dyn type="DATA_NARY" mode="constant" value="&quot;TPTS&quot;"/> 
    <rt:dyn type="Operate" mode="constant" value="true"/> 
  </image>
  <line x1="1267.3" y1="173" x2="1726.7" y2="173" stroke="black" stroke-width="1"/> 
  <image x="1296.3" y="129.788" width="70" height="65" xlink:href="DS_CO_valve.svg">
    <title>10LAA10AA001</title>
    <rt:dyn type="KKS" mode="constant" value="&quot;10LAA10AA001&quot;"/> 
    <rt:dyn type="DATA_NARY" mode="constant" value="&quot;TPTS&quot;"/> 
    <rt:dyn type="Operate" mode="constant" value="true"/> 
  </image>
  <text x="1299.42" y="330.303" font-size="15">10LAA10<tspan x="1299.42" dy="15">AA002</tspan>
  </text>
  <text x="1299.42" y="206.545" font-size="15">10LAA10<tspan x="1299.42" dy="15">AA001</tspan>
  </text>
  <text x="1556.91" y="207.545" font-size="15">10LAA10<tspan x="1556.91" dy="15">AA201</tspan>
  </text>
  <g transform="rotate(30 1.4013e-045 1.4013e-045) flipY(224.444) rotate(180 1210.44 541.647)">
    <g transform="rotate(90 1212.44 532.643)">
      <polygon points="1948.22,-171.952 1961.6,-164.312 1961.6,-179.592 1948.22,-171.952" fill="black" stroke="black" stroke-width="1" transform="rotate(180 1279.17 367.814)"/> 
    </g>
  </g>
  <line x1="744" y1="81.5" x2="895" y2="81.5" stroke="black" stroke-width="3"/> 
  <line x1="1119" y1="81.5" x2="1238.48" y2="81.5" stroke="black" stroke-width="3"/> 
  <image x="891.667" y="69.8333" width="75" height="25" xlink:href="obj_link.svg" transform="rotate(180 37.3618 12.5)">
    <rt:event type="OnClick">LoadNew(&quot;LBG20&quot;)</rt:event>
    <rt:dyn type="TextStr" mode="constant" value="&quot;&quot;"/> 
  </image>
  <text x="980" y="87.3333" font-size="15">LBG20</text>
  <image x="1046" y="69.8333" width="75" height="25" xlink:href="obj_link.svg">
    <rt:event type="OnClick">LoadNew(&quot;LBG20&quot;)</rt:event>
    <rt:dyn type="TextStr" mode="constant" value="&quot;&quot;"/> 
  </image>
  <text x="970.181" y="32.5758" font-size="32">LAA</text>
  <text x="948" y="620" font-size="15">10LAA10BB001</text>
  <g transform="flipY(224.444) rotate(180 1210.44 541.647)">
    <g transform="rotate(90 1212.44 532.643)">
      <polygon points="430.507,752.758 443.887,760.398 443.887,745.118 430.507,752.758" fill="black" stroke="black" stroke-width="1" transform="rotate(180 1279.17 367.814)"/> 
    </g>
  </g>
  <line x1="659" y1="755" x2="659" y2="802" stroke="black" stroke-width="1"/> 
  <g transform="flipY(224.444) rotate(180 1210.44 541.647)">
    <g transform="rotate(90 1212.44 532.643)">
      <polygon points="430.81,690.396 444.19,698.036 444.19,682.755 430.81,690.396" fill="black" stroke="black" stroke-width="1" transform="rotate(180 1279.17 367.814)"/> 
    </g>
  </g>
  <g transform="rotate(60 1.4013e-045 1.4013e-045) flipY(224.444) rotate(180 1210.44 541.647)">
    <g transform="rotate(90 1212.44 532.643)">
      <polygon points="1481.11,335.231 1494.49,342.871 1494.49,327.591 1481.11,335.231" fill="black" stroke="black" stroke-width="1" transform="rotate(180 1279.17 367.814)"/> 
    </g>
  </g>
  <line x1="721" y1="755" x2="721" y2="802" stroke="black" stroke-width="3"/> 
  <line x1="751" y1="755" x2="751" y2="802" stroke="black" stroke-width="1"/> 
  <g transform="flipY(224.444) rotate(180 1210.44 541.647)">
    <g transform="rotate(90 1212.44 532.643)">
      <polygon points="430.81,586.4 444.19,594.04 444.19,578.76 430.81,586.4" fill="black" stroke="black" stroke-width="1" transform="rotate(180 1279.17 367.814)"/> 
    </g>
  </g>
  <g transform="rotate(60 1.4013e-045 1.4013e-045) flipY(224.444) rotate(180 1210.44 541.647)">
    <g transform="rotate(90 1212.44 532.643)">
      <polygon points="1571.17,283.231 1584.56,290.871 1584.56,275.591 1571.17,283.231" fill="black" stroke="black" stroke-width="1" transform="rotate(180 1279.17 367.814)"/> 
    </g>
  </g>
  <line x1="825" y1="755" x2="825" y2="802" stroke="black" stroke-width="3"/> 
  <line x1="855" y1="755" x2="855" y2="802" stroke="black" stroke-width="1"/> 
  <g transform="flipY(224.444) rotate(180 1210.44 541.647)">
    <g transform="rotate(90 1212.44 532.643)">
      <polygon points="430.81,486.4 444.19,494.04 444.19,478.76 430.81,486.4" fill="black" stroke="black" stroke-width="1" transform="rotate(180 1279.17 367.814)"/> 
    </g>
  </g>
  <g transform="rotate(60 1.4013e-045 1.4013e-045) flipY(224.444) rotate(180 1210.44 541.647)">
    <g transform="rotate(90 1212.44 532.643)">
      <polygon points="1657.77,233.231 1671.16,240.871 1671.16,225.591 1657.77,233.231" fill="black" stroke="black" stroke-width="1" transform="rotate(180 1279.17 367.814)"/> 
    </g>
  </g>
  <line x1="925" y1="755" x2="925" y2="802" stroke="black" stroke-width="3"/> 
  <line x1="955" y1="755" x2="955" y2="802" stroke="black" stroke-width="1"/> 
  <g transform="flipY(224.444) rotate(180 1210.44 541.647)">
    <g transform="rotate(90 1212.44 532.643)">
      <polygon points="430.81,392.4 444.19,400.04 444.19,384.76 430.81,392.4" fill="black" stroke="black" stroke-width="1" transform="rotate(180 1279.17 367.814)"/> 
    </g>
  </g>
  <g transform="rotate(60 1.4013e-045 1.4013e-045) flipY(224.444) rotate(180 1210.44 541.647)">
    <g transform="rotate(90 1212.44 532.643)">
      <polygon points="1739.18,186.23 1752.57,193.87 1752.57,178.59 1739.18,186.23" fill="black" stroke="black" stroke-width="1" transform="rotate(180 1279.17 367.814)"/> 
    </g>
  </g>
  <line x1="1019" y1="755" x2="1019" y2="802" stroke="black" stroke-width="3"/> 
  <line x1="1049" y1="755" x2="1049" y2="802" stroke="black" stroke-width="1"/> 
  <g transform="flipY(224.444) rotate(180 1210.44 541.647)">
    <g transform="rotate(90 1212.44 532.643)">
      <polygon points="429.81,302.4 443.19,310.04 443.19,294.76 429.81,302.4" fill="black" stroke="black" stroke-width="1" transform="rotate(180 1279.17 367.814)"/> 
    </g>
  </g>
  <g transform="rotate(60 1.4013e-045 1.4013e-045) flipY(224.444) rotate(180 1210.44 541.647)">
    <g transform="rotate(90 1212.44 532.643)">
      <polygon points="1816.62,140.363 1830.01,148.003 1830.01,132.723 1816.62,140.363" fill="black" stroke="black" stroke-width="1" transform="rotate(180 1279.17 367.814)"/> 
    </g>
  </g>
  <line x1="1109" y1="756" x2="1109" y2="803" stroke="black" stroke-width="3"/> 
  <line x1="1139" y1="756" x2="1139" y2="803" stroke="black" stroke-width="1"/> 
  <g transform="flipY(224.444) rotate(180 1210.44 541.647)">
    <g transform="rotate(90 1212.44 532.643)">
      <polygon points="430.507,208.76 443.887,216.4 443.887,201.12 430.507,208.76" fill="black" stroke="black" stroke-width="1" transform="rotate(180 1279.17 367.814)"/> 
    </g>
  </g>
  <line x1="1203" y1="755" x2="1203" y2="802" stroke="black" stroke-width="1"/> 
  <image x="1048.91" y="185.818" width="175" height="25" xlink:href="DS_ana.svg">
    <title>10LCA20CP006</title>
    <rt:dyn type="X" mode="constant" value="&quot;P &quot;"/> 
    <rt:dyn type="ShowFrame" mode="constant" value="true"/> 
    <rt:dyn type="FKKS" mode="constant" value="&quot;10LCA20CP006&quot;"/> 
    <rt:dyn type="Color_Readings" mode="constant" value="true"/> 
    <rt:dyn type="ValueToTheRight" mode="constant" value="false"/> 
  </image>
  <image x="1048.91" y="216.121" width="175" height="25" xlink:href="DS_ana.svg">
    <title>10LCA20CT006</title>
    <rt:dyn type="X" mode="constant" value="&quot;T &quot;"/> 
    <rt:dyn type="ShowFrame" mode="constant" value="true"/> 
    <rt:dyn type="FKKS" mode="constant" value="&quot;10LCA20CT006&quot;"/> 
    <rt:dyn type="Color_Readings" mode="constant" value="true"/> 
    <rt:dyn type="ValueToTheRight" mode="constant" value="false"/> 
  </image>
  <image x="1048.91" y="246.94" width="175" height="25" xlink:href="DS_ana.svg">
    <title>10LCA70CF001</title>
    <rt:dyn type="X" mode="constant" value="&quot;F &quot;"/> 
    <rt:dyn type="ShowFrame" mode="constant" value="true"/> 
    <rt:dyn type="FKKS" mode="constant" value="&quot;10LCA70CF001&quot;"/> 
    <rt:dyn type="Color_Readings" mode="constant" value="true"/> 
    <rt:dyn type="ValueToTheRight" mode="constant" value="false"/> 
  </image>
  <image x="307" y="590.909" width="175" height="25" xlink:href="DS_ana.svg">
    <title>10LAB62CF001</title>
    <rt:dyn type="X" mode="constant" value="&quot;F &quot;"/> 
    <rt:dyn type="ShowFrame" mode="constant" value="true"/> 
    <rt:dyn type="FKKS" mode="constant" value="&quot;10LAB62CF001&quot;"/> 
    <rt:dyn type="Color_Readings" mode="constant" value="true"/> 
    <rt:dyn type="ValueToTheRight" mode="constant" value="false"/> 
  </image>
  <image x="1398" y="310.956" width="68.515" height="64.8187" xlink:href="DS_CO_valve.svg">
    <title>10LСP10AA002</title>
    <rt:dyn type="KKS" mode="constant" value="&quot;10LСP10AA002&quot;"/> 
    <rt:dyn type="DATA_NARY" mode="constant" value="&quot;TPTS&quot;"/> 
    <rt:dyn type="Operate" mode="constant" value="true"/> 
  </image>
  <text x="1397.51" y="385.849" font-size="15">10LСP10<tspan x="1397.51" dy="15">AA002</tspan>
  </text>
  <line x1="839" y1="457" x2="1229.77" y2="458.773" stroke="black" stroke-width="1"/> 
  <line x1="1173.46" y1="435.272" x2="1200.46" y2="434.772" stroke="black" stroke-width="1" transform="rotate(45.2898 1177.51 458.75)"/> 
  <line x1="911.755" y1="699.643" x2="938.755" y2="699.143" stroke="black" stroke-width="1" transform="rotate(45.2898 1177.51 458.75)"/> 
  <image x="1560.55" y="129.883" width="70" height="65" xlink:href="DS_Reg_valve.svg" transform="rotate(360 -0.000244141 -10)">
    <title>10LAA10AA201</title>
    <rt:dyn type="KKS" mode="constant" value="&quot;10LAA10AA201&quot;"/> 
    <rt:dyn type="Operate" mode="constant" value="TRUE"/> 
    <rt:dyn type="DATA_NARY" mode="constant" value="&quot;TPTS&quot;"/> 
  </image>
  <image x="1563.05" y="102.515" width="65" height="25" xlink:href="DS_Reg_degree.svg">
    <title>10LAA10AA201</title>
    <rt:dyn type="KKS" mode="constant" value="&quot;10LAA10AA201&quot;"/> 
  </image>
  <text x="1756.7" y="181.818" font-size="15">выпар в атмосферу</text>
  <text x="1557.67" y="384.333" font-size="15">10LСP10<tspan x="1557.67" dy="15">AA201</tspan>
  </text>
  <image x="1560.55" y="309.281" width="70" height="65" xlink:href="DS_Reg_valve.svg" transform="flipX(0.00010613) rotate(360 -0.000244141 -10)">
    <title>10LСP10AA201</title>
    <rt:dyn type="KKS" mode="constant" value="&quot;10LСP10AA201&quot;"/> 
    <rt:dyn type="Operate" mode="constant" value="TRUE"/> 
    <rt:dyn type="DATA_NARY" mode="constant" value="&quot;TPTS&quot;"/> 
  </image>
  <image x="1493.77" y="309.091" width="65" height="25" xlink:href="DS_Reg_degree.svg">
    <title>10LСP10AA201</title>
    <rt:dyn type="KKS" mode="constant" value="&quot;10LСP10AA201&quot;"/> 
  </image>
  <image x="1662.71" y="285.363" width="75" height="25" xlink:href="obj_link.svg" transform="flipX(37.5001)">
    <rt:event type="OnClick">LoadNew(&quot;LCC20&quot;)</rt:event>
    <rt:dyn type="TextStr" mode="constant" value="&quot;LCC20&quot;"/> 
  </image>
  <image x="1662.71" y="340.939" width="75" height="25" xlink:href="obj_link.svg" transform="flipX(37.5001)">
    <rt:event type="OnClick">LoadNew(&quot;LCP&quot;)</rt:event>
    <rt:dyn type="TextStr" mode="constant" value="&quot;LCP&quot;"/> 
  </image>
  <image x="1662.71" y="391.455" width="75" height="25" xlink:href="obj_link.svg" transform="flipX(37.5001)">
    <rt:event type="OnClick">LoadNew(&quot;LCS60&quot;)</rt:event>
    <rt:dyn type="TextStr" mode="constant" value="&quot;LCS60&quot;"/> 
  </image>
  <image x="1652.71" y="501.394" width="85" height="25" xlink:href="obj_link.svg" transform="flipX(37.5001)">
    <rt:event type="OnClick">LoadNew(&quot;LAD52,62&quot;)</rt:event>
    <rt:dyn type="TextStr" mode="constant" value="&quot;LAD52,62&quot;"/> 
  </image>
  <image x="1652.71" y="584.849" width="85" height="25" xlink:href="obj_link.svg" transform="flipX(37.5001)">
    <rt:event type="OnClick">LoadNew(&quot;LAD52,62&quot;)</rt:event>
    <rt:dyn type="TextStr" mode="constant" value="&quot;LAD52,62&quot;"/> 
  </image>
  <image x="1662.71" y="449" width="75" height="25" xlink:href="obj_link.svg">
    <rt:event type="OnClick">LoadNew(&quot;LBW&quot;)</rt:event>
    <rt:dyn type="TextStr" mode="constant" value="&quot;LBW&quot;"/> 
  </image>
  <text x="1756.7" y="303.03" font-size="15">отсос ПВС в ПНД-2</text>
  <text x="1556.91" y="495.034" font-size="15">10LBW10<tspan x="1556.91" dy="15">AA001</tspan>
  </text>
  <image x="191.773" y="89.3939" width="75" height="25" xlink:href="obj_link.svg">
    <rt:event type="OnClick">LoadNew(&quot;LAJ&quot;)</rt:event>
    <rt:dyn type="TextStr" mode="constant" value="&quot;LAJ&quot;"/> 
  </image>
  <image x="191.773" y="213.636" width="75" height="25" xlink:href="obj_link.svg">
    <rt:event type="OnClick">LoadNew(&quot;LCN&quot;)</rt:event>
    <rt:dyn type="TextStr" mode="constant" value="&quot;LCN&quot;"/> 
  </image>
  <image x="191.773" y="277.273" width="75" height="25" xlink:href="obj_link.svg">
    <rt:event type="OnClick">LoadNew(&quot;LCS50&quot;)</rt:event>
    <rt:dyn type="TextStr" mode="constant" value="&quot;LCS50&quot;"/> 
  </image>
  <image x="191.773" y="340.909" width="75" height="25" xlink:href="obj_link.svg">
    <rt:event type="OnClick">LoadNew(&quot;LCS50&quot;)</rt:event>
    <rt:dyn type="TextStr" mode="constant" value="&quot;LCS50&quot;"/> 
  </image>
  <image x="191.773" y="404.545" width="75" height="25" xlink:href="obj_link.svg">
    <rt:event type="OnClick">LoadNew(&quot;LCS60&quot;)</rt:event>
    <rt:dyn type="TextStr" mode="constant" value="&quot;LCS60&quot;"/> 
  </image>
  <image x="191.773" y="468.182" width="85" height="25" xlink:href="obj_link.svg">
    <rt:event type="OnClick">LoadNew(&quot;LAD51,61&quot;)</rt:event>
    <rt:dyn type="TextStr" mode="constant" value="&quot;LAD51,61&quot;"/> 
  </image>
  <image x="191.773" y="525.758" width="85" height="25" xlink:href="obj_link.svg">
    <rt:event type="OnClick">LoadNew(&quot;LAD51,61&quot;)</rt:event>
    <rt:dyn type="TextStr" mode="constant" value="&quot;LAD51,61&quot;"/> 
  </image>
  <image x="191.773" y="590.909" width="75" height="25" xlink:href="obj_link.svg">
    <rt:event type="OnClick">LoadNew(&quot;LCS60&quot;)</rt:event>
    <rt:dyn type="TextStr" mode="constant" value="&quot;LCS60&quot;"/> 
  </image>
  <path d="M610.231 -890.191 A20.2664 18.7161 0 0 0 610.231 -855.554 " fill="none" stroke="black" stroke-width="1" transform="flipX(920.896) flipX(908.692) rotate(85.1995 917.82 277.398) rotate(360 1.4013e-045 1.4013e-045) flipY(571.298) rotate(90 1.4013e-045 1.4013e-045) flipY(166.195) flipY() translate(0 -828) translate(229.642 442.62)"/> 
  <image x="1561.29" y="419.697" width="68.515" height="64.8187" xlink:href="DS_CO_valve.svg">
    <title>10LBW10AA001</title>
    <rt:dyn type="KKS" mode="constant" value="&quot;10LBW10AA001&quot;"/> 
    <rt:dyn type="DATA_NARY" mode="constant" value="&quot;TPTS&quot;"/> 
    <rt:dyn type="Operate" mode="constant" value="true"/> 
  </image>
</svg>
