<?xml  version="1.0" encoding="windows-1251"?>
<svg color="Col_BGSand" xmlns="http://www.w3.org/2000/svg" xmlns:rt="http://www.rts.co.at/2001/XMLSchema/RtSvgPL" xmlns:xlink="http://www.w3.org/1999/xlink" xmlns:xsi="http://www.w3.org/2001/XMLSchema-instance" xsi:schemaLocation="http://www.w3.org/2000/svg C:\RTS\RtSvg\XML\SVG.xsd" viewBox="0 0 1914 1000" width="1914" height="1000" id="lbg">
  <rt:model modelversion="7.2.0.23" comment="Создано VNIIAES-ASUTP\voroninrs 27.03.2013 16:12:51"/> 
  <g transform="scale(1.24 1.24 1480.48 145.455)">
    <circle cx="1607.12" cy="178.571" r="44.8271" fill="Col_Grey4" stroke="Col_Grey5"/> 
    <circle cx="1336.96" cy="178.64" r="44.8271" fill="Col_Grey4" stroke="Col_Grey5"/> 
    <rect x="1333.99" y="133.64" width="276.167" height="89.9999" rx="0" ry="0" fill="Col_Grey4" stroke="Col_Grey5"/> 
    <g>
      <circle cx="1371.11" cy="100.789" r="18.8" fill="Col_Grey4" stroke="Col_Grey5"/> 
      <ellipse cx="1371.14" cy="151.135" rx="18.7992" ry="7.33334" fill="Col_Grey4" stroke="Col_Grey5"/> 
      <rect x="377.522" y="1210.42" width="53.0003" height="37.4363" rx="0" ry="0" fill="Col_Grey4" stroke="none" transform="rotate(270 335.333 193.333)"/> 
      <line x1="1389.79" y1="99.6432" x2="1389.79" y2="152.301" stroke="Col_Grey5"/> 
      <line x1="1352.29" y1="101.143" x2="1351.79" y2="151.301" stroke="Col_Grey5"/> 
      <line x1="1352.3" y1="100.143" x2="1389.3" y2="100.143" stroke="Col_Grey5"/> 
      <line x1="1353.12" y1="104.643" x2="1390.12" y2="104.643" stroke="Col_Grey5"/> 
    </g>
    <g>
      <circle cx="1439.78" cy="100.876" r="18.8" fill="Col_Grey4" stroke="Col_Grey5"/> 
      <ellipse cx="1439.81" cy="151.222" rx="18.7992" ry="7.33334" fill="Col_Grey4" stroke="Col_Grey5"/> 
      <rect x="377.435" y="1279.09" width="53.0003" height="37.4363" rx="0" ry="0" fill="Col_Grey4" stroke="none" transform="rotate(270 335.333 193.333)"/> 
      <line x1="1458.46" y1="99.7296" x2="1458.46" y2="152.388" stroke="Col_Grey5"/> 
      <line x1="1420.96" y1="101.23" x2="1420.46" y2="151.388" stroke="Col_Grey5"/> 
      <line x1="1420.97" y1="100.23" x2="1457.97" y2="100.23" stroke="Col_Grey5"/> 
      <line x1="1421.79" y1="104.73" x2="1458.79" y2="104.73" stroke="Col_Grey5"/> 
    </g>
    <g>
      <circle cx="1505.78" cy="100.682" r="18.8" fill="Col_Grey4" stroke="Col_Grey5"/> 
      <ellipse cx="1505.81" cy="151.028" rx="18.7992" ry="7.33334" fill="Col_Grey4" stroke="Col_Grey5"/> 
      <rect x="377.629" y="1345.09" width="53.0003" height="37.4363" rx="0" ry="0" fill="Col_Grey4" stroke="none" transform="rotate(270 335.333 193.333)"/> 
      <line x1="1524.46" y1="99.5364" x2="1524.46" y2="152.194" stroke="Col_Grey5"/> 
      <line x1="1486.96" y1="101.036" x2="1486.46" y2="151.194" stroke="Col_Grey5"/> 
      <line x1="1486.97" y1="100.036" x2="1523.97" y2="100.036" stroke="Col_Grey5"/> 
      <line x1="1487.79" y1="104.536" x2="1524.79" y2="104.536" stroke="Col_Grey5"/> 
    </g>
    <g>
      <circle cx="1570.78" cy="100.682" r="18.8" fill="Col_Grey4" stroke="Col_Grey5"/> 
      <ellipse cx="1570.81" cy="151.028" rx="18.7992" ry="7.33334" fill="Col_Grey4" stroke="Col_Grey5"/> 
      <rect x="377.629" y="1410.09" width="53.0003" height="37.4363" rx="0" ry="0" fill="Col_Grey4" stroke="none" transform="rotate(270 335.333 193.333)"/> 
      <line x1="1589.46" y1="99.5364" x2="1589.46" y2="152.194" stroke="Col_Grey5"/> 
      <line x1="1551.96" y1="101.036" x2="1551.46" y2="151.194" stroke="Col_Grey5"/> 
      <line x1="1551.97" y1="100.036" x2="1588.97" y2="100.036" stroke="Col_Grey5"/> 
      <line x1="1552.79" y1="104.536" x2="1589.79" y2="104.536" stroke="Col_Grey5"/> 
    </g>
    <line x1="1339.29" y1="133.369" x2="1339.29" y2="223.37" stroke="Col_Grey5"/> 
    <line x1="1604.29" y1="133.369" x2="1604.29" y2="223.37" stroke="Col_Grey5"/> 
  </g>
  <line x1="1500.33" y1="-136.913" x2="1534.83" y2="-136.913" stroke="black" stroke-width="3" transform="rotate(270 1532.58 50.5)"/> 
  <line x1="1500.33" y1="-52.004" x2="1534.83" y2="-52.004" stroke="black" stroke-width="3" transform="rotate(270 1532.58 50.5)"/> 
  <line x1="1500.33" y1="108.723" x2="1534.83" y2="108.723" stroke="black" stroke-width="3" transform="rotate(270 1532.58 50.5)"/> 
  <line x1="1500.33" y1="29.5" x2="1534.83" y2="29.5" stroke="black" stroke-width="3" transform="rotate(270 1532.58 50.5)"/> 
  <line x1="509.242" y1="950.984" x2="1053.85" y2="950.984" stroke="black" stroke-width="1"/> 
  <line x1="1022.89" y1="277.454" x2="1022.89" y2="379" stroke="black" stroke-dasharray="5,5" stroke-width="1"/> 
  <line x1="1587" y1="496.303" x2="1587" y2="762" stroke="black" stroke-width="1"/> 
  <line x1="1386.14" y1="172" x2="1386.14" y2="32.4242" stroke="black" stroke-width="3"/> 
  <line x1="1106.67" y1="192" x2="1106.67" y2="192" stroke="black"/> 
  <image x="1478.04" y="179.424" width="175" height="25" xlink:href="DS_ana.svg">
    <title>10LAA10CP001</title>
    <rt:dyn type="X" mode="constant" value="&quot;P &quot;"/> 
    <rt:dyn type="ShowFrame" mode="constant" value="true"/> 
    <rt:dyn type="FKKS" mode="constant" value="&quot;10LAA10CP001&quot;"/> 
    <rt:dyn type="Color_Readings" mode="constant" value="true"/> 
    <rt:dyn type="ValueToTheRight" mode="constant" value="false"/> 
  </image>
  <image x="1288.91" y="179.424" width="175" height="25" xlink:href="DS_ana.svg">
    <title>10LAA10CL001</title>
    <rt:dyn type="X" mode="constant" value="&quot;L &quot;"/> 
    <rt:dyn type="ShowFrame" mode="constant" value="true"/> 
    <rt:dyn type="FKKS" mode="constant" value="&quot;10LAA10CL001&quot;"/> 
    <rt:dyn type="Color_Readings" mode="constant" value="true"/> 
    <rt:dyn type="ValueToTheRight" mode="constant" value="false"/> 
  </image>
  <image x="1456.43" y="256.182" width="75" height="25" xlink:href="obj_link.svg">
    <rt:event type="OnClick">LoadNew(&quot;LAA&quot;)</rt:event>
    <rt:dyn type="TextStr" mode="constant" value="&quot;LAA&quot;"/> 
  </image>
  <line x1="890.833" y1="375.546" x2="890.833" y2="770" stroke="black" stroke-width="3"/> 
  <line x1="1051" y1="497.076" x2="1906.03" y2="497.076" stroke="black" stroke-width="3"/> 
  <line x1="1907.38" y1="498.773" x2="1907.38" y2="32" stroke="black" stroke-width="3"/> 
  <line x1="1320.1" y1="171.848" x2="1621.61" y2="171.848" stroke="black" stroke-width="3"/> 
  <line x1="378.212" y1="484.849" x2="378.212" y2="484.849" stroke="black"/> 
  <text x="1400.91" y="234.333" font-size="15">10LAA10BB001</text>
  <line x1="95" y1="769.485" x2="1870.85" y2="769.47" stroke="black" stroke-width="3"/> 
  <text x="964.182" y="41.6667" font-size="32">
    <title>Второй контур</title>
LBG</text>
  <line x1="1552.93" y1="172" x2="1552.93" y2="31.0303" stroke="black" stroke-width="3"/> 
  <line x1="1820.04" y1="498.637" x2="1821.4" y2="424.031" stroke="black" stroke-width="1"/> 
  <line x1="1820.01" y1="418.925" x2="1870.01" y2="419.925" stroke="black" stroke-width="1"/> 
  <line x1="1868.98" y1="307.819" x2="1868.98" y2="419.945" stroke="black" stroke-width="1"/> 
  <g transform="rotate(180 1210.44 541.647)">
    <g transform="rotate(90 1212.44 532.643)">
      <polygon points="1098.38,-457.974 1111.76,-450.324 1111.76,-465.614 1098.38,-457.974" fill="black" stroke="black" stroke-width="1" transform="rotate(180 1279.17 367.814)"/> 
    </g>
  </g>
  <image x="1797.19" y="376.4" width="57.5" height="75" xlink:href="DS_pulse_valve.svg" transform="flipX(6.24994) flipX(6.24999)">
    <title>10LBG30AA905</title>
    <rt:dyn type="KKS" mode="constant" value="&quot;10LBG30AA905&quot;"/> 
    <rt:dyn type="DATA_NARY" mode="constant" value="&quot;TPTS&quot;"/> 
  </image>
  <text x="1824" y="467.818" font-size="15">10LBG30<tspan x="1824" dy="15">AA905</tspan>
  </text>
  <line x1="1654.68" y1="498.637" x2="1656.04" y2="424.031" stroke="black" stroke-width="1"/> 
  <line x1="1654.65" y1="418.925" x2="1704.65" y2="419.925" stroke="black" stroke-width="1"/> 
  <line x1="1703.62" y1="280.091" x2="1703.62" y2="419.945" stroke="black" stroke-width="1"/> 
  <g transform="rotate(180 1210.44 541.647)">
    <g transform="rotate(90 1212.44 532.643)">
      <polygon points="1069.38,-292.614 1082.76,-284.964 1082.76,-300.254 1069.38,-292.614" fill="black" stroke="black" stroke-width="1" transform="rotate(180 1279.17 367.814)"/> 
    </g>
  </g>
  <image x="1631.83" y="376.4" width="57.5" height="75" xlink:href="DS_pulse_valve.svg" transform="flipX(6.24994) flipX(6.24999)">
    <title>10LBG30AA904</title>
    <rt:dyn type="KKS" mode="constant" value="&quot;10LBG30AA904&quot;"/> 
    <rt:dyn type="DATA_NARY" mode="constant" value="&quot;TPTS&quot;"/> 
  </image>
  <text x="1659.65" y="464.788" font-size="15">10LBG30<tspan x="1659.65" dy="15">AA904</tspan>
  </text>
  <line x1="1489.19" y1="498.788" x2="1490.55" y2="424.182" stroke="black" stroke-width="1"/> 
  <line x1="1489.16" y1="419.076" x2="1539.16" y2="420.076" stroke="black" stroke-width="1"/> 
  <line x1="1538.13" y1="307.97" x2="1538.13" y2="420.096" stroke="black" stroke-width="1"/> 
  <g transform="rotate(180 1210.44 541.647)">
    <g transform="rotate(90 1212.44 532.643)">
      <polygon points="1098.54,-127.126 1111.92,-119.476 1111.92,-134.766 1098.54,-127.126" fill="black" stroke="black" stroke-width="1" transform="rotate(180 1279.17 367.814)"/> 
    </g>
  </g>
  <image x="1466.34" y="376.551" width="57.5" height="75" xlink:href="DS_pulse_valve.svg" transform="flipX(6.24994) flipX(6.24999)">
    <title>10LBG30AA903</title>
    <rt:dyn type="KKS" mode="constant" value="&quot;10LBG30AA903&quot;"/> 
    <rt:dyn type="DATA_NARY" mode="constant" value="&quot;TPTS&quot;"/> 
  </image>
  <text x="1493.16" y="467.97" font-size="15">10LBG30<tspan x="1493.16" dy="15">AA903</tspan>
  </text>
  <line x1="1323.83" y1="498.788" x2="1325.19" y2="424.182" stroke="black" stroke-width="1"/> 
  <line x1="1323.8" y1="419.076" x2="1373.8" y2="420.076" stroke="black" stroke-width="1"/> 
  <g transform="rotate(180 1210.44 541.647)">
    <g transform="rotate(90 1212.44 532.643)">
      <polygon points="1063.54,38.2345 1076.92,45.8845 1076.92,30.5945 1063.54,38.2345" fill="black" stroke="black" stroke-width="1" transform="rotate(180 1279.17 367.814)"/> 
    </g>
  </g>
  <image x="1300.98" y="376.551" width="57.5" height="75" xlink:href="DS_pulse_valve.svg" transform="flipX(6.24994) flipX(6.24999)">
    <title>10LBG30AA902</title>
    <rt:dyn type="KKS" mode="constant" value="&quot;10LBG30AA902&quot;"/> 
    <rt:dyn type="DATA_NARY" mode="constant" value="&quot;TPTS&quot;"/> 
  </image>
  <text x="1328.8" y="464.94" font-size="15">10LBG30<tspan x="1328.8" dy="15">AA902</tspan>
  </text>
  <line x1="1158.98" y1="498.939" x2="1160.34" y2="424.334" stroke="black" stroke-width="1"/> 
  <line x1="1158.95" y1="419.228" x2="1208.95" y2="420.228" stroke="black" stroke-width="1"/> 
  <line x1="1207.92" y1="308.122" x2="1207.92" y2="420.248" stroke="black" stroke-width="1"/> 
  <g transform="rotate(180 1210.44 541.647)">
    <g transform="rotate(90 1212.44 532.643)">
      <polygon points="1098.69,203.082 1112.07,210.732 1112.07,195.442 1098.69,203.082" fill="black" stroke="black" stroke-width="1" transform="rotate(180 1279.17 367.814)"/> 
    </g>
  </g>
  <image x="1136.13" y="376.703" width="57.5" height="75" xlink:href="DS_pulse_valve.svg" transform="flipX(6.24994) flipX(6.24999)">
    <title>10LBG30AA901</title>
    <rt:dyn type="KKS" mode="constant" value="&quot;10LBG30AA901&quot;"/> 
    <rt:dyn type="DATA_NARY" mode="constant" value="&quot;TPTS&quot;"/> 
  </image>
  <text x="1163.95" y="465.092" font-size="15">10LBG30<tspan x="1163.95" dy="15">AA901</tspan>
  </text>
  <line x1="1051" y1="32.1364" x2="1387" y2="32.1364" stroke="black" stroke-width="3"/> 
  <line x1="1051.72" y1="497.439" x2="1051.72" y2="32" stroke="black" stroke-width="3"/> 
  <image x="1061.06" y="344.879" width="175" height="25" xlink:href="DS_ana.svg">
    <title>10LBG30CT002</title>
    <rt:dyn type="FKKS" mode="constant" value="&quot;10LBG30CT002&quot;"/> 
    <rt:dyn type="X" mode="constant" value="&quot;T&quot;"/> 
    <rt:dyn type="ShowFrame" mode="constant" value="true"/> 
    <rt:dyn type="Color_Readings" mode="constant" value="true"/> 
    <rt:dyn type="ValueToTheRight" mode="constant" value="false"/> 
  </image>
  <text x="937.182" y="202.424" font-size="15">10LBF50<tspan x="937.182" dy="15">AA201</tspan>
  </text>
  <line x1="1013.7" y1="60.8679" x2="1013.7" y2="226.777" stroke="black" stroke-width="3"/> 
  <image x="968.969" y="118.245" width="70" height="65" xlink:href="DS_Reg_valve.svg" transform="flipY(-10) rotate(270 0 0) flipX(10.0005) rotate(90 0 0) flipY(-10.0001) rotate(270 0 -10)">
    <title>10LBF50AA201</title>
    <rt:dyn type="KKS" mode="constant" value="&quot;10LBF50AA201&quot;"/> 
    <rt:dyn type="DATA_NARY" mode="constant" value="&quot;TPTS&quot;"/> 
    <rt:dyn type="Operate" mode="constant" value="true"/> 
  </image>
  <image x="938.697" y="87.2424" width="65" height="25" xlink:href="DS_Reg_degree.svg">
    <title>10LBF50AA201</title>
    <rt:dyn type="KKS" mode="constant" value="&quot;10LBF50AA201&quot;"/> 
  </image>
  <line x1="813" y1="225.833" x2="1052.64" y2="225.833" stroke="black" stroke-width="3"/> 
  <g transform="flipY(125) rotate(180 1210.44 541.647)">
    <g transform="rotate(90 1212.44 532.643)">
      <polygon points="972.054,397.839 985.434,405.489 985.434,390.199 972.054,397.839" fill="black" stroke="black" stroke-width="1" transform="rotate(180 1279.17 367.814)"/> 
    </g>
  </g>
  <image x="854.47" y="114.136" width="75" height="25" xlink:href="obj_link.svg">
    <rt:event type="OnClick">LoadNew(&quot;LBA00&quot;)</rt:event>
    <rt:dyn type="TextStr" mode="constant" value="&quot;LBA00&quot;"/> 
  </image>
  <text x="865.455" y="159.591" font-size="15">БРУ-Д</text>
  <text x="736.455" y="202.454" font-size="15">10LBF40<tspan x="736.455" dy="15">AA201</tspan>
  </text>
  <line x1="812.97" y1="60.8983" x2="812.97" y2="226.807" stroke="black" stroke-width="3"/> 
  <image x="768.242" y="118.275" width="70" height="65" xlink:href="DS_Reg_valve.svg" transform="flipY(-10) rotate(270 0 0) flipX(10.0005) rotate(90 0 0) flipY(-10.0001) rotate(270 0 -10)">
    <title>10LBF40AA201</title>
    <rt:dyn type="KKS" mode="constant" value="&quot;10LBF40AA201&quot;"/> 
    <rt:dyn type="DATA_NARY" mode="constant" value="&quot;TPTS&quot;"/> 
    <rt:dyn type="Operate" mode="constant" value="true"/> 
  </image>
  <image x="737.97" y="87.2723" width="65" height="25" xlink:href="DS_Reg_degree.svg">
    <title>10LBF40AA201</title>
    <rt:dyn type="KKS" mode="constant" value="&quot;10LBF40AA201&quot;"/> 
  </image>
  <g transform="flipY(125) rotate(180 1210.44 541.647)">
    <g transform="rotate(90 1212.44 532.643)">
      <polygon points="972.024,598.565 985.404,606.215 985.404,590.925 972.024,598.565" fill="black" stroke="black" stroke-width="1" transform="rotate(180 1279.17 367.814)"/> 
    </g>
  </g>
  <image x="866.333" y="264.848" width="175" height="25" xlink:href="DS_ana.svg">
    <title>10LBG02CP001</title>
    <rt:dyn type="FKKS" mode="constant" value="&quot;10LBG02CP001&quot;"/> 
    <rt:dyn type="X" mode="constant" value="&quot;P&quot;"/> 
    <rt:dyn type="ShowFrame" mode="constant" value="true"/> 
    <rt:dyn type="Color_Readings" mode="constant" value="true"/> 
    <rt:dyn type="ValueToTheRight" mode="constant" value="false"/> 
  </image>
  <image x="1554.76" y="307.576" width="175" height="25" xlink:href="DS_ana.svg">
    <title>10LBG30CT005</title>
    <rt:dyn type="FKKS" mode="constant" value="&quot;10LBG30CT005&quot;"/> 
    <rt:dyn type="X" mode="constant" value="&quot;T&quot;"/> 
    <rt:dyn type="ShowFrame" mode="constant" value="true"/> 
    <rt:dyn type="Color_Readings" mode="constant" value="true"/> 
    <rt:dyn type="ValueToTheRight" mode="constant" value="false"/> 
  </image>
  <line x1="1374.62" y1="281.758" x2="1374.62" y2="421.612" stroke="black" stroke-width="1"/> 
  <line x1="1552" y1="31.0757" x2="1909.46" y2="31.0757" stroke="black" stroke-width="3"/> 
  <image x="867.849" y="295.151" width="175" height="25" xlink:href="DS_ana.svg">
    <title>10LBG03CF001</title>
    <rt:dyn type="FKKS" mode="constant" value="&quot;10LBG03CF001&quot;"/> 
    <rt:dyn type="X" mode="constant" value="&quot;F&quot;"/> 
    <rt:dyn type="ShowFrame" mode="constant" value="true"/> 
    <rt:dyn type="Color_Readings" mode="constant" value="true"/> 
    <rt:dyn type="ValueToTheRight" mode="constant" value="false"/> 
  </image>
  <line x1="862.303" y1="377" x2="1050.43" y2="377" stroke="black" stroke-width="3"/> 
  <text x="919.879" y="416.455" font-size="15">10LBG03<tspan x="919.879" dy="15">AA001</tspan>
  </text>
  <image x="922.045" y="354.334" width="70" height="65" xlink:href="DS_CO_valve.svg" transform="flipX(1.7949e-005) rotate(90 0 0) flipX(-10) rotate(90 0 0) flipX() flipX(-3.61135e-006)">
    <title>10LBG03AA001</title>
    <rt:dyn type="KKS" mode="constant" value="&quot;10LBG03AA001&quot;"/> 
    <rt:dyn type="DATA_NARY" mode="constant" value="&quot;TPTS&quot;"/> 
    <rt:dyn type="Drive" mode="constant" value="&quot;moto&quot;"/> 
    <rt:dyn type="Operate" mode="constant" value="true"/> 
  </image>
  <image x="811.152" y="362.394" width="75" height="25" xlink:href="obj_link.svg">
    <rt:event type="OnClick">LoadNew(&quot;MAC&quot;)</rt:event>
    <rt:dyn type="TextStr" mode="constant" value="&quot;MAC&quot;"/> 
  </image>
  <text x="736.151" y="381.636" font-size="15">III отбор</text>
  <text x="1696.12" y="623.697" font-size="15">10LBG50AA201</text>
  <line x1="1869.85" y1="496.758" x2="1869.85" y2="769.485" stroke="black" stroke-width="3"/> 
  <image x="1825.12" y="587.135" width="70" height="65" xlink:href="DS_Reg_valve.svg" transform="flipY(-10) rotate(270 0 0) flipX(10.0005) rotate(90 0 0) flipY(-10.0001) rotate(270 0 -10)">
    <title>10LBG50AA201</title>
    <rt:dyn type="KKS" mode="constant" value="&quot;10LBG50AA201&quot;"/> 
    <rt:dyn type="DATA_NARY" mode="constant" value="&quot;TPTS&quot;"/> 
    <rt:dyn type="Operate" mode="constant" value="true"/> 
  </image>
  <image x="1794.85" y="556.132" width="65" height="25" xlink:href="DS_Reg_degree.svg">
    <title>10LBG50AA201</title>
    <rt:dyn type="KKS" mode="constant" value="&quot;10LBG50AA201&quot;"/> 
  </image>
  <text x="1416.27" y="623.697" font-size="15">10LBG12AA201</text>
  <image x="1543.09" y="588.649" width="70" height="65" xlink:href="DS_Reg_valve.svg" transform="flipY(-10) rotate(270 0 0) flipX(10.0005) rotate(90 0 0) flipY(-10.0001) rotate(270 0 -10)">
    <title>10LBG12AA201</title>
    <rt:dyn type="KKS" mode="constant" value="&quot;10LBG12AA201&quot;"/> 
    <rt:dyn type="DATA_NARY" mode="constant" value="&quot;TPTS&quot;"/> 
    <rt:dyn type="Operate" mode="constant" value="true"/> 
  </image>
  <image x="1513.82" y="557.646" width="65" height="25" xlink:href="DS_Reg_degree.svg">
    <title>10LBG12AA201</title>
    <rt:dyn type="KKS" mode="constant" value="&quot;10LBG12AA201&quot;"/> 
  </image>
  <text x="1697.7" y="715.152" font-size="15">10LBG50AA001</text>
  <image x="1814.98" y="704.046" width="70" height="65" xlink:href="DS_CO_valve.svg" transform="flipY(-20) flipX(9.99996) rotate(90 0 0) flipX(-3.61135e-006)">
    <title>10LBG50AA001</title>
    <rt:dyn type="KKS" mode="constant" value="&quot;10LBG50AA001&quot;"/> 
    <rt:dyn type="DATA_NARY" mode="constant" value="&quot;TPTS&quot;"/> 
    <rt:dyn type="Drive" mode="constant" value="&quot;moto&quot;"/> 
    <rt:dyn type="Operate" mode="constant" value="true"/> 
  </image>
  <text x="1415.33" y="715.697" font-size="15">10LBG12AA001</text>
  <image x="1532.61" y="704.591" width="70" height="65" xlink:href="DS_CO_valve.svg" transform="flipY(-20) flipX(9.99996) rotate(90 0 0) flipX(-3.61135e-006)">
    <title>10LBG12AA001</title>
    <rt:dyn type="KKS" mode="constant" value="&quot;10LBG12AA001&quot;"/> 
    <rt:dyn type="DATA_NARY" mode="constant" value="&quot;TPTS&quot;"/> 
    <rt:dyn type="Drive" mode="constant" value="&quot;moto&quot;"/> 
    <rt:dyn type="Operate" mode="constant" value="true"/> 
  </image>
  <text x="918.364" y="510.394" font-size="15">10LBG02<tspan x="918.364" dy="15">AA001</tspan>
  </text>
  <image x="835.462" y="508.545" width="70" height="65" xlink:href="DS_CO_valve.svg" transform="flipY(-20) flipX(9.99996) rotate(90 0 0) flipX(-3.61135e-006)">
    <title>10LBG02AA001</title>
    <rt:dyn type="KKS" mode="constant" value="&quot;10LBG02AA001&quot;"/> 
    <rt:dyn type="DATA_NARY" mode="constant" value="&quot;TPTS&quot;"/> 
    <rt:dyn type="Drive" mode="constant" value="&quot;moto&quot;"/> 
    <rt:dyn type="Operate" mode="constant" value="true"/> 
  </image>
  <line x1="819" y1="451.818" x2="819" y2="770.515" stroke="black" stroke-width="1"/> 
  <text x="703.212" y="505.849" font-size="15">10LBG25<tspan x="703.212" dy="15">AA001</tspan>
  </text>
  <image x="763.561" y="508.545" width="70" height="65" xlink:href="DS_CO_valve.svg" transform="flipY(-20) flipX(9.99996) rotate(90 0 0) flipX(-3.61135e-006)">
    <title>10LBG25AA001</title>
    <rt:dyn type="KKS" mode="constant" value="&quot;10LBG25AA001&quot;"/> 
    <rt:dyn type="DATA_NARY" mode="constant" value="&quot;TPTS&quot;"/> 
    <rt:dyn type="Drive" mode="constant" value="&quot;moto&quot;"/> 
    <rt:dyn type="Operate" mode="constant" value="true"/> 
  </image>
  <line x1="733.281" y1="770" x2="734.642" y2="695.394" stroke="black" stroke-width="1"/> 
  <line x1="733.252" y1="690.288" x2="783.252" y2="691.288" stroke="black" stroke-width="1"/> 
  <line x1="782.221" y1="579.182" x2="782.221" y2="691.308" stroke="black" stroke-width="1"/> 
  <g transform="rotate(180 1210.44 541.647)">
    <g transform="rotate(90 1212.44 532.643)">
      <polygon points="1369.75,628.782 1383.13,636.432 1383.13,621.142 1369.75,628.782" fill="black" stroke="black" stroke-width="1" transform="rotate(180 1279.17 367.814)"/> 
    </g>
  </g>
  <image x="710.432" y="647.763" width="57.5" height="75" xlink:href="DS_pulse_valve.svg" transform="flipX(6.24994) flipX(6.24999)">
    <title>10LBG10AA903</title>
    <rt:dyn type="KKS" mode="constant" value="&quot;10LBG10AA903&quot;"/> 
    <rt:dyn type="DATA_NARY" mode="constant" value="&quot;TPTS&quot;"/> 
  </image>
  <text x="737.252" y="739.182" font-size="15">10LBG10<tspan x="737.252" dy="15">AA903</tspan>
  </text>
  <line x1="567.922" y1="770" x2="569.281" y2="695.394" stroke="black" stroke-width="1"/> 
  <line x1="567.892" y1="690.288" x2="617.892" y2="691.288" stroke="black" stroke-width="1"/> 
  <g transform="rotate(180 1210.44 541.647)">
    <g transform="rotate(90 1212.44 532.643)">
      <polygon points="1334.75,793.142 1348.13,800.792 1348.13,785.502 1334.75,793.142" fill="black" stroke="black" stroke-width="1" transform="rotate(180 1279.17 367.814)"/> 
    </g>
  </g>
  <image x="545.071" y="647.763" width="57.5" height="75" xlink:href="DS_pulse_valve.svg" transform="flipX(6.24994) flipX(6.24999)">
    <title>10LBG10AA902</title>
    <rt:dyn type="KKS" mode="constant" value="&quot;10LBG10AA902&quot;"/> 
    <rt:dyn type="DATA_NARY" mode="constant" value="&quot;TPTS&quot;"/> 
  </image>
  <text x="572.892" y="736.152" font-size="15">10LBG10<tspan x="572.892" dy="15">AA902</tspan>
  </text>
  <line x1="403.071" y1="770.151" x2="404.431" y2="695.546" stroke="black" stroke-width="1"/> 
  <line x1="403.041" y1="690.44" x2="453.041" y2="691.44" stroke="black" stroke-width="1"/> 
  <line x1="452.012" y1="579.334" x2="452.012" y2="691.46" stroke="black" stroke-width="1"/> 
  <g transform="rotate(180 1210.44 541.647)">
    <g transform="rotate(90 1212.44 532.643)">
      <polygon points="1369.9,958.99 1383.28,966.64 1383.28,951.35 1369.9,958.99" fill="black" stroke="black" stroke-width="1" transform="rotate(180 1279.17 367.814)"/> 
    </g>
  </g>
  <image x="380.221" y="647.915" width="57.5" height="75" xlink:href="DS_pulse_valve.svg" transform="flipX(6.24994) flipX(6.24999)">
    <title>10LBG10AA901</title>
    <rt:dyn type="KKS" mode="constant" value="&quot;10LBG10AA901&quot;"/> 
    <rt:dyn type="DATA_NARY" mode="constant" value="&quot;TPTS&quot;"/> 
  </image>
  <text x="408.041" y="736.304" font-size="15">10LBG10<tspan x="408.041" dy="15">AA901</tspan>
  </text>
  <image x="305.151" y="616.091" width="175" height="25" xlink:href="DS_ana.svg">
    <title>10LBG10CT002</title>
    <rt:dyn type="FKKS" mode="constant" value="&quot;10LBG10CT002&quot;"/> 
    <rt:dyn type="X" mode="constant" value="&quot;T&quot;"/> 
    <rt:dyn type="ShowFrame" mode="constant" value="true"/> 
    <rt:dyn type="Color_Readings" mode="constant" value="true"/> 
    <rt:dyn type="ValueToTheRight" mode="constant" value="false"/> 
  </image>
  <line x1="618.711" y1="552.97" x2="618.711" y2="692.824" stroke="black" stroke-width="1"/> 
  <text x="219.485" y="745.575" font-size="15">10LBF20<tspan x="219.485" dy="15">AA201</tspan>
  </text>
  <line x1="296.003" y1="604.019" x2="296.003" y2="769.928" stroke="black" stroke-width="3"/> 
  <image x="251.272" y="661.396" width="70" height="65" xlink:href="DS_Reg_valve.svg" transform="flipY(-10) rotate(270 0 0) flipX(10.0005) rotate(90 0 0) flipY(-10.0001) rotate(270 0 -10)">
    <title>10LBF20AA201</title>
    <rt:dyn type="KKS" mode="constant" value="&quot;10LBF20AA201&quot;"/> 
    <rt:dyn type="DATA_NARY" mode="constant" value="&quot;TPTS&quot;"/> 
    <rt:dyn type="Operate" mode="constant" value="true"/> 
  </image>
  <image x="221" y="630.393" width="65" height="25" xlink:href="DS_Reg_degree.svg">
    <title>10LBF20AA201</title>
    <rt:dyn type="KKS" mode="constant" value="&quot;10LBF20AA201&quot;"/> 
  </image>
  <g transform="flipY(125) rotate(180 1210.44 541.647)">
    <g transform="rotate(90 1212.44 532.643)">
      <polygon points="428.903,1115.54 442.283,1123.19 442.283,1107.9 428.903,1115.54" fill="black" stroke="black" stroke-width="1" transform="rotate(180 1279.17 367.814)"/> 
    </g>
  </g>
  <image x="143.864" y="662.621" width="75" height="25" xlink:href="obj_link.svg">
    <rt:event type="OnClick">LoadNew(&quot;LBA&quot;)</rt:event>
    <rt:dyn type="TextStr" mode="constant" value="&quot;LBA&quot;"/> 
  </image>
  <text x="154.849" y="708.075" font-size="15">БРУ-СН</text>
  <text x="18.7576" y="745.605" font-size="15">10LBF10<tspan x="18.7576" dy="15">AA201</tspan>
  </text>
  <line x1="95.2726" y1="604.05" x2="95.2726" y2="769.958" stroke="black" stroke-width="3"/> 
  <image x="50.5446" y="661.426" width="70" height="65" xlink:href="DS_Reg_valve.svg" transform="flipY(-10) rotate(270 0 0) flipX(10.0005) rotate(90 0 0) flipY(-10.0001) rotate(270 0 -10)">
    <title>10LBF10AA201</title>
    <rt:dyn type="KKS" mode="constant" value="&quot;10LBF10AA201&quot;"/> 
    <rt:dyn type="DATA_NARY" mode="constant" value="&quot;TPTS&quot;"/> 
    <rt:dyn type="Operate" mode="constant" value="true"/> 
  </image>
  <image x="20.2726" y="630.423" width="65" height="25" xlink:href="DS_Reg_degree.svg">
    <title>10LBF10AA201</title>
    <rt:dyn type="KKS" mode="constant" value="&quot;10LBF10AA201&quot;"/> 
  </image>
  <g transform="flipY(125) rotate(180 1210.44 541.647)">
    <g transform="rotate(90 1212.44 532.643)">
      <polygon points="428.873,1316.26 442.253,1323.91 442.253,1308.62 428.873,1316.26" fill="black" stroke="black" stroke-width="1" transform="rotate(180 1279.17 367.814)"/> 
    </g>
  </g>
  <line x1="6" y1="451" x2="820.364" y2="451" stroke="black" stroke-width="1"/> 
  <line x1="6.22722" y1="450.182" x2="6.22722" y2="977" stroke="black" stroke-width="1"/> 
  <line x1="587" y1="296.727" x2="587" y2="451.273" stroke="black" stroke-width="1"/> 
  <text x="611.091" y="410.394" font-size="15">10LBG18<tspan x="611.091" dy="15">AA001</tspan>
  </text>
  <image x="530.531" y="407.47" width="70" height="65" xlink:href="DS_CO_valve.svg" transform="flipY(-20) flipX(9.99996) rotate(90 0 0) flipX(-3.61135e-006)">
    <title>10LBG18AA001</title>
    <rt:dyn type="KKS" mode="constant" value="&quot;10LBG18AA001&quot;"/> 
    <rt:dyn type="DATA_NARY" mode="constant" value="&quot;TPTS&quot;"/> 
    <rt:dyn type="Drive" mode="constant" value="&quot;moto&quot;"/> 
    <rt:dyn type="Operate" mode="constant" value="true"/> 
  </image>
  <image x="549.03" y="272.516" width="75" height="25" xlink:href="obj_link.svg" transform="rotate(270 37.3618 12.5)">
    <rt:event type="OnClick">LoadNew(&quot;??&quot;)</rt:event>
    <rt:dyn type="TextStr" mode="constant" value="&quot;&quot;"/> 
  </image>
  <text x="565.091" y="242.576" font-size="15">БЗОК</text>
  <line x1="414" y1="304.333" x2="414" y2="451.819" stroke="black" stroke-width="1"/> 
  <text x="297.151" y="401.305" font-size="15">10LBG16<tspan x="297.151" dy="15">AA001</tspan>
  </text>
  <image x="358.5" y="408.016" width="70" height="65" xlink:href="DS_CO_valve.svg" transform="flipY(-20) flipX(9.99996) rotate(90 0 0) flipX(-3.61135e-006)">
    <title>10LBG16AA001</title>
    <rt:dyn type="KKS" mode="constant" value="&quot;10LBG16AA001&quot;"/> 
    <rt:dyn type="DATA_NARY" mode="constant" value="&quot;TPTS&quot;"/> 
    <rt:dyn type="Drive" mode="constant" value="&quot;moto&quot;"/> 
    <rt:dyn type="Operate" mode="constant" value="true"/> 
  </image>
  <text x="327.455" y="242.576" font-size="15">К потребителям 10UKC</text>
  <text x="119.879" y="490.485" font-size="15">10LBG26<tspan x="119.879" dy="15">AA001</tspan>
  </text>
  <image x="122.045" y="428.364" width="70" height="65" xlink:href="DS_CO_valve.svg" transform="flipX(-4.35299e-005) flipX(1.7949e-005) rotate(90 0 0) flipX(-10) rotate(90 0 0) flipX() flipX(-3.61135e-006)">
    <title>10LBG26AA001</title>
    <rt:dyn type="KKS" mode="constant" value="&quot;10LBG26AA001&quot;"/> 
    <rt:dyn type="DATA_NARY" mode="constant" value="&quot;TPTS&quot;"/> 
    <rt:dyn type="Drive" mode="constant" value="&quot;moto&quot;"/> 
    <rt:dyn type="Operate" mode="constant" value="true"/> 
  </image>
  <line x1="1602.91" y1="830" x2="1748.96" y2="830" stroke="black" stroke-width="1"/> 
  <text x="1790.55" y="929.758" font-size="15">10LBG21<tspan x="1790.55" dy="15">AA004</tspan>
  </text>
  <image x="1641.61" y="806.757" width="70" height="65" xlink:href="DS_CO_valve.svg" transform="flipX(1.7949e-005) rotate(90 0 0) flipX(-10) rotate(90 0 0) flipX() flipX(-3.61135e-006)">
    <title>10LBG21AA001</title>
    <rt:dyn type="KKS" mode="constant" value="&quot;10LBG21AA001&quot;"/> 
    <rt:dyn type="DATA_NARY" mode="constant" value="&quot;TPTS&quot;"/> 
    <rt:dyn type="Drive" mode="constant" value="&quot;moto&quot;"/> 
    <rt:dyn type="Operate" mode="constant" value="true"/> 
  </image>
  <line x1="1604.5" y1="830" x2="1604.5" y2="893" stroke="black" stroke-width="1"/> 
  <line x1="1747.8" y1="830" x2="1747.8" y2="893.94" stroke="black" stroke-width="1"/> 
  <line x1="1870" y1="769.788" x2="1870" y2="953" stroke="black" stroke-width="1"/> 
  <image x="250.939" y="776.818" width="175" height="25" xlink:href="DS_ana.svg">
    <title>10LBG10CP001</title>
    <rt:dyn type="FKKS" mode="constant" value="&quot;10LBG10CP001&quot;"/> 
    <rt:dyn type="X" mode="constant" value="&quot;P&quot;"/> 
    <rt:dyn type="ShowFrame" mode="constant" value="true"/> 
    <rt:dyn type="Color_Readings" mode="constant" value="true"/> 
    <rt:dyn type="ValueToTheRight" mode="constant" value="false"/> 
  </image>
  <image x="446.909" y="776.818" width="175" height="25" xlink:href="DS_ana.svg">
    <title>10LBG10CT001</title>
    <rt:dyn type="FKKS" mode="constant" value="&quot;10LBG10CT001&quot;"/> 
    <rt:dyn type="X" mode="constant" value="&quot;T&quot;"/> 
    <rt:dyn type="ShowFrame" mode="constant" value="true"/> 
    <rt:dyn type="Color_Readings" mode="constant" value="true"/> 
    <rt:dyn type="ValueToTheRight" mode="constant" value="false"/> 
  </image>
  <line x1="1587" y1="778.273" x2="1587" y2="893" stroke="black" stroke-width="1"/> 
  <line x1="1052.91" y1="892.379" x2="1867.27" y2="892.379" stroke="black" stroke-width="1"/> 
  <image x="1786" y="870.667" width="70" height="65" xlink:href="DS_CO_valve.svg" transform="flipX(-4.35299e-005) flipX(1.7949e-005) rotate(90 0 0) flipX(-10) rotate(90 0 0) flipX() flipX(-3.61135e-006)">
    <title>10LBG21AA004</title>
    <rt:dyn type="KKS" mode="constant" value="&quot;10LBG21AA004&quot;"/> 
    <rt:dyn type="DATA_NARY" mode="constant" value="&quot;TPTS&quot;"/> 
    <rt:dyn type="Drive" mode="constant" value="&quot;moto&quot;"/> 
    <rt:dyn type="Operate" mode="constant" value="true"/> 
  </image>
  <image x="1641.61" y="870.666" width="70" height="65" xlink:href="DS_CO_valve.svg" transform="flipX(1.7949e-005) rotate(90 0 0) flipX(-10) rotate(90 0 0) flipX() flipX(-3.61135e-006)">
    <title>10LBG21AA002</title>
    <rt:dyn type="KKS" mode="constant" value="&quot;10LBG21AA002&quot;"/> 
    <rt:dyn type="DATA_NARY" mode="constant" value="&quot;TPTS&quot;"/> 
    <rt:dyn type="Drive" mode="constant" value="&quot;moto&quot;"/> 
    <rt:dyn type="Operate" mode="constant" value="true"/> 
  </image>
  <text x="1645.15" y="931.273" font-size="15">10LBG21<tspan x="1645.15" dy="15">AA002</tspan>
  </text>
  <text x="1608.06" y="785.818" font-size="15">10LBG21AA001</text>
  <line x1="1570.52" y1="853" x2="1570.52" y2="893.062" stroke="black" stroke-width="1"/> 
  <line x1="1183.52" y1="854" x2="1570.75" y2="854" stroke="black" stroke-width="1"/> 
  <image x="1464.33" y="831.879" width="70" height="65" xlink:href="DS_CO_valve.svg" transform="flipX(1.7949e-005) rotate(90 0 0) flipX(-10) rotate(90 0 0) flipX() flipX(-3.61135e-006)">
    <title>10LBG23AA001</title>
    <rt:dyn type="KKS" mode="constant" value="&quot;10LBG23AA001&quot;"/> 
    <rt:dyn type="DATA_NARY" mode="constant" value="&quot;TPTS&quot;"/> 
    <rt:dyn type="Drive" mode="constant" value="&quot;moto&quot;"/> 
    <rt:dyn type="Operate" mode="constant" value="true"/> 
  </image>
  <text x="1471.39" y="793.424" font-size="15">10LBG23<tspan x="1471.39" dy="15">AA001</tspan>
  </text>
  <line x1="1380.48" y1="952" x2="1869.09" y2="952" stroke="black" stroke-width="1"/> 
  <image x="1465.84" y="929.606" width="70" height="65" xlink:href="DS_CO_valve.svg" transform="flipX(1.7949e-005) rotate(90 0 0) flipX(-10) rotate(90 0 0) flipX() flipX(-3.61135e-006)">
    <title>10LBG13AA001</title>
    <rt:dyn type="KKS" mode="constant" value="&quot;10LBG13AA001&quot;"/> 
    <rt:dyn type="DATA_NARY" mode="constant" value="&quot;TPTS&quot;"/> 
    <rt:dyn type="Drive" mode="constant" value="&quot;moto&quot;"/> 
    <rt:dyn type="Operate" mode="constant" value="true"/> 
  </image>
  <text x="1441.09" y="909.091" font-size="15">10LBG13AA001</text>
  <line x1="6" y1="976.864" x2="1713.3" y2="976.864" stroke="black" stroke-width="1"/> 
  <line x1="1380.97" y1="951.03" x2="1380.97" y2="978.303" stroke="black" stroke-width="1"/> 
  <image x="1281.36" y="954.454" width="70" height="65" xlink:href="DS_CO_valve.svg" transform="flipX(1.7949e-005) rotate(90 0 0) flipX(-10) rotate(90 0 0) flipX() flipX(-3.61135e-006)">
    <title>10LBG27AA001</title>
    <rt:dyn type="KKS" mode="constant" value="&quot;10LBG27AA001&quot;"/> 
    <rt:dyn type="DATA_NARY" mode="constant" value="&quot;TPTS&quot;"/> 
    <rt:dyn type="Drive" mode="constant" value="&quot;moto&quot;"/> 
    <rt:dyn type="Operate" mode="constant" value="true"/> 
  </image>
  <text x="1286.33" y="916.667" font-size="15">10LBG27<tspan x="1286.33" dy="15">AA001</tspan>
  </text>
  <g transform="rotate(270 1629.73 978.788) flipY(125) rotate(180 1210.44 541.647)">
    <g transform="rotate(90 1212.44 532.643)">
      <polygon points="-17.8237,-220.588 -4.44366,-212.938 -4.44366,-228.228 -17.8237,-220.588" fill="black" stroke="black" stroke-width="1" transform="rotate(180 1279.17 367.814)"/> 
    </g>
  </g>
  <text x="1730.76" y="974.242" font-size="15">00UYB<tspan x="1730.76" dy="15">00UKU</tspan>
  </text>
  <line x1="1213.45" y1="892" x2="1213.45" y2="976.242" stroke="black" stroke-width="1"/> 
  <text x="1095" y="937.879" font-size="15">10LBG24<tspan x="1095" dy="15">AA001</tspan>
  </text>
  <image x="1159.52" y="932.47" width="70" height="65" xlink:href="DS_CO_valve.svg" transform="flipY(-20) flipX(9.99996) rotate(90 0 0) flipX(-3.61135e-006)">
    <title>10LBG24AA001</title>
    <rt:dyn type="KKS" mode="constant" value="&quot;10LBG24AA001&quot;"/> 
    <rt:dyn type="DATA_NARY" mode="constant" value="&quot;TPTS&quot;"/> 
    <rt:dyn type="Drive" mode="constant" value="&quot;moto&quot;"/> 
    <rt:dyn type="Operate" mode="constant" value="true"/> 
  </image>
  <image x="639.152" y="929.03" width="70" height="65" xlink:href="DS_CO_valve.svg" transform="flipX(1.7949e-005) rotate(90 0 0) flipX(-10) rotate(90 0 0) flipX() flipX(-3.61135e-006)">
    <title>10LBG21AA003</title>
    <rt:dyn type="KKS" mode="constant" value="&quot;10LBG21AA003&quot;"/> 
    <rt:dyn type="DATA_NARY" mode="constant" value="&quot;TPTS&quot;"/> 
    <rt:dyn type="Drive" mode="constant" value="&quot;moto&quot;"/> 
    <rt:dyn type="Operate" mode="constant" value="true"/> 
  </image>
  <text x="644.122" y="891.243" font-size="15">10LBG21<tspan x="644.122" dy="15">AA003</tspan>
  </text>
  <line x1="509.273" y1="851" x2="1053.88" y2="851" stroke="black" stroke-width="1"/> 
  <image x="952.515" y="828.727" width="70" height="65" xlink:href="DS_CO_valve.svg" transform="flipX(1.7949e-005) rotate(90 0 0) flipX(-10) rotate(90 0 0) flipX() flipX(-3.61135e-006)">
    <title>10LBG22AA001</title>
    <rt:dyn type="KKS" mode="constant" value="&quot;10LBG22AA001&quot;"/> 
    <rt:dyn type="DATA_NARY" mode="constant" value="&quot;TPTS&quot;"/> 
    <rt:dyn type="Drive" mode="constant" value="&quot;moto&quot;"/> 
    <rt:dyn type="Operate" mode="constant" value="true"/> 
  </image>
  <text x="957.485" y="793.939" font-size="15">10LBG22<tspan x="957.485" dy="15">AA001</tspan>
  </text>
  <line x1="1054" y1="851" x2="1054" y2="952" stroke="black" stroke-width="1"/> 
  <image x="842.606" y="921.697" width="175" height="25" xlink:href="DS_ana.svg">
    <title>10LBG21CP001</title>
    <rt:dyn type="FKKS" mode="constant" value="&quot;10LBG21CP001&quot;"/> 
    <rt:dyn type="X" mode="constant" value="&quot;P&quot;"/> 
    <rt:dyn type="ShowFrame" mode="constant" value="true"/> 
    <rt:dyn type="Color_Readings" mode="constant" value="true"/> 
    <rt:dyn type="ValueToTheRight" mode="constant" value="false"/> 
  </image>
  <image x="738.576" y="821.666" width="175" height="25" xlink:href="DS_ana.svg">
    <title>10LBG22CP001</title>
    <rt:dyn type="FKKS" mode="constant" value="&quot;10LBG22CP001&quot;"/> 
    <rt:dyn type="X" mode="constant" value="&quot;P&quot;"/> 
    <rt:dyn type="ShowFrame" mode="constant" value="true"/> 
    <rt:dyn type="Color_Readings" mode="constant" value="true"/> 
    <rt:dyn type="ValueToTheRight" mode="constant" value="false"/> 
  </image>
  <image x="738.576" y="854.576" width="175" height="25" xlink:href="DS_ana.svg">
    <title>10LBG22CT001</title>
    <rt:dyn type="FKKS" mode="constant" value="&quot;10LBG22CT001&quot;"/> 
    <rt:dyn type="X" mode="constant" value="&quot;T&quot;"/> 
    <rt:dyn type="ShowFrame" mode="constant" value="true"/> 
    <rt:dyn type="Color_Readings" mode="constant" value="true"/> 
    <rt:dyn type="ValueToTheRight" mode="constant" value="false"/> 
  </image>
  <line x1="1386.81" y1="771.212" x2="1386.81" y2="855.454" stroke="black" stroke-width="1"/> 
  <text x="1268.36" y="817.091" font-size="15">10LBG11<tspan x="1268.36" dy="15">AA001</tspan>
  </text>
  <image x="1332.88" y="811.682" width="70" height="65" xlink:href="DS_CO_valve.svg" transform="flipY(-20) flipX(9.99996) rotate(90 0 0) flipX(-3.61135e-006)">
    <title>10LBG11AA001</title>
    <rt:dyn type="KKS" mode="constant" value="&quot;10LBG11AA001&quot;"/> 
    <rt:dyn type="DATA_NARY" mode="constant" value="&quot;TPTS&quot;"/> 
    <rt:dyn type="Drive" mode="constant" value="&quot;moto&quot;"/> 
    <rt:dyn type="Operate" mode="constant" value="true"/> 
  </image>
  <image x="1172.91" y="840.909" width="75" height="25" xlink:href="obj_link.svg" transform="flipX(37.5)">
    <rt:event type="OnClick">LoadNew(&quot;LBW&quot;)</rt:event>
    <rt:dyn type="TextStr" mode="constant" value="&quot;LBW&quot;"/> 
  </image>
  <g transform="rotate(270 1629.73 978.788) flipY(125) rotate(180 1210.44 541.647)">
    <g transform="rotate(90 1212.44 532.643)">
      <polygon points="1173.09,-346.86 1186.47,-339.21 1186.47,-354.5 1173.09,-346.86" fill="black" stroke="black" stroke-width="1" transform="rotate(180 1279.17 367.814)"/> 
    </g>
  </g>
  <g transform="rotate(270 1629.73 978.788) flipY(125) rotate(180 1210.44 541.647)">
    <g transform="rotate(90 1212.44 532.643)">
      <polygon points="1173.08,-246.86 1186.47,-239.21 1186.47,-254.5 1173.08,-246.86" fill="black" stroke="black" stroke-width="1" transform="rotate(180 1279.17 367.814)"/> 
    </g>
  </g>
  <text x="427.455" y="853.031" font-size="15" text-anchor="middle">Общестанционный<tspan x="427.455" dy="15">коллектор</tspan>
  </text>
  <text x="472.455" y="952.485" font-size="15" text-anchor="middle">Блок 2</text>
  <path d="M1845.08 767.876 A8.80483 8.80483 0 1 1 1845.08 785.486 " fill="none" stroke="black" stroke-width="1" transform="rotate(90 1749.64 704.67) rotate(90 565.703 525.453) flipX(919.775) rotate(90 1.4013e-045 1.4013e-045) flipY(571.298) rotate(90 1.4013e-045 1.4013e-045) flipY(166.195) flipY() translate(0 -828) translate(229.642 442.62)"/> 
  <image x="376" y="272.516" width="75" height="25" xlink:href="obj_link.svg" transform="rotate(270 37.3618 12.5)">
    <rt:event type="OnClick">LoadNew(&quot;lbg10&quot;)</rt:event>
    <rt:dyn type="TextStr" mode="constant" value="&quot;&quot;"/> 
  </image>
  <text x="351" y="292" font-size="15">LBG10</text>
  <image x="1223.91" y="307.727" width="175" height="25" xlink:href="DS_ana.svg">
    <title>10LBG30CT003</title>
    <rt:dyn type="FKKS" mode="constant" value="&quot;10LBG30CT003&quot;"/> 
    <rt:dyn type="X" mode="constant" value="&quot;T&quot;"/> 
    <rt:dyn type="ShowFrame" mode="constant" value="true"/> 
    <rt:dyn type="Color_Readings" mode="constant" value="true"/> 
    <rt:dyn type="ValueToTheRight" mode="constant" value="false"/> 
  </image>
  <image x="1390.73" y="344.727" width="175" height="25" xlink:href="DS_ana.svg">
    <title>10LBG30CT004</title>
    <rt:dyn type="FKKS" mode="constant" value="&quot;10LBG30CT004&quot;"/> 
    <rt:dyn type="X" mode="constant" value="&quot;T&quot;"/> 
    <rt:dyn type="ShowFrame" mode="constant" value="true"/> 
    <rt:dyn type="Color_Readings" mode="constant" value="true"/> 
    <rt:dyn type="ValueToTheRight" mode="constant" value="false"/> 
  </image>
  <image x="634.822" y="615.939" width="175" height="25" xlink:href="DS_ana.svg">
    <title>10LBG10CT004</title>
    <rt:dyn type="FKKS" mode="constant" value="&quot;10LBG10CT004&quot;"/> 
    <rt:dyn type="X" mode="constant" value="&quot;T&quot;"/> 
    <rt:dyn type="ShowFrame" mode="constant" value="true"/> 
    <rt:dyn type="Color_Readings" mode="constant" value="true"/> 
    <rt:dyn type="ValueToTheRight" mode="constant" value="false"/> 
  </image>
  <image x="468.002" y="578.939" width="175" height="25" xlink:href="DS_ana.svg">
    <title>10LBG10CT003</title>
    <rt:dyn type="FKKS" mode="constant" value="&quot;10LBG10CT003&quot;"/> 
    <rt:dyn type="X" mode="constant" value="&quot;T&quot;"/> 
    <rt:dyn type="ShowFrame" mode="constant" value="true"/> 
    <rt:dyn type="Color_Readings" mode="constant" value="true"/> 
    <rt:dyn type="ValueToTheRight" mode="constant" value="false"/> 
  </image>
  <image x="1721.58" y="344.576" width="175" height="25" xlink:href="DS_ana.svg">
    <title>10LBG30CT006</title>
    <rt:dyn type="FKKS" mode="constant" value="&quot;10LBG30CT006&quot;"/> 
    <rt:dyn type="X" mode="constant" value="&quot;T&quot;"/> 
    <rt:dyn type="ShowFrame" mode="constant" value="true"/> 
    <rt:dyn type="Color_Readings" mode="constant" value="true"/> 
    <rt:dyn type="ValueToTheRight" mode="constant" value="false"/> 
  </image>
  <image x="1697.39" y="155.848" width="175" height="25" xlink:href="DS_ana.svg">
    <title>10LCA20CP006</title>
    <rt:dyn type="X" mode="constant" value="&quot;P &quot;"/> 
    <rt:dyn type="ShowFrame" mode="constant" value="true"/> 
    <rt:dyn type="FKKS" mode="constant" value="&quot;10LCA20CP006&quot;"/> 
    <rt:dyn type="Color_Readings" mode="constant" value="true"/> 
    <rt:dyn type="ValueToTheRight" mode="constant" value="false"/> 
  </image>
  <image x="1697.39" y="186.151" width="175" height="25" xlink:href="DS_ana.svg">
    <title>10LCA20CT006</title>
    <rt:dyn type="X" mode="constant" value="&quot;T &quot;"/> 
    <rt:dyn type="ShowFrame" mode="constant" value="true"/> 
    <rt:dyn type="FKKS" mode="constant" value="&quot;10LCA20CT006&quot;"/> 
    <rt:dyn type="Color_Readings" mode="constant" value="true"/> 
    <rt:dyn type="ValueToTheRight" mode="constant" value="false"/> 
  </image>
  <image x="1697.39" y="216.97" width="175" height="25" xlink:href="DS_ana.svg">
    <title>10LCA70CF001</title>
    <rt:dyn type="X" mode="constant" value="&quot;F &quot;"/> 
    <rt:dyn type="ShowFrame" mode="constant" value="true"/> 
    <rt:dyn type="FKKS" mode="constant" value="&quot;10LCA70CF001&quot;"/> 
    <rt:dyn type="Color_Readings" mode="constant" value="true"/> 
    <rt:dyn type="ValueToTheRight" mode="constant" value="false"/> 
  </image>
  <path d="M863.222 -1508.39 A8.80483 8.80483 0 1 1 863.222 -1490.78 " fill="none" stroke="black" stroke-width="3" transform="flipY(571.298) rotate(90 1.4013e-045 1.4013e-045) flipY(166.195) flipY() translate(0 -828) translate(229.642 442.62)"/> 
  <path d="M863.222 -1342.12 A8.80483 8.80483 0 1 1 863.222 -1324.51 " fill="none" stroke="black" stroke-width="3" transform="flipY(571.298) rotate(90 1.4013e-045 1.4013e-045) flipY(166.195) flipY() translate(0 -828) translate(229.642 442.62)"/> 
  <line x1="1343" y1="49" x2="1379" y2="49" stroke="black" stroke-width="3"/> 
  <line x1="1395" y1="49" x2="1545" y2="49" stroke="black" stroke-width="3"/> 
  <line x1="1560" y1="49" x2="1783" y2="49" stroke="black" stroke-width="3"/> 
  <line x1="1499.58" y1="299.42" x2="1534.08" y2="299.42" stroke="black" stroke-width="3" transform="rotate(270 1532.58 50.5)"/> 
  <image x="1743.64" y="80.303" width="75" height="25" xlink:href="obj_link.svg" transform="flipY(12.6383) flipY(12.6382) rotate(270 37.3618 12.5)">
    <rt:event type="OnClick">LoadNew(&quot;lca20&quot;)</rt:event>
    <rt:dyn type="TextStr" mode="constant" value="&quot;&quot;"/> 
  </image>
  <text x="1757.76" y="148.455" font-size="15">LCA20</text>
  <image x="328.606" y="333.333" width="175" height="25" xlink:href="DS_ana.svg">
    <title>10LBG16CF001</title>
    <rt:dyn type="FKKS" mode="constant" value="&quot;10LBG16CF001&quot;"/> 
    <rt:dyn type="X" mode="constant" value="&quot;F&quot;"/> 
    <rt:dyn type="ShowFrame" mode="constant" value="true"/> 
    <rt:dyn type="Color_Readings" mode="constant" value="true"/> 
    <rt:dyn type="ValueToTheRight" mode="constant" value="false"/> 
  </image>
  <image x="1076.94" y="503.697" width="175" height="25" xlink:href="DS_ana.svg">
    <title>10LBG30CP001</title>
    <rt:dyn type="FKKS" mode="constant" value="&quot;10LBG30CP001&quot;"/> 
    <rt:dyn type="X" mode="constant" value="&quot;P&quot;"/> 
    <rt:dyn type="ShowFrame" mode="constant" value="true"/> 
    <rt:dyn type="Color_Readings" mode="constant" value="true"/> 
    <rt:dyn type="ValueToTheRight" mode="constant" value="false"/> 
  </image>
  <image x="1262.3" y="503.697" width="175" height="25" xlink:href="DS_ana.svg">
    <title>10LBG30CT001</title>
    <rt:dyn type="FKKS" mode="constant" value="&quot;10LBG30CT001&quot;"/> 
    <rt:dyn type="X" mode="constant" value="&quot;T&quot;"/> 
    <rt:dyn type="ShowFrame" mode="constant" value="true"/> 
    <rt:dyn type="Color_Readings" mode="constant" value="true"/> 
    <rt:dyn type="ValueToTheRight" mode="constant" value="false"/> 
  </image>
  <image x="1518.36" y="519.637" width="175" height="25" xlink:href="DS_ana.svg">
    <title>10LBG12CP001</title>
    <rt:dyn type="FKKS" mode="constant" value="&quot;10LBG12CP001&quot;"/> 
    <rt:dyn type="X" mode="constant" value="&quot;P&quot;"/> 
    <rt:dyn type="ShowFrame" mode="constant" value="true"/> 
    <rt:dyn type="Color_Readings" mode="constant" value="true"/> 
    <rt:dyn type="ValueToTheRight" mode="constant" value="false"/> 
  </image>
  <path d="M1302 96.5 L1302.05 96.4134 A0.1 0.1 0 1 0 1302.09 96.45 Z"/> 
</svg>
