<?xml  version="1.0" encoding="windows-1251"?>
<svg color="Col_BGSand" xmlns="http://www.w3.org/2000/svg" xmlns:rt="http://www.rts.co.at/2001/XMLSchema/RtSvgPL" xmlns:xlink="http://www.w3.org/1999/xlink" xmlns:xsi="http://www.w3.org/2001/XMLSchema-instance" xsi:schemaLocation="http://www.w3.org/2000/svg C:\RTS\RtSvg\XML\SVG.xsd" viewBox="0 0 1915 1000" width="1915" height="1000" id="lcn">
  <rt:model modelversion="7.2.0.23" comment="Создано Zagrebaylova S.V. 19.06.2013 9:59:16"/> 
  <line x1="940.682" y1="164.727" x2="940" y2="249.576" stroke="black" stroke-width="3"/> 
  <line x1="171.197" y1="375" x2="822.5" y2="375" stroke="black" stroke-width="3"/> 
  <line x1="222" y1="325" x2="822" y2="325" stroke="black" stroke-width="3"/> 
  <line x1="271.167" y1="275" x2="822" y2="275" stroke="black" stroke-width="3"/> 
  <line x1="245.833" y1="700" x2="950" y2="700" stroke="black" stroke-width="3"/> 
  <line x1="1100.83" y1="725" x2="1400" y2="725" stroke="black" stroke-width="3"/> 
  <g transform="scale(1.4361 0.9561 353.25 441.465) rotate(90 353.25 441.465)">
    <ellipse cx="498.622" cy="30.7925" rx="40" ry="86.5" fill="gray"/> 
    <ellipse cx="148.622" cy="31.2925" rx="40" ry="86.5" fill="gray"/> 
    <rect x="148.622" y="-56.2075" width="350" height="174" rx="0" ry="0" fill="gray"/> 
    <rect x="425.622" y="-107.207" width="0.1" height="0" rx="0" ry="0"/> 
  </g>
  <line x1="949" y1="616.667" x2="949" y2="875" stroke="black" stroke-width="3"/> 
  <line x1="249.167" y1="875" x2="1625" y2="875" stroke="black" stroke-width="3"/> 
  <image x="172.5" y="860" width="75" height="25" xlink:href="obj_link.svg" transform="flipX(37.5)">
    <rt:dyn type="TextStr" mode="constant" value="&quot;MAG&quot;"/> 
    <rt:event type="OnClick">LoadNew(&quot;mag&quot;)</rt:event>
  </image>
  <image x="1292.5" y="832.792" width="70" height="65" xlink:href="DS_Reg_valve.svg" transform="flipX(-4.07696e-005)">
    <title>10LСN20AA201</title>
    <rt:dyn type="KKS" mode="constant" value="&quot;10LCN20AA201&quot;"/> 
    <rt:dyn type="DATA_NARY" mode="constant" value="&quot;TPTS&quot;"/> 
    <rt:dyn type="Operate" mode="constant" value="true"/> 
  </image>
  <image x="1295" y="797.5" width="65" height="25" xlink:href="DS_TPTS_Reg_degree.svg">
    <title>10LСN20AA201</title>
    <rt:dyn type="KKS" mode="constant" value="&quot;10LCN20AA201&quot;"/> 
  </image>
  <text x="1267.5" y="919.833" font-size="15" font-style="normal">10LСN20AA201</text>
  <image x="1148.83" y="832.792" width="70" height="65" xlink:href="DS_CO_valve.svg" transform="flipX(-3.02429e-005)">
    <title>10LСN20AA001</title>
    <rt:dyn type="KKS" mode="constant" value="&quot;10LCN20AA001&quot;"/> 
    <rt:dyn type="DATA_NARY" mode="constant" value="&quot;TPTS&quot;"/> 
    <rt:dyn type="Operate" mode="constant" value="true"/> 
  </image>
  <text x="1123.83" y="919.833" font-size="15" font-style="normal">10LСN20AA001</text>
  <line x1="1101" y1="724" x2="1101" y2="874" stroke="black" stroke-width="3"/> 
  <line x1="1399" y1="725" x2="1399" y2="875" stroke="black" stroke-width="3"/> 
  <image x="1292.5" y="682.333" width="70" height="65" xlink:href="DS_Reg_valve.svg" transform="flipX(-4.07696e-005)">
    <title>10LСN20AA202</title>
    <rt:dyn type="KKS" mode="constant" value="&quot;10LCN20AA202&quot;"/> 
    <rt:dyn type="DATA_NARY" mode="constant" value="&quot;TPTS&quot;"/> 
    <rt:dyn type="Operate" mode="constant" value="true"/> 
  </image>
  <image x="1295" y="646.5" width="65" height="25" xlink:href="DS_TPTS_Reg_degree.svg">
    <title>10LСN20AA202</title>
    <rt:dyn type="KKS" mode="constant" value="&quot;10LCN20AA202&quot;"/> 
  </image>
  <text x="1267.5" y="769.104" font-size="15" font-style="normal">10LСN20AA202</text>
  <image x="1148.83" y="682.333" width="70" height="65" xlink:href="DS_CO_valve.svg" transform="flipX(-3.02429e-005)">
    <title>10LСN20AA002</title>
    <rt:dyn type="KKS" mode="constant" value="&quot;10LCN20AA002&quot;"/> 
    <rt:dyn type="DATA_NARY" mode="constant" value="&quot;TPTS&quot;"/> 
    <rt:dyn type="Operate" mode="constant" value="true"/> 
  </image>
  <text x="1123.83" y="769.104" font-size="15" font-style="normal">10LСN20AA002</text>
  <image x="737.39" y="833.333" width="70" height="65" xlink:href="DS_CO_valve.svg" transform="flipX(-3.02429e-005)">
    <title>10LСN50AA001</title>
    <rt:dyn type="KKS" mode="constant" value="&quot;10LCN50AA001&quot;"/> 
    <rt:dyn type="DATA_NARY" mode="constant" value="&quot;TPTS&quot;"/> 
    <rt:dyn type="Operate" mode="constant" value="true"/> 
  </image>
  <text x="712.39" y="920.104" font-size="15" font-style="normal">10LСN50AA001</text>
  <image x="394.083" y="832.667" width="70" height="65" xlink:href="DS_Reg_valve.svg" transform="flipX(-4.07696e-005)">
    <title>10LСN50AA201</title>
    <rt:dyn type="KKS" mode="constant" value="&quot;10LCN50AA201&quot;"/> 
    <rt:dyn type="DATA_NARY" mode="constant" value="&quot;TPTS&quot;"/> 
    <rt:dyn type="Operate" mode="constant" value="true"/> 
  </image>
  <image x="396.583" y="797.5" width="65" height="25" xlink:href="DS_TPTS_Reg_degree.svg">
    <title>10LСN50AA201</title>
    <rt:dyn type="KKS" mode="constant" value="&quot;10LCN50AA201&quot;"/> 
  </image>
  <text x="369.083" y="920.104" font-size="15" font-style="normal">10LСN50AA201</text>
  <image x="737.39" y="656.999" width="70" height="65" xlink:href="DS_CO_valve.svg" transform="flipX(-3.02429e-005)">
    <title>10LСN40AA001</title>
    <rt:dyn type="KKS" mode="constant" value="&quot;10LCN40AA001&quot;"/> 
    <rt:dyn type="DATA_NARY" mode="constant" value="&quot;TPTS&quot;"/> 
    <rt:dyn type="Operate" mode="constant" value="true"/> 
  </image>
  <text x="712.39" y="745.937" font-size="15" font-style="normal">10LСN40AA001</text>
  <image x="394.083" y="658.333" width="70" height="65" xlink:href="DS_Reg_valve.svg" transform="flipX(-4.07696e-005)">
    <title>10LСN40AA201</title>
    <rt:dyn type="KKS" mode="constant" value="&quot;10LCN40AA201&quot;"/> 
    <rt:dyn type="DATA_NARY" mode="constant" value="&quot;TPTS&quot;"/> 
    <rt:dyn type="Operate" mode="constant" value="true"/> 
  </image>
  <image x="396.583" y="622.5" width="65" height="25" xlink:href="DS_TPTS_Reg_degree.svg">
    <title>10LСN40AA201</title>
    <rt:dyn type="KKS" mode="constant" value="&quot;10LCN40AA201&quot;"/> 
  </image>
  <image x="172.724" y="685.666" width="75" height="25" xlink:href="obj_link.svg" transform="flipX(37.5)">
    <rt:dyn type="TextStr" mode="constant" value="&quot;LAA&quot;"/> 
    <rt:event type="OnClick">LoadNew(&quot;laa&quot;)</rt:event>
  </image>
  <text x="369.083" y="745.937" font-size="15" font-style="normal">10LСN40AA201</text>
  <line x1="249.167" y1="525" x2="600" y2="525" stroke="black" stroke-width="3"/> 
  <image x="175" y="508.333" width="75" height="25" xlink:href="obj_link.svg" transform="flipX(37.5)">
    <rt:dyn type="TextStr" mode="constant" value="&quot;LAC00&quot;"/> 
    <rt:event type="OnClick">LoadNew(&quot;lac00&quot;)</rt:event>
  </image>
  <image x="394.083" y="482.667" width="70" height="65" xlink:href="DS_CO_valve.svg" transform="flipX(-3.02429e-005)">
    <title>10LСN41AA001</title>
    <rt:dyn type="KKS" mode="constant" value="&quot;10LCN41AA001&quot;"/> 
    <rt:dyn type="DATA_NARY" mode="constant" value="&quot;TPTS&quot;"/> 
    <rt:dyn type="Operate" mode="constant" value="true"/> 
  </image>
  <text x="369.083" y="568.542" font-size="15" font-style="normal">10LСN41AA001</text>
  <line x1="599" y1="525" x2="599" y2="700" stroke="black" stroke-width="3"/> 
  <image x="1163.83" y="467.667" width="175" height="25" xlink:href="DS_ana.svg">
    <title>10LCN01CL001A</title>
    <rt:dyn type="FKKS" mode="constant" value="&quot;10LCN01CL001A&quot;"/> 
    <rt:dyn type="Color_Readings" mode="constant" value="true"/> 
    <rt:dyn type="ShowFrame" mode="constant" value="true"/> 
    <rt:dyn type="ValueToTheRight" mode="constant" value="false"/> 
  </image>
  <image x="1163.83" y="514.667" width="175" height="25" xlink:href="DS_ana.svg">
    <title>10LCN01CL001B</title>
    <rt:dyn type="FKKS" mode="constant" value="&quot;10LCN01CL001B&quot;"/> 
    <rt:dyn type="Color_Readings" mode="constant" value="true"/> 
    <rt:dyn type="ShowFrame" mode="constant" value="true"/> 
    <rt:dyn type="ValueToTheRight" mode="constant" value="false"/> 
  </image>
  <image x="1163.5" y="564.667" width="175" height="25" xlink:href="DS_ana.svg">
    <title>10LCN01CL001C</title>
    <rt:dyn type="FKKS" mode="constant" value="&quot;10LCN01CL001C&quot;"/> 
    <rt:dyn type="Color_Readings" mode="constant" value="true"/> 
    <rt:dyn type="ShowFrame" mode="constant" value="true"/> 
    <rt:dyn type="ValueToTheRight" mode="constant" value="false"/> 
  </image>
  <line x1="1068.5" y1="526.667" x2="1165.08" y2="526.667" stroke="black" stroke-dasharray="5,5"/> 
  <line x1="1147" y1="481" x2="1147" y2="580" stroke="black" stroke-dasharray="5,5"/> 
  <line x1="1148" y1="481" x2="1163" y2="481" stroke="black" stroke-dasharray="5,5"/> 
  <line x1="1147.5" y1="578" x2="1162.5" y2="578" stroke="black" stroke-dasharray="5,5"/> 
  <text x="892.349" y="353.03" font-size="20">10LCN01BB001</text>
  <image x="878.5" y="458" width="175" height="25" xlink:href="DS_ana.svg">
    <title>10LCN01CL901</title>
    <rt:dyn type="FKKS" mode="constant" value="&quot;10LCN01CL901&quot;"/> 
    <rt:dyn type="Color_Readings" mode="constant" value="true"/> 
    <rt:dyn type="ShowFrame" mode="constant" value="true"/> 
    <rt:dyn type="ValueToTheRight" mode="constant" value="false"/> 
    <rt:dyn type="X" mode="constant" value="&quot;L&quot;"/> 
  </image>
  <image x="837.803" y="257.576" width="28.7881" height="316.667" xlink:href="DS_ana_bar.svg">
    <title>10LCN01CL901</title>
    <rt:dyn type="FKKS" mode="constant" value="&quot;10LCN01CL901&quot;"/> 
  </image>
  <line x1="1065.08" y1="250" x2="1525" y2="250" stroke="black" stroke-width="3"/> 
  <line x1="1068.11" y1="300" x2="1625" y2="300" stroke="black" stroke-width="3"/> 
  <line x1="1525" y1="125" x2="1525" y2="250" stroke="black" stroke-width="3"/> 
  <line x1="1625.68" y1="125.758" x2="1625" y2="300" stroke="black" stroke-width="3"/> 
  <text x="1519.62" y="75" font-size="15">Дренажи из<tspan x="1519.62" dy="15">паропроводов на БРУ-К</tspan>
  </text>
  <line x1="748.409" y1="165" x2="1125" y2="165" stroke="black" stroke-width="3"/> 
  <line x1="749.924" y1="90" x2="750" y2="165" stroke="black" stroke-width="3"/> 
  <line x1="1124.92" y1="90" x2="1125" y2="165" stroke="black" stroke-width="3"/> 
  <text x="816.591" y="98.4848" font-size="15">Выпар в перемычку перед ГПЗ</text>
  <line x1="99.9243" y1="124.242" x2="100" y2="450" stroke="black" stroke-width="3"/> 
  <line x1="99" y1="450" x2="124" y2="450" stroke="black" stroke-width="3"/> 
  <line x1="123" y1="425" x2="123" y2="450" stroke="black" stroke-width="3"/> 
  <line x1="122" y1="425" x2="817.667" y2="425" stroke="black" stroke-width="3"/> 
  <line x1="150" y1="125" x2="150" y2="399.242" stroke="black" stroke-width="3"/> 
  <line x1="148.724" y1="399.242" x2="173.724" y2="399.242" stroke="black" stroke-width="3"/> 
  <line x1="172.724" y1="374.242" x2="172.724" y2="399.242" stroke="black" stroke-width="3"/> 
  <line x1="200" y1="125" x2="200" y2="350.211" stroke="black" stroke-width="3"/> 
  <line x1="199.058" y1="350.211" x2="224.058" y2="350.211" stroke="black" stroke-width="3"/> 
  <line x1="223.058" y1="325.211" x2="223.058" y2="350.211" stroke="black" stroke-width="3"/> 
  <line x1="250" y1="125" x2="250" y2="299.241" stroke="black" stroke-width="3"/> 
  <line x1="248.633" y1="299.241" x2="273.633" y2="299.241" stroke="black" stroke-width="3"/> 
  <line x1="272.633" y1="274.241" x2="272.633" y2="299.241" stroke="black" stroke-width="3"/> 
  <text x="98" y="69.6969" font-size="15">Дренажи паропроводов<tspan x="98" dy="15">перед ГПЗ</tspan>
  </text>
  <image x="612.045" y="80.9091" width="85" height="25" xlink:href="obj_link.svg">
    <rt:event type="OnClick">LoadNew(&quot;lba00&quot;)</rt:event>
    <rt:dyn type="TextStr" mode="constant" value="&quot;LBA00&quot;"/> 
  </image>
  <image x="1601.44" y="860.606" width="85" height="25" xlink:href="obj_link.svg">
    <rt:event type="OnClick">LoadNew(&quot;lcm10&quot;)</rt:event>
    <rt:dyn type="TextStr" mode="constant" value="&quot;LCM10&quot;"/> 
  </image>
  <text x="918.106" y="31.8182" font-size="30">LCN</text>
  <g transform="rotate(210 1588.56 525.758) rotate(150 1.4013e-045 1.4013e-045) flipY(224.444) rotate(180 1210.44 541.647)">
    <g transform="rotate(90 1212.44 532.643)">
      <polygon points="2892.82,2587.71 2906.2,2595.35 2906.2,2580.07 2892.82,2587.71" fill="black" stroke="black" stroke-width="1" transform="rotate(180 1279.17 367.814)"/> 
    </g>
  </g>
  <g transform="rotate(210 1588.56 525.758) rotate(150 1.4013e-045 1.4013e-045) flipY(224.444) rotate(180 1210.44 541.647)">
    <g transform="rotate(90 1212.44 532.643)">
      <polygon points="2892.82,2487.71 2906.2,2495.35 2906.2,2480.07 2892.82,2487.71" fill="black" stroke="black" stroke-width="1" transform="rotate(180 1279.17 367.814)"/> 
    </g>
  </g>
  <g transform="rotate(210 1588.56 525.758) rotate(150 1.4013e-045 1.4013e-045) flipY(224.444) rotate(180 1210.44 541.647)">
    <g transform="rotate(90 1212.44 532.643)">
      <polygon points="2892.82,4012.47 2906.2,4020.11 2906.2,4004.83 2892.82,4012.47" fill="black" stroke="black" stroke-width="1" transform="rotate(180 1279.17 367.814)"/> 
    </g>
  </g>
  <g transform="rotate(210 1588.56 525.758) rotate(150 1.4013e-045 1.4013e-045) flipY(224.444) rotate(180 1210.44 541.647)">
    <g transform="rotate(90 1212.44 532.643)">
      <polygon points="2892.82,3962.47 2906.2,3970.11 2906.2,3954.83 2892.82,3962.47" fill="black" stroke="black" stroke-width="1" transform="rotate(180 1279.17 367.814)"/> 
    </g>
  </g>
  <g transform="rotate(210 1588.56 525.758) rotate(150 1.4013e-045 1.4013e-045) flipY(224.444) rotate(180 1210.44 541.647)">
    <g transform="rotate(90 1212.44 532.643)">
      <polygon points="2892.82,3912.47 2906.2,3920.11 2906.2,3904.83 2892.82,3912.47" fill="black" stroke="black" stroke-width="1" transform="rotate(180 1279.17 367.814)"/> 
    </g>
  </g>
  <g transform="rotate(210 1588.56 525.758) rotate(150 1.4013e-045 1.4013e-045) flipY(224.444) rotate(180 1210.44 541.647)">
    <g transform="rotate(90 1212.44 532.643)">
      <polygon points="2892.82,3862.47 2906.2,3870.11 2906.2,3854.83 2892.82,3862.47" fill="black" stroke="black" stroke-width="1" transform="rotate(180 1279.17 367.814)"/> 
    </g>
  </g>
  <g transform="flipY(87.1212) rotate(210 1588.56 525.758) rotate(150 1.4013e-045 1.4013e-045) flipY(224.444) rotate(180 1210.44 541.647)">
    <g transform="rotate(90 1212.44 532.643)">
      <polygon points="2933.24,2987.71 2946.62,2995.35 2946.62,2980.07 2933.24,2987.71" fill="black" stroke="black" stroke-width="1" transform="rotate(180 1279.17 367.814)"/> 
    </g>
  </g>
  <g transform="flipY(87.1212) rotate(210 1588.56 525.758) rotate(150 1.4013e-045 1.4013e-045) flipY(224.444) rotate(180 1210.44 541.647)">
    <g transform="rotate(90 1212.44 532.643)">
      <polygon points="2933.24,3363.47 2946.62,3371.11 2946.62,3355.83 2933.24,3363.47" fill="black" stroke="black" stroke-width="1" transform="rotate(180 1279.17 367.814)"/> 
    </g>
  </g>
</svg>
