<?xml  version="1.0" encoding="windows-1251"?>
<svg color="Col_BGSand" xmlns="http://www.w3.org/2000/svg" xmlns:rt="http://www.rts.co.at/2001/XMLSchema/RtSvgPL" xmlns:xlink="http://www.w3.org/1999/xlink" xmlns:xsi="http://www.w3.org/2001/XMLSchema-instance" xsi:schemaLocation="http://www.w3.org/2000/svg C:\RTS\RtSvg\XML\SVG.xsd" viewBox="0 0 1914 1000" width="1914" height="1000" id="ldb" stroke="black">
  <desc>Система маслоснабжения регулирования турбины</desc>
  <title>LDB система автономной обессоливающей установки</title>
  <rt:model modelversion="ver 1.0" comment="Создано Svetlana-VAIO\Svetlana 18.10.2012 21:55:57"/> 
  <text x="803.788" y="36.4242" font-size="32">
    <title>Система автономной обессоливающей установки</title>
LDB</text>
  <rect x="1851.09" y="125.546" width="0" height="0" rx="0" ry="0"/> 
  <rect x="1861.24" y="333.697" width="0" height="0" rx="0" ry="0"/> 
  <rect x="1851.39" y="810.849" width="0" height="0" rx="0" ry="0"/> 
  <image x="170.636" y="290.909" width="175" height="25" xlink:href="DS_ana.svg">
    <title>10LCP03CT001</title>
    <rt:dyn type="FKKS" mode="constant" value="&quot;10LCP03CT001&quot;"/> 
    <rt:dyn type="ShowFrame" mode="constant" value="true"/> 
    <rt:dyn type="X" mode="constant" value="&quot;T&quot;"/> 
    <rt:dyn type="Color_Readings" mode="constant" value="true"/> 
    <rt:dyn type="ValueToTheRight" mode="constant" value="false"/> 
  </image>
  <image x="1540.33" y="915.151" width="175" height="25" xlink:href="DS_ana.svg">
    <title>10QUC50CQ001</title>
    <rt:dyn type="FKKS" mode="constant" value="&quot;10QUC50CQ001&quot;"/> 
    <rt:dyn type="X" mode="constant" value="&quot;Q&quot;"/> 
    <rt:dyn type="ShowFrame" mode="constant" value="true"/> 
    <rt:dyn type="Color_Readings" mode="constant" value="true"/> 
    <rt:dyn type="ValueToTheRight" mode="constant" value="false"/> 
  </image>
  <image x="188.818" y="518.636" width="175" height="25" xlink:href="DS_ana.svg">
    <title>10LCP30CP003</title>
    <rt:dyn type="FKKS" mode="constant" value="&quot;10LCP30CP003&quot;"/> 
    <rt:dyn type="ShowFrame" mode="constant" value="true"/> 
    <rt:dyn type="X" mode="constant" value="&quot;P&quot;"/> 
    <rt:dyn type="Color_Readings" mode="constant" value="true"/> 
    <rt:dyn type="ValueToTheRight" mode="constant" value="false"/> 
  </image>
  <image x="190.334" y="556.061" width="175" height="25" xlink:href="DS_ana.svg">
    <title>10LCP30CF001</title>
    <rt:dyn type="FKKS" mode="constant" value="&quot;10LCP30CF001&quot;"/> 
    <rt:dyn type="ShowFrame" mode="constant" value="true"/> 
    <rt:dyn type="X" mode="constant" value="&quot;F&quot;"/> 
    <rt:dyn type="Color_Readings" mode="constant" value="true"/> 
  </image>
  <text x="851.697" y="645.454" fill="black" font-size="15" text-anchor="middle">MAG</text>
  <text x="554.727" y="295.455" fill="black" font-size="15" text-anchor="middle">10LCP32AA001</text>
  <line x1="405.273" y1="350" x2="1375" y2="350" stroke="black" stroke-width="3"/> 
  <line x1="406" y1="551" x2="406" y2="125" stroke="black" stroke-width="3"/> 
  <line x1="156" y1="675" x2="156" y2="74.5" stroke="black" stroke-width="3"/> 
  <line x1="524" y1="951.5" x2="524" y2="673.5" stroke="black" stroke-width="3"/> 
  <line x1="154.818" y1="74.5" x2="1874" y2="74.5" stroke="black" stroke-width="3"/> 
  <line x1="206" y1="183" x2="206" y2="124.5" stroke="black" stroke-width="3"/> 
  <line x1="525.242" y1="950" x2="759.742" y2="950" stroke="black" stroke-width="3"/> 
  <line x1="204.5" y1="124" x2="407.5" y2="124" stroke="black" stroke-width="3"/> 
  <g fill="Col_BGSand">
    <rect x="58.2574" y="153.015" width="197.743" height="121.985" rx="0" ry="0" fill="Col_BGSand" stroke-width="3"/> 
  </g>
  <text x="149.75" y="173.5" fill="black" font-size="15" text-anchor="middle">10LCP03BB001</text>
  <line x1="156" y1="550" x2="406" y2="550" stroke="black" stroke-width="3"/> 
  <image x="361" y="167.5" width="70" height="65" xlink:href="DS_CO_valve.svg" transform="rotate(270 0 -10)">
    <title>10LCP31AA001</title>
    <rt:dyn type="KKS" mode="constant" value="&quot;10LCP31AA001&quot;"/> 
    <rt:dyn type="DATA_NARY" mode="constant" value="&quot;TPTS&quot;"/> 
    <rt:dyn type="Operate" mode="constant" value="true"/> 
  </image>
  <line x1="156.819" y1="585.5" x2="851" y2="586" stroke="black" stroke-width="3"/> 
  <line x1="155.971" y1="674.651" x2="1031" y2="674" stroke="black" stroke-width="3"/> 
  <g>
    <g transform="rotate(90 920.5 499) rotate(90 532.5 456)">
      <rect x="897" y="-333" width="148.5" height="100" rx="0" ry="0" fill="Col_BGSand" stroke="black" stroke-width="3"/> 
      <rect x="898" y="-300.5" width="146" height="36.5" rx="0" ry="0" fill="url(#PortalHatch1)"/> 
    </g>
  </g>
  <image x="479" y="705.5" width="70" height="65" xlink:href="DS_CO_valve.svg" transform="rotate(270 0 -10)">
    <title>10LDB10AA002</title>
    <rt:dyn type="KKS" mode="constant" value="&quot;10LDB10AA002&quot;"/> 
    <rt:dyn type="DATA_NARY" mode="constant" value="&quot;TPTS&quot;"/> 
    <rt:dyn type="Operate" mode="constant" value="true"/> 
  </image>
  <image x="640" y="907" width="70" height="65" xlink:href="DS_CO_valve.svg" transform="rotate(360 0 -10)">
    <title>10LDB10AA003</title>
    <rt:dyn type="KKS" mode="constant" value="&quot;10LDB10AA003&quot;"/> 
    <rt:dyn type="DATA_NARY" mode="constant" value="&quot;TPTS&quot;"/> 
    <rt:dyn type="Operate" mode="constant" value="true"/> 
  </image>
  <image x="111.636" y="598.909" width="70" height="65" xlink:href="DS_CO_valve.svg" transform="rotate(270 0 -10)">
    <title>10LCP09AA001</title>
    <rt:dyn type="KKS" mode="constant" value="&quot;10LCP09AA001&quot;"/> 
    <rt:dyn type="DATA_NARY" mode="constant" value="&quot;TPTS&quot;"/> 
    <rt:dyn type="Operate" mode="constant" value="true"/> 
  </image>
  <image x="640.151" y="632.151" width="70" height="65" xlink:href="DS_CO_valve.svg" transform="rotate(360 0 -10)">
    <title>10LDB10AA001</title>
    <rt:dyn type="KKS" mode="constant" value="&quot;10LDB10AA001&quot;"/> 
    <rt:dyn type="DATA_NARY" mode="constant" value="&quot;TPTS&quot;"/> 
    <rt:dyn type="Operate" mode="constant" value="true"/> 
  </image>
  <line x1="758.5" y1="950.151" x2="758" y2="674" stroke="black" stroke-width="3"/> 
  <line x1="1030.39" y1="949.212" x2="1031" y2="672.5" stroke="black" stroke-width="3"/> 
  <g>
    <g transform="rotate(90 920.5 499) rotate(90 532.5 456)">
      <rect x="390.606" y="-330.712" width="148.5" height="100" rx="0" ry="0" fill="Col_BGSand" stroke="black" stroke-width="3"/> 
      <rect x="391.606" y="-298.212" width="146" height="36.5" rx="0" ry="0" fill="url(#PortalHatch2)"/> 
    </g>
  </g>
  <image x="985.394" y="703.212" width="70" height="65" xlink:href="DS_CO_valve.svg" transform="rotate(270 0 -10)">
    <title>10LDB10AA004</title>
    <rt:dyn type="KKS" mode="constant" value="&quot;10LDB10AA004&quot;"/> 
    <rt:dyn type="DATA_NARY" mode="constant" value="&quot;TPTS&quot;"/> 
    <rt:dyn type="Operate" mode="constant" value="true"/> 
  </image>
  <line x1="1029" y1="950" x2="1875" y2="950" stroke="black" stroke-width="3"/> 
  <image x="1152.42" y="907.061" width="70" height="65" xlink:href="DS_CO_valve.svg" transform="rotate(360 0 -10)">
    <title>10LDB10AA005</title>
    <rt:dyn type="KKS" mode="constant" value="&quot;10LDB10AA005&quot;"/> 
    <rt:dyn type="DATA_NARY" mode="constant" value="&quot;TPTS&quot;"/> 
    <rt:dyn type="Operate" mode="constant" value="true"/> 
  </image>
  <circle cx="1337.96" cy="947.083" r="38" fill="Col_BGSand" stroke="black" stroke-width="3"/> 
  <rect x="1302.46" y="931.61" width="72.5" height="32" rx="10" ry="5" fill="url(#PortalHatch1)" stroke="black" stroke-width="3" transform="rotate(270 1338.71 947.61)"/> 
  <image x="1450.39" y="906.545" width="70" height="65" xlink:href="DS_CO_valve.svg" transform="rotate(360 0 -10)">
    <title>10LDB10AA006</title>
    <rt:dyn type="KKS" mode="constant" value="&quot;10LDB10AA006&quot;"/> 
    <rt:dyn type="DATA_NARY" mode="constant" value="&quot;TPTS&quot;"/> 
    <rt:dyn type="Operate" mode="constant" value="true"/> 
  </image>
  <g fill="Col_BGSand">
    <rect x="750.924" y="151.803" width="197.743" height="121.985" rx="0" ry="0" fill="Col_BGSand" stroke-width="3"/> 
  </g>
  <text x="848.666" y="173.5" fill="black" font-size="15" text-anchor="middle">10LCP02BB001</text>
  <line x1="850" y1="625" x2="850" y2="274.242" stroke="black" stroke-width="3"/> 
  <image x="816.091" y="418.697" width="70" height="70" xlink:href="DS_motor.svg" transform="rotate(90 0 0)">
    <title>10LCP20AP001</title>
    <rt:dyn type="KKS" mode="constant" value="&quot;10LCP20AP001&quot;"/> 
    <rt:dyn type="DATA_NARY" mode="constant" value="&quot;TPTS&quot;"/> 
    <rt:dyn type="Operate" mode="constant" value="true"/> 
  </image>
  <line x1="899" y1="150" x2="899" y2="97.727" stroke="black" stroke-width="3"/> 
  <line x1="897.909" y1="98" x2="1776" y2="98" stroke="black" stroke-width="3"/> 
  <g fill="Col_BGSand">
    <rect x="1275.95" y="152.318" width="197.743" height="121.985" rx="0" ry="0" fill="Col_BGSand" stroke-width="3"/> 
  </g>
  <text x="1373.69" y="173.5" fill="black" font-size="15" text-anchor="middle">10LCP01BB001</text>
  <line x1="1375.03" y1="651.273" x2="1375.03" y2="275.758" stroke="black" stroke-width="3"/> 
  <image x="1341.12" y="418.697" width="70" height="70" xlink:href="DS_motor.svg" transform="rotate(90 0 0)">
    <title>10LCP10AP001</title>
    <rt:dyn type="KKS" mode="constant" value="&quot;10LCP10AP001&quot;"/> 
    <rt:dyn type="DATA_NARY" mode="constant" value="&quot;TPTS&quot;"/> 
    <rt:dyn type="Operate" mode="constant" value="true"/> 
  </image>
  <line x1="1424.45" y1="154.334" x2="1424.44" y2="123" stroke="black" stroke-width="3"/> 
  <line x1="1422.94" y1="124" x2="1676" y2="124" stroke="black" stroke-width="3"/> 
  <line x1="1184.27" y1="625" x2="1563.06" y2="625" stroke="black" stroke-width="3"/> 
  <line x1="1438.01" y1="656.334" x2="1438" y2="625" stroke="black" stroke-width="3"/> 
  <line x1="1500.16" y1="657.485" x2="1500.15" y2="626.151" stroke="black" stroke-width="3"/> 
  <line x1="1563.31" y1="656.636" x2="1563.3" y2="625.302" stroke="black" stroke-width="3"/> 
  <line x1="1186.16" y1="656.485" x2="1186.15" y2="625.151" stroke="black" stroke-width="3"/> 
  <line x1="1248.31" y1="657.636" x2="1248.3" y2="626.302" stroke="black" stroke-width="3"/> 
  <line x1="1311.46" y1="656.787" x2="1311.45" y2="625.453" stroke="black" stroke-width="3"/> 
  <image x="111" y="338.5" width="70" height="65" xlink:href="DS_CO_valve.svg" transform="rotate(270 0 -10)">
    <title>10LCP03AA001</title>
    <rt:dyn type="KKS" mode="constant" value="&quot;10LCP03AA001&quot;"/> 
    <rt:dyn type="DATA_NARY" mode="constant" value="&quot;TPTS&quot;"/> 
    <rt:dyn type="Operate" mode="constant" value="true"/> 
  </image>
  <image x="121" y="418.697" width="70" height="70" xlink:href="DS_motor.svg" transform="rotate(90 0 0)">
    <title>10LCP30AP001</title>
    <rt:dyn type="KKS" mode="constant" value="&quot;10LCP30AP001&quot;"/> 
    <rt:dyn type="DATA_NARY" mode="constant" value="&quot;TPTS&quot;"/> 
    <rt:dyn type="Operate" mode="constant" value="true"/> 
  </image>
  <image x="521" y="307.5" width="70" height="65" xlink:href="DS_CO_valve.svg" transform="rotate(360 0 -10)">
    <title>10LCP32AA001</title>
    <rt:dyn type="KKS" mode="constant" value="&quot;10LCP32AA001&quot;"/> 
    <rt:dyn type="DATA_NARY" mode="constant" value="&quot;TPTS&quot;"/> 
    <rt:dyn type="Operate" mode="constant" value="true"/> 
  </image>
  <image x="521.425" y="543.575" width="70" height="65" xlink:href="DS_CO_valve.svg" transform="rotate(360 0 -10)">
    <title>10LCP30AA002</title>
    <rt:dyn type="KKS" mode="constant" value="&quot;10LCP30AA002&quot;"/> 
    <rt:dyn type="DATA_NARY" mode="constant" value="&quot;TPTS&quot;"/> 
    <rt:dyn type="Operate" mode="constant" value="true"/> 
  </image>
  <line x1="1875" y1="951.636" x2="1875" y2="74.5" stroke="black" stroke-width="3"/> 
  <line x1="1775" y1="875" x2="1775" y2="98" stroke="black" stroke-width="3"/> 
  <line x1="1675" y1="875" x2="1675" y2="124" stroke="black" stroke-width="3"/> 
  <line x1="1673.5" y1="875" x2="1875.18" y2="875.758" stroke="black" stroke-width="3"/> 
  <image x="1247.91" y="859.091" width="175" height="25" xlink:href="DS_ana.svg">
    <title>10LDB10CP004</title>
    <rt:dyn type="FKKS" mode="constant" value="&quot;10LDB10CP004&quot;"/> 
    <rt:dyn type="ShowFrame" mode="constant" value="true"/> 
    <rt:dyn type="X" mode="constant" value="&quot;dP&quot;"/> 
    <rt:dyn type="Color_Readings" mode="constant" value="true"/> 
    <rt:dyn type="ValueToTheRight" mode="constant" value="false"/> 
  </image>
  <image x="770.636" y="813.636" width="175" height="25" xlink:href="DS_ana.svg">
    <title>10LDB10CP003</title>
    <rt:dyn type="FKKS" mode="constant" value="&quot;10LDB10CP003&quot;"/> 
    <rt:dyn type="ShowFrame" mode="constant" value="true"/> 
    <rt:dyn type="X" mode="constant" value="&quot;dP&quot;"/> 
    <rt:dyn type="Color_Readings" mode="constant" value="true"/> 
    <rt:dyn type="ValueToTheRight" mode="constant" value="false"/> 
  </image>
  <image x="258.515" y="812.121" width="175" height="25" xlink:href="DS_ana.svg">
    <title>10LDB10CP002</title>
    <rt:dyn type="FKKS" mode="constant" value="&quot;10LDB10CP002&quot;"/> 
    <rt:dyn type="ShowFrame" mode="constant" value="true"/> 
    <rt:dyn type="X" mode="constant" value="&quot;dP&quot;"/> 
    <rt:dyn type="Color_Readings" mode="constant" value="true"/> 
    <rt:dyn type="ValueToTheRight" mode="constant" value="false"/> 
  </image>
  <image x="308.515" y="633.333" width="175" height="25" xlink:href="DS_ana.svg">
    <title>10LDB10CP001</title>
    <rt:dyn type="FKKS" mode="constant" value="&quot;10LDB10CP001&quot;"/> 
    <rt:dyn type="ShowFrame" mode="constant" value="true"/> 
    <rt:dyn type="X" mode="constant" value="&quot;P&quot;"/> 
    <rt:dyn type="Color_Readings" mode="constant" value="true"/> 
    <rt:dyn type="ValueToTheRight" mode="constant" value="false"/> 
  </image>
  <image x="302.455" y="693.94" width="175" height="25" xlink:href="DS_ana.svg">
    <title>10LDB10CT001</title>
    <rt:dyn type="FKKS" mode="constant" value="&quot;10LDB10CT001&quot;"/> 
    <rt:dyn type="ShowFrame" mode="constant" value="true"/> 
    <rt:dyn type="X" mode="constant" value="&quot;T&quot;"/> 
    <rt:dyn type="Color_Readings" mode="constant" value="true"/> 
    <rt:dyn type="ValueToTheRight" mode="constant" value="false"/> 
  </image>
  <image x="867.606" y="518.636" width="175" height="25" xlink:href="DS_ana.svg">
    <title>10LCP20CF001</title>
    <rt:dyn type="FKKS" mode="constant" value="&quot;10LCP20CF001&quot;"/> 
    <rt:dyn type="ShowFrame" mode="constant" value="true"/> 
    <rt:dyn type="X" mode="constant" value="&quot;F&quot;"/> 
    <rt:dyn type="Color_Readings" mode="constant" value="true"/> 
    <rt:dyn type="ValueToTheRight" mode="constant" value="false"/> 
  </image>
  <image x="1395.88" y="518.636" width="175" height="25" xlink:href="DS_ana.svg">
    <title>10LCP10CF001</title>
    <rt:dyn type="FKKS" mode="constant" value="&quot;10LCP10CF001&quot;"/> 
    <rt:dyn type="ShowFrame" mode="constant" value="true"/> 
    <rt:dyn type="X" mode="constant" value="&quot;F&quot;"/> 
    <rt:dyn type="Color_Readings" mode="constant" value="true"/> 
    <rt:dyn type="ValueToTheRight" mode="constant" value="false"/> 
  </image>
  <image x="760.576" y="203.545" width="175" height="25" xlink:href="DS_ana.svg">
    <title>10LCP02CL001</title>
    <rt:dyn type="FKKS" mode="constant" value="&quot;10LCP02CL001&quot;"/> 
    <rt:dyn type="ShowFrame" mode="constant" value="true"/> 
    <rt:dyn type="X" mode="constant" value="&quot;L&quot;"/> 
    <rt:dyn type="Color_Readings" mode="constant" value="true"/> 
    <rt:dyn type="ValueToTheRight" mode="constant" value="false"/> 
  </image>
  <image x="1281.79" y="203.545" width="175" height="25" xlink:href="DS_ana.svg">
    <title>10LCP01CL001</title>
    <rt:dyn type="FKKS" mode="constant" value="&quot;10LCP01CL001&quot;"/> 
    <rt:dyn type="ShowFrame" mode="constant" value="true"/> 
    <rt:dyn type="X" mode="constant" value="&quot;L&quot;"/> 
    <rt:dyn type="Color_Readings" mode="constant" value="true"/> 
    <rt:dyn type="ValueToTheRight" mode="constant" value="false"/> 
  </image>
  <image x="71.1819" y="203.545" width="175" height="25" xlink:href="DS_ana.svg">
    <title>10LCP03CL001</title>
    <rt:dyn type="FKKS" mode="constant" value="&quot;10LCP03CL001&quot;"/> 
    <rt:dyn type="ShowFrame" mode="constant" value="true"/> 
    <rt:dyn type="X" mode="constant" value="&quot;L&quot;"/> 
    <rt:dyn type="Color_Readings" mode="constant" value="true"/> 
    <rt:dyn type="ValueToTheRight" mode="constant" value="false"/> 
  </image>
  <text x="553.212" y="530.303" fill="black" font-size="15" text-anchor="middle">10LCP30AA002</text>
  <text x="503.212" y="190.909" fill="black" font-size="15" text-anchor="middle">10LCP31AA001</text>
  <text x="247.151" y="365.151" fill="black" font-size="15" text-anchor="middle">10LCP03AA001</text>
  <text x="259.272" y="465.151" fill="black" font-size="15" text-anchor="middle">10LCP30AP001</text>
  <text x="74.9697" y="631.394" fill="black" font-size="15" text-anchor="middle">10LCP09<tspan x="74.9697" dy="15">AA001</tspan>
  </text>
  <text x="672.909" y="715.152" fill="black" font-size="15" text-anchor="middle">10LDB10AA001</text>
  <text x="674.515" y="986.969" fill="black" font-size="15" text-anchor="middle">10LDB10AA003</text>
  <text x="613.818" y="768.182" fill="black" font-size="15" text-anchor="middle">10LDB10AA002</text>
  <text x="525.939" y="822.728" fill="black" font-size="15" text-anchor="middle">10LDB10AT001</text>
  <text x="1189.03" y="986.969" fill="black" font-size="15" text-anchor="middle">10LDB10AA005</text>
  <text x="1486.48" y="986.969" fill="black" font-size="15" text-anchor="middle">10LDB10AA006</text>
  <text x="1122.91" y="763.636" fill="black" font-size="15" text-anchor="middle">10LDB10AA004</text>
  <text x="1029.73" y="821.212" fill="black" font-size="15" text-anchor="middle">10LDB10AT002</text>
  <text x="1476.18" y="465.151" fill="black" font-size="15" text-anchor="middle">10LCP10AP001</text>
  <text x="951.182" y="465.151" fill="black" font-size="15" text-anchor="middle">10LCP20AP001</text>
  <text x="1190.03" y="685.212" fill="black" font-size="15" text-anchor="middle">LAH</text>
  <text x="1252.42" y="685.212" fill="black" font-size="15" text-anchor="middle">LCA</text>
  <text x="1314.09" y="685.212" fill="black" font-size="15" text-anchor="middle">LAJ</text>
  <text x="1376.76" y="685.212" fill="black" font-size="15" text-anchor="middle">LAA</text>
  <text x="1440.85" y="685.212" fill="black" font-size="15" text-anchor="middle">LAB</text>
  <text x="1500.94" y="685.212" fill="black" font-size="15" text-anchor="middle">PCB</text>
  <text x="1566.55" y="685.212" fill="black" font-size="15" text-anchor="middle">LAC</text>
  <text x="1628.21" y="836.364" fill="black" font-size="15" text-anchor="middle">10LDB06<tspan x="1628.21" dy="15">AA101</tspan>
  </text>
  <text x="1726.73" y="836.364" fill="black" font-size="15" text-anchor="middle">10LDB07<tspan x="1726.73" dy="15">AA101</tspan>
  </text>
  <text x="1831.27" y="836.364" fill="black" font-size="15" text-anchor="middle">10LDB08<tspan x="1831.27" dy="15">AA101</tspan>
  </text>
  <image x="1388.88" y="592.454" width="175" height="25" xlink:href="DS_ana.svg">
    <title>10QUC40CQ001</title>
    <rt:dyn type="FKKS" mode="constant" value="&quot;10QUC40CQ001&quot;"/> 
    <rt:dyn type="ShowFrame" mode="constant" value="true"/> 
    <rt:dyn type="X" mode="constant" value="&quot;Q&quot;"/> 
    <rt:dyn type="Color_Readings" mode="constant" value="true"/> 
    <rt:dyn type="ValueToTheRight" mode="constant" value="false"/> 
  </image>
  <image x="1183.24" y="592.454" width="175" height="25" xlink:href="DS_ana.svg">
    <title>10QUC40CQ002</title>
    <rt:dyn type="FKKS" mode="constant" value="&quot;10QUC40CQ002&quot;"/> 
    <rt:dyn type="ShowFrame" mode="constant" value="true"/> 
    <rt:dyn type="X" mode="constant" value="&quot;Q&quot;"/> 
    <rt:dyn type="Color_Readings" mode="constant" value="true"/> 
    <rt:dyn type="ValueToTheRight" mode="constant" value="false"/> 
  </image>
  <g transform="rotate(120 849.424 628.788) rotate(87.4267 853.212 629.545) rotate(7.26188 78.2121 103.788) rotate(322.657 1629.73 653.788) rotate(180 1210.44 541.647)">
    <g transform="rotate(90 1212.44 532.643)">
      <polygon points="919.348,280.034 932.606,286.323 932.606,271.033 919.226,278.673" fill="black" stroke="black" stroke-width="1" transform="rotate(180 1279.17 367.814)"/> 
    </g>
  </g>
  <g transform="rotate(120 849.424 628.788) rotate(87.4267 853.212 629.545) rotate(7.26188 78.2121 103.788) rotate(322.657 1629.73 653.788) rotate(180 1210.44 541.647)">
    <g transform="rotate(90 1212.44 532.643)">
      <polygon points="871.237,615.073 884.495,621.362 884.495,606.072 871.115,613.712" fill="black" stroke="black" stroke-width="1" transform="rotate(180 1279.17 367.814)"/> 
    </g>
  </g>
  <g transform="rotate(120 849.424 628.788) rotate(87.4267 853.212 629.545) rotate(7.26188 78.2121 103.788) rotate(322.657 1629.73 653.788) rotate(180 1210.44 541.647)">
    <g transform="rotate(90 1212.44 532.643)">
      <polygon points="868.565,676.592 881.823,682.881 881.823,667.591 868.443,675.231" fill="black" stroke="black" stroke-width="1" transform="rotate(180 1279.17 367.814)"/> 
    </g>
  </g>
  <g transform="rotate(120 849.424 628.788) rotate(87.4267 853.212 629.545) rotate(7.26188 78.2121 103.788) rotate(322.657 1629.73 653.788) rotate(180 1210.44 541.647)">
    <g transform="rotate(90 1212.44 532.643)">
      <polygon points="865.664,739.161 878.922,745.45 878.922,730.16 865.542,737.8" fill="black" stroke="black" stroke-width="1" transform="rotate(180 1279.17 367.814)"/> 
    </g>
  </g>
  <g transform="rotate(120 849.424 628.788) rotate(87.4267 853.212 629.545) rotate(7.26188 78.2121 103.788) rotate(322.657 1629.73 653.788) rotate(180 1210.44 541.647)">
    <g transform="rotate(90 1212.44 532.643)">
      <polygon points="862.717,802.729 875.975,809.018 875.975,793.728 862.595,801.368" fill="black" stroke="black" stroke-width="1" transform="rotate(180 1279.17 367.814)"/> 
    </g>
  </g>
  <g transform="rotate(120 849.424 628.788) rotate(87.4267 853.212 629.545) rotate(7.26188 78.2121 103.788) rotate(322.657 1629.73 653.788) rotate(180 1210.44 541.647)">
    <g transform="rotate(90 1212.44 532.643)">
      <polygon points="859.772,866.267 873.03,872.556 873.03,857.266 859.65,864.906" fill="black" stroke="black" stroke-width="1" transform="rotate(180 1279.17 367.814)"/> 
    </g>
  </g>
  <g transform="rotate(120 849.424 628.788) rotate(87.4267 853.212 629.545) rotate(7.26188 78.2121 103.788) rotate(322.657 1629.73 653.788) rotate(180 1210.44 541.647)">
    <g transform="rotate(90 1212.44 532.643)">
      <polygon points="856.941,927.322 870.199,933.611 870.199,918.321 856.819,925.961" fill="black" stroke="black" stroke-width="1" transform="rotate(180 1279.17 367.814)"/> 
    </g>
  </g>
  <g transform="rotate(120 849.424 628.788) rotate(87.4267 853.212 629.545) rotate(7.26188 78.2121 103.788) rotate(322.657 1629.73 653.788) rotate(180 1210.44 541.647)">
    <g transform="rotate(90 1212.44 532.643)">
      <polygon points="854.019,990.346 867.277,996.635 867.277,981.345 853.897,988.985" fill="black" stroke="black" stroke-width="1" transform="rotate(180 1279.17 367.814)"/> 
    </g>
  </g>
  <image x="1629.73" y="752.089" width="70" height="65" xlink:href="DS_CO_valve.svg" transform="rotate(270 0 -10)">
    <rt:dyn type="KKS" mode="constant" value="&quot;NULL&quot;"/> 
    <rt:dyn type="Operate" mode="constant" value="true"/> 
    <rt:dyn type="DATA_NARY" mode="constant" value="&quot;NULL&quot;"/> 
    <rt:dyn type="Drive" mode="constant" value="&quot;NONE&quot;"/> 
  </image>
  <image x="1729.73" y="752.089" width="70" height="65" xlink:href="DS_CO_valve.svg" transform="rotate(270 0 -10)">
    <rt:dyn type="KKS" mode="constant" value="&quot;NULL&quot;"/> 
    <rt:dyn type="Operate" mode="constant" value="true"/> 
    <rt:dyn type="DATA_NARY" mode="constant" value="&quot;NULL&quot;"/> 
    <rt:dyn type="Drive" mode="constant" value="&quot;NONE&quot;"/> 
  </image>
  <image x="1829.73" y="752.089" width="70" height="65" xlink:href="DS_CO_valve.svg" transform="rotate(270 0 -10)">
    <rt:dyn type="KKS" mode="constant" value="&quot;NULL&quot;"/> 
    <rt:dyn type="Operate" mode="constant" value="true"/> 
    <rt:dyn type="DATA_NARY" mode="constant" value="&quot;NULL&quot;"/> 
    <rt:dyn type="Drive" mode="constant" value="&quot;NONE&quot;"/> 
  </image>
</svg>
