<?xml  version="1.0" encoding="windows-1251"?>
<svg color="Col_BGSand" xmlns="http://www.w3.org/2000/svg" xmlns:rt="http://www.rts.co.at/2001/XMLSchema/RtSvgPL" xmlns:xlink="http://www.w3.org/1999/xlink" xmlns:xsi="http://www.w3.org/2001/XMLSchema-instance" xsi:schemaLocation="http://www.w3.org/2000/svg C:\RTS\RtSvg\XML\SVG.xsd" viewBox="0 0 1914 1000" width="1914" height="1000" id="ldf14">
  <title>Cистема обезжелезования и обессоливания конденсата турбины</title>
  <rt:model modelversion="7.2.0.23" comment="Создано  19.03.2012 11:58:10"/> 
  <line x1="854.94" y1="435" x2="675.667" y2="435" stroke="black"/> 
  <line x1="669.606" y1="293.939" x2="313" y2="293.939" stroke="black"/> 
  <line x1="1453" y1="450.667" x2="1453" y2="192.424" stroke="black"/> 
  <text x="920.636" y="54.5455" font-size="32">LDF14</text>
  <image x="959.041" y="337.879" width="175" height="25" xlink:href="DS_ana.svg">
    <title>10LDF14CP003</title>
    <rt:dyn type="FKKS" mode="constant" value="&quot;10LDF14CP003&quot;"/> 
    <rt:dyn type="X" mode="constant" value="&quot;P&quot;"/> 
    <rt:dyn type="ShowFrame" mode="constant" value="true"/> 
    <rt:dyn type="Color_Readings" mode="constant" value="true"/> 
    <rt:dyn type="ValueToTheRight" mode="constant" value="false"/> 
  </image>
  <line x1="1132" y1="388.773" x2="1017.68" y2="388.773" stroke="black"/> 
  <line x1="872" y1="378.838" x2="872" y2="266.671" stroke="black"/> 
  <image x="826.318" y="292.99" width="70" height="65" xlink:href="DS_CO_valve.svg" transform="flipX(0.000113544) rotate(90 0 -10)">
    <title>10LDF14AA019</title>
    <rt:dyn type="KKS" mode="constant" value="&quot;10LDF14AA019&quot;"/> 
    <rt:dyn type="DATA_NARY" mode="constant" value="&quot;TPTS&quot;"/> 
    <rt:dyn type="Operate" mode="constant" value="true"/> 
  </image>
  <text x="698.375" y="330.75" font-size="15">10LDF14AA019</text>
  <image x="760.03" y="494.333" width="175" height="25" xlink:href="DS_ana.svg">
    <title>10LDF14CP002</title>
    <rt:dyn type="FKKS" mode="constant" value="&quot;10LDF14CP002&quot;"/> 
    <rt:dyn type="X" mode="constant" value="&quot;dP&quot;"/> 
    <rt:dyn type="ShowFrame" mode="constant" value="true"/> 
    <rt:dyn type="Color_Readings" mode="constant" value="true"/> 
    <rt:dyn type="ValueToTheRight" mode="constant" value="false"/> 
  </image>
  <line x1="1132" y1="387.879" x2="1132" y2="715.151" stroke="black"/> 
  <image x="1087.23" y="563.561" width="70" height="65" xlink:href="DS_CO_valve.svg" transform="flipY(-10.0003) flipY(-10.0003) flipX(0.000113544) rotate(90 0 -10)">
    <title>10LDF14AA005</title>
    <rt:dyn type="KKS" mode="constant" value="&quot;10LDF14AA005&quot;"/> 
    <rt:dyn type="DATA_NARY" mode="constant" value="&quot;TPTS&quot;"/> 
    <rt:dyn type="Operate" mode="constant" value="true"/> 
  </image>
  <text x="957.875" y="599.75" font-size="15">10LDF14AA005</text>
  <line x1="942" y1="528.788" x2="942" y2="256.545" stroke="black" stroke-width="3"/> 
  <text x="713.125" y="472" font-size="15">10LDF14AA022</text>
  <text x="522.758" y="352.5" font-size="15">10LDF14AA023</text>
  <image x="948.041" y="494.333" width="175" height="25" xlink:href="DS_ana.svg">
    <title>10LDF14CP001</title>
    <rt:dyn type="FKKS" mode="constant" value="&quot;10LDF14CP001&quot;"/> 
    <rt:dyn type="X" mode="constant" value="&quot;P&quot;"/> 
    <rt:dyn type="ShowFrame" mode="constant" value="true"/> 
    <rt:dyn type="Color_Readings" mode="constant" value="true"/> 
    <rt:dyn type="ValueToTheRight" mode="constant" value="false"/> 
  </image>
  <line x1="1635.54" y1="432.879" x2="1549.85" y2="432.879" stroke="black"/> 
  <image x="1569" y="488.242" width="175" height="25" xlink:href="DS_ana.svg">
    <title>10LDF14CP005</title>
    <rt:dyn type="FKKS" mode="constant" value="&quot;10LDF14CP005&quot;"/> 
    <rt:dyn type="X" mode="constant" value="&quot;P&quot;"/> 
    <rt:dyn type="ShowFrame" mode="constant" value="true"/> 
    <rt:dyn type="Color_Readings" mode="constant" value="true"/> 
    <rt:dyn type="ValueToTheRight" mode="constant" value="false"/> 
  </image>
  <line x1="1855" y1="450.652" x2="1165" y2="450.652" stroke="black" stroke-width="3"/> 
  <image x="1779.21" y="407.758" width="70" height="65" xlink:href="DS_CO_valve.svg">
    <title>10LDF14AA004</title>
    <rt:dyn type="KKS" mode="constant" value="&quot;10LDF14AA004&quot;"/> 
    <rt:dyn type="DATA_NARY" mode="constant" value="&quot;TPTS&quot;"/> 
    <rt:dyn type="Operate" mode="constant" value="true"/> 
  </image>
  <text x="1710.94" y="405.212" font-size="15">10LDF14AA004</text>
  <image x="1314.58" y="408.243" width="70" height="65" xlink:href="DS_CO_valve.svg" transform="flipX(2.17799e-007)">
    <title>10LDF14AA003</title>
    <rt:dyn type="KKS" mode="constant" value="&quot;10LDF14AA003&quot;"/> 
    <rt:dyn type="DATA_NARY" mode="constant" value="&quot;TPTS&quot;"/> 
    <rt:dyn type="Operate" mode="constant" value="true"/> 
  </image>
  <text x="1290.33" y="404.697" font-size="15">10LDF14AA003</text>
  <text x="1478.21" y="407.212" fill="black" font-size="15">10LDF14AT002</text>
  <line x1="505" y1="394.258" x2="658" y2="394.258" stroke="black"/> 
  <line x1="675.652" y1="394.258" x2="888.502" y2="394.258" stroke="black"/> 
  <image x="743.361" y="392.485" width="70" height="65" xlink:href="DS_CO_valve.svg" transform="flipX(-5.43088e-005)">
    <title>10LDF14AA022</title>
    <rt:dyn type="KKS" mode="constant" value="&quot;10LDF14AA022&quot;"/> 
    <rt:dyn type="DATA_NARY" mode="constant" value="&quot;TPTS&quot;"/> 
    <rt:dyn type="Operate" mode="constant" value="true"/> 
    <rt:dyn type="Drive" mode="constant" value="&quot;solenoid&quot;"/> 
  </image>
  <line x1="1270" y1="452" x2="1275" y2="960" stroke="black"/> 
  <text x="1298.88" y="799.848" font-size="15">10LDF14AA016</text>
  <line x1="1165" y1="452" x2="1165" y2="900" stroke="black"/> 
  <image x="1119.26" y="765.393" width="70" height="65" xlink:href="DS_CO_valve.svg" transform="flipY(-10.0003) flipX(0.000113544) rotate(90 0 -10)">
    <title>10LDF14AA007</title>
    <rt:dyn type="KKS" mode="constant" value="&quot;10LDF14AA007&quot;"/> 
    <rt:dyn type="DATA_NARY" mode="constant" value="&quot;TPTS&quot;"/> 
    <rt:dyn type="Operate" mode="constant" value="true"/> 
  </image>
  <text x="991.45" y="799.848" font-size="15">10LDF14AA007</text>
  <line x1="1175" y1="715.151" x2="1265" y2="715.151" stroke="black"/> 
  <line x1="704.97" y1="528.788" x2="704.97" y2="900.002" stroke="black"/> 
  <image x="661.05" y="563.561" width="70" height="65" xlink:href="DS_CO_valve.svg" transform="flipY(-10.0003) flipY(-10.0003) flipX(0.000113544) rotate(90 0 -10)">
    <title>10LDF14AA006</title>
    <rt:dyn type="KKS" mode="constant" value="&quot;10LDF14AA006&quot;"/> 
    <rt:dyn type="DATA_NARY" mode="constant" value="&quot;TPTS&quot;"/> 
    <rt:dyn type="Operate" mode="constant" value="true"/> 
  </image>
  <text x="730.625" y="599.75" font-size="15">10LDF14AA006</text>
  <image x="659.52" y="765.393" width="70" height="65" xlink:href="DS_Reg_valve.svg" transform="flipY(-10.0001) rotate(270 0 -10)">
    <title>10LDF14AA202</title>
    <rt:dyn type="KKS" mode="constant" value="&quot;10LDF14AA202&quot;"/> 
    <rt:dyn type="DATA_NARY" mode="constant" value="&quot;TPTS&quot;"/> 
    <rt:dyn type="Operate" mode="constant" value="true"/> 
  </image>
  <image x="596.394" y="783.333" width="65" height="25" xlink:href="DS_Reg_degree.svg">
    <title>10LDF14AA202</title>
    <rt:dyn type="KKS" mode="constant" value="&quot;10LDF14AA202&quot;"/> 
  </image>
  <text x="727.727" y="799.848" font-size="15">10LDF14AA202</text>
  <image x="1228.71" y="765.393" width="70" height="65" xlink:href="DS_CO_valve.svg" transform="flipY(-10.0003) flipX(0.000113544) rotate(90 0 -10)">
    <title>10LDF14AA016</title>
    <rt:dyn type="KKS" mode="constant" value="&quot;10LDF14AA016&quot;"/> 
    <rt:dyn type="DATA_NARY" mode="constant" value="&quot;TPTS&quot;"/> 
    <rt:dyn type="Operate" mode="constant" value="true"/> 
  </image>
  <line x1="703.97" y1="899" x2="1167" y2="899" stroke="black"/> 
  <image x="914.758" y="865.607" width="70" height="70" xlink:href="DS_motor.svg" transform="flipX(-4.95135e-005)">
    <title>10LDF14AP001</title>
    <rt:dyn type="KKS" mode="constant" value="&quot;10LDF14AP001&quot;"/> 
    <rt:dyn type="DATA_NARY" mode="constant" value="&quot;TPTS&quot;"/> 
    <rt:dyn type="Operate" mode="constant" value="true"/> 
  </image>
  <text x="887.485" y="862.576" font-size="15">10LDF14AP001</text>
  <image x="987.36" y="869.727" width="175" height="25" xlink:href="DS_ana.svg">
    <title>10LDF14CP006</title>
    <rt:dyn type="FKKS" mode="constant" value="&quot;10LDF14CP006&quot;"/> 
    <rt:dyn type="X" mode="constant" value="&quot;P&quot;"/> 
    <rt:dyn type="ShowFrame" mode="constant" value="true"/> 
    <rt:dyn type="Color_Readings" mode="constant" value="true"/> 
    <rt:dyn type="ValueToTheRight" mode="constant" value="false"/> 
  </image>
  <image x="732.218" y="869.727" width="175" height="25" xlink:href="DS_ana.svg">
    <title>10LDF14CP007</title>
    <rt:dyn type="FKKS" mode="constant" value="&quot;10LDF14CP007&quot;"/> 
    <rt:dyn type="X" mode="constant" value="&quot;P&quot;"/> 
    <rt:dyn type="ShowFrame" mode="constant" value="true"/> 
    <rt:dyn type="Color_Readings" mode="constant" value="true"/> 
    <rt:dyn type="ValueToTheRight" mode="constant" value="false"/> 
  </image>
  <image x="732.218" y="903.667" width="175" height="25" xlink:href="DS_ana.svg">
    <title>10LDF14CF002</title>
    <rt:dyn type="FKKS" mode="constant" value="&quot;10LDF14CF002&quot;"/> 
    <rt:dyn type="X" mode="constant" value="&quot;F&quot;"/> 
    <rt:dyn type="ShowFrame" mode="constant" value="true"/> 
    <rt:dyn type="Color_Readings" mode="constant" value="true"/> 
    <rt:dyn type="ValueToTheRight" mode="constant" value="false"/> 
  </image>
  <image x="554.125" y="553.75" width="65" height="25" xlink:href="DS_Reg_degree.svg">
    <title>10LDF14AA201</title>
    <rt:dyn type="KKS" mode="constant" value="&quot;10LDF14AA201&quot;"/> 
  </image>
  <text x="522.758" y="483.333" font-size="15">10LDF14AA201</text>
  <line x1="944" y1="530" x2="89" y2="530" stroke="black" stroke-width="3"/> 
  <image x="580.815" y="476.757" width="70" height="65" xlink:href="DS_Reg_valve.svg" transform="flipX(-10.0009) flipX(10.0005) rotate(90 0 0) flipY(-10.0001) rotate(270 0 -10)">
    <title>10LDF14AA201</title>
    <rt:dyn type="KKS" mode="constant" value="&quot;10LDF14AA201&quot;"/> 
    <rt:dyn type="DATA_NARY" mode="constant" value="&quot;TPTS&quot;"/> 
    <rt:dyn type="Operate" mode="constant" value="true"/> 
  </image>
  <line x1="667.94" y1="530.031" x2="667.76" y2="294.425" stroke="black"/> 
  <image x="542.815" y="241" width="70" height="65" xlink:href="DS_CO_valve.svg" transform="rotate(90 0 0) flipY(-10.0003) flipY(-10.0003) flipX(0.000113544) rotate(90 0 -10)">
    <title>10LDF14AA020</title>
    <rt:dyn type="KKS" mode="constant" value="&quot;10LDF14AA020&quot;"/> 
    <rt:dyn type="DATA_NARY" mode="constant" value="&quot;TPTS&quot;"/> 
    <rt:dyn type="Operate" mode="constant" value="true"/> 
  </image>
  <text x="522.758" y="247.5" font-size="15">10LDF14AA020</text>
  <line x1="1240" y1="452" x2="1240" y2="216.667" stroke="black"/> 
  <image x="1195.86" y="248.095" width="70" height="65" xlink:href="DS_CO_valve.svg" transform="flipX(0.000113544) rotate(90 0 -10)">
    <title>10LDF14AA021</title>
    <rt:dyn type="KKS" mode="constant" value="&quot;10LDF14AA021&quot;"/> 
    <rt:dyn type="DATA_NARY" mode="constant" value="&quot;TPTS&quot;"/> 
    <rt:dyn type="Operate" mode="constant" value="true"/> 
  </image>
  <text x="1263.91" y="279.943" font-size="15">10LDF14AA021</text>
  <image x="1408.05" y="248.095" width="70" height="65" xlink:href="DS_CO_valve.svg" transform="flipX(0.000113544) rotate(90 0 -10)">
    <title>10LDF14AA013</title>
    <rt:dyn type="KKS" mode="constant" value="&quot;10LDF14AA013&quot;"/> 
    <rt:dyn type="DATA_NARY" mode="constant" value="&quot;TPTS&quot;"/> 
    <rt:dyn type="Operate" mode="constant" value="true"/> 
  </image>
  <text x="1474.09" y="279.943" font-size="15">10LDF14AA013</text>
  <line x1="1635" y1="432.501" x2="1635" y2="273.303" stroke="black"/> 
  <image x="1589.83" y="324.668" width="70" height="65" xlink:href="DS_CO_valve.svg" transform="flipX(0.000113544) rotate(90 0 -10)">
    <title>10LDF14AA018</title>
    <rt:dyn type="KKS" mode="constant" value="&quot;10LDF14AA018&quot;"/> 
    <rt:dyn type="DATA_NARY" mode="constant" value="&quot;TPTS&quot;"/> 
    <rt:dyn type="Operate" mode="constant" value="true"/> 
  </image>
  <text x="1661.03" y="366.107" font-size="15">10LDF14AA018</text>
  <image x="1498.7" y="519.091" width="175" height="25" xlink:href="DS_ana.svg">
    <title>10LDF14CP004</title>
    <rt:dyn type="FKKS" mode="constant" value="&quot;10LDF14CP004&quot;"/> 
    <rt:dyn type="X" mode="constant" value="&quot;dP&quot;"/> 
    <rt:dyn type="ShowFrame" mode="constant" value="true"/> 
    <rt:dyn type="Color_Readings" mode="constant" value="true"/> 
    <rt:dyn type="ValueToTheRight" mode="constant" value="false"/> 
  </image>
  <image x="1474.67" y="554.091" width="160" height="75" xlink:href="DS_TPTS_VL_spec.svg">
    <rt:dyn type="KKS" mode="constant" value="&quot;10LDF14CH001LVL0&quot;"/> 
    <rt:dyn type="Operate" mode="constant" value="true"/> 
  </image>
  <image x="1332.22" y="542.697" width="110" height="30" xlink:href="DS_TPTS_TZB_universal.svg">
    <title>10LDF14EZ002TE0</title>
    <rt:dyn type="KKS" mode="constant" value="&quot;10LDF14EZ002TE0&quot;"/> 
    <rt:dyn type="Operate" mode="constant" value="true"/> 
  </image>
  <text x="1337.22" y="539.697" font-size="15">откл защиты</text>
  <line x1="1748" y1="450" x2="1748" y2="716" stroke="black"/> 
  <line x1="1280.73" y1="715.151" x2="1748.06" y2="715.151" stroke="black"/> 
  <image x="1643.82" y="672.516" width="70" height="65" xlink:href="DS_CO_valve.svg" transform="flipX(1.01409e-005)">
    <title>10LDF14AA011</title>
    <rt:dyn type="KKS" mode="constant" value="&quot;10LDF14AA011&quot;"/> 
    <rt:dyn type="DATA_NARY" mode="constant" value="&quot;TPTS&quot;"/> 
    <rt:dyn type="Operate" mode="constant" value="true"/> 
  </image>
  <text x="1609.58" y="750.969" font-size="15">10LDF14AA011</text>
  <image x="1332.22" y="649.909" width="110" height="30" xlink:href="DS_TPTS_TZB_universal.svg">
    <title>10LDF14CH001KTE0</title>
    <rt:dyn type="KKS" mode="constant" value="&quot;10LDF14CH001KTE0&quot;"/> 
    <rt:dyn type="Operate" mode="constant" value="true"/> 
  </image>
  <text x="1280.72" y="644.909" font-size="15">разр выбора режимов откл</text>
  <image x="1332.22" y="592.273" width="110" height="30" xlink:href="DS_TPTS_TE_spec.svg">
    <title>10LDF14CH001MTE0</title>
    <rt:dyn type="KKS" mode="constant" value="&quot;10LDF14CH001MTE0&quot;"/> 
  </image>
  <g fill="none" transform="rotate(270 867.174 707.778)">
    <circle cx="1125.68" cy="1397.38" r="35.4988" fill="Col_Grey4" stroke="black" stroke-width="3"/> 
    <line x1="1092.17" y1="1388" x2="1158.17" y2="1388" stroke="black" stroke-width="3"/> 
    <line x1="1093.17" y1="1406" x2="1159.17" y2="1406" stroke="black" stroke-width="3"/> 
    <line x1="1101.17" y1="1387" x2="1090.17" y2="1401" stroke="black"/> 
    <line x1="1108.17" y1="1389" x2="1094.17" y2="1407" stroke="black"/> 
    <line x1="1117.17" y1="1389" x2="1103.17" y2="1407" stroke="black"/> 
    <line x1="1125.17" y1="1389" x2="1111.17" y2="1407" stroke="black"/> 
    <line x1="1135.17" y1="1387" x2="1121.17" y2="1405" stroke="black"/> 
    <line x1="1142.17" y1="1388" x2="1128.17" y2="1406" stroke="black"/> 
    <line x1="1150.17" y1="1388" x2="1136.17" y2="1406" stroke="black"/> 
    <line x1="1160.17" y1="1386" x2="1143.8" y2="1406.9" stroke="black"/> 
    <line x1="1151.8" y1="1405.9" x2="1161.17" y2="1394" stroke="black"/> 
  </g>
  <text x="1327.22" y="588" font-size="15">откл установки</text>
  <path d="M274.287 159.05 A8.80483 8.80483 0 1 1 274.287 176.66 " fill="none" stroke="black" transform="flipY() translate(0 -828) translate(229.642 442.62)"/> 
  <line x1="504" y1="147" x2="504" y2="209.754" stroke="black"/> 
  <line x1="505" y1="303.329" x2="505" y2="434.848" stroke="black"/> 
  <path d="M274.907 82.2307 A8.80483 8.80483 0 1 1 274.907 99.8407 " fill="none" stroke="black" transform="flipY() translate(0 -828) translate(229.642 442.62)"/> 
  <line x1="506" y1="226" x2="505.879" y2="287.027" stroke="black"/> 
  <line x1="1158" y1="715.151" x2="714" y2="715.151" stroke="black"/> 
  <line x1="107" y1="717" x2="697.368" y2="716.651" stroke="black"/> 
  <line x1="1770.67" y1="450" x2="1770.67" y2="961.909" stroke="black"/> 
  <image x="1725.26" y="792.439" width="70" height="65" xlink:href="DS_CO_valve.svg" transform="flipX(0.000113544) rotate(90 0 -10)">
    <title>10LDF14AA017</title>
    <rt:dyn type="KKS" mode="constant" value="&quot;10LDF14AA017&quot;"/> 
    <rt:dyn type="DATA_NARY" mode="constant" value="&quot;TPTS&quot;"/> 
    <rt:dyn type="Operate" mode="constant" value="true"/> 
  </image>
  <text x="1598.42" y="834.848" font-size="15">10LDF14AA017</text>
  <image x="373.667" y="496.97" width="175" height="25" xlink:href="DS_ana.svg">
    <title>10LDF14CF001</title>
    <rt:dyn type="FKKS" mode="constant" value="&quot;10LDF14CF001&quot;"/> 
    <rt:dyn type="X" mode="constant" value="&quot;F&quot;"/> 
    <rt:dyn type="ShowFrame" mode="constant" value="true"/> 
    <rt:dyn type="Color_Readings" mode="constant" value="true"/> 
    <rt:dyn type="ValueToTheRight" mode="constant" value="false"/> 
  </image>
  <image x="266.088" y="486.879" width="70" height="65" xlink:href="DS_CO_valve.svg" transform="flipX(-2.34484e-005)">
    <title>10LDF14AA002</title>
    <rt:dyn type="KKS" mode="constant" value="&quot;10LDF14AA002&quot;"/> 
    <rt:dyn type="DATA_NARY" mode="constant" value="&quot;TPTS&quot;"/> 
    <rt:dyn type="Operate" mode="constant" value="true"/> 
  </image>
  <text x="241.848" y="568.333" font-size="15">10LDF14AA002</text>
  <line x1="98" y1="961" x2="1770.64" y2="961" stroke="black"/> 
  <line x1="1452.45" y1="194.303" x2="502.454" y2="194.303" stroke="black"/> 
  <line x1="1241" y1="218" x2="323" y2="218" stroke="black"/> 
  <line x1="1855" y1="240.909" x2="1855" y2="452" stroke="black" stroke-width="3"/> 
  <image x="1302.45" y="887.849" width="25" height="25" xlink:href="bin_indicator.svg">
    <title>10LDF14CH001K_XA41</title>
    <rt:dyn type="PointID" mode="constant" value="&quot;10LDF14CH001K_XA41&quot;"/> 
  </image>
  <text x="1333.45" y="906.849" font-size="15">РАЗР ВЫБОРА РЕЖИМОВ ВКЛ</text>
  <image x="1302.45" y="914.849" width="25" height="25" xlink:href="bin_indicator.svg">
    <title>10LDF14CH001K_XA42</title>
    <rt:dyn type="PointID" mode="constant" value="&quot;10LDF14CH001K_XA42&quot;"/> 
  </image>
  <text x="1333.45" y="933.849" font-size="15">РАЗР ВЫБОРА РЕЖИМОВ ОТКЛ</text>
  <image x="1302.45" y="835.849" width="25" height="25" xlink:href="bin_indicator.svg">
    <title>10LDF14CH001M_XA41</title>
    <rt:dyn type="PointID" mode="constant" value="&quot;10LDF14CH001M_XA41&quot;"/> 
  </image>
  <text x="1334.45" y="854.849" font-size="15">ОТКЛ. УСТ</text>
  <image x="1302.45" y="859.849" width="25" height="25" xlink:href="bin_indicator.svg">
    <title>10LDF14CH001M_XA42</title>
    <rt:dyn type="PointID" mode="constant" value="&quot;10LDF14CH001M_XA42&quot;"/> 
  </image>
  <text x="1334.45" y="878.849" font-size="15">РАЗР. ВКЛ</text>
  <text x="1809.5" y="229.149" fill="black" font-size="15" text-anchor="middle">LDF11</text>
  <polygon points="941.035,475.76 953.232,481.918 953.232,466.631 939.852,474.274" fill="Col_BGSand" stroke="black" stroke-width="1" transform="rotate(270 1553 326) rotate(360 0 1.4013e-045) flipY(334.505) rotate(180 1279.17 367.814)"/> 
  <polygon points="940.028,-286.766 952.225,-280.608 952.225,-295.895 938.845,-288.252" fill="Col_BGSand" stroke="black" stroke-width="1" transform="rotate(270 1553 326) rotate(360 0 1.4013e-045) flipY(334.505) rotate(180 1279.17 367.814)"/> 
  <g transform="rotate(90 887.1 374.985) rotate(360 0 1.4013e-045) flipY(463.985) flipX(932.6) rotate(90 532.5 456)">
    <rect x="595.985" y="4.9003" width="175" height="88" rx="0" ry="0" fill="Col_Grey4" stroke="black" stroke-width="3"/> 
    <rect x="597.985" y="34.4003" width="170.136" height="27.3031" rx="0" ry="0" fill="url(#PortalHatch1)"/> 
  </g>
  <text x="192" y="948" fill="black" font-size="15" text-anchor="middle">ХОВ</text>
  <text x="194" y="703" fill="black" font-size="15" text-anchor="middle">СЖВ</text>
  <image x="959.041" y="307.576" width="175" height="25" xlink:href="DS_ana.svg">
    <title>10QUG40CQ001</title>
    <rt:dyn type="FKKS" mode="constant" value="&quot;10QUG40CQ001&quot;"/> 
    <rt:dyn type="X" mode="constant" value="&quot;Xн&quot;"/> 
    <rt:dyn type="ShowFrame" mode="constant" value="true"/> 
    <rt:dyn type="Color_Readings" mode="constant" value="true"/> 
    <rt:dyn type="ValueToTheRight" mode="constant" value="false"/> 
  </image>
  <path d="M773.664 238.545 A8.80483 8.80483 0 1 1 773.664 256.155 " fill="none" stroke="black" transform="rotate(90 687.303 118.183) rotate(360 0 1.4013e-045) flipY() translate(0 -828) translate(229.642 442.62)"/> 
  <path d="M733.262 237.768 A8.80483 8.80483 0 1 1 733.262 255.378 " fill="none" stroke="black" transform="rotate(90 687.303 118.183) rotate(360 0 1.4013e-045) flipY() translate(0 -828) translate(229.642 442.62)"/> 
  <line x1="400" y1="433" x2="659.5" y2="433" stroke="black"/> 
  <image x="542.815" y="342" width="70" height="65" xlink:href="DS_CO_valve.svg" transform="rotate(90 0 0) flipY(-10.0003) flipY(-10.0003) flipY(-10.0003) flipX(0.000113544) rotate(90 0 -10)">
    <title>10LDF14AA023</title>
    <rt:dyn type="KKS" mode="constant" value="&quot;10LDF14AA023&quot;"/> 
    <rt:dyn type="DATA_NARY" mode="constant" value="&quot;TPTS&quot;"/> 
    <rt:dyn type="Operate" mode="constant" value="true"/> 
  </image>
  <text x="885.318" y="388.955" fill="black" font-size="15">10LDF14AT001</text>
  <line x1="1167" y1="257" x2="941" y2="257" stroke="black" stroke-width="3"/> 
  <line x1="1166" y1="451.25" x2="1166" y2="258.045" stroke="black" stroke-width="3"/> 
  <path d="M1055.76 276.268 A8.80483 8.80483 0 1 1 1055.76 293.878 " fill="none" stroke="black" transform="rotate(90 687.303 118.183) rotate(360 0 1.4013e-045) flipY() translate(0 -828) translate(229.642 442.62)"/> 
  <path d="M1053.26 736.768 A8.80483 8.80483 0 1 1 1053.26 754.378 " fill="none" stroke="black" transform="rotate(90 687.303 118.183) rotate(360 0 1.4013e-045) flipY() translate(0 -828) translate(229.642 442.62)"/> 
  <path d="M1053.51 844.518 A8.80483 8.80483 0 1 1 1053.51 862.128 " fill="none" stroke="black" transform="rotate(90 687.303 118.183) rotate(360 0 1.4013e-045) flipY() translate(0 -828) translate(229.642 442.62)"/> 
  <text x="234.788" y="240.03" fill="black" font-size="15" text-anchor="middle">КОНТУР<tspan x="234.788" dy="15"/> 
<tspan x="234.788" dy="15"/> 
<tspan x="234.788" dy="15">НАМЫВА</tspan>
  </text>
  <line x1="618.106" y1="195.363" x2="618.106" y2="131.727" stroke="black"/> 
  <line x1="560" y1="194.848" x2="560" y2="131.212" stroke="black"/> 
  <text x="462.757" y="93.151" fill="black" font-size="15" text-anchor="middle">LDF</text>
  <text x="557.273" y="93.151" fill="black" font-size="15" text-anchor="middle">12</text>
  <text x="504.242" y="93.151" fill="black" font-size="15" text-anchor="middle">11</text>
  <text x="616.879" y="93.151" fill="black" font-size="15" text-anchor="middle">13</text>
  <text x="313" y="436.364" fill="black" font-size="15" text-anchor="middle">в 10LDF15BB003</text>
  <image x="290.901" y="281.258" width="75" height="25" xlink:href="obj_link.svg">
    <rt:dyn type="ModName" mode="constant" value="&quot;ldf&quot;"/> 
    <rt:dyn type="TextStr" mode="constant" value="&quot;LDF&quot;"/> 
  </image>
  <image x="290.901" y="204.591" width="75" height="25" xlink:href="obj_link.svg" transform="flipX(37.4999)">
    <rt:dyn type="ModName" mode="constant" value="&quot;ldf&quot;"/> 
    <rt:dyn type="TextStr" mode="constant" value="&quot;LDF&quot;"/> 
  </image>
  <image x="466.091" y="128.721" width="75" height="25" xlink:href="obj_link.svg" transform="rotate(90 37.3618 12.5)">
    <rt:dyn type="ModName" mode="constant" value="&quot;ldf11&quot;"/> 
    <rt:dyn type="TextStr" mode="constant" value="&quot;&quot;"/> 
  </image>
  <image x="523.182" y="128.721" width="75" height="25" xlink:href="obj_link.svg" transform="rotate(90 37.3618 12.5)">
    <rt:dyn type="ModName" mode="constant" value="&quot;ldf12&quot;"/> 
    <rt:dyn type="TextStr" mode="constant" value="&quot;&quot;"/> 
  </image>
  <image x="580.212" y="128.721" width="75" height="25" xlink:href="obj_link.svg" transform="rotate(90 37.3618 12.5)">
    <rt:dyn type="ModName" mode="constant" value="&quot;ldf13&quot;"/> 
    <rt:dyn type="TextStr" mode="constant" value="&quot;&quot;"/> 
  </image>
  <image x="397.909" y="419.212" width="75" height="25" xlink:href="obj_link.svg" transform="flipX(37.4999)">
    <rt:dyn type="ModName" mode="constant" value="&quot;ldf&quot;"/> 
    <rt:dyn type="TextStr" mode="constant" value="&quot;LDF&quot;"/> 
  </image>
  <image x="81.2425" y="515.152" width="75" height="25" xlink:href="obj_link.svg">
    <rt:dyn type="ModName" mode="constant" value="&quot;ldf11&quot;"/> 
    <rt:dyn type="TextStr" mode="constant" value="&quot;LDF11&quot;"/> 
  </image>
  <image x="91.8485" y="704.545" width="75" height="25" xlink:href="obj_link.svg">
    <rt:dyn type="ModName" mode="constant" value="&quot;ldf11&quot;"/> 
    <rt:dyn type="TextStr" mode="constant" value="&quot;LDF11&quot;"/> 
  </image>
  <image x="67.6061" y="945.455" width="75" height="25" xlink:href="obj_link.svg">
    <rt:dyn type="ModName" mode="constant" value="&quot;ldf11&quot;"/> 
    <rt:dyn type="TextStr" mode="constant" value="&quot;LDF11&quot;"/> 
  </image>
  <image x="1816.09" y="212.182" width="75" height="25" xlink:href="obj_link.svg" transform="flipY(12.3617) rotate(90 37.3618 12.5)">
    <rt:dyn type="ModName" mode="constant" value="&quot;ldf11&quot;"/> 
    <rt:dyn type="TextStr" mode="constant" value="&quot;&quot;"/> 
  </image>
</svg>
