<?xml  version="1.0" encoding="windows-1251"?>
<svg color="Col_BGSand" xmlns="http://www.w3.org/2000/svg" xmlns:rt="http://www.rts.co.at/2001/XMLSchema/RtSvgPL" xmlns:xlink="http://www.w3.org/1999/xlink" xmlns:xsi="http://www.w3.org/2001/XMLSchema-instance" xsi:schemaLocation="http://www.w3.org/2000/svg C:\RTS\RtSvg\XML\SVG.xsd" viewBox="0 0 1914 1000" width="1914" height="1000" id="ldf12">
  <title>Cистема обезжелезования и обессоливания конденсата турбины</title>
  <rt:model modelversion="7.2.0.23" comment="Создано  19.03.2012 11:58:10"/> 
  <line x1="1133" y1="386" x2="1018.91" y2="386" stroke="black"/> 
  <line x1="669.606" y1="293.939" x2="314" y2="293.939" stroke="black"/> 
  <line x1="855.94" y1="435" x2="676.667" y2="435" stroke="black"/> 
  <line x1="505" y1="393.258" x2="658" y2="393.258" stroke="black"/> 
  <line x1="942" y1="526.758" x2="942" y2="255.545" stroke="black" stroke-width="3"/> 
  <line x1="1453" y1="453" x2="1453" y2="194" stroke="black"/> 
  <text x="920.636" y="54.5455" font-size="32">LDF12</text>
  <image x="954.946" y="337.879" width="175" height="25" xlink:href="DS_ana.svg">
    <title>10LDF12CP003</title>
    <rt:dyn type="FKKS" mode="constant" value="&quot;10LDF12CP003&quot;"/> 
    <rt:dyn type="X" mode="constant" value="&quot;P&quot;"/> 
    <rt:dyn type="ShowFrame" mode="constant" value="true"/> 
    <rt:dyn type="Color_Readings" mode="constant" value="true"/> 
    <rt:dyn type="ValueToTheRight" mode="constant" value="false"/> 
  </image>
  <line x1="1167" y1="257" x2="941" y2="257" stroke="black" stroke-width="3"/> 
  <line x1="872" y1="378.838" x2="872" y2="266.671" stroke="black"/> 
  <image x="826.318" y="292.99" width="70" height="65" xlink:href="DS_CO_valve.svg" transform="flipX(0.000113544) rotate(90 0 -10)">
    <title>10LDF12AA019</title>
    <rt:dyn type="KKS" mode="constant" value="&quot;10LDF12AA019&quot;"/> 
    <rt:dyn type="DATA_NARY" mode="constant" value="&quot;TPTS&quot;"/> 
    <rt:dyn type="Operate" mode="constant" value="true"/> 
  </image>
  <text x="697.818" y="325.758" font-size="15">10LDF12AA019</text>
  <image x="760" y="495.333" width="175" height="25" xlink:href="DS_ana.svg">
    <title>10LDF12CP002</title>
    <rt:dyn type="FKKS" mode="constant" value="&quot;10LDF12CP002&quot;"/> 
    <rt:dyn type="X" mode="constant" value="&quot;dP&quot;"/> 
    <rt:dyn type="ShowFrame" mode="constant" value="true"/> 
    <rt:dyn type="Color_Readings" mode="constant" value="true"/> 
    <rt:dyn type="ValueToTheRight" mode="constant" value="false"/> 
  </image>
  <line x1="1132" y1="386.333" x2="1132" y2="715" stroke="black"/> 
  <image x="1087.62" y="566.561" width="70" height="65" xlink:href="DS_CO_valve.svg" transform="flipY(-10.0003) flipY(-10.0003) flipX(0.000113544) rotate(90 0 -10)">
    <title>10LDF12AA005</title>
    <rt:dyn type="KKS" mode="constant" value="&quot;10LDF12AA005&quot;"/> 
    <rt:dyn type="DATA_NARY" mode="constant" value="&quot;TPTS&quot;"/> 
    <rt:dyn type="Operate" mode="constant" value="true"/> 
  </image>
  <text x="960.727" y="603" font-size="15">10LDF12AA005</text>
  <image x="531.243" y="342.121" width="70" height="65" xlink:href="DS_CO_valve.svg" transform="rotate(90 0 0) flipY(-10.0003) flipY(-10.0003) flipY(-10.0003) flipX(0.000113544) rotate(90 0 -10)">
    <title>10LDF12AA023</title>
    <rt:dyn type="KKS" mode="constant" value="&quot;10LDF12AA023&quot;"/> 
    <rt:dyn type="DATA_NARY" mode="constant" value="&quot;TPTS&quot;"/> 
    <rt:dyn type="Operate" mode="constant" value="true"/> 
  </image>
  <text x="708.515" y="469.667" font-size="15">10LDF12AA022</text>
  <text x="523.667" y="348.454" font-size="15">10LDF12AA023</text>
  <image x="949" y="495.333" width="175" height="25" xlink:href="DS_ana.svg">
    <title>10LDF12CP001</title>
    <rt:dyn type="FKKS" mode="constant" value="&quot;10LDF12CP001&quot;"/> 
    <rt:dyn type="X" mode="constant" value="&quot;P&quot;"/> 
    <rt:dyn type="ShowFrame" mode="constant" value="true"/> 
    <rt:dyn type="Color_Readings" mode="constant" value="true"/> 
    <rt:dyn type="ValueToTheRight" mode="constant" value="false"/> 
  </image>
  <line x1="1635.54" y1="432.879" x2="1549.85" y2="432.879" stroke="black"/> 
  <image x="1569" y="486.242" width="175" height="25" xlink:href="DS_ana.svg">
    <title>10LDF12CP005</title>
    <rt:dyn type="FKKS" mode="constant" value="&quot;10LDF12CP005&quot;"/> 
    <rt:dyn type="X" mode="constant" value="&quot;P&quot;"/> 
    <rt:dyn type="ShowFrame" mode="constant" value="true"/> 
    <rt:dyn type="Color_Readings" mode="constant" value="true"/> 
    <rt:dyn type="ValueToTheRight" mode="constant" value="false"/> 
  </image>
  <line x1="1852.48" y1="450" x2="1164" y2="450" stroke="black" stroke-width="3"/> 
  <image x="1779.21" y="407.758" width="70" height="65" xlink:href="DS_CO_valve.svg">
    <title>10LDF12AA004</title>
    <rt:dyn type="KKS" mode="constant" value="&quot;10LDF12AA004&quot;"/> 
    <rt:dyn type="DATA_NARY" mode="constant" value="&quot;TPTS&quot;"/> 
    <rt:dyn type="Operate" mode="constant" value="true"/> 
  </image>
  <text x="1709.94" y="405.212" font-size="15">10LDF12AA004</text>
  <image x="1314.58" y="408.243" width="70" height="65" xlink:href="DS_CO_valve.svg" transform="flipX(2.17799e-007)">
    <title>10LDF12AA003</title>
    <rt:dyn type="KKS" mode="constant" value="&quot;10LDF12AA003&quot;"/> 
    <rt:dyn type="DATA_NARY" mode="constant" value="&quot;TPTS&quot;"/> 
    <rt:dyn type="Operate" mode="constant" value="true"/> 
  </image>
  <text x="1290.33" y="404.697" font-size="15">10LDF12AA003</text>
  <text x="1478.21" y="407.212" fill="black" font-size="15">10LDF12AT002</text>
  <line x1="676.667" y1="394.258" x2="888.502" y2="394.258" stroke="black"/> 
  <image x="731.24" y="392.485" width="70" height="65" xlink:href="DS_CO_valve.svg" transform="flipX(-5.43088e-005)">
    <title>10LDF12AA022</title>
    <rt:dyn type="KKS" mode="constant" value="&quot;10LDF12AA022&quot;"/> 
    <rt:dyn type="DATA_NARY" mode="constant" value="&quot;TPTS&quot;"/> 
    <rt:dyn type="Operate" mode="constant" value="true"/> 
    <rt:dyn type="Drive" mode="constant" value="&quot;solenoid&quot;"/> 
  </image>
  <line x1="1272.11" y1="451.515" x2="1272.11" y2="959.091" stroke="black"/> 
  <text x="1293.88" y="791.848" font-size="15">10LDF12AA016</text>
  <line x1="1166" y1="452.333" x2="1166" y2="901" stroke="black"/> 
  <image x="1121.26" y="753.392" width="70" height="65" xlink:href="DS_CO_valve.svg" transform="flipY(-10.0003) flipX(0.000113544) rotate(90 0 -10)">
    <title>10LDF12AA007</title>
    <rt:dyn type="KKS" mode="constant" value="&quot;10LDF12AA007&quot;"/> 
    <rt:dyn type="DATA_NARY" mode="constant" value="&quot;TPTS&quot;"/> 
    <rt:dyn type="Operate" mode="constant" value="true"/> 
  </image>
  <text x="994.45" y="791.848" font-size="15">10LDF12AA007</text>
  <line x1="1175" y1="715.339" x2="1264.42" y2="715.339" stroke="black"/> 
  <line x1="704.97" y1="526" x2="704.97" y2="900.002" stroke="black"/> 
  <image x="659.55" y="566.561" width="70" height="65" xlink:href="DS_CO_valve.svg" transform="flipY(-10.0003) flipY(-10.0003) flipX(0.000113544) rotate(90 0 -10)">
    <title>10LDF12AA006</title>
    <rt:dyn type="KKS" mode="constant" value="&quot;10LDF12AA006&quot;"/> 
    <rt:dyn type="DATA_NARY" mode="constant" value="&quot;TPTS&quot;"/> 
    <rt:dyn type="Operate" mode="constant" value="true"/> 
  </image>
  <text x="725.727" y="603" font-size="15">10LDF12AA006</text>
  <image x="659.55" y="753.392" width="70" height="65" xlink:href="DS_Reg_valve.svg" transform="flipY(-10.0001) rotate(270 0 -10)">
    <title>10LDF12AA202</title>
    <rt:dyn type="KKS" mode="constant" value="&quot;10LDF12AA202&quot;"/> 
    <rt:dyn type="DATA_NARY" mode="constant" value="&quot;TPTS&quot;"/> 
    <rt:dyn type="Operate" mode="constant" value="true"/> 
  </image>
  <image x="586.79" y="768.395" width="65" height="25" xlink:href="DS_Reg_degree.svg">
    <title>10LDF12AA202</title>
    <rt:dyn type="KKS" mode="constant" value="&quot;10LDF12AA202&quot;"/> 
  </image>
  <text x="725.727" y="791.848" font-size="15">10LDF12AA202</text>
  <image x="1226.71" y="753.392" width="70" height="65" xlink:href="DS_CO_valve.svg" transform="flipY(-10.0003) flipX(0.000113544) rotate(90 0 -10)">
    <title>10LDF12AA016</title>
    <rt:dyn type="KKS" mode="constant" value="&quot;10LDF12AA016&quot;"/> 
    <rt:dyn type="DATA_NARY" mode="constant" value="&quot;TPTS&quot;"/> 
    <rt:dyn type="Operate" mode="constant" value="true"/> 
  </image>
  <line x1="703.97" y1="899.485" x2="1166" y2="900.425" stroke="black"/> 
  <image x="914.758" y="865.607" width="70" height="70" xlink:href="DS_motor.svg" transform="flipX(-4.95135e-005)">
    <title>10LDF12AP001</title>
    <rt:dyn type="KKS" mode="constant" value="&quot;10LDF12AP001&quot;"/> 
    <rt:dyn type="DATA_NARY" mode="constant" value="&quot;TPTS&quot;"/> 
    <rt:dyn type="Operate" mode="constant" value="true"/> 
  </image>
  <text x="887.485" y="862.576" font-size="15">10LDF12AP001</text>
  <image x="987.36" y="869.727" width="175" height="25" xlink:href="DS_ana.svg">
    <title>10LDF12CP006</title>
    <rt:dyn type="FKKS" mode="constant" value="&quot;10LDF12CP006&quot;"/> 
    <rt:dyn type="X" mode="constant" value="&quot;P&quot;"/> 
    <rt:dyn type="ShowFrame" mode="constant" value="true"/> 
    <rt:dyn type="Color_Readings" mode="constant" value="true"/> 
    <rt:dyn type="ValueToTheRight" mode="constant" value="false"/> 
  </image>
  <image x="733" y="869.727" width="175" height="25" xlink:href="DS_ana.svg">
    <title>10LDF12CP007</title>
    <rt:dyn type="FKKS" mode="constant" value="&quot;10LDF12CP007&quot;"/> 
    <rt:dyn type="X" mode="constant" value="&quot;P&quot;"/> 
    <rt:dyn type="ShowFrame" mode="constant" value="true"/> 
    <rt:dyn type="Color_Readings" mode="constant" value="true"/> 
    <rt:dyn type="ValueToTheRight" mode="constant" value="false"/> 
  </image>
  <image x="733" y="903.667" width="175" height="25" xlink:href="DS_ana.svg">
    <title>10LDF12CF002</title>
    <rt:dyn type="FKKS" mode="constant" value="&quot;10LDF12CF002&quot;"/> 
    <rt:dyn type="X" mode="constant" value="&quot;F&quot;"/> 
    <rt:dyn type="ShowFrame" mode="constant" value="true"/> 
    <rt:dyn type="Color_Readings" mode="constant" value="true"/> 
    <rt:dyn type="ValueToTheRight" mode="constant" value="false"/> 
  </image>
  <image x="553" y="554" width="65" height="25" xlink:href="DS_Reg_degree.svg">
    <title>10LDF12AA201</title>
    <rt:dyn type="KKS" mode="constant" value="&quot;10LDF12AA201&quot;"/> 
  </image>
  <text x="532.758" y="479.333" font-size="15">10LDF12AA201</text>
  <line x1="941.848" y1="525" x2="184.273" y2="525" stroke="black" stroke-width="3"/> 
  <image x="581.818" y="471.757" width="70" height="65" xlink:href="DS_Reg_valve.svg" transform="flipX(-10.0009) flipX(10.0005) rotate(90 0 0) flipY(-10.0001) rotate(270 0 -10)">
    <title>10LDF12AA201</title>
    <rt:dyn type="KKS" mode="constant" value="&quot;10LDF12AA201&quot;"/> 
    <rt:dyn type="DATA_NARY" mode="constant" value="&quot;TPTS&quot;"/> 
    <rt:dyn type="Operate" mode="constant" value="true"/> 
  </image>
  <line x1="669" y1="523" x2="669" y2="294.425" stroke="black"/> 
  <image x="541.375" y="241" width="70" height="65" xlink:href="DS_CO_valve.svg" transform="rotate(90 0 0) flipY(-10.0003) flipY(-10.0003) flipX(0.000113544) rotate(90 0 -10)">
    <title>10LDF12AA020</title>
    <rt:dyn type="KKS" mode="constant" value="&quot;10LDF12AA020&quot;"/> 
    <rt:dyn type="DATA_NARY" mode="constant" value="&quot;TPTS&quot;"/> 
    <rt:dyn type="Operate" mode="constant" value="true"/> 
  </image>
  <text x="532.625" y="248.25" font-size="15">10LDF12AA020</text>
  <line x1="1220" y1="452.515" x2="1220" y2="217.667" stroke="black"/> 
  <image x="1176.86" y="245.228" width="70" height="65" xlink:href="DS_CO_valve.svg" transform="flipX(0.000113544) rotate(90 0 -10)">
    <title>10LDF12AA021</title>
    <rt:dyn type="KKS" mode="constant" value="&quot;10LDF12AA021&quot;"/> 
    <rt:dyn type="DATA_NARY" mode="constant" value="&quot;TPTS&quot;"/> 
    <rt:dyn type="Operate" mode="constant" value="true"/> 
  </image>
  <text x="1242.91" y="279.943" font-size="15">10LDF12AA021</text>
  <image x="1408.05" y="245.595" width="70" height="65" xlink:href="DS_CO_valve.svg" transform="flipX(0.000113544) rotate(90 0 -10)">
    <title>10LDF12AA013</title>
    <rt:dyn type="KKS" mode="constant" value="&quot;10LDF12AA013&quot;"/> 
    <rt:dyn type="DATA_NARY" mode="constant" value="&quot;TPTS&quot;"/> 
    <rt:dyn type="Operate" mode="constant" value="true"/> 
  </image>
  <text x="1475.09" y="279.943" font-size="15">10LDF12AA013</text>
  <line x1="1635" y1="433.501" x2="1635" y2="264" stroke="black"/> 
  <image x="1588.83" y="325.668" width="70" height="65" xlink:href="DS_CO_valve.svg" transform="flipX(0.000113544) rotate(90 0 -10)">
    <title>10LDF12AA018</title>
    <rt:dyn type="KKS" mode="constant" value="&quot;10LDF12AA018&quot;"/> 
    <rt:dyn type="DATA_NARY" mode="constant" value="&quot;TPTS&quot;"/> 
    <rt:dyn type="Operate" mode="constant" value="true"/> 
  </image>
  <text x="1656.03" y="356.107" font-size="15">10LDF12AA018</text>
  <image x="1498.7" y="515.091" width="175" height="25" xlink:href="DS_ana.svg">
    <title>10LDF12CP004</title>
    <rt:dyn type="FKKS" mode="constant" value="&quot;10LDF12CP004&quot;"/> 
    <rt:dyn type="X" mode="constant" value="&quot;dP&quot;"/> 
    <rt:dyn type="ShowFrame" mode="constant" value="true"/> 
    <rt:dyn type="Color_Readings" mode="constant" value="true"/> 
    <rt:dyn type="ValueToTheRight" mode="constant" value="false"/> 
  </image>
  <image x="1474.67" y="550.091" width="160" height="75" xlink:href="DS_TPTS_VL_spec.svg">
    <rt:dyn type="KKS" mode="constant" value="&quot;10LDF12CH001LVL0&quot;"/> 
    <rt:dyn type="Operate" mode="constant" value="true"/> 
  </image>
  <image x="1326.55" y="538.697" width="110" height="30" xlink:href="DS_TPTS_TZB_universal.svg">
    <title>10LDF12EZ002TE0</title>
    <rt:dyn type="KKS" mode="constant" value="&quot;10LDF12EZ002TE0&quot;"/> 
    <rt:dyn type="Operate" mode="constant" value="true"/> 
  </image>
  <text x="1331.55" y="535.697" font-size="15">откл защиты</text>
  <line x1="1747.35" y1="451.515" x2="1747.35" y2="712.121" stroke="black"/> 
  <line x1="1280.73" y1="714.485" x2="1748.06" y2="711.546" stroke="black"/> 
  <image x="1642.61" y="669.03" width="70" height="65" xlink:href="DS_CO_valve.svg" transform="flipX(1.01409e-005)">
    <title>10LDF12AA011</title>
    <rt:dyn type="KKS" mode="constant" value="&quot;10LDF12AA011&quot;"/> 
    <rt:dyn type="DATA_NARY" mode="constant" value="&quot;TPTS&quot;"/> 
    <rt:dyn type="Operate" mode="constant" value="true"/> 
  </image>
  <text x="1609.58" y="746.969" font-size="15">10LDF12AA011</text>
  <image x="1326.55" y="649.909" width="110" height="30" xlink:href="DS_TPTS_TZB_universal.svg">
    <title>10LDF12CH001KTE0</title>
    <rt:dyn type="KKS" mode="constant" value="&quot;10LDF12CH001KTE0&quot;"/> 
    <rt:dyn type="Operate" mode="constant" value="true"/> 
  </image>
  <text x="1277" y="644.909" font-size="15">разр выбора режимов откл</text>
  <image x="1326.55" y="596.031" width="110" height="30" xlink:href="DS_TPTS_TE_spec.svg">
    <title>10LDF12CH001MTE0</title>
    <rt:dyn type="KKS" mode="constant" value="&quot;10LDF12CH001MTE0&quot;"/> 
  </image>
  <g fill="none" transform="rotate(270 867.174 707.778)">
    <circle cx="1125.68" cy="1397.38" r="35.4988" fill="Col_Grey4" stroke="black" stroke-width="3"/> 
    <line x1="1092.17" y1="1388" x2="1158.17" y2="1388" stroke="black" stroke-width="3"/> 
    <line x1="1093.17" y1="1406" x2="1159.17" y2="1406" stroke="black" stroke-width="3"/> 
    <line x1="1101.17" y1="1387" x2="1090.17" y2="1401" stroke="black"/> 
    <line x1="1108.17" y1="1389" x2="1094.17" y2="1407" stroke="black"/> 
    <line x1="1117.17" y1="1389" x2="1103.17" y2="1407" stroke="black"/> 
    <line x1="1125.17" y1="1389" x2="1111.17" y2="1407" stroke="black"/> 
    <line x1="1135.17" y1="1387" x2="1121.17" y2="1405" stroke="black"/> 
    <line x1="1142.17" y1="1388" x2="1128.17" y2="1406" stroke="black"/> 
    <line x1="1150.17" y1="1388" x2="1136.17" y2="1406" stroke="black"/> 
    <line x1="1160.17" y1="1386" x2="1143.8" y2="1406.9" stroke="black"/> 
    <line x1="1151.8" y1="1405.9" x2="1161.17" y2="1394" stroke="black"/> 
  </g>
  <text x="1320.94" y="591.758" font-size="15">откл установки</text>
  <line x1="1158" y1="714.485" x2="714.576" y2="716.667" stroke="black"/> 
  <line x1="504" y1="149" x2="504" y2="211.754" stroke="black"/> 
  <line x1="503" y1="303.329" x2="503" y2="431.818" stroke="black"/> 
  <line x1="504.119" y1="229" x2="504.119" y2="287.027" stroke="black"/> 
  <line x1="1770.67" y1="451.515" x2="1770.67" y2="961.909" stroke="black"/> 
  <image x="1725.26" y="792.439" width="70" height="65" xlink:href="DS_CO_valve.svg" transform="flipX(0.000113544) rotate(90 0 -10)">
    <title>10LDF12AA017</title>
    <rt:dyn type="KKS" mode="constant" value="&quot;10LDF12AA017&quot;"/> 
    <rt:dyn type="DATA_NARY" mode="constant" value="&quot;TPTS&quot;"/> 
    <rt:dyn type="Operate" mode="constant" value="true"/> 
  </image>
  <text x="1599.42" y="834.848" font-size="15">10LDF12AA017</text>
  <line x1="172.151" y1="846" x2="587.303" y2="846" stroke="black"/> 
  <image x="373.667" y="496.97" width="175" height="25" xlink:href="DS_ana.svg">
    <title>10LDF12CF001</title>
    <rt:dyn type="FKKS" mode="constant" value="&quot;10LDF12CF001&quot;"/> 
    <rt:dyn type="X" mode="constant" value="&quot;F&quot;"/> 
    <rt:dyn type="ShowFrame" mode="constant" value="true"/> 
    <rt:dyn type="Color_Readings" mode="constant" value="true"/> 
    <rt:dyn type="ValueToTheRight" mode="constant" value="false"/> 
  </image>
  <image x="266.088" y="482.879" width="70" height="65" xlink:href="DS_CO_valve.svg" transform="flipX(-2.34484e-005)">
    <title>10LDF12AA002</title>
    <rt:dyn type="KKS" mode="constant" value="&quot;10LDF12AA002&quot;"/> 
    <rt:dyn type="DATA_NARY" mode="constant" value="&quot;TPTS&quot;"/> 
    <rt:dyn type="Operate" mode="constant" value="true"/> 
  </image>
  <text x="241.848" y="563.333" font-size="15">10LDF12AA002</text>
  <line x1="585.788" y1="843.939" x2="585.788" y2="962.121" stroke="black"/> 
  <line x1="585.788" y1="960.515" x2="1770.64" y2="960.515" stroke="black"/> 
  <line x1="1452.45" y1="194.303" x2="502.454" y2="194.303" stroke="black"/> 
  <line x1="1220.64" y1="218" x2="323" y2="218" stroke="black"/> 
  <line x1="1853" y1="240.909" x2="1853" y2="451.515" stroke="black" stroke-width="3"/> 
  <image x="1303.45" y="887.849" width="25" height="25" xlink:href="bin_indicator.svg">
    <title>10LDF12CH001K_XA41</title>
    <rt:dyn type="PointID" mode="constant" value="&quot;10LDF12CH001K_XA41&quot;"/> 
  </image>
  <text x="1333.45" y="906.849" font-size="15">РАЗР ВЫБОРА РЕЖИМОВ ВКЛ</text>
  <image x="1303.45" y="914.849" width="25" height="25" xlink:href="bin_indicator.svg">
    <title>10LDF12CH001K_XA42</title>
    <rt:dyn type="PointID" mode="constant" value="&quot;10LDF12CH001K_XA42&quot;"/> 
  </image>
  <text x="1333.45" y="933.849" font-size="15">РАЗР ВЫБОРА РЕЖИМОВ ОТКЛ</text>
  <image x="1303.45" y="835.849" width="25" height="25" xlink:href="bin_indicator.svg">
    <title>10LDF12CH001M_XA41</title>
    <rt:dyn type="PointID" mode="constant" value="&quot;10LDF12CH001M_XA41&quot;"/> 
  </image>
  <text x="1334.45" y="854.849" font-size="15">ОТКЛ. УСТ</text>
  <image x="1303.45" y="859.849" width="25" height="25" xlink:href="bin_indicator.svg">
    <title>10LDF12CH001M_XA42</title>
    <rt:dyn type="PointID" mode="constant" value="&quot;10LDF12CH001M_XA42&quot;"/> 
  </image>
  <text x="1334.45" y="878.849" font-size="15">РАЗР. ВКЛ</text>
  <line x1="155.485" y1="716.667" x2="700.939" y2="716.667" stroke="black"/> 
  <polygon points="947.278,476.233 959.475,482.391 959.475,467.104 946.095,474.748" fill="Col_BGSand" stroke="black" stroke-width="1" transform="rotate(270 1553 326) rotate(360 0 1.4013e-045) flipY(334.505) rotate(180 1279.17 367.814)"/> 
  <polygon points="934.278,-286.767 946.475,-280.608 946.475,-295.896 933.095,-288.251" fill="Col_BGSand" stroke="black" stroke-width="1" transform="rotate(270 1553 326) rotate(360 0 1.4013e-045) flipY(334.505) rotate(180 1279.17 367.814)"/> 
  <g transform="rotate(90 887.1 374.985) rotate(360 0 1.4013e-045) flipY(463.985) flipX(932.6) rotate(90 532.5 456)">
    <rect x="593.985" y="5.90106" width="175" height="88" rx="0" ry="0" fill="Col_Grey4" stroke="black" stroke-width="3"/> 
    <rect x="595.985" y="35.4011" width="170.136" height="27.3031" rx="0" ry="0" fill="url(#PortalHatch1)"/> 
  </g>
  <image x="954.946" y="306.606" width="175" height="25" xlink:href="DS_ana.svg">
    <title>10QUG20CQ001</title>
    <rt:dyn type="FKKS" mode="constant" value="&quot;10QUG20CQ001&quot;"/> 
    <rt:dyn type="X" mode="constant" value="&quot;Xн&quot;"/> 
    <rt:dyn type="ShowFrame" mode="constant" value="true"/> 
    <rt:dyn type="Color_Readings" mode="constant" value="true"/> 
    <rt:dyn type="ValueToTheRight" mode="constant" value="false"/> 
  </image>
  <text x="249.425" y="835.879" fill="black" font-size="15" text-anchor="middle">ХОВ</text>
  <text x="246.394" y="707.576" fill="black" font-size="15" text-anchor="middle">СЖВ</text>
  <text x="874" y="390" fill="black" font-size="15">10LDF12AT001</text>
  <line x1="1166" y1="450" x2="1166" y2="257.141" stroke="black" stroke-width="3"/> 
  <path d="M732.664 238.697 A8.80483 8.80483 0 1 1 732.664 256.307 " fill="none" stroke="black" transform="rotate(90 687.303 118.183) rotate(360 0 1.4013e-045) flipY() translate(0 -828) translate(229.642 442.62)"/> 
  <path d="M773.512 239.393 A8.80483 8.80483 0 1 1 773.512 257.003 " fill="none" stroke="black" transform="rotate(90 687.303 118.183) rotate(360 0 1.4013e-045) flipY() translate(0 -828) translate(229.642 442.62)"/> 
  <line x1="660" y1="433" x2="400" y2="433" stroke="black"/> 
  <path d="M1055.51 276.393 A8.80483 8.80483 0 1 1 1055.51 294.003 " fill="none" stroke="black" transform="rotate(90 687.303 118.183) rotate(360 0 1.4013e-045) flipY() translate(0 -828) translate(229.642 442.62)"/> 
  <path d="M274.907 81.9377 A8.80483 8.80483 0 1 1 274.907 99.5477 " fill="none" stroke="black" transform="flipY() translate(0 -828) translate(229.642 442.62)"/> 
  <path d="M273.392 156.15 A8.80483 8.80483 0 1 1 273.392 173.76 " fill="none" stroke="black" transform="flipY() translate(0 -828) translate(229.642 442.62)"/> 
  <path d="M1054.24 737.393 A8.80483 8.80483 0 1 1 1054.24 755.003 " fill="none" stroke="black" transform="rotate(90 687.303 118.183) rotate(360 0 1.4013e-045) flipY() translate(0 -828) translate(229.642 442.62)"/> 
  <path d="M1054.66 843.453 A8.80483 8.80483 0 1 1 1054.66 861.063 " fill="none" stroke="black" transform="rotate(90 687.303 118.183) rotate(360 0 1.4013e-045) flipY() translate(0 -828) translate(229.642 442.62)"/> 
  <text x="229.667" y="238.576" fill="black" font-size="15" text-anchor="middle">КОНТУР<tspan x="229.667" dy="15"/> 
<tspan x="229.667" dy="15"/> 
<tspan x="229.667" dy="15">НАМЫВА</tspan>
  </text>
  <line x1="630.106" y1="195.363" x2="630.106" y2="131.727" stroke="black"/> 
  <line x1="572" y1="194.848" x2="572" y2="131.212" stroke="black"/> 
  <text x="467.757" y="109.151" fill="black" font-size="15" text-anchor="middle">LDF</text>
  <text x="567.273" y="84.151" fill="black" font-size="15" text-anchor="middle">13</text>
  <text x="628.879" y="84.151" fill="black" font-size="15" text-anchor="middle">14</text>
  <text x="502" y="84.151" fill="black" font-size="15" text-anchor="middle">11</text>
  <text x="305" y="438" fill="black" font-size="15" text-anchor="middle">в 10LDF15BB003</text>
  <text x="1807.45" y="228.061" fill="black" font-size="15" text-anchor="middle">LDF11</text>
  <image x="287.526" y="281.743" width="75" height="25" xlink:href="obj_link.svg">
    <rt:dyn type="ModName" mode="constant" value="&quot;ldf&quot;"/> 
    <rt:dyn type="TextStr" mode="constant" value="&quot;LDF&quot;"/> 
  </image>
  <image x="272.375" y="208.076" width="75" height="25" xlink:href="obj_link.svg" transform="flipX(37.4999)">
    <rt:dyn type="ModName" mode="constant" value="&quot;ldf&quot;"/> 
    <rt:dyn type="TextStr" mode="constant" value="&quot;LDF&quot;"/> 
  </image>
  <image x="465.576" y="124.986" width="75" height="25" xlink:href="obj_link.svg" transform="rotate(90 37.3618 12.5)">
    <rt:dyn type="ModName" mode="constant" value="&quot;ldf11&quot;"/> 
    <rt:dyn type="TextStr" mode="constant" value="&quot;&quot;"/> 
  </image>
  <image x="532.758" y="124.986" width="75" height="25" xlink:href="obj_link.svg" transform="rotate(90 37.3618 12.5)">
    <rt:dyn type="ModName" mode="constant" value="&quot;ldf13&quot;"/> 
    <rt:dyn type="TextStr" mode="constant" value="&quot;&quot;"/> 
  </image>
  <image x="593.364" y="124.986" width="75" height="25" xlink:href="obj_link.svg" transform="rotate(90 37.3618 12.5)">
    <rt:dyn type="ModName" mode="constant" value="&quot;ldf14&quot;"/> 
    <rt:dyn type="TextStr" mode="constant" value="&quot;&quot;"/> 
  </image>
  <image x="396.394" y="420.727" width="75" height="25" xlink:href="obj_link.svg" transform="flipX(37.4999)">
    <rt:dyn type="ModName" mode="constant" value="&quot;ldf&quot;"/> 
    <rt:dyn type="TextStr" mode="constant" value="&quot;LDF&quot;"/> 
  </image>
  <image x="118.621" y="512.121" width="75" height="25" xlink:href="obj_link.svg">
    <rt:dyn type="ModName" mode="constant" value="&quot;ldf11&quot;"/> 
    <rt:dyn type="TextStr" mode="constant" value="&quot;LDF11&quot;"/> 
  </image>
  <image x="118.621" y="703.03" width="75" height="25" xlink:href="obj_link.svg">
    <rt:dyn type="ModName" mode="constant" value="&quot;ldf11&quot;"/> 
    <rt:dyn type="TextStr" mode="constant" value="&quot;LDF11&quot;"/> 
  </image>
  <image x="118.621" y="834.848" width="75" height="25" xlink:href="obj_link.svg">
    <rt:dyn type="ModName" mode="constant" value="&quot;ldf11&quot;"/> 
    <rt:dyn type="TextStr" mode="constant" value="&quot;LDF11&quot;"/> 
  </image>
  <image x="1814.09" y="204.545" width="75" height="25" xlink:href="obj_link.svg" transform="flipY(12.362) rotate(90 37.3618 12.5)">
    <rt:dyn type="ModName" mode="constant" value="&quot;ldf11&quot;"/> 
    <rt:dyn type="TextStr" mode="constant" value="&quot;&quot;"/> 
  </image>
</svg>
