<?xml  version="1.0" encoding="windows-1251"?>
<svg color="Col_BGSand" xmlns="http://www.w3.org/2000/svg" xmlns:rt="http://www.rts.co.at/2001/XMLSchema/RtSvgPL" xmlns:xlink="http://www.w3.org/1999/xlink" xmlns:xsi="http://www.w3.org/2001/XMLSchema-instance" xsi:schemaLocation="http://www.w3.org/2000/svg C:\RTS\RtSvg\XML\SVG.xsd" viewBox="0 0 1914 1000" width="1914" height="1000" id="pah">
  <rt:model modelversion="7.2.0.23" comment="—ÓÁ‰‡ÌÓ 10CWE40\PLS 23.05.2013 12:01:52"/> 
  <g transform="flipX(886.545) flipX(666.848) scale(1.51 1.12 1335.03 165.152)">
    <polyline points="1333.87,35.9432 1558.87,35.9432 1558.87,115.943 1708.87,115.943 1708.87,35.9432 1908.89,35.9432 1908.29,220.103 1556.63,220.103 1533.87,240.943 1508.87,240.943 1508.87,265.943 1413.87,265.943 1413.87,239.943 1382.37,239.443 1333.87,188.943 1333.73,35.8761" fill="Col_Grey4" stroke="black" transform="flipX(1378.5) flipX(337.5) flipX(337.5)"/> 
  </g>
  <line x1="102.985" y1="453.763" x2="102.985" y2="751" stroke="black"/> 
  <line x1="293" y1="453.763" x2="293" y2="724.263" stroke="black"/> 
  <line x1="1158.79" y1="374" x2="1140" y2="374" stroke="black"/> 
  <g transform="flipX(666.848) scale(1.51 1.12 1335.03 165.152)">
    <polyline points="1428.57,34.428 1653.57,34.428 1653.57,114.428 1803.57,114.428 1803.57,34.428 2003.59,34.428 2002.99,218.588 1651.33,218.588 1628.57,239.428 1603.57,239.428 1603.57,264.428 1508.57,264.428 1508.57,238.428 1477.07,237.928 1428.57,187.428 1428.43,34.3609" fill="Col_Grey4" stroke="black" transform="flipX(1378.5) flipX(337.5) flipX(337.5)"/> 
  </g>
  <line x1="1807.5" y1="392.255" x2="1807.75" y2="416.505" stroke="black" stroke-width="3"/> 
  <line x1="1618.25" y1="392.255" x2="1618.5" y2="416.505" stroke="black" stroke-width="3"/> 
  <line x1="1807.5" y1="455.75" x2="1808" y2="751" stroke="black"/> 
  <line x1="1621" y1="455.25" x2="1621" y2="725.75" stroke="black"/> 
  <line x1="698" y1="445" x2="698" y2="445" stroke="black"/> 
  <line x1="411" y1="410" x2="411" y2="410" stroke="black"/> 
  <line x1="448" y1="700" x2="448" y2="700" stroke="black"/> 
  <line x1="400" y1="499" x2="400" y2="499" stroke="black"/> 
  <line x1="400" y1="451" x2="400" y2="451" stroke="black"/> 
  <line x1="358" y1="850" x2="358" y2="850" stroke="black"/> 
  <line x1="82" y1="955" x2="82" y2="955" stroke="black"/> 
  <line x1="585" y1="665" x2="585" y2="665" stroke="black"/> 
  <text x="150" y="76" font-size="15">MAG 10</text>
  <text x="691.5" y="76" font-size="15">MAG 20</text>
  <rect x="154" y="413.5" width="2" height="0" rx="0" ry="0"/> 
  <rect x="293" y="444" width="0.1" height="0" rx="0" ry="0"/> 
  <image x="140.9" y="501.5" width="0.1" height="50" xlink:href="bin_pump_1.svg" transform="rotate(90 0 0)"/> 
  <line x1="479" y1="477" x2="483" y2="475"/> 
  <line x1="616.25" y1="408" x2="616.25" y2="424.25" stroke="black" stroke-width="3"/> 
  <line x1="810.5" y1="405.5" x2="810.5" y2="421.75" stroke="black"/> 
  <line x1="566.5" y1="312.5" x2="566.5" y2="312.5" stroke="black"/> 
  <line x1="559.5" y1="315.5" x2="559.5" y2="315.5" stroke="black"/> 
  <line x1="514" y1="213.75" x2="514" y2="213.75" stroke="black"/> 
  <line x1="523.25" y1="190" x2="523.25" y2="190" stroke="black"/> 
  <line x1="507.75" y1="194.25" x2="507.75" y2="194.25" stroke="black"/> 
  <line x1="537.75" y1="161.75" x2="537.75" y2="161.75" stroke="black"/> 
  <line x1="640.25" y1="150" x2="640.25" y2="150" stroke="black"/> 
  <line x1="441.5" y1="319" x2="441.5" y2="319" stroke="black"/> 
  <line x1="110.5" y1="229.5" x2="110.5" y2="229.5" stroke="black"/> 
  <line x1="389.5" y1="303" x2="389.5" y2="303" stroke="black"/> 
  <line x1="593.5" y1="318.5" x2="593.5" y2="318.5" stroke="black"/> 
  <line x1="593.25" y1="518.5" x2="593.25" y2="518.5" stroke="black"/> 
  <text x="655.5" y="705" font-size="15" text-anchor="middle">‚ Ú/Ô ÔÓ‰Û‚ÍË<tspan x="655.5" dy="15">„‡‰ËÌË</tspan>
  </text>
  <line x1="265" y1="379.5" x2="240" y2="379.5" stroke="black"/> 
  <line x1="257.5" y1="359" x2="257.5" y2="359" stroke="black"/> 
  <line x1="239.5" y1="378.5" x2="240" y2="453.5" stroke="black"/> 
  <line x1="240" y1="454" x2="340" y2="454" stroke="black"/> 
  <line x1="343.5" y1="465" x2="343.6" y2="465" stroke="black"/> 
  <line x1="315.5" y1="379.5" x2="340" y2="379.5" stroke="black"/> 
  <line x1="344" y1="401" x2="344" y2="400.5" stroke="black"/> 
  <line x1="340.5" y1="379" x2="340" y2="454.5" stroke="black"/> 
  <line x1="387" y1="432" x2="387" y2="432" stroke="black"/> 
  <line x1="82" y1="378.503" x2="57" y2="378.503" stroke="black"/> 
  <line x1="56.5" y1="377.503" x2="57" y2="452.503" stroke="black"/> 
  <line x1="57" y1="453.003" x2="157" y2="453.003" stroke="black"/> 
  <line x1="160.5" y1="464.003" x2="160.6" y2="464.003" stroke="black"/> 
  <line x1="132.5" y1="378.503" x2="157" y2="378.503" stroke="black"/> 
  <line x1="157.5" y1="378.003" x2="157" y2="453" stroke="black"/> 
  <line x1="106.25" y1="406.005" x2="106.5" y2="430.255" stroke="black" stroke-width="3"/> 
  <polygon points="101.5,416.505 111.5,416.505 106.5,432.505"/> 
  <line x1="291.75" y1="405.505" x2="292" y2="429.755" stroke="black" stroke-width="3"/> 
  <polygon points="287,416.505 297,416.505 292,432.505"/> 
  <line x1="341.5" y1="693" x2="341.5" y2="693" stroke="black"/> 
  <line x1="437.5" y1="668.5" x2="437.5" y2="668.5" stroke="black"/> 
  <line x1="436" y1="255" x2="436" y2="255" stroke="black"/> 
  <line x1="522" y1="262.5" x2="522" y2="262.5" stroke="black"/> 
  <line x1="680" y1="694" x2="680" y2="694" stroke="black"/> 
  <line x1="150" y1="696" x2="150" y2="696" stroke="black"/> 
  <image x="1652.9" y="507.5" width="0.1" height="50" xlink:href="bin_pump_1.svg" transform="rotate(90 0 0)"/> 
  <line x1="1807" y1="334" x2="1807" y2="209.311" stroke="black" stroke-width="3"/> 
  <line x1="1619" y1="334" x2="1619" y2="248" stroke="black" stroke-width="3"/> 
  <line x1="1781" y1="381.75" x2="1756" y2="381.75" stroke="black"/> 
  <line x1="1755.5" y1="380.75" x2="1756" y2="455.75" stroke="black"/> 
  <line x1="1756" y1="456.25" x2="1856" y2="456.25" stroke="black"/> 
  <line x1="1859.5" y1="467.25" x2="1859.6" y2="467.25" stroke="black"/> 
  <line x1="1831.5" y1="381.75" x2="1856" y2="381.75" stroke="black"/> 
  <line x1="1860" y1="403.25" x2="1860" y2="402.75" stroke="black"/> 
  <line x1="1856.5" y1="381.25" x2="1856" y2="454.75" stroke="black"/> 
  <line x1="1597" y1="380.753" x2="1572" y2="380.753" stroke="black"/> 
  <line x1="1571.5" y1="380.753" x2="1572" y2="455.753" stroke="black"/> 
  <line x1="1571" y1="455.253" x2="1671" y2="455.253" stroke="black"/> 
  <line x1="1644.5" y1="380.753" x2="1669" y2="380.753" stroke="black"/> 
  <line x1="1668" y1="381.253" x2="1668" y2="454.753" stroke="black"/> 
  <polygon points="1613.5,416.505 1623.5,416.505 1618.5,432.505"/> 
  <line x1="1158" y1="373.998" x2="1158" y2="649.998" stroke="black"/> 
  <line x1="1157" y1="650" x2="1354" y2="650" stroke="black"/> 
  <line x1="1252.67" y1="650.833" x2="1252.92" y2="675.083" stroke="black"/> 
  <polygon points="1247.92,675.083 1257.92,675.083 1252.92,691.083"/> 
  <text x="1252.5" y="706" font-size="15" text-anchor="middle">‚ Ú/Ô ÔÓ‰Û‚ÍË<tspan x="1252.5" dy="14">„‡‰ËÌË</tspan>
  </text>
  <line x1="1167" y1="152" x2="1167" y2="152" stroke="black"/> 
  <rect x="339" y="532.657" width="0" height="0" rx="0" ry="0"/> 
  <image x="629" y="191.061" width="175" height="25" xlink:href="DS_ana.svg" transform="flipX(87.5) flipX(87.5)">
    <title>10PAB20CP001</title>
    <rt:dyn type="X" mode="constant" value="&quot;P &quot;"/> 
    <rt:dyn type="ShowFrame" mode="constant" value="true"/> 
    <rt:dyn type="Color_Readings" mode="constant" value="true"/> 
    <rt:dyn type="FKKS" mode="constant" value="&quot;10PAB20CP001&quot;"/> 
    <rt:dyn type="ValueToTheRight" mode="constant" value="false"/> 
  </image>
  <image x="422" y="191.061" width="175" height="25" xlink:href="DS_ana.svg">
    <title>10PAB10CP001</title>
    <rt:dyn type="X" mode="constant" value="&quot;P &quot;"/> 
    <rt:dyn type="ShowFrame" mode="constant" value="true"/> 
    <rt:dyn type="Color_Readings" mode="constant" value="true"/> 
    <rt:dyn type="FKKS" mode="constant" value="&quot;10PAB10CP001&quot;"/> 
    <rt:dyn type="ValueToTheRight" mode="constant" value="false"/> 
  </image>
  <line x1="189.333" y1="580.667" x2="189.333" y2="580.667" stroke="black"/> 
  <line x1="184.667" y1="492.667" x2="184.667" y2="492.667" stroke="black"/> 
  <line x1="160" y1="480.667" x2="160" y2="480.667" stroke="black"/> 
  <line x1="356.667" y1="576.667" x2="356.667" y2="576.667" stroke="black"/> 
  <line x1="332.667" y1="480" x2="332.667" y2="480" stroke="black"/> 
  <line x1="308.667" y1="484.667" x2="308.667" y2="484.667" stroke="black"/> 
  <image x="221" y="579.811" width="175" height="25" xlink:href="DS_ana.svg">
    <title>10PAH15CF001</title>
    <rt:dyn type="FKKS" mode="constant" value="&quot;10PAH15CF001&quot;"/> 
    <rt:dyn type="X" mode="constant" value="&quot;F &quot;"/> 
    <rt:dyn type="ShowFrame" mode="constant" value="true"/> 
    <rt:dyn type="Color_Readings" mode="constant" value="true"/> 
    <rt:dyn type="ValueToTheRight" mode="constant" value="false"/> 
  </image>
  <image x="4.99999" y="579.811" width="175" height="25" xlink:href="DS_ana.svg">
    <title>10PAH25CF001</title>
    <rt:dyn type="FKKS" mode="constant" value="&quot;10PAH25CF001&quot;"/> 
    <rt:dyn type="X" mode="constant" value="&quot;F &quot;"/> 
    <rt:dyn type="ShowFrame" mode="constant" value="true"/> 
    <rt:dyn type="Color_Readings" mode="constant" value="true"/> 
    <rt:dyn type="ValueToTheRight" mode="constant" value="false"/> 
  </image>
  <text x="292" y="449" font-size="15" text-anchor="middle">–¿¬15</text>
  <text x="106" y="449" font-size="15" text-anchor="middle">–¿¬25</text>
  <text x="592" y="532" font-size="15">–¿—10</text>
  <text x="786" y="532" font-size="15">–¿—20</text>
  <line x1="1104" y1="252" x2="1021.5" y2="252" stroke="black"/> 
  <line x1="1022" y1="251" x2="1022" y2="751" stroke="black"/> 
  <line x1="1022" y1="750.591" x2="1808.62" y2="750.591" stroke="black"/> 
  <line x1="1299" y1="252" x2="1403.97" y2="252" stroke="black"/> 
  <line x1="1341" y1="270" x2="1341" y2="270" stroke="black"/> 
  <line x1="1402" y1="251" x2="1402" y2="725" stroke="black"/> 
  <line x1="1401" y1="725" x2="1621.46" y2="725" stroke="black"/> 
  <text x="1164" y="76" font-size="15">MAG 30</text>
  <text x="1705.3" y="70.9394" font-size="15">MAG 40</text>
  <text x="1808" y="449" font-size="15" text-anchor="middle">–¿¬35</text>
  <text x="1620" y="449" font-size="15" text-anchor="middle">–¿¬45</text>
  <image x="1315.15" y="191.061" width="175" height="25" xlink:href="DS_ana.svg">
    <title>10PAB40CP001</title>
    <rt:dyn type="ShowFrame" mode="constant" value="true"/> 
    <rt:dyn type="Color_Readings" mode="constant" value="true"/> 
    <rt:dyn type="FKKS" mode="constant" value="&quot;10PAB40CP001&quot;"/> 
    <rt:dyn type="ValueToTheRight" mode="constant" value="false"/> 
    <rt:dyn type="X" mode="constant" value="&quot;P&quot;"/> 
  </image>
  <image x="1119.09" y="191.061" width="175" height="25" xlink:href="DS_ana.svg">
    <title>10PAB30CP001</title>
    <rt:dyn type="ShowFrame" mode="constant" value="true"/> 
    <rt:dyn type="Color_Readings" mode="constant" value="true"/> 
    <rt:dyn type="FKKS" mode="constant" value="&quot;10PAB30CP001&quot;"/> 
    <rt:dyn type="ValueToTheRight" mode="constant" value="false"/> 
    <rt:dyn type="X" mode="constant" value="&quot;P&quot;"/> 
  </image>
  <image x="1725" y="285.371" width="175" height="25" xlink:href="DS_ana.svg">
    <title>10PAH35CP001</title>
    <rt:dyn type="FKKS" mode="constant" value="&quot;10PAH35CP001&quot;"/> 
    <rt:dyn type="X" mode="constant" value="&quot;dP &quot;"/> 
    <rt:dyn type="ShowFrame" mode="constant" value="true"/> 
    <rt:dyn type="Color_Readings" mode="constant" value="true"/> 
    <rt:dyn type="ValueToTheRight" mode="constant" value="false"/> 
  </image>
  <image x="1732" y="579.811" width="175" height="25" xlink:href="DS_ana.svg">
    <title>10PAH35CF001</title>
    <rt:dyn type="FKKS" mode="constant" value="&quot;10PAH35CF001&quot;"/> 
    <rt:dyn type="X" mode="constant" value="&quot;F &quot;"/> 
    <rt:dyn type="ShowFrame" mode="constant" value="true"/> 
    <rt:dyn type="Color_Readings" mode="constant" value="true"/> 
    <rt:dyn type="ValueToTheRight" mode="constant" value="false"/> 
  </image>
  <image x="1515" y="579.811" width="175" height="25" xlink:href="DS_ana.svg">
    <title>10PAH45CF001</title>
    <rt:dyn type="FKKS" mode="constant" value="&quot;10PAH45CF001&quot;"/> 
    <rt:dyn type="X" mode="constant" value="&quot;F &quot;"/> 
    <rt:dyn type="ShowFrame" mode="constant" value="true"/> 
    <rt:dyn type="Color_Readings" mode="constant" value="true"/> 
    <rt:dyn type="ValueToTheRight" mode="constant" value="false"/> 
  </image>
  <image x="1219" y="285.371" width="175" height="25" xlink:href="DS_ana.svg">
    <title>10PBB40CP001</title>
    <rt:dyn type="X" mode="constant" value="&quot;dP &quot;"/> 
    <rt:dyn type="FKKS" mode="constant" value="&quot;10PBB40CP001&quot;"/> 
    <rt:dyn type="ShowFrame" mode="constant" value="true"/> 
    <rt:dyn type="Color_Readings" mode="constant" value="true"/> 
    <rt:dyn type="ValueToTheRight" mode="constant" value="false"/> 
  </image>
  <line x1="151.002" y1="772.5" x2="151.002" y2="992.5" stroke="black"/> 
  <line x1="476.002" y1="772.5" x2="476.002" y2="992.5" stroke="black"/> 
  <line x1="151.002" y1="992.5" x2="476.002" y2="992.5" stroke="black"/> 
  <line x1="150.002" y1="773.5" x2="476.002" y2="772.5" stroke="black"/> 
  <image x="176.002" y="947.5" width="25" height="25" xlink:href="bin_indicator.svg"/> 
  <image x="176.002" y="897.5" width="25" height="25" xlink:href="bin_indicator.svg"/> 
  <image x="175.002" y="847.5" width="26" height="27" xlink:href="bin_indicator.svg"/> 
  <image x="326.062" y="949.56" width="25" height="25" xlink:href="bin_indicator.svg"/> 
  <image x="326.062" y="899.56" width="25" height="25" xlink:href="bin_indicator.svg"/> 
  <image x="325.062" y="849.56" width="26" height="27" xlink:href="bin_indicator.svg"/> 
  <line x1="151.002" y1="772.5" x2="151.002" y2="992.5" stroke="black"/> 
  <line x1="476.002" y1="772.5" x2="476.002" y2="992.5" stroke="black"/> 
  <line x1="151.002" y1="992.5" x2="476.002" y2="992.5" stroke="black"/> 
  <line x1="150.002" y1="773.5" x2="476.002" y2="772.5" stroke="black"/> 
  <text x="280" y="800" font-size="15">—ÿŒ π1</text>
  <text x="173" y="825" font-size="15">‘»À‹“–</text>
  <text x="334" y="825" font-size="15">—»“Œ</text>
  <text x="223" y="865" font-size="15">¿¬¿–»ﬂ</text>
  <text x="368.002" y="862.5" font-size="15">¿¬¿–»ﬂ</text>
  <text x="220.002" y="912.5" font-size="15">¬ À</text>
  <text x="221.002" y="964" font-size="15">Œ“ À</text>
  <text x="367.502" y="915.5" font-size="15">—¬≈ƒ≈ÕŒ</text>
  <text x="369.002" y="966" font-size="15">–¿«¬≈ƒ≈ÕŒ</text>
  <image x="176.002" y="947.5" width="25" height="25" xlink:href="bin_indicator.svg"/> 
  <image x="176.002" y="897.5" width="25" height="25" xlink:href="bin_indicator.svg"/> 
  <image x="175.002" y="847.5" width="26" height="27" xlink:href="bin_indicator.svg"/> 
  <image x="326.062" y="949.56" width="25" height="25" xlink:href="bin_indicator.svg"/> 
  <image x="326.062" y="899.56" width="25" height="25" xlink:href="bin_indicator.svg"/> 
  <image x="325.062" y="849.56" width="26" height="27" xlink:href="bin_indicator.svg"/> 
  <line x1="151.002" y1="772.5" x2="151.002" y2="992.5" stroke="black"/> 
  <line x1="476.002" y1="772.5" x2="476.002" y2="975" stroke="black"/> 
  <line x1="506.002" y1="773.25" x2="506.002" y2="993.25" stroke="black"/> 
  <line x1="831.002" y1="773.25" x2="831.002" y2="993.25" stroke="black"/> 
  <line x1="506.002" y1="993.25" x2="831.002" y2="993.25" stroke="black"/> 
  <line x1="505.002" y1="774.25" x2="831.002" y2="773.25" stroke="black"/> 
  <image x="531.002" y="948.25" width="25" height="25" xlink:href="bin_indicator.svg"/> 
  <image x="531.002" y="898.25" width="25" height="25" xlink:href="bin_indicator.svg"/> 
  <image x="530.002" y="848.25" width="26" height="27" xlink:href="bin_indicator.svg"/> 
  <image x="681.062" y="950.31" width="25" height="25" xlink:href="bin_indicator.svg"/> 
  <image x="681.062" y="900.31" width="25" height="25" xlink:href="bin_indicator.svg"/> 
  <image x="680.062" y="850.31" width="26" height="27" xlink:href="bin_indicator.svg"/> 
  <line x1="506.002" y1="773.25" x2="506.002" y2="993.25" stroke="black"/> 
  <line x1="831.002" y1="773.25" x2="831.002" y2="993.25" stroke="black"/> 
  <line x1="506.002" y1="993.25" x2="831.002" y2="993.25" stroke="black"/> 
  <line x1="505.002" y1="774.25" x2="831.002" y2="773.25" stroke="black"/> 
  <text x="575" y="866" font-size="15">¿¬¿–»ﬂ</text>
  <text x="723.002" y="863.25" font-size="15">¿¬¿–»ﬂ</text>
  <text x="575.002" y="913.25" font-size="15">¬ À</text>
  <text x="576.002" y="964.75" font-size="15">Œ“ À</text>
  <text x="722.502" y="916.25" font-size="15">—¬≈ƒ≈ÕŒ</text>
  <text x="724.002" y="966.75" font-size="15">–¿«¬≈ƒ≈ÕŒ</text>
  <image x="531.002" y="948.25" width="25" height="25" xlink:href="bin_indicator.svg"/> 
  <image x="531.002" y="898.25" width="25" height="25" xlink:href="bin_indicator.svg"/> 
  <image x="530.002" y="848.25" width="24.997" height="26" xlink:href="bin_indicator.svg"/> 
  <image x="681.062" y="950.31" width="25" height="25" xlink:href="bin_indicator.svg"/> 
  <image x="681.062" y="900.31" width="25" height="25" xlink:href="bin_indicator.svg"/> 
  <image x="680.062" y="850.31" width="26" height="27" xlink:href="bin_indicator.svg"/> 
  <line x1="506.002" y1="773.25" x2="506.002" y2="993.25" stroke="black"/> 
  <line x1="831.002" y1="773.25" x2="831.002" y2="993.25" stroke="black"/> 
  <line x1="713.799" y1="855.653" x2="713.899" y2="855.653" stroke="black"/> 
  <line x1="723.799" y1="824.153" x2="723.899" y2="824.153" stroke="black"/> 
  <text x="630.999" y="801.25" font-size="15">—ÿŒ π2</text>
  <text x="534.999" y="826.25" font-size="15">‘»À‹“–</text>
  <text x="695.999" y="826.25" font-size="15">—»“Œ</text>
  <line x1="1074" y1="773.25" x2="1074" y2="993.25" stroke="black"/> 
  <line x1="1399" y1="773.25" x2="1399" y2="993.25" stroke="black"/> 
  <line x1="1074" y1="993.25" x2="1399" y2="993.25" stroke="black"/> 
  <line x1="1073" y1="774.25" x2="1399" y2="773.25" stroke="black"/> 
  <image x="1099" y="948.25" width="25" height="25" xlink:href="bin_indicator.svg"/> 
  <image x="1099" y="898.25" width="25" height="25" xlink:href="bin_indicator.svg"/> 
  <image x="1098" y="848.25" width="26" height="27" xlink:href="bin_indicator.svg"/> 
  <image x="1249.06" y="950.31" width="25" height="25" xlink:href="bin_indicator.svg"/> 
  <image x="1249.06" y="900.31" width="25" height="25" xlink:href="bin_indicator.svg"/> 
  <image x="1248.06" y="850.31" width="26" height="27" xlink:href="bin_indicator.svg"/> 
  <line x1="1074" y1="773.25" x2="1074" y2="993.25" stroke="black"/> 
  <line x1="1399" y1="773.25" x2="1399" y2="993.25" stroke="black"/> 
  <line x1="1074" y1="993.25" x2="1399" y2="993.25" stroke="black"/> 
  <line x1="1073" y1="774.25" x2="1399" y2="773.25" stroke="black"/> 
  <text x="1200" y="800.75" font-size="15">—ÿŒ π3</text>
  <text x="1096" y="825.75" font-size="18">‘»À‹“–</text>
  <text x="1257" y="825.75" font-size="15">—»“Œ</text>
  <text x="1147" y="866" font-size="15">¿¬¿–»ﬂ</text>
  <text x="1291" y="863.25" font-size="15">¿¬¿–»ﬂ</text>
  <text x="1143" y="913.25" font-size="15">¬ À</text>
  <text x="1144" y="964.75" font-size="15">Œ“ À</text>
  <text x="1290.5" y="916.25" font-size="15">—¬≈ƒ≈ÕŒ</text>
  <text x="1292" y="966.75" font-size="15">–¿«¬≈ƒ≈ÕŒ</text>
  <image x="1099" y="948.25" width="25" height="25" xlink:href="bin_indicator.svg"/> 
  <image x="1099" y="898.25" width="25" height="25" xlink:href="bin_indicator.svg"/> 
  <image x="1098" y="848.25" width="26" height="27" xlink:href="bin_indicator.svg"/> 
  <image x="1249.06" y="950.31" width="25" height="25" xlink:href="bin_indicator.svg"/> 
  <image x="1249.06" y="900.31" width="25" height="25" xlink:href="bin_indicator.svg"/> 
  <image x="1248.06" y="850.31" width="26" height="27" xlink:href="bin_indicator.svg"/> 
  <line x1="1074" y1="773.25" x2="1074" y2="993.25" stroke="black"/> 
  <line x1="1399" y1="773.25" x2="1399" y2="975.75" stroke="black"/> 
  <line x1="1428" y1="773.25" x2="1428" y2="993.25" stroke="black"/> 
  <line x1="1753" y1="773.25" x2="1753" y2="993.25" stroke="black"/> 
  <line x1="1428" y1="993.25" x2="1753" y2="993.25" stroke="black"/> 
  <line x1="1426" y1="774.25" x2="1752" y2="773.25" stroke="black"/> 
  <image x="1453" y="948.25" width="25" height="25" xlink:href="bin_indicator.svg"/> 
  <image x="1453" y="898.25" width="25" height="25" xlink:href="bin_indicator.svg"/> 
  <image x="1452" y="848.25" width="26" height="27" xlink:href="bin_indicator.svg"/> 
  <image x="1603.06" y="950.31" width="25" height="25" xlink:href="bin_indicator.svg"/> 
  <image x="1603.06" y="900.31" width="25" height="25" xlink:href="bin_indicator.svg"/> 
  <image x="1602.06" y="850.31" width="26" height="27" xlink:href="bin_indicator.svg"/> 
  <line x1="1428" y1="773.25" x2="1428" y2="993.25" stroke="black"/> 
  <line x1="1753" y1="773.25" x2="1753" y2="993.25" stroke="black"/> 
  <line x1="1428" y1="993.25" x2="1753" y2="993.25" stroke="black"/> 
  <line x1="1426" y1="774.25" x2="1752" y2="773.25" stroke="black"/> 
  <text x="1495" y="868" font-size="15">¿¬¿–»ﬂ</text>
  <text x="1645" y="863.25" font-size="15">¿¬¿–»ﬂ</text>
  <text x="1497" y="913.25" font-size="15">¬ À</text>
  <text x="1644.5" y="916.25" font-size="15">—¬≈ƒ≈ÕŒ</text>
  <text x="1646" y="966.75" font-size="15">–¿«¬≈ƒ≈ÕŒ</text>
  <image x="1453" y="948.25" width="25" height="25" xlink:href="bin_indicator.svg"/> 
  <image x="1453" y="898.25" width="25" height="25" xlink:href="bin_indicator.svg"/> 
  <image x="1452" y="848.25" width="24.997" height="26" xlink:href="bin_indicator.svg"/> 
  <image x="1603.06" y="950.31" width="25" height="25" xlink:href="bin_indicator.svg"/> 
  <image x="1603.06" y="900.31" width="25" height="25" xlink:href="bin_indicator.svg"/> 
  <image x="1602.06" y="850.31" width="26" height="27" xlink:href="bin_indicator.svg"/> 
  <line x1="1428" y1="773.25" x2="1428" y2="993.25" stroke="black"/> 
  <line x1="1753" y1="773.25" x2="1753" y2="993.25" stroke="black"/> 
  <line x1="1635.8" y1="855.653" x2="1635.9" y2="855.653" stroke="black"/> 
  <line x1="1645.8" y1="824.153" x2="1645.9" y2="824.153" stroke="black"/> 
  <text x="1670" y="801.25" font-size="15">—ÿŒ π4</text>
  <text x="1457" y="826.25" font-size="15">‘»À‹“–</text>
  <text x="1618" y="826.25" font-size="15">—»“Œ</text>
  <text x="325" y="336" font-size="15">10PAH15<tspan x="325" dy="15">AT001</tspan>
  </text>
  <text x="141" y="336" font-size="15">10PAH25<tspan x="141" dy="15">AT001</tspan>
  </text>
  <image x="68.5" y="488" width="70" height="70" xlink:href="DS_motor.svg" transform="rotate(90 0 0)">
    <title>10PAH25AP001</title>
    <rt:dyn type="KKS" mode="constant" value="&quot;10PAH25AP001&quot;"/> 
    <rt:dyn type="DATA_NARY" mode="constant" value="&quot;TPTS&quot;"/> 
    <rt:dyn type="Operate" mode="constant" value="true"/> 
  </image>
  <text x="2" y="497" font-size="15">10PAH25<tspan x="2" dy="15">AP001</tspan>
  </text>
  <text x="189.333" y="497" font-size="15">10PAH15<tspan x="189.333" dy="15">AP001</tspan>
  </text>
  <text x="110" y="699.333" font-size="15">10PAH25<tspan x="110" dy="15">BB001</tspan>
  </text>
  <text x="300.667" y="699.333" font-size="15">10PAH15<tspan x="300.667" dy="15">BB001</tspan>
  </text>
  <text x="529" y="332" font-size="15">10PBB10<tspan x="529" dy="15">AT001</tspan>
  </text>
  <text x="722.333" y="332" font-size="15">10PBB20<tspan x="722.333" dy="15">AT001</tspan>
  </text>
  <text x="587" y="597" font-size="15">10PBB10<tspan x="587" dy="15">AA001</tspan>
  </text>
  <text x="780" y="601" font-size="15">10PBB20<tspan x="780" dy="15">AA001</tspan>
  </text>
  <image x="1112.5" y="562.5" width="70" height="65" xlink:href="DS_CO_valve.svg" transform="rotate(270 0 -10)">
    <title>10PBB30AA001</title>
    <rt:dyn type="KKS" mode="constant" value="&quot;10PBB30AA001&quot;"/> 
    <rt:dyn type="DATA_NARY" mode="constant" value="&quot;TPTS&quot;"/> 
    <rt:dyn type="Operate" mode="constant" value="true"/> 
  </image>
  <image x="1772.5" y="488" width="70" height="70" xlink:href="DS_motor.svg" transform="rotate(90 0 0)">
    <title>10PAH35AP001</title>
    <rt:dyn type="KKS" mode="constant" value="&quot;10PAH35AP001&quot;"/> 
    <rt:dyn type="DATA_NARY" mode="constant" value="&quot;TPTS&quot;"/> 
    <rt:dyn type="Operate" mode="constant" value="true"/> 
  </image>
  <image x="1586" y="488" width="70" height="70" xlink:href="DS_motor.svg" transform="rotate(90 0 0)">
    <title>10PAH45AP001</title>
    <rt:dyn type="KKS" mode="constant" value="&quot;10PAH45AP001&quot;"/> 
    <rt:dyn type="DATA_NARY" mode="constant" value="&quot;TPTS&quot;"/> 
    <rt:dyn type="Operate" mode="constant" value="true"/> 
  </image>
  <text x="1323" y="333" font-size="15">10PBB40<tspan x="1323" dy="14">AT001</tspan>
  </text>
  <text x="1126.5" y="333" font-size="15">10PBB30<tspan x="1126.5" dy="14">AT001</tspan>
  </text>
  <text x="1044.5" y="593" font-size="15">10PBB30<tspan x="1044.5" dy="14">AA001</tspan>
  </text>
  <text x="1240" y="593.5" font-size="15">10PBB40<tspan x="1240" dy="14">AA001</tspan>
  </text>
  <text x="1650.94" y="336" font-size="15">10PAH45<tspan x="1650.94" dy="14">AT001</tspan>
  </text>
  <text x="1841.19" y="336" font-size="15">10PAH35<tspan x="1841.19" dy="14">AT001</tspan>
  </text>
  <text x="1533.42" y="700.333" font-size="15">10PAH45<tspan x="1533.42" dy="14">BB001</tspan>
  </text>
  <text x="1720.67" y="700.333" font-size="15">10PAH35<tspan x="1720.67" dy="14">BB001</tspan>
  </text>
  <text x="1503.94" y="504.273" font-size="15">10PAH45<tspan x="1503.94" dy="14">AP001</tspan>
  </text>
  <text x="1686.19" y="504.273" font-size="15">10PAH35<tspan x="1686.19" dy="14">AP001</tspan>
  </text>
  <text x="926" y="33" font-size="32">PAH</text>
  <text x="1499" y="969" font-size="15">Œ“ À</text>
  <line x1="633.1" y1="484.86" x2="633.2" y2="484.86" stroke="black"/> 
  <text x="1082" y="532" font-size="15">–¿—30</text>
  <text x="1271" y="532" font-size="15">–¿—40</text>
  <g transform="scale(1.43993 1.43993 1808.52 196.97)">
    <line x1="1807.75" y1="206.505" x2="1827.75" y2="185.505" stroke="black" stroke-width="3"/> 
    <line x1="1827.75" y1="185.005" x2="1790" y2="185.255" stroke="black" stroke-width="3"/> 
    <line x1="1790.5" y1="184.755" x2="1808" y2="162.755" stroke="black" stroke-width="3"/> 
  </g>
  <g transform="scale(1.43993 1.43993 1808.52 196.97)">
    <line x1="1455.25" y1="200.191" x2="1475.25" y2="179.191" stroke="black" stroke-width="3"/> 
    <line x1="1475.25" y1="178.691" x2="1437.5" y2="178.941" stroke="black" stroke-width="3"/> 
    <line x1="1438" y1="178.441" x2="1455.5" y2="156.441" stroke="black" stroke-width="3"/> 
  </g>
  <g transform="scale(1.43993 1.43993 1808.52 196.97)">
    <line x1="1676.22" y1="201.244" x2="1696.22" y2="180.244" stroke="black" stroke-width="3"/> 
    <line x1="1696.22" y1="179.744" x2="1658.47" y2="179.994" stroke="black" stroke-width="3"/> 
    <line x1="1658.97" y1="179.494" x2="1676.47" y2="157.494" stroke="black" stroke-width="3"/> 
  </g>
  <g transform="scale(1.43993 1.43993 1808.52 196.97)">
    <line x1="1319.51" y1="201.244" x2="1339.51" y2="180.244" stroke="black" stroke-width="3"/> 
    <line x1="1339.51" y1="179.744" x2="1301.76" y2="179.994" stroke="black" stroke-width="3"/> 
    <line x1="1302.26" y1="179.494" x2="1319.76" y2="157.494" stroke="black" stroke-width="3"/> 
  </g>
  <line x1="1105.48" y1="446.697" x2="1104.75" y2="201.811" stroke="black" stroke-width="3"/> 
  <image x="1031" y="285.371" width="175" height="25" xlink:href="DS_ana.svg">
    <title>10PBB30CP001</title>
    <rt:dyn type="FKKS" mode="constant" value="&quot;10PBB30CP001&quot;"/> 
    <rt:dyn type="X" mode="constant" value="&quot;dP &quot;"/> 
    <rt:dyn type="ShowFrame" mode="constant" value="true"/> 
    <rt:dyn type="Color_Readings" mode="constant" value="true"/> 
    <rt:dyn type="ValueToTheRight" mode="constant" value="false"/> 
  </image>
  <image x="1523" y="285.371" width="175" height="25" xlink:href="DS_ana.svg">
    <title>10PAH45CP001</title>
    <rt:dyn type="FKKS" mode="constant" value="&quot;10PAH45CP001&quot;"/> 
    <rt:dyn type="X" mode="constant" value="&quot;dP &quot;"/> 
    <rt:dyn type="ShowFrame" mode="constant" value="true"/> 
    <rt:dyn type="Color_Readings" mode="constant" value="true"/> 
    <rt:dyn type="ValueToTheRight" mode="constant" value="false"/> 
  </image>
  <polygon points="1803,416.505 1813,416.505 1808,432.505"/> 
  <g>
    <line x1="1299.03" y1="124.5" x2="1618.03" y2="124.5" stroke="black" stroke-width="3"/> 
    <line x1="1104" y1="140.25" x2="1104" y2="95" stroke="black" stroke-width="3"/> 
    <line x1="1103.97" y1="96" x2="1809" y2="96" stroke="black" stroke-width="3"/> 
    <line x1="1299.41" y1="138.606" x2="1299.41" y2="124" stroke="black" stroke-width="3"/> 
    <line x1="1618.53" y1="141" x2="1618.53" y2="124.5" stroke="black" stroke-width="3"/> 
    <line x1="1808" y1="147.25" x2="1808" y2="96" stroke="black" stroke-width="3"/> 
  </g>
  <g transform="flipX(1471.39)">
    <line x1="2329.18" y1="124.652" x2="2648.18" y2="124.652" stroke="black" stroke-width="3"/> 
    <line x1="2134.15" y1="140.402" x2="2134.15" y2="95.1515" stroke="black" stroke-width="3"/> 
    <line x1="2134.12" y1="96.1515" x2="2837" y2="96.1515" stroke="black" stroke-width="3"/> 
    <line x1="2329.56" y1="138.758" x2="2329.56" y2="124.152" stroke="black" stroke-width="3"/> 
    <line x1="2648.68" y1="141.152" x2="2648.68" y2="124.652" stroke="black" stroke-width="3"/> 
    <line x1="2837.15" y1="146.402" x2="2837.15" y2="95.1515" stroke="black" stroke-width="3"/> 
  </g>
  <g transform="scale(1.43993 1.43993 1808.52 196.97)">
    <line x1="1114.34" y1="201.938" x2="1134.34" y2="180.938" stroke="black" stroke-width="3"/> 
    <line x1="1134.34" y1="180.438" x2="1096.59" y2="180.688" stroke="black" stroke-width="3"/> 
    <line x1="1097.09" y1="180.188" x2="1114.59" y2="158.188" stroke="black" stroke-width="3"/> 
  </g>
  <g transform="scale(1.43993 1.43993 1808.52 196.97)">
    <line x1="756.289" y1="201.874" x2="776.289" y2="180.874" stroke="black" stroke-width="3"/> 
    <line x1="776.983" y1="180.374" x2="739.233" y2="180.624" stroke="black" stroke-width="3"/> 
    <line x1="739.733" y1="180.124" x2="757.233" y2="158.124" stroke="black" stroke-width="3"/> 
  </g>
  <g transform="scale(1.43993 1.43993 1808.52 196.97)">
    <line x1="978.648" y1="200.844" x2="998.648" y2="179.844" stroke="black" stroke-width="3"/> 
    <line x1="998.648" y1="179.344" x2="960.898" y2="179.594" stroke="black" stroke-width="3"/> 
    <line x1="961.398" y1="179.094" x2="978.898" y2="157.094" stroke="black" stroke-width="3"/> 
  </g>
  <g transform="scale(1.43993 1.43993 1808.52 196.97)">
    <line x1="626.105" y1="205.011" x2="646.105" y2="184.011" stroke="black" stroke-width="3"/> 
    <line x1="646.105" y1="183.511" x2="608.355" y2="183.761" stroke="black" stroke-width="3"/> 
    <line x1="608.855" y1="183.261" x2="626.355" y2="161.261" stroke="black" stroke-width="3"/> 
  </g>
  <line x1="891.079" y1="252" x2="808.579" y2="252" stroke="black"/> 
  <line x1="509.88" y1="252" x2="614.85" y2="252" stroke="black"/> 
  <image x="1092.5" y="510.53" width="75" height="25" xlink:href="obj_link.svg" fill="Col_Grey2" transform="rotate(270 0 0) flipX(37.5) flipX(37.5)">
    <rt:dyn type="ModName" mode="constant" value="&quot;–¿—30&quot;"/> 
    <rt:dyn type="TextStr" mode="constant" value="&quot;&quot;"/> 
  </image>
  <line x1="1354.79" y1="374.5" x2="1336" y2="374.5" stroke="black"/> 
  <line x1="1354" y1="374.498" x2="1354" y2="650.498" stroke="black"/> 
  <image x="1308.5" y="566" width="70" height="65" xlink:href="DS_CO_valve.svg" transform="rotate(270 0 -10)">
    <title>10PBB40AA001</title>
    <rt:dyn type="KKS" mode="constant" value="&quot;10PBB40AA001&quot;"/> 
    <rt:dyn type="DATA_NARY" mode="constant" value="&quot;TPTS&quot;"/> 
    <rt:dyn type="Operate" mode="constant" value="true"/> 
  </image>
  <line x1="1299" y1="445.887" x2="1299" y2="219" stroke="black" stroke-width="3"/> 
  <image x="1286.56" y="510.53" width="75" height="25" xlink:href="obj_link.svg" fill="Col_Grey2" transform="rotate(270 0 0) flipX(37.5) flipX(37.5)">
    <rt:dyn type="ModName" mode="constant" value="&quot;–¿—40&quot;"/> 
    <rt:dyn type="TextStr" mode="constant" value="&quot;&quot;"/> 
  </image>
  <line x1="889.742" y1="251" x2="889.742" y2="751" stroke="black"/> 
  <line x1="103" y1="750.5" x2="889.62" y2="750.5" stroke="black"/> 
  <line x1="774.79" y1="373.5" x2="756" y2="373.5" stroke="black"/> 
  <line x1="756" y1="372.998" x2="756" y2="648.998" stroke="black"/> 
  <line x1="560.03" y1="650.227" x2="757.03" y2="650.227" stroke="black"/> 
  <line x1="654.7" y1="651.06" x2="654.95" y2="675.31" stroke="black"/> 
  <polygon points="649.95,675.31 659.95,675.31 654.95,691.31"/> 
  <line x1="579.79" y1="375.5" x2="561" y2="375.5" stroke="black"/> 
  <line x1="560" y1="374.998" x2="560" y2="650.998" stroke="black"/> 
  <image x="514" y="566" width="70" height="65" xlink:href="DS_CO_valve.svg" transform="rotate(270 0 -10)">
    <title>10PBB10AA001</title>
    <rt:dyn type="KKS" mode="constant" value="&quot;10PBB10AA001&quot;"/> 
    <rt:dyn type="DATA_NARY" mode="constant" value="&quot;TPTS&quot;"/> 
    <rt:dyn type="Operate" mode="constant" value="true"/> 
  </image>
  <image x="710" y="566" width="70" height="65" xlink:href="DS_CO_valve.svg" transform="rotate(270 0 -10)">
    <title>10PBB20AA001</title>
    <rt:dyn type="KKS" mode="constant" value="&quot;10PBB20AA001&quot;"/> 
    <rt:dyn type="DATA_NARY" mode="constant" value="&quot;TPTS&quot;"/> 
    <rt:dyn type="Operate" mode="constant" value="true"/> 
  </image>
  <line x1="613" y1="447.706" x2="613" y2="218" stroke="black" stroke-width="3"/> 
  <image x="600.5" y="510.53" width="75" height="25" xlink:href="obj_link.svg" fill="Col_Grey2" transform="rotate(270 0 0) flipX(37.5) flipX(37.5)">
    <rt:dyn type="ModName" mode="constant" value="&quot;–¿—10&quot;"/> 
    <rt:dyn type="TextStr" mode="constant" value="&quot;&quot;"/> 
  </image>
  <line x1="809.23" y1="449.312" x2="808.5" y2="204.426" stroke="black" stroke-width="3"/> 
  <image x="796.561" y="510.53" width="75" height="25" xlink:href="obj_link.svg" fill="Col_Grey2" transform="rotate(270 0 0) flipX(37.5) flipX(37.5)">
    <rt:dyn type="ModName" mode="constant" value="&quot;–¿—20&quot;"/> 
    <rt:dyn type="TextStr" mode="constant" value="&quot;&quot;"/> 
  </image>
  <line x1="291.151" y1="724.151" x2="511.611" y2="724.151" stroke="black"/> 
  <line x1="510.591" y1="251" x2="510.591" y2="725.296" stroke="black"/> 
  <image x="258" y="488" width="70" height="70" xlink:href="DS_motor.svg" transform="rotate(90 0 0)">
    <title>10PAH15AP001</title>
    <rt:dyn type="KKS" mode="constant" value="&quot;10PAH15AP001&quot;"/> 
    <rt:dyn type="DATA_NARY" mode="constant" value="&quot;TPTS&quot;"/> 
    <rt:dyn type="Operate" mode="constant" value="true"/> 
  </image>
  <line x1="106.53" y1="337.144" x2="106.53" y2="206.455" stroke="black" stroke-width="3"/> 
  <line x1="293" y1="332.689" x2="293" y2="249" stroke="black" stroke-width="3"/> 
  <image x="7.99999" y="286" width="175" height="25" xlink:href="DS_ana.svg">
    <title>10PAH25CP001</title>
    <rt:dyn type="X" mode="constant" value="&quot;dP &quot;"/> 
    <rt:dyn type="FKKS" mode="constant" value="&quot;10PAH25CP001&quot;"/> 
    <rt:dyn type="ShowFrame" mode="constant" value="true"/> 
    <rt:dyn type="Color_Readings" mode="constant" value="true"/> 
    <rt:dyn type="ValueToTheRight" mode="constant" value="false"/> 
  </image>
  <image x="211" y="286" width="175" height="25" xlink:href="DS_ana.svg">
    <title>10PAH15CP001</title>
    <rt:dyn type="FKKS" mode="constant" value="&quot;10PAH15CP001&quot;"/> 
    <rt:dyn type="X" mode="constant" value="&quot;dP &quot;"/> 
    <rt:dyn type="ShowFrame" mode="constant" value="true"/> 
    <rt:dyn type="Color_Readings" mode="constant" value="true"/> 
    <rt:dyn type="ValueToTheRight" mode="constant" value="false"/> 
  </image>
  <image x="518" y="285.371" width="175" height="25" xlink:href="DS_ana.svg">
    <title>10PBB10CP001</title>
    <rt:dyn type="FKKS" mode="constant" value="&quot;10PBB10CP001&quot;"/> 
    <rt:dyn type="X" mode="constant" value="&quot;dP &quot;"/> 
    <rt:dyn type="ShowFrame" mode="constant" value="true"/> 
    <rt:dyn type="Color_Readings" mode="constant" value="true"/> 
    <rt:dyn type="ValueToTheRight" mode="constant" value="false"/> 
  </image>
  <image x="707" y="285.371" width="175" height="25" xlink:href="DS_ana.svg">
    <title>10PBB20CP001</title>
    <rt:dyn type="FKKS" mode="constant" value="&quot;10PBB20CP001&quot;"/> 
    <rt:dyn type="X" mode="constant" value="&quot;dP &quot;"/> 
    <rt:dyn type="ShowFrame" mode="constant" value="true"/> 
    <rt:dyn type="Color_Readings" mode="constant" value="true"/> 
    <rt:dyn type="ValueToTheRight" mode="constant" value="false"/> 
  </image>
  <g transform="scale(1.33 1.33 615.5 376)">
    <rect x="473.813" y="200.348" width="49" height="50" rx="0" ry="0" fill="Col_Grey4" stroke="black" transform="rotate(135.493 525.5 325)">
      <title>10PBB10AT001</title>
    </rect>
    <line x1="580.748" y1="376.752" x2="648.748" y2="376.752" stroke="black" stroke-dasharray="15,5"/> 
  </g>
  <g transform="scale(1.33 1.33 615.5 376)">
    <rect x="367.146" y="99.5585" width="49" height="50" rx="0" ry="0" fill="Col_Grey4" stroke="black" transform="rotate(135.493 525.5 325)">
      <title>10PBB10AT001</title>
    </rect>
    <line x1="727.481" y1="373.858" x2="795.481" y2="373.858" stroke="black" stroke-dasharray="15,5"/> 
  </g>
  <g transform="scale(1.33 1.33 615.5 376)">
    <rect x="208.966" y="-55.7611" width="49" height="50" rx="0" ry="0" fill="Col_Grey4" stroke="black" transform="rotate(135.493 525.5 325)">
      <title>10PBB10AT001</title>
    </rect>
    <line x1="949.173" y1="373.744" x2="1017.17" y2="373.744" stroke="black" stroke-dasharray="15,5"/> 
  </g>
  <g transform="scale(1.33 1.33 615.5 376)">
    <rect x="104.925" y="-159.083" width="49" height="50" rx="0" ry="0" fill="Col_Grey4" stroke="black" transform="rotate(135.493 525.5 325)">
      <title>10PBB10AT001</title>
    </rect>
    <line x1="1095.79" y1="374.496" x2="1163.79" y2="374.496" stroke="black" stroke-dasharray="15,5"/> 
  </g>
  <g transform="scale(1.22 1.22 106 368)">
    <rect x="80.9998" y="327.221" width="50" height="75" rx="0" ry="0" fill="Col_Grey4" stroke="black">
      <title>10PAH25AT001</title>
    </rect>
    <line x1="88.4768" y1="382.875" x2="82.9768" y2="400.375" stroke="black"/> 
    <line x1="105.977" y1="329.375" x2="99.977" y2="347.875" stroke="black"/> 
    <line x1="97.9768" y1="355.375" x2="91.9768" y2="372.875" stroke="black"/> 
    <line x1="106.977" y1="329.375" x2="112.477" y2="346.375" stroke="black"/> 
    <line x1="114.977" y1="353.875" x2="120.977" y2="371.375" stroke="black"/> 
    <line x1="122.477" y1="379.375" x2="128.977" y2="398.875" stroke="black"/> 
  </g>
  <g transform="scale(1.22 1.22 106 368)">
    <rect x="233.459" y="327.221" width="50" height="75" rx="0" ry="0" fill="Col_Grey4" stroke="black">
      <title>10PAH25AT001</title>
    </rect>
    <line x1="240.936" y1="382.875" x2="235.436" y2="400.375" stroke="black"/> 
    <line x1="258.436" y1="329.375" x2="252.436" y2="347.875" stroke="black"/> 
    <line x1="250.436" y1="355.375" x2="244.436" y2="372.875" stroke="black"/> 
    <line x1="259.436" y1="329.375" x2="264.936" y2="346.375" stroke="black"/> 
    <line x1="267.436" y1="353.875" x2="273.436" y2="371.375" stroke="black"/> 
    <line x1="274.936" y1="379.375" x2="281.436" y2="398.875" stroke="black"/> 
  </g>
  <g transform="scale(1.22 1.22 106 368)">
    <rect x="1321.02" y="326.799" width="50" height="75" rx="0" ry="0" fill="Col_Grey4" stroke="black">
      <title>10PAH25AT001</title>
    </rect>
    <line x1="1328.5" y1="382.453" x2="1323" y2="399.953" stroke="black"/> 
    <line x1="1346" y1="328.953" x2="1340" y2="347.453" stroke="black"/> 
    <line x1="1338" y1="354.953" x2="1332" y2="372.453" stroke="black"/> 
    <line x1="1347" y1="328.953" x2="1352.5" y2="345.953" stroke="black"/> 
    <line x1="1355" y1="353.453" x2="1361" y2="370.953" stroke="black"/> 
    <line x1="1362.5" y1="378.953" x2="1369" y2="398.453" stroke="black"/> 
  </g>
  <g transform="scale(1.22 1.22 106 368)">
    <rect x="1474.99" y="326.774" width="50" height="75" rx="0" ry="0" fill="Col_Grey4" stroke="black">
      <title>10PAH25AT001</title>
    </rect>
    <line x1="1482.47" y1="382.428" x2="1476.97" y2="399.928" stroke="black"/> 
    <line x1="1499.97" y1="328.928" x2="1493.97" y2="347.428" stroke="black"/> 
    <line x1="1491.97" y1="354.928" x2="1485.97" y2="372.428" stroke="black"/> 
    <line x1="1500.97" y1="328.928" x2="1506.47" y2="345.928" stroke="black"/> 
    <line x1="1508.97" y1="353.428" x2="1514.97" y2="370.928" stroke="black"/> 
    <line x1="1516.47" y1="378.928" x2="1522.97" y2="398.428" stroke="black"/> 
  </g>
  <g transform="scale(0.599994 0.599994 102.455 657.576)">
    <circle cx="102" cy="657.75" r="46" fill="Col_Grey4" stroke="black">
      <title>10PAH25BB001</title>
    </circle>
    <line x1="64.796" y1="630.403" x2="87.296" y2="646.903" stroke="black"/> 
    <line x1="91.296" y1="650.903" x2="113.796" y2="667.903" stroke="black"/> 
    <line x1="118.296" y1="670.403" x2="137.296" y2="685.403" stroke="black"/> 
  </g>
  <g transform="scale(0.580006 0.580006 291.848 657.576)">
    <circle cx="292" cy="657.75" r="46" fill="Col_Grey4" stroke="black">
      <title>10PAH15BB001</title>
    </circle>
    <line x1="255.796" y1="629.403" x2="278.296" y2="645.903" stroke="black"/> 
    <line x1="282.296" y1="649.903" x2="304.796" y2="666.903" stroke="black"/> 
    <line x1="309.296" y1="669.403" x2="328.296" y2="684.403" stroke="black"/> 
  </g>
  <g transform="scale(0.599946 0.599946 1617.61 657.576)">
    <circle cx="1618" cy="657.75" r="46" fill="Col_Grey4" stroke="black">
      <title>10PAH45BB001</title>
    </circle>
    <line x1="1580.3" y1="631.653" x2="1602.8" y2="648.153" stroke="black"/> 
    <line x1="1608.8" y1="652.153" x2="1631.3" y2="669.153" stroke="black"/> 
    <line x1="1635.8" y1="671.653" x2="1654.8" y2="686.653" stroke="black"/> 
  </g>
  <g transform="scale(0.570032 0.570032 1806.24 657.576)">
    <circle cx="1806" cy="657.75" r="46" fill="Col_Grey4" stroke="black">
      <title>10PAH35BB001</title>
    </circle>
    <line x1="1771.3" y1="631.153" x2="1793.8" y2="647.653" stroke="black"/> 
    <line x1="1797.8" y1="651.653" x2="1820.3" y2="668.653" stroke="black"/> 
    <line x1="1824.8" y1="671.153" x2="1843.8" y2="686.153" stroke="black"/> 
  </g>
  <line x1="293.5" y1="254.25" x2="293.5" y2="203" stroke="black" stroke-width="3"/> 
  <line x1="613" y1="202.003" x2="613" y2="223" stroke="black" stroke-width="3"/> 
  <line x1="1299" y1="201.003" x2="1299" y2="222" stroke="black" stroke-width="3"/> 
  <line x1="1619" y1="202" x2="1619" y2="254" stroke="black" stroke-width="3"/> 
</svg>
