<?xml  version="1.0" encoding="windows-1251"?>
<svg color="Col_BGSand" xmlns="http://www.w3.org/2000/svg" xmlns:rt="http://www.rts.co.at/2001/XMLSchema/RtSvgPL" xmlns:xlink="http://www.w3.org/1999/xlink" xmlns:xsi="http://www.w3.org/2001/XMLSchema-instance" xsi:schemaLocation="http://www.w3.org/2000/svg C:\RTS\RtSvg\XML\SVG.xsd" viewBox="0 0 1920 1080" width="1920" height="1080" id="parovaiy_chast" fill="Col_Grey3">
  <rt:model modelversion="7.2.0.24" comment="Создано VNIIAES-ASUTP\voroninrs 10.12.2012 14:48:20"/> 
  <line x1="821.348" y1="288.485" x2="821.348" y2="400.818" stroke="black" stroke-width="1"/> 
  <line x1="1524.39" y1="601.076" x2="1144.09" y2="601.076" stroke="black" stroke-width="3"/> 
  <line x1="1521.36" y1="502.106" x2="1141.06" y2="502.106" stroke="black" stroke-width="3"/> 
  <line x1="1225.45" y1="949.091" x2="1225.45" y2="998.939" stroke="black" stroke-width="3"/> 
  <line x1="983.485" y1="174.848" x2="671.364" y2="174.848" stroke="black" stroke-width="3"/> 
  <line x1="700.136" y1="505.152" x2="700.136" y2="576.424" stroke="black" stroke-width="3"/> 
  <line x1="1519.85" y1="398.545" x2="1139.55" y2="398.545" stroke="black" stroke-width="3"/> 
  <line x1="1601.61" y1="601.076" x2="1539.61" y2="601.076" stroke="black" stroke-width="3"/> 
  <line x1="1116" y1="601.076" x2="1054" y2="601.076" stroke="black" stroke-width="3"/> 
  <line x1="1114" y1="502.25" x2="1052" y2="502.25" stroke="black" stroke-width="3"/> 
  <path d="M352.545 433.577 L402.545 433.577 A50 50 0 0 0 302.545 433.577 Z" fill="Col_Grey3" stroke="black" stroke-width="2" transform="rotate(270 335.484 342.061)"/> 
  <line x1="1224" y1="875" x2="1655.33" y2="875" stroke="black" stroke-width="3"/> 
  <line x1="700" y1="872" x2="700" y2="900" stroke="black" stroke-width="3"/> 
  <line x1="251" y1="858" x2="299" y2="858" stroke="black" stroke-width="3"/> 
  <line x1="315.833" y1="873" x2="315.833" y2="900.333" stroke="black" stroke-width="3"/> 
  <line x1="1114" y1="398.545" x2="992.576" y2="398.636" stroke="black" stroke-width="3"/> 
  <line x1="700" y1="412.667" x2="700" y2="483.939" stroke="black" stroke-width="3"/> 
  <line x1="650.151" y1="174.848" x2="525" y2="174.985" stroke="black" stroke-width="3"/> 
  <line x1="427" y1="352.667" x2="427" y2="422.667" stroke="black" stroke-width="3"/> 
  <image x="187.515" y="315.242" width="175" height="25" xlink:href="DS_ana_tenzor.svg">
    <title>00QHG00CP019</title>
    <rt:dyn type="ShowFrame" mode="constant" value="true"/> 
    <rt:dyn type="X" mode="constant" value="&quot;P&quot;"/> 
    <rt:dyn type="FKKS" mode="constant" value="&quot;00QHG00CP019&quot;"/> 
    <rt:dyn type="ValueToTheRight" mode="constant" value="false"/> 
    <rt:dyn type="Color_Readings" mode="constant" value="true"/> 
  </image>
  <line x1="298" y1="433" x2="298" y2="433" stroke="black"/> 
  <line x1="344" y1="425" x2="342" y2="0"/> 
  <line x1="592.727" y1="690.909" x2="592.727" y2="690.909" stroke="black"/> 
  <line x1="749.091" y1="939.091" x2="749.091" y2="939.091" stroke="black"/> 
  <line x1="638.182" y1="881.818" x2="638.182" y2="881.818" stroke="black"/> 
  <line x1="214.545" y1="692.727" x2="214.545" y2="692.727" stroke="black"/> 
  <line x1="259.091" y1="771.818" x2="259.091" y2="771.818" stroke="black"/> 
  <line x1="195.455" y1="720" x2="195.455" y2="720" stroke="black"/> 
  <line x1="186.364" y1="713.636" x2="186.364" y2="713.636" stroke="black"/> 
  <line x1="191.818" y1="715.455" x2="191.818" y2="715.455" stroke="black"/> 
  <line x1="985.455" y1="149.091" x2="985.455" y2="149.091" stroke="black"/> 
  <line x1="1150" y1="365" x2="1150" y2="365" stroke="black"/> 
  <line x1="1274" y1="337" x2="1274" y2="337" stroke="black"/> 
  <line x1="1029" y1="375" x2="1029" y2="375" stroke="black"/> 
  <line x1="1215.33" y1="421.333" x2="1215.33" y2="421.333" stroke="black"/> 
  <line x1="1007" y1="314.75" x2="1007" y2="314.75" stroke="black"/> 
  <line x1="1027.27" y1="820" x2="1027.27" y2="820" stroke="black"/> 
  <line x1="675" y1="65" x2="675" y2="65" stroke="black"/> 
  <line x1="1468" y1="294" x2="1468" y2="294" stroke="black"/> 
  <line x1="1066.67" y1="766" x2="1066.67" y2="766" stroke="black"/> 
  <g transform="rotate(90 180.309 152.309) rotate(90 132.155 29.823) rotate(360 1.4013e-045 2.31881e-039) flipY(911) rotate(180 1212.44 532.643)">
    <polygon points="128.949,1784.86 153.949,1784.86 141.949,1809.86 141.949,1809.86" fill="black" stroke="black" stroke-width="1" transform="rotate(180 1279.17 367.814)"/> 
  </g>
  <text x="28" y="44.6667" fill="black" font-size="15">00UTH 00CXJ11 Паровая часть</text>
  <line x1="414.669" y1="422.004" x2="439.336" y2="422.004" stroke="black"/> 
  <text x="666.818" y="111.591" fill="black" font-size="15" text-anchor="middle">00QHG20<tspan x="666.818" dy="15">AA201</tspan>
  </text>
  <image x="636.212" y="204.243" width="65" height="25" xlink:href="DS_Reg_degree.svg">
    <title>00QHG20AA201</title>
    <rt:dyn type="KKS" mode="constant" value="&quot;00QHG20AA201&quot;"/> 
    <rt:dyn type="SIGNAL" mode="constant" value="&quot;XQ54&quot;"/> 
  </image>
  <image x="655.547" y="466.838" width="70" height="65" xlink:href="DS_Reg_valve_tenzor.svg" transform="rotate(270 0 -10)">
    <title>00QHG10AA201</title>
    <rt:dyn type="KKS" mode="constant" value="&quot;00QHG10AA201&quot;"/> 
    <rt:dyn type="Operate" mode="constant" value="false"/> 
    <rt:dyn type="DATA_NARY" mode="constant" value="&quot;TYPE2&quot;"/> 
  </image>
  <image x="200" y="158" width="175" height="25" xlink:href="DS_ana_tenzor.svg">
    <title>00QLC00CT002</title>
    <rt:dyn type="ShowFrame" mode="constant" value="true"/> 
    <rt:dyn type="X" mode="constant" value="&quot;T&quot;"/> 
    <rt:dyn type="FKKS" mode="constant" value="&quot;00QLC00CT002&quot;"/> 
    <rt:dyn type="ValueToTheRight" mode="constant" value="false"/> 
    <rt:dyn type="Color_Readings" mode="constant" value="true"/> 
  </image>
  <g>
    <line x1="1050.56" y1="139.287" x2="980.061" y2="139.287" stroke="black" stroke-width="1"/> 
    <line x1="1050.56" y1="209.287" x2="980.061" y2="209.287" stroke="black" stroke-width="1"/> 
    <line x1="1050.06" y1="139.287" x2="1050.06" y2="209.287" stroke="black" stroke-width="1"/> 
    <line x1="980.561" y1="139.787" x2="980.561" y2="209.787" stroke="black" stroke-width="1"/> 
    <line x1="1015.56" y1="154.287" x2="1015.56" y2="193.787" stroke="black" stroke-width="1"/> 
    <line x1="1035.06" y1="174.787" x2="1015.56" y2="194.787" stroke="black" stroke-width="1"/> 
    <line x1="1015.92" y1="154.287" x2="995.061" y2="174.787" stroke="black" stroke-width="1"/> 
    <line x1="1050.06" y1="174.787" x2="1034.56" y2="174.787" stroke="black" stroke-width="1"/> 
    <line x1="996.061" y1="174.787" x2="980.061" y2="174.787" stroke="black" stroke-width="1"/> 
  </g>
  <rect x="966.561" y="122.788" width="99" height="101" rx="0" ry="0" fill="none" stroke="black" stroke-dasharray="10,10"/> 
  <text x="425" y="471.333" fill="black" font-size="15" text-anchor="middle">В продувочный<tspan x="425" dy="15">колодец</tspan>
  </text>
  <g transform="scale(0.779302 0.779302 1382.69 878.06) rotate(180 1516.28 224.061)">
    <circle cx="1553.63" cy="-428.655" r="36" fill="Col_BGSand" stroke="black" stroke-width="3"/> 
    <line x1="1539.63" y1="-396.655" x2="1588.69" y2="-425.594" stroke="black" stroke-width="3"/> 
    <line x1="1535.63" y1="1761.72" x2="1587.45" y2="1730.78" stroke="black" stroke-width="3" transform="flipY(651.531)"/> 
  </g>
  <image x="1225" y="825" width="175" height="25" xlink:href="DS_ana_tenzor.svg">
    <title>00QHA00CP054</title>
    <rt:dyn type="ShowFrame" mode="constant" value="true"/> 
    <rt:dyn type="X" mode="constant" value="&quot;P&quot;"/> 
    <rt:dyn type="FKKS" mode="constant" value="&quot;00QHA00CP054&quot;"/> 
    <rt:dyn type="ValueToTheRight" mode="constant" value="false"/> 
    <rt:dyn type="Color_Readings" mode="constant" value="true"/> 
  </image>
  <g transform="rotate(270 99.3091 253.976) rotate(90 180.309 152.309) rotate(90 132.155 29.823) rotate(360 1.4013e-045 2.31881e-039) flipY(911) rotate(180 1212.44 532.643)">
    <polygon points="352.282,1663.7 377.282,1663.7 365.282,1688.7 365.282,1688.7" fill="black" stroke="black" stroke-width="1" transform="rotate(180 1279.17 367.814)"/> 
  </g>
  <line x1="-32.0279" y1="192.626" x2="-7.36187" y2="192.626" stroke="black" transform="rotate(90 98.3338 267.671)"/> 
  <text x="91.4167" y="146.5" fill="black" font-size="15" text-anchor="middle">Конденсат<tspan x="91.4167" dy="15">с произв.</tspan>
  </text>
  <g transform="scale(0.618165 0.618165 824.061 964.837) rotate(270 364.533 646.642)">
    <circle cx="46.3382" cy="1106.17" r="36" fill="Col_BGSand" stroke="black" stroke-width="3"/> 
    <line x1="32.3384" y1="1138.17" x2="81.3982" y2="1109.23" stroke="black" stroke-width="3"/> 
    <line x1="28.3384" y1="226.892" x2="80.1582" y2="195.953" stroke="black" stroke-width="3" transform="flipY(651.531)"/> 
  </g>
  <text x="1385.76" y="560.076" fill="black" font-size="15" text-anchor="middle">00QHG00AP001</text>
  <image x="1353.12" y="466.894" width="70" height="70" xlink:href="DS_motor_tenzor.svg" transform="rotate(0 0.00012207 0)">
    <title>00QHG00AP002</title>
    <rt:dyn type="DeviceType" mode="constant" value="&quot;pump&quot;"/> 
    <rt:dyn type="Operate" mode="constant" value="false"/> 
    <rt:dyn type="KKS" mode="constant" value="&quot;00QHG00AP002&quot;"/> 
    <rt:dyn type="DATA_NARY" mode="constant" value="&quot;TYPE2&quot;"/> 
  </image>
  <text x="1388.12" y="459.106" fill="black" font-size="15" text-anchor="middle">00QHG00AP002</text>
  <image x="1355.73" y="362.636" width="70" height="70" xlink:href="DS_motor_tenzor.svg" transform="rotate(0 0.00012207 0)">
    <title>00QHG00AP003</title>
    <rt:dyn type="DeviceType" mode="constant" value="&quot;pump&quot;"/> 
    <rt:dyn type="Operate" mode="constant" value="true"/> 
    <rt:dyn type="KKS" mode="constant" value="&quot;00QHG00AP003&quot;"/> 
    <rt:dyn type="DATA_NARY" mode="constant" value="&quot;TYPE2&quot;"/> 
  </image>
  <text x="1389.58" y="357.045" fill="black" font-size="15" text-anchor="middle">00QHG00AP003</text>
  <path d="M352.545 581.577 L402.545 581.577 A50 50 0 0 0 302.545 581.577 Z" fill="Col_Grey3" stroke="black" stroke-width="2" transform="flipX(600) rotate(270 335.484 342.061)"/> 
  <rect x="424" y="273" width="203" height="102" rx="0" ry="0"/> 
  <line x1="630.333" y1="275" x2="420" y2="275" stroke="black" stroke-width="3"/> 
  <line x1="628.333" y1="375" x2="421.333" y2="375" stroke="black" stroke-width="3"/> 
  <line x1="675" y1="314" x2="377.5" y2="313" stroke="black" stroke-width="1"/> 
  <line x1="676" y1="325" x2="377" y2="325.5" stroke="black" stroke-dasharray="5,5" stroke-width="1"/> 
  <line x1="669" y1="350.167" x2="380.667" y2="350" stroke="black" stroke-dasharray="5,5" stroke-width="1"/> 
  <line x1="673" y1="337.333" x2="376" y2="337.831" stroke="black" stroke-dasharray="5,5" stroke-width="1"/> 
  <line x1="656.333" y1="363.333" x2="393.5" y2="363.5" stroke="black" stroke-dasharray="5,5" stroke-width="1"/> 
  <text x="567.75" y="300" fill="black" font-size="15" text-anchor="middle">00QHG10BB001</text>
  <line x1="450" y1="212.667" x2="450" y2="350" stroke="black" stroke-width="3"/> 
  <line x1="460.5" y1="349.015" x2="440.5" y2="349" stroke="black" stroke-width="3"/> 
  <path d="M588.861 561.244 L614.167 561.244 A25.3057 22.1568 0 0 0 563.556 561.244 Z" fill="Col_Grey3" stroke="black" stroke-width="2" transform="rotate(90 484.694 103.684) rotate(270 335.484 342.061)"/> 
  <rect x="475" y="173" width="50" height="102" rx="0" ry="0"/> 
  <line x1="525" y1="175" x2="525" y2="276.667" stroke="black" stroke-width="3"/> 
  <line x1="475" y1="173.333" x2="475" y2="275" stroke="black" stroke-width="3"/> 
  <line x1="475" y1="200.015" x2="400" y2="200" stroke="black" stroke-width="3"/> 
  <line x1="400" y1="151" x2="400" y2="201" stroke="black" stroke-width="3"/> 
  <line x1="402" y1="150" x2="167.333" y2="150" stroke="black" stroke-width="3"/> 
  <image x="200" y="110.667" width="175" height="25" xlink:href="DS_ana_tenzor.svg">
    <title>00QLC00CP001</title>
    <rt:dyn type="ShowFrame" mode="constant" value="true"/> 
    <rt:dyn type="X" mode="constant" value="&quot;P&quot;"/> 
    <rt:dyn type="FKKS" mode="constant" value="&quot;00QLC00CP001&quot;"/> 
    <rt:dyn type="ValueToTheRight" mode="constant" value="false"/> 
    <rt:dyn type="Color_Readings" mode="constant" value="true"/> 
  </image>
  <image x="187.515" y="362.575" width="175" height="25" xlink:href="DS_ana_tenzor.svg">
    <title>00QHG00CL022</title>
    <rt:dyn type="ShowFrame" mode="constant" value="true"/> 
    <rt:dyn type="X" mode="constant" value="&quot;L&quot;"/> 
    <rt:dyn type="FKKS" mode="constant" value="&quot;00QHG00CL022&quot;"/> 
    <rt:dyn type="ValueToTheRight" mode="constant" value="false"/> 
    <rt:dyn type="Color_Readings" mode="constant" value="true"/> 
  </image>
  <line x1="700" y1="250" x2="600" y2="250" stroke="black" stroke-width="3"/> 
  <line x1="922.879" y1="400" x2="600" y2="400" stroke="black" stroke-width="3"/> 
  <line x1="765.303" y1="240" x2="525" y2="239.985" stroke="black" stroke-width="3"/> 
  <line x1="600" y1="248" x2="600" y2="275" stroke="black" stroke-width="3"/> 
  <line x1="600" y1="375" x2="600" y2="401" stroke="black" stroke-width="3"/> 
  <path d="M490.212 456.577 A12.6667 11.3334 0 0 0 464.878 456.577 " fill="none" stroke="black" stroke-width="2" transform="rotate(270 335.484 342.061)"/> 
  <line x1="450" y1="73" x2="450" y2="187.333" stroke="black" stroke-width="3"/> 
  <line x1="1604.7" y1="73.985" x2="449" y2="73.985" stroke="black" stroke-width="3"/> 
  <line x1="1245.61" y1="174.848" x2="1048.64" y2="174.848" stroke="black" stroke-width="3"/> 
  <path d="M290.212 706.577 A12.6667 11.3334 0 0 0 264.878 706.577 " fill="none" stroke="black" stroke-width="2" transform="rotate(270 335.484 342.061)"/> 
  <line x1="700" y1="248" x2="700" y2="387.333" stroke="black" stroke-width="3"/> 
  <line x1="701" y1="575" x2="49" y2="575" stroke="black" stroke-width="3"/> 
  <g>
    <line x1="993.742" y1="363.06" x2="923.242" y2="363.06" stroke="black" stroke-width="1"/> 
    <line x1="993.742" y1="433.06" x2="923.242" y2="433.06" stroke="black" stroke-width="1"/> 
    <line x1="993.242" y1="363.06" x2="993.242" y2="433.06" stroke="black" stroke-width="1"/> 
    <line x1="923.742" y1="363.56" x2="923.742" y2="433.56" stroke="black" stroke-width="1"/> 
    <line x1="958.742" y1="378.06" x2="958.742" y2="417.56" stroke="black" stroke-width="1"/> 
    <line x1="978.242" y1="398.56" x2="958.742" y2="418.56" stroke="black" stroke-width="1"/> 
    <line x1="959.101" y1="378.06" x2="938.242" y2="398.56" stroke="black" stroke-width="1"/> 
    <line x1="993.242" y1="398.56" x2="977.742" y2="398.56" stroke="black" stroke-width="1"/> 
    <line x1="939.242" y1="398.56" x2="923.242" y2="398.56" stroke="black" stroke-width="1"/> 
  </g>
  <rect x="909.742" y="346.561" width="99" height="101" rx="0" ry="0" fill="none" stroke="black" stroke-dasharray="10,10"/> 
  <line x1="763.788" y1="412.727" x2="763.788" y2="661.212" stroke="black" stroke-width="3"/> 
  <line x1="1053" y1="397" x2="1053" y2="603" stroke="black" stroke-width="3"/> 
  <image x="1350.76" y="566.864" width="70" height="70" xlink:href="DS_motor_tenzor.svg" transform="rotate(0 0.00012207 0)">
    <title>00QHG00AP001</title>
    <rt:dyn type="DeviceType" mode="constant" value="&quot;pump&quot;"/> 
    <rt:dyn type="Operate" mode="constant" value="false"/> 
    <rt:dyn type="KKS" mode="constant" value="&quot;00QHG00AP001&quot;"/> 
    <rt:dyn type="DATA_NARY" mode="constant" value="&quot;TYPE2&quot;"/> 
  </image>
  <line x1="1601.61" y1="214.243" x2="1601.61" y2="674.303" stroke="black" stroke-width="3"/> 
  <g transform="flipY(323.975) rotate(90 180.309 152.309) rotate(90 132.155 29.823) rotate(360 1.4013e-045 2.31881e-039) flipY(911) rotate(180 1212.44 532.643)">
    <polygon points="-1046.2,1710.44 -1021.2,1710.44 -1033.2,1735.44 -1033.2,1735.44" fill="black" stroke="black" stroke-width="1" transform="rotate(180 1279.17 367.814)"/> 
  </g>
  <text x="1516.06" y="182.803" fill="black" font-size="15" text-anchor="middle">00QHG10<tspan x="1516.06" dy="15">AA202</tspan>
  </text>
  <image x="1486.18" y="202.177" width="65" height="25" xlink:href="DS_Reg_degree.svg">
    <title>00QHG10AA202</title>
    <rt:dyn type="KKS" mode="constant" value="&quot;00QHG10AA202&quot;"/> 
    <rt:dyn type="SIGNAL" mode="constant" value="&quot;XQ54&quot;"/> 
  </image>
  <text x="1013.79" y="98.4394" fill="black" font-size="15" text-anchor="middle">Охладитель<tspan x="1013.79" dy="15">выпара</tspan>
  </text>
  <image x="632.727" y="132.5" width="70" height="65" xlink:href="DS_Reg_valve_tenzor.svg" transform="rotate(360 0 -10)">
    <title>00QHG20AA201</title>
    <rt:dyn type="KKS" mode="constant" value="&quot;00QHG20AA201&quot;"/> 
    <rt:dyn type="Operate" mode="constant" value="false"/> 
    <rt:dyn type="DATA_NARY" mode="constant" value="&quot;TYPE2&quot;"/> 
  </image>
  <text x="617.576" y="482.803" fill="black" font-size="15" text-anchor="middle">00QHG10<tspan x="617.576" dy="15">AA201</tspan>
  </text>
  <image x="586.527" y="503.272" width="65" height="25" xlink:href="DS_Reg_degree.svg">
    <title>00QHG10AA201</title>
    <rt:dyn type="KKS" mode="constant" value="&quot;00QHG10AA201&quot;"/> 
    <rt:dyn type="SIGNAL" mode="constant" value="&quot;XQ54&quot;"/> 
  </image>
  <line x1="1603.18" y1="674.848" x2="150" y2="675" stroke="black" stroke-width="3"/> 
  <g transform="flipX(1166.92) rotate(270 99.3091 253.976) rotate(90 180.309 152.309) rotate(90 132.155 29.823) rotate(360 1.4013e-045 2.31881e-039) flipY(911) rotate(180 1212.44 532.643)">
    <polygon points="877.124,2777.42 902.124,2777.42 890.124,2802.42 890.124,2802.42" fill="black" stroke="black" stroke-width="1" transform="rotate(180 1279.17 367.814)"/> 
  </g>
  <image x="1505.54" y="696.061" width="175" height="25" xlink:href="DS_ana_tenzor.svg">
    <title>00QHG00CP021</title>
    <rt:dyn type="ShowFrame" mode="constant" value="true"/> 
    <rt:dyn type="X" mode="constant" value="&quot;P&quot;"/> 
    <rt:dyn type="FKKS" mode="constant" value="&quot;00QHG00CP021&quot;"/> 
    <rt:dyn type="ValueToTheRight" mode="constant" value="false"/> 
    <rt:dyn type="Color_Readings" mode="constant" value="true"/> 
  </image>
  <image x="1500" y="825" width="175" height="25" xlink:href="DS_ana_tenzor.svg">
    <title>00QHA00CT047</title>
    <rt:dyn type="ShowFrame" mode="constant" value="true"/> 
    <rt:dyn type="X" mode="constant" value="&quot;T&quot;"/> 
    <rt:dyn type="FKKS" mode="constant" value="&quot;00QHA00CT047&quot;"/> 
    <rt:dyn type="ValueToTheRight" mode="constant" value="false"/> 
    <rt:dyn type="Color_Readings" mode="constant" value="true"/> 
  </image>
  <image x="1375" y="925" width="175" height="25" xlink:href="DS_ana_tenzor.svg">
    <title>00QHA00CF008</title>
    <rt:dyn type="ShowFrame" mode="constant" value="true"/> 
    <rt:dyn type="X" mode="constant" value="&quot;F&quot;"/> 
    <rt:dyn type="FKKS" mode="constant" value="&quot;00QHA00CF008&quot;"/> 
    <rt:dyn type="ValueToTheRight" mode="constant" value="false"/> 
    <rt:dyn type="Color_Readings" mode="constant" value="true"/> 
  </image>
  <rect x="99.8333" y="700.5" width="277.333" height="123.667" rx="0" ry="0" stroke="black" stroke-width="5"/> 
  <rect x="457.833" y="823.167" width="0.1" height="0.1" rx="0" ry="0"/> 
  <text x="211.583" y="733.167" fill="black" font-size="15" text-anchor="middle">00QHA10AH001<tspan x="211.583" dy="15">Котлоагрегат</tspan>
<tspan x="211.583" dy="15">БЭМ - 25</tspan>
  </text>
  <rect x="477.667" y="701.667" width="277.333" height="123.667" rx="0" ry="0" stroke="black" stroke-width="5"/> 
  <text x="589.546" y="734.318" fill="black" font-size="15" text-anchor="middle">00QHA20AH001<tspan x="589.546" dy="15">Котлоагрегат</tspan>
<tspan x="589.546" dy="15">БЭМ - 25</tspan>
  </text>
  <rect x="280.167" y="842.5" width="66.8333" height="35.5" rx="0" ry="0" stroke="none" stroke-width="5"/> 
  <text x="313.584" y="865.25" fill="black" font-size="15" text-anchor="middle">УКО</text>
  <line x1="150" y1="673.667" x2="150" y2="701" stroke="black" stroke-width="3"/> 
  <line x1="525" y1="675" x2="525" y2="702.333" stroke="black" stroke-width="3"/> 
  <line x1="766.818" y1="900" x2="314" y2="900" stroke="black" stroke-width="3"/> 
  <line x1="251" y1="825" x2="251" y2="925" stroke="black" stroke-width="3"/> 
  <line x1="624.834" y1="857.667" x2="672.834" y2="857.667" stroke="black" stroke-width="3"/> 
  <line x1="624.834" y1="824.667" x2="625" y2="888.667" stroke="black" stroke-width="3"/> 
  <rect x="655.333" y="840.667" width="66.8333" height="35.5" rx="0" ry="0" stroke="none" stroke-width="5"/> 
  <text x="688.75" y="863.417" fill="black" font-size="15" text-anchor="middle">УКО</text>
  <path d="M-209.788 631.577 A12.6667 11.3334 0 0 0 -235.122 631.577 " fill="none" stroke="black" stroke-width="2" transform="rotate(270 335.484 342.061)"/> 
  <line x1="625" y1="911" x2="625" y2="925" stroke="black" stroke-width="3"/> 
  <line x1="250" y1="925" x2="825" y2="925" stroke="black" stroke-width="3"/> 
  <path d="M-209.788 531.577 A24.9997 11.3337 0 0 0 -259.788 531.577 " fill="none" stroke="black" stroke-width="2" transform="rotate(270 335.484 342.061)"/> 
  <line x1="524.833" y1="824.671" x2="524.999" y2="888.671" stroke="black" stroke-width="3"/> 
  <line x1="524.834" y1="937" x2="525" y2="1001" stroke="black" stroke-width="3"/> 
  <line x1="25" y1="1000" x2="1280.67" y2="1000" stroke="black" stroke-width="3"/> 
  <line x1="149.834" y1="825" x2="150" y2="1000" stroke="black" stroke-width="3"/> 
  <line x1="50" y1="575" x2="50.166" y2="1000" stroke="black" stroke-width="3"/> 
  <g transform="flipY(323.975) rotate(90 180.309 152.309) rotate(90 132.155 29.823) rotate(360 1.4013e-045 2.31881e-039) flipY(911) rotate(180 1212.44 532.643)">
    <polygon points="505.41,1234.2 530.41,1234.2 518.41,1259.2 518.41,1259.2" fill="black" stroke="black" stroke-width="1" transform="rotate(180 1279.17 367.814)"/> 
  </g>
  <line x1="25" y1="987.333" x2="25" y2="1010.67" stroke="black" stroke-width="3"/> 
  <line x1="825" y1="986.667" x2="825" y2="1000" stroke="black" stroke-width="3"/> 
  <line x1="825" y1="924" x2="825" y2="942" stroke="black" stroke-width="3"/> 
  <image x="600" y="950" width="175" height="25" xlink:href="DS_ana_tenzor.svg">
    <title>00QHA00CF007</title>
    <rt:dyn type="ShowFrame" mode="constant" value="true"/> 
    <rt:dyn type="X" mode="constant" value="&quot;F&quot;"/> 
    <rt:dyn type="FKKS" mode="constant" value="&quot;00QHA00CF007&quot;"/> 
    <rt:dyn type="ValueToTheRight" mode="constant" value="false"/> 
    <rt:dyn type="Color_Readings" mode="constant" value="true"/> 
  </image>
  <image x="875" y="961.333" width="175" height="25" xlink:href="DS_ana_tenzor.svg">
    <title>00QHA00CT048</title>
    <rt:dyn type="ShowFrame" mode="constant" value="true"/> 
    <rt:dyn type="X" mode="constant" value="&quot;T&quot;"/> 
    <rt:dyn type="FKKS" mode="constant" value="&quot;00QHA00CT048&quot;"/> 
    <rt:dyn type="ValueToTheRight" mode="constant" value="false"/> 
    <rt:dyn type="Color_Readings" mode="constant" value="true"/> 
  </image>
  <image x="875" y="925" width="175" height="25" xlink:href="DS_ana_tenzor.svg">
    <title>00QHA00CP055</title>
    <rt:dyn type="ShowFrame" mode="constant" value="true"/> 
    <rt:dyn type="X" mode="constant" value="&quot;P&quot;"/> 
    <rt:dyn type="FKKS" mode="constant" value="&quot;00QHA00CP055&quot;"/> 
    <rt:dyn type="ValueToTheRight" mode="constant" value="false"/> 
    <rt:dyn type="Color_Readings" mode="constant" value="true"/> 
  </image>
  <line x1="1225.45" y1="875" x2="1225.45" y2="924.848" stroke="black" stroke-width="3"/> 
  <line x1="1281.21" y1="986.667" x2="1281.21" y2="1012.73" stroke="black" stroke-width="3"/> 
  <g transform="flipX(1683.31) flipX(1166.92) rotate(270 99.3091 253.976) rotate(90 180.309 152.309) rotate(90 132.155 29.823) rotate(360 1.4013e-045 2.31881e-039) flipY(911) rotate(180 1212.44 532.643)">
    <polygon points="1078.28,2140.75 1103.28,2140.75 1091.28,2165.75 1091.28,2165.75" fill="black" stroke="black" stroke-width="1" transform="rotate(180 1279.17 367.814)"/> 
  </g>
  <line x1="693.33" y1="-1289.83" x2="717.996" y2="-1289.83" stroke="black" transform="rotate(90 98.3338 267.671)"/> 
  <text x="1690.08" y="918.667" fill="black" font-size="15" text-anchor="middle">Пар на пуск<tspan x="1690.08" dy="15">турбин</tspan>
  </text>
  <image x="1180.18" y="902.121" width="70" height="65" xlink:href="DS_CO_valve_tenzor.svg" transform="rotate(270 -0.00012207 -10)">
    <title>00QHA00AA001</title>
    <rt:dyn type="KKS" mode="constant" value="&quot;00QHA00AA001&quot;"/> 
    <rt:dyn type="DATA_NARY" mode="constant" value="&quot;TYPE2&quot;"/> 
    <rt:dyn type="Operate" mode="constant" value="true"/> 
  </image>
  <text x="1139.55" y="931.288" fill="black" font-size="15" text-anchor="middle">00QHA00<tspan x="1139.55" dy="15">AA001</tspan>
  </text>
  <image x="1091" y="460" width="70" height="65" xlink:href="DS_CO_valve_tenzor.svg" transform="rotate(0 -0.00012207 -10)">
    <rt:dyn type="Drive" mode="constant" value="&quot;NONE&quot;"/> 
  </image>
  <image x="1091" y="558" width="70" height="65" xlink:href="DS_CO_valve_tenzor.svg" transform="rotate(0 -0.00012207 -10)">
    <rt:dyn type="Drive" mode="constant" value="&quot;NONE&quot;"/> 
  </image>
  <image x="1499.61" y="558.97" width="70" height="65" xlink:href="DS_CO_valve_tenzor.svg" transform="rotate(0 -0.00012207 -10)">
    <rt:dyn type="Drive" mode="constant" value="&quot;NONE&quot;"/> 
  </image>
  <line x1="1602.61" y1="502.22" x2="1540.61" y2="502.22" stroke="black" stroke-width="3"/> 
  <image x="1499.61" y="458.97" width="70" height="65" xlink:href="DS_CO_valve_tenzor.svg" transform="rotate(0 -0.00012207 -10)">
    <title>00QHA00AA001</title>
    <rt:dyn type="Drive" mode="constant" value="&quot;NONE&quot;"/> 
  </image>
  <image x="1088" y="356" width="70" height="65" xlink:href="DS_CO_valve_tenzor.svg" transform="rotate(0 -0.00012207 -10)">
    <rt:dyn type="Drive" mode="constant" value="&quot;NONE&quot;"/> 
  </image>
  <line x1="1599.61" y1="398.545" x2="1537.61" y2="398.545" stroke="black" stroke-width="3"/> 
  <image x="1496.61" y="356.97" width="70" height="65" xlink:href="DS_CO_valve_tenzor.svg" transform="rotate(0 -0.00012207 -10)">
    <rt:dyn type="Drive" mode="constant" value="&quot;NONE&quot;"/> 
  </image>
  <line x1="1602.5" y1="71.8185" x2="1602.52" y2="183.94" stroke="black" stroke-width="3"/> 
  <image x="1556.82" y="164.47" width="70" height="65" xlink:href="DS_Reg_valve_tenzor.svg" transform="rotate(270 0 -10)">
    <title>00QHG10AA202</title>
    <rt:dyn type="KKS" mode="constant" value="&quot;00QHG10AA202&quot;"/> 
    <rt:dyn type="Operate" mode="constant" value="false"/> 
    <rt:dyn type="DATA_NARY" mode="constant" value="&quot;TYPE2&quot;"/> 
  </image>
  <path d="M291.093 772.094 A12.6667 11.3334 0 0 0 265.759 772.094 " fill="none" stroke="black" stroke-width="2" transform="rotate(270 335.484 342.061)"/> 
  <line x1="763.788" y1="238.485" x2="763.773" y2="387.939" stroke="black" stroke-width="3"/> 
  <line x1="1244.09" y1="174.364" x2="1244.09" y2="286.485" stroke="black" stroke-width="3"/> 
  <line x1="1244.09" y1="285.439" x2="963.788" y2="285.439" stroke="black" stroke-width="3"/> 
  <line x1="961.946" y1="283.939" x2="961.946" y2="362.727" stroke="black" stroke-width="3"/> 
  <line x1="961.953" y1="433.939" x2="961.938" y2="544.545" stroke="black" stroke-width="3"/> 
  <g transform="flipY(323.975) rotate(90 180.309 152.309) rotate(90 132.155 29.823) rotate(360 1.4013e-045 2.31881e-039) flipY(911) rotate(180 1212.44 532.643)">
    <polygon points="-406.021,1456.86 -381.021,1456.86 -393.021,1481.86 -393.021,1481.86" fill="black" stroke="black" stroke-width="1" transform="rotate(180 1279.17 367.814)"/> 
  </g>
  <image x="851.667" y="479.394" width="175" height="25" xlink:href="DS_ana_tenzor.svg">
    <title>00QHG00CF001</title>
    <rt:dyn type="ShowFrame" mode="constant" value="true"/> 
    <rt:dyn type="X" mode="constant" value="&quot;F&quot;"/> 
    <rt:dyn type="FKKS" mode="constant" value="&quot;00QHG00CF001&quot;"/> 
    <rt:dyn type="ValueToTheRight" mode="constant" value="false"/> 
    <rt:dyn type="Color_Readings" mode="constant" value="true"/> 
  </image>
  <image x="189.546" y="265.758" width="175" height="25" xlink:href="DS_ana_tenzor.svg">
    <title>00QHG00CP001</title>
    <rt:dyn type="ShowFrame" mode="constant" value="true"/> 
    <rt:dyn type="X" mode="constant" value="&quot;P&quot;"/> 
    <rt:dyn type="FKKS" mode="constant" value="&quot;00QHG00CP001&quot;"/> 
    <rt:dyn type="ValueToTheRight" mode="constant" value="false"/> 
    <rt:dyn type="Color_Readings" mode="constant" value="true"/> 
  </image>
  <image x="747.121" y="138.485" width="175" height="25" xlink:href="DS_ana_tenzor.svg">
    <title>00QHG00CT001</title>
    <rt:dyn type="ShowFrame" mode="constant" value="true"/> 
    <rt:dyn type="X" mode="constant" value="&quot;T&quot;"/> 
    <rt:dyn type="FKKS" mode="constant" value="&quot;00QHG00CT001&quot;"/> 
    <rt:dyn type="ValueToTheRight" mode="constant" value="false"/> 
    <rt:dyn type="Color_Readings" mode="constant" value="true"/> 
  </image>
  <image x="772.879" y="286.97" width="175" height="25" xlink:href="DS_ana_tenzor.svg">
    <title>00QHG00CT006</title>
    <rt:dyn type="ShowFrame" mode="constant" value="true"/> 
    <rt:dyn type="X" mode="constant" value="&quot;T&quot;"/> 
    <rt:dyn type="FKKS" mode="constant" value="&quot;00QHG00CT006&quot;"/> 
    <rt:dyn type="ValueToTheRight" mode="constant" value="false"/> 
    <rt:dyn type="Color_Readings" mode="constant" value="true"/> 
  </image>
  <line x1="1029.44" y1="314.242" x2="1029.44" y2="399.303" stroke="black" stroke-width="1"/> 
  <image x="983.485" y="293.03" width="175" height="25" xlink:href="DS_ana_tenzor.svg">
    <title>00QHG00CT007</title>
    <rt:dyn type="ShowFrame" mode="constant" value="true"/> 
    <rt:dyn type="X" mode="constant" value="&quot;T&quot;"/> 
    <rt:dyn type="FKKS" mode="constant" value="&quot;00QHG00CT007&quot;"/> 
    <rt:dyn type="ValueToTheRight" mode="constant" value="false"/> 
    <rt:dyn type="Color_Readings" mode="constant" value="true"/> 
  </image>
  <image x="1300.15" y="297.576" width="181.818" height="24.2424" xlink:href="bitwise_tablo_4bits.svg">
    <title>00QHG00AP001002003</title>
    <rt:dyn type="PointID_1" mode="constant" value="&quot;00QHG00AP001002003_Z0 0&quot;"/> 
    <rt:dyn type="Text_0001" mode="constant" value="&quot;АВР НЕ ГОТОВ&quot;"/> 
    <rt:dyn type="Text_0000" mode="constant" value="&quot;АВР ДИСТ&quot;"/> 
    <rt:dyn type="Color_0010" mode="constant" value="&quot;Col_Yellow&quot;"/> 
    <rt:dyn type="Color_0001" mode="constant" value="&quot;Col_Green&quot;"/> 
    <rt:dyn type="Text_0010" mode="constant" value="&quot;АВР ГОТОВ&quot;"/> 
    <rt:dyn type="PointID_2" mode="constant" value="&quot;00QHG00AP001002003_Z0 1&quot;"/> 
    <rt:dyn type="PointID_3" mode="constant" value="&quot;00QHG00AP001002003_Z0 2&quot;"/> 
    <rt:dyn type="PointID_4" mode="constant" value="&quot;00QHG00AP001002003_Z0 3&quot;"/> 
    <rt:dyn type="Text_0100" mode="constant" value="&quot;АВР СРАБОТАЛ&quot;"/> 
    <rt:dyn type="Color_0100" mode="constant" value="&quot;Col_Red&quot;"/> 
    <rt:dyn type="Color_0000" mode="constant" value="&quot;Col_Grey3&quot;"/> 
  </image>
  <image x="1155.2" y="329.894" width="160" height="30" xlink:href="ps_tenzor_m0.svg">
    <title>00QHG00AP003</title>
    <rt:dyn type="KKS" mode="constant" value="&quot;00QHG00AP003&quot;"/> 
  </image>
  <image x="1155.2" y="435.955" width="160" height="30" xlink:href="ps_tenzor_m0.svg">
    <title>00QHG00AP002</title>
    <rt:dyn type="KKS" mode="constant" value="&quot;00QHG00AP002&quot;"/> 
  </image>
  <image x="1155.2" y="533.939" width="160" height="30" xlink:href="ps_tenzor_m0.svg">
    <title>00QHG00AP001</title>
    <rt:dyn type="KKS" mode="constant" value="&quot;00QHG00AP001&quot;"/> 
  </image>
  <path d="M15.3359 772.094 A12.6667 11.3334 0 0 0 -9.99808 772.094 " fill="none" stroke="black" stroke-width="2" transform="rotate(270 335.484 342.061)"/> 
  <line x1="765.303" y1="685.455" x2="765.303" y2="902.121" stroke="black" stroke-width="3"/> 
  <text x="963.03" y="566.136" fill="black" font-size="15" text-anchor="middle">ХОВ</text>
  <rect x="43.576" y="465.242" width="285.364" height="85.3637" rx="0" ry="0" fill="Col_BGSand" stroke="black" stroke-width="2"/> 
  <text x="186.516" y="486.967" fill="black" font-size="15" text-anchor="middle">Режим работы<tspan x="186.516" dy="15">00QHG00AP001002003</tspan>
  </text>
  <image x="96.516" y="512.727" width="181.818" height="24.2424" xlink:href="bitwise_tablo_4bits.svg">
    <title>00QHG00AP001002003_XK92</title>
    <rt:dyn type="PointID_1" mode="constant" value="&quot;00QHG00AP001002003_XK92&quot;"/> 
    <rt:dyn type="Text_0000" mode="constant" value="&quot;АВТОМАТИЧЕСКИЙ&quot;"/> 
    <rt:dyn type="Color_0001" mode="constant" value="&quot;Col_Green&quot;"/> 
    <rt:dyn type="Text_0001" mode="constant" value="&quot;ДИСТАНЦИОННЫЙ&quot;"/> 
    <rt:dyn type="Color_0000" mode="constant" value="&quot;Col_Green&quot;"/> 
  </image>
  <image x="1454" y="231" width="100" height="30" xlink:href="DS_Reg_set.svg">
    <title>00QHG10AA202</title>
    <rt:dyn type="KKS" mode="constant" value="&quot;00QHG10AA202&quot;"/> 
    <rt:dyn type="DATA_NARY" mode="constant" value="&quot;TYPE2&quot;"/> 
    <rt:dyn type="Operate" mode="constant" value="true"/> 
    <rt:dyn type="ShowGoodColor" mode="constant" value="true"/> 
  </image>
  <image x="706" y="184" width="100" height="30" xlink:href="DS_Reg_set.svg">
    <title>00QHG20AA201</title>
    <rt:dyn type="KKS" mode="constant" value="&quot;00QHG20AA201&quot;"/> 
    <rt:dyn type="DATA_NARY" mode="constant" value="&quot;TYPE2&quot;"/> 
    <rt:dyn type="Operate" mode="constant" value="true"/> 
    <rt:dyn type="ShowGoodColor" mode="constant" value="true"/> 
  </image>
  <image x="552" y="532" width="100" height="30" xlink:href="DS_Reg_set.svg">
    <title>00QHG10AA201</title>
    <rt:dyn type="KKS" mode="constant" value="&quot;00QHG10AA201&quot;"/> 
    <rt:dyn type="DATA_NARY" mode="constant" value="&quot;TYPE2&quot;"/> 
    <rt:dyn type="Operate" mode="constant" value="true"/> 
    <rt:dyn type="ShowGoodColor" mode="constant" value="true"/> 
  </image>
</svg>
