<?xml  version="1.0" encoding="windows-1251"?>
<svg color="Col_BGSand" xmlns="http://www.w3.org/2000/svg" xmlns:rt="http://www.rts.co.at/2001/XMLSchema/RtSvgPL" xmlns:xlink="http://www.w3.org/1999/xlink" xmlns:xsi="http://www.w3.org/2001/XMLSchema-instance" xsi:schemaLocation="http://www.w3.org/2000/svg C:\RTS\RtSvg\XML\SVG.xsd" viewBox="0 0 1914 1000" width="1914" height="1000" id="pcc01">
  <title>Система трубопроводов основной питательной воды</title>
  <rt:model modelversion="7.2.0.24" comment="Создано VNIIAES-ASUTP\podchumachev 27.03.2013 15:38:50"/> 
  <rect x="827.88" y="460.695" width="16.7455" height="320" rx="0" ry="0" fill="Col_Grey5" stroke="black" stroke-width="0.28418" transform="flipY() translate(0 -828) translate(-1223.04 110.188) scale(3.5 0.7)"/> 
  <rect x="787.493" y="433.505" width="6.75464" height="29.0837" rx="0" ry="0" fill="gray" stroke="black" stroke-width="0.28418" transform="flipY() translate(0 -828) translate(-1223.04 110.188) scale(3.5 0.7)"/> 
  <rect x="789.196" y="91.16" width="3.34778" height="33.7735" rx="0" ry="0" fill="gray" stroke="black" stroke-width="0.28418" transform="flipY() translate(0 -828) translate(-1223.04 110.188) scale(3.5 0.7)"/> 
  <rect x="787.416" y="112.589" width="6.90839" height="17.1429" rx="0" ry="0" fill="gray" stroke="black" stroke-width="0.28418" transform="flipY() translate(0 -828) translate(-1223.04 110.188) scale(3.5 0.7)"/> 
  <line x1="970" y1="509.091" x2="970" y2="374.22" stroke="black" stroke-width="1"/> 
  <text x="918.47" y="44" font-size="32">
    <title>Система механических очистных устройств</title>
PCC01</text>
  <line x1="546.394" y1="730" x2="1391.85" y2="730" stroke="black" stroke-width="3"/> 
  <line x1="22" y1="878.516" x2="22.9848" y2="212" stroke="black" stroke-width="1"/> 
  <g transform="rotate(270 16.8485 43.1818) flipX(1107.76) flipX(1383.52) flipX(81.2424) rotate(270 1829.73 859.091) flipY(578) rotate(180 1210.44 541.647)">
    <g transform="rotate(90 1212.44 532.643)">
      <polygon points="2482.75,-1227.65 2496.13,-1220 2496.13,-1235.29 2482.75,-1227.65" fill="black" stroke="black" stroke-width="1" transform="rotate(180 1279.17 367.814)"/> 
    </g>
  </g>
  <text x="1173.09" y="254.424" fill="black" font-size="15" text-anchor="middle">10PCC01AA004</text>
  <g transform="rotate(90 625.939 646.212) flipY(493.182) rotate(270 16.8485 43.1818) flipX(1107.76) flipX(1383.52) flipX(81.2424) rotate(270 1829.73 859.091) flipY(578) rotate(180 1210.44 541.647)">
    <g transform="rotate(90 1212.44 532.643)">
      <polygon points="2564.03,-896.291 2577.41,-888.641 2577.41,-903.931 2564.03,-896.291" fill="black" stroke="black" stroke-width="1" transform="rotate(180 1279.17 367.814)"/> 
    </g>
  </g>
  <text x="1119.88" y="500.394" font-size="15" text-anchor="start">К потребителям технической<tspan x="1119.88" dy="15">воды здания 10UMA</tspan>
  </text>
  <image x="944" y="127.273" width="55" height="30" xlink:href="DS_TPTS_AVR.svg">
    <title>10PCC01AP001</title>
    <rt:dyn type="KKS" mode="constant" value="&quot;???&quot;"/> 
  </image>
  <text x="813" y="815.849" font-size="15" text-anchor="middle">Прг Упр Арм</text>
  <rect x="752.533" y="460.511" width="75" height="320" rx="0" ry="0" fill="gray" stroke="black" stroke-width="0.28418" transform="flipY() translate(0 -828) translate(-1223.04 110.188) scale(3.5 0.7)"/> 
  <g transform="scale(1.71 1.71 1131.5 626)">
    <rect x="737.901" y="81.0097" width="7.64288" height="31.4286" rx="0" ry="0" fill="gray" stroke="black" stroke-width="0.28418" transform="flipY() translate(0 -828) translate(-1223.04 110.188) scale(3.5 0.7)"/> 
    <polygon points="547.515,940.414 547.515,1015.41 623.515,1000.41 623.515,955.414" fill="Col_Grey4" transform="scale(1 0.977597 864.318 469.879) rotate(270 864.318 469.879)"/> 
    <ellipse cx="1437.85" cy="686.351" rx="30" ry="22" fill="Col_Grey4" stroke="Col_Grey5"/> 
    <polygon points="1289.85,653.403 1289.85,717.403 1439.85,707.903 1440.85,663.903" fill="Col_Grey4" stroke="none"/> 
    <rect x="715.972" y="-2.19901" width="2" height="97" rx="0" ry="0" fill="Col_Grey4" stroke="Col_Grey5" stroke-width="0.28418" transform="flipY() translate(0 -828) translate(-1223.04 110.188) scale(3.5 0.7)"/> 
  </g>
  <image x="1504.85" y="690.909" width="70" height="70" xlink:href="DS_motor.svg" transform="flipX(2.70338e-005)">
    <title>10PCC01AP002</title>
    <rt:dyn type="KKS" mode="constant" value="&quot;10PCC01AP002&quot;"/> 
    <rt:dyn type="DATA_NARY" mode="constant" value="&quot;TPTS&quot;"/> 
    <rt:dyn type="Operate" mode="constant" value="TRUE"/> 
  </image>
  <rect x="735.549" y="459.908" width="16.7455" height="320" rx="0" ry="0" fill="Col_Grey5" stroke="black" stroke-width="0.28418" transform="flipY() translate(0 -828) translate(-1223.04 110.188) scale(3.5 0.7)"/> 
  <rect x="787.025" y="139.955" width="7.68976" height="283.55" rx="0" ry="0" fill="gray" stroke="black" stroke-width="0.28418" transform="flipY() translate(0 -828) translate(-1223.04 110.188) scale(3.5 0.7)"/> 
  <line x1="1520.51" y1="654" x2="1567.51" y2="654" stroke="Col_Grey5" stroke-width="2"/> 
  <line x1="1388.27" y1="584.403" x2="1390.75" y2="322.724" stroke="Col_Grey5" stroke-width="2" transform="rotate(93.6189 1353.55 635.149)"/> 
  <rect x="785.849" y="128.259" width="10.0433" height="12.6407" rx="0" ry="0" fill="gray" stroke="black" stroke-width="0.28418" transform="flipY() translate(0 -828) translate(-1223.04 110.188) scale(3.5 0.7)"/> 
  <rect x="785.849" y="422.293" width="10.0433" height="12.6407" rx="0" ry="0" fill="gray" stroke="black" stroke-width="0.28418" transform="flipY() translate(0 -828) translate(-1223.04 110.188) scale(3.5 0.7)"/> 
  <line x1="1489.79" y1="716.189" x2="1488.34" y2="455.694" stroke="Col_Grey5" stroke-width="2" transform="flipX(1463.57) rotate(93.6189 1353.55 635.149)"/> 
  <rect x="739.637" y="599.342" width="10.814" height="110.44" rx="0" ry="0" fill="Col_Grey3" stroke="black" stroke-width="0.28418" transform="flipY() translate(0 -828) translate(-1223.04 110.188) scale(3.5 0.7)"/> 
  <circle cx="1385.54" cy="242.177" r="15.1515" fill="Col_Grey3" stroke="black"/> 
  <circle cx="1385.54" cy="278.168" r="15.1515" fill="Col_Grey3" stroke="black"/> 
  <text x="1239.48" y="417.182" fill="black" font-size="15" text-anchor="middle">10PCC01AA005</text>
  <line x1="1122" y1="308" x2="1387" y2="308" stroke="black" stroke-width="1"/> 
  <image x="1136.94" y="252.681" width="75" height="80" xlink:href="DS_CO_valve.svg" transform="rotate(90 -4.66646 -5.33329) flipX(-4.66666) rotate(180 -2.33341 -7.66667) flipX(1.13687e-013) flipX(-1.13687e-013) rotate(270 0 -10)">
    <title>10PCC01AA004</title>
    <rt:dyn type="DATA_NARY" mode="constant" value="&quot;TPTS&quot;"/> 
    <rt:dyn type="KKS" mode="constant" value="&quot;10PCC01AA004&quot;"/> 
    <rt:dyn type="Drive" mode="constant" value="&quot;solenoid&quot;"/> 
    <rt:dyn type="Operate" mode="constant" value="&quot;true&quot;"/> 
  </image>
  <line x1="968" y1="1025.58" x2="996.349" y2="1025.58" stroke="black" stroke-width="1" transform="rotate(270 818.364 457.561)"/> 
  <line x1="1035.58" y1="1025.7" x2="1063.93" y2="1025.7" stroke="black" stroke-width="1" transform="rotate(270 818.364 457.561)"/> 
  <image x="1454.58" y="180" width="175" height="25" xlink:href="DS_ana.svg">
    <title>???</title>
    <rt:dyn type="FKKS" mode="constant" value="&quot;???&quot;"/> 
    <rt:dyn type="X" mode="constant" value="&quot;I&quot;"/> 
    <rt:dyn type="ShowFrame" mode="constant" value="true"/> 
    <rt:dyn type="Color_Readings" mode="constant" value="&quot;true&quot;"/> 
    <rt:dyn type="ValueToTheRight" mode="constant" value="false"/> 
  </image>
  <image x="1645" y="116.79" width="175" height="25" xlink:href="DS_ana.svg">
    <title>10PCC01CT034</title>
    <rt:dyn type="FKKS" mode="constant" value="&quot;10PCC01CT034&quot;"/> 
    <rt:dyn type="X" mode="constant" value="&quot;T&quot;"/> 
    <rt:dyn type="ShowFrame" mode="constant" value="true"/> 
    <rt:dyn type="Color_Readings" mode="constant" value="&quot;true&quot;"/> 
    <rt:dyn type="ValueToTheRight" mode="constant" value="false"/> 
  </image>
  <image x="1454.58" y="116.79" width="175" height="25" xlink:href="DS_ana.svg">
    <title>10PCC01CT033</title>
    <rt:dyn type="FKKS" mode="constant" value="&quot;10PCC01CT033&quot;"/> 
    <rt:dyn type="X" mode="constant" value="&quot;T&quot;"/> 
    <rt:dyn type="ShowFrame" mode="constant" value="true"/> 
    <rt:dyn type="Color_Readings" mode="constant" value="&quot;true&quot;"/> 
    <rt:dyn type="ValueToTheRight" mode="constant" value="false"/> 
  </image>
  <image x="1262.85" y="116.79" width="175" height="25" xlink:href="DS_ana.svg">
    <title>10PCC01CT032</title>
    <rt:dyn type="FKKS" mode="constant" value="&quot;10PCC01CT032&quot;"/> 
    <rt:dyn type="X" mode="constant" value="&quot;T&quot;"/> 
    <rt:dyn type="ShowFrame" mode="constant" value="true"/> 
    <rt:dyn type="Color_Readings" mode="constant" value="&quot;true&quot;"/> 
    <rt:dyn type="ValueToTheRight" mode="constant" value="false"/> 
  </image>
  <image x="1583.76" y="478.849" width="175" height="25" xlink:href="DS_ana.svg">
    <title>10PCC01CT037</title>
    <rt:dyn type="FKKS" mode="constant" value="&quot;10PCC01CT037&quot;"/> 
    <rt:dyn type="X" mode="constant" value="&quot;T&quot;"/> 
    <rt:dyn type="ShowFrame" mode="constant" value="true"/> 
    <rt:dyn type="Color_Readings" mode="constant" value="&quot;true&quot;"/> 
    <rt:dyn type="ValueToTheRight" mode="constant" value="false"/> 
  </image>
  <image x="1583.76" y="448.485" width="175" height="25" xlink:href="DS_ana.svg">
    <title>10PCC01CT036</title>
    <rt:dyn type="FKKS" mode="constant" value="&quot;10PCC01CT036&quot;"/> 
    <rt:dyn type="X" mode="constant" value="&quot;T&quot;"/> 
    <rt:dyn type="ShowFrame" mode="constant" value="true"/> 
    <rt:dyn type="Color_Readings" mode="constant" value="&quot;true&quot;"/> 
    <rt:dyn type="ValueToTheRight" mode="constant" value="false"/> 
  </image>
  <image x="1583.76" y="417.667" width="175" height="25" xlink:href="DS_ana.svg">
    <title>10PCC01CT035</title>
    <rt:dyn type="FKKS" mode="constant" value="&quot;10PCC01CT035&quot;"/> 
    <rt:dyn type="X" mode="constant" value="&quot;T&quot;"/> 
    <rt:dyn type="ShowFrame" mode="constant" value="true"/> 
    <rt:dyn type="Color_Readings" mode="constant" value="&quot;true&quot;"/> 
    <rt:dyn type="ValueToTheRight" mode="constant" value="false"/> 
  </image>
  <image x="1583.76" y="642.424" width="175" height="25" xlink:href="DS_ana.svg">
    <title>10PCC01CT022</title>
    <rt:dyn type="FKKS" mode="constant" value="&quot;10PCC01CT022&quot;"/> 
    <rt:dyn type="X" mode="constant" value="&quot;T&quot;"/> 
    <rt:dyn type="ShowFrame" mode="constant" value="true"/> 
    <rt:dyn type="Color_Readings" mode="constant" value="&quot;true&quot;"/> 
    <rt:dyn type="ValueToTheRight" mode="constant" value="false"/> 
  </image>
  <image x="1583.76" y="611.606" width="175" height="25" xlink:href="DS_ana.svg">
    <title>10PCC01CT021</title>
    <rt:dyn type="FKKS" mode="constant" value="&quot;10PCC01CT021&quot;"/> 
    <rt:dyn type="X" mode="constant" value="&quot;T&quot;"/> 
    <rt:dyn type="ShowFrame" mode="constant" value="true"/> 
    <rt:dyn type="Color_Readings" mode="constant" value="&quot;true&quot;"/> 
    <rt:dyn type="ValueToTheRight" mode="constant" value="false"/> 
  </image>
  <text x="1538.58" y="111.242" fill="black" font-size="15" text-anchor="middle">10PCC01AP002</text>
  <image x="1723.39" y="701.151" width="175" height="25" xlink:href="DS_ana.svg">
    <title>10PCC01CY003</title>
    <rt:dyn type="FKKS" mode="constant" value="&quot;10PCC01CY003&quot;"/> 
    <rt:dyn type="X" mode="constant" value="&quot;V&quot;"/> 
    <rt:dyn type="ShowFrame" mode="constant" value="true"/> 
    <rt:dyn type="Color_Readings" mode="constant" value="&quot;true&quot;"/> 
    <rt:dyn type="ValueToTheRight" mode="constant" value="false"/> 
  </image>
  <image x="1723.39" y="732.97" width="175" height="25" xlink:href="DS_ana.svg">
    <title>10PCC01CY004</title>
    <rt:dyn type="FKKS" mode="constant" value="&quot;10PCC01CY004&quot;"/> 
    <rt:dyn type="X" mode="constant" value="&quot;V&quot;"/> 
    <rt:dyn type="ShowFrame" mode="constant" value="true"/> 
    <rt:dyn type="Color_Readings" mode="constant" value="&quot;true&quot;"/> 
    <rt:dyn type="ValueToTheRight" mode="constant" value="false"/> 
  </image>
  <rect x="829.629" y="599.119" width="10.814" height="110.44" rx="0" ry="0" fill="Col_Grey3" stroke="black" stroke-width="0.28418" transform="flipX(1756.59) flipX(1756.59) flipY() translate(0 -828) translate(-1223.04 110.188) scale(3.5 0.7)"/> 
  <circle cx="1698.5" cy="242.333" r="15.1515" fill="Col_Grey3" stroke="black"/> 
  <circle cx="1698.5" cy="278.324" r="15.1515" fill="Col_Grey3" stroke="black"/> 
  <line x1="900.592" y1="1338.54" x2="996.193" y2="1338.54" stroke="black" stroke-width="1" transform="rotate(270 818.364 457.561)"/> 
  <line x1="1035.42" y1="1338.66" x2="1063.77" y2="1338.66" stroke="black" stroke-width="1" transform="rotate(270 818.364 457.561)"/> 
  <rect x="500.43" y="461.471" width="16.7455" height="320" rx="0" ry="0" fill="Col_Grey5" stroke="black" stroke-width="0.28418" transform="flipY() translate(0 -828) translate(-1223.04 110.188) scale(3.5 0.7)"/> 
  <rect x="458.325" y="434.281" width="6.75464" height="29.0837" rx="0" ry="0" fill="gray" stroke="black" stroke-width="0.28418" transform="flipY() translate(0 -828) translate(-1223.04 110.188) scale(3.5 0.7)"/> 
  <rect x="460.028" y="91.936" width="3.34778" height="33.7735" rx="0" ry="0" fill="gray" stroke="black" stroke-width="0.28418" transform="flipY() translate(0 -828) translate(-1223.04 110.188) scale(3.5 0.7)"/> 
  <rect x="458.248" y="113.365" width="6.90839" height="17.1429" rx="0" ry="0" fill="gray" stroke="black" stroke-width="0.28418" transform="flipY() translate(0 -828) translate(-1223.04 110.188) scale(3.5 0.7)"/> 
  <rect x="425.226" y="461.287" width="75" height="320" rx="0" ry="0" fill="gray" stroke="black" stroke-width="0.28418" transform="flipY() translate(0 -828) translate(-1223.04 110.188) scale(3.5 0.7)"/> 
  <g transform="flipX(417.606) scale(1.71 1.71 1131.5 626)">
    <rect x="553.915" y="81.4652" width="7.64288" height="31.4286" rx="0" ry="0" fill="gray" stroke="black" stroke-width="0.28418" transform="flipY() translate(0 -828) translate(-1223.04 110.188) scale(3.5 0.7)"/> 
    <polygon points="547.841,296.499 547.841,371.499 623.841,356.499 623.841,311.499" fill="Col_Grey4" transform="scale(1 0.977597 864.318 469.879) rotate(270 864.318 469.879)"/> 
    <ellipse cx="793.929" cy="686.033" rx="30" ry="22" fill="Col_Grey4" stroke="Col_Grey5"/> 
    <polygon points="645.929,653.085 645.929,717.085 795.929,707.585 796.929,663.585" fill="Col_Grey4" stroke="none"/> 
    <rect x="531.987" y="-1.74353" width="2" height="97" rx="0" ry="0" fill="Col_Grey4" stroke="Col_Grey5" stroke-width="0.28418" transform="flipY() translate(0 -828) translate(-1223.04 110.188) scale(3.5 0.7)"/> 
  </g>
  <image x="376.758" y="690.366" width="70" height="70" xlink:href="DS_motor.svg" transform="flipX(6.10352e-005) flipX(2.70338e-005)">
    <title>10PCC01AP002</title>
    <rt:dyn type="KKS" mode="constant" value="&quot;10PCC01AP002&quot;"/> 
    <rt:dyn type="DATA_NARY" mode="constant" value="&quot;TPTS&quot;"/> 
    <rt:dyn type="Operate" mode="constant" value="TRUE"/> 
  </image>
  <rect x="408.383" y="461.471" width="16.7455" height="320" rx="0" ry="0" fill="Col_Grey5" stroke="black" stroke-width="0.28418" transform="flipY() translate(0 -828) translate(-1223.04 110.188) scale(3.5 0.7)"/> 
  <rect x="457.857" y="140.731" width="7.68976" height="283.55" rx="0" ry="0" fill="gray" stroke="black" stroke-width="0.28418" transform="flipY() translate(0 -828) translate(-1223.04 110.188) scale(3.5 0.7)"/> 
  <line x1="368.416" y1="653.457" x2="415.416" y2="653.457" stroke="Col_Grey5" stroke-width="2"/> 
  <line x1="1458.87" y1="1709.3" x2="1461.35" y2="1447.62" stroke="Col_Grey5" stroke-width="2" transform="flipY(681.948) rotate(93.6189 1353.55 635.149)"/> 
  <rect x="456.681" y="129.035" width="10.0433" height="12.6407" rx="0" ry="0" fill="gray" stroke="black" stroke-width="0.28418" transform="flipY() translate(0 -828) translate(-1223.04 110.188) scale(3.5 0.7)"/> 
  <rect x="456.681" y="423.069" width="10.0433" height="12.6407" rx="0" ry="0" fill="gray" stroke="black" stroke-width="0.28418" transform="flipY() translate(0 -828) translate(-1223.04 110.188) scale(3.5 0.7)"/> 
  <line x1="1417.98" y1="-410.613" x2="1416.53" y2="-671.108" stroke="Col_Grey5" stroke-width="2" transform="flipY(772.96) flipX(1463.57) rotate(93.6189 1353.55 635.149)"/> 
  <rect x="412.542" y="597.474" width="10.814" height="110.44" rx="0" ry="0" fill="Col_Grey3" stroke="black" stroke-width="0.28418" transform="flipX(1756.59) flipX(1756.59) flipY() translate(0 -828) translate(-1223.04 110.188) scale(3.5 0.7)"/> 
  <circle cx="238.651" cy="243.484" r="15.1515" fill="Col_Grey3" stroke="black"/> 
  <circle cx="238.651" cy="279.476" r="15.1515" fill="Col_Grey3" stroke="black"/> 
  <line x1="899.44" y1="-121.308" x2="995.042" y2="-121.308" stroke="black" stroke-width="1" transform="rotate(270 818.364 457.561)"/> 
  <line x1="1034.27" y1="-121.188" x2="1062.62" y2="-121.188" stroke="black" stroke-width="1" transform="rotate(270 818.364 457.561)"/> 
  <line x1="22" y1="212" x2="1701" y2="212" stroke="black" stroke-width="1"/> 
  <line x1="240" y1="375" x2="1700" y2="375" stroke="black" stroke-width="1"/> 
  <g>
    <circle cx="1781.95" cy="219.933" r="5" fill="Col_BGSand" stroke="black" stroke-width="3"/> 
    <line x1="1787.95" y1="211.933" x2="1775.95" y2="227.933" stroke="black" stroke-width="2"/> 
    <circle cx="1782.19" cy="304.812" r="5" fill="Col_BGSand" stroke="black" stroke-width="3"/> 
    <line x1="1789.19" y1="295.812" x2="1777.19" y2="311.812" stroke="black" stroke-width="2"/> 
    <g transform="rotate(90 782 597.727)">
      <line x1="403" y1="-398.758" x2="403" y2="-366.847" stroke="black" stroke-width="3"/> 
      <polyline points="483.378,-142.201 494.628,-125.201 505.878,-142.201" fill="none" stroke="black" stroke-width="3" transform="scale(1.29454 1.29454 754.273 623.357)"/> 
      <polyline points="504.938,-142.247 516.188,-125.247 527.438,-142.247" fill="none" stroke="black" stroke-width="3" transform="scale(1.29454 1.29454 754.273 623.357)"/> 
      <polyline points="526.567,-141.474 537.817,-124.474 549.067,-141.474" fill="none" stroke="black" stroke-width="3" transform="scale(1.29454 1.29454 754.273 623.357)"/> 
    </g>
    <line x1="1734.83" y1="540.091" x2="1734.83" y2="572.002" stroke="black" stroke-width="3" transform="rotate(90 1874.5 443.956)"/> 
  </g>
  <g transform="flipX(13.0606)">
    <circle cx="-132.171" cy="220.933" r="5" fill="Col_BGSand" stroke="black" stroke-width="3"/> 
    <line x1="-126.171" y1="212.933" x2="-138.171" y2="228.933" stroke="black" stroke-width="2"/> 
    <circle cx="-131.931" cy="305.812" r="5" fill="Col_BGSand" stroke="black" stroke-width="3"/> 
    <line x1="-124.931" y1="296.812" x2="-136.931" y2="312.812" stroke="black" stroke-width="2"/> 
    <g transform="rotate(90 782 597.727)">
      <line x1="404" y1="1515.36" x2="404" y2="1547.27" stroke="black" stroke-width="3"/> 
      <polyline points="484.151,1336.44 495.401,1353.44 506.652,1336.44" fill="none" stroke="black" stroke-width="3" transform="scale(1.29454 1.29454 754.273 623.357)"/> 
      <polyline points="505.712,1336.39 516.962,1353.39 528.212,1336.39" fill="none" stroke="black" stroke-width="3" transform="scale(1.29454 1.29454 754.273 623.357)"/> 
      <polyline points="527.341,1337.16 538.591,1354.16 549.841,1337.16" fill="none" stroke="black" stroke-width="3" transform="scale(1.29454 1.29454 754.273 623.357)"/> 
    </g>
    <line x1="1735.83" y1="2454.21" x2="1735.83" y2="2486.12" stroke="black" stroke-width="3" transform="rotate(90 1874.5 443.956)"/> 
  </g>
  <rect x="502.462" y="601.327" width="10.814" height="110.44" rx="0" ry="0" fill="Col_Grey3" stroke="black" stroke-width="0.28418" transform="flipY() translate(0 -828) translate(-1223.04 110.188) scale(3.5 0.7)"/> 
  <circle cx="555.413" cy="240.788" r="15.1515" fill="Col_Grey3" stroke="black"/> 
  <circle cx="555.413" cy="276.779" r="15.1515" fill="Col_Grey3" stroke="black"/> 
  <line x1="969.388" y1="195.449" x2="997.737" y2="195.449" stroke="black" stroke-width="1" transform="rotate(270 818.364 457.561)"/> 
  <line x1="1036.97" y1="195.57" x2="1065.32" y2="195.57" stroke="black" stroke-width="1" transform="rotate(270 818.364 457.561)"/> 
  <line x1="555" y1="308" x2="817" y2="308" stroke="black" stroke-width="1"/> 
  <line x1="816.985" y1="308.091" x2="816.985" y2="375.697" stroke="black" stroke-width="1"/> 
  <image x="661.465" y="320.681" width="75" height="80" xlink:href="DS_CO_valve.svg" transform="rotate(90 -4.66646 -5.33329) flipX(-4.66666) rotate(180 -2.33341 -7.66667) flipX(1.13687e-013) flipX(-1.13687e-013) rotate(270 0 -10)">
    <title>10PCC01AA003</title>
    <rt:dyn type="DATA_NARY" mode="constant" value="&quot;TPTS&quot;"/> 
    <rt:dyn type="KKS" mode="constant" value="&quot;10PCC01AA003&quot;"/> 
    <rt:dyn type="Drive" mode="constant" value="&quot;solenoid&quot;"/> 
    <rt:dyn type="Operate" mode="constant" value="&quot;true&quot;"/> 
  </image>
  <text x="700.335" y="417.59" fill="black" font-size="15" text-anchor="middle">10PCC01AA003</text>
  <image x="1214.61" y="319.273" width="75" height="80" xlink:href="DS_CO_valve.svg" transform="rotate(90 -4.66646 -5.33329) flipX(-4.66666) rotate(180 -2.33341 -7.66667) flipX(1.13687e-013) flipX(-1.13687e-013) rotate(270 0 -10)">
    <title>10PCC01AA005</title>
    <rt:dyn type="DATA_NARY" mode="constant" value="&quot;TPTS&quot;"/> 
    <rt:dyn type="KKS" mode="constant" value="&quot;10PCC01AA005&quot;"/> 
    <rt:dyn type="Drive" mode="constant" value="&quot;solenoid&quot;"/> 
    <rt:dyn type="Operate" mode="constant" value="&quot;true&quot;"/> 
  </image>
  <text x="769.061" y="255.939" fill="black" font-size="15" text-anchor="middle">10PCC01AA002</text>
  <image x="738.223" y="251.165" width="75" height="80" xlink:href="DS_CO_valve.svg" transform="rotate(90 -4.66646 -5.33329) flipX(-4.66666) rotate(180 -2.33341 -7.66667) flipX(1.13687e-013) flipX(-1.13687e-013) rotate(270 0 -10)">
    <title>10PCC01AA002</title>
    <rt:dyn type="DATA_NARY" mode="constant" value="&quot;TPTS&quot;"/> 
    <rt:dyn type="KKS" mode="constant" value="&quot;10PCC01AA002&quot;"/> 
    <rt:dyn type="Drive" mode="constant" value="&quot;solenoid&quot;"/> 
    <rt:dyn type="Operate" mode="constant" value="&quot;true&quot;"/> 
  </image>
  <g transform="flipX(918.364) rotate(90 625.939 646.212) flipY(493.182) rotate(270 16.8485 43.1818) flipX(1107.76) flipX(1383.52) flipX(81.2424) rotate(270 1829.73 859.091) flipY(578) rotate(180 1210.44 541.647)">
    <g transform="rotate(90 1212.44 532.643)">
      <polygon points="2669.79,-895.776 2683.17,-888.125 2683.17,-903.416 2669.79,-895.776" fill="black" stroke="black" stroke-width="1" transform="rotate(180 1279.17 367.814)"/> 
    </g>
  </g>
  <image x="309.002" y="180.152" width="175" height="25" xlink:href="DS_ana.svg">
    <title>???</title>
    <rt:dyn type="FKKS" mode="constant" value="&quot;???&quot;"/> 
    <rt:dyn type="X" mode="constant" value="&quot;I&quot;"/> 
    <rt:dyn type="ShowEU" mode="constant" value="false"/> 
    <rt:dyn type="ShowFrame" mode="constant" value="true"/> 
    <rt:dyn type="Color_Readings" mode="constant" value="&quot;true&quot;"/> 
    <rt:dyn type="ValueToTheRight" mode="constant" value="false"/> 
  </image>
  <image x="499.151" y="116.942" width="175" height="25" xlink:href="DS_ana.svg">
    <title>10PCC01CT034</title>
    <rt:dyn type="FKKS" mode="constant" value="&quot;10PCC01CT034&quot;"/> 
    <rt:dyn type="X" mode="constant" value="&quot;T&quot;"/> 
    <rt:dyn type="ShowEU" mode="constant" value="false"/> 
    <rt:dyn type="ShowFrame" mode="constant" value="true"/> 
    <rt:dyn type="Color_Readings" mode="constant" value="&quot;true&quot;"/> 
    <rt:dyn type="ValueToTheRight" mode="constant" value="false"/> 
  </image>
  <image x="309.002" y="116.942" width="175" height="25" xlink:href="DS_ana.svg">
    <title>10PCC01CT033</title>
    <rt:dyn type="FKKS" mode="constant" value="&quot;10PCC01CT033&quot;"/> 
    <rt:dyn type="X" mode="constant" value="&quot;T&quot;"/> 
    <rt:dyn type="ShowEU" mode="constant" value="false"/> 
    <rt:dyn type="ShowFrame" mode="constant" value="true"/> 
    <rt:dyn type="Color_Readings" mode="constant" value="&quot;true&quot;"/> 
    <rt:dyn type="ValueToTheRight" mode="constant" value="false"/> 
  </image>
  <image x="120.001" y="116.942" width="175" height="25" xlink:href="DS_ana.svg">
    <title>10PCC01CT032</title>
    <rt:dyn type="FKKS" mode="constant" value="&quot;10PCC01CT032&quot;"/> 
    <rt:dyn type="X" mode="constant" value="&quot;T&quot;"/> 
    <rt:dyn type="ShowEU" mode="constant" value="false"/> 
    <rt:dyn type="ShowFrame" mode="constant" value="true"/> 
    <rt:dyn type="Color_Readings" mode="constant" value="&quot;true&quot;"/> 
    <rt:dyn type="ValueToTheRight" mode="constant" value="false"/> 
  </image>
  <text x="394.229" y="111.242" fill="black" font-size="15" text-anchor="middle">10PCC01AP001</text>
  <image x="175.911" y="480.001" width="175" height="25" xlink:href="DS_ana.svg">
    <title>10PCC01CT037</title>
    <rt:dyn type="FKKS" mode="constant" value="&quot;10PCC01CT037&quot;"/> 
    <rt:dyn type="X" mode="constant" value="&quot;T&quot;"/> 
    <rt:dyn type="ShowEU" mode="constant" value="false"/> 
    <rt:dyn type="ShowFrame" mode="constant" value="true"/> 
    <rt:dyn type="Color_Readings" mode="constant" value="&quot;true&quot;"/> 
    <rt:dyn type="ValueToTheRight" mode="constant" value="false"/> 
  </image>
  <image x="175.911" y="449.637" width="175" height="25" xlink:href="DS_ana.svg">
    <title>10PCC01CT036</title>
    <rt:dyn type="FKKS" mode="constant" value="&quot;10PCC01CT036&quot;"/> 
    <rt:dyn type="X" mode="constant" value="&quot;T&quot;"/> 
    <rt:dyn type="ShowEU" mode="constant" value="false"/> 
    <rt:dyn type="ShowFrame" mode="constant" value="true"/> 
    <rt:dyn type="Color_Readings" mode="constant" value="&quot;true&quot;"/> 
    <rt:dyn type="ValueToTheRight" mode="constant" value="false"/> 
  </image>
  <image x="175.911" y="418.819" width="175" height="25" xlink:href="DS_ana.svg">
    <title>10PCC01CT035</title>
    <rt:dyn type="FKKS" mode="constant" value="&quot;10PCC01CT035&quot;"/> 
    <rt:dyn type="X" mode="constant" value="&quot;T&quot;"/> 
    <rt:dyn type="ShowEU" mode="constant" value="false"/> 
    <rt:dyn type="ShowFrame" mode="constant" value="true"/> 
    <rt:dyn type="Color_Readings" mode="constant" value="&quot;true&quot;"/> 
    <rt:dyn type="ValueToTheRight" mode="constant" value="false"/> 
  </image>
  <image x="175.911" y="643.576" width="175" height="25" xlink:href="DS_ana.svg">
    <title>10PCC01CT022</title>
    <rt:dyn type="FKKS" mode="constant" value="&quot;10PCC01CT022&quot;"/> 
    <rt:dyn type="X" mode="constant" value="&quot;T&quot;"/> 
    <rt:dyn type="ShowEU" mode="constant" value="false"/> 
    <rt:dyn type="ShowFrame" mode="constant" value="true"/> 
    <rt:dyn type="Color_Readings" mode="constant" value="&quot;true&quot;"/> 
    <rt:dyn type="ValueToTheRight" mode="constant" value="false"/> 
  </image>
  <image x="175.911" y="612.758" width="175" height="25" xlink:href="DS_ana.svg">
    <title>10PCC01CT021</title>
    <rt:dyn type="FKKS" mode="constant" value="&quot;10PCC01CT021&quot;"/> 
    <rt:dyn type="X" mode="constant" value="&quot;T&quot;"/> 
    <rt:dyn type="ShowEU" mode="constant" value="false"/> 
    <rt:dyn type="ShowFrame" mode="constant" value="true"/> 
    <rt:dyn type="Color_Readings" mode="constant" value="&quot;true&quot;"/> 
    <rt:dyn type="ValueToTheRight" mode="constant" value="false"/> 
  </image>
  <image x="37.542" y="702.302" width="175" height="25" xlink:href="DS_ana.svg">
    <title>10PCC01CY003</title>
    <rt:dyn type="FKKS" mode="constant" value="&quot;10PCC01CY003&quot;"/> 
    <rt:dyn type="X" mode="constant" value="&quot;V&quot;"/> 
    <rt:dyn type="ShowEU" mode="constant" value="false"/> 
    <rt:dyn type="ShowFrame" mode="constant" value="true"/> 
    <rt:dyn type="Color_Readings" mode="constant" value="&quot;true&quot;"/> 
    <rt:dyn type="ValueToTheRight" mode="constant" value="false"/> 
  </image>
  <image x="37.542" y="734.121" width="175" height="25" xlink:href="DS_ana.svg">
    <title>10PCC01CY004</title>
    <rt:dyn type="FKKS" mode="constant" value="&quot;10PCC01CY004&quot;"/> 
    <rt:dyn type="X" mode="constant" value="&quot;V&quot;"/> 
    <rt:dyn type="ShowEU" mode="constant" value="false"/> 
    <rt:dyn type="ShowFrame" mode="constant" value="true"/> 
    <rt:dyn type="Color_Readings" mode="constant" value="&quot;true&quot;"/> 
    <rt:dyn type="ValueToTheRight" mode="constant" value="false"/> 
  </image>
  <image x="790.768" y="674.634" width="75" height="80" xlink:href="DS_CO_valve.svg" transform="rotate(90 -4.66646 -5.33329) flipX(-4.66666) rotate(180 -2.33341 -7.66667) flipX(1.13687e-013) flipX(-1.13687e-013) rotate(270 0 -10)">
    <title>10PCB01AA001</title>
    <rt:dyn type="DATA_NARY" mode="constant" value="&quot;TPTS&quot;"/> 
    <rt:dyn type="KKS" mode="constant" value="&quot;10PCB01AA001&quot;"/> 
    <rt:dyn type="Operate" mode="constant" value="&quot;true&quot;"/> 
  </image>
  <text x="823.788" y="680.242" fill="black" font-size="15" text-anchor="middle">10PCB01AA001</text>
  <image x="572.394" y="700.242" width="175" height="25" xlink:href="DS_ana.svg">
    <title>10PCB01CP001</title>
    <rt:dyn type="FKKS" mode="constant" value="&quot;10PCB01CP001&quot;"/> 
    <rt:dyn type="X" mode="constant" value="&quot;P&quot;"/> 
    <rt:dyn type="ShowEU" mode="constant" value="false"/> 
    <rt:dyn type="ShowFrame" mode="constant" value="true"/> 
    <rt:dyn type="Color_Readings" mode="constant" value="&quot;true&quot;"/> 
    <rt:dyn type="ValueToTheRight" mode="constant" value="false"/> 
  </image>
  <image x="572.394" y="734.879" width="175" height="25" xlink:href="DS_ana.svg">
    <title>10PCB01CT001</title>
    <rt:dyn type="FKKS" mode="constant" value="&quot;10PCB01CT001&quot;"/> 
    <rt:dyn type="X" mode="constant" value="&quot;T&quot;"/> 
    <rt:dyn type="ShowEU" mode="constant" value="false"/> 
    <rt:dyn type="ShowFrame" mode="constant" value="true"/> 
    <rt:dyn type="Color_Readings" mode="constant" value="&quot;true&quot;"/> 
    <rt:dyn type="ValueToTheRight" mode="constant" value="false"/> 
  </image>
  <image x="1188.24" y="700.242" width="175" height="25" xlink:href="DS_ana.svg">
    <title>10PCB01CP002</title>
    <rt:dyn type="FKKS" mode="constant" value="&quot;10PCB01CP002&quot;"/> 
    <rt:dyn type="X" mode="constant" value="&quot;P&quot;"/> 
    <rt:dyn type="ShowEU" mode="constant" value="false"/> 
    <rt:dyn type="ShowFrame" mode="constant" value="true"/> 
    <rt:dyn type="Color_Readings" mode="constant" value="&quot;true&quot;"/> 
  </image>
  <image x="1188.24" y="734.879" width="175" height="25" xlink:href="DS_ana.svg">
    <title>10PCB01CT002</title>
    <rt:dyn type="FKKS" mode="constant" value="&quot;10PCB01CT002&quot;"/> 
    <rt:dyn type="X" mode="constant" value="&quot;T&quot;"/> 
    <rt:dyn type="ShowEU" mode="constant" value="false"/> 
    <rt:dyn type="ShowFrame" mode="constant" value="true"/> 
    <rt:dyn type="Color_Readings" mode="constant" value="&quot;true&quot;"/> 
  </image>
  <image x="1091.4" y="674.634" width="75" height="80" xlink:href="DS_CO_valve.svg" transform="rotate(90 -4.66646 -5.33329) flipX(-4.66666) rotate(180 -2.33341 -7.66667) flipX(1.13687e-013) flipX(-1.13687e-013) rotate(270 0 -10)">
    <title>10PCB01AA002</title>
    <rt:dyn type="DATA_NARY" mode="constant" value="&quot;TPTS&quot;"/> 
    <rt:dyn type="KKS" mode="constant" value="&quot;10PCB01AA002&quot;"/> 
    <rt:dyn type="Operate" mode="constant" value="&quot;true&quot;"/> 
  </image>
  <text x="1119.42" y="679.637" fill="black" font-size="15" text-anchor="middle">10PCB01AA002</text>
  <image x="1707" y="942.394" width="75" height="25" xlink:href="obj_link.svg" transform="flipX(37.5) rotate(0 37.3619 12.5)">
    <rt:dyn type="TextStr" mode="constant" value="&quot;URA&quot;"/> 
    <rt:event type="OnClick">LoadNew(&quot;ura&quot;)</rt:event>
  </image>
  <text x="1853.91" y="944.879" fill="black" font-size="15" text-anchor="middle">От обратных<tspan x="1853.91" dy="15">циркводоводов</tspan>
<tspan x="1853.91" dy="15">PAB07, 08</tspan>
  </text>
  <rect x="351.143" y="-398.797" width="480" height="155.844" rx="0" ry="0" fill="gray" stroke="black" stroke-width="0.28418" transform="flipY() translate(0 -828) translate(-1223.04 110.188) scale(3.5 0.7)"/> 
  <polyline points="381.962,903.306 393.212,920.306 404.462,903.306" fill="none" stroke="black"/> 
  <line x1="393.087" y1="920.401" x2="393.337" y2="975" stroke="black"/> 
  <polyline points="1535.39,903.306 1546.64,920.306 1557.89,903.306" fill="none" stroke="black"/> 
  <line x1="1547.08" y1="920.098" x2="1547.33" y2="937.598" stroke="black"/> 
  <line x1="1547" y1="937" x2="1712.3" y2="937" stroke="black" stroke-width="1"/> 
  <line x1="393" y1="974" x2="1712.3" y2="974" stroke="black" stroke-width="1"/> 
  <g transform="flipX(918.364) rotate(90 625.939 646.212) flipY(493.182) rotate(270 16.8485 43.1818) flipX(1107.76) flipX(1383.52) flipX(81.2424) rotate(270 1829.73 859.091) flipY(578) rotate(180 1210.44 541.647)">
    <g transform="rotate(90 1212.44 532.643)">
      <polygon points="3521.46,-334.169 3534.84,-326.518 3534.84,-341.809 3521.46,-334.169" fill="black" stroke="black" stroke-width="1" transform="rotate(180 1279.17 367.814)"/> 
    </g>
  </g>
  <g transform="flipX(918.364) rotate(90 625.939 646.212) flipY(493.182) rotate(270 16.8485 43.1818) flipX(1107.76) flipX(1383.52) flipX(81.2424) rotate(270 1829.73 859.091) flipY(578) rotate(180 1210.44 541.647)">
    <g transform="rotate(90 1212.44 532.643)">
      <polygon points="3521.46,-296.776 3534.84,-289.125 3534.84,-304.416 3521.46,-296.776" fill="black" stroke="black" stroke-width="1" transform="rotate(180 1279.17 367.814)"/> 
    </g>
  </g>
  <text x="973.909" y="921.212" fill="black" font-size="20" text-anchor="middle">10URS01R006<tspan x="973.909" dy="20">Водоподводящий канал</tspan>
  </text>
  <image x="80.4847" y="959.909" width="175" height="25" xlink:href="DS_ana.svg">
    <title>10PAA01CL001</title>
    <rt:dyn type="FKKS" mode="constant" value="&quot;10PAA01CL001&quot;"/> 
    <rt:dyn type="X" mode="constant" value="&quot;L&quot;"/> 
    <rt:dyn type="ShowEU" mode="constant" value="false"/> 
    <rt:dyn type="ShowFrame" mode="constant" value="true"/> 
    <rt:dyn type="Color_Readings" mode="constant" value="&quot;true&quot;"/> 
  </image>
  <line x1="970.485" y1="504" x2="1077.45" y2="504" stroke="black" stroke-width="3"/> 
  <image x="1028.36" y="489.182" width="75" height="25" xlink:href="obj_link.svg">
    <rt:event type="OnClick">LoadNew(&quot;pcb&quot;)</rt:event>
    <rt:dyn type="TextStr" mode="constant" value="&quot;PCB&quot;"/> 
  </image>
  <text x="1120.73" y="560.424" font-size="15" text-anchor="start">На промывку сеток</text>
  <line x1="971.333" y1="557.03" x2="1078.3" y2="557.03" stroke="black" stroke-width="1"/> 
  <image x="1029.21" y="542.212" width="75" height="25" xlink:href="obj_link.svg">
    <rt:event type="OnClick">LoadNew(&quot;paa&quot;)</rt:event>
    <rt:dyn type="TextStr" mode="constant" value="&quot;PAA&quot;"/> 
  </image>
  <image x="758.757" y="825.485" width="110" height="30" xlink:href="DS_TPTS_TE_spec.svg"/> 
  <text x="1131.18" y="817.364" font-size="15" text-anchor="middle">Прг Упр Арм</text>
  <image x="1076.94" y="827" width="110" height="30" xlink:href="DS_TPTS_TE_spec.svg"/> 
  <text x="158.273" y="187.818" fill="black" font-size="15" text-anchor="middle">10PCC01<tspan x="158.273" dy="15">EE012</tspan>
  </text>
  <text x="1777.33" y="187.818" fill="black" font-size="15" text-anchor="middle">10PCC01<tspan x="1777.33" dy="15">EE013</tspan>
  </text>
  <image x="1754.64" y="235.333" width="50" height="55" xlink:href="DS_switch.svg">
    <title>10PCC01EE013</title>
    <rt:dyn type="KKS" mode="constant" value="&quot;10PCC01EE013&quot;"/> 
    <rt:dyn type="DATA_NARY" mode="constant" value="&quot;TPTS&quot;"/> 
    <rt:dyn type="Operate" mode="constant" value="true"/> 
  </image>
  <image x="884" y="332.152" width="175" height="25" xlink:href="DS_ana.svg">
    <title>10PCC01CP001</title>
    <rt:dyn type="FKKS" mode="constant" value="&quot;10PCC01CP001&quot;"/> 
    <rt:dyn type="X" mode="constant" value="&quot;P&quot;"/> 
    <rt:dyn type="ShowFrame" mode="constant" value="true"/> 
    <rt:dyn type="Color_Readings" mode="constant" value="&quot;true&quot;"/> 
    <rt:dyn type="ValueToTheRight" mode="constant" value="false"/> 
  </image>
  <line x1="970" y1="730.303" x2="970" y2="501.515" stroke="black" stroke-width="3"/> 
  <line x1="1122.17" y1="308.091" x2="1122.17" y2="375.697" stroke="black" stroke-width="1"/> 
  <polygon points="1170.39,-206.422 1170.39,168.662 1189.99,142.244 1190.85,-176.911" fill="Col_Grey4" stroke="Col_Grey5" transform="scale(0.700287 1 445.986 158.718) scale(1 0.977597 864.318 469.879) rotate(270 864.318 469.879)"/> 
  <image x="67.606" y="48.4848" width="85" height="25" xlink:href="obj_link.svg">
    <rt:event type="OnClick">LoadNew(&quot;pcc01kip&quot;)</rt:event>
    <rt:dyn type="TextStr" mode="constant" value="&quot;PCC01kip&quot;"/> 
  </image>
  <polygon points="1170.63,1429 1170.63,1804.08 1190.23,1777.66 1191.09,1458.51" fill="Col_Grey4" stroke="Col_Grey5" transform="scale(0.700287 1 445.986 158.718) scale(1 0.977597 864.318 469.879) rotate(270 864.318 469.879)"/> 
  <image x="135.788" y="235.333" width="50" height="55" xlink:href="DS_switch.svg">
    <title>10PCC01EE012</title>
    <rt:dyn type="KKS" mode="constant" value="&quot;10PCC01EE012&quot;"/> 
    <rt:dyn type="DATA_NARY" mode="constant" value="&quot;TPTS&quot;"/> 
    <rt:dyn type="Operate" mode="constant" value="true"/> 
  </image>
</svg>
