<?xml  version="1.0" encoding="UTF-8"?>
<svg color="Col_BGSand" xmlns="http://www.w3.org/2000/svg" xmlns:rt="http://www.rts.co.at/2001/XMLSchema/RtSvgPL" xmlns:xlink="http://www.w3.org/1999/xlink" xmlns:xsi="http://www.w3.org/2001/XMLSchema-instance" xsi:schemaLocation="http://www.w3.org/2000/svg C:\RTS\RtSvg\XML\SVG.xsd" viewBox="0 0 1915 1000" width="1915" height="1000" id="pgb60t" fill="none">
  <title>Схема обвязки и КИП насоса аварийного ввода бора</title>
  <rt:model modelversion="7.2.0.23" comment="Created by KNPP\Zagrebaylova S. 10.09.2012 11:27:12"/> 
  <polyline points="969.318,675 1125,675 1125,425.5 1646,425" fill="none" stroke="black" stroke-width="3"/> 
  <polyline points="975,375 1125,375 1125,125 1500,125 1500,725" fill="none" stroke="black" stroke-width="3"/> 
  <text x="1000" y="50" fill="black" font-size="32" font-weight="bold" text-anchor="middle">
    <title>Схема обвязки и КИП насоса аварийного ввода бора</title>
10PGB60CT</text>
  <polyline points="47.6515,607.576 21.894,568.182 47.6515,492.424 280.985,642.424"/> 
  <polyline points="38.5606,490.909 35.5303,569.697 62.803,612.121"/> 
  <polyline points="575,500"/> 
  <polyline points="562.803,500 562.803,551.515"/> 
  <text x="1325" y="163.667" fill="black" font-size="15" text-anchor="middle">10PGB60AA001</text>
  <polygon points="1506,419.574 1506,440.171 1519.92,429.596" transform="rotate(270 975.703 655.299)"/> 
  <polygon points="1351.08,954.574 1351.08,975.171 1365,964.596" transform="rotate(270 975.703 655.299)"/> 
  <polygon points="1341.08,964.574 1341.08,985.171 1355,974.596" transform="rotate(270 975.703 655.299)"/> 
  <g transform="rotate(90 950 372.159)">
    <polygon points="938.091,372.409 952.841,347.159 967.841,372.159" fill="black" stroke="black"/> 
  </g>
  <image x="1290" y="82.5" width="70" height="65" xlink:href="DS_CO_valve.svg" transform="rotate(360 0 0) flipX(-7.56029e-005)">
    <title>10PGB60AA001</title>
    <rt:dyn type="KKS" mode="constant" value="&quot;10PGB60AA001&quot;"/> 
    <rt:dyn type="DATA_NARY" mode="constant" value="&quot;TPTS&quot;"/> 
    <rt:dyn type="Operate" mode="constant" value="true"/> 
  </image>
  <g transform="flipX(932) flipX(651.388) rotate(90 306.667 113.333)">
    <line x1="318.358" y1="-443.776" x2="313.688" y2="-430.443" stroke="black" stroke-width="2"/> 
    <line x1="2040.33" y1="-443.776" x2="2035.66" y2="-430.443" stroke="black" stroke-width="2" transform="flipX(1179.33)"/> 
  </g>
  <text x="867.614" y="150" fill="black" font-size="20" font-weight="bold" text-anchor="middle">10PGB60AP001</text>
  <text x="1325" y="464.167" fill="black" font-size="15" text-anchor="middle">10PGB60AA002</text>
  <image x="1290" y="383" width="70" height="65" xlink:href="DS_CO_valve.svg" transform="rotate(360 0 0) flipX(-7.56029e-005)">
    <title>10PGB60AA002</title>
    <rt:dyn type="KKS" mode="constant" value="&quot;10PGB60AA002&quot;"/> 
    <rt:dyn type="DATA_NARY" mode="constant" value="&quot;TPTS&quot;"/> 
    <rt:dyn type="Operate" mode="constant" value="true"/> 
  </image>
  <g transform="flipX(932) flipX(651.388) rotate(90 306.667 113.333)">
    <line x1="618.858" y1="-443.776" x2="614.188" y2="-430.443" stroke="black" stroke-width="2"/> 
    <line x1="1739.83" y1="-443.776" x2="1735.16" y2="-430.443" stroke="black" stroke-width="2" transform="flipX(1179.33)"/> 
  </g>
  <text x="875" y="450" fill="black" font-size="20" font-weight="bold" text-anchor="middle">10PGB60AP002</text>
  <polyline points="975,975 1125,975 1125,724.5 1500,724.5" fill="none" stroke="black" stroke-width="3"/> 
  <text x="1325" y="763.167" fill="black" font-size="15" text-anchor="middle">10PGB60AA003</text>
  <image x="1290" y="682" width="70" height="65" xlink:href="DS_CO_valve.svg" transform="rotate(360 0 0) flipX(-7.56029e-005)">
    <title>10PGB60AA003</title>
    <rt:dyn type="KKS" mode="constant" value="&quot;10PGB60AA003&quot;"/> 
    <rt:dyn type="DATA_NARY" mode="constant" value="&quot;TPTS&quot;"/> 
    <rt:dyn type="Operate" mode="constant" value="true"/> 
  </image>
  <g transform="flipX(932) flipX(651.388) rotate(90 306.667 113.333)">
    <line x1="917.858" y1="-443.776" x2="913.188" y2="-430.443" stroke="black" stroke-width="2"/> 
    <line x1="1440.83" y1="-443.776" x2="1436.16" y2="-430.443" stroke="black" stroke-width="2" transform="flipX(1179.33)"/> 
  </g>
  <text x="869.886" y="750" fill="black" font-size="20" font-weight="bold" text-anchor="middle">10PGB60AP003</text>
  <image x="1646" y="411.333" width="90" height="25" xlink:href="obj_link.svg">
    <title>PGB60_1</title>
    <rt:dyn type="TextStr" mode="constant" value="&quot;PGB60-1&quot;"/> 
    <rt:event type="OnClick">LoadNew(&quot;pgb60_1&quot;)</rt:event>
  </image>
  <rect x="1093.5" y="160" width="58.5" height="180" rx="0" ry="0" fill="gray" stroke="black" stroke-width="0.28418"/> 
  <rect x="777.54" y="243.006" width="144.511" height="14.2845" rx="0" ry="0" fill="gray" stroke="black" stroke-width="0.28418"/> 
  <rect x="799.4" y="227.405" width="96.8968" height="45.4868" rx="0" ry="0" fill="gray" stroke="black" stroke-width="0.28418"/> 
  <rect x="816.113" y="218.675" width="11.5643" height="62.9463" rx="0" ry="0" fill="gray" stroke="black" stroke-width="0.28418"/> 
  <rect x="922.579" y="228.496" width="456.919" height="43.2542" rx="0" ry="0" fill="gray" stroke="black" stroke-width="0.28418"/> 
  <rect x="868.214" y="218.675" width="11.5643" height="62.9463" rx="0" ry="0" fill="gray" stroke="black" stroke-width="0.28418"/> 
  <rect x="975.821" y="208.115" width="296.651" height="84.0662" rx="0" ry="0" fill="gray" stroke="black" stroke-width="0.28418"/> 
  <rect x="1045.72" y="185" width="158.275" height="130" rx="0" ry="0" fill="gray" stroke="black" stroke-width="0.28418"/> 
  <polygon points="798.703,234.472 798.054,226.645 816.222,226.793" fill="Col_BGSand"/> 
  <polygon points="798.703,265.927 798.054,273.754 816.222,273.606" fill="Col_BGSand"/> 
  <polygon points="897.105,265.927 897.754,273.754 879.588,273.606" fill="Col_BGSand"/> 
  <polygon points="898.188,234.472 898.838,226.645 880.671,226.793" fill="Col_BGSand"/> 
  <image x="1234" y="236" width="175" height="25" xlink:href="DS_ana.svg">
    <title>10PGB60CT006</title>
    <rt:dyn type="FKKS" mode="constant" value="&quot;10PGB60CT006&quot;"/> 
    <rt:dyn type="ShowFrame" mode="constant" value="true"/> 
    <rt:dyn type="X" mode="constant" value="&quot;T&quot;"/> 
    <rt:dyn type="Color_Readings" mode="constant" value="true"/> 
    <rt:dyn type="ValueToTheRight" mode="constant" value="false"/> 
  </image>
  <image x="869" y="236" width="175" height="25" xlink:href="DS_ana.svg">
    <title>10PGB60CT005</title>
    <rt:dyn type="FKKS" mode="constant" value="&quot;10PGB60CT005&quot;"/> 
    <rt:dyn type="ShowFrame" mode="constant" value="true"/> 
    <rt:dyn type="X" mode="constant" value="&quot;T&quot;"/> 
    <rt:dyn type="Color_Readings" mode="constant" value="true"/> 
    <rt:dyn type="ValueToTheRight" mode="constant" value="false"/> 
  </image>
  <g>
    <rect x="739.784" y="223.6" width="33.6236" height="53.0984" rx="0" ry="0" fill="gray" stroke="black" stroke-width="0.28418"/> 
    <rect x="765.776" y="230.682" width="23.5934" height="38.933" rx="0" ry="0" fill="gray" stroke="gray" stroke-width="0.28418"/> 
    <rect x="559.188" y="170.472" width="160" height="160" rx="5.84424" ry="1.46106" fill="gray" stroke="black" stroke-width="1"/> 
    <polygon points="559,325 558.75,175 334,175.25 309,185 309.25,315.25 334,325" fill="Col_Grey4" stroke="black" stroke-width="1"/> 
    <line x1="549" y1="325" x2="549.25" y2="175" stroke="black"/> 
    <rect x="719.056" y="213.114" width="22.4444" height="74.0688" rx="0.432892" ry="0.432892" fill="gray" stroke="gray" stroke-width="0.28418"/> 
  </g>
  <image x="382.667" y="175" width="175" height="25" xlink:href="DS_ana.svg">
    <title>10PGB60CT009</title>
    <rt:dyn type="FKKS" mode="constant" value="&quot;10PGB60CT009&quot;"/> 
    <rt:dyn type="ShowFrame" mode="constant" value="true"/> 
    <rt:dyn type="X" mode="constant" value="&quot;Tu &quot;"/> 
    <rt:dyn type="Color_Readings" mode="constant" value="true"/> 
    <rt:dyn type="ValueToTheRight" mode="constant" value="false"/> 
  </image>
  <image x="382.667" y="200" width="175" height="25" xlink:href="DS_ana.svg">
    <title>10PGB60CT020</title>
    <rt:dyn type="FKKS" mode="constant" value="&quot;10PGB60CT020&quot;"/> 
    <rt:dyn type="ShowFrame" mode="constant" value="true"/> 
    <rt:dyn type="X" mode="constant" value="&quot;Tu &quot;"/> 
    <rt:dyn type="Color_Readings" mode="constant" value="true"/> 
    <rt:dyn type="ValueToTheRight" mode="constant" value="false"/> 
  </image>
  <image x="382.333" y="225" width="175" height="25" xlink:href="DS_ana.svg">
    <title>10PGB60CT021</title>
    <rt:dyn type="FKKS" mode="constant" value="&quot;10PGB60CT021&quot;"/> 
    <rt:dyn type="ShowFrame" mode="constant" value="true"/> 
    <rt:dyn type="X" mode="constant" value="&quot;Tv &quot;"/> 
    <rt:dyn type="Color_Readings" mode="constant" value="true"/> 
    <rt:dyn type="ValueToTheRight" mode="constant" value="false"/> 
  </image>
  <image x="382.333" y="250" width="175" height="25" xlink:href="DS_ana.svg">
    <title>10PGB60CT022</title>
    <rt:dyn type="FKKS" mode="constant" value="&quot;10PGB60CT022&quot;"/> 
    <rt:dyn type="ShowFrame" mode="constant" value="true"/> 
    <rt:dyn type="X" mode="constant" value="&quot;Tv &quot;"/> 
    <rt:dyn type="Color_Readings" mode="constant" value="true"/> 
    <rt:dyn type="ValueToTheRight" mode="constant" value="false"/> 
  </image>
  <image x="382.333" y="275" width="175" height="25" xlink:href="DS_ana.svg">
    <title>10PGB60CT023</title>
    <rt:dyn type="FKKS" mode="constant" value="&quot;10PGB60CT023&quot;"/> 
    <rt:dyn type="ShowFrame" mode="constant" value="true"/> 
    <rt:dyn type="X" mode="constant" value="&quot;Tw &quot;"/> 
    <rt:dyn type="Color_Readings" mode="constant" value="true"/> 
    <rt:dyn type="ValueToTheRight" mode="constant" value="false"/> 
  </image>
  <image x="382.333" y="300" width="175" height="25" xlink:href="DS_ana.svg">
    <title>10PGB60CT024</title>
    <rt:dyn type="FKKS" mode="constant" value="&quot;10PGB60CT024&quot;"/> 
    <rt:dyn type="ShowFrame" mode="constant" value="true"/> 
    <rt:dyn type="X" mode="constant" value="&quot;Tw &quot;"/> 
    <rt:dyn type="Color_Readings" mode="constant" value="true"/> 
    <rt:dyn type="ValueToTheRight" mode="constant" value="false"/> 
  </image>
  <image x="185.333" y="238" width="175" height="25" xlink:href="DS_ana.svg">
    <title>10PGB60CT007</title>
    <rt:dyn type="FKKS" mode="constant" value="&quot;10PGB60CT007&quot;"/> 
    <rt:dyn type="ShowFrame" mode="constant" value="true"/> 
    <rt:dyn type="X" mode="constant" value="&quot;T&quot;"/> 
    <rt:dyn type="Color_Readings" mode="constant" value="true"/> 
    <rt:dyn type="ValueToTheRight" mode="constant" value="false"/> 
  </image>
  <image x="640.667" y="236" width="175" height="25" xlink:href="DS_ana.svg">
    <title>10PGB60CT008</title>
    <rt:dyn type="FKKS" mode="constant" value="&quot;10PGB60CT008&quot;"/> 
    <rt:dyn type="ShowFrame" mode="constant" value="true"/> 
    <rt:dyn type="X" mode="constant" value="&quot;T&quot;"/> 
    <rt:dyn type="Color_Readings" mode="constant" value="true"/> 
    <rt:dyn type="ValueToTheRight" mode="constant" value="false"/> 
  </image>
  <rect x="1093.5" y="460.5" width="58.5" height="180" rx="0" ry="0" fill="gray" stroke="black" stroke-width="0.28418"/> 
  <rect x="777.54" y="543.506" width="144.511" height="14.2845" rx="0" ry="0" fill="gray" stroke="black" stroke-width="0.28418"/> 
  <rect x="799.4" y="527.905" width="96.8968" height="45.4868" rx="0" ry="0" fill="gray" stroke="black" stroke-width="0.28418"/> 
  <rect x="816.113" y="519.175" width="11.5643" height="62.9463" rx="0" ry="0" fill="gray" stroke="black" stroke-width="0.28418"/> 
  <rect x="922.579" y="528.996" width="456.919" height="43.2542" rx="0" ry="0" fill="gray" stroke="black" stroke-width="0.28418"/> 
  <rect x="868.214" y="519.175" width="11.5643" height="62.9463" rx="0" ry="0" fill="gray" stroke="black" stroke-width="0.28418"/> 
  <rect x="975.82" y="508.615" width="296.651" height="84.0662" rx="0" ry="0" fill="gray" stroke="black" stroke-width="0.28418"/> 
  <rect x="1045.72" y="485.5" width="158.275" height="130" rx="0" ry="0" fill="gray" stroke="black" stroke-width="0.28418"/> 
  <polygon points="798.703,534.972 798.054,527.145 816.22,527.293" fill="Col_BGSand"/> 
  <polygon points="798.703,566.427 798.054,574.254 816.22,574.106" fill="Col_BGSand"/> 
  <polygon points="897.105,566.427 897.754,574.254 879.586,574.106" fill="Col_BGSand"/> 
  <polygon points="898.188,534.972 898.837,527.145 880.671,527.293" fill="Col_BGSand"/> 
  <image x="869" y="536.5" width="175" height="25" xlink:href="DS_ana.svg">
    <title>10PGB60CT010</title>
    <rt:dyn type="FKKS" mode="constant" value="&quot;10PGB60CT010&quot;"/> 
    <rt:dyn type="ShowFrame" mode="constant" value="true"/> 
    <rt:dyn type="X" mode="constant" value="&quot;T&quot;"/> 
    <rt:dyn type="Color_Readings" mode="constant" value="true"/> 
    <rt:dyn type="ValueToTheRight" mode="constant" value="false"/> 
  </image>
  <image x="1090" y="515.5" width="70" height="70" xlink:href="DS_motor.svg" transform="rotate(90 0 0) flipX(6.63708e-005)">
    <title>10PGB60AP002</title>
    <rt:dyn type="KKS" mode="constant" value="&quot;10PGB60AP002&quot;"/> 
    <rt:dyn type="DATA_NARY" mode="constant" value="&quot;TPTS&quot;"/> 
    <rt:dyn type="Operate" mode="constant" value="true"/> 
  </image>
  <image x="1090" y="215" width="70" height="70" xlink:href="DS_motor.svg" transform="rotate(90 0 0) flipX(6.63708e-005)">
    <title>10PGB60AP001</title>
    <rt:dyn type="KKS" mode="constant" value="&quot;10PGB60AP001&quot;"/> 
    <rt:dyn type="DATA_NARY" mode="constant" value="&quot;TPTS&quot;"/> 
    <rt:dyn type="Operate" mode="constant" value="true"/> 
  </image>
  <g>
    <rect x="740.534" y="522" width="33.6236" height="53.0984" rx="0" ry="0" fill="gray" stroke="black" stroke-width="0.28418"/> 
    <rect x="766.526" y="529.082" width="23.5934" height="38.933" rx="0" ry="0" fill="gray" stroke="gray" stroke-width="0.28418"/> 
    <rect x="559.938" y="468.872" width="160" height="160" rx="5.84424" ry="1.46106" fill="gray" stroke="black" stroke-width="1"/> 
    <polygon points="559.75,623.4 559.5,473.4 334.75,473.65 309.75,483.4 310,613.65 334.75,623.4" fill="Col_Grey4" stroke="black" stroke-width="1"/> 
    <line x1="549.75" y1="623.4" x2="550" y2="473.4" stroke="black"/> 
    <rect x="719.806" y="511.514" width="22.4444" height="74.0688" rx="0.432892" ry="0.432892" fill="gray" stroke="gray" stroke-width="0.28418"/> 
  </g>
  <image x="640" y="538" width="175" height="25" xlink:href="DS_ana.svg">
    <title>10PGB60CT013</title>
    <rt:dyn type="FKKS" mode="constant" value="&quot;10PGB60CT013&quot;"/> 
    <rt:dyn type="ShowFrame" mode="constant" value="true"/> 
    <rt:dyn type="X" mode="constant" value="&quot;T&quot;"/> 
    <rt:dyn type="Color_Readings" mode="constant" value="true"/> 
    <rt:dyn type="ValueToTheRight" mode="constant" value="false"/> 
  </image>
  <image x="186.667" y="538" width="175" height="25" xlink:href="DS_ana.svg">
    <title>10PGB60CT012</title>
    <rt:dyn type="FKKS" mode="constant" value="&quot;10PGB60CT012&quot;"/> 
    <rt:dyn type="ShowFrame" mode="constant" value="true"/> 
    <rt:dyn type="X" mode="constant" value="&quot;T&quot;"/> 
    <rt:dyn type="Color_Readings" mode="constant" value="true"/> 
    <rt:dyn type="ValueToTheRight" mode="constant" value="false"/> 
  </image>
  <image x="382.667" y="473" width="175" height="25" xlink:href="DS_ana.svg">
    <title>10PGB60CT014</title>
    <rt:dyn type="FKKS" mode="constant" value="&quot;10PGB60CT014&quot;"/> 
    <rt:dyn type="ShowFrame" mode="constant" value="true"/> 
    <rt:dyn type="X" mode="constant" value="&quot;Tu &quot;"/> 
    <rt:dyn type="Color_Readings" mode="constant" value="true"/> 
    <rt:dyn type="ValueToTheRight" mode="constant" value="false"/> 
  </image>
  <image x="382.667" y="498" width="175" height="25" xlink:href="DS_ana.svg">
    <title>10PGB60CT025</title>
    <rt:dyn type="FKKS" mode="constant" value="&quot;10PGB60CT025&quot;"/> 
    <rt:dyn type="ShowFrame" mode="constant" value="true"/> 
    <rt:dyn type="X" mode="constant" value="&quot;Tu &quot;"/> 
    <rt:dyn type="Color_Readings" mode="constant" value="true"/> 
    <rt:dyn type="ValueToTheRight" mode="constant" value="false"/> 
  </image>
  <image x="382.333" y="523" width="175" height="25" xlink:href="DS_ana.svg">
    <title>10PGB60CT026</title>
    <rt:dyn type="FKKS" mode="constant" value="&quot;10PGB60CT026&quot;"/> 
    <rt:dyn type="ShowFrame" mode="constant" value="true"/> 
    <rt:dyn type="X" mode="constant" value="&quot;Tv &quot;"/> 
    <rt:dyn type="Color_Readings" mode="constant" value="true"/> 
    <rt:dyn type="ValueToTheRight" mode="constant" value="false"/> 
  </image>
  <image x="382.333" y="548" width="175" height="25" xlink:href="DS_ana.svg">
    <title>10PGB60CT027</title>
    <rt:dyn type="FKKS" mode="constant" value="&quot;10PGB60CT027&quot;"/> 
    <rt:dyn type="ShowFrame" mode="constant" value="true"/> 
    <rt:dyn type="X" mode="constant" value="&quot;Tv &quot;"/> 
    <rt:dyn type="Color_Readings" mode="constant" value="true"/> 
    <rt:dyn type="ValueToTheRight" mode="constant" value="false"/> 
  </image>
  <image x="382.333" y="573" width="175" height="25" xlink:href="DS_ana.svg">
    <title>10PGB60CT028</title>
    <rt:dyn type="FKKS" mode="constant" value="&quot;10PGB60CT028&quot;"/> 
    <rt:dyn type="ShowFrame" mode="constant" value="true"/> 
    <rt:dyn type="X" mode="constant" value="&quot;Tw &quot;"/> 
    <rt:dyn type="Color_Readings" mode="constant" value="true"/> 
    <rt:dyn type="ValueToTheRight" mode="constant" value="false"/> 
  </image>
  <image x="382.333" y="598" width="175" height="25" xlink:href="DS_ana.svg">
    <title>10PGB60CT029</title>
    <rt:dyn type="FKKS" mode="constant" value="&quot;10PGB60CT029&quot;"/> 
    <rt:dyn type="ShowFrame" mode="constant" value="true"/> 
    <rt:dyn type="X" mode="constant" value="&quot;Tw &quot;"/> 
    <rt:dyn type="Color_Readings" mode="constant" value="true"/> 
    <rt:dyn type="ValueToTheRight" mode="constant" value="false"/> 
  </image>
  <image x="1234" y="536.5" width="175" height="25" xlink:href="DS_ana.svg">
    <title>10PGB60CT011</title>
    <rt:dyn type="FKKS" mode="constant" value="&quot;10PGB60CT011&quot;"/> 
    <rt:dyn type="ShowFrame" mode="constant" value="true"/> 
    <rt:dyn type="X" mode="constant" value="&quot;T&quot;"/> 
    <rt:dyn type="Color_Readings" mode="constant" value="true"/> 
    <rt:dyn type="ValueToTheRight" mode="constant" value="false"/> 
  </image>
  <rect x="1093.5" y="759.5" width="58.5" height="180" rx="0" ry="0" fill="gray" stroke="black" stroke-width="0.28418"/> 
  <rect x="777.54" y="842.506" width="144.511" height="14.2845" rx="0" ry="0" fill="gray" stroke="black" stroke-width="0.28418"/> 
  <rect x="799.4" y="826.905" width="96.8968" height="45.4868" rx="0" ry="0" fill="gray" stroke="black" stroke-width="0.28418"/> 
  <rect x="816.113" y="818.175" width="11.5643" height="62.9463" rx="0" ry="0" fill="gray" stroke="black" stroke-width="0.28418"/> 
  <rect x="922.579" y="827.996" width="456.919" height="43.2542" rx="0" ry="0" fill="gray" stroke="black" stroke-width="0.28418"/> 
  <rect x="868.214" y="818.175" width="11.5643" height="62.9463" rx="0" ry="0" fill="gray" stroke="black" stroke-width="0.28418"/> 
  <rect x="975.82" y="807.615" width="296.651" height="84.0662" rx="0" ry="0" fill="gray" stroke="black" stroke-width="0.28418"/> 
  <rect x="1045.72" y="784.5" width="158.275" height="130" rx="0" ry="0" fill="gray" stroke="black" stroke-width="0.28418"/> 
  <polygon points="798.703,833.972 798.054,826.145 816.22,826.293" fill="Col_BGSand"/> 
  <polygon points="798.703,865.427 798.054,873.254 816.22,873.106" fill="Col_BGSand"/> 
  <polygon points="897.105,865.427 897.754,873.254 879.586,873.106" fill="Col_BGSand"/> 
  <polygon points="898.188,833.972 898.837,826.145 880.671,826.293" fill="Col_BGSand"/> 
  <g>
    <rect x="740.534" y="823.35" width="33.6236" height="53.0984" rx="0" ry="0" fill="gray" stroke="black" stroke-width="0.28418"/> 
    <rect x="766.526" y="830.432" width="23.5934" height="38.933" rx="0" ry="0" fill="gray" stroke="gray" stroke-width="0.28418"/> 
    <rect x="559.938" y="770.222" width="160" height="160" rx="5.84424" ry="1.46106" fill="gray" stroke="black" stroke-width="1"/> 
    <polygon points="559.75,924.75 559.5,774.75 334.75,775 309.75,784.75 310,915 334.75,924.75" fill="Col_Grey4" stroke="black" stroke-width="1"/> 
    <line x1="549.75" y1="924.75" x2="550" y2="774.75" stroke="black"/> 
    <rect x="719.806" y="812.864" width="22.4444" height="74.0688" rx="0.432892" ry="0.432892" fill="gray" stroke="gray" stroke-width="0.28418"/> 
  </g>
  <image x="869" y="835.5" width="175" height="25" xlink:href="DS_ana.svg">
    <title>10PGB60CT015</title>
    <rt:dyn type="FKKS" mode="constant" value="&quot;10PGB60CT015&quot;"/> 
    <rt:dyn type="ShowFrame" mode="constant" value="true"/> 
    <rt:dyn type="X" mode="constant" value="&quot;T&quot;"/> 
    <rt:dyn type="Color_Readings" mode="constant" value="true"/> 
    <rt:dyn type="ValueToTheRight" mode="constant" value="false"/> 
  </image>
  <image x="1090" y="814.5" width="70" height="70" xlink:href="DS_motor.svg" transform="rotate(90 0 0) flipX(6.63708e-005)">
    <title>10PGB60AP003</title>
    <rt:dyn type="KKS" mode="constant" value="&quot;10PGB60AP003&quot;"/> 
    <rt:dyn type="DATA_NARY" mode="constant" value="&quot;TPTS&quot;"/> 
    <rt:dyn type="Operate" mode="constant" value="true"/> 
  </image>
  <image x="1234" y="835.5" width="175" height="25" xlink:href="DS_ana.svg">
    <title>10PGB60CT016</title>
    <rt:dyn type="FKKS" mode="constant" value="&quot;10PGB60CT016&quot;"/> 
    <rt:dyn type="ShowFrame" mode="constant" value="true"/> 
    <rt:dyn type="X" mode="constant" value="&quot;T&quot;"/> 
    <rt:dyn type="Color_Readings" mode="constant" value="true"/> 
    <rt:dyn type="ValueToTheRight" mode="constant" value="false"/> 
  </image>
  <image x="186.667" y="838" width="175" height="25" xlink:href="DS_ana.svg">
    <title>10PGB60CT017</title>
    <rt:dyn type="FKKS" mode="constant" value="&quot;10PGB60CT017&quot;"/> 
    <rt:dyn type="ShowFrame" mode="constant" value="true"/> 
    <rt:dyn type="X" mode="constant" value="&quot;T&quot;"/> 
    <rt:dyn type="Color_Readings" mode="constant" value="true"/> 
    <rt:dyn type="ValueToTheRight" mode="constant" value="false"/> 
  </image>
  <image x="634" y="837.334" width="175" height="25" xlink:href="DS_ana.svg">
    <title>10PGB60CT018</title>
    <rt:dyn type="FKKS" mode="constant" value="&quot;10PGB60CT018&quot;"/> 
    <rt:dyn type="ShowFrame" mode="constant" value="true"/> 
    <rt:dyn type="X" mode="constant" value="&quot;T&quot;"/> 
    <rt:dyn type="Color_Readings" mode="constant" value="true"/> 
    <rt:dyn type="ValueToTheRight" mode="constant" value="false"/> 
  </image>
  <image x="382.667" y="774.333" width="175" height="25" xlink:href="DS_ana.svg">
    <title>10PGB60CT019</title>
    <rt:dyn type="FKKS" mode="constant" value="&quot;10PGB60CT019&quot;"/> 
    <rt:dyn type="ShowFrame" mode="constant" value="true"/> 
    <rt:dyn type="X" mode="constant" value="&quot;Tu &quot;"/> 
    <rt:dyn type="Color_Readings" mode="constant" value="true"/> 
    <rt:dyn type="ValueToTheRight" mode="constant" value="false"/> 
  </image>
  <image x="382.667" y="799.333" width="175" height="25" xlink:href="DS_ana.svg">
    <title>10PGB60CT030</title>
    <rt:dyn type="FKKS" mode="constant" value="&quot;10PGB60CT030&quot;"/> 
    <rt:dyn type="ShowFrame" mode="constant" value="true"/> 
    <rt:dyn type="X" mode="constant" value="&quot;Tu &quot;"/> 
    <rt:dyn type="Color_Readings" mode="constant" value="true"/> 
    <rt:dyn type="ValueToTheRight" mode="constant" value="false"/> 
  </image>
  <image x="382.333" y="824.333" width="175" height="25" xlink:href="DS_ana.svg">
    <title>10PGB60CT031</title>
    <rt:dyn type="FKKS" mode="constant" value="&quot;10PGB60CT031&quot;"/> 
    <rt:dyn type="ShowFrame" mode="constant" value="true"/> 
    <rt:dyn type="X" mode="constant" value="&quot;Tv &quot;"/> 
    <rt:dyn type="Color_Readings" mode="constant" value="true"/> 
    <rt:dyn type="ValueToTheRight" mode="constant" value="false"/> 
  </image>
  <image x="382.333" y="849.333" width="175" height="25" xlink:href="DS_ana.svg">
    <title>10PGB60CT032</title>
    <rt:dyn type="FKKS" mode="constant" value="&quot;10PGB60CT032&quot;"/> 
    <rt:dyn type="ShowFrame" mode="constant" value="true"/> 
    <rt:dyn type="X" mode="constant" value="&quot;Tv &quot;"/> 
    <rt:dyn type="Color_Readings" mode="constant" value="true"/> 
    <rt:dyn type="ValueToTheRight" mode="constant" value="false"/> 
  </image>
  <image x="382.333" y="874.333" width="175" height="25" xlink:href="DS_ana.svg">
    <title>10PGB60CT033</title>
    <rt:dyn type="FKKS" mode="constant" value="&quot;10PGB60CT033&quot;"/> 
    <rt:dyn type="ShowFrame" mode="constant" value="true"/> 
    <rt:dyn type="X" mode="constant" value="&quot;Tw &quot;"/> 
    <rt:dyn type="Color_Readings" mode="constant" value="true"/> 
    <rt:dyn type="ValueToTheRight" mode="constant" value="false"/> 
  </image>
  <image x="382.333" y="899.333" width="175" height="25" xlink:href="DS_ana.svg">
    <title>10PGB60CT034</title>
    <rt:dyn type="FKKS" mode="constant" value="&quot;10PGB60CT034&quot;"/> 
    <rt:dyn type="ShowFrame" mode="constant" value="true"/> 
    <rt:dyn type="X" mode="constant" value="&quot;Tw &quot;"/> 
    <rt:dyn type="Color_Readings" mode="constant" value="true"/> 
    <rt:dyn type="ValueToTheRight" mode="constant" value="false"/> 
  </image>
  <text x="852.25" y="361" fill="black" font-size="18" text-anchor="middle">От  т/о<tspan x="852.25" dy="18">10PGB60AC001,002</tspan>
  </text>
  <text x="1818" y="430.682" fill="black" font-size="18" text-anchor="middle">На потребители</text>
  <g transform="rotate(90 950 372.159)">
    <polygon points="1238.09,372.409 1252.84,347.159 1267.84,372.159" fill="black" stroke="black"/> 
  </g>
  <text x="850" y="661.364" fill="black" font-size="18" text-anchor="middle">От  т/о<tspan x="850" dy="18">10PGB60AC001,002</tspan>
  </text>
  <g transform="rotate(90 950 372.159)">
    <polygon points="1538.09,372.409 1552.84,347.159 1567.84,372.159" fill="black" stroke="black"/> 
  </g>
  <text x="850" y="960.227" fill="black" font-size="18" text-anchor="middle">От  т/о<tspan x="850" dy="18">10PGB60AC001,002</tspan>
  </text>
</svg>
