<?xml  version="1.0" encoding="windows-1251"?>
<svg color="Col_BGSand" xmlns="http://www.w3.org/2000/svg" xmlns:rt="http://www.rts.co.at/2001/XMLSchema/RtSvgPL" xmlns:xlink="http://www.w3.org/1999/xlink" xmlns:xsi="http://www.w3.org/2001/XMLSchema-instance" xsi:schemaLocation="http://www.w3.org/2000/svg C:\RTS\RtSvg\XML\SVG.xsd" viewBox="0 0 1914 1000" width="1914" height="1000" id="pvd_fgu" font-weight="bold">
  <title>Программы ФГУ. Обобщенный видеокадр</title>
  <rt:model modelversion="0.0.0.0" revision="2.0"/> 
  <line x1="1134.27" y1="471.212" x2="1134.27" y2="471.212" stroke="black"/> 
  <line x1="212" y1="-356" x2="212" y2="-356" stroke="black"/> 
  <g transform="scale(0.700999 0.700999 -40.803 -2.34365)"/> 
  <line x1="265.537" y1="315.854" x2="265.537" y2="315.854" stroke="black"/> 
  <line x1="319.195" y1="319.512" x2="319.195" y2="319.512" stroke="black"/> 
  <line x1="1381.39" y1="790.244" x2="1381.39" y2="790.244" stroke="black"/> 
  <polygon points="559.708,-1009.57 608.708,-1009.57 584.708,-1048.57" fill="Col_BGSand" stroke="black" transform="rotate(2.82778 1344.25 437.715) scale(0.5925 0.5925 1344.25 437.715) rotate(23.6751 1344.25 437.715)"/> 
  <polygon points="559.708,-1009.57 608.708,-1009.57 584.708,-1048.57" fill="Col_BGSand" stroke="black" transform="rotate(2.82778 1344.25 437.715) scale(0.5925 0.5925 1344.25 437.715) rotate(23.6751 1344.25 437.715)"/> 
  <polygon points="431.998,-1261.18 480.998,-1261.18 456.998,-1300.18" fill="Col_BGSand" stroke="black" transform="scale(0.8525 0.8525 1344.25 437.715) rotate(2.82778 1344.25 437.715) scale(0.5925 0.5925 1344.25 437.715) rotate(23.6751 1344.25 437.715)"/> 
  <polygon points="431.998,-1261.18 480.998,-1261.18 456.998,-1300.18" fill="Col_BGSand" stroke="black" transform="scale(0.8525 0.8525 1344.25 437.715) rotate(2.82778 1344.25 437.715) scale(0.5925 0.5925 1344.25 437.715) rotate(23.6751 1344.25 437.715)"/> 
  <text x="960" y="70" fill="black" font-size="28" text-anchor="middle">Программы ФГУ. Обобщенный видеокадр.</text>
  <text x="25" y="48.1667" fill="black" font-size="20">PVD_FGU</text>
  <text x="734.431" y="558.333" fill="black" font-size="18" text-anchor="middle">Программа перемещения брикета<tspan x="734.431" dy="18">с платформы пресса в стопку №1 НЗК</tspan>
  </text>
  <image x="646.931" y="590.106" width="175" height="36" xlink:href="obj_Button.svg" font-size="18">
    <rt:event type="OnClick">LoadNew (&quot;00kpa30ec410_m1-8&quot;)</rt:event>
    <rt:dyn type="Label" mode="constant" value="&quot;00KPA30EC410&quot;"/> 
    <rt:dyn type="T_Size" mode="constant" value="22"/> 
  </image>
  <text x="734.431" y="392.829" fill="black" font-size="18" text-anchor="middle">ПУ процессом загрузки НЗК</text>
  <image x="1087.18" y="424.034" width="175" height="36" xlink:href="obj_Button.svg" font-size="18">
    <rt:event type="OnClick">LoadNew (&quot;00kpa30ec020_m1-5&quot;)</rt:event>
    <rt:dyn type="Label" mode="constant" value="&quot;00KPA30EC020&quot;"/> 
    <rt:dyn type="T_Size" mode="constant" value="22"/> 
  </image>
  <text x="1174.68" y="383.829" fill="black" font-size="18" text-anchor="middle">Доставка бочки с накопителя бочек<tspan x="1174.68" dy="18">на платформу пресса для прессования</tspan>
  </text>
  <text x="1174.68" y="558.333" fill="black" font-size="18" text-anchor="middle">Программа перемещения брикета<tspan x="1174.68" dy="18">с платформы пресса в стопку №2 НЗК</tspan>
  </text>
  <image x="1087.18" y="590.106" width="175" height="36" xlink:href="obj_Button.svg" font-size="18">
    <rt:event type="OnClick">LoadNew (&quot;00kpa30ec420_m1-8&quot;)</rt:event>
    <rt:dyn type="Label" mode="constant" value="&quot;00KPA30EC420&quot;"/> 
    <rt:dyn type="T_Size" mode="constant" value="22"/> 
  </image>
  <text x="734.431" y="703.629" fill="black" font-size="18" text-anchor="middle">Программа перемещения брикета<tspan x="734.431" dy="18">с платформы пресса в стопку №3 НЗК</tspan>
  </text>
  <image x="646.931" y="735.402" width="175" height="36" xlink:href="obj_Button.svg" font-size="18">
    <rt:event type="OnClick">LoadNew (&quot;00kpa30ec430_m1-8&quot;)</rt:event>
    <rt:dyn type="Label" mode="constant" value="&quot;00KPA30EC430&quot;"/> 
    <rt:dyn type="T_Size" mode="constant" value="22"/> 
  </image>
  <text x="1174.68" y="703.629" fill="black" font-size="18" text-anchor="middle">Программа перемещения брикета<tspan x="1174.68" dy="18">с платформы пресса в стопку №4 НЗК</tspan>
  </text>
  <image x="1087.18" y="735.402" width="175" height="36" xlink:href="obj_Button.svg" font-size="18">
    <rt:event type="OnClick">LoadNew (&quot;00kpa30ec440_m1-8&quot;)</rt:event>
    <rt:dyn type="Label" mode="constant" value="&quot;00KPA30EC440&quot;"/> 
    <rt:dyn type="T_Size" mode="constant" value="22"/> 
  </image>
  <image x="646.931" y="248.215" width="175" height="36" xlink:href="obj_Button.svg" font-size="18">
    <rt:event type="OnClick">LoadNew (&quot;00kpa30ec001_m1-6&quot;)</rt:event>
    <rt:dyn type="Label" mode="constant" value="&quot;10KPA30EC001&quot;"/> 
    <rt:dyn type="T_Size" mode="constant" value="22"/> 
  </image>
  <text x="734.431" y="221.976" fill="black" font-size="18" text-anchor="middle">ПУ процессом измерения НЗК</text>
  <image x="1087.18" y="248.215" width="175" height="36" xlink:href="obj_Button.svg" font-size="18">
    <rt:event type="OnClick">LoadNew (&quot;00kpa30ec002_m1-6&quot;)</rt:event>
    <rt:dyn type="Label" mode="constant" value="&quot;10KPA30EC002&quot;"/> 
    <rt:dyn type="T_Size" mode="constant" value="22"/> 
  </image>
  <text x="1174.68" y="167.976" fill="black" font-size="18" text-anchor="middle">ПУ прессования бочки<tspan x="1174.68" dy="18">и последующее перемещение</tspan>
<tspan x="1174.68" dy="18">получившегося брикета</tspan>
<tspan x="1174.68" dy="18">на стол-накопитель брикетов</tspan>
  </text>
  <image x="653.341" y="424.034" width="175" height="36" xlink:href="obj_Button.svg" font-size="18">
    <rt:event type="OnClick">LoadNew (&quot;00kpa30ec003_m1-4&quot;)</rt:event>
    <rt:dyn type="Label" mode="constant" value="&quot;10KPA30EC003&quot;"/> 
    <rt:dyn type="T_Size" mode="constant" value="22"/> 
  </image>
</svg>
