<?xml  version="1.0" encoding="windows-1251"?>
<svg color="Col_BGSand" xmlns="http://www.w3.org/2000/svg" xmlns:rt="http://www.rts.co.at/2001/XMLSchema/RtSvgPL" xmlns:xlink="http://www.w3.org/1999/xlink" xmlns:xsi="http://www.w3.org/2001/XMLSchema-instance" xsi:schemaLocation="http://www.w3.org/2000/svg C:\RTS\RtSvg\XML\SVG.xsd" viewBox="0 0 1914 1000" width="1914" height="1000" id="1qua" stroke="black">
  <desc>Система маслоснабжения регулирования турбины</desc>
  <title>KUA10-50 Система отбора проб из оборудования здания 10UJA</title>
  <rt:model modelversion="ver 1.0" comment="Создано Svetlana-VAIO\Svetlana 18.10.2012 21:55:57"/> 
  <text x="803.788" y="36.4242" font-size="32">
    <title>Система автоматизированного контроля систем питательной воды</title>
QUA</text>
  <rect x="1851.09" y="125.546" width="0" height="0" rx="0" ry="0"/> 
  <rect x="1861.24" y="333.697" width="0" height="0" rx="0" ry="0"/> 
  <rect x="1851.39" y="810.849" width="0" height="0" rx="0" ry="0"/> 
  <line x1="233" y1="163" x2="768" y2="162.5" stroke="black" stroke-width="3"/> 
  <image x="19.0609" y="692.667" width="175" height="25" xlink:href="DS_ana.svg">
    <title>10QUA20CT001</title>
    <rt:dyn type="FKKS" mode="constant" value="&quot;10QUA20CT001&quot;"/> 
    <rt:dyn type="ShowFrame" mode="constant" value="true"/> 
    <rt:dyn type="X" mode="constant" value="&quot;T&quot;"/> 
    <rt:dyn type="Color_Readings" mode="constant" value="true"/> 
    <rt:dyn type="ValueToTheRight" mode="constant" value="false"/> 
  </image>
  <line x1="1095" y1="352" x2="1094" y2="92" stroke="black" stroke-width="3"/> 
  <text x="300.85" y="672.485" fill="black" font-size="15" text-anchor="middle">10QUA20AX001</text>
  <g>
    <rect x="201.379" y="655.136" width="200.591" height="152.348" rx="0" ry="0" fill="none" stroke-width="3"/> 
  </g>
  <image x="636" y="120.5" width="70" height="65" xlink:href="DS_CO_valve.svg" transform="rotate(360 0 -10)">
    <title>10LAB20AA001</title>
    <rt:dyn type="KKS" mode="constant" value="&quot;10LAB20AA001&quot;"/> 
    <rt:dyn type="DATA_NARY" mode="constant" value="&quot;TPTS&quot;"/> 
    <rt:dyn type="Operate" mode="constant" value="true"/> 
  </image>
  <image x="361" y="120" width="70" height="65" xlink:href="DS_CO_valve.svg" transform="rotate(360 0 -10)">
    <title>10LAB20AA002</title>
    <rt:dyn type="KKS" mode="constant" value="&quot;10LAB20AA002&quot;"/> 
    <rt:dyn type="DATA_NARY" mode="constant" value="&quot;TPTS&quot;"/> 
    <rt:dyn type="Operate" mode="constant" value="true"/> 
  </image>
  <image x="222.091" y="692.151" width="175" height="25" xlink:href="DS_ana.svg">
    <title>10QUA20CQ001</title>
    <rt:dyn type="FKKS" mode="constant" value="&quot;10QUA20CQ001&quot;"/> 
    <rt:dyn type="X" mode="constant" value="&quot;Q&quot;"/> 
    <rt:dyn type="ShowFrame" mode="constant" value="true"/> 
    <rt:dyn type="Color_Readings" mode="constant" value="true"/> 
    <rt:dyn type="ValueToTheRight" mode="constant" value="false"/> 
  </image>
  <image x="222.091" y="723.151" width="175" height="25" xlink:href="DS_ana.svg">
    <title>10QUA20CQ002</title>
    <rt:dyn type="FKKS" mode="constant" value="&quot;10QUA20CQ002&quot;"/> 
    <rt:dyn type="X" mode="constant" value="&quot;Q&quot;"/> 
    <rt:dyn type="ShowFrame" mode="constant" value="true"/> 
    <rt:dyn type="Color_Readings" mode="constant" value="true"/> 
    <rt:dyn type="ValueToTheRight" mode="constant" value="false"/> 
  </image>
  <image x="222.091" y="758.487" width="175" height="25" xlink:href="DS_ana.svg">
    <title>10QUA20CQ003</title>
    <rt:dyn type="FKKS" mode="constant" value="&quot;10QUA20CQ003&quot;"/> 
    <rt:dyn type="X" mode="constant" value="&quot;Q&quot;"/> 
    <rt:dyn type="ShowFrame" mode="constant" value="true"/> 
    <rt:dyn type="Color_Readings" mode="constant" value="true"/> 
    <rt:dyn type="ValueToTheRight" mode="constant" value="false"/> 
  </image>
  <image x="19.0609" y="724.666" width="175" height="25" xlink:href="DS_ana.svg">
    <title>10QUA20CP001</title>
    <rt:dyn type="FKKS" mode="constant" value="&quot;10QUA20CP001&quot;"/> 
    <rt:dyn type="ShowFrame" mode="constant" value="true"/> 
    <rt:dyn type="X" mode="constant" value="&quot;P&quot;"/> 
    <rt:dyn type="Color_Readings" mode="constant" value="true"/> 
    <rt:dyn type="ValueToTheRight" mode="constant" value="false"/> 
  </image>
  <image x="19.2729" y="758.487" width="175" height="25" xlink:href="DS_ana.svg">
    <title>10QUA20CF001</title>
    <rt:dyn type="FKKS" mode="constant" value="&quot;10QUA20CF001&quot;"/> 
    <rt:dyn type="ShowFrame" mode="constant" value="true"/> 
    <rt:dyn type="X" mode="constant" value="&quot;F&quot;"/> 
    <rt:dyn type="Color_Readings" mode="constant" value="true"/> 
    <rt:dyn type="ValueToTheRight" mode="constant" value="false"/> 
  </image>
  <g transform="rotate(90 1434.12 311.105) rotate(198.121 282.38 937.257) rotate(280.803 1619.81 407.256)">
    <path d="M704.999 -2292.21 A8.80483 8.80483 0 1 1 704.999 -2274.6 " fill="none" stroke="black" stroke-width="3" transform="rotate(270 807.304 426.678) rotate(270 980.127 441.195) flipY() translate(0 -828) translate(229.642 442.62)"/> 
    <path d="M-822.229 2463.78 A8.80483 8.80483 0 1 1 -822.229 2481.39 " fill="none" stroke="black" stroke-width="3" transform="rotate(180 1630.39 413.332) rotate(270 807.304 426.678) rotate(270 980.127 441.195) flipY() translate(0 -828) translate(229.642 442.62)"/> 
  </g>
  <line x1="301.005" y1="654.355" x2="301" y2="162.5" stroke="black" stroke-width="3"/> 
  <text x="547.002" y="672.485" fill="black" font-size="15" text-anchor="middle">10QUA20AX002</text>
  <g>
    <rect x="441.531" y="655.287" width="200.591" height="152.348" rx="0" ry="0" fill="none" stroke-width="3"/> 
  </g>
  <text x="1445" y="672.485" fill="black" font-size="15" text-anchor="middle">10QUA10AX001</text>
  <g>
    <rect x="1345.59" y="655.681" width="200.591" height="152.348" rx="0" ry="0" fill="none" stroke-width="3"/> 
  </g>
  <image x="460.636" y="693.667" width="175" height="25" xlink:href="DS_ana.svg">
    <title>10QUA20CQ004</title>
    <rt:dyn type="FKKS" mode="constant" value="&quot;10QUA20CQ004&quot;"/> 
    <rt:dyn type="X" mode="constant" value="&quot;Q&quot;"/> 
    <rt:dyn type="ShowFrame" mode="constant" value="true"/> 
    <rt:dyn type="Color_Readings" mode="constant" value="true"/> 
    <rt:dyn type="ValueToTheRight" mode="constant" value="false"/> 
  </image>
  <image x="460.636" y="724.667" width="175" height="25" xlink:href="DS_ana.svg">
    <title>10QUA20CQ005</title>
    <rt:dyn type="FKKS" mode="constant" value="&quot;10QUA20CQ005&quot;"/> 
    <rt:dyn type="X" mode="constant" value="&quot;Q&quot;"/> 
    <rt:dyn type="ShowFrame" mode="constant" value="true"/> 
    <rt:dyn type="Color_Readings" mode="constant" value="true"/> 
    <rt:dyn type="ValueToTheRight" mode="constant" value="false"/> 
  </image>
  <image x="460.636" y="758.487" width="175" height="25" xlink:href="DS_ana.svg">
    <title>10QUA20CQ006</title>
    <rt:dyn type="FKKS" mode="constant" value="&quot;10QUA20CQ006&quot;"/> 
    <rt:dyn type="X" mode="constant" value="&quot;Q&quot;"/> 
    <rt:dyn type="ShowFrame" mode="constant" value="true"/> 
    <rt:dyn type="Color_Readings" mode="constant" value="true"/> 
    <rt:dyn type="ValueToTheRight" mode="constant" value="false"/> 
  </image>
  <image x="652.212" y="693.818" width="175" height="25" xlink:href="DS_ana.svg">
    <title>10QUA20CT002</title>
    <rt:dyn type="FKKS" mode="constant" value="&quot;10QUA20CT002&quot;"/> 
    <rt:dyn type="ShowFrame" mode="constant" value="true"/> 
    <rt:dyn type="X" mode="constant" value="&quot;T&quot;"/> 
    <rt:dyn type="Color_Readings" mode="constant" value="true"/> 
    <rt:dyn type="ValueToTheRight" mode="constant" value="false"/> 
  </image>
  <image x="652.212" y="725.818" width="175" height="25" xlink:href="DS_ana.svg">
    <title>10QUA20CP002</title>
    <rt:dyn type="FKKS" mode="constant" value="&quot;10QUA20CP002&quot;"/> 
    <rt:dyn type="ShowFrame" mode="constant" value="true"/> 
    <rt:dyn type="X" mode="constant" value="&quot;P&quot;"/> 
    <rt:dyn type="Color_Readings" mode="constant" value="true"/> 
    <rt:dyn type="ValueToTheRight" mode="constant" value="false"/> 
  </image>
  <image x="652.424" y="758.487" width="175" height="25" xlink:href="DS_ana.svg">
    <title>10QUA20CF002</title>
    <rt:dyn type="FKKS" mode="constant" value="&quot;10QUA20CF002&quot;"/> 
    <rt:dyn type="ShowFrame" mode="constant" value="true"/> 
    <rt:dyn type="X" mode="constant" value="&quot;F&quot;"/> 
    <rt:dyn type="Color_Readings" mode="constant" value="true"/> 
    <rt:dyn type="ValueToTheRight" mode="constant" value="false"/> 
  </image>
  <image x="1164.36" y="694.969" width="175" height="25" xlink:href="DS_ana.svg">
    <title>10QUA10CT001</title>
    <rt:dyn type="FKKS" mode="constant" value="&quot;10QUA10CT001&quot;"/> 
    <rt:dyn type="ShowFrame" mode="constant" value="true"/> 
    <rt:dyn type="X" mode="constant" value="&quot;T&quot;"/> 
    <rt:dyn type="Color_Readings" mode="constant" value="true"/> 
    <rt:dyn type="ValueToTheRight" mode="constant" value="false"/> 
  </image>
  <image x="1164.36" y="726.969" width="175" height="25" xlink:href="DS_ana.svg">
    <title>10QUA10CP001</title>
    <rt:dyn type="FKKS" mode="constant" value="&quot;10QUA10CP001&quot;"/> 
    <rt:dyn type="ShowFrame" mode="constant" value="true"/> 
    <rt:dyn type="X" mode="constant" value="&quot;P&quot;"/> 
    <rt:dyn type="Color_Readings" mode="constant" value="true"/> 
    <rt:dyn type="ValueToTheRight" mode="constant" value="false"/> 
  </image>
  <image x="1164.58" y="758.487" width="175" height="25" xlink:href="DS_ana.svg">
    <title>10QUA10CF001</title>
    <rt:dyn type="FKKS" mode="constant" value="&quot;10QUA10CF001&quot;"/> 
    <rt:dyn type="ShowFrame" mode="constant" value="true"/> 
    <rt:dyn type="X" mode="constant" value="&quot;F&quot;"/> 
    <rt:dyn type="Color_Readings" mode="constant" value="true"/> 
    <rt:dyn type="ValueToTheRight" mode="constant" value="false"/> 
  </image>
  <image x="1365.3" y="758.487" width="175" height="25" xlink:href="DS_ana.svg">
    <title>10QUA10CQ001</title>
    <rt:dyn type="FKKS" mode="constant" value="&quot;10QUA10CQ001&quot;"/> 
    <rt:dyn type="X" mode="constant" value="&quot;Q&quot;"/> 
    <rt:dyn type="ShowFrame" mode="constant" value="true"/> 
    <rt:dyn type="Color_Readings" mode="constant" value="true"/> 
    <rt:dyn type="ValueToTheRight" mode="constant" value="false"/> 
  </image>
  <g fill="gray" transform="rotate(270 652.076 159.591)">
    <rect x="598.864" y="-14.8189" width="100" height="106.061" rx="0" ry="0" fill="gray" stroke="black" stroke-width="3"/> 
    <line x1="648.864" y1="-14.1819" x2="648.864" y2="1.8181" stroke="black" stroke-width="3"/> 
    <line x1="648.864" y1="90.818" x2="648.864" y2="76.818" stroke="black" stroke-width="3"/> 
    <line x1="648.864" y1="1.3181" x2="673.614" y2="27.0681" stroke="black" stroke-width="3"/> 
    <line x1="624.864" y1="51.0681" x2="673.864" y2="26.8181" stroke="black" stroke-width="3"/> 
    <line x1="648.864" y1="77.068" x2="624.864" y2="50.8181" stroke="black" stroke-width="3"/> 
  </g>
  <text x="529.666" y="101.303" fill="black" font-size="15" text-anchor="middle">10LAD52,62AC001</text>
  <g fill="gray" transform="rotate(270 428.031 524.75) rotate(270 652.076 159.591)">
    <rect x="363.951" y="-152.068" width="100" height="106.061" rx="0" ry="0" fill="gray" stroke="black" stroke-width="3"/> 
    <line x1="413.951" y1="-151.431" x2="413.951" y2="-135.431" stroke="black" stroke-width="3"/> 
    <line x1="413.951" y1="-46.4313" x2="413.951" y2="-60.4313" stroke="black" stroke-width="3"/> 
    <line x1="413.951" y1="-135.931" x2="438.701" y2="-110.181" stroke="black" stroke-width="3"/> 
    <line x1="389.951" y1="-86.1813" x2="438.951" y2="-110.431" stroke="black" stroke-width="3"/> 
    <line x1="413.951" y1="-60.1813" x2="389.951" y2="-86.4313" stroke="black" stroke-width="3"/> 
  </g>
  <text x="174" y="543.939" fill="black" font-size="15" text-anchor="middle">10QUA20AC001</text>
  <text x="396" y="205.939" fill="black" font-size="15" text-anchor="middle">10LAB20AA002</text>
  <text x="670.151" y="206.091" fill="black" font-size="15" text-anchor="middle">10LAB20AA001</text>
  <g transform="rotate(90 1434.12 311.105) rotate(198.121 282.38 937.257) rotate(280.803 1619.81 407.256)">
    <path d="M1173.07 -2031.67 A8.80483 8.80483 0 1 1 1173.07 -2014.06 " fill="none" stroke="black" stroke-width="3" transform="rotate(270 807.304 426.678) rotate(270 980.127 441.195) flipY() translate(0 -828) translate(229.642 442.62)"/> 
    <path d="M-1290.3 2203.24 A8.80483 8.80483 0 1 1 -1290.3 2220.85 " fill="none" stroke="black" stroke-width="3" transform="rotate(180 1630.39 413.332) rotate(270 807.304 426.678) rotate(270 980.127 441.195) flipY() translate(0 -828) translate(229.642 442.62)"/> 
  </g>
  <line x1="459.109" y1="320.727" x2="989" y2="320" stroke="black" stroke-width="3"/> 
  <image x="889.109" y="278.227" width="70" height="65" xlink:href="DS_CO_valve.svg" transform="rotate(360 0 -10)">
    <title>10LAB10AA001</title>
    <rt:dyn type="KKS" mode="constant" value="&quot;10LAB10AA001&quot;"/> 
    <rt:dyn type="DATA_NARY" mode="constant" value="&quot;TPTS&quot;"/> 
    <rt:dyn type="Operate" mode="constant" value="true"/> 
  </image>
  <image x="599.109" y="277.727" width="70" height="65" xlink:href="DS_CO_valve.svg" transform="rotate(360 0 -10)">
    <title>10LAB10AA002</title>
    <rt:dyn type="KKS" mode="constant" value="&quot;10LAB10AA002&quot;"/> 
    <rt:dyn type="DATA_NARY" mode="constant" value="&quot;TPTS&quot;"/> 
    <rt:dyn type="Operate" mode="constant" value="true"/> 
  </image>
  <g transform="rotate(90 1434.12 311.105) rotate(198.121 282.38 937.257) rotate(280.803 1619.81 407.256)">
    <path d="M979.191 -2320.91 A8.80483 8.80483 0 1 1 979.191 -2303.3 " fill="none" stroke="black" stroke-width="3" transform="rotate(270 807.304 426.678) rotate(270 980.127 441.195) flipY() translate(0 -828) translate(229.642 442.62)"/> 
    <path d="M-1096.41 2492.48 A8.80483 8.80483 0 1 1 -1096.41 2510.09 " fill="none" stroke="black" stroke-width="3" transform="rotate(180 1630.39 413.332) rotate(270 807.304 426.678) rotate(270 980.127 441.195) flipY() translate(0 -828) translate(229.642 442.62)"/> 
  </g>
  <g fill="gray" transform="rotate(270 652.076 159.591)">
    <rect x="441.14" y="227.29" width="100" height="106.061" rx="0" ry="0" fill="gray" stroke="black" stroke-width="3"/> 
    <line x1="491.14" y1="227.927" x2="491.14" y2="243.927" stroke="black" stroke-width="3"/> 
    <line x1="491.14" y1="332.927" x2="491.14" y2="318.927" stroke="black" stroke-width="3"/> 
    <line x1="491.14" y1="243.427" x2="515.89" y2="269.177" stroke="black" stroke-width="3"/> 
    <line x1="467.14" y1="293.177" x2="516.14" y2="268.927" stroke="black" stroke-width="3"/> 
    <line x1="491.14" y1="319.177" x2="467.14" y2="292.927" stroke="black" stroke-width="3"/> 
  </g>
  <text x="769.776" y="257.03" fill="black" font-size="15" text-anchor="middle">10LAD51,61AC001</text>
  <text x="634.109" y="363.666" fill="black" font-size="15" text-anchor="middle">10LAB10AA002</text>
  <text x="923.26" y="363.818" fill="black" font-size="15" text-anchor="middle">10LAB10AA001</text>
  <g transform="rotate(90 1434.12 311.105) rotate(198.121 282.38 937.257) rotate(280.803 1619.81 407.256)">
    <path d="M1443.76 -2062.3 A8.80483 8.80483 0 1 1 1443.76 -2044.69 " fill="none" stroke="black" stroke-width="3" transform="rotate(270 807.304 426.678) rotate(270 980.127 441.195) flipY() translate(0 -828) translate(229.642 442.62)"/> 
    <path d="M-1560.99 2233.87 A8.80483 8.80483 0 1 1 -1560.99 2251.48 " fill="none" stroke="black" stroke-width="3" transform="rotate(180 1630.39 413.332) rotate(270 807.304 426.678) rotate(270 980.127 441.195) flipY() translate(0 -828) translate(229.642 442.62)"/> 
  </g>
  <line x1="546.005" y1="655.506" x2="545.5" y2="321" stroke="black" stroke-width="3"/> 
  <line x1="1094" y1="351" x2="1793" y2="351" stroke="black" stroke-width="3"/> 
  <image x="1060" y="126" width="70" height="70" xlink:href="DS_motor.svg" transform="rotate(90 0 0)">
    <title>10LAC10AP001</title>
    <rt:dyn type="KKS" mode="constant" value="&quot;10LAC10AP001&quot;"/> 
    <rt:dyn type="DATA_NARY" mode="constant" value="&quot;TPTS&quot;"/> 
    <rt:dyn type="Operate" mode="constant" value="true"/> 
  </image>
  <g transform="rotate(198.121 282.38 937.257) rotate(280.803 1619.81 407.256)">
    <path d="M1856.73 -1435.99 A8.80483 8.80483 0 1 1 1856.73 -1418.38 " fill="none" stroke="black" stroke-width="3" transform="rotate(270 807.304 426.678) rotate(270 980.127 441.195) flipY() translate(0 -828) translate(229.642 442.62)"/> 
    <path d="M-1973.94 1607.55 A8.80483 8.80483 0 1 1 -1973.94 1625.16 " fill="none" stroke="black" stroke-width="3" transform="rotate(180 1630.39 413.332) rotate(270 807.304 426.678) rotate(270 980.127 441.195) flipY() translate(0 -828) translate(229.642 442.62)"/> 
  </g>
  <image x="1050" y="235" width="70" height="65" xlink:href="DS_CO_valve.svg" transform="rotate(270 0 -10)">
    <title>10LAB01AA003</title>
    <rt:dyn type="KKS" mode="constant" value="&quot;10LAB01AA003&quot;"/> 
    <rt:dyn type="DATA_NARY" mode="constant" value="&quot;TPTS&quot;"/> 
    <rt:dyn type="Operate" mode="constant" value="true"/> 
  </image>
  <line x1="1267.15" y1="353.152" x2="1266.15" y2="93.1515" stroke="black" stroke-width="3"/> 
  <image x="1232.15" y="127.152" width="70" height="70" xlink:href="DS_motor.svg" transform="rotate(90 0 0)">
    <title>10LAC20AP001</title>
    <rt:dyn type="KKS" mode="constant" value="&quot;10LAC20AP001&quot;"/> 
    <rt:dyn type="DATA_NARY" mode="constant" value="&quot;TPTS&quot;"/> 
    <rt:dyn type="Operate" mode="constant" value="true"/> 
  </image>
  <g transform="rotate(198.121 282.38 937.257) rotate(280.803 1619.81 407.256)">
    <path d="M1938.98 -1587.22 A8.80483 8.80483 0 1 1 1938.98 -1569.61 " fill="none" stroke="black" stroke-width="3" transform="rotate(270 807.304 426.678) rotate(270 980.127 441.195) flipY() translate(0 -828) translate(229.642 442.62)"/> 
    <path d="M-2056.19 1758.78 A8.80483 8.80483 0 1 1 -2056.19 1776.39 " fill="none" stroke="black" stroke-width="3" transform="rotate(180 1630.39 413.332) rotate(270 807.304 426.678) rotate(270 980.127 441.195) flipY() translate(0 -828) translate(229.642 442.62)"/> 
  </g>
  <image x="1222.15" y="236.152" width="70" height="65" xlink:href="DS_CO_valve.svg" transform="rotate(270 0 -10)">
    <title>10LAB02AA003</title>
    <rt:dyn type="KKS" mode="constant" value="&quot;10LAB02AA003&quot;"/> 
    <rt:dyn type="DATA_NARY" mode="constant" value="&quot;TPTS&quot;"/> 
    <rt:dyn type="Operate" mode="constant" value="true"/> 
  </image>
  <line x1="1443" y1="655" x2="1442.3" y2="93.303" stroke="black" stroke-width="3"/> 
  <image x="1408.3" y="127.304" width="70" height="70" xlink:href="DS_motor.svg" transform="rotate(90 0 0)">
    <title>10LAC30AP001</title>
    <rt:dyn type="KKS" mode="constant" value="&quot;10LAC30AP001&quot;"/> 
    <rt:dyn type="DATA_NARY" mode="constant" value="&quot;TPTS&quot;"/> 
    <rt:dyn type="Operate" mode="constant" value="true"/> 
  </image>
  <g transform="rotate(198.121 282.38 937.257) rotate(280.803 1619.81 407.256)">
    <path d="M2024.04 -1741.47 A8.80483 8.80483 0 1 1 2024.04 -1723.86 " fill="none" stroke="black" stroke-width="3" transform="rotate(270 807.304 426.678) rotate(270 980.127 441.195) flipY() translate(0 -828) translate(229.642 442.62)"/> 
    <path d="M-2141.25 1913.03 A8.80483 8.80483 0 1 1 -2141.25 1930.64 " fill="none" stroke="black" stroke-width="3" transform="rotate(180 1630.39 413.332) rotate(270 807.304 426.678) rotate(270 980.127 441.195) flipY() translate(0 -828) translate(229.642 442.62)"/> 
  </g>
  <image x="1398.3" y="236.304" width="70" height="65" xlink:href="DS_CO_valve.svg" transform="rotate(270 0 -10)">
    <title>10LAB03AA003</title>
    <rt:dyn type="KKS" mode="constant" value="&quot;10LAB03AA003&quot;"/> 
    <rt:dyn type="DATA_NARY" mode="constant" value="&quot;TPTS&quot;"/> 
    <rt:dyn type="Operate" mode="constant" value="true"/> 
  </image>
  <line x1="1617.45" y1="353.456" x2="1616.45" y2="93.4545" stroke="black" stroke-width="3"/> 
  <image x="1582.45" y="127.456" width="70" height="70" xlink:href="DS_motor.svg" transform="rotate(90 0 0)">
    <title>10LAC40AP001</title>
    <rt:dyn type="KKS" mode="constant" value="&quot;10LAC40AP001&quot;"/> 
    <rt:dyn type="DATA_NARY" mode="constant" value="&quot;TPTS&quot;"/> 
    <rt:dyn type="Operate" mode="constant" value="true"/> 
  </image>
  <g transform="rotate(198.121 282.38 937.257) rotate(280.803 1619.81 407.256)">
    <path d="M2108.13 -1893.97 A8.80483 8.80483 0 1 1 2108.13 -1876.36 " fill="none" stroke="black" stroke-width="3" transform="rotate(270 807.304 426.678) rotate(270 980.127 441.195) flipY() translate(0 -828) translate(229.642 442.62)"/> 
    <path d="M-2225.34 2065.53 A8.80483 8.80483 0 1 1 -2225.34 2083.14 " fill="none" stroke="black" stroke-width="3" transform="rotate(180 1630.39 413.332) rotate(270 807.304 426.678) rotate(270 980.127 441.195) flipY() translate(0 -828) translate(229.642 442.62)"/> 
  </g>
  <image x="1572.45" y="236.456" width="70" height="65" xlink:href="DS_CO_valve.svg" transform="rotate(270 0 -10)">
    <title>10LAB04AA003</title>
    <rt:dyn type="KKS" mode="constant" value="&quot;10LAB04AA003&quot;"/> 
    <rt:dyn type="DATA_NARY" mode="constant" value="&quot;TPTS&quot;"/> 
    <rt:dyn type="Operate" mode="constant" value="true"/> 
  </image>
  <line x1="1793.6" y1="352.608" x2="1792.6" y2="92.606" stroke="black" stroke-width="3"/> 
  <image x="1758.6" y="126.608" width="70" height="70" xlink:href="DS_motor.svg" transform="rotate(90 0 0)">
    <title>10LAC50AP001</title>
    <rt:dyn type="KKS" mode="constant" value="&quot;10LAC50AP001&quot;"/> 
    <rt:dyn type="DATA_NARY" mode="constant" value="&quot;TPTS&quot;"/> 
    <rt:dyn type="Operate" mode="constant" value="true"/> 
  </image>
  <g transform="rotate(198.121 282.38 937.257) rotate(280.803 1619.81 407.256)">
    <path d="M2194.07 -2047.74 A8.80483 8.80483 0 1 1 2194.07 -2030.13 " fill="none" stroke="black" stroke-width="3" transform="rotate(270 807.304 426.678) rotate(270 980.127 441.195) flipY() translate(0 -828) translate(229.642 442.62)"/> 
    <path d="M-2311.28 2219.3 A8.80483 8.80483 0 1 1 -2311.28 2236.91 " fill="none" stroke="black" stroke-width="3" transform="rotate(180 1630.39 413.332) rotate(270 807.304 426.678) rotate(270 980.127 441.195) flipY() translate(0 -828) translate(229.642 442.62)"/> 
  </g>
  <image x="1748.6" y="235.608" width="70" height="65" xlink:href="DS_CO_valve.svg" transform="rotate(270 0 -10)">
    <title>10LAB05AA003</title>
    <rt:dyn type="KKS" mode="constant" value="&quot;10LAB05AA003&quot;"/> 
    <rt:dyn type="DATA_NARY" mode="constant" value="&quot;TPTS&quot;"/> 
    <rt:dyn type="Operate" mode="constant" value="true"/> 
  </image>
  <g fill="gray" transform="rotate(270 428.031 524.75) rotate(270 652.076 159.591)">
    <rect x="119.164" y="-153.325" width="100" height="106.061" rx="0" ry="0" fill="gray" stroke="black" stroke-width="3"/> 
    <line x1="169.164" y1="-152.688" x2="169.164" y2="-136.688" stroke="black" stroke-width="3"/> 
    <line x1="169.164" y1="-47.6884" x2="169.164" y2="-61.6884" stroke="black" stroke-width="3"/> 
    <line x1="169.164" y1="-137.188" x2="193.914" y2="-111.438" stroke="black" stroke-width="3"/> 
    <line x1="145.164" y1="-87.4384" x2="194.164" y2="-111.688" stroke="black" stroke-width="3"/> 
    <line x1="169.164" y1="-61.4384" x2="145.164" y2="-87.6884" stroke="black" stroke-width="3"/> 
  </g>
  <text x="670.818" y="543.939" fill="black" font-size="15" text-anchor="middle">10QUA20AC002</text>
  <text x="1156.06" y="230.303" fill="black" font-size="15" text-anchor="middle">10LAB01</text>
  <text x="1158.3" y="245.727" fill="black" font-size="15" text-anchor="middle">AA003</text>
  <text x="1331.06" y="230.303" fill="black" font-size="15" text-anchor="middle">10LAB02</text>
  <text x="1333.3" y="245.727" fill="black" font-size="15" text-anchor="middle">AA003</text>
  <text x="1508.33" y="230.303" fill="black" font-size="15" text-anchor="middle">10LAB03</text>
  <text x="1510.57" y="245.727" fill="black" font-size="15" text-anchor="middle">AA003</text>
  <text x="1685.61" y="228.788" fill="black" font-size="15" text-anchor="middle">10LAB04</text>
  <text x="1687.85" y="245.212" fill="black" font-size="15" text-anchor="middle">AA003</text>
  <text x="1861.36" y="228.788" fill="black" font-size="15" text-anchor="middle">10LAB05</text>
  <text x="1863.6" y="245.212" fill="black" font-size="15" text-anchor="middle">AA003</text>
  <text x="1158.33" y="140.909" fill="black" font-size="15" text-anchor="middle">10LAC10</text>
  <text x="1160.57" y="156.333" fill="black" font-size="15" text-anchor="middle">AP001</text>
  <text x="1334.85" y="140.909" fill="black" font-size="15" text-anchor="middle">10LAC20</text>
  <text x="1337.09" y="156.333" fill="black" font-size="15" text-anchor="middle">AP001</text>
  <text x="1512.12" y="140.909" fill="black" font-size="15" text-anchor="middle">10LAC30</text>
  <text x="1514.36" y="156.333" fill="black" font-size="15" text-anchor="middle">AP001</text>
  <text x="1684.85" y="139.394" fill="black" font-size="15" text-anchor="middle">10LAC40</text>
  <text x="1687.09" y="154.818" fill="black" font-size="15" text-anchor="middle">AP001</text>
  <text x="1862.12" y="140.909" fill="black" font-size="15" text-anchor="middle">10LAC50</text>
  <text x="1864.36" y="156.333" fill="black" font-size="15" text-anchor="middle">AP001</text>
  <g fill="gray" transform="rotate(270 428.031 524.75) rotate(270 652.076 159.591)">
    <rect x="-777.745" y="-152.81" width="100" height="106.061" rx="0" ry="0" fill="gray" stroke="black" stroke-width="3"/> 
    <line x1="-727.745" y1="-152.173" x2="-727.745" y2="-136.173" stroke="black" stroke-width="3"/> 
    <line x1="-727.745" y1="-47.1734" x2="-727.745" y2="-61.1734" stroke="black" stroke-width="3"/> 
    <line x1="-727.745" y1="-136.673" x2="-702.995" y2="-110.923" stroke="black" stroke-width="3"/> 
    <line x1="-751.745" y1="-86.9234" x2="-702.745" y2="-111.173" stroke="black" stroke-width="3"/> 
    <line x1="-727.745" y1="-60.9234" x2="-751.745" y2="-87.1734" stroke="black" stroke-width="3"/> 
  </g>
  <text x="1316.7" y="543.939" fill="black" font-size="15" text-anchor="middle">10QUA10AC001</text>
  <text x="410.909" y="312.303" fill="black" font-size="15" text-anchor="middle">ПВ<tspan x="410.909" dy="15">после</tspan>
<tspan x="410.909" dy="15">ПВД</tspan>
  </text>
  <text x="188.818" y="154.545" fill="black" font-size="15" text-anchor="middle">ПВ<tspan x="188.818" dy="15">после</tspan>
<tspan x="188.818" dy="15">ПВД</tspan>
  </text>
  <text x="1441.06" y="70.6667" fill="black" font-size="15" text-anchor="middle">ПВ после деаэратора</text>
</svg>
