<?xml  version="1.0" encoding="UTF-8"?>
<svg color="Col_BGSand" xmlns="http://www.w3.org/2000/svg" xmlns:rt="http://www.rts.co.at/2001/XMLSchema/RtSvgPL" xmlns:xlink="http://www.w3.org/1999/xlink" xmlns:xsi="http://www.w3.org/2001/XMLSchema-instance" xsi:schemaLocation="http://www.w3.org/2000/svg C:\RTS\RtSvg\XML\SVG.xsd" viewBox="0 0 1920 1080" width="1920" height="1080" id="sist_cond">
  <rt:model modelversion="7.2.0.24" comment="Ñîçäàíî VNIIAES-ASUTP\seregin 18.06.2015 16:09:49"/> 
  <rect x="348.864" y="66.2576" width="41.9241" height="276.773" rx="0" ry="0" fill="url(#PortalHatch1)" stroke="black"/> 
  <text x="461.592" y="129.773" font-size="15">00QKS45<tspan x="461.592" dy="15">AN201</tspan>
  </text>
  <text x="25" y="25" font-size="15">01UYC 00CXV56GH001 ÑÈÑÒÅÌÛ ÊÎÍÄÈÖÈÎÍÈÐÎÂÀÍÈß</text>
  <line x1="489.529" y1="179.546" x2="415.423" y2="179.546" stroke="black" stroke-width="3"/> 
  <polygon points="133.827,21.254 143.827,38.254 123.831,38.254" transform="rotate(90 271.331 333.5)"/> 
  <image x="24.394" y="149.091" width="175" height="25" xlink:href="DS_ana_tenzor.svg">
    <title>00SAH45CT003</title>
    <rt:dyn type="FKKS" mode="constant" value="&quot;00SAH45CT003&quot;"/> 
    <rt:dyn type="X" mode="constant" value="&quot;T&quot;"/> 
    <rt:dyn type="ShowFrame" mode="constant" value="true"/> 
    <rt:dyn type="ValueToTheRight" mode="constant" value="false"/> 
    <rt:dyn type="Color_Readings" mode="constant" value="true"/> 
  </image>
  <image x="576" y="232" width="175" height="25" xlink:href="DS_ana_tenzor.svg">
    <title>00SAH45CT002</title>
    <rt:dyn type="FKKS" mode="constant" value="&quot;00SAH45CT002&quot;"/> 
    <rt:dyn type="X" mode="constant" value="&quot;T&quot;"/> 
    <rt:dyn type="ShowFrame" mode="constant" value="true"/> 
    <rt:dyn type="ValueToTheRight" mode="constant" value="false"/> 
    <rt:dyn type="Color_Readings" mode="constant" value="true"/> 
  </image>
  <line x1="918.5" y1="46" x2="918.5" y2="971" stroke="black" stroke-dasharray="15,10" stroke-width="1"/> 
  <polygon points="117.375,172.408 127.375,189.408 107.379,189.408" transform="rotate(90 271.331 333.5)"/> 
  <rect x="348.863" y="354.136" width="41.9241" height="276.773" rx="0" ry="0" fill="url(#PortalHatch1)" stroke="black"/> 
  <image x="24.394" y="488.485" width="175" height="25" xlink:href="DS_ana_tenzor.svg">
    <title>00SAH47CT003</title>
    <rt:dyn type="FKKS" mode="constant" value="&quot;00SAH47CT003&quot;"/> 
    <rt:dyn type="X" mode="constant" value="&quot;T&quot;"/> 
    <rt:dyn type="ShowFrame" mode="constant" value="true"/> 
    <rt:dyn type="ValueToTheRight" mode="constant" value="false"/> 
    <rt:dyn type="Color_Readings" mode="constant" value="true"/> 
  </image>
  <image x="576.667" y="488.485" width="175" height="25" xlink:href="DS_ana_tenzor.svg">
    <title>00SAH47CT002</title>
    <rt:dyn type="FKKS" mode="constant" value="&quot;00SAH47CT002&quot;"/> 
    <rt:dyn type="X" mode="constant" value="&quot;T&quot;"/> 
    <rt:dyn type="ShowFrame" mode="constant" value="true"/> 
    <rt:dyn type="ValueToTheRight" mode="constant" value="false"/> 
    <rt:dyn type="Color_Readings" mode="constant" value="true"/> 
  </image>
  <rect x="348.864" y="642.015" width="41.9241" height="276.773" rx="0" ry="0" fill="url(#PortalHatch1)" stroke="black"/> 
  <image x="22.8789" y="773.333" width="175" height="25" xlink:href="DS_ana_tenzor.svg">
    <title>00SAH48CT003</title>
    <rt:dyn type="FKKS" mode="constant" value="&quot;00SAH48CT003&quot;"/> 
    <rt:dyn type="X" mode="constant" value="&quot;T&quot;"/> 
    <rt:dyn type="ShowFrame" mode="constant" value="true"/> 
    <rt:dyn type="ValueToTheRight" mode="constant" value="false"/> 
    <rt:dyn type="Color_Readings" mode="constant" value="true"/> 
  </image>
  <image x="576.667" y="771.819" width="175" height="25" xlink:href="DS_ana_tenzor.svg">
    <title>00SAH48CT002</title>
    <rt:dyn type="FKKS" mode="constant" value="&quot;00SAH48CT002&quot;"/> 
    <rt:dyn type="X" mode="constant" value="&quot;T&quot;"/> 
    <rt:dyn type="ShowFrame" mode="constant" value="true"/> 
    <rt:dyn type="ValueToTheRight" mode="constant" value="false"/> 
    <rt:dyn type="Color_Readings" mode="constant" value="true"/> 
  </image>
  <rect x="1315.53" y="61.7123" width="41.9241" height="276.773" rx="0" ry="0" fill="url(#PortalHatch1)" stroke="black"/> 
  <image x="937.515" y="200.091" width="175" height="25" xlink:href="DS_ana_tenzor.svg">
    <title>00SAH49CT003</title>
    <rt:dyn type="FKKS" mode="constant" value="&quot;00SAH49CT003&quot;"/> 
    <rt:dyn type="X" mode="constant" value="&quot;T&quot;"/> 
    <rt:dyn type="ShowFrame" mode="constant" value="true"/> 
    <rt:dyn type="ValueToTheRight" mode="constant" value="false"/> 
    <rt:dyn type="Color_Readings" mode="constant" value="true"/> 
  </image>
  <image x="1535" y="199.091" width="175" height="25" xlink:href="DS_ana_tenzor.svg">
    <title>00SAH49CT002</title>
    <rt:dyn type="FKKS" mode="constant" value="&quot;00SAH49CT002&quot;"/> 
    <rt:dyn type="X" mode="constant" value="&quot;T&quot;"/> 
    <rt:dyn type="ShowFrame" mode="constant" value="true"/> 
    <rt:dyn type="ValueToTheRight" mode="constant" value="false"/> 
    <rt:dyn type="Color_Readings" mode="constant" value="true"/> 
  </image>
  <rect x="1315.53" y="354.137" width="41.9241" height="276.773" rx="0" ry="0" fill="url(#PortalHatch1)" stroke="black"/> 
  <image x="936.515" y="488.485" width="175" height="25" xlink:href="DS_ana_tenzor.svg">
    <title>00SAH50CT003</title>
    <rt:dyn type="FKKS" mode="constant" value="&quot;00SAH50CT003&quot;"/> 
    <rt:dyn type="X" mode="constant" value="&quot;T&quot;"/> 
    <rt:dyn type="ShowFrame" mode="constant" value="true"/> 
    <rt:dyn type="ValueToTheRight" mode="constant" value="false"/> 
    <rt:dyn type="Color_Readings" mode="constant" value="true"/> 
  </image>
  <image x="1544.85" y="496.486" width="175" height="25" xlink:href="DS_ana_tenzor.svg">
    <title>00SAH50CT002</title>
    <rt:dyn type="FKKS" mode="constant" value="&quot;00SAH50CT002&quot;"/> 
    <rt:dyn type="X" mode="constant" value="&quot;T&quot;"/> 
    <rt:dyn type="ShowFrame" mode="constant" value="true"/> 
    <rt:dyn type="ValueToTheRight" mode="constant" value="false"/> 
    <rt:dyn type="Color_Readings" mode="constant" value="true"/> 
  </image>
  <text x="462" y="237.5" font-size="15">00QKS45<tspan x="462" dy="15">AN202</tspan>
  </text>
  <text x="461.592" y="475.227" font-size="15">00QKS47<tspan x="461.592" dy="15">AN201</tspan>
  </text>
  <text x="463.169" y="746.5" font-size="15">00QKS48<tspan x="463.169" dy="15">AN201</tspan>
  </text>
  <text x="223.939" y="746.439" font-size="15">00QKS48<tspan x="223.939" dy="15">AN001</tspan>
  </text>
  <text x="223.939" y="461.591" font-size="15">00QKS47<tspan x="223.939" dy="15">AN001</tspan>
  </text>
  <text x="223.939" y="122.197" font-size="15">00QKS45<tspan x="223.939" dy="15">AN001</tspan>
  </text>
  <text x="223.94" y="239.5" font-size="15">00QKS45<tspan x="223.94" dy="15">AN002</tspan>
  </text>
  <text x="1187.27" y="166.136" font-size="15">00QKS49<tspan x="1187.27" dy="15">AN001</tspan>
  </text>
  <text x="1187.27" y="474.136" font-size="15">00QKS50<tspan x="1187.27" dy="15">AN001</tspan>
  </text>
  <text x="1414.55" y="169.167" font-size="15">00QKS49<tspan x="1414.55" dy="15">AN201</tspan>
  </text>
  <text x="1414.55" y="474.136" font-size="15">00QKS50<tspan x="1414.55" dy="15">AN201</tspan>
  </text>
  <rect x="570.849" y="53.1213" width="285.364" height="85.3637" rx="0" ry="0" fill="Col_BGSand" stroke="black" stroke-width="2"/> 
  <text x="590.219" y="77.2123" fill="black" font-size="15">Ðåæèì ðàáîòû 00QKS45AN001</text>
  <image x="585.799" y="100.606" width="181.818" height="24.2424" xlink:href="bitwise_tablo_4bits.svg">
    <title>00QKS451_XK92</title>
    <rt:dyn type="PointID_1" mode="constant" value="&quot;00QKS451_XK92&quot;"/> 
    <rt:dyn type="Text_0000" mode="constant" value="&quot;ÀÂÒÎÌÀÒÈ×ÅÑÊÈÉ&quot;"/> 
    <rt:dyn type="Color_0001" mode="constant" value="&quot;Col_Green&quot;"/> 
    <rt:dyn type="Text_0001" mode="constant" value="&quot;ÄÈÑÒÀÍÖÈÎÍÍÛÉ&quot;"/> 
    <rt:dyn type="Color_0000" mode="constant" value="&quot;Col_Green&quot;"/> 
  </image>
  <image x="784.529" y="95.0303" width="60" height="30" xlink:href="ps_tenzor_system.svg">
    <title>00QKS451</title>
    <rt:dyn type="KKS" mode="constant" value="&quot;00QKS451&quot;"/> 
  </image>
  <rect x="569.333" y="565.242" width="285.364" height="85.3637" rx="0" ry="0" fill="Col_BGSand" stroke="black" stroke-width="2"/> 
  <text x="588.703" y="589.333" fill="black" font-size="15">Ðåæèì ðàáîòû 00QKS47</text>
  <image x="584.283" y="612.727" width="181.818" height="24.2424" xlink:href="bitwise_tablo_4bits.svg">
    <title>00QKS47_XK92</title>
    <rt:dyn type="PointID_1" mode="constant" value="&quot;00QKS47_XK92&quot;"/> 
    <rt:dyn type="Text_0000" mode="constant" value="&quot;ÀÂÒÎÌÀÒÈ×ÅÑÊÈÉ&quot;"/> 
    <rt:dyn type="Color_0001" mode="constant" value="&quot;Col_Green&quot;"/> 
    <rt:dyn type="Text_0001" mode="constant" value="&quot;ÄÈÑÒÀÍÖÈÎÍÍÛÉ&quot;"/> 
    <rt:dyn type="Color_0000" mode="constant" value="&quot;Col_Green&quot;"/> 
  </image>
  <image x="783.013" y="607.151" width="60" height="30" xlink:href="ps_tenzor_system.svg">
    <title>00SAH47</title>
    <rt:dyn type="KKS" mode="constant" value="&quot;00SAH47&quot;"/> 
  </image>
  <rect x="570.849" y="847.061" width="285.364" height="85.3637" rx="0" ry="0" fill="Col_BGSand" stroke="black" stroke-width="2"/> 
  <text x="590.219" y="871.152" fill="black" font-size="15">Ðåæèì ðàáîòû 00QKS48</text>
  <image x="585.8" y="894.546" width="181.818" height="24.2424" xlink:href="bitwise_tablo_4bits.svg">
    <title>00QKS48_XK92</title>
    <rt:dyn type="PointID_1" mode="constant" value="&quot;00QKS48_XK92&quot;"/> 
    <rt:dyn type="Text_0000" mode="constant" value="&quot;ÀÂÒÎÌÀÒÈ×ÅÑÊÈÉ&quot;"/> 
    <rt:dyn type="Color_0001" mode="constant" value="&quot;Col_Green&quot;"/> 
    <rt:dyn type="Text_0001" mode="constant" value="&quot;ÄÈÑÒÀÍÖÈÎÍÍÛÉ&quot;"/> 
    <rt:dyn type="Color_0000" mode="constant" value="&quot;Col_Green&quot;"/> 
  </image>
  <image x="784.529" y="888.97" width="60" height="30" xlink:href="ps_tenzor_system.svg">
    <title>00QKS48</title>
    <rt:dyn type="KKS" mode="constant" value="&quot;00QKS48&quot;"/> 
  </image>
  <rect x="1547.36" y="256.152" width="285.364" height="85.3637" rx="0" ry="0" fill="Col_BGSand" stroke="black" stroke-width="2"/> 
  <text x="1566.73" y="280.243" fill="black" font-size="15">Ðåæèì ðàáîòû 00QKS49</text>
  <image x="1562.31" y="303.637" width="181.818" height="24.2424" xlink:href="bitwise_tablo_4bits.svg">
    <title>00QKS49_XK92</title>
    <rt:dyn type="PointID_1" mode="constant" value="&quot;00QKS49_XK92&quot;"/> 
    <rt:dyn type="Text_0000" mode="constant" value="&quot;ÀÂÒÎÌÀÒÈ×ÅÑÊÈÉ&quot;"/> 
    <rt:dyn type="Color_0001" mode="constant" value="&quot;Col_Green&quot;"/> 
    <rt:dyn type="Text_0001" mode="constant" value="&quot;ÄÈÑÒÀÍÖÈÎÍÍÛÉ&quot;"/> 
    <rt:dyn type="Color_0000" mode="constant" value="&quot;Col_Green&quot;"/> 
  </image>
  <image x="1761.04" y="298.061" width="60" height="30" xlink:href="ps_tenzor_system.svg">
    <title>00QKS49</title>
    <rt:dyn type="KKS" mode="constant" value="&quot;00QKS49&quot;"/> 
  </image>
  <rect x="1546.61" y="558.091" width="285.364" height="85.3637" rx="0" ry="0" fill="Col_BGSand" stroke="black" stroke-width="2"/> 
  <text x="1565.98" y="582.182" fill="black" font-size="15">Ðåæèì ðàáîòû 00QKS50</text>
  <image x="1561.56" y="605.576" width="181.818" height="24.2424" xlink:href="bitwise_tablo_4bits.svg">
    <title>00QKS50_XK92</title>
    <rt:dyn type="PointID_1" mode="constant" value="&quot;00QKS50_XK92&quot;"/> 
    <rt:dyn type="Text_0000" mode="constant" value="&quot;ÀÂÒÎÌÀÒÈ×ÅÑÊÈÉ&quot;"/> 
    <rt:dyn type="Color_0001" mode="constant" value="&quot;Col_Green&quot;"/> 
    <rt:dyn type="Text_0001" mode="constant" value="&quot;ÄÈÑÒÀÍÖÈÎÍÍÛÉ&quot;"/> 
    <rt:dyn type="Color_0000" mode="constant" value="&quot;Col_Green&quot;"/> 
  </image>
  <image x="1760.29" y="600" width="60" height="30" xlink:href="ps_tenzor_system.svg">
    <title>00QKS50</title>
    <rt:dyn type="KKS" mode="constant" value="&quot;00QKS50&quot;"/> 
  </image>
  <line x1="568.106" y1="195.998" x2="494" y2="195.998" stroke="black" stroke-width="3"/> 
  <image x="465.228" y="144.546" width="70" height="70" xlink:href="DS_motor_tenzor.svg" transform="flipX(9.30236e-006) rotate(180 0 0)">
    <title>00QKS45AN201</title>
    <rt:dyn type="KKS" mode="constant" value="&quot;00QKS45AN201&quot;"/> 
    <rt:dyn type="DATA_NARY" mode="constant" value="&quot;TYPE2&quot;"/> 
    <rt:dyn type="Operate" mode="constant" value="true"/> 
    <rt:dyn type="DeviceType" mode="constant" value="&quot;fan&quot;"/> 
  </image>
  <line x1="489.529" y1="286.998" x2="415.423" y2="286.998" stroke="black" stroke-width="3"/> 
  <polygon points="240.857,19.4977 250.857,36.4977 230.861,36.4977" transform="rotate(90 271.331 333.5)"/> 
  <polygon points="224.827,172.408 234.827,189.408 214.831,189.408" transform="rotate(90 271.331 333.5)"/> 
  <line x1="583.577" y1="303.028" x2="509.471" y2="303.028" stroke="black" stroke-width="3"/> 
  <image x="465.228" y="252.121" width="70" height="70" xlink:href="DS_motor_tenzor.svg" transform="flipX(9.30236e-006) rotate(180 0 0)">
    <title>00QKS45AN202</title>
    <rt:dyn type="KKS" mode="constant" value="&quot;00QKS45AN202&quot;"/> 
    <rt:dyn type="DATA_NARY" mode="constant" value="&quot;TYPE2&quot;"/> 
    <rt:dyn type="Operate" mode="constant" value="true"/> 
    <rt:dyn type="DeviceType" mode="constant" value="&quot;fan&quot;"/> 
  </image>
  <line x1="489.529" y1="524.998" x2="415.423" y2="524.998" stroke="black" stroke-width="3"/> 
  <polygon points="479.251,19.4977 489.251,36.4977 469.255,36.4977" transform="rotate(90 271.331 333.5)"/> 
  <polygon points="462.827,172.408 472.827,189.408 452.831,189.408" transform="rotate(90 271.331 333.5)"/> 
  <line x1="583.577" y1="541.422" x2="509.471" y2="541.422" stroke="black" stroke-width="3"/> 
  <image x="465.228" y="489.485" width="70" height="70" xlink:href="DS_motor_tenzor.svg" transform="flipX(9.30236e-006) rotate(180 0 0)">
    <title>00QKS47AN201</title>
    <rt:dyn type="KKS" mode="constant" value="&quot;00QKS47AN201&quot;"/> 
    <rt:dyn type="DATA_NARY" mode="constant" value="&quot;TYPE2&quot;"/> 
    <rt:dyn type="Operate" mode="constant" value="true"/> 
    <rt:dyn type="DeviceType" mode="constant" value="&quot;fan&quot;"/> 
  </image>
  <rect x="570" y="320" width="285.364" height="85.3637" rx="0" ry="0" fill="Col_BGSand" stroke="black" stroke-width="2"/> 
  <text x="589.37" y="344.091" fill="black" font-size="15">Ðåæèì ðàáîòû 00QKS45AN002</text>
  <image x="584.95" y="367.485" width="181.818" height="24.2424" xlink:href="bitwise_tablo_4bits.svg">
    <title>00QKS452_XK92</title>
    <rt:dyn type="PointID_1" mode="constant" value="&quot;00QKS452_XK92&quot;"/> 
    <rt:dyn type="Text_0000" mode="constant" value="&quot;ÀÂÒÎÌÀÒÈ×ÅÑÊÈÉ&quot;"/> 
    <rt:dyn type="Color_0001" mode="constant" value="&quot;Col_Green&quot;"/> 
    <rt:dyn type="Text_0001" mode="constant" value="&quot;ÄÈÑÒÀÍÖÈÎÍÍÛÉ&quot;"/> 
    <rt:dyn type="Color_0000" mode="constant" value="&quot;Col_Green&quot;"/> 
  </image>
  <image x="783.68" y="361.909" width="60" height="30" xlink:href="ps_tenzor_system.svg">
    <title>00QKS452</title>
    <rt:dyn type="KKS" mode="constant" value="&quot;00QKS452&quot;"/> 
  </image>
  <line x1="491.106" y1="797.422" x2="417" y2="797.422" stroke="black" stroke-width="3"/> 
  <polygon points="750.009,17.9206 760.009,34.9206 740.013,34.9206" transform="rotate(90 271.331 333.5)"/> 
  <polygon points="735.251,170.831 745.251,187.831 725.255,187.831" transform="rotate(90 271.331 333.5)"/> 
  <line x1="585.154" y1="812.18" x2="511.048" y2="812.18" stroke="black" stroke-width="3"/> 
  <image x="466.805" y="761.242" width="70" height="70" xlink:href="DS_motor_tenzor.svg" transform="flipX(9.30236e-006) rotate(180 0 0)">
    <title>00QKS48AN201</title>
    <rt:dyn type="KKS" mode="constant" value="&quot;00QKS48AN201&quot;"/> 
    <rt:dyn type="DATA_NARY" mode="constant" value="&quot;TYPE2&quot;"/> 
    <rt:dyn type="Operate" mode="constant" value="true"/> 
    <rt:dyn type="DeviceType" mode="constant" value="&quot;fan&quot;"/> 
  </image>
  <line x1="240.924" y1="188.47" x2="166.818" y2="188.47" stroke="black" stroke-width="3"/> 
  <line x1="334.864" y1="172.21" x2="260.758" y2="172.21" stroke="black" stroke-width="3"/> 
  <image x="227.576" y="136.97" width="70" height="70" xlink:href="DS_motor_tenzor.svg" transform="rotate(180 0 0)">
    <title>00QKS45AN001</title>
    <rt:dyn type="KKS" mode="constant" value="&quot;00QKS45AN001&quot;"/> 
    <rt:dyn type="DATA_NARY" mode="constant" value="&quot;TYPE2&quot;"/> 
    <rt:dyn type="Operate" mode="constant" value="true"/> 
    <rt:dyn type="DeviceType" mode="constant" value="&quot;fan&quot;"/> 
  </image>
  <polygon points="125.706,-89.0787 135.706,-72.0787 115.71,-72.0787" transform="flipX(429.864) rotate(90 271.331 333.5)"/> 
  <polygon points="110.039,68.3754 120.039,85.3755 100.043,85.3755" transform="flipX(429.864) rotate(90 271.331 333.5)"/> 
  <line x1="242.924" y1="305.621" x2="168.818" y2="305.621" stroke="black" stroke-width="3"/> 
  <line x1="339.409" y1="290.362" x2="265.303" y2="290.362" stroke="black" stroke-width="3"/> 
  <polygon points="242.857,-89.0787 252.857,-72.0787 232.861,-72.0787" transform="flipX(429.864) rotate(90 271.331 333.5)"/> 
  <polygon points="228.19,68.3755 238.19,85.3755 218.195,85.3755" transform="flipX(429.864) rotate(90 271.331 333.5)"/> 
  <image x="227.576" y="255.151" width="70" height="70" xlink:href="DS_motor_tenzor.svg" transform="rotate(180 0 0)">
    <title>00QKS45AN002</title>
    <rt:dyn type="KKS" mode="constant" value="&quot;00QKS45AN002&quot;"/> 
    <rt:dyn type="DATA_NARY" mode="constant" value="&quot;TYPE2&quot;"/> 
    <rt:dyn type="Operate" mode="constant" value="true"/> 
    <rt:dyn type="DeviceType" mode="constant" value="&quot;fan&quot;"/> 
  </image>
  <line x1="243.924" y1="528.863" x2="169.818" y2="528.863" stroke="black" stroke-width="3"/> 
  <line x1="339.803" y1="513.604" x2="265.697" y2="513.604" stroke="black" stroke-width="3"/> 
  <polygon points="466.099,-89.0787 476.099,-72.0787 456.103,-72.0787" transform="flipX(429.864) rotate(90 271.331 333.5)"/> 
  <polygon points="451.432,68.3755 461.432,85.3755 441.437,85.3755" transform="flipX(429.864) rotate(90 271.331 333.5)"/> 
  <image x="227.576" y="477.879" width="70" height="70" xlink:href="DS_motor_tenzor.svg" transform="rotate(180 0 0)">
    <title>00QKS47AN001</title>
    <rt:dyn type="KKS" mode="constant" value="&quot;00QKS47AN001&quot;"/> 
    <rt:dyn type="DATA_NARY" mode="constant" value="&quot;TYPE2&quot;"/> 
    <rt:dyn type="Operate" mode="constant" value="true"/> 
    <rt:dyn type="DeviceType" mode="constant" value="&quot;fan&quot;"/> 
  </image>
  <line x1="243.924" y1="813.196" x2="169.818" y2="813.196" stroke="black" stroke-width="3"/> 
  <line x1="337.894" y1="796.937" x2="263.788" y2="796.937" stroke="black" stroke-width="3"/> 
  <polygon points="750.432,-89.0787 760.432,-72.0787 740.436,-72.0787" transform="flipX(429.864) rotate(90 271.331 333.5)"/> 
  <polygon points="734.765,68.3754 744.765,85.3754 724.77,85.3754" transform="flipX(429.864) rotate(90 271.331 333.5)"/> 
  <image x="227.576" y="761.213" width="70" height="70" xlink:href="DS_motor_tenzor.svg" transform="rotate(180 0 0)">
    <title>00QKS48AN001</title>
    <rt:dyn type="KKS" mode="constant" value="&quot;00QKS48AN001&quot;"/> 
    <rt:dyn type="DATA_NARY" mode="constant" value="&quot;TYPE2&quot;"/> 
    <rt:dyn type="Operate" mode="constant" value="true"/> 
    <rt:dyn type="DeviceType" mode="constant" value="&quot;fan&quot;"/> 
  </image>
  <line x1="1442.91" y1="219.18" x2="1368.8" y2="219.18" stroke="black" stroke-width="3"/> 
  <polygon points="173.461,-929.079 183.461,-912.079 163.465,-912.079" transform="rotate(90 271.331 333.5)"/> 
  <polygon points="157.009,-780.502 167.009,-763.502 147.013,-763.502" transform="rotate(90 271.331 333.5)"/> 
  <line x1="1521.02" y1="235.632" x2="1446.91" y2="235.632" stroke="black" stroke-width="3"/> 
  <image x="1418.18" y="184.424" width="70" height="70" xlink:href="DS_motor_tenzor.svg" transform="flipX(9.30236e-006) rotate(180 0 0)">
    <title>00QKS49AN201</title>
    <rt:dyn type="KKS" mode="constant" value="&quot;00QKS49AN201&quot;"/> 
    <rt:dyn type="DATA_NARY" mode="constant" value="&quot;TYPE2&quot;"/> 
    <rt:dyn type="Operate" mode="constant" value="true"/> 
    <rt:dyn type="DeviceType" mode="constant" value="&quot;fan&quot;"/> 
  </image>
  <line x1="1452" y1="522.089" x2="1377.89" y2="522.089" stroke="black" stroke-width="3"/> 
  <polygon points="476.37,-938.17 486.37,-921.17 466.374,-921.17" transform="rotate(90 271.331 333.5)"/> 
  <polygon points="459.918,-789.593 469.918,-772.593 449.922,-772.593" transform="rotate(90 271.331 333.5)"/> 
  <line x1="1530.11" y1="538.541" x2="1456" y2="538.541" stroke="black" stroke-width="3"/> 
  <image x="1418.18" y="487.849" width="70" height="70" xlink:href="DS_motor_tenzor.svg" transform="flipX(9.30236e-006) rotate(180 0 0)">
    <title>00QKS50AN201</title>
    <rt:dyn type="KKS" mode="constant" value="&quot;00QKS50AN201&quot;"/> 
    <rt:dyn type="DATA_NARY" mode="constant" value="&quot;TYPE2&quot;"/> 
    <rt:dyn type="Operate" mode="constant" value="true"/> 
    <rt:dyn type="DeviceType" mode="constant" value="&quot;fan&quot;"/> 
  </image>
  <line x1="1219.71" y1="234.847" x2="1145.61" y2="234.847" stroke="black" stroke-width="3"/> 
  <line x1="1300.02" y1="218.18" x2="1225.91" y2="218.18" stroke="black" stroke-width="3"/> 
  <polygon points="172.676,877.073 182.676,894.073 162.68,894.073" transform="flipX(429.864) rotate(90 271.331 333.5)"/> 
  <polygon points="156.009,1028.59 166.009,1045.59 146.013,1045.59" transform="flipX(429.864) rotate(90 271.331 333.5)"/> 
  <image x="1190.91" y="183.94" width="70" height="70" xlink:href="DS_motor_tenzor.svg" transform="rotate(180 0 0)">
    <title>00QKS49AN001</title>
    <rt:dyn type="KKS" mode="constant" value="&quot;00QKS49AN001&quot;"/> 
    <rt:dyn type="DATA_NARY" mode="constant" value="&quot;TYPE2&quot;"/> 
    <rt:dyn type="Operate" mode="constant" value="true"/> 
    <rt:dyn type="DeviceType" mode="constant" value="&quot;fan&quot;"/> 
  </image>
  <line x1="1224.26" y1="539.815" x2="1150.15" y2="539.815" stroke="black" stroke-width="3"/> 
  <line x1="1304.56" y1="523.149" x2="1230.45" y2="523.149" stroke="black" stroke-width="3"/> 
  <polygon points="477.644,881.618 487.644,898.618 467.648,898.618" transform="flipX(429.864) rotate(90 271.331 333.5)"/> 
  <polygon points="460.977,1033.13 470.977,1050.13 450.982,1050.13" transform="flipX(429.864) rotate(90 271.331 333.5)"/> 
  <image x="1190.91" y="488.91" width="70" height="70" xlink:href="DS_motor_tenzor.svg" transform="rotate(180 0 0)">
    <title>00QKS50AN001</title>
    <rt:dyn type="KKS" mode="constant" value="&quot;00QKS50AN001&quot;"/> 
    <rt:dyn type="DATA_NARY" mode="constant" value="&quot;TYPE2&quot;"/> 
    <rt:dyn type="Operate" mode="constant" value="true"/> 
    <rt:dyn type="DeviceType" mode="constant" value="&quot;fan&quot;"/> 
  </image>
</svg>
