<?xml  version="1.0" encoding="windows-1251"?>
<svg color="Col_BGSand" xmlns="http://www.w3.org/2000/svg" xmlns:rt="http://www.rts.co.at/2001/XMLSchema/RtSvgPL" xmlns:xlink="http://www.w3.org/1999/xlink" xmlns:xsi="http://www.w3.org/2001/XMLSchema-instance" xsi:schemaLocation="http://www.w3.org/2000/svg C:\RTS\RtSvg\XML\SVG.xsd" viewBox="0 0 1914 1000" width="1914" height="1000" id="skuv_kle47_48">
  <rt:model modelversion="7.2.0.24" comment="Создано VNIIAES-ASUTP\seregin 22.01.2014 11:20:20"/> 
  <line x1="1675.25" y1="350.51" x2="1861.84" y2="350.51" stroke="black" stroke-width="3"/> 
  <line x1="1675.25" y1="225.51" x2="1861.84" y2="225.51" stroke="black" stroke-width="3"/> 
  <line x1="1674.79" y1="839.806" x2="1861.38" y2="839.806" stroke="black" stroke-width="3"/> 
  <line x1="1674.79" y1="714.806" x2="1861.38" y2="714.806" stroke="black" stroke-width="3"/> 
  <line x1="862" y1="502" x2="862" y2="502" stroke="black"/> 
  <text x="1102.54" y="27.2726" font-size="32">Системы вентилляции электротехнических<tspan x="1102.54" dy="32">помещений в здании UKC (10KLE47,48,32,33)</tspan>
  </text>
  <line x1="52.1687" y1="674.684" x2="1051" y2="674.684" stroke="black" stroke-width="3"/> 
  <image x="77.1686" y="632.184" width="70" height="65" xlink:href="DS_CO_valve.svg">
    <title>10KLE48AA001</title>
    <rt:dyn type="KKS" mode="constant" value="&quot;10KLE48AA001&quot;"/> 
    <rt:dyn type="DATA_NARY" mode="constant" value="&quot;TPTS&quot;"/> 
    <rt:dyn type="Operate" mode="constant" value="true"/> 
  </image>
  <text x="59.679" y="711.929" font-size="15">10KLE48AA001</text>
  <image x="251.895" y="574.459" width="175" height="25" xlink:href="DS_ana.svg">
    <title>10KLE48CT003</title>
    <rt:dyn type="ShowFrame" mode="constant" value="true"/> 
    <rt:dyn type="Color_Readings" mode="constant" value="true"/> 
    <rt:dyn type="FKKS" mode="constant" value="&quot;10KLE48CT003&quot;"/> 
    <rt:dyn type="X" mode="constant" value="&quot;T&quot;"/> 
    <rt:dyn type="ValueToTheRight" mode="constant" value="false"/> 
  </image>
  <line x1="1074.92" y1="660.684" x2="1262.17" y2="660.684" stroke="black" stroke-width="3"/> 
  <image x="1027.17" y="639.684" width="70" height="70" xlink:href="DS_motor.svg" transform="flipX(-3.76639e-005) flipX(-1.26362e-005)">
    <title>10KLE48AN001</title>
    <rt:dyn type="KKS" mode="constant" value="&quot;10KLE48AN001&quot;"/> 
    <rt:dyn type="DATA_NARY" mode="constant" value="&quot;TPTS&quot;"/> 
    <rt:dyn type="Operate" mode="constant" value="true"/> 
    <rt:dyn type="DeviceType" mode="constant" value="&quot;fan&quot;"/> 
  </image>
  <image x="1172.7" y="630.684" width="70" height="52.5" xlink:href="DS_reflux_valve.svg" transform="flipX(0.000518333) flipX(0.000250627)">
    <title>10KLE48AA601</title>
    <rt:dyn type="KKS" mode="constant" value="&quot;10KLE48AA601&quot;"/> 
    <rt:dyn type="DATA_NARY" mode="constant" value="&quot;TPTS&quot;"/> 
    <rt:dyn type="Operate" mode="constant" value="true"/> 
  </image>
  <text x="1170.58" y="697.929" font-size="15">10KLE48<tspan x="1170.58" dy="15">AA601</tspan>
  </text>
  <g transform="scale(0.73 0.73 439.5 285.5)">
    <rect x="-122.376" y="373.866" width="65" height="65" rx="0" ry="0" fill="Col_Grey4" transform="rotate(360 532.506 746.174) rotate(0 532.1 745.087) rotate(314.645 525.5 325)"/> 
    <line x1="150.968" y1="777.519" x2="150.968" y2="863.883" stroke="black" stroke-dasharray="5,5"/> 
  </g>
  <line x1="178.879" y1="675.892" x2="178.879" y2="738.137" stroke="black" stroke-dasharray="5,5" stroke-width="1"/> 
  <line x1="278.879" y1="737.819" x2="178.879" y2="737.819" stroke="black" stroke-dasharray="5,5" stroke-width="1"/> 
  <line x1="277.169" y1="599.684" x2="277.169" y2="736.929" stroke="black" stroke-dasharray="5,5" stroke-width="1"/> 
  <image x="147.869" y="725.892" width="175" height="25" xlink:href="DS_ana.svg">
    <title>10KLE48CP001</title>
    <rt:dyn type="ShowFrame" mode="constant" value="true"/> 
    <rt:dyn type="Color_Readings" mode="constant" value="true"/> 
    <rt:dyn type="FKKS" mode="constant" value="&quot;10KLE48CP001&quot;"/> 
    <rt:dyn type="X" mode="constant" value="&quot;dP&quot;"/> 
    <rt:dyn type="ValueToTheRight" mode="constant" value="false"/> 
  </image>
  <text x="195.507" y="625.48" font-size="15">10KLE48<tspan x="195.507" dy="15">AT001</tspan>
  </text>
  <line x1="1137.17" y1="598.439" x2="1137.17" y2="660.684" stroke="black" stroke-dasharray="5,5" stroke-width="1"/> 
  <image x="1071.96" y="583.684" width="175" height="25" xlink:href="DS_ana.svg">
    <title>10KLE48CT001</title>
    <rt:dyn type="ShowFrame" mode="constant" value="true"/> 
    <rt:dyn type="Color_Readings" mode="constant" value="true"/> 
    <rt:dyn type="FKKS" mode="constant" value="&quot;10KLE48CT001&quot;"/> 
    <rt:dyn type="X" mode="constant" value="&quot;T&quot;"/> 
    <rt:dyn type="ValueToTheRight" mode="constant" value="false"/> 
  </image>
  <text x="544.818" y="713.636" font-size="15">10KLE48AH001</text>
  <text x="997.909" y="724.684" font-size="15">10KLE48AN001</text>
  <line x1="52.1691" y1="924.684" x2="1051" y2="924.684" stroke="black" stroke-width="3"/> 
  <image x="77.169" y="882.184" width="70" height="65" xlink:href="DS_CO_valve.svg">
    <title>10KLE48AA002</title>
    <rt:dyn type="KKS" mode="constant" value="&quot;10KLE48AA002&quot;"/> 
    <rt:dyn type="DATA_NARY" mode="constant" value="&quot;TPTS&quot;"/> 
    <rt:dyn type="Operate" mode="constant" value="true"/> 
  </image>
  <text x="59.6794" y="961.929" font-size="15">10KLE48AA002</text>
  <image x="251.895" y="824.459" width="175" height="25" xlink:href="DS_ana.svg">
    <title>10KLE48CT004</title>
    <rt:dyn type="ShowFrame" mode="constant" value="true"/> 
    <rt:dyn type="Color_Readings" mode="constant" value="true"/> 
    <rt:dyn type="FKKS" mode="constant" value="&quot;10KLE48CT004&quot;"/> 
    <rt:dyn type="X" mode="constant" value="&quot;T&quot;"/> 
    <rt:dyn type="ValueToTheRight" mode="constant" value="false"/> 
  </image>
  <line x1="1074.92" y1="910.684" x2="1262.17" y2="910.684" stroke="black" stroke-width="3"/> 
  <image x="1027.17" y="889.684" width="70" height="70" xlink:href="DS_motor.svg" transform="flipX(-3.76639e-005) flipX(-1.26362e-005)">
    <title>10KLE48AN002</title>
    <rt:dyn type="KKS" mode="constant" value="&quot;10KLE48AN002&quot;"/> 
    <rt:dyn type="DATA_NARY" mode="constant" value="&quot;TPTS&quot;"/> 
    <rt:dyn type="Operate" mode="constant" value="true"/> 
    <rt:dyn type="DeviceType" mode="constant" value="&quot;fan&quot;"/> 
  </image>
  <image x="1172.7" y="880.684" width="70" height="52.5" xlink:href="DS_reflux_valve.svg" transform="flipX(0.000518333) flipX(0.000250627)">
    <title>10KLE48AA602</title>
    <rt:dyn type="KKS" mode="constant" value="&quot;10KLE48AA602&quot;"/> 
    <rt:dyn type="DATA_NARY" mode="constant" value="&quot;TPTS&quot;"/> 
    <rt:dyn type="Operate" mode="constant" value="true"/> 
  </image>
  <text x="1170.58" y="947.929" font-size="15">10KLE48<tspan x="1170.58" dy="15">AA602</tspan>
  </text>
  <g transform="scale(0.73 0.73 439.5 285.5)">
    <rect x="-366.031" y="614.521" width="65" height="65" rx="0" ry="0" fill="Col_Grey4" transform="rotate(360 532.506 746.174) rotate(0 532.1 745.087) rotate(314.645 525.5 325)"/> 
    <line x1="150.968" y1="1119.98" x2="150.968" y2="1206.35" stroke="black" stroke-dasharray="5,5"/> 
  </g>
  <line x1="178.879" y1="925.892" x2="178.879" y2="988.137" stroke="black" stroke-dasharray="5,5" stroke-width="1"/> 
  <line x1="278.879" y1="987.819" x2="178.879" y2="987.819" stroke="black" stroke-dasharray="5,5" stroke-width="1"/> 
  <line x1="277.169" y1="849.684" x2="277.169" y2="986.929" stroke="black" stroke-dasharray="5,5" stroke-width="1"/> 
  <image x="147.869" y="965.892" width="175" height="25" xlink:href="DS_ana.svg">
    <title>10KLE48CP002</title>
    <rt:dyn type="ShowFrame" mode="constant" value="true"/> 
    <rt:dyn type="Color_Readings" mode="constant" value="true"/> 
    <rt:dyn type="FKKS" mode="constant" value="&quot;10KLE48CP002&quot;"/> 
    <rt:dyn type="X" mode="constant" value="&quot;dP&quot;"/> 
    <rt:dyn type="ValueToTheRight" mode="constant" value="false"/> 
  </image>
  <text x="195.507" y="875.48" font-size="15">10KLE48<tspan x="195.507" dy="15">AT002</tspan>
  </text>
  <line x1="1135" y1="838" x2="1135" y2="910.449" stroke="black" stroke-dasharray="5,5" stroke-width="1"/> 
  <text x="544.818" y="961.99" font-size="15">10KLE48AH002</text>
  <text x="830.697" y="964.99" font-size="15">10KLE48AC002</text>
  <text x="997.909" y="974.714" font-size="15">10KLE48AN002</text>
  <line x1="52.1686" y1="674.684" x2="52.1686" y2="924.684" stroke="black" stroke-width="3"/> 
  <line x1="52.1686" y1="799.684" x2="27.1686" y2="799.684" stroke="black" stroke-width="3"/> 
  <line x1="25" y1="799" x2="25" y2="967.789" stroke="black" stroke-width="3"/> 
  <line x1="1262.17" y1="661.929" x2="1262.17" y2="911.929" stroke="black" stroke-width="3"/> 
  <image x="1071.96" y="835" width="175" height="25" xlink:href="DS_ana.svg">
    <title>10KLE48CT002</title>
    <rt:dyn type="ShowFrame" mode="constant" value="true"/> 
    <rt:dyn type="Color_Readings" mode="constant" value="true"/> 
    <rt:dyn type="FKKS" mode="constant" value="&quot;10KLE48CT002&quot;"/> 
    <rt:dyn type="X" mode="constant" value="&quot;T&quot;"/> 
    <rt:dyn type="ValueToTheRight" mode="constant" value="false"/> 
  </image>
  <line x1="1262.17" y1="782.684" x2="1296.21" y2="782.684" stroke="black" stroke-width="3"/> 
  <rect x="1287.17" y="676.684" width="166.186" height="200" rx="0" ry="0" fill="none" stroke="black" stroke-width="1"/> 
  <text x="1309.66" y="699.684" font-size="15">Электротехнич.<tspan x="1309.66" dy="15">помещения</tspan>
<tspan x="1309.66" dy="15">здания UKC</tspan>
  </text>
  <polygon points="474.971,5085.73 462.471,5111.23 488.471,5110.73" transform="flipX(1142.4) flipX(292.095) flipX(1167.09) rotate(90 169.605 77.602) flipY(392.405) rotate(90 1392.93 388.195) scale(0.62 0.62 1341 369.75) rotate(270 1341 369.75)"/> 
  <line x1="1453.13" y1="799.684" x2="1487.17" y2="799.684" stroke="black" stroke-width="3"/> 
  <line x1="1860" y1="775" x2="1907" y2="775" stroke="black" stroke-width="3"/> 
  <line x1="1906.51" y1="284" x2="1906.51" y2="959" stroke="black" stroke-width="3"/> 
  <line x1="1860" y1="285" x2="1907" y2="285" stroke="black" stroke-width="3"/> 
  <line x1="51.8337" y1="191.51" x2="1050.94" y2="191.51" stroke="black" stroke-width="3"/> 
  <image x="74.6895" y="149.01" width="70" height="65" xlink:href="DS_CO_valve.svg">
    <title>10KLE48AA001</title>
    <rt:dyn type="KKS" mode="constant" value="&quot;10KLE48AA001&quot;"/> 
    <rt:dyn type="DATA_NARY" mode="constant" value="&quot;TPTS&quot;"/> 
    <rt:dyn type="Operate" mode="constant" value="true"/> 
  </image>
  <text x="72.5683" y="130.455" font-size="15">10KLE47<tspan x="72.5683" dy="15">AA001</tspan>
  </text>
  <line x1="1074.59" y1="177.51" x2="1261.84" y2="177.51" stroke="black" stroke-width="3"/> 
  <image x="1026.83" y="156.51" width="70" height="70" xlink:href="DS_motor.svg" transform="flipX(-3.76639e-005) flipX(-1.26362e-005)">
    <title>10KLE47AN001</title>
    <rt:dyn type="KKS" mode="constant" value="&quot;10KLE47AN001&quot;"/> 
    <rt:dyn type="DATA_NARY" mode="constant" value="&quot;TPTS&quot;"/> 
    <rt:dyn type="Operate" mode="constant" value="true"/> 
    <rt:dyn type="DeviceType" mode="constant" value="&quot;fan&quot;"/> 
  </image>
  <image x="1172.7" y="147.51" width="70" height="52.5" xlink:href="DS_reflux_valve.svg" transform="flipX(0.000518333) flipX(0.000250627)">
    <title>10KLE47AA601</title>
    <rt:dyn type="KKS" mode="constant" value="&quot;10KLE47AA601&quot;"/> 
    <rt:dyn type="DATA_NARY" mode="constant" value="&quot;TPTS&quot;"/> 
    <rt:dyn type="Operate" mode="constant" value="true"/> 
  </image>
  <text x="1170.58" y="214.755" font-size="15">10KLE47<tspan x="1170.58" dy="15">AA601</tspan>
  </text>
  <g transform="scale(0.73 0.73 439.5 285.5)">
    <rect x="348.214" y="-91.574" width="65" height="65" rx="0" ry="0" fill="Col_Grey4" transform="rotate(360 532.506 746.174) rotate(0 532.1 745.087) rotate(314.645 525.5 325)"/> 
    <line x1="150.509" y1="115.636" x2="150.509" y2="202" stroke="black" stroke-dasharray="5,5"/> 
  </g>
  <line x1="178.544" y1="192.718" x2="178.544" y2="254.963" stroke="black" stroke-dasharray="5,5" stroke-width="1"/> 
  <line x1="276.834" y1="116.51" x2="276.834" y2="253.755" stroke="black" stroke-dasharray="5,5" stroke-width="1"/> 
  <image x="147.534" y="242.718" width="175" height="25" xlink:href="DS_ana.svg">
    <title>10KLE47CP001</title>
    <rt:dyn type="ShowFrame" mode="constant" value="true"/> 
    <rt:dyn type="Color_Readings" mode="constant" value="true"/> 
    <rt:dyn type="FKKS" mode="constant" value="&quot;10KLE47CP001&quot;"/> 
    <rt:dyn type="X" mode="constant" value="&quot;dP&quot;"/> 
    <rt:dyn type="ValueToTheRight" mode="constant" value="false"/> 
  </image>
  <text x="195.507" y="143.306" font-size="15">10KLE47<tspan x="195.507" dy="15">AT001</tspan>
  </text>
  <line x1="1144.83" y1="115.265" x2="1144.83" y2="177.51" stroke="black" stroke-dasharray="5,5" stroke-width="1"/> 
  <image x="1071.96" y="100.51" width="175" height="25" xlink:href="DS_ana.svg">
    <title>10KLE47CT001</title>
    <rt:dyn type="ShowFrame" mode="constant" value="true"/> 
    <rt:dyn type="Color_Readings" mode="constant" value="true"/> 
    <rt:dyn type="FKKS" mode="constant" value="&quot;10KLE47CT001&quot;"/> 
    <rt:dyn type="X" mode="constant" value="&quot;T&quot;"/> 
    <rt:dyn type="ValueToTheRight" mode="constant" value="false"/> 
  </image>
  <text x="997.909" y="242.576" font-size="15">10KLE47AN001</text>
  <line x1="51.8341" y1="441.51" x2="1051" y2="441.51" stroke="black" stroke-width="3"/> 
  <line x1="1074.59" y1="427.51" x2="1261.84" y2="427.51" stroke="black" stroke-width="3"/> 
  <line x1="51.8336" y1="191.51" x2="51.8336" y2="441.51" stroke="black" stroke-width="3"/> 
  <line x1="51.8336" y1="316.51" x2="26.8336" y2="316.51" stroke="black" stroke-width="3"/> 
  <line x1="24.665" y1="314.826" x2="24.665" y2="483.615" stroke="black" stroke-width="3"/> 
  <line x1="1261.84" y1="178.755" x2="1261.84" y2="428.755" stroke="black" stroke-width="3"/> 
  <line x1="1261.84" y1="299.51" x2="1295.88" y2="299.51" stroke="black" stroke-width="3"/> 
  <rect x="1286.84" y="193.51" width="166.186" height="200" rx="0" ry="0" fill="none" stroke="black" stroke-width="1"/> 
  <text x="1324.48" y="216.51" font-size="15">Кабельные<tspan x="1324.48" dy="15">помещения</tspan>
<tspan x="1324.48" dy="15">здания UKC</tspan>
  </text>
  <polygon points="-304.342,5086.27 -316.842,5111.77 -290.842,5111.27" transform="flipX(1142.4) flipX(292.095) flipX(1167.09) rotate(90 169.605 77.602) flipY(392.405) rotate(90 1392.93 388.195) scale(0.62 0.62 1341 369.75) rotate(270 1341 369.75)"/> 
  <line x1="1452.8" y1="316.51" x2="1486.84" y2="316.51" stroke="black" stroke-width="3"/> 
  <line x1="1486.84" y1="241.51" x2="1486.84" y2="366.51" stroke="black" stroke-width="3"/> 
  <line x1="1486.84" y1="366.51" x2="1645.88" y2="366.51" stroke="black" stroke-width="3"/> 
  <image x="1742.7" y="320.455" width="70" height="52.5" xlink:href="DS_reflux_valve.svg" transform="flipX(-0.000510996) flipX(0.000501332) flipX(0.000250627)">
    <title>10KLE32AA602</title>
    <rt:dyn type="KKS" mode="constant" value="&quot;10KLE32AA602&quot;"/> 
    <rt:dyn type="DATA_NARY" mode="constant" value="&quot;TPTS&quot;"/> 
    <rt:dyn type="Operate" mode="constant" value="true"/> 
  </image>
  <text x="1731.7" y="388.251" font-size="15">10KLE32AA602</text>
  <line x1="1486.84" y1="241.51" x2="1645.88" y2="241.51" stroke="black" stroke-width="3"/> 
  <image x="1742.7" y="195.455" width="70" height="52.5" xlink:href="DS_reflux_valve.svg" transform="flipX(-0.000510996) flipX(0.000501332) flipX(0.000250627)">
    <title>10KLE32AA601</title>
    <rt:dyn type="KKS" mode="constant" value="&quot;10KLE32AA601&quot;"/> 
    <rt:dyn type="DATA_NARY" mode="constant" value="&quot;TPTS&quot;"/> 
    <rt:dyn type="Operate" mode="constant" value="true"/> 
  </image>
  <text x="1731.7" y="263.251" font-size="15">10KLE32AA601</text>
  <line x1="1861.84" y1="225.51" x2="1861.84" y2="350.51" stroke="black" stroke-width="3"/> 
  <text x="1604.84" y="202.51" font-size="15">10KLE32AN001</text>
  <image x="1626.84" y="206.51" width="70" height="70" xlink:href="DS_motor.svg" transform="flipX(1.37031e-005) flipX(-1.26362e-005)">
    <title>10KLE32AN001</title>
    <rt:dyn type="KKS" mode="constant" value="&quot;10KLE32AN001&quot;"/> 
    <rt:dyn type="DATA_NARY" mode="constant" value="&quot;TPTS&quot;"/> 
    <rt:dyn type="Operate" mode="constant" value="true"/> 
    <rt:dyn type="DeviceType" mode="constant" value="&quot;fan&quot;"/> 
  </image>
  <text x="1604.84" y="327.51" font-size="15">10KLE32AN002</text>
  <image x="1626.84" y="331.51" width="70" height="70" xlink:href="DS_motor.svg" transform="flipX(1.37031e-005) flipX(-1.26362e-005)">
    <title>10KLE32AN002</title>
    <rt:dyn type="KKS" mode="constant" value="&quot;10KLE32AN002&quot;"/> 
    <rt:dyn type="DATA_NARY" mode="constant" value="&quot;TPTS&quot;"/> 
    <rt:dyn type="Operate" mode="constant" value="true"/> 
    <rt:dyn type="DeviceType" mode="constant" value="&quot;fan&quot;"/> 
  </image>
  <image x="74.6895" y="398.514" width="70" height="65" xlink:href="DS_CO_valve.svg">
    <title>10KLE47AA002</title>
    <rt:dyn type="KKS" mode="constant" value="&quot;10KLE47AA002&quot;"/> 
    <rt:dyn type="DATA_NARY" mode="constant" value="&quot;TPTS&quot;"/> 
    <rt:dyn type="Operate" mode="constant" value="true"/> 
  </image>
  <text x="72.5683" y="381.97" font-size="15">10KLE47<tspan x="72.5683" dy="15">AA002</tspan>
  </text>
  <image x="1028.9" y="406.014" width="70" height="70" xlink:href="DS_motor.svg" transform="flipX(-3.76639e-005) flipX(-1.26362e-005)">
    <title>10KLE48AN002</title>
    <rt:dyn type="KKS" mode="constant" value="&quot;10KLE48AN002&quot;"/> 
    <rt:dyn type="DATA_NARY" mode="constant" value="&quot;TPTS&quot;"/> 
    <rt:dyn type="Operate" mode="constant" value="true"/> 
    <rt:dyn type="DeviceType" mode="constant" value="&quot;fan&quot;"/> 
  </image>
  <image x="1172.7" y="397.014" width="70" height="52.5" xlink:href="DS_reflux_valve.svg" transform="flipX(0.000518333) flipX(0.000250627)">
    <title>10KLE47AA602</title>
    <rt:dyn type="KKS" mode="constant" value="&quot;10KLE47AA602&quot;"/> 
    <rt:dyn type="DATA_NARY" mode="constant" value="&quot;TPTS&quot;"/> 
    <rt:dyn type="Operate" mode="constant" value="true"/> 
  </image>
  <text x="1170.58" y="464.259" font-size="15">10KLE47<tspan x="1170.58" dy="15">AA602</tspan>
  </text>
  <g transform="scale(0.73 0.73 439.5 285.5)">
    <rect x="107.026" y="150.613" width="65" height="65" rx="0" ry="0" fill="Col_Grey4" transform="rotate(360 532.506 746.174) rotate(0 532.1 745.087) rotate(314.645 525.5 325)"/> 
    <line x1="153.332" y1="457.418" x2="153.332" y2="543.788" stroke="black" stroke-dasharray="5,5"/> 
  </g>
  <line x1="180.605" y1="442.222" x2="180.605" y2="504.467" stroke="black" stroke-dasharray="5,5" stroke-width="1"/> 
  <line x1="278.895" y1="366.014" x2="278.895" y2="503.259" stroke="black" stroke-dasharray="5,5" stroke-width="1"/> 
  <image x="149.595" y="482.222" width="175" height="25" xlink:href="DS_ana.svg">
    <title>10KLE47CP002</title>
    <rt:dyn type="ShowFrame" mode="constant" value="true"/> 
    <rt:dyn type="Color_Readings" mode="constant" value="true"/> 
    <rt:dyn type="FKKS" mode="constant" value="&quot;10KLE47CP002&quot;"/> 
    <rt:dyn type="X" mode="constant" value="&quot;dP&quot;"/> 
    <rt:dyn type="ValueToTheRight" mode="constant" value="false"/> 
  </image>
  <text x="195.507" y="392.81" font-size="15">10KLE47<tspan x="195.507" dy="15">AT002</tspan>
  </text>
  <line x1="1144.73" y1="354.575" x2="1144.73" y2="427.024" stroke="black" stroke-dasharray="5,5" stroke-width="1"/> 
  <text x="997.909" y="492.03" font-size="15">10KLE48AN002</text>
  <image x="1071.96" y="350.33" width="175" height="25" xlink:href="DS_ana.svg">
    <title>10KLE47CT002</title>
    <rt:dyn type="ShowFrame" mode="constant" value="true"/> 
    <rt:dyn type="Color_Readings" mode="constant" value="true"/> 
    <rt:dyn type="FKKS" mode="constant" value="&quot;10KLE47CT002&quot;"/> 
    <rt:dyn type="X" mode="constant" value="&quot;T&quot;"/> 
    <rt:dyn type="ValueToTheRight" mode="constant" value="false"/> 
  </image>
  <line x1="1486.38" y1="730.806" x2="1486.38" y2="855.806" stroke="black" stroke-width="3"/> 
  <line x1="1486.38" y1="855.806" x2="1645.42" y2="855.806" stroke="black" stroke-width="3"/> 
  <image x="1742.24" y="809.751" width="70" height="52.5" xlink:href="DS_reflux_valve.svg" transform="flipX(-0.000510996) flipX(0.000501332) flipX(0.000250627)">
    <title>10KLE33AA602</title>
    <rt:dyn type="KKS" mode="constant" value="&quot;10KLE33AA602&quot;"/> 
    <rt:dyn type="DATA_NARY" mode="constant" value="&quot;TPTS&quot;"/> 
    <rt:dyn type="Operate" mode="constant" value="true"/> 
  </image>
  <text x="1731.24" y="877.547" font-size="15">10KLE33AA602</text>
  <line x1="1486.38" y1="730.806" x2="1645.42" y2="730.806" stroke="black" stroke-width="3"/> 
  <image x="1742.24" y="684.751" width="70" height="52.5" xlink:href="DS_reflux_valve.svg" transform="flipX(-0.000510996) flipX(0.000501332) flipX(0.000250627)">
    <title>10KLE33AA601</title>
    <rt:dyn type="KKS" mode="constant" value="&quot;10KLE33AA601&quot;"/> 
    <rt:dyn type="DATA_NARY" mode="constant" value="&quot;TPTS&quot;"/> 
    <rt:dyn type="Operate" mode="constant" value="true"/> 
  </image>
  <text x="1731.24" y="752.547" font-size="15">10KLE33AA601</text>
  <line x1="1861.38" y1="714.806" x2="1861.38" y2="839.806" stroke="black" stroke-width="3"/> 
  <text x="1604.38" y="691.806" font-size="15">10KLE33AN001</text>
  <image x="1626.38" y="695.806" width="70" height="70" xlink:href="DS_motor.svg" transform="flipX(1.37031e-005) flipX(-1.26362e-005)">
    <title>10KLE33AN001</title>
    <rt:dyn type="KKS" mode="constant" value="&quot;10KLE33AN001&quot;"/> 
    <rt:dyn type="DATA_NARY" mode="constant" value="&quot;TPTS&quot;"/> 
    <rt:dyn type="Operate" mode="constant" value="true"/> 
    <rt:dyn type="DeviceType" mode="constant" value="&quot;fan&quot;"/> 
  </image>
  <text x="1604.38" y="816.806" font-size="15">10KLE33AN002</text>
  <image x="1626.38" y="820.806" width="70" height="70" xlink:href="DS_motor.svg" transform="flipX(1.37031e-005) flipX(-1.26362e-005)">
    <title>10KLE33AN002</title>
    <rt:dyn type="KKS" mode="constant" value="&quot;10KLE33AN002&quot;"/> 
    <rt:dyn type="DATA_NARY" mode="constant" value="&quot;TPTS&quot;"/> 
    <rt:dyn type="Operate" mode="constant" value="true"/> 
    <rt:dyn type="DeviceType" mode="constant" value="&quot;fan&quot;"/> 
  </image>
  <text x="1846.39" y="971.212" font-size="15">В вент<tspan x="1846.39" dy="15">трубу</tspan>
  </text>
  <text x="544.818" y="481.97" font-size="15">10KLE47AH002</text>
  <text x="830.697" y="480.454" font-size="15">10KLE47AC002</text>
  <text x="544.818" y="230.455" font-size="15">10KLE47AH001</text>
  <text x="830.697" y="228.939" font-size="15">10KLE47AC001</text>
  <polygon points="-896.958,-553.209 -909.458,-527.709 -883.458,-528.209" transform="flipY(130.905) rotate(90 1392.93 388.195) scale(0.62 0.62 1341 369.75) rotate(270 1341 369.75)"/> 
  <text x="5.48479" y="510.758" font-size="15">АТМ</text>
  <g>
    <text x="660.765" y="161.606" font-size="15">10SBC13<tspan x="660.765" dy="15">AA009</tspan>
    </text>
    <text x="466.55" y="161.606" font-size="15">10SBC14<tspan x="466.55" dy="15">AA209</tspan>
    </text>
    <image x="477.607" y="49.4245" width="65" height="25" xlink:href="DS_Reg_degree.svg">
      <title>10SBC14AA209</title>
      <rt:dyn type="KKS" mode="constant" value="&quot;10SBC14AA209&quot;"/> 
    </image>
    <rect x="547.939" y="18.9697" width="106.241" height="154.182" rx="0" ry="0" fill="none" stroke="black" stroke-width="1"/> 
    <image x="569.181" y="4.1519" width="75" height="25" xlink:href="obj_link.svg">
      <rt:dyn type="TextStr" mode="constant" value="&quot;SBC&quot;"/> 
      <rt:dyn type="ModName" mode="constant" value=""/> 
    </image>
    <polygon points="-51.6665,-119.142 -64.1665,-93.6416 -38.1665,-94.1416" transform="rotate(90 1392.93 388.195) scale(0.62 0.62 1341 369.75) rotate(270 1341 369.75)"/> 
    <polygon points="119.309,170.69 106.809,196.19 132.809,195.69" transform="flipY(130.905) rotate(90 1392.93 388.195) scale(0.62 0.62 1341 369.75) rotate(270 1341 369.75)"/> 
    <g>
      <polygon points="577.211,165.192 627.211,165.692 627.211,215.192 577.211,215.192" fill="Col_Grey4" stroke="black" stroke-width="2"/> 
      <line x1="592.211" y1="190.692" x2="602.711" y2="179.692" stroke="black" stroke-width="3"/> 
      <line x1="602.211" y1="199.692" x2="612.211" y2="190.192" stroke="black" stroke-width="3"/> 
      <line x1="602.211" y1="200.192" x2="602.211" y2="180.192" stroke="black" stroke-width="3"/> 
      <line x1="577.211" y1="190.692" x2="592.961" y2="190.692" stroke="black" stroke-width="3"/> 
      <line x1="611.541" y1="190.192" x2="627.291" y2="190.192" stroke="black" stroke-width="3"/> 
    </g>
    <image x="513.061" y="68.3333" width="70" height="65" xlink:href="DS_Reg_valve.svg" transform="rotate(270 0 0) flipX() flipX() flipY(-10) flipY(-10)">
      <title>10SBC14AA209</title>
      <rt:dyn type="KKS" mode="constant" value="&quot;10SBC14AA209&quot;"/> 
      <rt:dyn type="Operate" mode="constant" value="true"/> 
      <rt:dyn type="DATA_NARY" mode="constant" value="&quot;TPTS&quot;"/> 
    </image>
    <image x="609.061" y="82.1059" width="70" height="65" xlink:href="DS_CO_valve.svg" transform="rotate(270 -0.00012207 -9.99997)">
      <title>10SBC13AA009</title>
      <rt:dyn type="KKS" mode="constant" value="&quot;10SBC13AA009&quot;"/> 
      <rt:dyn type="DATA_NARY" mode="constant" value="&quot;TPTS&quot;"/> 
      <rt:dyn type="Operate" mode="constant" value="true"/> 
    </image>
    <text x="948.614" y="161.606" font-size="15">10QKK01<tspan x="948.614" dy="15">AA005</tspan>
    </text>
    <text x="751.399" y="161.606" font-size="15">10QKK11<tspan x="751.399" dy="15">AA215</tspan>
    </text>
    <image x="765.456" y="48.3942" width="65" height="25" xlink:href="DS_Reg_degree.svg">
      <title>10QKK11AA215</title>
      <rt:dyn type="KKS" mode="constant" value="&quot;10QKK11AA215&quot;"/> 
    </image>
    <rect x="835.788" y="17.9394" width="106.241" height="154.182" rx="0" ry="0" fill="none" stroke="black" stroke-width="1"/> 
    <image x="857.03" y="3.12158" width="75" height="25" xlink:href="obj_link.svg">
      <rt:dyn type="TextStr" mode="constant" value="&quot;QKK&quot;"/> 
      <rt:dyn type="ModName" mode="constant" value=""/> 
    </image>
    <polygon points="414.217,-120.804 401.717,-95.3032 427.717,-95.8032" transform="rotate(90 1392.93 388.195) scale(0.62 0.62 1341 369.75) rotate(270 1341 369.75)"/> 
    <polygon points="583.58,172.351 571.08,197.851 597.08,197.351" transform="flipY(130.905) rotate(90 1392.93 388.195) scale(0.62 0.62 1341 369.75) rotate(270 1341 369.75)"/> 
    <g>
      <polygon points="865.06,164.162 915.06,164.662 915.06,214.162 865.06,214.162" fill="Col_Grey4" stroke="black" stroke-width="2"/> 
      <line x1="880.06" y1="189.662" x2="890.56" y2="178.662" stroke="black" stroke-width="3"/> 
      <line x1="890.06" y1="198.662" x2="900.06" y2="189.162" stroke="black" stroke-width="3"/> 
      <line x1="890.06" y1="199.162" x2="890.06" y2="179.162" stroke="black" stroke-width="3"/> 
      <line x1="865.06" y1="189.662" x2="880.81" y2="189.662" stroke="black" stroke-width="3"/> 
      <line x1="899.39" y1="189.162" x2="915.14" y2="189.162" stroke="black" stroke-width="3"/> 
    </g>
    <image x="800.879" y="66.8182" width="70" height="65" xlink:href="DS_Reg_valve.svg" transform="rotate(270 0 0) flipX() flipX() flipY(-10) flipY(-10)">
      <title>10QKK11AA215</title>
      <rt:dyn type="KKS" mode="constant" value="&quot;10QKK11AA215&quot;"/> 
      <rt:dyn type="Operate" mode="constant" value="true"/> 
      <rt:dyn type="DATA_NARY" mode="constant" value="&quot;TPTS&quot;"/> 
    </image>
    <image x="896.91" y="81.0756" width="70" height="65" xlink:href="DS_CO_valve.svg" transform="rotate(270 -0.00012207 -9.99997)">
      <title>10QKK01AA005</title>
      <rt:dyn type="KKS" mode="constant" value="&quot;10QKK01AA005&quot;"/> 
      <rt:dyn type="DATA_NARY" mode="constant" value="&quot;TPTS&quot;"/> 
      <rt:dyn type="Operate" mode="constant" value="true"/> 
    </image>
    <line x1="502" y1="24" x2="550.485" y2="24" stroke="black" stroke-dasharray="5,5"/> 
  </g>
  <g>
    <text x="660.765" y="413.121" font-size="15">10SBC13<tspan x="660.765" dy="15">AA010</tspan>
    </text>
    <text x="466.55" y="413.121" font-size="15">10SBC14<tspan x="466.55" dy="15">AA210</tspan>
    </text>
    <image x="477.607" y="300.94" width="65" height="25" xlink:href="DS_Reg_degree.svg">
      <title>10SBC14AA210</title>
      <rt:dyn type="KKS" mode="constant" value="&quot;10SBC14AA210&quot;"/> 
    </image>
    <rect x="547.939" y="270.485" width="106.241" height="154.182" rx="0" ry="0" fill="none" stroke="black" stroke-width="1"/> 
    <image x="569.181" y="255.667" width="75" height="25" xlink:href="obj_link.svg">
      <rt:dyn type="TextStr" mode="constant" value="&quot;SBC&quot;"/> 
      <rt:dyn type="ModName" mode="constant" value=""/> 
    </image>
    <polygon points="-50.0539,286.527 -62.5539,312.028 -36.5539,311.528" transform="rotate(90 1392.93 388.195) scale(0.62 0.62 1341 369.75) rotate(270 1341 369.75)"/> 
    <polygon points="119.309,-234.98 106.809,-209.48 132.809,-209.98" transform="flipY(130.905) rotate(90 1392.93 388.195) scale(0.62 0.62 1341 369.75) rotate(270 1341 369.75)"/> 
    <g>
      <polygon points="577.211,416.707 627.211,417.207 627.211,466.707 577.211,466.707" fill="Col_Grey4" stroke="black" stroke-width="2"/> 
      <line x1="592.211" y1="442.207" x2="602.711" y2="431.207" stroke="black" stroke-width="3"/> 
      <line x1="602.211" y1="451.207" x2="612.211" y2="441.707" stroke="black" stroke-width="3"/> 
      <line x1="602.211" y1="451.707" x2="602.211" y2="431.707" stroke="black" stroke-width="3"/> 
      <line x1="577.211" y1="442.207" x2="592.961" y2="442.207" stroke="black" stroke-width="3"/> 
      <line x1="611.541" y1="441.707" x2="627.291" y2="441.707" stroke="black" stroke-width="3"/> 
    </g>
    <image x="514.12" y="320.151" width="70" height="65" xlink:href="DS_Reg_valve.svg" transform="rotate(270 0 0) flipX() flipX() flipY(-10) flipY(-10)">
      <title>10SBC14AA210</title>
      <rt:dyn type="KKS" mode="constant" value="&quot;10SBC14AA210&quot;"/> 
      <rt:dyn type="Operate" mode="constant" value="true"/> 
      <rt:dyn type="DATA_NARY" mode="constant" value="&quot;TPTS&quot;"/> 
    </image>
    <image x="609.061" y="333.621" width="70" height="65" xlink:href="DS_CO_valve.svg" transform="rotate(270 -0.00012207 -9.99997)">
      <title>10SBC13AA010</title>
      <rt:dyn type="KKS" mode="constant" value="&quot;10SBC13AA010&quot;"/> 
      <rt:dyn type="DATA_NARY" mode="constant" value="&quot;TPTS&quot;"/> 
      <rt:dyn type="Operate" mode="constant" value="true"/> 
    </image>
    <text x="948.614" y="413.121" font-size="15">10QKK01<tspan x="948.614" dy="15">AA006</tspan>
    </text>
    <text x="751.399" y="413.121" font-size="15">10QKK11<tspan x="751.399" dy="15">AA216</tspan>
    </text>
    <image x="765.456" y="299.909" width="65" height="25" xlink:href="DS_Reg_degree.svg">
      <title>11QKK11AA215</title>
      <rt:dyn type="KKS" mode="constant" value="&quot;11QKK11AA215&quot;"/> 
    </image>
    <rect x="835.788" y="269.454" width="106.241" height="154.182" rx="0" ry="0" fill="none" stroke="black" stroke-width="1"/> 
    <image x="857.03" y="254.637" width="75" height="25" xlink:href="obj_link.svg">
      <rt:dyn type="TextStr" mode="constant" value="&quot;QKK&quot;"/> 
      <rt:dyn type="ModName" mode="constant" value=""/> 
    </image>
    <polygon points="414.216,284.866 401.716,310.366 427.716,309.866" transform="rotate(90 1392.93 388.195) scale(0.62 0.62 1341 369.75) rotate(270 1341 369.75)"/> 
    <polygon points="583.579,-233.318 571.079,-207.818 597.079,-208.318" transform="flipY(130.905) rotate(90 1392.93 388.195) scale(0.62 0.62 1341 369.75) rotate(270 1341 369.75)"/> 
    <g>
      <polygon points="865.06,415.677 915.06,416.177 915.06,465.677 865.06,465.677" fill="Col_Grey4" stroke="black" stroke-width="2"/> 
      <line x1="880.06" y1="441.177" x2="890.56" y2="430.177" stroke="black" stroke-width="3"/> 
      <line x1="890.06" y1="450.177" x2="900.06" y2="440.677" stroke="black" stroke-width="3"/> 
      <line x1="890.06" y1="450.677" x2="890.06" y2="430.677" stroke="black" stroke-width="3"/> 
      <line x1="865.06" y1="441.177" x2="880.81" y2="441.177" stroke="black" stroke-width="3"/> 
      <line x1="899.39" y1="440.677" x2="915.14" y2="440.677" stroke="black" stroke-width="3"/> 
    </g>
    <image x="800.879" y="318.333" width="70" height="65" xlink:href="DS_Reg_valve.svg" transform="rotate(270 0 0) flipX() flipX() flipY(-10) flipY(-10)">
      <title>10QKK11AA216</title>
      <rt:dyn type="KKS" mode="constant" value="&quot;10QKK11AA216&quot;"/> 
      <rt:dyn type="Operate" mode="constant" value="true"/> 
      <rt:dyn type="DATA_NARY" mode="constant" value="&quot;TPTS&quot;"/> 
    </image>
    <image x="896.91" y="332.591" width="70" height="65" xlink:href="DS_CO_valve.svg" transform="rotate(270 -0.00012207 -9.99997)">
      <title>10QKK01AA006</title>
      <rt:dyn type="KKS" mode="constant" value="&quot;10QKK01AA006&quot;"/> 
      <rt:dyn type="DATA_NARY" mode="constant" value="&quot;TPTS&quot;"/> 
      <rt:dyn type="Operate" mode="constant" value="true"/> 
    </image>
    <line x1="502.727" y1="274.894" x2="551.212" y2="274.894" stroke="black" stroke-dasharray="5,5"/> 
  </g>
  <polygon points="-896.958,-1332.53 -909.458,-1307.03 -883.458,-1307.53" transform="flipY(130.905) rotate(90 1392.93 388.195) scale(0.62 0.62 1341 369.75) rotate(270 1341 369.75)"/> 
  <text x="5.48479" y="993.94" font-size="15">АТМ</text>
  <text x="662.28" y="644.788" font-size="15">10SBC13<tspan x="662.28" dy="15">AA011</tspan>
  </text>
  <text x="468.065" y="644.788" font-size="15">10SBC14<tspan x="468.065" dy="15">AA211</tspan>
  </text>
  <image x="479.122" y="532.606" width="65" height="25" xlink:href="DS_Reg_degree.svg">
    <title>10SBC14AA211</title>
    <rt:dyn type="KKS" mode="constant" value="&quot;10SBC14AA211&quot;"/> 
  </image>
  <rect x="549.454" y="502.151" width="106.241" height="154.182" rx="0" ry="0" fill="none" stroke="black" stroke-width="1"/> 
  <image x="570.696" y="487.334" width="75" height="25" xlink:href="obj_link.svg">
    <rt:dyn type="TextStr" mode="constant" value="&quot;SBC&quot;"/> 
    <rt:dyn type="ModName" mode="constant" value=""/> 
  </image>
  <polygon points="-49.2231,660.183 -61.7231,685.684 -35.7231,685.184" transform="rotate(90 1392.93 388.195) scale(0.62 0.62 1341 369.75) rotate(270 1341 369.75)"/> 
  <polygon points="121.752,-608.636 109.252,-583.136 135.252,-583.636" transform="flipY(130.905) rotate(90 1392.93 388.195) scale(0.62 0.62 1341 369.75) rotate(270 1341 369.75)"/> 
  <g>
    <polygon points="578.726,648.374 628.726,648.874 628.726,698.374 578.726,698.374" fill="Col_Grey4" stroke="black" stroke-width="2"/> 
    <line x1="593.726" y1="673.874" x2="604.226" y2="662.874" stroke="black" stroke-width="3"/> 
    <line x1="603.726" y1="682.874" x2="613.726" y2="673.374" stroke="black" stroke-width="3"/> 
    <line x1="603.726" y1="683.374" x2="603.726" y2="663.374" stroke="black" stroke-width="3"/> 
    <line x1="578.726" y1="673.874" x2="594.476" y2="673.874" stroke="black" stroke-width="3"/> 
    <line x1="613.056" y1="673.374" x2="628.806" y2="673.374" stroke="black" stroke-width="3"/> 
  </g>
  <image x="514.576" y="551.515" width="70" height="65" xlink:href="DS_Reg_valve.svg" transform="rotate(270 0 0) flipX() flipX() flipY(-10) flipY(-10)">
    <title>10SBC14AA211</title>
    <rt:dyn type="KKS" mode="constant" value="&quot;10SBC14AA211&quot;"/> 
    <rt:dyn type="Operate" mode="constant" value="true"/> 
    <rt:dyn type="DATA_NARY" mode="constant" value="&quot;TPTS&quot;"/> 
  </image>
  <image x="610.576" y="565.288" width="70" height="65" xlink:href="DS_CO_valve.svg" transform="rotate(270 -0.00012207 -9.99997)">
    <title>10SBC13AA011</title>
    <rt:dyn type="KKS" mode="constant" value="&quot;10SBC13AA011&quot;"/> 
    <rt:dyn type="DATA_NARY" mode="constant" value="&quot;TPTS&quot;"/> 
    <rt:dyn type="Operate" mode="constant" value="true"/> 
  </image>
  <text x="950.129" y="644.788" font-size="15">10QKK01<tspan x="950.129" dy="15">AA007</tspan>
  </text>
  <text x="752.914" y="644.788" font-size="15">10QKK11<tspan x="752.914" dy="15">AA207</tspan>
  </text>
  <image x="766.971" y="531.576" width="65" height="25" xlink:href="DS_Reg_degree.svg">
    <title>10QKK11AA207</title>
    <rt:dyn type="KKS" mode="constant" value="&quot;10QKK11AA207&quot;"/> 
  </image>
  <rect x="837.303" y="501.121" width="106.241" height="154.182" rx="0" ry="0" fill="none" stroke="black" stroke-width="1"/> 
  <image x="858.545" y="486.303" width="75" height="25" xlink:href="obj_link.svg">
    <rt:dyn type="TextStr" mode="constant" value="&quot;QKK&quot;"/> 
    <rt:dyn type="ModName" mode="constant" value=""/> 
  </image>
  <polygon points="416.66,658.522 404.16,684.022 430.16,683.522" transform="rotate(90 1392.93 388.195) scale(0.62 0.62 1341 369.75) rotate(270 1341 369.75)"/> 
  <polygon points="586.023,-606.974 573.523,-581.474 599.523,-581.974" transform="flipY(130.905) rotate(90 1392.93 388.195) scale(0.62 0.62 1341 369.75) rotate(270 1341 369.75)"/> 
  <g>
    <polygon points="866.575,647.344 916.575,647.844 916.575,697.344 866.575,697.344" fill="Col_Grey4" stroke="black" stroke-width="2"/> 
    <line x1="881.575" y1="672.844" x2="892.075" y2="661.844" stroke="black" stroke-width="3"/> 
    <line x1="891.575" y1="681.844" x2="901.575" y2="672.344" stroke="black" stroke-width="3"/> 
    <line x1="891.575" y1="682.344" x2="891.575" y2="662.344" stroke="black" stroke-width="3"/> 
    <line x1="866.575" y1="672.844" x2="882.325" y2="672.844" stroke="black" stroke-width="3"/> 
    <line x1="900.905" y1="672.344" x2="916.655" y2="672.344" stroke="black" stroke-width="3"/> 
  </g>
  <image x="802.394" y="550" width="70" height="65" xlink:href="DS_Reg_valve.svg" transform="rotate(270 0 0) flipX() flipX() flipY(-10) flipY(-10)">
    <title>10QKK11AA207</title>
    <rt:dyn type="KKS" mode="constant" value="&quot;10QKK11AA207&quot;"/> 
    <rt:dyn type="Operate" mode="constant" value="true"/> 
    <rt:dyn type="DATA_NARY" mode="constant" value="&quot;TPTS&quot;"/> 
  </image>
  <image x="898.425" y="564.257" width="70" height="65" xlink:href="DS_CO_valve.svg" transform="rotate(270 -0.00012207 -9.99997)">
    <title>10QKK01AA007</title>
    <rt:dyn type="KKS" mode="constant" value="&quot;10QKK01AA007&quot;"/> 
    <rt:dyn type="DATA_NARY" mode="constant" value="&quot;TPTS&quot;"/> 
    <rt:dyn type="Operate" mode="constant" value="true"/> 
  </image>
  <line x1="503.515" y1="507.182" x2="552" y2="507.182" stroke="black" stroke-dasharray="5,5"/> 
  <text x="662.28" y="894.788" font-size="15">10SBC13<tspan x="662.28" dy="15">AA012</tspan>
  </text>
  <text x="468.065" y="894.788" font-size="15">10SBC14<tspan x="468.065" dy="15">AA212</tspan>
  </text>
  <image x="479.122" y="782.606" width="65" height="25" xlink:href="DS_Reg_degree.svg">
    <title>10SBC14AA212</title>
    <rt:dyn type="KKS" mode="constant" value="&quot;10SBC14AA212&quot;"/> 
  </image>
  <rect x="549.454" y="752.152" width="106.241" height="154.182" rx="0" ry="0" fill="none" stroke="black" stroke-width="1"/> 
  <image x="570.696" y="737.334" width="75" height="25" xlink:href="obj_link.svg">
    <rt:dyn type="TextStr" mode="constant" value="&quot;SBC&quot;"/> 
    <rt:dyn type="ModName" mode="constant" value=""/> 
  </image>
  <polygon points="-49.2228,1063.41 -61.7228,1088.91 -35.7228,1088.41" transform="rotate(90 1392.93 388.195) scale(0.62 0.62 1341 369.75) rotate(270 1341 369.75)"/> 
  <polygon points="121.753,-1011.86 109.253,-986.362 135.253,-986.862" transform="flipY(130.905) rotate(90 1392.93 388.195) scale(0.62 0.62 1341 369.75) rotate(270 1341 369.75)"/> 
  <g>
    <polygon points="578.726,898.374 628.726,898.874 628.726,948.374 578.726,948.374" fill="Col_Grey4" stroke="black" stroke-width="2"/> 
    <line x1="593.726" y1="923.874" x2="604.226" y2="912.874" stroke="black" stroke-width="3"/> 
    <line x1="603.726" y1="932.874" x2="613.726" y2="923.374" stroke="black" stroke-width="3"/> 
    <line x1="603.726" y1="933.374" x2="603.726" y2="913.374" stroke="black" stroke-width="3"/> 
    <line x1="578.726" y1="923.874" x2="594.476" y2="923.874" stroke="black" stroke-width="3"/> 
    <line x1="613.056" y1="923.374" x2="628.806" y2="923.374" stroke="black" stroke-width="3"/> 
  </g>
  <image x="514.576" y="801.515" width="70" height="65" xlink:href="DS_Reg_valve.svg" transform="rotate(270 0 0) flipX() flipX() flipY(-10) flipY(-10)">
    <title>10SBC14AA212</title>
    <rt:dyn type="KKS" mode="constant" value="&quot;10SBC14AA212&quot;"/> 
    <rt:dyn type="Operate" mode="constant" value="true"/> 
    <rt:dyn type="DATA_NARY" mode="constant" value="&quot;TPTS&quot;"/> 
  </image>
  <image x="610.576" y="815.288" width="70" height="65" xlink:href="DS_CO_valve.svg" transform="rotate(270 -0.00012207 -9.99997)">
    <title>10SBC13AA012</title>
    <rt:dyn type="KKS" mode="constant" value="&quot;10SBC13AA012&quot;"/> 
    <rt:dyn type="DATA_NARY" mode="constant" value="&quot;TPTS&quot;"/> 
    <rt:dyn type="Operate" mode="constant" value="true"/> 
  </image>
  <text x="950.129" y="894.788" font-size="15">10QKK01<tspan x="950.129" dy="15">AA008</tspan>
  </text>
  <text x="752.914" y="894.788" font-size="15">10QKK11<tspan x="752.914" dy="15">AA208</tspan>
  </text>
  <image x="766.971" y="781.576" width="65" height="25" xlink:href="DS_Reg_degree.svg">
    <title>10QKK11AA208</title>
    <rt:dyn type="KKS" mode="constant" value="&quot;10QKK11AA208&quot;"/> 
  </image>
  <rect x="837.303" y="751.121" width="106.241" height="154.182" rx="0" ry="0" fill="none" stroke="black" stroke-width="1"/> 
  <image x="858.545" y="736.303" width="75" height="25" xlink:href="obj_link.svg">
    <rt:dyn type="TextStr" mode="constant" value="&quot;QKK&quot;"/> 
    <rt:dyn type="ModName" mode="constant" value=""/> 
  </image>
  <polygon points="416.661,1061.75 404.161,1087.25 430.161,1086.75" transform="rotate(90 1392.93 388.195) scale(0.62 0.62 1341 369.75) rotate(270 1341 369.75)"/> 
  <polygon points="586.024,-1010.2 573.524,-984.7 599.524,-985.2" transform="flipY(130.905) rotate(90 1392.93 388.195) scale(0.62 0.62 1341 369.75) rotate(270 1341 369.75)"/> 
  <g>
    <polygon points="866.575,897.344 916.575,897.844 916.575,947.344 866.575,947.344" fill="Col_Grey4" stroke="black" stroke-width="2"/> 
    <line x1="881.575" y1="922.844" x2="892.075" y2="911.844" stroke="black" stroke-width="3"/> 
    <line x1="891.575" y1="931.844" x2="901.575" y2="922.344" stroke="black" stroke-width="3"/> 
    <line x1="891.575" y1="932.344" x2="891.575" y2="912.344" stroke="black" stroke-width="3"/> 
    <line x1="866.575" y1="922.844" x2="882.325" y2="922.844" stroke="black" stroke-width="3"/> 
    <line x1="900.905" y1="922.344" x2="916.655" y2="922.344" stroke="black" stroke-width="3"/> 
  </g>
  <image x="800.939" y="800" width="70" height="65" xlink:href="DS_Reg_valve.svg" transform="rotate(270 0 0) flipX() flipX() flipY(-10) flipY(-10)">
    <title>10QKK11AA208</title>
    <rt:dyn type="KKS" mode="constant" value="&quot;10QKK11AA208&quot;"/> 
    <rt:dyn type="Operate" mode="constant" value="true"/> 
    <rt:dyn type="DATA_NARY" mode="constant" value="&quot;TPTS&quot;"/> 
  </image>
  <image x="898.425" y="814.258" width="70" height="65" xlink:href="DS_CO_valve.svg" transform="rotate(270 -0.00012207 -9.99997)">
    <title>10QKK01AA008</title>
    <rt:dyn type="KKS" mode="constant" value="&quot;10QKK01AA008&quot;"/> 
    <rt:dyn type="DATA_NARY" mode="constant" value="&quot;TPTS&quot;"/> 
    <rt:dyn type="Operate" mode="constant" value="true"/> 
  </image>
  <line x1="503.515" y1="757.182" x2="552" y2="757.182" stroke="black" stroke-dasharray="5,5"/> 
  <text x="830.697" y="713.636" font-size="15">10KLE48AC001</text>
  <image x="251.895" y="92.285" width="175" height="25" xlink:href="DS_ana.svg">
    <title>10KLE47CT003</title>
    <rt:dyn type="ShowFrame" mode="constant" value="true"/> 
    <rt:dyn type="Color_Readings" mode="constant" value="true"/> 
    <rt:dyn type="FKKS" mode="constant" value="&quot;10KLE47CT003&quot;"/> 
    <rt:dyn type="X" mode="constant" value="&quot;T&quot;"/> 
    <rt:dyn type="ValueToTheRight" mode="constant" value="false"/> 
  </image>
  <image x="251.895" y="341.789" width="175" height="25" xlink:href="DS_ana.svg">
    <title>10KLE47CT004</title>
    <rt:dyn type="ShowFrame" mode="constant" value="true"/> 
    <rt:dyn type="Color_Readings" mode="constant" value="true"/> 
    <rt:dyn type="FKKS" mode="constant" value="&quot;10KLE47CT004&quot;"/> 
    <rt:dyn type="X" mode="constant" value="&quot;T&quot;"/> 
    <rt:dyn type="ValueToTheRight" mode="constant" value="false"/> 
  </image>
  <image x="333.031" y="11" width="175" height="25" xlink:href="DS_ana.svg">
    <title>10SBC14CT009</title>
    <rt:dyn type="ShowFrame" mode="constant" value="true"/> 
    <rt:dyn type="Color_Readings" mode="constant" value="true"/> 
    <rt:dyn type="FKKS" mode="constant" value="&quot;10SBC14CT009&quot;"/> 
    <rt:dyn type="X" mode="constant" value="&quot;T&quot;"/> 
    <rt:dyn type="ValueToTheRight" mode="constant" value="false"/> 
  </image>
  <image x="333.031" y="262.515" width="175" height="25" xlink:href="DS_ana.svg">
    <title>10SBC14CT010</title>
    <rt:dyn type="ShowFrame" mode="constant" value="true"/> 
    <rt:dyn type="Color_Readings" mode="constant" value="true"/> 
    <rt:dyn type="FKKS" mode="constant" value="&quot;10SBC14CT010&quot;"/> 
    <rt:dyn type="X" mode="constant" value="&quot;T&quot;"/> 
    <rt:dyn type="ValueToTheRight" mode="constant" value="false"/> 
  </image>
  <image x="333.031" y="494.174" width="175" height="25" xlink:href="DS_ana.svg">
    <title>10SBC14CT011</title>
    <rt:dyn type="ShowFrame" mode="constant" value="true"/> 
    <rt:dyn type="Color_Readings" mode="constant" value="true"/> 
    <rt:dyn type="FKKS" mode="constant" value="&quot;10SBC14CT011&quot;"/> 
    <rt:dyn type="X" mode="constant" value="&quot;T&quot;"/> 
    <rt:dyn type="ValueToTheRight" mode="constant" value="false"/> 
  </image>
  <image x="333.031" y="745.174" width="175" height="25" xlink:href="DS_ana.svg">
    <title>10SBC14CT012</title>
    <rt:dyn type="ShowFrame" mode="constant" value="true"/> 
    <rt:dyn type="Color_Readings" mode="constant" value="true"/> 
    <rt:dyn type="FKKS" mode="constant" value="&quot;10SBC14CT012&quot;"/> 
    <rt:dyn type="X" mode="constant" value="&quot;T&quot;"/> 
    <rt:dyn type="ValueToTheRight" mode="constant" value="false"/> 
  </image>
  <polygon points="2139.11,-1301.55 2126.61,-1276.05 2152.61,-1276.55" transform="flipY(130.905) rotate(90 1392.93 388.195) scale(0.62 0.62 1341 369.75) rotate(270 1341 369.75)"/> 
</svg>
