<?xml  version="1.0" encoding="windows-1251"?>
<svg color="Col_BGSand" xmlns="http://www.w3.org/2000/svg" xmlns:rt="http://www.rts.co.at/2001/XMLSchema/RtSvgPL" xmlns:xlink="http://www.w3.org/1999/xlink" xmlns:xsi="http://www.w3.org/2001/XMLSchema-instance" xsi:schemaLocation="http://www.w3.org/2000/svg C:\RTS\RtSvg\XML\SVG.xsd" viewBox="0 0 1914 1000" width="1914" height="1000" id="skuv_kle24">
  <rt:model modelversion="7.2.0.24" comment="Создано VNIIAES-ASUTP\seregin 22.01.2014 11:20:20"/> 
  <line x1="862" y1="502" x2="862" y2="502" stroke="black"/> 
  <text x="340.212" y="29.5454" font-size="32">Системы вентиляции помещений НЭ и СВО в здании UKC (10KLE24,29,44)</text>
  <line x1="465" y1="100" x2="465" y2="250" stroke="black" stroke-width="3"/> 
  <line x1="333.224" y1="100" x2="465" y2="100" stroke="black" stroke-width="3"/> 
  <text x="290" y="150" font-size="15">10KLE22<tspan x="290" dy="15">AN001</tspan>
  </text>
  <text x="290" y="300" font-size="15">10KLE24<tspan x="290" dy="15">AN002</tspan>
  </text>
  <line x1="115" y1="236" x2="301.592" y2="236" stroke="black" stroke-width="3"/> 
  <image x="155" y="193.5" width="70" height="65" xlink:href="DS_CO_valve.svg">
    <title>10KLE24AA014</title>
    <rt:dyn type="KKS" mode="constant" value="&quot;10KLE24AA014&quot;"/> 
    <rt:dyn type="DATA_NARY" mode="constant" value="&quot;TPTS&quot;"/> 
    <rt:dyn type="Operate" mode="constant" value="true"/> 
  </image>
  <text x="161" y="274.265" font-size="15">10KLE24<tspan x="161" dy="15">AA014</tspan>
  </text>
  <line x1="115" y1="86" x2="301.592" y2="86" stroke="black" stroke-width="3"/> 
  <image x="155" y="43.5" width="70" height="65" xlink:href="DS_CO_valve.svg">
    <title>10KLE24AA013</title>
    <rt:dyn type="KKS" mode="constant" value="&quot;10KLE24AA013&quot;"/> 
    <rt:dyn type="DATA_NARY" mode="constant" value="&quot;TPTS&quot;"/> 
    <rt:dyn type="Operate" mode="constant" value="true"/> 
  </image>
  <text x="161" y="124.265" font-size="15">10KLE24<tspan x="161" dy="15">AA013</tspan>
  </text>
  <image x="280" y="65" width="70" height="70" xlink:href="DS_motor.svg" transform="flipX(-1.26362e-005)">
    <title>10KLE24AN001</title>
    <rt:dyn type="KKS" mode="constant" value="&quot;10KLE24AN001&quot;"/> 
    <rt:dyn type="DATA_NARY" mode="constant" value="&quot;TPTS&quot;"/> 
    <rt:dyn type="Operate" mode="constant" value="true"/> 
    <rt:dyn type="DeviceType" mode="constant" value="&quot;fan&quot;"/> 
  </image>
  <line x1="115" y1="84.184" x2="115" y2="236.224" stroke="black" stroke-width="3"/> 
  <line x1="70.6364" y1="148.969" x2="115" y2="148.969" stroke="black" stroke-width="3"/> 
  <text x="5.48483" y="146.697" font-size="15">В вент<tspan x="5.48483" dy="15">трубу</tspan>
  </text>
  <image x="380" y="57.5" width="70" height="65" xlink:href="DS_CO_valve.svg">
    <title>10KLE24AA011</title>
    <rt:dyn type="KKS" mode="constant" value="&quot;10KLE24AA011&quot;"/> 
    <rt:dyn type="DATA_NARY" mode="constant" value="&quot;TPTS&quot;"/> 
    <rt:dyn type="Operate" mode="constant" value="true"/> 
  </image>
  <text x="384" y="138.265" font-size="15">10KLE24<tspan x="384" dy="15">AA011</tspan>
  </text>
  <text x="384" y="288.265" font-size="15">10KLE24<tspan x="384" dy="15">AA012</tspan>
  </text>
  <line x1="333.224" y1="250" x2="465" y2="250" stroke="black" stroke-width="3"/> 
  <image x="380" y="207.5" width="70" height="65" xlink:href="DS_CO_valve.svg">
    <title>10KLE24AA012</title>
    <rt:dyn type="KKS" mode="constant" value="&quot;10KLE24AA012&quot;"/> 
    <rt:dyn type="DATA_NARY" mode="constant" value="&quot;TPTS&quot;"/> 
    <rt:dyn type="Operate" mode="constant" value="true"/> 
  </image>
  <image x="280" y="215" width="70" height="70" xlink:href="DS_motor.svg" transform="flipX(-1.26362e-005)">
    <title>10KLE24AN002</title>
    <rt:dyn type="KKS" mode="constant" value="&quot;10KLE24AN002&quot;"/> 
    <rt:dyn type="DATA_NARY" mode="constant" value="&quot;TPTS&quot;"/> 
    <rt:dyn type="Operate" mode="constant" value="true"/> 
    <rt:dyn type="DeviceType" mode="constant" value="&quot;fan&quot;"/> 
  </image>
  <line x1="600" y1="107" x2="1678" y2="107" stroke="black" stroke-width="3"/> 
  <image x="646.909" y="64.5" width="70" height="65" xlink:href="DS_CO_valve.svg">
    <title>10KLE24AA006</title>
    <rt:dyn type="KKS" mode="constant" value="&quot;10KLE24AA006&quot;"/> 
    <rt:dyn type="DATA_NARY" mode="constant" value="&quot;TPTS&quot;"/> 
    <rt:dyn type="Operate" mode="constant" value="true"/> 
  </image>
  <text x="616" y="145.245" font-size="15">10KLE24AA006</text>
  <line x1="464" y1="198" x2="1678" y2="198" stroke="black" stroke-width="3"/> 
  <line x1="600" y1="106" x2="600" y2="473" stroke="black" stroke-width="3"/> 
  <line x1="1677" y1="106" x2="1677" y2="473" stroke="black" stroke-width="3"/> 
  <image x="646.909" y="155.5" width="70" height="65" xlink:href="DS_CO_valve.svg">
    <title>10KLE24AA007</title>
    <rt:dyn type="KKS" mode="constant" value="&quot;10KLE24AA007&quot;"/> 
    <rt:dyn type="DATA_NARY" mode="constant" value="&quot;TPTS&quot;"/> 
    <rt:dyn type="Operate" mode="constant" value="true"/> 
  </image>
  <text x="616" y="234.245" font-size="15">10KLE24AA007</text>
  <image x="1546.91" y="64.5" width="70" height="65" xlink:href="DS_CO_valve.svg">
    <title>10KLE24AA001</title>
    <rt:dyn type="KKS" mode="constant" value="&quot;10KLE24AA001&quot;"/> 
    <rt:dyn type="DATA_NARY" mode="constant" value="&quot;TPTS&quot;"/> 
    <rt:dyn type="Operate" mode="constant" value="true"/> 
  </image>
  <text x="1515.76" y="145.245" font-size="15">10KLE24AA001</text>
  <image x="1546.91" y="155.5" width="70" height="65" xlink:href="DS_CO_valve.svg">
    <title>10KLE24AA002</title>
    <rt:dyn type="KKS" mode="constant" value="&quot;10KLE24AA002&quot;"/> 
    <rt:dyn type="DATA_NARY" mode="constant" value="&quot;TPTS&quot;"/> 
    <rt:dyn type="Operate" mode="constant" value="true"/> 
  </image>
  <text x="1515" y="234.245" font-size="15">10KLE24AA002</text>
  <line x1="600" y1="289" x2="1878.21" y2="289" stroke="black" stroke-width="3"/> 
  <image x="646.909" y="246.5" width="70" height="65" xlink:href="DS_CO_valve.svg">
    <title>10KLE24AA008</title>
    <rt:dyn type="KKS" mode="constant" value="&quot;10KLE24AA008&quot;"/> 
    <rt:dyn type="DATA_NARY" mode="constant" value="&quot;TPTS&quot;"/> 
    <rt:dyn type="Operate" mode="constant" value="true"/> 
  </image>
  <text x="616" y="326.245" font-size="15">10KLE24AA008</text>
  <image x="1546.91" y="246.5" width="70" height="65" xlink:href="DS_CO_valve.svg">
    <title>10KLE24AA003</title>
    <rt:dyn type="KKS" mode="constant" value="&quot;10KLE24AA003&quot;"/> 
    <rt:dyn type="DATA_NARY" mode="constant" value="&quot;TPTS&quot;"/> 
    <rt:dyn type="Operate" mode="constant" value="true"/> 
  </image>
  <text x="1515" y="326.245" font-size="15">10KLE24AA003</text>
  <line x1="600" y1="380" x2="1678" y2="380" stroke="black" stroke-width="3"/> 
  <image x="646.909" y="337.5" width="70" height="65" xlink:href="DS_CO_valve.svg">
    <title>10KLE24AA009</title>
    <rt:dyn type="KKS" mode="constant" value="&quot;10KLE24AA009&quot;"/> 
    <rt:dyn type="DATA_NARY" mode="constant" value="&quot;TPTS&quot;"/> 
    <rt:dyn type="Operate" mode="constant" value="true"/> 
  </image>
  <text x="616" y="415.245" font-size="15">10KLE24AA009</text>
  <image x="1546.91" y="337.5" width="70" height="65" xlink:href="DS_CO_valve.svg">
    <title>10KLE24AA004</title>
    <rt:dyn type="KKS" mode="constant" value="&quot;10KLE24AA004&quot;"/> 
    <rt:dyn type="DATA_NARY" mode="constant" value="&quot;TPTS&quot;"/> 
    <rt:dyn type="Operate" mode="constant" value="true"/> 
  </image>
  <text x="1515" y="415.245" font-size="15">10KLE24AA004</text>
  <line x1="600" y1="471" x2="1678" y2="471" stroke="black" stroke-width="3"/> 
  <image x="646.909" y="428.92" width="70" height="65" xlink:href="DS_CO_valve.svg">
    <title>10KLE24AA010</title>
    <rt:dyn type="KKS" mode="constant" value="&quot;10KLE24AA010&quot;"/> 
    <rt:dyn type="DATA_NARY" mode="constant" value="&quot;TPTS&quot;"/> 
    <rt:dyn type="Operate" mode="constant" value="true"/> 
  </image>
  <text x="616" y="505.665" font-size="15">10KLE24AA010</text>
  <text x="1515" y="508.665" font-size="15">10KLE24AA005</text>
  <image x="1546.91" y="428.92" width="70" height="65" xlink:href="DS_CO_valve.svg">
    <title>10KLE24AA005</title>
    <rt:dyn type="KKS" mode="constant" value="&quot;10KLE24AA005&quot;"/> 
    <rt:dyn type="DATA_NARY" mode="constant" value="&quot;TPTS&quot;"/> 
    <rt:dyn type="Operate" mode="constant" value="true"/> 
  </image>
  <g transform="scale(1.41 1.41 27.4545 237.121) scale(0.64313 0.64313 1873.19 332.499)">
    <circle cx="911.829" cy="167.221" r="23" fill="gray" stroke="black"/> 
    <path d="M911.829 169.221 L901.829 188.97 L921.829 188.97 " fill="Col_BGSand"/> 
    <path d="M720.036 661.903 L710.286 684.153 L730.286 684.153 " fill="Col_BGSand" transform="rotate(49.456 0 1.4013e-045) flipY(38.875)"/> 
    <path d="M-343.867 -581.418 L-353.617 -559.17 L-333.617 -559.17 " fill="Col_BGSand" transform="flipX(93.5629) rotate(49.456 0 1.4013e-045) flipY(38.875)"/> 
    <circle cx="912.398" cy="167.115" r="8" fill="Col_BGSand"/> 
    <circle cx="912.069" cy="166.904" r="4" fill="gray"/> 
  </g>
  <text x="1778.64" y="319.273" font-size="15">Из периодически<tspan x="1778.64" dy="15">обслуживаемых</tspan>
<tspan x="1778.64" dy="15">помещений</tspan>
<tspan x="1778.64" dy="15">здания UKC</tspan>
  </text>
  <line x1="718.735" y1="688" x2="1725" y2="688" stroke="black" stroke-width="3"/> 
  <g transform="scale(0.73 0.73 439.5 285.5)">
    <rect x="1140.46" y="1676.05" width="65" height="65" rx="0" ry="0" fill="Col_Grey4" transform="rotate(360 532.506 746.174) rotate(0 532.1 745.087) rotate(314.645 525.5 325)"/> 
    <line x1="1964.85" y1="794.105" x2="1964.85" y2="880.469" stroke="black" stroke-dasharray="5,5"/> 
  </g>
  <line x1="1503.01" y1="628" x2="1503.01" y2="690.245" stroke="black" stroke-dasharray="5,5" stroke-width="1"/> 
  <line x1="1601.3" y1="626.792" x2="1601.3" y2="689.037" stroke="black" stroke-dasharray="5,5" stroke-width="1"/> 
  <image x="1472" y="616" width="175" height="25" xlink:href="DS_ana.svg">
    <title>10KLE44CP001</title>
    <rt:dyn type="IsExp" mode="constant" value="true"/> 
    <rt:dyn type="ShowFrame" mode="constant" value="true"/> 
    <rt:dyn type="Color_Readings" mode="constant" value="true"/> 
    <rt:dyn type="FKKS" mode="constant" value="&quot;10KLE44CP001&quot;"/> 
    <rt:dyn type="ValueToTheRight" mode="constant" value="false"/> 
  </image>
  <text x="1503.01" y="734.751" font-size="15">10KLE44AT001</text>
  <image x="945.606" y="495.576" width="175" height="25" xlink:href="DS_ana.svg">
    <title>10SBT14CT007</title>
    <rt:dyn type="IsExp" mode="constant" value="true"/> 
    <rt:dyn type="ShowFrame" mode="constant" value="true"/> 
    <rt:dyn type="Color_Readings" mode="constant" value="true"/> 
    <rt:dyn type="FKKS" mode="constant" value="&quot;10SBT14CT007&quot;"/> 
    <rt:dyn type="ValueToTheRight" mode="constant" value="false"/> 
  </image>
  <image x="1648.11" y="645.5" width="70" height="65" xlink:href="DS_CO_valve.svg">
    <title>10KLE44AA001</title>
    <rt:dyn type="KKS" mode="constant" value="&quot;10KLE44AA001&quot;"/> 
    <rt:dyn type="DATA_NARY" mode="constant" value="&quot;TPTS&quot;"/> 
    <rt:dyn type="Operate" mode="constant" value="true"/> 
  </image>
  <text x="1645.99" y="727.394" font-size="15">10KLE44<tspan x="1645.99" dy="15">AA001</tspan>
  </text>
  <line x1="377" y1="673" x2="687.245" y2="673" stroke="black" stroke-width="3"/> 
  <image x="665" y="653" width="70" height="70" xlink:href="DS_motor.svg" transform="flipX(-1.26362e-005)">
    <title>10KLE44AN001</title>
    <rt:dyn type="KKS" mode="constant" value="&quot;10KLE44AN001&quot;"/> 
    <rt:dyn type="DATA_NARY" mode="constant" value="&quot;TPTS&quot;"/> 
    <rt:dyn type="Operate" mode="constant" value="true"/> 
    <rt:dyn type="DeviceType" mode="constant" value="&quot;fan&quot;"/> 
  </image>
  <image x="481" y="642" width="175" height="25" xlink:href="DS_ana.svg">
    <title>10KLE44CT001</title>
    <rt:dyn type="IsExp" mode="constant" value="true"/> 
    <rt:dyn type="ShowFrame" mode="constant" value="true"/> 
    <rt:dyn type="Color_Readings" mode="constant" value="true"/> 
    <rt:dyn type="FKKS" mode="constant" value="&quot;10KLE44CT001&quot;"/> 
    <rt:dyn type="ValueToTheRight" mode="constant" value="false"/> 
  </image>
  <image x="392.28" y="643" width="70" height="52.5" xlink:href="DS_reflux_valve.svg" transform="flipX(0.000518333) flipX(0.000250627)">
    <title>10KLE44AT601</title>
    <rt:dyn type="KKS" mode="constant" value="&quot;10KLE44AT601&quot;"/> 
    <rt:dyn type="DATA_NARY" mode="constant" value="&quot;TPTS&quot;"/> 
    <rt:dyn type="Operate" mode="constant" value="true"/> 
  </image>
  <text x="390.159" y="711.265" font-size="15">10KLE44<tspan x="390.159" dy="15">AT601</tspan>
  </text>
  <line x1="718.795" y1="948.337" x2="1725.06" y2="948.337" stroke="black" stroke-width="3"/> 
  <g transform="scale(0.73 0.73 439.5 285.5)">
    <rect x="886.792" y="1926.72" width="65" height="65" rx="0" ry="0" fill="Col_Grey4" transform="rotate(360 532.506 746.174) rotate(0 532.1 745.087) rotate(314.645 525.5 325)"/> 
    <line x1="1964.93" y1="1150.73" x2="1964.93" y2="1237.1" stroke="black" stroke-dasharray="5,5"/> 
  </g>
  <text x="1503" y="994" font-size="15">10KLE24AT001</text>
  <image x="942.576" y="753.031" width="175" height="25" xlink:href="DS_ana.svg">
    <title>10SBT14CT008</title>
    <rt:dyn type="IsExp" mode="constant" value="true"/> 
    <rt:dyn type="ShowFrame" mode="constant" value="true"/> 
    <rt:dyn type="Color_Readings" mode="constant" value="true"/> 
    <rt:dyn type="FKKS" mode="constant" value="&quot;10SBT14CT008&quot;"/> 
    <rt:dyn type="ValueToTheRight" mode="constant" value="false"/> 
  </image>
  <image x="1648.11" y="905.837" width="70" height="65" xlink:href="DS_CO_valve.svg">
    <title>10KLE44AA002</title>
    <rt:dyn type="KKS" mode="constant" value="&quot;10KLE24AA002&quot;"/> 
    <rt:dyn type="DATA_NARY" mode="constant" value="&quot;TPTS&quot;"/> 
    <rt:dyn type="Operate" mode="constant" value="true"/> 
  </image>
  <text x="1645.99" y="984.623" font-size="15">10KLE44<tspan x="1645.99" dy="15">AA002</tspan>
  </text>
  <line x1="1179.06" y1="948.337" x2="1179.06" y2="985.582" stroke="black" stroke-dasharray="5,5" stroke-width="1"/> 
  <image x="1312.39" y="915.546" width="175" height="25" xlink:href="DS_ana.svg">
    <title>10KLE44CT004</title>
    <rt:dyn type="IsExp" mode="constant" value="true"/> 
    <rt:dyn type="ShowFrame" mode="constant" value="true"/> 
    <rt:dyn type="Color_Readings" mode="constant" value="true"/> 
    <rt:dyn type="FKKS" mode="constant" value="&quot;10KLE44CT004&quot;"/> 
    <rt:dyn type="ValueToTheRight" mode="constant" value="false"/> 
  </image>
  <line x1="377" y1="933.337" x2="687.305" y2="933.337" stroke="black" stroke-width="3"/> 
  <image x="665.06" y="913.337" width="70" height="70" xlink:href="DS_motor.svg" transform="flipX(-1.26362e-005)">
    <title>10KLE44AN002</title>
    <rt:dyn type="KKS" mode="constant" value="&quot;10KLE44AN002&quot;"/> 
    <rt:dyn type="DATA_NARY" mode="constant" value="&quot;TPTS&quot;"/> 
    <rt:dyn type="Operate" mode="constant" value="true"/> 
    <rt:dyn type="DeviceType" mode="constant" value="&quot;fan&quot;"/> 
  </image>
  <image x="481.06" y="902.337" width="175" height="25" xlink:href="DS_ana.svg">
    <title>10KLE44CT002</title>
    <rt:dyn type="IsExp" mode="constant" value="true"/> 
    <rt:dyn type="ShowFrame" mode="constant" value="true"/> 
    <rt:dyn type="Color_Readings" mode="constant" value="true"/> 
    <rt:dyn type="FKKS" mode="constant" value="&quot;10KLE44CT002&quot;"/> 
    <rt:dyn type="ValueToTheRight" mode="constant" value="false"/> 
  </image>
  <image x="392.28" y="903.337" width="70" height="52.5" xlink:href="DS_reflux_valve.svg" transform="flipX(0.000528299) flipX(0.000250627)">
    <title>10KLE44AT602</title>
    <rt:dyn type="KKS" mode="constant" value="&quot;10KLE44AT602&quot;"/> 
    <rt:dyn type="DATA_NARY" mode="constant" value="&quot;TPTS&quot;"/> 
    <rt:dyn type="Operate" mode="constant" value="true"/> 
  </image>
  <text x="390.159" y="971.602" font-size="15">10KLE44<tspan x="390.159" dy="15">AT602</tspan>
  </text>
  <line x1="1725" y1="687" x2="1725" y2="949" stroke="black" stroke-width="3"/> 
  <line x1="1503" y1="885.755" x2="1503" y2="948" stroke="black" stroke-dasharray="5,5" stroke-width="1"/> 
  <line x1="1603" y1="884.765" x2="1503" y2="884.765" stroke="black" stroke-dasharray="5,5" stroke-width="1"/> 
  <line x1="1603" y1="885.755" x2="1603" y2="948" stroke="black" stroke-dasharray="5,5" stroke-width="1"/> 
  <image x="1472.24" y="873" width="175" height="25" xlink:href="DS_ana.svg">
    <title>10KLE44CP002</title>
    <rt:dyn type="IsExp" mode="constant" value="true"/> 
    <rt:dyn type="ShowFrame" mode="constant" value="true"/> 
    <rt:dyn type="Color_Readings" mode="constant" value="true"/> 
    <rt:dyn type="FKKS" mode="constant" value="&quot;10KLE44CP002&quot;"/> 
    <rt:dyn type="ValueToTheRight" mode="constant" value="false"/> 
  </image>
  <line x1="377.28" y1="672" x2="377.28" y2="934" stroke="black" stroke-width="3"/> 
  <rect x="86" y="708.153" width="114.576" height="200.938" rx="0" ry="0" fill="none" stroke="black" stroke-width="1"/> 
  <text x="96.3182" y="729" font-size="15">Помещение<tspan x="96.3182" dy="15">приточного</tspan>
<tspan x="96.3182" dy="15">вент центра</tspan>
<tspan x="96.3182" dy="15">здания UKC</tspan>
  </text>
  <line x1="200" y1="850" x2="378" y2="850" stroke="black" stroke-width="3"/> 
  <polygon points="583.948,3935.1 571.448,3960.6 597.448,3960.1" transform="flipX(292.095) flipX(1167.09) rotate(90 169.605 77.602) flipY(392.405) rotate(90 1392.93 388.195) scale(0.62 0.62 1341 369.75) rotate(270 1341 369.75)"/> 
  <line x1="200" y1="775" x2="349" y2="775" stroke="black" stroke-width="3"/> 
  <line x1="1725" y1="826.242" x2="1775" y2="826.242" stroke="black" stroke-width="3"/> 
  <line x1="304.224" y1="375" x2="349" y2="375" stroke="black" stroke-width="3"/> 
  <line x1="304.224" y1="500" x2="349" y2="500" stroke="black" stroke-width="3"/> 
  <line x1="348" y1="375" x2="348" y2="776" stroke="black" stroke-width="3"/> 
  <line x1="111" y1="361" x2="271.061" y2="361" stroke="black" stroke-width="3"/> 
  <image x="255.242" y="340" width="70" height="70" xlink:href="DS_motor.svg" transform="flipX(-1.26362e-005)">
    <title>10KLE29AN001</title>
    <rt:dyn type="KKS" mode="constant" value="&quot;10KLE29AN001&quot;"/> 
    <rt:dyn type="DATA_NARY" mode="constant" value="&quot;TPTS&quot;"/> 
    <rt:dyn type="Operate" mode="constant" value="true"/> 
    <rt:dyn type="DeviceType" mode="constant" value="&quot;fan&quot;"/> 
  </image>
  <line x1="111" y1="486" x2="271.061" y2="486" stroke="black" stroke-width="3"/> 
  <image x="255.242" y="465" width="70" height="70" xlink:href="DS_motor.svg" transform="flipX(-1.26362e-005)">
    <title>10KLE29AN002</title>
    <rt:dyn type="KKS" mode="constant" value="&quot;10KLE29AN002&quot;"/> 
    <rt:dyn type="DATA_NARY" mode="constant" value="&quot;TPTS&quot;"/> 
    <rt:dyn type="Operate" mode="constant" value="true"/> 
    <rt:dyn type="DeviceType" mode="constant" value="&quot;fan&quot;"/> 
  </image>
  <image x="126" y="331" width="70" height="52.5" xlink:href="DS_reflux_valve.svg" transform="flipX(0.000501332) flipX(0.000250627)">
    <title>10KLE29AA601</title>
    <rt:dyn type="KKS" mode="constant" value="&quot;10KLE29AA601&quot;"/> 
    <rt:dyn type="DATA_NARY" mode="constant" value="&quot;TPTS&quot;"/> 
    <rt:dyn type="Operate" mode="constant" value="true"/> 
  </image>
  <image x="126" y="456" width="70" height="52.5" xlink:href="DS_reflux_valve.svg" transform="flipX(0.000501332) flipX(0.000250627)">
    <title>10KLE29AA602</title>
    <rt:dyn type="KKS" mode="constant" value="&quot;10KLE29AA602&quot;"/> 
    <rt:dyn type="DATA_NARY" mode="constant" value="&quot;TPTS&quot;"/> 
    <rt:dyn type="Operate" mode="constant" value="true"/> 
  </image>
  <text x="129" y="397.776" font-size="15">10KLE29<tspan x="129" dy="15">AA601</tspan>
  </text>
  <text x="129" y="523.245" font-size="15">10KLE29<tspan x="129" dy="15">AA602</tspan>
  </text>
  <line x1="111" y1="360.796" x2="111" y2="485.796" stroke="black" stroke-width="3"/> 
  <polygon points="-374.121,1306.36 -386.621,1331.86 -360.621,1331.36" transform="flipY(238.517) flipY(392.405) rotate(90 1392.93 388.195) scale(0.62 0.62 1341 369.75) rotate(270 1341 369.75)"/> 
  <line x1="1764.56" y1="763.775" x2="1764.56" y2="826.02" stroke="black" stroke-dasharray="5,5" stroke-width="1"/> 
  <image x="1732" y="750" width="175" height="25" xlink:href="DS_ana.svg">
    <title>10KLE44CT005</title>
    <rt:dyn type="IsExp" mode="constant" value="true"/> 
    <rt:dyn type="ShowFrame" mode="constant" value="true"/> 
    <rt:dyn type="Color_Readings" mode="constant" value="true"/> 
    <rt:dyn type="FKKS" mode="constant" value="&quot;10KLE44CT005&quot;"/> 
    <rt:dyn type="ValueToTheRight" mode="constant" value="false"/> 
  </image>
  <image x="1304.82" y="656.546" width="175" height="25" xlink:href="DS_ana.svg">
    <title>10KLE44CT003</title>
    <rt:dyn type="IsExp" mode="constant" value="true"/> 
    <rt:dyn type="ShowFrame" mode="constant" value="true"/> 
    <rt:dyn type="Color_Readings" mode="constant" value="true"/> 
    <rt:dyn type="FKKS" mode="constant" value="&quot;10KLE44CT003&quot;"/> 
    <rt:dyn type="ValueToTheRight" mode="constant" value="false"/> 
  </image>
  <text x="667.606" y="633.333" font-size="15">10KLE44<tspan x="667.606" dy="15">AN001</tspan>
  </text>
  <text x="667.606" y="892.424" font-size="15">10KLE44<tspan x="667.606" dy="15">AN002</tspan>
  </text>
  <text x="253.121" y="425" font-size="15">10KLE29<tspan x="253.121" dy="15">AN001</tspan>
  </text>
  <text x="253.121" y="550" font-size="15">10KLE29<tspan x="253.121" dy="15">AN002</tspan>
  </text>
  <g>
    <image x="723.031" y="789.515" width="65" height="25" xlink:href="DS_Reg_degree.svg">
      <title>10QKK11AA204</title>
      <rt:dyn type="KKS" mode="constant" value="&quot;10QKK11AA204&quot;"/> 
    </image>
    <rect x="795.091" y="756.061" width="104.545" height="177.273" rx="0" ry="0" fill="none" stroke="black" stroke-width="1"/> 
    <text x="906.031" y="898.515" font-size="15">10QKK01<tspan x="906.031" dy="15">AA014</tspan>
    </text>
    <text x="801.031" y="897.515" font-size="15">10QKK11<tspan x="801.031" dy="15">AA204</tspan>
    </text>
    <image x="815.031" y="741.515" width="75" height="25" xlink:href="obj_link.svg">
      <rt:dyn type="TextStr" mode="constant" value="&quot;QKK&quot;"/> 
      <rt:dyn type="ModName" mode="constant" value=""/> 
    </image>
    <polygon points="348.105,1070.15 335.605,1095.65 361.605,1095.15" transform="rotate(90 1392.93 388.195) scale(0.62 0.62 1341 369.75) rotate(270 1341 369.75)"/> 
    <text x="792.031" y="990.756" font-size="15">10KLE44AC002</text>
    <image x="760.122" y="805.545" width="70" height="65" xlink:href="DS_Reg_valve.svg" transform="rotate(270 0 0) flipX() flipX() flipY(-10) flipY(-10)">
      <title>10QKK11AA204</title>
      <rt:dyn type="KKS" mode="constant" value="&quot;10QKK11AA204&quot;"/> 
      <rt:dyn type="Operate" mode="constant" value="true"/> 
      <rt:dyn type="DATA_NARY" mode="constant" value="&quot;TPTS&quot;"/> 
    </image>
    <image x="855.031" y="819.015" width="70" height="65" xlink:href="DS_CO_valve.svg" transform="rotate(270 0 -9.99997)">
      <title>10QKK01AA014</title>
      <rt:dyn type="KKS" mode="constant" value="&quot;10QKK01AA014&quot;"/> 
      <rt:dyn type="DATA_NARY" mode="constant" value="&quot;TPTS&quot;"/> 
      <rt:dyn type="Operate" mode="constant" value="true"/> 
    </image>
    <g>
      <polygon points="824.661,924.1 874.661,924.6 874.661,974.1 824.661,974.1" fill="Col_Grey4" stroke="black" stroke-width="2"/> 
      <line x1="839.661" y1="949.6" x2="850.161" y2="938.6" stroke="black" stroke-width="3"/> 
      <line x1="849.661" y1="958.6" x2="859.661" y2="949.1" stroke="black" stroke-width="3"/> 
      <line x1="849.661" y1="959.1" x2="849.661" y2="939.1" stroke="black" stroke-width="3"/> 
      <line x1="824.661" y1="949.6" x2="840.411" y2="949.6" stroke="black" stroke-width="3"/> 
      <line x1="858.991" y1="949.1" x2="874.741" y2="949.1" stroke="black" stroke-width="3"/> 
    </g>
    <polygon points="515.847,-1018.61 503.347,-993.106 529.347,-993.606" transform="flipY(130.905) rotate(90 1392.93 388.195) scale(0.62 0.62 1341 369.75) rotate(270 1341 369.75)"/> 
  </g>
  <g>
    <image x="723.031" y="526" width="65" height="25" xlink:href="DS_Reg_degree.svg">
      <title>10QKK11AA203</title>
      <rt:dyn type="KKS" mode="constant" value="&quot;10QKK11AA203&quot;"/> 
    </image>
    <rect x="795.091" y="492.546" width="104.545" height="177.273" rx="0" ry="0" fill="none" stroke="black" stroke-width="1"/> 
    <text x="906.031" y="635" font-size="15">10QKK01<tspan x="906.031" dy="15">AA013</tspan>
    </text>
    <text x="801.031" y="634" font-size="15">10QKK11<tspan x="801.031" dy="15">AA203</tspan>
    </text>
    <image x="815.031" y="478" width="75" height="25" xlink:href="obj_link.svg">
      <rt:dyn type="TextStr" mode="constant" value="&quot;QKK&quot;"/> 
      <rt:dyn type="ModName" mode="constant" value=""/> 
    </image>
    <polygon points="348.105,645.125 335.604,670.625 361.604,670.125" transform="rotate(90 1392.93 388.195) scale(0.62 0.62 1341 369.75) rotate(270 1341 369.75)"/> 
    <text x="792.031" y="727.241" font-size="15">10KLE44AC001</text>
    <image x="758.758" y="541.03" width="70" height="65" xlink:href="DS_Reg_valve.svg" transform="rotate(270 0 0) flipX() flipX() flipY(-10) flipY(-10)">
      <title>10QKK11AA203</title>
      <rt:dyn type="KKS" mode="constant" value="&quot;10QKK11AA203&quot;"/> 
      <rt:dyn type="Operate" mode="constant" value="true"/> 
      <rt:dyn type="DATA_NARY" mode="constant" value="&quot;TPTS&quot;"/> 
    </image>
    <image x="855.031" y="555.5" width="70" height="65" xlink:href="DS_CO_valve.svg" transform="rotate(270 0 -9.99997)">
      <title>10QKK01AA013</title>
      <rt:dyn type="KKS" mode="constant" value="&quot;10QKK01AA013&quot;"/> 
      <rt:dyn type="DATA_NARY" mode="constant" value="&quot;TPTS&quot;"/> 
      <rt:dyn type="Operate" mode="constant" value="true"/> 
    </image>
    <g>
      <polygon points="824.661,660.585 874.661,661.085 874.661,710.585 824.661,710.585" fill="Col_Grey4" stroke="black" stroke-width="2"/> 
      <line x1="839.661" y1="686.085" x2="850.161" y2="675.085" stroke="black" stroke-width="3"/> 
      <line x1="849.661" y1="695.085" x2="859.661" y2="685.585" stroke="black" stroke-width="3"/> 
      <line x1="849.661" y1="695.585" x2="849.661" y2="675.585" stroke="black" stroke-width="3"/> 
      <line x1="824.661" y1="686.085" x2="840.411" y2="686.085" stroke="black" stroke-width="3"/> 
      <line x1="858.991" y1="685.585" x2="874.741" y2="685.585" stroke="black" stroke-width="3"/> 
    </g>
    <polygon points="515.846,-593.585 503.346,-568.081 529.346,-568.581" transform="flipY(130.905) rotate(90 1392.93 388.195) scale(0.62 0.62 1341 369.75) rotate(270 1341 369.75)"/> 
  </g>
  <g>
    <image x="1054.36" y="789.545" width="65" height="25" xlink:href="DS_Reg_degree.svg">
      <title>10SBC14AA208</title>
      <rt:dyn type="KKS" mode="constant" value="&quot;10SBC14AA208&quot;"/> 
    </image>
    <rect x="1126.42" y="756.091" width="104.545" height="177.273" rx="0" ry="0" fill="none" stroke="black" stroke-width="1"/> 
    <text x="1237.36" y="898.545" font-size="15">10SBC13<tspan x="1237.36" dy="15">AA008</tspan>
    </text>
    <text x="1132.36" y="897.545" font-size="15">10SBC14<tspan x="1132.36" dy="15">AA208</tspan>
    </text>
    <image x="1146.36" y="741.545" width="75" height="25" xlink:href="obj_link.svg">
      <rt:dyn type="TextStr" mode="constant" value="&quot;SBC&quot;"/> 
      <rt:dyn type="ModName" mode="constant" value=""/> 
    </image>
    <polygon points="882.514,1070.2 870.014,1095.7 896.014,1095.2" transform="rotate(90 1392.93 388.195) scale(0.62 0.62 1341 369.75) rotate(270 1341 369.75)"/> 
    <text x="1123.36" y="990.786" font-size="15">10KLE44AH002</text>
    <image x="1090.33" y="804.545" width="70" height="65" xlink:href="DS_Reg_valve.svg" transform="rotate(270 0 0) flipX() flipX() flipY(-10) flipY(-10)">
      <title>10SBC14AA208</title>
      <rt:dyn type="KKS" mode="constant" value="&quot;10SBC14AA208&quot;"/> 
      <rt:dyn type="Operate" mode="constant" value="true"/> 
      <rt:dyn type="DATA_NARY" mode="constant" value="&quot;TPTS&quot;"/> 
    </image>
    <image x="1186.36" y="819.045" width="70" height="65" xlink:href="DS_CO_valve.svg" transform="rotate(270 0 -9.99997)">
      <title>10SBC13AA008</title>
      <rt:dyn type="KKS" mode="constant" value="&quot;10SBC13AA008&quot;"/> 
      <rt:dyn type="DATA_NARY" mode="constant" value="&quot;TPTS&quot;"/> 
      <rt:dyn type="Operate" mode="constant" value="true"/> 
    </image>
    <g>
      <polygon points="1155.99,924.13 1205.99,924.63 1205.99,974.13 1155.99,974.13" fill="Col_Grey4" stroke="black" stroke-width="2"/> 
      <line x1="1170.99" y1="949.63" x2="1181.49" y2="938.63" stroke="black" stroke-width="3"/> 
      <line x1="1180.99" y1="958.63" x2="1190.99" y2="949.13" stroke="black" stroke-width="3"/> 
      <line x1="1180.99" y1="959.13" x2="1180.99" y2="939.13" stroke="black" stroke-width="3"/> 
      <line x1="1155.99" y1="949.63" x2="1171.74" y2="949.63" stroke="black" stroke-width="3"/> 
      <line x1="1190.32" y1="949.13" x2="1206.07" y2="949.13" stroke="black" stroke-width="3"/> 
    </g>
    <polygon points="1050.26,-1018.66 1037.76,-993.155 1063.76,-993.655" transform="flipY(130.905) rotate(90 1392.93 388.195) scale(0.62 0.62 1341 369.75) rotate(270 1341 369.75)"/> 
  </g>
  <g>
    <image x="1054.36" y="529.03" width="65" height="25" xlink:href="DS_Reg_degree.svg">
      <title>10SBC14AA207</title>
      <rt:dyn type="KKS" mode="constant" value="&quot;10SBC14AA207&quot;"/> 
    </image>
    <rect x="1126.42" y="495.576" width="104.545" height="177.273" rx="0" ry="0" fill="none" stroke="black" stroke-width="1"/> 
    <text x="1237.36" y="638.03" font-size="15">10SBC13<tspan x="1237.36" dy="15">AA007</tspan>
    </text>
    <text x="1132.36" y="637.03" font-size="15">10SBC14<tspan x="1132.36" dy="15">AA207</tspan>
    </text>
    <image x="1146.36" y="481.03" width="75" height="25" xlink:href="obj_link.svg">
      <rt:dyn type="TextStr" mode="constant" value="&quot;SBC&quot;"/> 
      <rt:dyn type="ModName" mode="constant" value=""/> 
    </image>
    <polygon points="882.514,650.013 870.013,675.513 896.013,675.013" transform="rotate(90 1392.93 388.195) scale(0.62 0.62 1341 369.75) rotate(270 1341 369.75)"/> 
    <text x="1123.36" y="730.271" font-size="15">10KLE44AC001</text>
    <image x="1090.09" y="544.06" width="70" height="65" xlink:href="DS_Reg_valve.svg" transform="rotate(270 0 0) flipX() flipX() flipY(-10) flipY(-10)">
      <title>10SBC14AA207</title>
      <rt:dyn type="KKS" mode="constant" value="&quot;10SBC14AA207&quot;"/> 
      <rt:dyn type="Operate" mode="constant" value="true"/> 
      <rt:dyn type="DATA_NARY" mode="constant" value="&quot;TPTS&quot;"/> 
    </image>
    <image x="1186.36" y="558.53" width="70" height="65" xlink:href="DS_CO_valve.svg" transform="rotate(270 0 -9.99997)">
      <title>10SBC13AA007</title>
      <rt:dyn type="KKS" mode="constant" value="&quot;10SBC13AA007&quot;"/> 
      <rt:dyn type="DATA_NARY" mode="constant" value="&quot;TPTS&quot;"/> 
      <rt:dyn type="Operate" mode="constant" value="true"/> 
    </image>
    <g>
      <polygon points="1155.99,663.615 1205.99,664.115 1205.99,713.615 1155.99,713.615" fill="Col_Grey4" stroke="black" stroke-width="2"/> 
      <line x1="1170.99" y1="689.115" x2="1181.49" y2="678.115" stroke="black" stroke-width="3"/> 
      <line x1="1180.99" y1="698.115" x2="1190.99" y2="688.615" stroke="black" stroke-width="3"/> 
      <line x1="1180.99" y1="698.615" x2="1180.99" y2="678.615" stroke="black" stroke-width="3"/> 
      <line x1="1155.99" y1="689.115" x2="1171.74" y2="689.115" stroke="black" stroke-width="3"/> 
      <line x1="1190.32" y1="688.615" x2="1206.07" y2="688.615" stroke="black" stroke-width="3"/> 
    </g>
    <polygon points="1050.26,-598.473 1037.76,-572.969 1063.76,-573.469" transform="flipY(130.905) rotate(90 1392.93 388.195) scale(0.62 0.62 1341 369.75) rotate(270 1341 369.75)"/> 
  </g>
  <polygon points="-321.684,6530.81 -334.184,6556.31 -308.184,6555.81" transform="flipX(292.095) flipX(1167.09) rotate(90 169.605 77.602) flipY(392.405) rotate(90 1392.93 388.195) scale(0.62 0.62 1341 369.75) rotate(270 1341 369.75)"/> 
  <image x="1689.24" y="253.515" width="175" height="25" xlink:href="DS_ana.svg">
    <title>10KLE24CR401</title>
    <rt:dyn type="IsExp" mode="constant" value="true"/> 
    <rt:dyn type="ShowFrame" mode="constant" value="true"/> 
    <rt:dyn type="Color_Readings" mode="constant" value="true"/> 
    <rt:dyn type="FKKS" mode="constant" value="&quot;10KLE24CR401&quot;"/> 
  </image>
  <g>
    <g transform="scale(0.73 0.73 439.5 285.5)">
      <rect x="1483.19" y="892.405" width="65" height="65" rx="0" ry="0" fill="Col_Grey4" transform="rotate(360 532.506 746.174) rotate(0 532.1 745.087) rotate(314.645 525.5 325)"/> 
      <line x1="1648.14" y1="-0.416237" x2="1648.14" y2="85.9478" stroke="black" stroke-dasharray="5,5"/> 
    </g>
    <line x1="1271.82" y1="45.9999" x2="1271.82" y2="108.245" stroke="black" stroke-dasharray="5,5" stroke-width="1"/> 
    <line x1="1370.11" y1="46.7919" x2="1370.11" y2="109.037" stroke="black" stroke-dasharray="5,5" stroke-width="1"/> 
    <image x="1240.81" y="41" width="175" height="25" xlink:href="DS_ana.svg">
      <title>10KLE24CP001</title>
      <rt:dyn type="IsExp" mode="constant" value="true"/> 
      <rt:dyn type="ShowFrame" mode="constant" value="true"/> 
      <rt:dyn type="Color_Readings" mode="constant" value="true"/> 
      <rt:dyn type="FKKS" mode="constant" value="&quot;10KLE24CP001&quot;"/> 
      <rt:dyn type="ValueToTheRight" mode="constant" value="false"/> 
    </image>
    <text x="1284.12" y="156.697" font-size="15">10KLE24<tspan x="1284.12" dy="15">AT001</tspan>
    </text>
  </g>
  <g>
    <g transform="scale(0.73 0.73 439.5 285.5)">
      <rect x="1305.33" y="1065.16" width="65" height="65" rx="0" ry="0" fill="Col_Grey4" transform="rotate(360 532.506 746.174) rotate(0 532.1 745.087) rotate(314.645 525.5 325)"/> 
      <line x1="1646.07" y1="247.53" x2="1646.07" y2="333.893" stroke="black" stroke-dasharray="5,5"/> 
    </g>
    <text x="1285.64" y="338.333" font-size="15">10KLE24<tspan x="1285.64" dy="15">AT003</tspan>
    </text>
    <g>
      <line x1="1270.3" y1="226.755" x2="1270.3" y2="289" stroke="black" stroke-dasharray="5,5" stroke-width="1"/> 
      <line x1="1370.3" y1="225.765" x2="1270.3" y2="225.765" stroke="black" stroke-dasharray="5,5" stroke-width="1"/> 
      <line x1="1370.3" y1="226.755" x2="1370.3" y2="289" stroke="black" stroke-dasharray="5,5" stroke-width="1"/> 
    </g>
    <image x="1240.06" y="223" width="175" height="25" xlink:href="DS_ana.svg">
      <title>10KLE24CP003</title>
      <rt:dyn type="IsExp" mode="constant" value="true"/> 
      <rt:dyn type="ShowFrame" mode="constant" value="true"/> 
      <rt:dyn type="Color_Readings" mode="constant" value="true"/> 
      <rt:dyn type="FKKS" mode="constant" value="&quot;10KLE24CP003&quot;"/> 
      <rt:dyn type="ValueToTheRight" mode="constant" value="false"/> 
    </image>
  </g>
  <g>
    <g transform="scale(0.73 0.73 439.5 285.5)">
      <rect x="1131.14" y="1240.49" width="65" height="65" rx="0" ry="0" fill="Col_Grey4" transform="rotate(360 532.506 746.174) rotate(0 532.1 745.087) rotate(314.645 525.5 325)"/> 
      <line x1="1648.41" y1="494.678" x2="1648.41" y2="581.042" stroke="black" stroke-dasharray="5,5"/> 
    </g>
    <text x="1285" y="516.388" font-size="15">10KLE24<tspan x="1285" dy="15">AT005</tspan>
    </text>
    <line x1="1272" y1="408.755" x2="1272" y2="471" stroke="black" stroke-dasharray="5,5" stroke-width="1"/> 
    <line x1="1401" y1="408.755" x2="1401" y2="471" stroke="black" stroke-dasharray="5,5" stroke-width="1"/> 
    <image x="1241" y="402.878" width="175" height="25" xlink:href="DS_ana.svg">
      <title>10KLE24CP005</title>
      <rt:dyn type="IsExp" mode="constant" value="true"/> 
      <rt:dyn type="ShowFrame" mode="constant" value="true"/> 
      <rt:dyn type="Color_Readings" mode="constant" value="true"/> 
      <rt:dyn type="FKKS" mode="constant" value="&quot;10KLE24CP005&quot;"/> 
      <rt:dyn type="ValueToTheRight" mode="constant" value="false"/> 
    </image>
  </g>
  <g>
    <g transform="scale(0.73 0.73 439.5 285.5)">
      <rect x="1056.82" y="636.164" width="65" height="65" rx="0" ry="0" fill="Col_Grey4" transform="rotate(360 532.506 746.174) rotate(0 532.1 745.087) rotate(314.645 525.5 325)"/> 
      <line x1="1166.21" y1="122.877" x2="1166.21" y2="209.241" stroke="black" stroke-dasharray="5,5"/> 
    </g>
    <line x1="920" y1="135.755" x2="920" y2="198" stroke="black" stroke-dasharray="5,5" stroke-width="1"/> 
    <line x1="1020" y1="135.755" x2="1020" y2="198" stroke="black" stroke-dasharray="5,5" stroke-width="1"/> 
    <image x="889.245" y="132" width="175" height="25" xlink:href="DS_ana.svg">
      <title>10KLE24CP002</title>
      <rt:dyn type="IsExp" mode="constant" value="true"/> 
      <rt:dyn type="ShowFrame" mode="constant" value="true"/> 
      <rt:dyn type="Color_Readings" mode="constant" value="true"/> 
      <rt:dyn type="FKKS" mode="constant" value="&quot;10KLE24CP002&quot;"/> 
      <rt:dyn type="ValueToTheRight" mode="constant" value="false"/> 
    </image>
    <text x="936.091" y="244.303" font-size="15">10KLE24<tspan x="936.091" dy="15">AT002</tspan>
    </text>
  </g>
  <g>
    <g transform="scale(0.73 0.73 439.5 285.5)">
      <rect x="879.443" y="811.361" width="65" height="65" rx="0" ry="0" fill="Col_Grey4" transform="rotate(360 532.506 746.174) rotate(0 532.1 745.087) rotate(314.645 525.5 325)"/> 
      <line x1="1166.21" y1="372.193" x2="1166.21" y2="458.557" stroke="black" stroke-dasharray="5,5"/> 
    </g>
    <line x1="920" y1="318.755" x2="920" y2="381" stroke="black" stroke-dasharray="5,5" stroke-width="1"/> 
    <line x1="1020" y1="318.755" x2="1020" y2="381" stroke="black" stroke-dasharray="5,5" stroke-width="1"/> 
    <image x="889.245" y="314" width="175" height="25" xlink:href="DS_ana.svg">
      <title>10KLE24CP004</title>
      <rt:dyn type="IsExp" mode="constant" value="true"/> 
      <rt:dyn type="ShowFrame" mode="constant" value="true"/> 
      <rt:dyn type="Color_Readings" mode="constant" value="true"/> 
      <rt:dyn type="FKKS" mode="constant" value="&quot;10KLE24CP004&quot;"/> 
      <rt:dyn type="ValueToTheRight" mode="constant" value="false"/> 
    </image>
    <text x="940.636" y="426.454" font-size="15">10KLE24<tspan x="940.636" dy="15">AT004</tspan>
    </text>
  </g>
  <polygon points="-547.247,3751.31 -559.747,3776.81 -533.747,3776.31" transform="flipX(73.6329) flipX(113.39) flipX(292.095) flipX(1167.09) rotate(90 169.605 77.602) flipY(392.405) rotate(90 1392.93 388.195) scale(0.62 0.62 1341 369.75) rotate(270 1341 369.75)"/> 
  <text x="5.48483" y="428.788" font-size="15">АТМ</text>
  <line x1="67.451" y1="421.697" x2="111.815" y2="421.697" stroke="black" stroke-width="3"/> 
  <polygon points="-107.364,3756.45 -119.864,3781.95 -93.864,3781.45" transform="flipX(70.4502) flipX(113.39) flipX(292.095) flipX(1167.09) rotate(90 169.605 77.602) flipY(392.405) rotate(90 1392.93 388.195) scale(0.62 0.62 1341 369.75) rotate(270 1341 369.75)"/> 
  <polygon points="545.128,6501.66 532.628,6527.16 558.628,6526.66" transform="flipX(1772.48) flipX(70.4502) flipX(113.39) flipX(292.095) flipX(1167.09) rotate(90 169.605 77.602) flipY(392.405) rotate(90 1392.93 388.195) scale(0.62 0.62 1341 369.75) rotate(270 1341 369.75)"/> 
</svg>
