<?xml  version="1.0" encoding="UTF-8"?>
<svg color="Col_BGSand" xmlns="http://www.w3.org/2000/svg" xmlns:rt="http://www.rts.co.at/2001/XMLSchema/RtSvgPL" xmlns:xlink="http://www.w3.org/1999/xlink" xmlns:xsi="http://www.w3.org/2001/XMLSchema-instance" xsi:schemaLocation="http://www.w3.org/2000/svg C:\RTS\RtSvg\XML\SVG.xsd" viewBox="0 0 1914 1000" width="1914" height="1000" id="skuv_sac_kle">
  <title>Система вентиляции</title>
  <rt:model modelversion="7.2.0.23" comment="Создано Svetlana-VAIO\Svetlana 12.02.2014 18:27:25"/> 
  <text x="255.394" y="28.4242" font-size="32">Приточные противодымные системы вентиляции (10SAC91-92,94-95, 10KLE90-92)</text>
  <g>
    <text x="169.758" y="246.213" font-size="15">10KLE90<tspan x="169.758" dy="15">AN002</tspan>
    </text>
    <line x1="197.03" y1="178.183" x2="267" y2="178.183" stroke="black" stroke-width="3"/> 
    <text x="49" y="240.183" font-size="15">10KLE90<tspan x="49" dy="15">AA001</tspan>
    </text>
    <text x="49" y="353.183" font-size="15">10KLE90<tspan x="49" dy="15">AA002</tspan>
    </text>
    <line x1="39.1818" y1="199" x2="132" y2="199" stroke="black" stroke-width="3"/> 
    <line x1="39.1818" y1="312" x2="133" y2="312" stroke="black" stroke-width="3"/> 
    <image x="52.061" y="156.334" width="70" height="65" xlink:href="DS_CO_valve.svg">
      <title>10KLE90AA001</title>
      <rt:dyn type="KKS" mode="constant" value="&quot;10KLE90AA001&quot;"/> 
      <rt:dyn type="DATA_NARY" mode="constant" value="&quot;TPTS&quot;"/> 
      <rt:dyn type="Operate" mode="constant" value="true"/> 
    </image>
    <image x="52.091" y="269.092" width="70" height="65" xlink:href="DS_CO_valve.svg">
      <title>10KLE90AA002</title>
      <rt:dyn type="KKS" mode="constant" value="&quot;10KLE90AA002&quot;"/> 
      <rt:dyn type="DATA_NARY" mode="constant" value="&quot;TPTS&quot;"/> 
      <rt:dyn type="Operate" mode="constant" value="true"/> 
    </image>
    <line x1="286.183" y1="623.5" x2="400.183" y2="623.5" stroke="black" stroke-width="3" transform="rotate(90 422 333.5)"/> 
    <line x1="286.183" y1="715.5" x2="507.183" y2="715.5" stroke="black" stroke-width="3" transform="rotate(90 422 333.5)"/> 
    <line x1="131.273" y1="249.183" x2="150.5" y2="249.183" stroke="black" stroke-width="3"/> 
    <line x1="167.183" y1="605.5" x2="518.683" y2="605.5" stroke="black" stroke-width="3" transform="rotate(90 422 333.5)"/> 
    <line x1="198.952" y1="296.183" x2="265.121" y2="296.153" stroke="black" stroke-width="3"/> 
    <line x1="151.183" y1="490" x2="267.986" y2="490" stroke="black" stroke-width="3" transform="rotate(90 422 333.5)"/> 
    <line x1="266.659" y1="97.6528" x2="469.667" y2="97.6681" stroke="black" stroke-width="3"/> 
    <text x="170" y="363.683" font-size="15">10KLE90<tspan x="170" dy="15">AN003</tspan>
    </text>
    <line x1="197.182" y1="63.1833" x2="267.151" y2="63.1833" stroke="black" stroke-width="3"/> 
    <line x1="197.952" y1="412.531" x2="265" y2="412.183" stroke="black" stroke-width="3"/> 
    <text x="169.758" y="132.213" font-size="15">10KLE90<tspan x="169.758" dy="15">AN001</tspan>
    </text>
    <text x="170" y="480.683" font-size="15">10KLE90<tspan x="170" dy="15">AN004</tspan>
    </text>
    <polygon points="254.228,759.609 261.228,744.609 269.228,759.609" transform="rotate(180 150.864 454.469) rotate(360 0 1.4013e-045) flipY(624.182)"/> 
    <text x="22.5455" y="440.092" font-size="15">АТМ</text>
    <line x1="284" y1="99.1832" x2="284" y2="233.183" stroke="black" stroke-width="3"/> 
    <text x="292.188" y="410.218" font-size="15">10KLE90<tspan x="292.188" dy="15">AA201</tspan>
    </text>
    <image x="296.809" y="302.854" width="65" height="25" xlink:href="DS_Reg_degree.svg">
      <title>10KLE90AA201</title>
      <rt:dyn type="KKS" mode="constant" value="&quot;10KLE90AA201&quot;"/> 
    </image>
    <line x1="386.182" y1="491.909" x2="569.501" y2="491.894" stroke="black" stroke-width="3" transform="rotate(90 422 333.5)"/> 
    <line x1="265.121" y1="373.183" x2="460.576" y2="373.183" stroke="black" stroke-width="3"/> 
    <image x="294.309" y="330.37" width="70" height="65" xlink:href="DS_Reg_valve.svg" transform="rotate(0 0 0) flipX() flipX() flipY(-10) flipY(-10)">
      <title>10KLE90AA201</title>
      <rt:dyn type="KKS" mode="constant" value="&quot;10KLE90AA201&quot;"/> 
      <rt:dyn type="Operate" mode="constant" value="true"/> 
      <rt:dyn type="DATA_NARY" mode="constant" value="&quot;TPTS&quot;"/> 
    </image>
    <line x1="262.091" y1="480.183" x2="463.606" y2="480.183" stroke="black" stroke-width="3"/> 
    <line x1="283.273" y1="233.107" x2="413" y2="233.107" stroke="black" stroke-width="3"/> 
    <text x="292.187" y="269.885" font-size="15">10KLE90<tspan x="292.187" dy="15">AA202</tspan>
    </text>
    <image x="296.809" y="162.52" width="65" height="25" xlink:href="DS_Reg_degree.svg">
      <title>10KLE90AA202</title>
      <rt:dyn type="KKS" mode="constant" value="&quot;10KLE90AA202&quot;"/> 
    </image>
    <image x="294.309" y="190.037" width="70" height="65" xlink:href="DS_Reg_valve.svg" transform="rotate(0 0 0) flipX() flipX() flipY(-10) flipY(-10)">
      <title>10KLE90AA202</title>
      <rt:dyn type="KKS" mode="constant" value="&quot;10KLE90AA202&quot;"/> 
      <rt:dyn type="Operate" mode="constant" value="true"/> 
      <rt:dyn type="DATA_NARY" mode="constant" value="&quot;TPTS&quot;"/> 
    </image>
    <rect x="379.364" y="47.6681" width="150" height="122" rx="0" ry="0" fill="Col_BGSand" stroke="black" stroke-width="2"/> 
    <text x="381.939" y="69.7287" font-size="15">Лифтовые шахты<tspan x="381.939" dy="15">и тамбуры</tspan>
<tspan x="381.939" dy="15">в здании</tspan>
<tspan x="381.939" dy="15">10UKC</tspan>
<tspan x="381.939" dy="15"/> 
<tspan x="381.939" dy="15">10UKC10R501</tspan>
<tspan x="381.939" dy="15">10UKC25R501</tspan>
    </text>
    <rect x="378.606" y="209.456" width="150" height="174.576" rx="0" ry="0" fill="Col_BGSand" stroke="black" stroke-width="2"/> 
    <text x="392.242" y="302.804" font-size="15">10UKC29R016</text>
    <rect x="379.273" y="428.971" width="150" height="80.8182" rx="0" ry="0" fill="Col_BGSand" stroke="black" stroke-width="2"/> 
    <text x="393.667" y="475.441" font-size="15">10UKC04R001</text>
    <g>
      <line x1="149.485" y1="196" x2="187" y2="196" stroke="black" stroke-width="3"/> 
      <line x1="147.97" y1="310" x2="188.922" y2="310" stroke="black" stroke-width="3"/> 
      <line x1="149.485" y1="80.303" x2="187.152" y2="80.303" stroke="black" stroke-width="3"/> 
      <line x1="147.97" y1="429" x2="187.922" y2="429" stroke="black" stroke-width="3"/> 
    </g>
    <image x="166.849" y="44.5468" width="70" height="70" xlink:href="DS_motor.svg">
      <title>10KLE90AN001</title>
      <rt:dyn type="KKS" mode="constant" value="&quot;10KLE90AN001&quot;"/> 
      <rt:dyn type="DATA_NARY" mode="constant" value="&quot;TPTS&quot;"/> 
      <rt:dyn type="DeviceType" mode="constant" value="&quot;fan&quot;"/> 
      <rt:dyn type="Operate" mode="constant" value="true"/> 
    </image>
    <image x="166.697" y="159.395" width="70" height="70" xlink:href="DS_motor.svg">
      <title>10KLE90AN002</title>
      <rt:dyn type="KKS" mode="constant" value="&quot;10KLE90AN002&quot;"/> 
      <rt:dyn type="DATA_NARY" mode="constant" value="&quot;TPTS&quot;"/> 
      <rt:dyn type="DeviceType" mode="constant" value="&quot;fan&quot;"/> 
      <rt:dyn type="Operate" mode="constant" value="true"/> 
    </image>
    <image x="168.619" y="275.516" width="70" height="70" xlink:href="DS_motor.svg">
      <title>10KLE90AN003</title>
      <rt:dyn type="KKS" mode="constant" value="&quot;10KLE90AN003&quot;"/> 
      <rt:dyn type="DATA_NARY" mode="constant" value="&quot;TPTS&quot;"/> 
      <rt:dyn type="DeviceType" mode="constant" value="&quot;fan&quot;"/> 
      <rt:dyn type="Operate" mode="constant" value="true"/> 
    </image>
    <image x="168.619" y="392.516" width="70" height="70" xlink:href="DS_motor.svg">
      <title>10KLE90AN004</title>
      <rt:dyn type="KKS" mode="constant" value="&quot;10KLE90AN004&quot;"/> 
      <rt:dyn type="DATA_NARY" mode="constant" value="&quot;TPTS&quot;"/> 
      <rt:dyn type="DeviceType" mode="constant" value="&quot;fan&quot;"/> 
      <rt:dyn type="Operate" mode="constant" value="true"/> 
    </image>
  </g>
  <g>
    <text x="844.303" y="246.213" font-size="15">10KLE91<tspan x="844.303" dy="15">AN002</tspan>
    </text>
    <line x1="871.575" y1="178.183" x2="941.545" y2="178.183" stroke="black" stroke-width="3"/> 
    <text x="723.545" y="240.183" font-size="15">10KLE91<tspan x="723.545" dy="15">AA001</tspan>
    </text>
    <text x="723.545" y="353.183" font-size="15">10KLE91<tspan x="723.545" dy="15">AA002</tspan>
    </text>
    <line x1="713.242" y1="199" x2="806.545" y2="199" stroke="black" stroke-width="3"/> 
    <line x1="714.758" y1="312" x2="807.545" y2="312" stroke="black" stroke-width="3"/> 
    <image x="726.606" y="156.334" width="70" height="65" xlink:href="DS_CO_valve.svg">
      <title>10KLE91AA001</title>
      <rt:dyn type="KKS" mode="constant" value="&quot;10KLE91AA001&quot;"/> 
      <rt:dyn type="DATA_NARY" mode="constant" value="&quot;TPTS&quot;"/> 
      <rt:dyn type="Operate" mode="constant" value="true"/> 
    </image>
    <image x="726.636" y="269.092" width="70" height="65" xlink:href="DS_CO_valve.svg">
      <title>10KLE91AA002</title>
      <rt:dyn type="KKS" mode="constant" value="&quot;10KLE91AA002&quot;"/> 
      <rt:dyn type="DATA_NARY" mode="constant" value="&quot;TPTS&quot;"/> 
      <rt:dyn type="Operate" mode="constant" value="true"/> 
    </image>
    <line x1="286.183" y1="-51.045" x2="400.183" y2="-51.045" stroke="black" stroke-width="3" transform="rotate(90 422 333.5)"/> 
    <line x1="286.183" y1="40.955" x2="507.183" y2="40.955" stroke="black" stroke-width="3" transform="rotate(90 422 333.5)"/> 
    <line x1="805.818" y1="249.183" x2="825.045" y2="249.183" stroke="black" stroke-width="3"/> 
    <line x1="167.183" y1="-69.045" x2="518.683" y2="-69.045" stroke="black" stroke-width="3" transform="rotate(90 422 333.5)"/> 
    <line x1="873.497" y1="296.183" x2="939.666" y2="296.153" stroke="black" stroke-width="3"/> 
    <line x1="151.183" y1="-184.545" x2="267.986" y2="-184.545" stroke="black" stroke-width="3" transform="rotate(90 422 333.5)"/> 
    <line x1="941.204" y1="97.6528" x2="1144.21" y2="97.6681" stroke="black" stroke-width="3"/> 
    <text x="844.545" y="363.683" font-size="15">10KLE91<tspan x="844.545" dy="15">AN003</tspan>
    </text>
    <line x1="871.727" y1="63.1833" x2="941.696" y2="63.1833" stroke="black" stroke-width="3"/> 
    <line x1="872.497" y1="412.531" x2="939.545" y2="412.183" stroke="black" stroke-width="3"/> 
    <text x="844.303" y="132.213" font-size="15">10KLE91<tspan x="844.303" dy="15">AN001</tspan>
    </text>
    <text x="844.545" y="480.683" font-size="15">10KLE91<tspan x="844.545" dy="15">AN004</tspan>
    </text>
    <polygon points="-420.317,759.609 -413.317,744.609 -405.317,759.609" transform="rotate(180 150.864 454.469) rotate(360 0 1.4013e-045) flipY(624.182)"/> 
    <text x="697.091" y="440.092" font-size="15">АТМ</text>
    <line x1="958.545" y1="99.1833" x2="958.545" y2="233.183" stroke="black" stroke-width="3"/> 
    <text x="966.733" y="410.218" font-size="15">10KLE91<tspan x="966.733" dy="15">AA201</tspan>
    </text>
    <image x="971.354" y="302.853" width="65" height="25" xlink:href="DS_Reg_degree.svg">
      <title>10KLE91AA201</title>
      <rt:dyn type="KKS" mode="constant" value="&quot;10KLE91AA201&quot;"/> 
    </image>
    <line x1="386.182" y1="-182.636" x2="569.501" y2="-182.651" stroke="black" stroke-width="3" transform="rotate(90 422 333.5)"/> 
    <line x1="939.666" y1="373.183" x2="1135.12" y2="373.183" stroke="black" stroke-width="3"/> 
    <image x="968.854" y="330.37" width="70" height="65" xlink:href="DS_Reg_valve.svg" transform="rotate(0 0 0) flipX() flipX() flipY(-10) flipY(-10)">
      <title>10KLE91AA201</title>
      <rt:dyn type="KKS" mode="constant" value="&quot;10KLE91AA201&quot;"/> 
      <rt:dyn type="Operate" mode="constant" value="true"/> 
      <rt:dyn type="DATA_NARY" mode="constant" value="&quot;TPTS&quot;"/> 
    </image>
    <line x1="936.636" y1="480.183" x2="1138.15" y2="480.183" stroke="black" stroke-width="3"/> 
    <line x1="957.818" y1="233.107" x2="1087.54" y2="233.107" stroke="black" stroke-width="3"/> 
    <text x="966.732" y="269.885" font-size="15">10KLE91<tspan x="966.732" dy="15">AA202</tspan>
    </text>
    <image x="971.354" y="162.52" width="65" height="25" xlink:href="DS_Reg_degree.svg">
      <title>10KLE91AA202</title>
      <rt:dyn type="KKS" mode="constant" value="&quot;10KLE91AA202&quot;"/> 
    </image>
    <image x="968.854" y="190.037" width="70" height="65" xlink:href="DS_Reg_valve.svg" transform="rotate(0 0 0) flipX() flipX() flipY(-10) flipY(-10)">
      <title>10KLE91AA202</title>
      <rt:dyn type="KKS" mode="constant" value="&quot;10KLE91AA202&quot;"/> 
      <rt:dyn type="Operate" mode="constant" value="true"/> 
      <rt:dyn type="DATA_NARY" mode="constant" value="&quot;TPTS&quot;"/> 
    </image>
    <rect x="1053.91" y="47.6682" width="150" height="122" rx="0" ry="0" fill="Col_BGSand" stroke="black" stroke-width="2"/> 
    <text x="1056.48" y="69.7288" font-size="15">Лифтовые шахты<tspan x="1056.48" dy="15">и тамбуры</tspan>
<tspan x="1056.48" dy="15">в здании</tspan>
<tspan x="1056.48" dy="15">10UKC</tspan>
<tspan x="1056.48" dy="15">10UKC04R502</tspan>
<tspan x="1056.48" dy="15">10UKC04R601</tspan>
<tspan x="1056.48" dy="15">10UKC04R602</tspan>
    </text>
    <rect x="1053.15" y="209.456" width="150" height="174.576" rx="0" ry="0" fill="Col_BGSand" stroke="black" stroke-width="2"/> 
    <text x="1066.79" y="302.805" font-size="15">10UKC29R020</text>
    <rect x="1053.82" y="428.971" width="150" height="80.8182" rx="0" ry="0" fill="Col_BGSand" stroke="black" stroke-width="2"/> 
    <text x="1067.45" y="460.441" font-size="15">10UKC04R008<tspan x="1067.45" dy="15">10UKC04R009</tspan>
<tspan x="1067.45" dy="15">10UKC04R062</tspan>
    </text>
    <g>
      <line x1="826.576" y1="195.515" x2="864.091" y2="195.515" stroke="black" stroke-width="3"/> 
      <line x1="825.061" y1="309.515" x2="866.013" y2="309.515" stroke="black" stroke-width="3"/> 
      <line x1="826.576" y1="79.8181" x2="864.243" y2="79.8181" stroke="black" stroke-width="3"/> 
      <line x1="825.061" y1="428.515" x2="865.013" y2="428.515" stroke="black" stroke-width="3"/> 
    </g>
    <image x="843.164" y="392.516" width="70" height="70" xlink:href="DS_motor.svg">
      <title>10KLE91AN004</title>
      <rt:dyn type="KKS" mode="constant" value="&quot;10KLE91AN004&quot;"/> 
      <rt:dyn type="DATA_NARY" mode="constant" value="&quot;TPTS&quot;"/> 
      <rt:dyn type="DeviceType" mode="constant" value="&quot;fan&quot;"/> 
      <rt:dyn type="Operate" mode="constant" value="true"/> 
    </image>
    <image x="843.164" y="275.516" width="70" height="70" xlink:href="DS_motor.svg">
      <title>10KLE91AN003</title>
      <rt:dyn type="KKS" mode="constant" value="&quot;10KLE91AN003&quot;"/> 
      <rt:dyn type="DATA_NARY" mode="constant" value="&quot;TPTS&quot;"/> 
      <rt:dyn type="DeviceType" mode="constant" value="&quot;fan&quot;"/> 
      <rt:dyn type="Operate" mode="constant" value="true"/> 
    </image>
    <image x="841.242" y="159.395" width="70" height="70" xlink:href="DS_motor.svg">
      <title>10KLE91AN002</title>
      <rt:dyn type="KKS" mode="constant" value="&quot;10KLE91AN002&quot;"/> 
      <rt:dyn type="DATA_NARY" mode="constant" value="&quot;TPTS&quot;"/> 
      <rt:dyn type="DeviceType" mode="constant" value="&quot;fan&quot;"/> 
      <rt:dyn type="Operate" mode="constant" value="true"/> 
    </image>
    <image x="841.394" y="44.5468" width="70" height="70" xlink:href="DS_motor.svg">
      <title>10KLE91AN001</title>
      <rt:dyn type="KKS" mode="constant" value="&quot;10KLE91AN001&quot;"/> 
      <rt:dyn type="DATA_NARY" mode="constant" value="&quot;TPTS&quot;"/> 
      <rt:dyn type="DeviceType" mode="constant" value="&quot;fan&quot;"/> 
      <rt:dyn type="Operate" mode="constant" value="true"/> 
    </image>
  </g>
  <g>
    <text x="1524.33" y="246.213" font-size="15">10KLE92<tspan x="1524.33" dy="15">AN002</tspan>
    </text>
    <line x1="1551.61" y1="178.183" x2="1621.58" y2="178.183" stroke="black" stroke-width="3"/> 
    <text x="1402.58" y="240.183" font-size="15">10KLE92<tspan x="1402.58" dy="15">AA001</tspan>
    </text>
    <text x="1402.58" y="353.183" font-size="15">10KLE92<tspan x="1402.58" dy="15">AA002</tspan>
    </text>
    <line x1="1392.33" y1="199" x2="1485.58" y2="199" stroke="black" stroke-width="3"/> 
    <line x1="1392.33" y1="312" x2="1486.58" y2="312" stroke="black" stroke-width="3"/> 
    <image x="1405.64" y="156.334" width="70" height="65" xlink:href="DS_CO_valve.svg">
      <title>10KLE92AA001</title>
      <rt:dyn type="KKS" mode="constant" value="&quot;10KLE92AA001&quot;"/> 
      <rt:dyn type="DATA_NARY" mode="constant" value="&quot;TPTS&quot;"/> 
      <rt:dyn type="Operate" mode="constant" value="true"/> 
    </image>
    <image x="1405.67" y="269.092" width="70" height="65" xlink:href="DS_CO_valve.svg">
      <title>10KLE92AA002</title>
      <rt:dyn type="KKS" mode="constant" value="&quot;10KLE92AA002&quot;"/> 
      <rt:dyn type="DATA_NARY" mode="constant" value="&quot;TPTS&quot;"/> 
      <rt:dyn type="Operate" mode="constant" value="true"/> 
    </image>
    <line x1="286.183" y1="-730.076" x2="400.183" y2="-730.076" stroke="black" stroke-width="3" transform="rotate(90 422 333.5)"/> 
    <line x1="286.183" y1="-638.076" x2="507.183" y2="-638.076" stroke="black" stroke-width="3" transform="rotate(90 422 333.5)"/> 
    <line x1="1484.85" y1="249.183" x2="1504.08" y2="249.183" stroke="black" stroke-width="3"/> 
    <line x1="167.183" y1="-748.076" x2="518.683" y2="-748.076" stroke="black" stroke-width="3" transform="rotate(90 422 333.5)"/> 
    <line x1="1553.53" y1="296.183" x2="1619.7" y2="296.153" stroke="black" stroke-width="3"/> 
    <line x1="151.183" y1="-864.576" x2="267.986" y2="-864.576" stroke="black" stroke-width="3" transform="rotate(90 422 333.5)"/> 
    <line x1="1621.23" y1="97.6534" x2="1824.24" y2="97.6684" stroke="black" stroke-width="3"/> 
    <text x="1524.58" y="363.683" font-size="15">10KLE92<tspan x="1524.58" dy="15">AN003</tspan>
    </text>
    <line x1="1551.76" y1="63.1834" x2="1621.73" y2="63.1834" stroke="black" stroke-width="3"/> 
    <line x1="1552.53" y1="412.531" x2="1619.58" y2="412.183" stroke="black" stroke-width="3"/> 
    <text x="1524.33" y="132.213" font-size="15">10KLE92<tspan x="1524.33" dy="15">AN001</tspan>
    </text>
    <text x="1524.58" y="480.683" font-size="15">10KLE92<tspan x="1524.58" dy="15">AN004</tspan>
    </text>
    <polygon points="-1099.35,759.609 -1092.35,744.609 -1084.35,759.609" transform="rotate(180 150.864 454.469) rotate(360 0 1.4013e-045) flipY(624.182)"/> 
    <text x="1376.12" y="440.092" font-size="15">АТМ</text>
    <line x1="1638.58" y1="99.1833" x2="1638.58" y2="233.183" stroke="black" stroke-width="3"/> 
    <text x="1646.76" y="410.218" font-size="15">10KLE92<tspan x="1646.76" dy="15">AA201</tspan>
    </text>
    <image x="1651.38" y="302.853" width="65" height="25" xlink:href="DS_Reg_degree.svg">
      <title>10KLE92AA201</title>
      <rt:dyn type="KKS" mode="constant" value="&quot;10KLE92AA201&quot;"/> 
    </image>
    <line x1="386.182" y1="-862.667" x2="569.501" y2="-862.682" stroke="black" stroke-width="3" transform="rotate(90 422 333.5)"/> 
    <line x1="1619.7" y1="373.183" x2="1815.15" y2="373.183" stroke="black" stroke-width="3"/> 
    <image x="1648.88" y="330.37" width="70" height="65" xlink:href="DS_Reg_valve.svg" transform="rotate(0 0 0) flipX() flipX() flipY(-10) flipY(-10)">
      <title>10KLE92AA201</title>
      <rt:dyn type="KKS" mode="constant" value="&quot;10KLE92AA201&quot;"/> 
      <rt:dyn type="Operate" mode="constant" value="true"/> 
      <rt:dyn type="DATA_NARY" mode="constant" value="&quot;TPTS&quot;"/> 
    </image>
    <line x1="1616.67" y1="480.183" x2="1818.18" y2="480.183" stroke="black" stroke-width="3"/> 
    <line x1="1637.85" y1="233.107" x2="1767.58" y2="233.107" stroke="black" stroke-width="3"/> 
    <text x="1646.76" y="269.885" font-size="15">10KLE92<tspan x="1646.76" dy="15">AA202</tspan>
    </text>
    <image x="1651.38" y="162.52" width="65" height="25" xlink:href="DS_Reg_degree.svg">
      <title>10KLE92AA202</title>
      <rt:dyn type="KKS" mode="constant" value="&quot;10KLE92AA202&quot;"/> 
    </image>
    <image x="1648.88" y="190.037" width="70" height="65" xlink:href="DS_Reg_valve.svg" transform="rotate(0 0 0) flipX() flipX() flipY(-10) flipY(-10)">
      <title>10KLE92AA202</title>
      <rt:dyn type="KKS" mode="constant" value="&quot;10KLE92AA202&quot;"/> 
      <rt:dyn type="Operate" mode="constant" value="true"/> 
      <rt:dyn type="DATA_NARY" mode="constant" value="&quot;TPTS&quot;"/> 
    </image>
    <rect x="1733.94" y="47.6683" width="150" height="122" rx="0" ry="0" fill="Col_BGSand" stroke="black" stroke-width="2"/> 
    <text x="1736.52" y="69.7289" font-size="15">Лифтовые шахты<tspan x="1736.52" dy="15">и тамбуры</tspan>
<tspan x="1736.52" dy="15">в здании</tspan>
<tspan x="1736.52" dy="15">10UKC</tspan>
<tspan x="1736.52" dy="15"/> 
<tspan x="1736.52" dy="15">10UKC10R503</tspan>
<tspan x="1736.52" dy="15">10UKC25R503</tspan>
    </text>
    <rect x="1733.18" y="209.456" width="150" height="174.576" rx="0" ry="0" fill="Col_BGSand" stroke="black" stroke-width="2"/> 
    <text x="1746.82" y="302.805" font-size="15">10UKC32R009</text>
    <rect x="1733.85" y="428.971" width="150" height="80.8182" rx="0" ry="0" fill="Col_BGSand" stroke="black" stroke-width="2"/> 
    <text x="1747.49" y="475.441" font-size="15">10UKC04R032</text>
    <g>
      <line x1="1503.64" y1="196" x2="1541.15" y2="196" stroke="black" stroke-width="3"/> 
      <line x1="1502.12" y1="310" x2="1543.07" y2="310" stroke="black" stroke-width="3"/> 
      <line x1="1503.64" y1="80.303" x2="1541.3" y2="80.303" stroke="black" stroke-width="3"/> 
      <line x1="1502.12" y1="429" x2="1542.07" y2="429" stroke="black" stroke-width="3"/> 
    </g>
    <image x="1521.42" y="44.5469" width="70" height="70" xlink:href="DS_motor.svg">
      <title>10KLE90AN001</title>
      <rt:dyn type="KKS" mode="constant" value="&quot;10KLE90AN001&quot;"/> 
      <rt:dyn type="DATA_NARY" mode="constant" value="&quot;TPTS&quot;"/> 
      <rt:dyn type="DeviceType" mode="constant" value="&quot;fan&quot;"/> 
      <rt:dyn type="Operate" mode="constant" value="true"/> 
    </image>
    <image x="1521.27" y="159.395" width="70" height="70" xlink:href="DS_motor.svg">
      <title>10KLE92AN002</title>
      <rt:dyn type="KKS" mode="constant" value="&quot;10KLE92AN002&quot;"/> 
      <rt:dyn type="DATA_NARY" mode="constant" value="&quot;TPTS&quot;"/> 
      <rt:dyn type="DeviceType" mode="constant" value="&quot;fan&quot;"/> 
      <rt:dyn type="Operate" mode="constant" value="true"/> 
    </image>
    <image x="1523.19" y="275.516" width="70" height="70" xlink:href="DS_motor.svg">
      <title>10KLE92AN003</title>
      <rt:dyn type="KKS" mode="constant" value="&quot;10KLE92AN003&quot;"/> 
      <rt:dyn type="DATA_NARY" mode="constant" value="&quot;TPTS&quot;"/> 
      <rt:dyn type="DeviceType" mode="constant" value="&quot;fan&quot;"/> 
      <rt:dyn type="Operate" mode="constant" value="true"/> 
    </image>
    <image x="1523.19" y="392.516" width="70" height="70" xlink:href="DS_motor.svg">
      <title>10KLE92AN004</title>
      <rt:dyn type="KKS" mode="constant" value="&quot;10KLE92AN004&quot;"/> 
      <rt:dyn type="DATA_NARY" mode="constant" value="&quot;TPTS&quot;"/> 
      <rt:dyn type="DeviceType" mode="constant" value="&quot;fan&quot;"/> 
      <rt:dyn type="Operate" mode="constant" value="true"/> 
    </image>
  </g>
  <g>
    <text x="-7.66648" y="805.06" font-size="15">АТМ</text>
    <text x="182.426" y="632.333" font-size="15">10KLE91<tspan x="182.426" dy="15">AAN005</tspan>
    </text>
    <line x1="209.698" y1="563.53" x2="277.512" y2="563.151" stroke="black" stroke-width="3"/> 
    <line x1="8.6665" y1="581.302" x2="122.667" y2="581.302" stroke="black" stroke-width="3"/> 
    <line x1="7.6665" y1="693.302" x2="123.667" y2="693.302" stroke="black" stroke-width="3"/> 
    <line x1="668.302" y1="632.833" x2="782.302" y2="632.833" stroke="black" stroke-width="3" transform="rotate(90 422 333.5)"/> 
    <line x1="668.302" y1="746.833" x2="871.651" y2="746.984" stroke="black" stroke-width="3" transform="rotate(90 422 333.5)"/> 
    <line x1="667.651" y1="612.984" x2="784.151" y2="612.984" stroke="black" stroke-width="3" transform="rotate(90 422 333.5)"/> 
    <line x1="141.167" y1="580.302" x2="199.668" y2="580.302" stroke="black" stroke-width="3"/> 
    <image x="179.365" y="544.515" width="70" height="70" xlink:href="DS_motor.svg">
      <title>10KLE91AAN005</title>
      <rt:dyn type="KKS" mode="constant" value="&quot;10KLE91AAN005&quot;"/> 
      <rt:dyn type="DATA_NARY" mode="constant" value="&quot;TPTS&quot;"/> 
      <rt:dyn type="DeviceType" mode="constant" value="&quot;fan&quot;"/> 
      <rt:dyn type="Operate" mode="constant" value="true"/> 
    </image>
    <line x1="211.619" y1="677.651" x2="278.662" y2="677.302" stroke="black" stroke-width="3"/> 
    <line x1="143.589" y1="693.924" x2="201.589" y2="694.424" stroke="black" stroke-width="3"/> 
    <image x="181.285" y="658.635" width="70" height="70" xlink:href="DS_motor.svg">
      <title>10KLE91AAN006</title>
      <rt:dyn type="KKS" mode="constant" value="&quot;10KLE91AAN006&quot;"/> 
      <rt:dyn type="DATA_NARY" mode="constant" value="&quot;TPTS&quot;"/> 
      <rt:dyn type="DeviceType" mode="constant" value="&quot;fan&quot;"/> 
      <rt:dyn type="Operate" mode="constant" value="true"/> 
    </image>
    <line x1="650.651" y1="477.984" x2="767.151" y2="478.484" stroke="black" stroke-width="3" transform="rotate(90 422 333.5)"/> 
    <line x1="278.662" y1="621.302" x2="306.162" y2="621.302" stroke="black" stroke-width="3"/> 
    <text x="182.668" y="746.802" font-size="15">10KLE91<tspan x="182.668" dy="15">AAN006</tspan>
    </text>
    <rect x="306.032" y="548.242" width="149.727" height="161.516" rx="0" ry="0" fill="Col_BGSand" stroke="black" stroke-width="2"/> 
    <text x="308.472" y="597.561" font-size="15">Лифтовые шахты<tspan x="308.472" dy="15">и тамбуры</tspan>
<tspan x="308.472" dy="15">в здании</tspan>
<tspan x="308.472" dy="15">10UKC</tspan>
<tspan x="308.472" dy="15"/> 
<tspan x="308.472" dy="15">10UKC25R502</tspan>
    </text>
    <g transform="rotate(270 836.616 91.8381) flipX(1631.44) rotate(180 1212.44 532.643)">
      <polygon points="3238.93,-1066.48 3252.31,-1058.84 3252.31,-1074.13 3238.93,-1066.48" fill="black" stroke="black" stroke-width="1" transform="rotate(180 1279.17 367.814)"/> 
    </g>
    <rect x="204.848" y="918.605" width="156.576" height="80.8182" rx="0" ry="0" fill="Col_BGSand" stroke="black" stroke-width="2"/> 
    <text x="222.53" y="965.075" font-size="15">10UKC39R002</text>
    <line x1="291.182" y1="621.666" x2="291.182" y2="920.151" stroke="black" stroke-width="3"/> 
    <text x="167.938" y="832.969" font-size="15">10KLE91<tspan x="167.938" dy="15">AA203</tspan>
    </text>
    <image x="218.409" y="783.215" width="65" height="25" xlink:href="DS_Reg_degree.svg">
      <title>10KLE91AA203</title>
      <rt:dyn type="KKS" mode="constant" value="&quot;10KLE91AA203&quot;"/> 
    </image>
    <image x="256.879" y="799.487" width="70" height="65" xlink:href="DS_Reg_valve.svg" transform="rotate(270 0 0) flipX() flipX() flipY(-10) flipY(-10)">
      <title>10KLE91AA203</title>
      <rt:dyn type="KKS" mode="constant" value="&quot;10KLE91AA203&quot;"/> 
      <rt:dyn type="Operate" mode="constant" value="true"/> 
      <rt:dyn type="DATA_NARY" mode="constant" value="&quot;TPTS&quot;"/> 
    </image>
    <text x="29.8175" y="622.152" font-size="15">10KLE91<tspan x="29.8175" dy="15">AA003</tspan>
    </text>
    <text x="29.8175" y="735.152" font-size="15">10KLE91<tspan x="29.8175" dy="15">AA004</tspan>
    </text>
    <image x="26.8785" y="538.303" width="70" height="65" xlink:href="DS_CO_valve.svg">
      <title>10KLE91AA003</title>
      <rt:dyn type="KKS" mode="constant" value="&quot;10KLE91AA003&quot;"/> 
      <rt:dyn type="DATA_NARY" mode="constant" value="&quot;TPTS&quot;"/> 
      <rt:dyn type="Operate" mode="constant" value="true"/> 
    </image>
    <image x="26.9085" y="651.063" width="70" height="65" xlink:href="DS_CO_valve.svg">
      <title>10KLE91AA004</title>
      <rt:dyn type="KKS" mode="constant" value="&quot;10KLE91AA004&quot;"/> 
      <rt:dyn type="DATA_NARY" mode="constant" value="&quot;TPTS&quot;"/> 
      <rt:dyn type="Operate" mode="constant" value="true"/> 
    </image>
    <line x1="124.363" y1="634.257" x2="143.59" y2="634.257" stroke="black" stroke-width="3"/> 
  </g>
  <g>
    <text x="477.394" y="805.757" font-size="15">АТМ</text>
    <text x="667.483" y="633.03" font-size="15">10SAC94<tspan x="667.483" dy="15">AN001</tspan>
    </text>
    <line x1="694.753" y1="564.227" x2="762.573" y2="563.848" stroke="black" stroke-width="3"/> 
    <line x1="493.728" y1="581.999" x2="607.724" y2="581.999" stroke="black" stroke-width="3"/> 
    <line x1="492.728" y1="693.999" x2="608.724" y2="693.999" stroke="black" stroke-width="3"/> 
    <line x1="668.999" y1="147.773" x2="783" y2="147.773" stroke="black" stroke-width="3" transform="rotate(90 422 333.5)"/> 
    <line x1="668.999" y1="261.773" x2="872.348" y2="261.924" stroke="black" stroke-width="3" transform="rotate(90 422 333.5)"/> 
    <line x1="668.348" y1="127.924" x2="784.848" y2="127.924" stroke="black" stroke-width="3" transform="rotate(90 422 333.5)"/> 
    <line x1="626.223" y1="580.999" x2="684.723" y2="580.999" stroke="black" stroke-width="3"/> 
    <image x="664.423" y="545.212" width="70" height="70" xlink:href="DS_motor.svg">
      <title>10SAC94AN001</title>
      <rt:dyn type="KKS" mode="constant" value="&quot;10SAC94AN001&quot;"/> 
      <rt:dyn type="DATA_NARY" mode="constant" value="&quot;TPTS&quot;"/> 
      <rt:dyn type="DeviceType" mode="constant" value="&quot;fan&quot;"/> 
      <rt:dyn type="Operate" mode="constant" value="true"/> 
    </image>
    <line x1="696.683" y1="678.348" x2="763.723" y2="677.999" stroke="black" stroke-width="3"/> 
    <line x1="628.653" y1="694.621" x2="686.653" y2="695.121" stroke="black" stroke-width="3"/> 
    <image x="666.343" y="659.332" width="70" height="70" xlink:href="DS_motor.svg">
      <title>10SAC94AN002</title>
      <rt:dyn type="KKS" mode="constant" value="&quot;10SAC94AN002&quot;"/> 
      <rt:dyn type="DATA_NARY" mode="constant" value="&quot;TPTS&quot;"/> 
      <rt:dyn type="DeviceType" mode="constant" value="&quot;fan&quot;"/> 
      <rt:dyn type="Operate" mode="constant" value="true"/> 
    </image>
    <line x1="651.348" y1="-7.07642" x2="767.848" y2="-6.57642" stroke="black" stroke-width="3" transform="rotate(90 422 333.5)"/> 
    <line x1="763.723" y1="621.999" x2="791.223" y2="621.999" stroke="black" stroke-width="3"/> 
    <text x="667.723" y="747.499" font-size="15">10SAC94<tspan x="667.723" dy="15">AN002</tspan>
    </text>
    <rect x="791.093" y="548.939" width="149.727" height="161.516" rx="0" ry="0" fill="Col_BGSand" stroke="black" stroke-width="2"/> 
    <text x="793.533" y="598.258" font-size="15">Лифтовые шахты<tspan x="793.533" dy="15">и тамбуры</tspan>
<tspan x="793.533" dy="15">в здании</tspan>
<tspan x="793.533" dy="15">10UBB</tspan>
<tspan x="793.533" dy="15"/> 
<tspan x="793.533" dy="15">10UKC10R504</tspan>
    </text>
    <g transform="rotate(270 836.616 91.8381) flipX(1631.44) rotate(180 1212.44 532.643)">
      <polygon points="3239.63,-581.417 3253.01,-573.777 3253.01,-589.067 3239.63,-581.417" fill="black" stroke="black" stroke-width="1" transform="rotate(180 1279.17 367.814)"/> 
    </g>
    <rect x="689.913" y="919.303" width="156.576" height="80.8182" rx="0" ry="0" fill="Col_BGSand" stroke="black" stroke-width="2"/> 
    <text x="707.593" y="965.773" font-size="15">10UKC22R019</text>
    <line x1="776.243" y1="622.363" x2="776.243" y2="920.848" stroke="black" stroke-width="3"/> 
    <text x="653.003" y="833.666" font-size="15">10SAC94<tspan x="653.003" dy="15">AA201</tspan>
    </text>
    <image x="703.473" y="783.913" width="65" height="25" xlink:href="DS_Reg_degree.svg">
      <title>10SAC94AA201</title>
      <rt:dyn type="KKS" mode="constant" value="&quot;10SAC94AA201&quot;"/> 
    </image>
    <image x="741.943" y="800.184" width="70" height="65" xlink:href="DS_Reg_valve.svg" transform="rotate(270 0 0) flipX() flipX() flipY(-10) flipY(-10)">
      <title>10SAC94AA201</title>
      <rt:dyn type="KKS" mode="constant" value="&quot;10SAC94AA201&quot;"/> 
      <rt:dyn type="Operate" mode="constant" value="true"/> 
      <rt:dyn type="DATA_NARY" mode="constant" value="&quot;TPTS&quot;"/> 
    </image>
    <text x="514.879" y="622.849" font-size="15">10SAC94<tspan x="514.879" dy="15">AA001</tspan>
    </text>
    <text x="514.879" y="735.85" font-size="15">10SAC94<tspan x="514.879" dy="15">AA002</tspan>
    </text>
    <image x="511.94" y="539" width="70" height="65" xlink:href="DS_CO_valve.svg">
      <title>10SAC94AA001</title>
      <rt:dyn type="KKS" mode="constant" value="&quot;10SAC94AA001&quot;"/> 
      <rt:dyn type="DATA_NARY" mode="constant" value="&quot;TPTS&quot;"/> 
      <rt:dyn type="Operate" mode="constant" value="true"/> 
    </image>
    <image x="511.971" y="651.76" width="70" height="65" xlink:href="DS_CO_valve.svg">
      <title>10SAC94AA002</title>
      <rt:dyn type="KKS" mode="constant" value="&quot;10SAC94AA002&quot;"/> 
      <rt:dyn type="DATA_NARY" mode="constant" value="&quot;TPTS&quot;"/> 
      <rt:dyn type="Operate" mode="constant" value="true"/> 
    </image>
    <line x1="609.423" y1="634.954" x2="628.653" y2="634.954" stroke="black" stroke-width="3"/> 
  </g>
  <g>
    <text x="1447.51" y="803.758" font-size="15">АТМ</text>
    <text x="1637.6" y="631.031" font-size="15">10SAC95<tspan x="1637.6" dy="15">AN001</tspan>
    </text>
    <line x1="1664.88" y1="562.228" x2="1732.69" y2="561.849" stroke="black" stroke-width="3"/> 
    <line x1="1463.85" y1="580" x2="1577.85" y2="580" stroke="black" stroke-width="3"/> 
    <line x1="1462.85" y1="692" x2="1578.85" y2="692" stroke="black" stroke-width="3"/> 
    <line x1="667" y1="-822.348" x2="781" y2="-822.348" stroke="black" stroke-width="3" transform="rotate(90 422 333.5)"/> 
    <line x1="667" y1="-708.348" x2="870.349" y2="-708.197" stroke="black" stroke-width="3" transform="rotate(90 422 333.5)"/> 
    <line x1="666.349" y1="-842.197" x2="782.849" y2="-842.197" stroke="black" stroke-width="3" transform="rotate(90 422 333.5)"/> 
    <line x1="1596.35" y1="579" x2="1654.85" y2="579" stroke="black" stroke-width="3"/> 
    <image x="1634.54" y="543.213" width="70" height="70" xlink:href="DS_motor.svg">
      <title>10SAC95AN001</title>
      <rt:dyn type="KKS" mode="constant" value="&quot;10SAC95AN001&quot;"/> 
      <rt:dyn type="DATA_NARY" mode="constant" value="&quot;TPTS&quot;"/> 
      <rt:dyn type="DeviceType" mode="constant" value="&quot;fan&quot;"/> 
      <rt:dyn type="Operate" mode="constant" value="true"/> 
    </image>
    <line x1="1666.8" y1="676.349" x2="1733.84" y2="676" stroke="black" stroke-width="3"/> 
    <line x1="1598.77" y1="692.622" x2="1656.77" y2="693.122" stroke="black" stroke-width="3"/> 
    <image x="1636.46" y="657.333" width="70" height="70" xlink:href="DS_motor.svg">
      <title>10SAC95AN002</title>
      <rt:dyn type="KKS" mode="constant" value="&quot;10SAC95AN002&quot;"/> 
      <rt:dyn type="DATA_NARY" mode="constant" value="&quot;TPTS&quot;"/> 
      <rt:dyn type="DeviceType" mode="constant" value="&quot;fan&quot;"/> 
      <rt:dyn type="Operate" mode="constant" value="true"/> 
    </image>
    <line x1="649.349" y1="-977.197" x2="765.849" y2="-976.697" stroke="black" stroke-width="3" transform="rotate(90 422 333.5)"/> 
    <line x1="1733.84" y1="620" x2="1761.34" y2="620" stroke="black" stroke-width="3"/> 
    <text x="1637.85" y="745.5" font-size="15">10SAC95<tspan x="1637.85" dy="15">AN002</tspan>
    </text>
    <rect x="1761.21" y="546.94" width="149.727" height="161.516" rx="0" ry="0" fill="Col_BGSand" stroke="black" stroke-width="2"/> 
    <text x="1763.65" y="596.258" font-size="15">Лифтовые шахты<tspan x="1763.65" dy="15">и тамбуры</tspan>
<tspan x="1763.65" dy="15">в здании</tspan>
<tspan x="1763.65" dy="15">10UKC</tspan>
<tspan x="1763.65" dy="15"/> 
<tspan x="1763.65" dy="15">10UKC10R505</tspan>
    </text>
    <g transform="rotate(270 836.616 91.8381) flipX(1631.44) rotate(180 1212.44 532.643)">
      <polygon points="3237.63,388.717 3251.01,396.357 3251.01,381.067 3237.63,388.717" fill="black" stroke="black" stroke-width="1" transform="rotate(180 1279.17 367.814)"/> 
    </g>
    <rect x="1660.03" y="917.303" width="156.576" height="80.8182" rx="0" ry="0" fill="Col_BGSand" stroke="black" stroke-width="2"/> 
    <text x="1677.72" y="963.772" font-size="15">10UBB29R034</text>
    <line x1="1746.36" y1="620.364" x2="1746.36" y2="918.849" stroke="black" stroke-width="3"/> 
    <text x="1623.12" y="831.667" font-size="15">10SAC95<tspan x="1623.12" dy="15">AA201</tspan>
    </text>
    <image x="1673.59" y="781.913" width="65" height="25" xlink:href="DS_Reg_degree.svg">
      <title>10SAC95AA201</title>
      <rt:dyn type="KKS" mode="constant" value="&quot;10SAC95AA201&quot;"/> 
    </image>
    <image x="1712.06" y="798.185" width="70" height="65" xlink:href="DS_Reg_valve.svg" transform="rotate(270 0 0) flipX() flipX() flipY(-10) flipY(-10)">
      <title>10SAC95AA201</title>
      <rt:dyn type="KKS" mode="constant" value="&quot;10SAC95AA201&quot;"/> 
      <rt:dyn type="Operate" mode="constant" value="true"/> 
      <rt:dyn type="DATA_NARY" mode="constant" value="&quot;TPTS&quot;"/> 
    </image>
    <text x="1485" y="620.85" font-size="15">10SAC95<tspan x="1485" dy="15">AA001</tspan>
    </text>
    <text x="1485" y="733.85" font-size="15">10SAC95<tspan x="1485" dy="15">AA002</tspan>
    </text>
    <image x="1482.06" y="537.001" width="70" height="65" xlink:href="DS_CO_valve.svg">
      <title>10SAC95AA001</title>
      <rt:dyn type="KKS" mode="constant" value="&quot;10SAC95AA001&quot;"/> 
      <rt:dyn type="DATA_NARY" mode="constant" value="&quot;TPTS&quot;"/> 
      <rt:dyn type="Operate" mode="constant" value="true"/> 
    </image>
    <image x="1482.09" y="649.761" width="70" height="65" xlink:href="DS_CO_valve.svg">
      <title>10SAC95AA002</title>
      <rt:dyn type="KKS" mode="constant" value="&quot;10SAC95AA002&quot;"/> 
      <rt:dyn type="DATA_NARY" mode="constant" value="&quot;TPTS&quot;"/> 
      <rt:dyn type="Operate" mode="constant" value="true"/> 
    </image>
    <line x1="1579.54" y1="632.955" x2="1598.77" y2="632.955" stroke="black" stroke-width="3"/> 
  </g>
  <g>
    <text x="962.333" y="804.333" font-size="15">АТМ</text>
    <text x="1152.43" y="631.606" font-size="15">10SAC94<tspan x="1152.43" dy="15">AN003</tspan>
    </text>
    <line x1="1179.7" y1="562.803" x2="1247.51" y2="562.424" stroke="black" stroke-width="3"/> 
    <line x1="978.666" y1="580.575" x2="1092.67" y2="580.575" stroke="black" stroke-width="3"/> 
    <line x1="977.666" y1="692.575" x2="1093.67" y2="692.575" stroke="black" stroke-width="3"/> 
    <line x1="667.575" y1="-337.166" x2="781.575" y2="-337.166" stroke="black" stroke-width="3" transform="rotate(90 422 333.5)"/> 
    <line x1="667.575" y1="-223.167" x2="870.924" y2="-223.016" stroke="black" stroke-width="3" transform="rotate(90 422 333.5)"/> 
    <line x1="666.924" y1="-357.015" x2="783.424" y2="-357.015" stroke="black" stroke-width="3" transform="rotate(90 422 333.5)"/> 
    <line x1="1111.17" y1="579.575" x2="1169.67" y2="579.575" stroke="black" stroke-width="3"/> 
    <image x="1149.36" y="543.788" width="70" height="70" xlink:href="DS_motor.svg">
      <title>10SAC94AN003</title>
      <rt:dyn type="KKS" mode="constant" value="&quot;10SAC94AN003&quot;"/> 
      <rt:dyn type="DATA_NARY" mode="constant" value="&quot;TPTS&quot;"/> 
      <rt:dyn type="DeviceType" mode="constant" value="&quot;fan&quot;"/> 
      <rt:dyn type="Operate" mode="constant" value="true"/> 
    </image>
    <line x1="1181.62" y1="676.924" x2="1248.66" y2="676.575" stroke="black" stroke-width="3"/> 
    <line x1="1113.59" y1="693.197" x2="1171.59" y2="693.697" stroke="black" stroke-width="3"/> 
    <image x="1151.29" y="657.908" width="70" height="70" xlink:href="DS_motor.svg">
      <title>10SAC94AN004</title>
      <rt:dyn type="KKS" mode="constant" value="&quot;10SAC94AN004&quot;"/> 
      <rt:dyn type="DATA_NARY" mode="constant" value="&quot;TPTS&quot;"/> 
      <rt:dyn type="DeviceType" mode="constant" value="&quot;fan&quot;"/> 
      <rt:dyn type="Operate" mode="constant" value="true"/> 
    </image>
    <line x1="649.924" y1="-492.015" x2="766.424" y2="-491.515" stroke="black" stroke-width="3" transform="rotate(90 422 333.5)"/> 
    <line x1="1248.66" y1="620.575" x2="1276.16" y2="620.575" stroke="black" stroke-width="3"/> 
    <text x="1152.67" y="746.075" font-size="15">10SAC94<tspan x="1152.67" dy="15">AN004</tspan>
    </text>
    <rect x="1276.03" y="547.515" width="149.727" height="161.516" rx="0" ry="0" fill="Col_BGSand" stroke="black" stroke-width="2"/> 
    <text x="1278.47" y="596.834" font-size="15">Лифтовые шахты<tspan x="1278.47" dy="15">и тамбуры</tspan>
<tspan x="1278.47" dy="15">в здании</tspan>
<tspan x="1278.47" dy="15">10UKC</tspan>
<tspan x="1278.47" dy="15"/> 
<tspan x="1278.47" dy="15">10UKC10R601</tspan>
<tspan x="1278.47" dy="15">10UKC29R504</tspan>
    </text>
    <g transform="rotate(270 836.616 91.8381) flipX(1631.44) rotate(180 1212.44 532.643)">
      <polygon points="3238.2,-96.4785 3251.58,-88.8385 3251.58,-104.128 3238.2,-96.4785" fill="black" stroke="black" stroke-width="1" transform="rotate(180 1279.17 367.814)"/> 
    </g>
    <rect x="1174.85" y="917.878" width="156.576" height="80.8182" rx="0" ry="0" fill="Col_BGSand" stroke="black" stroke-width="2"/> 
    <text x="1192.53" y="964.348" font-size="15">10UKC22R019</text>
    <line x1="1261.18" y1="620.939" x2="1261.18" y2="919.424" stroke="black" stroke-width="3"/> 
    <text x="1137.94" y="832.242" font-size="15">10SAC94<tspan x="1137.94" dy="15">AA201</tspan>
    </text>
    <image x="1188.41" y="782.488" width="65" height="25" xlink:href="DS_Reg_degree.svg">
      <title>10SAC94AA201</title>
      <rt:dyn type="KKS" mode="constant" value="&quot;10SAC94AA201&quot;"/> 
    </image>
    <image x="1225.88" y="798.091" width="70" height="65" xlink:href="DS_Reg_valve.svg" transform="rotate(270 0 0) flipX() flipX() flipY(-10) flipY(-10)">
      <title>10SAC94AA201</title>
      <rt:dyn type="KKS" mode="constant" value="&quot;10SAC94AA201&quot;"/> 
      <rt:dyn type="Operate" mode="constant" value="true"/> 
      <rt:dyn type="DATA_NARY" mode="constant" value="&quot;TPTS&quot;"/> 
    </image>
    <text x="999.817" y="621.425" font-size="15">10SAC94<tspan x="999.817" dy="15">AA003</tspan>
    </text>
    <text x="999.817" y="734.425" font-size="15">10SAC94<tspan x="999.817" dy="15">AA004</tspan>
    </text>
    <image x="996.878" y="537.576" width="70" height="65" xlink:href="DS_CO_valve.svg">
      <title>10SAC94AA003</title>
      <rt:dyn type="KKS" mode="constant" value="&quot;10SAC94AA003&quot;"/> 
      <rt:dyn type="DATA_NARY" mode="constant" value="&quot;TPTS&quot;"/> 
      <rt:dyn type="Operate" mode="constant" value="true"/> 
    </image>
    <image x="996.908" y="650.336" width="70" height="65" xlink:href="DS_CO_valve.svg">
      <title>10SAC94AA004</title>
      <rt:dyn type="KKS" mode="constant" value="&quot;10SAC94AA004&quot;"/> 
      <rt:dyn type="DATA_NARY" mode="constant" value="&quot;TPTS&quot;"/> 
      <rt:dyn type="Operate" mode="constant" value="true"/> 
    </image>
    <line x1="1094.36" y1="633.53" x2="1113.59" y2="633.53" stroke="black" stroke-width="3"/> 
  </g>
</svg>
