<?xml  version="1.0" encoding="UTF-8"?>
<svg color="Col_BGSand" xmlns="http://www.w3.org/2000/svg" xmlns:rt="http://www.rts.co.at/2001/XMLSchema/RtSvgPL" xmlns:xlink="http://www.w3.org/1999/xlink" xmlns:xsi="http://www.w3.org/2001/XMLSchema-instance" xsi:schemaLocation="http://www.w3.org/2000/svg C:\RTS\RtSvg\XML\SVG.xsd" viewBox="0 0 1940 1000" width="1940" height="1000" id="uispro_1">
  <title>Система управления установками измельчения, сортировки и прессования ТРО</title>
  <rt:model modelversion="7.2.0.24" comment="Создано VNIIAES-ASUTP\seregin 07.08.2013 18:14:20" revision="1.0"/> 
  <rect x="1395.06" y="118.25" width="54.4744" height="22.75" rx="0" ry="0" fill="Col_Grey3" stroke="black"/> 
  <rect x="1354.91" y="225.939" width="138.378" height="102.015" rx="0" ry="0" fill="Col_Grey3" stroke="black"/> 
  <rect x="961.516" y="207.667" width="121.212" height="57.5758" rx="0" ry="0" fill="Col_Grey3" stroke="black"/> 
  <rect x="966.311" y="135.439" width="111.621" height="72.2272" rx="0" ry="0" fill="Col_Grey3" stroke="black"/> 
  <rect x="961.516" y="77.8637" width="121.212" height="57.5758" rx="0" ry="0" fill="Col_Grey3" stroke="black"/> 
  <rect x="925.5" y="74.5" width="193.757" height="22.061" rx="0" ry="0" fill="Col_Grey3" stroke="black"/> 
  <circle cx="1810.84" cy="373.707" r="17.333" fill="Col_Grey3" stroke="Col_Grey5"/> 
  <circle cx="1715.84" cy="373.707" r="17.333" fill="Col_Grey3" stroke="Col_Grey5"/> 
  <circle cx="1472.84" cy="374.707" r="17.333" fill="Col_Grey3" stroke="Col_Grey5"/> 
  <circle cx="1377.84" cy="374.707" r="17.333" fill="Col_Grey3" stroke="Col_Grey5"/> 
  <circle cx="686.837" cy="374.707" r="17.333" fill="Col_Grey3" stroke="Col_Grey5"/> 
  <circle cx="591.837" cy="374.707" r="17.333" fill="Col_Grey3" stroke="Col_Grey5"/> 
  <circle cx="329.837" cy="374.707" r="17.333" fill="Col_Grey3" stroke="Col_Grey5"/> 
  <circle cx="234.837" cy="374.707" r="17.333" fill="Col_Grey3" stroke="Col_Grey5"/> 
  <rect x="624.213" y="161" width="23.58" height="20.4697" rx="0" ry="0" fill="Col_Grey3" stroke="black"/> 
  <rect x="586.003" y="225" width="100" height="117" rx="0" ry="0" fill="Col_Grey3" stroke="black"/> 
  <rect x="611.003" y="213" width="50" height="12" rx="0" ry="0" fill="Col_Grey3" stroke="black"/> 
  <rect x="1409.54" y="180.485" width="25.4999" height="45.8031" rx="0" ry="0" fill="Col_Grey3" stroke="black"/> 
  <rect x="1708.35" y="203.227" width="92.4242" height="22.7273" rx="0" ry="0" fill="Col_Grey3" stroke="black"/> 
  <rect x="899.974" y="75" width="21.947" height="315.863" rx="0" ry="0" fill="Col_Grey3" stroke="black"/> 
  <text x="960" y="32" font-size="26" text-anchor="middle">Система управления установками измельчения, сортировки и прессования ТРО</text>
  <line x1="463.03" y1="896.061" x2="463.03" y2="896.061" stroke="black"/> 
  <polygon points="1626.76,489.273 1626.76,508.274 1643.76,498.273" transform="flipX(36.82) flipX(137.968) flipX(848.955) rotate(90 1.4013e-045 1.9569e-039) flipY(519.712) rotate(270 327.167 125.501) rotate(0 1.4013e-045 1.4013e-045) flipX(158.5)"/> 
  <text x="842.727" y="950" font-size="15" font-weight="normal">Вакуум</text>
  <path d="M-92.5043 50.7549 A8.80483 8.80483 0 1 1 -92.5043 68.3649 " fill="none" stroke="black" stroke-width="3" transform="flipX(560.7) rotate(360 1.4013e-045 4.33918e-039) matrix(-1 3.67394e-016 3.67394e-016 1 130.612 414.62)"/> 
  <polygon points="-1065.89,912.334 -1065.89,931.334 -1048.89,921.334" transform="flipY(927.772) flipY(123.652) flipY(450.924) rotate(0 1.4013e-045 1.9569e-039) flipY(519.712) rotate(270 327.167 125.501) rotate(0 1.4013e-045 1.4013e-045) flipX(158.5)"/> 
  <line x1="1125" y1="550" x2="1125" y2="475" stroke="black" stroke-width="3"/> 
  <image x="290.454" y="517.03" width="175" height="25" xlink:href="DS_ana.svg">
    <title>00KPA50CP002</title>
    <rt:dyn type="FKKS" mode="constant" value="&quot;00KPA50CP002&quot;"/> 
    <rt:dyn type="ShowFrame" mode="constant" value="true"/> 
    <rt:dyn type="Color_Readings" mode="constant" value="true"/> 
    <rt:dyn type="X" mode="constant" value="&quot;P&quot;"/> 
    <rt:dyn type="ValueToTheRight" mode="constant" value="false"/> 
  </image>
  <text x="483" y="907.5" font-size="15">BH1</text>
  <text x="557" y="907.5" font-size="15">BH2</text>
  <rect x="1011.76" y="557.333" width="246.97" height="365.151" rx="0" ry="0" fill="Col_Grey2" stroke="black" stroke-width="3"/> 
  <rect x="1020" y="596" width="230" height="86" rx="0" ry="0" fill="none" stroke="black" stroke-width="3"/> 
  <rect x="1019" y="689" width="231" height="55" rx="0" ry="0" fill="none" stroke="black" stroke-width="3"/> 
  <rect x="1019.85" y="750.818" width="231" height="165.151" rx="0" ry="0" fill="none" stroke="black" stroke-width="3"/> 
  <text x="1134.06" y="573.409" font-size="15" font-weight="700" text-anchor="middle">Установка измельчения<tspan x="1134.06" dy="15">00KPP10</tspan>
  </text>
  <text x="1083.94" y="636.379" font-size="15" font-weight="700">Бокс загрузки<tspan x="1083.94" dy="15">0KPP10BB001</tspan>
  </text>
  <text x="1077.15" y="711.227" font-size="15" font-weight="700">Бокс выгрузки<tspan x="1077.15" dy="15">00KPP10BB002</tspan>
  </text>
  <text x="1099.76" y="780.5" font-size="15" font-weight="normal" text-anchor="middle">Механизм привода<tspan x="1099.76" dy="15">ножа гильотины</tspan>
  </text>
  <text x="1077.91" y="829.53" font-size="15" font-weight="700">Гильотина<tspan x="1077.91" dy="15">00KPP10AJ001</tspan>
  </text>
  <text x="1103.76" y="880.47" font-size="15" font-weight="normal" text-anchor="middle">Механизм прижима<tspan x="1103.76" dy="15">гильотины</tspan>
  </text>
  <rect x="1474.77" y="507.167" width="200.23" height="466.833" rx="0" ry="0" fill="Col_Grey2" stroke="black" stroke-width="3"/> 
  <rect x="1480.89" y="544.682" width="189.11" height="94.318" rx="0" ry="0" fill="Col_Grey2" stroke="black" stroke-width="3"/> 
  <rect x="1480.89" y="645.167" width="188.11" height="97.833" rx="0" ry="0" fill="none" stroke="black" stroke-width="3"/> 
  <rect x="1480.89" y="750.001" width="188.11" height="93.999" rx="0" ry="0" fill="none" stroke="black" stroke-width="3"/> 
  <text x="1509.33" y="523.243" font-size="15" font-weight="700">Бокс сортировки<tspan x="1509.33" dy="15">00KPA10AK001</tspan>
  </text>
  <text x="1573.04" y="562.833" font-size="15" font-weight="700" text-anchor="middle">Питатель<tspan x="1573.04" dy="15">00KPA10AF001</tspan>
  </text>
  <text x="1575.54" y="663.076" font-size="15" font-weight="700" text-anchor="middle">Толкатель<tspan x="1575.54" dy="15">бокса сортировки</tspan>
  </text>
  <text x="1581" y="766" font-size="15" font-weight="700" text-anchor="middle">Крышка бункера<tspan x="1581" dy="15">00KPA10BB001</tspan>
  </text>
  <line x1="583" y1="-162.866" x2="583" y2="389.861" stroke="black" stroke-width="3" transform="rotate(270 1309.23 224.091)"/> 
  <image x="1376.82" y="907.545" width="70" height="65" xlink:href="DS_CO_valve.svg" transform="rotate(0 0.000244141 -10.0001)">
    <rt:dyn type="Operate" mode="constant" value="true"/> 
    <rt:dyn type="KKS" mode="constant" value="&quot;NULL&quot;"/> 
    <rt:dyn type="DATA_NARY" mode="constant" value="&quot;TPTS&quot;"/> 
    <rt:dyn type="Drive" mode="constant" value="&quot;NONE&quot;"/> 
  </image>
  <image x="1264.39" y="596.727" width="25" height="25" xlink:href="bin_indicator.svg">
    <title>00KPP10BB010_XG01</title>
    <rt:dyn type="PointID" mode="constant" value="&quot;00KPP10BB010_XG01&quot;"/> 
  </image>
  <image x="1264.39" y="626.697" width="25" height="25" xlink:href="bin_indicator.svg">
    <title>00KPP10BB011A_XG01</title>
    <rt:dyn type="PointID" mode="constant" value="&quot;00KPP10BB011A_XG01&quot;"/> 
  </image>
  <image x="1264.39" y="656.152" width="25" height="25" xlink:href="bin_indicator.svg">
    <title>00KPP10BB012_XG01</title>
    <rt:dyn type="PointID" mode="constant" value="&quot;00KPP10BB012_XG01&quot;"/> 
  </image>
  <image x="1264.39" y="705.151" width="25" height="25" xlink:href="bin_indicator.svg">
    <title>00KPP10BB011B_XG01</title>
    <rt:dyn type="PointID" mode="constant" value="&quot;00KPP10BB011B_XG01&quot;"/> 
  </image>
  <image x="1264.39" y="755.182" width="25" height="25" xlink:href="bin_indicator.svg">
    <title>00KPP10AJ002_Z0</title>
    <rt:dyn type="PointID" mode="constant" value="&quot;00KPP10AJ002_Z0&quot;"/> 
    <rt:dyn type="BitMask" mode="constant" value="01"/> 
  </image>
  <image x="1264.39" y="784.697" width="25" height="25" xlink:href="bin_indicator.svg">
    <title>00KPP10AJ002_Z0</title>
    <rt:dyn type="PointID" mode="constant" value="&quot;00KPP10AJ002_Z0&quot;"/> 
    <rt:dyn type="BitMask" mode="constant" value="10"/> 
  </image>
  <text x="1295.15" y="612.712" font-size="15" font-weight="normal">Двери закрыты</text>
  <text x="1295.15" y="644.167" font-size="15" font-weight="normal">Крышка 1 закрыта</text>
  <text x="1295.15" y="675.136" font-size="15" font-weight="normal">Крышка 2 закрыта</text>
  <text x="1295.15" y="721.621" font-size="15" font-weight="normal">Крышка закрыта</text>
  <text x="1295.15" y="771.167" font-size="15" font-weight="normal">Вверху</text>
  <text x="1295.15" y="795.682" font-size="15" font-weight="normal">Внизу</text>
  <image x="1681.91" y="582.849" width="25" height="25" xlink:href="bin_indicator.svg">
    <title>00KPA10AF001_ZV01</title>
    <rt:dyn type="PointID" mode="constant" value="&quot;00KPA10AF001_ZV01&quot;"/> 
  </image>
  <image x="1681.91" y="610.819" width="25" height="25" xlink:href="bin_indicator.svg">
    <title>00KPA10AF001_Z0</title>
    <rt:dyn type="PointID" mode="constant" value="&quot;00KPA10AF001_Z0&quot;"/> 
    <rt:dyn type="BitMask" mode="constant" value="10"/> 
  </image>
  <image x="1683" y="662.274" width="25" height="25" xlink:href="bin_indicator.svg">
    <title>00KPA10AF002_Z0</title>
    <rt:dyn type="PointID" mode="constant" value="&quot;00KPA10AF002_Z0&quot;"/> 
    <rt:dyn type="BitMask" mode="constant" value="10"/> 
  </image>
  <image x="1683" y="691.273" width="25" height="25" xlink:href="bin_indicator.svg">
    <title>00KPA10AF002_Z0</title>
    <rt:dyn type="PointID" mode="constant" value="&quot;00KPA10AF002_Z0&quot;"/> 
    <rt:dyn type="BitMask" mode="constant" value="01"/> 
  </image>
  <image x="1681.91" y="749.304" width="25" height="25" xlink:href="bin_indicator.svg">
    <title>00KPA10BB001_Z0</title>
    <rt:dyn type="PointID" mode="constant" value="&quot;00KPA10BB001_Z0&quot;"/> 
    <rt:dyn type="BitMask" mode="constant" value="10"/> 
  </image>
  <image x="1681.91" y="777.819" width="25" height="25" xlink:href="bin_indicator.svg">
    <title>00KPA10BB001_Z0</title>
    <rt:dyn type="PointID" mode="constant" value="&quot;00KPA10BB001_Z0&quot;"/> 
    <rt:dyn type="BitMask" mode="constant" value="01"/> 
  </image>
  <image x="1681.91" y="807.304" width="25" height="25" xlink:href="bin_indicator.svg">
    <title>00KPA10BB001_ZV01</title>
    <rt:dyn type="PointID" mode="constant" value="&quot;00KPA10BB001_ZV01&quot;"/> 
  </image>
  <image x="1681.91" y="836.636" width="25" height="25" xlink:href="bin_indicator.svg">
    <title>00KPA10AK011_XG01</title>
    <rt:dyn type="PointID" mode="constant" value="&quot;00KPA10AK011_XG01&quot;"/> 
  </image>
  <image x="1681.91" y="865.635" width="25" height="25" xlink:href="bin_indicator.svg">
    <title>00KPA10AK012_XG01</title>
    <rt:dyn type="PointID" mode="constant" value="&quot;00KPA10AK012_XG01&quot;"/> 
  </image>
  <image x="1681.91" y="894.666" width="25" height="25" xlink:href="bin_indicator.svg">
    <title>00KPA10AK013_XG01</title>
    <rt:dyn type="PointID" mode="constant" value="&quot;00KPA10AK013_XG01&quot;"/> 
  </image>
  <image x="1681.91" y="924.181" width="25" height="25" xlink:href="bin_indicator.svg">
    <title>00KPA10AK014_XG01</title>
    <rt:dyn type="PointID" mode="constant" value="&quot;00KPA10AK014_XG01&quot;"/> 
  </image>
  <image x="1681.91" y="555" width="25" height="25" xlink:href="bin_indicator.svg">
    <title>00KPA10AF001_Z0</title>
    <rt:dyn type="PointID" mode="constant" value="&quot;00KPA10AF001_Z0&quot;"/> 
    <rt:dyn type="BitMask" mode="constant" value="01"/> 
  </image>
  <text x="1715.18" y="572.227" font-size="15" font-weight="normal">В исходном положении</text>
  <text x="1715.18" y="601.561" font-size="15" font-weight="normal">В зоне пресса &quot;Выгружено&quot;</text>
  <text x="1715.18" y="627.076" font-size="15" font-weight="normal">Крышка закрыта</text>
  <text x="1717.27" y="678.5" font-size="15" font-weight="normal">В исходном положении</text>
  <text x="1715.27" y="710.924" font-size="15" font-weight="normal">В зоне питателя</text>
  <text x="1716.18" y="765.864" font-size="15" font-weight="normal">Крышка открыта</text>
  <text x="1716.18" y="794.258" font-size="15" font-weight="normal">Крышка закрыта</text>
  <text x="1715.18" y="817.197" font-size="15" font-weight="normal">Контейнер установлен<tspan x="1715.18" dy="15">на бункер</tspan>
  </text>
  <text x="1716.18" y="852.621" font-size="15" font-weight="normal">Крышка 1 закрыта</text>
  <text x="1715.18" y="883.045" font-size="15" font-weight="normal">Крышка 2 закрыта</text>
  <text x="1716.18" y="912.5" font-size="15" font-weight="normal">Крышка 3 закрыта</text>
  <text x="1716.18" y="940.864" font-size="15" font-weight="normal">Крышка 4 закрыта</text>
  <image x="1681.91" y="953.15" width="25" height="25" xlink:href="bin_indicator.svg">
    <title>00KPA10AK010_XG01</title>
    <rt:dyn type="PointID" mode="constant" value="&quot;00KPA10AK010_XG01&quot;"/> 
  </image>
  <text x="1715.18" y="966.833" font-size="15" font-weight="normal">Двери закрыты</text>
  <line x1="1053.45" y1="1692.48" x2="1053.45" y2="-80.2433" stroke="black" stroke-width="3" transform="rotate(90 1251.65 590.379)"/> 
  <polygon points="3339.1,338.667 3339.1,357.668 3356.1,347.667" transform="rotate(270 1.4013e-045 1.68139e-039) flipX(36.82) flipX(137.968) flipX(848.955) rotate(90 1.4013e-045 1.9569e-039) flipY(519.712) rotate(270 327.167 125.501) rotate(0 1.4013e-045 1.4013e-045) flipX(158.5)"/> 
  <rect x="194.803" y="79.5911" width="180" height="140.606" rx="0" ry="0" fill="Col_Grey3" stroke="black"/> 
  <rect x="551.182" y="326.939" width="168.182" height="45.4546" rx="0" ry="0" fill="Col_Grey3" stroke="black"/> 
  <polygon points="624,180 586,209 686,210 649,181 623,181" fill="Col_Grey3" stroke="black"/> 
  <rect x="613.003" y="100" width="46" height="64" rx="0" ry="0" fill="Col_Grey3" stroke="black"/> 
  <rect x="202.988" y="224.89" width="165" height="97.7878" rx="0" ry="0" fill="none" stroke="black" stroke-dasharray="10,10"/> 
  <rect x="896.046" y="227.379" width="29.803" height="34.3484" rx="0" ry="0" fill="Col_Grey3" stroke="black"/> 
  <rect x="1123.76" y="69" width="19.52" height="322.212" rx="0" ry="0" fill="Col_Grey3" stroke="black"/> 
  <rect x="1118.62" y="226.894" width="29.803" height="34.3484" rx="0" ry="0" fill="Col_Grey3" stroke="black"/> 
  <rect x="954.447" y="255.758" width="135.349" height="71.7123" rx="0" ry="0" fill="Col_Grey3" stroke="black"/> 
  <rect x="925.243" y="233.939" width="193.757" height="22.061" rx="0" ry="0" fill="Col_Grey3" stroke="black"/> 
  <rect x="896.046" y="70.2879" width="29.803" height="34.3484" rx="0" ry="0" fill="Col_Grey3" stroke="black"/> 
  <rect x="1118.62" y="68.8029" width="29.803" height="34.3484" rx="0" ry="0" fill="Col_Grey3" stroke="black"/> 
  <rect x="1340.01" y="327.954" width="168.182" height="45.4546" rx="0" ry="0" fill="Col_Grey3" stroke="black"/> 
  <polygon points="1395.28,141.5 1409.28,181 1435.28,181 1449.31,141 1395.28,141.5" fill="Col_Grey3" stroke="black"/> 
  <rect x="1409.54" y="72.2727" width="25.4999" height="21.7273" rx="0" ry="0" fill="Col_Grey3" stroke="black"/> 
  <rect x="1662.14" y="327.439" width="184.848" height="45.1212" rx="0" ry="0" fill="Col_Grey3" stroke="black"/> 
  <rect x="1679.56" y="225.439" width="150" height="102.015" rx="0" ry="0" fill="Col_Grey3" stroke="black"/> 
  <rect x="195.864" y="326.803" width="180" height="45.4546" rx="0" ry="0" fill="Col_Grey3" stroke="black"/> 
  <rect x="1679.56" y="92.6213" width="150" height="110.606" rx="0" ry="0" fill="Col_Grey3" stroke="black"/> 
  <image x="1013" y="401" width="25" height="25" xlink:href="bin_indicator.svg">
    <title>00KPA50AE001_ZV02</title>
    <rt:dyn type="PointID" mode="constant" value="&quot;00KPA50AE001_ZV02&quot;"/> 
  </image>
  <polygon points="-1495.33,963.334 -1494.45,982.728 -1477.45,972.728" transform="flipY(927.772) flipY(123.652) flipY(450.924) rotate(0 1.4013e-045 1.9569e-039) flipY(519.712) rotate(270 327.167 125.501) rotate(0 1.4013e-045 1.4013e-045) flipX(158.5)"/> 
  <image x="637" y="398" width="25" height="25" xlink:href="bin_indicator.svg">
    <title>00KPA50AE001_ZV01</title>
    <rt:dyn type="PointID" mode="constant" value="&quot;00KPA50AE001_ZV01&quot;"/> 
  </image>
  <image x="275" y="403" width="25" height="25" xlink:href="bin_indicator.svg">
    <title>00KPA50AE001_Z0</title>
    <rt:dyn type="PointID" mode="constant" value="&quot;00KPA50AE001_Z0&quot;"/> 
    <rt:dyn type="BitMask" mode="constant" value="01"/> 
  </image>
  <image x="1413" y="400" width="25" height="25" xlink:href="bin_indicator.svg">
    <title>00KPA50AE001_ZV03</title>
    <rt:dyn type="PointID" mode="constant" value="&quot;00KPA50AE001_ZV03&quot;"/> 
  </image>
  <text x="183.485" y="417.288" font-size="15" font-weight="normal">Загрузка</text>
  <text x="513" y="418" font-size="15" font-weight="normal">Съем и обжим</text>
  <text x="875.576" y="415.712" font-size="15" font-weight="normal">Прессование</text>
  <text x="1247.7" y="417.197" font-size="15" font-weight="normal">Пылеулавливание</text>
  <image x="863" y="215" width="25" height="25" xlink:href="bin_indicator.svg">
    <title>00KPA50KK005</title>
    <rt:dyn type="PointID" mode="constant" value="&quot;00KPA50KK005_Z0&quot;"/> 
    <rt:dyn type="BitMask" mode="constant" value="01"/> 
  </image>
  <image x="863" y="248" width="25" height="25" xlink:href="bin_indicator.svg">
    <title>00KPA50KK005_Z0</title>
    <rt:dyn type="PointID" mode="constant" value="&quot;00KPA50KK005_Z0&quot;"/> 
    <rt:dyn type="BitMask" mode="constant" value="10"/> 
  </image>
  <image x="1361.36" y="127.454" width="25" height="25" xlink:href="bin_indicator.svg">
    <title>00KPA10AT001_XG01</title>
    <rt:dyn type="PointID" mode="constant" value="&quot;00KPA10AT001_XG01&quot;"/> 
  </image>
  <image x="535" y="124" width="25" height="25" xlink:href="bin_indicator.svg">
    <title>00KPA50KK001_Z0</title>
    <rt:dyn type="PointID" mode="constant" value="&quot;00KPA50KK001_Z0&quot;"/> 
    <rt:dyn type="BitMask" mode="constant" value="01"/> 
  </image>
  <image x="163.455" y="99.0909" width="25" height="25" xlink:href="bin_indicator.svg">
    <title>00KPA50AW001_Z0</title>
    <rt:dyn type="PointID" mode="constant" value="&quot;00KPA50AW001_Z0&quot;"/> 
    <rt:dyn type="BitMask" mode="constant" value="10"/> 
  </image>
  <image x="163.455" y="184.788" width="25" height="25" xlink:href="bin_indicator.svg">
    <title>00KPA50AW001_Z0</title>
    <rt:dyn type="PointID" mode="constant" value="&quot;00KPA50AW001_Z0&quot;"/> 
    <rt:dyn type="BitMask" mode="constant" value="01"/> 
  </image>
  <text x="1592.5" y="949" font-size="15" font-weight="normal" text-anchor="middle">Затвор<tspan x="1592.5" dy="15">00KPA10KA002</tspan>
  </text>
  <polygon points="1463.89,739.334 1463.89,758.335 1480.89,748.334" transform="flipX(36.82) flipX(137.968) flipX(848.955) rotate(90 1.4013e-045 1.9569e-039) flipY(519.712) rotate(270 327.167 125.501) rotate(0 1.4013e-045 1.4013e-045) flipX(158.5)"/> 
  <text x="372" y="974.5" font-size="15" font-weight="normal">К станции заливочно-фильтрующей</text>
  <image x="1750" y="400" width="25" height="25" xlink:href="bin_indicator.svg">
    <title>00KPA50AE001_Z0</title>
    <rt:dyn type="PointID" mode="constant" value="&quot;00KPA50AE001_Z0&quot;"/> 
    <rt:dyn type="BitMask" mode="constant" value="10"/> 
  </image>
  <text x="1662" y="416.5" font-size="15" font-weight="normal">Выгрузка</text>
  <text x="1200" y="169" font-size="15" font-weight="normal">Затвор бункера циклона<tspan x="1200" dy="15">пылеулавливания закрыт</tspan>
  </text>
  <text x="744" y="236.5" font-size="15" font-weight="normal">Гильза вверху</text>
  <text x="755" y="265.5" font-size="15" font-weight="normal">Гильза внизу</text>
  <text x="381" y="140.5" font-size="15" font-weight="normal">Устройство вверху</text>
  <text x="421" y="165.5" font-size="15" font-weight="normal">Съем крышки</text>
  <text x="412" y="199" font-size="15" font-weight="normal">Обжим крышки</text>
  <text x="97" y="109" font-size="15" font-weight="normal">Открыт</text>
  <text x="97" y="196" font-size="15" font-weight="normal">Закрыт</text>
  <text x="205" y="58" font-size="15" font-weight="700">Шибер загрузки<tspan x="205" dy="15">00KPA50AW001</tspan>
  </text>
  <text x="61.6969" y="360.742" font-size="15" font-weight="normal">00KPA50AE001</text>
  <image x="719" y="109" width="175" height="25" xlink:href="DS_ana.svg">
    <title>00KPA50CG001</title>
    <rt:dyn type="FKKS" mode="constant" value="&quot;00KPA50CG001&quot;"/> 
    <rt:dyn type="ShowFrame" mode="constant" value="true"/> 
    <rt:dyn type="Color_Readings" mode="constant" value="true"/> 
    <rt:dyn type="X" mode="constant" value="&quot;G&quot;"/> 
    <rt:dyn type="ValueToTheRight" mode="constant" value="false"/> 
  </image>
  <text x="315" y="684.5" font-size="15" font-weight="normal">00KPA50AP001</text>
  <text x="589" y="684" font-size="15" font-weight="normal">00KPA50AP002</text>
  <polygon points="-798.332,-685.666 -798.332,-666.666 -781.332,-676.666" transform="rotate(270 1.4013e-045 2.32424e-039) flipY(927.772) flipY(123.652) flipY(450.924) rotate(0 1.4013e-045 1.9569e-039) flipY(519.712) rotate(270 327.167 125.501) rotate(0 1.4013e-045 1.4013e-045) flipX(158.5)"/> 
  <polygon points="1396.79,178.348 1409.79,203.348 1434.79,203.348 1447.79,178.348 1396.79,178.348" fill="Col_Grey3" stroke="black" transform="flipY(75.25) flipY(140.25) flipY(212.924)"/> 
  <image x="632.031" y="439.182" width="175" height="25" xlink:href="DS_ana.svg">
    <title>00KPA50CP003</title>
    <rt:dyn type="FKKS" mode="constant" value="&quot;00KPA50CP003&quot;"/> 
    <rt:dyn type="ShowFrame" mode="constant" value="true"/> 
    <rt:dyn type="Color_Readings" mode="constant" value="true"/> 
    <rt:dyn type="X" mode="constant" value="&quot;P&quot;"/> 
    <rt:dyn type="ValueToTheRight" mode="constant" value="false"/> 
  </image>
  <polyline points="475,941 475,525 550,525 550,946" fill="none" stroke="black" stroke-width="3"/> 
  <image x="514.667" y="622.282" width="70" height="70" xlink:href="DS_motor.svg" transform="rotate(270 0 0) flipX(0.000512646) rotate(180 0.000244141 -0.000244141)">
    <title>00KPA50AP001</title>
    <rt:dyn type="KKS" mode="constant" value="&quot;00KPA50AP001&quot;"/> 
    <rt:dyn type="DATA_NARY" mode="constant" value="&quot;TPTS&quot;"/> 
    <rt:dyn type="Operate" mode="constant" value="true"/> 
  </image>
  <image x="440.424" y="622.303" width="70" height="70" xlink:href="DS_motor.svg" transform="rotate(270 0 0) flipX(0.000512646) rotate(180 0.000244141 -0.000244141)">
    <title>00KPA50AP002</title>
    <rt:dyn type="KKS" mode="constant" value="&quot;00KPA50AP002&quot;"/> 
    <rt:dyn type="DATA_NARY" mode="constant" value="&quot;TPTS&quot;"/> 
    <rt:dyn type="Operate" mode="constant" value="true"/> 
  </image>
  <polyline points="900,481.818 900,700 568,700 568.485,707.576" fill="none" stroke="black" stroke-width="3"/> 
  <rect x="984.954" y="617.072" width="57.4004" height="56.1586" rx="3.52863" ry="6.49945" fill="Col_Grey2" stroke="black" stroke-width="3" transform="rotate(45.6265 998.26 491.139)"/> 
  <image x="889.697" y="525" width="25" height="25" xlink:href="bin_indicator.svg">
    <title>00KPA50CP004_XG01</title>
    <rt:dyn type="PointID" mode="constant" value="&quot;00KPA50CP004_XG01&quot;"/> 
  </image>
  <polyline points="1012.42,650 950,650 950,950" fill="none" stroke="black" stroke-width="3"/> 
  <image x="904.227" y="766.954" width="70" height="65" xlink:href="DS_CO_valve.svg" transform="rotate(270 0.000244141 -10.0001)">
    <rt:dyn type="Operate" mode="constant" value="true"/> 
    <rt:dyn type="KKS" mode="constant" value="&quot;NULL&quot;"/> 
    <rt:dyn type="DATA_NARY" mode="constant" value="&quot;TPTS&quot;"/> 
    <rt:dyn type="Drive" mode="constant" value="&quot;NONE&quot;"/> 
  </image>
  <polyline points="1180.67,420.667 1175,75 1150,75" fill="none" stroke="black" stroke-width="3"/> 
  <text x="16" y="32" font-size="20" font-weight="bold">UISPRO_1</text>
  <circle cx="969.837" cy="373.707" r="17.333" fill="Col_Grey3" stroke="Col_Grey5"/> 
  <circle cx="1064.84" cy="373.707" r="17.333" fill="Col_Grey3" stroke="Col_Grey5"/> 
  <rect x="929.698" y="327.47" width="184.848" height="45.1212" rx="0" ry="0" fill="Col_Grey3" stroke="black"/> 
  <image x="201" y="109.5" width="70" height="65" xlink:href="DS_CO_valve.svg" transform="rotate(360 0.000244141 -10.0001)">
    <title>00KPA50AW001</title>
    <rt:dyn type="Operate" mode="constant" value="true"/> 
    <rt:dyn type="KKS" mode="constant" value="&quot;00KPA50AW001&quot;"/> 
    <rt:dyn type="DATA_NARY" mode="constant" value="&quot;TPTS&quot;"/> 
  </image>
  <image x="1539" y="575" width="70" height="65" xlink:href="DS_CO_valve.svg" transform="rotate(360 0.000244141 -10.0001)">
    <title>00KPA10AF001</title>
    <rt:dyn type="Operate" mode="constant" value="true"/> 
    <rt:dyn type="KKS" mode="constant" value="&quot;00KPA10AF001&quot;"/> 
    <rt:dyn type="DATA_NARY" mode="constant" value="&quot;TPTS&quot;"/> 
  </image>
  <image x="1540" y="674.5" width="70" height="65" xlink:href="DS_CO_valve.svg" transform="rotate(360 0.000244141 -10.0001)">
    <title>00KPA10AF002</title>
    <rt:dyn type="Operate" mode="constant" value="true"/> 
    <rt:dyn type="KKS" mode="constant" value="&quot;00KPA10AF002&quot;"/> 
    <rt:dyn type="DATA_NARY" mode="constant" value="&quot;TPTS&quot;"/> 
  </image>
  <image x="1541" y="778.5" width="70" height="65" xlink:href="DS_CO_valve.svg" transform="rotate(360 0.000244141 -10.0001)">
    <title>00KPA10BB001</title>
    <rt:dyn type="Operate" mode="constant" value="true"/> 
    <rt:dyn type="KKS" mode="constant" value="&quot;00KPA10BB001&quot;"/> 
    <rt:dyn type="DATA_NARY" mode="constant" value="&quot;TPTS&quot;"/> 
  </image>
  <image x="1555" y="874" width="70" height="65" xlink:href="DS_CO_valve.svg" transform="rotate(360 0.000244141 -10.0001)">
    <title>00KPA10KA002</title>
    <rt:dyn type="Operate" mode="constant" value="true"/> 
    <rt:dyn type="KKS" mode="constant" value="&quot;00KPA10KA002&quot;"/> 
    <rt:dyn type="DATA_NARY" mode="constant" value="&quot;TPTS&quot;"/> 
  </image>
  <image x="1180" y="747.5" width="70" height="65" xlink:href="DS_CO_valve.svg" transform="rotate(360 0.000244141 -10.0001)">
    <title>00KPP10AJ002</title>
    <rt:dyn type="Operate" mode="constant" value="true"/> 
    <rt:dyn type="KKS" mode="constant" value="&quot;00KPP10AJ002&quot;"/> 
    <rt:dyn type="DATA_NARY" mode="constant" value="&quot;TPTS&quot;"/> 
  </image>
  <image x="1180" y="852.5" width="70" height="65" xlink:href="DS_CO_valve.svg" transform="rotate(360 0.000244141 -10.0001)">
    <title>00KPP10AJ003</title>
    <rt:dyn type="Operate" mode="constant" value="true"/> 
    <rt:dyn type="KKS" mode="constant" value="&quot;00KPP10AJ003&quot;"/> 
    <rt:dyn type="DATA_NARY" mode="constant" value="&quot;TPTS&quot;"/> 
  </image>
  <image x="1264.39" y="857.182" width="25" height="25" xlink:href="bin_indicator.svg">
    <title>00KPP10AJ003_Z0</title>
    <rt:dyn type="PointID" mode="constant" value="&quot;00KPP10AJ003_Z0&quot;"/> 
    <rt:dyn type="BitMask" mode="constant" value="01"/> 
  </image>
  <image x="1264.39" y="886.697" width="25" height="25" xlink:href="bin_indicator.svg">
    <title>00KPP10AJ003_Z0</title>
    <rt:dyn type="PointID" mode="constant" value="&quot;00KPP10AJ003_Z0&quot;"/> 
    <rt:dyn type="BitMask" mode="constant" value="10"/> 
  </image>
  <text x="1295.15" y="873.167" font-size="15" font-weight="normal">Вверху</text>
  <text x="1295.15" y="897.682" font-size="15" font-weight="normal">Внизу</text>
  <line x1="251" y1="929" x2="250" y2="925" stroke="black"/> 
  <g>
    <ellipse cx="512.036" cy="716" rx="62" ry="18" fill="Col_Grey2" stroke="black" stroke-width="2"/> 
    <ellipse cx="512.036" cy="841" rx="62" ry="18" fill="Col_Grey2" stroke="black" stroke-width="2"/> 
    <rect x="449.036" y="716" width="125" height="125" rx="0" ry="0" fill="Col_Grey2"/> 
    <line x1="574.536" y1="713" x2="574.536" y2="838" stroke="black" stroke-width="2"/> 
    <line x1="450.036" y1="716" x2="450.036" y2="841" stroke="black" stroke-width="2"/> 
  </g>
  <text x="499.036" y="722.5" font-size="15" font-weight="700">Б1</text>
  <image x="382" y="740" width="175" height="25" xlink:href="DS_ana.svg">
    <title>00KPA50CT001</title>
    <rt:dyn type="FKKS" mode="constant" value="&quot;00KPA50CT001&quot;"/> 
    <rt:dyn type="ShowFrame" mode="constant" value="true"/> 
    <rt:dyn type="Color_Readings" mode="constant" value="true"/> 
    <rt:dyn type="X" mode="constant" value="&quot;T&quot;"/> 
    <rt:dyn type="ValueToTheRight" mode="constant" value="false"/> 
  </image>
  <image x="498" y="777" width="25" height="25" xlink:href="bin_indicator.svg">
    <title>00KPA50CL001_XG01</title>
    <rt:dyn type="PointID" mode="constant" value="&quot;00KPA50CL001_XG01&quot;"/> 
  </image>
  <text x="888" y="615.5" font-size="15" font-weight="700">Ф1</text>
  <polygon points="3339.13,263.667 3339.13,282.668 3356.13,272.667" transform="rotate(270 1.4013e-045 1.68139e-039) flipX(36.82) flipX(137.968) flipX(848.955) rotate(90 1.4013e-045 1.9569e-039) flipY(519.712) rotate(270 327.167 125.501) rotate(0 1.4013e-045 1.4013e-045) flipX(158.5)"/> 
  <image x="429.5" y="867" width="70" height="65" xlink:href="DS_CO_valve.svg" transform="rotate(270 0.000244141 -10.0001)">
    <rt:dyn type="Operate" mode="constant" value="true"/> 
    <rt:dyn type="KKS" mode="constant" value="&quot;NULL&quot;"/> 
    <rt:dyn type="DATA_NARY" mode="constant" value="&quot;TPTS&quot;"/> 
    <rt:dyn type="Drive" mode="constant" value="&quot;NONE&quot;"/> 
  </image>
  <image x="504.5" y="867" width="70" height="65" xlink:href="DS_CO_valve.svg" transform="rotate(270 0.000244141 -10.0001)">
    <rt:dyn type="Operate" mode="constant" value="true"/> 
    <rt:dyn type="KKS" mode="constant" value="&quot;NULL&quot;"/> 
    <rt:dyn type="DATA_NARY" mode="constant" value="&quot;TPTS&quot;"/> 
    <rt:dyn type="Drive" mode="constant" value="&quot;NONE&quot;"/> 
  </image>
  <image x="558" y="517.03" width="175" height="25" xlink:href="DS_ana.svg">
    <title>00KPA50CP001</title>
    <rt:dyn type="FKKS" mode="constant" value="&quot;00KPA50CP001&quot;"/> 
    <rt:dyn type="ShowFrame" mode="constant" value="true"/> 
    <rt:dyn type="Color_Readings" mode="constant" value="true"/> 
    <rt:dyn type="X" mode="constant" value="&quot;P&quot;"/> 
    <rt:dyn type="ValueToTheRight" mode="constant" value="false"/> 
  </image>
  <polygon points="529.091,477.273"/> 
  <polyline points="1575,509.091 1575,475 525,475 525,525" fill="none" stroke="black" stroke-width="3"/> 
  <image x="541.531" y="432.03" width="70" height="65" xlink:href="DS_CO_valve.svg" transform="rotate(0 0.000244141 -10.0001)">
    <rt:dyn type="Operate" mode="constant" value="true"/> 
    <rt:dyn type="KKS" mode="constant" value="&quot;NULL&quot;"/> 
    <rt:dyn type="DATA_NARY" mode="constant" value="&quot;TPTS&quot;"/> 
    <rt:dyn type="Drive" mode="constant" value="&quot;NONE&quot;"/> 
  </image>
  <text x="813.939" y="535.227" font-size="15" font-weight="normal">Фильтр<tspan x="813.939" dy="15">засорен</tspan>
  </text>
  <polygon points="-1115.91,1365.33 -1115.91,1384.33 -1098.91,1374.33" transform="flipY(927.772) flipY(123.652) flipY(450.924) rotate(0 1.4013e-045 1.9569e-039) flipY(519.712) rotate(270 327.167 125.501) rotate(0 1.4013e-045 1.4013e-045) flipX(158.5)"/> 
  <image x="1624.46" y="101" width="25" height="25" xlink:href="bin_indicator.svg">
    <title>00KPA50AW002_Z0</title>
    <rt:dyn type="PointID" mode="constant" value="&quot;00KPA50AW002_Z0&quot;"/> 
    <rt:dyn type="BitMask" mode="constant" value="10"/> 
    <rt:dyn type="Col_ON" mode="constant" value="&quot;Col_Red&quot;"/> 
  </image>
  <image x="1627.46" y="170" width="25" height="25" xlink:href="bin_indicator.svg">
    <title>00KPA50AW002_Z0</title>
    <rt:dyn type="PointID" mode="constant" value="&quot;00KPA50AW002_Z0&quot;"/> 
    <rt:dyn type="BitMask" mode="constant" value="01"/> 
  </image>
  <text x="1558" y="117.909" font-size="15" font-weight="normal">Открыт</text>
  <text x="1561" y="183.212" font-size="15" font-weight="normal">Закрыт</text>
  <text x="1688" y="72" font-size="15" font-weight="700">Шибер выгрузки<tspan x="1688" dy="15">00KPA50AW002</tspan>
  </text>
  <image x="1686.56" y="103" width="70" height="65" xlink:href="DS_CO_valve.svg" transform="rotate(360 0.000244141 -10.0001)">
    <title>00KPA50AW002</title>
    <rt:dyn type="Operate" mode="constant" value="true"/> 
    <rt:dyn type="KKS" mode="constant" value="&quot;00KPA50AW002&quot;"/> 
    <rt:dyn type="DATA_NARY" mode="constant" value="&quot;TPTS&quot;"/> 
  </image>
  <text x="798" y="355" font-size="15" font-weight="700">Гильза</text>
  <image x="39" y="250" width="130" height="25" xlink:href="obj_Button.svg">
    <title>&quot;00kpa50ec001_m1-6&quot;</title>
    <rt:dyn type="Label" mode="constant" value="&quot;00KPA50EC001&quot;"/> 
    <rt:event type="OnClick">LoadNew(&quot;00kpa50ec001_m1-6&quot;)</rt:event>
  </image>
  <text x="665" y="65" font-size="15" font-weight="700" text-anchor="middle">Приспособление<tspan x="665" dy="15">для съема и обжатия крышки</tspan>
<tspan x="665" dy="15">00KPA50AK001</tspan>
  </text>
  <text x="1012" y="53.5" font-size="15" font-weight="700" text-anchor="middle">Пресс<tspan x="1012" dy="15">00KPA50AK001</tspan>
  </text>
  <image x="1211" y="50" width="160" height="75" xlink:href="DS_TPTS_VL_spec.svg">
    <title>&quot;00KPA50KK008&quot;</title>
    <rt:dyn type="KKS" mode="constant" value="&quot;00KPA50KK008VL0&quot;"/> 
    <rt:dyn type="Operate" mode="constant" value="true"/> 
    <rt:dyn type="VL_type" mode="constant" value="&quot;1o3&quot;"/> 
  </image>
  <image x="430" y="544" width="70" height="65" xlink:href="DS_CO_valve.svg" transform="rotate(270 0.000244141 -10.0001)">
    <title>00KPA50AA901</title>
    <rt:dyn type="Operate" mode="constant" value="true"/> 
    <rt:dyn type="KKS" mode="constant" value="&quot;NULL&quot;"/> 
    <rt:dyn type="DATA_NARY" mode="constant" value="&quot;TPTS&quot;"/> 
    <rt:dyn type="Drive" mode="constant" value="&quot;NONE&quot;"/> 
  </image>
  <text x="387" y="575" font-size="15" font-weight="normal">00KPA50<tspan x="387" dy="15">AA901</tspan>
  </text>
  <image x="265" y="594" width="160" height="75" xlink:href="DS_TPTS_VL_spec.svg">
    <title>&quot;00KPA50AA901VL0&quot;</title>
    <rt:dyn type="KKS" mode="constant" value="&quot;00KPA50AA901VL0&quot;"/> 
    <rt:dyn type="Operate" mode="constant" value="true"/> 
    <rt:dyn type="VL_type" mode="constant" value="&quot;1o3&quot;"/> 
  </image>
  <image x="505" y="544" width="70" height="65" xlink:href="DS_CO_valve.svg" transform="rotate(270 0.000244141 -10.0001)">
    <title>00KPA50AA902</title>
    <rt:dyn type="Operate" mode="constant" value="true"/> 
    <rt:dyn type="KKS" mode="constant" value="&quot;NULL&quot;"/> 
    <rt:dyn type="DATA_NARY" mode="constant" value="&quot;TPTS&quot;"/> 
    <rt:dyn type="Drive" mode="constant" value="&quot;NONE&quot;"/> 
  </image>
  <text x="560" y="575" font-size="15" font-weight="normal">00KPA50<tspan x="560" dy="15">AA902</tspan>
  </text>
  <image x="590" y="594" width="160" height="75" xlink:href="DS_TPTS_VL_spec.svg">
    <title>&quot;00KPA50AA902VL0&quot;</title>
    <rt:dyn type="KKS" mode="constant" value="&quot;00KPA50AA902VL0&quot;"/> 
    <rt:dyn type="Operate" mode="constant" value="true"/> 
    <rt:dyn type="VL_type" mode="constant" value="&quot;1o3&quot;"/> 
  </image>
  <image x="535" y="183" width="25" height="25" xlink:href="bin_indicator.svg">
    <title>&quot;00KPA50KK001_ZV01&quot;</title>
    <rt:dyn type="PointID" mode="constant" value="&quot;00KPA50KK001_ZV01&quot;"/> 
  </image>
  <image x="535" y="153" width="25" height="25" xlink:href="bin_indicator.svg">
    <title>00KPA50KK001_Z0</title>
    <rt:dyn type="PointID" mode="constant" value="&quot;00KPA50KK001_Z0&quot;"/> 
    <rt:dyn type="BitMask" mode="constant" value="10"/> 
  </image>
  <image x="90" y="287" width="70" height="65" xlink:href="DS_CO_valve.svg" transform="rotate(360 0.000244141 -10.0001)">
    <title>&quot;00KPA50AE001&quot;</title>
    <rt:dyn type="Operate" mode="constant" value="true"/> 
    <rt:dyn type="KKS" mode="constant" value="&quot;00KPA50AE001&quot;"/> 
    <rt:dyn type="DATA_NARY" mode="constant" value="&quot;TPTS&quot;"/> 
  </image>
  <image x="470" y="35" width="70" height="65" xlink:href="DS_CO_valve.svg" transform="rotate(360 0.000244141 -10.0001)">
    <title>&quot;&quot;00KPA50KK001&quot;</title>
    <rt:dyn type="Operate" mode="constant" value="true"/> 
    <rt:dyn type="KKS" mode="constant" value="&quot;00KPA50KK001&quot;"/> 
    <rt:dyn type="DATA_NARY" mode="constant" value="&quot;TPTS&quot;"/> 
  </image>
  <image x="790" y="285.5" width="70" height="65" xlink:href="DS_CO_valve.svg" transform="rotate(360 0.000244141 -10.0001)">
    <title>&quot;00KPA50KK005&quot;</title>
    <rt:dyn type="Operate" mode="constant" value="true"/> 
    <rt:dyn type="KKS" mode="constant" value="&quot;00KPA50KK005&quot;"/> 
    <rt:dyn type="DATA_NARY" mode="constant" value="&quot;TPTS&quot;"/> 
  </image>
  <image x="498" y="813" width="25" height="25" xlink:href="bin_indicator.svg">
    <title>00KPA50AP002_ZV01</title>
    <rt:dyn type="PointID" mode="constant" value="&quot;00KPA50AP002_ZV01&quot;"/> 
  </image>
  <text x="46" y="386.5" font-size="15" font-weight="normal">Перемещение<tspan x="46" dy="15">телеги</tspan>
  </text>
  <polyline points="1195.33,52 1198,428 485.5,427.5 486,526" fill="none" stroke="black" stroke-width="3"/> 
  <line x1="1197.33" y1="52" x2="1104" y2="52" stroke="black" stroke-width="3"/> 
  <line x1="1105" y1="72" x2="1105" y2="51" stroke="black" stroke-width="3"/> 
  <polygon points="-1547.33,893.334 -1546.45,912.728 -1529.45,902.728" transform="flipY(927.772) flipY(123.652) flipY(450.924) rotate(0 1.4013e-045 1.9569e-039) flipY(519.712) rotate(270 327.167 125.501) rotate(0 1.4013e-045 1.4013e-045) flipX(158.5)"/> 
  <path d="M188.93 5.87911 A8.80483 8.80483 0 1 1 188.93 23.4891 " fill="none" stroke="black" stroke-width="3" transform="flipX(560.7) rotate(360 1.4013e-045 4.33918e-039) matrix(-1 3.67394e-016 3.67394e-016 1 130.612 414.62)"/> 
  <polyline points="1180.67,436.667 1181.33,450.667 899.333,450 899.333,466" fill="none" stroke="black" stroke-width="3"/> 
  <polygon points="-776.332,-639.666 -776.332,-620.666 -759.332,-630.666" transform="rotate(270 1.4013e-045 2.32424e-039) flipY(927.772) flipY(123.652) flipY(450.924) rotate(0 1.4013e-045 1.9569e-039) flipY(519.712) rotate(270 327.167 125.501) rotate(0 1.4013e-045 1.4013e-045) flipX(158.5)"/> 
  <polygon points="1202.37,37.334 1193.37,57.334 1210.37,57.334" transform="flipX(36.82) flipX(137.968) flipX(848.955) rotate(90 1.4013e-045 1.9569e-039) flipY(519.712) rotate(270 327.167 125.501) rotate(0 1.4013e-045 1.4013e-045) flipX(158.5)"/> 
  <line x1="901.007" y1="514.5" x2="1117" y2="515" stroke="black" stroke-width="3"/> 
  <line x1="1134" y1="513" x2="1476" y2="513" stroke="black" stroke-width="3"/> 
  <path d="M-382.697 140.476 A8.80483 8.80483 0 1 1 -382.697 158.086 " fill="none" stroke="black" stroke-width="3" transform="flipX(280.7) rotate(90 1.4013e-045 4.33918e-039) matrix(-1 3.67394e-016 3.67394e-016 1 130.612 414.62)"/> 
  <circle cx="387" cy="472" r="0"/> 
  <polygon points="1363.37,303.334 1363.37,322.335 1380.37,312.334" transform="flipX(36.82) flipX(137.968) flipX(848.955) rotate(90 1.4013e-045 1.9569e-039) flipY(519.712) rotate(270 327.167 125.501) rotate(0 1.4013e-045 1.4013e-045) flipX(158.5)"/> 
  <polygon points="1074.37,302.334 1074.37,321.335 1091.37,311.334" transform="flipX(36.82) flipX(137.968) flipX(848.955) rotate(90 1.4013e-045 1.9569e-039) flipY(519.712) rotate(270 327.167 125.501) rotate(0 1.4013e-045 1.4013e-045) flipX(158.5)"/> 
  <polyline points="1285,514 1286,577 1258,578" fill="none" stroke="black" stroke-width="3"/> 
  <polygon points="1114.37,332.334 1105.37,352.334 1122.37,352.334" transform="flipX(36.82) flipX(137.968) flipX(848.955) rotate(90 1.4013e-045 1.9569e-039) flipY(519.712) rotate(270 327.167 125.501) rotate(0 1.4013e-045 1.4013e-045) flipX(158.5)"/> 
  <text x="579" y="795.5" font-size="15" font-weight="normal">Нижний Ур.</text>
  <text x="577" y="831.5" font-size="15" font-weight="normal">Аварийный Ур.</text>
</svg>
