<?xml  version="1.0" encoding="windows-1251"?>
<svg color="Col_BGSand" xmlns="http://www.w3.org/2000/svg" xmlns:rt="http://www.rts.co.at/2001/XMLSchema/RtSvgPL" xmlns:xlink="http://www.w3.org/1999/xlink" xmlns:xsi="http://www.w3.org/2001/XMLSchema-instance" xsi:schemaLocation="http://www.w3.org/2000/svg C:\RTS\RtSvg\XML\SVG.xsd" viewBox="0 0 1940 1000" width="1940" height="1000" id="uovs_5" text-anchor="middle">
  <title>Блок очистки. Дистиллят</title>
  <rt:model modelversion="7.2.0.24" comment="Создано VNIIAES-ASUTP\seregin 07.08.2013 18:14:20" revision="1.0"/> 
  <rect x="425" y="660" width="719.39" height="142.561" rx="0" ry="0" fill="none" stroke="black" stroke-width="3"/> 
  <rect x="620" y="768.5" width="175" height="74.5" rx="0" ry="0" fill="Col_BGSand" stroke="black"/> 
  <rect x="625" y="628" width="169" height="75" rx="0" ry="0" fill="Col_BGSand" stroke="black"/> 
  <g>
    <rect x="1142.17" y="725.646" width="9" height="20.5" rx="0" ry="0" fill="Col_BGSand"/> 
    <path d="M151.973 312.486 A8.80483 8.80483 0 1 1 151.973 330.097 " fill="none" stroke="black" stroke-width="3" transform="flipX(560.7) rotate(360 1.4013e-045 4.33918e-039) matrix(-1 3.67394e-016 3.67394e-016 1 130.612 414.62)"/> 
  </g>
  <polyline points="586,401 586,280 1525,280 1525,735 993,734" fill="none" stroke="black" stroke-width="3"/> 
  <g>
    <rect x="580.976" y="284.146" width="12.2196" height="20.7559" rx="0" ry="0" fill="Col_BGSand"/> 
    <path d="M-406.002 -128.758 A8.80483 8.80483 0 1 1 -406.002 -111.147 " fill="none" stroke="black" stroke-width="3" transform="flipX(560.7) rotate(360 1.4013e-045 4.33918e-039) matrix(-1 3.67394e-016 3.67394e-016 1 130.612 414.62)"/> 
  </g>
  <line x1="905.028" y1="798.268" x2="904.861" y2="754.329" stroke="black" stroke-width="1" transform="rotate(90 1251.65 590.379)"/> 
  <line x1="1194" y1="279.268" x2="1194" y2="395.122" stroke="black" stroke-width="3"/> 
  <line x1="1939" y1="38.6433" x2="1939" y2="-62.576" stroke="black" stroke-width="3" transform="rotate(180 1201.05 166.273)"/> 
  <polyline points="685.951,451.5 743.531,451.5 743.531,484.424" fill="none" stroke="black" stroke-width="3"/> 
  <polyline points="1285.62,451.734 1343.2,451.734 1343.2,484.658" fill="none" stroke="black" stroke-width="3"/> 
  <polyline points="1177,802 1177,957 1306,957 1177,957 1177,882 1306,882" fill="none" stroke="black" stroke-width="3"/> 
  <line x1="1587" y1="800" x2="1587" y2="902.439" stroke="black" stroke-width="3"/> 
  <polyline points="1143.17,802.439 1772,802 1772,903" fill="none" stroke="black" stroke-width="3"/> 
  <rect x="1039" y="228.453" width="7.57574" height="30.303" rx="0" ry="0"/> 
  <line x1="995" y1="662.317" x2="994.951" y2="802.561" stroke="black" stroke-width="3"/> 
  <polyline points="1089.79,521.683 1089.79,562.683 1133.79,562.683" fill="none" stroke="black" stroke-width="3"/> 
  <polyline points="496,521 496,562 540,562" fill="none" stroke="black" stroke-width="3"/> 
  <polyline points="450,500 400,500 400,593 1000,595 1000,500 1058,500" fill="none" stroke="black" stroke-width="3"/> 
  <polyline points="921,155 921,140 463,140 463,294 1072,294 1072,404" fill="none" stroke="black" stroke-width="3"/> 
  <polyline points="1034.29,162.056 1034.29,112.056 1202.29,112.056" fill="none" stroke="black" stroke-width="3"/> 
  <g>
    <rect x="1055.73" y="386.924" width="250" height="145" rx="0" ry="0" fill="Col_Grey3" stroke="black" stroke-width="1"/> 
    <image x="1261.46" y="409.756" width="30" height="105" xlink:href="DS_ana_bar.svg">
      <title>00SRP70CL012</title>
      <rt:dyn type="FKKS" mode="constant" value="&quot;00SRP70CL012&quot;"/> 
    </image>
  </g>
  <g>
    <rect x="895.61" y="154.878" width="147.249" height="106.922" rx="0" ry="0" fill="Col_Grey3" stroke="black" stroke-width="1"/> 
  </g>
  <g>
    <rect x="453.696" y="386.516" width="250" height="145" rx="0" ry="0" fill="Col_Grey3" stroke="black" stroke-width="1"/> 
    <image x="659.024" y="408.537" width="30" height="105" xlink:href="DS_ana_bar.svg">
      <title>00SRP70CL011</title>
      <rt:dyn type="FKKS" mode="constant" value="&quot;00SRP70CL011&quot;"/> 
    </image>
  </g>
  <text x="504.98" y="337.573" font-size="15">00SRP70<tspan x="504.98" dy="15">AA020</tspan>
  </text>
  <text x="960" y="40" font-size="28" text-anchor="middle">Блок очистки. Дистиллят</text>
  <line x1="463.03" y1="896.061" x2="463.03" y2="896.061" stroke="black"/> 
  <text x="552.257" y="407.058" font-size="15">00SRP70BB005</text>
  <image x="471.219" y="491.463" width="175" height="25" xlink:href="DS_ana.svg">
    <title>00SRP70CL011</title>
    <rt:dyn type="FKKS" mode="constant" value="&quot;00SRP70CL011&quot;"/> 
    <rt:dyn type="ShowFrame" mode="constant" value="true"/> 
    <rt:dyn type="Color_Readings" mode="constant" value="true"/> 
    <rt:dyn type="ValueToTheRight" mode="constant" value="false"/> 
    <rt:dyn type="X" mode="constant" value="&quot;L&quot;"/> 
  </image>
  <text x="1092.76" y="687.363" font-size="15">00SRP70<tspan x="1092.76" dy="15">AA024</tspan>
  </text>
  <text x="449.954" y="555.936" font-size="15">00SRP70<tspan x="449.954" dy="15">AA022</tspan>
  </text>
  <text x="1633.3" y="845.48" font-size="15">00SRP70<tspan x="1633.3" dy="15">AA001</tspan>
  </text>
  <polygon points="1457.76,1376.76 1457.76,1395.76 1474.76,1385.76" transform="flipY(114.561) flipY(394.864) flipY(450.924) rotate(0 1.4013e-045 1.9569e-039) flipY(519.712) rotate(270 327.167 125.501) rotate(0 1.4013e-045 1.4013e-045) flipX(158.5)"/> 
  <text x="1287.68" y="87.561" font-size="15" font-weight="normal">От баков деаэраторов<tspan x="1287.68" dy="15">00SRP70AT006,</tspan>
<tspan x="1287.68" dy="15">00SRP70AT007</tspan>
  </text>
  <polygon points="549.684,483.303 549.684,502.303 566.684,492.303" transform="flipY(453.955) flipY(450.924) rotate(0 1.4013e-045 1.9569e-039) flipY(519.712) rotate(270 327.167 125.501) rotate(0 1.4013e-045 1.4013e-045) flipX(158.5)"/> 
  <polygon points="480.464,531.742 480.464,550.742 497.464,540.742" transform="flipY(450.924) rotate(0 1.4013e-045 1.9569e-039) flipY(519.712) rotate(270 327.167 125.501) rotate(0 1.4013e-045 1.4013e-045) flipX(158.5)"/> 
  <text x="742.908" y="508.573" font-size="15" font-weight="normal">KPF73</text>
  <text x="1311.8" y="180.61" font-size="15" font-weight="normal">Турбопровод<tspan x="1311.8" dy="15">возврата от</tspan>
<tspan x="1311.8" dy="15">стенда РК</tspan>
  </text>
  <text x="1090.76" y="830.35" font-size="15">00SRP70<tspan x="1090.76" dy="15">AA025</tspan>
  </text>
  <polygon points="481.514,1131.78 481.514,1150.78 498.514,1140.78" transform="flipY(450.924) rotate(0 1.4013e-045 1.9569e-039) flipY(519.712) rotate(270 327.167 125.501) rotate(0 1.4013e-045 1.4013e-045) flipX(158.5)"/> 
  <text x="1343.2" y="511.976" font-size="15" font-weight="normal">KPF73</text>
  <polygon points="1457.76,1561.88 1457.76,1580.88 1474.76,1570.88" transform="flipY(114.561) flipY(394.864) flipY(450.924) rotate(0 1.4013e-045 1.9569e-039) flipY(519.712) rotate(270 327.167 125.501) rotate(0 1.4013e-045 1.4013e-045) flipX(158.5)"/> 
  <text x="1155.14" y="406.612" font-size="15">00SRP70BB006</text>
  <image x="1074.88" y="489.024" width="175" height="25" xlink:href="DS_ana.svg">
    <title>00SRP70CL012</title>
    <rt:dyn type="FKKS" mode="constant" value="&quot;00SRP70CL012&quot;"/> 
    <rt:dyn type="ShowFrame" mode="constant" value="true"/> 
    <rt:dyn type="Color_Readings" mode="constant" value="true"/> 
    <rt:dyn type="ValueToTheRight" mode="constant" value="false"/> 
    <rt:dyn type="X" mode="constant" value="&quot;L&quot;"/> 
  </image>
  <text x="634.087" y="337.573" font-size="15">00SRP70<tspan x="634.087" dy="15">AA039</tspan>
  </text>
  <text x="1596.27" y="928.19" font-size="15" font-weight="normal">В бак трапных вод<tspan x="1596.27" dy="15">00SRP70BB001</tspan>
  </text>
  <image x="432.732" y="629" width="175" height="25" xlink:href="DS_ana.svg">
    <title>00SRP70CP005</title>
    <rt:dyn type="FKKS" mode="constant" value="&quot;00SRP70CP005&quot;"/> 
    <rt:dyn type="ShowFrame" mode="constant" value="true"/> 
    <rt:dyn type="Color_Readings" mode="constant" value="true"/> 
    <rt:dyn type="X" mode="constant" value="&quot;P&quot;"/> 
    <rt:dyn type="ValueToTheRight" mode="constant" value="false"/> 
  </image>
  <image x="801.06" y="629" width="175" height="25" xlink:href="DS_ana.svg">
    <title>00SRP70CP006</title>
    <rt:dyn type="FKKS" mode="constant" value="&quot;00SRP70CP006&quot;"/> 
    <rt:dyn type="ShowFrame" mode="constant" value="true"/> 
    <rt:dyn type="Color_Readings" mode="constant" value="true"/> 
    <rt:dyn type="X" mode="constant" value="&quot;P&quot;"/> 
    <rt:dyn type="ValueToTheRight" mode="constant" value="false"/> 
  </image>
  <text x="970.298" y="190.154" font-size="15">00SRP70AT002</text>
  <text x="1045.47" y="555.354" font-size="15">00SRP70<tspan x="1045.47" dy="15">AA023</tspan>
  </text>
  <image x="432.732" y="809.585" width="175" height="25" xlink:href="DS_ana.svg">
    <title>00SRP70CP007</title>
    <rt:dyn type="FKKS" mode="constant" value="&quot;00SRP70CP007&quot;"/> 
    <rt:dyn type="ShowFrame" mode="constant" value="true"/> 
    <rt:dyn type="Color_Readings" mode="constant" value="true"/> 
    <rt:dyn type="X" mode="constant" value="&quot;P&quot;"/> 
    <rt:dyn type="ValueToTheRight" mode="constant" value="false"/> 
  </image>
  <image x="801.06" y="809" width="175" height="25" xlink:href="DS_ana.svg">
    <title>00SRP70CP008</title>
    <rt:dyn type="FKKS" mode="constant" value="&quot;00SRP70CP008&quot;"/> 
    <rt:dyn type="ShowFrame" mode="constant" value="true"/> 
    <rt:dyn type="Color_Readings" mode="constant" value="true"/> 
    <rt:dyn type="X" mode="constant" value="&quot;P&quot;"/> 
    <rt:dyn type="ValueToTheRight" mode="constant" value="false"/> 
  </image>
  <line x1="694.469" y1="387.375" x2="694.469" y2="357.74" stroke="black" stroke-width="3"/> 
  <polygon points="1883.3,351.297 1883.3,370.297 1900.3,360.297" transform="flipX(627.743) flipX(848.955) rotate(90 1.4013e-045 1.9569e-039) flipY(519.712) rotate(270 327.167 125.501) rotate(0 1.4013e-045 1.4013e-045) flipX(158.5)"/> 
  <text x="586.304" y="567.463" font-size="15" font-weight="normal">KPF73</text>
  <text x="1042.08" y="692.97" font-size="15">00SRP70<tspan x="1042.08" dy="15">AA037</tspan>
  </text>
  <image x="950.424" y="734.455" width="70" height="65" xlink:href="DS_CO_valve.svg" transform="rotate(270 0.000244141 -10.0001)">
    <title>00SRP70AA038</title>
    <rt:dyn type="Operate" mode="constant" value="true"/> 
    <rt:dyn type="KKS" mode="constant" value="&quot;00SRP70AA038&quot;"/> 
    <rt:dyn type="DATA_NARY" mode="constant" value="&quot;TPTS&quot;"/> 
  </image>
  <text x="1042.42" y="763.651" font-size="15">00SRP70<tspan x="1042.42" dy="15">AA038</tspan>
  </text>
  <image x="950.424" y="663.682" width="70" height="65" xlink:href="DS_CO_valve.svg" transform="rotate(270 0.000244141 -10.0001)">
    <title>00SRP70AA037</title>
    <rt:dyn type="Operate" mode="constant" value="true"/> 
    <rt:dyn type="KKS" mode="constant" value="&quot;00SRP70AA037&quot;"/> 
    <rt:dyn type="DATA_NARY" mode="constant" value="&quot;TPTS&quot;"/> 
  </image>
  <polygon points="2478.38,351.297 2478.38,370.297 2495.38,360.297" transform="flipX(627.743) flipX(848.955) rotate(90 1.4013e-045 1.9569e-039) flipY(519.712) rotate(270 327.167 125.501) rotate(0 1.4013e-045 1.4013e-045) flipX(158.5)"/> 
  <text x="1180.39" y="567.463" font-size="15" font-weight="normal">KPF73</text>
  <text x="1243.36" y="828.76" font-size="15">00SRP70<tspan x="1243.36" dy="15">AA026</tspan>
  </text>
  <text x="1245.36" y="907.4" font-size="15">00SRP70<tspan x="1245.36" dy="15">AA027</tspan>
  </text>
  <text x="1246.36" y="983.77" font-size="15">00SRP70<tspan x="1246.36" dy="15">AA028</tspan>
  </text>
  <image x="1542.56" y="815.41" width="70" height="65" xlink:href="DS_CO_valve.svg" transform="rotate(270 0.000244141 -10.0001)">
    <title>00SRP70AA001</title>
    <rt:dyn type="Operate" mode="constant" value="true"/> 
    <rt:dyn type="KKS" mode="constant" value="&quot;00SRP70AA001&quot;"/> 
    <rt:dyn type="DATA_NARY" mode="constant" value="&quot;TPTS&quot;"/> 
  </image>
  <text x="1817.51" y="845.48" font-size="15">00SRP70<tspan x="1817.51" dy="15">AA002</tspan>
  </text>
  <text x="1118.78" y="342.988" font-size="15">00SRP70<tspan x="1118.78" dy="15">AA021</tspan>
  </text>
  <polygon points="480.274,-413.058 480.274,-394.058 497.274,-404.058" transform="rotate(270 1.4013e-045 4.52829e-039) flipY(453.955) flipY(450.924) rotate(0 1.4013e-045 1.9569e-039) flipY(519.712) rotate(270 327.167 125.501) rotate(0 1.4013e-045 1.4013e-045) flipX(158.5)"/> 
  <text x="1237.07" y="344.207" font-size="15">00SRP70<tspan x="1237.07" dy="15">AA040</tspan>
  </text>
  <line x1="1032.72" y1="118.691" x2="990.103" y2="118.691" stroke="black" stroke-width="3"/> 
  <polygon points="-82.6048,-329.876 -82.6048,-310.876 -65.6048,-320.876" transform="rotate(270 1.4013e-045 4.52829e-039) flipY(453.955) flipY(450.924) rotate(0 1.4013e-045 1.9569e-039) flipY(519.712) rotate(270 327.167 125.501) rotate(0 1.4013e-045 1.4013e-045) flipX(158.5)"/> 
  <polygon points="1220.27,779.582 1220.27,798.578 1237.27,788.582" transform="rotate(330 1.4013e-045 4.52829e-039) flipY(193.349) flipY(453.955) flipY(450.924) rotate(0 1.4013e-045 1.9569e-039) flipY(519.712) rotate(270 327.167 125.501) rotate(0 1.4013e-045 1.4013e-045) flipX(158.5)"/> 
  <image x="1319.55" y="247.786" width="175" height="25" xlink:href="DS_ana.svg">
    <title>00SRP70CR801</title>
    <rt:dyn type="FKKS" mode="constant" value="&quot;00SRP70CR801&quot;"/> 
    <rt:dyn type="ShowFrame" mode="constant" value="true"/> 
    <rt:dyn type="Color_Readings" mode="constant" value="true"/> 
    <rt:dyn type="X" mode="constant" value="&quot;R&quot;"/> 
    <rt:dyn type="ValueToTheRight" mode="constant" value="false"/> 
  </image>
  <text x="1092.68" y="140.438" font-size="15">00SRP70<tspan x="1092.68" dy="15">AA008</tspan>
  </text>
  <text x="707.805" y="340.549" font-size="15" font-weight="normal">Сдувка</text>
  <text x="1307.2" y="338.11" font-size="15" font-weight="normal">Сдувка</text>
  <line x1="882.794" y1="105.093" x2="882.784" y2="51.6385" stroke="black" stroke-width="3" transform="rotate(180 1201.05 166.273)"/> 
  <line x1="1091.78" y1="106.578" x2="1091.77" y2="51.6385" stroke="black" stroke-width="3" transform="rotate(180 1201.05 166.273)"/> 
  <polygon points="667.786,1308.15 667.786,1327.15 684.786,1317.15" transform="flipY(453.955) flipY(450.924) rotate(0 1.4013e-045 1.9569e-039) flipY(519.712) rotate(270 327.167 125.501) rotate(0 1.4013e-045 1.4013e-045) flipX(158.5)"/> 
  <image x="1148.91" y="310.158" width="70" height="65" xlink:href="DS_CO_valve.svg" transform="rotate(270 0.000244141 -10.0001)">
    <title>00SRP70AA040</title>
    <rt:dyn type="Operate" mode="constant" value="true"/> 
    <rt:dyn type="KKS" mode="constant" value="&quot;00SRP70AA040&quot;"/> 
    <rt:dyn type="DATA_NARY" mode="constant" value="&quot;TPTS&quot;"/> 
  </image>
  <image x="540.829" y="307.573" width="70" height="65" xlink:href="DS_CO_valve.svg" transform="rotate(270 0.000244141 -10.0001)">
    <title>00SRP70AA039</title>
    <rt:dyn type="Operate" mode="constant" value="true"/> 
    <rt:dyn type="KKS" mode="constant" value="&quot;00SRP70AA039&quot;"/> 
    <rt:dyn type="DATA_NARY" mode="constant" value="&quot;TPTS&quot;"/> 
  </image>
  <image x="1208.88" y="838.36" width="70" height="65" xlink:href="DS_CO_valve.svg" transform="rotate(360 0.000244141 -10.0001)">
    <title>00SRP70AA027</title>
    <rt:dyn type="Operate" mode="constant" value="true"/> 
    <rt:dyn type="KKS" mode="constant" value="&quot;00SRP70AA027&quot;"/> 
    <rt:dyn type="DATA_NARY" mode="constant" value="&quot;TPTS&quot;"/> 
  </image>
  <polygon points="2643.97,671.061 2643.97,690.061 2660.97,680.061" transform="flipX(627.743) flipX(848.955) rotate(90 1.4013e-045 1.9569e-039) flipY(519.712) rotate(270 327.167 125.501) rotate(0 1.4013e-045 1.4013e-045) flipX(158.5)"/> 
  <polygon points="2645.48,746.273 2645.48,765.273 2662.48,755.273" transform="flipX(627.743) flipX(848.955) rotate(90 1.4013e-045 1.9569e-039) flipY(519.712) rotate(270 327.167 125.501) rotate(0 1.4013e-045 1.4013e-045) flipX(158.5)"/> 
  <text x="1519.67" y="211.768" font-size="15" font-weight="normal">KUB20</text>
  <text x="1385.91" y="872.212" font-size="15" font-weight="normal">Сброс дебаланса в<tspan x="1385.91" dy="15">сбросной канал</tspan>
  </text>
  <text x="1399.91" y="947.939" font-size="15" font-weight="normal">&quot;Чистый&quot; конденсат<tspan x="1399.91" dy="15">в баки собственных</tspan>
<tspan x="1399.91" dy="15">нужд здания 00UYB</tspan>
  </text>
  <text x="1783.61" y="928.19" font-size="15" font-weight="normal">В бак трапных вод<tspan x="1783.61" dy="15">00SRP70BB002</tspan>
  </text>
  <text x="383.756" y="207.407" font-size="15" font-weight="normal">KUB20</text>
  <text x="944.15" y="123.71" font-size="15" font-weight="normal">KUB20</text>
  <image x="1061.94" y="231.483" width="175" height="25" xlink:href="DS_ana.svg">
    <title>00SRP70CR001</title>
    <rt:dyn type="FKKS" mode="constant" value="&quot;00SRP70CR001&quot;"/> 
    <rt:dyn type="ShowFrame" mode="constant" value="true"/> 
    <rt:dyn type="Color_Readings" mode="constant" value="true"/> 
    <rt:dyn type="X" mode="constant" value="&quot;R&quot;"/> 
    <rt:dyn type="ValueToTheRight" mode="constant" value="false"/> 
  </image>
  <polygon points="550.16,1087.8 550.16,1106.8 567.16,1096.8" transform="flipY(453.955) flipY(450.924) rotate(0 1.4013e-045 1.9569e-039) flipY(519.712) rotate(270 327.167 125.501) rotate(0 1.4013e-045 1.4013e-045) flipX(158.5)"/> 
  <line x1="1298.96" y1="387.9" x2="1298.96" y2="358.264" stroke="black" stroke-width="3"/> 
  <image x="1726.77" y="815.41" width="70" height="65" xlink:href="DS_CO_valve.svg" transform="rotate(270 0.000244141 -10.0001)">
    <title>00SRP70AA002</title>
    <rt:dyn type="Operate" mode="constant" value="true"/> 
    <rt:dyn type="KKS" mode="constant" value="&quot;00SRP70AA002&quot;"/> 
    <rt:dyn type="DATA_NARY" mode="constant" value="&quot;TPTS&quot;"/> 
  </image>
  <image x="1207.88" y="759.727" width="70" height="65" xlink:href="DS_CO_valve.svg" transform="rotate(360 0.000244141 -10.0001)">
    <title>00SRP70AA026</title>
    <rt:dyn type="Operate" mode="constant" value="true"/> 
    <rt:dyn type="KKS" mode="constant" value="&quot;00SRP70AA026&quot;"/> 
    <rt:dyn type="DATA_NARY" mode="constant" value="&quot;TPTS&quot;"/> 
  </image>
  <image x="417.919" y="307.573" width="70" height="65" xlink:href="DS_CO_valve.svg" transform="rotate(270 0.000244141 -10.0001)">
    <title>00SRP70AA020</title>
    <rt:dyn type="Operate" mode="constant" value="true"/> 
    <rt:dyn type="KKS" mode="constant" value="&quot;00SRP70AA020&quot;"/> 
    <rt:dyn type="DATA_NARY" mode="constant" value="&quot;TPTS&quot;"/> 
  </image>
  <image x="1054.88" y="618.333" width="70" height="65" xlink:href="DS_CO_valve.svg" transform="rotate(360 0.000244141 -10.0001)">
    <title>00SRP70AA024</title>
    <rt:dyn type="Operate" mode="constant" value="true"/> 
    <rt:dyn type="KKS" mode="constant" value="&quot;00SRP70AA024&quot;"/> 
    <rt:dyn type="DATA_NARY" mode="constant" value="&quot;TPTS&quot;"/> 
  </image>
  <image x="1057.8" y="69.7561" width="70" height="65" xlink:href="DS_CO_valve.svg" transform="rotate(360 0.000244141 -10.0001)">
    <title>00SRP70AA008</title>
    <rt:dyn type="Operate" mode="constant" value="true"/> 
    <rt:dyn type="KKS" mode="constant" value="&quot;00SRP70AA008&quot;"/> 
    <rt:dyn type="DATA_NARY" mode="constant" value="&quot;TPTS&quot;"/> 
  </image>
  <image x="1027.87" y="308.158" width="70" height="65" xlink:href="DS_CO_valve.svg" transform="rotate(270 0.000244141 -10.0001)">
    <title>00SRP70AA021</title>
    <rt:dyn type="Operate" mode="constant" value="true"/> 
    <rt:dyn type="KKS" mode="constant" value="&quot;00SRP70AA021&quot;"/> 
    <rt:dyn type="DATA_NARY" mode="constant" value="&quot;TPTS&quot;"/> 
  </image>
  <image x="954.939" y="513.354" width="70" height="65" xlink:href="DS_CO_valve.svg" transform="rotate(270 0.000244141 -10.0001)">
    <title>00SRP70AA023</title>
    <rt:dyn type="Operate" mode="constant" value="true"/> 
    <rt:dyn type="KKS" mode="constant" value="&quot;00SRP70AA023&quot;"/> 
    <rt:dyn type="DATA_NARY" mode="constant" value="&quot;TPTS&quot;"/> 
  </image>
  <image x="1209.88" y="914.73" width="70" height="65" xlink:href="DS_CO_valve.svg" transform="rotate(360 0.000244141 -10.0001)">
    <title>00SRP70AA028</title>
    <rt:dyn type="Operate" mode="constant" value="true"/> 
    <rt:dyn type="KKS" mode="constant" value="&quot;00SRP70AA028&quot;"/> 
    <rt:dyn type="DATA_NARY" mode="constant" value="&quot;TPTS&quot;"/> 
  </image>
  <image x="1054.88" y="760.317" width="70" height="65" xlink:href="DS_CO_valve.svg" transform="rotate(360 0.000244141 -10.0001)">
    <title>00SRP70AA025</title>
    <rt:dyn type="Operate" mode="constant" value="true"/> 
    <rt:dyn type="KKS" mode="constant" value="&quot;00SRP70AA025&quot;"/> 
    <rt:dyn type="DATA_NARY" mode="constant" value="&quot;TPTS&quot;"/> 
  </image>
  <image x="358.817" y="513.936" width="70" height="65" xlink:href="DS_CO_valve.svg" transform="rotate(270 0.000244141 -10.0001)">
    <title>00SRP70AA022</title>
    <rt:dyn type="Operate" mode="constant" value="true"/> 
    <rt:dyn type="KKS" mode="constant" value="&quot;00SRP70AA022&quot;"/> 
    <rt:dyn type="DATA_NARY" mode="constant" value="&quot;TPTS&quot;"/> 
  </image>
  <image x="589.786" y="107.483" width="175" height="25" xlink:href="DS_ana.svg">
    <title>00SRP70CR802</title>
    <rt:dyn type="FKKS" mode="constant" value="&quot;00SRP70CR802&quot;"/> 
    <rt:dyn type="ShowFrame" mode="constant" value="true"/> 
    <rt:dyn type="Color_Readings" mode="constant" value="true"/> 
    <rt:dyn type="X" mode="constant" value="&quot;R&quot;"/> 
    <rt:dyn type="ValueToTheRight" mode="constant" value="false"/> 
  </image>
  <text x="16" y="32" font-size="20" font-weight="bold" text-anchor="start">UOVS_5</text>
  <image x="628" y="670" width="25" height="25" xlink:href="bin_indicator.svg">
    <title>00SRP70CT007_XH03</title>
    <rt:dyn type="PointID" mode="constant" value="&quot;00SRP70CT007_XH03&quot;"/> 
  </image>
  <image x="656.39" y="670" width="25" height="25" xlink:href="bin_indicator.svg">
    <title>00SRP70CT009_XH03</title>
    <rt:dyn type="PointID" mode="constant" value="&quot;00SRP70CT009_XH03&quot;"/> 
  </image>
  <image x="626" y="811" width="25" height="25" xlink:href="bin_indicator.svg">
    <title>00SRP70CT008_XH03</title>
    <rt:dyn type="PointID" mode="constant" value="&quot;00SRP70CT008_XH03&quot;"/> 
  </image>
  <image x="654.39" y="811" width="25" height="25" xlink:href="bin_indicator.svg">
    <title>00SRP70CT010_XH03</title>
    <rt:dyn type="PointID" mode="constant" value="&quot;00SRP70CT010_XH03&quot;"/> 
  </image>
  <text x="763" y="610.5" font-size="15">00SRP70<tspan x="763" dy="15">AP003</tspan>
  </text>
  <text x="767" y="751" font-size="15">00SRP70<tspan x="767" dy="15">AP004</tspan>
  </text>
  <line x1="425" y1="591" x2="425" y2="663" stroke="black" stroke-width="3"/> 
  <polygon points="226.94,1099.77 226.94,1118.77 243.94,1108.77" transform="flipY(450.924) rotate(0 1.4013e-045 1.9569e-039) flipY(519.712) rotate(270 327.167 125.501) rotate(0 1.4013e-045 1.4013e-045) flipX(158.5)"/> 
  <line x1="461.397" y1="201.892" x2="418.78" y2="201.892" stroke="black" stroke-width="3"/> 
  <image x="1074.88" y="445.122" width="171" height="27" xlink:href="ps_nvo2_multybin_indicator_txt.svg">
    <title>&quot;00SRP70EU006&quot;</title>
    <rt:dyn type="KKS" mode="constant" value="&quot;00SRP70EU006&quot;"/> 
    <rt:dyn type="Suffix1" mode="constant" value="&quot;ZV01&quot;"/> 
    <rt:dyn type="Suffix2" mode="constant" value="&quot;ZV02&quot;"/> 
    <rt:dyn type="Suffix3" mode="constant" value="&quot;ZV03&quot;"/> 
    <rt:dyn type="T_String1" mode="constant" value="&quot;РЕЦИРКУЛЯЦИЯ&quot;"/> 
    <rt:dyn type="T_String2" mode="constant" value="&quot;ОЖИДАНИЕ&quot;"/> 
    <rt:dyn type="T_String3" mode="constant" value="&quot;ПОДАЧА&quot;"/> 
    <rt:dyn type="T_Size" mode="constant" value="13"/> 
  </image>
  <image x="471.219" y="444.561" width="171" height="27" xlink:href="ps_nvo2_multybin_indicator_txt.svg">
    <title>&quot;00SRP70EU005&quot;</title>
    <rt:dyn type="KKS" mode="constant" value="&quot;00SRP70EU005&quot;"/> 
    <rt:dyn type="Suffix1" mode="constant" value="&quot;ZV01&quot;"/> 
    <rt:dyn type="Suffix2" mode="constant" value="&quot;ZV02&quot;"/> 
    <rt:dyn type="Suffix3" mode="constant" value="&quot;ZV03&quot;"/> 
    <rt:dyn type="T_String1" mode="constant" value="&quot;РЕЦИРКУЛЯЦИЯ&quot;"/> 
    <rt:dyn type="T_String2" mode="constant" value="&quot;ОЖИДАНИЕ&quot;"/> 
    <rt:dyn type="T_String3" mode="constant" value="&quot;ПОДАЧА&quot;"/> 
    <rt:dyn type="T_Size" mode="constant" value="13"/> 
  </image>
  <image x="666.585" y="710.976" width="60" height="45" xlink:href="DS_TPTS_AVR_sel.svg">
    <title>00SRP70ED001</title>
    <rt:dyn type="KKS" mode="constant" value="&quot;00SRP70ED001&quot;"/> 
    <rt:dyn type="VL_type" mode="constant" value="&quot;1o2&quot;"/> 
    <rt:dyn type="Operate" mode="constant" value="TRUE"/> 
  </image>
  <image x="719.286" y="628.829" width="70" height="70" xlink:href="DS_motor.svg" transform="rotate(0 0 0)">
    <title>00SRP70AP003</title>
    <rt:dyn type="KKS" mode="constant" value="&quot;00SRP70AP003VL0&quot;"/> 
    <rt:dyn type="DATA_NARY" mode="constant" value="&quot;TYPE1&quot;"/> 
    <rt:dyn type="Operate" mode="constant" value="true"/> 
    <rt:dyn type="DeviceType" mode="constant" value="&quot;doser&quot;"/> 
    <rt:dyn type="IsDoser" mode="constant" value="true"/> 
    <rt:dyn type="Doser_arrow_angle" mode="constant" value="0"/> 
  </image>
  <image x="652" y="631.587" width="65" height="25" xlink:href="DS_Reg_degree.svg">
    <title>00SRP70AP003_XQ08</title>
    <rt:dyn type="KKS" mode="constant" value="&quot;00SRP70AP003&quot;"/> 
    <rt:dyn type="SIGNAL" mode="constant" value="&quot;XQ08&quot;"/> 
    <rt:dyn type="ShowFrame" mode="constant" value="true"/> 
  </image>
  <image x="721.286" y="770.293" width="70" height="70" xlink:href="DS_motor.svg" transform="rotate(0 0 0)">
    <title>00SRP70AP004</title>
    <rt:dyn type="KKS" mode="constant" value="&quot;00SRP70AP004VL0&quot;"/> 
    <rt:dyn type="DATA_NARY" mode="constant" value="&quot;TYPE1&quot;"/> 
    <rt:dyn type="Operate" mode="constant" value="true"/> 
    <rt:dyn type="DeviceType" mode="constant" value="&quot;doser&quot;"/> 
    <rt:dyn type="IsDoser" mode="constant" value="true"/> 
    <rt:dyn type="Doser_arrow_angle" mode="constant" value="0"/> 
  </image>
  <image x="654" y="772.051" width="65" height="25" xlink:href="DS_Reg_degree.svg">
    <title>00SRP70AP004_XQ08</title>
    <rt:dyn type="KKS" mode="constant" value="&quot;00SRP70AP004&quot;"/> 
    <rt:dyn type="SIGNAL" mode="constant" value="&quot;XQ08&quot;"/> 
    <rt:dyn type="ShowFrame" mode="constant" value="true"/> 
  </image>
  <image x="680.927" y="665.975" width="37.5" height="37.5" xlink:href="DS_Reg_pump.svg" transform="rotate(0 37.5 37.5)">
    <title>00SRP70AP003</title>
    <rt:dyn type="KKS" mode="constant" value="&quot;00SRP70AP003&quot;"/> 
    <rt:dyn type="Outlet_dir" mode="constant" value="&quot;BT&quot;"/> 
    <rt:dyn type="DATA_NARY" mode="constant" value="&quot;TPTS&quot;"/> 
    <rt:dyn type="Operate" mode="constant" value="true"/> 
    <rt:dyn type="NoSP" mode="constant" value="false"/> 
  </image>
  <image x="682.683" y="806.22" width="37.5" height="37.5" xlink:href="DS_Reg_pump.svg" transform="rotate(0 37.5 37.5)">
    <title>00SRP70AP004</title>
    <rt:dyn type="KKS" mode="constant" value="&quot;00SRP70AP004&quot;"/> 
    <rt:dyn type="Outlet_dir" mode="constant" value="&quot;BT&quot;"/> 
    <rt:dyn type="DATA_NARY" mode="constant" value="&quot;TPTS&quot;"/> 
    <rt:dyn type="Operate" mode="constant" value="true"/> 
    <rt:dyn type="NoSP" mode="constant" value="false"/> 
  </image>
  <image x="1620" y="950" width="130" height="25" xlink:href="obj_Button.svg">
    <title>uovs_3</title>
    <rt:dyn type="Label" mode="constant" value="&quot;UOVS_3&quot;"/> 
    <rt:event type="OnClick">LoadNew(&quot;uovs_3&quot;)</rt:event>
  </image>
  <image x="1231" y="125" width="130" height="25" xlink:href="obj_Button.svg">
    <title>uovs_4</title>
    <rt:dyn type="Label" mode="constant" value="&quot;UOVS_4&quot;"/> 
    <rt:event type="OnClick">LoadNew(&quot;uovs_4&quot;)</rt:event>
  </image>
</svg>
