<?xml  version="1.0" encoding="windows-1251"?>
<svg color="Col_BGSand" xmlns="http://www.w3.org/2000/svg" xmlns:rt="http://www.rts.co.at/2001/XMLSchema/RtSvgPL" xmlns:xlink="http://www.w3.org/1999/xlink" xmlns:xsi="http://www.w3.org/2001/XMLSchema-instance" xsi:schemaLocation="http://www.w3.org/2000/svg C:/RTS/\RtSvg\XML\SVG.xsd" viewBox="0 0 1920 1080" width="1920" height="1080" id="20cxu12gh001" fill="Col_Grey3">
  <title>НАСОСНАЯ СТАНЦИЯ ОТВЕТСТВЕННЫХ ПОТРЕБИТЕЛЕЙ</title>
  <rt:model modelversion="7.2.0.24" comment="UMod all_22urf" revision="3"/> 
  <line x1="298" y1="433" x2="298" y2="433" stroke="black"/> 
  <line x1="344" y1="425" x2="342" y2="0"/> 
  <line x1="592.727" y1="690.909" x2="592.727" y2="690.909" stroke="black"/> 
  <line x1="749.091" y1="939.091" x2="749.091" y2="939.091" stroke="black"/> 
  <line x1="638.182" y1="881.818" x2="638.182" y2="881.818" stroke="black"/> 
  <line x1="214.545" y1="692.727" x2="214.545" y2="692.727" stroke="black"/> 
  <line x1="259.091" y1="771.818" x2="259.091" y2="771.818" stroke="black"/> 
  <line x1="195.455" y1="720" x2="195.455" y2="720" stroke="black"/> 
  <line x1="186.364" y1="713.636" x2="186.364" y2="713.636" stroke="black"/> 
  <line x1="191.818" y1="715.455" x2="191.818" y2="715.455" stroke="black"/> 
  <line x1="985.455" y1="149.091" x2="985.455" y2="149.091" stroke="black"/> 
  <line x1="1150" y1="365" x2="1150" y2="365" stroke="black"/> 
  <line x1="1274" y1="337" x2="1274" y2="337" stroke="black"/> 
  <line x1="1029" y1="375" x2="1029" y2="375" stroke="black"/> 
  <line x1="1215.33" y1="421.333" x2="1215.33" y2="421.333" stroke="black"/> 
  <line x1="1007" y1="314.75" x2="1007" y2="314.75" stroke="black"/> 
  <line x1="1027.27" y1="820" x2="1027.27" y2="820" stroke="black"/> 
  <line x1="675" y1="65" x2="675" y2="65" stroke="black"/> 
  <line x1="1468" y1="294" x2="1468" y2="294" stroke="black"/> 
  <line x1="1066.67" y1="766" x2="1066.67" y2="766" stroke="black"/> 
  <line x1="783.669" y1="851.456" x2="783.669" y2="851.456" stroke="black"/> 
  <line x1="410" y1="913" x2="410" y2="913" stroke="black"/> 
  <line x1="398" y1="872" x2="398" y2="872" stroke="black"/> 
  <line x1="841" y1="753" x2="841" y2="753" stroke="black"/> 
  <line x1="1396" y1="754" x2="1396" y2="754" stroke="black"/> 
  <line x1="1369" y1="798" x2="1369" y2="798" stroke="black"/> 
  <line x1="438" y1="1031" x2="438" y2="1031" stroke="black"/> 
  <line x1="419" y1="1033" x2="419" y2="1033" stroke="black"/> 
  <line x1="835" y1="706" x2="835" y2="706" stroke="black"/> 
  <line x1="254.697" y1="145.454" x2="254.697" y2="145.454" stroke="black"/> 
  <line x1="366.818" y1="892.423" x2="366.818" y2="892.423" stroke="black"/> 
  <line x1="1215.33" y1="606" x2="1215.33" y2="606" stroke="black"/> 
  <text x="10" y="22.5" fill="black" font-size="15" font-weight="700" text-anchor="start">20CXU12GH001</text>
  <rect x="88.5606" y="56.5303" width="840.409" height="484.348" rx="0" ry="0" fill="none" stroke="black" stroke-dasharray="5,5" stroke-width="1"/> 
  <text x="667.462" y="85.4546" fill="black" font-size="15">Режим работы 20PEC72</text>
  <rect x="606" y="63" width="307.924" height="81.9546" rx="0" ry="0" fill="none" stroke="black" stroke-width="2"/> 
  <rect x="120.379" y="200.44" width="368.621" height="224.56" rx="0" ry="0" fill="none" stroke="black" stroke-width="3"/> 
  <text x="366" y="368.667" fill="black" font-size="20">Колодец<tspan x="366" dy="20">наружного</tspan>
<tspan x="366" dy="20">дренажа</tspan>
  </text>
  <text x="485.788" y="89.3636" fill="black" font-size="20" text-anchor="middle">20PEC72</text>
  <line x1="131" y1="262.167" x2="220.5" y2="262.167" stroke="black"/> 
  <g fill="black">
    <line x1="198.066" y1="236.958" x2="198.066" y2="261.958" stroke="black"/> 
    <line x1="273.066" y1="236.958" x2="198.066" y2="236.958" stroke="black"/> 
    <line x1="198.066" y1="260.708" x2="203.066" y2="251.958" stroke="black"/> 
    <line x1="1961.93" y1="261.958" x2="1966.93" y2="251.958" stroke="black" transform="flipX(1080)"/> 
    <text x="208" y="231.958" font-size="15"/> 
  </g>
  <image x="274.167" y="226" width="25" height="25" xlink:href="bin_indicator.svg">
    <title>20PEB72CL001_XG02</title>
    <rt:dyn type="PointID" value="&quot;20PEB72CL001_XG02&quot;" mode="constant"/> 
    <rt:dyn type="Col_ON" value="&quot;Col_Green&quot;" mode="constant"/> 
    <rt:dyn type="Col_OFF" value="&quot;Col_BGSand&quot;" mode="constant"/> 
  </image>
  <text x="398.667" y="244.167" fill="black" font-size="20" text-anchor="middle">Уровень &gt; 0.5 м</text>
  <line x1="131" y1="294.167" x2="220.5" y2="294.167" stroke="black"/> 
  <g fill="black">
    <line x1="198.066" y1="268.958" x2="198.066" y2="293.958" stroke="black"/> 
    <line x1="273.066" y1="268.958" x2="198.066" y2="268.958" stroke="black"/> 
    <line x1="198.066" y1="292.708" x2="203.066" y2="283.958" stroke="black"/> 
    <line x1="1961.93" y1="293.958" x2="1966.93" y2="283.958" stroke="black" transform="flipX(1080)"/> 
    <text x="208" y="263.958" font-size="15"/> 
  </g>
  <image x="274.167" y="258" width="25" height="25" xlink:href="bin_indicator.svg">
    <title>20PEB72CL001_XG01</title>
    <rt:dyn type="PointID" value="&quot;20PEB72CL001_XG01&quot;" mode="constant"/> 
    <rt:dyn type="Col_ON" value="&quot;Col_Green&quot;" mode="constant"/> 
    <rt:dyn type="Col_OFF" value="&quot;Col_BGSand&quot;" mode="constant"/> 
  </image>
  <text x="398.667" y="276.167" fill="black" font-size="20" text-anchor="middle">Уровень &gt; 0.4 м</text>
  <line x1="131" y1="360.167" x2="220.5" y2="360.167" stroke="black"/> 
  <g fill="black">
    <line x1="198.066" y1="334.958" x2="198.066" y2="359.958" stroke="black"/> 
    <line x1="273.066" y1="334.958" x2="198.066" y2="334.958" stroke="black"/> 
    <line x1="198.066" y1="358.708" x2="203.066" y2="349.958" stroke="black"/> 
    <line x1="1961.93" y1="359.958" x2="1966.93" y2="349.958" stroke="black" transform="flipX(1080)"/> 
    <text x="208" y="329.958" font-size="15"/> 
  </g>
  <image x="274.167" y="324" width="25" height="25" xlink:href="bin_indicator.svg">
    <title>20PEB72CL001_XG04</title>
    <rt:dyn type="PointID" value="&quot;20PEB72CL001_XG04&quot;" mode="constant"/> 
    <rt:dyn type="Col_ON" value="&quot;Col_Green&quot;" mode="constant"/> 
    <rt:dyn type="Col_OFF" value="&quot;Col_BGSand&quot;" mode="constant"/> 
  </image>
  <text x="398.667" y="342.167" fill="black" font-size="20" text-anchor="middle">Уровень &lt; 0.2 м</text>
  <line x1="131.5" y1="173" x2="131.5" y2="403" stroke="black"/> 
  <text x="602.5" y="508.5" fill="black" font-size="15" text-anchor="middle">20PEC72<tspan x="602.5" dy="15">AP001</tspan>
  </text>
  <line x1="304.689" y1="486" x2="304.689" y2="424.212" stroke="black" stroke-width="3"/> 
  <line x1="707.758" y1="1133.95" x2="707.758" y2="628" stroke="black" stroke-width="3" transform="rotate(90 830.606 607.348)"/> 
  <image x="509" y="449" width="70" height="70" xlink:href="TENZOR_motor.svg" transform="rotate(90 0 0) flipY(0.000165827) rotate(90 0.00012207 0)">
    <title>20PEC72AP001</title>
    <rt:dyn type="DeviceType" mode="constant" value="&quot;pump&quot;"/> 
    <rt:dyn type="Operate" mode="constant" value="true"/> 
    <rt:dyn type="KKS" mode="constant" value="&quot;20PEC72AP001&quot;"/> 
  </image>
  <rect x="1023.92" y="56.5303" width="840.409" height="484.348" rx="0" ry="0" fill="none" stroke="black" stroke-dasharray="5,5" stroke-width="1"/> 
  <text x="1606.64" y="85.4546" fill="black" font-size="15">Режим работы 20PEC62</text>
  <rect x="1549" y="65" width="300.285" height="79.9546" rx="0" ry="0" fill="none" stroke="black" stroke-width="2"/> 
  <rect x="1055.74" y="163" width="368.621" height="260" rx="0" ry="0" fill="none" stroke="black" stroke-width="3"/> 
  <text x="1292.36" y="368.667" fill="black" font-size="20">Колодец<tspan x="1292.36" dy="20">внутреннего</tspan>
<tspan x="1292.36" dy="20">дренажа</tspan>
  </text>
  <text x="1421.15" y="89.3636" fill="black" font-size="20" text-anchor="middle">20PEC62</text>
  <line x1="1066.36" y1="213.167" x2="1155.86" y2="213.167" stroke="black"/> 
  <g fill="black">
    <line x1="1133.43" y1="187.958" x2="1133.43" y2="212.958" stroke="black"/> 
    <line x1="1208.43" y1="187.958" x2="1133.43" y2="187.958" stroke="black"/> 
    <line x1="1133.43" y1="211.708" x2="1138.43" y2="202.958" stroke="black"/> 
    <line x1="1026.57" y1="212.958" x2="1031.57" y2="202.958" stroke="black" transform="flipX(1080)"/> 
    <text x="1143.36" y="182.958" font-size="15"/> 
  </g>
  <image x="1209.53" y="177" width="25" height="25" xlink:href="bin_indicator.svg">
    <title>20PEB62CL001_XG03</title>
    <rt:dyn type="PointID" value="&quot;20PEB62CL001_XG03&quot;" mode="constant"/> 
    <rt:dyn type="Col_ON" value="&quot;Col_Green&quot;" mode="constant"/> 
    <rt:dyn type="Col_OFF" value="&quot;Col_BGSand&quot;" mode="constant"/> 
  </image>
  <text x="1334.03" y="195.167" fill="black" font-size="20" text-anchor="middle">Уровень &gt; 3.0 м</text>
  <line x1="1066.36" y1="269.167" x2="1155.86" y2="269.167" stroke="black"/> 
  <g fill="black">
    <line x1="1133.43" y1="243.958" x2="1133.43" y2="268.958" stroke="black"/> 
    <line x1="1208.43" y1="243.958" x2="1133.43" y2="243.958" stroke="black"/> 
    <line x1="1133.43" y1="267.708" x2="1138.43" y2="258.958" stroke="black"/> 
    <line x1="1026.57" y1="268.958" x2="1031.57" y2="258.958" stroke="black" transform="flipX(1080)"/> 
    <text x="1143.36" y="238.958" font-size="15"/> 
  </g>
  <image x="1209.53" y="233" width="25" height="25" xlink:href="bin_indicator.svg">
    <title>20PEB62CL001_XG02</title>
    <rt:dyn type="PointID" value="&quot;20PEB62CL001_XG02&quot;" mode="constant"/> 
    <rt:dyn type="Col_ON" value="&quot;Col_Green&quot;" mode="constant"/> 
    <rt:dyn type="Col_OFF" value="&quot;Col_BGSand&quot;" mode="constant"/> 
  </image>
  <text x="1334.03" y="251.167" fill="black" font-size="20" text-anchor="middle">Уровень &gt; 2.0 м</text>
  <line x1="1066.36" y1="326.167" x2="1155.86" y2="326.167" stroke="black"/> 
  <g fill="black">
    <line x1="1133.43" y1="296.958" x2="1133.43" y2="321.958" stroke="black"/> 
    <line x1="1208.43" y1="296.958" x2="1133.43" y2="296.958" stroke="black"/> 
    <line x1="1133.43" y1="320.708" x2="1138.43" y2="311.958" stroke="black"/> 
    <line x1="1026.57" y1="321.958" x2="1031.57" y2="311.958" stroke="black" transform="flipX(1080)"/> 
    <text x="1143.36" y="291.958" font-size="15"/> 
  </g>
  <image x="1209.53" y="286" width="25" height="25" xlink:href="bin_indicator.svg">
    <title>20PEB62CL001_XG01</title>
    <rt:dyn type="PointID" value="&quot;20PEB62CL001_XG01&quot;" mode="constant"/> 
    <rt:dyn type="Col_ON" value="&quot;Col_Green&quot;" mode="constant"/> 
    <rt:dyn type="Col_OFF" value="&quot;Col_BGSand&quot;" mode="constant"/> 
  </image>
  <text x="1334.03" y="304.167" fill="black" font-size="20" text-anchor="middle">Уровень &gt; 1.0 м</text>
  <line x1="1066.86" y1="124" x2="1066.86" y2="403" stroke="black"/> 
  <text x="1537.86" y="508.5" fill="black" font-size="15" text-anchor="middle">20PEC62<tspan x="1537.86" dy="15">AP001</tspan>
  </text>
  <line x1="1240.05" y1="486" x2="1240.05" y2="424.212" stroke="black" stroke-width="3"/> 
  <line x1="707.758" y1="198.589" x2="707.758" y2="-307.361" stroke="black" stroke-width="3" transform="rotate(90 830.606 607.348)"/> 
  <image x="1444.36" y="449" width="70" height="70" xlink:href="TENZOR_motor.svg" transform="rotate(90 0 0) flipY(0.000165827) rotate(90 0.00012207 0)">
    <title>20PEC62AP001</title>
    <rt:dyn type="DeviceType" mode="constant" value="&quot;pump&quot;"/> 
    <rt:dyn type="Operate" mode="constant" value="true"/> 
    <rt:dyn type="KKS" mode="constant" value="&quot;20PEC62AP001&quot;"/> 
  </image>
  <line x1="1066.42" y1="363.864" x2="1155.92" y2="363.864" stroke="black"/> 
  <g fill="black">
    <line x1="1133.49" y1="338.655" x2="1133.49" y2="363.655" stroke="black"/> 
    <line x1="1208.49" y1="338.655" x2="1133.49" y2="338.655" stroke="black"/> 
    <line x1="1133.49" y1="362.405" x2="1138.49" y2="353.655" stroke="black"/> 
    <line x1="1026.51" y1="363.655" x2="1031.51" y2="353.655" stroke="black" transform="flipX(1080)"/> 
    <text x="1143.42" y="333.655" font-size="15"/> 
  </g>
  <image x="1209.59" y="327.697" width="25" height="25" xlink:href="bin_indicator.svg">
    <title>20PEB62CL001_XG04</title>
    <rt:dyn type="PointID" value="&quot;20PEB62CL001_XG04&quot;" mode="constant"/> 
    <rt:dyn type="Col_ON" value="&quot;Col_Green&quot;" mode="constant"/> 
    <rt:dyn type="Col_OFF" value="&quot;Col_BGSand&quot;" mode="constant"/> 
  </image>
  <text x="1334.09" y="345.864" fill="black" font-size="20" text-anchor="middle">Уровень &lt; 0.3 м</text>
  <rect x="88.5606" y="592.894" width="1776.86" height="475.258" rx="0" ry="0" fill="none" stroke="black" stroke-dasharray="5,5" stroke-width="1"/> 
  <text x="1542.24" y="629.394" fill="black" font-size="15">Режим работы 20SAQ24/20SAC44</text>
  <rect x="1500" y="607" width="350.487" height="82.3633" rx="0" ry="0" fill="none" stroke="black" stroke-width="2"/> 
  <text x="976.992" y="625.727" fill="black" font-size="20" text-anchor="middle">20SAQ24/20SAQ44</text>
  <rect x="589" y="656" width="823" height="391" rx="0" ry="0" fill="none" stroke="black"/> 
  <text x="982.849" y="987.849" fill="black" font-size="20" text-anchor="middle">23URR05R001<tspan x="982.849" dy="20">Помещение</tspan>
<tspan x="982.849" dy="20">задвижек</tspan>
  </text>
  <line x1="743.356" y1="648" x2="743.356" y2="823.364" stroke="black" stroke-width="3"/> 
  <text x="804.304" y="824.273" fill="black" font-size="15" text-anchor="middle">20SAQ44<tspan x="804.304" dy="15">AN001</tspan>
  </text>
  <line x1="754.713" y1="823.364" x2="754.713" y2="897" stroke="black" stroke-width="3"/> 
  <line x1="-897" y1="742" x2="-897" y2="767" stroke="black" transform="rotate(270)"/> 
  <polygon points="754.5,-53.3335 764.5,-27.3335 744.5,-27.3335" fill="black" transform="flipY(436.333) rotate(0 93.3313 598.5)"/> 
  <image x="709.326" y="707.424" width="70" height="45" xlink:href="DS_pivot_valve.svg"/> 
  <image x="708.356" y="788.506" width="70" height="70" xlink:href="TENZOR_motor.svg" transform="flipX(0.000366211) flipY(-0.000122463) rotate(270 0.00012207 0)">
    <title>20SAQ44AN001</title>
    <rt:dyn type="DeviceType" mode="constant" value="&quot;fan&quot;"/> 
    <rt:dyn type="Operate" mode="constant" value="true"/> 
    <rt:dyn type="KKS" mode="constant" value="&quot;20SAQ44AN001&quot;"/> 
  </image>
  <line x1="-647.667" y1="730.667" x2="-647.667" y2="755.667" stroke="black" transform="rotate(270)"/> 
  <polygon points="743.167,224.999 753.167,250.999 733.167,250.999" fill="black" transform="flipY(436.333) rotate(0 93.3313 598.5)"/> 
  <line x1="1205.36" y1="648" x2="1205.36" y2="823.364" stroke="black" stroke-width="3"/> 
  <text x="1278.3" y="824.273" fill="black" font-size="15" text-anchor="middle">20SAQ24<tspan x="1278.3" dy="15">AN001</tspan>
  </text>
  <line x1="1217.71" y1="823.364" x2="1217.71" y2="897" stroke="black" stroke-width="3"/> 
  <line x1="-897" y1="1205" x2="-897" y2="1230" stroke="black" transform="rotate(270)"/> 
  <polygon points="1217.5,-30.3335 1227.5,-4.3335 1207.5,-4.3335" fill="black" transform="flipY(900) flipY(436.333) rotate(0 93.3313 598.5)"/> 
  <image x="1170.33" y="707.424" width="70" height="45" xlink:href="DS_pivot_valve.svg"/> 
  <line x1="-647.667" y1="1192.67" x2="-647.667" y2="1217.67" stroke="black" transform="rotate(270)"/> 
  <polygon points="1205.17,248.999 1215.17,274.999 1195.17,274.999" fill="black" transform="flipY(621.667) flipY(436.333) rotate(0 93.3313 598.5)"/> 
  <image x="1182.36" y="788.506" width="70" height="70" xlink:href="TENZOR_motor.svg" transform="flipY(-0.00012207) flipX(0.000366211) flipX(0.000366211) flipY(-0.000122463) rotate(270 0.00012207 0)">
    <title>20SAQ24AN001</title>
    <rt:dyn type="DeviceType" mode="constant" value="&quot;fan&quot;"/> 
    <rt:dyn type="Operate" mode="constant" value="true"/> 
    <rt:dyn type="KKS" mode="constant" value="&quot;20SAQ24AN001&quot;"/> 
  </image>
  <rect x="120" y="114.5" width="175.531" height="58.197" rx="0" ry="0" fill="none" stroke="black"/> 
  <text x="208.5" y="133.5" fill="black" font-size="15" text-anchor="middle">20PEB72CL001<tspan x="208.5" dy="15"/> 
<tspan x="208.5" dy="15">Уровень 0.2 - 0.4 м</tspan>
  </text>
  <line x1="119.5" y1="143.599" x2="296" y2="143.599" stroke="black"/> 
  <rect x="1054.5" y="66.5" width="175.531" height="58.197" rx="0" ry="0" fill="none" stroke="black"/> 
  <text x="1143" y="85.5" fill="black" font-size="15" text-anchor="middle">20PEB62CL001<tspan x="1143" dy="15"/> 
<tspan x="1143" dy="15">Уровень 0.3 - 1.0 м</tspan>
  </text>
  <line x1="1054" y1="95.599" x2="1230.5" y2="95.599" stroke="black"/> 
  <text x="1000" y="37" fill="black" font-size="30" font-weight="700" text-anchor="middle">НАСОСНАЯ СТАНЦИЯ ОТВЕТСТВЕННЫХ ПОТРЕБИТЕЛЕЙ</text>
  <image x="1568.5" y="102.849" width="181.818" height="24.2424" xlink:href="bitwise_tablo_4bits.svg">
    <title>&quot;20PEC62SM_XK92&quot;</title>
    <rt:dyn type="PointID_1" mode="constant" value="&quot;20PEC62SM_XK92&quot;"/> 
    <rt:dyn type="Text_0000" mode="constant" value="&quot;АВТОМАТИЧЕСКИЙ&quot;"/> 
    <rt:dyn type="Color_0001" mode="constant" value="&quot;Col_Green&quot;"/> 
    <rt:dyn type="Text_0001" mode="constant" value="&quot;ДИСТАНЦИОННЫЙ&quot;"/> 
    <rt:dyn type="Color_0000" mode="constant" value="&quot;Col_Yellow&quot;"/> 
  </image>
  <image x="1788.64" y="96" width="35" height="35" xlink:href="TENZOR_AH_mode.svg">
    <title>&quot;20PEC62SM&quot;</title>
    <rt:dyn type="KKS" mode="constant" value="&quot;20PEC62SM&quot;"/> 
    <rt:dyn type="Operate" mode="constant" value="&quot;true&quot;"/> 
  </image>
  <image x="624.5" y="96.849" width="181.818" height="24.2424" xlink:href="bitwise_tablo_4bits.svg">
    <title>&quot;20PEC72SM_XK92&quot;</title>
    <rt:dyn type="PointID_1" mode="constant" value="&quot;20PEC72SM_XK92&quot;"/> 
    <rt:dyn type="Text_0000" mode="constant" value="&quot;АВТОМАТИЧЕСКИЙ&quot;"/> 
    <rt:dyn type="Color_0001" mode="constant" value="&quot;Col_Green&quot;"/> 
    <rt:dyn type="Text_0001" mode="constant" value="&quot;ДИСТАНЦИОННЫЙ&quot;"/> 
    <rt:dyn type="Color_0000" mode="constant" value="&quot;Col_Yellow&quot;"/> 
  </image>
  <image x="844.64" y="90" width="35" height="35" xlink:href="TENZOR_AH_mode.svg">
    <title>&quot;20PEC72SM&quot;</title>
    <rt:dyn type="KKS" mode="constant" value="&quot;20PEC72SM&quot;"/> 
    <rt:dyn type="Operate" mode="constant" value="&quot;true&quot;"/> 
  </image>
  <image x="1551.5" y="647.849" width="181.818" height="24.2424" xlink:href="bitwise_tablo_4bits.svg">
    <title>&quot;20SAQ24SAQ44SM_XK92&quot;</title>
    <rt:dyn type="PointID_1" mode="constant" value="&quot;20SAQ24SAQ44SM_XK92&quot;"/> 
    <rt:dyn type="Text_0000" mode="constant" value="&quot;АВТОМАТИЧЕСКИЙ&quot;"/> 
    <rt:dyn type="Color_0001" mode="constant" value="&quot;Col_Green&quot;"/> 
    <rt:dyn type="Text_0001" mode="constant" value="&quot;ДИСТАНЦИОННЫЙ&quot;"/> 
    <rt:dyn type="Color_0000" mode="constant" value="&quot;Col_Yellow&quot;"/> 
  </image>
  <image x="1771.64" y="641" width="35" height="35" xlink:href="TENZOR_AH_mode.svg">
    <title>&quot;20SAQ24SAQ44SM&quot;</title>
    <rt:dyn type="KKS" mode="constant" value="&quot;20SAQ24SAQ44SM&quot;"/> 
    <rt:dyn type="Operate" mode="constant" value="&quot;true&quot;"/> 
  </image>
  <text x="11" y="50" fill="black" font-size="15" font-weight="700" text-anchor="start">22URF</text>
</svg>
