<?xml  version="1.0" encoding="windows-1251"?>
<svg color="Col_BGSand" xmlns="http://www.w3.org/2000/svg" xmlns:rt="http://www.rts.co.at/2001/XMLSchema/RtSvgPL" xmlns:xlink="http://www.w3.org/1999/xlink" xmlns:xsi="http://www.w3.org/2001/XMLSchema-instance" xsi:schemaLocation="http://www.w3.org/2000/svg C:\RTS\RtSvg\XML\SVG.xsd" viewBox="0 0 1920 1080" width="1920" height="1080" id="20kfb06ep712" stroke-width="2" font-weight="700">
  <desc>SPPB7_A</desc>
  <title>КФБ-6 Показания параметров</title>
  <rt:model modelversion="7.2.0.23" comment="Создано User-PC-VAIO\User-PC 17.12.2012 0:52:03"/> 
  <text x="1020" y="58" font-size="34" font-weight="700" text-anchor="middle">
    <rt:event type="OnMouseDown"/> 
    <rt:event type="OnMouseOver"/> 
КФБ-6 Показания параметров</text>
  <text x="107" y="30" font-size="22" font-weight="700" text-anchor="middle">
    <rt:event type="OnMouseDown"/> 
    <rt:event type="OnMouseOver"/> 
20kfb06ep712</text>
  <rect x="171.9" y="127.746" width="12.3261" height="110.603" rx="0" ry="0" fill="Col_Grey3" stroke="black" stroke-width="0" transform="flipY() translate(0 -828) translate(1596.88 -14.8213) matrix(9.38442e-008 2.44 -2.662 1.51561e-007 0 0)"/> 
  <rect x="731" y="628.665" width="19" height="194" rx="3.99508" ry="1.99508" fill="url(#PortalHatch1)" stroke="black" stroke-width="3"/> 
  <rect x="810.03" y="548" width="593.94" height="69.7878" rx="0" ry="0" fill="Col_Grey2" stroke="black"/> 
  <rect x="1426.7" y="108.5" width="478.788" height="89.3939" rx="0" ry="0" fill="Col_Grey2" stroke="black"/> 
  <rect x="234.273" y="548" width="546.97" height="69" rx="0" ry="0" fill="Col_Grey2" stroke="black"/> 
  <text x="1602.09" y="139.273" fill="black" font-size="24" font-style="oblique" text-anchor="middle">Уровень во всех  ГЕ-2<tspan x="1602.09" dy="24">&lt; 0.7 м</tspan>
  </text>
  <rect x="1419.12" y="101.121" width="493.939" height="951.515" rx="0" ry="0" fill="none" stroke="black" stroke-width="2"/> 
  <image x="1771.12" y="122" width="30" height="30" xlink:href="bin_indicator.svg" id="SVGImage846">
    <title>20JNG00FL806_XP06</title>
    <rt:dyn type="PointID" mode="constant" value="&quot;20JNG00FL806_XP06&quot;"/> 
  </image>
  <rect x="816" y="100.6" width="574.303" height="416.067" rx="0" ry="0" fill="none" stroke="black" stroke-width="2"/> 
  <text x="1065.5" y="573" fill="black" font-size="24" font-style="oblique" text-anchor="middle">Отсутствует расход т/н  САПР<tspan x="1065.5" dy="24">Cум Fсапр &lt; 800 м3/ч</tspan>
  </text>
  <image x="1011" y="650.165" width="184.123" height="30" xlink:href="DS_ana.svg">
    <title>20JNA00FF901_XP06</title>
    <rt:dyn type="FKKS" mode="constant" value="&quot;20JNA00FF901_XP06&quot;"/> 
    <rt:dyn type="Suffix" mode="constant" value="&quot;XP06&quot;"/> 
    <rt:dyn type="FName" mode="constant" value="True"/> 
    <rt:dyn type="X" mode="constant" value="&quot;F&quot;"/> 
    <rt:dyn type="ShowEU" mode="constant" value="true"/> 
    <rt:dyn type="Color_Readings" mode="constant" value="true"/> 
    <rt:dyn type="V_Width" mode="constant" value="6"/> 
    <rt:dyn type="X_Width" mode="constant" value="2"/> 
    <rt:dyn type="DecPointNum" mode="constant" value="1"/> 
  </image>
  <rect x="230" y="540.665" width="555.788" height="313.88" rx="0.000427246" ry="0.000427246" fill="none" stroke="black" stroke-width="2"/> 
  <text x="480.5" y="581.165" fill="black" font-size="24" font-style="oblique" text-anchor="middle">Уровень в бассейне<tspan x="480.5" dy="24">выдержки &lt; 10,5 м</tspan>
  </text>
  <image x="665" y="569" width="30" height="30" xlink:href="bin_indicator.svg" id="SVGImage831">
    <title>20JNA00FL802_XP06</title>
    <rt:dyn type="PointID" mode="constant" value="&quot;20JNA00FL802_XP06&quot;"/> 
  </image>
  <line x1="564.879" y1="727.152" x2="594.879" y2="727.152" stroke="black"/> 
  <rect x="265.53" y="628.165" width="19" height="194" rx="3.99508" ry="1.99508" fill="url(#PortalHatch1)" stroke="black" stroke-width="3"/> 
  <text x="318.667" y="738.018" font-size="28">БВ</text>
  <rect x="265.5" y="820.574" width="484.5" height="19.091" rx="0" ry="0" fill="url(#PortalHatch1)" stroke="black" stroke-width="3"/> 
  <image x="390.667" y="715.333" width="175" height="30" xlink:href="DS_ana.svg">
    <title>21JNA10CL901_XQ01</title>
    <rt:dyn type="FKKS" mode="constant" value="&quot;21JNA10CL901&quot;"/> 
    <rt:dyn type="Suffix" mode="constant" value="&quot;XQ01&quot;"/> 
    <rt:dyn type="X" mode="constant" value="&quot;L&quot;"/> 
    <rt:dyn type="ShowEU" mode="constant" value="true"/> 
    <rt:dyn type="Color_Readings" mode="constant" value="true"/> 
    <rt:dyn type="V_Width" mode="constant" value="5"/> 
    <rt:dyn type="DecPointNum" mode="constant" value="1"/> 
  </image>
  <image x="593.992" y="641.165" width="40" height="170" xlink:href="DS_ana_bar.svg">
    <title>21JNA10CL901</title>
    <rt:dyn type="FKKS" mode="constant" value="&quot;21JNA10CL901&quot;"/> 
  </image>
  <g transform="flipX(1239.58) scale(1.53108 1.53108 159.446 343.798)">
    <rect x="2024.2" y="335.536" width="169.754" height="183.287" rx="0" ry="0" fill="#949494" stroke="black" stroke-width="1" transform="flipY() translate(0 -828) translate(-548.835 144.424) scale(0.904489 0.747467)"/> 
    <polyline points="7073.44,344.878 7042.86,344.878 7042.86,299.019 7073.44,299.019" fill="#949494" stroke="black" stroke-width="1" transform="flipY() translate(0 -828) translate(-13.4487 236.628) scale(0.183372 0.75)"/> 
    <polyline points="5873.16,344.878 5842.58,344.878 5842.58,299.019 5873.16,299.019" fill="#949494" stroke="black" stroke-width="1" transform="flipY() translate(0 -828) translate(-28.4422 190.769) scale(0.223402 0.75)"/> 
    <path d="M1759.94 436.596 A76.44 76.44 0 1 1 1607.06 436.596 " fill="#949494" stroke="black" stroke-width="0.996094" transform="flipY() translate(0 -828) translate(-327.638 188.859) scale(1.00289 0.75)"/> 
    <path d="M1879.03 191.405 A83.9237 23.2639 0 1 0 1711.36 192.947 " fill="#949494" stroke="black" stroke-width="1" transform="flipY() translate(0 -828) translate(-288.356 255.736) scale(0.917368 0.75)"/> 
    <path d="M3017.37 451.882 A22.9292 22.9292 0 1 1 3017.37 497.741 " fill="#949494" stroke="black" stroke-width="0" transform="flipY() translate(0 -828) translate(-307.56 121.981) scale(0.527344 0.75)"/> 
    <path d="M3017.37 451.882 A22.9292 22.9292 0 1 1 3017.37 497.741 " fill="#949494" stroke="black" stroke-width="0" transform="flipY() translate(0 -828) translate(-307.56 76.1215) scale(0.527344 0.75)"/> 
    <path d="M-1051.8 451.882 A22.9292 22.9292 0 1 1 -1051.8 497.741 " fill="#949494" stroke="black" stroke-width="0" transform="flipY() translate(0 -828) translate(695.515 121.762) matrix(-0.706062 0 0 0.75 0 0)"/> 
    <path d="M-1051.8 451.882 A22.9292 22.9292 0 1 1 -1051.8 497.741 " fill="#949494" stroke="black" stroke-width="0" transform="flipY() translate(0 -828) translate(695.515 75.9033) matrix(-0.706062 0 0 0.75 0 0)"/> 
    <polyline points="-6414.95,345.114 -6445.53,345.114 -6445.53,299.255 -6414.95,299.255" fill="#949494" stroke="black" stroke-width="1" transform="flipY() translate(0 -828) translate(276.988 235.341) matrix(-0.180925 0 0 0.752975 0 0)"/> 
    <polyline points="-7259.5,344.878 -7290.08,344.878 -7290.08,299.019 -7259.5,299.019" fill="#949494" stroke="black" stroke-width="1" transform="flipY() translate(0 -828) translate(269.492 190.551) matrix(-0.160909 0 0 0.75 0 0)"/> 
    <rect x="1244.7" y="433.561" width="167.091" height="9.1373" rx="0" ry="0" fill="#949494" stroke="black" stroke-width="0.992188" transform="flipY() translate(0 -828) translate(22.9279 214.322) scale(1.00708 0.696439)"/> 
    <rect x="1244.7" y="433.561" width="167.091" height="9.1373" rx="0" ry="0" fill="#949494" stroke="black" stroke-width="0.992188" transform="flipY() translate(0 -828) translate(22.6222 208.18) scale(1.00708 0.696439)"/> 
  </g>
  <rect x="230" y="100.6" width="554.242" height="416.067" rx="0" ry="0" fill="none" stroke="black" stroke-width="2"/> 
  <image x="465" y="409.5" width="30" height="30" xlink:href="bin_indicator.svg" id="SVGImage848">
    <title>21JAA33FL001T_XG13</title>
    <rt:dyn type="PointID" mode="constant" value="&quot;21JAA33FL001T_XG13&quot;"/> 
  </image>
  <image x="465" y="359.5" width="30" height="30" xlink:href="bin_indicator.svg" id="SVGImage850">
    <title>21JAA23FL001T_XG13</title>
    <rt:dyn type="PointID" mode="constant" value="&quot;21JAA23FL001T_XG13&quot;"/> 
  </image>
  <text x="1116" y="725.091" fill="black" font-size="20" font-style="oblique" text-anchor="middle">Насос расхолаживания НД</text>
  <image x="1009" y="779.926" width="60" height="60" xlink:href="DS_motor.svg" stroke-width="1">
    <title>&quot;21JNA11AP001&quot;</title>
    <rt:dyn type="KKS" value="&quot;21JNA11AP001&quot;" mode="constant"/> 
    <rt:dyn type="DATA_NARY" mode="constant" value="&quot;TPTS&quot;"/> 
  </image>
  <image x="812" y="793" width="175" height="30" xlink:href="DS_ana.svg">
    <title>21JNA11CF901_XQ01</title>
    <rt:dyn type="FKKS" mode="constant" value="&quot;21JNA11CF901&quot;"/> 
    <rt:dyn type="Suffix" mode="constant" value="&quot;XQ01&quot;"/> 
    <rt:dyn type="X" mode="constant" value="&quot;F&quot;"/> 
    <rt:dyn type="ShowEU" mode="constant" value="true"/> 
    <rt:dyn type="Color_Readings" mode="constant" value="true"/> 
    <rt:dyn type="V_Width" mode="constant" value="5"/> 
    <rt:dyn type="DecPointNum" mode="constant" value="1"/> 
  </image>
  <line x1="892.809" y1="776.575" x2="892.909" y2="776.575" stroke="black"/> 
  <text x="1116" y="867.287" fill="black" font-size="20" font-style="oblique" text-anchor="middle">Насос расхолаживания ВД</text>
  <image x="1009" y="923.061" width="60" height="60" xlink:href="DS_motor.svg" stroke-width="1">
    <title>&quot;21JNA12AP001&quot;</title>
    <rt:dyn type="KKS" value="&quot;21JNA12AP001&quot;" mode="constant"/> 
    <rt:dyn type="DATA_NARY" mode="constant" value="&quot;TPTS&quot;"/> 
  </image>
  <image x="812" y="936.182" width="175" height="30" xlink:href="DS_ana.svg">
    <title>21JNA12CF901_XQ01</title>
    <rt:dyn type="FKKS" mode="constant" value="&quot;21JNA12CF901&quot;"/> 
    <rt:dyn type="Suffix" mode="constant" value="&quot;XQ01&quot;"/> 
    <rt:dyn type="X" mode="constant" value="&quot;F&quot;"/> 
    <rt:dyn type="ShowEU" mode="constant" value="true"/> 
    <rt:dyn type="Color_Readings" mode="constant" value="true"/> 
    <rt:dyn type="V_Width" mode="constant" value="5"/> 
    <rt:dyn type="DecPointNum" mode="constant" value="1"/> 
  </image>
  <image x="1311.82" y="569" width="30" height="30" xlink:href="bin_indicator.svg" id="SVGImage852">
    <title>20JNA00FF805_XP06</title>
    <rt:dyn type="PointID" mode="constant" value="&quot;20JNA00FF805_XP06&quot;"/> 
  </image>
  <rect x="236" y="109.165" width="539" height="89" rx="0" ry="0" fill="Col_Grey2" stroke="black"/> 
  <text x="505.5" y="136" fill="black" font-size="24" font-style="oblique" text-anchor="middle">Уровень в реакторе ниже<tspan x="505.5" dy="24">&quot;холодных патрубков&quot;</tspan>
  </text>
  <rect x="801" y="541.165" width="610.545" height="509.956" rx="0" ry="0" fill="none" stroke="black" stroke-width="2"/> 
  <line x1="284" y1="635.165" x2="730" y2="634.165" stroke="black"/> 
  <rect x="238" y="882.5" width="540" height="69" rx="0" ry="0" fill="Col_Grey2" stroke="black"/> 
  <rect x="230" y="870" width="557.303" height="181.121" rx="1.26489" ry="0.000427246" fill="none" stroke="black" stroke-width="2"/> 
  <text x="448.849" y="916.468" fill="black" font-size="24" font-style="oblique" text-anchor="middle">Уровень в приямке &lt;= 3,4 м</text>
  <image x="666.349" y="892.468" width="30" height="30" xlink:href="bin_indicator.svg" id="SVGImage832">
    <title>20JMA10FL803_XP06</title>
    <rt:dyn type="PointID" mode="constant" value="&quot;20JMA10FL803_XP06&quot;"/> 
  </image>
  <rect x="665.394" y="958.665" width="21.106" height="75" rx="3.99508" ry="1.99508" fill="url(#PortalHatch1)" stroke="black" stroke-width="3"/> 
  <image x="588" y="973.5" width="30" height="30" xlink:href="bin_indicator.svg" id="SVGImage833">
    <title>21JMA10CL001C_XG01</title>
    <rt:dyn type="PointID" mode="constant" value="&quot;21JMA10CL001C_XG01&quot;"/> 
    <rt:dyn type="Col_ON" mode="constant" value="&quot;Col_Green&quot;"/> 
    <rt:dyn type="Col_OFF" mode="constant" value="&quot;Col_Red&quot;"/> 
  </image>
  <image x="547" y="973.5" width="30" height="30" xlink:href="bin_indicator.svg" id="SVGImage834">
    <title>21JMA10CL001B_XG01</title>
    <rt:dyn type="PointID" mode="constant" value="&quot;21JMA10CL001B_XG01&quot;"/> 
    <rt:dyn type="Col_ON" mode="constant" value="&quot;Col_Green&quot;"/> 
    <rt:dyn type="Col_OFF" mode="constant" value="&quot;Col_Red&quot;"/> 
  </image>
  <image x="508" y="974" width="30" height="30" xlink:href="bin_indicator.svg" id="SVGImage835">
    <title>21JMA10CL001A_XG01</title>
    <rt:dyn type="PointID" mode="constant" value="&quot;21JMA10CL001A_XG01&quot;"/> 
    <rt:dyn type="Col_OFF" mode="constant" value="&quot;Col_Red&quot;"/> 
    <rt:dyn type="Col_ON" mode="constant" value="&quot;Col_Green&quot;"/> 
  </image>
  <rect x="343.5" y="958.665" width="22.364" height="68.106" rx="3.99508" ry="1.99508" fill="url(#PortalHatch1)" stroke="black" stroke-width="3"/> 
  <line x1="367.364" y1="964.771" x2="666.5" y2="965.165" stroke="black"/> 
  <rect x="343.879" y="1011.57" width="342.621" height="22.091" rx="0" ry="0" fill="url(#PortalHatch1)" stroke="black" stroke-width="3"/> 
  <image x="683.515" y="122" width="30" height="30" xlink:href="bin_indicator.svg" id="SVGImage851">
    <title>20JAA00FL801_XP06</title>
    <rt:dyn type="PointID" mode="constant" value="&quot;20JAA00FL801_XP06&quot;"/> 
  </image>
  <text x="417.273" y="267.695" font-size="28">Реактор</text>
  <rect x="1056.33" y="207.379" width="102" height="31" rx="0" ry="0" fill="Col_Grey3" stroke="darkslategrey" stroke-width="1"/> 
  <line x1="1056.33" y1="222.379" x2="1157.33" y2="222.379" stroke="black" stroke-width="2"/> 
  <rect x="1073.83" y="236.366" width="69.4848" height="15.0126" rx="0" ry="0" fill="Col_Grey3"/> 
  <circle cx="547.345" cy="127.066" r="45.505" fill="Col_Grey3" stroke="black" stroke-width="0" transform="flipY() translate(0 -828) translate(1447.07 -127.695) matrix(1.24568e-007 1.2 -2.662 5.61539e-008 0 0)"/> 
  <rect x="159.75" y="139.073" width="62.516" height="89.7307" rx="0" ry="0" fill="Col_Grey3" stroke="black" stroke-width="0" transform="flipY() translate(0 -828) translate(1596.88 -14.8213) matrix(9.38442e-008 2.44 -2.662 1.51561e-007 0 0)"/> 
  <circle cx="160.742" cy="127.535" r="45.4167" fill="Col_Grey3" stroke="black" stroke-width="0" transform="flipY() translate(0 -828) translate(1447.07 183.123) matrix(1.24568e-007 1.2 -2.662 5.61539e-008 0 0)"/> 
  <image x="1096" y="394.451" width="30" height="30" xlink:href="bin_indicator.svg" id="SVGImage840">
    <title>21JRG03ER011_XE12</title>
    <rt:dyn type="PointID" mode="constant" value="&quot;21JRG03ER011_XE12&quot;"/> 
  </image>
  <image x="1096" y="355.451" width="30" height="30" xlink:href="bin_indicator.svg" id="SVGImage841">
    <title>21JRF03ER011_XE12</title>
    <rt:dyn type="PointID" mode="constant" value="&quot;21JRF03ER011_XE12&quot;"/> 
  </image>
  <image x="1096" y="317.5" width="30" height="30" xlink:href="bin_indicator.svg" id="SVGImage842">
    <title>21JRE03ER011_XE12</title>
    <rt:dyn type="PointID" mode="constant" value="&quot;21JRE03ER011_XE12&quot;"/> 
  </image>
  <text x="1086.67" y="277.727" font-size="28">КД</text>
  <text x="434" y="940.5" fill="black" font-size="18" font-style="oblique" text-anchor="middle">=f(НЕ 2  из 3-х)</text>
  <text x="505.5" y="183.333" fill="black" font-size="18" font-style="oblique" text-anchor="middle">=f(ИЛИ входным параметрам)</text>
  <rect x="825" y="108.5" width="555.576" height="89" rx="0" ry="0" fill="Col_Grey2" stroke="black"/> 
  <text x="1102.79" y="146" fill="black" font-size="24" font-style="oblique" text-anchor="middle">Уровень в КД &lt; 4 м</text>
  <image x="1246" y="122" width="30" height="30" xlink:href="bin_indicator.svg" id="SVGImage839">
    <title>20JEF10FL804_XP06</title>
    <rt:dyn type="PointID" mode="constant" value="&quot;20JEF10FL804_XP06&quot;"/> 
  </image>
  <text x="1101.03" y="183.333" fill="black" font-size="18" font-style="oblique" text-anchor="middle">=f(ИЛИ по входным параметрам)</text>
  <image x="1642.6" y="257.09" width="40" height="150" xlink:href="DS_ana_bar.svg">
    <title>21JNG10CL001</title>
    <rt:dyn type="FKKS" mode="constant" value="&quot;21JNG10CL001&quot;"/> 
  </image>
  <g>
    <rect x="1493.5" y="253.148" width="99.7575" height="23.803" rx="0" ry="0" fill="Col_Grey3" stroke="darkslategrey" stroke-width="1"/> 
    <line x1="1492.72" y1="264.872" x2="1592.95" y2="264.872" stroke="black" stroke-width="2"/> 
    <rect x="1519.72" y="266.872" width="47.4848" height="14.7879" rx="0" ry="0" fill="Col_Grey3"/> 
    <circle cx="486.526" cy="-36.6826" r="35.3536" fill="Col_Grey3" stroke="black" stroke-width="0" transform="flipY() translate(0 -828) translate(1447.07 -127.695) matrix(1.24568e-007 1.2 -2.662 5.61539e-008 0 0)"/> 
    <rect x="192.398" y="-15.7173" width="22.5096" height="70.8952" rx="0" ry="0" fill="Col_Grey3" stroke="black" stroke-width="0" transform="flipY() translate(0 -828) translate(1596.88 -14.8213) matrix(9.38442e-008 2.44 -2.662 1.51561e-007 0 0)"/> 
    <circle cx="269.177" cy="-36.6827" r="35.3536" fill="Col_Grey3" stroke="black" stroke-width="0" transform="flipY() translate(0 -828) translate(1447.07 183.123) matrix(1.24568e-007 1.2 -2.662 5.61539e-008 0 0)"/> 
  </g>
  <g>
    <rect x="1493.5" y="433.768" width="99.7575" height="23.803" rx="0" ry="0" fill="Col_Grey3" stroke="darkslategrey" stroke-width="1"/> 
    <line x1="1492.72" y1="445.493" x2="1592.95" y2="445.493" stroke="black" stroke-width="2"/> 
    <rect x="1519.72" y="447.493" width="47.4848" height="14.7879" rx="0" ry="0" fill="Col_Grey3"/> 
    <circle cx="336.011" cy="-36.6826" r="35.3536" fill="Col_Grey3" stroke="black" stroke-width="0" transform="flipY() translate(0 -828) translate(1447.07 -127.695) matrix(1.24568e-007 1.2 -2.662 5.61539e-008 0 0)"/> 
    <rect x="118.374" y="-15.7173" width="22.5096" height="70.8952" rx="0" ry="0" fill="Col_Grey3" stroke="black" stroke-width="0" transform="flipY() translate(0 -828) translate(1596.88 -14.8213) matrix(9.38442e-008 2.44 -2.662 1.51561e-007 0 0)"/> 
    <circle cx="118.66" cy="-36.6826" r="35.3536" fill="Col_Grey3" stroke="black" stroke-width="0" transform="flipY() translate(0 -828) translate(1447.07 183.123) matrix(1.24568e-007 1.2 -2.662 5.61539e-008 0 0)"/> 
  </g>
  <image x="1645.6" y="437.855" width="40" height="150" xlink:href="DS_ana_bar.svg">
    <title>21JNG10CL002</title>
    <rt:dyn type="FKKS" mode="constant" value="&quot;21JNG10CL002&quot;"/> 
  </image>
  <g>
    <rect x="1493.5" y="615.769" width="99.7575" height="23.803" rx="0" ry="0" fill="Col_Grey3" stroke="darkslategrey" stroke-width="1"/> 
    <line x1="1492.72" y1="627.493" x2="1592.95" y2="627.493" stroke="black" stroke-width="2"/> 
    <rect x="1519.72" y="629.493" width="47.4848" height="14.7879" rx="0" ry="0" fill="Col_Grey3"/> 
    <circle cx="184.344" cy="-36.6826" r="35.3536" fill="Col_Grey3" stroke="black" stroke-width="0" transform="flipY() translate(0 -828) translate(1447.07 -127.695) matrix(1.24568e-007 1.2 -2.662 5.61539e-008 0 0)"/> 
    <rect x="43.782" y="-15.7173" width="22.5096" height="70.8952" rx="0" ry="0" fill="Col_Grey3" stroke="black" stroke-width="0" transform="flipY() translate(0 -828) translate(1596.88 -14.8213) matrix(9.38442e-008 2.44 -2.662 1.51561e-007 0 0)"/> 
    <circle cx="-33.0075" cy="-36.6826" r="35.3536" fill="Col_Grey3" stroke="black" stroke-width="0" transform="flipY() translate(0 -828) translate(1447.07 183.123) matrix(1.24568e-007 1.2 -2.662 5.61539e-008 0 0)"/> 
  </g>
  <image x="1645" y="619.665" width="40" height="150" xlink:href="DS_ana_bar.svg">
    <title>21JNG20CL001</title>
    <rt:dyn type="FKKS" mode="constant" value="&quot;21JNG20CL001&quot;"/> 
  </image>
  <g>
    <rect x="1493.5" y="798.146" width="99.7575" height="23.803" rx="0" ry="0" fill="Col_Grey3" stroke="darkslategrey" stroke-width="1"/> 
    <line x1="1492.72" y1="809.872" x2="1592.95" y2="809.872" stroke="black" stroke-width="2"/> 
    <rect x="1519.72" y="811.872" width="47.4848" height="14.7879" rx="0" ry="0" fill="Col_Grey3"/> 
    <circle cx="32.3626" cy="-36.6826" r="35.3536" fill="Col_Grey3" stroke="black" stroke-width="0" transform="flipY() translate(0 -828) translate(1447.07 -127.695) matrix(1.24568e-007 1.2 -2.662 5.61539e-008 0 0)"/> 
    <rect x="-30.9632" y="-15.7174" width="22.5096" height="70.8952" rx="0" ry="0" fill="Col_Grey3" stroke="black" stroke-width="0" transform="flipY() translate(0 -828) translate(1596.88 -14.8213) matrix(9.38442e-008 2.44 -2.662 1.51561e-007 0 0)"/> 
    <circle cx="-184.989" cy="-36.6827" r="35.3536" fill="Col_Grey3" stroke="black" stroke-width="0" transform="flipY() translate(0 -828) translate(1447.07 183.123) matrix(1.24568e-007 1.2 -2.662 5.61539e-008 0 0)"/> 
  </g>
  <image x="1645" y="801.665" width="40" height="150" xlink:href="DS_ana_bar.svg">
    <title>21JNG20CL002</title>
    <rt:dyn type="FKKS" mode="constant" value="&quot;21JNG20CL002&quot;"/> 
  </image>
  <text x="1114.91" y="999" fill="black" font-size="20" text-anchor="middle">Информация о  расходе насосов JNA21AP001 и<tspan x="1114.91" dy="20">JNA22AP001 должна  быть введена оператором</tspan>
<tspan x="1114.91" dy="20">на видеокадре 20kfb06ep711</tspan>
  </text>
  <text x="255" y="30" font-size="28" font-weight="700" text-anchor="middle">
    <rt:event type="OnMouseDown"/> 
    <rt:event type="OnMouseOver"/> 
ПБ1</text>
  <image x="1153.15" y="793" width="175" height="30" xlink:href="DS_ana.svg">
    <title>20JNA21CF901_XQ01</title>
    <rt:dyn type="FKKS" mode="constant" value="&quot;20JNA21CF901&quot;"/> 
    <rt:dyn type="Suffix" mode="constant" value="&quot;XQ01&quot;"/> 
    <rt:dyn type="X" mode="constant" value="&quot;F&quot;"/> 
    <rt:dyn type="ShowEU" mode="constant" value="true"/> 
    <rt:dyn type="Color_Readings" mode="constant" value="true"/> 
    <rt:dyn type="V_Width" mode="constant" value="5"/> 
    <rt:dyn type="DecPointNum" mode="constant" value="1"/> 
  </image>
  <line x1="1241.14" y1="777.727" x2="1241.24" y2="777.727" stroke="black"/> 
  <image x="1153.15" y="936.182" width="175" height="30" xlink:href="DS_ana.svg">
    <title>20JNA22CF901_XQ01</title>
    <rt:dyn type="FKKS" mode="constant" value="&quot;20JNA22CF901&quot;"/> 
    <rt:dyn type="Suffix" mode="constant" value="&quot;XQ01&quot;"/> 
    <rt:dyn type="X" mode="constant" value="&quot;F&quot;"/> 
    <rt:dyn type="ShowEU" mode="constant" value="true"/> 
    <rt:dyn type="Color_Readings" mode="constant" value="true"/> 
    <rt:dyn type="V_Width" mode="constant" value="5"/> 
    <rt:dyn type="DecPointNum" mode="constant" value="1"/> 
  </image>
  <text x="1259" y="754.788" fill="Col_Red" font-size="22" font-style="oblique" text-anchor="middle">Информация с ПБ2</text>
  <line x1="1119" y1="740" x2="1119" y2="822" stroke="black"/> 
  <line x1="1276" y1="659" x2="1276.1" y2="659" stroke="black"/> 
  <line x1="1119" y1="884.75" x2="1119" y2="966.75" stroke="black"/> 
  <text x="1262" y="890.667" fill="Col_Red" font-size="22" font-style="oblique" text-anchor="middle">Информация с ПБ2</text>
  <text x="1602.09" y="187" fill="black" font-size="18" font-style="oblique" text-anchor="middle">=f(И по входным параметрам)</text>
  <text x="1666.67" y="999" fill="black" font-size="20" text-anchor="middle">Информация об уровне JNG30 и JNG40<tspan x="1666.67" dy="20">должна  быть введена оператором</tspan>
<tspan x="1666.67" dy="20">на видеокадре 20kfb06ep711</tspan>
  </text>
  <text x="1794.12" y="433.03" fill="Col_Red" font-size="22" font-style="oblique" text-anchor="middle">Информация<tspan x="1794.12" dy="22">с ПБ2</tspan>
  </text>
  <text x="1800" y="521.061" fill="black" font-size="22" font-style="oblique" text-anchor="middle">Уровень в JNG30<tspan x="1800" dy="22">&lt; 0,7</tspan>
  </text>
  <text x="1800" y="647.515" fill="black" font-size="22" font-style="oblique" text-anchor="middle">Уровень в JNG40<tspan x="1800" dy="22">&lt; 0,7</tspan>
  </text>
  <image x="1778" y="561.636" width="30" height="30" xlink:href="bin_indicator.svg" id="SVGImage853">
    <title>20JNG30FL809_XP06</title>
    <rt:dyn type="PointID" mode="constant" value="&quot;20JNG30FL809_XP06&quot;"/> 
  </image>
  <image x="1778" y="685.97" width="30" height="30" xlink:href="bin_indicator.svg" id="SVGImage854">
    <title>20JNG40FL810_XP06</title>
    <rt:dyn type="PointID" mode="constant" value="&quot;20JNG40FL810_XP06&quot;"/> 
  </image>
  <image x="16" y="41" width="200" height="54" xlink:href="bin_tablo.svg">
    <title>&quot;20JRN05EH801_XP10&quot;</title>
    <rt:dyn type="T_String" mode="constant" value="&quot;Срабатывание\nАЗ&quot;"/> 
    <rt:dyn type="T_Style" mode="constant" value="&quot;oblique&quot;"/> 
    <rt:dyn type="PointID_status" mode="constant" value="&quot;20JRN05EH801_XP10&quot;"/> 
    <rt:dyn type="T_Size" mode="constant" value="26"/> 
    <rt:dyn type="Col_ON" mode="constant" value="&quot;Col_Red&quot;"/> 
    <rt:dyn type="Col_OFF" mode="constant" value="&quot;Col_Grey2&quot;"/> 
    <rt:dyn type="T_Font" mode="constant" value="&quot;AAP_Font3&quot;"/> 
  </image>
  <image x="26" y="103" width="180" height="80" xlink:href="spds_timer_csf.svg">
    <rt:dyn type="PID" mode="constant" value="&quot;20KFB06EU801_ZP06&quot;"/> 
    <rt:dyn type="STime" mode="onchange" value="BIN(&quot;20KFB00EU800_ZP05&quot;).FieldTime"/> 
    <rt:dyn type="Hide" mode="constant" value="true"/> 
  </image>
  <image x="-14" y="197" width="254" height="585" xlink:href="spds_menu_vert.svg">
    <rt:dyn type="dm_color_1" mode="unknown" value="&quot;20KFB01EU801_ZP05&quot;"/> 
    <rt:dyn type="dm_color_2" mode="unknown" value="&quot;20KFB02EU801_ZP05&quot;"/> 
    <rt:dyn type="dm_color_3" mode="unknown" value="&quot;20KFB12EU801_ZP05&quot;"/> 
    <rt:dyn type="dm_color_4" mode="unknown" value="&quot;20KFB03EU801_ZP05&quot;"/> 
    <rt:dyn type="dm_color_5" mode="unknown" value="&quot;20KFB04EU801_ZP05&quot;"/> 
    <rt:dyn type="dm_color_6" mode="unknown" value="&quot;20KFB05EU801_ZP05&quot;"/> 
    <rt:dyn type="dm_color_7" mode="unknown" value="&quot;20KFB06EU801_ZP05&quot;"/> 
    <rt:dyn type="Frame_1" mode="unknown" value="&quot;20KFB01EU801_ZP07&quot;"/> 
    <rt:dyn type="Frame_2" mode="unknown" value="&quot;20KFB02EU801_ZP07&quot;"/> 
    <rt:dyn type="Frame_3" mode="unknown" value="&quot;20KFB12EU801_ZP07&quot;"/> 
    <rt:dyn type="Frame_4" mode="unknown" value="&quot;20KFB03EU801_ZP07&quot;"/> 
    <rt:dyn type="Frame_5" mode="unknown" value="&quot;20KFB04EU801_ZP07&quot;"/> 
    <rt:dyn type="Frame_6" mode="unknown" value="&quot;20KFB05EU801_ZP07&quot;"/> 
    <rt:dyn type="Frame_7" mode="unknown" value="&quot;20KFB06EU801_ZP07&quot;"/> 
    <rt:dyn type="Link_1" mode="constant" value="&quot;20kfb01ep711&quot;"/> 
    <rt:dyn type="PointID1" mode="constant" value="&quot;20KFB00EU800_ZP05&quot;"/> 
    <rt:dyn type="Link_2" mode="constant" value="&quot;20kfb02ep711&quot;"/> 
    <rt:dyn type="Link_3" mode="constant" value="&quot;20kfb12ep711&quot;"/> 
    <rt:dyn type="Link_4" mode="constant" value="&quot;20kfb03ep711&quot;"/> 
    <rt:dyn type="Link_5" mode="constant" value="&quot;20kfb04ep711&quot;"/> 
    <rt:dyn type="Link_6" mode="constant" value="&quot;20kfb05ep711&quot;"/> 
    <rt:dyn type="Link_7" mode="constant" value="&quot;20kfb06ep711&quot;"/> 
  </image>
  <image x="67" y="938" width="65" height="65" xlink:href="dull_Logs.bmp"/> 
  <image x="-8.1819" y="868.864" width="80" height="60" xlink:href="spds_instr_button.svg">
    <rt:dyn type="FileName" mode="constant" value="&quot;ruta&quot;"/> 
    <rt:dyn type="InstrName" mode="constant" value="&quot;РУТА&quot;"/> 
  </image>
  <image x="61.8181" y="868.864" width="80" height="60" xlink:href="spds_instr_button.svg">
    <rt:dyn type="FileName" mode="constant" value="&quot;ruza&quot;"/> 
    <rt:dyn type="InstrName" mode="constant" value="&quot;РУЗА&quot;"/> 
  </image>
  <image x="131.818" y="868.864" width="80" height="60" xlink:href="spds_instr_button.svg">
    <rt:dyn type="FileName" mode="constant" value="&quot;ila_tpv2&quot;"/> 
    <rt:dyn type="InstrName" mode="constant" value="&quot;ИЛА&quot;"/> 
  </image>
  <image x="65.5152" y="934.121" width="65" height="65" xlink:href="obj_Button_icon.svg" id="SVGImage948">
    <title>Протокол  kfb6</title>
    <rt:event type="OnClick">VAR(RTA.MyTask.TaskName + &quot;.PORTAL_Command&quot;).ValueString = &quot;REPORT_VIEW OPEN S:kfb6&quot;</rt:event>
  </image>
  <image x="319.091" y="760.455" width="50" height="50" xlink:href="obj_Button_trend.svg">
    <rt:dyn type="PointID1" mode="constant" value="&quot;21JNA10CL901_XQ01&quot;"/> 
  </image>
  <image x="1299.67" y="636.667" width="50" height="50" xlink:href="obj_Button_trend.svg">
    <rt:dyn type="PointID1" mode="constant" value="&quot;21JNA11CF901_XQ01&quot;"/> 
    <rt:dyn type="PointID2" mode="constant" value="&quot;21JNA12CF901_XQ01&quot;"/> 
    <rt:dyn type="PointID3" mode="constant" value="&quot;20JNA21CF901_XQ01&quot;"/> 
    <rt:dyn type="PointID4" mode="constant" value="&quot;20JNA22CF901_XQ01&quot;"/> 
    <rt:dyn type="PointID5" mode="constant" value="&quot;20JNA00FF901_XP06&quot;"/> 
  </image>
  <image x="1832" y="126.667" width="50" height="50" xlink:href="obj_Button_trend.svg">
    <rt:dyn type="PointID1" mode="constant" value="&quot;21JNG10CL001_XQ01&quot;"/> 
    <rt:dyn type="PointID2" mode="constant" value="&quot;21JNG10CL002_XQ01&quot;"/> 
    <rt:dyn type="PointID3" mode="constant" value="&quot;21JNG20CL001_XQ01&quot;"/> 
    <rt:dyn type="PointID4" mode="constant" value="&quot;21JNG20CL002_XQ01&quot;"/> 
  </image>
  <image x="132" y="935" width="80" height="60" xlink:href="spds_instr_button.svg">
    <title>Руководство оператора СППБ</title>
    <rt:dyn type="FileName" mode="constant" value="&quot;SPDS_Operator_manual&quot;"/> 
    <rt:dyn type="InstrName" mode="constant" value="&quot;Опер.&quot;"/> 
    <rt:dyn type="InstrP" mode="constant" value="&quot;Рук-во&quot;"/> 
  </image>
  <image x="1453" y="347.413" width="175" height="30" xlink:href="DS_ana.svg">
    <title>21JNG10CL001_XQ01</title>
    <rt:dyn type="FKKS" mode="constant" value="&quot;21JNG10CL001&quot;"/> 
    <rt:dyn type="Suffix" mode="constant" value="&quot;XQ01&quot;"/> 
    <rt:dyn type="ShowEU" mode="constant" value="true"/> 
    <rt:dyn type="Color_Readings" mode="constant" value="true"/> 
    <rt:dyn type="V_Width" mode="constant" value="5"/> 
    <rt:dyn type="DecPointNum" mode="constant" value="1"/> 
    <rt:dyn type="X" mode="constant" value="&quot;L&quot;"/> 
  </image>
  <text x="1541" y="340.909" fill="black" font-family="AAP_Font3" font-size="22" font-style="oblique" text-anchor="middle">21JNG10CL001</text>
  <text x="1541" y="518.606" fill="black" font-family="AAP_Font3" font-size="22" font-style="oblique" text-anchor="middle">21JNG10CL002</text>
  <text x="1541" y="696.909" fill="black" font-family="AAP_Font3" font-size="22" font-style="oblique" text-anchor="middle">21JNG20CL001</text>
  <text x="1541" y="885.727" fill="black" font-family="AAP_Font3" font-size="22" font-style="oblique" text-anchor="middle">21JNG20CL002</text>
  <image x="1453" y="524.091" width="175" height="30" xlink:href="DS_ana.svg">
    <title>21JNG10CL002_XQ01</title>
    <rt:dyn type="FKKS" mode="constant" value="&quot;21JNG10CL002&quot;"/> 
    <rt:dyn type="Suffix" mode="constant" value="&quot;XQ01&quot;"/> 
    <rt:dyn type="ShowEU" mode="constant" value="true"/> 
    <rt:dyn type="Color_Readings" mode="constant" value="true"/> 
    <rt:dyn type="V_Width" mode="constant" value="5"/> 
    <rt:dyn type="DecPointNum" mode="constant" value="1"/> 
    <rt:dyn type="X" mode="constant" value="&quot;L&quot;"/> 
  </image>
  <image x="1453" y="701.758" width="175" height="30" xlink:href="DS_ana.svg">
    <title>21JNG20CL001_XQ01</title>
    <rt:dyn type="FKKS" mode="constant" value="&quot;21JNG20CL001&quot;"/> 
    <rt:dyn type="Suffix" mode="constant" value="&quot;XQ01&quot;"/> 
    <rt:dyn type="ShowEU" mode="constant" value="true"/> 
    <rt:dyn type="Color_Readings" mode="constant" value="true"/> 
    <rt:dyn type="V_Width" mode="constant" value="5"/> 
    <rt:dyn type="DecPointNum" mode="constant" value="1"/> 
    <rt:dyn type="X" mode="constant" value="&quot;L&quot;"/> 
  </image>
  <image x="1453" y="893.788" width="175" height="30" xlink:href="DS_ana.svg">
    <title>21JNG20CL002_XQ01</title>
    <rt:dyn type="FKKS" mode="constant" value="&quot;21JNG20CL002&quot;"/> 
    <rt:dyn type="Suffix" mode="constant" value="&quot;XQ01&quot;"/> 
    <rt:dyn type="ShowEU" mode="constant" value="true"/> 
    <rt:dyn type="Color_Readings" mode="constant" value="true"/> 
    <rt:dyn type="V_Width" mode="constant" value="5"/> 
    <rt:dyn type="DecPointNum" mode="constant" value="1"/> 
    <rt:dyn type="X" mode="constant" value="&quot;L&quot;"/> 
  </image>
  <text x="906.97" y="785" fill="black" font-family="AAP_Font3" font-size="22" text-anchor="middle">21JNA11AP001</text>
  <text x="900.909" y="932" fill="black" font-family="AAP_Font3" font-size="22" text-anchor="middle">21JNA12AP001</text>
  <text x="1260" y="785" fill="black" font-family="AAP_Font3" font-size="22" text-anchor="middle">22JNA21AP001</text>
  <text x="1250.91" y="932" fill="black" font-family="AAP_Font3" font-size="22" text-anchor="middle">22JNA22AP001</text>
  <text x="1104.7" y="642.424" fill="black" font-family="AAP_Font3" font-size="22" text-anchor="middle">Суммарный Fт/н САПР</text>
  <text x="425.909" y="995.606" fill="black" font-family="AAP_Font3" font-size="24" font-style="oblique" text-anchor="middle">L&gt; 3,4 м</text>
  <image x="455.667" y="446" width="50" height="50" xlink:href="obj_Button_trend.svg">
    <rt:dyn type="PointID1" mode="constant" value="&quot;21JAA23FL001T_XG13&quot;"/> 
    <rt:dyn type="PointID2" mode="constant" value="&quot;21JAA33FL001T_XG13&quot;"/> 
  </image>
  <image x="1085.15" y="446.819" width="50" height="50" xlink:href="obj_Button_trend.svg">
    <rt:dyn type="PointID1" mode="constant" value="&quot;21JRE03ER011_XE12&quot;"/> 
    <rt:dyn type="PointID2" mode="constant" value="&quot;21JRF03ER011_XE12&quot;"/> 
    <rt:dyn type="PointID3" mode="constant" value="&quot;21JRG03ER011_XE12&quot;"/> 
  </image>
  <image x="713.788" y="893.03" width="50" height="50" xlink:href="obj_Button_trend.svg">
    <rt:dyn type="PointID1" mode="constant" value="&quot;21JMA10CL001A_XG01&quot;"/> 
    <rt:dyn type="PointID2" mode="constant" value="&quot;21JMA10CL001B_XG01&quot;"/> 
    <rt:dyn type="PointID3" mode="constant" value="&quot;21JMA10CL001C_XG01&quot;"/> 
  </image>
</svg>
