<?xml  version="1.0" encoding="windows-1251"?>
<svg color="Col_BGSand" xmlns="http://www.w3.org/2000/svg" xmlns:rt="http://www.rts.co.at/2001/XMLSchema/RtSvgPL" xmlns:xlink="http://www.w3.org/1999/xlink" xmlns:xsi="http://www.w3.org/2001/XMLSchema-instance" xsi:schemaLocation="http://www.w3.org/2000/svg C:\RTS\RtSvg\XML\SVG.xsd" viewBox="0 0 1914 1000" width="1914" height="1000" id="20kpf26ec001_m1920" stroke-width="3" font-size="15" font-weight="bold">
  <title>ПУ процессом фильтрации через 20KPF26AT003/004</title>
  <rt:model modelversion="7.2.0.24" comment="UMod uptv_fgu" revision="3"/> 
  <line x1="1249" y1="275.5" x2="1217" y2="275.5" stroke="black" stroke-opacity="1" stroke-width="3"/> 
  <line x1="1400" y1="650" x2="1368" y2="650" stroke="black" stroke-opacity="1" stroke-width="3"/> 
  <polyline points="475,718 475,787 700,787" fill="none" stroke="black"/> 
  <line x1="1250" y1="333" x2="1208" y2="333" stroke="black" stroke-opacity="1" stroke-width="3"/> 
  <line x1="975" y1="333" x2="933" y2="333" stroke="black" stroke-opacity="1" stroke-width="3"/> 
  <line x1="976" y1="394" x2="934" y2="394" stroke="black" stroke-opacity="1" stroke-width="3"/> 
  <line x1="976" y1="450" x2="934" y2="450" stroke="black" stroke-opacity="1" stroke-width="3"/> 
  <line x1="250" y1="325" x2="150" y2="325" stroke="black" stroke-opacity="1" stroke-width="3"/> 
  <polyline points="700,75 750,75 750,250 250,250 250,450 475,450" fill="none" stroke="black"/> 
  <text x="951" y="28" fill-opacity="1" font-size="30" font-weight="700" text-anchor="middle">ПУ процессом фильтрации через 20KPF26AT003/004</text>
  <text x="12.6063" y="33.197" fill="black" font-size="15" font-weight="700">20KPF26EC001</text>
  <image x="1700" y="18" width="50" height="25" xlink:href="DS_ana.svg">
    <title>&quot;20KPF26EC001_XQ01&quot;</title>
    <rt:dyn type="FKKS" mode="constant" value="&quot;20KPF26EC001&quot;"/> 
    <rt:dyn type="ShowFrame" mode="constant" value="true"/> 
    <rt:dyn type="Color_Readings" mode="constant" value="true"/> 
    <rt:dyn type="DecPointNum" mode="constant" value="0"/> 
  </image>
  <text x="1500" y="35" font-size="15">Номер текущего шага:</text>
  <line x1="1636.27" y1="329.268" x2="1636.27" y2="329.268" stroke="black"/> 
  <rect x="698.5" y="174.25" width="150" height="55" rx="0" ry="0" fill="Col_BGSand" fill-opacity="1" stroke="black" stroke-opacity="1" stroke-width="3"/> 
  <line x1="848.5" y1="204.25" x2="698.5" y2="204.25" stroke="black" stroke-opacity="1" stroke-width="3"/> 
  <text x="708.5" y="194.25" fill="black" font-size="18" font-weight="700">ШАГ 19</text>
  <text x="704.5" y="222.214" fill="Col_Grey5" font-size="15">Т ожид</text>
  <text x="838" y="224.214" font-size="15" text-anchor="end">2 с</text>
  <image x="813.5" y="176.25" width="25" height="25" xlink:href="bin_indicator.svg">
    <title>&quot;20KPF26EC001_XS19&quot;</title>
    <rt:dyn type="PointID" value="&quot;20KPF26EC001_XS19&quot;" mode="constant"/> 
    <rt:dyn type="Col_ON" value="&quot;Col_Red&quot;" mode="constant"/> 
    <rt:dyn type="Col_OFF" value="&quot;Col_BGSand&quot;" mode="constant"/> 
  </image>
  <image x="617" y="64" width="100" height="25" xlink:href="obj_Button.svg">
    <title>20kpf26ec001_m1418</title>
    <rt:dyn type="Label" value="&quot;Из шага 18&quot;" mode="constant"/> 
    <rt:event type="OnClick">LoadNew(&quot;20kpf26ec001_m1418&quot;)</rt:event>
    <rt:dyn type="T_Size" value="18" mode="constant"/> 
  </image>
  <polyline points="1200,-200 1575,-200 1575,175 1025,175 1025,425" fill="none" stroke="black" transform="flipY(850) flipY(625)"/> 
  <polyline points="818.5,100 1543.5,100 1543.5,875 1143.5,875 1143.5,600 568.5,600 568.5,575 318.5,575 318.5,250 818.5,250" fill="none" stroke="black" transform="flipX(784.25)"/> 
  <image x="140" y="314" width="25" height="25" xlink:href="bin_indicator.svg">
    <title>&quot;20KPF13CL001_XH60&quot;</title>
    <rt:dyn type="PointID" value="&quot;20KPF13CL001_XH60&quot;" mode="constant"/> 
    <rt:dyn type="Col_ON" value="&quot;Col_Red&quot;" mode="constant"/> 
    <rt:dyn type="Col_OFF" value="&quot;Col_BGSand&quot;" mode="constant"/> 
  </image>
  <text x="43" y="356.5" font-size="15">20KPF13CL001 &lt; 0.2 м</text>
  <g>
    <rect x="225" y="375.667" width="46" height="46" rx="0" ry="0" fill="Col_BGSand" fill-opacity="1" stroke="black" stroke-opacity="1" stroke-width="3"/> 
    <text x="236.41" y="408" font-size="28">&amp;</text>
  </g>
  <rect x="375.5" y="700.5" width="150" height="55" rx="0" ry="0" fill="Col_BGSand" fill-opacity="1" stroke="black" stroke-opacity="1" stroke-width="3"/> 
  <line x1="525.5" y1="730.5" x2="375.5" y2="730.5" stroke="black" stroke-opacity="1" stroke-width="3"/> 
  <text x="385.5" y="720.5" fill="black" font-size="18" font-weight="700">ШАГ 20</text>
  <text x="385.5" y="748.5" fill="Col_Grey5" font-size="15">Т ожид</text>
  <text x="515.5" y="748.5" font-size="15" text-anchor="end">0 с</text>
  <image x="490.5" y="702.5" width="25" height="25" xlink:href="bin_indicator.svg">
    <title>&quot;20KPF26EC001_XS20&quot;</title>
    <rt:dyn type="PointID" value="&quot;20KPF26EC001_XS20&quot;" mode="constant"/> 
    <rt:dyn type="Col_ON" value="&quot;Col_Red&quot;" mode="constant"/> 
    <rt:dyn type="Col_OFF" value="&quot;Col_BGSand&quot;" mode="constant"/> 
  </image>
  <line x1="475" y1="287" x2="425" y2="287" stroke="black" stroke-opacity="1" stroke-width="3"/> 
  <line x1="250.5" y1="286.5" x2="200.5" y2="286.5" stroke="black" stroke-opacity="1" stroke-width="3"/> 
  <image x="125" y="275" width="90" height="25" xlink:href="bitwise_tablo_4bits.svg">
    <title>&quot;20KPF10CH001VL0_Z0 0&quot;</title>
    <rt:dyn type="PointID_1" value="&quot;20KPF10CH001VL0_Z0 0&quot;" mode="constant"/> 
    <rt:dyn type="Text_0000" value="&quot;KPF13BB001&quot;" mode="constant"/> 
    <rt:dyn type="Text_0001" value="&quot;KPF13BB001&quot;" mode="constant"/> 
    <rt:dyn type="Color_0000" value="&quot;Col_BGSand&quot;" mode="constant"/> 
    <rt:dyn type="Color_0001" value="&quot;Col_Green&quot;" mode="constant"/> 
  </image>
  <line x1="700" y1="288" x2="644" y2="288" stroke="black" stroke-opacity="1" stroke-width="3"/> 
  <image x="360" y="275" width="90" height="25" xlink:href="bitwise_tablo_4bits.svg">
    <title>&quot;20KPF10CH001VL0_Z0 1&quot;</title>
    <rt:dyn type="PointID_1" value="&quot;20KPF10CH001VL0_Z0 1&quot;" mode="constant"/> 
    <rt:dyn type="Text_0000" value="&quot;KPF13BB002&quot;" mode="constant"/> 
    <rt:dyn type="Text_0001" value="&quot;KPF13BB002&quot;" mode="constant"/> 
    <rt:dyn type="Color_0000" value="&quot;Col_BGSand&quot;" mode="constant"/> 
    <rt:dyn type="Color_0001" value="&quot;Col_Green&quot;" mode="constant"/> 
  </image>
  <image x="585" y="275" width="90" height="25" xlink:href="bitwise_tablo_4bits.svg">
    <title>&quot;20KPF10CH001VL0_Z0 2&quot;</title>
    <rt:dyn type="PointID_1" value="&quot;20KPF10CH001VL0_Z0 2&quot;" mode="constant"/> 
    <rt:dyn type="Text_0000" value="&quot;KPF13BB003&quot;" mode="constant"/> 
    <rt:dyn type="Text_0001" value="&quot;KPF13BB003&quot;" mode="constant"/> 
    <rt:dyn type="Color_0000" value="&quot;Col_BGSand&quot;" mode="constant"/> 
    <rt:dyn type="Color_0001" value="&quot;Col_Green&quot;" mode="constant"/> 
  </image>
  <text x="100" y="270.5" font-size="15">20KPF10CH001</text>
  <text x="337" y="269.5" font-size="15">20KPF10CH001</text>
  <text x="555" y="269.5" font-size="15">20KPF10CH001</text>
  <polyline points="475,-200 475,100" fill="none" stroke="black" transform="flipY(850) flipY(625)"/> 
  <polyline points="700,-200 700,0 475,0" fill="none" stroke="black" transform="flipY(850) flipY(625)"/> 
  <line x1="475" y1="325" x2="375" y2="325" stroke="black" stroke-opacity="1" stroke-width="3"/> 
  <image x="365" y="314" width="25" height="25" xlink:href="bin_indicator.svg">
    <title>&quot;20KPF13CL001_XH60&quot;</title>
    <rt:dyn type="PointID" value="&quot;20KPF13CL001_XH60&quot;" mode="constant"/> 
    <rt:dyn type="Col_ON" value="&quot;Col_Red&quot;" mode="constant"/> 
    <rt:dyn type="Col_OFF" value="&quot;Col_BGSand&quot;" mode="constant"/> 
  </image>
  <text x="268" y="356.5" font-size="15">20KPF13CL001 &lt; 0.2 м</text>
  <line x1="701" y1="325" x2="601" y2="325" stroke="black" stroke-opacity="1" stroke-width="3"/> 
  <image x="591" y="314" width="25" height="25" xlink:href="bin_indicator.svg">
    <title>&quot;20KPF13CL001_XH60&quot;</title>
    <rt:dyn type="PointID" value="&quot;20KPF13CL001_XH60&quot;" mode="constant"/> 
    <rt:dyn type="Col_ON" value="&quot;Col_Red&quot;" mode="constant"/> 
    <rt:dyn type="Col_OFF" value="&quot;Col_BGSand&quot;" mode="constant"/> 
  </image>
  <text x="494" y="356.5" font-size="15">20KPF13CL001 &lt; 0.2 м</text>
  <g>
    <rect x="454" y="375.667" width="46" height="46" rx="0" ry="0" fill="Col_BGSand" fill-opacity="1" stroke="black" stroke-opacity="1" stroke-width="3"/> 
    <text x="465.41" y="408" font-size="28">&amp;</text>
  </g>
  <g>
    <rect x="675" y="375.667" width="46" height="46" rx="0" ry="0" fill="Col_BGSand" fill-opacity="1" stroke="black" stroke-opacity="1" stroke-width="3"/> 
    <text x="686.41" y="408" font-size="28">&amp;</text>
  </g>
  <g>
    <rect x="454" y="467.665" width="46" height="46" rx="0" ry="0" fill="Col_BGSand" fill-opacity="1" stroke="black" stroke-opacity="1" stroke-width="3"/> 
    <text x="455.66" y="500" font-size="28">&gt;1</text>
  </g>
  <image x="425" y="525" width="100" height="25" xlink:href="obj_Button.svg">
    <title>20kpf26ec001_m2125</title>
    <rt:dyn type="Label" value="&quot;В шаг 25&quot;" mode="constant"/> 
    <rt:event type="OnClick">LoadNew(&quot;20kpf26ec001_m2125&quot;)</rt:event>
    <rt:dyn type="T_Size" value="18" mode="constant"/> 
  </image>
  <line x1="976" y1="275" x2="944" y2="275" stroke="black" stroke-opacity="1" stroke-width="3"/> 
  <image x="860.5" y="262.5" width="90" height="25" xlink:href="bitwise_tablo_4bits.svg">
    <title>&quot;20KPF26CH034VL0_Z0 0&quot;</title>
    <rt:dyn type="PointID_1" value="&quot;20KPF26CH034VL0_Z0 0&quot;" mode="constant"/> 
    <rt:dyn type="Text_0000" value="&quot;KPF26AT003&quot;" mode="constant"/> 
    <rt:dyn type="Text_0001" value="&quot;KPF26AT003&quot;" mode="constant"/> 
    <rt:dyn type="Color_0000" value="&quot;Col_BGSand&quot;" mode="constant"/> 
    <rt:dyn type="Color_0001" value="&quot;Col_Green&quot;" mode="constant"/> 
  </image>
  <image x="1135" y="263" width="90" height="25" xlink:href="bitwise_tablo_4bits.svg">
    <title>&quot;20KPF26CH034VL0_Z0 1&quot;</title>
    <rt:dyn type="PointID_1" value="&quot;20KPF26CH034VL0_Z0 1&quot;" mode="constant"/> 
    <rt:dyn type="Text_0000" value="&quot;KPF26AT004&quot;" mode="constant"/> 
    <rt:dyn type="Text_0001" value="&quot;KPF26AT004&quot;" mode="constant"/> 
    <rt:dyn type="Color_0000" value="&quot;Col_BGSand&quot;" mode="constant"/> 
    <rt:dyn type="Color_0001" value="&quot;Col_Green&quot;" mode="constant"/> 
  </image>
  <polyline points="975,-200 975,125 1025,125" fill="none" stroke="black" transform="flipY(850) flipY(625)"/> 
  <image x="891.25" y="291" width="70" height="65" xlink:href="DS_Reg_valve.svg" transform="rotate(0 0 0) flipX(-1.13687e-013) rotate(360 0 -10)">
    <title>&quot;20KPF13AA201&quot;</title>
    <rt:dyn type="KKS" mode="constant" value="&quot;20KPF13AA201&quot;"/> 
    <rt:dyn type="DATA_NARY" mode="constant" value="&quot;TPTS&quot;"/> 
    <rt:dyn type="NoSP" mode="constant" value="true"/> 
  </image>
  <text x="827" y="317" font-size="15" text-anchor="middle">20KPF13AA201</text>
  <text x="762" y="335.5" fill="Col_Grey5">КС: ОТКР</text>
  <image x="892" y="409" width="70" height="65" xlink:href="DS_Reg_valve.svg" transform="rotate(0 0 0) flipX(-1.13687e-013) rotate(360 0 -10)">
    <title>&quot;20KPF21AA201&quot;</title>
    <rt:dyn type="KKS" mode="constant" value="&quot;20KPF21AA201&quot;"/> 
    <rt:dyn type="DATA_NARY" mode="constant" value="&quot;TPTS&quot;"/> 
    <rt:dyn type="NoSP" mode="constant" value="true"/> 
  </image>
  <text x="830" y="434" font-size="15" text-anchor="middle">20KPF21AA201</text>
  <text x="765" y="450.5" fill="Col_Grey5">КС: ОТКР</text>
  <image x="916" y="383" width="25" height="25" xlink:href="bin_indicator.svg">
    <title>&quot;20KPF26CP001_XH61&quot;</title>
    <rt:dyn type="PointID" value="&quot;20KPF26CP001_XH61&quot;" mode="constant"/> 
    <rt:dyn type="Col_ON" value="&quot;Col_Red&quot;" mode="constant"/> 
    <rt:dyn type="Col_OFF" value="&quot;Col_BGSand&quot;" mode="constant"/> 
  </image>
  <text x="750" y="372.5" font-size="15">20KPF26CP001 &lt; 0.3 Мпа</text>
  <rect x="923" y="537" width="100" height="25" rx="0" ry="0" fill="Col_BGSand" fill-opacity="1" stroke="black" stroke-opacity="1" stroke-width="2"/> 
  <text x="1014" y="551.5" font-size="15" text-anchor="end">5 с        0</text>
  <g>
    <line x1="930" y1="555" x2="1015" y2="555" stroke="black" stroke-width="1"/> 
    <line x1="930" y1="560" x2="930" y2="550" stroke="black" stroke-width="1"/> 
    <line x1="1015" y1="560" x2="1015" y2="550" stroke="black" stroke-width="1"/> 
  </g>
  <g>
    <rect x="950" y="479" width="46" height="46" rx="0" ry="0" fill="Col_BGSand" fill-opacity="1" stroke="black" stroke-opacity="1" stroke-width="3"/> 
    <text x="961.41" y="511.333" font-size="28">&amp;</text>
  </g>
  <line x1="1250" y1="394" x2="1208" y2="394" stroke="black" stroke-opacity="1" stroke-width="3"/> 
  <line x1="1250" y1="450" x2="1208" y2="450" stroke="black" stroke-opacity="1" stroke-width="3"/> 
  <image x="1165.25" y="291" width="70" height="65" xlink:href="DS_Reg_valve.svg" transform="rotate(0 0 0) flipX(-1.13687e-013) rotate(360 0 -10)">
    <title>&quot;20KPF13AA201&quot;</title>
    <rt:dyn type="KKS" mode="constant" value="&quot;20KPF13AA201&quot;"/> 
    <rt:dyn type="DATA_NARY" mode="constant" value="&quot;TPTS&quot;"/> 
    <rt:dyn type="NoSP" mode="constant" value="true"/> 
  </image>
  <text x="1101" y="317" font-size="15" text-anchor="middle">20KPF13AA201</text>
  <text x="1036" y="335.5" fill="Col_Grey5">КС: ОТКР</text>
  <image x="1166" y="409" width="70" height="65" xlink:href="DS_Reg_valve.svg" transform="rotate(0 0 0) flipX(-1.13687e-013) rotate(360 0 -10)">
    <title>&quot;20KPF21AA201&quot;</title>
    <rt:dyn type="KKS" mode="constant" value="&quot;20KPF21AA201&quot;"/> 
    <rt:dyn type="DATA_NARY" mode="constant" value="&quot;TPTS&quot;"/> 
    <rt:dyn type="NoSP" mode="constant" value="true"/> 
  </image>
  <text x="1104" y="434" font-size="15" text-anchor="middle">20KPF21AA201</text>
  <text x="1039" y="450.5" fill="Col_Grey5">КС: ОТКР</text>
  <image x="1190" y="383" width="25" height="25" xlink:href="bin_indicator.svg">
    <title>&quot;20KPF26CP002_XH61&quot;</title>
    <rt:dyn type="PointID" value="&quot;20KPF26CP002_XH61&quot;" mode="constant"/> 
    <rt:dyn type="Col_ON" value="&quot;Col_Red&quot;" mode="constant"/> 
    <rt:dyn type="Col_OFF" value="&quot;Col_BGSand&quot;" mode="constant"/> 
  </image>
  <text x="1024" y="372.5" font-size="15">20KPF26CP002 &lt; 0.3 Мпа</text>
  <rect x="1197" y="537" width="100" height="25" rx="0" ry="0" fill="Col_BGSand" fill-opacity="1" stroke="black" stroke-opacity="1" stroke-width="2"/> 
  <text x="1288" y="551.5" font-size="15" text-anchor="end">5 с        0</text>
  <g>
    <line x1="1204" y1="555" x2="1289" y2="555" stroke="black" stroke-width="1"/> 
    <line x1="1204" y1="560" x2="1204" y2="550" stroke="black" stroke-width="1"/> 
    <line x1="1289" y1="560" x2="1289" y2="550" stroke="black" stroke-width="1"/> 
  </g>
  <g>
    <rect x="1224" y="479" width="46" height="46" rx="0" ry="0" fill="Col_BGSand" fill-opacity="1" stroke="black" stroke-opacity="1" stroke-width="3"/> 
    <text x="1235.41" y="511.333" font-size="28">&amp;</text>
  </g>
  <text x="481" y="781.5" font-size="15">20KPF13AA201 ЗАКР</text>
  <image x="672" y="761.5" width="90" height="25" xlink:href="bitwise_tablo_4bits.svg">
    <title>&quot;20KPF13AA201_VB9 2&quot;</title>
    <rt:dyn type="PointID_1" value="&quot;20KPF13AA201_VB9 2&quot;" mode="constant"/> 
    <rt:dyn type="Text_0000" value="&quot;&quot;" mode="constant"/> 
    <rt:dyn type="Text_0001" value="&quot;ЗАКРЫТЬ&quot;" mode="constant"/> 
    <rt:dyn type="Color_0000" value="&quot;Col_BGSand&quot;" mode="constant"/> 
    <rt:dyn type="Color_0001" value="&quot;Col_Green&quot;" mode="constant"/> 
  </image>
  <line x1="425" y1="800" x2="359" y2="800" stroke="black" stroke-opacity="1" stroke-width="3"/> 
  <image x="315" y="757.5" width="70" height="65" xlink:href="DS_Reg_valve.svg" transform="rotate(0 0 0) flipX(-1.13687e-013) rotate(360 0 -10)">
    <title>&quot;20KPF13AA201&quot;</title>
    <rt:dyn type="KKS" mode="constant" value="&quot;20KPF13AA201&quot;"/> 
    <rt:dyn type="DATA_NARY" mode="constant" value="&quot;TPTS&quot;"/> 
    <rt:dyn type="NoSP" mode="constant" value="true"/> 
  </image>
  <text x="249" y="784" font-size="15" text-anchor="middle">20KPF13AA201</text>
  <text x="187" y="802.5" fill="Col_Grey5">КС: ЗАКР</text>
  <g>
    <rect x="404" y="642.665" width="46" height="46" rx="0" ry="0" fill="Col_BGSand" fill-opacity="1" stroke="black" stroke-opacity="1" stroke-width="3"/> 
    <text x="405.66" y="675" font-size="28">&gt;1</text>
  </g>
  <line x1="1024" y1="648" x2="992" y2="648" stroke="black" stroke-opacity="1" stroke-width="3"/> 
  <image x="908.5" y="635.5" width="90" height="25" xlink:href="bitwise_tablo_4bits.svg">
    <title>&quot;20KPF26CH034VL0_Z0 0&quot;</title>
    <rt:dyn type="PointID_1" value="&quot;20KPF26CH034VL0_Z0 0&quot;" mode="constant"/> 
    <rt:dyn type="Text_0000" value="&quot;KPF26AT003&quot;" mode="constant"/> 
    <rt:dyn type="Text_0001" value="&quot;KPF26AT003&quot;" mode="constant"/> 
    <rt:dyn type="Color_0000" value="&quot;Col_BGSand&quot;" mode="constant"/> 
    <rt:dyn type="Color_0001" value="&quot;Col_Green&quot;" mode="constant"/> 
  </image>
  <line x1="1025" y1="700" x2="983" y2="700" stroke="black" stroke-opacity="1" stroke-width="3"/> 
  <image x="941" y="659" width="70" height="65" xlink:href="DS_Reg_valve.svg" transform="rotate(0 0 0) flipX(-1.13687e-013) rotate(360 0 -10)">
    <title>&quot;20KPF21AA201&quot;</title>
    <rt:dyn type="KKS" mode="constant" value="&quot;20KPF21AA201&quot;"/> 
    <rt:dyn type="DATA_NARY" mode="constant" value="&quot;TPTS&quot;"/> 
    <rt:dyn type="NoSP" mode="constant" value="true"/> 
  </image>
  <text x="879" y="684" font-size="15" text-anchor="middle">20KPF21AA201</text>
  <text x="814" y="700.5" fill="Col_Grey5">КС: ОТКР</text>
  <line x1="1024" y1="762" x2="982" y2="762" stroke="black" stroke-opacity="1" stroke-width="3"/> 
  <image x="964" y="751" width="25" height="25" xlink:href="bin_indicator.svg">
    <title>&quot;20KPF26CP001_XH11&quot;</title>
    <rt:dyn type="PointID" value="&quot;20KPF26CP001_XH11&quot;" mode="constant"/> 
    <rt:dyn type="Col_ON" value="&quot;Col_Red&quot;" mode="constant"/> 
    <rt:dyn type="Col_OFF" value="&quot;Col_BGSand&quot;" mode="constant"/> 
  </image>
  <text x="794" y="748.5" font-size="15">20KPF26CP001 &gt; 0.3 Мпа</text>
  <polyline points="1400,175 1400,425" fill="none" stroke="black" transform="flipY(850) flipY(625)"/> 
  <line x1="1400" y1="700" x2="1358" y2="700" stroke="black" stroke-opacity="1" stroke-width="3"/> 
  <image x="1316" y="659" width="70" height="65" xlink:href="DS_Reg_valve.svg" transform="rotate(0 0 0) flipX(-1.13687e-013) rotate(360 0 -10)">
    <title>&quot;20KPF21AA201&quot;</title>
    <rt:dyn type="KKS" mode="constant" value="&quot;20KPF21AA201&quot;"/> 
    <rt:dyn type="DATA_NARY" mode="constant" value="&quot;TPTS&quot;"/> 
    <rt:dyn type="NoSP" mode="constant" value="true"/> 
  </image>
  <text x="1254" y="684" font-size="15" text-anchor="middle">20KPF21AA201</text>
  <text x="1189" y="700.5" fill="Col_Grey5">КС: ОТКР</text>
  <line x1="1399" y1="762" x2="1357" y2="762" stroke="black" stroke-opacity="1" stroke-width="3"/> 
  <image x="1339" y="751" width="25" height="25" xlink:href="bin_indicator.svg">
    <title>&quot;20KPF26CP002_XH11&quot;</title>
    <rt:dyn type="PointID" value="&quot;20KPF26CP002_XH11&quot;" mode="constant"/> 
    <rt:dyn type="Col_ON" value="&quot;Col_Red&quot;" mode="constant"/> 
    <rt:dyn type="Col_OFF" value="&quot;Col_BGSand&quot;" mode="constant"/> 
  </image>
  <text x="1169" y="748.5" font-size="15">20KPF26CP002 &gt; 0.3 Мпа</text>
  <image x="1285" y="634" width="90" height="25" xlink:href="bitwise_tablo_4bits.svg">
    <title>&quot;20KPF26CH034VL0_Z0 1&quot;</title>
    <rt:dyn type="PointID_1" value="&quot;20KPF26CH034VL0_Z0 1&quot;" mode="constant"/> 
    <rt:dyn type="Text_0000" value="&quot;KPF26AT004&quot;" mode="constant"/> 
    <rt:dyn type="Text_0001" value="&quot;KPF26AT004&quot;" mode="constant"/> 
    <rt:dyn type="Color_0000" value="&quot;Col_BGSand&quot;" mode="constant"/> 
    <rt:dyn type="Color_0001" value="&quot;Col_Green&quot;" mode="constant"/> 
  </image>
  <rect x="973" y="825" width="100" height="25" rx="0" ry="0" fill="Col_BGSand" fill-opacity="1" stroke="black" stroke-opacity="1" stroke-width="2"/> 
  <text x="1064" y="839.5" font-size="15" text-anchor="end">6 с        0</text>
  <g>
    <line x1="980" y1="843" x2="1065" y2="843" stroke="black" stroke-width="1"/> 
    <line x1="980" y1="848" x2="980" y2="838" stroke="black" stroke-width="1"/> 
    <line x1="1065" y1="848" x2="1065" y2="838" stroke="black" stroke-width="1"/> 
  </g>
  <rect x="1350" y="826" width="100" height="25" rx="0" ry="0" fill="Col_BGSand" fill-opacity="1" stroke="black" stroke-opacity="1" stroke-width="2"/> 
  <text x="1441" y="840.5" font-size="15" text-anchor="end">6 с        0</text>
  <g>
    <line x1="1357" y1="844" x2="1442" y2="844" stroke="black" stroke-width="1"/> 
    <line x1="1357" y1="849" x2="1357" y2="839" stroke="black" stroke-width="1"/> 
    <line x1="1442" y1="849" x2="1442" y2="839" stroke="black" stroke-width="1"/> 
  </g>
  <g>
    <rect x="1004" y="771" width="46" height="46" rx="0" ry="0" fill="Col_BGSand" fill-opacity="1" stroke="black" stroke-opacity="1" stroke-width="3"/> 
    <text x="1015.41" y="803.333" font-size="28">&amp;</text>
  </g>
  <g>
    <rect x="1377" y="772" width="46" height="46" rx="0" ry="0" fill="Col_BGSand" fill-opacity="1" stroke="black" stroke-opacity="1" stroke-width="3"/> 
    <text x="1388.41" y="804.333" font-size="28">&amp;</text>
  </g>
  <image x="975" y="875" width="100" height="25" xlink:href="obj_Button.svg">
    <title>20kpf26ec001_m2125</title>
    <rt:dyn type="Label" value="&quot;В шаг 21&quot;" mode="constant"/> 
    <rt:event type="OnClick">LoadNew(&quot;20kpf26ec001_m2125&quot;)</rt:event>
    <rt:dyn type="T_Size" value="18" mode="constant"/> 
  </image>
  <image x="1350" y="875" width="100" height="25" xlink:href="obj_Button.svg">
    <title>20kpf26ec001_m2125</title>
    <rt:dyn type="Label" value="&quot;В шаг 23&quot;" mode="constant"/> 
    <rt:event type="OnClick">LoadNew(&quot;20kpf26ec001_m2125&quot;)</rt:event>
    <rt:dyn type="T_Size" value="18" mode="constant"/> 
  </image>
  <g>
    <rect x="729" y="112.5" width="46" height="46" rx="0" ry="0" fill="Col_BGSand" fill-opacity="1" stroke="black" stroke-opacity="1" stroke-width="3"/> 
    <text x="730.66" y="144.835" font-size="28">&gt;1</text>
  </g>
  <text x="831" y="650" font-size="15" text-anchor="middle">20KPF26CH034</text>
  <text x="1210.5" y="650" font-size="15" text-anchor="middle">20KPF26CH034</text>
  <g>
    <rect x="400" y="817.667" width="46" height="46" rx="0" ry="0" fill="Col_BGSand" fill-opacity="1" stroke="black" stroke-opacity="1" stroke-width="3"/> 
    <text x="411.41" y="850" font-size="28">&amp;</text>
  </g>
  <text x="1065.5" y="281.5" font-size="15" text-anchor="middle">20KPF26CH034</text>
  <text x="790.5" y="282.5" font-size="15" text-anchor="middle">20KPF26CH034</text>
</svg>
