<?xml  version="1.0" encoding="windows-1251"?>
<svg color="Col_BGSand" xmlns="http://www.w3.org/2000/svg" xmlns:rt="http://www.rts.co.at/2001/XMLSchema/RtSvgPL" xmlns:xlink="http://www.w3.org/1999/xlink" xmlns:xsi="http://www.w3.org/2001/XMLSchema-instance" xsi:schemaLocation="http://www.w3.org/2000/svg C:\RTS\RtSvg\XML\SVG.xsd" viewBox="0 0 1914 1000" width="1914" height="1000" id="20laa10ec001_m87-94" stroke-width="3" font-size="15" font-weight="bold">
  <title>ФГУ 20LAA10EC001 в сторону ОСТАНОВ</title>
  <rt:model modelversion="7.2.0.24" revision="3" comment="UMod fgu_to_all"/> 
  <polyline points="1096.5,694.167 1095.33,783.833 1330.33,783.833" fill="none" stroke="black"/> 
  <text x="1055" y="40" fill-opacity="1" font-size="30" font-weight="700" text-anchor="middle">ФГУ 20LAA10EC001 в сторону ОСТАНОВ</text>
  <text x="12.6063" y="33.197" fill="black" font-size="15" font-weight="700">20LAA10EC001</text>
  <polyline points="360.5,719.667 78.5,719.667 78.5,384.667 298.5,384.667 298.5,264.667 361,264.667" fill="none" stroke="black"/> 
  <g stroke-width="10" font-weight="bold" transform="scale(0.32 0.32 124 341) scale(1 1 124 340.5) scale(1 1 124 339.5) scale(1 1 124.5 338) scale(1 1 124.5 337.5) scale(1 1 124.5 337) scale(1 1 125 337.5) scale(1 1 125.5 339.5) scale(1 1 126 339.5) scale(1 1 126 340)">
    <path d="M139.293 478.871 L110.959 478.871 A28.3333 23.3333 0 0 0 167.625 479.097 Z" fill="Col_BGSand" stroke="black"/> 
    <rect x="116.188" y="471.208" width="46.0938" height="13.2813" rx="0" ry="0" fill="Col_BGSand" stroke="none"/> 
  </g>
  <polyline points="441.333,521.334 441.333,624.834 657,625" fill="none" stroke="black"/> 
  <polyline points="179.5,263.667 179.5,288.667 299.5,288.667" fill="none" stroke="black"/> 
  <polyline points="440.334,131.667 440.334,235.167 650,235" fill="none" stroke="black"/> 
  <polyline points="220.5,101.667 360.833,101.667 360.5,617.667 361.5,951.667 683.5,951.667 683.5,91.6667 1018.5,91.6667 1018.5,951.667 1343.5,951.667 1343.5,91.6667 1653.5,91.6667 1653.5,376.667 1847,376.667" fill="none" stroke="black"/> 
  <image x="220.5" y="87.6667" width="100" height="25" xlink:href="obj_Button.svg">
    <rt:dyn type="Label" mode="constant" value="&quot;Из шага 86&quot;"/> 
    <rt:event type="OnClick">LoadNew(&quot;20laa10ec001_m76-86&quot;)</rt:event>
    <rt:dyn type="T_Size" mode="constant" value="18"/> 
  </image>
  <text x="187.5" y="282.667">НЕТ</text>
  <image x="96.5" y="192.667" width="160" height="75" xlink:href="DS_TPTS_VL_spec.svg">
    <title>&quot;20LAA10CH002VL0&quot;</title>
    <rt:dyn type="KKS" mode="constant" value="&quot;20LAA10CH002VL0&quot;"/> 
    <rt:dyn type="Operate" mode="constant" value="true"/> 
  </image>
  <image x="233.5" y="278.667" width="44" height="22" xlink:href="bitwise_tablo_4bits.svg">
    <title>&quot;20LAA10CH002VL0_Z0 1&quot;</title>
    <rt:dyn type="PointID_1" value="&quot;20LAA10CH002VL0_Z0 1&quot;" mode="constant"/> 
    <rt:dyn type="Text_0000" value="&quot;&quot;" mode="constant"/> 
    <rt:dyn type="Text_0001" value="&quot;&quot;" mode="constant"/> 
    <rt:dyn type="Color_0000" value="&quot;Col_BGSand&quot;" mode="constant"/> 
    <rt:dyn type="Color_0001" value="&quot;Col_Red&quot;" mode="constant"/> 
  </image>
  <rect x="338.667" y="743.501" width="46" height="46" rx="0" ry="0" fill="Col_BGSand" fill-opacity="1" stroke="black" stroke-opacity="1" stroke-width="3"/> 
  <text x="341.667" y="778.501" font-size="28">&gt;1</text>
  <text x="450.833" y="209.5" font-size="16">Подтверждение<tspan x="450.833" dy="16">отключения НХОВ</tspan>
  </text>
  <text x="99.5" y="282.667">ДА</text>
  <rect x="280" y="310.834" width="46" height="46" rx="0" ry="0" fill="Col_BGSand" fill-opacity="1" stroke="black" stroke-opacity="1" stroke-width="3"/> 
  <text x="291" y="345.834" font-size="28">&amp;</text>
  <polyline points="129.5,264.667 129.5,439.667 360,439.667" fill="none" stroke="black"/> 
  <image x="153.833" y="428" width="44" height="22" xlink:href="bitwise_tablo_4bits.svg">
    <title>&quot;20LAA10CH002VL0_Z0 2&quot;</title>
    <rt:dyn type="PointID_1" value="&quot;20LAA10CH002VL0_Z0 2&quot;" mode="constant"/> 
    <rt:dyn type="Text_0000" value="&quot;&quot;" mode="constant"/> 
    <rt:dyn type="Text_0001" value="&quot;&quot;" mode="constant"/> 
    <rt:dyn type="Color_0000" value="&quot;Col_BGSand&quot;" mode="constant"/> 
    <rt:dyn type="Color_0001" value="&quot;Col_Red&quot;" mode="constant"/> 
  </image>
  <rect x="338.667" y="456.167" width="46" height="46" rx="0" ry="0" fill="Col_BGSand" fill-opacity="1" stroke="black" stroke-opacity="1" stroke-width="3"/> 
  <text x="349.667" y="491.167" font-size="28">&amp;</text>
  <text x="453.167" y="612.167" font-size="16">20LCP10AP001 ОТКЛ</text>
  <line x1="360.833" y1="597.5" x2="310.833" y2="597.5" stroke="black" stroke-opacity="1" stroke-width="3"/> 
  <image x="291.333" y="585.5" width="44" height="22" xlink:href="bitwise_tablo_4bits.svg">
    <title>20LCP10AP001_Z0 0</title>
    <rt:dyn type="PointID_1" value="&quot;20LCP10AP001_Z0 0&quot;" mode="constant"/> 
    <rt:dyn type="Text_0000" value="&quot;&quot;" mode="constant"/> 
    <rt:dyn type="Text_0001" value="&quot;&quot;" mode="constant"/> 
    <rt:dyn type="Color_0000" value="&quot;Col_BGSand&quot;" mode="constant"/> 
    <rt:dyn type="Color_0001" value="&quot;Col_Red&quot;" mode="constant"/> 
  </image>
  <text x="103.834" y="601.5">20LCP10AP001 ОТКЛ</text>
  <rect x="337" y="618.5" width="46" height="46" rx="0" ry="0" fill="Col_BGSand" fill-opacity="1" stroke="black" stroke-opacity="1" stroke-width="3"/> 
  <text x="348" y="653.5" font-size="28">&amp;</text>
  <rect x="321" y="124.167" width="150" height="55" rx="0" ry="0" fill="Col_BGSand" fill-opacity="1" stroke="black" stroke-opacity="1" stroke-width="3"/> 
  <line x1="471" y1="154.167" x2="321" y2="154.167" stroke="black" stroke-opacity="1" stroke-width="3"/> 
  <text x="331" y="144.167" fill="black" font-size="18" font-weight="700">ШАГ 87</text>
  <text x="331" y="172.167" fill="Col_Grey5" font-size="15">Т ожид</text>
  <text x="432.167" y="172.167" font-size="16">0 с</text>
  <image x="431.333" y="126.167" width="25" height="25" xlink:href="bin_indicator.svg">
    <title>20LAA10EC001_XS87</title>
    <rt:dyn type="PointID" value="&quot;20LAA10EC001_XS87&quot;" mode="constant"/> 
    <rt:dyn type="Col_ON" value="&quot;Col_Red&quot;" mode="constant"/> 
    <rt:dyn type="Col_OFF" value="&quot;Col_BGSand&quot;" mode="constant"/> 
  </image>
  <rect x="320.333" y="520.833" width="150" height="55" rx="0" ry="0" fill="Col_BGSand" fill-opacity="1" stroke="black" stroke-opacity="1" stroke-width="3"/> 
  <line x1="470.333" y1="550.833" x2="320.333" y2="550.833" stroke="black" stroke-opacity="1" stroke-width="3"/> 
  <text x="330.333" y="540.833" fill="black" font-size="18" font-weight="700">ШАГ 88</text>
  <text x="330.333" y="568.833" fill="Col_Grey5" font-size="15">Т ожид</text>
  <text x="432.167" y="568.833" font-size="16">0 с</text>
  <image x="431.333" y="522.833" width="25" height="25" xlink:href="bin_indicator.svg">
    <title>20LAA10EC001_XS88</title>
    <rt:dyn type="PointID" value="&quot;20LAA10EC001_XS88&quot;" mode="constant"/> 
    <rt:dyn type="Col_ON" value="&quot;Col_Red&quot;" mode="constant"/> 
    <rt:dyn type="Col_OFF" value="&quot;Col_BGSand&quot;" mode="constant"/> 
  </image>
  <rect x="322" y="834.833" width="150" height="55" rx="0" ry="0" fill="Col_BGSand" fill-opacity="1" stroke="black" stroke-opacity="1" stroke-width="3"/> 
  <line x1="472" y1="864.833" x2="322" y2="864.833" stroke="black" stroke-opacity="1" stroke-width="3"/> 
  <text x="332" y="854.833" fill="black" font-size="18" font-weight="700">ШАГ 89</text>
  <text x="332" y="882.833" fill="Col_Grey5" font-size="15">Т ожид</text>
  <text x="412" y="882.833" font-size="16">3 с</text>
  <image x="412" y="836.833" width="25" height="25" xlink:href="bin_indicator.svg">
    <title>20LAA10EC001_XS89</title>
    <rt:dyn type="PointID" value="&quot;20LAA10EC001_XS89&quot;" mode="constant"/> 
    <rt:dyn type="Col_ON" value="&quot;Col_Red&quot;" mode="constant"/> 
    <rt:dyn type="Col_OFF" value="&quot;Col_BGSand&quot;" mode="constant"/> 
  </image>
  <polyline points="1019.5,866.667 738.5,866.667 738.5,371.667 957,372 957,252 1019.5,252" fill="none" stroke="black"/> 
  <g stroke-width="10" font-weight="bold" transform="scale(0.32 0.32 124 341) scale(1 1 124 340.5) scale(1 1 124 339.5) scale(1 1 124.5 338) scale(1 1 124.5 337.5) scale(1 1 124.5 337) scale(1 1 125 337.5) scale(1 1 125.5 339.5) scale(1 1 126 339.5) scale(1 1 126 340)">
    <path d="M2197.11 439.288 L2168.77 439.288 A28.3333 23.3333 0 0 0 2225.44 439.514 Z" fill="Col_BGSand" stroke="black"/> 
    <rect x="2174" y="431.625" width="46.0938" height="13.2813" rx="0" ry="0" fill="Col_BGSand" stroke="none"/> 
  </g>
  <polyline points="1098.83,508.667 1098.83,612.167 1333.83,612.167" fill="none" stroke="black"/> 
  <polyline points="838,251 838,276 958,276" fill="none" stroke="black"/> 
  <polyline points="1097.83,119 1097.83,222.5 1332.83,222.5" fill="none" stroke="black"/> 
  <text x="846" y="270">НЕТ</text>
  <image x="755" y="180" width="160" height="75" xlink:href="DS_TPTS_VL_spec.svg">
    <title>&quot;20LAA10CH002VL0&quot;</title>
    <rt:dyn type="KKS" mode="constant" value="&quot;20LAA10CH002VL0&quot;"/> 
    <rt:dyn type="Operate" mode="constant" value="true"/> 
  </image>
  <image x="892" y="266" width="44" height="22" xlink:href="bitwise_tablo_4bits.svg">
    <title>&quot;20LAA10CH002VL0_Z0 1&quot;</title>
    <rt:dyn type="PointID_1" value="&quot;20LAA10CH002VL0_Z0 1&quot;" mode="constant"/> 
    <rt:dyn type="Text_0000" value="&quot;&quot;" mode="constant"/> 
    <rt:dyn type="Text_0001" value="&quot;&quot;" mode="constant"/> 
    <rt:dyn type="Color_0000" value="&quot;Col_BGSand&quot;" mode="constant"/> 
    <rt:dyn type="Color_0001" value="&quot;Col_Red&quot;" mode="constant"/> 
  </image>
  <rect x="1000.33" y="891.167" width="46" height="46" rx="0" ry="0" fill="Col_BGSand" fill-opacity="1" stroke="black" stroke-opacity="1" stroke-width="3"/> 
  <text x="1003.33" y="926.167" font-size="28">&gt;1</text>
  <text x="1108.33" y="196.833" font-size="16">Подтверждение<tspan x="1108.33" dy="16">отключения ВПЭН</tspan>
  </text>
  <text x="758" y="270">ДА</text>
  <rect x="938.5" y="298.167" width="46" height="46" rx="0" ry="0" fill="Col_BGSand" fill-opacity="1" stroke="black" stroke-opacity="1" stroke-width="3"/> 
  <text x="949.5" y="333.167" font-size="28">&amp;</text>
  <polyline points="788,252 788,427 1018.5,427" fill="none" stroke="black"/> 
  <image x="812.333" y="415.333" width="44" height="22" xlink:href="bitwise_tablo_4bits.svg">
    <title>&quot;20LAA10CH002VL0_Z0 2&quot;</title>
    <rt:dyn type="PointID_1" value="&quot;20LAA10CH002VL0_Z0 2&quot;" mode="constant"/> 
    <rt:dyn type="Text_0000" value="&quot;&quot;" mode="constant"/> 
    <rt:dyn type="Text_0001" value="&quot;&quot;" mode="constant"/> 
    <rt:dyn type="Color_0000" value="&quot;Col_BGSand&quot;" mode="constant"/> 
    <rt:dyn type="Color_0001" value="&quot;Col_Red&quot;" mode="constant"/> 
  </image>
  <rect x="997.167" y="443.5" width="46" height="46" rx="0" ry="0" fill="Col_BGSand" fill-opacity="1" stroke="black" stroke-opacity="1" stroke-width="3"/> 
  <text x="1008.17" y="478.5" font-size="28">&amp;</text>
  <text x="1110.67" y="599.5" font-size="16">Проверка условий</text>
  <rect x="995.5" y="623.833" width="46" height="46" rx="0" ry="0" fill="Col_BGSand" fill-opacity="1" stroke="black" stroke-opacity="1" stroke-width="3"/> 
  <text x="1006.5" y="658.833" font-size="28">&amp;</text>
  <rect x="977.333" y="118.167" width="150" height="55" rx="0" ry="0" fill="Col_BGSand" fill-opacity="1" stroke="black" stroke-opacity="1" stroke-width="3"/> 
  <line x1="1127.33" y1="148.167" x2="977.333" y2="148.167" stroke="black" stroke-opacity="1" stroke-width="3"/> 
  <text x="987.333" y="138.167" fill="black" font-size="18" font-weight="700">ШАГ 90</text>
  <text x="987.333" y="166.167" fill="Col_Grey5" font-size="15">Т ожид</text>
  <text x="1088.75" y="166.167" font-size="16">0 с</text>
  <image x="1087.92" y="120.167" width="25" height="25" xlink:href="bin_indicator.svg">
    <title>20LAA10EC001_XS90</title>
    <rt:dyn type="PointID" value="&quot;20LAA10EC001_XS90&quot;" mode="constant"/> 
    <rt:dyn type="Col_ON" value="&quot;Col_Red&quot;" mode="constant"/> 
    <rt:dyn type="Col_OFF" value="&quot;Col_BGSand&quot;" mode="constant"/> 
  </image>
  <rect x="978.667" y="506.5" width="150" height="55" rx="0" ry="0" fill="Col_BGSand" fill-opacity="1" stroke="black" stroke-opacity="1" stroke-width="3"/> 
  <line x1="1128.67" y1="536.5" x2="978.667" y2="536.5" stroke="black" stroke-opacity="1" stroke-width="3"/> 
  <text x="988.667" y="526.5" fill="black" font-size="18" font-weight="700">ШАГ 91</text>
  <text x="988.667" y="554.5" fill="Col_Grey5" font-size="15">Т ожид</text>
  <text x="1088.75" y="554.5" font-size="16">0 с</text>
  <image x="1087.92" y="508.5" width="25" height="25" xlink:href="bin_indicator.svg">
    <title>20LAA10EC001_XS91</title>
    <rt:dyn type="PointID" value="&quot;20LAA10EC001_XS91&quot;" mode="constant"/> 
    <rt:dyn type="Col_ON" value="&quot;Col_Red&quot;" mode="constant"/> 
    <rt:dyn type="Col_OFF" value="&quot;Col_BGSand&quot;" mode="constant"/> 
  </image>
  <line x1="1018.5" y1="591.333" x2="968.5" y2="591.333" stroke="black" stroke-opacity="1" stroke-width="3"/> 
  <image x="956.5" y="579.333" width="25" height="25" xlink:href="bin_indicator.svg">
    <title>20LAA10CL902_XH66</title>
    <rt:dyn type="PointID" value="&quot;20LAA10CL902_XH66&quot;" mode="constant"/> 
    <rt:dyn type="Col_ON" value="&quot;Col_Red&quot;" mode="constant"/> 
    <rt:dyn type="Col_OFF" value="&quot;Col_BGSand&quot;" mode="constant"/> 
  </image>
  <text x="755.5" y="596.333">20LAA10CL902 &lt;1.5 М</text>
  <rect x="979.167" y="685.833" width="150" height="55" rx="0" ry="0" fill="Col_BGSand" fill-opacity="1" stroke="black" stroke-opacity="1" stroke-width="3"/> 
  <line x1="1129.17" y1="715.833" x2="979.167" y2="715.833" stroke="black" stroke-opacity="1" stroke-width="3"/> 
  <text x="989.167" y="705.833" fill="black" font-size="18" font-weight="700">ШАГ 92</text>
  <text x="989.167" y="733.833" fill="Col_Grey5" font-size="15">Т ожид</text>
  <text x="1088.75" y="733.833" font-size="16">0 с</text>
  <image x="1087.92" y="687.833" width="25" height="25" xlink:href="bin_indicator.svg">
    <title>20LAA10EC001_XS92</title>
    <rt:dyn type="PointID" value="&quot;20LAA10EC001_XS92&quot;" mode="constant"/> 
    <rt:dyn type="Col_ON" value="&quot;Col_Red&quot;" mode="constant"/> 
    <rt:dyn type="Col_OFF" value="&quot;Col_BGSand&quot;" mode="constant"/> 
  </image>
  <text x="1111.17" y="769.833" font-size="16">20LAJ01AP001 ОТКЛ</text>
  <line x1="1017.5" y1="774.167" x2="967.5" y2="774.167" stroke="black" stroke-opacity="1" stroke-width="3"/> 
  <image x="948" y="762.167" width="44" height="22" xlink:href="bitwise_tablo_4bits.svg">
    <title>20LAJ01AP001_Z0 0</title>
    <rt:dyn type="PointID_1" value="&quot;20LAJ01AP001_Z0 0&quot;" mode="constant"/> 
    <rt:dyn type="Text_0000" value="&quot;&quot;" mode="constant"/> 
    <rt:dyn type="Text_0001" value="&quot;&quot;" mode="constant"/> 
    <rt:dyn type="Color_0000" value="&quot;Col_BGSand&quot;" mode="constant"/> 
    <rt:dyn type="Color_0001" value="&quot;Col_Red&quot;" mode="constant"/> 
  </image>
  <text x="761.5" y="778.167">20LAJ01AP001 ОТКЛ</text>
  <rect x="993.666" y="793.167" width="46" height="46" rx="0" ry="0" fill="Col_BGSand" fill-opacity="1" stroke="black" stroke-opacity="1" stroke-width="3"/> 
  <text x="1004.67" y="828.167" font-size="28">&amp;</text>
  <rect x="1613.67" y="106.5" width="150" height="55" rx="0" ry="0" fill="Col_BGSand" fill-opacity="1" stroke="black" stroke-opacity="1" stroke-width="3"/> 
  <line x1="1763.67" y1="136.5" x2="1613.67" y2="136.5" stroke="black" stroke-opacity="1" stroke-width="3"/> 
  <text x="1623.67" y="126.5" fill="black" font-size="18" font-weight="700">ШАГ 93</text>
  <text x="1623.67" y="154.5" fill="Col_Grey5" font-size="15">Т ожид</text>
  <text x="1725.83" y="154.5" font-size="16">0 с</text>
  <rect x="1612" y="206.5" width="150" height="55" rx="0" ry="0" fill="Col_BGSand" fill-opacity="1" stroke="black" stroke-opacity="1" stroke-width="3"/> 
  <line x1="1762" y1="236.5" x2="1612" y2="236.5" stroke="black" stroke-opacity="1" stroke-width="3"/> 
  <text x="1622" y="226.5" fill="black" font-size="18" font-weight="700">ШАГ 94</text>
  <text x="1622" y="254.5" fill="Col_Grey5" font-size="15">Т ожид</text>
  <text x="1725.83" y="254.5" font-size="16">0 с</text>
  <text x="1701" y="361.667" font-size="16">Останов окончен</text>
  <image x="1700" y="25" width="100" height="25" xlink:href="obj_Button.svg">
    <rt:dyn type="Label" mode="constant" value="&quot;laa&quot;"/> 
    <rt:event type="OnClick">LoadNew(&quot;laa&quot;)</rt:event>
    <rt:dyn type="T_Size" mode="constant" value="18"/> 
  </image>
  <image x="1586.27" y="25.3049" width="100" height="25" xlink:href="obj_Button.svg">
    <rt:dyn type="Label" mode="constant" value="&quot;fgu_to_all&quot;"/> 
    <rt:event type="OnClick">LoadNew(&quot;fgu_to_all&quot;)</rt:event>
    <rt:dyn type="T_Size" mode="constant" value="18"/> 
  </image>
  <circle cx="361.539" cy="897" r="5" fill="Col_BGSand" fill-opacity="1" stroke="black" stroke-opacity="1" stroke-width="3"/> 
</svg>
