<?xml  version="1.0" encoding="windows-1251"?>
<svg color="Col_BGSand" xmlns="http://www.w3.org/2000/svg" xmlns:rt="http://www.rts.co.at/2001/XMLSchema/RtSvgPL" xmlns:xlink="http://www.w3.org/1999/xlink" xmlns:xsi="http://www.w3.org/2001/XMLSchema-instance" xsi:schemaLocation="http://www.w3.org/2000/svg C:\RTS\RtSvg\XML\SVG.xsd" viewBox="0 0 1914 1000" width="1914" height="1000" id="20lcc30ec001_m12-21" stroke-width="3" font-size="15" font-weight="bold">
  <title>ФГУ 20LCC30EC001 в сторону ПУСК</title>
  <rt:model modelversion="7.2.0.24" revision="3" comment="UMod fgu_to_all"/> 
  <polyline points="775,825 775,974.833 1002.33,975" fill="none" stroke="black"/> 
  <polyline points="639.5,83 693,82.5 694.5,992 1120,992 1120,708 1540,708 1540,980 1849,980" fill="none" stroke="black"/> 
  <g stroke-width="10" font-weight="bold" transform="scale(0.32 0.32 124 341) scale(1 1 124 340.5) scale(1 1 124 339.5) scale(1 1 124.5 338) scale(1 1 124.5 337.5) scale(1 1 124.5 337) scale(1 1 125 337.5) scale(1 1 125.5 339.5) scale(1 1 126 339.5) scale(1 1 126 340)">
    <path d="M4162.41 1489.48 L4134.07 1489.48 A28.3333 23.3333 0 0 0 4190.74 1489.7 Z" fill="Col_BGSand" stroke="black"/> 
    <rect x="4139.3" y="1481.81" width="46.0938" height="13.2813" rx="0" ry="0" fill="Col_BGSand" stroke="none"/> 
  </g>
  <polyline points="693.727,541.439 399.242,540.579 398.5,650 36,650 36,54 1416,54 1416,800 1542,800" fill="none" stroke="black"/> 
  <g stroke-width="10" font-weight="bold" transform="scale(0.32 0.32 124 341) scale(1 1 124 340.5) scale(1 1 124 339.5) scale(1 1 124.5 338) scale(1 1 124.5 337.5) scale(1 1 124.5 337) scale(1 1 125 337.5) scale(1 1 125.5 339.5) scale(1 1 126 339.5) scale(1 1 126 340)">
    <path d="M-87.769 1309.61 L-116.102 1309.61 A28.3333 23.3333 0 0 0 -59.4369 1309.83 Z" fill="Col_BGSand" stroke="black"/> 
    <rect x="-111.417" y="1299.33" width="46.6365" height="15.8854" rx="0" ry="0" fill="Col_BGSand" stroke="none"/> 
  </g>
  <polyline points="1619.11,731.76 1619.28,816.593 1846.61,816.76" fill="none" stroke="black"/> 
  <polyline points="1499.41,423.609 1499.58,508.442 1726.91,508.609" fill="none" stroke="black"/> 
  <text x="1513.58" y="500.106" font-size="16">Проверка условий</text>
  <g stroke-width="10" font-weight="bold" transform="scale(0.32 0.32 124 341) scale(1 1 124 340.5) scale(1 1 124 339.5) scale(1 1 124.5 338) scale(1 1 124.5 337.5) scale(1 1 124.5 337) scale(1 1 125 337.5) scale(1 1 125.5 339.5) scale(1 1 126 339.5) scale(1 1 126 340)">
    <path d="M-26.3252 1309.93 L-54.6585 1309.93 A28.3333 23.3333 0 0 0 2.00687 1310.16 Z" fill="Col_BGSand" stroke="black"/> 
    <rect x="-48.9167" y="1300.38" width="44.7917" height="15.625" rx="0" ry="0" fill="Col_BGSand" stroke="none"/> 
  </g>
  <polyline points="1497.83,282.336 1498,367.169 1725.33,367.336" fill="none" stroke="black"/> 
  <polyline points="1500,180 1500,275 1725,275" fill="none" stroke="black"/> 
  <line x1="695.09" y1="718.621" x2="645.09" y2="718.621" stroke="black" stroke-opacity="1" stroke-width="3"/> 
  <polyline points="675,363 675,375 394.5,375 395,512 76,512 76,670 694,670" fill="none" stroke="black"/> 
  <polyline points="776.955,483.67 777.125,568.503 1004.46,568.67" fill="none" stroke="black"/> 
  <polyline points="305.637,142.864 348.137,142.864 348.682,253.061 393.182,253.061" fill="none" stroke="black"/> 
  <polyline points="778.409,103.851 778.579,188.684 1005.91,188.851" fill="none" stroke="black"/> 
  <text x="950" y="36.6667" fill-opacity="1" font-size="30" font-weight="700" text-anchor="middle">ФГУ 20LCC30EC001 в сторону ПУСК</text>
  <text x="12.6063" y="33.197" fill="black" font-size="15" font-weight="700">20LCC30EC001</text>
  <image x="1700" y="25" width="100" height="25" xlink:href="obj_Button.svg">
    <rt:dyn type="Label" mode="constant" value="&quot;lcc30_40&quot;"/> 
    <rt:event type="OnClick">LoadNew(&quot;lcc30_40&quot;)</rt:event>
    <rt:dyn type="T_Size" mode="constant" value="18"/> 
  </image>
  <polyline points="692,175 394,175 394,331 56,331 56,690 694,690" fill="none" stroke="black"/> 
  <image x="567.818" y="69.3939" width="100" height="25" xlink:href="obj_Button.svg">
    <rt:dyn type="Label" mode="constant" value="&quot;Из шага 11&quot;"/> 
    <rt:event type="OnClick">LoadNew(&quot;20lcc30ec001_m1-11&quot;)</rt:event>
    <rt:dyn type="T_Size" mode="constant" value="18"/> 
  </image>
  <rect x="652.651" y="103.53" width="150" height="55" rx="0" ry="0" fill="Col_BGSand" fill-opacity="1" stroke="black" stroke-opacity="1" stroke-width="3"/> 
  <line x1="802.651" y1="133.53" x2="652.651" y2="133.53" stroke="black" stroke-opacity="1" stroke-width="3"/> 
  <text x="662.651" y="123.53" fill="black" font-size="18" font-weight="700">ШАГ 12</text>
  <text x="662.651" y="151.53" fill="Col_Grey5" font-size="15">Т ожид</text>
  <text x="787.882" y="151.53" font-size="16" text-anchor="end">0 с</text>
  <image x="763.261" y="105.53" width="25" height="25" xlink:href="bin_indicator.svg">
    <title>20LCC30EC001_XS12</title>
    <rt:dyn type="PointID" value="&quot;20LCC30EC001_XS12&quot;" mode="constant"/> 
    <rt:dyn type="Col_ON" value="&quot;Col_Red&quot;" mode="constant"/> 
    <rt:dyn type="Col_OFF" value="&quot;Col_BGSand&quot;" mode="constant"/> 
  </image>
  <text x="790.651" y="182.53" font-size="16">20LCA20AA004 ИМП ОТКР</text>
  <rect x="325.667" y="194.242" width="46" height="46" rx="0" ry="0" fill="Col_BGSand" fill-opacity="1" stroke="black" stroke-opacity="1" stroke-width="3"/> 
  <text x="328.667" y="229.243" font-size="28">&gt;1</text>
  <line x1="348.667" y1="171.242" x2="298.667" y2="171.242" stroke="black" stroke-opacity="1" stroke-width="3"/> 
  <image x="292.667" y="159.242" width="25" height="25" xlink:href="bin_indicator.svg">
    <title>20LCC30CL001_XH15</title>
    <rt:dyn type="PointID" value="&quot;20LCC30CL001_XH15&quot;" mode="constant"/> 
    <rt:dyn type="Col_ON" value="&quot;Col_Red&quot;" mode="constant"/> 
    <rt:dyn type="Col_OFF" value="&quot;Col_BGSand&quot;" mode="constant"/> 
  </image>
  <text x="285.667" y="174.242" text-anchor="end">20LCC30CL001 &gt;0.1 М</text>
  <image x="292.667" y="130.242" width="25" height="25" xlink:href="bin_indicator.svg">
    <title>20LCA70FF901_XH07</title>
    <rt:dyn type="PointID" value="&quot;20LCA70FF901_XH07&quot;" mode="constant"/> 
    <rt:dyn type="Col_ON" value="&quot;Col_Red&quot;" mode="constant"/> 
    <rt:dyn type="Col_OFF" value="&quot;Col_BGSand&quot;" mode="constant"/> 
  </image>
  <text x="285.667" y="145.242" text-anchor="end">20LCA70FF901 &gt;400 М3/Ч</text>
  <rect x="670.182" y="247.955" width="46" height="46" rx="0" ry="0" fill="Col_BGSand" fill-opacity="1" stroke="black" stroke-opacity="1" stroke-width="3"/> 
  <text x="681.182" y="282.955" font-size="28">&amp;</text>
  <line x1="693.182" y1="225.955" x2="643.182" y2="225.955" stroke="black" stroke-opacity="1" stroke-width="3"/> 
  <image x="631.182" y="213.955" width="25" height="25" xlink:href="bin_indicator.svg">
    <title>20LCC30CL001_XH65</title>
    <rt:dyn type="PointID" value="&quot;20LCC30CL001_XH65&quot;" mode="constant"/> 
    <rt:dyn type="Col_ON" value="&quot;Col_Red&quot;" mode="constant"/> 
    <rt:dyn type="Col_OFF" value="&quot;Col_BGSand&quot;" mode="constant"/> 
  </image>
  <text x="619.182" y="229.955" text-anchor="end">20LCC30CL001 &lt;0.1 М</text>
  <line x1="693.182" y1="198.955" x2="643.182" y2="198.955" stroke="black" stroke-opacity="1" stroke-width="3"/> 
  <image x="623.682" y="186.955" width="44" height="22" xlink:href="bitwise_tablo_4bits.svg">
    <title>20LCA20AA004_Z0 1</title>
    <rt:dyn type="PointID_1" value="&quot;20LCA20AA004_Z0 1&quot;" mode="constant"/> 
    <rt:dyn type="Text_0000" value="&quot;&quot;" mode="constant"/> 
    <rt:dyn type="Text_0001" value="&quot;&quot;" mode="constant"/> 
    <rt:dyn type="Color_0000" value="&quot;Col_BGSand&quot;" mode="constant"/> 
    <rt:dyn type="Color_0001" value="&quot;Col_Red&quot;" mode="constant"/> 
    <rt:dyn type="T_Size" value="0" mode="constant"/> 
  </image>
  <text x="619.182" y="202.955" text-anchor="end">20LCA20AA004 ОТКР</text>
  <rect x="371.591" y="265.106" width="46" height="46" rx="0" ry="0" fill="Col_BGSand" fill-opacity="1" stroke="black" stroke-opacity="1" stroke-width="3"/> 
  <text x="382.591" y="300.106" font-size="28">&amp;</text>
  <rect x="651.652" y="307.955" width="150" height="55" rx="0" ry="0" fill="Col_BGSand" fill-opacity="1" stroke="black" stroke-opacity="1" stroke-width="3"/> 
  <line x1="801.652" y1="337.955" x2="651.652" y2="337.955" stroke="black" stroke-opacity="1" stroke-width="3"/> 
  <text x="661.652" y="327.955" fill="black" font-size="18" font-weight="700">ШАГ 13</text>
  <text x="661.652" y="355.955" fill="Col_Grey5" font-size="15">Т ожид</text>
  <text x="793.186" y="355.955" font-size="16" text-anchor="end">30 с</text>
  <image x="763.261" y="309.955" width="25" height="25" xlink:href="bin_indicator.svg">
    <title>20LCC30EC001_XS13</title>
    <rt:dyn type="PointID" value="&quot;20LCC30EC001_XS13&quot;" mode="constant"/> 
    <rt:dyn type="Col_ON" value="&quot;Col_Red&quot;" mode="constant"/> 
    <rt:dyn type="Col_OFF" value="&quot;Col_BGSand&quot;" mode="constant"/> 
  </image>
  <rect x="668.303" y="423.5" width="46" height="46" rx="0" ry="0" fill="Col_BGSand" fill-opacity="1" stroke="black" stroke-opacity="1" stroke-width="3"/> 
  <text x="679.303" y="455.833" font-size="28">&amp;</text>
  <line x1="691.303" y1="402.076" x2="641.303" y2="402.076" stroke="black" stroke-opacity="1" stroke-width="3"/> 
  <image x="621.803" y="390.076" width="44" height="22" xlink:href="bitwise_tablo_4bits.svg">
    <title>20LCA20AA005_Z0 1</title>
    <rt:dyn type="PointID_1" value="&quot;20LCA20AA005_Z0 1&quot;" mode="constant"/> 
    <rt:dyn type="Text_0000" value="&quot;&quot;" mode="constant"/> 
    <rt:dyn type="Text_0001" value="&quot;&quot;" mode="constant"/> 
    <rt:dyn type="Color_0000" value="&quot;Col_BGSand&quot;" mode="constant"/> 
    <rt:dyn type="Color_0001" value="&quot;Col_Red&quot;" mode="constant"/> 
    <rt:dyn type="T_Size" value="0" mode="constant"/> 
  </image>
  <text x="616.303" y="405.076" text-anchor="end">20LCA20AA005 ОТКР</text>
  <polyline points="777,362 777,456 1003.82,456.064" fill="none" stroke="black"/> 
  <line x1="1001.33" y1="395.515" x2="776.333" y2="395.515" stroke="black" stroke-opacity="1" stroke-width="3"/> 
  <text x="790.333" y="387.515" font-size="16">20LCA20AA005 ИМП ОТКР</text>
  <text x="790.333" y="416.03" font-size="16">Контроль изменения<tspan x="790.333" dy="16">F в деаэратор</tspan>
<tspan x="790.333" dy="16">20LCA70FF901</tspan>
  </text>
  <rect x="654.788" y="478.924" width="150" height="55" rx="0" ry="0" fill="Col_BGSand" fill-opacity="1" stroke="black" stroke-opacity="1" stroke-width="3"/> 
  <line x1="804.788" y1="508.924" x2="654.788" y2="508.924" stroke="black" stroke-opacity="1" stroke-width="3"/> 
  <text x="664.788" y="498.924" fill="black" font-size="18" font-weight="700">ШАГ 14</text>
  <text x="664.788" y="526.924" fill="Col_Grey5" font-size="15">Т ожид</text>
  <text x="787.882" y="526.924" font-size="16" text-anchor="end">0 с</text>
  <image x="763.261" y="480.924" width="25" height="25" xlink:href="bin_indicator.svg">
    <title>20LCC30EC001_XS14</title>
    <rt:dyn type="PointID" value="&quot;20LCC30EC001_XS14&quot;" mode="constant"/> 
    <rt:dyn type="Col_ON" value="&quot;Col_Red&quot;" mode="constant"/> 
    <rt:dyn type="Col_OFF" value="&quot;Col_BGSand&quot;" mode="constant"/> 
  </image>
  <text x="791.788" y="558.924" font-size="16">20LCA25AA001 ИМП ЗАКР</text>
  <line x1="398.152" y1="557.954" x2="348.152" y2="557.954" stroke="black" stroke-opacity="1" stroke-width="3"/> 
  <image x="327.652" y="545.954" width="44" height="22" xlink:href="bitwise_tablo_4bits.svg">
    <title>20LCA25AA001_Z0 0</title>
    <rt:dyn type="PointID_1" value="&quot;20LCA25AA001_Z0 0&quot;" mode="constant"/> 
    <rt:dyn type="Text_0000" value="&quot;&quot;" mode="constant"/> 
    <rt:dyn type="Text_0001" value="&quot;&quot;" mode="constant"/> 
    <rt:dyn type="Color_0000" value="&quot;Col_BGSand&quot;" mode="constant"/> 
    <rt:dyn type="Color_0001" value="&quot;Col_Red&quot;" mode="constant"/> 
    <rt:dyn type="T_Size" value="0" mode="constant"/> 
  </image>
  <text x="322.152" y="561.954" text-anchor="end">20LCA25AA001 ЗАКР</text>
  <line x1="694.758" y1="561.939" x2="644.758" y2="561.939" stroke="black" stroke-opacity="1" stroke-width="3"/> 
  <image x="638.758" y="549.939" width="25" height="25" xlink:href="bin_indicator.svg">
    <title>20LCA70FF901_XH07</title>
    <rt:dyn type="PointID" value="&quot;20LCA70FF901_XH07&quot;" mode="constant"/> 
    <rt:dyn type="Col_ON" value="&quot;Col_Red&quot;" mode="constant"/> 
    <rt:dyn type="Col_OFF" value="&quot;Col_BGSand&quot;" mode="constant"/> 
  </image>
  <text x="632.758" y="566.939" text-anchor="end">20LCA70FF901 &gt;400 М3/Ч</text>
  <line x1="393.515" y1="402.576" x2="343.515" y2="402.576" stroke="black" stroke-opacity="1" stroke-width="3"/> 
  <image x="331.515" y="390.576" width="25" height="25" xlink:href="bin_indicator.svg">
    <title>20LCA70FF901_XH07</title>
    <rt:dyn type="PointID" value="&quot;20LCA70FF901_XH07&quot;" mode="constant"/> 
    <rt:dyn type="Col_ON" value="&quot;Col_Red&quot;" mode="constant"/> 
    <rt:dyn type="Col_OFF" value="&quot;Col_BGSand&quot;" mode="constant"/> 
  </image>
  <text x="327.515" y="407.576" text-anchor="end">20LCA70FF901 &gt;400 М3/Ч</text>
  <rect x="371.439" y="423.5" width="46" height="46" rx="0" ry="0" fill="Col_BGSand" fill-opacity="1" stroke="black" stroke-opacity="1" stroke-width="3"/> 
  <text x="382.439" y="455.833" font-size="28">&amp;</text>
  <rect x="666.94" y="591.227" width="46" height="46" rx="0" ry="0" fill="Col_BGSand" fill-opacity="1" stroke="black" stroke-opacity="1" stroke-width="3"/> 
  <text x="677.94" y="623.56" font-size="28">&amp;</text>
  <rect x="375.076" y="591.227" width="46" height="46" rx="0" ry="0" fill="Col_BGSand" fill-opacity="1" stroke="black" stroke-opacity="1" stroke-width="3"/> 
  <text x="386.076" y="623.56" font-size="28">&amp;</text>
  <rect x="654.06" y="789.288" width="150" height="55" rx="0" ry="0" fill="Col_BGSand" fill-opacity="1" stroke="black" stroke-opacity="1" stroke-width="3"/> 
  <line x1="804.06" y1="819.288" x2="654.06" y2="819.288" stroke="black" stroke-opacity="1" stroke-width="3"/> 
  <text x="664.06" y="809.288" fill="black" font-size="18" font-weight="700">ШАГ 15</text>
  <text x="664.06" y="837.288" fill="Col_Grey5" font-size="15">Т ожид</text>
  <text x="794.06" y="837.288" font-size="16" text-anchor="end">0 с</text>
  <image x="769.06" y="791.288" width="25" height="25" xlink:href="bin_indicator.svg">
    <title>20LCC30EC001_XS15</title>
    <rt:dyn type="PointID" value="&quot;20LCC30EC001_XS15&quot;" mode="constant"/> 
    <rt:dyn type="Col_ON" value="&quot;Col_Red&quot;" mode="constant"/> 
    <rt:dyn type="Col_OFF" value="&quot;Col_BGSand&quot;" mode="constant"/> 
  </image>
  <line x1="999.85" y1="942.197" x2="774.85" y2="942.197" stroke="black" stroke-opacity="1" stroke-width="3"/> 
  <text x="813" y="850" font-size="16">Изменение уровня/расхода</text>
  <text x="782" y="880.5" font-size="15">20LCA25EY001 ЗАЩ ОТКЛ ПНД-3</text>
  <rect x="671.97" y="933.742" width="46" height="46" rx="0" ry="0" fill="Col_BGSand" fill-opacity="1" stroke="black" stroke-opacity="1" stroke-width="3"/> 
  <text x="682.97" y="968.742" font-size="28">&amp;</text>
  <line x1="694.97" y1="914.742" x2="644.97" y2="914.742" stroke="black" stroke-opacity="1" stroke-width="3"/> 
  <image x="625.47" y="902.742" width="44" height="22" xlink:href="bitwise_tablo_4bits.svg">
    <title>20LCA20AA005_Z0 0</title>
    <rt:dyn type="PointID_1" value="&quot;20LCA20AA005_Z0 0&quot;" mode="constant"/> 
    <rt:dyn type="Text_0000" value="&quot;&quot;" mode="constant"/> 
    <rt:dyn type="Text_0001" value="&quot;&quot;" mode="constant"/> 
    <rt:dyn type="Color_0000" value="&quot;Col_BGSand&quot;" mode="constant"/> 
    <rt:dyn type="Color_0001" value="&quot;Col_Red&quot;" mode="constant"/> 
    <rt:dyn type="T_Size" value="0" mode="constant"/> 
  </image>
  <text x="619.97" y="917.742" text-anchor="end">20LCA20AA005 ЗАКР</text>
  <line x1="694.97" y1="889.742" x2="644.97" y2="889.742" stroke="black" stroke-opacity="1" stroke-width="3"/> 
  <image x="625.47" y="877.742" width="44" height="22" xlink:href="bitwise_tablo_4bits.svg">
    <title>20LCA20AA004_Z0 0</title>
    <rt:dyn type="PointID_1" value="&quot;20LCA20AA004_Z0 0&quot;" mode="constant"/> 
    <rt:dyn type="Text_0000" value="&quot;&quot;" mode="constant"/> 
    <rt:dyn type="Text_0001" value="&quot;&quot;" mode="constant"/> 
    <rt:dyn type="Color_0000" value="&quot;Col_BGSand&quot;" mode="constant"/> 
    <rt:dyn type="Color_0001" value="&quot;Col_Red&quot;" mode="constant"/> 
    <rt:dyn type="T_Size" value="0" mode="constant"/> 
  </image>
  <text x="619.97" y="892.742" text-anchor="end">20LCA20AA004 ЗАКР</text>
  <line x1="694.97" y1="864.742" x2="644.97" y2="864.742" stroke="black" stroke-opacity="1" stroke-width="3"/> 
  <image x="625.47" y="852.742" width="44" height="22" xlink:href="bitwise_tablo_4bits.svg">
    <title>20LCA25AA001_Z0 1</title>
    <rt:dyn type="PointID_1" value="&quot;20LCA25AA001_Z0 1&quot;" mode="constant"/> 
    <rt:dyn type="Text_0000" value="&quot;&quot;" mode="constant"/> 
    <rt:dyn type="Text_0001" value="&quot;&quot;" mode="constant"/> 
    <rt:dyn type="Color_0000" value="&quot;Col_BGSand&quot;" mode="constant"/> 
    <rt:dyn type="Color_0001" value="&quot;Col_Red&quot;" mode="constant"/> 
    <rt:dyn type="T_Size" value="0" mode="constant"/> 
  </image>
  <text x="619.97" y="867.742" text-anchor="end">20LCA25AA001 ОТКР</text>
  <image x="547.55" y="705.576" width="100" height="25" xlink:href="obj_Button.svg">
    <rt:dyn type="Label" mode="constant" value="&quot;Из шага 9&quot;"/> 
    <rt:event type="OnClick">LoadNew(&quot;20lcc30ec001_m1-11&quot;)</rt:event>
    <rt:dyn type="T_Size" mode="constant" value="18"/> 
  </image>
  <rect x="1373.17" y="65.5" width="150" height="55" rx="0" ry="0" fill="Col_BGSand" fill-opacity="1" stroke="black" stroke-opacity="1" stroke-width="3"/> 
  <line x1="1523.17" y1="95.5" x2="1373.17" y2="95.5" stroke="black" stroke-opacity="1" stroke-width="3"/> 
  <text x="1383.17" y="85.5" fill="black" font-size="18" font-weight="700">ШАГ 16</text>
  <text x="1383.17" y="113.5" fill="Col_Grey5" font-size="15">Т ожид</text>
  <text x="1513.17" y="113.5" font-size="16" text-anchor="end">0 с</text>
  <rect x="1372.83" y="130.833" width="150" height="55" rx="0" ry="0" fill="Col_BGSand" fill-opacity="1" stroke="black" stroke-opacity="1" stroke-width="3"/> 
  <line x1="1522.83" y1="160.833" x2="1372.83" y2="160.833" stroke="black" stroke-opacity="1" stroke-width="3"/> 
  <text x="1382.83" y="150.833" fill="black" font-size="18" font-weight="700">ШАГ 17</text>
  <text x="1382.83" y="178.833" fill="Col_Grey5" font-size="15">Т ожид</text>
  <text x="1512.83" y="178.833" font-size="16" text-anchor="end">0 с</text>
  <image x="1487.83" y="132.833" width="25" height="25" xlink:href="bin_indicator.svg">
    <title>20LCC30EC001_XS17</title>
    <rt:dyn type="PointID" value="&quot;20LCC30EC001_XS17&quot;" mode="constant"/> 
    <rt:dyn type="Col_ON" value="&quot;Col_Red&quot;" mode="constant"/> 
    <rt:dyn type="Col_OFF" value="&quot;Col_BGSand&quot;" mode="constant"/> 
  </image>
  <text x="1256.67" y="202.333">ДА</text>
  <polyline points="1248.67,183.333 1248.67,208.333 1415.67,209.333" fill="none" stroke="black"/> 
  <image x="1342.69" y="196.333" width="44" height="22" xlink:href="bitwise_tablo_4bits.svg">
    <title>&quot;10LСС30CH001VL0_Z0 2&quot;</title>
    <rt:dyn type="PointID_1" value="&quot;20LCC30CH001VL0_Z0 2&quot;" mode="constant"/> 
    <rt:dyn type="Text_0000" value="&quot;&quot;" mode="constant"/> 
    <rt:dyn type="Text_0001" value="&quot;&quot;" mode="constant"/> 
    <rt:dyn type="Color_0000" value="&quot;Col_BGSand&quot;" mode="constant"/> 
    <rt:dyn type="Color_0001" value="&quot;Col_Red&quot;" mode="constant"/> 
  </image>
  <image x="1165.67" y="114.333" width="160" height="75" xlink:href="DS_TPTS_VL_spec.svg">
    <title>&quot;10LСС30CH001VL0&quot;</title>
    <rt:dyn type="KKS" mode="constant" value="&quot;20LCC30CH001VL0&quot;"/> 
    <rt:dyn type="Operate" mode="constant" value="true"/> 
  </image>
  <rect x="1391.92" y="220.5" width="46" height="46" rx="0" ry="0" fill="Col_BGSand" fill-opacity="1" stroke="black" stroke-opacity="1" stroke-width="3"/> 
  <text x="1402.92" y="255.5" font-size="28">&amp;</text>
  <rect x="1373" y="283.833" width="150" height="55" rx="0" ry="0" fill="Col_BGSand" fill-opacity="1" stroke="black" stroke-opacity="1" stroke-width="3"/> 
  <line x1="1523" y1="313.833" x2="1373" y2="313.833" stroke="black" stroke-opacity="1" stroke-width="3"/> 
  <text x="1383" y="303.833" fill="black" font-size="18" font-weight="700">ШАГ 18</text>
  <text x="1383" y="331.833" fill="Col_Grey5" font-size="15">Т ожид</text>
  <text x="1513" y="331.833" font-size="16" text-anchor="end">0 с</text>
  <image x="1488" y="285.833" width="25" height="25" xlink:href="bin_indicator.svg">
    <title>20LCC30EC001_XS18</title>
    <rt:dyn type="PointID" value="&quot;20LCC30EC001_XS18&quot;" mode="constant"/> 
    <rt:dyn type="Col_ON" value="&quot;Col_Red&quot;" mode="constant"/> 
    <rt:dyn type="Col_OFF" value="&quot;Col_BGSand&quot;" mode="constant"/> 
  </image>
  <text x="1512" y="358.833" font-size="16">20LBS30AA001 ИМП ОТКР</text>
  <line x1="1416.67" y1="352.833" x2="1366.67" y2="352.833" stroke="black" stroke-opacity="1" stroke-width="3"/> 
  <image x="1342.69" y="340.833" width="44" height="22" xlink:href="bitwise_tablo_4bits.svg">
    <title>20LBS30AA001_Z0 1</title>
    <rt:dyn type="PointID_1" value="&quot;20LBS30AA001_Z0 1&quot;" mode="constant"/> 
    <rt:dyn type="Text_0000" value="&quot;&quot;" mode="constant"/> 
    <rt:dyn type="Text_0001" value="&quot;&quot;" mode="constant"/> 
    <rt:dyn type="Color_0000" value="&quot;Col_BGSand&quot;" mode="constant"/> 
    <rt:dyn type="Color_0001" value="&quot;Col_Red&quot;" mode="constant"/> 
    <rt:dyn type="T_Size" value="0" mode="constant"/> 
  </image>
  <text x="1337.67" y="357.833" text-anchor="end">20LBS30AA001 ОТКР</text>
  <rect x="1374" y="422.167" width="150" height="55" rx="0" ry="0" fill="Col_BGSand" fill-opacity="1" stroke="black" stroke-opacity="1" stroke-width="3"/> 
  <line x1="1524" y1="452.167" x2="1374" y2="452.167" stroke="black" stroke-opacity="1" stroke-width="3"/> 
  <text x="1384" y="442.167" fill="black" font-size="18" font-weight="700">ШАГ 19</text>
  <text x="1384" y="470.167" fill="Col_Grey5" font-size="15">Т ожид</text>
  <text x="1514" y="470.167" font-size="16" text-anchor="end">0 с</text>
  <image x="1489" y="424.167" width="25" height="25" xlink:href="bin_indicator.svg">
    <title>20LCC30EC001_XS19</title>
    <rt:dyn type="PointID" value="&quot;20LCC30EC001_XS19&quot;" mode="constant"/> 
    <rt:dyn type="Col_ON" value="&quot;Col_Red&quot;" mode="constant"/> 
    <rt:dyn type="Col_OFF" value="&quot;Col_BGSand&quot;" mode="constant"/> 
  </image>
  <rect x="1391.67" y="629.33" width="46" height="46" rx="0" ry="0" fill="Col_BGSand" fill-opacity="1" stroke="black" stroke-opacity="1" stroke-width="3"/> 
  <text x="1402.67" y="664.33" font-size="28">&amp;</text>
  <line x1="1414.67" y1="612.33" x2="1364.67" y2="612.33" stroke="black" stroke-opacity="1" stroke-width="3"/> 
  <image x="1352.67" y="600.33" width="25" height="25" xlink:href="bin_indicator.svg">
    <title>20LCA20FT003_XH07</title>
    <rt:dyn type="PointID" value="&quot;20LCA20FT003_XH07&quot;" mode="constant"/> 
    <rt:dyn type="Col_ON" value="&quot;Col_Red&quot;" mode="constant"/> 
    <rt:dyn type="Col_OFF" value="&quot;Col_BGSand&quot;" mode="constant"/> 
  </image>
  <text x="1347.67" y="617.33" text-anchor="end">20LCA20FT003 &gt;18 С</text>
  <line x1="1414.67" y1="583.33" x2="1364.67" y2="583.33" stroke="black" stroke-opacity="1" stroke-width="3"/> 
  <image x="1352.67" y="571.333" width="25" height="25" xlink:href="bin_indicator.svg">
    <title>20LBS30CP002_XH57</title>
    <rt:dyn type="PointID" value="&quot;20LBS30CP002_XH57&quot;" mode="constant"/> 
    <rt:dyn type="Col_ON" value="&quot;Col_Red&quot;" mode="constant"/> 
    <rt:dyn type="Col_OFF" value="&quot;Col_BGSand&quot;" mode="constant"/> 
  </image>
  <text x="1347.67" y="588.33" text-anchor="end">20LBS30CP002 &lt;53 KПА</text>
  <line x1="1414.67" y1="555.333" x2="1364.67" y2="555.333" stroke="black" stroke-opacity="1" stroke-width="3"/> 
  <image x="1352.67" y="543.333" width="25" height="25" xlink:href="bin_indicator.svg">
    <title>20LBS30CP002_XH07</title>
    <rt:dyn type="PointID" value="&quot;20LBS30CP002_XH07&quot;" mode="constant"/> 
    <rt:dyn type="Col_ON" value="&quot;Col_Red&quot;" mode="constant"/> 
    <rt:dyn type="Col_OFF" value="&quot;Col_BGSand&quot;" mode="constant"/> 
  </image>
  <text x="1347.67" y="560.333" text-anchor="end">20LBS30CP002 &gt;40 KПА</text>
  <line x1="1414.67" y1="526.333" x2="1364.67" y2="526.333" stroke="black" stroke-opacity="1" stroke-width="3"/> 
  <image x="1352.67" y="514.333" width="25" height="25" xlink:href="bin_indicator.svg">
    <title>20LCC30CL001_XH58</title>
    <rt:dyn type="PointID" value="&quot;20LCC30CL001_XH58&quot;" mode="constant"/> 
    <rt:dyn type="Col_ON" value="&quot;Col_Red&quot;" mode="constant"/> 
    <rt:dyn type="Col_OFF" value="&quot;Col_BGSand&quot;" mode="constant"/> 
  </image>
  <text x="1347.67" y="531.333" text-anchor="end">20LCC30CL001 &lt;0.65 М</text>
  <line x1="1414.67" y1="497.333" x2="1364.67" y2="497.333" stroke="black" stroke-opacity="1" stroke-width="3"/> 
  <image x="1352.67" y="485.333" width="25" height="25" xlink:href="bin_indicator.svg">
    <title>20LCC30CL001_XH07</title>
    <rt:dyn type="PointID" value="&quot;20LCC30CL001_XH07&quot;" mode="constant"/> 
    <rt:dyn type="Col_ON" value="&quot;Col_Red&quot;" mode="constant"/> 
    <rt:dyn type="Col_OFF" value="&quot;Col_BGSand&quot;" mode="constant"/> 
  </image>
  <text x="1347.67" y="502.333" text-anchor="end">20LCC30CL001 &gt;0.15 М</text>
  <rect x="1392.83" y="364.5" width="46" height="46" rx="0" ry="0" fill="Col_BGSand" fill-opacity="1" stroke="black" stroke-opacity="1" stroke-width="3"/> 
  <text x="1403.83" y="399.5" font-size="28">&amp;</text>
  <rect x="1497.89" y="719.682" width="150" height="55" rx="0" ry="0" fill="Col_BGSand" fill-opacity="1" stroke="black" stroke-opacity="1" stroke-width="3"/> 
  <line x1="1647.89" y1="749.682" x2="1497.89" y2="749.682" stroke="black" stroke-opacity="1" stroke-width="3"/> 
  <text x="1507.89" y="739.682" fill="black" font-size="18" font-weight="700">ШАГ 20</text>
  <text x="1507.89" y="767.682" fill="Col_Grey5" font-size="15">Т ожид</text>
  <text x="1637.89" y="767.682" font-size="16" text-anchor="end">60 с</text>
  <image x="1607.97" y="721.682" width="25" height="25" xlink:href="bin_indicator.svg">
    <title>20LCC30EC001_XS20</title>
    <rt:dyn type="PointID" value="&quot;20LCC30EC001_XS20&quot;" mode="constant"/> 
    <rt:dyn type="Col_ON" value="&quot;Col_Red&quot;" mode="constant"/> 
    <rt:dyn type="Col_OFF" value="&quot;Col_BGSand&quot;" mode="constant"/> 
  </image>
  <text x="1633.28" y="795.257" font-size="16">Аварийный останов<tspan x="1633.28" dy="16">программы пуска</tspan>
  </text>
  <rect x="1519.11" y="821.53" width="46" height="46" rx="0" ry="0" fill="Col_BGSand" fill-opacity="1" stroke="black" stroke-opacity="1" stroke-width="3"/> 
  <text x="1522.11" y="856.531" font-size="28">&gt;1</text>
  <rect x="1496.92" y="880.621" width="150" height="55" rx="0" ry="0" fill="Col_BGSand" fill-opacity="1" stroke="black" stroke-opacity="1" stroke-width="3"/> 
  <line x1="1646.92" y1="910.621" x2="1496.92" y2="910.621" stroke="black" stroke-opacity="1" stroke-width="3"/> 
  <text x="1506.92" y="900.621" fill="black" font-size="18" font-weight="700">ШАГ 21</text>
  <text x="1506.92" y="928.621" fill="Col_Grey5" font-size="15">Т ожид</text>
  <text x="1636.92" y="928.621" font-size="16" text-anchor="end">0 с</text>
  <text x="1703.55" y="969.636" font-size="16">Пуск окончен</text>
  <rect x="669.106" y="731.803" width="46" height="46" rx="0" ry="0" fill="Col_BGSand" fill-opacity="1" stroke="black" stroke-opacity="1" stroke-width="3"/> 
  <text x="672.106" y="766.804" font-size="28">&gt;1</text>
  <image x="1585.05" y="25.3049" width="100" height="25" xlink:href="obj_Button.svg">
    <rt:dyn type="Label" mode="constant" value="&quot;fgu_to_all&quot;"/> 
    <rt:event type="OnClick">LoadNew(&quot;fgu_to_all&quot;)</rt:event>
    <rt:dyn type="T_Size" mode="constant" value="18"/> 
  </image>
  <circle cx="694" cy="367.375" r="5" fill="Col_BGSand" fill-opacity="1" stroke="black" stroke-opacity="1" stroke-width="3"/> 
  <circle cx="1540.54" cy="780" r="5" fill="Col_BGSand" fill-opacity="1" stroke="black" stroke-opacity="1" stroke-width="3"/> 
  <line x1="999" y1="914.197" x2="774" y2="914.197" stroke="black" stroke-opacity="1" stroke-width="3"/> 
  <text x="783" y="933.5" font-size="15">20LCA20AA004 СНЯТЬ ЗАПР</text>
  <line x1="1000" y1="888.197" x2="775" y2="888.197" stroke="black" stroke-opacity="1" stroke-width="3"/> 
  <text x="784" y="908.5" font-size="15">20LCA25AA001 СНЯТЬ ЗАПР</text>
  <line x1="1000" y1="859.5" x2="775" y2="859.5" stroke="black" stroke-opacity="1" stroke-width="3"/> 
  <text x="785" y="964.5" font-size="15">20LCA20AA005 СНЯТЬ ЗАПР</text>
  <line x1="1726.85" y1="223.197" x2="1501.85" y2="223.197" stroke="black" stroke-opacity="1" stroke-width="3"/> 
  <line x1="1726" y1="195.197" x2="1501" y2="195.197" stroke="black" stroke-opacity="1" stroke-width="3"/> 
  <text x="1530" y="214.5" font-size="15">20LCA20AA004 СНЯТЬ ЗАПР</text>
  <text x="1531" y="189.5" font-size="15">20LCA25AA001 СНЯТЬ ЗАПР</text>
  <text x="1532" y="244.5" font-size="15">20LCA20AA005 СНЯТЬ ЗАПР</text>
  <line x1="1725" y1="250" x2="1500" y2="250" stroke="black" stroke-opacity="1" stroke-width="3"/> 
  <text x="1533" y="269.5" font-size="15">20LCJ30AA101 ОТКР</text>
</svg>
