<?xml  version="1.0" encoding="windows-1251"?>
<svg color="Col_BGSand" xmlns="http://www.w3.org/2000/svg" xmlns:rt="http://www.rts.co.at/2001/XMLSchema/RtSvgPL" xmlns:xlink="http://www.w3.org/1999/xlink" xmlns:xsi="http://www.w3.org/2001/XMLSchema-instance" xsi:schemaLocation="http://www.w3.org/2000/svg C:/RTS/\RtSvg\XML\SVG.xsd" viewBox="0 0 1914 1000" width="1914" height="1000" id="20r006_ 21r007_r011_r001_20cxv99">
  <title>Ñèñòåìû çä. 20URS</title>
  <rt:model modelversion="7.2.0.24" comment="UMod all_20urs" revision="4.1"/> 
  <line x1="991.5" y1="362" x2="991.5" y2="300.5" stroke="black" stroke-width="3"/> 
  <line x1="1765" y1="628" x2="1765" y2="495" stroke="black" stroke-width="3"/> 
  <line x1="1630" y1="631" x2="1630" y2="490" stroke="black" stroke-width="3"/> 
  <line x1="1800" y1="217.75" x2="1800" y2="162.25" stroke="black" stroke-width="3"/> 
  <g>
    <polygon points="1300,835 1310,852 1290,852"/> 
    <polyline points="1300,850 1300,900 1315,895 1315,945 1225,945 1225,865" fill="none" stroke="black" stroke-width="3"/> 
    <polygon points="1225,780 1235,797 1215,797" transform="flipY(823.5)"/> 
  </g>
  <g>
    <polygon points="1030,835 1040,852 1020,852"/> 
    <polyline points="1030,850 1030,900 1045,895 1045,945 955,945 955,865" fill="none" stroke="black" stroke-width="3"/> 
    <polygon points="955,780 965,797 945,797" transform="flipY(823.5)"/> 
  </g>
  <g>
    <polygon points="730,835 740,852 720,852"/> 
    <polyline points="730,850 730,900 745,895 745,945 655,945 655,865" fill="none" stroke="black" stroke-width="3"/> 
    <polygon points="655,780 665,797 645,797" transform="flipY(823.5)"/> 
  </g>
  <g>
    <polygon points="495,835 505,852 485,852"/> 
    <polyline points="495,850 495,900 510,895 510,945 420,945 420,865" fill="none" stroke="black" stroke-width="3"/> 
    <polygon points="420,780 430,797 410,797" transform="flipY(823.5)"/> 
  </g>
  <line x1="1221.5" y1="265.5" x2="1221" y2="211.5" stroke="black" stroke-width="3"/> 
  <line x1="1206" y1="198" x2="1206" y2="136.5" stroke="black" stroke-width="3"/> 
  <polygon points="1206,124.75 1216,141.75 1196,141.75"/> 
  <line x1="1134" y1="449.273" x2="1134" y2="213" stroke="black" stroke-width="3"/> 
  <line x1="1120" y1="198" x2="1120" y2="136.5" stroke="black" stroke-width="3"/> 
  <polygon points="1120,124.75 1130,141.75 1110,141.75"/> 
  <line x1="880.5" y1="264.833" x2="880.5" y2="203.333" stroke="black" stroke-width="3"/> 
  <rect x="40" y="284.5" width="493" height="169" rx="0" ry="0" fill="none" stroke="black" stroke-width="3"/> 
  <line x1="89" y1="190.5" x2="89" y2="145" stroke="black" stroke-width="3"/> 
  <line x1="532.515" y1="692.485" x2="532.515" y2="656.485" stroke="black" stroke-width="3"/> 
  <line x1="865.5" y1="198" x2="865.5" y2="136.5" stroke="black" stroke-width="3"/> 
  <polygon points="865.5,124.75 875.5,141.75 855.5,141.75"/> 
  <line x1="74.5" y1="115.5" x2="74.5" y2="70" stroke="black" stroke-width="3"/> 
  <image x="52.5" y="91" width="70" height="70" xlink:href="TENZOR_motor.svg" transform="rotate(270 0 0)">
    <title>20SAQ15AN001</title>
    <rt:dyn type="KKS" mode="constant" value="&quot;20SAQ15AN001&quot;"/> 
    <rt:dyn type="Operate" mode="constant" value="true"/> 
    <rt:dyn type="DeviceType" mode="constant" value="&quot;fan&quot;"/> 
  </image>
  <text x="272.5" y="207.667" fill="black" font-size="20" text-anchor="middle">20URS11R006</text>
  <image x="237.5" y="110" width="70" height="70" xlink:href="TENZOR_motor.svg">
    <title>20SAQ01AH001</title>
    <rt:dyn type="KKS" mode="constant" value="&quot;20SAQ01AH001&quot;"/> 
    <rt:dyn type="Operate" mode="constant" value="true"/> 
    <rt:dyn type="DeviceType" mode="constant" value="&quot;rect&quot;"/> 
  </image>
  <polygon points="88.5,186 98.5,203 78.5,203"/> 
  <polygon points="74.5,54 84.5,71 64.5,71"/> 
  <text x="272.5" y="411.667" fill="black" font-size="20" text-anchor="middle">20URS11R007</text>
  <image x="237.5" y="315" width="70" height="70" xlink:href="TENZOR_motor.svg">
    <title>20SAQ01AH003</title>
    <rt:dyn type="KKS" mode="constant" value="&quot;20SAQ01AH003&quot;"/> 
    <rt:dyn type="Operate" mode="constant" value="true"/> 
    <rt:dyn type="DeviceType" mode="constant" value="&quot;rect&quot;"/> 
  </image>
  <text x="147" y="662.667" fill="black" font-size="20" text-anchor="middle">20URS11R011</text>
  <image x="55.5" y="562.5" width="70" height="70" xlink:href="TENZOR_motor.svg">
    <title>20SAQ01AH004</title>
    <rt:dyn type="KKS" mode="constant" value="&quot;20SAQ01AH004&quot;"/> 
    <rt:dyn type="Operate" mode="constant" value="true"/> 
    <rt:dyn type="DeviceType" mode="constant" value="&quot;rect&quot;"/> 
  </image>
  <rect x="808.5" y="75.5" width="489" height="92.1818" rx="0" ry="0" fill="none" stroke="black" stroke-width="3"/> 
  <image x="844.5" y="172.5" width="70" height="70" xlink:href="TENZOR_motor.svg" transform="rotate(270 0 0)">
    <title>20SAQ10AN001</title>
    <rt:dyn type="KKS" mode="constant" value="&quot;20SAQ10AN001&quot;"/> 
    <rt:dyn type="Operate" mode="constant" value="true"/> 
    <rt:dyn type="DeviceType" mode="constant" value="&quot;fan&quot;"/> 
  </image>
  <image x="1098.5" y="178.5" width="70" height="70" xlink:href="TENZOR_motor.svg" transform="rotate(270 0 0)">
    <title>20SAQ10AN003</title>
    <rt:dyn type="KKS" mode="constant" value="&quot;20SAQ10AN003&quot;"/> 
    <rt:dyn type="Operate" mode="constant" value="true"/> 
    <rt:dyn type="DeviceType" mode="constant" value="&quot;fan&quot;"/> 
  </image>
  <image x="1185.5" y="178.5" width="70" height="70" xlink:href="TENZOR_motor.svg" transform="rotate(270 0 0)">
    <title>20SAQ10AN004</title>
    <rt:dyn type="KKS" mode="constant" value="&quot;20SAQ10AN004&quot;"/> 
    <rt:dyn type="Operate" mode="constant" value="true"/> 
    <rt:dyn type="DeviceType" mode="constant" value="&quot;fan&quot;"/> 
  </image>
  <text x="1044.47" y="108.591" fill="black" font-size="20" text-anchor="middle">20URS11R001</text>
  <rect x="642.5" y="288.5" width="150" height="75" rx="0" ry="0" fill="none" stroke="black" stroke-width="3"/> 
  <text x="718.5" y="331" fill="black" font-size="20" text-anchor="middle">20URS01R001</text>
  <line x1="731.5" y1="388.5" x2="731.5" y2="352.5" stroke="black" stroke-width="3"/> 
  <polygon points="731.5,374.5 741.5,391.5 721.5,391.5"/> 
  <polygon points="731.5,336.5 741.5,353.5 721.5,353.5"/> 
  <line x1="729.5" y1="263.5" x2="882.5" y2="263.227" stroke="black" stroke-width="3"/> 
  <polygon points="730.5,291.5 740.5,308.5 720.5,308.5"/> 
  <line x1="730.5" y1="298.5" x2="730.5" y2="262.5" stroke="black" stroke-width="3"/> 
  <rect x="806" y="289.5" width="150" height="75" rx="0" ry="0" fill="none" stroke="black" stroke-width="3"/> 
  <text x="881" y="331.5" fill="black" font-size="20" text-anchor="middle">20URS01R002</text>
  <line x1="867" y1="389.5" x2="867" y2="353.5" stroke="black" stroke-width="3"/> 
  <polygon points="867,375.5 877,392.5 857,392.5"/> 
  <polygon points="867,337.5 877,354.5 857,354.5"/> 
  <polygon points="867,292.5 877,309.5 857,309.5"/> 
  <line x1="867" y1="300.5" x2="867" y2="264.5" stroke="black" stroke-width="3"/> 
  <rect x="1178" y="287.5" width="150" height="75" rx="0" ry="0" fill="none" stroke="black" stroke-width="3"/> 
  <text x="1250" y="329.5" fill="black" font-size="20" text-anchor="middle">20URS01R008</text>
  <line x1="1250" y1="387.5" x2="1250" y2="351.5" stroke="black" stroke-width="3"/> 
  <polygon points="1250,373.5 1260,390.5 1240,390.5"/> 
  <polygon points="1250,335.5 1260,352.5 1240,352.5"/> 
  <polygon points="1250,290.5 1260,307.5 1240,307.5"/> 
  <line x1="1250" y1="299.5" x2="1250" y2="263.5" stroke="black" stroke-width="3"/> 
  <line x1="1220.5" y1="264.773" x2="1350.5" y2="264.5" stroke="black" stroke-width="3"/> 
  <line x1="1785" y1="155" x2="1785" y2="93" stroke="black" stroke-width="3"/> 
  <polygon points="1785.5,78 1795.5,95 1775.5,95"/> 
  <image x="1765" y="133.75" width="70" height="70" xlink:href="TENZOR_motor.svg" transform="rotate(270 0 0)">
    <title>20SAQ10AN002</title>
    <rt:dyn type="KKS" mode="constant" value="&quot;20SAQ10AN002&quot;"/> 
    <rt:dyn type="Operate" mode="constant" value="true"/> 
    <rt:dyn type="DeviceType" mode="constant" value="&quot;fan&quot;"/> 
  </image>
  <rect x="1542.5" y="243" width="150" height="75" rx="0" ry="0" fill="none" stroke="black" stroke-width="3"/> 
  <text x="1620.5" y="285" fill="black" font-size="20" text-anchor="middle">20URS01R003</text>
  <line x1="1630.5" y1="343" x2="1630.5" y2="307" stroke="black" stroke-width="3"/> 
  <polygon points="1630.5,329 1640.5,346 1620.5,346"/> 
  <polygon points="1630.5,291 1640.5,308 1620.5,308"/> 
  <line x1="1628.5" y1="218" x2="1800" y2="217.75" stroke="black" stroke-width="3"/> 
  <polygon points="1630.5,246 1640.5,263 1620.5,263"/> 
  <line x1="1630.5" y1="254" x2="1630.5" y2="218" stroke="black" stroke-width="3"/> 
  <rect x="1705" y="243" width="150" height="75" rx="0" ry="0" fill="none" stroke="black" stroke-width="3"/> 
  <text x="1777" y="286" fill="black" font-size="20" text-anchor="middle">20URS01R004</text>
  <line x1="1766" y1="344" x2="1766" y2="308" stroke="black" stroke-width="3"/> 
  <polygon points="1766,330 1776,347 1756,347"/> 
  <polygon points="1766,292 1776,309 1756,309"/> 
  <polygon points="1766,247 1776,264 1756,264"/> 
  <line x1="1766" y1="255" x2="1766" y2="219" stroke="black" stroke-width="3"/> 
  <rect x="1679" y="43" width="200" height="75" rx="0" ry="0" fill="none" stroke="black" stroke-width="3"/> 
  <text x="1779.5" y="73.5" fill="black" font-size="20" text-anchor="middle">20URS04R005</text>
  <rect x="1099" y="438.273" width="150" height="75" rx="0" ry="0" fill="none" stroke="black" stroke-width="3"/> 
  <text x="1174" y="480.273" fill="black" font-size="20" text-anchor="middle">20URS04R002</text>
  <line x1="1152" y1="538.273" x2="1152" y2="502.273" stroke="black" stroke-width="3"/> 
  <polygon points="1152,524.273 1162,541.273 1142,541.273"/> 
  <polygon points="1152,486.273 1162,503.273 1142,503.273"/> 
  <polygon points="1134,441.273 1144,458.273 1124,458.273"/> 
  <rect x="1289.5" y="439.273" width="150" height="75" rx="0" ry="0" fill="none" stroke="black" stroke-width="3"/> 
  <text x="1361.5" y="481.273" fill="black" font-size="20" text-anchor="middle">20URS04R008</text>
  <line x1="1350.5" y1="539.273" x2="1350.5" y2="503.273" stroke="black" stroke-width="3"/> 
  <polygon points="1350.5,525.273 1360.5,542.273 1340.5,542.273"/> 
  <polygon points="1350.5,487.273 1360.5,504.273 1340.5,504.273"/> 
  <polygon points="1350.5,442.273 1360.5,459.273 1340.5,459.273"/> 
  <line x1="1350.5" y1="450.273" x2="1349.5" y2="263.5" stroke="black" stroke-width="3"/> 
  <rect x="1705.5" y="373" width="150" height="75" rx="0" ry="0" fill="none" stroke="black" stroke-width="3"/> 
  <text x="1777.5" y="417" fill="black" font-size="20" text-anchor="middle">20URS04R007</text>
  <line x1="1750" y1="495" x2="1750" y2="438.75" stroke="black" stroke-width="3"/> 
  <polygon points="1765,622 1775,639 1755,639"/> 
  <polygon points="1750,423 1760,440 1740,440"/> 
  <rect x="1543.5" y="374" width="150" height="75" rx="0" ry="0" fill="none" stroke="black" stroke-width="3"/> 
  <text x="1617.5" y="416" fill="black" font-size="20" text-anchor="middle">20URS04R001</text>
  <rect x="781.5" y="403.5" width="300" height="129" rx="0" ry="0" fill="none" stroke="black" stroke-width="3"/> 
  <line x1="1006.5" y1="527.5" x2="1006.5" y2="345.5" stroke="black" stroke-width="3"/> 
  <polygon points="1006.5,510.5 1016.5,527.5 996.5,527.5"/> 
  <image x="970.5" y="449.5" width="70" height="45" xlink:href="TENZOR_pivot_valve.svg" transform="rotate(90 0 0)">
    <title>&quot;20SAQ11AA002&quot;</title>
    <rt:dyn type="KKS" mode="constant" value="&quot;20SAQ11AA002&quot;"/> 
    <rt:dyn type="Operate" mode="constant" value="true"/> 
  </image>
  <line x1="806.5" y1="428.773" x2="1006.5" y2="428.5" stroke="black" stroke-width="3"/> 
  <polygon points="193.5,54.5 203.5,71.5 183.5,71.5" transform="rotate(90 315 549.5)"/> 
  <image x="825.5" y="406" width="70" height="45" xlink:href="TENZOR_pivot_valve.svg">
    <title>20SAQ11AA001</title>
    <rt:dyn type="KKS" mode="constant" value="&quot;20SAQ11AA001&quot;"/> 
    <rt:dyn type="Operate" mode="constant" value="true"/> 
  </image>
  <line x1="807.5" y1="557.5" x2="807.5" y2="521.5" stroke="black" stroke-width="3"/> 
  <polygon points="807.5,545.5 817.5,562.5 797.5,562.5"/> 
  <polygon points="807.5,505.5 817.5,522.5 797.5,522.5"/> 
  <text x="903" y="516" fill="black" font-size="20" text-anchor="middle">20URS04R003</text>
  <image x="1731" y="551.5" width="70" height="45" xlink:href="TENZOR_pivot_valve.svg" transform="rotate(90 0 0)">
    <title>20SAQ08AA002</title>
    <rt:dyn type="KKS" mode="constant" value="&quot;20SAQ08AA002&quot;"/> 
    <rt:dyn type="Operate" mode="constant" value="true"/> 
  </image>
  <image x="1731" y="464" width="70" height="70" xlink:href="TENZOR_motor.svg" transform="rotate(270 0 0)">
    <title>20SAQ08AN002</title>
    <rt:dyn type="KKS" mode="constant" value="&quot;20SAQ08AN002&quot;"/> 
    <rt:dyn type="Operate" mode="constant" value="true"/> 
    <rt:dyn type="DeviceType" mode="constant" value="&quot;fan&quot;"/> 
  </image>
  <line x1="1614" y1="496.763" x2="1614" y2="438.25" stroke="black" stroke-width="3"/> 
  <polygon points="1630.5,622 1640.5,639 1620.5,639"/> 
  <polygon points="1614,426.75 1624,443.75 1604,443.75"/> 
  <image x="1595" y="551.5" width="70" height="45" xlink:href="TENZOR_pivot_valve.svg" transform="rotate(90 0 0)">
    <title>20SAQ08AA001</title>
    <rt:dyn type="KKS" mode="constant" value="&quot;20SAQ08AA001&quot;"/> 
    <rt:dyn type="Operate" mode="constant" value="true"/> 
  </image>
  <image x="1594" y="464" width="70" height="70" xlink:href="TENZOR_motor.svg" transform="rotate(270 0 0)">
    <title>20SAQ08AN001</title>
    <rt:dyn type="KKS" mode="constant" value="&quot;20SAQ08AN001&quot;"/> 
    <rt:dyn type="Operate" mode="constant" value="true"/> 
    <rt:dyn type="DeviceType" mode="constant" value="&quot;fan&quot;"/> 
  </image>
  <text x="1288" y="209" fill="black" font-size="15" text-anchor="middle">20SAQ<tspan x="1288" dy="15">10AN004</tspan>
  </text>
  <text x="1053.56" y="206.303" fill="black" font-size="15" text-anchor="middle">20SAQ<tspan x="1053.56" dy="15">10AN003</tspan>
  </text>
  <text x="809" y="208" fill="black" font-size="15" text-anchor="middle">20SAQ<tspan x="809" dy="15">10AN001</tspan>
  </text>
  <text x="1081.5" y="372.97" fill="black" font-size="15" text-anchor="middle">20SAQ<tspan x="1081.5" dy="15">11AN001</tspan>
  </text>
  <text x="860.5" y="467" fill="black" font-size="15" text-anchor="middle">20SAQ<tspan x="860.5" dy="15">11AA001</tspan>
  </text>
  <text x="949.5" y="471" fill="black" font-size="15" text-anchor="middle">20SAQ<tspan x="949.5" dy="15">11AA002</tspan>
  </text>
  <text x="1707.5" y="163.5" fill="black" font-size="15" text-anchor="middle">20SAQ<tspan x="1707.5" dy="15">10AN002</tspan>
  </text>
  <text x="1561.5" y="498.5" fill="black" font-size="15" text-anchor="middle">20SAQ<tspan x="1561.5" dy="15">08AN001</tspan>
  </text>
  <text x="1569.5" y="566.5" fill="black" font-size="15" text-anchor="middle">20SAQ<tspan x="1569.5" dy="15">08AA001</tspan>
  </text>
  <text x="1838.5" y="496.5" fill="black" font-size="15" text-anchor="middle">20SAQ<tspan x="1838.5" dy="15">08AN002</tspan>
  </text>
  <text x="1829.5" y="566.5" fill="black" font-size="15" text-anchor="middle">20SAQ<tspan x="1829.5" dy="15">08AA002</tspan>
  </text>
  <rect x="401.349" y="676.167" width="1148.5" height="198.5" rx="0" ry="0" fill="none" stroke="black" stroke-width="3"/> 
  <text x="443.667" y="712.53" fill="black" font-size="15" text-anchor="middle">20SAQ<tspan x="443.667" dy="15">09AN002</tspan>
  </text>
  <text x="536.379" y="713.561" fill="black" font-size="15" text-anchor="middle">20SAQ<tspan x="536.379" dy="15">09AN003</tspan>
  </text>
  <polygon points="441.667,681.454 451.667,698.454 431.667,698.454"/> 
  <line x1="441.667" y1="698.454" x2="441.667" y2="662.454" stroke="black" stroke-width="3"/> 
  <polygon points="532.515,682.485 542.515,699.485 522.515,699.485"/> 
  <polygon points="534.757,423.909 544.757,440.909 524.757,440.909" transform="rotate(180 592.757 549.409)"/> 
  <line x1="652" y1="803.667" x2="650.833" y2="666.333" stroke="black" stroke-width="3"/> 
  <image x="616.031" y="703.182" width="70" height="45" xlink:href="TENZOR_pivot_valve.svg" transform="rotate(90 0 0)">
    <title>20SAQ06AA001</title>
    <rt:dyn type="KKS" mode="constant" value="&quot;20SAQ06AA001&quot;"/> 
    <rt:dyn type="Operate" mode="constant" value="true"/> 
  </image>
  <image x="615.333" y="766" width="70" height="70" xlink:href="TENZOR_motor.svg" transform="rotate(90 0 0)">
    <title>20SAQ06AN001</title>
    <rt:dyn type="KKS" mode="constant" value="&quot;20SAQ06AN001&quot;"/> 
    <rt:dyn type="Operate" mode="constant" value="true"/> 
    <rt:dyn type="DeviceType" mode="constant" value="&quot;fan&quot;"/> 
  </image>
  <text x="597.727" y="742.045" fill="black" font-size="15" text-anchor="middle">20SAQ<tspan x="597.727" dy="15">06AA001</tspan>
  </text>
  <text x="584.576" y="793.848" fill="black" font-size="15" text-anchor="middle">20SAQ<tspan x="584.576" dy="15">06AN001</tspan>
  </text>
  <polygon points="382.636,423.818 392.636,440.818 372.636,440.818" transform="rotate(180 592.757 549.409)"/> 
  <line x1="804.121" y1="803.758" x2="802.954" y2="666.424" stroke="black" stroke-width="3"/> 
  <image x="768.152" y="703.273" width="70" height="45" xlink:href="TENZOR_pivot_valve.svg" transform="rotate(90 0 0)">
    <title>20SAQ06AA002</title>
    <rt:dyn type="KKS" mode="constant" value="&quot;20SAQ06AA002&quot;"/> 
    <rt:dyn type="Operate" mode="constant" value="true"/> 
  </image>
  <image x="767.454" y="766.091" width="70" height="70" xlink:href="TENZOR_motor.svg" transform="rotate(90 0 0)">
    <title>20SAQ06AN002</title>
    <rt:dyn type="KKS" mode="constant" value="&quot;20SAQ06AN002&quot;"/> 
    <rt:dyn type="Operate" mode="constant" value="true"/> 
    <rt:dyn type="DeviceType" mode="constant" value="&quot;fan&quot;"/> 
  </image>
  <text x="749.848" y="727.136" fill="black" font-size="15" text-anchor="middle">20SAQ<tspan x="749.848" dy="15">06AA002</tspan>
  </text>
  <text x="736.697" y="794.939" fill="black" font-size="15" text-anchor="middle">20SAQ<tspan x="736.697" dy="15">06AN002</tspan>
  </text>
  <polygon points="230.03,422.818 240.03,439.818 220.03,439.818" transform="rotate(180 592.757 549.409)"/> 
  <line x1="956.727" y1="804.758" x2="955.56" y2="667.424" stroke="black" stroke-width="3"/> 
  <image x="920.758" y="704.273" width="70" height="45" xlink:href="TENZOR_pivot_valve.svg" transform="rotate(90 0 0)">
    <title>20SAQ06AA003</title>
    <rt:dyn type="KKS" mode="constant" value="&quot;20SAQ06AA003&quot;"/> 
    <rt:dyn type="Operate" mode="constant" value="true"/> 
  </image>
  <image x="920.06" y="767.091" width="70" height="70" xlink:href="TENZOR_motor.svg" transform="rotate(90 0 0)">
    <title>20SAQ06AN003</title>
    <rt:dyn type="KKS" mode="constant" value="&quot;20SAQ06AN003&quot;"/> 
    <rt:dyn type="Operate" mode="constant" value="true"/> 
    <rt:dyn type="DeviceType" mode="constant" value="&quot;fan&quot;"/> 
  </image>
  <text x="902.454" y="728.136" fill="black" font-size="15" text-anchor="middle">20SAQ<tspan x="902.454" dy="15">06AA003</tspan>
  </text>
  <text x="889.303" y="795.939" fill="black" font-size="15" text-anchor="middle">20SAQ<tspan x="889.303" dy="15">06AN003</tspan>
  </text>
  <polygon points="78.03,423.818 88.03,440.818 68.03,440.818" transform="rotate(180 592.757 549.409)"/> 
  <line x1="1108.73" y1="803.758" x2="1107.56" y2="666.424" stroke="black" stroke-width="3"/> 
  <image x="1072.76" y="703.273" width="70" height="45" xlink:href="TENZOR_pivot_valve.svg" transform="rotate(90 0 0)">
    <title>20SAQ06AA004</title>
    <rt:dyn type="KKS" mode="constant" value="&quot;20SAQ06AA004&quot;"/> 
    <rt:dyn type="Operate" mode="constant" value="true"/> 
  </image>
  <image x="1072.06" y="766.091" width="70" height="70" xlink:href="TENZOR_motor.svg" transform="rotate(90 0 0)">
    <title>20SAQ06AN004</title>
    <rt:dyn type="KKS" mode="constant" value="&quot;20SAQ06AN004&quot;"/> 
    <rt:dyn type="Operate" mode="constant" value="true"/> 
    <rt:dyn type="DeviceType" mode="constant" value="&quot;fan&quot;"/> 
  </image>
  <text x="1054.45" y="727.136" fill="black" font-size="15" text-anchor="middle">20SAQ<tspan x="1054.45" dy="15">06AA004</tspan>
  </text>
  <text x="1041.3" y="794.939" fill="black" font-size="15" text-anchor="middle">20SAQ<tspan x="1041.3" dy="15">06AN004</tspan>
  </text>
  <text x="1278.8" y="718.652" fill="black" font-size="15" text-anchor="middle">20SAQ<tspan x="1278.8" dy="15">09AN001</tspan>
  </text>
  <polygon points="1276.8,684.576 1286.8,701.576 1266.8,701.576"/> 
  <line x1="1276.8" y1="692.576" x2="1276.8" y2="656.576" stroke="black" stroke-width="3"/> 
  <text x="1351.95" y="718.804" fill="black" font-size="15" text-anchor="middle">20SAQ<tspan x="1351.95" dy="15">09AN004</tspan>
  </text>
  <polygon points="1349.95,684.728 1359.95,701.728 1339.95,701.728"/> 
  <line x1="1349.95" y1="692.728" x2="1349.95" y2="656.728" stroke="black" stroke-width="3"/> 
  <text x="1425.61" y="718.273" fill="black" font-size="15" text-anchor="middle">20SAQ<tspan x="1425.61" dy="15">09AN005</tspan>
  </text>
  <polygon points="1424.95,684.728 1434.95,701.728 1414.95,701.728"/> 
  <line x1="1424.95" y1="692.728" x2="1424.95" y2="656.728" stroke="black" stroke-width="3"/> 
  <text x="1500.1" y="718.956" fill="black" font-size="15" text-anchor="middle">20SAQ<tspan x="1500.1" dy="15">09AN006</tspan>
  </text>
  <polygon points="1498.1,684.88 1508.1,701.88 1488.1,701.88"/> 
  <line x1="1498.1" y1="692.88" x2="1498.1" y2="656.88" stroke="black" stroke-width="3"/> 
  <text x="1415" y="846.97" fill="black" font-size="20" text-anchor="middle">20URS11R001</text>
  <text x="544.083" y="909.833" fill="black" font-size="15" text-anchor="start">20SAQ<tspan x="544.083" dy="15">03AN001</tspan>
  </text>
  <image x="710" y="875" width="70" height="70" xlink:href="TENZOR_motor.svg" transform="rotate(270 0 0)">
    <title>20SAQ03AN002</title>
    <rt:dyn type="KKS" mode="constant" value="&quot;20SAQ03AN002&quot;"/> 
    <rt:dyn type="Operate" mode="constant" value="true"/> 
    <rt:dyn type="DeviceType" mode="constant" value="&quot;fan&quot;"/> 
  </image>
  <text x="782" y="908.75" fill="black" font-size="15" text-anchor="start">20SAQ<tspan x="782" dy="15">03AN002</tspan>
  </text>
  <image x="1010" y="875" width="70" height="70" xlink:href="TENZOR_motor.svg" transform="rotate(270 0 0)">
    <title>20SAQ07AN001/002</title>
    <rt:dyn type="KKS" mode="constant" value="&quot;20SAQ07AN001/002&quot;"/> 
    <rt:dyn type="Operate" mode="constant" value="true"/> 
    <rt:dyn type="DeviceType" mode="constant" value="&quot;fan&quot;"/> 
  </image>
  <text x="1081.25" y="907.25" fill="black" font-size="15" text-anchor="start">20SAQ<tspan x="1081.25" dy="15">07AN001/002</tspan>
  </text>
  <image x="1280" y="875" width="70" height="70" xlink:href="TENZOR_motor.svg" transform="rotate(270 0 0)">
    <title>&quot;20SAQ07AN003/004&quot;</title>
    <rt:dyn type="KKS" mode="constant" value="&quot;20SAQ07AN003/004&quot;"/> 
    <rt:dyn type="Operate" mode="constant" value="true"/> 
    <rt:dyn type="DeviceType" mode="constant" value="&quot;fan&quot;"/> 
  </image>
  <text x="1350" y="907" fill="black" font-size="15" text-anchor="start">20SAQ<tspan x="1350" dy="15">07AN003/004</tspan>
  </text>
  <line x1="89" y1="389.5" x2="89" y2="344" stroke="black" stroke-width="3"/> 
  <line x1="74.5" y1="314.5" x2="74.5" y2="269" stroke="black" stroke-width="3"/> 
  <image x="52.5" y="290" width="70" height="70" xlink:href="TENZOR_motor.svg" transform="rotate(270 0 0)">
    <title>20SAQ15AN002</title>
    <rt:dyn type="KKS" mode="constant" value="&quot;20SAQ15AN002&quot;"/> 
    <rt:dyn type="Operate" mode="constant" value="true"/> 
    <rt:dyn type="DeviceType" mode="constant" value="&quot;fan&quot;"/> 
  </image>
  <polygon points="88.5,385 98.5,402 78.5,402"/> 
  <polygon points="74.5,253 84.5,270 64.5,270"/> 
  <rect x="39.5" y="77" width="493" height="169" rx="0" ry="0" fill="none" stroke="black" stroke-width="3"/> 
  <text x="164.5" y="120.5" fill="black" font-size="15" text-anchor="middle">20SAQ15<tspan x="164.5" dy="15">AN001</tspan>
  </text>
  <text x="164.5" y="318.5" fill="black" font-size="15" text-anchor="middle">20SAQ15<tspan x="164.5" dy="15">AN002</tspan>
  </text>
  <text x="358" y="138.5" fill="black" font-size="15" text-anchor="middle">20SAQ01<tspan x="358" dy="15">AH001</tspan>
  </text>
  <text x="357" y="347.5" fill="black" font-size="15" text-anchor="middle">20SAQ01<tspan x="357" dy="15">AH003</tspan>
  </text>
  <image x="339" y="295" width="181.818" height="24.2424" xlink:href="bitwise_tablo_4bits.svg">
    <title>20SAQ15AN002</title>
    <rt:dyn type="PointID_1" mode="constant" value="&quot;20SAQ15AN002_M0 0&quot;"/> 
    <rt:dyn type="PointID_2" mode="constant" value="&quot;20SAQ15AN002_M0 1&quot;"/> 
    <rt:dyn type="PointID_3" mode="constant" value="&quot;20SAQ15AN002_M0 2&quot;"/> 
    <rt:dyn type="PointID_4" mode="constant" value="&quot;20SAQ15AN002_M0 3&quot;"/> 
    <rt:dyn type="Text_1000" mode="constant" value="&quot;ÐÅÇÅÐÂ&quot;"/> 
    <rt:dyn type="Text_0001" mode="constant" value="&quot;ÐÀÁÎ×ÈÉ&quot;"/> 
    <rt:dyn type="Text_0010" mode="constant" value="&quot;ÐÅÇÅÐÂ&quot;"/> 
    <rt:dyn type="Text_0100" mode="constant" value="&quot;ÐÅÇÅÐÂ&quot;"/> 
    <rt:dyn type="Text_0011" mode="constant" value="&quot;&quot;"/> 
    <rt:dyn type="Text_0101" mode="constant" value="&quot;&quot;"/> 
    <rt:dyn type="Text_0110" mode="constant" value="&quot;&quot;"/> 
    <rt:dyn type="Text_0111" mode="constant" value="&quot;&quot;"/> 
    <rt:dyn type="Text_1001" mode="constant" value="&quot;&quot;"/> 
    <rt:dyn type="Text_1010" mode="constant" value="&quot;&quot;"/> 
    <rt:dyn type="Text_1011" mode="constant" value="&quot;&quot;"/> 
    <rt:dyn type="Text_1100" mode="constant" value="&quot;&quot;"/> 
    <rt:dyn type="Text_1101" mode="constant" value="&quot;&quot;"/> 
    <rt:dyn type="Text_1110" mode="constant" value="&quot;&quot;"/> 
    <rt:dyn type="Text_1111" mode="constant" value="&quot;&quot;"/> 
    <rt:dyn type="Text_0000" mode="constant" value="&quot;&quot;"/> 
    <rt:dyn type="Color_0000" mode="constant" value="&quot;Col_BGSand&quot;"/> 
    <rt:dyn type="Color_0010" mode="constant" value="&quot;Col_Grey3&quot;"/> 
    <rt:dyn type="Color_0001" mode="constant" value="&quot;Col_Green&quot;"/> 
    <rt:dyn type="Color_1000" mode="constant" value="&quot;Col_Grey3&quot;"/> 
    <rt:dyn type="Color_0100" mode="constant" value="&quot;Col_Grey3&quot;"/> 
  </image>
  <image x="340" y="85" width="181.818" height="24.2424" xlink:href="bitwise_tablo_4bits.svg">
    <title>20SAQ15AN001</title>
    <rt:dyn type="PointID_1" mode="constant" value="&quot;20SAQ15AN001_M0 0&quot;"/> 
    <rt:dyn type="PointID_2" mode="constant" value="&quot;20SAQ15AN001_M0 1&quot;"/> 
    <rt:dyn type="PointID_3" mode="constant" value="&quot;20SAQ15AN001_M0 2&quot;"/> 
    <rt:dyn type="PointID_4" mode="constant" value="&quot;20SAQ15AN001_M0 3&quot;"/> 
    <rt:dyn type="Text_1000" mode="constant" value="&quot;ÐÅÇÅÐÂ&quot;"/> 
    <rt:dyn type="Text_0001" mode="constant" value="&quot;ÐÀÁÎ×ÈÉ&quot;"/> 
    <rt:dyn type="Text_0010" mode="constant" value="&quot;ÐÅÇÅÐÂ&quot;"/> 
    <rt:dyn type="Text_0100" mode="constant" value="&quot;ÐÅÇÅÐÂ&quot;"/> 
    <rt:dyn type="Text_0011" mode="constant" value="&quot;&quot;"/> 
    <rt:dyn type="Text_0101" mode="constant" value="&quot;&quot;"/> 
    <rt:dyn type="Text_0110" mode="constant" value="&quot;&quot;"/> 
    <rt:dyn type="Text_0111" mode="constant" value="&quot;&quot;"/> 
    <rt:dyn type="Text_1001" mode="constant" value="&quot;&quot;"/> 
    <rt:dyn type="Text_1010" mode="constant" value="&quot;&quot;"/> 
    <rt:dyn type="Text_1011" mode="constant" value="&quot;&quot;"/> 
    <rt:dyn type="Text_1100" mode="constant" value="&quot;&quot;"/> 
    <rt:dyn type="Text_1101" mode="constant" value="&quot;&quot;"/> 
    <rt:dyn type="Text_1110" mode="constant" value="&quot;&quot;"/> 
    <rt:dyn type="Text_1111" mode="constant" value="&quot;&quot;"/> 
    <rt:dyn type="Text_0000" mode="constant" value="&quot;&quot;"/> 
    <rt:dyn type="Color_0000" mode="constant" value="&quot;Col_BGSand&quot;"/> 
    <rt:dyn type="Color_0010" mode="constant" value="&quot;Col_Grey3&quot;"/> 
    <rt:dyn type="Color_0001" mode="constant" value="&quot;Col_Green&quot;"/> 
    <rt:dyn type="Color_1000" mode="constant" value="&quot;Col_Grey3&quot;"/> 
    <rt:dyn type="Color_0100" mode="constant" value="&quot;Col_Grey3&quot;"/> 
  </image>
  <text x="98" y="506.5" fill="black" font-size="15" text-anchor="middle">20SAQ02<tspan x="98" dy="15">AN001</tspan>
  </text>
  <text x="167" y="597.5" fill="black" font-size="15" text-anchor="middle">20SAQ01<tspan x="167" dy="15">AH004</tspan>
  </text>
  <rect x="40.5" y="543.5" width="291.5" height="164.5" rx="0" ry="0" fill="none" stroke="black" stroke-width="3"/> 
  <image x="140" y="550" width="181.818" height="24.2424" xlink:href="bitwise_tablo_4bits.svg">
    <title>20SAQ01AH004</title>
    <rt:dyn type="PointID_1" mode="constant" value="&quot;20SAQ01AH004_M0 0&quot;"/> 
    <rt:dyn type="PointID_2" mode="constant" value="&quot;20SAQ01AH004_M0 1&quot;"/> 
    <rt:dyn type="PointID_3" mode="constant" value="&quot;20SAQ01AH004_M0 2&quot;"/> 
    <rt:dyn type="PointID_4" mode="constant" value="&quot;20SAQ01AH004_M0 3&quot;"/> 
    <rt:dyn type="Text_1000" mode="constant" value="&quot;ÐÅÇÅÐÂ&quot;"/> 
    <rt:dyn type="Text_0001" mode="constant" value="&quot;ÐÀÁÎ×ÈÉ&quot;"/> 
    <rt:dyn type="Text_0010" mode="constant" value="&quot;ÐÅÇÅÐÂ&quot;"/> 
    <rt:dyn type="Text_0100" mode="constant" value="&quot;ÐÅÇÅÐÂ&quot;"/> 
    <rt:dyn type="Text_0011" mode="constant" value="&quot;&quot;"/> 
    <rt:dyn type="Text_0101" mode="constant" value="&quot;&quot;"/> 
    <rt:dyn type="Text_0110" mode="constant" value="&quot;&quot;"/> 
    <rt:dyn type="Text_0111" mode="constant" value="&quot;&quot;"/> 
    <rt:dyn type="Text_1001" mode="constant" value="&quot;&quot;"/> 
    <rt:dyn type="Text_1010" mode="constant" value="&quot;&quot;"/> 
    <rt:dyn type="Text_1011" mode="constant" value="&quot;&quot;"/> 
    <rt:dyn type="Text_1100" mode="constant" value="&quot;&quot;"/> 
    <rt:dyn type="Text_1101" mode="constant" value="&quot;&quot;"/> 
    <rt:dyn type="Text_1110" mode="constant" value="&quot;&quot;"/> 
    <rt:dyn type="Text_1111" mode="constant" value="&quot;&quot;"/> 
    <rt:dyn type="Text_0000" mode="constant" value="&quot;&quot;"/> 
    <rt:dyn type="Color_0000" mode="constant" value="&quot;Col_BGSand&quot;"/> 
    <rt:dyn type="Color_0010" mode="constant" value="&quot;Col_Grey3&quot;"/> 
    <rt:dyn type="Color_0001" mode="constant" value="&quot;Col_Green&quot;"/> 
    <rt:dyn type="Color_1000" mode="constant" value="&quot;Col_Grey3&quot;"/> 
    <rt:dyn type="Color_0100" mode="constant" value="&quot;Col_Grey3&quot;"/> 
  </image>
  <image x="436" y="934" width="25" height="25" xlink:href="bin_indicator.svg">
    <title>20SAQ03AA002_XB02</title>
    <rt:dyn type="PointID" mode="constant" value="&quot;20SAQ03AA002_XB02&quot;"/> 
    <rt:dyn type="Col_ON" mode="constant" value="&quot;Col_Green&quot;"/> 
    <rt:dyn type="Col_OFF" mode="constant" value="&quot;Col_Red&quot;"/> 
  </image>
  <text x="450" y="974.167" fill="black" font-size="15" text-anchor="middle">20SAQ03AA002<tspan x="450" dy="15">íå çàêðûò</tspan>
  </text>
  <image x="473" y="875" width="70" height="70" xlink:href="TENZOR_motor.svg" transform="rotate(270 0 0)">
    <title>20SAQ03AN001</title>
    <rt:dyn type="KKS" mode="constant" value="&quot;20SAQ03AN001&quot;"/> 
    <rt:dyn type="Operate" mode="constant" value="true"/> 
    <rt:dyn type="DeviceType" mode="constant" value="&quot;fan&quot;"/> 
  </image>
  <image x="669.625" y="932" width="25" height="25" xlink:href="bin_indicator.svg">
    <title>20SAQ03AA004_XB02</title>
    <rt:dyn type="PointID" mode="constant" value="&quot;20SAQ03AA004_XB02&quot;"/> 
    <rt:dyn type="Col_ON" mode="constant" value="&quot;Col_Green&quot;"/> 
    <rt:dyn type="Col_OFF" mode="constant" value="&quot;Col_Red&quot;"/> 
  </image>
  <text x="683.625" y="972.167" fill="black" font-size="15" text-anchor="middle">20SAQ03AA004<tspan x="683.625" dy="15">íå çàêðûò</tspan>
  </text>
  <image x="970.625" y="932.25" width="25" height="25" xlink:href="bin_indicator.svg">
    <title>20SAQ07AA002_XB02</title>
    <rt:dyn type="PointID" mode="constant" value="&quot;20SAQ07AA002_XB02&quot;"/> 
    <rt:dyn type="Col_ON" mode="constant" value="&quot;Col_Green&quot;"/> 
    <rt:dyn type="Col_OFF" mode="constant" value="&quot;Col_Red&quot;"/> 
  </image>
  <text x="984.625" y="972.417" fill="black" font-size="15" text-anchor="middle">20SAQ07AA002<tspan x="984.625" dy="15">íå çàêðûò</tspan>
  </text>
  <image x="1239.88" y="932.25" width="25" height="25" xlink:href="bin_indicator.svg">
    <title>20SAQ07AA008_XB02</title>
    <rt:dyn type="PointID" mode="constant" value="&quot;20SAQ07AA008_XB02&quot;"/> 
    <rt:dyn type="Col_ON" mode="constant" value="&quot;Col_Green&quot;"/> 
    <rt:dyn type="Col_OFF" mode="constant" value="&quot;Col_Red&quot;"/> 
  </image>
  <text x="1253.88" y="972.417" fill="black" font-size="15" text-anchor="middle">20SAQ07AA008<tspan x="1253.88" dy="15">íå çàêðûò</tspan>
  </text>
  <text x="25" y="25" fill="black" font-size="15" font-weight="700" text-anchor="start">20R006_21R007_R011_R001_20CXV99</text>
  <text x="25" y="50" fill="black" font-size="15" font-weight="700" text-anchor="start">20URS 20CXV99</text>
  <text x="825" y="33" fill="black" font-size="30" font-weight="700">Ñèñòåìû çä. 20URS</text>
  <image x="185" y="213" width="175" height="25" xlink:href="DS_ana_tenzor.svg">
    <title>&quot;20SAQ01CT001&quot;</title>
    <rt:dyn type="FKKS" mode="constant" value="&quot;20SAQ01CT001&quot;"/> 
    <rt:dyn type="FillEntireFrame" mode="constant" value="false"/> 
    <rt:dyn type="ShowGoodColor" mode="constant" value="true"/> 
    <rt:dyn type="X" mode="constant" value="&quot;T&quot;"/> 
    <rt:dyn type="ShowEU" mode="constant" value="true"/> 
  </image>
  <image x="185" y="417" width="175" height="25" xlink:href="DS_ana_tenzor.svg">
    <title>&quot;20SAQ01CT002&quot;</title>
    <rt:dyn type="FKKS" mode="constant" value="&quot;20SAQ01CT002&quot;"/> 
    <rt:dyn type="FillEntireFrame" mode="constant" value="false"/> 
    <rt:dyn type="ShowGoodColor" mode="constant" value="true"/> 
    <rt:dyn type="X" mode="constant" value="&quot;T&quot;"/> 
    <rt:dyn type="ShowEU" mode="constant" value="true"/> 
  </image>
  <image x="58" y="672" width="175" height="25" xlink:href="DS_ana_tenzor.svg">
    <title>&quot;20SAQ01CT003&quot;</title>
    <rt:dyn type="FKKS" mode="constant" value="&quot;20SAQ01CT003&quot;"/> 
    <rt:dyn type="FillEntireFrame" mode="constant" value="false"/> 
    <rt:dyn type="ShowGoodColor" mode="constant" value="true"/> 
    <rt:dyn type="X" mode="constant" value="&quot;T&quot;"/> 
    <rt:dyn type="ShowEU" mode="constant" value="true"/> 
  </image>
  <image x="1167" y="798" width="175" height="25" xlink:href="DS_ana_tenzor.svg">
    <title>&quot;20SAQ06CT001&quot;</title>
    <rt:dyn type="FKKS" mode="constant" value="&quot;20SAQ06CT001&quot;"/> 
    <rt:dyn type="FillEntireFrame" mode="constant" value="false"/> 
    <rt:dyn type="ShowGoodColor" mode="constant" value="true"/> 
    <rt:dyn type="X" mode="constant" value="&quot;T&quot;"/> 
    <rt:dyn type="ShowEU" mode="constant" value="true"/> 
  </image>
  <image x="62.5" y="420" width="70" height="70" xlink:href="TENZOR_motor.svg" transform="rotate(270 0 0)">
    <title>20SAQ02AN001</title>
    <rt:dyn type="KKS" mode="constant" value="&quot;20SAQ02AN001&quot;"/> 
    <rt:dyn type="Operate" mode="constant" value="true"/> 
    <rt:dyn type="DeviceType" mode="constant" value="&quot;fan&quot;"/> 
  </image>
  <image x="971.5" y="334.5" width="70" height="70" xlink:href="TENZOR_motor.svg" transform="rotate(270 0 0)">
    <title>20SAQ11AN001</title>
    <rt:dyn type="KKS" mode="constant" value="&quot;20SAQ11AN001&quot;"/> 
    <rt:dyn type="Operate" mode="constant" value="true"/> 
    <rt:dyn type="DeviceType" mode="constant" value="&quot;fan&quot;"/> 
  </image>
  <polygon points="991.5,288.75 1001.5,305.75 981.5,305.75"/> 
  <line x1="430" y1="627.25" x2="430" y2="565.75" stroke="black" stroke-width="3"/> 
  <polygon points="430,554 440,571 420,571"/> 
  <image x="409" y="601.75" width="70" height="70" xlink:href="TENZOR_motor.svg" transform="rotate(270 0 0)">
    <title>20SAQ09AN002</title>
    <rt:dyn type="KKS" mode="constant" value="&quot;20SAQ09AN002&quot;"/> 
    <rt:dyn type="Operate" mode="constant" value="true"/> 
    <rt:dyn type="DeviceType" mode="constant" value="&quot;fan&quot;"/> 
  </image>
  <line x1="519" y1="626.25" x2="519" y2="564.75" stroke="black" stroke-width="3"/> 
  <polygon points="519,553 529,570 509,570"/> 
  <image x="498" y="601.75" width="70" height="70" xlink:href="TENZOR_motor.svg" transform="rotate(270 0 0)">
    <title>20SAQ09AN003</title>
    <rt:dyn type="KKS" mode="constant" value="&quot;20SAQ09AN003&quot;"/> 
    <rt:dyn type="Operate" mode="constant" value="true"/> 
    <rt:dyn type="DeviceType" mode="constant" value="&quot;fan&quot;"/> 
  </image>
  <line x1="1410" y1="628.25" x2="1410" y2="566.75" stroke="black" stroke-width="3"/> 
  <polygon points="1410,555 1420,572 1400,572"/> 
  <image x="1389" y="602.75" width="70" height="70" xlink:href="TENZOR_motor.svg" transform="rotate(270 0 0)">
    <title>20SAQ09AN005</title>
    <rt:dyn type="KKS" mode="constant" value="&quot;20SAQ09AN005&quot;"/> 
    <rt:dyn type="Operate" mode="constant" value="true"/> 
    <rt:dyn type="DeviceType" mode="constant" value="&quot;fan&quot;"/> 
  </image>
  <line x1="1484" y1="627.25" x2="1484" y2="565.75" stroke="black" stroke-width="3"/> 
  <polygon points="1484,554 1494,571 1474,571"/> 
  <image x="1463" y="602.75" width="70" height="70" xlink:href="TENZOR_motor.svg" transform="rotate(270 0 0)">
    <title>20SAQ09AN006</title>
    <rt:dyn type="KKS" mode="constant" value="&quot;20SAQ09AN006&quot;"/> 
    <rt:dyn type="Operate" mode="constant" value="true"/> 
    <rt:dyn type="DeviceType" mode="constant" value="&quot;fan&quot;"/> 
  </image>
  <line x1="1263" y1="627.25" x2="1263" y2="565.75" stroke="black" stroke-width="3"/> 
  <polygon points="1263,554 1273,571 1253,571"/> 
  <image x="1242" y="601.75" width="70" height="70" xlink:href="TENZOR_motor.svg" transform="rotate(270 0 0)">
    <title>20SAQ09AN001</title>
    <rt:dyn type="KKS" mode="constant" value="&quot;20SAQ09AN001&quot;"/> 
    <rt:dyn type="Operate" mode="constant" value="true"/> 
    <rt:dyn type="DeviceType" mode="constant" value="&quot;fan&quot;"/> 
  </image>
  <line x1="1337" y1="626.25" x2="1337" y2="564.75" stroke="black" stroke-width="3"/> 
  <polygon points="1337,553 1347,570 1327,570"/> 
  <image x="1316" y="601.75" width="70" height="70" xlink:href="TENZOR_motor.svg" transform="rotate(270 0 0)">
    <title>20SAQ09AN004</title>
    <rt:dyn type="KKS" mode="constant" value="&quot;20SAQ09AN004&quot;"/> 
    <rt:dyn type="Operate" mode="constant" value="true"/> 
    <rt:dyn type="DeviceType" mode="constant" value="&quot;fan&quot;"/> 
  </image>
  <rect x="40" y="751" width="300.061" height="59.9243" rx="0" ry="0" fill="none" stroke="black" stroke-width="2"/> 
  <image x="75.561" y="778.303" width="181.818" height="24.2424" xlink:href="bitwise_tablo_4bits.svg">
    <title>20USR11R001SM_XK92</title>
    <rt:dyn type="PointID_1" mode="constant" value="&quot;20USR11R001SM_XK92&quot;"/> 
    <rt:dyn type="Text_0000" mode="constant" value="&quot;ÀÂÒÎÌÀÒÈ×ÅÑÊÈÉ&quot;"/> 
    <rt:dyn type="Color_0001" mode="constant" value="&quot;Col_Green&quot;"/> 
    <rt:dyn type="Text_0001" mode="constant" value="&quot;ÄÈÑÒÀÍÖÈÎÍÍÛÉ&quot;"/> 
    <rt:dyn type="Color_0000" mode="constant" value="&quot;Col_Yellow&quot;"/> 
  </image>
  <image x="288.06" y="773.924" width="35" height="35" xlink:href="TENZOR_AH_mode.svg">
    <title>&quot;20USR11R001SM&quot;</title>
    <rt:dyn type="KKS" mode="constant" value="&quot;20USR11R001SM&quot;"/> 
    <rt:dyn type="Operate" mode="constant" value="&quot;true&quot;"/> 
  </image>
  <text x="59" y="769.5" font-size="15">Äèñò. ðåæèì â 20USR11R001</text>
  <rect x="40" y="825" width="300.061" height="59.9243" rx="0" ry="0" fill="none" stroke="black" stroke-width="2"/> 
  <image x="75.561" y="852.303" width="181.818" height="24.2424" xlink:href="bitwise_tablo_4bits.svg">
    <title>20USR11R006SM_XK92</title>
    <rt:dyn type="PointID_1" mode="constant" value="&quot;20USR11R006SM_XK92&quot;"/> 
    <rt:dyn type="Text_0000" mode="constant" value="&quot;ÀÂÒÎÌÀÒÈ×ÅÑÊÈÉ&quot;"/> 
    <rt:dyn type="Color_0001" mode="constant" value="&quot;Col_Green&quot;"/> 
    <rt:dyn type="Text_0001" mode="constant" value="&quot;ÄÈÑÒÀÍÖÈÎÍÍÛÉ&quot;"/> 
    <rt:dyn type="Color_0000" mode="constant" value="&quot;Col_Yellow&quot;"/> 
  </image>
  <image x="288.06" y="847.924" width="35" height="35" xlink:href="TENZOR_AH_mode.svg">
    <title>&quot;20USR11R006SM&quot;</title>
    <rt:dyn type="KKS" mode="constant" value="&quot;20USR11R006SM&quot;"/> 
    <rt:dyn type="Operate" mode="constant" value="&quot;true&quot;"/> 
  </image>
  <text x="59" y="843.5" font-size="15">Äèñò. ðåæèì â 20USR11R006</text>
  <rect x="40" y="900" width="300.061" height="59.9243" rx="0" ry="0" fill="none" stroke="black" stroke-width="2"/> 
  <image x="75.561" y="927.303" width="181.818" height="24.2424" xlink:href="bitwise_tablo_4bits.svg">
    <title>20USR11R007SM_XK92</title>
    <rt:dyn type="PointID_1" mode="constant" value="&quot;20USR11R007SM_XK92&quot;"/> 
    <rt:dyn type="Text_0000" mode="constant" value="&quot;ÀÂÒÎÌÀÒÈ×ÅÑÊÈÉ&quot;"/> 
    <rt:dyn type="Color_0001" mode="constant" value="&quot;Col_Green&quot;"/> 
    <rt:dyn type="Text_0001" mode="constant" value="&quot;ÄÈÑÒÀÍÖÈÎÍÍÛÉ&quot;"/> 
    <rt:dyn type="Color_0000" mode="constant" value="&quot;Col_Yellow&quot;"/> 
  </image>
  <image x="288.06" y="922.924" width="35" height="35" xlink:href="TENZOR_AH_mode.svg">
    <title>&quot;20USR11R007SM&quot;</title>
    <rt:dyn type="KKS" mode="constant" value="&quot;20USR11R007SM&quot;"/> 
    <rt:dyn type="Operate" mode="constant" value="&quot;true&quot;"/> 
  </image>
  <text x="59" y="918.5" font-size="15">Äèñò. ðåæèì â 20USR11R007</text>
  <rect x="1585" y="751" width="300.061" height="59.9243" rx="0" ry="0" fill="none" stroke="black" stroke-width="2"/> 
  <image x="1620.56" y="778.303" width="181.818" height="24.2424" xlink:href="bitwise_tablo_4bits.svg">
    <title>20USR11R011SM_XK92</title>
    <rt:dyn type="PointID_1" mode="constant" value="&quot;20USR11R011SM_XK92&quot;"/> 
    <rt:dyn type="Text_0000" mode="constant" value="&quot;ÀÂÒÎÌÀÒÈ×ÅÑÊÈÉ&quot;"/> 
    <rt:dyn type="Color_0001" mode="constant" value="&quot;Col_Green&quot;"/> 
    <rt:dyn type="Text_0001" mode="constant" value="&quot;ÄÈÑÒÀÍÖÈÎÍÍÛÉ&quot;"/> 
    <rt:dyn type="Color_0000" mode="constant" value="&quot;Col_Yellow&quot;"/> 
  </image>
  <image x="1833.06" y="773.924" width="35" height="35" xlink:href="TENZOR_AH_mode.svg">
    <title>&quot;20USR11R011SM&quot;</title>
    <rt:dyn type="KKS" mode="constant" value="&quot;20USR11R011SM&quot;"/> 
    <rt:dyn type="Operate" mode="constant" value="&quot;true&quot;"/> 
  </image>
  <text x="1604" y="769.5" font-size="15">Äèñò. ðåæèì â 20USR11R011</text>
  <rect x="1585" y="826" width="300.061" height="59.9243" rx="0" ry="0" fill="none" stroke="black" stroke-width="2"/> 
  <image x="1620.56" y="853.303" width="181.818" height="24.2424" xlink:href="bitwise_tablo_4bits.svg">
    <title>20USR04R001007SM_XK92</title>
    <rt:dyn type="PointID_1" mode="constant" value="&quot;20USR04R001007SM_XK92&quot;"/> 
    <rt:dyn type="Text_0000" mode="constant" value="&quot;ÀÂÒÎÌÀÒÈ×ÅÑÊÈÉ&quot;"/> 
    <rt:dyn type="Color_0001" mode="constant" value="&quot;Col_Green&quot;"/> 
    <rt:dyn type="Text_0001" mode="constant" value="&quot;ÄÈÑÒÀÍÖÈÎÍÍÛÉ&quot;"/> 
    <rt:dyn type="Color_0000" mode="constant" value="&quot;Col_Yellow&quot;"/> 
  </image>
  <image x="1833.06" y="848.924" width="35" height="35" xlink:href="TENZOR_AH_mode.svg">
    <title>&quot;20USR04R001007SM&quot;</title>
    <rt:dyn type="KKS" mode="constant" value="&quot;20USR04R001007SM&quot;"/> 
    <rt:dyn type="Operate" mode="constant" value="&quot;true&quot;"/> 
  </image>
  <text x="1604" y="844.5" font-size="15">Äèñò. ðåæèì â 20USR04R001 007</text>
  <rect x="1585" y="899" width="300.061" height="59.9243" rx="0" ry="0" fill="none" stroke="black" stroke-width="2"/> 
  <image x="1620.56" y="926.303" width="181.818" height="24.2424" xlink:href="bitwise_tablo_4bits.svg">
    <title>20CXV99SM_XK93</title>
    <rt:dyn type="PointID_1" mode="constant" value="&quot;20CXV99SM_XK93&quot;"/> 
    <rt:dyn type="Text_0000" mode="constant" value="&quot;ÂÊËÞ×ÅÍ&quot;"/> 
    <rt:dyn type="Color_0001" mode="constant" value="&quot;Col_Green&quot;"/> 
    <rt:dyn type="Text_0001" mode="constant" value="&quot;ÂÛÊËÞ×ÅÍ&quot;"/> 
    <rt:dyn type="Color_0000" mode="constant" value="&quot;Col_Yellow&quot;"/> 
  </image>
  <image x="1833.06" y="921.924" width="35" height="35" xlink:href="TENZOR_AH_mode.svg">
    <title>&quot;20CXV99SM&quot;</title>
    <rt:dyn type="KKS" mode="constant" value="&quot;20CXV99SM&quot;"/> 
    <rt:dyn type="Operate" mode="constant" value="&quot;true&quot;"/> 
    <rt:dyn type="SIGNAL_H" mode="constant" value="&quot;XK93&quot;"/> 
  </image>
  <text x="1645" y="917.5" font-size="15">Ðåæèì óäàëåíèÿ ãàçîâ</text>
</svg>
