<?xml  version="1.0" encoding="windows-1251"?>
<svg color="Col_BGSand" xmlns="http://www.w3.org/2000/svg" xmlns:rt="http://www.rts.co.at/2001/XMLSchema/RtSvgPL" xmlns:xlink="http://www.w3.org/1999/xlink" xmlns:xsi="http://www.w3.org/2001/XMLSchema-instance" xsi:schemaLocation="http://www.w3.org/2000/svg C:\RTS\RtSvg\XML\SVG.xsd" viewBox="0 0 1920 1080" width="1920" height="1080" id="20sac29" fill="Col_Grey3">
  <title>Ñèñòåìà 20SAC29</title>
  <rt:model modelversion="7.2.0.24" comment="UMod all_20uja" revision="3"/> 
  <line x1="2042.5" y1="189.5" x2="2042.5" y2="273" stroke="black" stroke-width="3" transform="rotate(90 1581.5 305)"/> 
  <line x1="298" y1="433" x2="298" y2="433" stroke="black"/> 
  <line x1="344" y1="425" x2="342" y2="0"/> 
  <line x1="592.727" y1="690.909" x2="592.727" y2="690.909" stroke="black"/> 
  <line x1="749.091" y1="939.091" x2="749.091" y2="939.091" stroke="black"/> 
  <line x1="638.182" y1="881.818" x2="638.182" y2="881.818" stroke="black"/> 
  <line x1="214.545" y1="692.727" x2="214.545" y2="692.727" stroke="black"/> 
  <line x1="259.091" y1="771.818" x2="259.091" y2="771.818" stroke="black"/> 
  <line x1="195.455" y1="720" x2="195.455" y2="720" stroke="black"/> 
  <line x1="186.364" y1="713.636" x2="186.364" y2="713.636" stroke="black"/> 
  <line x1="191.818" y1="715.455" x2="191.818" y2="715.455" stroke="black"/> 
  <line x1="985.455" y1="149.091" x2="985.455" y2="149.091" stroke="black"/> 
  <line x1="1150" y1="365" x2="1150" y2="365" stroke="black"/> 
  <line x1="1274" y1="337" x2="1274" y2="337" stroke="black"/> 
  <line x1="1029" y1="375" x2="1029" y2="375" stroke="black"/> 
  <line x1="1215.33" y1="421.333" x2="1215.33" y2="421.333" stroke="black"/> 
  <line x1="1007" y1="314.75" x2="1007" y2="314.75" stroke="black"/> 
  <line x1="1027.27" y1="820" x2="1027.27" y2="820" stroke="black"/> 
  <line x1="675" y1="65" x2="675" y2="65" stroke="black"/> 
  <line x1="1468" y1="294" x2="1468" y2="294" stroke="black"/> 
  <line x1="1066.67" y1="766" x2="1066.67" y2="766" stroke="black"/> 
  <line x1="783.669" y1="851.456" x2="783.669" y2="851.456" stroke="black"/> 
  <line x1="410" y1="913" x2="410" y2="913" stroke="black"/> 
  <line x1="398" y1="872" x2="398" y2="872" stroke="black"/> 
  <line x1="841" y1="753" x2="841" y2="753" stroke="black"/> 
  <line x1="1396" y1="754" x2="1396" y2="754" stroke="black"/> 
  <line x1="1369" y1="798" x2="1369" y2="798" stroke="black"/> 
  <line x1="438" y1="1031" x2="438" y2="1031" stroke="black"/> 
  <line x1="419" y1="1033" x2="419" y2="1033" stroke="black"/> 
  <line x1="835" y1="706" x2="835" y2="706" stroke="black"/> 
  <line x1="906" y1="133" x2="906" y2="183" stroke="black" stroke-width="3"/> 
  <line x1="254.697" y1="145.454" x2="254.697" y2="145.454" stroke="black"/> 
  <line x1="366.818" y1="892.423" x2="366.818" y2="892.423" stroke="black"/> 
  <text x="25" y="25" fill="black" font-size="15" font-weight="700">20SAC29</text>
  <line x1="1215.33" y1="606" x2="1215.33" y2="606" stroke="black"/> 
  <line x1="1080" y1="433" x2="730" y2="433" stroke="black" stroke-width="3"/> 
  <g transform="rotate(270 1762.81 74.4803)">
    <polygon points="116.026,-57.3064 141.016,-57.3064 129.026,-82.306 129.026,-82.306" fill="black" stroke="black" stroke-width="1" transform="rotate(90 1279.17 367.814)"/> 
  </g>
  <line x1="731" y1="334" x2="731" y2="433" stroke="black" stroke-width="3"/> 
  <line x1="716" y1="183" x2="716" y2="333" stroke="black" stroke-width="3"/> 
  <image x="696" y="298" width="70" height="70" xlink:href="TENZOR_motor.svg" transform="rotate(270 0.00012207 0)">
    <title>20SAC29AN001</title>
    <rt:dyn type="DeviceType" mode="constant" value="&quot;fan&quot;"/> 
    <rt:dyn type="Operate" mode="constant" value="true"/> 
    <rt:dyn type="KKS" mode="constant" value="&quot;20SAC29AN001&quot;"/> 
  </image>
  <line x1="1066" y1="183" x2="716" y2="183" stroke="black" stroke-width="3"/> 
  <line x1="1081" y1="334" x2="1081" y2="433" stroke="black" stroke-width="3"/> 
  <line x1="1066" y1="183" x2="1066" y2="333" stroke="black" stroke-width="3"/> 
  <image x="1046" y="298" width="70" height="70" xlink:href="TENZOR_motor.svg" transform="rotate(270 0.00012207 0)">
    <title>20SAC29AN002</title>
    <rt:dyn type="DeviceType" mode="constant" value="&quot;fan&quot;"/> 
    <rt:dyn type="Operate" mode="constant" value="true"/> 
    <rt:dyn type="KKS" mode="constant" value="&quot;20SAC29AN002&quot;"/> 
  </image>
  <text x="656" y="333" fill="black" font-size="15" text-anchor="middle">20SAC29<tspan x="656" dy="15">AN001</tspan>
  </text>
  <text x="1156" y="333" fill="black" font-size="15" text-anchor="middle">20SAC29<tspan x="1156" dy="15">AN002</tspan>
  </text>
  <text x="106" y="107" fill="black" font-size="15" text-anchor="middle">20UBB36R017</text>
  <g transform="scale(0.765552 0.765552 609.241 429.584)">
    <rect x="716.536" y="170.926" width="66.8757" height="34.9577" rx="0" ry="0" fill="Col_BGSand" stroke="black"/> 
    <polygon points="752.456,171.096 717.346,205.704 748.196,205.453 782.616,171.105" fill="Col_Grey2" stroke="black"/> 
  </g>
  <g transform="scale(0.765552 0.765552 609.241 429.584)">
    <rect x="1171.11" y="172.797" width="66.8757" height="34.9577" rx="0" ry="0" fill="Col_BGSand" stroke="black"/> 
    <polygon points="1207.04,172.967 1171.93,207.575 1202.77,207.324 1237.19,172.976" fill="Col_Grey2" stroke="black"/> 
  </g>
  <image x="524.182" y="383.758" width="181.818" height="24.2424" xlink:href="bitwise_tablo_4bits.svg">
    <title>20SAC29AN001</title>
    <rt:dyn type="PointID_1" mode="constant" value="&quot;20SAC29AN001_M0 0&quot;"/> 
    <rt:dyn type="PointID_2" mode="constant" value="&quot;20SAC29AN001_M0 1&quot;"/> 
    <rt:dyn type="PointID_3" mode="constant" value="&quot;20SAC29AN001_M0 2&quot;"/> 
    <rt:dyn type="PointID_4" mode="constant" value="&quot;20SAC29AN001_M0 3&quot;"/> 
    <rt:dyn type="Text_1000" mode="constant" value="&quot;ÐÅÇÅÐÂ&quot;"/> 
    <rt:dyn type="Text_0001" mode="constant" value="&quot;ÐÀÁÎ×ÈÉ&quot;"/> 
    <rt:dyn type="Text_0010" mode="constant" value="&quot;ÐÅÇÅÐÂ&quot;"/> 
    <rt:dyn type="Text_0100" mode="constant" value="&quot;ÐÅÇÅÐÂ&quot;"/> 
    <rt:dyn type="Text_0011" mode="constant" value="&quot;&quot;"/> 
    <rt:dyn type="Text_0101" mode="constant" value="&quot;&quot;"/> 
    <rt:dyn type="Text_0110" mode="constant" value="&quot;&quot;"/> 
    <rt:dyn type="Text_0111" mode="constant" value="&quot;&quot;"/> 
    <rt:dyn type="Text_1001" mode="constant" value="&quot;&quot;"/> 
    <rt:dyn type="Text_1010" mode="constant" value="&quot;&quot;"/> 
    <rt:dyn type="Text_1011" mode="constant" value="&quot;&quot;"/> 
    <rt:dyn type="Text_1100" mode="constant" value="&quot;&quot;"/> 
    <rt:dyn type="Text_1101" mode="constant" value="&quot;&quot;"/> 
    <rt:dyn type="Text_1110" mode="constant" value="&quot;&quot;"/> 
    <rt:dyn type="Text_1111" mode="constant" value="&quot;&quot;"/> 
    <rt:dyn type="Text_0000" mode="constant" value="&quot;&quot;"/> 
    <rt:dyn type="Color_0000" mode="constant" value="&quot;Col_BGSand&quot;"/> 
    <rt:dyn type="Color_0010" mode="constant" value="&quot;Col_Grey3&quot;"/> 
    <rt:dyn type="Color_0001" mode="constant" value="&quot;Col_Green&quot;"/> 
    <rt:dyn type="Color_1000" mode="constant" value="&quot;Col_Grey3&quot;"/> 
    <rt:dyn type="Color_0100" mode="constant" value="&quot;Col_Grey3&quot;"/> 
  </image>
  <image x="1106" y="383.758" width="181.818" height="24.2424" xlink:href="bitwise_tablo_4bits.svg">
    <title>20SAC29AN002</title>
    <rt:dyn type="PointID_1" mode="constant" value="&quot;20SAC29AN002_M0 0&quot;"/> 
    <rt:dyn type="PointID_2" mode="constant" value="&quot;20SAC29AN002_M0 1&quot;"/> 
    <rt:dyn type="PointID_3" mode="constant" value="&quot;20SAC29AN002_M0 2&quot;"/> 
    <rt:dyn type="PointID_4" mode="constant" value="&quot;20SAC29AN002_M0 3&quot;"/> 
    <rt:dyn type="Text_1000" mode="constant" value="&quot;ÐÅÇÅÐÂ&quot;"/> 
    <rt:dyn type="Text_0001" mode="constant" value="&quot;ÐÀÁÎ×ÈÉ&quot;"/> 
    <rt:dyn type="Text_0010" mode="constant" value="&quot;ÐÅÇÅÐÂ&quot;"/> 
    <rt:dyn type="Text_0100" mode="constant" value="&quot;ÐÅÇÅÐÂ&quot;"/> 
    <rt:dyn type="Text_0011" mode="constant" value="&quot;&quot;"/> 
    <rt:dyn type="Text_0101" mode="constant" value="&quot;&quot;"/> 
    <rt:dyn type="Text_0110" mode="constant" value="&quot;&quot;"/> 
    <rt:dyn type="Text_0111" mode="constant" value="&quot;&quot;"/> 
    <rt:dyn type="Text_1001" mode="constant" value="&quot;&quot;"/> 
    <rt:dyn type="Text_1010" mode="constant" value="&quot;&quot;"/> 
    <rt:dyn type="Text_1011" mode="constant" value="&quot;&quot;"/> 
    <rt:dyn type="Text_1100" mode="constant" value="&quot;&quot;"/> 
    <rt:dyn type="Text_1101" mode="constant" value="&quot;&quot;"/> 
    <rt:dyn type="Text_1110" mode="constant" value="&quot;&quot;"/> 
    <rt:dyn type="Text_1111" mode="constant" value="&quot;&quot;"/> 
    <rt:dyn type="Text_0000" mode="constant" value="&quot;&quot;"/> 
    <rt:dyn type="Color_0000" mode="constant" value="&quot;Col_BGSand&quot;"/> 
    <rt:dyn type="Color_0010" mode="constant" value="&quot;Col_Grey3&quot;"/> 
    <rt:dyn type="Color_0001" mode="constant" value="&quot;Col_Green&quot;"/> 
    <rt:dyn type="Color_1000" mode="constant" value="&quot;Col_Grey3&quot;"/> 
    <rt:dyn type="Color_0100" mode="constant" value="&quot;Col_Grey3&quot;"/> 
  </image>
  <line x1="1425.5" y1="82.5" x2="25" y2="82.5" stroke="black"/> 
  <line x1="1425.5" y1="147.5" x2="25" y2="147.5" stroke="black"/> 
  <line x1="26" y1="82" x2="26" y2="557" stroke="black"/> 
  <line x1="1425.5" y1="147.5" x2="25" y2="147.5" stroke="black"/> 
  <line x1="1425" y1="82" x2="1425" y2="557" stroke="black"/> 
  <g transform="rotate(270 1762.81 74.4803)">
    <polygon points="116.026,-57.3064 141.016,-57.3064 129.026,-82.306 129.026,-82.306" fill="black" stroke="black" stroke-width="1" transform="rotate(90 1279.17 367.814)"/> 
  </g>
  <g transform="rotate(90 596.392 242.309)">
    <g transform="rotate(270 1762.81 74.4803)">
      <polygon points="-318.714,-730.105 -293.724,-730.105 -305.714,-755.105 -305.714,-755.105" fill="black" stroke="black" stroke-width="1" transform="rotate(90 1279.17 367.814)"/> 
    </g>
    <line x1="471.083" y1="-613.799" x2="471.083" y2="-563.799" stroke="black" stroke-width="3"/> 
    <g transform="rotate(270 1762.81 74.4803)">
      <polygon points="-318.891,-804.105 -293.901,-804.105 -305.891,-829.105 -305.891,-829.105" fill="black" stroke="black" stroke-width="1" transform="rotate(90 1279.17 367.814)"/> 
    </g>
    <g transform="rotate(270 1762.81 74.4803)">
      <polygon points="-318.891,-804.105 -293.901,-804.105 -305.891,-829.105 -305.891,-829.105" fill="black" stroke="black" stroke-width="1" transform="rotate(90 1279.17 367.814)"/> 
    </g>
  </g>
  <line x1="1425.5" y1="148.5" x2="25" y2="148.5" stroke="black"/> 
  <g>
    <text x="106" y="447.5" fill="black" font-size="15" text-anchor="middle">20UBB40R008</text>
    <text x="106" y="472.5" fill="black" font-size="15" text-anchor="middle">20UBB40R009</text>
    <text x="106" y="497.5" fill="black" font-size="15" text-anchor="middle">20UBB36R030</text>
    <text x="106" y="522.5" fill="black" font-size="15" text-anchor="middle">20UBB31R009</text>
  </g>
  <g>
    <text x="225.75" y="447.5" fill="black" font-size="15" text-anchor="middle">20UBB31R016</text>
    <text x="225.75" y="472.5" fill="black" font-size="15" text-anchor="middle">20UBB31R013</text>
    <text x="225.75" y="497.5" fill="black" font-size="15" text-anchor="middle">20UBB26R013</text>
    <text x="225.75" y="522.5" fill="black" font-size="15" text-anchor="middle">20UBB31R009</text>
  </g>
  <g>
    <text x="346" y="447" fill="black" font-size="15" text-anchor="middle">22UBB26R013</text>
    <text x="346" y="472" fill="black" font-size="15" text-anchor="middle">22UBB26R002</text>
    <text x="346" y="497" fill="black" font-size="15" text-anchor="middle">20UBB26R018</text>
    <text x="346" y="522" fill="black" font-size="15" text-anchor="middle">22UBB22R016</text>
  </g>
  <text x="470.75" y="447" fill="black" font-size="15" text-anchor="middle">22UBB22R003</text>
  <text x="470.75" y="472" fill="black" font-size="15" text-anchor="middle">22UBB22R014</text>
  <text x="470.75" y="497" fill="black" font-size="15" text-anchor="middle">22UBB18R003</text>
  <text x="1513" y="137.5" fill="black" font-size="15" text-anchor="middle">Â àòìîñôåðó</text>
  <text x="106" y="173.5" fill="black" font-size="15" text-anchor="middle">20UBB36R016</text>
  <g transform="rotate(270 1762.81 74.4803)"/> 
  <g>
    <line x1="906.5" y1="433.5" x2="906.5" y2="483.5" stroke="black" stroke-width="3"/> 
    <g transform="rotate(90 798.74 61.9513)">
      <g transform="rotate(270 1762.81 74.4803)">
        <polygon points="430.325,-165.615 455.315,-165.615 443.325,-190.615 443.325,-190.615" fill="black" stroke="black" stroke-width="1" transform="rotate(90 1279.17 367.814)"/> 
      </g>
      <line x1="1220.12" y1="-47.3092" x2="1220.12" y2="2.6908" stroke="black" stroke-width="3"/> 
    </g>
  </g>
  <line x1="1425" y1="557" x2="26" y2="557" stroke="black"/> 
  <line x1="907" y1="631" x2="907" y2="681" stroke="black" stroke-width="3"/> 
  <line x1="1081" y1="931" x2="731" y2="931" stroke="black" stroke-width="3"/> 
  <g transform="rotate(270 1762.81 74.4803)">
    <polygon points="117.026,440.694 142.016,440.694 130.026,415.694 130.026,415.694" fill="black" stroke="black" stroke-width="1" transform="rotate(90 1279.17 367.814)"/> 
  </g>
  <line x1="732" y1="832" x2="732" y2="931" stroke="black" stroke-width="3"/> 
  <line x1="717" y1="681" x2="717" y2="831" stroke="black" stroke-width="3"/> 
  <image x="697" y="796" width="70" height="70" xlink:href="TENZOR_motor.svg" transform="rotate(270 0.00012207 0)">
    <title>20SAC29AN003</title>
    <rt:dyn type="DeviceType" mode="constant" value="&quot;fan&quot;"/> 
    <rt:dyn type="Operate" mode="constant" value="true"/> 
    <rt:dyn type="KKS" mode="constant" value="&quot;20SAC29AN003&quot;"/> 
  </image>
  <line x1="1067" y1="681" x2="717" y2="681" stroke="black" stroke-width="3"/> 
  <line x1="1082" y1="832" x2="1082" y2="931" stroke="black" stroke-width="3"/> 
  <line x1="1067" y1="681" x2="1067" y2="831" stroke="black" stroke-width="3"/> 
  <text x="657" y="831" fill="black" font-size="15" text-anchor="middle">20SAC29<tspan x="657" dy="15">AN003</tspan>
  </text>
  <text x="1157" y="831" fill="black" font-size="15" text-anchor="middle">20SAC29<tspan x="1157" dy="15">AN004</tspan>
  </text>
  <text x="107" y="605" fill="black" font-size="15" text-anchor="middle">20UBB36R020</text>
  <g transform="scale(0.765552 0.765552 609.241 429.584)">
    <rect x="717.843" y="821.438" width="66.8757" height="34.9577" rx="0" ry="0" fill="Col_BGSand" stroke="black"/> 
    <polygon points="753.762,821.608 718.652,856.216 749.502,855.965 783.922,821.617" fill="Col_Grey2" stroke="black"/> 
  </g>
  <g transform="scale(0.765552 0.765552 609.241 429.584)">
    <rect x="1172.42" y="823.309" width="66.8757" height="34.9577" rx="0" ry="0" fill="Col_BGSand" stroke="black"/> 
    <polygon points="1208.35,823.479 1173.24,858.087 1204.08,857.836 1238.5,823.488" fill="Col_Grey2" stroke="black"/> 
  </g>
  <image x="525.182" y="881.758" width="181.818" height="24.2424" xlink:href="bitwise_tablo_4bits.svg">
    <title>20SAC29AN003</title>
    <rt:dyn type="PointID_1" mode="constant" value="&quot;20SAC29AN003_M0 0&quot;"/> 
    <rt:dyn type="PointID_2" mode="constant" value="&quot;20SAC29AN003_M0 1&quot;"/> 
    <rt:dyn type="PointID_3" mode="constant" value="&quot;20SAC29AN003_M0 2&quot;"/> 
    <rt:dyn type="PointID_4" mode="constant" value="&quot;20SAC29AN003_M0 3&quot;"/> 
    <rt:dyn type="Text_1000" mode="constant" value="&quot;ÐÅÇÅÐÂ&quot;"/> 
    <rt:dyn type="Text_0001" mode="constant" value="&quot;ÐÀÁÎ×ÈÉ&quot;"/> 
    <rt:dyn type="Text_0010" mode="constant" value="&quot;ÐÅÇÅÐÂ&quot;"/> 
    <rt:dyn type="Text_0100" mode="constant" value="&quot;ÐÅÇÅÐÂ&quot;"/> 
    <rt:dyn type="Text_0011" mode="constant" value="&quot;&quot;"/> 
    <rt:dyn type="Text_0101" mode="constant" value="&quot;&quot;"/> 
    <rt:dyn type="Text_0110" mode="constant" value="&quot;&quot;"/> 
    <rt:dyn type="Text_0111" mode="constant" value="&quot;&quot;"/> 
    <rt:dyn type="Text_1001" mode="constant" value="&quot;&quot;"/> 
    <rt:dyn type="Text_1010" mode="constant" value="&quot;&quot;"/> 
    <rt:dyn type="Text_1011" mode="constant" value="&quot;&quot;"/> 
    <rt:dyn type="Text_1100" mode="constant" value="&quot;&quot;"/> 
    <rt:dyn type="Text_1101" mode="constant" value="&quot;&quot;"/> 
    <rt:dyn type="Text_1110" mode="constant" value="&quot;&quot;"/> 
    <rt:dyn type="Text_1111" mode="constant" value="&quot;&quot;"/> 
    <rt:dyn type="Text_0000" mode="constant" value="&quot;&quot;"/> 
    <rt:dyn type="Color_0000" mode="constant" value="&quot;Col_BGSand&quot;"/> 
    <rt:dyn type="Color_0010" mode="constant" value="&quot;Col_Grey3&quot;"/> 
    <rt:dyn type="Color_0001" mode="constant" value="&quot;Col_Green&quot;"/> 
    <rt:dyn type="Color_1000" mode="constant" value="&quot;Col_Grey3&quot;"/> 
    <rt:dyn type="Color_0100" mode="constant" value="&quot;Col_Grey3&quot;"/> 
  </image>
  <image x="1107" y="881.758" width="181.818" height="24.2424" xlink:href="bitwise_tablo_4bits.svg">
    <title>20SAC29AN004</title>
    <rt:dyn type="PointID_1" mode="constant" value="&quot;20SAC29AN004_M0 0&quot;"/> 
    <rt:dyn type="PointID_2" mode="constant" value="&quot;20SAC29AN004_M0 1&quot;"/> 
    <rt:dyn type="PointID_3" mode="constant" value="&quot;20SAC29AN004_M0 2&quot;"/> 
    <rt:dyn type="PointID_4" mode="constant" value="&quot;20SAC29AN004_M0 3&quot;"/> 
    <rt:dyn type="Text_1000" mode="constant" value="&quot;ÐÅÇÅÐÂ&quot;"/> 
    <rt:dyn type="Text_0001" mode="constant" value="&quot;ÐÀÁÎ×ÈÉ&quot;"/> 
    <rt:dyn type="Text_0010" mode="constant" value="&quot;ÐÅÇÅÐÂ&quot;"/> 
    <rt:dyn type="Text_0100" mode="constant" value="&quot;ÐÅÇÅÐÂ&quot;"/> 
    <rt:dyn type="Text_0011" mode="constant" value="&quot;&quot;"/> 
    <rt:dyn type="Text_0101" mode="constant" value="&quot;&quot;"/> 
    <rt:dyn type="Text_0110" mode="constant" value="&quot;&quot;"/> 
    <rt:dyn type="Text_0111" mode="constant" value="&quot;&quot;"/> 
    <rt:dyn type="Text_1001" mode="constant" value="&quot;&quot;"/> 
    <rt:dyn type="Text_1010" mode="constant" value="&quot;&quot;"/> 
    <rt:dyn type="Text_1011" mode="constant" value="&quot;&quot;"/> 
    <rt:dyn type="Text_1100" mode="constant" value="&quot;&quot;"/> 
    <rt:dyn type="Text_1101" mode="constant" value="&quot;&quot;"/> 
    <rt:dyn type="Text_1110" mode="constant" value="&quot;&quot;"/> 
    <rt:dyn type="Text_1111" mode="constant" value="&quot;&quot;"/> 
    <rt:dyn type="Text_0000" mode="constant" value="&quot;&quot;"/> 
    <rt:dyn type="Color_0000" mode="constant" value="&quot;Col_BGSand&quot;"/> 
    <rt:dyn type="Color_0010" mode="constant" value="&quot;Col_Grey3&quot;"/> 
    <rt:dyn type="Color_0001" mode="constant" value="&quot;Col_Green&quot;"/> 
    <rt:dyn type="Color_1000" mode="constant" value="&quot;Col_Grey3&quot;"/> 
    <rt:dyn type="Color_0100" mode="constant" value="&quot;Col_Grey3&quot;"/> 
  </image>
  <line x1="1426.5" y1="580.5" x2="26" y2="580.5" stroke="black"/> 
  <line x1="27" y1="580" x2="27" y2="1055" stroke="black"/> 
  <line x1="1426.5" y1="645.5" x2="26" y2="645.5" stroke="black"/> 
  <line x1="1426.5" y1="645.5" x2="26" y2="645.5" stroke="black"/> 
  <line x1="1426" y1="580" x2="1426" y2="1055" stroke="black"/> 
  <g transform="rotate(270 1762.81 74.4803)">
    <polygon points="117.026,440.694 142.016,440.694 130.026,415.694 130.026,415.694" fill="black" stroke="black" stroke-width="1" transform="rotate(90 1279.17 367.814)"/> 
  </g>
  <line x1="1426.5" y1="646.5" x2="26" y2="646.5" stroke="black"/> 
  <g>
    <text x="107" y="945.5" fill="black" font-size="15" text-anchor="middle">20UBB40R008</text>
    <text x="107" y="970.5" fill="black" font-size="15" text-anchor="middle">20UBB40R009</text>
    <text x="107" y="995.5" fill="black" font-size="15" text-anchor="middle">20UBB36R030</text>
    <text x="107" y="1020.5" fill="black" font-size="15" text-anchor="middle">20UBB31R009</text>
  </g>
  <g>
    <text x="226.75" y="945.5" fill="black" font-size="15" text-anchor="middle">20UBB31R016</text>
    <text x="226.75" y="970.5" fill="black" font-size="15" text-anchor="middle">20UBB31R013</text>
    <text x="226.75" y="995.5" fill="black" font-size="15" text-anchor="middle">20UBB26R013</text>
    <text x="226.75" y="1020.5" fill="black" font-size="15" text-anchor="middle">20UBB31R009</text>
  </g>
  <g>
    <text x="347" y="945" fill="black" font-size="15" text-anchor="middle">22UBB26R013</text>
    <text x="347" y="970" fill="black" font-size="15" text-anchor="middle">22UBB26R002</text>
    <text x="347" y="995" fill="black" font-size="15" text-anchor="middle">20UBB26R018</text>
    <text x="347" y="1020" fill="black" font-size="15" text-anchor="middle">22UBB22R016</text>
  </g>
  <text x="471.75" y="945" fill="black" font-size="15" text-anchor="middle">22UBB22R003</text>
  <text x="471.75" y="970" fill="black" font-size="15" text-anchor="middle">22UBB22R014</text>
  <text x="471.75" y="995" fill="black" font-size="15" text-anchor="middle">22UBB18R003</text>
  <text x="1518" y="633.5" fill="black" font-size="15" text-anchor="middle">Â àòìîñôåðó</text>
  <text x="107" y="671.5" fill="black" font-size="15" text-anchor="middle">20UBB36R021</text>
  <g>
    <line x1="907.5" y1="931.5" x2="907.5" y2="981.5" stroke="black" stroke-width="3"/> 
    <g transform="rotate(90 798.74 61.9513)">
      <g transform="rotate(270 1762.81 74.4803)">
        <polygon points="928.325,-164.615 953.315,-164.615 941.325,-189.615 941.325,-189.615" fill="black" stroke="black" stroke-width="1" transform="rotate(90 1279.17 367.814)"/> 
      </g>
      <line x1="1718.12" y1="-48.3092" x2="1718.12" y2="1.6908" stroke="black" stroke-width="3"/> 
    </g>
  </g>
  <line x1="1426" y1="1055" x2="27" y2="1055" stroke="black"/> 
  <line x1="1435.5" y1="647" x2="1435" y2="1055" stroke="black"/> 
  <line x1="1675.5" y1="648" x2="1675" y2="1056" stroke="black"/> 
  <line x1="1675" y1="647" x2="1436" y2="647" stroke="black"/> 
  <line x1="1675" y1="1055.5" x2="1434.5" y2="1055" stroke="black"/> 
  <image x="1048" y="797" width="70" height="70" xlink:href="TENZOR_motor.svg" transform="rotate(270 0.00012207 0)">
    <title>20SAC29AN004</title>
    <rt:dyn type="DeviceType" mode="constant" value="&quot;fan&quot;"/> 
    <rt:dyn type="Operate" mode="constant" value="true"/> 
    <rt:dyn type="KKS" mode="constant" value="&quot;20SAC29AN004&quot;"/> 
  </image>
  <g transform="rotate(90 596.392 242.309)">
    <g transform="rotate(270 1762.81 74.4803)">
      <polygon points="174.11,-731.105 199.1,-731.105 187.11,-756.105 187.11,-756.105" fill="black" stroke="black" stroke-width="1" transform="rotate(90 1279.17 367.814)"/> 
    </g>
    <line x1="963.907" y1="-614.799" x2="963.907" y2="-564.799" stroke="black" stroke-width="3"/> 
    <g transform="rotate(270 1762.81 74.4803)">
      <polygon points="173.933,-805.105 198.923,-805.105 186.933,-830.105 186.933,-830.105" fill="black" stroke="black" stroke-width="1" transform="rotate(90 1279.17 367.814)"/> 
    </g>
    <g transform="rotate(270 1762.81 74.4803)">
      <polygon points="173.933,-805.105 198.923,-805.105 186.933,-830.105 186.933,-830.105" fill="black" stroke="black" stroke-width="1" transform="rotate(90 1279.17 367.814)"/> 
    </g>
  </g>
  <image x="1559.91" y="746.152" width="70" height="70" xlink:href="TENZOR_motor.svg" transform="rotate(360 0.00012207 0)">
    <title>20SAC70AN001</title>
    <rt:dyn type="DeviceType" mode="constant" value="&quot;fan&quot;"/> 
    <rt:dyn type="Operate" mode="constant" value="true"/> 
    <rt:dyn type="KKS" mode="constant" value="&quot;20SAC70AN001&quot;"/> 
  </image>
  <line x1="2059" y1="316" x2="2059" y2="373" stroke="black" stroke-width="3" transform="rotate(90 1581.5 305)"/> 
  <line x1="2175.85" y1="189" x2="2175.85" y2="272.5" stroke="black" stroke-width="3" transform="rotate(90 1581.5 305)"/> 
  <image x="1560.41" y="879.5" width="70" height="70" xlink:href="TENZOR_motor.svg" transform="rotate(360 0.00012207 0)">
    <title>20SAC70AN002</title>
    <rt:dyn type="DeviceType" mode="constant" value="&quot;fan&quot;"/> 
    <rt:dyn type="Operate" mode="constant" value="true"/> 
    <rt:dyn type="KKS" mode="constant" value="&quot;20SAC70AN002&quot;"/> 
  </image>
  <line x1="2192.35" y1="315.5" x2="2192.35" y2="372.5" stroke="black" stroke-width="3" transform="rotate(90 1581.5 305)"/> 
  <text x="1530.25" y="737" fill="black" font-size="15" text-anchor="middle">20SAC70<tspan x="1530.25" dy="15">AN001</tspan>
  </text>
  <text x="1530" y="871" fill="black" font-size="15" text-anchor="middle">20SAC70<tspan x="1530" dy="15">AN002</tspan>
  </text>
  <text x="1507.24" y="672.515" fill="black" font-size="15" text-anchor="middle">20UBB39R001</text>
  <g>
    <polygon points="1680.68,155.984 1705.67,155.984 1693.68,130.984 1693.68,130.984" fill="black" stroke="black" stroke-width="1" transform="rotate(90 1279.17 367.814)"/> 
  </g>
  <g>
    <polygon points="1814.37,155.984 1839.36,155.984 1827.37,130.984 1827.37,130.984" fill="black" stroke="black" stroke-width="1" transform="rotate(90 1279.17 367.814)"/> 
  </g>
  <g>
    <polygon points="1798.37,-48.016 1823.36,-48.016 1811.37,-73.016 1811.37,-73.016" fill="black" stroke="black" stroke-width="1" transform="rotate(90 1279.17 367.814)"/> 
  </g>
  <g>
    <polygon points="1664.37,-48.016 1689.36,-48.016 1677.37,-73.016 1677.37,-73.016" fill="black" stroke="black" stroke-width="1" transform="rotate(90 1279.17 367.814)"/> 
  </g>
  <text x="1736.5" y="792" fill="black" font-size="15" text-anchor="middle">Â àòìîñôåðó</text>
  <text x="1736.5" y="926" fill="black" font-size="15" text-anchor="middle">Â àòìîñôåðó</text>
  <text x="1547" y="191.5" fill="black" font-size="15">Ðåæèì ðàáîòû 20SAC29</text>
  <rect x="1475" y="171" width="331" height="83" rx="0" ry="0" fill="none" stroke="black" stroke-width="2"/> 
  <image x="821" y="311" width="181.818" height="24.2424" xlink:href="bitwise_tablo_4bits.svg">
    <title>20SAC29AN001002</title>
    <rt:dyn type="PointID_1" mode="constant" value="&quot;20SAC29AN001002_Z0 0&quot;"/> 
    <rt:dyn type="Text_0001" mode="constant" value="&quot;ÀÂÐ ÍÅ ÃÎÒÎÂ&quot;"/> 
    <rt:dyn type="Text_0000" mode="constant" value="&quot;ÀÂÐ ÄÈÑÒ&quot;"/> 
    <rt:dyn type="Color_0010" mode="constant" value="&quot;Col_Yellow&quot;"/> 
    <rt:dyn type="Color_0001" mode="constant" value="&quot;Col_Green&quot;"/> 
    <rt:dyn type="Text_0010" mode="constant" value="&quot;ÀÂÐ ÃÎÒÎÂ&quot;"/> 
    <rt:dyn type="PointID_2" mode="constant" value="&quot;20SAC29AN001002_Z0 1&quot;"/> 
    <rt:dyn type="PointID_3" mode="constant" value="&quot;20SAC29AN001002_Z0 2&quot;"/> 
    <rt:dyn type="PointID_4" mode="constant" value="&quot;20SAC29AN001002_Z0 3&quot;"/> 
    <rt:dyn type="Text_0100" mode="constant" value="&quot;ÀÂÐ ÑÐÀÁÎÒÀË&quot;"/> 
    <rt:dyn type="Color_0100" mode="constant" value="&quot;Col_Red&quot;"/> 
    <rt:dyn type="Color_0000" mode="constant" value="&quot;Col_Grey3&quot;"/> 
  </image>
  <image x="814" y="819" width="181.818" height="24.2424" xlink:href="bitwise_tablo_4bits.svg">
    <title>20SAC29AN001002</title>
    <rt:dyn type="PointID_1" mode="constant" value="&quot;20SAC29AN003004_Z0 0&quot;"/> 
    <rt:dyn type="Text_0001" mode="constant" value="&quot;ÀÂÐ ÍÅ ÃÎÒÎÂ&quot;"/> 
    <rt:dyn type="Text_0000" mode="constant" value="&quot;ÀÂÐ ÄÈÑÒ&quot;"/> 
    <rt:dyn type="Color_0010" mode="constant" value="&quot;Col_Yellow&quot;"/> 
    <rt:dyn type="Color_0001" mode="constant" value="&quot;Col_Green&quot;"/> 
    <rt:dyn type="Text_0010" mode="constant" value="&quot;ÀÂÐ ÃÎÒÎÂ&quot;"/> 
    <rt:dyn type="PointID_2" mode="constant" value="&quot;20SAC29AN003004_Z0 1&quot;"/> 
    <rt:dyn type="PointID_3" mode="constant" value="&quot;20SAC29AN003004_Z0 2&quot;"/> 
    <rt:dyn type="PointID_4" mode="constant" value="&quot;20SAC29AN003004_Z0 3&quot;"/> 
    <rt:dyn type="Text_0100" mode="constant" value="&quot;ÀÂÐ ÑÐÀÁÎÒÀË&quot;"/> 
    <rt:dyn type="Color_0100" mode="constant" value="&quot;Col_Red&quot;"/> 
    <rt:dyn type="Color_0000" mode="constant" value="&quot;Col_Grey3&quot;"/> 
  </image>
  <image x="662" y="270.5" width="25" height="25" xlink:href="bin_indicator.svg">
    <title>20SAC29AN001_XB41</title>
    <rt:dyn type="PointID" mode="constant" value="&quot;20SAC29AN001_XB41&quot;"/> 
    <rt:dyn type="Col_OFF" mode="constant" value="&quot;Col_Grey3&quot;"/> 
    <rt:dyn type="Col_ON" mode="constant" value="&quot;Col_Yellow&quot;"/> 
  </image>
  <text x="644" y="288" fill="black" font-size="15" text-anchor="middle">ÈÏ</text>
  <image x="1128" y="270.5" width="25" height="25" xlink:href="bin_indicator.svg">
    <title>20SAC29AN002_XB41</title>
    <rt:dyn type="PointID" mode="constant" value="&quot;20SAC29AN002_XB41&quot;"/> 
    <rt:dyn type="Col_OFF" mode="constant" value="&quot;Col_Grey3&quot;"/> 
    <rt:dyn type="Col_ON" mode="constant" value="&quot;Col_Yellow&quot;"/> 
  </image>
  <text x="1169" y="288" fill="black" font-size="15" text-anchor="middle">ÈÏ</text>
  <image x="661" y="771" width="25" height="25" xlink:href="bin_indicator.svg">
    <title>20SAC29AN003_XB41</title>
    <rt:dyn type="PointID" mode="constant" value="&quot;20SAC29AN003_XB41&quot;"/> 
    <rt:dyn type="Col_OFF" mode="constant" value="&quot;Col_Grey3&quot;"/> 
    <rt:dyn type="Col_ON" mode="constant" value="&quot;Col_Yellow&quot;"/> 
  </image>
  <text x="643" y="788.5" fill="black" font-size="15" text-anchor="middle">ÈÏ</text>
  <image x="1127" y="771" width="25" height="25" xlink:href="bin_indicator.svg">
    <title>20SAC29AN004_XB41</title>
    <rt:dyn type="PointID" mode="constant" value="&quot;20SAC29AN004_XB41&quot;"/> 
    <rt:dyn type="Col_OFF" mode="constant" value="&quot;Col_Grey3&quot;"/> 
    <rt:dyn type="Col_ON" mode="constant" value="&quot;Col_Yellow&quot;"/> 
  </image>
  <text x="1168" y="788.5" fill="black" font-size="15" text-anchor="middle">ÈÏ</text>
  <image x="1612.5" y="709" width="25" height="25" xlink:href="bin_indicator.svg">
    <title>20SAC70AN001_XB41</title>
    <rt:dyn type="PointID" mode="constant" value="&quot;20SAC70AN001_XB41&quot;"/> 
    <rt:dyn type="Col_OFF" mode="constant" value="&quot;Col_Grey3&quot;"/> 
    <rt:dyn type="Col_ON" mode="constant" value="&quot;Col_Yellow&quot;"/> 
  </image>
  <text x="1653.5" y="726.5" fill="black" font-size="15" text-anchor="middle">ÈÏ</text>
  <image x="1612.5" y="844" width="25" height="25" xlink:href="bin_indicator.svg">
    <title>20SAC70AN002_XB41</title>
    <rt:dyn type="PointID" mode="constant" value="&quot;20SAC70AN002_XB41&quot;"/> 
    <rt:dyn type="Col_OFF" mode="constant" value="&quot;Col_Grey3&quot;"/> 
    <rt:dyn type="Col_ON" mode="constant" value="&quot;Col_Yellow&quot;"/> 
  </image>
  <text x="1653.5" y="861.5" fill="black" font-size="15" text-anchor="middle">ÈÏ</text>
  <image x="1515.5" y="210.849" width="181.818" height="24.2424" xlink:href="bitwise_tablo_4bits.svg">
    <title>&quot;20SAC29BISSM_XK92&quot;</title>
    <rt:dyn type="PointID_1" mode="constant" value="&quot;20SAC29BISSM_XK92&quot;"/> 
    <rt:dyn type="Text_0000" mode="constant" value="&quot;ÀÂÒÎÌÀÒÈ×ÅÑÊÈÉ&quot;"/> 
    <rt:dyn type="Color_0001" mode="constant" value="&quot;Col_Green&quot;"/> 
    <rt:dyn type="Text_0001" mode="constant" value="&quot;ÄÈÑÒÀÍÖÈÎÍÍÛÉ&quot;"/> 
    <rt:dyn type="Color_0000" mode="constant" value="&quot;Col_Yellow&quot;"/> 
  </image>
  <image x="1735.64" y="204" width="35" height="35" xlink:href="TENZOR_AH_mode.svg">
    <title>&quot;20SAC29BISSM&quot;</title>
    <rt:dyn type="KKS" mode="constant" value="&quot;20SAC29BISSM&quot;"/> 
    <rt:dyn type="Operate" mode="constant" value="&quot;true&quot;"/> 
  </image>
  <text x="25" y="50" fill="black" font-size="15" font-weight="700">20UJA 20CXV85</text>
  <text x="800" y="50" fill="black" font-size="30" font-weight="700">Ñèñòåìà 20SAC29</text>
</svg>
