<?xml version="1.0" encoding="windows-1251"?>
<svg xmlns="http://www.w3.org/2000/svg" xmlns:rt="http://www.rts.co.at/2001/XMLSchema/RtSvgPL" xmlns:xlink="http://www.w3.org/1999/xlink" xmlns:xsi="http://www.w3.org/2001/XMLSchema-instance" color="Col_BGSand" xsi:schemaLocation="http://www.w3.org/2000/svg C:\RTS\RtSvg\XML\SVG.xsd" viewBox="0 0 1920 1080" width="1920" height="1080" id="20sam40an007_8" fill="Col_Grey3">
  <title>Ñèñòåìà 20SAM40</title>
  <rt:model modelversion="7.2.0.24" comment="UMod all_20uma" revision="4.1" />
  <line x1="1050" y1="850" x2="775" y2="850" stroke="black" stroke-width="3" />
  <line x1="337.711" y1="100" x2="1579" y2="100" stroke="black" stroke-width="3" />
  <line x1="298" y1="433" x2="298" y2="433" stroke="black" />
  <line x1="344" y1="425" x2="342" y2="0" />
  <line x1="592.727" y1="690.909" x2="592.727" y2="690.909" stroke="black" />
  <line x1="749.091" y1="939.091" x2="749.091" y2="939.091" stroke="black" />
  <line x1="638.182" y1="881.818" x2="638.182" y2="881.818" stroke="black" />
  <line x1="214.545" y1="692.727" x2="214.545" y2="692.727" stroke="black" />
  <line x1="259.091" y1="771.818" x2="259.091" y2="771.818" stroke="black" />
  <line x1="195.455" y1="720" x2="195.455" y2="720" stroke="black" />
  <line x1="186.364" y1="713.636" x2="186.364" y2="713.636" stroke="black" />
  <line x1="191.818" y1="715.455" x2="191.818" y2="715.455" stroke="black" />
  <line x1="985.455" y1="149.091" x2="985.455" y2="149.091" stroke="black" />
  <line x1="1150" y1="365" x2="1150" y2="365" stroke="black" />
  <line x1="1274" y1="337" x2="1274" y2="337" stroke="black" />
  <line x1="1029" y1="375" x2="1029" y2="375" stroke="black" />
  <line x1="1215.33" y1="421.333" x2="1215.33" y2="421.333" stroke="black" />
  <line x1="1007" y1="314.75" x2="1007" y2="314.75" stroke="black" />
  <line x1="1027.27" y1="820" x2="1027.27" y2="820" stroke="black" />
  <line x1="675" y1="65" x2="675" y2="65" stroke="black" />
  <line x1="1468" y1="294" x2="1468" y2="294" stroke="black" />
  <line x1="1066.67" y1="766" x2="1066.67" y2="766" stroke="black" />
  <line x1="783.669" y1="851.456" x2="783.669" y2="851.456" stroke="black" />
  <line x1="410" y1="913" x2="410" y2="913" stroke="black" />
  <line x1="398" y1="872" x2="398" y2="872" stroke="black" />
  <line x1="841" y1="753" x2="841" y2="753" stroke="black" />
  <line x1="1396" y1="754" x2="1396" y2="754" stroke="black" />
  <line x1="1369" y1="798" x2="1369" y2="798" stroke="black" />
  <line x1="438" y1="1031" x2="438" y2="1031" stroke="black" />
  <line x1="419" y1="1033" x2="419" y2="1033" stroke="black" />
  <line x1="835" y1="706" x2="835" y2="706" stroke="black" />
  <line x1="254.697" y1="145.454" x2="254.697" y2="145.454" stroke="black" />
  <line x1="366.818" y1="892.423" x2="366.818" y2="892.423" stroke="black" />
  <text x="25" y="25" fill="black" font-size="15" font-weight="700">20SAM40AN007_8</text>
  <line x1="1215.33" y1="606" x2="1215.33" y2="606" stroke="black" />
  <rect x="231.667" y="-61.6667" width="0.1" height="0.1" rx="0" ry="0" />
  <rect x="175" y="1025" width="1525" height="50" rx="0" ry="0" fill="none" stroke="black" stroke-dasharray="5,5" />
  <text x="25.0001" y="1051" fill="black" font-size="15">
    Íàðóæíûé
    <tspan x="25.0001" dy="15">âîçäóõ</tspan>
  </text>
  <line x1="938.788" y1="125.606" x2="938.788" y2="275.606" stroke="black" stroke-width="3" />
  <line x1="950" y1="317.01" x2="950" y2="375" stroke="black" stroke-width="3" />
  <line x1="950" y1="441.752" x2="950" y2="850" stroke="black" stroke-width="3" />
  <text x="984" y="550" fill="black" font-size="15">20SAM40AH021</text>
  <image x="825" y="520" width="65" height="25" xlink:href="DS_Reg_degree.svg">
    <title>20SBH04AA209</title>
    <rt:dyn type="KKS" mode="constant" value="&quot;20SBH04AA209&quot;" />
    <rt:dyn type="SIGNAL" mode="constant" value="&quot;XQ54&quot;" />
    <rt:dyn type="ShowFrame" mode="constant" value="true" />
  </image>
  <image x="903.788" y="154.773" width="70" height="45" xlink:href="TENZOR_pivot_valve.svg">
    <title>20SAM40AA016</title>
    <rt:dyn type="KKS" mode="constant" value="&quot;20SAM40AA016&quot;" />
    <rt:dyn type="Operate" mode="constant" value="true" />
  </image>
  <line x1="944.788" y1="220.28" x2="944.788" y2="242.273" stroke="black" stroke-width="1" />
  <line x1="996.785" y1="230.773" x2="944.788" y2="230.773" stroke="black" stroke-width="1" />
  <text x="983.788" y="175.773" fill="black" font-size="15">20SAM40AA016</text>
  <text x="985.788" y="299.773" fill="black" font-size="15">20SAM40AN008</text>
  <image x="915" y="265" width="70" height="70" xlink:href="TENZOR_motor.svg" transform="rotate(270 0.00012207 0)">
    <title>20SAM40AN008</title>
    <rt:dyn type="DeviceType" mode="constant" value="&quot;fan&quot;" />
    <rt:dyn type="Operate" mode="constant" value="true" />
    <rt:dyn type="KKS" mode="constant" value="&quot;20SAM40AN008&quot;" />
  </image>
  <line x1="950" y1="500" x2="725" y2="500" stroke="black" stroke-width="3" />
  <image x="730" y="457.5" width="70" height="65" xlink:href="TENZOR_CO_valve.svg">
    <title>20SBH03AA009</title>
    <rt:dyn type="KKS" mode="constant" value="&quot;20SBH03AA009&quot;" />
    <rt:dyn type="Operate" mode="constant" value="true" />
  </image>
  <text x="859.175" y="625.417" fill="black" font-size="15" text-anchor="middle">
    20SBH04
    <tspan x="859.175" dy="15">AA209</tspan>
  </text>
  <line x1="934.788" y1="534.273" x2="934.788" y2="590.953" stroke="black" stroke-width="3" />
  <line x1="933.788" y1="589.273" x2="753.288" y2="589.273" stroke="black" stroke-width="3" />
  <line x1="985.788" y1="727.273" x2="917.788" y2="727.273" stroke="black" stroke-width="3" />
  <line x1="958.788" y1="623.78" x2="958.788" y2="645.773" stroke="black" stroke-width="1" />
  <line x1="1010.78" y1="634.273" x2="958.788" y2="634.273" stroke="black" stroke-width="1" />
  <line x1="775" y1="850" x2="775" y2="900" stroke="black" stroke-width="3" />
  <text x="807.788" y="377.773" fill="black" font-size="15">20SAM40AH008</text>
  <text x="767.701" y="454.881" fill="black" font-size="15" text-anchor="middle">20SBH03AA009</text>
  <text x="997.788" y="732.773" fill="black" font-size="15">20SAM40AT008</text>
  <image x="792" y="779" width="65" height="25" xlink:href="DS_Reg_degree.svg">
    <title>20SAM40AA216</title>
    <rt:dyn type="KKS" mode="constant" value="&quot;20SAM40AA216&quot;" />
    <rt:dyn type="SIGNAL" mode="constant" value="&quot;XQ54&quot;" />
    <rt:dyn type="ShowFrame" mode="constant" value="true" />
  </image>
  <image x="967" y="778" width="65" height="25" xlink:href="DS_Reg_degree.svg">
    <title>20SAM40AA208</title>
    <rt:dyn type="KKS" mode="constant" value="&quot;20SAM40AA208&quot;" />
    <rt:dyn type="SIGNAL" mode="constant" value="&quot;XQ54&quot;" />
    <rt:dyn type="ShowFrame" mode="constant" value="true" />
  </image>
  <text x="781.134" y="890.85" fill="black" font-size="15">20SAM40AA216</text>
  <text x="999.083" y="885.167" fill="black" font-size="15" text-anchor="middle">
    20SAM40
    <tspan x="999.083" dy="15">AA208</tspan>
  </text>
  <line x1="938.151" y1="125.151" x2="1573" y2="125" stroke="black" stroke-width="3" />
  <line x1="480.504" y1="247.503" x2="480.504" y2="269.496" stroke="black" stroke-width="1" transform="rotate(90 459.5 577.496)" />
  <line x1="778.75" y1="598.75" x2="778.75" y2="638.743" stroke="black" stroke-width="1" />
  <g>
    <rect x="1550" y="88.1443" width="175" height="50" rx="0" ry="0" />
    <text x="1592.42" y="119.281" fill="black" font-size="15">Ïîìåùåíèÿ</text>
  </g>
  <line x1="1050" y1="850" x2="1050" y2="1050" stroke="black" stroke-width="3" />
  <text x="884.788" y="975.773" fill="black" font-size="15">20SAM40AA008</text>
  <image x="1090" y="940" width="70" height="70" xlink:href="TENZOR_motor.svg">
    <title>20SAM40AA008E</title>
    <rt:dyn type="KKS" mode="constant" value="&quot;20SAM40AA008E&quot;" />
    <rt:dyn type="Operate" mode="constant" value="true" />
    <rt:dyn type="DeviceType" mode="constant" value="&quot;rect&quot;" />
  </image>
  <text x="1161.79" y="978.773" fill="black" font-size="15">20SAM40AA008E</text>
  <image x="1015" y="952.5" width="70" height="45" xlink:href="TENZOR_pivot_valve.svg">
    <title>20SAM40AA008</title>
    <rt:dyn type="KKS" mode="constant" value="&quot;20SAM40AA008&quot;" />
    <rt:dyn type="Operate" mode="constant" value="true" />
  </image>
  <g transform="rotate(270 583.422 595.333)">
    <polygon points="1960.27,1526.23 1985.26,1526.23 1973.27,1501.23 1973.27,1501.23" fill="black" stroke="black" stroke-width="1" transform="rotate(90 1279.17 367.814)" />
  </g>
  <g transform="rotate(270 583.422 595.333)">
    <polygon points="1685.27,1393.23 1710.26,1393.23 1698.27,1368.23 1698.27,1368.23" fill="black" stroke="black" stroke-width="1" transform="rotate(90 1279.17 367.814)" />
  </g>
  <g transform="flipX(396.707)">
    <line x1="-148.623" y1="766.005" x2="-109.953" y2="766.005" stroke="black" stroke-width="1" />
    <line x1="-146.353" y1="689.779" x2="-109.953" y2="690.005" stroke="black" stroke-width="1" />
    <line x1="-109.953" y1="690.005" x2="-109.573" y2="765.869" stroke="black" stroke-width="1" />
    <line x1="-147.363" y1="682.279" x2="-147.363" y2="696.279" stroke="black" stroke-width="1" />
    <line x1="-148.363" y1="758.779" x2="-148.363" y2="773.279" stroke="black" stroke-width="1" />
    <line x1="-80.3629" y1="727.779" x2="-109.573" y2="727.536" stroke="black" stroke-width="1" />
  </g>
  <image x="859.134" y="714.779" width="25" height="25" xlink:href="bin_indicator.svg">
    <title>20SAM40CP008</title>
    <rt:dyn type="PointID" mode="constant" value="&quot;20SAM40CP008_XG01&quot;" />
  </image>
  <text x="793.5" y="736.5" fill="black" font-size="15" text-anchor="middle">DP &gt; 0,15 êÏà</text>
  <g transform="rotate(360 583.422 595.333)">
    <polygon points="1398.36,946.984 1423.35,946.984 1411.36,921.984 1411.36,921.984" fill="black" stroke="black" stroke-width="1" transform="rotate(90 1279.17 367.814)" />
  </g>
  <polygon points="1044.99,-158.356 1069.98,-158.356 1057.99,-183.356 1057.99,-183.356" fill="black" stroke="black" stroke-width="1" transform="rotate(270 1279.17 367.814)" />
  <g transform="rotate(90 203.619 884.618)">
    <g>
      <line x1="360.001" y1="886.309" x2="380.001" y2="886.309" stroke="black" stroke-width="3" />
      <polyline points="370.001,862.309 360.001,882.309 380.001,882.309" fill="black" />
    </g>
    <g>
      <line x1="360.001" y1="957.309" x2="380.001" y2="957.309" stroke="black" stroke-width="3" />
      <polyline points="370.001,960.309 360.001,980.309 380.001,980.309" fill="black" />
    </g>
    <line x1="370.001" y1="957.309" x2="370.001" y2="888.237" stroke="black" stroke-width="3" />
  </g>
  <rect x="778.812" y="244.929" width="50" height="50" rx="0" ry="0" fill="Col_BGSand" stroke="black" stroke-width="3" transform="rotate(45 325 675)" />
  <image x="594.356" y="293.43" width="181.818" height="24.2424" xlink:href="bitwise_tablo_4bits.svg">
    <title>20SAM40AN007008</title>
    <rt:dyn type="PointID_1" mode="constant" value="&quot;20SAM40AN007008_Z0 0&quot;" />
    <rt:dyn type="Text_0001" mode="constant" value="&quot;ÀÂÐ ÍÅ ÃÎÒÎÂ&quot;" />
    <rt:dyn type="Text_0000" mode="constant" value="&quot;ÀÂÐ ÄÈÑÒ&quot;" />
    <rt:dyn type="Color_0010" mode="constant" value="&quot;Col_Yellow&quot;" />
    <rt:dyn type="Color_0001" mode="constant" value="&quot;Col_Green&quot;" />
    <rt:dyn type="Text_0010" mode="constant" value="&quot;ÀÂÐ ÃÎÒÎÂ&quot;" />
    <rt:dyn type="PointID_2" mode="constant" value="&quot;20SAM40AN007008_Z0 1&quot;" />
    <rt:dyn type="PointID_3" mode="constant" value="&quot;20SAM40AN007008_Z0 2&quot;" />
    <rt:dyn type="PointID_4" mode="constant" value="&quot;20SAM40AN007008_Z0 3&quot;" />
    <rt:dyn type="Text_0100" mode="constant" value="&quot;ÀÂÐ ÑÐÀÁÎÒÀË&quot;" />
    <rt:dyn type="Color_0100" mode="constant" value="&quot;Col_Red&quot;" />
    <rt:dyn type="Color_0000" mode="constant" value="&quot;Col_Grey3&quot;" />
  </image>
  <image x="718.182" y="250.758" width="181.818" height="24.2424" xlink:href="bitwise_tablo_4bits.svg">
    <title>20SAM40AN008</title>
    <rt:dyn type="PointID_1" mode="constant" value="&quot;20SAM40AN008_M0 0&quot;" />
    <rt:dyn type="PointID_2" mode="constant" value="&quot;20SAM40AN008_M0 1&quot;" />
    <rt:dyn type="PointID_3" mode="constant" value="&quot;20SAM40AN008_M0 2&quot;" />
    <rt:dyn type="PointID_4" mode="constant" value="&quot;20SAM40AN008_M0 3&quot;" />
    <rt:dyn type="Text_1000" mode="constant" value="&quot;ÐÅÇÅÐÂ&quot;" />
    <rt:dyn type="Text_0001" mode="constant" value="&quot;ÐÀÁÎ×ÈÉ&quot;" />
    <rt:dyn type="Text_0010" mode="constant" value="&quot;ÐÅÇÅÐÂ&quot;" />
    <rt:dyn type="Text_0100" mode="constant" value="&quot;ÐÅÇÅÐÂ&quot;" />
    <rt:dyn type="Text_0011" mode="constant" value="&quot;&quot;" />
    <rt:dyn type="Text_0101" mode="constant" value="&quot;&quot;" />
    <rt:dyn type="Text_0110" mode="constant" value="&quot;&quot;" />
    <rt:dyn type="Text_0111" mode="constant" value="&quot;&quot;" />
    <rt:dyn type="Text_1001" mode="constant" value="&quot;&quot;" />
    <rt:dyn type="Text_1010" mode="constant" value="&quot;&quot;" />
    <rt:dyn type="Text_1011" mode="constant" value="&quot;&quot;" />
    <rt:dyn type="Text_1100" mode="constant" value="&quot;&quot;" />
    <rt:dyn type="Text_1101" mode="constant" value="&quot;&quot;" />
    <rt:dyn type="Text_1110" mode="constant" value="&quot;&quot;" />
    <rt:dyn type="Text_1111" mode="constant" value="&quot;&quot;" />
    <rt:dyn type="Text_0000" mode="constant" value="&quot;&quot;"/> 
    <rt:dyn type="Color_0000" mode="constant" value="&quot;Col_BGSand&quot;"/>
    <rt:dyn type="Color_0010" mode="constant" value="&quot;Col_Grey3&quot;" />
    <rt:dyn type="Color_0001" mode="constant" value="&quot;Col_Green&quot;" />
    <rt:dyn type="Color_1000" mode="constant" value="&quot;Col_Grey3&quot;" />
    <rt:dyn type="Color_0100" mode="constant" value="&quot;Col_Grey3&quot;" />
  </image>
  <line x1="449.712" y1="849.996" x2="174.712" y2="849.996" stroke="black" stroke-width="3" />
  <line x1="338.5" y1="100.602" x2="338.5" y2="275.602" stroke="black" stroke-width="3" />
  <line x1="349.712" y1="317.006" x2="349.712" y2="374.996" stroke="black" stroke-width="3" />
  <line x1="349.712" y1="441.748" x2="349.712" y2="849.996" stroke="black" stroke-width="3" />
  <text x="380" y="550" fill="black" font-size="15">20SAM40AH020</text>
  <image x="224.712" y="519.996" width="65" height="25" xlink:href="DS_Reg_degree.svg">
    <title>20SBH04AA208</title>
    <rt:dyn type="KKS" mode="constant" value="&quot;20SBH04AA208&quot;" />
    <rt:dyn type="SIGNAL" mode="constant" value="&quot;XQ54&quot;" />
    <rt:dyn type="ShowFrame" mode="constant" value="true" />
  </image>
  <image x="303.5" y="154.769" width="70" height="45" xlink:href="TENZOR_pivot_valve.svg">
    <title>20SAM40AA015</title>
    <rt:dyn type="KKS" mode="constant" value="&quot;20SAM40AA015&quot;" />
    <rt:dyn type="Operate" mode="constant" value="true" />
  </image>
  <line x1="344.5" y1="220.276" x2="344.5" y2="242.269" stroke="black" stroke-width="1" />
  <line x1="396.497" y1="230.769" x2="344.5" y2="230.769" stroke="black" stroke-width="1" />
  <text x="383.5" y="175.769" fill="black" font-size="15">20SAM40AA015</text>
  <text x="385.5" y="299.769" fill="black" font-size="15">20SAM40AN007</text>
  <image x="314.712" y="264.996" width="70" height="70" xlink:href="TENZOR_motor.svg" transform="rotate(270 0.00012207 0)">
    <title>20SAM40AN007</title>
    <rt:dyn type="DeviceType" mode="constant" value="&quot;fan&quot;" />
    <rt:dyn type="Operate" mode="constant" value="true" />
    <rt:dyn type="KKS" mode="constant" value="&quot;20SAM40AN007&quot;" />
  </image>
  <line x1="349.712" y1="499.996" x2="125" y2="500" stroke="black" stroke-width="3" />
  <image x="130" y="457.5" width="70" height="65" xlink:href="TENZOR_CO_valve.svg">
    <title>20SBH03AA008</title>
    <rt:dyn type="KKS" mode="constant" value="&quot;20SBH03AA008&quot;" />
    <rt:dyn type="Operate" mode="constant" value="true" />
  </image>
  <text x="256.814" y="625.387" fill="black" font-size="15" text-anchor="middle">
    20SBH04
    <tspan x="256.814" dy="15">AA208</tspan>
  </text>
  <line x1="334.5" y1="534.269" x2="334.5" y2="590.949" stroke="black" stroke-width="3" />
  <line x1="333.5" y1="589.269" x2="153" y2="589.269" stroke="black" stroke-width="3" />
  <line x1="385.5" y1="727.269" x2="317.5" y2="727.269" stroke="black" stroke-width="3" />
  <line x1="358.5" y1="623.776" x2="358.5" y2="645.769" stroke="black" stroke-width="1" />
  <line x1="410.492" y1="634.269" x2="358.5" y2="634.269" stroke="black" stroke-width="1" />
  <line x1="174.712" y1="849.996" x2="174.712" y2="899.996" stroke="black" stroke-width="3" />
  <text x="207.5" y="377.769" fill="black" font-size="15">20SAM40AH007</text>
  <text x="166.67" y="453.85" fill="black" font-size="15" text-anchor="middle">20SBH03AA008</text>
  <text x="397.5" y="732.769" fill="black" font-size="15">20SAM40AT007</text>
  <image x="191.712" y="778.996" width="65" height="25" xlink:href="DS_Reg_degree.svg">
    <title>20SAM40AA215</title>
    <rt:dyn type="KKS" mode="constant" value="&quot;20SAM40AA215&quot;" />
    <rt:dyn type="SIGNAL" mode="constant" value="&quot;XQ54&quot;" />
    <rt:dyn type="ShowFrame" mode="constant" value="true" />
  </image>
  <image x="366.712" y="777.996" width="65" height="25" xlink:href="DS_Reg_degree.svg">
    <title>20SAM40AA207</title>
    <rt:dyn type="KKS" mode="constant" value="&quot;20SAM40AA207&quot;" />
    <rt:dyn type="SIGNAL" mode="constant" value="&quot;XQ54&quot;" />
    <rt:dyn type="ShowFrame" mode="constant" value="true" />
  </image>
  <text x="180.846" y="890.846" fill="black" font-size="15">20SAM40AA215</text>
  <text x="398.795" y="885.163" fill="black" font-size="15" text-anchor="middle">
    20SAM40
    <tspan x="398.795" dy="15">AA207</tspan>
  </text>
  <line x1="480.5" y1="847.79" x2="480.5" y2="869.783" stroke="black" stroke-width="1" transform="rotate(90 459.5 577.496)" />
  <line x1="178.462" y1="598.746" x2="178.462" y2="638.739" stroke="black" stroke-width="1" />
  <line x1="449.712" y1="849.996" x2="449.712" y2="1050" stroke="black" stroke-width="3" />
  <text x="284.5" y="975.769" fill="black" font-size="15">20SAM40AA007</text>
  <image x="489.712" y="939.996" width="70" height="70" xlink:href="TENZOR_motor.svg">
    <title>20SAM40AA007E</title>
    <rt:dyn type="KKS" mode="constant" value="&quot;20SAM40AA007E&quot;" />
    <rt:dyn type="Operate" mode="constant" value="true" />
    <rt:dyn type="DeviceType" mode="constant" value="&quot;rect&quot;" />
  </image>
  <text x="561.502" y="978.769" fill="black" font-size="15">20SAM40AA007E</text>
  <image x="414.712" y="952.496" width="70" height="45" xlink:href="TENZOR_pivot_valve.svg">
    <title>20SAM40AA007</title>
    <rt:dyn type="KKS" mode="constant" value="&quot;20SAM40AA007&quot;" />
    <rt:dyn type="Operate" mode="constant" value="true" />
  </image>
  <g transform="rotate(270 583.422 595.333)">
    <polygon points="1359.98,1526.23 1384.97,1526.23 1372.98,1501.23 1372.98,1501.23" fill="black" stroke="black" stroke-width="1" transform="rotate(90 1279.17 367.814)" />
  </g>
  <g transform="rotate(270 583.422 595.333)">
    <polygon points="1084.98,1393.23 1109.97,1393.23 1097.98,1368.23 1097.98,1368.23" fill="black" stroke="black" stroke-width="1" transform="rotate(90 1279.17 367.814)" />
  </g>
  <g transform="flipX(396.707)">
    <line x1="451.665" y1="766.001" x2="490.335" y2="766.001" stroke="black" stroke-width="1" />
    <line x1="453.935" y1="689.775" x2="490.335" y2="690.001" stroke="black" stroke-width="1" />
    <line x1="490.335" y1="690.001" x2="490.715" y2="765.865" stroke="black" stroke-width="1" />
    <line x1="452.925" y1="682.275" x2="452.925" y2="696.275" stroke="black" stroke-width="1" />
    <line x1="451.925" y1="758.775" x2="451.925" y2="773.275" stroke="black" stroke-width="1" />
    <line x1="519.925" y1="727.775" x2="490.715" y2="727.532" stroke="black" stroke-width="1" />
  </g>
  <image x="258.846" y="714.775" width="25" height="25" xlink:href="bin_indicator.svg">
    <title>20SAM40CP007_XG01</title>
    <rt:dyn type="PointID" mode="constant" value="&quot;20SAM40CP007_XG01&quot;" />
  </image>
  <text x="183.846" y="725.986" fill="black" font-size="15" text-anchor="middle">DP &gt; 0,15 êÏà</text>
  <g transform="rotate(360 583.422 595.333)">
    <polygon points="1398.36,1546.98 1423.35,1546.98 1411.36,1521.98 1411.36,1521.98" fill="black" stroke="black" stroke-width="1" transform="rotate(90 1279.17 367.814)" />
  </g>
  <polygon points="1044.99,-758.644 1069.98,-758.644 1057.99,-783.644 1057.99,-783.644" fill="black" stroke="black" stroke-width="1" transform="rotate(270 1279.17 367.814)" />
  <rect x="354.342" y="669.394" width="50" height="50" rx="0" ry="0" fill="Col_BGSand" stroke="black" stroke-width="3" transform="rotate(45 325 675)" />
  <image x="117.894" y="250.754" width="181.818" height="24.2424" xlink:href="bitwise_tablo_4bits.svg">
    <title>20SAM40AN007</title>
    <rt:dyn type="PointID_1" mode="constant" value="&quot;20SAM40AN007_M0 0&quot;" />
    <rt:dyn type="PointID_2" mode="constant" value="&quot;20SAM40AN007_M0 1&quot;" />
    <rt:dyn type="PointID_3" mode="constant" value="&quot;20SAM40AN007_M0 2&quot;" />
    <rt:dyn type="PointID_4" mode="constant" value="&quot;20SAM40AN007_M0 3&quot;" />
    <rt:dyn type="Text_1000" mode="constant" value="&quot;ÐÅÇÅÐÂ&quot;" />
    <rt:dyn type="Text_0001" mode="constant" value="&quot;ÐÀÁÎ×ÈÉ&quot;" />
    <rt:dyn type="Text_0010" mode="constant" value="&quot;ÐÅÇÅÐÂ&quot;" />
    <rt:dyn type="Text_0100" mode="constant" value="&quot;ÐÅÇÅÐÂ&quot;" />
    <rt:dyn type="Text_0011" mode="constant" value="&quot;&quot;" />
    <rt:dyn type="Text_0101" mode="constant" value="&quot;&quot;" />
    <rt:dyn type="Text_0110" mode="constant" value="&quot;&quot;" />
    <rt:dyn type="Text_0111" mode="constant" value="&quot;&quot;" />
    <rt:dyn type="Text_1001" mode="constant" value="&quot;&quot;" />
    <rt:dyn type="Text_1010" mode="constant" value="&quot;&quot;" />
    <rt:dyn type="Text_1011" mode="constant" value="&quot;&quot;" />
    <rt:dyn type="Text_1100" mode="constant" value="&quot;&quot;" />
    <rt:dyn type="Text_1101" mode="constant" value="&quot;&quot;" />
    <rt:dyn type="Text_1110" mode="constant" value="&quot;&quot;" />
    <rt:dyn type="Text_1111" mode="constant" value="&quot;&quot;" />
    <rt:dyn type="Text_0000" mode="constant" value="&quot;&quot;"/> 
    <rt:dyn type="Color_0000" mode="constant" value="&quot;Col_BGSand&quot;"/>
    <rt:dyn type="Color_0010" mode="constant" value="&quot;Col_Grey3&quot;" />
    <rt:dyn type="Color_0001" mode="constant" value="&quot;Col_Green&quot;" />
    <rt:dyn type="Color_1000" mode="constant" value="&quot;Col_Grey3&quot;" />
    <rt:dyn type="Color_0100" mode="constant" value="&quot;Col_Grey3&quot;" />
  </image>
  <text x="1075" y="409.833" fill="black" font-size="15">20SAM40AP008</text>
  <g>
    <polyline points="1089.94,622.053 1139.98,623.433 1138.62,672.353 1089.69,672.113 1090.09,622.213" fill="Col_BGSand" stroke="black" stroke-width="3" transform="rotate(44.0618 1325.51 325.508)" />
    <line x1="984.788" y1="410.196" x2="916.788" y2="410.196" stroke="black" stroke-width="3" />
    <g>
      <line x1="930.898" y1="403.212" x2="944.435" y2="417.273" stroke="black" stroke-width="2" />
      <line x1="-250.825" y1="403.12" x2="-237.288" y2="417.181" stroke="black" stroke-width="2" transform="flipX(346.879)" />
    </g>
    <g>
      <line x1="959.398" y1="403.212" x2="972.935" y2="417.273" stroke="black" stroke-width="2" />
      <line x1="-279.325" y1="403.12" x2="-265.788" y2="417.181" stroke="black" stroke-width="2" transform="flipX(346.879)" />
    </g>
  </g>
  <text x="473.25" y="412" fill="black" font-size="15">20SAM40AP007</text>
  <g>
    <polyline points="658.579,1039.51 708.619,1040.89 707.259,1089.81 658.329,1089.57 658.729,1039.67" fill="Col_BGSand" stroke="black" stroke-width="3" transform="rotate(44.0618 1325.51 325.508)" />
    <line x1="384.5" y1="410.192" x2="316.5" y2="410.192" stroke="black" stroke-width="3" />
    <g>
      <line x1="330.61" y1="403.208" x2="344.147" y2="417.269" stroke="black" stroke-width="2" />
      <line x1="349.463" y1="403.116" x2="363" y2="417.177" stroke="black" stroke-width="2" transform="flipX(346.879)" />
    </g>
    <g>
      <line x1="359.11" y1="403.208" x2="372.647" y2="417.269" stroke="black" stroke-width="2" />
      <line x1="320.963" y1="403.116" x2="334.5" y2="417.177" stroke="black" stroke-width="2" transform="flipX(346.879)" />
    </g>
  </g>
  <text x="1384.33" y="252.333" fill="black" font-size="15">Ðåæèì ðàáîòû 20SAM40AN007/20SAM40AN008</text>
  <rect x="1372.67" y="231" width="394.33" height="84" rx="0" ry="0" fill="none" stroke="black" stroke-width="2" />
  <image x="1448.5" y="275.849" width="181.818" height="24.2424" xlink:href="bitwise_tablo_4bits.svg">
    <title>"20SAM40AN007008SM_XK92"</title>
    <rt:dyn type="PointID_1" mode="constant" value="&quot;20SAM40AN007008SM_XK92&quot;" />
    <rt:dyn type="Text_0000" mode="constant" value="&quot;ÀÂÒÎÌÀÒÈ×ÅÑÊÈÉ&quot;" />
    <rt:dyn type="Color_0001" mode="constant" value="&quot;Col_Green&quot;" />
    <rt:dyn type="Text_0001" mode="constant" value="&quot;ÄÈÑÒÀÍÖÈÎÍÍÛÉ&quot;" />
    <rt:dyn type="Color_0000" mode="constant" value="&quot;Col_Yellow&quot;" />
  </image>
  <image x="1668.64" y="269" width="35" height="35" xlink:href="TENZOR_AH_mode.svg">
    <title>"20SAM40AN007008SM"</title>
    <rt:dyn type="KKS" mode="constant" value="&quot;20SAM40AN007008SM&quot;" />
    <rt:dyn type="Operate" mode="constant" value="&quot;true&quot;" />
  </image>
  <g>
    <rect x="207.647" y="522.292" width="50" height="50" rx="0" ry="0" fill="Col_BGSand" stroke="black" transform="rotate(45 325 675)" />
    <line x1="315.013" y1="519.393" x2="385.013" y2="519.393" stroke="black" />
    <polygon points="369.211,525 353.881,519.332 369.211,513.665" fill="black" stroke="black" />
    <polygon points="352.505,525 337.172,519.332 352.505,513.665" fill="black" stroke="black" transform="flipX(342.722)" />
  </g>
  <g>
    <rect x="635.919" y="102.035" width="50" height="50" rx="0" ry="0" fill="Col_BGSand" stroke="black" transform="rotate(45 325 675)" />
    <line x1="915.013" y1="525.061" x2="985.013" y2="525.061" stroke="black" />
    <polygon points="969.211,530.668 953.881,525 969.211,519.333" fill="black" stroke="black" />
    <polygon points="-247.495,530.668 -262.828,525 -247.495,519.333" fill="black" stroke="black" transform="flipX(342.722)" />
  </g>
  <line x1="434.875" y1="375.25" x2="349.875" y2="375.25" stroke="black" stroke-width="3" />
  <line x1="434.875" y1="375.25" x2="434.875" y2="465.25" stroke="black" stroke-width="3" />
  <line x1="434.875" y1="465.25" x2="363.375" y2="465.25" stroke="black" stroke-width="3" />
  <g>
    <path d="M364.872 465.25 A15 10 0 0 0 334.872 465.25 " fill="none" stroke="black" stroke-width="3" />
    <path d="M362.872 467.75 A13 10 0 0 0 336.872 467.75 " fill="none" stroke="Col_BGSand" stroke-width="3" />
    <path d="M365.605 458.925 A18.0076 13 0 0 0 333.872 459.285 " fill="none" stroke="Col_BGSand" stroke-width="3" />
  </g>
  <line x1="336.375" y1="465.25" x2="279.875" y2="465.25" stroke="black" stroke-width="3" />
  <image x="389.875" y="435.25" width="90" height="25" xlink:href="bitwise_tablo_4bits.svg">
    <title>20SAM40AP007</title>
    <rt:dyn type="PointID_1" mode="constant" value="&quot;20SAM40AP007_M0 0&quot;" />
    <rt:dyn type="PointID_2" mode="constant" value="&quot;20SAM40AP007_M0 1&quot;" />
    <rt:dyn type="PointID_3" mode="constant" value="&quot;20SAM40AP007_M0 2&quot;" />
    <rt:dyn type="PointID_4" mode="constant" value="&quot;20SAM40AP007_M0 3&quot;" />
    <rt:dyn type="Text_1000" mode="constant" value="&quot;ÐÅÇÅÐÂ&quot;" />
    <rt:dyn type="Text_0001" mode="constant" value="&quot;ÐÀÁÎ×ÈÉ&quot;" />
    <rt:dyn type="Text_0010" mode="constant" value="&quot;ÐÅÇÅÐÂ&quot;" />
    <rt:dyn type="Text_0100" mode="constant" value="&quot;ÐÅÇÅÐÂ&quot;" />
    <rt:dyn type="Text_0011" mode="constant" value="&quot;&quot;" />
    <rt:dyn type="Text_0101" mode="constant" value="&quot;&quot;" />
    <rt:dyn type="Text_0110" mode="constant" value="&quot;&quot;" />
    <rt:dyn type="Text_0111" mode="constant" value="&quot;&quot;" />
    <rt:dyn type="Text_1001" mode="constant" value="&quot;&quot;" />
    <rt:dyn type="Text_1010" mode="constant" value="&quot;&quot;" />
    <rt:dyn type="Text_1011" mode="constant" value="&quot;&quot;" />
    <rt:dyn type="Text_1100" mode="constant" value="&quot;&quot;" />
    <rt:dyn type="Text_1101" mode="constant" value="&quot;&quot;" />
    <rt:dyn type="Text_1110" mode="constant" value="&quot;&quot;" />
    <rt:dyn type="Text_1111" mode="constant" value="&quot;&quot;" />
    <rt:dyn type="Text_0000" mode="constant" value="&quot;&quot;"/> 
    <rt:dyn type="Color_0000" mode="constant" value="&quot;Col_BGSand&quot;"/>
    <rt:dyn type="Color_0010" mode="constant" value="&quot;Col_Grey3&quot;" />
    <rt:dyn type="Color_0001" mode="constant" value="&quot;Col_Green&quot;" />
    <rt:dyn type="Color_1000" mode="constant" value="&quot;Col_Grey3&quot;" />
    <rt:dyn type="Color_0100" mode="constant" value="&quot;Col_Grey3&quot;" />
  </image>
  <image x="400" y="372" width="70" height="70" xlink:href="TENZOR_motor.svg" transform="rotate(270 0.00012207 0)">
    <title>20SAM40AP007</title>
    <rt:dyn type="DeviceType" mode="constant" value="&quot;pump&quot;" />
    <rt:dyn type="Operate" mode="constant" value="true" />
    <rt:dyn type="KKS" mode="constant" value="&quot;20SAM40AP007&quot;" />
  </image>
  <line x1="1035.08" y1="374.833" x2="950.083" y2="374.833" stroke="black" stroke-width="3" />
  <line x1="1035.08" y1="374.833" x2="1035.08" y2="464.833" stroke="black" stroke-width="3" />
  <line x1="1035.08" y1="464.833" x2="963.583" y2="464.833" stroke="black" stroke-width="3" />
  <g>
    <path d="M965.08 464.833 A15 10 0 0 0 935.08 464.833 " fill="none" stroke="black" stroke-width="3" />
    <path d="M963.08 467.333 A13 10 0 0 0 937.08 467.333 " fill="none" stroke="Col_BGSand" stroke-width="3" />
    <path d="M965.813 458.508 A18.0076 13 0 0 0 934.08 458.868 " fill="none" stroke="Col_BGSand" stroke-width="3" />
  </g>
  <line x1="936.583" y1="464.833" x2="880.083" y2="464.833" stroke="black" stroke-width="3" />
  <image x="990.083" y="434.833" width="90" height="25" xlink:href="bitwise_tablo_4bits.svg">
    <title>20SAM40AP008</title>
    <rt:dyn type="PointID_1" mode="constant" value="&quot;20SAM40AP008_M0 0&quot;" />
    <rt:dyn type="PointID_2" mode="constant" value="&quot;20SAM40AP008_M0 1&quot;" />
    <rt:dyn type="PointID_3" mode="constant" value="&quot;20SAM40AP008_M0 2&quot;" />
    <rt:dyn type="PointID_4" mode="constant" value="&quot;20SAM40AP008_M0 3&quot;" />
    <rt:dyn type="Text_1000" mode="constant" value="&quot;ÐÅÇÅÐÂ&quot;" />
    <rt:dyn type="Text_0001" mode="constant" value="&quot;ÐÀÁÎ×ÈÉ&quot;" />
    <rt:dyn type="Text_0010" mode="constant" value="&quot;ÐÅÇÅÐÂ&quot;" />
    <rt:dyn type="Text_0100" mode="constant" value="&quot;ÐÅÇÅÐÂ&quot;" />
    <rt:dyn type="Text_0011" mode="constant" value="&quot;&quot;" />
    <rt:dyn type="Text_0101" mode="constant" value="&quot;&quot;" />
    <rt:dyn type="Text_0110" mode="constant" value="&quot;&quot;" />
    <rt:dyn type="Text_0111" mode="constant" value="&quot;&quot;" />
    <rt:dyn type="Text_1001" mode="constant" value="&quot;&quot;" />
    <rt:dyn type="Text_1010" mode="constant" value="&quot;&quot;" />
    <rt:dyn type="Text_1011" mode="constant" value="&quot;&quot;" />
    <rt:dyn type="Text_1100" mode="constant" value="&quot;&quot;" />
    <rt:dyn type="Text_1101" mode="constant" value="&quot;&quot;" />
    <rt:dyn type="Text_1110" mode="constant" value="&quot;&quot;" />
    <rt:dyn type="Text_1111" mode="constant" value="&quot;&quot;" />
    <rt:dyn type="Text_0000" mode="constant" value="&quot;&quot;"/> 
    <rt:dyn type="Color_0000" mode="constant" value="&quot;Col_BGSand&quot;"/>
    <rt:dyn type="Color_0010" mode="constant" value="&quot;Col_Grey3&quot;" />
    <rt:dyn type="Color_0001" mode="constant" value="&quot;Col_Green&quot;" />
    <rt:dyn type="Color_1000" mode="constant" value="&quot;Col_Grey3&quot;" />
    <rt:dyn type="Color_0100" mode="constant" value="&quot;Col_Grey3&quot;" />
  </image>
  <image x="1000" y="370" width="70" height="70" xlink:href="TENZOR_motor.svg" transform="rotate(270 0.00012207 0)">
    <title>20SAM40AP008</title>
    <rt:dyn type="DeviceType" mode="constant" value="&quot;pump&quot;" />
    <rt:dyn type="Operate" mode="constant" value="true" />
    <rt:dyn type="KKS" mode="constant" value="&quot;20SAM40AP008&quot;" />
  </image>
  <polygon points="879.5,457 894.5,464.5 879.5,472" fill="black" stroke="black" />
  <text x="854.5" y="470.5" fill="black" font-size="15" text-anchor="middle">GKD</text>
  <rect x="834.5" y="454.5" width="45" height="20" rx="0" ry="0" fill="none" stroke="black" />
  <polygon points="282.833,458.333 297.833,465.833 282.833,473.333" fill="black" stroke="black" />
  <text x="257.833" y="471.833" fill="black" font-size="15" text-anchor="middle">GKD</text>
  <rect x="237.833" y="455.833" width="45" height="20" rx="0" ry="0" fill="none" stroke="black" />
  <image x="822" y="547" width="70" height="65" xlink:href="TENZOR_reg_valve.svg">
    <title>"20SBH04AA209"</title>
    <rt:dyn type="KKS" mode="constant" value="&quot;20SBH04AA209&quot;" />
    <rt:dyn type="Operate" mode="constant" value="true" />
  </image>
  <image x="221" y="546" width="70" height="65" xlink:href="TENZOR_reg_valve.svg">
    <title>"20SBH04AA208"</title>
    <rt:dyn type="KKS" mode="constant" value="&quot;20SBH04AA208&quot;" />
    <rt:dyn type="Operate" mode="constant" value="true" />
  </image>
  <image x="190" y="807.5" width="70" height="65" xlink:href="TENZOR_reg_valve.svg" transform="flipX(6.70552e-006)">
    <title>"20SAM40AA215"</title>
    <rt:dyn type="KKS" mode="constant" value="&quot;20SAM40AA215&quot;" />
    <rt:dyn type="Operate" mode="constant" value="true" />
  </image>
  <image x="365" y="807" width="70" height="65" xlink:href="TENZOR_reg_valve.svg">
    <title>"20SAM40AA207"</title>
    <rt:dyn type="KKS" mode="constant" value="&quot;20SAM40AA207&quot;" />
    <rt:dyn type="Operate" mode="constant" value="true" />
  </image>
  <image x="790" y="807.5" width="70" height="65" xlink:href="TENZOR_reg_valve.svg" transform="flipX(2.65241e-005)">
    <title>"20SAM40AA216"</title>
    <rt:dyn type="KKS" mode="constant" value="&quot;20SAM40AA216&quot;" />
    <rt:dyn type="Operate" mode="constant" value="true" />
  </image>
  <image x="965" y="807.5" width="70" height="65" xlink:href="TENZOR_reg_valve.svg">
    <title>"20SAM40AA208"</title>
    <rt:dyn type="KKS" mode="constant" value="&quot;20SAM40AA208&quot;" />
    <rt:dyn type="Operate" mode="constant" value="true" />
  </image>
  <text x="943" y="44" fill="black" font-size="30" font-weight="700">Ñèñòåìà 20SAM40</text>
  <text x="25" y="50" fill="black" font-size="15" font-weight="700">20UMA 20CXV93</text>
  <image x="400" y="218" width="175" height="25" xlink:href="DS_ana_tenzor.svg">
    <rt:dyn type="FKKS" mode="constant" value="&quot;20SAM40CT014&quot;" />
    <rt:dyn type="FillEntireFrame" mode="constant" value="false" />
    <rt:dyn type="ShowGoodColor" mode="constant" value="true" />
    <rt:dyn type="X" mode="constant" value="&quot;T&quot;" />
    <rt:dyn type="ShowEU" mode="constant" value="true" />
    <title>"20SAM40CT014"</title>
  </image>
  <image x="995" y="217" width="175" height="25" xlink:href="DS_ana_tenzor.svg">
    <rt:dyn type="FKKS" mode="constant" value="&quot;20SAM40CT016&quot;" />
    <rt:dyn type="FillEntireFrame" mode="constant" value="false" />
    <rt:dyn type="ShowGoodColor" mode="constant" value="true" />
    <rt:dyn type="X" mode="constant" value="&quot;T&quot;" />
    <rt:dyn type="ShowEU" mode="constant" value="true" />
    <title>"20SAM40CT016"</title>
  </image>
  <image x="411" y="620" width="175" height="25" xlink:href="DS_ana_tenzor.svg">
    <rt:dyn type="FKKS" mode="constant" value="&quot;20SAM40CT013&quot;" />
    <rt:dyn type="FillEntireFrame" mode="constant" value="false" />
    <rt:dyn type="ShowGoodColor" mode="constant" value="true" />
    <rt:dyn type="X" mode="constant" value="&quot;T&quot;" />
    <rt:dyn type="ShowEU" mode="constant" value="true" />
    <title>"20SAM40CT013"</title>
  </image>
  <image x="43" y="638" width="175" height="25" xlink:href="DS_ana_tenzor.svg">
    <rt:dyn type="FKKS" mode="constant" value="&quot;20SBH04CT008&quot;" />
    <rt:dyn type="FillEntireFrame" mode="constant" value="false" />
    <rt:dyn type="ShowGoodColor" mode="constant" value="true" />
    <rt:dyn type="X" mode="constant" value="&quot;T&quot;" />
    <rt:dyn type="ShowEU" mode="constant" value="true" />
    <title>"20SBH04CT008"</title>
  </image>
  <image x="1010.56" y="619.444" width="175" height="25" xlink:href="DS_ana_tenzor.svg">
    <rt:dyn type="FKKS" mode="constant" value="&quot;20SAM40CT015&quot;" />
    <rt:dyn type="FillEntireFrame" mode="constant" value="false" />
    <rt:dyn type="ShowGoodColor" mode="constant" value="true" />
    <rt:dyn type="X" mode="constant" value="&quot;T&quot;" />
    <rt:dyn type="ShowEU" mode="constant" value="true" />
    <title>"20SAM40CT015"</title>
  </image>
  <image x="643.889" y="638.333" width="175" height="25" xlink:href="DS_ana_tenzor.svg">
    <rt:dyn type="FKKS" mode="constant" value="&quot;20SBH04CT009&quot;" />
    <rt:dyn type="FillEntireFrame" mode="constant" value="false" />
    <rt:dyn type="ShowGoodColor" mode="constant" value="true" />
    <rt:dyn type="X" mode="constant" value="&quot;T&quot;" />
    <rt:dyn type="ShowEU" mode="constant" value="true" />
    <title>"20SBH04CT009"</title>
  </image>
  <image x="575" y="1035.89" width="175" height="25" xlink:href="DS_ana_tenzor.svg">
    <rt:dyn type="FKKS" mode="constant" value="&quot;20SAM40CT029&quot;" />
    <rt:dyn type="FillEntireFrame" mode="constant" value="false" />
    <rt:dyn type="ShowGoodColor" mode="constant" value="true" />
    <rt:dyn type="X" mode="constant" value="&quot;T&quot;" />
    <rt:dyn type="ShowEU" mode="constant" value="true" />
    <title>"20SAM40CT029"</title>
  </image>
</svg>
