<?xml  version="1.0" encoding="windows-1251"?>
<svg color="Col_BGSand" xmlns="http://www.w3.org/2000/svg" xmlns:rt="http://www.rts.co.at/2001/XMLSchema/RtSvgPL" xmlns:xlink="http://www.w3.org/1999/xlink" xmlns:xsi="http://www.w3.org/2001/XMLSchema-instance" xsi:schemaLocation="http://www.w3.org/2000/svg C:\RTS\RtSvg\XML\SVG.xsd" viewBox="0 0 1920 1080" width="1920" height="1080" id="25sac35_55" fill="Col_Grey3">
  <title>Ñèñòåìû 25SAC35, 25SAC55</title>
  <rt:model modelversion="7.2.0.24" comment="UMod all_20uba" revision="4.1"/> 
  <g>
    <polyline points="529.041,1090.59 579.087,1091.97 577.726,1140.89 528.791,1140.65 529.199,1090.75" fill="Col_BGSand" stroke="black" stroke-width="3" transform="rotate(44.0618 1325.51 325.508)"/> 
  </g>
  <line x1="298" y1="433" x2="298" y2="433" stroke="black"/> 
  <line x1="344" y1="425" x2="342" y2="0"/> 
  <line x1="592.727" y1="690.909" x2="592.727" y2="690.909" stroke="black"/> 
  <line x1="749.091" y1="939.091" x2="749.091" y2="939.091" stroke="black"/> 
  <line x1="638.182" y1="881.818" x2="638.182" y2="881.818" stroke="black"/> 
  <line x1="214.545" y1="692.727" x2="214.545" y2="692.727" stroke="black"/> 
  <line x1="259.091" y1="771.818" x2="259.091" y2="771.818" stroke="black"/> 
  <line x1="195.455" y1="720" x2="195.455" y2="720" stroke="black"/> 
  <line x1="186.364" y1="713.636" x2="186.364" y2="713.636" stroke="black"/> 
  <line x1="191.818" y1="715.455" x2="191.818" y2="715.455" stroke="black"/> 
  <line x1="985.455" y1="149.091" x2="985.455" y2="149.091" stroke="black"/> 
  <line x1="1150" y1="365" x2="1150" y2="365" stroke="black"/> 
  <line x1="1274" y1="337" x2="1274" y2="337" stroke="black"/> 
  <line x1="1029" y1="375" x2="1029" y2="375" stroke="black"/> 
  <line x1="1215.33" y1="421.333" x2="1215.33" y2="421.333" stroke="black"/> 
  <line x1="1007" y1="314.75" x2="1007" y2="314.75" stroke="black"/> 
  <line x1="1027.27" y1="820" x2="1027.27" y2="820" stroke="black"/> 
  <line x1="675" y1="65" x2="675" y2="65" stroke="black"/> 
  <line x1="1468" y1="294" x2="1468" y2="294" stroke="black"/> 
  <line x1="1066.67" y1="766" x2="1066.67" y2="766" stroke="black"/> 
  <line x1="783.669" y1="851.456" x2="783.669" y2="851.456" stroke="black"/> 
  <line x1="410" y1="913" x2="410" y2="913" stroke="black"/> 
  <line x1="398" y1="872" x2="398" y2="872" stroke="black"/> 
  <line x1="841" y1="753" x2="841" y2="753" stroke="black"/> 
  <line x1="1396" y1="754" x2="1396" y2="754" stroke="black"/> 
  <line x1="1369" y1="798" x2="1369" y2="798" stroke="black"/> 
  <line x1="438" y1="1031" x2="438" y2="1031" stroke="black"/> 
  <line x1="419" y1="1033" x2="419" y2="1033" stroke="black"/> 
  <line x1="835" y1="706" x2="835" y2="706" stroke="black"/> 
  <line x1="254.697" y1="145.454" x2="254.697" y2="145.454" stroke="black"/> 
  <line x1="366.818" y1="892.423" x2="366.818" y2="892.423" stroke="black"/> 
  <text x="25" y="25" fill="black" font-size="15" font-weight="700">25SAC35_55</text>
  <line x1="1215.33" y1="606" x2="1215.33" y2="606" stroke="black"/> 
  <line x1="206" y1="73.3334" x2="206" y2="223.333" stroke="black" stroke-width="3"/> 
  <line x1="221.169" y1="270.338" x2="221.002" y2="322.838" stroke="black" stroke-width="3"/> 
  <image x="266" y="238.333" width="90" height="23.3333" xlink:href="bitwise_tablo_4bits.svg">
    <title>25SAC55AN001</title>
    <rt:dyn type="PointID_1" mode="constant" value="&quot;25SAC55AN001_M0 0&quot;"/> 
    <rt:dyn type="PointID_2" mode="constant" value="&quot;25SAC55AN001_M0 1&quot;"/> 
    <rt:dyn type="PointID_3" mode="constant" value="&quot;25SAC55AN001_M0 2&quot;"/> 
    <rt:dyn type="PointID_4" mode="constant" value="&quot;25SAC55AN001_M0 3&quot;"/> 
    <rt:dyn type="Text_1000" mode="constant" value="&quot;ÐÅÇÅÐÂ&quot;"/> 
    <rt:dyn type="Text_0001" mode="constant" value="&quot;ÐÀÁÎ×ÈÉ&quot;"/> 
    <rt:dyn type="Text_0010" mode="constant" value="&quot;ÐÅÇÅÐÂ&quot;"/> 
    <rt:dyn type="Text_0100" mode="constant" value="&quot;ÐÅÇÅÐÂ&quot;"/> 
    <rt:dyn type="Text_0011" mode="constant" value="&quot;&quot;"/> 
    <rt:dyn type="Text_0101" mode="constant" value="&quot;&quot;"/> 
    <rt:dyn type="Text_0110" mode="constant" value="&quot;&quot;"/> 
    <rt:dyn type="Text_0111" mode="constant" value="&quot;&quot;"/> 
    <rt:dyn type="Text_1001" mode="constant" value="&quot;&quot;"/> 
    <rt:dyn type="Text_1010" mode="constant" value="&quot;&quot;"/> 
    <rt:dyn type="Text_1011" mode="constant" value="&quot;&quot;"/> 
    <rt:dyn type="Text_1100" mode="constant" value="&quot;&quot;"/> 
    <rt:dyn type="Text_1101" mode="constant" value="&quot;&quot;"/> 
    <rt:dyn type="Text_1110" mode="constant" value="&quot;&quot;"/> 
    <rt:dyn type="Text_1111" mode="constant" value="&quot;&quot;"/> 
    <rt:dyn type="Text_0000" mode="constant" value="&quot;&quot;"/> 
    <rt:dyn type="Color_0000" mode="constant" value="&quot;Col_BGSand&quot;"/> 
    <rt:dyn type="Color_0010" mode="constant" value="&quot;Col_Grey3&quot;"/> 
    <rt:dyn type="Color_0001" mode="constant" value="&quot;Col_Green&quot;"/> 
    <rt:dyn type="Color_1000" mode="constant" value="&quot;Col_Grey3&quot;"/> 
    <rt:dyn type="Color_0100" mode="constant" value="&quot;Col_Grey3&quot;"/> 
  </image>
  <text x="148.5" y="248.333" fill="black" font-size="15" text-anchor="middle">25SAC55<tspan x="148.5" dy="15">AN001</tspan>
  </text>
  <line x1="204.669" y1="338.843" x2="204.502" y2="376.838" stroke="black" stroke-width="3"/> 
  <line x1="237.669" y1="337.345" x2="238.002" y2="375.338" stroke="black" stroke-width="3"/> 
  <line x1="221.833" y1="390.333" x2="221.666" y2="421.333" stroke="black" stroke-width="3"/> 
  <rect x="71.6932" y="567.74" width="50" height="50" rx="0" ry="0" fill="Col_BGSand" stroke="black" transform="rotate(45 325 675)"/> 
  <line x1="186.736" y1="455.396" x2="256.736" y2="455.396" stroke="black"/> 
  <polygon points="202.776,461.385 187.446,455.717 202.776,450.05" fill="black" stroke="black"/> 
  <polygon points="445.277,461.385 429.944,455.717 445.277,450.05" fill="black" stroke="black" transform="flipX(342.722)"/> 
  <line x1="285.663" y1="431.333" x2="233.666" y2="431.333" stroke="black" stroke-width="3"/> 
  <line x1="363.666" y1="431.333" x2="335.666" y2="431.333" stroke="black" stroke-width="3"/> 
  <line x1="361.833" y1="430.333" x2="361.666" y2="467.833" stroke="black" stroke-width="3"/> 
  <polygon points="392.169,515.291 376.836,509.623 392.169,503.956" fill="black" stroke="black" transform="rotate(90 349.775 521.5) flipX(342.722)"/> 
  <text x="103.666" y="367.833" fill="black" font-size="15">20QKC01<tspan x="103.666" dy="15">AA009</tspan>
  </text>
  <image x="97.1662" y="388.833" width="70" height="65" xlink:href="TENZOR_CO_valve.svg">
    <title>20QKC01AA009</title>
    <rt:dyn type="KKS" mode="constant" value="&quot;20QKC01AA009&quot;"/> 
    <rt:dyn type="Operate" mode="constant" value="true"/> 
  </image>
  <line x1="208.666" y1="431.333" x2="156.67" y2="431.333" stroke="black" stroke-width="3"/> 
  <line x1="108.666" y1="430.333" x2="80.6662" y2="430.333" stroke="black" stroke-width="3"/> 
  <line x1="80.5669" y1="430.491" x2="80.3999" y2="467.991" stroke="black" stroke-width="3"/> 
  <polygon points="302.638,874.328 287.305,868.66 302.638,862.993" fill="black" stroke="black" transform="rotate(180 41.5 518.174) rotate(90 349.775 521.5) flipX(342.722)"/> 
  <line x1="221.767" y1="489.333" x2="221.767" y2="569.833" stroke="black" stroke-width="3"/> 
  <line x1="287.764" y1="581.333" x2="235.767" y2="581.333" stroke="black" stroke-width="3"/> 
  <line x1="489" y1="579.833" x2="461" y2="579.833" stroke="black" stroke-width="3"/> 
  <line x1="487.167" y1="578.833" x2="487" y2="616.333" stroke="black" stroke-width="3"/> 
  <polygon points="243.669,389.957 228.336,384.289 243.669,378.622" fill="black" stroke="black" transform="rotate(90 349.775 521.5) flipX(342.722)"/> 
  <text x="99" y="617.5" fill="black" font-size="15">20SBC03<tspan x="99" dy="15">AA009</tspan>
  </text>
  <line x1="207.767" y1="581.833" x2="155.77" y2="581.833" stroke="black" stroke-width="3"/> 
  <line x1="106.6" y1="581.984" x2="78.6002" y2="581.984" stroke="black" stroke-width="3"/> 
  <line x1="79.6669" y1="580.992" x2="79.4999" y2="618.492" stroke="black" stroke-width="3"/> 
  <image x="97.7665" y="539.833" width="70" height="65" xlink:href="TENZOR_CO_valve.svg">
    <title>20SBC03AA009</title>
    <rt:dyn type="KKS" mode="constant" value="&quot;20SBC03AA009&quot;"/> 
    <rt:dyn type="Operate" mode="constant" value="true"/> 
  </image>
  <text x="90" y="495.5" fill="black" font-size="15">25SAC55AC001</text>
  <text x="236" y="645.5" fill="black" font-size="15">25SAC55AH001</text>
  <line x1="221.767" y1="637.833" x2="221.767" y2="718.333" stroke="black" stroke-width="3"/> 
  <rect x="282.481" y="779.094" width="50" height="50" rx="0" ry="0" fill="Col_BGSand" stroke="black" transform="rotate(45 325 675)"/> 
  <line x1="186.337" y1="753.895" x2="256.337" y2="753.895" stroke="black" stroke-dasharray="5,5"/> 
  <text x="146.5" y="948.333" fill="black" font-size="15" text-anchor="middle">25SAC55<tspan x="146.5" dy="15">AA001</tspan>
  </text>
  <line x1="220.167" y1="961.333" x2="220.167" y2="995.833" stroke="black" stroke-width="3"/> 
  <line x1="226.617" y1="997.443" x2="213" y2="997.443" stroke="black" stroke-width="3"/> 
  <rect x="231.667" y="-61.6667" width="0.1" height="0.1" rx="0" ry="0"/> 
  <image x="775" y="386" width="181.818" height="24.2424" xlink:href="bitwise_tablo_4bits.svg">
    <title>25SAC55AN001002</title>
    <rt:dyn type="PointID_1" mode="constant" value="&quot;25SAC55AN001002_Z0 0&quot;"/> 
    <rt:dyn type="Text_0001" mode="constant" value="&quot;ÀÂÐ ÍÅ ÃÎÒÎÂ&quot;"/> 
    <rt:dyn type="Text_0000" mode="constant" value="&quot;ÀÂÐ ÄÈÑÒ&quot;"/> 
    <rt:dyn type="Color_0010" mode="constant" value="&quot;Col_Yellow&quot;"/> 
    <rt:dyn type="Color_0001" mode="constant" value="&quot;Col_Green&quot;"/> 
    <rt:dyn type="Text_0010" mode="constant" value="&quot;ÀÂÐ ÃÎÒÎÂ&quot;"/> 
    <rt:dyn type="PointID_2" mode="constant" value="&quot;25SAC55AN001002_Z0 1&quot;"/> 
    <rt:dyn type="PointID_3" mode="constant" value="&quot;25SAC55AN001002_Z0 2&quot;"/> 
    <rt:dyn type="PointID_4" mode="constant" value="&quot;25SAC55AN001002_Z0 3&quot;"/> 
    <rt:dyn type="Text_0100" mode="constant" value="&quot;ÀÂÐ ÑÐÀÁÎÒÀË&quot;"/> 
    <rt:dyn type="Color_0100" mode="constant" value="&quot;Col_Red&quot;"/> 
    <rt:dyn type="Color_0000" mode="constant" value="&quot;Col_Grey3&quot;"/> 
  </image>
  <line x1="221.5" y1="787.333" x2="220" y2="889.333" stroke="black" stroke-width="3"/> 
  <line x1="366" y1="806.333" x2="222" y2="807.333" stroke="black" stroke-width="3"/> 
  <line x1="220" y1="889.356" x2="220" y2="938.333" stroke="black" stroke-width="3"/> 
  <polygon points="452.929,872.828 437.596,867.16 452.929,861.493" fill="black" stroke="black" transform="rotate(180 41.5 518.174) rotate(90 349.775 521.5) flipX(342.722)"/> 
  <polygon points="834.488,1014.27 819.155,1008.61 834.488,1002.94" fill="black" stroke="black" transform="rotate(180 41.5 518.174) rotate(90 349.775 521.5) flipX(342.722)"/> 
  <line x1="631" y1="807.333" x2="414.51" y2="806.833" stroke="black" stroke-width="3"/> 
  <line x1="633.5" y1="297" x2="633" y2="973.333" stroke="black" stroke-width="3"/> 
  <image x="186" y="923.333" width="70" height="45" xlink:href="TENZOR_pivot_valve.svg">
    <title>25SAC55AA001</title>
    <rt:dyn type="KKS" mode="constant" value="&quot;25SAC55AA001&quot;"/> 
    <rt:dyn type="Operate" mode="constant" value="true"/> 
  </image>
  <line x1="641" y1="973.333" x2="627.383" y2="973.333" stroke="black" stroke-width="3"/> 
  <polygon points="-119.831,242.61 -135.164,236.942 -119.831,231.275" fill="black" stroke="black" transform="rotate(90 349.775 521.5) flipX(342.722)"/> 
  <text x="114.167" y="1035" fill="black" font-size="15" text-anchor="middle">20UBA30R002</text>
  <line x1="618" y1="200" x2="617.5" y2="275" stroke="black" stroke-width="3"/> 
  <image x="655" y="188" width="70" height="70" xlink:href="TENZOR_motor.svg" transform="rotate(180 -35.9998 36.0001) rotate(270 0.00012207 0)">
    <title>25SAC35AN001</title>
    <rt:dyn type="DeviceType" mode="constant" value="&quot;fan&quot;"/> 
    <rt:dyn type="Operate" mode="constant" value="true"/> 
    <rt:dyn type="KKS" mode="constant" value="&quot;25SAC35AN001&quot;"/> 
  </image>
  <image x="186" y="213.333" width="70" height="70" xlink:href="TENZOR_motor.svg" transform="rotate(270 0.00012207 0)">
    <title>25SAC55AN001</title>
    <rt:dyn type="DeviceType" mode="constant" value="&quot;fan&quot;"/> 
    <rt:dyn type="Operate" mode="constant" value="true"/> 
    <rt:dyn type="KKS" mode="constant" value="&quot;25SAC55AN001&quot;"/> 
  </image>
  <line x1="625" y1="200" x2="611.383" y2="200" stroke="black" stroke-width="3"/> 
  <polygon points="674.669,259.057 659.336,253.389 674.669,247.722" fill="black" stroke="black" transform="rotate(90 349.775 521.5) flipX(342.722)"/> 
  <rect x="382" y="81" width="293" height="139" rx="0" ry="0" fill="none" stroke="black" stroke-dasharray="5,5"/> 
  <line x1="427.117" y1="113.5" x2="413.5" y2="113.5" stroke="black" stroke-width="3"/> 
  <polygon points="740.002,456.493 724.669,450.825 740.002,445.158" fill="black" stroke="black" transform="rotate(90 349.775 521.5) flipX(342.722)"/> 
  <line x1="420" y1="75" x2="420" y2="114" stroke="black" stroke-width="3"/> 
  <g>
    <polyline points="1373.38,273.455 1423.43,274.835 1422.07,323.755 1373.13,323.516 1373.54,273.615" fill="Col_BGSand" stroke="black" stroke-width="3" transform="rotate(44.0618 1325.51 325.508)"/> 
  </g>
  <line x1="1381" y1="73.3333" x2="1381" y2="223.333" stroke="black" stroke-width="3"/> 
  <line x1="1396.17" y1="270.338" x2="1396" y2="322.838" stroke="black" stroke-width="3"/> 
  <image x="1260" y="238.333" width="90" height="23.3333" xlink:href="bitwise_tablo_4bits.svg">
    <title>25SAC55AN002</title>
    <rt:dyn type="PointID_1" mode="constant" value="&quot;25SAC55AN002_M0 0&quot;"/> 
    <rt:dyn type="PointID_2" mode="constant" value="&quot;25SAC55AN002_M0 1&quot;"/> 
    <rt:dyn type="PointID_3" mode="constant" value="&quot;25SAC55AN002_M0 2&quot;"/> 
    <rt:dyn type="PointID_4" mode="constant" value="&quot;25SAC55AN002_M0 3&quot;"/> 
    <rt:dyn type="Text_1000" mode="constant" value="&quot;ÐÅÇÅÐÂ&quot;"/> 
    <rt:dyn type="Text_0001" mode="constant" value="&quot;ÐÀÁÎ×ÈÉ&quot;"/> 
    <rt:dyn type="Text_0010" mode="constant" value="&quot;ÐÅÇÅÐÂ&quot;"/> 
    <rt:dyn type="Text_0100" mode="constant" value="&quot;ÐÅÇÅÐÂ&quot;"/> 
    <rt:dyn type="Text_0011" mode="constant" value="&quot;&quot;"/> 
    <rt:dyn type="Text_0101" mode="constant" value="&quot;&quot;"/> 
    <rt:dyn type="Text_0110" mode="constant" value="&quot;&quot;"/> 
    <rt:dyn type="Text_0111" mode="constant" value="&quot;&quot;"/> 
    <rt:dyn type="Text_1001" mode="constant" value="&quot;&quot;"/> 
    <rt:dyn type="Text_1010" mode="constant" value="&quot;&quot;"/> 
    <rt:dyn type="Text_1011" mode="constant" value="&quot;&quot;"/> 
    <rt:dyn type="Text_1100" mode="constant" value="&quot;&quot;"/> 
    <rt:dyn type="Text_1101" mode="constant" value="&quot;&quot;"/> 
    <rt:dyn type="Text_1110" mode="constant" value="&quot;&quot;"/> 
    <rt:dyn type="Text_1111" mode="constant" value="&quot;&quot;"/> 
    <rt:dyn type="Text_0000" mode="constant" value="&quot;&quot;"/> 
    <rt:dyn type="Color_0000" mode="constant" value="&quot;Col_BGSand&quot;"/> 
    <rt:dyn type="Color_0010" mode="constant" value="&quot;Col_Grey3&quot;"/> 
    <rt:dyn type="Color_0001" mode="constant" value="&quot;Col_Green&quot;"/> 
    <rt:dyn type="Color_1000" mode="constant" value="&quot;Col_Grey3&quot;"/> 
    <rt:dyn type="Color_0100" mode="constant" value="&quot;Col_Grey3&quot;"/> 
  </image>
  <text x="1464" y="250" fill="black" font-size="15" text-anchor="middle">25SAC55<tspan x="1464" dy="15">AN002</tspan>
  </text>
  <line x1="1379.67" y1="338.843" x2="1379.5" y2="376.838" stroke="black" stroke-width="3"/> 
  <line x1="1412.67" y1="337.345" x2="1413" y2="375.338" stroke="black" stroke-width="3"/> 
  <line x1="1396.83" y1="390.333" x2="1396.67" y2="421.333" stroke="black" stroke-width="3"/> 
  <rect x="902.543" y="-263.11" width="50" height="50" rx="0" ry="0" fill="Col_BGSand" stroke="black" transform="rotate(45 325 675)"/> 
  <line x1="1361.74" y1="455.396" x2="1431.74" y2="455.396" stroke="black"/> 
  <polygon points="1377.78,461.385 1362.45,455.717 1377.78,450.05" fill="black" stroke="black"/> 
  <polygon points="-729.723,461.385 -745.056,455.717 -729.723,450.05" fill="black" stroke="black" transform="flipX(342.722)"/> 
  <line x1="1460.66" y1="431.333" x2="1408.67" y2="431.333" stroke="black" stroke-width="3"/> 
  <line x1="1538.67" y1="431.333" x2="1510.67" y2="431.333" stroke="black" stroke-width="3"/> 
  <line x1="1536.83" y1="430.333" x2="1536.67" y2="467.833" stroke="black" stroke-width="3"/> 
  <polygon points="392.169,-659.709 376.836,-665.377 392.169,-671.044" fill="black" stroke="black" transform="rotate(90 349.775 521.5) flipX(342.722)"/> 
  <text x="1272.67" y="366.667" fill="black" font-size="15">20QKC01<tspan x="1272.67" dy="15">AA010</tspan>
  </text>
  <image x="1272.17" y="388.833" width="70" height="65" xlink:href="TENZOR_CO_valve.svg">
    <title>20QKC01AA010</title>
    <rt:dyn type="KKS" mode="constant" value="&quot;20QKC01AA010&quot;"/> 
    <rt:dyn type="Operate" mode="constant" value="true"/> 
  </image>
  <line x1="1383.67" y1="431.333" x2="1331.67" y2="431.333" stroke="black" stroke-width="3"/> 
  <line x1="1283.67" y1="430.333" x2="1255.67" y2="430.333" stroke="black" stroke-width="3"/> 
  <line x1="1255.57" y1="430.491" x2="1255.4" y2="467.991" stroke="black" stroke-width="3"/> 
  <polygon points="302.638,2049.33 287.305,2043.66 302.638,2037.99" fill="black" stroke="black" transform="rotate(180 41.5 518.174) rotate(90 349.775 521.5) flipX(342.722)"/> 
  <line x1="1396.77" y1="489.333" x2="1396.77" y2="569.833" stroke="black" stroke-width="3"/> 
  <line x1="1462.76" y1="581.333" x2="1410.77" y2="581.333" stroke="black" stroke-width="3"/> 
  <line x1="1664" y1="579.833" x2="1636" y2="579.833" stroke="black" stroke-width="3"/> 
  <line x1="1662.17" y1="578.833" x2="1662" y2="616.333" stroke="black" stroke-width="3"/> 
  <polygon points="243.669,-785.043 228.336,-790.711 243.669,-796.378" fill="black" stroke="black" transform="rotate(90 349.775 521.5) flipX(342.722)"/> 
  <text x="1275" y="617.5" fill="black" font-size="15">20SBC03<tspan x="1275" dy="15">AA010</tspan>
  </text>
  <line x1="1382.77" y1="581.833" x2="1330.77" y2="581.833" stroke="black" stroke-width="3"/> 
  <line x1="1281.6" y1="581.984" x2="1253.6" y2="581.984" stroke="black" stroke-width="3"/> 
  <line x1="1254.67" y1="580.992" x2="1254.5" y2="618.492" stroke="black" stroke-width="3"/> 
  <image x="1272.77" y="539.833" width="70" height="65" xlink:href="TENZOR_CO_valve.svg">
    <title>20SBC03AA010</title>
    <rt:dyn type="KKS" mode="constant" value="&quot;20SBC03AA010&quot;"/> 
    <rt:dyn type="Operate" mode="constant" value="true"/> 
  </image>
  <text x="1262" y="491.5" fill="black" font-size="15">25SAC55AC002</text>
  <text x="1415" y="642.5" fill="black" font-size="15">25SAC55AH002</text>
  <line x1="1396.77" y1="637.833" x2="1396.77" y2="718.333" stroke="black" stroke-width="3"/> 
  <rect x="1113.33" y="-51.7563" width="50" height="50" rx="0" ry="0" fill="Col_BGSand" stroke="black" transform="rotate(45 325 675)"/> 
  <line x1="1361.34" y1="753.895" x2="1431.34" y2="753.895" stroke="black" stroke-dasharray="5,5"/> 
  <text x="1326.5" y="947.5" fill="black" font-size="15" text-anchor="middle">25SAC55<tspan x="1326.5" dy="15">AA002</tspan>
  </text>
  <line x1="1395.17" y1="961.333" x2="1395.17" y2="995.833" stroke="black" stroke-width="3"/> 
  <line x1="1401.62" y1="997.443" x2="1388" y2="997.443" stroke="black" stroke-width="3"/> 
  <line x1="1396.5" y1="787.333" x2="1395" y2="889.333" stroke="black" stroke-width="3"/> 
  <line x1="1165" y1="1038.33" x2="581" y2="1040.83" stroke="black" stroke-width="3"/> 
  <line x1="1395" y1="889.356" x2="1395" y2="938.333" stroke="black" stroke-width="3"/> 
  <polygon points="452.929,2047.83 437.596,2042.16 452.929,2036.49" fill="black" stroke="black" transform="rotate(180 41.5 518.174) rotate(90 349.775 521.5) flipX(342.722)"/> 
  <polygon points="834.488,2189.27 819.155,2183.61 834.488,2177.94" fill="black" stroke="black" transform="rotate(180 41.5 518.174) rotate(90 349.775 521.5) flipX(342.722)"/> 
  <image x="1361" y="923.333" width="70" height="45" xlink:href="TENZOR_pivot_valve.svg">
    <title>25SAC55AA002</title>
    <rt:dyn type="KKS" mode="constant" value="&quot;25SAC55AA002&quot;"/> 
    <rt:dyn type="Operate" mode="constant" value="true"/> 
  </image>
  <text x="1289.17" y="1035" fill="black" font-size="15" text-anchor="middle">20UBA37R002</text>
  <image x="1361" y="213.333" width="70" height="70" xlink:href="TENZOR_motor.svg" transform="rotate(270 0.00012207 0)">
    <title>25SAC55AN002</title>
    <rt:dyn type="DeviceType" mode="constant" value="&quot;fan&quot;"/> 
    <rt:dyn type="Operate" mode="constant" value="true"/> 
    <rt:dyn type="KKS" mode="constant" value="&quot;25SAC55AN002&quot;"/> 
  </image>
  <line x1="1082.17" y1="301" x2="1081.67" y2="977.333" stroke="black" stroke-width="3"/> 
  <line x1="1089.67" y1="977.333" x2="1076.05" y2="977.333" stroke="black" stroke-width="3"/> 
  <polygon points="-123.831,-205.443 -139.164,-211.111 -123.831,-216.778" fill="black" stroke="black" transform="rotate(90 349.775 521.5) flipX(342.722)"/> 
  <line x1="1066.67" y1="204" x2="1066.17" y2="279" stroke="black" stroke-width="3"/> 
  <image x="1103.67" y="192" width="70" height="70" xlink:href="TENZOR_motor.svg" transform="rotate(180 -35.9998 36.0001) rotate(270 0.00012207 0)">
    <title>25SAC35AN002</title>
    <rt:dyn type="DeviceType" mode="constant" value="&quot;fan&quot;"/> 
    <rt:dyn type="Operate" mode="constant" value="true"/> 
    <rt:dyn type="KKS" mode="constant" value="&quot;25SAC35AN002&quot;"/> 
  </image>
  <line x1="1073.67" y1="204" x2="1060.05" y2="204" stroke="black" stroke-width="3"/> 
  <polygon points="670.669,-189.609 655.336,-195.277 670.669,-200.944" fill="black" stroke="black" transform="rotate(90 349.775 521.5) flipX(342.722)"/> 
  <line x1="1225" y1="807" x2="1081" y2="808" stroke="black" stroke-width="3"/> 
  <line x1="1398.36" y1="809" x2="1233" y2="810" stroke="black" stroke-width="3"/> 
  <rect x="982" y="86" width="293" height="139" rx="0" ry="0" fill="none" stroke="black" stroke-dasharray="5,5"/> 
  <line x1="1180.62" y1="110.49" x2="1167" y2="110.49" stroke="black" stroke-width="3"/> 
  <polygon points="743.012,-297.007 727.679,-302.675 743.012,-308.342" fill="black" stroke="black" transform="rotate(90 349.775 521.5) flipX(342.722)"/> 
  <line x1="1175" y1="75" x2="1173.5" y2="110.99" stroke="black" stroke-width="3"/> 
  <text x="592.5" y="100" fill="black" font-size="15" text-anchor="middle">20UBA25R001</text>
  <text x="1050" y="109.5" fill="black" font-size="15" text-anchor="middle">20UBA25R002</text>
  <line x1="1380" y1="75" x2="207" y2="75" stroke="black" stroke-width="3"/> 
  <rect x="43.3332" y="986.667" width="551.667" height="73.3333" rx="0" ry="0" fill="none" stroke="black" stroke-dasharray="5,5"/> 
  <rect x="1150" y="985" width="337.166" height="72.1667" rx="0" ry="0" fill="none" stroke="black" stroke-dasharray="5,5"/> 
  <text x="1135" y="293.333" fill="black" font-size="15" text-anchor="middle">25SAC35<tspan x="1135" dy="15">AN002</tspan>
  </text>
  <text x="550.833" y="290" fill="black" font-size="15" text-anchor="middle">25SAC35<tspan x="550.833" dy="15">AN001</tspan>
  </text>
  <line x1="1066.67" y1="250" x2="616.667" y2="250" stroke="black" stroke-width="3"/> 
  <text x="1567.5" y="1018.33" fill="black" font-size="15" text-anchor="middle">Íàðóæíûé<tspan x="1567.5" dy="15">âîçäóõ</tspan>
  </text>
  <line x1="1406.62" y1="-77.557" x2="1393" y2="-77.557" stroke="black" stroke-width="3"/> 
  <polygon points="-240.512,2194.27 -255.845,2188.61 -240.512,2182.94" fill="black" stroke="black" transform="rotate(180 41.5 518.174) rotate(90 349.775 521.5) flipX(342.722)"/> 
  <line x1="1454.31" y1="1020.51" x2="1440.69" y2="1020.51" stroke="black" stroke-width="3" transform="rotate(270 1462.81 1015.5)"/> 
  <polygon points="861.367,2251.77 846.034,2246.11 861.367,2240.44" fill="black" stroke="black" transform="rotate(270 1456.95 1032.22) rotate(180 41.5 518.174) rotate(90 349.775 521.5) flipX(342.722)"/> 
  <line x1="1453.31" y1="1051.69" x2="1439.69" y2="1051.69" stroke="black" stroke-width="3" transform="rotate(270 1462.81 1015.5)"/> 
  <polygon points="912.867,2250.73 897.534,2245.07 912.867,2239.4" fill="black" stroke="black" transform="rotate(270 1456.95 1032.22) rotate(180 41.5 518.174) rotate(90 349.775 521.5) flipX(342.722)"/> 
  <line x1="1446.93" y1="719.69" x2="1433.31" y2="719.69" stroke="black" stroke-width="3" transform="rotate(270 1462.81 1015.5)"/> 
  <polygon points="581.424,2245.23 566.091,2239.57 581.424,2233.9" fill="black" stroke="black" transform="rotate(270 1456.95 1032.22) rotate(180 41.5 518.174) rotate(90 349.775 521.5) flipX(342.722)"/> 
  <line x1="1444.81" y1="129.512" x2="1431.19" y2="129.512" stroke="black" stroke-width="3" transform="rotate(270 1462.81 1015.5)"/> 
  <polygon points="-29.6334,2241.77 -44.9664,2236.11 -29.6334,2230.44" fill="black" stroke="black" transform="rotate(270 1456.95 1032.22) rotate(180 41.5 518.174) rotate(90 349.775 521.5) flipX(342.722)"/> 
  <line x1="1498" y1="1032" x2="1470" y2="1032" stroke="black" stroke-width="3"/> 
  <text x="804" y="103" fill="black" font-size="15" text-anchor="middle">20UBA37R001</text>
  <g transform="scale(0.765552 0.765552 609.241 429.584)">
    <rect x="50.3524" y="81.8594" width="66.8757" height="34.9577" rx="0" ry="0" fill="Col_BGSand" stroke="black"/> 
    <polygon points="86.2784,82.0294 51.1694,116.637 82.0154,116.386 116.432,82.0384" fill="Col_Grey2" stroke="black"/> 
  </g>
  <g transform="scale(0.765552 0.765552 609.241 429.584)">
    <rect x="608.12" y="366.621" width="66.8757" height="34.9577" rx="0" ry="0" fill="Col_BGSand" stroke="black"/> 
    <polygon points="644.046,366.791 608.937,401.399 639.783,401.148 674.199,366.8" fill="Col_Grey2" stroke="black"/> 
  </g>
  <g transform="scale(0.765552 0.765552 609.241 429.584)">
    <rect x="1194.62" y="367.928" width="66.8757" height="34.9577" rx="0" ry="0" fill="Col_BGSand" stroke="black"/> 
    <polygon points="1230.55,368.098 1195.44,402.705 1226.29,402.454 1260.7,368.107" fill="Col_Grey2" stroke="black"/> 
  </g>
  <g transform="scale(0.765552 0.765552 609.241 429.584)">
    <rect x="1585.19" y="80.5532" width="66.8757" height="34.9577" rx="0" ry="0" fill="Col_BGSand" stroke="black"/> 
    <polygon points="1621.12,80.7232 1586.01,115.331 1616.86,115.08 1651.27,80.7322" fill="Col_Grey2" stroke="black"/> 
  </g>
  <image x="278.583" y="363" width="65" height="25" xlink:href="DS_Reg_degree.svg">
    <title>20QKC11AA209</title>
    <rt:dyn type="KKS" mode="constant" value="&quot;20QKC11AA209&quot;"/> 
    <rt:dyn type="SIGNAL" mode="constant" value="&quot;XQ54&quot;"/> 
    <rt:dyn type="ShowFrame" mode="constant" value="true"/> 
  </image>
  <image x="359" y="739" width="65" height="25" xlink:href="DS_Reg_degree.svg">
    <title>25SAC55AA203</title>
    <rt:dyn type="KKS" mode="constant" value="&quot;25SAC55AA203&quot;"/> 
    <rt:dyn type="SIGNAL" mode="constant" value="&quot;XQ54&quot;"/> 
    <rt:dyn type="ShowFrame" mode="constant" value="true"/> 
  </image>
  <image x="146" y="816" width="65" height="25" xlink:href="DS_Reg_degree.svg">
    <title>25SAC55AA201</title>
    <rt:dyn type="KKS" mode="constant" value="&quot;25SAC55AA201&quot;"/> 
    <rt:dyn type="SIGNAL" mode="constant" value="&quot;XQ54&quot;"/> 
    <rt:dyn type="ShowFrame" mode="constant" value="true"/> 
  </image>
  <image x="548" y="850" width="65" height="25" xlink:href="DS_Reg_degree.svg">
    <title>25SAC35AA201</title>
    <rt:dyn type="KKS" mode="constant" value="&quot;25SAC35AA201&quot;"/> 
    <rt:dyn type="SIGNAL" mode="constant" value="&quot;XQ54&quot;"/> 
    <rt:dyn type="ShowFrame" mode="constant" value="true"/> 
  </image>
  <image x="1004" y="844" width="65" height="25" xlink:href="DS_Reg_degree.svg">
    <title>25SAC35AA202</title>
    <rt:dyn type="KKS" mode="constant" value="&quot;25SAC35AA202&quot;"/> 
    <rt:dyn type="SIGNAL" mode="constant" value="&quot;XQ54&quot;"/> 
    <rt:dyn type="ShowFrame" mode="constant" value="true"/> 
  </image>
  <image x="1185" y="742" width="65" height="25" xlink:href="DS_Reg_degree.svg">
    <title>25SAC55AA204</title>
    <rt:dyn type="KKS" mode="constant" value="&quot;25SAC55AA204&quot;"/> 
    <rt:dyn type="SIGNAL" mode="constant" value="&quot;XQ54&quot;"/> 
    <rt:dyn type="ShowFrame" mode="constant" value="true"/> 
  </image>
  <image x="1454.58" y="354" width="65" height="25" xlink:href="DS_Reg_degree.svg">
    <title>20QKC11AA210</title>
    <rt:dyn type="KKS" mode="constant" value="&quot;20QKC11AA210&quot;"/> 
    <rt:dyn type="SIGNAL" mode="constant" value="&quot;XQ54&quot;"/> 
    <rt:dyn type="ShowFrame" mode="constant" value="true"/> 
  </image>
  <image x="1325" y="822" width="65" height="25" xlink:href="DS_Reg_degree.svg">
    <title>25SAC55AA202</title>
    <rt:dyn type="KKS" mode="constant" value="&quot;25SAC55AA202&quot;"/> 
    <rt:dyn type="SIGNAL" mode="constant" value="&quot;XQ54&quot;"/> 
    <rt:dyn type="ShowFrame" mode="constant" value="true"/> 
  </image>
  <text x="274.583" y="474.5" fill="black" font-size="15">20QKC11<tspan x="274.583" dy="15">AA209</tspan>
  </text>
  <text x="356" y="840.5" fill="black" font-size="15">25SAC55<tspan x="356" dy="15">AA203</tspan>
  </text>
  <text x="246" y="887.5" fill="black" font-size="15">25SAC55<tspan x="246" dy="15">AA201</tspan>
  </text>
  <text x="658" y="913.5" fill="black" font-size="15">25SAC35<tspan x="658" dy="15">AA201</tspan>
  </text>
  <text x="1106" y="912.5" fill="black" font-size="15">25SAC35<tspan x="1106" dy="15">AA202</tspan>
  </text>
  <text x="1181" y="852.5" fill="black" font-size="15">25SAC55<tspan x="1181" dy="15">AA204</tspan>
  </text>
  <text x="1419" y="880.5" fill="black" font-size="15">25SAC55<tspan x="1419" dy="15">AA202</tspan>
  </text>
  <text x="1450.58" y="476.5" fill="black" font-size="15">20QKC11<tspan x="1450.58" dy="15">AA210</tspan>
  </text>
  <g transform="flipX(442.583)">
    <line x1="670.283" y1="792.636" x2="708.953" y2="792.636" stroke="black" stroke-width="1"/> 
    <line x1="672.553" y1="716.409" x2="708.953" y2="716.636" stroke="black" stroke-width="1"/> 
    <line x1="708.953" y1="716.636" x2="709.333" y2="792.499" stroke="black" stroke-width="1"/> 
    <line x1="671.543" y1="708.909" x2="671.543" y2="722.909" stroke="black" stroke-width="1"/> 
    <line x1="670.543" y1="785.409" x2="670.543" y2="799.909" stroke="black" stroke-width="1"/> 
    <line x1="738.543" y1="754.409" x2="709.333" y2="754.166" stroke="black" stroke-width="1"/> 
  </g>
  <image x="147" y="760" width="25" height="25" xlink:href="bin_indicator.svg">
    <title>25SAC55CP001_XG01</title>
    <rt:dyn type="PointID" value="&quot;25SAC55CP001_XG01&quot;" mode="constant"/> 
    <rt:dyn type="Col_ON" value="&quot;Col_Green&quot;" mode="constant"/> 
    <rt:dyn type="Col_OFF" value="&quot;Col_BGSand&quot;" mode="constant"/> 
  </image>
  <image x="145.893" y="721.214" width="25" height="25" xlink:href="bin_indicator.svg">
    <title>25SAC55CP001_XG51</title>
    <rt:dyn type="PointID" value="&quot;25SAC55CP001_XG51&quot;" mode="constant"/> 
    <rt:dyn type="Col_ON" value="&quot;Col_Green&quot;" mode="constant"/> 
    <rt:dyn type="Col_OFF" value="&quot;Col_BGSand&quot;" mode="constant"/> 
  </image>
  <text x="22.1429" y="737.964" fill="black" font-size="15">DP &lt; 0.15 êÏà</text>
  <text x="22.1429" y="780.464" fill="black" font-size="15">DP &gt; 0.4 êÏà</text>
  <g transform="flipX(1515.99) flipX(442.583)">
    <line x1="-740.484" y1="791.727" x2="-701.814" y2="791.727" stroke="black" stroke-width="1"/> 
    <line x1="-738.214" y1="715.5" x2="-701.814" y2="715.727" stroke="black" stroke-width="1"/> 
    <line x1="-701.814" y1="715.727" x2="-701.434" y2="791.59" stroke="black" stroke-width="1"/> 
    <line x1="-739.224" y1="708" x2="-739.224" y2="722" stroke="black" stroke-width="1"/> 
    <line x1="-740.224" y1="784.5" x2="-740.224" y2="799" stroke="black" stroke-width="1"/> 
    <line x1="-672.224" y1="753.5" x2="-701.434" y2="753.257" stroke="black" stroke-width="1"/> 
  </g>
  <text x="1490" y="736.5" fill="black" font-size="15">DP &lt; 0.15 êÏà</text>
  <text x="1490" y="779" fill="black" font-size="15">DP &gt; 0.4 êÏà</text>
  <image x="1454.11" y="758.786" width="25" height="25" xlink:href="bin_indicator.svg">
    <title>25SAC55CP002_XG01</title>
    <rt:dyn type="PointID" value="&quot;25SAC55CP002_XG01&quot;" mode="constant"/> 
    <rt:dyn type="Col_ON" value="&quot;Col_Green&quot;" mode="constant"/> 
    <rt:dyn type="Col_OFF" value="&quot;Col_BGSand&quot;" mode="constant"/> 
  </image>
  <image x="1453" y="720" width="25" height="25" xlink:href="bin_indicator.svg">
    <title>25SAC55CP002_XG51</title>
    <rt:dyn type="PointID" value="&quot;25SAC55CP002_XG51&quot;" mode="constant"/> 
    <rt:dyn type="Col_ON" value="&quot;Col_Green&quot;" mode="constant"/> 
    <rt:dyn type="Col_OFF" value="&quot;Col_BGSand&quot;" mode="constant"/> 
  </image>
  <g>
    <rect x="1007.62" y="-158.175" width="50" height="50" rx="0" ry="0" fill="Col_BGSand" stroke="black" transform="rotate(45 325 675)"/> 
    <line x1="1361.84" y1="603.895" x2="1431.84" y2="603.895" stroke="black"/> 
    <line x1="1396.84" y1="568.893" x2="1396.84" y2="638.895" stroke="black"/> 
    <polygon points="1414.88,609.884 1399.55,604.216 1414.88,598.549" fill="black" stroke="black"/> 
    <polygon points="-696.822,609.884 -712.155,604.216 -696.822,598.549" fill="black" stroke="black" transform="flipX(342.722)"/> 
  </g>
  <g>
    <rect x="176.769" y="672.675" width="50" height="50" rx="0" ry="0" fill="Col_BGSand" stroke="black" transform="rotate(45 325 675)"/> 
    <line x1="186.837" y1="603.895" x2="256.837" y2="603.895" stroke="black"/> 
    <line x1="221.837" y1="568.893" x2="221.837" y2="638.895" stroke="black"/> 
    <polygon points="239.877,609.884 224.547,604.216 239.877,598.549" fill="black" stroke="black"/> 
    <polygon points="478.178,609.884 462.845,604.216 478.178,598.549" fill="black" stroke="black" transform="flipX(342.722)"/> 
  </g>
  <image x="275" y="387" width="70" height="65" xlink:href="TENZOR_reg_valve.svg" transform="flipX()">
    <title>&quot;20QKC11AA209&quot;</title>
    <rt:dyn type="KKS" mode="constant" value="&quot;20QKC11AA209&quot;"/> 
    <rt:dyn type="Operate" mode="constant" value="true"/> 
  </image>
  <image x="1450" y="389" width="70" height="65" xlink:href="TENZOR_reg_valve.svg" transform="flipX()">
    <title>&quot;20QKC11AA210&quot;</title>
    <rt:dyn type="KKS" mode="constant" value="&quot;20QKC11AA210&quot;"/> 
    <rt:dyn type="Operate" mode="constant" value="true"/> 
  </image>
  <image x="355" y="765" width="70" height="65" xlink:href="TENZOR_reg_valve.svg">
    <title>&quot;25SAC55AA203&quot;</title>
    <rt:dyn type="KKS" mode="constant" value="&quot;25SAC55AA203&quot;"/> 
    <rt:dyn type="Operate" mode="constant" value="true"/> 
  </image>
  <image x="1180" y="767" width="70" height="65" xlink:href="TENZOR_reg_valve.svg" transform="flipX()">
    <title>&quot;25SAC55AA204&quot;</title>
    <rt:dyn type="KKS" mode="constant" value="&quot;25SAC55AA204&quot;"/> 
    <rt:dyn type="Operate" mode="constant" value="true"/> 
  </image>
  <image x="1037" y="867.5" width="70" height="65" xlink:href="TENZOR_reg_valve.svg" transform="rotate(270 0 -10)">
    <title>&quot;25SAC35AA202&quot;</title>
    <rt:dyn type="KKS" mode="constant" value="&quot;25SAC35AA202&quot;"/> 
    <rt:dyn type="Operate" mode="constant" value="true"/> 
  </image>
  <image x="588" y="875" width="70" height="65" xlink:href="TENZOR_reg_valve.svg" transform="rotate(270 0 -10)">
    <title>&quot;25SAC35AA201&quot;</title>
    <rt:dyn type="KKS" mode="constant" value="&quot;25SAC35AA201&quot;"/> 
    <rt:dyn type="Operate" mode="constant" value="true"/> 
  </image>
  <image x="176" y="842.5" width="70" height="65" xlink:href="TENZOR_reg_valve.svg" transform="flipY(-10) rotate(270 0 -10)">
    <title>&quot;25SAC55AA201&quot;</title>
    <rt:dyn type="KKS" mode="constant" value="&quot;25SAC55AA201&quot;"/> 
    <rt:dyn type="Operate" mode="constant" value="true"/> 
  </image>
  <image x="1351" y="842.5" width="70" height="65" xlink:href="TENZOR_reg_valve.svg" transform="flipY(-10) rotate(270 0 -10)">
    <title>&quot;25SAC55AA202&quot;</title>
    <rt:dyn type="KKS" mode="constant" value="&quot;25SAC55AA202&quot;"/> 
    <rt:dyn type="Operate" mode="constant" value="true"/> 
  </image>
  <text x="861" y="34" fill="black" font-size="30" font-weight="700">Ñèñòåìû 25SAC35, 25SAC55</text>
  <text x="25" y="50" fill="black" font-size="15" font-weight="700">20UBA 20CXV97</text>
  <text x="1250" y="725" fill="black" font-size="15">25SAC55AT004</text>
  <text x="242" y="725" fill="black" font-size="15">25SAC55AT003</text>
  <image x="42.3864" y="121.136" width="175" height="25" xlink:href="DS_ana_tenzor.svg">
    <title>&quot;25SAC55CT003&quot;</title>
    <rt:dyn type="FKKS" mode="constant" value="&quot;25SAC55CT003&quot;"/> 
    <rt:dyn type="FillEntireFrame" mode="constant" value="false"/> 
    <rt:dyn type="ShowGoodColor" mode="constant" value="true"/> 
    <rt:dyn type="X" mode="constant" value="&quot;T&quot;"/> 
    <rt:dyn type="ShowEU" mode="constant" value="true"/> 
  </image>
  <image x="1217.39" y="117.727" width="175" height="25" xlink:href="DS_ana_tenzor.svg">
    <title>&quot;25SAC55CT004&quot;</title>
    <rt:dyn type="FKKS" mode="constant" value="&quot;25SAC55CT004&quot;"/> 
    <rt:dyn type="FillEntireFrame" mode="constant" value="false"/> 
    <rt:dyn type="ShowGoodColor" mode="constant" value="true"/> 
    <rt:dyn type="X" mode="constant" value="&quot;T&quot;"/> 
    <rt:dyn type="ShowEU" mode="constant" value="true"/> 
  </image>
  <image x="288.977" y="562.773" width="175" height="25" xlink:href="DS_ana_tenzor.svg">
    <title>&quot;20SBC04CT009&quot;</title>
    <rt:dyn type="FKKS" mode="constant" value="&quot;20SBC04CT009&quot;"/> 
    <rt:dyn type="FillEntireFrame" mode="constant" value="false"/> 
    <rt:dyn type="ShowGoodColor" mode="constant" value="true"/> 
    <rt:dyn type="X" mode="constant" value="&quot;T&quot;"/> 
    <rt:dyn type="ShowEU" mode="constant" value="true"/> 
  </image>
  <image x="57.1591" y="659.773" width="175" height="25" xlink:href="DS_ana_tenzor.svg">
    <title>&quot;25SAC55CT001&quot;</title>
    <rt:dyn type="FKKS" mode="constant" value="&quot;25SAC55CT001&quot;"/> 
    <rt:dyn type="FillEntireFrame" mode="constant" value="false"/> 
    <rt:dyn type="ShowGoodColor" mode="constant" value="true"/> 
    <rt:dyn type="X" mode="constant" value="&quot;T&quot;"/> 
    <rt:dyn type="ShowEU" mode="constant" value="true"/> 
  </image>
  <image x="471.932" y="730.227" width="175" height="25" xlink:href="DS_ana_tenzor.svg">
    <title>&quot;25SAC35CT001&quot;</title>
    <rt:dyn type="FKKS" mode="constant" value="&quot;25SAC35CT001&quot;"/> 
    <rt:dyn type="FillEntireFrame" mode="constant" value="false"/> 
    <rt:dyn type="ShowGoodColor" mode="constant" value="true"/> 
    <rt:dyn type="X" mode="constant" value="&quot;T&quot;"/> 
    <rt:dyn type="ShowEU" mode="constant" value="true"/> 
  </image>
  <image x="309.432" y="1010.05" width="175" height="25" xlink:href="DS_ana_tenzor.svg">
    <title>&quot;25SAC55CT005&quot;</title>
    <rt:dyn type="FKKS" mode="constant" value="&quot;25SAC55CT005&quot;"/> 
    <rt:dyn type="FillEntireFrame" mode="constant" value="false"/> 
    <rt:dyn type="ShowGoodColor" mode="constant" value="true"/> 
    <rt:dyn type="X" mode="constant" value="&quot;T&quot;"/> 
    <rt:dyn type="ShowEU" mode="constant" value="true"/> 
  </image>
  <image x="1463.98" y="561.636" width="175" height="25" xlink:href="DS_ana_tenzor.svg">
    <title>&quot;20SBC04CT010&quot;</title>
    <rt:dyn type="FKKS" mode="constant" value="&quot;20SBC04CT010&quot;"/> 
    <rt:dyn type="FillEntireFrame" mode="constant" value="false"/> 
    <rt:dyn type="ShowGoodColor" mode="constant" value="true"/> 
    <rt:dyn type="X" mode="constant" value="&quot;T&quot;"/> 
    <rt:dyn type="ShowEU" mode="constant" value="true"/> 
  </image>
  <image x="918.523" y="726.818" width="175" height="25" xlink:href="DS_ana_tenzor.svg">
    <title>&quot;25SAC35CT002&quot;</title>
    <rt:dyn type="FKKS" mode="constant" value="&quot;25SAC35CT002&quot;"/> 
    <rt:dyn type="FillEntireFrame" mode="constant" value="false"/> 
    <rt:dyn type="ShowGoodColor" mode="constant" value="true"/> 
    <rt:dyn type="X" mode="constant" value="&quot;T&quot;"/> 
    <rt:dyn type="ShowEU" mode="constant" value="true"/> 
  </image>
  <image x="1235.57" y="660.909" width="175" height="25" xlink:href="DS_ana_tenzor.svg">
    <title>&quot;25SAC55CT002&quot;</title>
    <rt:dyn type="FKKS" mode="constant" value="&quot;25SAC55CT002&quot;"/> 
    <rt:dyn type="FillEntireFrame" mode="constant" value="false"/> 
    <rt:dyn type="ShowGoodColor" mode="constant" value="true"/> 
    <rt:dyn type="X" mode="constant" value="&quot;T&quot;"/> 
    <rt:dyn type="ShowEU" mode="constant" value="true"/> 
  </image>
  <image x="261" y="277" width="25" height="25" xlink:href="bin_indicator.svg">
    <title>25SAC55AN001_XB41</title>
    <rt:dyn type="PointID" mode="constant" value="&quot;25SAC55AN001_XB41&quot;"/> 
    <rt:dyn type="Col_OFF" mode="constant" value="&quot;Col_Grey3&quot;"/> 
    <rt:dyn type="Col_ON" mode="constant" value="&quot;Col_Yellow&quot;"/> 
  </image>
  <text x="304" y="296.5" fill="black" font-size="15" text-anchor="middle">ÈÏ</text>
  <image x="1439" y="276" width="25" height="25" xlink:href="bin_indicator.svg">
    <title>25SAC55AN002_XB41</title>
    <rt:dyn type="PointID" mode="constant" value="&quot;25SAC55AN002_XB41&quot;"/> 
    <rt:dyn type="Col_OFF" mode="constant" value="&quot;Col_Grey3&quot;"/> 
    <rt:dyn type="Col_ON" mode="constant" value="&quot;Col_Yellow&quot;"/> 
  </image>
  <text x="1482" y="295.5" fill="black" font-size="15" text-anchor="middle">ÈÏ</text>
  <image x="663" y="303" width="25" height="25" xlink:href="bin_indicator.svg">
    <title>25SAC35AN001_XB41</title>
    <rt:dyn type="PointID" mode="constant" value="&quot;25SAC35AN001_XB41&quot;"/> 
    <rt:dyn type="Col_OFF" mode="constant" value="&quot;Col_Grey3&quot;"/> 
    <rt:dyn type="Col_ON" mode="constant" value="&quot;Col_Yellow&quot;"/> 
  </image>
  <text x="706" y="322.5" fill="black" font-size="15" text-anchor="middle">ÈÏ</text>
  <image x="1110" y="322" width="25" height="25" xlink:href="bin_indicator.svg">
    <title>25SAC35AN002_XB41</title>
    <rt:dyn type="PointID" mode="constant" value="&quot;25SAC35AN002_XB41&quot;"/> 
    <rt:dyn type="Col_OFF" mode="constant" value="&quot;Col_Grey3&quot;"/> 
    <rt:dyn type="Col_ON" mode="constant" value="&quot;Col_Yellow&quot;"/> 
  </image>
  <text x="1153" y="341.5" fill="black" font-size="15" text-anchor="middle">ÈÏ</text>
</svg>
