<?xml  version="1.0" encoding="windows-1251"?>
<svg color="Col_BGSand" xmlns="http://www.w3.org/2000/svg" xmlns:rt="http://www.rts.co.at/2001/XMLSchema/RtSvgPL" xmlns:xlink="http://www.w3.org/1999/xlink" xmlns:xsi="http://www.w3.org/2001/XMLSchema-instance" xsi:schemaLocation="http://www.w3.org/2000/svg C:\RTS\RtSvg\XML\SVG.xsd" viewBox="0 0 1914 1000" width="1914" height="1000" id="all_20ura">
  <title>ЗДАНИЕ 20URA</title>
  <rt:model modelversion="7.2.0.24" comment="UMod all_bs" revision="3"/> 
  <g transform="flipY(411.111) rotate(90 1.4013e-045 1.4013e-045) flipX(1463.73) flipX(448.838) flipX(1844.84) flipX(1153.84) flipX(1153.84) rotate(270 1153.84 98.3365)">
    <g transform="rotate(270 51.3365 123.226)"/> 
  </g>
  <g transform="rotate(270 51.3365 123.226)">
    <polygon points="4003.99,1176.23 4003.99,1201.71 3963.23,1201.71 3950.49,1188.97 3963.23,1176.23 4003.99,1176.23" fill="#e1e1e1" stroke="black" stroke-width="0.97168" transform="rotate(0 0 1.4013e-045) flipX(46.3365)">
      <title>FAK10_2</title>
      <rt:event type="OnClick">LoadNew(&quot;fal50_70&quot;)</rt:event>
    </polygon>
  </g>
  <text x="931.333" y="140.333" fill="black" font-size="30" font-weight="normal" text-anchor="middle">МПУ 20CXU07</text>
  <image x="770.01" y="315.485" width="350" height="25" xlink:href="obj_Button.svg">
    <rt:event type="OnClick">LoadNew(&quot;20pad10_pad20_pad30_pad40_pad50&quot;)</rt:event>
    <rt:dyn type="Label" mode="constant" value="&quot;20PAD10_ PAD 20_ PAD 30_ PAD 40_ PAD 50&quot;"/> 
  </image>
  <line x1="767" y1="381" x2="1125" y2="381" stroke="black" stroke-width="2"/> 
  <rect x="768.002" y="276" width="356.998" height="280" rx="0" ry="0" fill="none" stroke="black" stroke-width="2"/> 
  <text x="843.75" y="254.875" font-size="15">Вскрыт корпус контроллера</text>
  <image x="805" y="238" width="25" height="25" xlink:href="bin_indicator.svg">
    <title>20CXU07_XM17</title>
    <rt:dyn type="PointID" mode="constant" value="&quot;20CXU07_XM17&quot;"/> 
  </image>
  <text x="843.75" y="218.875" font-size="15">Неисправность контроллера</text>
  <image x="805" y="202" width="25" height="25" xlink:href="bin_indicator.svg">
    <title>20CXU07_EK01</title>
    <rt:dyn type="PointID" mode="constant" value="&quot;20CXU07_EK01&quot;"/> 
  </image>
  <text x="31" y="25" fill="black" font-size="15" font-weight="700" text-anchor="start">ALL_20URA</text>
  <text x="931.333" y="43.3333" fill="black" font-size="30" font-weight="700" text-anchor="middle">ЗДАНИЕ 20URA</text>
</svg>
