<?xml  version="1.0" encoding="windows-1251"?>
<svg color="Col_BGSand" xmlns="http://www.w3.org/2000/svg" xmlns:rt="http://www.rts.co.at/2001/XMLSchema/RtSvgPL" xmlns:xlink="http://www.w3.org/1999/xlink" xmlns:xsi="http://www.w3.org/2001/XMLSchema-instance" xsi:schemaLocation="http://www.w3.org/2000/svg C:\RTS\RtSvg\XML\SVG.xsd" viewBox="0 0 1914 1000" width="1914" height="1000" id="all_pz_svsu">
  <title>Обобщенный видеокадр СКУ ПЗ</title>
  <rt:model modelversion="7.2.0.24" revision="1" comment="RASU 2017"/> 
  <polygon points="1682.5,-866.75 1682.58,-856.75 1689,-862"/> 
  <line x1="1573.67" y1="268.182" x2="1573.67" y2="268.182" stroke="black"/> 
  <line x1="1588.82" y1="283.334" x2="1588.82" y2="283.334" stroke="black"/> 
  <g transform="flipY(411.111) rotate(90 1.4013e-045 1.4013e-045) flipX(1463.73) flipX(448.838) flipX(1844.84) flipX(1153.84) flipX(1153.84) rotate(270 1153.84 98.3365)">
    <g transform="rotate(270 51.3365 123.226)"/> 
  </g>
  <g transform="rotate(270 51.3365 123.226)">
    <polygon points="4003.99,1176.23 4003.99,1201.71 3963.23,1201.71 3950.49,1188.97 3963.23,1176.23 4003.99,1176.23" fill="#e1e1e1" stroke="black" stroke-width="0.97168" transform="rotate(0 0 1.4013e-045) flipX(46.3365)">
      <title>FAK10_2</title>
      <rt:event type="OnClick">LoadNew(&quot;fal50_70&quot;)</rt:event>
    </polygon>
  </g>
  <text x="953.153" y="56.25" fill="black" font-size="30" text-anchor="middle">Обобщенный видеокадр СКУ ПЗ СВСУ</text>
  <image x="950" y="150" width="100" height="25" xlink:href="obj_Button.svg">
    <rt:event type="OnClick">LoadNew(&quot;sku_pz_svsu_c_1&quot;)</rt:event>
    <rt:dyn type="Label" mode="constant" value="&quot;PZ-CONT-1&quot;"/> 
  </image>
  <image x="950" y="200" width="100" height="25" xlink:href="obj_Button.svg">
    <rt:event type="OnClick">LoadNew(&quot;sku_pz_svsu_c_2&quot;)</rt:event>
    <rt:dyn type="Label" mode="constant" value="&quot;PZ-CONT-2&quot;"/> 
  </image>
  <image x="950" y="250" width="100" height="25" xlink:href="obj_Button.svg">
    <rt:event type="OnClick">LoadNew(&quot;sku_pz_svsu_c_3&quot;)</rt:event>
    <rt:dyn type="Label" mode="constant" value="&quot;PZ-CONT-3&quot;"/> 
  </image>
</svg>
