<?xml  version="1.0" encoding="windows-1251"?>
<svg color="Col_BGSand" xmlns="http://www.w3.org/2000/svg" xmlns:rt="http://www.rts.co.at/2001/XMLSchema/RtSvgPL" xmlns:xlink="http://www.w3.org/1999/xlink" xmlns:xsi="http://www.w3.org/2001/XMLSchema-instance" xsi:schemaLocation="http://www.w3.org/2000/svg C:\RTS\RtSvg\XML\SVG.xsd" viewBox="0 0 1914 1000" width="1914" height="1000" id="all_ehsr">
  <title>Обобщенный видеокадр ЭЧСР</title>
  <rt:model modelversion="7.2.0.24" comment="UMod all_nsb" revision="3"/> 
  <polygon points="1682.5,-866.75 1682.58,-856.75 1689,-862"/> 
  <line x1="1573.67" y1="268.182" x2="1573.67" y2="268.182" stroke="black"/> 
  <line x1="1588.82" y1="283.334" x2="1588.82" y2="283.334" stroke="black"/> 
  <g transform="flipY(411.111) rotate(90 1.4013e-045 1.4013e-045) flipX(1463.73) flipX(448.838) flipX(1844.84) flipX(1153.84) flipX(1153.84) rotate(270 1153.84 98.3365)">
    <g transform="rotate(270 51.3365 123.226)"/> 
  </g>
  <g transform="rotate(270 51.3365 123.226)">
    <polygon points="4003.99,1176.23 4003.99,1201.71 3963.23,1201.71 3950.49,1188.97 3963.23,1176.23 4003.99,1176.23" fill="#e1e1e1" stroke="black" stroke-width="0.97168" transform="rotate(0 0 1.4013e-045) flipX(46.3365)">
      <title>FAK10_2</title>
      <rt:event type="OnClick">LoadNew(&quot;fal50_70&quot;)</rt:event>
    </polygon>
  </g>
  <image x="797" y="169" width="250" height="25" xlink:href="obj_Button.svg">
    <rt:event type="OnClick">LoadNew(&quot;20may50er001&quot;)</rt:event>
    <rt:dyn type="Label" mode="constant" value="&quot;Наладочная видеограмма&quot;"/> 
  </image>
  <image x="797" y="204.485" width="250" height="25" xlink:href="obj_Button.svg">
    <rt:event type="OnClick">LoadNew(&quot;20may50er002&quot;)</rt:event>
    <rt:dyn type="Label" mode="constant" value="&quot;Нормальный режим&quot;"/> 
  </image>
  <image x="797" y="240.485" width="250" height="25" xlink:href="obj_Button.svg">
    <rt:event type="OnClick">LoadNew(&quot;20may50er003&quot;)</rt:event>
    <rt:dyn type="Label" mode="constant" value="&quot;Быстрый контур управления&quot;"/> 
  </image>
  <image x="797" y="275.485" width="250" height="25" xlink:href="obj_Button.svg">
    <rt:event type="OnClick">LoadNew(&quot;20mka01er001&quot;)</rt:event>
    <rt:dyn type="Label" mode="constant" value="&quot;Нагрузка/разгрузка&quot;"/> 
  </image>
  <image x="797" y="310.485" width="250" height="25" xlink:href="obj_Button.svg">
    <rt:event type="OnClick">LoadNew(&quot;20max50er001&quot;)</rt:event>
    <rt:dyn type="Label" mode="constant" value="&quot;Разворот&quot;"/> 
  </image>
  <text x="960.124" y="56.25" fill="black" font-size="30" font-weight="700" text-anchor="middle">Обобщенный видеокадр ЭЧСР</text>
  <image x="799" y="347" width="250" height="25" xlink:href="obj_Button.svg">
    <rt:event type="OnClick">LoadNew(&quot;er_tg&quot;)</rt:event>
    <rt:dyn type="Label" mode="constant" value="&quot;Разворот ТГ&quot;"/> 
  </image>
  <image x="798" y="382" width="250" height="25" xlink:href="obj_Button.svg">
    <rt:event type="OnClick">LoadNew(&quot;er1&quot;)</rt:event>
    <rt:dyn type="Label" mode="constant" value="&quot;ЭЧСР&quot;"/> 
  </image>
  <text x="19" y="25.5" fill="black" font-size="15" font-weight="700">ALL_EHSR</text>
</svg>
