<?xml  version="1.0" encoding="windows-1251"?>
<svg color="Col_BGSand" xmlns="http://www.w3.org/2000/svg" xmlns:rt="http://www.rts.co.at/2001/XMLSchema/RtSvgPL" xmlns:xlink="http://www.w3.org/1999/xlink" xmlns:xsi="http://www.w3.org/2001/XMLSchema-instance" xsi:schemaLocation="http://www.w3.org/2000/svg C:\RTS\RtSvg\XML\SVG.xsd" viewBox="0 0 1914 1000" width="1914" height="1000" id="asrk_ukc_15">
  <title>РК  во вспомогательном реакторном здании отм. +15,9</title>
  <rt:model modelversion="7.2.0.24" comment="UMod all_asrk&#10;LMod asrk_ukc_12&#10;RMod asrk_ukc_19" revision="3"/> 
  <rect x="373.727" y="123.909" width="10" height="820" rx="0" ry="0"/> 
  <rect x="1457.73" y="687.909" width="10" height="262" rx="0" ry="0"/> 
  <rect x="377.727" y="470.909" width="183" height="10" rx="0" ry="0"/> 
  <rect x="552.727" y="376.909" width="10" height="118" rx="0" ry="0"/> 
  <rect x="377.727" y="612.909" width="181" height="10" rx="0" ry="0"/> 
  <rect x="920.727" y="195.909" width="24" height="5" rx="0" ry="0"/> 
  <rect x="502.727" y="676.909" width="50" height="3" rx="0" ry="0"/> 
  <rect x="501.727" y="678.251" width="3" height="20" rx="0" ry="0"/> 
  <rect x="512.596" y="678.909" width="3" height="20" rx="0" ry="0"/> 
  <rect x="858.727" y="709.909" width="12" height="64" rx="0" ry="0"/> 
  <rect x="608.727" y="664.909" width="291" height="8" rx="0" ry="0"/> 
  <rect x="585.727" y="792.909" width="10" height="119" rx="0" ry="0"/> 
  <rect x="767.727" y="706.909" width="10" height="65" rx="0" ry="0"/> 
  <rect x="723.727" y="516.909" width="11" height="148" rx="0" ry="0"/> 
  <rect x="510.727" y="122.909" width="8" height="150" rx="0" ry="0"/> 
  <rect x="889.727" y="508.909" width="11" height="198" rx="0" ry="0"/> 
  <rect x="428.727" y="122.909" width="5" height="151" rx="0" ry="0"/> 
  <rect x="997.727" y="119.909" width="7" height="82" rx="0" ry="0"/> 
  <rect x="938.727" y="328.909" width="13" height="94" rx="0" ry="0"/> 
  <rect x="1051.73" y="329.909" width="10" height="97" rx="0" ry="0"/> 
  <rect x="1053.73" y="414.909" width="164" height="13" rx="0" ry="0"/> 
  <rect x="1209.73" y="444.909" width="12" height="72" rx="0" ry="0"/> 
  <rect x="1051.73" y="414.909" width="12" height="96" rx="0" ry="0"/> 
  <rect x="606.727" y="712.909" width="10" height="37" rx="0" ry="0"/> 
  <rect x="1098.73" y="617.909" width="36" height="6" rx="0" ry="0"/> 
  <rect x="886.727" y="461.909" width="12" height="52" rx="0" ry="0"/> 
  <rect x="1031.73" y="712.909" width="192" height="9" rx="0" ry="0"/> 
  <rect x="1159.73" y="905.909" width="68" height="8" rx="0" ry="0"/> 
  <rect x="1094.73" y="549.909" width="10" height="133" rx="0" ry="0"/> 
  <rect x="1074.73" y="543.909" width="148" height="10" rx="0" ry="0"/> 
  <rect x="566.727" y="247.909" width="57" height="6" rx="0" ry="0"/> 
  <rect x="926.727" y="778.909" width="9" height="131" rx="0" ry="0"/> 
  <rect x="1333.73" y="600.909" width="4" height="16" rx="0" ry="0"/> 
  <rect x="1365.73" y="616.909" width="96" height="7" rx="0" ry="0"/> 
  <rect x="1347.73" y="730.909" width="111" height="8" rx="0" ry="0"/> 
  <rect x="1365.73" y="652.909" width="93" height="7.00002" rx="0" ry="0"/> 
  <rect x="1070.73" y="770.909" width="10" height="139" rx="0" ry="0"/> 
  <rect x="1282.73" y="902.909" width="6" height="45" rx="0" ry="0"/> 
  <rect x="1281.73" y="763.909" width="8" height="80" rx="0" ry="0"/> 
  <rect x="1217.73" y="743.909" width="10" height="164" rx="0" ry="0"/> 
  <rect x="1457.73" y="116.909" width="10" height="545" rx="0" ry="0"/> 
  <rect x="1283.73" y="695.909" width="180" height="5" rx="0" ry="0"/> 
  <rect x="1322.73" y="601.909" width="4" height="16" rx="0" ry="0"/> 
  <rect x="1284.73" y="599.909" width="53" height="5" rx="0" ry="0"/> 
  <rect x="1283.73" y="325.909" width="107" height="8" rx="0" ry="0"/> 
  <rect x="1283.73" y="356.909" width="23" height="5" rx="0" ry="0"/> 
  <rect x="1302.73" y="332.909" width="5" height="29" rx="0" ry="0"/> 
  <rect x="681.727" y="777.909" width="8" height="134" rx="0" ry="0"/> 
  <rect x="951.727" y="680.909" width="110" height="8" rx="0" ry="0"/> 
  <rect x="949.727" y="680.909" width="12" height="94" rx="0" ry="0"/> 
  <rect x="1080.73" y="325.909" width="141" height="9" rx="0" ry="0"/> 
  <rect x="1208.73" y="358.909" width="13" height="73" rx="0" ry="0"/> 
  <rect x="939.727" y="414.909" width="130" height="9" rx="0" ry="0"/> 
  <rect x="1048.73" y="505.909" width="170" height="11" rx="0" ry="0"/> 
  <rect x="887.727" y="463.909" width="60" height="8.99999" rx="0" ry="0"/> 
  <rect x="602.727" y="392.909" width="223" height="11" rx="0" ry="0"/> 
  <rect x="807.727" y="456.909" width="91" height="14" rx="0" ry="0"/> 
  <rect x="600.727" y="325.909" width="10" height="146" rx="0" ry="0"/> 
  <rect x="743.727" y="325.909" width="214" height="9" rx="0" ry="0"/> 
  <rect x="378.727" y="788.909" width="145" height="9" rx="0" ry="0"/> 
  <rect x="419.727" y="907.909" width="11" height="41" rx="0" ry="0"/> 
  <rect x="510.727" y="206.909" width="118" height="7" rx="0" ry="0"/> 
  <rect x="374.727" y="845.909" width="152" height="9" rx="0" ry="0"/> 
  <rect x="517.727" y="778.909" width="11" height="33" rx="0" ry="0"/> 
  <rect x="516.727" y="733.909" width="10" height="25" rx="0" ry="0"/> 
  <rect x="419.727" y="906.909" width="108" height="10" rx="0" ry="0"/> 
  <rect x="548.727" y="650.909" width="9" height="48" rx="0" ry="0"/> 
  <rect x="374.727" y="731.909" width="100" height="8" rx="0" ry="0"/> 
  <line x1="587.727" y1="794.909" x2="615.727" y2="768.909" stroke="black" stroke-width="7"/> 
  <rect x="378.727" y="330.909" width="165" height="10" rx="0" ry="0"/> 
  <rect x="380.727" y="315.909" width="50" height="3" rx="0" ry="0"/> 
  <rect x="401.727" y="317.909" width="3" height="20" rx="0" ry="0"/> 
  <rect x="427.727" y="315.909" width="3" height="20" rx="0" ry="0"/> 
  <rect x="1279.73" y="120.909" width="9" height="37" rx="0" ry="0"/> 
  <rect x="913.727" y="121.909" width="9" height="39" rx="0" ry="0"/> 
  <rect x="1387.73" y="758.909" width="9.00002" height="115" rx="0" ry="0"/> 
  <rect x="1282.73" y="212.909" width="98" height="6" rx="0" ry="0"/> 
  <rect x="1076.73" y="116.909" width="9" height="79" rx="0" ry="0"/> 
  <rect x="628.727" y="273.909" width="754" height="8" rx="0" ry="0"/> 
  <rect x="809.727" y="145.909" width="7" height="91" rx="0" ry="0"/> 
  <rect x="1280.73" y="212.909" width="8" height="60" rx="0" ry="0"/> 
  <rect x="1412.73" y="123.909" width="7" height="72" rx="0" ry="0"/> 
  <rect x="620.727" y="286.909" width="3" height="10" rx="0" ry="0"/> 
  <rect x="1153.73" y="332.909" width="10" height="92" rx="0" ry="0"/> 
  <rect x="995.727" y="415.909" width="8" height="99" rx="0" ry="0"/> 
  <rect x="815.727" y="330.909" width="14" height="73" rx="0" ry="0"/> 
  <rect x="613.727" y="769.909" width="607" height="11" rx="0" ry="0"/> 
  <rect x="810.727" y="511.909" width="11" height="157" rx="0" ry="0"/> 
  <rect x="604.727" y="593.909" width="61" height="11" rx="0" ry="0"/> 
  <rect x="603.727" y="511.909" width="211" height="10" rx="0" ry="0"/> 
  <rect x="379.727" y="696.909" width="131" height="5" rx="0" ry="0"/> 
  <rect x="566.727" y="244.909" width="5" height="29" rx="0" ry="0"/> 
  <rect x="552.727" y="270.909" width="20" height="4" rx="0" ry="0"/> 
  <rect x="588.394" y="269.909" width="38" height="5.00002" rx="0" ry="0"/> 
  <rect x="428.727" y="269.909" width="23.3334" height="5.66666" rx="0" ry="0"/> 
  <rect x="547.727" y="138.909" width="5.66667" height="72" rx="0" ry="0"/> 
  <rect x="417.06" y="210.909" width="14.3334" height="4.33331" rx="0" ry="0"/> 
  <line x1="1289.23" y1="357.409" x2="1292.73" y2="336.909" stroke="black"/> 
  <line x1="1309.73" y1="331.909" x2="1291.73" y2="337.409" stroke="black"/> 
  <line x1="431.727" y1="211.409" x2="469.227" y2="211.909" stroke="black"/> 
  <line x1="473.227" y1="212.409" x2="512.227" y2="212.409" stroke="black"/> 
  <line x1="468.727" y1="240.242" x2="472.727" y2="240.242" stroke="black"/> 
  <line x1="472.727" y1="211.909" x2="472.727" y2="240.909" stroke="black"/> 
  <line x1="469.06" y1="211.909" x2="469.227" y2="240.409" stroke="black"/> 
  <line x1="433.727" y1="210.909" x2="450.727" y2="141.576" stroke="black"/> 
  <rect x="567.727" y="211.576" width="6" height="11" rx="0" ry="0"/> 
  <rect x="597.727" y="252.956" width="1.66667" height="18" rx="0" ry="0"/> 
  <rect x="616.727" y="254.956" width="2" height="16" rx="0" ry="0"/> 
  <line x1="618.06" y1="253.289" x2="598.227" y2="270.909" stroke="black"/> 
  <line x1="617.727" y1="271.328" x2="598.927" y2="254.928" stroke="black"/> 
  <g transform="flipY(99.5) flipX(178.5) rotate(270 641 570.75)">
    <line x1="1214.11" y1="-261.927" x2="1214.51" y2="-249.127" stroke="black"/> 
    <line x1="1211.71" y1="-231.127" x2="1212.11" y2="-245.927" stroke="black"/> 
    <line x1="1209.41" y1="-261.911" x2="1209.81" y2="-249.111" stroke="black"/> 
    <line x1="1207.01" y1="-231.111" x2="1207.41" y2="-245.911" stroke="black"/> 
    <line x1="1204.91" y1="-261.711" x2="1205.31" y2="-248.912" stroke="black"/> 
    <line x1="1202.51" y1="-231.912" x2="1202.91" y2="-246.711" stroke="black"/> 
    <line x1="1200.21" y1="-262.696" x2="1200.61" y2="-249.895" stroke="black"/> 
    <line x1="1197.81" y1="-231.895" x2="1198.21" y2="-246.696" stroke="black"/> 
    <line x1="1195.81" y1="-262.511" x2="1196.21" y2="-249.711" stroke="black"/> 
    <line x1="1193.41" y1="-231.711" x2="1193.81" y2="-246.511" stroke="black"/> 
    <line x1="1191.31" y1="-262.311" x2="1191.71" y2="-249.512" stroke="black"/> 
    <line x1="1188.91" y1="-231.512" x2="1189.31" y2="-246.311" stroke="black"/> 
    <line x1="1186.61" y1="-262.296" x2="1187.01" y2="-249.495" stroke="black"/> 
    <line x1="1184.21" y1="-231.495" x2="1184.61" y2="-246.296" stroke="black"/> 
    <line x1="1215.31" y1="-246.327" x2="1156.11" y2="-247.127" stroke="black"/> 
    <line x1="1156.51" y1="-250.327" x2="1215.71" y2="-249.127" stroke="black"/> 
    <line x1="1215.31" y1="-249.927" x2="1215.31" y2="-246.327" stroke="black"/> 
    <line x1="1156.71" y1="-250.327" x2="1156.71" y2="-247.127" stroke="black"/> 
    <line x1="1174.61" y1="-263.111" x2="1175.01" y2="-250.311" stroke="black"/> 
    <line x1="1170.11" y1="-262.911" x2="1170.51" y2="-250.112" stroke="black"/> 
    <line x1="1165.41" y1="-262.896" x2="1165.81" y2="-250.095" stroke="black"/> 
    <line x1="1183.11" y1="-262.311" x2="1183.51" y2="-249.511" stroke="black"/> 
    <line x1="1178.61" y1="-262.111" x2="1179.01" y2="-249.312" stroke="black"/> 
    <line x1="1178.71" y1="-231.43" x2="1179.11" y2="-246.228" stroke="black"/> 
    <line x1="1174.01" y1="-232.413" x2="1174.41" y2="-247.213" stroke="black"/> 
    <line x1="1169.61" y1="-232.228" x2="1170.01" y2="-247.029" stroke="black"/> 
    <line x1="1165.11" y1="-232.029" x2="1165.51" y2="-246.828" stroke="black"/> 
    <line x1="1160.41" y1="-232.013" x2="1160.81" y2="-246.813" stroke="black"/> 
    <line x1="1160.41" y1="-262.711" x2="1160.81" y2="-249.91" stroke="black"/> 
  </g>
  <rect x="1213.73" y="546.909" width="9" height="134" rx="0" ry="0"/> 
  <rect x="1282.73" y="870.909" width="182" height="7" rx="0" ry="0"/> 
  <rect x="1347.73" y="725.909" width="7" height="11" rx="0" ry="0"/> 
  <rect x="1365.73" y="621.909" width="9" height="35" rx="0" ry="0"/> 
  <rect x="1281.73" y="758.909" width="109" height="7" rx="0" ry="0"/> 
  <rect x="1280.48" y="272.727" width="8" height="428.182" rx="0" ry="0"/> 
  <rect x="373.727" y="937.909" width="1092" height="12" rx="0" ry="0"/> 
  <g>
    <rect x="403.727" y="155.409" width="3.5" height="31.5" rx="0" ry="0"/> 
    <line x1="375.927" y1="155.909" x2="432.727" y2="156.309" stroke="black"/> 
    <line x1="375.527" y1="160.709" x2="432.727" y2="161.309" stroke="black"/> 
    <line x1="375.927" y1="166.909" x2="432.727" y2="167.309" stroke="black"/> 
    <line x1="375.527" y1="171.709" x2="432.727" y2="172.309" stroke="black"/> 
    <line x1="373.732" y1="175.809" x2="432.727" y2="176.409" stroke="black"/> 
    <line x1="375.132" y1="181.009" x2="432.727" y2="181.409" stroke="black"/> 
    <line x1="374.732" y1="186.809" x2="432.727" y2="187.409" stroke="black"/> 
  </g>
  <g>
    <rect x="1436.73" y="149.409" width="3.5" height="31.5" rx="0" ry="0"/> 
    <line x1="1415.06" y1="150.242" x2="1465.73" y2="150.309" stroke="black"/> 
    <line x1="1412.73" y1="155.576" x2="1465.73" y2="155.309" stroke="black"/> 
    <line x1="1412.73" y1="160.909" x2="1465.73" y2="161.309" stroke="black"/> 
    <line x1="1412.73" y1="165.909" x2="1465.73" y2="166.309" stroke="black"/> 
    <line x1="1414.06" y1="170.576" x2="1465.73" y2="170.409" stroke="black"/> 
    <line x1="1414.73" y1="175.242" x2="1465.73" y2="175.409" stroke="black"/> 
    <line x1="1414.06" y1="181.576" x2="1465.73" y2="181.409" stroke="black"/> 
  </g>
  <rect x="1379.73" y="163.909" width="36" height="6" rx="0" ry="0"/> 
  <rect x="1182.73" y="202.909" width="69" height="8" rx="0" ry="0"/> 
  <rect x="978.727" y="194.909" width="211" height="7" rx="0" ry="0"/> 
  <rect x="1275.73" y="151.909" width="11" height="6" rx="0" ry="0"/> 
  <rect x="373.727" y="116.909" width="1092" height="11" rx="0" ry="0"/> 
  <rect x="1181.73" y="123.909" width="8" height="87" rx="0" ry="0"/> 
  <rect x="915.727" y="267.909" width="11" height="8" rx="0" ry="0"/> 
  <rect x="623.727" y="162.909" width="7" height="127" rx="0" ry="0"/> 
  <rect x="619.727" y="208.409" width="8.5" height="2.5" rx="2.47955e-005" ry="0"/> 
  <rect x="752.727" y="459.909" width="46" height="11" rx="0" ry="0"/> 
  <rect x="971.727" y="325.909" width="92" height="9" rx="0" ry="0"/> 
  <g transform="flipX(553) flipX(531) flipY(676) flipX(531) flipX(453) flipX(625) flipX(762)">
    <rect x="1045.73" y="575.091" width="4" height="17" rx="0" ry="0"/> 
    <rect x="1031.73" y="589.091" width="18" height="4" rx="0" ry="0"/> 
  </g>
  <rect x="553.727" y="347.909" width="9" height="17" rx="0" ry="0"/> 
  <rect x="552.727" y="512.909" width="10" height="123" rx="0" ry="0"/> 
  <rect x="501.727" y="691.909" width="55" height="7" rx="0" ry="0"/> 
  <g transform="rotate(270 220.5 667)">
    <rect x="168.09" y="867.228" width="3.5" height="31.5" rx="0" ry="0"/> 
    <line x1="152.59" y1="868.228" x2="187.59" y2="868.228" stroke="black"/> 
    <line x1="153.79" y1="873.228" x2="187.59" y2="873.228" stroke="black"/> 
    <line x1="150.99" y1="878.228" x2="188.59" y2="878.228" stroke="black"/> 
    <line x1="151.39" y1="883.228" x2="187.59" y2="883.228" stroke="black"/> 
    <line x1="152.59" y1="888.228" x2="187.59" y2="888.228" stroke="black"/> 
    <line x1="152.59" y1="893.228" x2="187.59" y2="893.228" stroke="black"/> 
    <line x1="152.59" y1="898.228" x2="187.59" y2="898.228" stroke="black"/> 
  </g>
  <g transform="rotate(270 220.5 667)">
    <rect x="170.59" y="1795.23" width="3" height="73.5" rx="0" ry="0"/> 
    <line x1="154.59" y1="1838.23" x2="189.59" y2="1838.23" stroke="black"/> 
    <line x1="155.79" y1="1843.23" x2="189.59" y2="1843.23" stroke="black"/> 
    <line x1="152.99" y1="1848.23" x2="190.59" y2="1848.23" stroke="black"/> 
    <line x1="153.39" y1="1853.23" x2="189.59" y2="1853.23" stroke="black"/> 
    <line x1="154.59" y1="1858.23" x2="189.59" y2="1858.23" stroke="black"/> 
    <line x1="154.59" y1="1863.23" x2="189.59" y2="1863.23" stroke="black"/> 
    <line x1="154.59" y1="1868.23" x2="189.59" y2="1868.23" stroke="black"/> 
  </g>
  <g transform="flipX(531) flipY(676) flipX(531) flipX(453) flipX(625) flipX(762)">
    <rect x="640.274" y="736.091" width="4" height="17" rx="0" ry="0"/> 
    <rect x="626.274" y="750.091" width="18" height="4" rx="0" ry="0"/> 
  </g>
  <g>
    <line x1="1464.23" y1="738.409" x2="1490.23" y2="738.409" stroke="black"/> 
    <line x1="1490.23" y1="687.809" x2="1490.23" y2="738.409" stroke="black"/> 
    <line x1="1465.23" y1="688.409" x2="1490.03" y2="688.609" stroke="black"/> 
    <line x1="1465.23" y1="738.409" x2="1465.23" y2="688.409" stroke="black"/> 
    <rect x="1475.83" y="698.609" width="2.65002" height="29.8" rx="0" ry="0"/> 
    <line x1="1464.98" y1="698.159" x2="1490.23" y2="698.409" stroke="black"/> 
    <line x1="1465.23" y1="703.659" x2="1490.23" y2="703.409" stroke="black"/> 
    <line x1="1465.23" y1="708.409" x2="1490.23" y2="708.409" stroke="black"/> 
    <line x1="1465.23" y1="713.409" x2="1490.23" y2="713.409" stroke="black"/> 
    <line x1="1465.23" y1="718.409" x2="1490.23" y2="718.409" stroke="black"/> 
    <line x1="1464.98" y1="723.409" x2="1490.23" y2="723.409" stroke="black"/> 
    <line x1="1464.98" y1="728.409" x2="1490.23" y2="728.409" stroke="black"/> 
  </g>
  <rect x="1033.73" y="704.909" width="8" height="17" rx="0" ry="0"/> 
  <rect x="1200.73" y="278.909" width="4" height="14" rx="0" ry="0"/> 
  <rect x="1200.73" y="317.909" width="4" height="14" rx="0" ry="0"/> 
  <rect x="1347.73" y="750.909" width="9" height="9" rx="0" ry="0"/> 
  <rect x="1251.73" y="677.909" width="33" height="7" rx="0" ry="0"/> 
  <rect x="1069.73" y="713.909" width="9" height="61" rx="0" ry="0"/> 
  <rect x="767.727" y="704.909" width="183" height="9" rx="0" ry="0"/> 
  <rect x="1029.73" y="547.909" width="7" height="96" rx="0" ry="0"/> 
  <rect x="1088.73" y="676.909" width="138" height="8.00002" rx="0" ry="0"/> 
  <rect x="950.727" y="638.909" width="153" height="8.00002" rx="0" ry="0"/> 
  <rect x="855.727" y="509.909" width="42" height="7" rx="0" ry="0"/> 
  <rect x="958.727" y="545.909" width="18" height="8" rx="0" ry="0"/> 
  <rect x="948.727" y="538.909" width="11" height="108" rx="0" ry="0"/> 
  <rect x="827.727" y="706.909" width="9" height="21" rx="0" ry="0"/> 
  <rect x="590.727" y="730.909" width="183" height="8" rx="0" ry="0"/> 
  <rect x="630.727" y="258.909" width="17" height="15" rx="0" ry="0"/> 
  <rect x="731.727" y="537.909" width="34" height="7" rx="0" ry="0"/> 
  <rect x="669.727" y="537.909" width="34" height="7" rx="0" ry="0"/> 
  <rect x="661.727" y="520.909" width="11" height="148" rx="0" ry="0"/> 
  <rect x="604.727" y="593.909" width="10" height="36" rx="0" ry="0"/> 
  <rect x="603.727" y="514.909" width="13" height="12" rx="0" ry="0"/> 
  <rect x="605.727" y="648.909" width="9" height="44" rx="0" ry="0"/> 
  <g transform="flipY(297)">
    <g transform="flipX(553) flipX(531) flipY(676) flipX(531) flipX(453) flipX(625) flipX(762)">
      <rect x="1211.39" y="1083.91" width="4" height="17" rx="0" ry="0"/> 
      <rect x="1197.39" y="1097.91" width="18" height="4" rx="0" ry="0"/> 
    </g>
    <rect x="1123.39" y="250.423" width="4.33331" height="17" rx="0" ry="0"/> 
  </g>
  <rect x="938.727" y="414.909" width="11" height="98" rx="0" ry="0"/> 
  <rect x="989.727" y="505.909" width="45" height="10" rx="0" ry="0"/> 
  <rect x="887.727" y="505.909" width="90" height="9" rx="0" ry="0"/> 
  <rect x="600.727" y="464.909" width="133" height="12" rx="0" ry="0"/> 
  <rect x="604.727" y="541.909" width="7" height="58" rx="0" ry="0"/> 
  <rect x="705.727" y="326.909" width="11" height="143" rx="0" ry="0"/> 
  <rect x="601.727" y="325.909" width="116" height="9" rx="0" ry="0"/> 
  <rect x="704.727" y="325.909" width="18" height="7" rx="0" ry="0"/> 
  <rect x="1377.73" y="212.909" width="6" height="10" rx="0" ry="0"/> 
  <rect x="1377.73" y="300.909" width="6" height="27" rx="0" ry="0"/> 
  <rect x="1408.73" y="142.909" width="7" height="7" rx="0" ry="0"/> 
  <rect x="1374.73" y="163.909" width="7" height="33" rx="0" ry="0"/> 
  <rect x="612.727" y="318.909" width="4" height="14" rx="0" ry="0"/> 
  <rect x="489.727" y="731.909" width="73" height="9" rx="0" ry="0"/> 
  <rect x="517.727" y="833.909" width="10" height="40" rx="0" ry="0"/> 
  <rect x="489.727" y="913.909" width="9" height="10" rx="0" ry="0"/> 
  <rect x="760.727" y="778.909" width="9" height="135" rx="0" ry="0"/> 
  <line x1="432.727" y1="209.909" x2="451.715" y2="140.906" stroke="black"/> 
  <line x1="517.727" y1="126.909" x2="451.215" y2="140.406" stroke="black"/> 
  <rect x="1208.73" y="325.909" width="13" height="20" rx="0" ry="0"/> 
  <g transform="flipX(1025)">
    <rect x="635.274" y="513.909" width="129" height="8" rx="0" ry="0"/> 
    <rect x="584.274" y="513.909" width="40" height="8" rx="0" ry="0"/> 
  </g>
  <rect x="1281.73" y="861.909" width="7" height="27" rx="0" ry="0"/> 
  <rect x="1419.73" y="325.909" width="46" height="8" rx="0" ry="0"/> 
  <rect x="1284.73" y="612.909" width="53" height="5" rx="0" ry="0"/> 
  <rect x="1377.73" y="236.909" width="6" height="49" rx="0" ry="0"/> 
  <rect x="1256.73" y="152.909" width="11" height="6" rx="0" ry="0"/> 
  <rect x="1254.73" y="122.909" width="8" height="78" rx="0" ry="0"/> 
  <line x1="1249.73" y1="207.909" x2="1259.73" y2="198.909" stroke="black" stroke-width="7"/> 
  <rect x="915.727" y="183.909" width="8" height="56" rx="0" ry="0"/> 
  <rect x="810.727" y="267.909" width="7" height="8" rx="0" ry="0"/> 
  <g transform="flipY(686) flipX(1085) flipX(553) flipX(531) flipY(676) flipX(531) flipX(453) flipX(625) flipX(762)">
    <rect x="813.274" y="714.909" width="4" height="17" rx="0" ry="0"/> 
    <rect x="777.274" y="728.909" width="40" height="4" rx="0" ry="0"/> 
  </g>
  <rect x="518.727" y="894.909" width="9" height="13" rx="0" ry="0"/> 
  <rect x="593.727" y="161.909" width="37" height="5" rx="0" ry="0"/> 
  <rect x="551.727" y="161.909" width="24" height="5" rx="0" ry="0"/> 
  <rect x="970.727" y="143.909" width="32" height="7" rx="0" ry="0"/> 
  <rect x="637.727" y="143.909" width="317" height="7" rx="0" ry="0"/> 
  <rect x="637.727" y="137.909" width="7" height="8" rx="0" ry="0"/> 
  <rect x="1015.73" y="905.909" width="120" height="8" rx="0" ry="0"/> 
  <rect x="1216.73" y="712.909" width="11" height="17" rx="0" ry="0"/> 
  <rect x="918.727" y="705.909" width="9" height="21" rx="0" ry="0"/> 
  <rect x="894.727" y="905.909" width="100" height="8" rx="0" ry="0"/> 
  <rect x="842.727" y="774.909" width="8" height="139" rx="0" ry="0"/> 
  <rect x="815.727" y="905.909" width="60" height="8" rx="0" ry="0"/> 
  <rect x="731.727" y="905.909" width="60" height="8" rx="0" ry="0"/> 
  <rect x="646.727" y="905.909" width="60" height="8" rx="0" ry="0"/> 
  <rect x="585.727" y="905.909" width="38" height="9" rx="0" ry="0"/> 
  <line x1="560.727" y1="351.909" x2="540.727" y2="333.909" stroke="black" stroke-width="7"/> 
  <rect x="1413.73" y="210.909" width="47" height="5" rx="0" ry="0"/> 
  <rect x="1412.73" y="206.909" width="7" height="9" rx="0" ry="0"/> 
  <rect x="1428.73" y="230.909" width="34.667" height="6.00002" rx="0" ry="0"/> 
  <rect x="1434.73" y="214.956" width="1.66667" height="18" rx="0" ry="0"/> 
  <rect x="1453.73" y="216.956" width="2" height="16" rx="0" ry="0"/> 
  <line x1="1455.06" y1="215.289" x2="1435.23" y2="232.909" stroke="black"/> 
  <line x1="1454.73" y1="233.328" x2="1435.93" y2="216.928" stroke="black"/> 
  <rect x="1428.73" y="211.909" width="7" height="9" rx="0" ry="0"/> 
  <rect x="1427.73" y="228.909" width="7" height="13" rx="0" ry="0"/> 
  <rect x="1430.73" y="262.909" width="34.667" height="6.00002" rx="0" ry="0"/> 
  <rect x="1427.73" y="256.909" width="7" height="12" rx="0" ry="0"/> 
  <rect x="1465.73" y="690.909" width="25" height="42" rx="0" ry="0"/> 
  <rect x="1006.73" y="543.909" width="45" height="10" rx="0" ry="0"/> 
  <rect x="1464.73" y="651.909" width="19" height="2" rx="0" ry="0"/> 
  <rect x="1482.73" y="651.909" width="2" height="37" rx="0" ry="0"/> 
  <rect x="1465.73" y="687.909" width="19" height="2" rx="0" ry="0"/> 
  <rect x="1178.73" y="547.909" width="9" height="13" rx="0" ry="0"/> 
  <rect x="1182.73" y="590.909" width="34.667" height="6.00002" rx="0" ry="0"/> 
  <rect x="1177.73" y="576.909" width="9" height="20" rx="0" ry="0"/> 
  <g transform="flipY(297)">
    <g transform="flipX(553) flipX(531) flipY(676) flipX(531) flipX(453) flipX(625) flipX(762)">
      <rect x="882.394" y="1210.91" width="4" height="17" rx="0" ry="0"/> 
      <rect x="868.394" y="1224.91" width="18" height="4" rx="0" ry="0"/> 
    </g>
    <rect x="794.394" y="123.423" width="4.33331" height="17" rx="0" ry="0"/> 
  </g>
  <rect x="794.727" y="452.909" width="16" height="4" rx="0" ry="0"/> 
  <rect x="1132.73" y="589.909" width="3" height="60" rx="0" ry="0"/> 
  <rect x="1096.73" y="589.909" width="36" height="2" rx="0" ry="0"/> 
  <rect x="1099.73" y="647.909" width="36" height="2" rx="0" ry="0"/> 
  <rect x="947.727" y="507.909" width="12" height="14" rx="0" ry="0"/> 
  <rect x="489.727" y="930.909" width="9" height="10" rx="0" ry="0"/> 
  <rect x="497.727" y="932.909" width="50" height="3" rx="0" ry="0"/> 
  <rect x="545.727" y="932.909" width="3" height="13" rx="0" ry="0"/> 
  <line x1="606.727" y1="397.909" x2="617.727" y2="341.909" stroke="black"/> 
  <line x1="712.209" y1="333.399" x2="616.727" y2="342.909" stroke="black"/> 
  <line x1="608.218" y1="468.917" x2="619.218" y2="412.917" stroke="black"/> 
  <line x1="713.7" y1="404.407" x2="618.218" y2="413.917" stroke="black"/> 
  <line x1="948.209" y1="419.399" x2="967.197" y2="350.396" stroke="black"/> 
  <line x1="1052.73" y1="332.909" x2="966.697" y2="349.896" stroke="black"/> 
  <line x1="1059.21" y1="418.89" x2="1078.2" y2="349.887" stroke="black"/> 
  <line x1="1134.73" y1="331.909" x2="1077.7" y2="349.387" stroke="black"/> 
  <line x1="1058.21" y1="515.89" x2="1077.2" y2="446.887" stroke="black"/> 
  <line x1="1210.73" y1="424.909" x2="1076.7" y2="446.387" stroke="black"/> 
  <line x1="819.727" y1="666.909" x2="828.197" y2="564.887" stroke="black"/> 
  <line x1="892.727" y1="548.909" x2="827.697" y2="564.387" stroke="black"/> 
  <line x1="891.873" y1="548.395" x2="817.727" y2="550.909" stroke="black"/> 
  <line x1="734.225" y1="633.395" x2="742.695" y2="531.373" stroke="black"/> 
  <line x1="807.225" y1="515.395" x2="742.195" y2="530.873" stroke="black"/> 
  <line x1="672.727" y1="645.909" x2="682.695" y2="531.373" stroke="black"/> 
  <line x1="747.225" y1="515.395" x2="682.195" y2="530.873" stroke="black"/> 
  <line x1="777.218" y1="775.917" x2="788.218" y2="719.917" stroke="black"/> 
  <line x1="882.7" y1="711.407" x2="787.218" y2="720.917" stroke="black"/> 
  <line x1="867.218" y1="776.917" x2="878.218" y2="720.917" stroke="black"/> 
  <line x1="957.727" y1="712.909" x2="877.218" y2="721.917" stroke="black"/> 
  <line x1="1284.22" y1="838.917" x2="1295.22" y2="782.917" stroke="black"/> 
  <line x1="1390.73" y1="761.909" x2="1294.22" y2="783.917" stroke="black"/> 
  <line x1="827.727" y1="467.909" x2="836.193" y2="341.373" stroke="black"/> 
  <line x1="940.727" y1="332.909" x2="835.693" y2="340.873" stroke="black"/> 
  <line x1="830.89" y1="423.409" x2="707.727" y2="424.909" stroke="black"/> 
  <rect x="605.727" y="762.909" width="10" height="10" rx="0" ry="0"/> 
  <rect x="480.727" y="270.909" width="46.3334" height="5.66666" rx="0" ry="0"/> 
  <rect x="1033.73" y="680.909" width="8" height="13" rx="0" ry="0"/> 
  <rect x="1347.73" y="698.909" width="2" height="30" rx="0" ry="0"/> 
  <g transform="rotate(270 361 136) flipY(297)">
    <g transform="flipX(553) flipX(531) flipY(676) flipX(531) flipX(453) flipX(625) flipX(762)">
      <rect x="22.7575" y="1138.73" width="4" height="17" rx="0" ry="0"/> 
      <rect x="8.7575" y="1152.73" width="18" height="4" rx="0" ry="0"/> 
    </g>
    <rect x="-65.2426" y="195.606" width="4.33331" height="17" rx="0" ry="0"/> 
  </g>
  <text x="390.697" y="875.303" font-size="15">Фильтров. уст.</text>
  <circle cx="587.339" cy="773.686" r="8.57141" fill="black" stroke="black" stroke-width="3"/> 
  <line x1="1542.61" y1="621.212" x2="1248.76" y2="718.993" stroke="black"/> 
  <line x1="586.614" y1="773" x2="297.152" y2="773" stroke="black"/> 
  <text x="390.697" y="812.758" font-size="15">Фильтров. уст.</text>
  <text x="603.212" y="809.091" font-size="15">Фильтров.<tspan x="603.212" dy="15">уст.</tspan>
  </text>
  <text x="416.848" y="636.364" font-size="15">Мастерские</text>
  <text x="627.455" y="752.06" font-size="15">Датчики ТТК</text>
  <text x="1094.12" y="809.091" font-size="15">Фильтров. уст.</text>
  <text x="1094.12" y="739" font-size="15">Пом. О и В</text>
  <text x="1313.82" y="578.788" font-size="15">Кабельный этаж</text>
  <text x="1139.58" y="577.273" font-size="15">KPF</text>
  <text x="950" y="40.3031" fill="black" font-size="30" font-weight="700" text-anchor="middle">Радиационный контроль во вспомогательном реакторном здании отм. +15,9</text>
  <text x="725.939" y="140.909" font-size="15">20UKC25R043</text>
  <text x="930.485" y="140.909" font-size="15">R044</text>
  <text x="385.545" y="237.879" font-size="15">R502</text>
  <text x="560.788" y="192.424" font-size="15">R042</text>
  <text x="451.697" y="257.576" font-size="15">R301</text>
  <text x="524.424" y="242.424" font-size="15">R004</text>
  <text x="657.758" y="209.091" font-size="15">20UKC25R041</text>
  <text x="1001.7" y="237.879" font-size="15">20UKC25R040</text>
  <text x="1294.12" y="242.424" font-size="15">20UKC25<tspan x="1294.12" dy="15">R039</tspan>
  </text>
  <text x="1404.73" y="298.485" font-size="15">R038</text>
  <text x="1291.09" y="298.485" font-size="15">20UKC25<tspan x="1291.09" dy="15">R037</tspan>
  </text>
  <text x="1312.3" y="419.697" font-size="15">20UKC25R047</text>
  <text x="1309.27" y="551.515" font-size="15">20UKC25R048</text>
  <text x="1316.85" y="918.182" font-size="15">20UKC25R046</text>
  <text x="1404.73" y="804.545" font-size="15">R035</text>
  <text x="1233.48" y="748.939" font-size="15">20UKC25<tspan x="1233.48" dy="15">R021</tspan>
  </text>
  <text x="812.303" y="931.818" font-size="15">20UKC25R022</text>
  <text x="1091.09" y="884.515" font-size="15">20UKC25R034</text>
  <text x="945.636" y="884.515" font-size="15">20UKC25R033</text>
  <text x="860.182" y="884.515" font-size="15">R032</text>
  <text x="782.363" y="884.515" font-size="15">R031</text>
  <text x="696.606" y="884.515" font-size="15">R030</text>
  <text x="598.667" y="869.515" font-size="15">20UKC25<tspan x="598.667" dy="15">R029</tspan>
  </text>
  <text x="980.485" y="740.909" font-size="15">20UKC25<tspan x="980.485" dy="15">R011</tspan>
  </text>
  <text x="1089.58" y="764.182" font-size="15">20UKC25R012</text>
  <text x="619.879" y="767.667" font-size="15">20UKC25R024</text>
  <text x="404.727" y="660.606" font-size="15">20UKC25R001</text>
  <text x="388.061" y="760.606" font-size="15">20UKC25R028</text>
  <text x="386.545" y="838.909" font-size="15">20UKC25R027</text>
  <text x="386.545" y="899.515" font-size="15">20UKC25R026</text>
  <text x="406.242" y="550" font-size="15">20UKC25R002</text>
  <text x="406.242" y="415.152" font-size="15">20UKC25R003</text>
  <text x="841.091" y="309.091" font-size="15">20UKC25R019</text>
  <text x="651.697" y="692.424" font-size="15">20UKC25R009</text>
  <text x="1133.55" y="659.061" font-size="15">20UKC25<tspan x="1133.55" dy="15">R013</tspan>
  </text>
  <text x="1047.15" y="598.485" font-size="15">R014</text>
  <text x="972.909" y="598.485" font-size="15">R015</text>
  <text x="904.727" y="598.485" font-size="15">R010</text>
  <text x="839.576" y="598.485" font-size="15">R025</text>
  <text x="613.818" y="578.788" font-size="15">R007</text>
  <text x="613.818" y="640.909" font-size="15">R008</text>
  <text x="951.697" y="457.576" font-size="15">R016</text>
  <text x="1007.76" y="457.576" font-size="15">R017</text>
  <text x="965.333" y="380.303" font-size="15">20UKC25<tspan x="965.333" dy="15">R052</tspan>
  </text>
  <text x="1072.91" y="389.394" font-size="15">20UKC25<tspan x="1072.91" dy="15">R053</tspan>
  </text>
  <text x="1163.82" y="360.606" font-size="15">R036</text>
  <text x="850.182" y="392.424" font-size="15">20UKC25<tspan x="850.182" dy="15">R049</tspan>
  </text>
  <text x="725.939" y="363.636" font-size="15">20UKC25<tspan x="725.939" dy="15">R006</tspan>
  </text>
  <image x="1747.91" y="912.121" width="75" height="25" xlink:href="obj_link.svg" transform="rotate(0 37.3619 12.5)">
    <rt:dyn type="TextStr" mode="constant" value="&quot;PK&quot;"/> 
    <rt:event type="OnClick">LoadNew(&quot;&quot;)</rt:event>
    <rt:dyn type="ModName" mode="constant" value="&quot;all_asrk&quot;"/> 
  </image>
  <text x="87" y="30.5" fill="black" font-size="15" font-weight="700" text-anchor="middle">
    <title>Схема КИП насосов охлаждения бассейна выдержки</title>
ASRK_UKC_15</text>
  <rect x="171.674" y="734.973" width="139.394" height="21.2122" rx="0" ry="0" fill="Col_BGItemSel"/> 
  <image x="171.494" y="758.731" width="175" height="25" xlink:href="DS_ana_ASRK.svg">
    <title>&quot;20UKC25CR001B01&quot;</title>
    <rt:dyn type="IsExp" mode="constant" value="true"/> 
    <rt:dyn type="ShowFrame" mode="constant" value="true"/> 
    <rt:dyn type="Color_Readings" mode="constant" value="true"/> 
    <rt:dyn type="FKKS" mode="constant" value="&quot;20UKC25CR001B01&quot;"/> 
    <rt:dyn type="ValueToTheRight" mode="constant" value="false"/> 
    <rt:dyn type="SetBounds" mode="constant" value="true"/> 
    <rt:dyn type="Show_Map" mode="constant" value="false"/> 
    <rt:dyn type="X" mode="constant" value="&quot;G&quot;"/> 
  </image>
  <text x="180.494" y="751.731" fill="black" font-size="18" text-anchor="start">20UKC25CR001</text>
  <rect x="1582.28" y="598.7" width="139.394" height="21.2122" rx="0" ry="0" fill="Col_BGItemSel"/> 
  <image x="1582.1" y="622.458" width="175" height="25" xlink:href="DS_ana_ASRK.svg">
    <title>&quot;20UKC25CR002B01&quot;</title>
    <rt:dyn type="IsExp" mode="constant" value="true"/> 
    <rt:dyn type="ShowFrame" mode="constant" value="true"/> 
    <rt:dyn type="Color_Readings" mode="constant" value="true"/> 
    <rt:dyn type="FKKS" mode="constant" value="&quot;20UKC25CR002B01&quot;"/> 
    <rt:dyn type="ValueToTheRight" mode="constant" value="false"/> 
    <rt:dyn type="SetBounds" mode="constant" value="true"/> 
    <rt:dyn type="Show_Map" mode="constant" value="false"/> 
    <rt:dyn type="X" mode="constant" value="&quot;G&quot;"/> 
  </image>
  <text x="1591.1" y="615.458" fill="black" font-size="18" text-anchor="start">20UKC25CR002</text>
  <circle cx="1238.85" cy="722.171" r="8.57141" fill="black" stroke="black" stroke-width="3"/> 
  <g>
    <polyline points="140.817,739.228 163.317,784.228 117.817,784.228 140.817,739.228" fill="Col_Grey4" stroke="black" stroke-width="1"/> 
  </g>
  <g>
    <polyline points="1550,603 1572.5,648 1527,648 1550,603" fill="Col_Grey4" stroke="black" stroke-width="1"/> 
  </g>
</svg>
