<?xml  version="1.0" encoding="windows-1251"?>
<svg color="Col_BGSand" xmlns="http://www.w3.org/2000/svg" xmlns:rt="http://www.rts.co.at/2001/XMLSchema/RtSvgPL" xmlns:xlink="http://www.w3.org/1999/xlink" xmlns:xsi="http://www.w3.org/2001/XMLSchema-instance" xsi:schemaLocation="http://www.w3.org/2000/svg C:\RTS\RtSvg\XML\SVG.xsd" viewBox="0 0 1914 1000" width="1914" height="1000" id="asrk_1kont_bv">
  <title>РК Системы аварийного и планового расхолаживания 1 контура и БВ</title>
  <rt:model modelversion="7.2.0.24" comment="UMod all_asrk&#10;LMod asrk_1kont&#10;RMod asrk_2kont" revision="3"/> 
  <polygon points="1523.4,145.652 1543.15,155.902 1543.4,804.151 1523.15,793.651" fill="url(#PortalHatch1)" stroke="Col_Grey3"/> 
  <polygon points="400.25,145.5 420,155.75 420.25,804 400,793.5" fill="url(#PortalHatch1)" stroke="Col_Grey3"/> 
  <rect x="433.333" y="165.909" width="1016.67" height="250" rx="0" ry="0" fill="none" stroke="black" stroke-dasharray="15,5"/> 
  <text x="964.727" y="46.5455" fill="black" font-size="30" font-weight="700" text-anchor="middle">РК Системы аварийного и планового расхолаживания 1 контура и БВ</text>
  <polyline points="75,375 800,375 800,225 75,225" fill="none" stroke="black" stroke-width="3"/> 
  <text x="533.94" y="188.121" font-size="15">21JNA11AP001</text>
  <line x1="800" y1="300" x2="1225" y2="300" stroke="black" stroke-width="3"/> 
  <line x1="400" y1="128.606" x2="400" y2="818" stroke="black" stroke-width="3"/> 
  <text x="96.9697" y="167.394" font-size="15">в линию ГЕ САОЗ-1 (АПР)</text>
  <image x="555.303" y="189.758" width="70" height="70" xlink:href="DS_motor.svg" transform="flipX(-5.49797e-005)"/> 
  <text x="648.94" y="338.121" font-size="15">21JNA12AP001</text>
  <line x1="420.152" y1="128.758" x2="420.152" y2="818.151" stroke="black" stroke-width="3"/> 
  <polyline points="367.576,149.747 372.538,146.474 377.5,144.25 382.143,143 387.143,142.429 391.429,142.714 396.286,143.714 401,145.143 405.286,147 409.714,149.429 413.857,151.714 417.286,153.571 420.571,155.286 424.429,156.286 428.143,157.143 432.714,157.857 436.429,158 440.286,157.714 443.714,157 447.429,155.571 450.714,153.857 454.571,151.143" fill="none" stroke="black" stroke-width="1"/> 
  <polyline points="367.972,799.123 372.934,795.85 377.896,793.626 382.539,792.376 387.539,791.805 391.825,792.09 396.682,793.09 401.396,794.519 405.682,796.376 410.11,798.805 414.253,801.09 417.682,802.947 420.967,804.662 424.825,805.662 428.539,806.519 433.11,807.233 436.825,807.376 440.682,807.09 444.11,806.376 447.825,804.947 451.11,803.233 454.967,800.519" fill="none" stroke="black" stroke-width="1"/> 
  <polygon points="-518.655,341.449 -531.155,366.949 -505.155,366.949" fill="black" transform="flipX(641.239) flipX(1202.57) flipX(1782.15) flipX(1338.9) rotate(90 425.31 342.095) rotate(0 1.4013e-045 1.4013e-045) flipY(392.405) rotate(90 1392.93 388.195) scale(0.62 0.62 1341 369.75) rotate(270 1341 369.75)"/> 
  <text x="467.424" y="350.121" font-size="15">21JNA12BN001</text>
  <polyline points="75,425 350,425 350,325 75,325" fill="none" stroke="black" stroke-width="3"/> 
  <polyline points="75,275 350,275 350,175 75,175" fill="none" stroke="black" stroke-width="3"/> 
  <polygon points="-438.009,338.174 -450.509,363.674 -424.509,363.674" fill="black" transform="flipX(641.239) flipX(1202.57) flipX(1782.15) flipX(1338.9) rotate(90 425.31 342.095) rotate(0 1.4013e-045 1.4013e-045) flipY(392.405) rotate(90 1392.93 388.195) scale(0.62 0.62 1341 369.75) rotate(270 1341 369.75)"/> 
  <polygon points="-357.364,339.836 -369.864,365.336 -343.864,365.336" fill="black" transform="flipX(641.239) flipX(1202.57) flipX(1782.15) flipX(1338.9) rotate(90 425.31 342.095) rotate(0 1.4013e-045 1.4013e-045) flipY(392.405) rotate(90 1392.93 388.195) scale(0.62 0.62 1341 369.75) rotate(270 1341 369.75)"/> 
  <polygon points="-276.719,339.005 -289.219,364.505 -263.219,364.505" fill="black" transform="flipX(641.239) flipX(1202.57) flipX(1782.15) flipX(1338.9) rotate(90 425.31 342.095) rotate(0 1.4013e-045 1.4013e-045) flipY(392.405) rotate(90 1392.93 388.195) scale(0.62 0.62 1341 369.75) rotate(270 1341 369.75)"/> 
  <polygon points="-196.073,339.787 -208.573,365.287 -182.573,365.287" fill="black" transform="flipX(641.239) flipX(1202.57) flipX(1782.15) flipX(1338.9) rotate(90 425.31 342.095) rotate(0 1.4013e-045 1.4013e-045) flipY(392.405) rotate(90 1392.93 388.195) scale(0.62 0.62 1341 369.75) rotate(270 1341 369.75)"/> 
  <polygon points="-115.429,341.449 -127.929,366.949 -101.928,366.949" fill="black" transform="flipX(641.239) flipX(1202.57) flipX(1782.15) flipX(1338.9) rotate(90 425.31 342.095) rotate(0 1.4013e-045 1.4013e-045) flipY(392.405) rotate(90 1392.93 388.195) scale(0.62 0.62 1341 369.75) rotate(270 1341 369.75)"/> 
  <text x="100" y="215.909" font-size="15">в линию ГЕ САОЗ-2 (АРР)</text>
  <text x="140.515" y="267.424" font-size="15">в БВ (при НЭ)</text>
  <text x="120.515" y="317.424" font-size="15">в ХН 1 петли (АПР)</text>
  <text x="121.212" y="367.424" font-size="15">в ГН 1 петли (АРР)</text>
  <text x="140.909" y="417.424" font-size="15">в БВ (при НЭ)</text>
  <polyline points="75.1515,677.151 800.151,677.151 800.151,527.151 75.1515,527.151" fill="none" stroke="black" stroke-width="3"/> 
  <text x="97.1212" y="469.546" font-size="15">в линию ГЕ САОЗ-3 (АПР)</text>
  <polygon points="-31.3105,341.693 -43.8105,367.193 -17.8105,367.193" fill="black" transform="flipX(641.239) flipX(1202.57) flipX(1782.15) flipX(1338.9) rotate(90 425.31 342.095) rotate(0 1.4013e-045 1.4013e-045) flipY(392.405) rotate(90 1392.93 388.195) scale(0.62 0.62 1341 369.75) rotate(270 1341 369.75)"/> 
  <polyline points="75.1515,727.151 350.152,727.151 350.152,627.151 75.1515,627.151" fill="none" stroke="black" stroke-width="3"/> 
  <polyline points="75.1515,577.151 350.152,577.151 350.152,477.152 75.1515,477.152" fill="none" stroke="black" stroke-width="3"/> 
  <polygon points="49.3355,338.418 36.8355,363.918 62.8355,363.918" fill="black" transform="flipX(641.239) flipX(1202.57) flipX(1782.15) flipX(1338.9) rotate(90 425.31 342.095) rotate(0 1.4013e-045 1.4013e-045) flipY(392.405) rotate(90 1392.93 388.195) scale(0.62 0.62 1341 369.75) rotate(270 1341 369.75)"/> 
  <polygon points="129.981,340.08 117.481,365.58 143.481,365.58" fill="black" transform="flipX(641.239) flipX(1202.57) flipX(1782.15) flipX(1338.9) rotate(90 425.31 342.095) rotate(0 1.4013e-045 1.4013e-045) flipY(392.405) rotate(90 1392.93 388.195) scale(0.62 0.62 1341 369.75) rotate(270 1341 369.75)"/> 
  <polygon points="210.626,339.249 198.126,364.749 224.126,364.749" fill="black" transform="flipX(641.239) flipX(1202.57) flipX(1782.15) flipX(1338.9) rotate(90 425.31 342.095) rotate(0 1.4013e-045 1.4013e-045) flipY(392.405) rotate(90 1392.93 388.195) scale(0.62 0.62 1341 369.75) rotate(270 1341 369.75)"/> 
  <polygon points="291.272,340.031 278.772,365.531 304.772,365.531" fill="black" transform="flipX(641.239) flipX(1202.57) flipX(1782.15) flipX(1338.9) rotate(90 425.31 342.095) rotate(0 1.4013e-045 1.4013e-045) flipY(392.405) rotate(90 1392.93 388.195) scale(0.62 0.62 1341 369.75) rotate(270 1341 369.75)"/> 
  <polygon points="371.916,341.693 359.416,367.193 385.417,367.193" fill="black" transform="flipX(641.239) flipX(1202.57) flipX(1782.15) flipX(1338.9) rotate(90 425.31 342.095) rotate(0 1.4013e-045 1.4013e-045) flipY(392.405) rotate(90 1392.93 388.195) scale(0.62 0.62 1341 369.75) rotate(270 1341 369.75)"/> 
  <text x="100.152" y="518.061" font-size="15">в линию ГЕ САОЗ-4 (АРР)</text>
  <text x="140.667" y="569.576" font-size="15">в БВ (при НЭ)</text>
  <text x="120.667" y="619.576" font-size="15">в ХН 3 петли (АПР)</text>
  <text x="121.364" y="669.576" font-size="15">в ГН 3 петли (АРР)</text>
  <text x="141.061" y="719.576" font-size="15">в БВ (при НЭ)</text>
  <text x="341.727" y="777.091" fill="black" font-size="15" font-weight="bold" text-anchor="middle">20UJA</text>
  <text x="469.909" y="778.606" fill="black" font-size="15" font-weight="bold" text-anchor="middle">20UJA</text>
  <rect x="1224" y="225" width="200" height="150" rx="0" ry="0" fill="none" stroke="black" stroke-width="3"/> 
  <text x="1259.39" y="300.758" font-size="15">21JNA10AC001</text>
  <g transform="rotate(90 956.818 194.697)">
    <polygon points="961.061,-191.94 1011.06,-191.44 1011.06,-141.94 961.061,-141.94" fill="Col_Grey2" stroke="black" stroke-width="1"/> 
    <line x1="976.061" y1="-166.44" x2="986.561" y2="-177.44" stroke="black" stroke-width="3"/> 
    <line x1="986.061" y1="-157.44" x2="996.061" y2="-166.94" stroke="black" stroke-width="3"/> 
    <line x1="986.061" y1="-156.94" x2="986.061" y2="-176.94" stroke="black" stroke-width="3"/> 
    <line x1="961.061" y1="-166.44" x2="976.811" y2="-166.44" stroke="black" stroke-width="3"/> 
    <line x1="995.391" y1="-166.94" x2="1011.14" y2="-166.94" stroke="black" stroke-width="3"/> 
  </g>
  <g transform="rotate(90 956.818 194.697)">
    <polygon points="1112.21,-192.091 1162.21,-191.591 1162.21,-142.091 1112.21,-142.091" fill="Col_Grey2" stroke="black" stroke-width="1"/> 
    <line x1="1127.21" y1="-166.591" x2="1137.71" y2="-177.591" stroke="black" stroke-width="3"/> 
    <line x1="1137.21" y1="-157.591" x2="1147.21" y2="-167.091" stroke="black" stroke-width="3"/> 
    <line x1="1137.21" y1="-157.091" x2="1137.21" y2="-177.091" stroke="black" stroke-width="3"/> 
    <line x1="1112.21" y1="-166.591" x2="1127.96" y2="-166.591" stroke="black" stroke-width="3"/> 
    <line x1="1146.54" y1="-167.091" x2="1162.29" y2="-167.091" stroke="black" stroke-width="3"/> 
  </g>
  <text x="1657.55" y="168.939" font-size="15">из БВ (при НЭ)</text>
  <polygon points="-516.165,3243.93 -528.665,3269.43 -502.665,3269.43" fill="black" transform="flipX(641.239) flipX(1202.57) flipX(1782.15) flipX(1338.9) rotate(90 425.31 342.095) rotate(0 1.4013e-045 1.4013e-045) flipY(392.405) rotate(90 1392.93 388.195) scale(0.62 0.62 1341 369.75) rotate(270 1341 369.75)"/> 
  <polyline points="1064.58,426.545 1339.58,426.545 1339.58,326.545 1064.58,326.545" fill="none" stroke="black" stroke-width="3" transform="flipX(1469.83)"/> 
  <polyline points="1064.58,276.545 1339.58,276.545 1339.58,176.545 1064.58,176.545" fill="none" stroke="black" stroke-width="3" transform="flipX(1469.83)"/> 
  <polygon points="-354.874,3242.32 -367.374,3267.82 -341.374,3267.82" fill="black" transform="flipX(641.239) flipX(1202.57) flipX(1782.15) flipX(1338.9) rotate(90 425.31 342.095) rotate(0 1.4013e-045 1.4013e-045) flipY(392.405) rotate(90 1392.93 388.195) scale(0.62 0.62 1341 369.75) rotate(270 1341 369.75)"/> 
  <polygon points="-274.229,3241.49 -286.729,3266.99 -260.729,3266.99" fill="black" transform="flipX(641.239) flipX(1202.57) flipX(1782.15) flipX(1338.9) rotate(90 425.31 342.095) rotate(0 1.4013e-045 1.4013e-045) flipY(392.405) rotate(90 1392.93 388.195) scale(0.62 0.62 1341 369.75) rotate(270 1341 369.75)"/> 
  <polygon points="-112.939,3243.93 -125.439,3269.43 -99.4376,3269.43" fill="black" transform="flipX(641.239) flipX(1202.57) flipX(1782.15) flipX(1338.9) rotate(90 425.31 342.095) rotate(0 1.4013e-045 1.4013e-045) flipY(392.405) rotate(90 1392.93 388.195) scale(0.62 0.62 1341 369.75) rotate(270 1341 369.75)"/> 
  <text x="1616.09" y="268.969" font-size="15">из приямка ГО (при ЗПА)</text>
  <text x="1644.09" y="318.969" font-size="15">из ГН 2 петли (АПР)</text>
  <text x="1644.48" y="418.97" font-size="15">из ХН 2 петли  (АРР)</text>
  <text x="1643.7" y="471.092" font-size="15">из ХН 4 петли  (АРР)</text>
  <polygon points="-30.433,3244.18 -42.933,3269.68 -16.933,3269.68" fill="black" transform="flipX(641.239) flipX(1202.57) flipX(1782.15) flipX(1338.9) rotate(90 425.31 342.095) rotate(0 1.4013e-045 1.4013e-045) flipY(392.405) rotate(90 1392.93 388.195) scale(0.62 0.62 1341 369.75) rotate(270 1341 369.75)"/> 
  <polyline points="1064.73,728.697 1339.73,728.697 1339.73,628.697 1064.73,628.697" fill="none" stroke="black" stroke-width="3" transform="flipX(1469.98)"/> 
  <polyline points="1064.73,578.697 1339.73,578.697 1339.73,478.698 1064.73,478.698" fill="none" stroke="black" stroke-width="3" transform="flipX(1469.98)"/> 
  <polygon points="132.471,3242.56 119.971,3268.06 145.971,3268.06" fill="black" transform="flipX(641.239) flipX(1202.57) flipX(1782.15) flipX(1338.9) rotate(90 425.31 342.095) rotate(0 1.4013e-045 1.4013e-045) flipY(392.405) rotate(90 1392.93 388.195) scale(0.62 0.62 1341 369.75) rotate(270 1341 369.75)"/> 
  <polygon points="213.116,3241.73 200.616,3267.23 226.616,3267.23" fill="black" transform="flipX(641.239) flipX(1202.57) flipX(1782.15) flipX(1338.9) rotate(90 425.31 342.095) rotate(0 1.4013e-045 1.4013e-045) flipY(392.405) rotate(90 1392.93 388.195) scale(0.62 0.62 1341 369.75) rotate(270 1341 369.75)"/> 
  <polygon points="374.406,3244.18 361.906,3269.68 387.907,3269.68" fill="black" transform="flipX(641.239) flipX(1202.57) flipX(1782.15) flipX(1338.9) rotate(90 425.31 342.095) rotate(0 1.4013e-045 1.4013e-045) flipY(392.405) rotate(90 1392.93 388.195) scale(0.62 0.62 1341 369.75) rotate(270 1341 369.75)"/> 
  <text x="1653.24" y="571.122" font-size="15">из ГН 4 петли (АПР)</text>
  <text x="1627.24" y="621.122" font-size="15">из приямка ГО (при ЗПА)</text>
  <text x="1664.64" y="721.122" font-size="15">из БВ (при НЭ)</text>
  <polyline points="1339.33,375 1464.66,375 1464.66,225 1339.33,225" fill="none" stroke="black" stroke-width="3" transform="flipX(1469.83)"/> 
  <polyline points="1339.33,676 1464.66,675 1464.66,525 1339.33,526" fill="none" stroke="black" stroke-width="3" transform="flipX(1469.83)"/> 
  <line x1="1567" y1="375" x2="1567" y2="525" stroke="black" stroke-width="3"/> 
  <line x1="1523.15" y1="128.758" x2="1523.15" y2="818.151" stroke="black" stroke-width="3"/> 
  <line x1="1543.3" y1="128.91" x2="1543.3" y2="818.302" stroke="black" stroke-width="3"/> 
  <polyline points="1490.73,149.899 1495.69,146.626 1500.65,144.402 1505.29,143.152 1510.29,142.581 1514.58,142.866 1519.44,143.866 1524.15,145.295 1528.44,147.152 1532.87,149.581 1537.01,151.866 1540.44,153.723 1543.72,155.438 1547.58,156.438 1551.29,157.295 1555.87,158.009 1559.58,158.152 1563.44,157.866 1566.87,157.152 1570.58,155.723 1573.87,154.009 1577.72,151.295" fill="none" stroke="black" stroke-width="1"/> 
  <polyline points="1491.12,799.275 1496.09,796.001 1501.05,793.777 1505.69,792.527 1510.69,791.957 1514.98,792.242 1519.83,793.242 1524.55,794.671 1528.83,796.527 1533.26,798.957 1537.4,801.242 1540.83,803.099 1544.12,804.813 1547.98,805.813 1551.69,806.671 1556.26,807.385 1559.98,807.527 1563.83,807.242 1567.26,806.527 1570.98,805.099 1574.26,803.385 1578.12,800.671" fill="none" stroke="black" stroke-width="1"/> 
  <line x1="1425" y1="300" x2="1475" y2="300" stroke="black" stroke-width="3"/> 
  <text x="886.364" y="190.152" font-size="15" font-weight="bold">21UKA04R022</text>
  <text x="1462.97" y="775" fill="black" font-size="15" font-weight="bold" text-anchor="middle">20UKA</text>
  <text x="1594.15" y="776.515" fill="black" font-size="15" font-weight="bold" text-anchor="middle">20UJA</text>
  <rect x="433.485" y="466.061" width="1016.67" height="250" rx="0" ry="0" fill="none" stroke="black" stroke-dasharray="15,5"/> 
  <text x="534.091" y="487.273" font-size="15">22JNA21AP001</text>
  <line x1="800.151" y1="600.151" x2="1225.15" y2="600.151" stroke="black" stroke-width="3"/> 
  <text x="649.091" y="637.273" font-size="15">22JNA22AP001</text>
  <text x="467.576" y="650.273" font-size="15">22JNA22BN001</text>
  <rect x="1224.15" y="525.151" width="200" height="150" rx="0" ry="0" fill="none" stroke="black" stroke-width="3"/> 
  <text x="1259.54" y="600.91" font-size="15">22JNA20AC001</text>
  <g transform="rotate(90 956.818 194.697)">
    <polygon points="1261.21,-192.091 1311.21,-191.591 1311.21,-142.091 1261.21,-142.091" fill="Col_Grey2" stroke="black" stroke-width="1"/> 
    <line x1="1276.21" y1="-166.591" x2="1286.71" y2="-177.591" stroke="black" stroke-width="3"/> 
    <line x1="1286.21" y1="-157.591" x2="1296.21" y2="-167.091" stroke="black" stroke-width="3"/> 
    <line x1="1286.21" y1="-157.091" x2="1286.21" y2="-177.091" stroke="black" stroke-width="3"/> 
    <line x1="1261.21" y1="-166.591" x2="1276.96" y2="-166.591" stroke="black" stroke-width="3"/> 
    <line x1="1295.54" y1="-167.091" x2="1311.29" y2="-167.091" stroke="black" stroke-width="3"/> 
  </g>
  <g transform="rotate(90 956.818 194.697)">
    <polygon points="1412.36,-192.242 1462.36,-191.742 1462.36,-142.242 1412.36,-142.242" fill="Col_Grey2" stroke="black" stroke-width="1"/> 
    <line x1="1427.36" y1="-166.742" x2="1437.86" y2="-177.742" stroke="black" stroke-width="3"/> 
    <line x1="1437.36" y1="-157.742" x2="1447.36" y2="-167.242" stroke="black" stroke-width="3"/> 
    <line x1="1437.36" y1="-157.242" x2="1437.36" y2="-177.242" stroke="black" stroke-width="3"/> 
    <line x1="1412.36" y1="-166.742" x2="1428.11" y2="-166.742" stroke="black" stroke-width="3"/> 
    <line x1="1446.69" y1="-167.242" x2="1462.44" y2="-167.242" stroke="black" stroke-width="3"/> 
  </g>
  <line x1="1425.15" y1="600.151" x2="1475.15" y2="600.151" stroke="black" stroke-width="3"/> 
  <text x="886.516" y="490.304" font-size="15" font-weight="bold">20UKA04R023</text>
  <text x="780.303" y="825.636" font-size="15">НЭ - нормальная эксплуатация<tspan x="780.303" dy="15">ЗПА - запроектная авария</tspan>
<tspan x="780.303" dy="15">АПР - аварийное или плановое расхолаживание</tspan>
<tspan x="780.303" dy="15">АРР - аварийное или ремонтное расхолаживание</tspan>
  </text>
  <g>
    <polygon points="401.233,362.71 388.567,387.71 413.567,387.71" fill="Col_BGSand" stroke="black" stroke-width="3" transform="rotate(90 462.486 436.573)"/> 
    <circle cx="540.883" cy="375.324" r="10.2995" fill="Col_BGSand" stroke="black" stroke-width="3"/> 
  </g>
  <g>
    <polygon points="704.233,362.71 691.567,387.71 716.567,387.71" fill="Col_BGSand" stroke="black" stroke-width="3" transform="rotate(90 462.486 436.573)"/> 
    <circle cx="540.883" cy="678.324" r="10.2995" fill="Col_BGSand" stroke="black" stroke-width="3"/> 
  </g>
  <rect x="1008.76" y="241.306" width="139.394" height="21.2122" rx="0" ry="0" fill="Col_BGItemSel"/> 
  <image x="1008.58" y="265.064" width="175" height="25" xlink:href="DS_ana_ASRK.svg">
    <title>&quot;21JNA10CR001B01&quot;</title>
    <rt:dyn type="IsExp" mode="constant" value="true"/> 
    <rt:dyn type="ShowFrame" mode="constant" value="true"/> 
    <rt:dyn type="Color_Readings" mode="constant" value="true"/> 
    <rt:dyn type="FKKS" mode="constant" value="&quot;21JNA10CR001B01&quot;"/> 
    <rt:dyn type="ValueToTheRight" mode="constant" value="false"/> 
    <rt:dyn type="X" mode="constant" value="&quot;G&quot;"/> 
    <rt:dyn type="SetBounds" mode="constant" value="true"/> 
    <rt:dyn type="Show_Map" mode="constant" value="false"/> 
  </image>
  <text x="1017.58" y="258.064" fill="black" font-size="15" text-anchor="start">21JNA10CR001</text>
  <image x="678.788" y="340.152" width="70" height="70" xlink:href="DS_motor.svg" transform="flipX(-5.49797e-005)"/> 
  <image x="555.606" y="492.061" width="70" height="70" xlink:href="DS_motor.svg" transform="flipX(-5.49797e-005)"/> 
  <image x="678.788" y="641.97" width="70" height="70" xlink:href="DS_motor.svg" transform="flipX(-5.49797e-005)"/> 
  <rect x="899.563" y="312.909" width="139.394" height="21.2122" rx="0" ry="0" fill="Col_BGItemSel"/> 
  <image x="899.383" y="336.667" width="175" height="25" xlink:href="DS_ana_ASRK.svg">
    <title>&quot;21JNA10CR002B01&quot;</title>
    <rt:dyn type="IsExp" mode="constant" value="true"/> 
    <rt:dyn type="ShowFrame" mode="constant" value="true"/> 
    <rt:dyn type="Color_Readings" mode="constant" value="true"/> 
    <rt:dyn type="FKKS" mode="constant" value="&quot;21JNA10CR002B01&quot;"/> 
    <rt:dyn type="ValueToTheRight" mode="constant" value="false"/> 
    <rt:dyn type="X" mode="constant" value="&quot;G&quot;"/> 
    <rt:dyn type="SetBounds" mode="constant" value="true"/> 
    <rt:dyn type="Show_Map" mode="constant" value="false"/> 
  </image>
  <text x="908.383" y="329.667" fill="black" font-size="15" text-anchor="start">21JNA10CR002</text>
  <rect x="1008.91" y="539.458" width="139.394" height="21.2122" rx="0" ry="0" fill="Col_BGItemSel"/> 
  <image x="1008.73" y="563.216" width="175" height="25" xlink:href="DS_ana_ASRK.svg">
    <title>&quot;22JNA20CR001B01&quot;</title>
    <rt:dyn type="IsExp" mode="constant" value="true"/> 
    <rt:dyn type="ShowFrame" mode="constant" value="true"/> 
    <rt:dyn type="Color_Readings" mode="constant" value="true"/> 
    <rt:dyn type="FKKS" mode="constant" value="&quot;22JNA20CR001B01&quot;"/> 
    <rt:dyn type="ValueToTheRight" mode="constant" value="false"/> 
    <rt:dyn type="X" mode="constant" value="&quot;G&quot;"/> 
    <rt:dyn type="SetBounds" mode="constant" value="true"/> 
    <rt:dyn type="Show_Map" mode="constant" value="false"/> 
  </image>
  <text x="1017.73" y="556.216" fill="black" font-size="15" text-anchor="start">22JNA20CR001</text>
  <rect x="899.714" y="611.061" width="139.394" height="21.2122" rx="0" ry="0" fill="Col_BGItemSel"/> 
  <image x="899.534" y="634.818" width="175" height="25" xlink:href="DS_ana_ASRK.svg">
    <title>&quot;22JNA20CR002B01&quot;</title>
    <rt:dyn type="IsExp" mode="constant" value="true"/> 
    <rt:dyn type="ShowFrame" mode="constant" value="true"/> 
    <rt:dyn type="Color_Readings" mode="constant" value="true"/> 
    <rt:dyn type="FKKS" mode="constant" value="&quot;22JNA20CR002B01&quot;"/> 
    <rt:dyn type="ValueToTheRight" mode="constant" value="false"/> 
    <rt:dyn type="X" mode="constant" value="&quot;G&quot;"/> 
    <rt:dyn type="SetBounds" mode="constant" value="true"/> 
    <rt:dyn type="Show_Map" mode="constant" value="false"/> 
  </image>
  <text x="908.534" y="627.818" fill="black" font-size="15" text-anchor="start">22JNA20CR002</text>
  <image x="1747.91" y="912.121" width="75" height="25" xlink:href="obj_link.svg" transform="rotate(0 37.3619 12.5)">
    <rt:dyn type="TextStr" mode="constant" value="&quot;PK&quot;"/> 
    <rt:event type="OnClick">LoadNew(&quot;&quot;)</rt:event>
    <rt:dyn type="ModName" mode="constant" value="&quot;all_asrk&quot;"/> 
  </image>
  <text x="75" y="32.5" fill="black" font-size="15" font-weight="700" text-anchor="middle">
    <title>Схема КИП насосов охлаждения бассейна выдержки</title>
ASRK_1KONT_BV</text>
  <g>
    <polyline points="975,244.228 997.5,289.228 952,289.228 975,244.228" fill="Col_Grey4" stroke="black" stroke-width="1"/> 
  </g>
  <g>
    <polyline points="860.817,319.228 883.317,364.228 837.817,364.228 860.817,319.228" fill="Col_Grey4" stroke="black" stroke-width="1"/> 
  </g>
  <g>
    <polyline points="975,544.228 997.5,589.228 952,589.228 975,544.228" fill="Col_Grey4" stroke="black" stroke-width="1"/> 
  </g>
  <g>
    <polyline points="863.817,616.228 886.317,661.228 840.817,661.228 863.817,616.228" fill="Col_Grey4" stroke="black" stroke-width="1"/> 
  </g>
</svg>
