<?xml  version="1.0" encoding="windows-1251"?>
<svg color="Col_BGSand" xmlns="http://www.w3.org/2000/svg" xmlns:rt="http://www.rts.co.at/2001/XMLSchema/RtSvgPL" xmlns:xlink="http://www.w3.org/1999/xlink" xmlns:xsi="http://www.w3.org/2001/XMLSchema-instance" xsi:schemaLocation="http://www.w3.org/2000/svg C:\RTS\RtSvg\XML\SVG.xsd" viewBox="0 0 1914 1000" width="1914" height="1000" id="asrk_ukc_-54">
  <title>РК во вспомогательном реакторном здании отм. -5,4</title>
  <rt:model modelversion="7.2.0.24" comment="UMod all_asrk&#10;LMod asrk_ukc_48&#10;RMod asrk_ukc_84" revision="3"/> 
  <line x1="1467.07" y1="294" x2="928.512" y2="294" stroke="black"/> 
  <line x1="817" y1="237" x2="817" y2="237" stroke="black"/> 
  <circle cx="931.284" cy="293.55" r="8.57141" fill="black" stroke="black" stroke-width="3"/> 
  <circle cx="1192.28" cy="706.05" r="8.57141" fill="black" stroke="black" stroke-width="3"/> 
  <circle cx="544.884" cy="670.049" r="8.57141" fill="black" stroke="black" stroke-width="3"/> 
  <line x1="1468.9" y1="624" x2="1189.9" y2="704" stroke="black"/> 
  <rect x="319.267" y="101.548" width="10" height="820" rx="0" ry="0"/> 
  <rect x="319.267" y="96.5477" width="1092" height="11" rx="0" ry="0"/> 
  <rect x="1401.26" y="97.5477" width="10" height="824" rx="0" ry="0"/> 
  <rect x="319.267" y="371.548" width="189" height="11" rx="0" ry="0"/> 
  <rect x="499.267" y="301.548" width="10" height="92" rx="0" ry="0"/> 
  <rect x="411.267" y="303.548" width="8" height="75" rx="0" ry="0"/> 
  <rect x="323.267" y="304.548" width="63" height="9" rx="0" ry="0"/> 
  <rect x="404.267" y="303.548" width="70" height="8" rx="0" ry="0"/> 
  <rect x="488.267" y="301.548" width="23" height="9" rx="0" ry="0"/> 
  <rect x="466.267" y="376.548" width="8" height="38" rx="0" ry="0"/> 
  <rect x="324.267" y="445.548" width="183" height="10" rx="0" ry="0"/> 
  <rect x="465.267" y="449.548" width="8" height="38" rx="0" ry="0"/> 
  <rect x="496.267" y="411.548" width="11" height="59" rx="0" ry="0"/> 
  <rect x="319.267" y="515.548" width="187" height="10" rx="0" ry="0"/> 
  <rect x="464.267" y="519.548" width="8" height="38" rx="0" ry="0"/> 
  <rect x="497.267" y="481.548" width="9" height="58" rx="0" ry="0"/> 
  <rect x="324.267" y="586.548" width="180" height="10" rx="0" ry="0"/> 
  <rect x="494.267" y="552.548" width="10" height="58" rx="0" ry="0"/> 
  <rect x="324.267" y="660.548" width="180" height="10" rx="0" ry="0"/> 
  <rect x="496.267" y="626.548" width="8" height="42" rx="0" ry="0"/> 
  <rect x="382.267" y="621.548" width="10" height="41" rx="0" ry="0"/> 
  <rect x="429.267" y="663.548" width="9" height="21" rx="0" ry="0"/> 
  <rect x="476.267" y="663.548" width="9" height="21" rx="0" ry="0"/> 
  <rect x="326.267" y="698.548" width="180" height="10" rx="0" ry="0"/> 
  <rect x="497.267" y="698.548" width="9" height="24" rx="0" ry="0"/> 
  <rect x="495.267" y="740.548" width="9" height="184" rx="0" ry="0"/> 
  <rect x="449.267" y="647.548" width="50" height="3" rx="0" ry="0"/> 
  <rect x="451.267" y="647.89" width="3" height="20" rx="0" ry="0"/> 
  <rect x="462.136" y="648.548" width="3" height="20" rx="0" ry="0"/> 
  <rect x="319.267" y="920.548" width="180" height="4" rx="0" ry="0"/> 
  <rect x="552.267" y="922.548" width="296.333" height="3" rx="0" ry="0"/> 
  <rect x="841.267" y="800.548" width="8" height="124" rx="0" ry="0"/> 
  <rect x="551.267" y="830.548" width="7" height="94" rx="0" ry="0"/> 
  <rect x="553.267" y="794.548" width="307" height="8" rx="0" ry="0"/> 
  <rect x="550.267" y="794.548" width="9" height="19" rx="0" ry="0"/> 
  <rect x="734.267" y="785.548" width="9" height="16" rx="0" ry="0"/> 
  <rect x="846.267" y="522.548" width="14" height="274" rx="0" ry="0"/> 
  <rect x="551.267" y="633.548" width="305" height="10" rx="0" ry="0"/> 
  <rect x="551.267" y="636.548" width="14" height="117" rx="0" ry="0"/> 
  <rect x="552.267" y="742.548" width="68" height="11" rx="0" ry="0"/> 
  <rect x="675.267" y="743.548" width="68" height="11" rx="0" ry="0"/> 
  <rect x="634.267" y="741.548" width="27" height="11" rx="0" ry="0"/> 
  <rect x="641.267" y="635.548" width="14" height="117" rx="0" ry="0"/> 
  <rect x="732.267" y="636.548" width="13" height="137" rx="0" ry="0"/> 
  <rect x="552.267" y="620.548" width="9" height="16" rx="0" ry="0"/> 
  <rect x="680.267" y="585.548" width="11" height="54" rx="0" ry="0"/> 
  <rect x="554.267" y="583.548" width="137" height="11" rx="0" ry="0"/> 
  <rect x="552.267" y="557.548" width="13" height="30" rx="0" ry="0"/> 
  <rect x="553.267" y="585.548" width="9" height="22" rx="0" ry="0"/> 
  <rect x="611.267" y="731.548" width="9" height="16" rx="0" ry="0"/> 
  <rect x="678.267" y="733.548" width="9" height="16" rx="0" ry="0"/> 
  <rect x="553.267" y="523.548" width="306" height="10" rx="0" ry="0"/> 
  <rect x="553.267" y="512.548" width="13" height="30" rx="0" ry="0"/> 
  <rect x="680.267" y="546.548" width="12" height="25" rx="0" ry="0"/> 
  <rect x="589.267" y="530.548" width="12" height="25" rx="0" ry="0"/> 
  <rect x="553.267" y="479.548" width="305" height="11" rx="0" ry="0"/> 
  <rect x="553.267" y="420.548" width="14" height="82" rx="0" ry="0"/> 
  <rect x="556.267" y="374.548" width="13" height="30" rx="0" ry="0"/> 
  <rect x="556.267" y="373.548" width="117" height="11" rx="0" ry="0"/> 
  <rect x="557.267" y="303.548" width="7" height="76" rx="0" ry="0"/> 
  <rect x="560.267" y="303.548" width="168" height="9" rx="0" ry="0"/> 
  <rect x="568.267" y="297.548" width="10" height="14" rx="0" ry="0"/> 
  <rect x="718.267" y="304.548" width="12" height="34" rx="0" ry="0"/> 
  <rect x="660.267" y="309.548" width="10" height="68" rx="0" ry="0"/> 
  <rect x="660.267" y="382.548" width="13" height="71" rx="0" ry="0"/> 
  <rect x="668.267" y="372.548" width="62" height="9" rx="0" ry="0"/> 
  <rect x="718.267" y="348.548" width="13" height="46" rx="0" ry="0"/> 
  <rect x="717.267" y="407.548" width="12" height="62" rx="0" ry="0"/> 
  <rect x="667.267" y="442.548" width="75" height="11" rx="0" ry="0"/> 
  <rect x="603.267" y="409.548" width="8" height="41" rx="0" ry="0"/> 
  <rect x="768.267" y="302.548" width="99" height="12" rx="0" ry="0"/> 
  <rect x="768.267" y="304.548" width="12" height="34" rx="0" ry="0"/> 
  <rect x="767.267" y="349.548" width="14" height="27" rx="0" ry="0"/> 
  <rect x="778.267" y="360.548" width="80" height="12" rx="0" ry="0"/> 
  <rect x="845.267" y="309.548" width="13" height="176" rx="0" ry="0"/> 
  <rect x="767.267" y="414.548" width="86" height="13" rx="0" ry="0"/> 
  <rect x="767.267" y="386.548" width="13" height="64" rx="0" ry="0"/> 
  <rect x="757.267" y="440.548" width="23" height="12" rx="0" ry="0"/> 
  <rect x="717.267" y="156.548" width="168" height="9" rx="0" ry="0"/> 
  <rect x="715.267" y="153.548" width="8" height="13" rx="0" ry="0"/> 
  <rect x="714.267" y="161.548" width="12" height="95" rx="0" ry="0"/> 
  <rect x="657.267" y="159.548" width="66" height="10" rx="0" ry="0"/> 
  <rect x="656.267" y="166.548" width="9" height="95" rx="0" ry="0"/> 
  <rect x="571.267" y="159.548" width="101" height="6" rx="0" ry="0"/> 
  <rect x="569.267" y="159.548" width="7" height="109" rx="0" ry="0"/> 
  <rect x="616.267" y="257.548" width="55" height="5" rx="0" ry="0"/> 
  <rect x="568.267" y="258.548" width="33" height="5" rx="0" ry="0"/> 
  <rect x="690.267" y="255.548" width="57" height="7" rx="0" ry="0"/> 
  <rect x="767.267" y="258.548" width="57" height="5" rx="0" ry="0"/> 
  <rect x="823.267" y="181.548" width="7" height="82" rx="0" ry="0"/> 
  <rect x="824.267" y="254.548" width="17" height="9" rx="0" ry="0"/> 
  <rect x="823.267" y="179.548" width="30" height="7" rx="0" ry="0"/> 
  <rect x="847.267" y="157.548" width="7" height="28" rx="0" ry="0"/> 
  <rect x="872.267" y="100.548" width="13" height="61" rx="0" ry="0"/> 
  <rect x="716.267" y="100.548" width="9" height="21" rx="0" ry="0"/> 
  <rect x="518.267" y="100.548" width="9" height="11" rx="0" ry="0"/> 
  <rect x="453.267" y="102.548" width="8" height="18" rx="0" ry="0"/> 
  <rect x="373.267" y="101.548" width="9" height="127" rx="0" ry="0"/> 
  <rect x="360.267" y="225.548" width="39" height="5" rx="0" ry="0"/> 
  <rect x="361.267" y="188.548" width="20" height="5" rx="0" ry="0"/> 
  <rect x="326.267" y="189.548" width="12" height="6" rx="0" ry="0"/> 
  <rect x="324.267" y="224.548" width="12" height="6" rx="0" ry="0"/> 
  <rect x="453.267" y="153.548" width="7" height="76" rx="0" ry="0"/> 
  <rect x="431.267" y="225.548" width="37" height="5" rx="0" ry="0"/> 
  <rect x="456.267" y="184.548" width="120" height="5" rx="0" ry="0"/> 
  <rect x="515.267" y="184.548" width="6" height="12" rx="0" ry="0"/> 
  <rect x="500.267" y="225.548" width="74" height="6" rx="0" ry="0"/> 
  <rect x="514.267" y="222.548" width="6" height="29" rx="0" ry="0"/> 
  <rect x="537.267" y="247.548" width="34" height="6" rx="0" ry="0"/> 
  <rect x="545.267" y="229.548" width="1.66667" height="18" rx="0" ry="0"/> 
  <rect x="564.267" y="231.548" width="2" height="16" rx="0" ry="0"/> 
  <rect x="876.267" y="156.548" width="9" height="105" rx="0" ry="0"/> 
  <rect x="866.267" y="254.548" width="17" height="9" rx="0" ry="0"/> 
  <rect x="870.267" y="258.548" width="57" height="5" rx="0" ry="0"/> 
  <rect x="877.267" y="179.548" width="13" height="6" rx="0" ry="0"/> 
  <rect x="959.267" y="100.548" width="7" height="162" rx="0" ry="0"/> 
  <rect x="950.267" y="258.548" width="20" height="6" rx="0" ry="0"/> 
  <rect x="954.267" y="180.548" width="136" height="6" rx="0" ry="0"/> 
  <rect x="1040.27" y="176.548" width="7" height="15" rx="0" ry="0"/> 
  <rect x="1039.27" y="99.5477" width="9" height="11" rx="0" ry="0"/> 
  <rect x="1119.27" y="100.548" width="9" height="11" rx="0" ry="0"/> 
  <rect x="1205.27" y="101.548" width="7" height="162" rx="0" ry="0"/> 
  <rect x="1114.27" y="182.548" width="104" height="6" rx="0" ry="0"/> 
  <rect x="1123.27" y="175.548" width="6" height="89" rx="0" ry="0"/> 
  <rect x="1125.27" y="259.548" width="59" height="5" rx="0" ry="0"/> 
  <rect x="1154.27" y="261.548" width="9" height="9" rx="0" ry="0"/> 
  <rect x="989.267" y="182.548" width="6" height="78" rx="0" ry="0"/> 
  <rect x="1024.27" y="259.548" width="58" height="6" rx="0" ry="0"/> 
  <rect x="985.267" y="258.548" width="24" height="6" rx="0" ry="0"/> 
  <rect x="1075.27" y="184.548" width="6" height="78" rx="0" ry="0"/> 
  <rect x="1195.27" y="260.548" width="59" height="5" rx="0" ry="0"/> 
  <rect x="1277.26" y="260.548" width="33" height="5" rx="0" ry="0"/> 
  <rect x="1284.26" y="99.5477" width="8" height="163" rx="0" ry="0"/> 
  <line x1="1301.26" y1="187.548" x2="1334.26" y2="216.548" stroke="black" stroke-width="7"/> 
  <rect x="1275.26" y="184.548" width="28" height="6" rx="0" ry="0"/> 
  <rect x="1331.26" y="214.548" width="7" height="49" rx="0" ry="0"/> 
  <rect x="1326.26" y="260.548" width="29" height="6" rx="0" ry="0"/> 
  <rect x="1380.26" y="260.548" width="29" height="6" rx="0" ry="0"/> 
  <rect x="1377.26" y="213.548" width="29" height="6" rx="0" ry="0"/> 
  <rect x="1377.26" y="190.548" width="29" height="6" rx="0" ry="0"/> 
  <rect x="1372.26" y="190.548" width="6" height="29" rx="0" ry="0"/> 
  <rect x="1347.26" y="305.548" width="62" height="5" rx="0" ry="0"/> 
  <rect x="1309.26" y="306.548" width="6" height="78" rx="0" ry="0"/> 
  <rect x="1294.26" y="304.548" width="32" height="6" rx="0" ry="0"/> 
  <rect x="1222.27" y="304.548" width="7" height="86" rx="0" ry="0"/> 
  <rect x="1227.27" y="378.548" width="177" height="7" rx="0" ry="0"/> 
  <rect x="1225.27" y="304.548" width="45" height="6" rx="0" ry="0"/> 
  <rect x="896.267" y="304.548" width="14" height="133" rx="0" ry="0"/> 
  <rect x="888.267" y="303.548" width="89" height="11" rx="0" ry="0"/> 
  <rect x="896.267" y="428.548" width="12" height="63" rx="0" ry="0"/> 
  <rect x="903.267" y="427.548" width="84" height="11" rx="0" ry="0"/> 
  <rect x="965.267" y="327.548" width="14" height="108" rx="0" ry="0"/> 
  <rect x="940.267" y="332.548" width="30" height="11" rx="0" ry="0"/> 
  <rect x="963.267" y="306.548" width="14" height="11" rx="0" ry="0"/> 
  <rect x="904.267" y="479.548" width="274" height="12" rx="0" ry="0"/> 
  <rect x="1009.27" y="303.548" width="11" height="102" rx="0" ry="0"/> 
  <rect x="1013.27" y="303.548" width="23" height="9" rx="0" ry="0"/> 
  <rect x="1010.27" y="390.548" width="163" height="9" rx="0" ry="0"/> 
  <rect x="1070.27" y="303.548" width="13" height="184" rx="0" ry="0"/> 
  <rect x="1081.27" y="303.548" width="95" height="12" rx="0" ry="0"/> 
  <rect x="1155.27" y="298.548" width="9" height="9" rx="0" ry="0"/> 
  <rect x="1051.27" y="303.548" width="26" height="9" rx="0" ry="0"/> 
  <rect x="1163.27" y="310.548" width="13" height="62" rx="0" ry="0"/> 
  <rect x="1145.27" y="357.548" width="30" height="11" rx="0" ry="0"/> 
  <rect x="1164.27" y="389.548" width="13" height="67" rx="0" ry="0"/> 
  <rect x="1147.27" y="442.548" width="30" height="11" rx="0" ry="0"/> 
  <rect x="1166.27" y="473.548" width="14" height="27" rx="0" ry="0"/> 
  <rect x="1011.27" y="416.548" width="11" height="72" rx="0" ry="0"/> 
  <rect x="1000.27" y="428.548" width="20" height="9" rx="0" ry="0"/> 
  <rect x="906.267" y="521.548" width="273" height="12" rx="0" ry="0"/> 
  <rect x="1166.27" y="512.548" width="14" height="105" rx="0" ry="0"/> 
  <rect x="1175.27" y="591.548" width="13" height="4" rx="0" ry="0"/> 
  <rect x="1222.27" y="590.548" width="13" height="4" rx="0" ry="0"/> 
  <rect x="1133.27" y="525.548" width="11" height="41" rx="0" ry="0"/> 
  <rect x="1052.27" y="527.548" width="15" height="172" rx="0" ry="0"/> 
  <rect x="1057.27" y="604.548" width="119" height="10" rx="0" ry="0"/> 
  <rect x="1133.27" y="604.548" width="11" height="41" rx="0" ry="0"/> 
  <rect x="1052.27" y="690.548" width="129" height="9" rx="0" ry="0"/> 
  <rect x="1169.27" y="629.548" width="13" height="67" rx="0" ry="0"/> 
  <rect x="1172.27" y="688.548" width="10" height="28" rx="0" ry="0"/> 
  <rect x="1172.27" y="727.548" width="10" height="21" rx="0" ry="0"/> 
  <rect x="1046.27" y="742.548" width="136" height="9" rx="0" ry="0"/> 
  <rect x="1052.27" y="693.548" width="11" height="50" rx="0" ry="0"/> 
  <rect x="977.267" y="529.548" width="12" height="53" rx="0" ry="0"/> 
  <rect x="989.267" y="573.548" width="33" height="5" rx="0" ry="0"/> 
  <rect x="1038.27" y="573.548" width="26" height="5" rx="0" ry="0"/> 
  <rect x="906.267" y="530.548" width="11" height="224" rx="0" ry="0"/> 
  <rect x="907.267" y="743.548" width="115" height="11" rx="0" ry="0"/> 
  <rect x="1003.27" y="721.548" width="12" height="23" rx="0" ry="0"/> 
  <rect x="1003.27" y="673.548" width="12" height="36" rx="0" ry="0"/> 
  <rect x="1003.27" y="627.548" width="12" height="36" rx="0" ry="0"/> 
  <rect x="913.267" y="604.548" width="100" height="6" rx="0" ry="0"/> 
  <rect x="977.267" y="598.548" width="12" height="10" rx="0" ry="0"/> 
  <rect x="978.267" y="602.548" width="6.00002" height="27" rx="0" ry="0"/> 
  <rect x="1003.27" y="606.548" width="11" height="9" rx="0" ry="0"/> 
  <rect x="912.267" y="651.548" width="100" height="6" rx="0" ry="0"/> 
  <rect x="978.267" y="652.548" width="6" height="24" rx="0" ry="0"/> 
  <rect x="912.267" y="698.548" width="100" height="6" rx="0" ry="0"/> 
  <rect x="978.267" y="699.548" width="6" height="24" rx="0" ry="0"/> 
  <rect x="917.267" y="744.548" width="10" height="24" rx="0" ry="0"/> 
  <rect x="429.267" y="811.548" width="12" height="6" rx="0" ry="0"/> 
  <rect x="429.267" y="847.548" width="12" height="6" rx="0" ry="0"/> 
  <rect x="900.267" y="921.548" width="284" height="3" rx="0" ry="0"/> 
  <rect x="1177.27" y="825.548" width="7" height="96" rx="0" ry="0"/> 
  <rect x="917.267" y="797.548" width="8" height="124" rx="0" ry="0"/> 
  <rect x="917.267" y="781.548" width="10" height="18" rx="0" ry="0"/> 
  <rect x="921.267" y="791.548" width="262" height="6" rx="0" ry="0"/> 
  <rect x="1177.27" y="791.548" width="6.00002" height="15" rx="0" ry="0"/> 
  <rect x="1224.27" y="402.548" width="9" height="110" rx="0" ry="0"/> 
  <rect x="1231.27" y="441.548" width="174" height="6" rx="0" ry="0"/> 
  <rect x="1310.26" y="508.548" width="94" height="6" rx="0" ry="0"/> 
  <rect x="1309.26" y="508.548" width="9" height="42" rx="0" ry="0"/> 
  <rect x="1228.27" y="542.548" width="84" height="6" rx="0" ry="0"/> 
  <rect x="1227.27" y="532.548" width="7" height="24" rx="0" ry="0"/> 
  <rect x="1227.27" y="567.548" width="7" height="29" rx="0" ry="0"/> 
  <rect x="1230.27" y="590.548" width="177" height="5" rx="0" ry="0"/> 
  <rect x="1310.26" y="563.548" width="7" height="29" rx="0" ry="0"/> 
  <rect x="1309.26" y="593.548" width="7" height="14" rx="0" ry="0"/> 
  <rect x="1309.26" y="617.548" width="7" height="14" rx="0" ry="0"/> 
  <rect x="1297.26" y="550.548" width="12" height="12" rx="0" ry="0"/> 
  <rect x="1228.27" y="628.548" width="178" height="7" rx="0" ry="0"/> 
  <rect x="1228.27" y="629.548" width="7" height="16" rx="0" ry="0"/> 
  <rect x="1229.27" y="659.548" width="7" height="16" rx="0" ry="0"/> 
  <rect x="1229.27" y="668.548" width="178" height="7" rx="0" ry="0"/> 
  <rect x="1249.27" y="673.548" width="10" height="5" rx="0" ry="0"/> 
  <rect x="1291.26" y="672.548" width="10" height="5" rx="0" ry="0"/> 
  <rect x="1250.27" y="691.548" width="9" height="16" rx="0" ry="0"/> 
  <rect x="1292.26" y="690.548" width="9" height="16" rx="0" ry="0"/> 
  <rect x="1229.27" y="704.548" width="178" height="7" rx="0" ry="0"/> 
  <rect x="1229.27" y="706.548" width="7" height="16" rx="0" ry="0"/> 
  <rect x="1229.27" y="739.548" width="9" height="180" rx="0" ry="0"/> 
  <rect x="1229.27" y="918.548" width="179" height="3" rx="0" ry="0"/> 
  <rect x="1232.27" y="834.548" width="69" height="10" rx="0" ry="0"/> 
  <rect x="1295.17" y="783.588" width="14" height="10" rx="0" ry="0"/> 
  <line x1="546.6" y1="230.881" x2="553.934" y2="237.881" stroke="black"/> 
  <line x1="565.6" y1="229.881" x2="557.267" y2="237.881" stroke="black"/> 
  <line x1="564.934" y1="248.215" x2="557.934" y2="241.548" stroke="black"/> 
  <line x1="546.267" y1="247.548" x2="554.267" y2="241.215" stroke="black"/> 
  <g>
    <line x1="372.267" y1="698.881" x2="385.267" y2="686.548" stroke="black"/> 
    <line x1="409.267" y1="686.548" x2="384.267" y2="686.548" stroke="black"/> 
    <line x1="408.099" y1="700.923" x2="407.6" y2="686.548" stroke="black"/> 
    <line x1="379.267" y1="691.548" x2="379.267" y2="699.548" stroke="black"/> 
    <line x1="384.267" y1="686.548" x2="384.267" y2="698.881" stroke="black"/> 
    <line x1="389.267" y1="686.548" x2="389.267" y2="700.548" stroke="black"/> 
    <line x1="394.267" y1="686.548" x2="394.267" y2="699.881" stroke="black"/> 
    <line x1="399.267" y1="686.548" x2="399.267" y2="699.548" stroke="black"/> 
    <line x1="404.267" y1="686.548" x2="404.267" y2="701.548" stroke="black"/> 
  </g>
  <g transform="flipX(73) rotate(90 73 200)">
    <line x1="1.54767" y1="500.6" x2="14.5477" y2="488.267" stroke="black"/> 
    <line x1="38.5477" y1="488.267" x2="13.5477" y2="488.267" stroke="black"/> 
    <line x1="37.3797" y1="502.642" x2="36.8807" y2="488.267" stroke="black"/> 
    <line x1="8.54767" y1="493.267" x2="8.54767" y2="501.267" stroke="black"/> 
    <line x1="13.5477" y1="488.267" x2="13.5477" y2="500.6" stroke="black"/> 
    <line x1="18.5477" y1="488.267" x2="18.5477" y2="502.267" stroke="black"/> 
    <line x1="23.5477" y1="488.267" x2="23.5477" y2="501.6" stroke="black"/> 
    <line x1="28.5477" y1="488.267" x2="28.5477" y2="501.267" stroke="black"/> 
    <line x1="33.5477" y1="488.267" x2="33.5477" y2="503.267" stroke="black"/> 
  </g>
  <g transform="flipX(1037)">
    <line x1="716.697" y1="703.881" x2="729.697" y2="691.548" stroke="black"/> 
    <line x1="753.697" y1="691.548" x2="728.697" y2="691.548" stroke="black"/> 
    <line x1="752.527" y1="705.923" x2="752.027" y2="691.548" stroke="black"/> 
    <line x1="723.697" y1="696.548" x2="723.697" y2="704.548" stroke="black"/> 
    <line x1="728.697" y1="691.548" x2="728.697" y2="703.881" stroke="black"/> 
    <line x1="733.697" y1="691.548" x2="733.697" y2="705.548" stroke="black"/> 
    <line x1="738.697" y1="691.548" x2="738.697" y2="704.881" stroke="black"/> 
    <line x1="743.697" y1="691.548" x2="743.697" y2="704.548" stroke="black"/> 
    <line x1="748.697" y1="691.548" x2="748.697" y2="706.548" stroke="black"/> 
  </g>
  <text x="546.267" y="124.548" font-size="15">20UKC04R011</text>
  <text x="463" y="207" font-size="15">20UKC04<tspan x="463" dy="15">R602</tspan>
  </text>
  <text x="384.905" y="139.118" font-size="15">20UKC04<tspan x="384.905" dy="15">R301</tspan>
  </text>
  <text x="463.934" y="166.215" font-size="15">20UKC04<tspan x="463.934" dy="15">R009</tspan>
  </text>
  <text x="577.73" y="196.215" font-size="15">20UKC04<tspan x="577.73" dy="15">R010</tspan>
  </text>
  <text x="668.5" y="208.5" font-size="15">R012</text>
  <text x="331.084" y="339.548" font-size="15">20UKC04<tspan x="331.084" dy="15">R007</tspan>
  </text>
  <text x="422.74" y="340.215" font-size="15">20UKC04<tspan x="422.74" dy="15">R006</tspan>
  </text>
  <text x="340" y="436.53" font-size="15">20UKC04R005</text>
  <text x="340" y="504.51" font-size="15">20UKC04R004</text>
  <text x="340" y="574.5" font-size="15">20UKC04R003</text>
  <text x="336.01" y="655.89" font-size="15">R002</text>
  <text x="338.5" y="688.5" font-size="15">R502</text>
  <text x="436.6" y="694.5" font-size="15">R001</text>
  <text x="350.35" y="903.87" font-size="15">20UKC04R061</text>
  <text x="582.01" y="779.13" font-size="15">20UKC04R063</text>
  <text x="669.934" y="903.87" font-size="15">20UKC04R034</text>
  <text x="574.397" y="340.881" font-size="15">20UKC04<tspan x="574.397" dy="15">R045</tspan>
  </text>
  <text x="581.267" y="473.548" font-size="15">20UKC04R046</text>
  <text x="578.5" y="610.5" font-size="15">20UKC04<tspan x="578.5" dy="15">R037</tspan>
  </text>
  <text x="578.5" y="663" font-size="15">R036</text>
  <text x="654.094" y="676.881" font-size="15">20UKC04<tspan x="654.094" dy="15">R035</tspan>
  </text>
  <text x="762.6" y="716.882" font-size="15">20UKC04<tspan x="762.6" dy="15">R039</tspan>
  </text>
  <text x="762.6" y="566.881" font-size="15">20UKC04<tspan x="762.6" dy="15">R038</tspan>
  </text>
  <text x="736.6" y="511.548" font-size="15">20UKC04R040</text>
  <text x="767.5" y="463.5" font-size="15">20UKC04<tspan x="767.5" dy="15">R049</tspan>
  </text>
  <text x="788.6" y="392.215" font-size="15">R050</text>
  <text x="789.934" y="336.881" font-size="15">R051</text>
  <text x="675.267" y="347.548" font-size="15">R047</text>
  <text x="675.267" y="404.882" font-size="15">R048</text>
  <text x="967.933" y="510.882" font-size="15">20UKC04R066</text>
  <text x="744.76" y="125.548" font-size="15">20UKC04R014</text>
  <text x="736" y="231" font-size="15">20UKC04<tspan x="736" dy="15">R013</tspan>
  </text>
  <text x="832" y="225" font-size="15">R615</text>
  <text x="890.44" y="213" font-size="15">20UKC<tspan x="890.44" dy="15">04R016</tspan>
  </text>
  <text x="997" y="238.5" font-size="15">20UKC04<tspan x="997" dy="15">R017</tspan>
  </text>
  <text x="1050.6" y="143.548" font-size="15">20UKC04R018</text>
  <text x="1130.5" y="211.5" font-size="15">20UKC04<tspan x="1130.5" dy="15">R020</tspan>
  </text>
  <text x="1231" y="138" font-size="15">R022</text>
  <text x="1316.31" y="155.548" font-size="15">20UKC04<tspan x="1316.31" dy="15">R023</tspan>
  </text>
  <text x="1181.5" y="283.92" font-size="15">20UKC04R024</text>
  <line x1="1301.59" y1="287.265" x2="1217.6" y2="287.265" stroke="black"/> 
  <line x1="1317.3" y1="233.432" x2="1301.07" y2="286.067" stroke="black"/> 
  <text x="982" y="285" font-size="15">20UKC04R021</text>
  <text x="1091.5" y="387" font-size="15">20UKC04R056</text>
  <text x="1095.94" y="416.921" font-size="15">R055</text>
  <text x="1025.53" y="348" font-size="15">R057</text>
  <text x="1022.6" y="416.921" font-size="15">R054</text>
  <text x="919" y="460.5" font-size="15">20UKC04<tspan x="919" dy="15">R053</tspan>
  </text>
  <text x="920.5" y="416.921" font-size="15">R052</text>
  <text x="922" y="576" font-size="15">R065</text>
  <text x="923.934" y="629.548" font-size="15">R067</text>
  <text x="923.267" y="677.548" font-size="15">R068</text>
  <text x="923.268" y="724.214" font-size="15">R069</text>
  <text x="1081.27" y="583.548" font-size="15">20UKC04<tspan x="1081.27" dy="15">R042</tspan>
  </text>
  <text x="1076.5" y="670.5" font-size="15">20UKC04<tspan x="1076.5" dy="15">R043</tspan>
  </text>
  <text x="1124.5" y="714" font-size="15">R044</text>
  <text x="1015.93" y="903.87" font-size="15">20UKC04R033</text>
  <text x="1091.94" y="775.548" font-size="15">20UKC04R058</text>
  <text x="1259.5" y="889.5" font-size="15">20UKC04R060</text>
  <text x="1352.5" y="691.5" font-size="15">R503</text>
  <text x="1294" y="649.5" font-size="15" text-anchor="middle">20UKC04R531<tspan x="1294" dy="15">ЭЦ</tspan>
  </text>
  <text x="1333" y="622.5" font-size="15">R401</text>
  <text x="1238.5" y="571.5" font-size="15">R029</text>
  <text x="1322.5" y="538.5" font-size="15">20UKC04<tspan x="1322.5" dy="15">R030</tspan>
  </text>
  <text x="1273.93" y="472.215" font-size="15">20UKC04R028</text>
  <text x="1273.93" y="410.215" font-size="15">20UKC04R027</text>
  <text x="1233.05" y="352.215" font-size="15">20UKC04<tspan x="1233.05" dy="15">R026</tspan>
  </text>
  <text x="1318.09" y="352.881" font-size="15">20UKC04<tspan x="1318.09" dy="15">R025</tspan>
  </text>
  <line x1="544" y1="669" x2="544" y2="960.3" stroke="black"/> 
  <text x="1007.5" y="42.6667" fill="black" font-size="30" font-weight="700" text-anchor="middle">Радиационный контроль во вспомогательном реакторном здании отм. -5,4</text>
  <text x="336.49" y="773.19" font-size="15">Пом. теплообмен-<tspan x="336.49" dy="15">ников</tspan>
<tspan x="336.49" dy="15">промконтуров</tspan>
<tspan x="336.49" dy="15">PGB50</tspan>
<tspan x="336.49" dy="15">PGB60-70</tspan>
  </text>
  <text x="936.43" y="816.75" font-size="15">Пом. насосов промконтура<tspan x="936.43" dy="15">системы СВО</tspan>
  </text>
  <text x="252.39" y="-197.01" font-size="15">Пом. теплообмен-<tspan x="252.39" dy="15">ников</tspan>
<tspan x="252.39" dy="15">промконтуров</tspan>
<tspan x="252.39" dy="15">PGB50</tspan>
<tspan x="252.39" dy="15">PGB60-70</tspan>
  </text>
  <text x="1244.5" y="772.5" font-size="15">Пом. теплообмен-<tspan x="1244.5" dy="15">ников</tspan>
<tspan x="1244.5" dy="15">промконтуров</tspan>
<tspan x="1244.5" dy="15">PGB20</tspan>
<tspan x="1244.5" dy="15">PGB60-70</tspan>
  </text>
  <text x="728.02" y="186" font-size="15">Пом.<tspan x="728.02" dy="15">операторов</tspan>
  </text>
  <text x="890.5" y="130.5" font-size="15">Пом.<tspan x="890.5" dy="15">насосов</tspan>
<tspan x="890.5" dy="15">FKT</tspan>
  </text>
  <text x="1000" y="202.5" font-size="15">Пом.<tspan x="1000" dy="15">датчиков</tspan>
  </text>
  <text x="572.02" y="693" font-size="15">Насосы<tspan x="572.02" dy="15">трапных</tspan>
<tspan x="572.02" dy="15">вод</tspan>
  </text>
  <text x="334" y="612" font-size="15">Насосы<tspan x="334" dy="15">KBB</tspan>
  </text>
  <text x="1072" y="723" font-size="15">Пом.<tspan x="1072" dy="15">датчиков</tspan>
  </text>
  <text x="1075" y="631.5" font-size="15">Вент.<tspan x="1075" dy="15">камера</tspan>
  </text>
  <text x="1087" y="328.5" font-size="15">Насосы<tspan x="1087" dy="15">борного</tspan>
<tspan x="1087" dy="15">конден-</tspan>
<tspan x="1087" dy="15">сата</tspan>
  </text>
  <text x="917.5" y="358.5" font-size="15">Вент.<tspan x="917.5" dy="15">каме-</tspan>
<tspan x="917.5" dy="15">ра</tspan>
  </text>
  <image x="1747.91" y="912.121" width="75" height="25" xlink:href="obj_link.svg" transform="rotate(0 37.3619 12.5)">
    <rt:dyn type="TextStr" mode="constant" value="&quot;PK&quot;"/> 
    <rt:event type="OnClick">LoadNew(&quot;&quot;)</rt:event>
    <rt:dyn type="ModName" mode="constant" value="&quot;all_asrk&quot;"/> 
  </image>
  <text x="85" y="50" fill="black" font-size="15" font-weight="700" text-anchor="middle">
    <title>Схема КИП насосов охлаждения бассейна выдержки</title>
ASRK_UKC_-54</text>
  <rect x="467.149" y="933.997" width="139.394" height="21.2122" rx="0" ry="0" fill="Col_BGItemSel"/> 
  <image x="466.969" y="957.755" width="175" height="25" xlink:href="DS_ana_ASRK.svg">
    <title>&quot;20UKC04CR002B01&quot;</title>
    <rt:dyn type="IsExp" mode="constant" value="true"/> 
    <rt:dyn type="ShowFrame" mode="constant" value="true"/> 
    <rt:dyn type="Color_Readings" mode="constant" value="true"/> 
    <rt:dyn type="FKKS" mode="constant" value="&quot;20UKC04CR002B01&quot;"/> 
    <rt:dyn type="ValueToTheRight" mode="constant" value="false"/> 
    <rt:dyn type="SetBounds" mode="constant" value="true"/> 
    <rt:dyn type="Show_Map" mode="constant" value="false"/> 
    <rt:dyn type="X" mode="constant" value="&quot;G&quot;"/> 
  </image>
  <text x="475.969" y="950.755" fill="black" font-size="18" text-anchor="start">20UKC04CR002</text>
  <rect x="1504.43" y="270.397" width="139.394" height="21.2122" rx="0" ry="0" fill="Col_BGItemSel"/> 
  <image x="1504.25" y="294.155" width="175" height="25" xlink:href="DS_ana_ASRK.svg">
    <title>&quot;20UKC04CR001B01&quot;</title>
    <rt:dyn type="IsExp" mode="constant" value="true"/> 
    <rt:dyn type="ShowFrame" mode="constant" value="true"/> 
    <rt:dyn type="Color_Readings" mode="constant" value="true"/> 
    <rt:dyn type="FKKS" mode="constant" value="&quot;20UKC04CR001B01&quot;"/> 
    <rt:dyn type="ValueToTheRight" mode="constant" value="false"/> 
    <rt:dyn type="SetBounds" mode="constant" value="true"/> 
    <rt:dyn type="Show_Map" mode="constant" value="false"/> 
    <rt:dyn type="X" mode="constant" value="&quot;G&quot;"/> 
  </image>
  <text x="1513.25" y="287.155" fill="black" font-size="18" text-anchor="start">20UKC04CR001</text>
  <rect x="1504.43" y="598.778" width="139.394" height="21.2122" rx="0" ry="0" fill="Col_BGItemSel"/> 
  <image x="1504.25" y="622.536" width="175" height="25" xlink:href="DS_ana_ASRK.svg">
    <title>&quot;20UKC04CR003B01&quot;</title>
    <rt:dyn type="IsExp" mode="constant" value="true"/> 
    <rt:dyn type="ShowFrame" mode="constant" value="true"/> 
    <rt:dyn type="Color_Readings" mode="constant" value="true"/> 
    <rt:dyn type="FKKS" mode="constant" value="&quot;20UKC04CR003B01&quot;"/> 
    <rt:dyn type="ValueToTheRight" mode="constant" value="false"/> 
    <rt:dyn type="SetBounds" mode="constant" value="true"/> 
    <rt:dyn type="Show_Map" mode="constant" value="false"/> 
    <rt:dyn type="X" mode="constant" value="&quot;G&quot;"/> 
  </image>
  <text x="1513.25" y="615.536" fill="black" font-size="18" text-anchor="start">20UKC04CR003</text>
  <g>
    <polyline points="1475.5,274 1498,319 1452.5,319 1475.5,274" fill="Col_Grey4" stroke="black" stroke-width="1"/> 
  </g>
  <g>
    <polyline points="1475,602 1497.5,647 1452,647 1475,602" fill="Col_Grey4" stroke="black" stroke-width="1"/> 
  </g>
  <g>
    <polyline points="437.817,938.228 460.317,983.228 414.817,983.228 437.817,938.228" fill="Col_Grey4" stroke="black" stroke-width="1"/> 
  </g>
</svg>
