<?xml  version="1.0" encoding="windows-1251"?>
<svg color="Col_BGSand" xmlns="http://www.w3.org/2000/svg" xmlns:rt="http://www.rts.co.at/2001/XMLSchema/RtSvgPL" xmlns:xlink="http://www.w3.org/1999/xlink" xmlns:xsi="http://www.w3.org/2001/XMLSchema-instance" xsi:schemaLocation="http://www.w3.org/2000/svg C:\RTS\RtSvg\XML\SVG.xsd" viewBox="0 0 1914 1000" width="1914" height="1000" id="asrk_peb">
  <title>РК системы охлаждающей воды</title>
  <rt:model modelversion="7.2.0.24" comment="UMod all_asrk&#10;LMod asrk_kpm40&#10;RMod asrk_potreb_pgb50" revision="3"/> 
  <line x1="1270.25" y1="651.25" x2="1270.35" y2="651.25"/> 
  <line x1="1723.5" y1="385.25" x2="0" y2="0"/> 
  <line x1="589.5" y1="402.75" x2="589.6" y2="402.75"/> 
  <line x1="1455.75" y1="504" x2="1455.85" y2="504"/> 
  <text x="653.97" y="29.364" font-size="30" font-weight="700">РК системы охлаждающей воды PEB</text>
  <rect x="1663.06" y="221.212" width="113.636" height="395.455" rx="0" ry="0" fill="none"/> 
  <g>
    <rect x="1734.44" y="273.477" width="150" height="21.2122" rx="0" ry="0" fill="Col_BGItemSel"/> 
    <image x="1734.26" y="297.204" width="175" height="25" xlink:href="DS_ana_ASRK.svg">
      <title>&quot;22PEB20CR801B01&quot;</title>
      <rt:dyn type="IsExp" mode="constant" value="true"/> 
      <rt:dyn type="ShowFrame" mode="constant" value="true"/> 
      <rt:dyn type="Color_Readings" mode="constant" value="true"/> 
      <rt:dyn type="FKKS" mode="constant" value="&quot;22PEB20CR801B01&quot;"/> 
      <rt:dyn type="ValueToTheRight" mode="constant" value="false"/> 
      <rt:dyn type="SetBounds" mode="constant" value="true"/> 
      <rt:dyn type="Show_Map" mode="constant" value="false"/> 
      <rt:dyn type="X" mode="constant" value="&quot;A&quot;"/> 
    </image>
    <text x="1738.5" y="290.901" fill="black" font-size="18" text-anchor="start">22PEB20CR801</text>
  </g>
  <g>
    <rect x="1733.44" y="216.417" width="150" height="21.2122" rx="0" ry="0" fill="Col_BGItemSel"/> 
    <image x="1733.26" y="240.144" width="175" height="25" xlink:href="DS_ana_ASRK.svg">
      <title>&quot;22PEB20CR802B01&quot;</title>
      <rt:dyn type="IsExp" mode="constant" value="true"/> 
      <rt:dyn type="ShowFrame" mode="constant" value="true"/> 
      <rt:dyn type="Color_Readings" mode="constant" value="true"/> 
      <rt:dyn type="FKKS" mode="constant" value="&quot;22PEB20CR802B01&quot;"/> 
      <rt:dyn type="ValueToTheRight" mode="constant" value="false"/> 
      <rt:dyn type="SetBounds" mode="constant" value="true"/> 
      <rt:dyn type="Show_Map" mode="constant" value="false"/> 
      <rt:dyn type="X" mode="constant" value="&quot;A&quot;"/> 
    </image>
    <text x="1737.5" y="233.841" fill="black" font-size="18" text-anchor="start">22PEB20CR802</text>
  </g>
  <g>
    <rect x="14.7399" y="275.06" width="150" height="21.2122" rx="0" ry="0" fill="Col_BGItemSel"/> 
    <image x="14.5608" y="298.787" width="175" height="25" xlink:href="DS_ana_ASRK.svg">
      <title>&quot;21PEB10CR801B01&quot;</title>
      <rt:dyn type="IsExp" mode="constant" value="true"/> 
      <rt:dyn type="ShowFrame" mode="constant" value="true"/> 
      <rt:dyn type="Color_Readings" mode="constant" value="true"/> 
      <rt:dyn type="FKKS" mode="constant" value="&quot;21PEB10CR801B01&quot;"/> 
      <rt:dyn type="ValueToTheRight" mode="constant" value="false"/> 
      <rt:dyn type="SetBounds" mode="constant" value="true"/> 
      <rt:dyn type="Show_Map" mode="constant" value="false"/> 
      <rt:dyn type="X" mode="constant" value="&quot;A&quot;"/> 
    </image>
    <text x="18.8008" y="292.484" fill="black" font-size="18" text-anchor="start">21PEB10CR801</text>
  </g>
  <g>
    <rect x="14.7408" y="219" width="150" height="21.2122" rx="0" ry="0" fill="Col_BGItemSel"/> 
    <image x="14.5608" y="242.727" width="175" height="25" xlink:href="DS_ana_ASRK.svg">
      <title>&quot;21PEB10CR802B01&quot;</title>
      <rt:dyn type="IsExp" mode="constant" value="true"/> 
      <rt:dyn type="ShowFrame" mode="constant" value="true"/> 
      <rt:dyn type="Color_Readings" mode="constant" value="true"/> 
      <rt:dyn type="FKKS" mode="constant" value="&quot;21PEB10CR802B01&quot;"/> 
      <rt:dyn type="ValueToTheRight" mode="constant" value="false"/> 
      <rt:dyn type="SetBounds" mode="constant" value="true"/> 
      <rt:dyn type="Show_Map" mode="constant" value="false"/> 
      <rt:dyn type="X" mode="constant" value="&quot;A&quot;"/> 
    </image>
    <text x="18.8019" y="236.424" fill="black" font-size="18" text-anchor="start">21PEB10CR802</text>
  </g>
  <g transform="flipX(1325.18)">
    <line x1="1379.36" y1="423.652" x2="1661.08" y2="423.667" stroke="black" stroke-width="3"/> 
    <rect x="1476.23" y="273.667" width="183.333" height="315.151" rx="0" ry="0" fill="none" stroke="black" stroke-width="3"/> 
    <g transform="flipY(464.394) rotate(150 557 466.667) flipX(448.403) flipX(467.434) rotate(30 1.4013e-045 1.4013e-045) flipY(224.444) rotate(180 1210.44 541.647)">
      <g transform="rotate(90 1212.44 532.643)">
        <polygon points="1391.22,1487.37 1404.6,1495.01 1404.6,1479.74 1391.22,1487.37" fill="black" stroke="black" stroke-width="1" transform="rotate(180 1279.17 367.814)"/> 
      </g>
    </g>
    <line x1="956.364" y1="960.001" x2="956.364" y2="45.4245" stroke="black" stroke-width="3"/> 
    <line x1="1380.36" y1="960.001" x2="1380.36" y2="172.667" stroke="black" stroke-width="3"/> 
    <line x1="957.909" y1="678.001" x2="1369.73" y2="678.001" stroke="black" stroke-width="3"/> 
    <path d="M1590.74 -269.731 A8.80483 8.80483 0 1 1 1590.74 -252.121 " fill="none" stroke="black" stroke-width="3" transform="rotate(270 1616.75 883.029) flipY() translate(0 -828) translate(229.642 442.62)"/> 
    <line x1="1345.36" y1="427.213" x2="1345.36" y2="584.94" stroke="black" stroke-width="3"/> 
    <line x1="1175.36" y1="425.698" x2="1175.36" y2="677.213" stroke="black" stroke-width="3"/> 
    <line x1="1379.37" y1="501.001" x2="1346.55" y2="501.001" stroke="black" stroke-width="3"/> 
    <rect x="1221.51" y="207.501" width="206.061" height="119.697" rx="0" ry="0" fill="Col_BGSand" stroke="black" stroke-width="3"/> 
    <image x="1186.61" y="223.154" width="70" height="70" xlink:href="DS_motor.svg" transform="rotate(270 0 0) flipX(-3.8825e-005) rotate(360 0 0)">
      <rt:dyn type="DeviceType" mode="constant" value="&quot;pump&quot;"/> 
      <rt:dyn type="KKS" mode="constant" value="&quot;NULL&quot;"/> 
      <rt:dyn type="DATA_NARY" mode="constant" value="&quot;TPTS&quot;"/> 
      <rt:dyn type="Operate" mode="constant" value="true"/> 
    </image>
    <image x="1392.15" y="223.154" width="70" height="70" xlink:href="DS_motor.svg" transform="rotate(270 -3.9906e-007 5.89692e-007) flipX(-3.8825e-005) rotate(360 0 0)">
      <rt:dyn type="DeviceType" mode="constant" value="&quot;pump&quot;"/> 
      <rt:dyn type="KKS" mode="constant" value="&quot;NULL&quot;"/> 
      <rt:dyn type="DATA_NARY" mode="constant" value="&quot;TPTS&quot;"/> 
      <rt:dyn type="Operate" mode="constant" value="true"/> 
    </image>
    <line x1="1156.09" y1="347.001" x2="1381.36" y2="347.001" stroke="black" stroke-width="3"/> 
    <g>
      <rect x="1511.19" y="384.395" width="107.942" height="81.2121" rx="0" ry="0" fill="Col_BGSand" stroke="black" stroke-width="3"/> 
      <g transform="scale(0.729999 0.729999 1316.85 560.606) scale(1.0524 1.0524 1.4013e-045 1.4013e-045) flipX(963.818) rotate(270 964.576 96.9697) rotate(90 1175.94 787.121) scale(0.380039 0.380039 1162.3 219.697) rotate(270 1162.3 219.697) rotate(270 412.288 437.863)">
        <g transform="rotate(90 1094.11 578.015)">
          <rect x="-1226.08" y="-2414.78" width="130.303" height="134.849" rx="0" ry="0" fill="Col_Grey4" stroke="black" stroke-width="3"/> 
          <line x1="-1162.48" y1="-2399.66" x2="-1113.99" y2="-2375.41" stroke="black" stroke-width="3"/> 
          <line x1="-1208.77" y1="-2319.53" x2="-1160.28" y2="-2295.28" stroke="black" stroke-width="3"/> 
          <line x1="-1115.51" y1="-2375.41" x2="-1210.96" y2="-2319.35" stroke="black" stroke-width="3"/> 
          <line x1="-1161.3" y1="-2295.88" x2="-1161.3" y2="-2280.88" stroke="black" stroke-width="3"/> 
          <line x1="-1161.15" y1="-2412.73" x2="-1161.15" y2="-2397.73" stroke="black" stroke-width="3"/> 
        </g>
      </g>
      <g transform="scale(0.729999 0.729999 1316.85 560.606) scale(1.0524 1.0524 1.4013e-045 1.4013e-045) flipX(963.818) rotate(270 964.576 96.9697) rotate(90 1175.94 787.121) scale(0.380039 0.380039 1162.3 219.697) rotate(270 1162.3 219.697) rotate(270 412.288 437.863)">
        <g transform="rotate(90 1094.11 578.015)">
          <rect x="-950.721" y="-2414.78" width="130.303" height="134.849" rx="0" ry="0" fill="Col_Grey4" stroke="black" stroke-width="3"/> 
          <line x1="-887.122" y1="-2399.66" x2="-838.632" y2="-2375.41" stroke="black" stroke-width="3"/> 
          <line x1="-933.411" y1="-2319.53" x2="-884.922" y2="-2295.28" stroke="black" stroke-width="3"/> 
          <line x1="-840.152" y1="-2375.41" x2="-935.602" y2="-2319.35" stroke="black" stroke-width="3"/> 
          <line x1="-885.942" y1="-2295.88" x2="-885.942" y2="-2280.88" stroke="black" stroke-width="3"/> 
          <line x1="-885.792" y1="-2412.73" x2="-885.792" y2="-2397.73" stroke="black" stroke-width="3"/> 
        </g>
      </g>
    </g>
    <g>
      <rect x="1511.86" y="540.547" width="107.942" height="81.2121" rx="0" ry="0" fill="Col_BGSand" stroke="black" stroke-width="3"/> 
      <g transform="scale(0.729999 0.729999 1316.85 560.606) scale(1.0524 1.0524 1.4013e-045 1.4013e-045) flipX(963.818) rotate(270 964.576 96.9697) rotate(90 1175.94 787.121) scale(0.380039 0.380039 1162.3 219.697) rotate(270 1162.3 219.697) rotate(270 412.288 437.863)">
        <g transform="rotate(90 1094.11 578.015)">
          <rect x="-1760.91" y="-2417.06" width="130.303" height="134.849" rx="0" ry="0" fill="Col_Grey4" stroke="black" stroke-width="3"/> 
          <line x1="-1697.31" y1="-2401.94" x2="-1648.82" y2="-2377.69" stroke="black" stroke-width="3"/> 
          <line x1="-1743.6" y1="-2321.81" x2="-1695.11" y2="-2297.56" stroke="black" stroke-width="3"/> 
          <line x1="-1650.34" y1="-2377.69" x2="-1745.79" y2="-2321.63" stroke="black" stroke-width="3"/> 
          <line x1="-1696.13" y1="-2298.16" x2="-1696.13" y2="-2283.16" stroke="black" stroke-width="3"/> 
          <line x1="-1695.98" y1="-2415.01" x2="-1695.98" y2="-2400.01" stroke="black" stroke-width="3"/> 
        </g>
      </g>
      <g transform="scale(0.729999 0.729999 1316.85 560.606) scale(1.0524 1.0524 1.4013e-045 1.4013e-045) flipX(963.818) rotate(270 964.576 96.9697) rotate(90 1175.94 787.121) scale(0.380039 0.380039 1162.3 219.697) rotate(270 1162.3 219.697) rotate(270 412.288 437.863)">
        <g transform="rotate(90 1094.11 578.015)">
          <rect x="-1485.55" y="-2417.06" width="130.303" height="134.849" rx="0" ry="0" fill="Col_Grey4" stroke="black" stroke-width="3"/> 
          <line x1="-1421.95" y1="-2401.94" x2="-1373.46" y2="-2377.69" stroke="black" stroke-width="3"/> 
          <line x1="-1468.24" y1="-2321.81" x2="-1419.75" y2="-2297.56" stroke="black" stroke-width="3"/> 
          <line x1="-1374.98" y1="-2377.69" x2="-1470.43" y2="-2321.63" stroke="black" stroke-width="3"/> 
          <line x1="-1420.77" y1="-2298.16" x2="-1420.77" y2="-2283.16" stroke="black" stroke-width="3"/> 
          <line x1="-1420.62" y1="-2415.01" x2="-1420.62" y2="-2400.01" stroke="black" stroke-width="3"/> 
        </g>
      </g>
    </g>
    <g>
      <rect x="1511.19" y="227.879" width="107.942" height="81.2121" rx="0" ry="0" fill="Col_BGSand" stroke="black" stroke-width="3"/> 
      <g transform="scale(0.729999 0.729999 1316.85 560.606) scale(1.0524 1.0524 1.4013e-045 1.4013e-045) flipX(963.818) rotate(270 964.576 96.9697) rotate(90 1175.94 787.121) scale(0.380039 0.380039 1162.3 219.697) rotate(270 1162.3 219.697) rotate(270 412.288 437.863)">
        <g transform="rotate(90 1094.11 578.015)">
          <rect x="-690.004" y="-2414.78" width="130.303" height="134.849" rx="0" ry="0" fill="Col_Grey4" stroke="black" stroke-width="3"/> 
          <line x1="-626.404" y1="-2399.66" x2="-577.914" y2="-2375.41" stroke="black" stroke-width="3"/> 
          <line x1="-672.694" y1="-2319.53" x2="-624.204" y2="-2295.28" stroke="black" stroke-width="3"/> 
          <line x1="-579.434" y1="-2375.41" x2="-674.884" y2="-2319.35" stroke="black" stroke-width="3"/> 
          <line x1="-625.224" y1="-2295.88" x2="-625.224" y2="-2280.88" stroke="black" stroke-width="3"/> 
          <line x1="-625.074" y1="-2412.73" x2="-625.074" y2="-2397.73" stroke="black" stroke-width="3"/> 
        </g>
      </g>
      <g transform="scale(0.729999 0.729999 1316.85 560.606) scale(1.0524 1.0524 1.4013e-045 1.4013e-045) flipX(963.818) rotate(270 964.576 96.9697) rotate(90 1175.94 787.121) scale(0.380039 0.380039 1162.3 219.697) rotate(270 1162.3 219.697) rotate(270 412.288 437.863)">
        <g transform="rotate(90 1094.11 578.015)">
          <rect x="-414.65" y="-2414.78" width="130.303" height="134.849" rx="0" ry="0" fill="Col_Grey4" stroke="black" stroke-width="3"/> 
          <line x1="-351.05" y1="-2399.66" x2="-302.56" y2="-2375.41" stroke="black" stroke-width="3"/> 
          <line x1="-397.34" y1="-2319.53" x2="-348.85" y2="-2295.28" stroke="black" stroke-width="3"/> 
          <line x1="-304.08" y1="-2375.41" x2="-399.53" y2="-2319.35" stroke="black" stroke-width="3"/> 
          <line x1="-349.87" y1="-2295.88" x2="-349.87" y2="-2280.88" stroke="black" stroke-width="3"/> 
          <line x1="-349.72" y1="-2412.73" x2="-349.72" y2="-2397.73" stroke="black" stroke-width="3"/> 
        </g>
      </g>
    </g>
    <line x1="1389.44" y1="678.001" x2="1660.36" y2="678.001" stroke="black" stroke-width="3"/> 
    <line x1="1051.36" y1="77.0003" x2="1051.36" y2="175.001" stroke="black" stroke-width="7"/> 
    <line x1="1051.55" y1="171.501" x2="1596.36" y2="171.501" stroke="black" stroke-width="7"/> 
    <line x1="1659.56" y1="584.789" x2="1659.56" y2="679.001" stroke="black" stroke-width="3"/> 
    <line x1="1593.23" y1="77.0003" x2="1593.23" y2="175.001" stroke="black" stroke-width="7"/> 
    <g transform="rotate(90 776.697 401.515)">
      <line x1="421.046" y1="223.486" x2="421.046" y2="-264.241" stroke="black" stroke-width="3"/> 
      <g>
        <polyline points="103.505,145.223 112.504,158.223 120.504,145.223" fill="none" stroke="black" stroke-width="3" transform="rotate(90 340.161 240.705)"/> 
      </g>
      <g>
        <polyline points="48.6561,144.072 57.6552,157.072 65.6552,144.072" fill="none" stroke="black" stroke-width="3" transform="rotate(90 340.161 240.705)"/> 
      </g>
      <g>
        <polyline points="-6.34387,144.587 2.65515,157.587 10.6552,144.587" fill="none" stroke="black" stroke-width="3" transform="rotate(90 340.161 240.705)"/> 
      </g>
      <g>
        <polyline points="-62.1918,144.95 -53.1938,157.95 -45.1938,144.95" fill="none" stroke="black" stroke-width="3" transform="rotate(90 340.161 240.705)"/> 
      </g>
      <g>
        <polyline points="-118.04,144.799 -109.042,157.799 -101.042,144.799" fill="none" stroke="black" stroke-width="3" transform="rotate(90 340.161 240.705)"/> 
      </g>
      <g>
        <polyline points="157.566,144.799 166.564,157.799 174.564,144.799" fill="none" stroke="black" stroke-width="3" transform="rotate(90 340.161 240.705)"/> 
      </g>
      <g>
        <polyline points="-172.767,144.284 -163.769,157.284 -155.769,144.284" fill="none" stroke="black" stroke-width="3" transform="rotate(90 340.161 240.705)"/> 
      </g>
    </g>
    <line x1="1157.36" y1="346.91" x2="1157.36" y2="584.789" stroke="black" stroke-width="3"/> 
    <line x1="1346.52" y1="427.152" x2="1313.7" y2="427.152" stroke="black" stroke-width="3"/> 
    <rect x="1206.85" y="385.061" width="107.942" height="81.2121" rx="0" ry="0" fill="none" stroke="black" stroke-width="3"/> 
    <g transform="scale(0.729999 0.729999 1316.85 560.606) scale(1.0524 1.0524 1.4013e-045 1.4013e-045) flipX(963.818) rotate(270 964.576 96.9697) rotate(90 1175.94 787.121) scale(0.380039 0.380039 1162.3 219.697) rotate(270 1162.3 219.697) rotate(270 412.288 437.863)">
      <g transform="rotate(90 1094.11 578.015)">
        <rect x="-1228.36" y="-1372.45" width="130.303" height="134.849" rx="0" ry="0" fill="Col_Grey4" stroke="black" stroke-width="3"/> 
        <line x1="-1164.76" y1="-1357.33" x2="-1116.27" y2="-1333.08" stroke="black" stroke-width="3"/> 
        <line x1="-1211.05" y1="-1277.2" x2="-1162.56" y2="-1252.95" stroke="black" stroke-width="3"/> 
        <line x1="-1117.79" y1="-1333.08" x2="-1213.24" y2="-1277.02" stroke="black" stroke-width="3"/> 
        <line x1="-1163.58" y1="-1253.55" x2="-1163.58" y2="-1238.55" stroke="black" stroke-width="3"/> 
        <line x1="-1163.43" y1="-1370.4" x2="-1163.43" y2="-1355.4" stroke="black" stroke-width="3"/> 
      </g>
    </g>
    <g transform="scale(0.729999 0.729999 1316.85 560.606) scale(1.0524 1.0524 1.4013e-045 1.4013e-045) flipX(963.818) rotate(270 964.576 96.9697) rotate(90 1175.94 787.121) scale(0.380039 0.380039 1162.3 219.697) rotate(270 1162.3 219.697) rotate(270 412.288 437.863)">
      <g transform="rotate(90 1094.11 578.015)">
        <rect x="-953.005" y="-1372.45" width="130.303" height="134.849" rx="0" ry="0" fill="Col_Grey4" stroke="black" stroke-width="3"/> 
        <line x1="-889.405" y1="-1357.33" x2="-840.915" y2="-1333.08" stroke="black" stroke-width="3"/> 
        <line x1="-935.695" y1="-1277.2" x2="-887.205" y2="-1252.95" stroke="black" stroke-width="3"/> 
        <line x1="-842.435" y1="-1333.08" x2="-937.885" y2="-1277.02" stroke="black" stroke-width="3"/> 
        <line x1="-888.225" y1="-1253.55" x2="-888.225" y2="-1238.55" stroke="black" stroke-width="3"/> 
        <line x1="-888.075" y1="-1370.4" x2="-888.075" y2="-1355.4" stroke="black" stroke-width="3"/> 
      </g>
    </g>
    <line x1="1208.34" y1="427.152" x2="1175.52" y2="427.152" stroke="black" stroke-width="3"/> 
    <line x1="1345.67" y1="583.152" x2="1312.85" y2="583.152" stroke="black" stroke-width="3"/> 
    <rect x="1206" y="541.213" width="107.942" height="81.2121" rx="0" ry="0" fill="none" stroke="black" stroke-width="3"/> 
    <g transform="scale(0.729999 0.729999 1316.85 560.606) scale(1.0524 1.0524 1.4013e-045 1.4013e-045) flipX(963.818) rotate(270 964.576 96.9697) rotate(90 1175.94 787.121) scale(0.380039 0.380039 1162.3 219.697) rotate(270 1162.3 219.697) rotate(270 412.288 437.863)">
      <g transform="rotate(90 1094.11 578.015)">
        <rect x="-1763.19" y="-1369.54" width="130.303" height="134.849" rx="0" ry="0" fill="Col_Grey4" stroke="black" stroke-width="3"/> 
        <line x1="-1699.59" y1="-1354.42" x2="-1651.1" y2="-1330.17" stroke="black" stroke-width="3"/> 
        <line x1="-1745.88" y1="-1274.29" x2="-1697.39" y2="-1250.04" stroke="black" stroke-width="3"/> 
        <line x1="-1652.62" y1="-1330.17" x2="-1748.07" y2="-1274.11" stroke="black" stroke-width="3"/> 
        <line x1="-1698.41" y1="-1250.64" x2="-1698.41" y2="-1235.64" stroke="black" stroke-width="3"/> 
        <line x1="-1698.26" y1="-1367.49" x2="-1698.26" y2="-1352.49" stroke="black" stroke-width="3"/> 
      </g>
    </g>
    <g transform="scale(0.729999 0.729999 1316.85 560.606) scale(1.0524 1.0524 1.4013e-045 1.4013e-045) flipX(963.818) rotate(270 964.576 96.9697) rotate(90 1175.94 787.121) scale(0.380039 0.380039 1162.3 219.697) rotate(270 1162.3 219.697) rotate(270 412.288 437.863)">
      <g transform="rotate(90 1094.11 578.015)">
        <rect x="-1487.83" y="-1369.54" width="130.303" height="134.849" rx="0" ry="0" fill="Col_Grey4" stroke="black" stroke-width="3"/> 
        <line x1="-1424.23" y1="-1354.42" x2="-1375.74" y2="-1330.17" stroke="black" stroke-width="3"/> 
        <line x1="-1470.52" y1="-1274.29" x2="-1422.03" y2="-1250.04" stroke="black" stroke-width="3"/> 
        <line x1="-1377.26" y1="-1330.17" x2="-1472.71" y2="-1274.11" stroke="black" stroke-width="3"/> 
        <line x1="-1423.05" y1="-1250.64" x2="-1423.05" y2="-1235.64" stroke="black" stroke-width="3"/> 
        <line x1="-1422.9" y1="-1367.49" x2="-1422.9" y2="-1352.49" stroke="black" stroke-width="3"/> 
      </g>
    </g>
    <line x1="1207.49" y1="583.152" x2="1174.67" y2="583.152" stroke="black" stroke-width="3"/> 
    <line x1="987.364" y1="426.731" x2="987.364" y2="584.459" stroke="black" stroke-width="3"/> 
    <line x1="989.214" y1="501.001" x2="956.394" y2="501.001" stroke="black" stroke-width="3"/> 
    <line x1="1158.36" y1="427.001" x2="1125.54" y2="427.001" stroke="black" stroke-width="3"/> 
    <rect x="1018.69" y="384.91" width="107.942" height="81.2121" rx="0" ry="0" fill="none" stroke="black" stroke-width="3"/> 
    <g transform="scale(0.729999 0.729999 1316.85 560.606) scale(1.0524 1.0524 1.4013e-045 1.4013e-045) flipX(963.818) rotate(270 964.576 96.9697) rotate(90 1175.94 787.121) scale(0.380039 0.380039 1162.3 219.697) rotate(270 1162.3 219.697) rotate(270 412.288 437.863)">
      <g transform="rotate(90 1094.11 578.015)">
        <rect x="-1227.84" y="-728.063" width="130.303" height="134.849" rx="0" ry="0" fill="Col_Grey4" stroke="black" stroke-width="3"/> 
        <line x1="-1164.24" y1="-712.943" x2="-1115.75" y2="-688.693" stroke="black" stroke-width="3"/> 
        <line x1="-1210.53" y1="-632.813" x2="-1162.04" y2="-608.563" stroke="black" stroke-width="3"/> 
        <line x1="-1117.27" y1="-688.693" x2="-1212.72" y2="-632.633" stroke="black" stroke-width="3"/> 
        <line x1="-1163.06" y1="-609.163" x2="-1163.06" y2="-594.163" stroke="black" stroke-width="3"/> 
        <line x1="-1162.91" y1="-726.013" x2="-1162.91" y2="-711.013" stroke="black" stroke-width="3"/> 
      </g>
    </g>
    <g transform="scale(0.729999 0.729999 1316.85 560.606) scale(1.0524 1.0524 1.4013e-045 1.4013e-045) flipX(963.818) rotate(270 964.576 96.9697) rotate(90 1175.94 787.121) scale(0.380039 0.380039 1162.3 219.697) rotate(270 1162.3 219.697) rotate(270 412.288 437.863)">
      <g transform="rotate(90 1094.11 578.015)">
        <rect x="-952.487" y="-728.063" width="130.303" height="134.849" rx="0" ry="0" fill="Col_Grey4" stroke="black" stroke-width="3"/> 
        <line x1="-888.887" y1="-712.943" x2="-840.396" y2="-688.693" stroke="black" stroke-width="3"/> 
        <line x1="-935.176" y1="-632.813" x2="-886.686" y2="-608.563" stroke="black" stroke-width="3"/> 
        <line x1="-841.916" y1="-688.693" x2="-937.367" y2="-632.633" stroke="black" stroke-width="3"/> 
        <line x1="-887.706" y1="-609.163" x2="-887.706" y2="-594.163" stroke="black" stroke-width="3"/> 
        <line x1="-887.556" y1="-726.013" x2="-887.556" y2="-711.013" stroke="black" stroke-width="3"/> 
      </g>
    </g>
    <line x1="1020.18" y1="427.001" x2="987.364" y2="427.001" stroke="black" stroke-width="3"/> 
    <line x1="1157.52" y1="583.152" x2="1124.7" y2="583.152" stroke="black" stroke-width="3"/> 
    <rect x="1017.85" y="541.061" width="107.942" height="81.2121" rx="0" ry="0" fill="none" stroke="black" stroke-width="3"/> 
    <g transform="scale(0.729999 0.729999 1316.85 560.606) scale(1.0524 1.0524 1.4013e-045 1.4013e-045) flipX(963.818) rotate(270 964.576 96.9697) rotate(90 1175.94 787.121) scale(0.380039 0.380039 1162.3 219.697) rotate(270 1162.3 219.697) rotate(270 412.288 437.863)">
      <g transform="rotate(90 1094.11 578.015)">
        <rect x="-1762.67" y="-725.163" width="130.303" height="134.849" rx="0" ry="0" fill="Col_Grey4" stroke="black" stroke-width="3"/> 
        <line x1="-1699.07" y1="-710.043" x2="-1650.58" y2="-685.793" stroke="black" stroke-width="3"/> 
        <line x1="-1745.36" y1="-629.913" x2="-1696.87" y2="-605.663" stroke="black" stroke-width="3"/> 
        <line x1="-1652.1" y1="-685.793" x2="-1747.55" y2="-629.733" stroke="black" stroke-width="3"/> 
        <line x1="-1697.89" y1="-606.263" x2="-1697.89" y2="-591.263" stroke="black" stroke-width="3"/> 
        <line x1="-1697.74" y1="-723.113" x2="-1697.74" y2="-708.113" stroke="black" stroke-width="3"/> 
      </g>
    </g>
    <g transform="scale(0.729999 0.729999 1316.85 560.606) scale(1.0524 1.0524 1.4013e-045 1.4013e-045) flipX(963.818) rotate(270 964.576 96.9697) rotate(90 1175.94 787.121) scale(0.380039 0.380039 1162.3 219.697) rotate(270 1162.3 219.697) rotate(270 412.288 437.863)">
      <g transform="rotate(90 1094.11 578.015)">
        <rect x="-1487.31" y="-725.163" width="130.303" height="134.849" rx="0" ry="0" fill="Col_Grey4" stroke="black" stroke-width="3"/> 
        <line x1="-1423.71" y1="-710.043" x2="-1375.22" y2="-685.793" stroke="black" stroke-width="3"/> 
        <line x1="-1470" y1="-629.913" x2="-1421.51" y2="-605.663" stroke="black" stroke-width="3"/> 
        <line x1="-1376.74" y1="-685.793" x2="-1472.19" y2="-629.733" stroke="black" stroke-width="3"/> 
        <line x1="-1422.53" y1="-606.263" x2="-1422.53" y2="-591.263" stroke="black" stroke-width="3"/> 
        <line x1="-1422.38" y1="-723.113" x2="-1422.38" y2="-708.113" stroke="black" stroke-width="3"/> 
      </g>
    </g>
    <line x1="1019.34" y1="583.152" x2="986.515" y2="583.152" stroke="black" stroke-width="3"/> 
  </g>
  <text x="1523.97" y="146.97" font-size="15">22URR</text>
  <text x="1315.33" y="117.758" font-size="15">II канал</text>
  <line x1="656.941" y1="423.651" x2="938.652" y2="423.667" stroke="black" stroke-width="3"/> 
  <rect x="753.804" y="273.667" width="183.333" height="315.151" rx="0" ry="0" fill="none" stroke="black" stroke-width="3"/> 
  <text x="551.122" y="116.758" font-size="15">I канал</text>
  <g transform="flipY(464.394) rotate(150 557 466.667) flipX(448.403) flipX(467.434) rotate(30 1.4013e-045 1.4013e-045) flipY(224.444) rotate(180 1210.44 541.647)">
    <g transform="rotate(90 1212.44 532.643)">
      <polygon points="1391.22,764.942 1404.6,772.582 1404.6,757.307 1391.22,764.942" fill="black" stroke="black" stroke-width="1" transform="rotate(180 1279.17 367.814)"/> 
    </g>
  </g>
  <text x="345.243" y="147.939" font-size="15">21URR</text>
  <line x1="233.941" y1="960" x2="233.941" y2="45.4242" stroke="black" stroke-width="3"/> 
  <line x1="657.941" y1="960" x2="657.941" y2="172.667" stroke="black" stroke-width="3"/> 
  <line x1="235.486" y1="678" x2="647.304" y2="678" stroke="black" stroke-width="3"/> 
  <path d="M1590.74 452.692 A8.80483 8.80483 0 1 1 1590.74 470.302 " fill="none" stroke="black" stroke-width="3" transform="rotate(270 1616.75 883.029) flipY() translate(0 -828) translate(229.642 442.62)"/> 
  <line x1="622.941" y1="427.212" x2="622.941" y2="584.939" stroke="black" stroke-width="3"/> 
  <line x1="452.941" y1="425.697" x2="452.941" y2="677.212" stroke="black" stroke-width="3"/> 
  <line x1="656.943" y1="501" x2="624.122" y2="501" stroke="black" stroke-width="3"/> 
  <text x="358.516" y="299.909" font-size="15">21PEC10AP001</text>
  <rect x="499.091" y="207.5" width="206.061" height="119.697" rx="0" ry="0" fill="Col_BGSand" stroke="black" stroke-width="3"/> 
  <image x="464.182" y="223.153" width="70" height="70" xlink:href="DS_motor.svg" transform="rotate(270 0 0) flipX(-3.8825e-005) rotate(360 0 0)">
    <rt:dyn type="DeviceType" mode="constant" value="&quot;pump&quot;"/> 
    <rt:dyn type="KKS" mode="constant" value="&quot;NULL&quot;"/> 
    <rt:dyn type="DATA_NARY" mode="constant" value="&quot;TPTS&quot;"/> 
    <rt:dyn type="Operate" mode="constant" value="true"/> 
  </image>
  <image x="669.727" y="223.153" width="70" height="70" xlink:href="DS_motor.svg" transform="rotate(270 -3.9906e-007 5.89692e-007) flipX(-3.8825e-005) rotate(360 0 0)">
    <rt:dyn type="DeviceType" mode="constant" value="&quot;pump&quot;"/> 
    <rt:dyn type="KKS" mode="constant" value="&quot;NULL&quot;"/> 
    <rt:dyn type="DATA_NARY" mode="constant" value="&quot;TPTS&quot;"/> 
    <rt:dyn type="Operate" mode="constant" value="true"/> 
  </image>
  <line x1="433.668" y1="347" x2="658.941" y2="347" stroke="black" stroke-width="3"/> 
  <line x1="667.021" y1="678" x2="937.941" y2="678" stroke="black" stroke-width="3"/> 
  <line x1="328.941" y1="76.9999" x2="328.941" y2="175" stroke="black" stroke-width="7"/> 
  <line x1="329.122" y1="171.5" x2="873.941" y2="171.5" stroke="black" stroke-width="7"/> 
  <line x1="937.137" y1="584.788" x2="937.137" y2="679" stroke="black" stroke-width="3"/> 
  <line x1="870.804" y1="76.9999" x2="870.804" y2="175" stroke="black" stroke-width="7"/> 
  <g transform="rotate(90 776.697 401.515)">
    <line x1="421.045" y1="945.909" x2="421.045" y2="458.182" stroke="black" stroke-width="3"/> 
    <g>
      <polyline points="825.928,145.225 834.927,158.225 842.927,145.225" fill="none" stroke="black" stroke-width="3" transform="rotate(90 340.161 240.705)"/> 
    </g>
    <g>
      <polyline points="771.079,144.073 780.078,157.073 788.078,144.073" fill="none" stroke="black" stroke-width="3" transform="rotate(90 340.161 240.705)"/> 
    </g>
    <g>
      <polyline points="716.079,144.588 725.078,157.588 733.078,144.588" fill="none" stroke="black" stroke-width="3" transform="rotate(90 340.161 240.705)"/> 
    </g>
    <g>
      <polyline points="660.231,144.952 669.229,157.952 677.229,144.952" fill="none" stroke="black" stroke-width="3" transform="rotate(90 340.161 240.705)"/> 
    </g>
    <g>
      <polyline points="604.383,144.801 613.381,157.801 621.381,144.801" fill="none" stroke="black" stroke-width="3" transform="rotate(90 340.161 240.705)"/> 
    </g>
    <g>
      <polyline points="879.989,144.8 888.987,157.8 896.987,144.8" fill="none" stroke="black" stroke-width="3" transform="rotate(90 340.161 240.705)"/> 
    </g>
    <g>
      <polyline points="549.656,144.285 558.654,157.285 566.654,144.285" fill="none" stroke="black" stroke-width="3" transform="rotate(90 340.161 240.705)"/> 
    </g>
  </g>
  <line x1="434.941" y1="346.909" x2="434.941" y2="584.788" stroke="black" stroke-width="3"/> 
  <line x1="624.092" y1="427.151" x2="591.272" y2="427.151" stroke="black" stroke-width="3"/> 
  <rect x="483.997" y="385.06" width="107.942" height="81.2121" rx="0" ry="0" fill="none" stroke="black" stroke-width="3"/> 
  <g transform="scale(0.729999 0.729999 1316.85 560.606) scale(1.0524 1.0524 1.4013e-045 1.4013e-045) flipX(963.818) rotate(270 964.576 96.9697) rotate(90 1175.94 787.121) scale(0.380039 0.380039 1162.3 219.697) rotate(270 1162.3 219.697) rotate(270 412.288 437.863)">
    <g transform="rotate(90 1094.11 578.015)">
      <rect x="-1228.36" y="1104.8" width="130.303" height="134.849" rx="0" ry="0" fill="Col_Grey4" stroke="black" stroke-width="3"/> 
      <line x1="-1164.76" y1="1119.92" x2="-1116.27" y2="1144.17" stroke="black" stroke-width="3"/> 
      <line x1="-1211.05" y1="1200.05" x2="-1162.56" y2="1224.3" stroke="black" stroke-width="3"/> 
      <line x1="-1117.79" y1="1144.17" x2="-1213.24" y2="1200.23" stroke="black" stroke-width="3"/> 
      <line x1="-1163.58" y1="1223.7" x2="-1163.58" y2="1238.7" stroke="black" stroke-width="3"/> 
      <line x1="-1163.43" y1="1106.85" x2="-1163.43" y2="1121.85" stroke="black" stroke-width="3"/> 
    </g>
  </g>
  <text x="500.847" y="418.969" font-size="15">21KLC01<tspan x="500.847" dy="15">AC001</tspan>
  </text>
  <g transform="scale(0.729999 0.729999 1316.85 560.606) scale(1.0524 1.0524 1.4013e-045 1.4013e-045) flipX(963.818) rotate(270 964.576 96.9697) rotate(90 1175.94 787.121) scale(0.380039 0.380039 1162.3 219.697) rotate(270 1162.3 219.697) rotate(270 412.288 437.863)">
    <g transform="rotate(90 1094.11 578.015)">
      <rect x="-953.005" y="1104.8" width="130.303" height="134.849" rx="0" ry="0" fill="Col_Grey4" stroke="black" stroke-width="3"/> 
      <line x1="-889.405" y1="1119.92" x2="-840.915" y2="1144.17" stroke="black" stroke-width="3"/> 
      <line x1="-935.695" y1="1200.05" x2="-887.205" y2="1224.3" stroke="black" stroke-width="3"/> 
      <line x1="-842.435" y1="1144.17" x2="-937.885" y2="1200.23" stroke="black" stroke-width="3"/> 
      <line x1="-888.225" y1="1223.7" x2="-888.225" y2="1238.7" stroke="black" stroke-width="3"/> 
      <line x1="-888.075" y1="1106.85" x2="-888.075" y2="1121.85" stroke="black" stroke-width="3"/> 
    </g>
  </g>
  <line x1="485.912" y1="427.151" x2="453.092" y2="427.151" stroke="black" stroke-width="3"/> 
  <line x1="623.242" y1="583.151" x2="590.422" y2="583.151" stroke="black" stroke-width="3"/> 
  <rect x="483.997" y="541.212" width="107.942" height="81.2121" rx="0" ry="0" fill="none" stroke="black" stroke-width="3"/> 
  <g transform="scale(0.729999 0.729999 1316.85 560.606) scale(1.0524 1.0524 1.4013e-045 1.4013e-045) flipX(963.818) rotate(270 964.576 96.9697) rotate(90 1175.94 787.121) scale(0.380039 0.380039 1162.3 219.697) rotate(270 1162.3 219.697) rotate(270 412.288 437.863)">
    <g transform="rotate(90 1094.11 578.015)">
      <rect x="-1763.19" y="1102.52" width="130.303" height="134.849" rx="0" ry="0" fill="Col_Grey4" stroke="black" stroke-width="3"/> 
      <line x1="-1699.59" y1="1117.64" x2="-1651.1" y2="1141.89" stroke="black" stroke-width="3"/> 
      <line x1="-1745.88" y1="1197.77" x2="-1697.39" y2="1222.02" stroke="black" stroke-width="3"/> 
      <line x1="-1652.62" y1="1141.89" x2="-1748.07" y2="1197.95" stroke="black" stroke-width="3"/> 
      <line x1="-1698.41" y1="1221.42" x2="-1698.41" y2="1236.42" stroke="black" stroke-width="3"/> 
      <line x1="-1698.26" y1="1104.57" x2="-1698.26" y2="1119.57" stroke="black" stroke-width="3"/> 
    </g>
  </g>
  <g transform="scale(0.729999 0.729999 1316.85 560.606) scale(1.0524 1.0524 1.4013e-045 1.4013e-045) flipX(963.818) rotate(270 964.576 96.9697) rotate(90 1175.94 787.121) scale(0.380039 0.380039 1162.3 219.697) rotate(270 1162.3 219.697) rotate(270 412.288 437.863)">
    <g transform="rotate(90 1094.11 578.015)">
      <rect x="-1487.83" y="1102.52" width="130.303" height="134.849" rx="0" ry="0" fill="Col_Grey4" stroke="black" stroke-width="3"/> 
      <line x1="-1424.23" y1="1117.64" x2="-1375.74" y2="1141.89" stroke="black" stroke-width="3"/> 
      <line x1="-1470.52" y1="1197.77" x2="-1422.03" y2="1222.02" stroke="black" stroke-width="3"/> 
      <line x1="-1377.26" y1="1141.89" x2="-1472.71" y2="1197.95" stroke="black" stroke-width="3"/> 
      <line x1="-1423.05" y1="1221.42" x2="-1423.05" y2="1236.42" stroke="black" stroke-width="3"/> 
      <line x1="-1422.9" y1="1104.57" x2="-1422.9" y2="1119.57" stroke="black" stroke-width="3"/> 
    </g>
  </g>
  <line x1="485.062" y1="583.151" x2="452.242" y2="583.151" stroke="black" stroke-width="3"/> 
  <line x1="264.941" y1="426.73" x2="264.941" y2="584.458" stroke="black" stroke-width="3"/> 
  <line x1="266.791" y1="501" x2="233.971" y2="501" stroke="black" stroke-width="3"/> 
  <line x1="435.941" y1="427" x2="403.121" y2="427" stroke="black" stroke-width="3"/> 
  <rect x="295.847" y="384.909" width="107.942" height="81.2121" rx="0" ry="0" fill="none" stroke="black" stroke-width="3"/> 
  <g transform="scale(0.729999 0.729999 1316.85 560.606) scale(1.0524 1.0524 1.4013e-045 1.4013e-045) flipX(963.818) rotate(270 964.576 96.9697) rotate(90 1175.94 787.121) scale(0.380039 0.380039 1162.3 219.697) rotate(270 1162.3 219.697) rotate(270 412.288 437.863)">
    <g transform="rotate(90 1094.11 578.015)">
      <rect x="-1227.84" y="1747.53" width="130.303" height="134.849" rx="0" ry="0" fill="Col_Grey4" stroke="black" stroke-width="3"/> 
      <line x1="-1164.24" y1="1762.65" x2="-1115.75" y2="1786.9" stroke="black" stroke-width="3"/> 
      <line x1="-1210.53" y1="1842.78" x2="-1162.04" y2="1867.03" stroke="black" stroke-width="3"/> 
      <line x1="-1117.27" y1="1786.9" x2="-1212.72" y2="1842.96" stroke="black" stroke-width="3"/> 
      <line x1="-1163.06" y1="1866.43" x2="-1163.06" y2="1881.43" stroke="black" stroke-width="3"/> 
      <line x1="-1162.91" y1="1749.58" x2="-1162.91" y2="1764.58" stroke="black" stroke-width="3"/> 
    </g>
  </g>
  <text x="311.181" y="418.818" font-size="15">21KAA11<tspan x="311.181" dy="15">AP001</tspan>
  </text>
  <g transform="scale(0.729999 0.729999 1316.85 560.606) scale(1.0524 1.0524 1.4013e-045 1.4013e-045) flipX(963.818) rotate(270 964.576 96.9697) rotate(90 1175.94 787.121) scale(0.380039 0.380039 1162.3 219.697) rotate(270 1162.3 219.697) rotate(270 412.288 437.863)">
    <g transform="rotate(90 1094.11 578.015)">
      <rect x="-952.486" y="1747.53" width="130.303" height="134.849" rx="0" ry="0" fill="Col_Grey4" stroke="black" stroke-width="3"/> 
      <line x1="-888.886" y1="1762.65" x2="-840.396" y2="1786.9" stroke="black" stroke-width="3"/> 
      <line x1="-935.176" y1="1842.78" x2="-886.686" y2="1867.03" stroke="black" stroke-width="3"/> 
      <line x1="-841.916" y1="1786.9" x2="-937.366" y2="1842.96" stroke="black" stroke-width="3"/> 
      <line x1="-887.706" y1="1866.43" x2="-887.706" y2="1881.43" stroke="black" stroke-width="3"/> 
      <line x1="-887.556" y1="1749.58" x2="-887.556" y2="1764.58" stroke="black" stroke-width="3"/> 
    </g>
  </g>
  <line x1="297.761" y1="427" x2="264.941" y2="427" stroke="black" stroke-width="3"/> 
  <line x1="435.092" y1="583.151" x2="402.272" y2="583.151" stroke="black" stroke-width="3"/> 
  <rect x="295.847" y="541.06" width="107.942" height="81.2121" rx="0" ry="0" fill="none" stroke="black" stroke-width="3"/> 
  <g transform="scale(0.729999 0.729999 1316.85 560.606) scale(1.0524 1.0524 1.4013e-045 1.4013e-045) flipX(963.818) rotate(270 964.576 96.9697) rotate(90 1175.94 787.121) scale(0.380039 0.380039 1162.3 219.697) rotate(270 1162.3 219.697) rotate(270 412.288 437.863)">
    <g transform="rotate(90 1094.11 578.015)">
      <rect x="-1762.67" y="1747.84" width="130.303" height="134.849" rx="0" ry="0" fill="Col_Grey4" stroke="black" stroke-width="3"/> 
      <line x1="-1699.07" y1="1762.96" x2="-1650.58" y2="1787.21" stroke="black" stroke-width="3"/> 
      <line x1="-1745.36" y1="1843.09" x2="-1696.87" y2="1867.34" stroke="black" stroke-width="3"/> 
      <line x1="-1652.1" y1="1787.21" x2="-1747.55" y2="1843.27" stroke="black" stroke-width="3"/> 
      <line x1="-1697.89" y1="1866.74" x2="-1697.89" y2="1881.74" stroke="black" stroke-width="3"/> 
      <line x1="-1697.74" y1="1749.89" x2="-1697.74" y2="1764.89" stroke="black" stroke-width="3"/> 
    </g>
  </g>
  <text x="311.939" y="653.394" font-size="15">21JNA12<tspan x="311.939" dy="15">AP001</tspan>
  </text>
  <text x="312.697" y="574.969" font-size="15">21JNA11<tspan x="312.697" dy="15">AP001</tspan>
  </text>
  <g transform="scale(0.729999 0.729999 1316.85 560.606) scale(1.0524 1.0524 1.4013e-045 1.4013e-045) flipX(963.818) rotate(270 964.576 96.9697) rotate(90 1175.94 787.121) scale(0.380039 0.380039 1162.3 219.697) rotate(270 1162.3 219.697) rotate(270 412.288 437.863)">
    <g transform="rotate(90 1094.11 578.015)">
      <rect x="-1487.31" y="1747.84" width="130.303" height="134.849" rx="0" ry="0" fill="Col_Grey4" stroke="black" stroke-width="3"/> 
      <line x1="-1423.71" y1="1762.96" x2="-1375.22" y2="1787.21" stroke="black" stroke-width="3"/> 
      <line x1="-1470" y1="1843.09" x2="-1421.51" y2="1867.34" stroke="black" stroke-width="3"/> 
      <line x1="-1376.74" y1="1787.21" x2="-1472.19" y2="1843.27" stroke="black" stroke-width="3"/> 
      <line x1="-1422.53" y1="1866.74" x2="-1422.53" y2="1881.74" stroke="black" stroke-width="3"/> 
      <line x1="-1422.38" y1="1749.89" x2="-1422.38" y2="1764.89" stroke="black" stroke-width="3"/> 
    </g>
  </g>
  <line x1="296.912" y1="583.151" x2="264.092" y2="583.151" stroke="black" stroke-width="3"/> 
  <text x="563.061" y="299.909" font-size="15">21PEC10AP002</text>
  <text x="1230.03" y="299.909" font-size="15">221PEC20AP001</text>
  <text x="1434.58" y="299.909" font-size="15">221PEC20AP002</text>
  <text x="310.424" y="500" font-size="15">21KAA12<tspan x="310.424" dy="15">AP001</tspan>
  </text>
  <text x="500.847" y="498.485" font-size="15">21KLC01<tspan x="500.847" dy="15">AC002</tspan>
  </text>
  <text x="500.089" y="577.273" font-size="15">21KLC03<tspan x="500.089" dy="15">AC001</tspan>
  </text>
  <text x="500.089" y="656.789" font-size="15">21KLC03<tspan x="500.089" dy="15">AC002</tspan>
  </text>
  <rect x="789.101" y="227.879" width="107.942" height="81.2121" rx="0" ry="0" fill="Col_BGSand" stroke="black" stroke-width="3"/> 
  <g transform="scale(0.729999 0.729999 1316.85 560.606) scale(1.0524 1.0524 1.4013e-045 1.4013e-045) flipX(963.818) rotate(270 964.576 96.9697) rotate(90 1175.94 787.121) scale(0.380039 0.380039 1162.3 219.697) rotate(270 1162.3 219.697) rotate(270 412.288 437.863)">
    <g transform="rotate(90 1094.11 578.015)">
      <rect x="-690.004" y="59.2395" width="130.303" height="134.849" rx="0" ry="0" fill="Col_Grey4" stroke="black" stroke-width="3"/> 
      <line x1="-626.404" y1="74.3596" x2="-577.914" y2="98.6096" stroke="black" stroke-width="3"/> 
      <line x1="-672.694" y1="154.49" x2="-624.204" y2="178.74" stroke="black" stroke-width="3"/> 
      <line x1="-579.434" y1="98.6096" x2="-674.884" y2="154.67" stroke="black" stroke-width="3"/> 
      <line x1="-625.224" y1="178.14" x2="-625.224" y2="193.14" stroke="black" stroke-width="3"/> 
      <line x1="-625.074" y1="61.2896" x2="-625.074" y2="76.2896" stroke="black" stroke-width="3"/> 
    </g>
  </g>
  <text x="805.951" y="261.788" font-size="15">21KLB02<tspan x="805.951" dy="15">AC001</tspan>
  </text>
  <g transform="scale(0.729999 0.729999 1316.85 560.606) scale(1.0524 1.0524 1.4013e-045 1.4013e-045) flipX(963.818) rotate(270 964.576 96.9697) rotate(90 1175.94 787.121) scale(0.380039 0.380039 1162.3 219.697) rotate(270 1162.3 219.697) rotate(270 412.288 437.863)">
    <g transform="rotate(90 1094.11 578.015)">
      <rect x="-414.649" y="59.2395" width="130.303" height="134.849" rx="0" ry="0" fill="Col_Grey4" stroke="black" stroke-width="3"/> 
      <line x1="-351.049" y1="74.3596" x2="-302.56" y2="98.6096" stroke="black" stroke-width="3"/> 
      <line x1="-397.339" y1="154.49" x2="-348.849" y2="178.74" stroke="black" stroke-width="3"/> 
      <line x1="-304.08" y1="98.6096" x2="-399.529" y2="154.67" stroke="black" stroke-width="3"/> 
      <line x1="-349.87" y1="178.14" x2="-349.87" y2="193.14" stroke="black" stroke-width="3"/> 
      <line x1="-349.719" y1="61.2896" x2="-349.719" y2="76.2896" stroke="black" stroke-width="3"/> 
    </g>
  </g>
  <rect x="789.101" y="384.394" width="107.942" height="81.2121" rx="0" ry="0" fill="Col_BGSand" stroke="black" stroke-width="3"/> 
  <g transform="scale(0.729999 0.729999 1316.85 560.606) scale(1.0524 1.0524 1.4013e-045 1.4013e-045) flipX(963.818) rotate(270 964.576 96.9697) rotate(90 1175.94 787.121) scale(0.380039 0.380039 1162.3 219.697) rotate(270 1162.3 219.697) rotate(270 412.288 437.863)">
    <g transform="rotate(90 1094.11 578.015)">
      <rect x="-1226.08" y="59.2439" width="130.303" height="134.849" rx="0" ry="0" fill="Col_Grey4" stroke="black" stroke-width="3"/> 
      <line x1="-1162.48" y1="74.3638" x2="-1113.99" y2="98.6138" stroke="black" stroke-width="3"/> 
      <line x1="-1208.77" y1="154.494" x2="-1160.28" y2="178.744" stroke="black" stroke-width="3"/> 
      <line x1="-1115.51" y1="98.6138" x2="-1210.96" y2="154.674" stroke="black" stroke-width="3"/> 
      <line x1="-1161.3" y1="178.144" x2="-1161.3" y2="193.144" stroke="black" stroke-width="3"/> 
      <line x1="-1161.15" y1="61.2939" x2="-1161.15" y2="76.2939" stroke="black" stroke-width="3"/> 
    </g>
  </g>
  <text x="803.678" y="418.303" font-size="15">21SAC40<tspan x="803.678" dy="15">AC001</tspan>
  </text>
  <g transform="scale(0.729999 0.729999 1316.85 560.606) scale(1.0524 1.0524 1.4013e-045 1.4013e-045) flipX(963.818) rotate(270 964.576 96.9697) rotate(90 1175.94 787.121) scale(0.380039 0.380039 1162.3 219.697) rotate(270 1162.3 219.697) rotate(270 412.288 437.863)">
    <g transform="rotate(90 1094.11 578.015)">
      <rect x="-950.721" y="59.2439" width="130.303" height="134.849" rx="0" ry="0" fill="Col_Grey4" stroke="black" stroke-width="3"/> 
      <line x1="-887.122" y1="74.3638" x2="-838.632" y2="98.6138" stroke="black" stroke-width="3"/> 
      <line x1="-933.411" y1="154.494" x2="-884.921" y2="178.744" stroke="black" stroke-width="3"/> 
      <line x1="-840.152" y1="98.6138" x2="-935.601" y2="154.674" stroke="black" stroke-width="3"/> 
      <line x1="-885.941" y1="178.144" x2="-885.941" y2="193.144" stroke="black" stroke-width="3"/> 
      <line x1="-885.792" y1="61.2939" x2="-885.792" y2="76.2939" stroke="black" stroke-width="3"/> 
    </g>
  </g>
  <rect x="789.101" y="540.546" width="107.942" height="81.2121" rx="0" ry="0" fill="Col_BGSand" stroke="black" stroke-width="3"/> 
  <g transform="scale(0.729999 0.729999 1316.85 560.606) scale(1.0524 1.0524 1.4013e-045 1.4013e-045) flipX(963.818) rotate(270 964.576 96.9697) rotate(90 1175.94 787.121) scale(0.380039 0.380039 1162.3 219.697) rotate(270 1162.3 219.697) rotate(270 412.288 437.863)">
    <g transform="rotate(90 1094.11 578.015)">
      <rect x="-1760.91" y="59.5591" width="130.303" height="134.849" rx="0" ry="0" fill="Col_Grey4" stroke="black" stroke-width="3"/> 
      <line x1="-1697.31" y1="74.6792" x2="-1648.82" y2="98.9292" stroke="black" stroke-width="3"/> 
      <line x1="-1743.6" y1="154.809" x2="-1695.11" y2="179.059" stroke="black" stroke-width="3"/> 
      <line x1="-1650.34" y1="98.9292" x2="-1745.79" y2="154.989" stroke="black" stroke-width="3"/> 
      <line x1="-1696.13" y1="178.459" x2="-1696.13" y2="193.459" stroke="black" stroke-width="3"/> 
      <line x1="-1695.98" y1="61.6091" x2="-1695.98" y2="76.6091" stroke="black" stroke-width="3"/> 
    </g>
  </g>
  <g transform="scale(0.729999 0.729999 1316.85 560.606) scale(1.0524 1.0524 1.4013e-045 1.4013e-045) flipX(963.818) rotate(270 964.576 96.9697) rotate(90 1175.94 787.121) scale(0.380039 0.380039 1162.3 219.697) rotate(270 1162.3 219.697) rotate(270 412.288 437.863)">
    <g transform="rotate(90 1094.11 578.015)">
      <rect x="-1485.55" y="59.5591" width="130.303" height="134.849" rx="0" ry="0" fill="Col_Grey4" stroke="black" stroke-width="3"/> 
      <line x1="-1421.95" y1="74.6792" x2="-1373.46" y2="98.9292" stroke="black" stroke-width="3"/> 
      <line x1="-1468.24" y1="154.809" x2="-1419.75" y2="179.059" stroke="black" stroke-width="3"/> 
      <line x1="-1374.98" y1="98.9292" x2="-1470.43" y2="154.989" stroke="black" stroke-width="3"/> 
      <line x1="-1420.77" y1="178.459" x2="-1420.77" y2="193.459" stroke="black" stroke-width="3"/> 
      <line x1="-1420.62" y1="61.6091" x2="-1420.62" y2="76.6091" stroke="black" stroke-width="3"/> 
    </g>
  </g>
  <text x="805.951" y="340.909" font-size="15">21KLB02<tspan x="805.951" dy="15">AC002</tspan>
  </text>
  <text x="803.678" y="496.97" font-size="15">21SAC40<tspan x="803.678" dy="15">AC002</tspan>
  </text>
  <text x="803.678" y="572.727" font-size="15">21SAC50<tspan x="803.678" dy="15">AC001</tspan>
  </text>
  <text x="803.678" y="651.394" font-size="15">21SAC50<tspan x="803.678" dy="15">AC002</tspan>
  </text>
  <g>
    <line x1="233.244" y1="852.954" x2="659.244" y2="852.954" stroke="black" stroke-width="3"/> 
    <line x1="233.244" y1="743.863" x2="659.244" y2="743.863" stroke="black" stroke-width="3"/> 
    <text x="378.819" y="700.486" font-size="15">21KAA10AC001</text>
    <text x="379.577" y="809.91" font-size="15">20PGB50AC001</text>
    <line x1="233.244" y1="959.879" x2="659.244" y2="959.879" stroke="black" stroke-width="3"/> 
    <text x="379.577" y="917.849" font-size="15">20PGB60AC001</text>
    <g transform="scale(0.9 0.9 1375.18 718.182) scale(1.62 1.62 1373.67 937.121) scale(1.0524 1.0524 1.4013e-045 1.4013e-045) flipX(963.818) rotate(270 964.576 96.9697) rotate(90 1175.94 787.121) scale(0.380039 0.380039 1162.3 219.697) rotate(270 1162.3 219.697) rotate(270 412.288 437.863)">
      <g transform="rotate(90 1094.11 578.015)">
        <rect x="-2204.01" y="-115.309" width="130.303" height="134.849" rx="0" ry="0" fill="Col_Grey4" stroke="black" stroke-width="3"/> 
        <line x1="-2140.41" y1="-100.189" x2="-2091.92" y2="-75.9391" stroke="black" stroke-width="3"/> 
        <line x1="-2186.7" y1="-20.0593" x2="-2138.21" y2="4.19073" stroke="black" stroke-width="3"/> 
        <line x1="-2093.44" y1="-75.9391" x2="-2188.89" y2="-19.8793" stroke="black" stroke-width="3"/> 
        <line x1="-2139.23" y1="3.59088" x2="-2139.23" y2="18.5909" stroke="black" stroke-width="3"/> 
        <line x1="-2139.08" y1="-113.259" x2="-2139.08" y2="-98.2592" stroke="black" stroke-width="3"/> 
      </g>
    </g>
    <g transform="scale(0.9 0.9 1375.18 718.182) scale(1.62 1.62 1373.67 937.121) scale(1.0524 1.0524 1.4013e-045 1.4013e-045) flipX(963.818) rotate(270 964.576 96.9697) rotate(90 1175.94 787.121) scale(0.380039 0.380039 1162.3 219.697) rotate(270 1162.3 219.697) rotate(270 412.288 437.863)">
      <g transform="rotate(90 1094.11 578.015)">
        <rect x="-2390.41" y="-115.307" width="130.303" height="134.849" rx="0" ry="0" fill="Col_Grey4" stroke="black" stroke-width="3"/> 
        <line x1="-2326.81" y1="-100.187" x2="-2278.32" y2="-75.9368" stroke="black" stroke-width="3"/> 
        <line x1="-2373.1" y1="-20.0567" x2="-2324.61" y2="4.1933" stroke="black" stroke-width="3"/> 
        <line x1="-2279.84" y1="-75.9368" x2="-2375.29" y2="-19.8768" stroke="black" stroke-width="3"/> 
        <line x1="-2325.63" y1="3.5932" x2="-2325.63" y2="18.5932" stroke="black" stroke-width="3"/> 
        <line x1="-2325.48" y1="-113.257" x2="-2325.48" y2="-98.2569" stroke="black" stroke-width="3"/> 
      </g>
    </g>
    <g transform="scale(0.9 0.9 1375.18 718.182) scale(1.62 1.62 1373.67 937.121) scale(1.0524 1.0524 1.4013e-045 1.4013e-045) flipX(963.818) rotate(270 964.576 96.9697) rotate(90 1175.94 787.121) scale(0.380039 0.380039 1162.3 219.697) rotate(270 1162.3 219.697) rotate(270 412.288 437.863)">
      <g transform="rotate(90 1094.11 578.015)">
        <rect x="-2575" y="-115.306" width="130.303" height="134.849" rx="0" ry="0" fill="Col_Grey4" stroke="black" stroke-width="3"/> 
        <line x1="-2511.4" y1="-100.186" x2="-2462.91" y2="-75.9363" stroke="black" stroke-width="3"/> 
        <line x1="-2557.69" y1="-20.0562" x2="-2509.2" y2="4.19379" stroke="black" stroke-width="3"/> 
        <line x1="-2464.43" y1="-75.9363" x2="-2559.88" y2="-19.8763" stroke="black" stroke-width="3"/> 
        <line x1="-2510.22" y1="3.59369" x2="-2510.22" y2="18.5937" stroke="black" stroke-width="3"/> 
        <line x1="-2510.07" y1="-113.256" x2="-2510.07" y2="-98.2564" stroke="black" stroke-width="3"/> 
      </g>
    </g>
  </g>
  <line x1="1268.85" y1="852.348" x2="1694.85" y2="852.348" stroke="black" stroke-width="3"/> 
  <line x1="1268.85" y1="743.257" x2="1694.85" y2="743.257" stroke="black" stroke-width="3"/> 
  <text x="1414.42" y="699.88" font-size="15">22KAA20AC001</text>
  <text x="1415.18" y="809.304" font-size="15">20PGB50AC002</text>
  <line x1="1268.85" y1="959.273" x2="1694.85" y2="959.273" stroke="black" stroke-width="3"/> 
  <text x="1415.18" y="917.243" font-size="15">20PGB60AC002</text>
  <g transform="flipX(1461.55) scale(0.9 0.9 1375.18 718.182) scale(1.62 1.62 1373.67 937.121) scale(1.0524 1.0524 1.4013e-045 1.4013e-045) flipX(963.818) rotate(270 964.576 96.9697) rotate(90 1175.94 787.121) scale(0.380039 0.380039 1162.3 219.697) rotate(270 1162.3 219.697) rotate(270 412.288 437.863)">
    <g transform="rotate(90 1094.11 578.015)">
      <rect x="-2202.97" y="-1822.65" width="130.303" height="134.849" rx="0" ry="0" fill="Col_Grey4" stroke="black" stroke-width="3"/> 
      <line x1="-2139.37" y1="-1807.53" x2="-2090.88" y2="-1783.28" stroke="black" stroke-width="3"/> 
      <line x1="-2185.66" y1="-1727.4" x2="-2137.17" y2="-1703.15" stroke="black" stroke-width="3"/> 
      <line x1="-2092.4" y1="-1783.28" x2="-2187.85" y2="-1727.22" stroke="black" stroke-width="3"/> 
      <line x1="-2138.19" y1="-1703.75" x2="-2138.19" y2="-1688.75" stroke="black" stroke-width="3"/> 
      <line x1="-2138.04" y1="-1820.6" x2="-2138.04" y2="-1805.6" stroke="black" stroke-width="3"/> 
    </g>
  </g>
  <g transform="flipX(1461.55) scale(0.9 0.9 1375.18 718.182) scale(1.62 1.62 1373.67 937.121) scale(1.0524 1.0524 1.4013e-045 1.4013e-045) flipX(963.818) rotate(270 964.576 96.9697) rotate(90 1175.94 787.121) scale(0.380039 0.380039 1162.3 219.697) rotate(270 1162.3 219.697) rotate(270 412.288 437.863)">
    <g transform="rotate(90 1094.11 578.015)">
      <rect x="-2389.37" y="-1822.65" width="130.303" height="134.849" rx="0" ry="0" fill="Col_Grey4" stroke="black" stroke-width="3"/> 
      <line x1="-2325.77" y1="-1807.53" x2="-2277.28" y2="-1783.28" stroke="black" stroke-width="3"/> 
      <line x1="-2372.06" y1="-1727.4" x2="-2323.57" y2="-1703.15" stroke="black" stroke-width="3"/> 
      <line x1="-2278.8" y1="-1783.28" x2="-2374.25" y2="-1727.22" stroke="black" stroke-width="3"/> 
      <line x1="-2324.59" y1="-1703.75" x2="-2324.59" y2="-1688.75" stroke="black" stroke-width="3"/> 
      <line x1="-2324.44" y1="-1820.6" x2="-2324.44" y2="-1805.6" stroke="black" stroke-width="3"/> 
    </g>
  </g>
  <g transform="flipX(1461.55) scale(0.9 0.9 1375.18 718.182) scale(1.62 1.62 1373.67 937.121) scale(1.0524 1.0524 1.4013e-045 1.4013e-045) flipX(963.818) rotate(270 964.576 96.9697) rotate(90 1175.94 787.121) scale(0.380039 0.380039 1162.3 219.697) rotate(270 1162.3 219.697) rotate(270 412.288 437.863)">
    <g transform="rotate(90 1094.11 578.015)">
      <rect x="-2573.96" y="-1822.65" width="130.303" height="134.849" rx="0" ry="0" fill="Col_Grey4" stroke="black" stroke-width="3"/> 
      <line x1="-2510.36" y1="-1807.53" x2="-2461.87" y2="-1783.28" stroke="black" stroke-width="3"/> 
      <line x1="-2556.65" y1="-1727.4" x2="-2508.16" y2="-1703.15" stroke="black" stroke-width="3"/> 
      <line x1="-2463.39" y1="-1783.28" x2="-2558.84" y2="-1727.22" stroke="black" stroke-width="3"/> 
      <line x1="-2509.18" y1="-1703.75" x2="-2509.18" y2="-1688.75" stroke="black" stroke-width="3"/> 
      <line x1="-2509.03" y1="-1820.6" x2="-2509.03" y2="-1805.6" stroke="black" stroke-width="3"/> 
    </g>
  </g>
  <text x="1050.48" y="262.121" font-size="15">22KLB02<tspan x="1050.48" dy="15">AC001</tspan>
  </text>
  <text x="1048.21" y="418.636" font-size="15">22SAC40<tspan x="1048.21" dy="15">AC001</tspan>
  </text>
  <text x="1050.48" y="341.242" font-size="15">22KLB02<tspan x="1050.48" dy="15">AC002</tspan>
  </text>
  <text x="1048.21" y="497.303" font-size="15">22SAC40<tspan x="1048.21" dy="15">AC002</tspan>
  </text>
  <text x="1048.21" y="573.06" font-size="15">22SAC50<tspan x="1048.21" dy="15">AC001</tspan>
  </text>
  <text x="1048.21" y="651.727" font-size="15">22SAC50<tspan x="1048.21" dy="15">AC002</tspan>
  </text>
  <text x="1355.03" y="418.697" font-size="15">22KLC01<tspan x="1355.03" dy="15">AC001</tspan>
  </text>
  <text x="1355.03" y="498.213" font-size="15">22KLC01<tspan x="1355.03" dy="15">AC002</tspan>
  </text>
  <text x="1354.27" y="577.001" font-size="15">22KLC03<tspan x="1354.27" dy="15">AC001</tspan>
  </text>
  <text x="1354.27" y="656.517" font-size="15">22KLC03<tspan x="1354.27" dy="15">AC002</tspan>
  </text>
  <text x="1543.39" y="419.212" font-size="15">22KAA11<tspan x="1543.39" dy="15">AP001</tspan>
  </text>
  <text x="1544.15" y="653.788" font-size="15">22JNA12<tspan x="1544.15" dy="15">AP001</tspan>
  </text>
  <text x="1544.91" y="575.363" font-size="15">22JNA11<tspan x="1544.91" dy="15">AP001</tspan>
  </text>
  <text x="1542.64" y="500.394" font-size="15">22KAA12<tspan x="1542.64" dy="15">AP001</tspan>
  </text>
  <image x="1747.91" y="912.121" width="75" height="25" xlink:href="obj_link.svg" transform="rotate(0 37.3619 12.5)">
    <rt:dyn type="TextStr" mode="constant" value="&quot;PK&quot;"/> 
    <rt:event type="OnClick">LoadNew(&quot;&quot;)</rt:event>
    <rt:dyn type="ModName" mode="constant" value="&quot;all_asrk&quot;"/> 
  </image>
  <text x="68.5" y="25" fill="black" font-size="15" font-weight="700" text-anchor="middle">
    <title>Схема КИП насосов охлаждения бассейна выдержки</title>
ASRK_PEB</text>
  <g>
    <polyline points="233.372,227.47 253.372,267.47 213.372,267.47 233.372,227.47" fill="Col_Grey4" stroke="black" stroke-width="1"/> 
    <circle cx="233.372" cy="252.47" r="25" fill="none" stroke="black" stroke-width="1"/> 
  </g>
  <g>
    <polyline points="233.372,289.47 253.372,329.47 213.372,329.47 233.372,289.47" fill="Col_Grey4" stroke="black" stroke-width="1"/> 
    <circle cx="233.372" cy="314.47" r="25" fill="none" stroke="black" stroke-width="1"/> 
  </g>
  <g>
    <polyline points="1694.37,228.47 1714.37,268.47 1674.37,268.47 1694.37,228.47" fill="Col_Grey4" stroke="black" stroke-width="1"/> 
    <circle cx="1694.37" cy="253.47" r="25" fill="none" stroke="black" stroke-width="1"/> 
  </g>
  <g>
    <polyline points="1694.37,287.47 1714.37,327.47 1674.37,327.47 1694.37,287.47" fill="Col_Grey4" stroke="black" stroke-width="1"/> 
    <circle cx="1694.37" cy="312.47" r="25" fill="none" stroke="black" stroke-width="1"/> 
  </g>
</svg>
