<?xml  version="1.0" encoding="windows-1251"?>
<svg color="Col_BGSand" xmlns="http://www.w3.org/2000/svg" xmlns:rt="http://www.rts.co.at/2001/XMLSchema/RtSvgPL" xmlns:xlink="http://www.w3.org/1999/xlink" xmlns:xsi="http://www.w3.org/2001/XMLSchema-instance" xsi:schemaLocation="http://www.w3.org/2000/svg C:\RTS\RtSvg\XML\SVG.xsd" viewBox="0 0 1920 980" width="1920" height="980" id="asrk_svo">
  <title>РК системы сбора и возврата конденсата систем СВО</title>
  <rt:model modelversion="7.2.0.24" comment="UMod all_asrk&#10;LMod asrk_qur&#10;RMod asrk_uja_06" revision="3"/> 
  <line x1="899.333" y1="369.667" x2="899.333" y2="340.333" stroke="black"/> 
  <text x="567" y="69" font-size="32">РК системы сбора и возврата конденсата систем СВО</text>
  <rect x="704.796" y="236.429" width="531.531" height="513.143" rx="0" ry="0" fill="none" stroke="black" stroke-width="5"/> 
  <rect x="707.167" y="233.167" width="142.5" height="11.8333" rx="0" ry="0" fill="Col_BGSand" stroke="Col_BGSand"/> 
  <line x1="680" y1="204" x2="720.667" y2="248"/> 
  <rect x="720.333" y="254.667" width="498" height="474.667" rx="0" ry="0" fill="none" stroke="black" stroke-width="5"/> 
  <rect x="707.667" y="246.667" width="177.667" height="14.3333" rx="0" ry="0" fill="Col_BGSand" stroke="Col_BGSand"/> 
  <rect x="708.333" y="353.333" width="42.6666" height="26" rx="0" ry="0" fill="Col_BGSand" stroke="Col_BGSand"/> 
  <rect x="712" y="258.667" width="10.6667" height="94.6667" rx="0" ry="0" fill="Col_BGSand" stroke="Col_BGSand"/> 
  <polyline points="835,204 864.333,249.333 721,358.667" fill="none" stroke="black" stroke-width="5"/> 
  <polyline points="863,210 885.667,244 867.667,250 841.667,208.667" fill="Col_BGSand"/> 
  <rect x="721" y="690" width="149.333" height="38.6667" rx="0" ry="0" fill="none" stroke="black" stroke-width="5"/> 
  <rect x="712.333" y="692.5" width="155.333" height="41.4999" rx="0" ry="0" fill="Col_BGSand" stroke="Col_BGSand"/> 
  <line x1="1236.17" y1="276" x2="1236.17" y2="151" stroke="black" stroke-width="5"/> 
  <rect x="1218.33" y="218" width="14.3334" height="29.6667" rx="0" ry="0" fill="Col_BGSand" stroke="Col_BGSand"/> 
  <line x1="1217" y1="238.333" x2="1217" y2="151" stroke="black" stroke-width="5"/> 
  <g>
    <line x1="721" y1="360.333" x2="721" y2="222" stroke="black" stroke-width="5"/> 
  </g>
  <line x1="720.333" y1="382" x2="887" y2="253.333" stroke="black" stroke-width="5"/> 
  <circle cx="973.667" cy="537" r="129" fill="none" stroke="black" stroke-width="5"/> 
  <line x1="854.333" y1="623.333" x2="868.333" y2="610" stroke="black" stroke-width="5"/> 
  <line x1="875.724" y1="644.81" x2="889.724" y2="631.477" stroke="black" stroke-width="5"/> 
  <line x1="849" y1="616.667" x2="880.667" y2="652" stroke="black" stroke-width="5"/> 
  <circle cx="1155.75" cy="325.149" r="43.333" fill="none" stroke="black" stroke-width="5"/> 
  <text x="1094" y="273" font-size="15">20LCM81BB001</text>
  <line x1="705" y1="315" x2="705" y2="222" stroke="black" stroke-width="5"/> 
  <rect x="687" y="316.667" width="42.6667" height="22.6667" rx="0" ry="0" fill="Col_BGSand" stroke="Col_BGSand"/> 
  <line x1="885" y1="238" x2="854.333" y2="192.667" stroke="black" stroke-width="5"/> 
  <text x="917" y="551" font-size="15">20KBC17BB001</text>
  <text x="1081.75" y="721.167" font-size="15">20UKC10R024</text>
  <polyline points="834.667,208.667 857.334,242.667 839.334,248.667 813.334,207.334" fill="Col_BGSand"/> 
  <circle cx="1111.95" cy="368.058" r="8.57141" fill="black" stroke="black" stroke-width="3"/> 
  <polyline points="1032,374 1123,395" fill="darkslateblue"/> 
  <path d="M278 342 "/> 
  <polyline points="1106.48,362.727"/> 
  <polyline points="222.121,247.576 270.606,503.636" fill="black"/> 
  <polyline points="173.636,253.636 252.424,474.848"/> 
  <line x1="237.273" y1="70.3031" x2="237.273" y2="70.3031" stroke="black"/> 
  <polyline points="258.485,280.909 284.242,533.939"/> 
  <line x1="1108.48" y1="367.273" x2="1108.48" y2="367.273" stroke="black"/> 
  <line x1="1116" y1="369" x2="899" y2="369" stroke="black"/> 
  <circle cx="1142.78" cy="334.781" r="10.25" fill="none" stroke="black" stroke-width="5"/> 
  <image x="1747.91" y="912.121" width="75" height="25" xlink:href="obj_link.svg" transform="rotate(0 37.3619 12.5)">
    <rt:dyn type="TextStr" mode="constant" value="&quot;PK&quot;"/> 
    <rt:event type="OnClick">LoadNew(&quot;&quot;)</rt:event>
    <rt:dyn type="ModName" mode="constant" value="&quot;all_asrk&quot;"/> 
  </image>
  <text x="88.5" y="25" fill="black" font-size="15" font-weight="700" text-anchor="middle">
    <title>Схема КИП насосов охлаждения бассейна выдержки</title>
ASRK_SVO</text>
  <g>
    <polyline points="900,312.47 920,352.47 880,352.47 900,312.47" fill="Col_Grey4" stroke="black" stroke-width="1"/> 
    <circle cx="900" cy="337.47" r="25" fill="none" stroke="black" stroke-width="1"/> 
  </g>
  <image x="930" y="325" width="175" height="25" xlink:href="DS_ana_ASRK.svg">
    <title>&quot;20LCM81CR801B01&quot;</title>
    <rt:dyn type="IsExp" mode="constant" value="true"/> 
    <rt:dyn type="ShowFrame" mode="constant" value="true"/> 
    <rt:dyn type="Color_Readings" mode="constant" value="true"/> 
    <rt:dyn type="FKKS" mode="constant" value="&quot;20LCM81CR801B01&quot;"/> 
    <rt:dyn type="ValueToTheRight" mode="constant" value="false"/> 
    <rt:dyn type="SetBounds" mode="constant" value="true"/> 
    <rt:dyn type="Show_Map" mode="constant" value="false"/> 
    <rt:dyn type="X" mode="constant" value="&quot;A&quot;"/> 
  </image>
  <text x="928.772" y="297.166" font-size="15">УДГП-01</text>
  <rect x="932.148" y="304.409" width="150" height="21.2122" rx="0" ry="0" fill="Col_BGItemSel"/> 
  <text x="936.209" y="321.833" fill="black" font-size="18" text-anchor="start">20LCM81CR801</text>
</svg>
