<?xml  version="1.0" encoding="windows-1251"?>
<svg color="Col_BGSand" xmlns="http://www.w3.org/2000/svg" xmlns:rt="http://www.rts.co.at/2001/XMLSchema/RtSvgPL" xmlns:xlink="http://www.w3.org/1999/xlink" xmlns:xsi="http://www.w3.org/2001/XMLSchema-instance" xsi:schemaLocation="http://www.w3.org/2000/svg C:\RTS\RtSvg\XML\SVG.xsd" viewBox="0 0 1920 980" width="1920" height="980" id="asrk_potreb_pgb60">
  <title>Промконтур потребителей НЭ (PGB60)</title>
  <rt:model modelversion="7.2.0.24" comment="UMod all_asrk&#10;LMod asrk_potreb_pgb50&#10;RMod asrk_qur" revision="3"/> 
  <line x1="1600.61" y1="250" x2="335" y2="250" stroke="black" stroke-width="3"/> 
  <line x1="1599.59" y1="900" x2="335" y2="900" stroke="black" stroke-width="3"/> 
  <polygon points="1032.46,-412.646 1043.74,-422.536 1054.57,-398.783" fill="black" stroke="black" transform="flipY(725.561) rotate(180 1360.2 697.087) rotate(0 1.4013e-045 4.52829e-039) flipX(1151) rotate(221.213 708.5 406.5)"/> 
  <line x1="336" y1="250" x2="336" y2="425" stroke="black" stroke-width="3"/> 
  <text x="120" y="865.255" font-size="15">Возврат от потребителей</text>
  <line x1="336" y1="825" x2="336" y2="900" stroke="black" stroke-width="3"/> 
  <text x="186" y="389.745" font-size="15">На всас насосов</text>
  <polygon points="652.599,-846.351 663.88,-856.241 674.71,-832.487" fill="black" stroke="black" transform="flipY(201.071) rotate(180 1360.2 697.087) rotate(0 1.4013e-045 4.52829e-039) flipX(1151) rotate(221.213 708.5 406.5)"/> 
  <line x1="445" y1="425" x2="170" y2="425" stroke="black" stroke-width="3"/> 
  <line x1="170" y1="425" x2="170" y2="550" stroke="black" stroke-width="3"/> 
  <image x="125" y="442.5" width="70" height="65" xlink:href="DS_CO_valve.svg" transform="rotate(270 -3.05176e-005 -10)">
    <rt:dyn type="KKS" mode="constant" value="&quot;NULL&quot;"/> 
    <rt:dyn type="Drive" mode="constant" value="&quot;NONE&quot;"/> 
  </image>
  <text x="195" y="481" font-size="15">20PGB60AA102</text>
  <line x1="445" y1="425" x2="445" y2="550" stroke="black" stroke-width="3"/> 
  <image x="420" y="467.5" width="70" height="65" xlink:href="DS_CO_valve.svg" transform="rotate(90 0 -10)">
    <rt:dyn type="KKS" mode="constant" value="&quot;NULL&quot;"/> 
    <rt:dyn type="Drive" mode="constant" value="&quot;NONE&quot;"/> 
  </image>
  <text x="313.163" y="505.561" font-size="15">20PGB60AA104</text>
  <g>
    <line x1="495" y1="550" x2="395" y2="550" stroke="black" stroke-width="3"/> 
    <line x1="495" y1="650" x2="395" y2="650" stroke="black" stroke-width="3"/> 
    <line x1="395" y1="550" x2="395" y2="650" stroke="black" stroke-width="3"/> 
    <line x1="495" y1="550" x2="495" y2="650" stroke="black" stroke-width="3"/> 
    <line x1="395" y1="550" x2="495" y2="650" stroke="black" stroke-width="3"/> 
  </g>
  <line x1="445" y1="825" x2="170" y2="825" stroke="black" stroke-width="3"/> 
  <line x1="220" y1="550" x2="120" y2="550" stroke="black" stroke-width="3"/> 
  <line x1="220" y1="650" x2="120" y2="650" stroke="black" stroke-width="3"/> 
  <line x1="120" y1="550" x2="120" y2="650" stroke="black" stroke-width="3"/> 
  <line x1="220" y1="550" x2="220" y2="650" stroke="black" stroke-width="3"/> 
  <line x1="120" y1="550" x2="220" y2="650" stroke="black" stroke-width="3"/> 
  <line x1="170" y1="650" x2="170" y2="775" stroke="black" stroke-width="3"/> 
  <image x="125" y="667.5" width="70" height="65" xlink:href="DS_CO_valve.svg" transform="rotate(270 -6.10352e-005 -10)">
    <rt:dyn type="Drive" mode="constant" value="&quot;NONE&quot;"/> 
  </image>
  <text x="225" y="575" font-size="15">20PGB60AC001</text>
  <text x="195" y="706" font-size="15">20PGB60AA101</text>
  <line x1="445" y1="650" x2="445" y2="775" stroke="black" stroke-width="3"/> 
  <image x="420" y="667.5" width="70" height="65" xlink:href="DS_CO_valve.svg" transform="rotate(90 -0.00012207 -10)">
    <rt:dyn type="Drive" mode="constant" value="&quot;NONE&quot;"/> 
  </image>
  <text x="275" y="625" font-size="15">20PGB60AC002</text>
  <text x="461" y="706.5" font-size="15">20PGB60AA103</text>
  <line x1="170" y1="800" x2="170" y2="825" stroke="black" stroke-width="3"/> 
  <line x1="445" y1="800" x2="445" y2="825" stroke="black" stroke-width="3"/> 
  <line x1="57.0409" y1="575" x2="120" y2="575" stroke="black" stroke-width="3"/> 
  <line x1="70" y1="625" x2="120" y2="625" stroke="black" stroke-width="3"/> 
  <polygon points="412.125,-645.966 423.405,-655.856 434.235,-632.102" fill="black" stroke="black" transform="rotate(90 285.203 211.275) rotate(0 1.4013e-045 2.32424e-039) flipY(201.071) rotate(180 1360.2 697.087) rotate(0 1.4013e-045 4.52829e-039) flipX(1151) rotate(221.213 708.5 406.5)"/> 
  <polygon points="294.53,-704.348 305.81,-714.238 316.64,-690.485" fill="black" stroke="black" transform="flipX(28.7241) rotate(90 285.203 211.275) rotate(0 1.4013e-045 2.32424e-039) flipY(201.071) rotate(180 1360.2 697.087) rotate(0 1.4013e-045 4.52829e-039) flipX(1151) rotate(221.213 708.5 406.5)"/> 
  <text x="63.1633" y="605.561" font-size="15">РЕВ</text>
  <line x1="495" y1="575" x2="545" y2="575" stroke="black" stroke-width="3"/> 
  <line x1="507.959" y1="625" x2="557.959" y2="625" stroke="black" stroke-width="3"/> 
  <polygon points="700.68,-316.505 711.959,-326.395 722.789,-302.642" fill="black" stroke="black" transform="rotate(90 285.203 211.275) rotate(0 1.4013e-045 2.32424e-039) flipY(201.071) rotate(180 1360.2 697.087) rotate(0 1.4013e-045 4.52829e-039) flipX(1151) rotate(221.213 708.5 406.5)"/> 
  <polygon points="5.97511,-1033.81 17.2551,-1043.7 28.0851,-1019.94" fill="black" stroke="black" transform="flipX(28.7241) rotate(90 285.203 211.275) rotate(0 1.4013e-045 2.32424e-039) flipY(201.071) rotate(180 1360.2 697.087) rotate(0 1.4013e-045 4.52829e-039) flipX(1151) rotate(221.213 708.5 406.5)"/> 
  <text x="501.122" y="605.561" font-size="15">РЕВ</text>
  <g>
    <line x1="711" y1="525" x2="611" y2="525" stroke="black" stroke-width="3"/> 
    <line x1="711" y1="625" x2="611" y2="625" stroke="black" stroke-width="3"/> 
    <line x1="611" y1="525" x2="611" y2="625" stroke="black" stroke-width="3"/> 
    <line x1="711" y1="525" x2="711" y2="625" stroke="black" stroke-width="3"/> 
    <line x1="611" y1="525" x2="711" y2="625" stroke="black" stroke-width="3"/> 
  </g>
  <line x1="661" y1="375" x2="661" y2="525" stroke="black" stroke-width="3"/> 
  <image x="636" y="442.5" width="70" height="65" xlink:href="DS_CO_valve.svg" transform="rotate(90 0 -10)">
    <rt:dyn type="KKS" mode="constant" value="&quot;NULL&quot;"/> 
    <rt:dyn type="Drive" mode="constant" value="&quot;NONE&quot;"/> 
  </image>
  <text x="686" y="480.561" font-size="15">20PGB61AC108</text>
  <text x="666.918" y="642.806" font-size="15">20LCM81AC001</text>
  <line x1="661" y1="625" x2="661" y2="800" stroke="black" stroke-width="3"/> 
  <image x="636" y="667.5" width="70" height="65" xlink:href="DS_CO_valve.svg" transform="rotate(90 0 -10)">
    <rt:dyn type="KKS" mode="constant" value="&quot;NULL&quot;"/> 
    <rt:dyn type="Drive" mode="constant" value="&quot;NONE&quot;"/> 
  </image>
  <text x="677.122" y="705.051" font-size="15">20PGB61AC107</text>
  <text x="869.449" y="643.827" font-size="15">20KUE10AC001</text>
  <text x="1044.53" y="644.847" font-size="15">20KUE10AC001</text>
  <text x="1244.53" y="643.827" font-size="15">20KPF20AC001</text>
  <line x1="1236" y1="800" x2="660" y2="800" stroke="black" stroke-width="3"/> 
  <line x1="1236" y1="375" x2="660" y2="375" stroke="black" stroke-width="3"/> 
  <line x1="949" y1="250" x2="949" y2="375" stroke="black" stroke-width="3"/> 
  <line x1="949" y1="800" x2="949" y2="900" stroke="black" stroke-width="3"/> 
  <line x1="1711" y1="350" x2="1711" y2="525" stroke="black" stroke-width="3"/> 
  <line x1="1711" y1="625" x2="1711" y2="825" stroke="black" stroke-width="3"/> 
  <image x="1686" y="692.5" width="70" height="65" xlink:href="DS_CO_valve.svg" transform="rotate(90 -0.00012207 -10)">
    <rt:dyn type="Drive" mode="constant" value="&quot;NONE&quot;"/> 
  </image>
  <image x="1686" y="417.5" width="70" height="65" xlink:href="DS_CO_valve.svg" transform="rotate(90 0 -10)">
    <rt:dyn type="KKS" mode="constant" value="&quot;NULL&quot;"/> 
    <rt:dyn type="Drive" mode="constant" value="&quot;NONE&quot;"/> 
  </image>
  <text x="1736" y="450" font-size="15">20PGB61AC114</text>
  <text x="1736" y="732.602" font-size="15">20PGB61AC103</text>
  <line x1="1761" y1="525" x2="1661" y2="525" stroke="black" stroke-width="3"/> 
  <line x1="1761" y1="625" x2="1661" y2="625" stroke="black" stroke-width="3"/> 
  <line x1="1661" y1="525" x2="1661" y2="625" stroke="black" stroke-width="3"/> 
  <line x1="1761" y1="525" x2="1761" y2="625" stroke="black" stroke-width="3"/> 
  <line x1="1686" y1="525" x2="1686" y2="600" stroke="black" stroke-width="3"/> 
  <line x1="1711" y1="575" x2="1686" y2="600" stroke="black" stroke-width="3"/> 
  <line x1="1711" y1="575" x2="1736" y2="600" stroke="black" stroke-width="3"/> 
  <line x1="1736" y1="525" x2="1736" y2="600" stroke="black" stroke-width="3"/> 
  <text x="1719.47" y="650" font-size="15">20KBF50AC001</text>
  <line x1="1712" y1="350" x2="1485" y2="350" stroke="black" stroke-width="3"/> 
  <line x1="1599" y1="250" x2="1599" y2="350" stroke="black" stroke-width="3"/> 
  <line x1="1712" y1="825" x2="1485" y2="825" stroke="black" stroke-width="3"/> 
  <line x1="1599" y1="825" x2="1599" y2="900" stroke="black" stroke-width="3"/> 
  <line x1="861.469" y1="375" x2="861.469" y2="525" stroke="black" stroke-width="3"/> 
  <line x1="861.469" y1="625" x2="861.469" y2="800" stroke="black" stroke-width="3"/> 
  <image x="836.469" y="717.5" width="70" height="65" xlink:href="DS_CO_valve.svg" transform="rotate(90 -0.00012207 -10)">
    <rt:dyn type="Drive" mode="constant" value="&quot;NONE&quot;"/> 
  </image>
  <image x="836.469" y="392.5" width="70" height="65" xlink:href="DS_CO_valve.svg" transform="rotate(90 0 -10)">
    <rt:dyn type="KKS" mode="constant" value="&quot;NULL&quot;"/> 
    <rt:dyn type="Drive" mode="constant" value="&quot;NONE&quot;"/> 
  </image>
  <text x="729.469" y="430.561" font-size="15">20PGB62AC114</text>
  <text x="736" y="756.071" font-size="15">20PGB62AC113</text>
  <line x1="1036" y1="375" x2="1036" y2="525" stroke="black" stroke-width="3"/> 
  <line x1="1036" y1="625" x2="1036" y2="800" stroke="black" stroke-width="3"/> 
  <image x="1011" y="717.5" width="70" height="65" xlink:href="DS_CO_valve.svg" transform="rotate(90 -0.00012207 -10)">
    <rt:dyn type="Drive" mode="constant" value="&quot;NONE&quot;"/> 
  </image>
  <image x="1011" y="392.5" width="70" height="65" xlink:href="DS_CO_valve.svg" transform="rotate(90 0 -10)">
    <rt:dyn type="KKS" mode="constant" value="&quot;NULL&quot;"/> 
    <rt:dyn type="Drive" mode="constant" value="&quot;NONE&quot;"/> 
  </image>
  <text x="1047.53" y="430.561" font-size="15">20PGB62AC118</text>
  <text x="1050.59" y="756.071" font-size="15">20PGB62AC117</text>
  <line x1="1236.47" y1="375" x2="1236.47" y2="525" stroke="black" stroke-width="3"/> 
  <line x1="1236.47" y1="625" x2="1236.47" y2="800" stroke="black" stroke-width="3"/> 
  <image x="1211" y="667.5" width="70" height="65" xlink:href="DS_CO_valve.svg" transform="rotate(90 -0.00012207 -10)">
    <rt:dyn type="Drive" mode="constant" value="&quot;NONE&quot;"/> 
  </image>
  <image x="1211" y="442.5" width="70" height="65" xlink:href="DS_CO_valve.svg" transform="rotate(90 0 -10)">
    <rt:dyn type="KKS" mode="constant" value="&quot;NULL&quot;"/> 
    <rt:dyn type="Drive" mode="constant" value="&quot;NONE&quot;"/> 
  </image>
  <text x="1105" y="480.561" font-size="15">20PGB61AC114</text>
  <text x="1111" y="707.092" font-size="15">20PGB61AC113</text>
  <line x1="1486" y1="350" x2="1486" y2="525" stroke="black" stroke-width="3"/> 
  <line x1="1486" y1="625" x2="1486" y2="825" stroke="black" stroke-width="3"/> 
  <image x="1461" y="692.5" width="70" height="65" xlink:href="DS_CO_valve.svg" transform="rotate(90 -0.00012207 -10)">
    <rt:dyn type="Drive" mode="constant" value="&quot;NONE&quot;"/> 
  </image>
  <image x="1461" y="417.5" width="70" height="65" xlink:href="DS_CO_valve.svg" transform="rotate(90 0 -10)">
    <rt:dyn type="KKS" mode="constant" value="&quot;NULL&quot;"/> 
    <rt:dyn type="Drive" mode="constant" value="&quot;NONE&quot;"/> 
  </image>
  <text x="1511" y="450" font-size="15">20PGB61AC102</text>
  <text x="1511" y="725" font-size="15">20PGB61AC101</text>
  <line x1="1536" y1="525" x2="1436" y2="525" stroke="black" stroke-width="3"/> 
  <line x1="1536" y1="625" x2="1436" y2="625" stroke="black" stroke-width="3"/> 
  <line x1="1436" y1="525" x2="1436" y2="625" stroke="black" stroke-width="3"/> 
  <line x1="1536" y1="525" x2="1536" y2="625" stroke="black" stroke-width="3"/> 
  <line x1="1461" y1="525" x2="1461" y2="600" stroke="black" stroke-width="3"/> 
  <line x1="1486" y1="575" x2="1461" y2="600" stroke="black" stroke-width="3"/> 
  <line x1="1486" y1="575" x2="1511" y2="600" stroke="black" stroke-width="3"/> 
  <line x1="1511" y1="525" x2="1511" y2="600" stroke="black" stroke-width="3"/> 
  <text x="1493.45" y="650" font-size="15">20KBF30AC002</text>
  <line x1="625" y1="150" x2="450" y2="150" stroke="black" stroke-width="3"/> 
  <line x1="625" y1="350" x2="450" y2="350" stroke="black" stroke-width="3"/> 
  <image x="490" y="215" width="70" height="70" xlink:href="DS_motor.svg" transform="rotate(180 0 0) flipX(-1.26362e-005)">
    <rt:dyn type="KKS" mode="constant" value="&quot;NULL&quot;"/> 
  </image>
  <image x="490" y="115" width="70" height="70" xlink:href="DS_motor.svg" transform="rotate(180 0 0) flipX(-1.26362e-005)">
    <rt:dyn type="KKS" mode="constant" value="&quot;NULL&quot;"/> 
  </image>
  <image x="490" y="315" width="70" height="70" xlink:href="DS_motor.svg" transform="rotate(180 0 0) flipX(-1.26362e-005)">
    <rt:dyn type="KKS" mode="constant" value="&quot;NULL&quot;"/> 
  </image>
  <line x1="625" y1="150" x2="625" y2="350" stroke="black" stroke-width="3"/> 
  <line x1="450" y1="150" x2="450" y2="350" stroke="black" stroke-width="3"/> 
  <text x="475" y="191" font-size="15">20PGB60AP001</text>
  <text x="475" y="291" font-size="15">20PGB60AP002</text>
  <text x="475" y="391" font-size="15">20PGB60AP003</text>
  <text x="925" y="50" font-size="30" font-weight="700" text-anchor="middle">Промконтур потребителей НЭ (PGB60)</text>
  <image x="478" y="787.5" width="175" height="25" xlink:href="DS_ana_ASRK.svg">
    <title>&quot;20PGB60CR002B01&quot;</title>
    <rt:dyn type="IsExp" mode="constant" value="true"/> 
    <rt:dyn type="ShowFrame" mode="constant" value="true"/> 
    <rt:dyn type="Color_Readings" mode="constant" value="true"/> 
    <rt:dyn type="FKKS" mode="constant" value="&quot;20PGB60CR002B01&quot;"/> 
    <rt:dyn type="ValueToTheRight" mode="constant" value="false"/> 
    <rt:dyn type="SetBounds" mode="constant" value="true"/> 
    <rt:dyn type="Show_Map" mode="constant" value="false"/> 
    <rt:dyn type="X" mode="constant" value="&quot;G&quot;"/> 
  </image>
  <g>
    <rect x="479.181" y="762.743" width="150" height="21.2122" rx="0" ry="0" fill="Col_BGItemSel"/> 
    <text x="483.242" y="780.167" fill="black" font-size="18" text-anchor="start">20PGB60CR002</text>
  </g>
  <text x="475" y="755.5" font-size="15">БДМГ-100-07</text>
  <image x="201" y="781.5" width="175" height="25" xlink:href="DS_ana_ASRK.svg">
    <title>&quot;20PGB60CR001B01&quot;</title>
    <rt:dyn type="IsExp" mode="constant" value="true"/> 
    <rt:dyn type="ShowFrame" mode="constant" value="true"/> 
    <rt:dyn type="Color_Readings" mode="constant" value="true"/> 
    <rt:dyn type="FKKS" mode="constant" value="&quot;20PGB60CR001B01&quot;"/> 
    <rt:dyn type="ValueToTheRight" mode="constant" value="false"/> 
    <rt:dyn type="SetBounds" mode="constant" value="true"/> 
    <rt:dyn type="Show_Map" mode="constant" value="false"/> 
    <rt:dyn type="X" mode="constant" value="&quot;G&quot;"/> 
  </image>
  <g>
    <rect x="203.181" y="757.576" width="150" height="21.2122" rx="0" ry="0" fill="Col_BGItemSel"/> 
    <text x="207.242" y="775" fill="black" font-size="18" text-anchor="start">20PGB60CR001</text>
  </g>
  <text x="199.805" y="750.333" font-size="15">БДМГ-100-07</text>
  <g transform="scale(1.34 1.34 473.75 475)">
    <line x1="753.06" y1="525" x2="739.06" y2="550" stroke="black" stroke-width="3"/> 
    <line x1="752.06" y1="525" x2="772.06" y2="575" stroke="black" stroke-width="3"/> 
    <line x1="785.06" y1="550" x2="771.06" y2="575" stroke="black" stroke-width="3"/> 
    <line x1="725.06" y1="550" x2="740.06" y2="550" stroke="black" stroke-width="3"/> 
    <line x1="784.06" y1="550" x2="799.06" y2="550" stroke="black" stroke-width="3"/> 
  </g>
  <line x1="911.469" y1="525" x2="811.469" y2="525" stroke="black" stroke-width="3"/> 
  <line x1="911.469" y1="625" x2="811.469" y2="625" stroke="black" stroke-width="3"/> 
  <line x1="811.469" y1="525" x2="811.469" y2="625" stroke="black" stroke-width="3"/> 
  <line x1="911.469" y1="525" x2="911.469" y2="625" stroke="black" stroke-width="3"/> 
  <line x1="1086" y1="525" x2="986" y2="525" stroke="black" stroke-width="3"/> 
  <line x1="1086" y1="625" x2="986" y2="625" stroke="black" stroke-width="3"/> 
  <line x1="986" y1="525" x2="986" y2="625" stroke="black" stroke-width="3"/> 
  <line x1="1086" y1="525" x2="1086" y2="625" stroke="black" stroke-width="3"/> 
  <g transform="scale(1.34 1.34 473.75 475)">
    <line x1="883.657" y1="524.067" x2="869.657" y2="549.067" stroke="black" stroke-width="3"/> 
    <line x1="882.657" y1="524.067" x2="902.657" y2="574.067" stroke="black" stroke-width="3"/> 
    <line x1="915.657" y1="549.067" x2="901.657" y2="574.067" stroke="black" stroke-width="3"/> 
    <line x1="855.657" y1="549.067" x2="870.657" y2="549.067" stroke="black" stroke-width="3"/> 
    <line x1="914.657" y1="549.067" x2="929.657" y2="549.067" stroke="black" stroke-width="3"/> 
  </g>
  <g transform="scale(1.34 1.34 473.75 475)">
    <line x1="1033.29" y1="523.135" x2="1019.28" y2="548.135" stroke="black" stroke-width="3"/> 
    <line x1="1032.29" y1="523.135" x2="1052.28" y2="573.135" stroke="black" stroke-width="3"/> 
    <line x1="1065.28" y1="548.135" x2="1051.28" y2="573.135" stroke="black" stroke-width="3"/> 
    <line x1="1005.28" y1="548.135" x2="1020.28" y2="548.135" stroke="black" stroke-width="3"/> 
    <line x1="1064.28" y1="548.135" x2="1079.28" y2="548.135" stroke="black" stroke-width="3"/> 
  </g>
  <line x1="1286.47" y1="525" x2="1186.47" y2="525" stroke="black" stroke-width="3"/> 
  <line x1="1286.47" y1="625" x2="1186.47" y2="625" stroke="black" stroke-width="3"/> 
  <line x1="1186.47" y1="525" x2="1186.47" y2="625" stroke="black" stroke-width="3"/> 
  <line x1="1286.47" y1="525" x2="1286.47" y2="625" stroke="black" stroke-width="3"/> 
  <image x="1783.91" y="912.121" width="75" height="25" xlink:href="obj_link.svg" transform="rotate(0 37.3619 12.5)">
    <rt:dyn type="TextStr" mode="constant" value="&quot;PK&quot;"/> 
    <rt:event type="OnClick">LoadNew(&quot;&quot;)</rt:event>
    <rt:dyn type="ModName" mode="constant" value="&quot;all_asrk&quot;"/> 
  </image>
  <text x="110.5" y="25" fill="black" font-size="15" font-weight="700" text-anchor="middle">
    <title>Схема КИП насосов охлаждения бассейна выдержки</title>
ASRK_POTREB_PGB60</text>
  <g>
    <polyline points="170,762.228 192.5,807.228 147,807.228 170,762.228" fill="Col_Grey4" stroke="black" stroke-width="1"/> 
  </g>
  <g>
    <polyline points="444,768.228 466.5,813.228 421,813.228 444,768.228" fill="Col_Grey4" stroke="black" stroke-width="1"/> 
  </g>
</svg>
