<?xml  version="1.0" encoding="windows-1251"?>
<svg color="Col_BGSand" xmlns="http://www.w3.org/2000/svg" xmlns:rt="http://www.rts.co.at/2001/XMLSchema/RtSvgPL" xmlns:xlink="http://www.w3.org/1999/xlink" xmlns:xsi="http://www.w3.org/2001/XMLSchema-instance" xsi:schemaLocation="http://www.w3.org/2000/svg C:\RTS\RtSvg\XML\SVG.xsd" viewBox="0 0 1914 1000" width="1914" height="1000" id="asrk_qur" font-size="15" font-weight="700">
  <title>Система РК сетевой воды</title>
  <rt:model modelversion="7.2.0.24" revision="3" comment="UMod all_asrk"/> 
  <line x1="300.061" y1="750.728" x2="1353.09" y2="750.728" stroke="black" stroke-width="3"/> 
  <line x1="297.909" y1="343.576" x2="1350.94" y2="343.576" stroke="black" stroke-width="3"/> 
  <text x="957" y="36" font-size="30" font-weight="700" text-anchor="middle">Система РК (QUR) сетевой воды (NDA)</text>
  <line x1="1791.09" y1="454.545" x2="1791.09" y2="454.545" stroke="black"/> 
  <line x1="1803.55" y1="909.091" x2="1803.55" y2="909.091" stroke="black"/> 
  <line x1="1413.64" y1="225" x2="1413.64" y2="225" stroke="black"/> 
  <image x="769" y="310.242" width="175" height="25" xlink:href="DS_ana.svg">
    <title>&quot;20QUR10CT001&quot;</title>
    <rt:dyn type="FKKS" mode="constant" value="&quot;20QUR10CT001&quot;"/> 
    <rt:dyn type="X" mode="constant" value="&quot;T&quot;"/> 
    <rt:dyn type="ShowFrame" mode="constant" value="true"/> 
    <rt:dyn type="ValueToTheRight" mode="constant" value="false"/> 
    <rt:dyn type="Color_Readings" mode="constant" value="true"/> 
  </image>
  <line x1="1490.33" y1="803.03" x2="1490.33" y2="803.03" stroke="black"/> 
  <line x1="300" y1="342.576" x2="299.424" y2="751" stroke="black" stroke-width="3"/> 
  <text x="1064.5" y="381.25" font-size="15">20QUR10AA003</text>
  <image x="1098.03" y="301.151" width="70" height="65" xlink:href="DS_CO_valve.svg" transform="flipX(2.83682e-006)">
    <title>&quot;20QUR10AA003&quot;</title>
    <rt:dyn type="KKS" mode="constant" value="&quot;20QUR10AA003&quot;"/> 
    <rt:dyn type="DATA_NARY" mode="constant" value="&quot;TPTS&quot;"/> 
    <rt:dyn type="Operate" mode="constant" value="true"/> 
  </image>
  <image x="771.151" y="717.394" width="175" height="25" xlink:href="DS_ana.svg">
    <title>&quot;20QUR20CT001&quot;</title>
    <rt:dyn type="FKKS" mode="constant" value="&quot;20QUR20CT001&quot;"/> 
    <rt:dyn type="X" mode="constant" value="&quot;T&quot;"/> 
    <rt:dyn type="ShowFrame" mode="constant" value="true"/> 
    <rt:dyn type="Color_Readings" mode="constant" value="true"/> 
    <rt:dyn type="ValueToTheRight" mode="constant" value="false"/> 
  </image>
  <text x="1070.75" y="787.5" font-size="15">20QUR20AA003</text>
  <image x="1098.03" y="708.302" width="70" height="65" xlink:href="DS_CO_valve.svg" transform="flipX(2.83682e-006)">
    <title>&quot;20QUR20AA003&quot;</title>
    <rt:dyn type="KKS" mode="constant" value="&quot;20QUR20AA003&quot;"/> 
    <rt:dyn type="DATA_NARY" mode="constant" value="&quot;TPTS&quot;"/> 
    <rt:dyn type="Operate" mode="constant" value="true"/> 
  </image>
  <text x="325.75" y="378.75" font-size="15">20QUR10AA002</text>
  <image x="353.51" y="301.81" width="70" height="65" xlink:href="DS_CO_valve.svg" transform="flipX(2.83682e-006)">
    <rt:dyn type="KKS" mode="constant" value="&quot;NULL&quot;"/> 
    <rt:dyn type="Drive" mode="constant" value="&quot;NONE&quot;"/> 
  </image>
  <text x="322" y="786.25" font-size="15">20QUR20AA002</text>
  <image x="353.51" y="708.06" width="70" height="65" xlink:href="DS_CO_valve.svg" transform="flipX(2.83682e-006)">
    <rt:dyn type="KKS" mode="constant" value="&quot;NULL&quot;"/> 
    <rt:dyn type="Drive" mode="constant" value="&quot;NONE&quot;"/> 
  </image>
  <g>
    <line x1="93.3636" y1="561.163" x2="297.909" y2="561.163" stroke="black" stroke-width="3"/> 
    <text x="144.5" y="595" font-size="15">20QUR10AA001</text>
    <image x="173.667" y="518.818" width="70" height="65" xlink:href="DS_CO_valve.svg" transform="flipX(2.83682e-006)">
      <title>&quot;20QUR10AA001&quot;</title>
      <rt:dyn type="KKS" mode="constant" value="&quot;20QUR10AA001&quot;"/> 
      <rt:dyn type="DATA_NARY" mode="constant" value="&quot;TPTS&quot;"/> 
      <rt:dyn type="Operate" mode="constant" value="true"/> 
    </image>
    <g transform="flipY(388.125) rotate(330 0 1.4013e-045) flipX(390.018) rotate(180 1212.44 532.643)">
      <polygon points="977.472,-20.4403 990.852,-12.8002 990.852,-28.0802 977.472,-20.4403" fill="black" stroke="black" stroke-width="1" transform="rotate(180 1279.17 367.814)"/> 
    </g>
    <line x1="91.375" y1="474.288" x2="91.375" y2="648.038" stroke="black" stroke-width="3"/> 
    <g transform="flipY(501.875) rotate(330 0 1.4013e-045) flipX(390.018) rotate(180 1212.44 532.643)">
      <polygon points="1002.01,21.5628 1015.39,29.2027 1015.39,13.9227 1002.01,21.5628" fill="black" stroke="black" stroke-width="1" transform="rotate(180 1279.17 367.814)"/> 
    </g>
    <text x="19.5001" y="453.038" font-size="15">Прямая сетевая вода</text>
  </g>
  <line x1="1352.25" y1="238" x2="1611" y2="238" stroke="black" stroke-width="3"/> 
  <line x1="1492.47" y1="298.75" x2="1607.47" y2="298.75" stroke="black" stroke-width="3"/> 
  <line x1="1352.25" y1="237" x2="1352.25" y2="361.243" stroke="black" stroke-width="3"/> 
  <line x1="1492.47" y1="350" x2="1607.47" y2="350" stroke="black" stroke-width="3"/> 
  <rect x="1287" y="275.75" width="261.708" height="131.447" rx="0" ry="0" fill="Col_BGSand" stroke="black" stroke-width="3"/> 
  <text x="1354.1" y="305.75" font-size="18">УДЖГ - 42Р - 06</text>
  <text x="1383.75" y="271.25" font-size="15">20QUR10AA007</text>
  <image x="1412.01" y="194.81" width="70" height="65" xlink:href="DS_CO_valve.svg" transform="flipX(2.83682e-006)">
    <rt:dyn type="KKS" mode="constant" value="&quot;NULL&quot;"/> 
    <rt:dyn type="Drive" mode="constant" value="&quot;NONE&quot;"/> 
  </image>
  <g transform="rotate(60 0 1.4013e-045) flipX(390.018) rotate(180 1212.44 532.643)">
    <polygon points="-109.107,-1609.85 -95.7267,-1602.21 -95.7267,-1617.49 -109.107,-1609.85" fill="black" stroke="black" stroke-width="1" transform="rotate(180 1279.17 367.814)"/> 
  </g>
  <g transform="flipX(1494.74) rotate(60 0 1.4013e-045) flipX(390.018) rotate(180 1212.44 532.643)">
    <polygon points="-43.8081,-1374.95 -30.428,-1367.3 -30.428,-1382.59 -43.8081,-1374.95" fill="black" stroke="black" stroke-width="1" transform="rotate(180 1279.17 367.814)"/> 
  </g>
  <text x="1632.47" y="305" font-size="15">В дренажный приямок</text>
  <g transform="flipX(1494.74) rotate(60 0 1.4013e-045) flipX(390.018) rotate(180 1212.44 532.643)">
    <polygon points="-88.1922,-1349.32 -74.8121,-1341.67 -74.8121,-1356.96 -88.1922,-1349.32" fill="black" stroke="black" stroke-width="1" transform="rotate(180 1279.17 367.814)"/> 
  </g>
  <text x="1632.47" y="356.25" font-size="15">В дренажный приямок</text>
  <text x="1633.25" y="242" font-size="15">Из системы обессоленной воды</text>
  <line x1="1352.25" y1="645.5" x2="1611" y2="645.5" stroke="black" stroke-width="3"/> 
  <line x1="1492.47" y1="706.25" x2="1607.47" y2="706.25" stroke="black" stroke-width="3"/> 
  <line x1="1352.25" y1="644.5" x2="1352.25" y2="768.743" stroke="black" stroke-width="3"/> 
  <line x1="1492.47" y1="757.5" x2="1607.47" y2="757.5" stroke="black" stroke-width="3"/> 
  <rect x="1287" y="683.25" width="261.708" height="131.447" rx="0" ry="0" fill="Col_BGSand" stroke="black" stroke-width="3"/> 
  <text x="1354.1" y="713.25" font-size="18">УДЖГ - 42Р - 06</text>
  <text x="1389.5" y="679.25" font-size="15">20QUR20AA007</text>
  <image x="1412.01" y="603.31" width="70" height="65" xlink:href="DS_CO_valve.svg" transform="flipX(2.83682e-006)">
    <rt:dyn type="KKS" mode="constant" value="&quot;NULL&quot;"/> 
    <rt:dyn type="Drive" mode="constant" value="&quot;NONE&quot;"/> 
  </image>
  <g transform="rotate(60 0 1.4013e-045) flipX(390.018) rotate(180 1212.44 532.643)">
    <polygon points="-461.147,-1406.6 -447.766,-1398.96 -447.766,-1414.24 -461.147,-1406.6" fill="black" stroke="black" stroke-width="1" transform="rotate(180 1279.17 367.814)"/> 
  </g>
  <g transform="flipX(1494.74) rotate(60 0 1.4013e-045) flipX(390.018) rotate(180 1212.44 532.643)">
    <polygon points="-396.713,-1171.2 -383.333,-1163.55 -383.333,-1178.84 -396.713,-1171.2" fill="black" stroke="black" stroke-width="1" transform="rotate(180 1279.17 367.814)"/> 
  </g>
  <text x="1632.47" y="712.5" font-size="15">В дренажный приямок</text>
  <g transform="flipX(1494.74) rotate(60 0 1.4013e-045) flipX(390.018) rotate(180 1212.44 532.643)">
    <polygon points="-441.097,-1145.57 -427.717,-1137.92 -427.717,-1153.21 -441.097,-1145.57" fill="black" stroke="black" stroke-width="1" transform="rotate(180 1279.17 367.814)"/> 
  </g>
  <text x="1632.47" y="763.75" font-size="15">В дренажный приямок</text>
  <text x="1633.25" y="649.5" font-size="15">Из системы обессоленной воды</text>
  <text x="18" y="26" font-size="15" text-anchor="start">ASRK_QUR</text>
  <line x1="697.75" y1="186.75" x2="697.75" y2="310.993" stroke="black" stroke-width="3"/> 
  <line x1="562.875" y1="186.75" x2="562.875" y2="310.993" stroke="black" stroke-width="3"/> 
  <text x="568.25" y="431.25" font-size="15">20QUR10AC001</text>
  <g transform="scale(1.38 1.38 627 316.25) scale(0.720001 0.720001 627 210) rotate(0 622 201.25) rotate(270 412.288 437.863)">
    <g transform="rotate(90 1094.11 578.015)">
      <rect x="1103.54" y="1140.81" width="138.097" height="134.345" rx="0" ry="0" fill="Col_Grey4" stroke="black" stroke-width="3"/> 
      <line x1="1167.13" y1="1155.93" x2="1215.62" y2="1180.2" stroke="black" stroke-width="3"/> 
      <line x1="1120.85" y1="1236.08" x2="1169.33" y2="1260.33" stroke="black" stroke-width="3"/> 
      <line x1="1214.1" y1="1180.2" x2="1118.66" y2="1236.26" stroke="black" stroke-width="3"/> 
      <line x1="1168.31" y1="1259.73" x2="1168.31" y2="1274.73" stroke="black" stroke-width="3"/> 
      <line x1="1168.46" y1="1142.86" x2="1168.46" y2="1157.86" stroke="black" stroke-width="3"/> 
    </g>
  </g>
  <image x="518" y="196" width="70" height="65" xlink:href="DS_CO_valve.svg" transform="rotate(270 -6.10352e-005 -10) flipX(2.83682e-006)">
    <rt:dyn type="KKS" mode="constant" value="&quot;NULL&quot;"/> 
    <rt:dyn type="Drive" mode="constant" value="&quot;NONE&quot;"/> 
  </image>
  <text x="448.75" y="225.75" font-size="15">20PCB20<tspan x="448.75" dy="15">AA102</tspan>
  </text>
  <g transform="flipY(178.75) rotate(330 0 1.4013e-045) flipX(390.018) rotate(180 1212.44 532.643)">
    <polygon points="504.485,103.759 517.865,111.403 517.865,96.1161 504.485,103.759" fill="black" stroke="black" stroke-width="1" transform="rotate(180 1279.17 367.814)"/> 
  </g>
  <text x="516.5" y="148.5" font-size="15">В систему<tspan x="516.5" dy="15">охл. воды</tspan>
  </text>
  <image x="652.25" y="196" width="70" height="65" xlink:href="DS_CO_valve.svg" transform="rotate(270 -6.10352e-005 -10) flipX(2.83682e-006)">
    <rt:dyn type="KKS" mode="constant" value="&quot;NULL&quot;"/> 
    <rt:dyn type="Drive" mode="constant" value="&quot;NONE&quot;"/> 
  </image>
  <text x="585.75" y="225.75" font-size="15">20PCB20<tspan x="585.75" dy="15">AA101</tspan>
  </text>
  <g transform="flipY(180.004) flipY(178.75) rotate(330 0 1.4013e-045) flipX(390.018) rotate(180 1212.44 532.643)">
    <polygon points="388.773,172.587 402.153,180.231 402.153,164.944 388.773,172.587" fill="black" stroke="black" stroke-width="1" transform="rotate(180 1279.17 367.814)"/> 
  </g>
  <text x="650.75" y="148.5" font-size="15">Из системы<tspan x="650.75" dy="15">охл. воды</tspan>
  </text>
  <line x1="680" y1="596.25" x2="680" y2="720.493" stroke="black" stroke-width="3"/> 
  <line x1="545.125" y1="596.25" x2="545.125" y2="720.493" stroke="black" stroke-width="3"/> 
  <text x="549.5" y="840.75" font-size="15">20QUR20AC001</text>
  <g transform="scale(1.38 1.38 627 316.25) scale(0.720001 0.720001 627 210) rotate(0 622 201.25) rotate(270 412.288 437.863)">
    <g transform="rotate(90 1094.11 578.015)">
      <rect x="1084.67" y="1552.95" width="138.096" height="133.587" rx="0" ry="0" fill="Col_Grey4" stroke="black" stroke-width="3"/> 
      <line x1="1148.26" y1="1568.07" x2="1196.75" y2="1592.33" stroke="black" stroke-width="3"/> 
      <line x1="1101.98" y1="1648.22" x2="1150.46" y2="1672.47" stroke="black" stroke-width="3"/> 
      <line x1="1195.23" y1="1592.33" x2="1099.79" y2="1648.39" stroke="black" stroke-width="3"/> 
      <line x1="1149.44" y1="1671.87" x2="1149.44" y2="1686.87" stroke="black" stroke-width="3"/> 
      <line x1="1149.59" y1="1555" x2="1149.59" y2="1570" stroke="black" stroke-width="3"/> 
    </g>
  </g>
  <image x="499.25" y="605.5" width="70" height="65" xlink:href="DS_CO_valve.svg" transform="rotate(270 -6.10352e-005 -10) flipX(2.83682e-006)">
    <rt:dyn type="KKS" mode="constant" value="&quot;NULL&quot;"/> 
    <rt:dyn type="Drive" mode="constant" value="&quot;NONE&quot;"/> 
  </image>
  <text x="447" y="635.25" font-size="15">20PCB20<tspan x="447" dy="15">AA104</tspan>
  </text>
  <g transform="flipY(178.75) rotate(330 0 1.4013e-045) flipX(390.018) rotate(180 1212.44 532.643)">
    <polygon points="315.107,-259.754 328.487,-252.11 328.487,-267.397 315.107,-259.754" fill="black" stroke="black" stroke-width="1" transform="rotate(180 1279.17 367.814)"/> 
  </g>
  <text x="502.75" y="558" font-size="15">В систему<tspan x="502.75" dy="15">охл. воды</tspan>
  </text>
  <image x="634.5" y="605.5" width="70" height="65" xlink:href="DS_CO_valve.svg" transform="rotate(270 -6.10352e-005 -10) flipX(2.83682e-006)">
    <rt:dyn type="KKS" mode="constant" value="&quot;NULL&quot;"/> 
    <rt:dyn type="Drive" mode="constant" value="&quot;NONE&quot;"/> 
  </image>
  <text x="567.25" y="638.75" font-size="15">20PCB20<tspan x="567.25" dy="15">AA103</tspan>
  </text>
  <g transform="flipY(588.503) flipY(178.75) rotate(330 0 1.4013e-045) flipX(390.018) rotate(180 1212.44 532.643)">
    <polygon points="199.895,-190.059 213.275,-182.415 213.275,-197.702 199.895,-190.059" fill="black" stroke="black" stroke-width="1" transform="rotate(180 1279.17 367.814)"/> 
  </g>
  <text x="626" y="558" font-size="15">Из системы<tspan x="626" dy="15">охл. воды</tspan>
  </text>
  <g>
    <polyline points="1325,335.47 1345,375.47 1305,375.47 1325,335.47" fill="Col_Grey4" stroke="black" stroke-width="1"/> 
    <circle cx="1325" cy="360.47" r="25" fill="none" stroke="black" stroke-width="1"/> 
  </g>
  <g>
    <polyline points="1325,745.47 1345,785.47 1305,785.47 1325,745.47" fill="Col_Grey4" stroke="black" stroke-width="1"/> 
    <circle cx="1325" cy="770.47" r="25" fill="none" stroke="black" stroke-width="1"/> 
  </g>
  <image x="1357" y="364" width="175" height="25" xlink:href="DS_ana_ASRK.svg">
    <title>&quot;20NDA10CR801B01&quot;</title>
    <rt:dyn type="IsExp" mode="constant" value="true"/> 
    <rt:dyn type="ShowFrame" mode="constant" value="true"/> 
    <rt:dyn type="Color_Readings" mode="constant" value="true"/> 
    <rt:dyn type="FKKS" mode="constant" value="&quot;20NDA10CR801B01&quot;"/> 
    <rt:dyn type="ValueToTheRight" mode="constant" value="false"/> 
    <rt:dyn type="SetBounds" mode="constant" value="true"/> 
    <rt:dyn type="Show_Map" mode="constant" value="false"/> 
    <rt:dyn type="X" mode="constant" value="&quot;A&quot;"/> 
  </image>
  <image x="1356" y="764" width="175" height="25" xlink:href="DS_ana_ASRK.svg">
    <title>&quot;20NDA10CR802B01&quot;</title>
    <rt:dyn type="IsExp" mode="constant" value="true"/> 
    <rt:dyn type="ShowFrame" mode="constant" value="true"/> 
    <rt:dyn type="Color_Readings" mode="constant" value="true"/> 
    <rt:dyn type="FKKS" mode="constant" value="&quot;20NDA10CR802B01&quot;"/> 
    <rt:dyn type="ValueToTheRight" mode="constant" value="false"/> 
    <rt:dyn type="SetBounds" mode="constant" value="true"/> 
    <rt:dyn type="Show_Map" mode="constant" value="false"/> 
    <rt:dyn type="X" mode="constant" value="&quot;A&quot;"/> 
  </image>
  <rect x="1355.75" y="736.167" width="163.25" height="20.833" rx="0" ry="0" fill="Col_BGItemSel"/> 
  <text x="1359.81" y="752.349" fill="black" font-size="18" font-weight="700" text-anchor="start">20NDA10CR802</text>
  <rect x="1355.75" y="327.667" width="169.25" height="22.333" rx="0" ry="0" fill="Col_BGItemSel"/> 
  <text x="1359.81" y="344.849" fill="black" font-size="18" text-anchor="start">20NDA10CR801</text>
</svg>
