<?xml  version="1.0" encoding="windows-1251"?>
<svg color="Col_BGSand" xmlns="http://www.w3.org/2000/svg" xmlns:rt="http://www.rts.co.at/2001/XMLSchema/RtSvgPL" xmlns:xlink="http://www.w3.org/1999/xlink" xmlns:xsi="http://www.w3.org/2001/XMLSchema-instance" xsi:schemaLocation="http://www.w3.org/2000/svg C:\RTS\RtSvg\XML\SVG.xsd" viewBox="0 0 1914 1000" width="1914" height="1000" id="asrk_uka_00">
  <title>РК в пристройке здания UKA oтм. 0.0</title>
  <rt:model modelversion="7.2.0.24" comment="UMod all_asrk&#10;LMod asrk_uja_81&#10;RMod asrk_uka_36" revision="3"/> 
  <line x1="1421.54" y1="632.454" x2="1361.06" y2="632.454" stroke="black" stroke-width="20"/> 
  <path d="M1413.86 865.384 A457 477.998 0 1 0 500.061 858.452 " fill="none" stroke="black" stroke-width="20"/> 
  <line x1="1272.75" y1="519.889" x2="1328.73" y2="458.454" stroke="black" stroke-width="10"/> 
  <line x1="640.061" y1="521.454" x2="594.061" y2="459.454" stroke="black" stroke-width="10"/> 
  <line x1="500.06" y1="853.603" x2="499.394" y2="915.788" stroke="black" stroke-width="20"/> 
  <line x1="508.728" y1="905.455" x2="331.394" y2="905.455" stroke="black" stroke-width="20"/> 
  <line x1="268.061" y1="915.788" x2="268.061" y2="573.121" stroke="black" stroke-width="10"/> 
  <line x1="270.515" y1="168.697" x2="268.061" y2="547.787" stroke="black" stroke-width="10"/> 
  <line x1="636.728" y1="174.454" x2="274.061" y2="174.454" stroke="black" stroke-width="10"/> 
  <line x1="1350.06" y1="176.454" x2="619.127" y2="176.454" stroke="black" stroke-width="15"/> 
  <line x1="1643.06" y1="174.454" x2="1343.06" y2="174.454" stroke="black" stroke-width="10"/> 
  <line x1="1414.06" y1="860.454" x2="1413.06" y2="903.455" stroke="black" stroke-width="20"/> 
  <g transform="rotate(90 1320.67 236.333)">
    <line x1="1260.29" y1="213.941" x2="1260.28" y2="198.941" stroke="black" stroke-width="8"/> 
    <line x1="1260.3" y1="257.163" x2="1260.29" y2="245.69" stroke="black" stroke-width="8"/> 
    <line x1="1256.04" y1="249.94" x2="1256.04" y2="208.941" stroke="black" stroke-width="1"/> 
    <line x1="1264.79" y1="250.44" x2="1264.79" y2="208.941" stroke="black" stroke-width="1"/> 
  </g>
  <path d="M1385.11 919.993 A427 488 0 1 0 532.748 915.123 " fill="none" stroke="black" stroke-width="3"/> 
  <line x1="1590.47" y1="905.88" x2="1403.47" y2="904.455" stroke="black" stroke-width="20"/> 
  <line x1="554.541" y1="639.454" x2="494.061" y2="639.454" stroke="black" stroke-width="20"/> 
  <rect x="383.061" y="456.121" width="227" height="17" rx="0" ry="0"/> 
  <rect x="382.728" y="456.454" width="11.3333" height="82" rx="0" ry="0"/> 
  <rect x="335.394" y="523.454" width="58.6667" height="16.3333" rx="0" ry="0"/> 
  <rect x="329.061" y="523.787" width="16" height="389.333" rx="0" ry="0"/> 
  <line x1="600.728" y1="470.454" x2="648.728" y2="421.121" stroke="black" stroke-width="10"/> 
  <rect x="626.394" y="407.121" width="138.333" height="19.3334" rx="0" ry="0"/> 
  <rect x="724.061" y="369.787" width="12.6667" height="48.6666" rx="0" ry="0"/> 
  <rect x="624.728" y="204.787" width="18.6666" height="221.333" rx="0" ry="0"/> 
  <rect x="639.394" y="213.454" width="77.3336" height="19" rx="0" ry="0"/> 
  <rect x="689.394" y="214.454" width="13.3333" height="170.667" rx="0" ry="0"/> 
  <rect x="380.728" y="231.787" width="10.6667" height="128" rx="0" ry="0"/> 
  <rect x="381.061" y="231.787" width="137" height="11.6667" rx="0" ry="0"/> 
  <rect x="534.061" y="231.787" width="107.667" height="12.3334" rx="0" ry="0"/> 
  <rect x="332.061" y="349.454" width="59.3333" height="10.3333" rx="0" ry="0"/> 
  <rect x="328.728" y="327.787" width="11" height="205.333" rx="0" ry="0"/> 
  <g>
    <rect x="300.728" y="343.787" width="4.83334" height="77.6667" rx="0" ry="0"/> 
    <line x1="274.261" y1="390.454" x2="331.061" y2="390.854" stroke="black"/> 
    <line x1="273.861" y1="395.254" x2="331.061" y2="395.854" stroke="black"/> 
    <line x1="274.261" y1="401.454" x2="331.061" y2="401.854" stroke="black"/> 
    <line x1="273.861" y1="406.254" x2="331.061" y2="406.854" stroke="black"/> 
    <line x1="272.066" y1="410.354" x2="331.061" y2="410.954" stroke="black"/> 
    <line x1="273.466" y1="415.554" x2="331.061" y2="415.954" stroke="black"/> 
    <line x1="273.066" y1="421.354" x2="331.061" y2="421.954" stroke="black"/> 
  </g>
  <g transform="rotate(90 277.333 433.333)">
    <rect x="341.452" y="404.605" width="3.16667" height="33.5" rx="0" ry="0"/> 
    <rect x="376.119" y="405.313" width="2.33328" height="31.7919" rx="0" ry="0"/> 
    <line x1="376.452" y1="405.605" x2="342.952" y2="437.105" stroke="black"/> 
    <line x1="377.119" y1="435.685" x2="343.952" y2="406.605" stroke="black"/> 
  </g>
  <rect x="268.561" y="530.454" width="64.8333" height="10.3334" rx="0" ry="0"/> 
  <rect x="302.728" y="500.121" width="3.16667" height="33.5" rx="0" ry="0"/> 
  <rect x="301.728" y="464.787" width="34.6667" height="5.33328" rx="0" ry="0"/> 
  <g transform="rotate(90 277.333 433.333)">
    <rect x="138.786" y="378.98" width="5.6663" height="60.9585" rx="0" ry="0"/> 
    <line x1="142.119" y1="378.272" x2="87.7857" y2="435.272" stroke="black"/> 
    <line x1="138.452" y1="436.605" x2="86.4523" y2="380.605" stroke="black"/> 
  </g>
  <rect x="330.061" y="229.121" width="5.33334" height="73.3333" rx="0" ry="0"/> 
  <rect x="266.061" y="239.121" width="25.3333" height="5.33333" rx="0" ry="0"/> 
  <rect x="315.394" y="238.787" width="18.6666" height="5" rx="0" ry="0"/> 
  <rect x="330.061" y="177.121" width="5.33337" height="20.3333" rx="0" ry="0"/> 
  <rect x="782.061" y="214.454" width="9.99996" height="190" rx="0" ry="0"/> 
  <rect x="744.728" y="287.787" width="44.6667" height="10.3333" rx="0" ry="0"/> 
  <rect x="741.728" y="216.787" width="10.6667" height="81.3333" rx="0" ry="0"/> 
  <rect x="772.061" y="213.121" width="30.0001" height="17.3333" rx="0" ry="0"/> 
  <rect x="822.394" y="211.787" width="24.0001" height="18.6666" rx="0" ry="0"/> 
  <rect x="836.728" y="211.787" width="10.6667" height="178.667" rx="0" ry="0"/> 
  <rect x="836.728" y="309.121" width="160" height="12" rx="0" ry="0"/> 
  <rect x="929.395" y="211.787" width="127.333" height="14.6666" rx="0" ry="0"/> 
  <rect x="1011.4" y="281.121" width="18" height="93.9999" rx="0" ry="0"/> 
  <rect x="867.394" y="214.454" width="37.3333" height="11" rx="0" ry="0"/> 
  <rect x="870.061" y="255.787" width="63.9999" height="11" rx="0.333328" ry="0.333328"/> 
  <rect x="867.728" y="218.454" width="9.00018" height="48" rx="0" ry="0"/> 
  <rect x="929.062" y="218.121" width="9.00018" height="48" rx="0" ry="0"/> 
  <rect x="986.062" y="278.121" width="61.3333" height="12.3333" rx="0" ry="0"/> 
  <rect x="1040.73" y="220.787" width="10.6667" height="69.3333" rx="0" ry="0"/> 
  <rect x="1132.73" y="280.454" width="50.6667" height="12.3333" rx="0" ry="0"/> 
  <rect x="1028.73" y="369.121" width="58.6667" height="16.3333" rx="0" ry="0"/> 
  <rect x="1076.73" y="214.454" width="10.6669" height="169.667" rx="0" ry="0"/> 
  <rect x="1131.39" y="218.454" width="9.66678" height="186" rx="0" ry="0"/> 
  <rect x="1206.06" y="212.454" width="87" height="16" rx="0" ry="0"/> 
  <rect x="1124.39" y="211.454" width="25.6667" height="16.6667" rx="0" ry="0"/> 
  <rect x="1075.39" y="211.787" width="22.6667" height="16" rx="0" ry="0"/> 
  <rect x="1175.39" y="213.121" width="7.66663" height="73.3333" rx="0" ry="0"/> 
  <rect x="1220.06" y="218.454" width="10.6669" height="169.667" rx="0" ry="0"/> 
  <rect x="1278.39" y="212.454" width="17.0004" height="215.333" rx="0" ry="0"/> 
  <rect x="1142.06" y="403.787" width="149.667" height="20.6667" rx="0" ry="0"/> 
  <rect x="1181.06" y="370.454" width="14.3333" height="70.6667" rx="0" ry="0"/> 
  <line x1="1317.41" y1="466.1" x2="1276.73" y2="419.787" stroke="black" stroke-width="10"/> 
  <rect x="1311.39" y="451.787" width="225.667" height="18" rx="0" ry="0"/> 
  <rect x="1523.39" y="451.787" width="14.3333" height="70.6667" rx="0" ry="0"/> 
  <rect x="1523.06" y="512.787" width="64.3334" height="16.3334" rx="0" ry="0"/> 
  <rect x="1283.06" y="229.787" width="104" height="12" rx="0" ry="0"/> 
  <rect x="1404.73" y="229.787" width="136" height="12" rx="0" ry="0"/> 
  <rect x="1533.39" y="229.454" width="7.3335" height="125" rx="0" ry="0"/> 
  <rect x="1535.39" y="342.454" width="50.6667" height="12.3333" rx="0" ry="0"/> 
  <rect x="1583.39" y="323.454" width="7.99988" height="205.667" rx="0" ry="0"/> 
  <g transform="flipX(1594.67)">
    <g transform="rotate(90 277.333 433.333)">
      <rect x="134.786" y="-893.897" width="5.6663" height="60.9585" rx="0" ry="0"/> 
      <line x1="138.119" y1="-894.605" x2="83.7853" y2="-837.605" stroke="black"/> 
      <line x1="134.452" y1="-836.272" x2="82.452" y2="-892.272" stroke="black"/> 
    </g>
    <rect x="1602.94" y="225.121" width="5.33334" height="73.3333" rx="0" ry="0"/> 
    <rect x="1538.94" y="235.121" width="25.3333" height="5.33333" rx="0" ry="0"/> 
    <rect x="1588.27" y="234.787" width="18.6666" height="5" rx="0" ry="0"/> 
  </g>
  <rect x="1642.39" y="169.121" width="9" height="140" rx="0" ry="0"/> 
  <rect x="1642.73" y="327.787" width="8.66675" height="209.333" rx="0" ry="0"/> 
  <rect x="1642.39" y="564.121" width="9" height="349" rx="0" ry="0"/> 
  <rect x="1624.39" y="900.455" width="25.3333" height="5.33333" rx="0" ry="0"/> 
  <rect x="1579.39" y="900.455" width="25.3333" height="5.33333" rx="0" ry="0"/> 
  <rect x="1579.39" y="515.787" width="12.3339" height="388" rx="0" ry="0"/> 
  <rect x="1590.39" y="517.121" width="58.3335" height="12" rx="0" ry="0"/> 
  <g transform="flipX(1610.67)">
    <g transform="rotate(90 277.333 433.333)">
      <rect x="330.119" y="-900.272" width="3.16667" height="33.5" rx="0" ry="0"/> 
      <rect x="364.786" y="-899.564" width="2.33328" height="31.7919" rx="0" ry="0"/> 
      <line x1="365.119" y1="-899.272" x2="331.619" y2="-867.772" stroke="black"/> 
      <line x1="365.786" y1="-869.192" x2="332.619" y2="-898.272" stroke="black"/> 
    </g>
    <rect x="1607.61" y="488.788" width="3.16667" height="33.5" rx="0" ry="0"/> 
  </g>
  <rect x="1588.73" y="679.454" width="54.6669" height="6.66663" rx="0" ry="0"/> 
  <rect x="1589.06" y="845.454" width="23.6669" height="6.33337" rx="0" ry="0"/> 
  <rect x="1630.06" y="845.121" width="19.667" height="6.66668" rx="0" ry="0"/> 
  <rect x="1581.73" y="568.12" width="23.6669" height="6.33337" rx="0" ry="0"/> 
  <rect x="1626.73" y="567.787" width="19.667" height="6.66668" rx="0" ry="0"/> 
  <g>
    <rect x="1614.06" y="348.12" width="4.83334" height="77.6667" rx="0" ry="0"/> 
    <line x1="1587.59" y1="394.787" x2="1644.39" y2="395.188" stroke="black"/> 
    <line x1="1587.19" y1="399.587" x2="1644.39" y2="400.188" stroke="black"/> 
    <line x1="1587.59" y1="405.787" x2="1644.39" y2="406.188" stroke="black"/> 
    <line x1="1587.19" y1="410.587" x2="1644.39" y2="411.188" stroke="black"/> 
    <line x1="1585.4" y1="414.688" x2="1644.39" y2="415.287" stroke="black"/> 
    <line x1="1586.8" y1="419.887" x2="1644.39" y2="420.287" stroke="black"/> 
    <line x1="1586.4" y1="425.688" x2="1644.39" y2="426.287" stroke="black"/> 
  </g>
  <rect x="1586.06" y="455.787" width="34.6667" height="5.33328" rx="0" ry="0"/> 
  <g>
    <line x1="292.228" y1="667.954" x2="318.228" y2="667.954" stroke="black"/> 
    <line x1="318.228" y1="617.354" x2="318.228" y2="667.954" stroke="black"/> 
    <line x1="293.228" y1="617.954" x2="318.028" y2="618.154" stroke="black"/> 
    <line x1="293.228" y1="667.954" x2="293.228" y2="617.954" stroke="black"/> 
    <rect x="303.828" y="628.154" width="2.65002" height="29.8" rx="0" ry="0"/> 
    <line x1="292.978" y1="627.704" x2="318.228" y2="627.954" stroke="black"/> 
    <line x1="293.228" y1="633.204" x2="318.228" y2="632.954" stroke="black"/> 
    <line x1="293.228" y1="637.954" x2="318.228" y2="637.954" stroke="black"/> 
    <line x1="293.228" y1="642.954" x2="318.228" y2="642.954" stroke="black"/> 
    <line x1="293.228" y1="647.954" x2="318.228" y2="647.954" stroke="black"/> 
    <line x1="292.978" y1="652.954" x2="318.228" y2="652.954" stroke="black"/> 
    <line x1="292.978" y1="657.954" x2="318.228" y2="657.954" stroke="black"/> 
  </g>
  <g>
    <line x1="1601.23" y1="654.621" x2="1627.23" y2="654.621" stroke="black"/> 
    <line x1="1627.23" y1="604.021" x2="1627.23" y2="654.621" stroke="black"/> 
    <line x1="1602.23" y1="604.621" x2="1627.03" y2="604.821" stroke="black"/> 
    <line x1="1602.23" y1="654.621" x2="1602.23" y2="604.621" stroke="black"/> 
    <rect x="1612.83" y="614.821" width="2.65002" height="29.8" rx="0" ry="0"/> 
    <line x1="1601.98" y1="614.371" x2="1627.23" y2="614.621" stroke="black"/> 
    <line x1="1602.23" y1="619.871" x2="1627.23" y2="619.621" stroke="black"/> 
    <line x1="1602.23" y1="624.621" x2="1627.23" y2="624.621" stroke="black"/> 
    <line x1="1602.23" y1="629.621" x2="1627.23" y2="629.621" stroke="black"/> 
    <line x1="1602.23" y1="634.621" x2="1627.23" y2="634.621" stroke="black"/> 
    <line x1="1601.98" y1="639.621" x2="1627.23" y2="639.621" stroke="black"/> 
    <line x1="1601.98" y1="644.621" x2="1627.23" y2="644.621" stroke="black"/> 
  </g>
  <rect x="308.394" y="910.455" width="25.3333" height="5.33333" rx="0" ry="0"/> 
  <rect x="263.394" y="910.455" width="25.3333" height="5.33333" rx="0" ry="0"/> 
  <rect x="270.734" y="698.454" width="61.9934" height="6.66644" rx="0" ry="0"/> 
  <rect x="306.064" y="864.454" width="23.6669" height="6.33337" rx="0" ry="0"/> 
  <rect x="268.064" y="864.121" width="19.667" height="6.66668" rx="0" ry="0"/> 
  <rect x="265.734" y="587.12" width="23.6669" height="6.33337" rx="0" ry="0"/> 
  <rect x="310.734" y="586.787" width="19.667" height="6.66668" rx="0" ry="0"/> 
  <circle cx="944.157" cy="202.474" r="8.57141" fill="black" stroke="black" stroke-width="3"/> 
  <line x1="941.848" y1="200" x2="941.848" y2="150" stroke="black"/> 
  <text x="1088.82" y="286.364" fill="black" font-size="15" text-anchor="start">КИП<tspan x="1088.82" dy="15">СГО</tspan>
  </text>
  <text x="869.121" y="356.06" font-size="15">20UKA40R008</text>
  <text x="1034.27" y="350" fill="black" font-size="15" text-anchor="start">КИП<tspan x="1034.27" dy="15">СГО</tspan>
  </text>
  <text x="795.879" y="331.818" fill="black" font-size="15" text-anchor="start">КИП<tspan x="795.879" dy="15">СГО</tspan>
  </text>
  <text x="646.394" y="294.939" fill="black" font-size="15" text-anchor="start">пом.<tspan x="646.394" dy="15">СГО</tspan>
  </text>
  <text x="1238.82" y="294.939" fill="black" font-size="15" text-anchor="start">пом.<tspan x="1238.82" dy="15">СГО</tspan>
  </text>
  <text x="888.818" y="337.879" fill="black" font-size="15" text-anchor="start">пом.СГО</text>
  <text x="713.061" y="316.667" fill="black" font-size="15" text-anchor="start">пом.<tspan x="713.061" dy="15">газо-</tspan>
<tspan x="713.061" dy="15">дувок</tspan>
  </text>
  <text x="950.939" y="240.909" fill="black" font-size="15" text-anchor="start">пом.<tspan x="950.939" dy="15">газо-</tspan>
<tspan x="950.939" dy="15">дувок</tspan>
  </text>
  <text x="1150.94" y="315.152" fill="black" font-size="15" text-anchor="start">пом.<tspan x="1150.94" dy="15">газо-</tspan>
<tspan x="1150.94" dy="15">дувок</tspan>
  </text>
  <text x="987.326" y="47.6362" fill="black" font-size="30" font-weight="700" text-anchor="middle">Радиационный контроль в пристройке здания UKA oтм. 0.0</text>
  <text x="450.939" y="215.152" fill="black" font-size="15" text-anchor="start">20UKA10R003</text>
  <text x="285.788" y="212.121" fill="black" font-size="15" text-anchor="start">R001</text>
  <text x="423.667" y="330.303" fill="black" font-size="15" text-anchor="start">20UKA10R018</text>
  <text x="284.273" y="322.727" fill="black" font-size="15" text-anchor="start">R002</text>
  <text x="631.697" y="460.606" fill="black" font-size="15" text-anchor="start">R501</text>
  <text x="647.909" y="398.485" fill="black" font-size="15" text-anchor="start">R004</text>
  <text x="882.757" y="246.97" fill="black" font-size="15" text-anchor="start">R007</text>
  <text x="1031.24" y="321.212" fill="black" font-size="15" text-anchor="start">R010</text>
  <text x="1088.82" y="348.485" fill="black" font-size="15" text-anchor="start">R011</text>
  <text x="1234.27" y="334.849" fill="black" font-size="15" text-anchor="start">R013</text>
  <text x="1239.73" y="460.606" fill="black" font-size="15" text-anchor="start">R802</text>
  <text x="1402.45" y="210.606" fill="black" font-size="15" text-anchor="start">20UKA10R015</text>
  <text x="1391.85" y="324.242" fill="black" font-size="15" text-anchor="start">20UKA10R019</text>
  <text x="1593.36" y="207.576" fill="black" font-size="15" text-anchor="start">R016</text>
  <text x="1593.36" y="318.182" fill="black" font-size="15" text-anchor="start">R017</text>
  <text x="1594.88" y="753.03" fill="black" font-size="15" text-anchor="start">R024</text>
  <text x="1594.88" y="880.303" fill="black" font-size="15" text-anchor="start">R023</text>
  <text x="278.212" y="796.969" fill="black" font-size="15" text-anchor="start">R003</text>
  <text x="281.242" y="895.454" fill="black" font-size="15" text-anchor="start">R004</text>
  <image x="1747.91" y="912.121" width="75" height="25" xlink:href="obj_link.svg" transform="rotate(0 37.3619 12.5)">
    <rt:dyn type="TextStr" mode="constant" value="&quot;PK&quot;"/> 
    <rt:event type="OnClick"/> 
    <rt:dyn type="ModName" mode="constant" value="&quot;all_asrk&quot;"/> 
  </image>
  <g>
    <rect x="896.25" y="127.75" width="175" height="25" rx="0" ry="0" fill="Col_Grey3" stroke="black" stroke-width="1"/> 
    <text x="900" y="144.625" font-size="15">Измеряется по месту</text>
  </g>
  <rect x="906.751" y="105.852" width="139.394" height="21.2122" rx="0" ry="0" fill="Col_BGItemSel"/> 
  <text x="905.448" y="122.61" fill="black" font-size="18" text-anchor="start">20UKA10CR101</text>
  <text x="75" y="30.5" fill="black" font-size="15" font-weight="700" text-anchor="middle">
    <title>Схема КИП насосов охлаждения бассейна выдержки</title>
ASRK_UKA_00</text>
</svg>
