<?xml  version="1.0" encoding="windows-1251"?>
<svg color="Col_BGSand" xmlns="http://www.w3.org/2000/svg" xmlns:rt="http://www.rts.co.at/2001/XMLSchema/RtSvgPL" xmlns:xlink="http://www.w3.org/1999/xlink" xmlns:xsi="http://www.w3.org/2001/XMLSchema-instance" xsi:schemaLocation="http://www.w3.org/2000/svg C:\RTS\RtSvg\XML\SVG.xsd" viewBox="0 0 1914 1000" width="1914" height="1000" id="echsz7">
  <title>ЭЧСЗ7</title>
  <rt:model modelversion="7.2.0.24" comment="UMod all_echsz" revision="3"/> 
  <line x1="1791.09" y1="454.545" x2="1791.09" y2="454.545" stroke="black"/> 
  <line x1="823.667" y1="727.273" x2="823.667" y2="727.273" stroke="black"/> 
  <text x="888.411" y="50.6061" fill="black" font-size="30" font-weight="700" text-anchor="middle">ЭЧСЗ7</text>
  <line x1="909.091" y1="187.121" x2="909.091" y2="187.121" stroke="black"/> 
  <line x1="751" y1="827" x2="751" y2="827" stroke="black"/> 
  <line x1="307.576" y1="706.818" x2="307.576" y2="706.818" stroke="black"/> 
  <line x1="385" y1="401" x2="385" y2="401" stroke="black"/> 
  <line x1="306" y1="346" x2="306" y2="346" stroke="black"/> 
  <line x1="380.303" y1="596.212" x2="380.303" y2="596.212" stroke="black"/> 
  <line x1="487" y1="347" x2="487" y2="347" stroke="black"/> 
  <text x="490.75" y="186.25" fill="black" font-size="15" text-anchor="middle">20MAX50EZ011   защита от повышения частоты вращения ротора (1 канал) (воздействие на ЭВМ №1)</text>
  <image x="1763.25" y="350.125" width="25" height="25" xlink:href="bin_indicator.svg">
    <title>&quot;20MAX50EZ012_ZV01&quot;</title>
    <rt:dyn type="PointID" mode="constant" value="&quot;20MAX50EZ012_ZV01&quot;"/> 
  </image>
  <image x="437.255" y="228.458" width="25" height="25" xlink:href="bin_indicator.svg">
    <title>&quot;20MAX50CS001_XH03&quot;</title>
    <rt:dyn type="PointID" mode="constant" value="&quot;20MAX50CS001_XH03&quot;"/> 
  </image>
  <image x="242.962" y="228.458" width="175" height="25" xlink:href="DS_ana.svg">
    <title>&quot;20MAX50CS001&quot;</title>
    <rt:dyn type="FKKS" mode="constant" value="&quot;20MAX50CS001&quot;"/> 
    <rt:dyn type="X" mode="constant" value="&quot;&quot;"/> 
    <rt:dyn type="ShowFrame" mode="constant" value="true"/> 
    <rt:dyn type="Color_Readings" mode="constant" value="true"/> 
    <rt:dyn type="ValueToTheRight" mode="constant" value="false"/> 
  </image>
  <text x="99.7502" y="245.958" fill="black" font-size="15">20MAX50CS001</text>
  <text x="490.75" y="305" fill="black" font-size="15" text-anchor="middle">20MAX50EZ012   защита от повышения частоты вращения ротора (2 канал) (воздействие на ЭВМ №2)</text>
  <image x="1763.25" y="228.458" width="25" height="25" xlink:href="bin_indicator.svg">
    <title>&quot;20MAX50EZ011_ZV01&quot;</title>
    <rt:dyn type="PointID" mode="constant" value="&quot;20MAX50EZ011_ZV01&quot;"/> 
  </image>
  <image x="437.255" y="350.125" width="25" height="25" xlink:href="bin_indicator.svg">
    <title>&quot;20MAX50CS002_XH03&quot;</title>
    <rt:dyn type="PointID" mode="constant" value="&quot;20MAX50CS002_XH03&quot;"/> 
  </image>
  <image x="242.962" y="350.125" width="175" height="25" xlink:href="DS_ana.svg">
    <title>&quot;20MAX50CS002&quot;</title>
    <rt:dyn type="FKKS" mode="constant" value="&quot;20MAX50CS002&quot;"/> 
    <rt:dyn type="X" mode="constant" value="&quot;&quot;"/> 
    <rt:dyn type="ShowFrame" mode="constant" value="true"/> 
    <rt:dyn type="Color_Readings" mode="constant" value="true"/> 
    <rt:dyn type="ValueToTheRight" mode="constant" value="false"/> 
  </image>
  <text x="97" y="367.625" fill="black" font-size="15">20MAX50CS002</text>
  <text x="490.75" y="418.561" fill="black" font-size="15" text-anchor="middle">20MAX50EZ013   защита от повышения частоты вращения ротора (3 канал) (воздействие на ЭВМ №3)</text>
  <image x="1763.25" y="472.606" width="25" height="25" xlink:href="bin_indicator.svg">
    <title>&quot;20MAX50EZ013_ZV01&quot;</title>
    <rt:dyn type="PointID" mode="constant" value="&quot;20MAX50EZ013_ZV01&quot;"/> 
  </image>
  <image x="437.255" y="472.606" width="25" height="25" xlink:href="bin_indicator.svg">
    <title>&quot;20MAX50CS003_XH03&quot;</title>
    <rt:dyn type="PointID" mode="constant" value="&quot;20MAX50CS003_XH03&quot;"/> 
  </image>
  <image x="242.962" y="472.606" width="175" height="25" xlink:href="DS_ana.svg">
    <title>&quot;20MAX50CS003&quot;</title>
    <rt:dyn type="FKKS" mode="constant" value="&quot;20MAX50CS003&quot;"/> 
    <rt:dyn type="X" mode="constant" value="&quot;&quot;"/> 
    <rt:dyn type="ShowFrame" mode="constant" value="true"/> 
    <rt:dyn type="Color_Readings" mode="constant" value="true"/> 
    <rt:dyn type="ValueToTheRight" mode="constant" value="false"/> 
  </image>
  <text x="99.7501" y="490.106" fill="black" font-size="15">20MAX50CS003</text>
  <text x="490.75" y="545" fill="black" font-size="15" text-anchor="middle">20MAX50EZ014   защита от повышения частоты вращения ротора (4 канал) (воздействие на ЭВМ №1)</text>
  <image x="1763.25" y="596.382" width="25" height="25" xlink:href="bin_indicator.svg">
    <title>&quot;20MAX50EZ014_ZV01&quot;</title>
    <rt:dyn type="PointID" mode="constant" value="&quot;20MAX50EZ014_ZV01&quot;"/> 
  </image>
  <image x="437.255" y="596.382" width="25" height="25" xlink:href="bin_indicator.svg">
    <title>&quot;20MAX50CS004_XH03&quot;</title>
    <rt:dyn type="PointID" mode="constant" value="&quot;20MAX50CS004_XH03&quot;"/> 
  </image>
  <image x="242.962" y="596.382" width="175" height="25" xlink:href="DS_ana.svg">
    <title>&quot;20MAX50CS004&quot;</title>
    <rt:dyn type="FKKS" mode="constant" value="&quot;20MAX50CS004&quot;"/> 
    <rt:dyn type="X" mode="constant" value="&quot;&quot;"/> 
    <rt:dyn type="ShowFrame" mode="constant" value="true"/> 
    <rt:dyn type="Color_Readings" mode="constant" value="true"/> 
    <rt:dyn type="ValueToTheRight" mode="constant" value="false"/> 
  </image>
  <text x="99.7501" y="613.882" fill="black" font-size="15">20MAX50CS004</text>
  <text x="490.75" y="672.5" fill="black" font-size="15" text-anchor="middle">20MAX50EZ015   защита от повышения частоты вращения ротора (5 канал) (воздействие на ЭВМ №2)</text>
  <image x="1763.25" y="719.011" width="25" height="25" xlink:href="bin_indicator.svg">
    <title>&quot;20MAX50EZ015_ZV01&quot;</title>
    <rt:dyn type="PointID" mode="constant" value="&quot;20MAX50EZ015_ZV01&quot;"/> 
  </image>
  <image x="437.255" y="719.011" width="25" height="25" xlink:href="bin_indicator.svg">
    <title>&quot;20MAX50CS005_XH03&quot;</title>
    <rt:dyn type="PointID" mode="constant" value="&quot;20MAX50CS005_XH03&quot;"/> 
  </image>
  <image x="242.962" y="719.011" width="175" height="25" xlink:href="DS_ana.svg">
    <title>&quot;20MAX50CS005&quot;</title>
    <rt:dyn type="FKKS" mode="constant" value="&quot;20MAX50CS005&quot;"/> 
    <rt:dyn type="X" mode="constant" value="&quot;&quot;"/> 
    <rt:dyn type="ShowFrame" mode="constant" value="true"/> 
    <rt:dyn type="Color_Readings" mode="constant" value="true"/> 
    <rt:dyn type="ValueToTheRight" mode="constant" value="false"/> 
  </image>
  <text x="99.7502" y="736.511" fill="black" font-size="15">20MAX50CS005</text>
  <text x="490.75" y="797.5" fill="black" font-size="15" text-anchor="middle">20MAX50EZ016   защита от повышения частоты вращения ротора (6 канал) (воздействие на ЭВМ №3)</text>
  <image x="1763.25" y="841.413" width="25" height="25" xlink:href="bin_indicator.svg">
    <title>&quot;20MAX50EZ016_ZV01&quot;</title>
    <rt:dyn type="PointID" mode="constant" value="&quot;20MAX50EZ016_ZV01&quot;"/> 
  </image>
  <image x="437.255" y="841.413" width="25" height="25" xlink:href="bin_indicator.svg">
    <title>&quot;20MAX50CS006_XH03&quot;</title>
    <rt:dyn type="PointID" mode="constant" value="&quot;20MAX50CS006_XH03&quot;"/> 
  </image>
  <image x="242.962" y="841.413" width="175" height="25" xlink:href="DS_ana.svg">
    <title>&quot;20MAX50CS006&quot;</title>
    <rt:dyn type="FKKS" mode="constant" value="&quot;20MAX50CS006&quot;"/> 
    <rt:dyn type="X" mode="constant" value="&quot;&quot;"/> 
    <rt:dyn type="ShowFrame" mode="constant" value="true"/> 
    <rt:dyn type="Color_Readings" mode="constant" value="true"/> 
    <rt:dyn type="ValueToTheRight" mode="constant" value="false"/> 
  </image>
  <text x="99.7501" y="858.913" fill="black" font-size="15">20MAX50CS006</text>
  <rect x="9.50004" y="98.25" width="1900" height="791.75" rx="0" ry="0" fill="none" stroke="black" stroke-width="3"/> 
  <text x="33.6251" y="128.5" fill="black" font-size="15" text-anchor="middle">№</text>
  <text x="419.5" y="127.875" fill="black" font-size="15" text-anchor="middle">Показания датчиков</text>
  <line x1="57" y1="99.5" x2="57" y2="891.25" stroke="black"/> 
  <text x="28.6251" y="183.25" fill="black" font-size="15">1</text>
  <text x="1798.25" y="128.5" fill="black" font-size="15" text-anchor="middle">Защита сработала</text>
  <text x="28.25" y="298.75" fill="black" font-size="15">2</text>
  <text x="25.75" y="421.25" fill="black" font-size="15">3</text>
  <line x1="9.00002" y1="152" x2="1907" y2="152" stroke="black"/> 
  <text x="895.625" y="127.875" fill="black" font-size="15" text-anchor="middle">Уставка авт.ввода защ.</text>
  <text x="1124.25" y="128.5" fill="black" font-size="15" text-anchor="middle">Сработал 1 из датчиков</text>
  <text x="1345.88" y="127.875" fill="black" font-size="15" text-anchor="middle">Накладка</text>
  <text x="1577" y="127.875" fill="black" font-size="15" text-anchor="middle">Защита на сигнал</text>
  <line x1="56" y1="205" x2="1909.25" y2="205" stroke="black"/> 
  <line x1="782.5" y1="97.0001" x2="782.5" y2="153.25" stroke="black"/> 
  <line x1="1011" y1="95.75" x2="1011" y2="152" stroke="black"/> 
  <line x1="1243.75" y1="97.0001" x2="1243.75" y2="153.25" stroke="black"/> 
  <line x1="1469" y1="95.75" x2="1469" y2="152" stroke="black"/> 
  <line x1="1692.25" y1="95.75" x2="1692.25" y2="152" stroke="black"/> 
  <line x1="56" y1="328" x2="1906.25" y2="328" stroke="black"/> 
  <line x1="9.25006" y1="398" x2="1907.25" y2="398" stroke="black"/> 
  <line x1="10.7501" y1="275" x2="1908.75" y2="275" stroke="black"/> 
  <line x1="56.5001" y1="451" x2="1906.75" y2="451" stroke="black"/> 
  <text x="1802.75" y="245.958" fill="black" font-size="15">ZV01</text>
  <line x1="782.5" y1="206.25" x2="782.5" y2="277" stroke="black"/> 
  <line x1="1011" y1="206.25" x2="1011" y2="277" stroke="black"/> 
  <line x1="1243.75" y1="206.25" x2="1243.75" y2="277" stroke="black"/> 
  <line x1="1469" y1="206.25" x2="1469" y2="277" stroke="black"/> 
  <line x1="1692.25" y1="206.25" x2="1692.25" y2="277" stroke="black"/> 
  <line x1="11.5455" y1="521" x2="1909.55" y2="521" stroke="black"/> 
  <line x1="59.0304" y1="574" x2="1909.28" y2="574" stroke="black"/> 
  <line x1="11.5455" y1="644" x2="1909.55" y2="644" stroke="black"/> 
  <line x1="58.5455" y1="697" x2="1908.8" y2="697" stroke="black"/> 
  <line x1="10.0304" y1="767" x2="1908.03" y2="767" stroke="black"/> 
  <line x1="57" y1="820" x2="1907.25" y2="820" stroke="black"/> 
  <line x1="11.5455" y1="890" x2="1909.55" y2="890" stroke="black"/> 
  <text x="25.75" y="552.5" fill="black" font-size="15">4</text>
  <text x="23.25" y="676.25" fill="black" font-size="15">5</text>
  <text x="27" y="791.25" fill="black" font-size="15">6</text>
  <line x1="782.5" y1="330" x2="782.5" y2="400.75" stroke="black"/> 
  <line x1="1011" y1="330" x2="1011" y2="400.75" stroke="black"/> 
  <line x1="1243.75" y1="330" x2="1243.75" y2="400.75" stroke="black"/> 
  <line x1="1469" y1="330" x2="1469" y2="400.75" stroke="black"/> 
  <line x1="1692.25" y1="330" x2="1692.25" y2="400.75" stroke="black"/> 
  <line x1="782.5" y1="450" x2="782.5" y2="520.75" stroke="black"/> 
  <line x1="1011" y1="450" x2="1011" y2="520.75" stroke="black"/> 
  <line x1="1243.75" y1="450" x2="1243.75" y2="520.75" stroke="black"/> 
  <line x1="1469" y1="450" x2="1469" y2="520.75" stroke="black"/> 
  <line x1="1692.25" y1="450" x2="1692.25" y2="520.75" stroke="black"/> 
  <line x1="782.5" y1="573.75" x2="782.5" y2="644.5" stroke="black"/> 
  <line x1="782.5" y1="697.5" x2="782.5" y2="768.25" stroke="black"/> 
  <line x1="782.5" y1="817.5" x2="782.5" y2="888.25" stroke="black"/> 
  <line x1="1011" y1="574.25" x2="1011" y2="645" stroke="black"/> 
  <line x1="1011" y1="698" x2="1011" y2="768.75" stroke="black"/> 
  <line x1="1011" y1="818" x2="1011" y2="888.75" stroke="black"/> 
  <line x1="1243.75" y1="575.5" x2="1243.75" y2="646.25" stroke="black"/> 
  <line x1="1243.75" y1="699.25" x2="1243.75" y2="770" stroke="black"/> 
  <line x1="1243.75" y1="819.25" x2="1243.75" y2="890" stroke="black"/> 
  <line x1="1469" y1="575" x2="1469" y2="645.75" stroke="black"/> 
  <line x1="1469" y1="698.75" x2="1469" y2="769.5" stroke="black"/> 
  <line x1="1469" y1="818.75" x2="1469" y2="889.5" stroke="black"/> 
  <line x1="1692.25" y1="575" x2="1692.25" y2="645.75" stroke="black"/> 
  <line x1="1692.25" y1="698.75" x2="1692.25" y2="769.5" stroke="black"/> 
  <line x1="1692.25" y1="818.75" x2="1692.25" y2="889.5" stroke="black"/> 
  <text x="477.75" y="245.958" fill="black" font-size="15">&gt;3330 об/мин</text>
  <text x="477.75" y="367.625" fill="black" font-size="15">&gt;3330 об/мин</text>
  <text x="477.75" y="490.106" fill="black" font-size="15">&gt;3330 об/мин</text>
  <text x="477.75" y="613.882" fill="black" font-size="15">&gt;3330 об/мин</text>
  <text x="477.75" y="736.511" fill="black" font-size="15">&gt;3330 об/мин</text>
  <text x="477.75" y="858.913" fill="black" font-size="15">&gt;3330 об/мин</text>
  <text x="1802.75" y="367.625" fill="black" font-size="15">ZV01</text>
  <text x="1802.75" y="490.106" fill="black" font-size="15">ZV01</text>
  <text x="1802.75" y="613.882" fill="black" font-size="15">ZV01</text>
  <text x="1802.75" y="736.511" fill="black" font-size="15">ZV01</text>
  <text x="1802.75" y="858.913" fill="black" font-size="15">ZV01</text>
  <image x="1799.25" y="958.25" width="100" height="25" xlink:href="obj_Button.svg">
    <rt:dyn type="Label" mode="constant" value="&quot;ECHSZ8&quot;"/> 
    <rt:event type="OnClick">LoadNew(&quot;echsz8&quot;)</rt:event>
  </image>
  <image x="1690.5" y="958.25" width="100" height="25" xlink:href="obj_Button.svg">
    <rt:dyn type="Label" mode="constant" value="&quot;ECHSZ6&quot;"/> 
    <rt:event type="OnClick">LoadNew(&quot;echsz6&quot;)</rt:event>
  </image>
  <image x="1578" y="958.25" width="100" height="25" xlink:href="obj_Button.svg">
    <rt:dyn type="Label" mode="constant" value="&quot;ECHSZ_ALL&quot;"/> 
    <rt:event type="OnClick">LoadNew(&quot;all_echsz&quot;)</rt:event>
  </image>
  <text x="19" y="25.5" font-size="15" font-weight="700">ECHSZ7</text>
</svg>
