<?xml  version="1.0" encoding="windows-1251"?>
<svg color="Col_BGSand" xmlns="http://www.w3.org/2000/svg" xmlns:rt="http://www.rts.co.at/2001/XMLSchema/RtSvgPL" xmlns:xlink="http://www.w3.org/1999/xlink" xmlns:xsi="http://www.w3.org/2001/XMLSchema-instance" xsi:schemaLocation="http://www.w3.org/2000/svg C:\RTS\RtSvg\XML\SVG.xsd" viewBox="0 0 1914 1000" width="1914" height="1000" id="echsz6">
  <title>ЭЧСЗ6</title>
  <rt:model modelversion="7.2.0.24" comment="UMod all_echsz" revision="3"/> 
  <line x1="1791.09" y1="454.545" x2="1791.09" y2="454.545" stroke="black"/> 
  <line x1="823.667" y1="727.273" x2="823.667" y2="727.273" stroke="black"/> 
  <text x="888.411" y="47.6061" fill="black" font-size="30" font-weight="700" text-anchor="middle">ЭЧСЗ6</text>
  <line x1="909.091" y1="187.121" x2="909.091" y2="187.121" stroke="black"/> 
  <line x1="751" y1="827" x2="751" y2="827" stroke="black"/> 
  <line x1="307.576" y1="706.818" x2="307.576" y2="706.818" stroke="black"/> 
  <line x1="385" y1="401" x2="385" y2="401" stroke="black"/> 
  <line x1="306" y1="346" x2="306" y2="346" stroke="black"/> 
  <line x1="380.303" y1="596.212" x2="380.303" y2="596.212" stroke="black"/> 
  <line x1="487" y1="347" x2="487" y2="347" stroke="black"/> 
  <image x="388.106" y="189.208" width="25" height="25" xlink:href="bin_indicator.svg">
    <title>&quot;20MAY10EZ101_XG01&quot;</title>
    <rt:dyn type="PointID" mode="constant" value="&quot;20MAY10EZ101_XG01&quot;"/> 
  </image>
  <text x="296.606" y="149.5" fill="black" font-size="15" text-anchor="middle">20MAY10EZ101 отключение турбины по защитам ЭЧСР</text>
  <text x="253.856" y="206.708" fill="black" font-size="15">20MAY10EZ101</text>
  <text x="253.856" y="275.696" fill="black" font-size="15">20MAY10EK101</text>
  <text x="253.856" y="346.375" fill="black" font-size="15">20MAY10EK111</text>
  <image x="388.106" y="258.196" width="25" height="25" xlink:href="bin_indicator.svg">
    <title>&quot;20MAY10EK101_XG01&quot;</title>
    <rt:dyn type="PointID" mode="constant" value="&quot;20MAY10EK101_XG01&quot;"/> 
  </image>
  <image x="388.106" y="328.875" width="25" height="25" xlink:href="bin_indicator.svg">
    <title>&quot;20MAY10EK111_XG01&quot;</title>
    <rt:dyn type="PointID" mode="constant" value="&quot;20MAY10EK111_XG01&quot;"/> 
  </image>
  <image x="1759.75" y="258.196" width="25" height="25" xlink:href="bin_indicator.svg">
    <title>&quot;20MAY10EZ111_ZV01&quot;</title>
    <rt:dyn type="PointID" mode="constant" value="&quot;20MAY10EZ111_ZV01&quot;"/> 
  </image>
  <image x="629.431" y="189.208" width="25" height="25" xlink:href="bin_indicator.svg">
    <title>&quot;20MAY10EZ102_XG01&quot;</title>
    <rt:dyn type="PointID" mode="constant" value="&quot;20MAY10EZ102_XG01&quot;"/> 
  </image>
  <text x="493.078" y="206.708" fill="black" font-size="15">20MAY10EZ102</text>
  <text x="493.078" y="275.696" fill="black" font-size="15">20MAY10EK102</text>
  <text x="493.078" y="346.375" fill="black" font-size="15">20MAY10EK112</text>
  <image x="629.431" y="258.196" width="25" height="25" xlink:href="bin_indicator.svg">
    <title>&quot;20MAY10EK102_XG01&quot;</title>
    <rt:dyn type="PointID" mode="constant" value="&quot;20MAY10EK102_XG01&quot;"/> 
  </image>
  <image x="629.431" y="328.875" width="25" height="25" xlink:href="bin_indicator.svg">
    <title>&quot;20MAY10EK112_XG01&quot;</title>
    <rt:dyn type="PointID" mode="constant" value="&quot;20MAY10EK112_XG01&quot;"/> 
  </image>
  <image x="880.901" y="189.208" width="25" height="25" xlink:href="bin_indicator.svg">
    <title>&quot;20MAY10EZ103_XG01&quot;</title>
    <rt:dyn type="PointID" mode="constant" value="&quot;20MAY10EZ103_XG01&quot;"/> 
  </image>
  <text x="742" y="206.708" fill="black" font-size="15">20MAY10EZ103</text>
  <text x="742" y="275.697" fill="black" font-size="15">20MAY10EK103</text>
  <text x="742" y="346.375" fill="black" font-size="15">20MAY10EK113</text>
  <image x="880.901" y="258.196" width="25" height="25" xlink:href="bin_indicator.svg">
    <title>&quot;20MAY10EK103_XG01&quot;</title>
    <rt:dyn type="PointID" mode="constant" value="&quot;20MAY10EK103_XG01&quot;"/> 
  </image>
  <image x="880.901" y="328.875" width="25" height="25" xlink:href="bin_indicator.svg">
    <title>&quot;20MAY10EK113_XG01&quot;</title>
    <rt:dyn type="PointID" mode="constant" value="&quot;20MAY10EK113_XG01&quot;"/> 
  </image>
  <text x="289.106" y="403" fill="black" font-size="15" text-anchor="middle">20MAY80EZ011 отключение турбины по ключу с БЩУ</text>
  <text x="255.106" y="452.125" fill="black" font-size="15">20MAY80EY101</text>
  <image x="388.106" y="434.625" width="25" height="25" xlink:href="bin_indicator.svg">
    <title>&quot;20MAY80EY101_XG01&quot;</title>
    <rt:dyn type="PointID" mode="constant" value="&quot;20MAY80EY101_XG01&quot;"/> 
  </image>
  <image x="1759.75" y="434.624" width="25" height="25" xlink:href="bin_indicator.svg">
    <title>&quot;20MAY80EZ011_ZV01&quot;</title>
    <rt:dyn type="PointID" mode="constant" value="&quot;20MAY80EZ011_ZV01&quot;"/> 
  </image>
  <text x="493.078" y="452.125" fill="black" font-size="15">20MAY80EY102</text>
  <image x="629.431" y="434.625" width="25" height="25" xlink:href="bin_indicator.svg">
    <title>&quot;20MAY80EY102_XG01&quot;</title>
    <rt:dyn type="PointID" mode="constant" value="&quot;20MAY80EY102_XG01&quot;"/> 
  </image>
  <text x="742" y="452.125" fill="black" font-size="15">20MAY80EY103</text>
  <image x="880.901" y="434.625" width="25" height="25" xlink:href="bin_indicator.svg">
    <title>&quot;20MAY80EY103_XG01&quot;</title>
    <rt:dyn type="PointID" mode="constant" value="&quot;20MAY80EY103_XG01&quot;"/> 
  </image>
  <text x="299.106" y="596.75" fill="black" font-size="15" text-anchor="middle">20MYA00EZ011 отключение турбины по ключу &quot;Пожар&quot;</text>
  <text x="255.106" y="644.875" fill="black" font-size="15">20MYA00EY101</text>
  <image x="388.106" y="627.375" width="25" height="25" xlink:href="bin_indicator.svg">
    <title>&quot;20MYA00EY101_XG01&quot;</title>
    <rt:dyn type="PointID" mode="constant" value="&quot;20MYA00EY101_XG01&quot;"/> 
  </image>
  <image x="1759.75" y="627.375" width="25" height="25" xlink:href="bin_indicator.svg">
    <title>&quot;20MYA00EZ011_ZV01&quot;</title>
    <rt:dyn type="PointID" mode="constant" value="&quot;20MYA00EZ011_ZV01&quot;"/> 
  </image>
  <text x="493.078" y="644.875" fill="black" font-size="15">20MYA00EY102</text>
  <image x="629.431" y="627.375" width="25" height="25" xlink:href="bin_indicator.svg">
    <title>&quot;20MYA00EY102_XG01&quot;</title>
    <rt:dyn type="PointID" mode="constant" value="&quot;20MYA00EY102_XG01&quot;"/> 
  </image>
  <text x="742" y="644.875" fill="black" font-size="15">20MYA00EY103</text>
  <image x="880.901" y="627.375" width="25" height="25" xlink:href="bin_indicator.svg">
    <title>&quot;20MYA00EY103_XG01&quot;</title>
    <rt:dyn type="PointID" mode="constant" value="&quot;20MYA00EY103_XG01&quot;"/> 
  </image>
  <text x="337.231" y="694.75" fill="black" font-size="15" text-anchor="middle">20HHY00EZ100 *  отключение турбины по защитам энергоблока</text>
  <text x="255.106" y="743.075" fill="black" font-size="15">20HHY00EY101</text>
  <image x="388.106" y="725.575" width="25" height="25" xlink:href="bin_indicator.svg">
    <title>&quot;20HHY00EY101_XG01&quot;</title>
    <rt:dyn type="PointID" mode="constant" value="&quot;20HHY00EY101_XG01&quot;"/> 
  </image>
  <image x="1759.75" y="723.575" width="25" height="25" xlink:href="bin_indicator.svg">
    <title>&quot;20HHY00EZ100_ZV01&quot;</title>
    <rt:dyn type="PointID" mode="constant" value="&quot;20HHY00EZ100_ZV01&quot;"/> 
  </image>
  <text x="493.078" y="743.076" fill="black" font-size="15">20HHY00EY102</text>
  <image x="629.431" y="725.575" width="25" height="25" xlink:href="bin_indicator.svg">
    <title>&quot;20HHY00EY102_XG01&quot;</title>
    <rt:dyn type="PointID" mode="constant" value="&quot;20HHY00EY102_XG01&quot;"/> 
  </image>
  <text x="742" y="743.076" fill="black" font-size="15">20HHY00EY103</text>
  <image x="880.901" y="725.575" width="25" height="25" xlink:href="bin_indicator.svg">
    <title>&quot;20HHY00EY103_XG01&quot;</title>
    <rt:dyn type="PointID" mode="constant" value="&quot;20HHY00EY103_XG01&quot;"/> 
  </image>
  <text x="336.606" y="790.94" fill="black" font-size="15" text-anchor="middle">20MKA01EZ300 отключение турбины по электрическим защитам</text>
  <text x="252.606" y="839.969" fill="black" font-size="15">20MKA01EK301</text>
  <text x="252.606" y="909.106" fill="black" font-size="15">20MKA02EK301</text>
  <image x="388.106" y="822.469" width="25" height="25" xlink:href="bin_indicator.svg">
    <title>&quot;20MKA01EK301_ZV01&quot;</title>
    <rt:dyn type="PointID" mode="constant" value="&quot;20MKA01EK301_ZV01&quot;"/> 
  </image>
  <image x="388.106" y="891.606" width="25" height="25" xlink:href="bin_indicator.svg">
    <title>&quot;20MKA02EK301_ZV01&quot;</title>
    <rt:dyn type="PointID" mode="constant" value="&quot;20MKA02EK301_ZV01&quot;"/> 
  </image>
  <image x="1759.75" y="852.516" width="25" height="25" xlink:href="bin_indicator.svg">
    <title>&quot;20MKA01EZ300_ZV01&quot;</title>
    <rt:dyn type="PointID" mode="constant" value="&quot;20MKA01EZ300_ZV01&quot;"/> 
  </image>
  <text x="493.078" y="839.969" fill="black" font-size="15">20MKA01EK302</text>
  <text x="493.078" y="909.106" fill="black" font-size="15">20MKA02EK302</text>
  <image x="629.431" y="822.469" width="25" height="25" xlink:href="bin_indicator.svg">
    <title>&quot;20MKA01EK302_ZV01&quot;</title>
    <rt:dyn type="PointID" mode="constant" value="&quot;20MKA01EK302_ZV01&quot;"/> 
  </image>
  <image x="629.431" y="891.606" width="25" height="25" xlink:href="bin_indicator.svg">
    <title>&quot;20MKA02EK302_ZV01&quot;</title>
    <rt:dyn type="PointID" mode="constant" value="&quot;20MKA02EK302_ZV01&quot;"/> 
  </image>
  <text x="742" y="839.969" fill="black" font-size="15">20MKA01EK303</text>
  <text x="742" y="909.106" fill="black" font-size="15">20MKA02EK303</text>
  <image x="880.901" y="822.469" width="25" height="25" xlink:href="bin_indicator.svg">
    <title>&quot;20MKA01EK303_ZV01&quot;</title>
    <rt:dyn type="PointID" mode="constant" value="&quot;20MKA01EK303_ZV01&quot;"/> 
  </image>
  <image x="880.901" y="891.606" width="25" height="25" xlink:href="bin_indicator.svg">
    <title>&quot;20MKA02EK303_ZV01&quot;</title>
    <rt:dyn type="PointID" mode="constant" value="&quot;20MKA02EK303_ZV01&quot;"/> 
  </image>
  <rect x="8.25002" y="68.75" width="1901.25" height="878.5" rx="0" ry="0" fill="none" stroke="black" stroke-width="3"/> 
  <text x="33.6251" y="100.5" fill="black" font-size="15" text-anchor="middle">№</text>
  <text x="419.5" y="99.875" fill="black" font-size="15" text-anchor="middle">Показания датчиков</text>
  <text x="23.0626" y="149.25" fill="black" font-size="15">15</text>
  <text x="1800.25" y="100.5" fill="black" font-size="15" text-anchor="middle">Защита сработала</text>
  <line x1="987.25" y1="167.25" x2="987.25" y2="378" stroke="black"/> 
  <line x1="9.00002" y1="123" x2="1907" y2="123" stroke="black"/> 
  <text x="1052.63" y="92" fill="black" font-size="15" text-anchor="middle">Уставка авт.<tspan x="1052.63" dy="15">ввода защ.</tspan>
  </text>
  <text x="1224.25" y="100.5" fill="black" font-size="15" text-anchor="middle">Сработал 1 из датчиков</text>
  <text x="1424.56" y="99.875" fill="black" font-size="15" text-anchor="middle">Накладка</text>
  <text x="1608" y="99.875" fill="black" font-size="15" text-anchor="middle">Защита на сигнал</text>
  <line x1="56" y1="167" x2="1909.25" y2="167" stroke="black"/> 
  <line x1="987.25" y1="68.0001" x2="987.25" y2="124.25" stroke="black"/> 
  <line x1="1118.75" y1="67.75" x2="1118.75" y2="124" stroke="black"/> 
  <line x1="1332.5" y1="69.0001" x2="1332.5" y2="125.25" stroke="black"/> 
  <line x1="1518.25" y1="67.75" x2="1518.25" y2="124" stroke="black"/> 
  <line x1="1697.75" y1="67.75" x2="1697.75" y2="124" stroke="black"/> 
  <line x1="56.5" y1="421" x2="1906.75" y2="421" stroke="black"/> 
  <line x1="9.25006" y1="377" x2="1907.25" y2="377" stroke="black"/> 
  <image x="1369.56" y="255.696" width="110" height="30" xlink:href="DS_TPTS_TZB_universal.svg">
    <title>&quot;20MAY10EZ111TE0&quot;</title>
    <rt:dyn type="KKS" mode="constant" value="&quot;20MAY10EZ111TE0&quot;"/> 
    <rt:dyn type="Operate" mode="constant" value="true"/> 
  </image>
  <line x1="9.50004" y1="474" x2="1907.5" y2="474" stroke="black"/> 
  <line x1="56.75" y1="237" x2="986.25" y2="237" stroke="black"/> 
  <text x="1224.02" y="275.696" fill="black" font-size="15">XK13</text>
  <text x="1606.81" y="275.696" fill="black" font-size="15">XK41</text>
  <text x="1798.82" y="275.696" fill="black" font-size="15">ZV01</text>
  <line x1="57" y1="68" x2="57" y2="948.75" stroke="black"/> 
  <line x1="58.5" y1="307" x2="988" y2="307" stroke="black"/> 
  <line x1="57.2501" y1="870" x2="986.75" y2="870" stroke="black"/> 
  <text x="23.0625" y="402.75" fill="black" font-size="15">16</text>
  <line x1="58.25" y1="615" x2="1908.5" y2="615" stroke="black"/> 
  <line x1="12" y1="668" x2="1910" y2="668" stroke="black"/> 
  <text x="23.0626" y="594.25" fill="black" font-size="15">18</text>
  <line x1="57.5152" y1="713" x2="1907.77" y2="713" stroke="black"/> 
  <line x1="11.5455" y1="764" x2="1909.55" y2="764" stroke="black"/> 
  <text x="23.0625" y="696.879" fill="black" font-size="15">19</text>
  <text x="23.0626" y="778.348" fill="black" font-size="15">20</text>
  <line x1="56.485" y1="808" x2="1906.74" y2="808" stroke="black"/> 
  <image x="1798.25" y="958.5" width="100" height="25" xlink:href="obj_Button.svg">
    <rt:dyn type="Label" mode="constant" value="&quot;ECHSZ7&quot;"/> 
    <rt:event type="OnClick">LoadNew(&quot;echsz7&quot;)</rt:event>
  </image>
  <image x="1689.5" y="958.5" width="100" height="25" xlink:href="obj_Button.svg">
    <rt:dyn type="Label" mode="constant" value="&quot;ECHSZ5&quot;"/> 
    <rt:event type="OnClick">LoadNew(&quot;echsz5&quot;)</rt:event>
  </image>
  <image x="1577" y="958.5" width="100" height="25" xlink:href="obj_Button.svg">
    <rt:dyn type="Label" mode="constant" value="&quot;ECHSZ_ALL&quot;"/> 
    <rt:event type="OnClick">LoadNew(&quot;all_echsz&quot;)</rt:event>
  </image>
  <line x1="987.25" y1="420.75" x2="987.25" y2="474" stroke="black"/> 
  <line x1="1118.75" y1="420.75" x2="1118.75" y2="474" stroke="black"/> 
  <line x1="1332.5" y1="420.75" x2="1332.5" y2="474" stroke="black"/> 
  <line x1="1518.25" y1="420.75" x2="1518.25" y2="474" stroke="black"/> 
  <line x1="1697.75" y1="420.75" x2="1697.75" y2="474" stroke="black"/> 
  <line x1="987.25" y1="808.75" x2="987.25" y2="947.5" stroke="black"/> 
  <line x1="1118.75" y1="167.25" x2="1118.75" y2="378" stroke="black"/> 
  <line x1="1332.5" y1="167.25" x2="1332.5" y2="378" stroke="black"/> 
  <line x1="1518.25" y1="167.25" x2="1518.25" y2="378" stroke="black"/> 
  <line x1="1697.75" y1="167.25" x2="1697.75" y2="378" stroke="black"/> 
  <line x1="1118.75" y1="808.75" x2="1118.75" y2="947.5" stroke="black"/> 
  <line x1="1332.5" y1="808.75" x2="1332.5" y2="947.5" stroke="black"/> 
  <line x1="1518.25" y1="808.75" x2="1518.25" y2="947.5" stroke="black"/> 
  <line x1="1697.75" y1="808.75" x2="1697.75" y2="947.5" stroke="black"/> 
  <text x="428.25" y="206.708" fill="black" font-size="15">1к</text>
  <text x="428.25" y="275.696" fill="black" font-size="15">1к</text>
  <text x="428.25" y="346.375" fill="black" font-size="15">1к</text>
  <text x="428.25" y="452.125" fill="black" font-size="15">1к</text>
  <text x="428.25" y="644.875" fill="black" font-size="15">1к</text>
  <text x="428.25" y="743.076" fill="black" font-size="15">1к</text>
  <text x="428.25" y="839.969" fill="black" font-size="15">1к</text>
  <text x="428.25" y="909.106" fill="black" font-size="15">1к</text>
  <text x="668.25" y="206.708" fill="black" font-size="15">2к</text>
  <text x="668.25" y="275.696" fill="black" font-size="15">2к</text>
  <text x="668.25" y="346.375" fill="black" font-size="15">2к</text>
  <text x="668.25" y="452.125" fill="black" font-size="15">2к</text>
  <text x="668.25" y="644.875" fill="black" font-size="15">2к</text>
  <text x="668.25" y="743.076" fill="black" font-size="15">2к</text>
  <text x="668.25" y="839.969" fill="black" font-size="15">2к</text>
  <text x="668.25" y="909.106" fill="black" font-size="15">2к</text>
  <text x="921" y="206.708" fill="black" font-size="15">3к</text>
  <text x="921" y="275.696" fill="black" font-size="15">3к</text>
  <text x="921" y="346.375" fill="black" font-size="15">3к</text>
  <text x="921" y="452.125" fill="black" font-size="15">3к</text>
  <text x="921" y="644.875" fill="black" font-size="15">3к</text>
  <text x="921" y="743.076" fill="black" font-size="15">3к</text>
  <text x="921" y="839.969" fill="black" font-size="15">3к</text>
  <text x="921" y="909.106" fill="black" font-size="15">3к</text>
  <image x="1185.75" y="258.196" width="25" height="25" xlink:href="bin_indicator.svg">
    <title>&quot;20MAY10EZ111_XK13&quot;</title>
    <rt:dyn type="PointID" mode="constant" value="&quot;20MAY10EZ111_XK13&quot;"/> 
  </image>
  <image x="1568.25" y="258.196" width="25" height="25" xlink:href="bin_indicator.svg">
    <title>&quot;20MAY10EZ111_XK41&quot;</title>
    <rt:dyn type="PointID" mode="constant" value="&quot;20MAY10EZ111_XK41&quot;"/> 
  </image>
  <text x="1798.82" y="452.125" fill="black" font-size="15">ZV01</text>
  <text x="1798.82" y="644.875" fill="black" font-size="15">ZV01</text>
  <text x="1798.82" y="741.075" fill="black" font-size="15">ZV01</text>
  <text x="1798.82" y="870.016" fill="black" font-size="15">ZV01</text>
  <text x="165.375" y="974.75" fill="black" font-size="15" text-anchor="middle">* Сигнал формируется в СКУ ТО<tspan x="165.375" dy="15">( защиты отражены на ВК ECHSZ-TO)</tspan>
  </text>
  <image x="323.5" y="964.75" width="100" height="25" xlink:href="obj_Button.svg">
    <rt:dyn type="Label" mode="constant" value="&quot;ECHSZ-TO&quot;"/> 
    <rt:event type="OnClick">LoadNew(&quot;echsz_to&quot;)</rt:event>
  </image>
  <text x="72.7501" y="204.75" fill="black" font-size="15">Отказ ЭЧСР</text>
  <text x="66.7501" y="279.75" fill="black" font-size="15">Предварит. защита**</text>
  <text x="66.7501" y="348.5" fill="black" font-size="15">Пусковая. защита***</text>
  <text x="75.7501" y="843.25" fill="black" font-size="15">Комплект 1</text>
  <text x="75.7501" y="910.75" fill="black" font-size="15">Комплект 2</text>
  <line x1="987.75" y1="616.25" x2="987.75" y2="669.5" stroke="black"/> 
  <line x1="1119.25" y1="616.25" x2="1119.25" y2="669.5" stroke="black"/> 
  <line x1="1333" y1="616.25" x2="1333" y2="669.5" stroke="black"/> 
  <line x1="1518.75" y1="616.25" x2="1518.75" y2="669.5" stroke="black"/> 
  <line x1="1698.25" y1="616.25" x2="1698.25" y2="669.5" stroke="black"/> 
  <line x1="987.75" y1="712.5" x2="987.75" y2="765.75" stroke="black"/> 
  <line x1="1119.25" y1="712.5" x2="1119.25" y2="765.75" stroke="black"/> 
  <line x1="1333" y1="712.5" x2="1333" y2="765.75" stroke="black"/> 
  <line x1="1518.75" y1="712.5" x2="1518.75" y2="765.75" stroke="black"/> 
  <line x1="1698.25" y1="712.5" x2="1698.25" y2="765.75" stroke="black"/> 
  <line x1="10" y1="569.25" x2="1908" y2="569.25" stroke="black"/> 
  <text x="296.606" y="498.75" fill="black" font-size="15" text-anchor="middle">20MAY80EZ051 отключение турбины по кнопке по месту</text>
  <line x1="55.75" y1="517" x2="1906" y2="517" stroke="black"/> 
  <text x="23.0626" y="499.25" fill="black" font-size="15">17</text>
  <line x1="981.25" y1="516.5" x2="981.25" y2="569.75" stroke="black"/> 
  <line x1="1112.75" y1="516.5" x2="1112.75" y2="569.75" stroke="black"/> 
  <line x1="1326.5" y1="516.5" x2="1326.5" y2="569.75" stroke="black"/> 
  <line x1="1512.25" y1="516.5" x2="1512.25" y2="569.75" stroke="black"/> 
  <line x1="1691.75" y1="516.5" x2="1691.75" y2="569.75" stroke="black"/> 
  <text x="255.106" y="547.25" fill="black" font-size="15">20MAY80EY501</text>
  <image x="388.106" y="529.75" width="25" height="25" xlink:href="bin_indicator.svg">
    <title>&quot;20MAY80EY501_XG01&quot;</title>
    <rt:dyn type="PointID" mode="constant" value="&quot;20MAY80EY501_XG01&quot;"/> 
  </image>
  <text x="493.078" y="547.25" fill="black" font-size="15">20MAY80EY502</text>
  <image x="629.431" y="529.75" width="25" height="25" xlink:href="bin_indicator.svg">
    <title>&quot;20MAY80EY502_XG01&quot;</title>
    <rt:dyn type="PointID" mode="constant" value="&quot;20MAY80EY502_XG01&quot;"/> 
  </image>
  <text x="742" y="547.25" fill="black" font-size="15">20MAY80EY503</text>
  <image x="880.901" y="529.75" width="25" height="25" xlink:href="bin_indicator.svg">
    <title>&quot;20MAY80EY503_XG01&quot;</title>
    <rt:dyn type="PointID" mode="constant" value="&quot;20MAY80EY503_XG01&quot;"/> 
  </image>
  <text x="428.25" y="547.25" fill="black" font-size="15">1к</text>
  <text x="668.25" y="547.25" fill="black" font-size="15">2к</text>
  <text x="921" y="547.25" fill="black" font-size="15">3к</text>
  <image x="1754.25" y="533.5" width="25" height="25" xlink:href="bin_indicator.svg">
    <title>&quot;20MAY80EZ051_ZV01&quot;</title>
    <rt:dyn type="PointID" mode="constant" value="&quot;20MAY80EZ051_ZV01&quot;"/> 
  </image>
  <text x="1793.32" y="551.001" fill="black" font-size="15">ZV01</text>
  <text x="622.875" y="974.75" fill="black" font-size="15" text-anchor="middle">**Ввод/вывод предварительной защиты<tspan x="622.875" dy="15">осуществляется на ВК ЭЧСР</tspan>
  </text>
  <image x="797" y="964.75" width="100" height="25" xlink:href="obj_Button.svg">
    <rt:dyn type="Label" mode="constant" value="&quot;ER1&quot;"/> 
    <rt:event type="OnClick">LoadNew(&quot;er1&quot;)</rt:event>
  </image>
  <text x="1071.38" y="974.75" fill="black" font-size="15" text-anchor="middle">**Ввод/вывод пусковой защиты<tspan x="1071.38" dy="15">осуществляется на ВК разворот ТГ</tspan>
  </text>
  <image x="1245.5" y="964.75" width="100" height="25" xlink:href="obj_Button.svg">
    <rt:dyn type="Label" mode="constant" value="&quot;ER-TG&quot;"/> 
    <rt:event type="OnClick">LoadNew(&quot;er_tg&quot;)</rt:event>
  </image>
  <text x="19" y="25.5" font-size="15" font-weight="700">ECHSZ6</text>
</svg>
