<?xml  version="1.0" encoding="windows-1251"?>
<svg color="Col_BGSand" xmlns="http://www.w3.org/2000/svg" xmlns:rt="http://www.rts.co.at/2001/XMLSchema/RtSvgPL" xmlns:xlink="http://www.w3.org/1999/xlink" xmlns:xsi="http://www.w3.org/2001/XMLSchema-instance" xsi:schemaLocation="http://www.w3.org/2000/svg C:/RTS/\RtSvg\XML\SVG.xsd" viewBox="0 0 1914 1000" width="1914" height="1000" id="fak80_1" font-size="15" font-weight="700">
  <title>Система обвязки баков запаса раствора реагента для химического закрепления йода</title>
  <rt:model modelversion="7.2.0.24" revision="3" comment="UMod all_nsb&#10;LMod fak50_60&#10;RMod fak80_2&#10;RASU"/> 
  <polyline points="287,337 420,337 420,501 610,501 610,338 779,338" fill="none" stroke="black" stroke-width="3"/> 
  <polyline points="287,568 517,568 517,499" fill="none" stroke="black"/> 
  <polyline points="517,545 538,545 538,246" fill="none" stroke="black"/> 
  <polyline points="128,143 695,143 695,246" fill="none" stroke="black"/> 
  <polyline points="910,515 720,515 720,948 1850,948 1850,200 901,200 901,284.848" fill="none" stroke="black" stroke-width="3"/> 
  <polyline points="910,426 910,638 1200,638 1200,463 1442,463 1442,778 1197,778 1197,747" fill="none" stroke="black" stroke-width="3"/> 
  <rect x="773.25" y="276.25" width="283.75" height="157.5" rx="0" ry="0" fill="Col_Grey3" stroke="black"/> 
  <line x1="143.364" y1="246.97" x2="900.939" y2="246.97" stroke="black"/> 
  <polyline points="433,695 485.091,695 485.091,645" fill="none" stroke="black" transform="flipY(682.25)"/> 
  <line x1="431.242" y1="650" x2="718.818" y2="649.5" stroke="black"/> 
  <text x="10" y="22" font-size="15" text-anchor="start">
    <title>Система обвязки баков запаса раствора реагента для химического закрепления йода</title>
FAK80-1</text>
  <text x="289" y="673" fill="black" font-size="15" text-anchor="middle">KTC</text>
  <text x="200.485" y="614" fill="black" font-size="15" text-anchor="middle">в бак</text>
  <text x="202" y="630.667" fill="black" font-size="15" text-anchor="middle">20KTC21BB001</text>
  <g transform="flipY(394.747)">
    <circle cx="1200.14" cy="148.338" r="28.7879" fill="Col_BGSand" stroke="black" stroke-width="3"/> 
    <line x1="1180.64" y1="128.689" x2="1168.52" y2="40.81" stroke="black" stroke-width="3"/> 
    <line x1="1220.03" y1="128.689" x2="1232.15" y2="42.81" stroke="black" stroke-width="3"/> 
    <line x1="1168.52" y1="42.326" x2="1233.67" y2="42.326" stroke="black" stroke-width="3"/> 
  </g>
  <image x="865.273" y="528.333" width="70" height="65" xlink:href="DS_CO_valve.svg" transform="flipX(-0.000244141) flipY(-10.0001) rotate(90 -0.00012207 -10.0001)">
    <title>&quot;21FAK14AA002&quot;</title>
    <rt:dyn type="KKS" mode="constant" value="&quot;21FAK14AA002&quot;"/> 
    <rt:dyn type="DATA_NARY" mode="constant" value="&quot;TPTS&quot;"/> 
    <rt:dyn type="Operate" mode="constant" value="true"/> 
  </image>
  <text x="969" y="475" fill="black" font-size="15" text-anchor="middle">21FAK14<tspan x="969" dy="15">AA601</tspan>
  </text>
  <text x="975" y="562.5" fill="black" font-size="15" text-anchor="middle">21FAK14<tspan x="975" dy="15">AA002</tspan>
  </text>
  <image x="1155.33" y="528.5" width="70" height="65" xlink:href="DS_CO_valve.svg" transform="flipX(-0.000244141) flipY(-10.0001) rotate(90 -0.00012207 -10.0001)">
    <title>&quot;21FAK14AA001&quot;</title>
    <rt:dyn type="KKS" mode="constant" value="&quot;21FAK14AA001&quot;"/> 
    <rt:dyn type="DATA_NARY" mode="constant" value="&quot;TPTS&quot;"/> 
    <rt:dyn type="Operate" mode="constant" value="true"/> 
  </image>
  <text x="1258" y="560.5" fill="black" font-size="15" text-anchor="middle">21FAK14<tspan x="1258" dy="15">AA001</tspan>
  </text>
  <line x1="1442.27" y1="796.97" x2="1442.27" y2="449.636" stroke="black" stroke-width="3"/> 
  <line x1="1198.82" y1="462.879" x2="1444.27" y2="462.879" stroke="black" stroke-width="3"/> 
  <g transform="rotate(180 1210.44 541.647)">
    <g transform="rotate(90 1212.44 532.643)">
      <polygon points="1580.35,-30.7527 1593.73,-23.1087 1593.73,-38.3957 1580.35,-30.7527" fill="black" stroke="black" stroke-width="1" transform="rotate(180 1279.17 367.814)"/> 
    </g>
  </g>
  <g transform="rotate(180 1210.44 541.647)">
    <g transform="rotate(90 1212.44 532.643)">
      <polygon points="1231.53,-31.2379 1244.91,-23.5938 1244.91,-38.8809 1231.53,-31.2379" fill="black" stroke="black" stroke-width="1" transform="rotate(180 1279.17 367.814)"/> 
    </g>
  </g>
  <image x="1409.42" y="594.394" width="70" height="70" xlink:href="DS_motor.svg" transform="rotate(270 -0.00012207 -6.10352e-005)">
    <title>&quot;21FAK10AP001&quot;</title>
    <rt:dyn type="KKS" mode="constant" value="&quot;21FAK10AP001&quot;"/> 
    <rt:dyn type="DATA_NARY" mode="constant" value="&quot;TPTS&quot;"/> 
    <rt:dyn type="Operate" mode="constant" value="true"/> 
  </image>
  <text x="1515" y="625" fill="black" font-size="15" text-anchor="middle">21FAK10<tspan x="1515" dy="15">AP001</tspan>
  </text>
  <text x="434" y="837" fill="black" font-size="15" text-anchor="middle">KTC</text>
  <text x="643.5" y="849" fill="black" font-size="15" text-anchor="middle">KUA10_50</text>
  <text x="344.5" y="789" fill="black" font-size="15" text-anchor="middle">на всас насоса</text>
  <text x="343.742" y="807.182" fill="black" font-size="15" text-anchor="middle">20KTC21AP001</text>
  <line x1="641.985" y1="649.002" x2="641.5" y2="801.365" stroke="black"/> 
  <text x="1046.39" y="613.364" fill="black" font-size="15" text-anchor="middle">21FAK_JMN</text>
  <g transform="rotate(270 539.5 743) rotate(180 1212.44 532.643)">
    <polygon points="686.492,358.728 699.872,366.372 699.872,351.085 686.492,358.728" fill="black" stroke="black" stroke-width="1" transform="rotate(180 1279.17 367.814)"/> 
  </g>
  <text x="456" y="749" font-size="15">в трап</text>
  <image x="927.606" y="912.121" width="70" height="70" xlink:href="DS_motor.svg" transform="rotate(0 -0.00012207 -6.10352e-005)">
    <title>&quot;20FAK81AP001&quot;</title>
    <rt:dyn type="KKS" mode="constant" value="&quot;20FAK81AP001&quot;"/> 
    <rt:dyn type="DATA_NARY" mode="constant" value="&quot;TPTS&quot;"/> 
    <rt:dyn type="Operate" mode="constant" value="true"/> 
  </image>
  <text x="963.25" y="991.25" fill="black" font-size="15" text-anchor="middle">20FAK81AP001</text>
  <image x="532.758" y="921.212" width="175" height="25" xlink:href="DS_ana.svg">
    <title>&quot;20FAK81CP001&quot;</title>
    <rt:dyn type="FKKS" mode="constant" value="&quot;20FAK81CP001&quot;"/> 
    <rt:dyn type="ShowFrame" mode="constant" value="true"/> 
    <rt:dyn type="X" mode="constant" value="&quot;P&quot;"/> 
    <rt:dyn type="Color_Readings" mode="constant" value="true"/> 
    <rt:dyn type="ValueToTheRight" mode="constant" value="false"/> 
  </image>
  <image x="1047.91" y="915.151" width="175" height="25" xlink:href="DS_ana.svg">
    <title>&quot;20FAK81CP002&quot;</title>
    <rt:dyn type="FKKS" mode="constant" value="&quot;20FAK81CP002&quot;"/> 
    <rt:dyn type="ShowFrame" mode="constant" value="true"/> 
    <rt:dyn type="X" mode="constant" value="&quot;P&quot;"/> 
    <rt:dyn type="Color_Readings" mode="constant" value="true"/> 
    <rt:dyn type="ValueToTheRight" mode="constant" value="false"/> 
  </image>
  <image x="1316.09" y="925.697" width="70" height="52.5" xlink:href="DS_reflux_valve.svg" transform="rotate(180 0 -3.75006)"/> 
  <text x="1351.15" y="983.242" fill="black" font-size="15" text-anchor="middle">20FAK81AA601</text>
  <image x="1665.61" y="586.364" width="175" height="25" xlink:href="DS_ana.svg">
    <title>&quot;20FAK81CF001&quot;</title>
    <rt:dyn type="FKKS" mode="constant" value="&quot;20FAK81CF001&quot;"/> 
    <rt:dyn type="ShowFrame" mode="constant" value="true"/> 
    <rt:dyn type="X" mode="constant" value="&quot;F&quot;"/> 
    <rt:dyn type="Color_Readings" mode="constant" value="true"/> 
    <rt:dyn type="ValueToTheRight" mode="constant" value="false"/> 
  </image>
  <text x="178.875" y="107.5" fill="black" font-size="15" text-anchor="middle">подача гидрозин гидрата, KOH,<tspan x="178.875" dy="15">раствора борной кислоты 40 г/кг</tspan>
  </text>
  <text x="1037.3" y="687.879" font-size="15">21FAK14BN001</text>
  <image x="873" y="712" width="25" height="25" xlink:href="bin_indicator.svg">
    <title>&quot;20FAK81EZ001_ZV02&quot;</title>
    <rt:dyn type="PointID" mode="constant" value="&quot;20FAK81EZ001_ZV02&quot;"/> 
  </image>
  <text x="906" y="729" font-size="15">F &gt; 12 M3/Ч</text>
  <image x="873" y="744" width="25" height="25" xlink:href="bin_indicator.svg">
    <title>&quot;20FAK81EZ001_ZV53&quot;</title>
    <rt:dyn type="PointID" mode="constant" value="&quot;20FAK81EZ001_ZV53&quot;"/> 
  </image>
  <text x="906" y="761" font-size="15">P ВСАС &lt; 20 KПА</text>
  <image x="873" y="775" width="25" height="25" xlink:href="bin_indicator.svg">
    <title>&quot;20FAK81EZ001_ZV52&quot;</title>
    <rt:dyn type="PointID" mode="constant" value="&quot;20FAK81EZ001_ZV52&quot;"/> 
  </image>
  <text x="906" y="792" font-size="15">F &lt; 4 M3/Ч</text>
  <image x="873" y="807" width="25" height="25" xlink:href="bin_indicator.svg">
    <title>&quot;20FAK81EZ001_ZV51&quot;</title>
    <rt:dyn type="PointID" mode="constant" value="&quot;20FAK81EZ001_ZV51&quot;"/> 
  </image>
  <text x="906" y="824" font-size="15">P НАПОР &lt; 0,33 МПА</text>
  <text x="151.375" y="225" fill="black" font-size="15" text-anchor="middle">подача дистиллята</text>
  <image x="574.516" y="194.606" width="70" height="65" xlink:href="DS_CO_valve.svg" transform="rotate(270 0 0) flipY(-10.0001) rotate(90 -0.00012207 -10.0001)">
    <rt:dyn type="KKS" mode="constant" value="&quot;NULL&quot;"/> 
    <rt:dyn type="DATA_NARY" mode="constant" value="&quot;TPTS&quot;"/> 
    <rt:dyn type="Operate" mode="constant" value="true"/> 
    <rt:dyn type="Drive" mode="constant" value="&quot;none&quot;"/> 
  </image>
  <text x="612.606" y="275" fill="black" font-size="15" text-anchor="middle">20FAK81AA112</text>
  <image x="574.516" y="91.0605" width="70" height="65" xlink:href="DS_CO_valve.svg" transform="rotate(270 0 0) flipY(-10.0001) rotate(90 -0.00012207 -10.0001)">
    <rt:dyn type="KKS" mode="constant" value="&quot;NULL&quot;"/> 
    <rt:dyn type="DATA_NARY" mode="constant" value="&quot;TPTS&quot;"/> 
    <rt:dyn type="Operate" mode="constant" value="true"/> 
    <rt:dyn type="Drive" mode="constant" value="&quot;none&quot;"/> 
  </image>
  <text x="600.606" y="171.454" fill="black" font-size="15" text-anchor="middle">20FAK81AA113</text>
  <image x="494.091" y="303.03" width="70" height="65" xlink:href="DS_CO_valve.svg" transform="rotate(180 2.17865e-007 -3.47475e-007) flipY(-10.0001) rotate(90 -0.00012207 -10.0001)">
    <rt:dyn type="KKS" mode="constant" value="&quot;NULL&quot;"/> 
    <rt:dyn type="DATA_NARY" mode="constant" value="&quot;TPTS&quot;"/> 
    <rt:dyn type="Operate" mode="constant" value="true"/> 
    <rt:dyn type="Drive" mode="constant" value="&quot;none&quot;"/> 
  </image>
  <text x="486.788" y="356.03" fill="black" font-size="15" text-anchor="middle">20FAK81<tspan x="486.788" dy="15">AA106</tspan>
  </text>
  <text x="403.212" y="599.787" fill="black" font-size="15" text-anchor="middle">20FAK81AA105</text>
  <line x1="288" y1="397" x2="288" y2="634.394" stroke="black"/> 
  <image x="380.122" y="514.394" width="70" height="65" xlink:href="DS_CO_valve.svg" transform="rotate(270 0 0) flipY(-10.0001) rotate(90 -0.00012207 -10.0001)">
    <rt:dyn type="KKS" mode="constant" value="&quot;NULL&quot;"/> 
    <rt:dyn type="DATA_NARY" mode="constant" value="&quot;TPTS&quot;"/> 
    <rt:dyn type="Operate" mode="constant" value="true"/> 
    <rt:dyn type="Drive" mode="constant" value="&quot;none&quot;"/> 
  </image>
  <line x1="432.985" y1="649.002" x2="432.5" y2="801.365" stroke="black"/> 
  <image x="1733.15" y="895.06" width="70" height="65" xlink:href="DS_CO_valve.svg" transform="rotate(270 0 0) flipY(-10.0001) rotate(90 -0.00012207 -10.0001)">
    <rt:dyn type="KKS" mode="constant" value="&quot;NULL&quot;"/> 
    <rt:dyn type="DATA_NARY" mode="constant" value="&quot;TPTS&quot;"/> 
    <rt:dyn type="Operate" mode="constant" value="true"/> 
    <rt:dyn type="Drive" mode="constant" value="&quot;none&quot;"/> 
  </image>
  <text x="1760.24" y="975.242" fill="black" font-size="15" text-anchor="middle">20FAK81AA110</text>
  <polyline points="273.057,377.543 288.057,400.876 303.057,377.543" fill="none" stroke="black"/> 
  <image x="784.667" y="895.06" width="70" height="65" xlink:href="DS_CO_valve.svg" transform="rotate(270 0 0) flipY(-10.0001) rotate(90 -0.00012207 -10.0001)">
    <rt:dyn type="KKS" mode="constant" value="&quot;NULL&quot;"/> 
    <rt:dyn type="DATA_NARY" mode="constant" value="&quot;TPTS&quot;"/> 
    <rt:dyn type="Operate" mode="constant" value="true"/> 
    <rt:dyn type="Drive" mode="constant" value="&quot;none&quot;"/> 
  </image>
  <text x="808.875" y="980.75" fill="black" font-size="15" text-anchor="middle">20FAK81AA103</text>
  <image x="597.121" y="684.167" width="70" height="65" xlink:href="DS_CO_valve.svg" transform="rotate(180 2.17865e-007 -3.47475e-007) flipY(-10.0001) rotate(90 -0.00012207 -10.0001)">
    <rt:dyn type="KKS" mode="constant" value="&quot;NULL&quot;"/> 
    <rt:dyn type="DATA_NARY" mode="constant" value="&quot;TPTS&quot;"/> 
    <rt:dyn type="Operate" mode="constant" value="true"/> 
    <rt:dyn type="Drive" mode="constant" value="&quot;none&quot;"/> 
  </image>
  <text x="581.818" y="733.167" fill="black" font-size="15" text-anchor="middle">20FAK81<tspan x="581.818" dy="15">AA104</tspan>
  </text>
  <image x="524.061" y="597.576" width="70" height="65" xlink:href="DS_CO_valve.svg" transform="rotate(270 0 0) flipY(-10.0001) rotate(90 -0.00012207 -10.0001)">
    <rt:dyn type="KKS" mode="constant" value="&quot;NULL&quot;"/> 
    <rt:dyn type="DATA_NARY" mode="constant" value="&quot;TPTS&quot;"/> 
    <rt:dyn type="Operate" mode="constant" value="true"/> 
    <rt:dyn type="Drive" mode="constant" value="&quot;none&quot;"/> 
  </image>
  <text x="559.125" y="682.5" fill="black" font-size="15" text-anchor="middle">20FAK81AA101</text>
  <line x1="288" y1="339" x2="288" y2="375" stroke="black"/> 
  <text x="1497" y="974.242" fill="black" font-size="15">20FAK81AA201</text>
  <image x="91.3485" y="130.303" width="75" height="25" xlink:href="obj_link.svg">
    <rt:dyn type="TextStr" mode="constant" value="&quot;KPJ&quot;"/> 
    <rt:dyn type="ModName" mode="constant" value="&quot;kpj2&quot;"/> 
  </image>
  <image x="91.3485" y="236.364" width="95" height="25" xlink:href="obj_link.svg">
    <rt:dyn type="TextStr" mode="constant" value="&quot;KBC10-30&quot;"/> 
    <rt:dyn type="ModName" mode="constant" value="&quot;kbc10_30&quot;"/> 
  </image>
  <image x="1003.97" y="624.242" width="75" height="25" xlink:href="obj_link.svg">
    <rt:dyn type="TextStr" mode="constant" value="&quot;&quot;"/> 
    <rt:dyn type="ModName" mode="constant" value="&quot;21fak_jmn&quot;"/> 
  </image>
  <image x="249.909" y="621.576" width="60" height="25" xlink:href="obj_link.svg" transform="rotate(90 37.3618 12.4999)">
    <rt:dyn type="TextStr" mode="constant" value="&quot;&quot;"/> 
    <rt:dyn type="ModName" mode="constant" value="&quot;ktc&quot;"/> 
  </image>
  <image x="395.364" y="783.212" width="60" height="25" xlink:href="obj_link.svg" transform="rotate(90 37.3618 12.4999)">
    <rt:dyn type="TextStr" mode="constant" value="&quot;&quot;"/> 
    <rt:dyn type="ModName" mode="constant" value="&quot;ktc&quot;"/> 
  </image>
  <image x="603.485" y="798.303" width="60" height="25" xlink:href="obj_link.svg" transform="rotate(90 37.3618 12.4999)">
    <rt:dyn type="TextStr" mode="constant" value="&quot;&quot;"/> 
    <rt:dyn type="ModName" mode="constant" value="&quot;kua10_50&quot;"/> 
  </image>
  <image x="1517.61" y="906.06" width="70" height="65" xlink:href="DS_Reg_valve.svg">
    <rt:dyn type="DATA_NARY" mode="constant" value="&quot;NONE&quot;"/> 
  </image>
  <text x="849.5" y="315.833" font-size="16">21FAK14BB001</text>
  <image x="821.83" y="389.171" width="175" height="25" xlink:href="DS_ana_900.svg">
    <title>&quot;21FAK14CL901&quot;</title>
    <rt:dyn type="FKKS" mode="constant" value="&quot;21FAK14CL901&quot;"/> 
    <rt:dyn type="ShowFrame" mode="constant" value="true"/> 
    <rt:dyn type="X" mode="constant" value="&quot;L&quot;"/> 
    <rt:dyn type="Color_Readings" mode="constant" value="true"/> 
    <rt:dyn type="ValueToTheRight" mode="constant" value="false"/> 
    <rt:dyn type="Show_MIS" mode="constant" value="true"/> 
  </image>
  <image x="790.15" y="322.151" width="25" height="100" xlink:href="DS_ana_bar.svg">
    <title>&quot;21FAK14CL901&quot;</title>
    <rt:dyn type="FKKS" mode="constant" value="&quot;21FAK14CL901&quot;"/> 
  </image>
  <image x="1682" y="97.5" width="75" height="25" xlink:href="obj_link.svg">
    <rt:dyn type="TextStr" mode="constant" value="&quot;FAK80-2&quot;"/> 
    <rt:dyn type="ModName" mode="constant" value="&quot;fak80_2&quot;"/> 
  </image>
  <image x="868" y="459" width="70" height="52.5" xlink:href="DS_reflux_valve.svg" transform="flipY(-7.50012) rotate(90 0 0) flipX(2.54714e-005) rotate(180 0 -3.75006)">
    <title>&quot;21FAK14AA601&quot;</title>
    <rt:dyn type="KKS" mode="constant" value="&quot;21FAK14AA601&quot;"/> 
    <rt:dyn type="DATA_NARY" mode="constant" value="&quot;BIN&quot;"/> 
    <rt:dyn type="SIG_Open" mode="constant" value="&quot;XG11&quot;"/> 
    <rt:dyn type="SIG_Close" mode="constant" value="&quot;XG61&quot;"/> 
  </image>
  <text x="957" y="26" font-size="30" text-anchor="middle">
    <title>Система обвязки баков запаса раствора реагента для химического закрепления йода</title>
Система обвязки баков запаса раствора реагента<tspan x="957" dy="30">для химического закрепления йода</tspan>
  </text>
  <g>
    <rect x="528.5" y="491.691" width="13" height="17.75" rx="0" ry="0" fill="Col_BGSand" stroke-width="3"/> 
    <path d="M309.058 -123.966 A8.80505 8.80505 0 1 0 309.058 -106.401 " fill="none" stroke="black" transform="matrix(1 0 0 -1 229.642 385.38)"/> 
    <line x1="519" y1="501" x2="544.5" y2="501" stroke="black" stroke-width="3"/> 
  </g>
</svg>
