<?xml  version="1.0" encoding="UTF-8"?>
<svg color="Col_BGSand" xmlns="http://www.w3.org/2000/svg" xmlns:rt="http://www.rts.co.at/2001/XMLSchema/RtSvgPL" xmlns:xlink="http://www.w3.org/1999/xlink" xmlns:xsi="http://www.w3.org/2001/XMLSchema-instance" xsi:schemaLocation="http://www.w3.org/2000/svg C:\RTS\RtSvg\XML\SVG.xsd" viewBox="0 0 1914 1000" width="1914" height="1000" id="fak80" font-weight="700">
  <title>Система обвязки баков запаса раствора реагента для химического закрепления йода</title>
  <rt:model modelversion="7.2.0.23" comment="SVBU&#10;UMod all_nsb&#10;LMod fak50_60&#10;RMod fal50_70" revision="2.0"/> 
  <text x="957" y="26" font-size="30" font-weight="700" text-anchor="middle">
    <title>Система обвязки баков запаса раствора реагента для химического закрепления йода</title>
Система обвязки баков запаса раствора реагента<tspan x="957" dy="30">для химического закрепления йода</tspan>
  </text>
  <line x1="118" y1="145" x2="342.606" y2="145" stroke="black"/> 
  <line x1="183" y1="300" x2="96" y2="300" stroke="black" stroke-width="3"/> 
  <text x="14" y="25" font-size="15">
    <title>Система обвязки баков запаса раствора реагента для химического закрепления йода</title>
FAK80</text>
  <text x="61.2727" y="458" fill="black" font-size="15" text-anchor="middle">в бак<tspan x="61.2727" dy="15">20KTC21BB001</tspan>
  </text>
  <line x1="273" y1="300" x2="273" y2="362" stroke="black" stroke-width="3"/> 
  <line x1="275" y1="362" x2="180" y2="362" stroke="black" stroke-width="3"/> 
  <line x1="181" y1="363" x2="181.606" y2="301.121" stroke="black" stroke-width="3"/> 
  <line x1="225" y1="212" x2="225" y2="400" stroke="black"/> 
  <path d="M-4.729 13.817 A8.80483 8.80483 0 1 1 -4.729 31.427 " fill="none" stroke="black" stroke-width="1" transform="flipY() translate(0 -828) translate(229.642 442.62)"/> 
  <line x1="212.697" y1="405" x2="225.848" y2="405" stroke="black"/> 
  <line x1="224.818" y1="370.606" x2="224.818" y2="405.454" stroke="black"/> 
  <line x1="342.394" y1="145" x2="342.394" y2="211.485" stroke="black"/> 
  <text x="131.848" y="126.454" fill="black" font-size="15" text-anchor="middle">NH4OH, KOH, H3BO3 40 г/кг</text>
  <text x="68" y="238" fill="black" font-size="15" text-anchor="middle">дистиллят</text>
  <text x="276.5" y="241.5" fill="black" font-size="15" text-anchor="middle">
    <title>21FAK14AA002</title>
20FAK81<tspan x="276.5" dy="15">AA112</tspan>
  </text>
  <image x="248.516" y="93.0605" width="70" height="65" xlink:href="DS_CO_valve.svg" transform="rotate(270 0 0) flipY(-10.0001) rotate(90 -0.00012207 -10.0001)">
    <rt:dyn type="KKS" mode="constant" value="&quot;NULL&quot;"/> 
    <rt:dyn type="DATA_NARY" mode="constant" value="&quot;TPTS&quot;"/> 
    <rt:dyn type="Operate" mode="constant" value="true"/> 
    <rt:dyn type="Drive" mode="constant" value="&quot;none&quot;"/> 
  </image>
  <text x="273.606" y="95.454" fill="black" font-size="15" text-anchor="middle">
    <title>21FAK14AA002</title>
20FAK81<tspan x="273.606" dy="15">AA113</tspan>
  </text>
  <image x="181.091" y="222.03" width="70" height="65" xlink:href="DS_CO_valve.svg" transform="rotate(180 2.17865e-007 -3.47475e-007) flipY(-10.0001) rotate(90 -0.00012207 -10.0001)">
    <rt:dyn type="KKS" mode="constant" value="&quot;NULL&quot;"/> 
    <rt:dyn type="DATA_NARY" mode="constant" value="&quot;TPTS&quot;"/> 
    <rt:dyn type="Operate" mode="constant" value="true"/> 
    <rt:dyn type="Drive" mode="constant" value="&quot;none&quot;"/> 
  </image>
  <text x="155.788" y="269.03" fill="black" font-size="15" text-anchor="middle">
    <title>21FAK14AA002</title>
20FAK81<tspan x="155.788" dy="15">AA106</tspan>
  </text>
  <text x="165.212" y="450.787" fill="black" font-size="15" text-anchor="middle">
    <title>21FAK14AA002</title>
20FAK81<tspan x="165.212" dy="15">AA105</tspan>
  </text>
  <line x1="117" y1="356" x2="117" y2="425" stroke="black"/> 
  <line x1="84" y1="423" x2="213" y2="423" stroke="black"/> 
  <line x1="212" y1="361.547" x2="212" y2="424" stroke="black"/> 
  <image x="138.122" y="370.394" width="70" height="65" xlink:href="DS_CO_valve.svg" transform="rotate(270 0 0) flipY(-10.0001) rotate(90 -0.00012207 -10.0001)">
    <rt:dyn type="KKS" mode="constant" value="&quot;NULL&quot;"/> 
    <rt:dyn type="DATA_NARY" mode="constant" value="&quot;TPTS&quot;"/> 
    <rt:dyn type="Operate" mode="constant" value="true"/> 
    <rt:dyn type="Drive" mode="constant" value="&quot;none&quot;"/> 
  </image>
  <polyline points="105,336 117.057,355.876 131,337" fill="none" stroke="black"/> 
  <line x1="117" y1="301" x2="117" y2="337" stroke="black"/> 
  <image x="44.3485" y="131.303" width="75" height="25" xlink:href="obj_link.svg">
    <rt:dyn type="TextStr" mode="constant" value="&quot;KPJ1&quot;"/> 
    <rt:dyn type="ModName" mode="constant" value="&quot;kpj1&quot;"/> 
  </image>
  <image x="38.3485" y="198.364" width="100" height="25" xlink:href="obj_link.svg">
    <rt:dyn type="TextStr" mode="constant" value="&quot;KBC10-30&quot;"/> 
    <rt:dyn type="ModName" mode="constant" value="&quot;kbc10_30&quot;"/> 
  </image>
  <image x="15.7879" y="409.576" width="75" height="25" xlink:href="obj_link.svg" transform="flipX(37.4999)">
    <rt:dyn type="ModName" mode="constant" value="&quot;ktc&quot;"/> 
    <rt:dyn type="TextStr" mode="constant" value="&quot;KTC&quot;"/> 
  </image>
  <g>
    <image x="550" y="838" width="25" height="25" xlink:href="bin_indicator.svg">
      <title>&quot;20FAK81EZ001_ZV02&quot;</title>
      <rt:dyn type="PointID" mode="constant" value="&quot;20FAK81EZ001_ZV02&quot;"/> 
    </image>
    <text x="583" y="855" font-size="15">F &gt; 12 M3/Ч</text>
    <image x="550" y="870" width="25" height="25" xlink:href="bin_indicator.svg">
      <title>&quot;20FAK81EZ001_ZV53&quot;</title>
      <rt:dyn type="PointID" mode="constant" value="&quot;20FAK81EZ001_ZV53&quot;"/> 
    </image>
    <text x="583" y="887" font-size="15">P ВСАС &lt; 50 KПА</text>
    <image x="550" y="901" width="25" height="25" xlink:href="bin_indicator.svg">
      <title>&quot;20FAK81EZ001_ZV52&quot;</title>
      <rt:dyn type="PointID" mode="constant" value="&quot;20FAK81EZ001_ZV52&quot;"/> 
    </image>
    <text x="583" y="918" font-size="15">F &lt; 4 M3/Ч</text>
    <image x="550" y="933" width="25" height="25" xlink:href="bin_indicator.svg">
      <title>&quot;20FAK81EZ001_ZV51&quot;</title>
      <rt:dyn type="PointID" mode="constant" value="&quot;20FAK81EZ001_ZV51&quot;"/> 
    </image>
    <text x="583" y="950" font-size="15">P НАПОР &lt; 0,33 МПА</text>
  </g>
  <line x1="446" y1="391.303" x2="445" y2="791" stroke="black" stroke-width="3"/> 
  <polyline points="443,790 835,789 835.121,213.636 436,212 436,245.333" fill="none" stroke="black" stroke-width="3"/> 
  <line x1="286.242" y1="638" x2="444" y2="637" stroke="black"/> 
  <line x1="667.33" y1="374.879" x2="667.33" y2="522.606" stroke="black" stroke-width="3"/> 
  <line x1="337.697" y1="300" x2="271" y2="300" stroke="black" stroke-width="3"/> 
  <g transform="flipY(394.747)">
    <circle cx="668.14" cy="238.338" r="28.7879" fill="none" stroke="black" stroke-width="3"/> 
    <line x1="648.64" y1="218.689" x2="636.52" y2="130.81" stroke="black" stroke-width="3"/> 
    <line x1="688.03" y1="218.689" x2="700.15" y2="132.81" stroke="black" stroke-width="3"/> 
    <line x1="636.52" y1="132.326" x2="701.67" y2="132.326" stroke="black" stroke-width="3"/> 
  </g>
  <text x="380" y="437" fill="black" font-size="15" text-anchor="middle">21FAK14<tspan x="380" dy="15">AA601</tspan>
  </text>
  <text x="486" y="579" fill="black" font-size="15" text-anchor="middle">
    <title>21FAK14AA002</title>
21FAK14<tspan x="486" dy="15">AA002</tspan>
  </text>
  <line x1="445" y1="549" x2="641" y2="549" stroke="black" stroke-width="3"/> 
  <line x1="663.82" y1="688" x2="750" y2="688" stroke="black" stroke-width="3"/> 
  <image x="642.33" y="426.5" width="70" height="65" xlink:href="DS_CO_valve.svg" transform="flipY(-10.0001) rotate(90 -0.00012207 -10.0001)">
    <title>&quot;21FAK14AA001&quot;</title>
    <rt:dyn type="KKS" mode="constant" value="&quot;21FAK14AA001&quot;"/> 
    <rt:dyn type="DATA_NARY" mode="constant" value="&quot;TPTS&quot;"/> 
    <rt:dyn type="Operate" mode="constant" value="true"/> 
  </image>
  <text x="616" y="425.773" fill="black" font-size="15" text-anchor="middle">
    <title>21FAK14AA002</title>
21FAK14<tspan x="616" dy="15">AA001</tspan>
  </text>
  <line x1="665.82" y1="689.273" x2="665.82" y2="657.454" stroke="black" stroke-width="3"/> 
  <line x1="752" y1="708.97" x2="752" y2="361.636" stroke="black" stroke-width="3"/> 
  <line x1="665.82" y1="375" x2="752" y2="375" stroke="black" stroke-width="3"/> 
  <g transform="rotate(180 1210.44 541.647)">
    <g transform="rotate(90 1212.44 532.643)">
      <polygon points="1496.35,659.247 1509.73,666.891 1509.73,651.604 1496.35,659.247" fill="black" stroke="black" stroke-width="1" transform="rotate(180 1279.17 367.814)"/> 
    </g>
  </g>
  <g transform="rotate(180 1210.44 541.647)">
    <g transform="rotate(90 1212.44 532.643)">
      <polygon points="1143.53,658.762 1156.91,666.406 1156.91,651.119 1143.53,658.762" fill="black" stroke="black" stroke-width="1" transform="rotate(180 1279.17 367.814)"/> 
    </g>
  </g>
  <image x="717.42" y="506.394" width="70" height="70" xlink:href="DS_motor.svg" transform="rotate(270 -0.00012207 -6.10352e-005)">
    <title>&quot;21FAK10AP001&quot;</title>
    <rt:dyn type="KKS" mode="constant" value="&quot;21FAK10AP001&quot;"/> 
    <rt:dyn type="DATA_NARY" mode="constant" value="&quot;TPTS&quot;"/> 
  </image>
  <text x="795.364" y="497.288" fill="black" font-size="15" text-anchor="middle">
    <title>21FAK14AA002</title>
21FAK10<tspan x="795.364" dy="15">AP001</tspan>
  </text>
  <text x="162" y="635.833" fill="black" font-size="15" text-anchor="middle">на всас насоса<tspan x="162" dy="15">20KTC21AP001</tspan>
  </text>
  <line x1="415.485" y1="560.637" x2="415" y2="638" stroke="black"/> 
  <g transform="rotate(270 539.5 743) rotate(180 1212.44 532.643)">
    <polygon points="698.492,186.738 711.872,194.382 711.872,179.095 698.492,186.738" fill="black" stroke="black" stroke-width="1" transform="rotate(180 1279.17 367.814)"/> 
  </g>
  <text x="290" y="737" font-size="15">в бак<tspan x="290" dy="15">20KTC21BB002</tspan>
  </text>
  <image x="524.606" y="754.121" width="70" height="70" xlink:href="DS_motor.svg" transform="rotate(0 -0.00012207 -6.10352e-005)">
    <title>&quot;20FAK81AP001&quot;</title>
    <rt:dyn type="KKS" mode="constant" value="&quot;20FAK81AP001&quot;"/> 
    <rt:dyn type="DATA_NARY" mode="constant" value="&quot;TPTS&quot;"/> 
    <rt:dyn type="Operate" mode="constant" value="true"/> 
  </image>
  <text x="559.939" y="751.212" fill="black" font-size="15" text-anchor="middle">
    <title>21FAK14AA002</title>
20FAK81AP001</text>
  <image x="359" y="797" width="175" height="25" xlink:href="DS_ana.svg">
    <title>&quot;20FAK81CP001&quot;</title>
    <rt:dyn type="FKKS" mode="constant" value="&quot;20FAK81CP001&quot;"/> 
    <rt:dyn type="ShowFrame" mode="constant" value="true"/> 
    <rt:dyn type="X" mode="constant" value="&quot;P&quot;"/> 
    <rt:dyn type="Color_Readings" mode="constant" value="true"/> 
    <rt:dyn type="ValueToTheRight" mode="constant" value="false"/> 
  </image>
  <image x="595.091" y="758.151" width="175" height="25" xlink:href="DS_ana.svg">
    <title>&quot;20FAK81CP002&quot;</title>
    <rt:dyn type="FKKS" mode="constant" value="&quot;20FAK81CP002&quot;"/> 
    <rt:dyn type="ShowFrame" mode="constant" value="true"/> 
    <rt:dyn type="X" mode="constant" value="&quot;P&quot;"/> 
    <rt:dyn type="Color_Readings" mode="constant" value="true"/> 
    <rt:dyn type="ValueToTheRight" mode="constant" value="false"/> 
  </image>
  <image x="767.09" y="766.697" width="70" height="52.5" xlink:href="DS_reflux_valve.svg" transform="rotate(180 0 -3.75006)"/> 
  <text x="808" y="824.318" fill="black" font-size="15" text-anchor="middle">20FAK81<tspan x="808" dy="15">AA601</tspan>
  </text>
  <image x="595.091" y="797" width="175" height="25" xlink:href="DS_ana.svg">
    <title>&quot;20FAK81CF001&quot;</title>
    <rt:dyn type="FKKS" mode="constant" value="&quot;20FAK81CF001&quot;"/> 
    <rt:dyn type="ShowFrame" mode="constant" value="true"/> 
    <rt:dyn type="X" mode="constant" value="&quot;F&quot;"/> 
    <rt:dyn type="Color_Readings" mode="constant" value="true"/> 
    <rt:dyn type="ValueToTheRight" mode="constant" value="false"/> 
  </image>
  <text x="558.273" y="636.742" font-size="15">21FAK14<tspan x="558.273" dy="15">BN001</tspan>
  </text>
  <line x1="313" y1="637.002" x2="313" y2="718.303" stroke="black"/> 
  <image x="789.834" y="554.894" width="70" height="65" xlink:href="DS_CO_valve.svg" transform="rotate(180 0 0) flipY(-10.0001) rotate(90 -0.00012207 -10.0001)">
    <rt:dyn type="KKS" mode="constant" value="&quot;NULL&quot;"/> 
    <rt:dyn type="DATA_NARY" mode="constant" value="&quot;TPTS&quot;"/> 
    <rt:dyn type="Operate" mode="constant" value="true"/> 
    <rt:dyn type="Drive" mode="constant" value="&quot;none&quot;"/> 
  </image>
  <text x="885.046" y="605.121" fill="black" font-size="15" text-anchor="middle">
    <title>21FAK14AA002</title>
20FAK81<tspan x="885.046" dy="15">AA110</tspan>
  </text>
  <image x="420" y="648.5" width="70" height="65" xlink:href="DS_CO_valve.svg" transform="rotate(0 0 0) flipY(-10.0001) rotate(90 -0.00012207 -10.0001)">
    <rt:dyn type="KKS" mode="constant" value="&quot;NULL&quot;"/> 
    <rt:dyn type="DATA_NARY" mode="constant" value="&quot;TPTS&quot;"/> 
    <rt:dyn type="Operate" mode="constant" value="true"/> 
    <rt:dyn type="Drive" mode="constant" value="&quot;none&quot;"/> 
  </image>
  <text x="513.485" y="671.288" fill="black" font-size="15" text-anchor="middle">
    <title>21FAK14AA002</title>
20FAK81<tspan x="513.485" dy="15">AA103</tspan>
  </text>
  <text x="361" y="512.046" fill="black" font-size="15" text-anchor="middle">
    <title>21FAK14AA002</title>
20FAK81<tspan x="361" dy="15">AA104</tspan>
  </text>
  <image x="335.061" y="585.576" width="70" height="65" xlink:href="DS_CO_valve.svg" transform="rotate(270 0 0) flipY(-10.0001) rotate(90 -0.00012207 -10.0001)">
    <rt:dyn type="KKS" mode="constant" value="&quot;NULL&quot;"/> 
    <rt:dyn type="DATA_NARY" mode="constant" value="&quot;TPTS&quot;"/> 
    <rt:dyn type="Operate" mode="constant" value="true"/> 
    <rt:dyn type="Drive" mode="constant" value="&quot;none&quot;"/> 
  </image>
  <text x="361" y="668.258" fill="black" font-size="15" text-anchor="middle">
    <title>21FAK14AA002</title>
20FAK81<tspan x="361" dy="15">AA101</tspan>
  </text>
  <image x="527.97" y="535.242" width="100" height="25" xlink:href="obj_link.svg">
    <rt:dyn type="TextStr" mode="constant" value="&quot;FAK_JMN&quot;"/> 
    <rt:dyn type="ModName" mode="constant" value="&quot;fak_jmn&quot;"/> 
  </image>
  <image x="790.5" y="679.894" width="70" height="65" xlink:href="DS_Reg_valve.svg" transform="rotate(270 -0.00012207 -10.0001)">
    <rt:dyn type="DATA_NARY" mode="constant" value="&quot;NONE&quot;"/> 
  </image>
  <polygon points="317.5,238.5 317.5,390.171 537.5,388.501 537.5,238.5" fill="Col_Grey4" stroke="black" stroke-width="3"/> 
  <text x="365.13" y="263.201" font-size="15">21FAK14BB001</text>
  <image x="340" y="359" width="175" height="25" xlink:href="DS_ana_900.svg">
    <title>&quot;21FAK14CL901&quot;</title>
    <rt:dyn type="FKKS" mode="constant" value="&quot;21FAK14CL901&quot;"/> 
    <rt:dyn type="ShowFrame" mode="constant" value="true"/> 
    <rt:dyn type="X" mode="constant" value="&quot;L&quot;"/> 
    <rt:dyn type="Color_Readings" mode="constant" value="true"/> 
    <rt:dyn type="ValueToTheRight" mode="constant" value="false"/> 
    <rt:dyn type="Show_MIS" mode="constant" value="true"/> 
  </image>
  <image x="316.15" y="283.401" width="25" height="100" xlink:href="DS_ana_bar.svg">
    <title>&quot;21FAK14CL901&quot;</title>
    <rt:dyn type="FKKS" mode="constant" value="&quot;21FAK14CL901&quot;"/> 
  </image>
  <image x="403" y="421" width="70" height="52.5" xlink:href="DS_reflux_valve.svg" transform="flipY(-7.50012) rotate(90 0 0) flipX(2.54714e-005) rotate(180 0 -3.75006)">
    <title>&quot;21FAK14AA601&quot;</title>
    <rt:dyn type="KKS" mode="constant" value="&quot;21FAK14AA601&quot;"/> 
    <rt:dyn type="DATA_NARY" mode="constant" value="&quot;BIN&quot;"/> 
    <rt:dyn type="SIG_Open" mode="constant" value="&quot;XG11&quot;"/> 
    <rt:dyn type="SIG_Close" mode="constant" value="&quot;XG61&quot;"/> 
  </image>
  <image x="458.121" y="496" width="70" height="65" xlink:href="DS_CO_valve.svg" transform="rotate(270 0 0) flipY(-10.0001) rotate(90 -0.00012207 -10.0001)">
    <title>&quot;21FAK14AA002&quot;</title>
    <rt:dyn type="KKS" mode="constant" value="&quot;21FAK14AA002&quot;"/> 
    <rt:dyn type="DATA_NARY" mode="constant" value="&quot;TPTS&quot;"/> 
    <rt:dyn type="Operate" mode="constant" value="true"/> 
  </image>
  <line x1="290" y1="562" x2="416" y2="562" stroke="black"/> 
  <image x="230" y="626.394" width="75" height="25" xlink:href="obj_link.svg" transform="flipX(37.4999)">
    <rt:dyn type="ModName" mode="constant" value="&quot;ktc&quot;"/> 
    <rt:dyn type="TextStr" mode="constant" value="&quot;KTC&quot;"/> 
  </image>
  <image x="230" y="550.121" width="75" height="25" xlink:href="obj_link.svg" transform="flipX(37.4999)">
    <rt:dyn type="ModName" mode="constant" value="&quot;kua10_50&quot;"/> 
    <rt:dyn type="TextStr" mode="constant" value="&quot;KUA10&quot;"/> 
  </image>
  <image x="335.121" y="508.167" width="70" height="65" xlink:href="DS_CO_valve.svg" transform="rotate(270 7.53547e-005 8.25723e-005) flipY(-10.0001) rotate(90 -0.00012207 -10.0001)">
    <rt:dyn type="KKS" mode="constant" value="&quot;NULL&quot;"/> 
    <rt:dyn type="DATA_NARY" mode="constant" value="&quot;TPTS&quot;"/> 
    <rt:dyn type="Operate" mode="constant" value="true"/> 
    <rt:dyn type="Drive" mode="constant" value="&quot;none&quot;"/> 
  </image>
  <line x1="125.273" y1="212" x2="450" y2="212" stroke="black"/> 
  <image x="248.516" y="159.606" width="70" height="65" xlink:href="DS_CO_valve.svg" transform="rotate(270 0 0) flipY(-10.0001) rotate(90 -0.00012207 -10.0001)">
    <rt:dyn type="KKS" mode="constant" value="&quot;NULL&quot;"/> 
    <rt:dyn type="DATA_NARY" mode="constant" value="&quot;TPTS&quot;"/> 
    <rt:dyn type="Operate" mode="constant" value="true"/> 
    <rt:dyn type="Drive" mode="constant" value="&quot;none&quot;"/> 
  </image>
  <g transform="flipX(1400.11)">
    <line x1="1036.73" y1="145.046" x2="1261.33" y2="145.046" stroke="black"/> 
    <line x1="1075.22" y1="300" x2="1010.73" y2="300" stroke="black" stroke-width="3"/> 
    <line x1="1176.21" y1="299.167" x2="1175.22" y2="375" stroke="black" stroke-width="3"/> 
    <line x1="1176.22" y1="375" x2="1075.22" y2="375" stroke="black" stroke-width="3"/> 
    <line x1="1075" y1="375" x2="1075" y2="301.167" stroke="black" stroke-width="3"/> 
    <line x1="1140" y1="212.046" x2="1140" y2="365.151" stroke="black"/> 
    <path d="M910.003 0.771004 A8.80483 8.80483 0 1 1 910.003 18.381 " fill="none" stroke="black" stroke-width="1" transform="flipY() translate(0 -828) translate(229.642 442.62)"/> 
    <line x1="1125.22" y1="419" x2="1140.58" y2="419.046" stroke="black"/> 
    <line x1="1139.55" y1="384.652" x2="1139.55" y2="419.5" stroke="black"/> 
    <line x1="1261.12" y1="145.046" x2="1261.12" y2="211.531" stroke="black"/> 
    <image x="1167.24" y="93.1065" width="70" height="65" xlink:href="DS_CO_valve.svg" transform="rotate(270 0 0) flipY(-10.0001) rotate(90 -0.00012207 -10.0001)">
      <rt:dyn type="KKS" mode="constant" value="&quot;NULL&quot;"/> 
      <rt:dyn type="DATA_NARY" mode="constant" value="&quot;TPTS&quot;"/> 
      <rt:dyn type="Operate" mode="constant" value="true"/> 
      <rt:dyn type="Drive" mode="constant" value="&quot;none&quot;"/> 
    </image>
    <image x="1094.82" y="222.076" width="70" height="65" xlink:href="DS_CO_valve.svg" transform="rotate(180 2.17865e-007 -3.47475e-007) flipY(-10.0001) rotate(90 -0.00012207 -10.0001)">
      <rt:dyn type="KKS" mode="constant" value="&quot;NULL&quot;"/> 
      <rt:dyn type="DATA_NARY" mode="constant" value="&quot;TPTS&quot;"/> 
      <rt:dyn type="Operate" mode="constant" value="true"/> 
      <rt:dyn type="Drive" mode="constant" value="&quot;none&quot;"/> 
    </image>
    <line x1="1023" y1="354.046" x2="1023.22" y2="440" stroke="black"/> 
    <line x1="996.735" y1="441.046" x2="1125.73" y2="441.046" stroke="black"/> 
    <line x1="1125" y1="375.593" x2="1125" y2="441" stroke="black"/> 
    <image x="1052.85" y="388.44" width="70" height="65" xlink:href="DS_CO_valve.svg" transform="rotate(270 0 0) flipY(-10.0001) rotate(90 -0.00012207 -10.0001)">
      <rt:dyn type="KKS" mode="constant" value="&quot;NULL&quot;"/> 
      <rt:dyn type="DATA_NARY" mode="constant" value="&quot;TPTS&quot;"/> 
      <rt:dyn type="Operate" mode="constant" value="true"/> 
      <rt:dyn type="Drive" mode="constant" value="&quot;none&quot;"/> 
    </image>
    <polyline points="1013.22,336 1022.78,354.922 1036.22,337" fill="none" stroke="black"/> 
    <line x1="1022.73" y1="301.046" x2="1022.73" y2="337.046" stroke="black"/> 
    <line x1="1364.73" y1="391.349" x2="1363.73" y2="791.046" stroke="black" stroke-width="3"/> 
    <polyline points="1361.73,790.046 1753.73,789.046 1753.85,213.682 1354.73,212.046 1354.73,245.379" fill="none" stroke="black" stroke-width="3"/> 
    <line x1="1204.97" y1="638.046" x2="1362.73" y2="637.046" stroke="black"/> 
    <line x1="1586.06" y1="374.925" x2="1586.06" y2="522.652" stroke="black" stroke-width="3"/> 
    <line x1="1255.42" y1="300.046" x2="1175.22" y2="300" stroke="black" stroke-width="3"/> 
    <g transform="flipY(394.747)">
      <circle cx="1586.87" cy="238.292" r="28.7879" fill="none" stroke="black" stroke-width="3"/> 
      <line x1="1567.37" y1="218.643" x2="1555.25" y2="130.764" stroke="black" stroke-width="3"/> 
      <line x1="1606.76" y1="218.643" x2="1618.88" y2="132.764" stroke="black" stroke-width="3"/> 
      <line x1="1555.25" y1="132.28" x2="1620.4" y2="132.28" stroke="black" stroke-width="3"/> 
    </g>
    <line x1="1363.73" y1="549.046" x2="1559.73" y2="549.046" stroke="black" stroke-width="3"/> 
    <line x1="1582.55" y1="688.046" x2="1668.73" y2="688.046" stroke="black" stroke-width="3"/> 
    <image x="1561.06" y="426.546" width="70" height="65" xlink:href="DS_CO_valve.svg" transform="flipY(-10.0001) rotate(90 -0.00012207 -10.0001)">
      <title>&quot;22FAK24AA001&quot;</title>
      <rt:dyn type="KKS" mode="constant" value="&quot;22FAK24AA001&quot;"/> 
      <rt:dyn type="DATA_NARY" mode="constant" value="&quot;TPTS&quot;"/> 
      <rt:dyn type="Operate" mode="constant" value="true"/> 
    </image>
    <line x1="1584.55" y1="689.319" x2="1584.55" y2="657.5" stroke="black" stroke-width="3"/> 
    <line x1="1670.73" y1="709.016" x2="1670.73" y2="361.682" stroke="black" stroke-width="3"/> 
    <line x1="1584.55" y1="375.046" x2="1670.73" y2="375.046" stroke="black" stroke-width="3"/> 
    <g transform="rotate(180 1210.44 541.647)">
      <g transform="rotate(90 1212.44 532.643)">
        <polygon points="1496.4,-259.487 1509.78,-251.843 1509.78,-267.13 1496.4,-259.487" fill="black" stroke="black" stroke-width="1" transform="rotate(180 1279.17 367.814)"/> 
      </g>
    </g>
    <g transform="rotate(180 1210.44 541.647)">
      <g transform="rotate(90 1212.44 532.643)">
        <polygon points="1143.58,-259.972 1156.96,-252.328 1156.96,-267.615 1143.58,-259.972" fill="black" stroke="black" stroke-width="1" transform="rotate(180 1279.17 367.814)"/> 
      </g>
    </g>
    <image x="1636.15" y="506.44" width="70" height="70" xlink:href="DS_motor.svg" transform="rotate(270 -0.00012207 -6.10352e-005)">
      <title>&quot;22FAK20AP001&quot;</title>
      <rt:dyn type="KKS" mode="constant" value="&quot;22FAK20AP001&quot;"/> 
      <rt:dyn type="DATA_NARY" mode="constant" value="&quot;TPTS&quot;"/> 
    </image>
    <line x1="1334.21" y1="560.683" x2="1333.73" y2="638.046" stroke="black"/> 
    <g transform="rotate(270 539.5 743) rotate(180 1212.44 532.643)">
      <polygon points="698.446,1105.47 711.826,1113.11 711.826,1097.82 698.446,1105.47" fill="black" stroke="black" stroke-width="1" transform="rotate(180 1279.17 367.814)"/> 
    </g>
    <image x="1451.34" y="754.167" width="70" height="70" xlink:href="DS_motor.svg" transform="rotate(0 -0.00012207 -6.10352e-005)">
      <title>&quot;20FAK82AP001&quot;</title>
      <rt:dyn type="KKS" mode="constant" value="&quot;20FAK82AP001&quot;"/> 
      <rt:dyn type="DATA_NARY" mode="constant" value="&quot;TPTS&quot;"/> 
      <rt:dyn type="Operate" mode="constant" value="true"/> 
    </image>
    <image x="1689.82" y="766.743" width="70" height="52.5" xlink:href="DS_reflux_valve.svg" transform="rotate(180 0 -3.75006)"/> 
    <line x1="1231.73" y1="637.048" x2="1231.73" y2="718.349" stroke="black"/> 
    <image x="1708.56" y="554.94" width="70" height="65" xlink:href="DS_CO_valve.svg" transform="rotate(180 0 0) flipY(-10.0001) rotate(90 -0.00012207 -10.0001)">
      <rt:dyn type="KKS" mode="constant" value="&quot;NULL&quot;"/> 
      <rt:dyn type="DATA_NARY" mode="constant" value="&quot;TPTS&quot;"/> 
      <rt:dyn type="Operate" mode="constant" value="true"/> 
      <rt:dyn type="Drive" mode="constant" value="&quot;none&quot;"/> 
    </image>
    <image x="1338.73" y="648.546" width="70" height="65" xlink:href="DS_CO_valve.svg" transform="rotate(0 0 0) flipY(-10.0001) rotate(90 -0.00012207 -10.0001)">
      <rt:dyn type="KKS" mode="constant" value="&quot;NULL&quot;"/> 
      <rt:dyn type="DATA_NARY" mode="constant" value="&quot;TPTS&quot;"/> 
      <rt:dyn type="Operate" mode="constant" value="true"/> 
      <rt:dyn type="Drive" mode="constant" value="&quot;none&quot;"/> 
    </image>
    <image x="1253.79" y="585.622" width="70" height="65" xlink:href="DS_CO_valve.svg" transform="rotate(270 0 0) flipY(-10.0001) rotate(90 -0.00012207 -10.0001)">
      <rt:dyn type="KKS" mode="constant" value="&quot;NULL&quot;"/> 
      <rt:dyn type="DATA_NARY" mode="constant" value="&quot;TPTS&quot;"/> 
      <rt:dyn type="Operate" mode="constant" value="true"/> 
      <rt:dyn type="Drive" mode="constant" value="&quot;none&quot;"/> 
    </image>
    <image x="1709.23" y="679.94" width="70" height="65" xlink:href="DS_Reg_valve.svg" transform="rotate(270 -0.00012207 -10.0001)">
      <rt:dyn type="DATA_NARY" mode="constant" value="&quot;NONE&quot;"/> 
    </image>
    <polygon points="1236.23,238.546 1236.23,390.217 1456.23,388.547 1456.23,238.546" fill="Col_Grey4" stroke="black" stroke-width="3"/> 
    <image x="1234.88" y="283.447" width="25" height="100" xlink:href="DS_ana_bar.svg">
      <title>&quot;22FAK24CL901&quot;</title>
      <rt:dyn type="FKKS" mode="constant" value="&quot;22FAK24CL901&quot;"/> 
    </image>
    <image x="1321.73" y="421.046" width="70" height="52.5" xlink:href="DS_reflux_valve.svg" transform="flipY(-7.50012) rotate(90 0 0) flipX(2.54714e-005) rotate(180 0 -3.75006)">
      <title>&quot;22FAK24AA601&quot;</title>
      <rt:dyn type="KKS" mode="constant" value="&quot;22FAK24AA601&quot;"/> 
      <rt:dyn type="DATA_NARY" mode="constant" value="&quot;BIN&quot;"/> 
      <rt:dyn type="SIG_Open" mode="constant" value="&quot;XG11&quot;"/> 
      <rt:dyn type="SIG_Close" mode="constant" value="&quot;XG61&quot;"/> 
    </image>
    <image x="1376.85" y="496.046" width="70" height="65" xlink:href="DS_CO_valve.svg" transform="rotate(270 0 0) flipY(-10.0001) rotate(90 -0.00012207 -10.0001)">
      <title>&quot;22FAK24AA002&quot;</title>
      <rt:dyn type="KKS" mode="constant" value="&quot;22FAK24AA002&quot;"/> 
      <rt:dyn type="DATA_NARY" mode="constant" value="&quot;TPTS&quot;"/> 
      <rt:dyn type="Operate" mode="constant" value="true"/> 
    </image>
    <line x1="1208.73" y1="562.046" x2="1334.73" y2="562.046" stroke="black"/> 
    <image x="1253.85" y="508.213" width="70" height="65" xlink:href="DS_CO_valve.svg" transform="rotate(270 7.53547e-005 8.25723e-005) flipY(-10.0001) rotate(90 -0.00012207 -10.0001)">
      <rt:dyn type="KKS" mode="constant" value="&quot;NULL&quot;"/> 
      <rt:dyn type="DATA_NARY" mode="constant" value="&quot;TPTS&quot;"/> 
      <rt:dyn type="Operate" mode="constant" value="true"/> 
      <rt:dyn type="Drive" mode="constant" value="&quot;none&quot;"/> 
    </image>
    <line x1="1044" y1="212.046" x2="1368.73" y2="212.046" stroke="black"/> 
    <image x="1167.24" y="159.652" width="70" height="65" xlink:href="DS_CO_valve.svg" transform="rotate(270 0 0) flipY(-10.0001) rotate(90 -0.00012207 -10.0001)">
      <rt:dyn type="KKS" mode="constant" value="&quot;NULL&quot;"/> 
      <rt:dyn type="DATA_NARY" mode="constant" value="&quot;TPTS&quot;"/> 
      <rt:dyn type="Operate" mode="constant" value="true"/> 
      <rt:dyn type="Drive" mode="constant" value="&quot;none&quot;"/> 
    </image>
  </g>
  <g>
    <image x="1303" y="837" width="25" height="25" xlink:href="bin_indicator.svg">
      <title>&quot;20FAK82EZ001_ZV02&quot;</title>
      <rt:dyn type="PointID" mode="constant" value="&quot;20FAK82EZ001_ZV02&quot;"/> 
    </image>
    <text x="1336" y="854" font-size="15">F &gt; 12 M3/Ч</text>
    <image x="1303" y="869" width="25" height="25" xlink:href="bin_indicator.svg">
      <title>&quot;20FAK82EZ001_ZV53&quot;</title>
      <rt:dyn type="PointID" mode="constant" value="&quot;20FAK82EZ001_ZV53&quot;"/> 
    </image>
    <text x="1336" y="886" font-size="15">P ВСАС &lt; 50 KПА</text>
    <image x="1303" y="900" width="25" height="25" xlink:href="bin_indicator.svg">
      <title>&quot;20FAK82EZ001_ZV52&quot;</title>
      <rt:dyn type="PointID" mode="constant" value="&quot;20FAK82EZ001_ZV52&quot;"/> 
    </image>
    <text x="1336" y="917" font-size="15">F &lt; 4 M3/Ч</text>
    <image x="1303" y="932" width="25" height="25" xlink:href="bin_indicator.svg">
      <title>&quot;20FAK82EZ001_ZV51&quot;</title>
      <rt:dyn type="PointID" mode="constant" value="&quot;20FAK82EZ001_ZV51&quot;"/> 
    </image>
    <text x="1336" y="949" font-size="15">P НАПОР &lt; 0,33 МПА</text>
  </g>
  <image x="1349" y="797" width="175" height="25" xlink:href="DS_ana.svg">
    <title>&quot;20FAK82CP001&quot;</title>
    <rt:dyn type="FKKS" mode="constant" value="&quot;20FAK82CP001&quot;"/> 
    <rt:dyn type="ShowFrame" mode="constant" value="true"/> 
    <rt:dyn type="X" mode="constant" value="&quot;P&quot;"/> 
    <rt:dyn type="Color_Readings" mode="constant" value="true"/> 
    <rt:dyn type="ValueToTheRight" mode="constant" value="false"/> 
  </image>
  <image x="1106" y="758.151" width="175" height="25" xlink:href="DS_ana.svg">
    <title>&quot;20FAK82CP002&quot;</title>
    <rt:dyn type="FKKS" mode="constant" value="&quot;20FAK82CP002&quot;"/> 
    <rt:dyn type="ShowFrame" mode="constant" value="true"/> 
    <rt:dyn type="X" mode="constant" value="&quot;P&quot;"/> 
    <rt:dyn type="Color_Readings" mode="constant" value="true"/> 
    <rt:dyn type="ValueToTheRight" mode="constant" value="false"/> 
  </image>
  <image x="1106" y="797" width="175" height="25" xlink:href="DS_ana.svg">
    <title>&quot;20FAK82CF001&quot;</title>
    <rt:dyn type="FKKS" mode="constant" value="&quot;20FAK82CF001&quot;"/> 
    <rt:dyn type="ShowFrame" mode="constant" value="true"/> 
    <rt:dyn type="X" mode="constant" value="&quot;F&quot;"/> 
    <rt:dyn type="Color_Readings" mode="constant" value="true"/> 
    <rt:dyn type="ValueToTheRight" mode="constant" value="false"/> 
  </image>
  <text x="994.5" y="604.5" fill="black" font-size="15" text-anchor="middle">
    <title>21FAK14AA002</title>
20FAK82<tspan x="994.5" dy="15">AA110</tspan>
  </text>
  <text x="1067.5" y="823.5" fill="black" font-size="15" text-anchor="middle">20FAK82<tspan x="1067.5" dy="15">AA601</tspan>
  </text>
  <text x="1089.5" y="496.5" fill="black" font-size="15" text-anchor="middle">22FAK20<tspan x="1089.5" dy="15">AP001</tspan>
  </text>
  <text x="1264.5" y="425" fill="black" font-size="15" text-anchor="middle">
    <title>22FAK24AA002</title>
22FAK24<tspan x="1264.5" dy="15">AA001</tspan>
  </text>
  <text x="1498.5" y="433.5" fill="black" font-size="15" text-anchor="middle">22FAK24<tspan x="1498.5" dy="15">AA601</tspan>
  </text>
  <text x="1545" y="736" font-size="15">в бак<tspan x="1545" dy="15">20KTC22BB002</tspan>
  </text>
  <text x="1395.64" y="577.651" fill="black" font-size="15" text-anchor="middle">
    <title>21FAK14AA002</title>
22FAK24<tspan x="1395.64" dy="15">AA002</tspan>
  </text>
  <text x="1380" y="668.758" fill="black" font-size="15" text-anchor="middle">
    <title>21FAK14AA002</title>
20FAK82<tspan x="1380" dy="15">AA103</tspan>
  </text>
  <text x="1520" y="511" fill="black" font-size="15" text-anchor="middle">
    <title>21FAK14AA002</title>
20FAK82<tspan x="1520" dy="15">AA104</tspan>
  </text>
  <text x="1522.5" y="669.712" fill="black" font-size="15" text-anchor="middle">
    <title>21FAK14AA002</title>
20FAK82<tspan x="1522.5" dy="15">AA101</tspan>
  </text>
  <text x="1820" y="241.5" fill="black" font-size="15" text-anchor="middle">дистиллят</text>
  <image x="1582.35" y="549.5" width="75" height="25" xlink:href="obj_link.svg">
    <rt:dyn type="TextStr" mode="constant" value="&quot;KUA10&quot;"/> 
    <rt:dyn type="ModName" mode="constant" value="&quot;kua10&quot;"/> 
  </image>
  <image x="1576.35" y="623.561" width="85" height="25" xlink:href="obj_link.svg">
    <rt:dyn type="TextStr" mode="constant" value="&quot;KTC&quot;"/> 
    <rt:dyn type="ModName" mode="constant" value="&quot;ktc&quot;"/> 
  </image>
  <text x="1776.5" y="129" fill="black" font-size="15" text-anchor="middle">NH4OH, KOH, H3BO3 40 г/кг</text>
  <text x="1604" y="242" fill="black" font-size="15" text-anchor="middle">
    <title>21FAK14AA002</title>
20FAK82<tspan x="1604" dy="15">AA112</tspan>
  </text>
  <text x="1604.32" y="96.5" fill="black" font-size="15" text-anchor="middle">
    <title>21FAK14AA002</title>
20FAK82<tspan x="1604.32" dy="15">AA113</tspan>
  </text>
  <text x="1731" y="266.5" fill="black" font-size="15" text-anchor="middle">
    <title>21FAK14AA002</title>
20FAK82<tspan x="1731" dy="15">AA106</tspan>
  </text>
  <text x="1850" y="480" fill="black" font-size="15" text-anchor="middle">в бак<tspan x="1850" dy="15">20KTC22BB001</tspan>
  </text>
  <text x="1722.5" y="471" fill="black" font-size="15" text-anchor="middle">
    <title>21FAK14AA002</title>
20FAK82<tspan x="1722.5" dy="15">AA105</tspan>
  </text>
  <text x="1741.85" y="632.197" fill="black" font-size="15" text-anchor="middle">на всас насоса<tspan x="1741.85" dy="15">20KTC22AP001</tspan>
  </text>
  <image x="1345" y="360" width="175" height="25" xlink:href="DS_ana_900.svg">
    <title>&quot;22FAK24CL901&quot;</title>
    <rt:dyn type="FKKS" mode="constant" value="&quot;22FAK24CL901&quot;"/> 
    <rt:dyn type="ShowFrame" mode="constant" value="true"/> 
    <rt:dyn type="X" mode="constant" value="&quot;L&quot;"/> 
    <rt:dyn type="Color_Readings" mode="constant" value="true"/> 
    <rt:dyn type="ValueToTheRight" mode="constant" value="false"/> 
    <rt:dyn type="Show_MIS" mode="constant" value="true"/> 
  </image>
  <image x="1790" y="428" width="85" height="25" xlink:href="obj_link.svg">
    <rt:dyn type="TextStr" mode="constant" value="&quot;KTC&quot;"/> 
    <rt:dyn type="ModName" mode="constant" value="&quot;ktc&quot;"/> 
  </image>
  <text x="1395" y="263.5" font-size="15">22FAK24BB001</text>
  <text x="1311" y="752" fill="black" font-size="15" text-anchor="middle">
    <title>21FAK14AA002</title>
20FAK82AP001</text>
  <image x="850" y="913" width="175" height="36" xlink:href="obj_Button.svg">
    <rt:dyn type="Label" mode="constant" value="&quot;FAK_TZB&quot;"/> 
    <rt:event type="OnClick">LoadNew(&quot;fak_tzb&quot;)</rt:event>
    <rt:dyn type="T_Size" mode="constant" value="22"/> 
  </image>
  <rect x="931" y="291.151" width="21" height="549.758" rx="0" ry="0" fill="url(#PortalHatch1)" stroke="black" stroke-width="3"/> 
  <image x="1280.97" y="535.848" width="100" height="25" xlink:href="obj_link.svg" transform="flipX(37.4999)">
    <rt:dyn type="ModName" mode="constant" value="&quot;fak_jmn&quot;"/> 
    <rt:dyn type="TextStr" mode="constant" value="&quot;FAK_JMN&quot;"/> 
  </image>
  <text x="1249.42" y="636.803" font-size="15">22FAK24<tspan x="1249.42" dy="15">BN001</tspan>
  </text>
  <image x="1745" y="133" width="75" height="25" xlink:href="obj_link.svg" transform="flipX(37.4999)">
    <rt:dyn type="ModName" mode="constant" value="&quot;kpj2&quot;"/> 
    <rt:dyn type="TextStr" mode="constant" value="&quot;KPJ2&quot;"/> 
  </image>
  <image x="1750" y="200" width="100" height="25" xlink:href="obj_link.svg" transform="flipX(37.4999)">
    <rt:dyn type="ModName" mode="constant" value="&quot;kbc10_30&quot;"/> 
    <rt:dyn type="TextStr" mode="constant" value="&quot;KBC10-30&quot;"/> 
  </image>
  <text x="883" y="708.5" fill="black" font-size="15" text-anchor="middle">
    <title>21FAK14AA002</title>
20FAK81<tspan x="883" dy="15">AA201</tspan>
  </text>
  <text x="994" y="708.5" fill="black" font-size="15" text-anchor="middle">
    <title>21FAK14AA002</title>
20FAK82<tspan x="994" dy="15">AA201</tspan>
  </text>
</svg>
