<?xml  version="1.0" encoding="windows-1251"?>
<svg color="Col_BGSand" xmlns="http://www.w3.org/2000/svg" xmlns:rt="http://www.rts.co.at/2001/XMLSchema/RtSvgPL" xmlns:xlink="http://www.w3.org/1999/xlink" xmlns:xsi="http://www.w3.org/2001/XMLSchema-instance" xsi:schemaLocation="http://www.w3.org/2000/svg C:\RTS\RtSvg\XML\SVG.xsd" viewBox="0 0 1914 1000" width="1914" height="1000" id="ga_jng">
  <title>Гидроамортизаторы САОЗ</title>
  <rt:model modelversion="7.2.0.24" comment="UMod all_akga" revision="3"/> 
  <text x="747.44" y="64.4167" font-size="30" font-weight="700">Гидроамортизаторы САОЗ</text>
  <line x1="452" y1="384" x2="452" y2="384" stroke="black"/> 
  <line x1="-106.636" y1="315.151" x2="-106.636" y2="315.151" stroke="black"/> 
  <line x1="1568.18" y1="675" x2="1568.18" y2="675" stroke="black"/> 
  <line x1="813.048" y1="536.75" x2="1103.05" y2="35.5002" stroke="black" stroke-width="3" transform="flipY() translate(0 -828) translate(0 0)"/> 
  <line x1="1100.55" y1="536.748" x2="812" y2="37" stroke="black" stroke-width="3" transform="flipY() translate(0 -828)"/> 
  <circle cx="894.036" cy="535.379" r="85.5463" fill="Col_Grey4" stroke="black" stroke-width="0.824219" transform="flipY() translate(0 -828) translate(-123.185 -361.059) scale(1.21 1.21)"/> 
  <text x="958.673" y="546.25" font-size="15" text-anchor="middle">20JAA10BB001</text>
  <g transform="flipX(600.001)">
    <g transform="flipX(1157.38)">
      <g>
        <g>
          <rect x="1675.02" y="861.349" width="119" height="5" rx="0" ry="0" fill="#949494" stroke="black" transform="matrix(0.35 -0.606218 0.606218 0.35 651.107 1083.82)"/> 
          <rect x="1759.02" y="851.349" width="15" height="25" rx="0" ry="0" fill="#949494" stroke="black" transform="matrix(0.35 -0.606218 0.606218 0.35 651.107 1083.82)"/> 
          <rect x="1709.02" y="856.349" width="50" height="15" rx="0" ry="0" fill="#949494" stroke="black" transform="matrix(0.35 -0.606218 0.606218 0.35 651.107 1083.82)"/> 
          <rect x="1694.02" y="851.349" width="15" height="25" rx="0" ry="0" fill="#949494" stroke="black" transform="matrix(0.35 -0.606218 0.606218 0.35 651.107 1083.82)"/> 
        </g>
        <path d="M2160.24 202.5 L2145.24 202.5 A15 15 0 1 0 2175.24 202.5 Z" fill="#949494" stroke="black" transform="scale(0.5 0.5 1450 382.5)"/> 
        <rect x="1745.13" y="367.5" width="35" height="9.99991" rx="0" ry="0" fill="url(#PortalHatch1)" stroke="black"/> 
      </g>
      <g transform="flipY(427.5)">
        <g>
          <rect x="1346.33" y="1063.48" width="119" height="5" rx="0" ry="0" fill="#949494" stroke="black" transform="matrix(0.35 -0.606218 0.606218 0.35 651.107 1083.82)"/> 
          <rect x="1430.33" y="1053.48" width="15" height="25" rx="0" ry="0" fill="#949494" stroke="black" transform="matrix(0.35 -0.606218 0.606218 0.35 651.107 1083.82)"/> 
          <rect x="1380.33" y="1058.48" width="50" height="15" rx="0" ry="0" fill="#949494" stroke="black" transform="matrix(0.35 -0.606218 0.606218 0.35 651.107 1083.82)"/> 
          <rect x="1365.33" y="1053.48" width="15" height="25" rx="0" ry="0" fill="#949494" stroke="black" transform="matrix(0.35 -0.606218 0.606218 0.35 651.107 1083.82)"/> 
        </g>
        <path d="M2175.24 742.5 L2160.24 742.5 A15 15 0 1 0 2190.24 742.5 Z" fill="#949494" stroke="black" transform="scale(0.5 0.5 1450 382.5)"/> 
        <rect x="1752.63" y="637.5" width="35" height="9.99991" rx="0" ry="0" fill="url(#PortalHatch1)" stroke="black"/> 
      </g>
    </g>
    <circle cx="883" cy="291.5" r="81.5017" fill="Col_Grey4" stroke="none"/> 
    <line x1="386.001" y1="291.75" x2="888.5" y2="291.75" stroke="black" stroke-width="3"/> 
    <g transform="flipX(1157.38)">
      <g>
        <g>
          <rect x="1405.96" y="389.613" width="119" height="5" rx="0" ry="0" fill="#949494" stroke="black" transform="matrix(0.35 -0.606218 0.606218 0.35 651.107 1083.82)"/> 
          <rect x="1489.96" y="379.613" width="15" height="25" rx="0" ry="0" fill="#949494" stroke="black" transform="matrix(0.35 -0.606218 0.606218 0.35 651.107 1083.82)"/> 
          <rect x="1439.96" y="384.613" width="50" height="15" rx="0" ry="0" fill="#949494" stroke="black" transform="matrix(0.35 -0.606218 0.606218 0.35 651.107 1083.82)"/> 
          <rect x="1424.96" y="379.613" width="15" height="25" rx="0" ry="0" fill="#949494" stroke="black" transform="matrix(0.35 -0.606218 0.606218 0.35 651.107 1083.82)"/> 
        </g>
        <path d="M1399.97 198.5 L1384.97 198.5 A15 15 0 1 0 1414.97 198.5 Z" fill="#949494" stroke="black" transform="scale(0.5 0.5 1450 382.5)"/> 
        <rect x="1365" y="365.5" width="35" height="9.99991" rx="0" ry="0" fill="url(#PortalHatch1)" stroke="black"/> 
      </g>
      <g transform="flipY(427.5)">
        <g>
          <rect x="1072.33" y="594.607" width="119" height="5" rx="0" ry="0" fill="#949494" stroke="black" transform="matrix(0.35 -0.606218 0.606218 0.35 651.107 1083.82)"/> 
          <rect x="1156.33" y="584.607" width="15" height="25" rx="0" ry="0" fill="#949494" stroke="black" transform="matrix(0.35 -0.606218 0.606218 0.35 651.107 1083.82)"/> 
          <rect x="1106.33" y="589.607" width="50" height="15" rx="0" ry="0" fill="#949494" stroke="black" transform="matrix(0.35 -0.606218 0.606218 0.35 651.107 1083.82)"/> 
          <rect x="1091.33" y="584.607" width="15" height="25" rx="0" ry="0" fill="#949494" stroke="black" transform="matrix(0.35 -0.606218 0.606218 0.35 651.107 1083.82)"/> 
        </g>
        <path d="M1414.97 746.5 L1399.97 746.5 A15 15 0 1 0 1429.97 746.5 Z" fill="#949494" stroke="black" transform="scale(0.5 0.5 1450 382.5)"/> 
        <rect x="1372.5" y="639.5" width="35" height="9.99991" rx="0" ry="0" fill="url(#PortalHatch1)" stroke="black"/> 
      </g>
    </g>
  </g>
  <g transform="flipX(600.001)">
    <g transform="flipX(1157.38)">
      <g>
        <g>
          <rect x="1055.53" y="1216.93" width="119" height="5" rx="0" ry="0" fill="#949494" stroke="black" transform="matrix(0.35 -0.606218 0.606218 0.35 651.107 1083.82)"/> 
          <rect x="1139.53" y="1206.93" width="15" height="25" rx="0" ry="0" fill="#949494" stroke="black" transform="matrix(0.35 -0.606218 0.606218 0.35 651.107 1083.82)"/> 
          <rect x="1089.53" y="1211.93" width="50" height="15" rx="0" ry="0" fill="#949494" stroke="black" transform="matrix(0.35 -0.606218 0.606218 0.35 651.107 1083.82)"/> 
          <rect x="1074.53" y="1206.93" width="15" height="25" rx="0" ry="0" fill="#949494" stroke="black" transform="matrix(0.35 -0.606218 0.606218 0.35 651.107 1083.82)"/> 
        </g>
        <path d="M2157.75 1202.5 L2142.75 1202.5 A15 15 0 1 0 2172.75 1202.5 Z" fill="#949494" stroke="black" transform="scale(0.5 0.5 1450 382.5)"/> 
        <rect x="1743.88" y="867.5" width="35" height="9.99991" rx="0" ry="0" fill="url(#PortalHatch1)" stroke="black"/> 
      </g>
      <g transform="flipY(427.5)">
        <g>
          <rect x="1964.03" y="704.799" width="119" height="5" rx="0" ry="0" fill="#949494" stroke="black" transform="matrix(0.35 -0.606218 0.606218 0.35 651.107 1083.82)"/> 
          <rect x="2048.03" y="694.799" width="15" height="25" rx="0" ry="0" fill="#949494" stroke="black" transform="matrix(0.35 -0.606218 0.606218 0.35 651.107 1083.82)"/> 
          <rect x="1998.03" y="699.799" width="50" height="15" rx="0" ry="0" fill="#949494" stroke="black" transform="matrix(0.35 -0.606218 0.606218 0.35 651.107 1083.82)"/> 
          <rect x="1983.03" y="694.799" width="15" height="25" rx="0" ry="0" fill="#949494" stroke="black" transform="matrix(0.35 -0.606218 0.606218 0.35 651.107 1083.82)"/> 
        </g>
        <path d="M2172.75 -257.5 L2157.75 -257.5 A15 15 0 1 0 2187.75 -257.5 Z" fill="#949494" stroke="black" transform="scale(0.5 0.5 1450 382.5)"/> 
        <rect x="1751.38" y="137.5" width="35" height="9.99991" rx="0" ry="0" fill="url(#PortalHatch1)" stroke="black"/> 
      </g>
    </g>
    <circle cx="884.25" cy="791.5" r="81.5017" fill="Col_Grey4" stroke="none"/> 
    <line x1="387.25" y1="791.75" x2="889.75" y2="791.75" stroke="black" stroke-width="3"/> 
    <g transform="flipX(1157.38)">
      <g>
        <g>
          <rect x="786.479" y="745.209" width="119" height="5" rx="0" ry="0" fill="#949494" stroke="black" transform="matrix(0.35 -0.606218 0.606218 0.35 651.107 1083.82)"/> 
          <rect x="870.479" y="735.209" width="15" height="25" rx="0" ry="0" fill="#949494" stroke="black" transform="matrix(0.35 -0.606218 0.606218 0.35 651.107 1083.82)"/> 
          <rect x="820.479" y="740.209" width="50" height="15" rx="0" ry="0" fill="#949494" stroke="black" transform="matrix(0.35 -0.606218 0.606218 0.35 651.107 1083.82)"/> 
          <rect x="805.479" y="735.209" width="15" height="25" rx="0" ry="0" fill="#949494" stroke="black" transform="matrix(0.35 -0.606218 0.606218 0.35 651.107 1083.82)"/> 
        </g>
        <path d="M1397.48 1198.5 L1382.48 1198.5 A15 15 0 1 0 1412.48 1198.5 Z" fill="#949494" stroke="black" transform="scale(0.5 0.5 1450 382.5)"/> 
        <rect x="1363.75" y="865.5" width="35" height="9.99991" rx="0" ry="0" fill="url(#PortalHatch1)" stroke="black"/> 
      </g>
      <g transform="flipY(427.5)">
        <g>
          <rect x="1690.02" y="235.917" width="119" height="5" rx="0" ry="0" fill="#949494" stroke="black" transform="matrix(0.35 -0.606218 0.606218 0.35 651.107 1083.82)"/> 
          <rect x="1774.03" y="225.917" width="15" height="25" rx="0" ry="0" fill="#949494" stroke="black" transform="matrix(0.35 -0.606218 0.606218 0.35 651.107 1083.82)"/> 
          <rect x="1724.03" y="230.917" width="50" height="15" rx="0" ry="0" fill="#949494" stroke="black" transform="matrix(0.35 -0.606218 0.606218 0.35 651.107 1083.82)"/> 
          <rect x="1709.02" y="225.917" width="15" height="25" rx="0" ry="0" fill="#949494" stroke="black" transform="matrix(0.35 -0.606218 0.606218 0.35 651.107 1083.82)"/> 
        </g>
        <path d="M1412.48 -253.5 L1397.48 -253.5 A15 15 0 1 0 1427.48 -253.5 Z" fill="#949494" stroke="black" transform="scale(0.5 0.5 1450 382.5)"/> 
        <rect x="1371.25" y="139.5" width="35" height="9.99991" rx="0" ry="0" fill="url(#PortalHatch1)" stroke="black"/> 
      </g>
    </g>
  </g>
  <text x="352.625" y="762.5" font-size="15" text-anchor="middle">21JNG60<tspan x="352.625" dy="15">BB001</tspan>
  </text>
  <text x="1558.88" y="262.5" font-size="15" text-anchor="middle">12JNG80<tspan x="1558.88" dy="15">BB001</tspan>
  </text>
  <text x="1562.63" y="762.5" font-size="15" text-anchor="middle">12JNG70<tspan x="1562.63" dy="15">BB001</tspan>
  </text>
  <g transform="flipX(1157.38)">
    <g>
      <g>
        <rect x="1165.71" y="-20.7994" width="119" height="5" rx="0" ry="0" fill="#949494" stroke="black" transform="matrix(0.35 -0.606218 0.606218 0.35 651.107 1083.82)"/> 
        <rect x="1249.71" y="-30.7994" width="15" height="25" rx="0" ry="0" fill="#949494" stroke="black" transform="matrix(0.35 -0.606218 0.606218 0.35 651.107 1083.82)"/> 
        <rect x="1199.71" y="-25.7994" width="50" height="15" rx="0" ry="0" fill="#949494" stroke="black" transform="matrix(0.35 -0.606218 0.606218 0.35 651.107 1083.82)"/> 
        <rect x="1184.71" y="-30.7994" width="15" height="25" rx="0" ry="0" fill="#949494" stroke="black" transform="matrix(0.35 -0.606218 0.606218 0.35 651.107 1083.82)"/> 
      </g>
      <path d="M734.146 202.5 L719.146 202.5 A15 15 0 1 0 749.146 202.5 Z" fill="#949494" stroke="black" transform="scale(0.5 0.5 1450 382.5)"/> 
      <rect x="1032.08" y="367.5" width="35" height="9.99991" rx="0" ry="0" fill="url(#PortalHatch1)" stroke="black"/> 
    </g>
    <g transform="flipY(427.5)">
      <g>
        <rect x="837.031" y="181.337" width="119" height="5" rx="0" ry="0" fill="#949494" stroke="black" transform="matrix(0.35 -0.606218 0.606218 0.35 651.107 1083.82)"/> 
        <rect x="921.031" y="171.337" width="15" height="25" rx="0" ry="0" fill="#949494" stroke="black" transform="matrix(0.35 -0.606218 0.606218 0.35 651.107 1083.82)"/> 
        <rect x="871.031" y="176.337" width="50" height="15" rx="0" ry="0" fill="#949494" stroke="black" transform="matrix(0.35 -0.606218 0.606218 0.35 651.107 1083.82)"/> 
        <rect x="856.031" y="171.337" width="15" height="25" rx="0" ry="0" fill="#949494" stroke="black" transform="matrix(0.35 -0.606218 0.606218 0.35 651.107 1083.82)"/> 
      </g>
      <path d="M749.146 742.5 L734.146 742.5 A15 15 0 1 0 764.146 742.5 Z" fill="#949494" stroke="black" transform="scale(0.5 0.5 1450 382.5)"/> 
      <rect x="1039.58" y="637.5" width="35" height="9.99991" rx="0" ry="0" fill="url(#PortalHatch1)" stroke="black"/> 
    </g>
  </g>
  <circle cx="1596.05" cy="291.5" r="81.5017" fill="Col_Grey4" stroke="none"/> 
  <line x1="1099.05" y1="291.75" x2="1601.55" y2="291.75" stroke="black" stroke-width="3"/> 
  <g transform="flipX(1157.38)">
    <g>
      <g>
        <rect x="896.65" y="-492.535" width="119" height="5" rx="0" ry="0" fill="#949494" stroke="black" transform="matrix(0.35 -0.606218 0.606218 0.35 651.107 1083.82)"/> 
        <rect x="980.651" y="-502.535" width="15" height="25" rx="0" ry="0" fill="#949494" stroke="black" transform="matrix(0.35 -0.606218 0.606218 0.35 651.107 1083.82)"/> 
        <rect x="930.651" y="-497.535" width="50" height="15" rx="0" ry="0" fill="#949494" stroke="black" transform="matrix(0.35 -0.606218 0.606218 0.35 651.107 1083.82)"/> 
        <rect x="915.65" y="-502.535" width="15" height="25" rx="0" ry="0" fill="#949494" stroke="black" transform="matrix(0.35 -0.606218 0.606218 0.35 651.107 1083.82)"/> 
      </g>
      <path d="M-26.1129 198.5 L-41.1129 198.5 A15 15 0 1 0 -11.1129 198.5 Z" fill="#949494" stroke="black" transform="scale(0.5 0.5 1450 382.5)"/> 
      <rect x="651.948" y="365.5" width="35" height="9.99991" rx="0" ry="0" fill="url(#PortalHatch1)" stroke="black"/> 
    </g>
    <g transform="flipY(427.5)">
      <g>
        <rect x="563.025" y="-287.54" width="119" height="5" rx="0" ry="0" fill="#949494" stroke="black" transform="matrix(0.35 -0.606218 0.606218 0.35 651.107 1083.82)"/> 
        <rect x="647.027" y="-297.54" width="15" height="25" rx="0" ry="0" fill="#949494" stroke="black" transform="matrix(0.35 -0.606218 0.606218 0.35 651.107 1083.82)"/> 
        <rect x="597.027" y="-292.54" width="50" height="15" rx="0" ry="0" fill="#949494" stroke="black" transform="matrix(0.35 -0.606218 0.606218 0.35 651.107 1083.82)"/> 
        <rect x="582.025" y="-297.54" width="15" height="25" rx="0" ry="0" fill="#949494" stroke="black" transform="matrix(0.35 -0.606218 0.606218 0.35 651.107 1083.82)"/> 
      </g>
      <path d="M-11.1129 746.5 L-26.1129 746.5 A15 15 0 1 0 3.88715 746.5 Z" fill="#949494" stroke="black" transform="scale(0.5 0.5 1450 382.5)"/> 
      <rect x="659.448" y="639.5" width="35" height="9.99991" rx="0" ry="0" fill="url(#PortalHatch1)" stroke="black"/> 
    </g>
  </g>
  <g transform="flipX(1157.38)">
    <g>
      <g>
        <rect x="544.086" y="331.086" width="119" height="5" rx="0" ry="0" fill="#949494" stroke="black" transform="matrix(0.35 -0.606218 0.606218 0.35 651.107 1083.82)"/> 
        <rect x="628.086" y="321.086" width="15" height="25" rx="0" ry="0" fill="#949494" stroke="black" transform="matrix(0.35 -0.606218 0.606218 0.35 651.107 1083.82)"/> 
        <rect x="578.086" y="326.086" width="50" height="15" rx="0" ry="0" fill="#949494" stroke="black" transform="matrix(0.35 -0.606218 0.606218 0.35 651.107 1083.82)"/> 
        <rect x="563.086" y="321.086" width="15" height="25" rx="0" ry="0" fill="#949494" stroke="black" transform="matrix(0.35 -0.606218 0.606218 0.35 651.107 1083.82)"/> 
      </g>
      <path d="M725.643 1202.5 L710.643 1202.5 A15 15 0 1 0 740.643 1202.5 Z" fill="#949494" stroke="black" transform="scale(0.5 0.5 1450 382.5)"/> 
      <rect x="1027.83" y="867.5" width="35" height="9.99991" rx="0" ry="0" fill="url(#PortalHatch1)" stroke="black"/> 
    </g>
    <g transform="flipY(427.5)">
      <g>
        <rect x="1452.58" y="-181.064" width="119" height="5" rx="0" ry="0" fill="#949494" stroke="black" transform="matrix(0.35 -0.606218 0.606218 0.35 651.107 1083.82)"/> 
        <rect x="1536.58" y="-191.064" width="15" height="25" rx="0" ry="0" fill="#949494" stroke="black" transform="matrix(0.35 -0.606218 0.606218 0.35 651.107 1083.82)"/> 
        <rect x="1486.58" y="-186.064" width="50" height="15" rx="0" ry="0" fill="#949494" stroke="black" transform="matrix(0.35 -0.606218 0.606218 0.35 651.107 1083.82)"/> 
        <rect x="1471.58" y="-191.064" width="15" height="25" rx="0" ry="0" fill="#949494" stroke="black" transform="matrix(0.35 -0.606218 0.606218 0.35 651.107 1083.82)"/> 
      </g>
      <path d="M740.643 -257.5 L725.643 -257.5 A15 15 0 1 0 755.643 -257.5 Z" fill="#949494" stroke="black" transform="scale(0.5 0.5 1450 382.5)"/> 
      <rect x="1035.33" y="137.5" width="35" height="9.99991" rx="0" ry="0" fill="url(#PortalHatch1)" stroke="black"/> 
    </g>
  </g>
  <circle cx="1600.3" cy="791.5" r="81.5017" fill="Col_Grey4" stroke="none"/> 
  <line x1="1103.3" y1="791.75" x2="1605.8" y2="791.75" stroke="black" stroke-width="3"/> 
  <g transform="flipX(1157.38)">
    <g>
      <g>
        <rect x="275.026" y="-140.65" width="119" height="5" rx="0" ry="0" fill="#949494" stroke="black" transform="matrix(0.35 -0.606218 0.606218 0.35 651.107 1083.82)"/> 
        <rect x="359.026" y="-150.65" width="15" height="25" rx="0" ry="0" fill="#949494" stroke="black" transform="matrix(0.35 -0.606218 0.606218 0.35 651.107 1083.82)"/> 
        <rect x="309.026" y="-145.65" width="50" height="15" rx="0" ry="0" fill="#949494" stroke="black" transform="matrix(0.35 -0.606218 0.606218 0.35 651.107 1083.82)"/> 
        <rect x="294.026" y="-150.65" width="15" height="25" rx="0" ry="0" fill="#949494" stroke="black" transform="matrix(0.35 -0.606218 0.606218 0.35 651.107 1083.82)"/> 
      </g>
      <path d="M-34.6127 1198.5 L-49.6127 1198.5 A15 15 0 1 0 -19.6127 1198.5 Z" fill="#949494" stroke="black" transform="scale(0.5 0.5 1450 382.5)"/> 
      <rect x="647.698" y="865.5" width="35" height="9.99991" rx="0" ry="0" fill="url(#PortalHatch1)" stroke="black"/> 
    </g>
    <g transform="flipY(427.5)">
      <g>
        <rect x="1178.58" y="-649.941" width="119" height="5" rx="0" ry="0" fill="#949494" stroke="black" transform="matrix(0.35 -0.606218 0.606218 0.35 651.107 1083.82)"/> 
        <rect x="1262.58" y="-659.941" width="15" height="25" rx="0" ry="0" fill="#949494" stroke="black" transform="matrix(0.35 -0.606218 0.606218 0.35 651.107 1083.82)"/> 
        <rect x="1212.58" y="-654.941" width="50" height="15" rx="0" ry="0" fill="#949494" stroke="black" transform="matrix(0.35 -0.606218 0.606218 0.35 651.107 1083.82)"/> 
        <rect x="1197.58" y="-659.941" width="15" height="25" rx="0" ry="0" fill="#949494" stroke="black" transform="matrix(0.35 -0.606218 0.606218 0.35 651.107 1083.82)"/> 
      </g>
      <path d="M-19.6127 -253.5 L-34.6127 -253.5 A15 15 0 1 0 -4.61267 -253.5 Z" fill="#949494" stroke="black" transform="scale(0.5 0.5 1450 382.5)"/> 
      <rect x="655.198" y="139.5" width="35" height="9.99991" rx="0" ry="0" fill="url(#PortalHatch1)" stroke="black"/> 
    </g>
  </g>
  <text x="1375.93" y="646.333" font-size="16" text-anchor="middle">Расхож-<tspan x="1375.93" dy="16">дения</tspan>
  </text>
  <image x="1366.68" y="666.75" width="25" height="25" xlink:href="bin_indicator.svg">
    <title>20JNG70CG103_XG07</title>
    <rt:dyn type="PointID" mode="constant" value="&quot;20JNG70CG103_XG07&quot;"/> 
  </image>
  <text x="1153.05" y="646.333" font-size="16" text-anchor="middle">Понижение<tspan x="1153.05" dy="16">уровня</tspan>
  </text>
  <image x="1178.8" y="666.75" width="175" height="25" xlink:href="DS_ana.svg">
    <title>&quot;20JNG70CG103&quot;</title>
    <rt:dyn type="FKKS" mode="constant" value="&quot;20JNG70CG103&quot;"/> 
    <rt:dyn type="X" mode="constant" value="&quot;S&quot;"/> 
    <rt:dyn type="ShowFrame" mode="constant" value="true"/> 
    <rt:dyn type="Color_Readings" mode="constant" value="true"/> 
    <rt:dyn type="ValueToTheRight" mode="constant" value="false"/> 
  </image>
  <image x="1140.3" y="666.75" width="25" height="25" xlink:href="bin_indicator.svg">
    <title>&quot;20JNG70CL103_XG07&quot;</title>
    <rt:dyn type="PointID" mode="constant" value="&quot;20JNG70CL103_XG07&quot;"/> 
    <rt:dyn type="Col_ON" mode="constant" value="&quot;Col_Green&quot;"/> 
    <rt:dyn type="Col_OFF" mode="constant" value="&quot;Col_Red&quot;"/> 
  </image>
  <text x="1375.93" y="403.333" font-size="16" text-anchor="middle">Расхож-<tspan x="1375.93" dy="16">дения</tspan>
  </text>
  <image x="1366.68" y="423.75" width="25" height="25" xlink:href="bin_indicator.svg">
    <title>20JNG80CG104_XG07</title>
    <rt:dyn type="PointID" mode="constant" value="&quot;20JNG80CG104_XG07&quot;"/> 
  </image>
  <text x="1153.05" y="403.333" font-size="16" text-anchor="middle">Понижение<tspan x="1153.05" dy="16">уровня</tspan>
  </text>
  <image x="1178.8" y="423.75" width="175" height="25" xlink:href="DS_ana.svg">
    <title>&quot;20JNG80CG104&quot;</title>
    <rt:dyn type="FKKS" mode="constant" value="&quot;20JNG80CG104&quot;"/> 
    <rt:dyn type="X" mode="constant" value="&quot;S&quot;"/> 
    <rt:dyn type="ShowFrame" mode="constant" value="true"/> 
    <rt:dyn type="Color_Readings" mode="constant" value="true"/> 
    <rt:dyn type="ValueToTheRight" mode="constant" value="false"/> 
  </image>
  <image x="1140.3" y="423.75" width="25" height="25" xlink:href="bin_indicator.svg">
    <title>&quot;20JNG80CL104_XG07&quot;</title>
    <rt:dyn type="PointID" mode="constant" value="&quot;20JNG80CL104_XG07&quot;"/> 
    <rt:dyn type="Col_ON" mode="constant" value="&quot;Col_Green&quot;"/> 
    <rt:dyn type="Col_OFF" mode="constant" value="&quot;Col_Red&quot;"/> 
  </image>
  <text x="1375.93" y="147.333" font-size="16" text-anchor="middle">Расхож-<tspan x="1375.93" dy="16">дения</tspan>
  </text>
  <image x="1366.68" y="167.75" width="25" height="25" xlink:href="bin_indicator.svg">
    <title>20JNG80CG103_XG07</title>
    <rt:dyn type="PointID" mode="constant" value="&quot;20JNG80CG103_XG07&quot;"/> 
  </image>
  <text x="1153.05" y="147.333" font-size="16" text-anchor="middle">Понижение<tspan x="1153.05" dy="16">уровня</tspan>
  </text>
  <image x="1178.8" y="167.75" width="175" height="25" xlink:href="DS_ana.svg">
    <title>&quot;20JNG80CG103&quot;</title>
    <rt:dyn type="FKKS" mode="constant" value="&quot;20JNG80CG103&quot;"/> 
    <rt:dyn type="X" mode="constant" value="&quot;S&quot;"/> 
    <rt:dyn type="ShowFrame" mode="constant" value="true"/> 
    <rt:dyn type="Color_Readings" mode="constant" value="true"/> 
    <rt:dyn type="ValueToTheRight" mode="constant" value="false"/> 
  </image>
  <image x="1140.3" y="167.75" width="25" height="25" xlink:href="bin_indicator.svg">
    <title>&quot;20JNG80CL103_XG07&quot;</title>
    <rt:dyn type="PointID" mode="constant" value="&quot;20JNG80CL103_XG07&quot;"/> 
    <rt:dyn type="Col_ON" mode="constant" value="&quot;Col_Green&quot;"/> 
    <rt:dyn type="Col_OFF" mode="constant" value="&quot;Col_Red&quot;"/> 
  </image>
  <text x="1869.63" y="147.333" font-size="16" text-anchor="middle">Расхож-<tspan x="1869.63" dy="16">дения</tspan>
  </text>
  <image x="1860.38" y="167.75" width="25" height="25" xlink:href="bin_indicator.svg">
    <title>20JNG80CG101_XG07</title>
    <rt:dyn type="PointID" mode="constant" value="&quot;20JNG80CG101_XG07&quot;"/> 
  </image>
  <text x="1646.75" y="147.333" font-size="16" text-anchor="middle">Понижение<tspan x="1646.75" dy="16">уровня</tspan>
  </text>
  <image x="1672.5" y="167.75" width="175" height="25" xlink:href="DS_ana.svg">
    <title>&quot;20JNG80CG101&quot;</title>
    <rt:dyn type="FKKS" mode="constant" value="&quot;20JNG80CG101&quot;"/> 
    <rt:dyn type="X" mode="constant" value="&quot;S&quot;"/> 
    <rt:dyn type="ShowFrame" mode="constant" value="true"/> 
    <rt:dyn type="Color_Readings" mode="constant" value="true"/> 
    <rt:dyn type="ValueToTheRight" mode="constant" value="false"/> 
  </image>
  <image x="1634" y="167.75" width="25" height="25" xlink:href="bin_indicator.svg">
    <title>&quot;20JNG80CL101_XG07&quot;</title>
    <rt:dyn type="PointID" mode="constant" value="&quot;20JNG80CL101_XG07&quot;"/> 
    <rt:dyn type="Col_ON" mode="constant" value="&quot;Col_Green&quot;"/> 
    <rt:dyn type="Col_OFF" mode="constant" value="&quot;Col_Red&quot;"/> 
  </image>
  <text x="1869.63" y="403.333" font-size="16" text-anchor="middle">Расхож-<tspan x="1869.63" dy="16">дения</tspan>
  </text>
  <image x="1860.38" y="423.75" width="25" height="25" xlink:href="bin_indicator.svg">
    <title>20JNG80CG102_XG07</title>
    <rt:dyn type="PointID" mode="constant" value="&quot;20JNG80CG102_XG07&quot;"/> 
  </image>
  <text x="1646.75" y="403.333" font-size="16" text-anchor="middle">Понижение<tspan x="1646.75" dy="16">уровня</tspan>
  </text>
  <image x="1672.5" y="423.75" width="175" height="25" xlink:href="DS_ana.svg">
    <title>&quot;20JNG80CG102&quot;</title>
    <rt:dyn type="FKKS" mode="constant" value="&quot;20JNG80CG102&quot;"/> 
    <rt:dyn type="X" mode="constant" value="&quot;S&quot;"/> 
    <rt:dyn type="ShowFrame" mode="constant" value="true"/> 
    <rt:dyn type="Color_Readings" mode="constant" value="true"/> 
    <rt:dyn type="ValueToTheRight" mode="constant" value="false"/> 
  </image>
  <image x="1634" y="423.75" width="25" height="25" xlink:href="bin_indicator.svg">
    <title>&quot;20JNG80CL102_XG07&quot;</title>
    <rt:dyn type="PointID" mode="constant" value="&quot;20JNG80CL102_XG07&quot;"/> 
    <rt:dyn type="Col_ON" mode="constant" value="&quot;Col_Green&quot;"/> 
    <rt:dyn type="Col_OFF" mode="constant" value="&quot;Col_Red&quot;"/> 
  </image>
  <text x="1869.63" y="646.333" font-size="16" text-anchor="middle">Расхож-<tspan x="1869.63" dy="16">дения</tspan>
  </text>
  <image x="1860.38" y="666.75" width="25" height="25" xlink:href="bin_indicator.svg">
    <title>20JNG70CG101_XG07</title>
    <rt:dyn type="PointID" mode="constant" value="&quot;20JNG70CG101_XG07&quot;"/> 
  </image>
  <text x="1646.75" y="646.333" font-size="16" text-anchor="middle">Понижение<tspan x="1646.75" dy="16">уровня</tspan>
  </text>
  <image x="1672.5" y="666.75" width="175" height="25" xlink:href="DS_ana.svg">
    <title>&quot;20JNG70CG101&quot;</title>
    <rt:dyn type="FKKS" mode="constant" value="&quot;20JNG70CG101&quot;"/> 
    <rt:dyn type="X" mode="constant" value="&quot;S&quot;"/> 
    <rt:dyn type="ShowFrame" mode="constant" value="true"/> 
    <rt:dyn type="Color_Readings" mode="constant" value="true"/> 
    <rt:dyn type="ValueToTheRight" mode="constant" value="false"/> 
  </image>
  <image x="1634" y="666.75" width="25" height="25" xlink:href="bin_indicator.svg">
    <title>&quot;20JNG70CL101_XG07&quot;</title>
    <rt:dyn type="PointID" mode="constant" value="&quot;20JNG70CL101_XG07&quot;"/> 
    <rt:dyn type="Col_ON" mode="constant" value="&quot;Col_Green&quot;"/> 
    <rt:dyn type="Col_OFF" mode="constant" value="&quot;Col_Red&quot;"/> 
  </image>
  <text x="1869.63" y="900.333" font-size="16" text-anchor="middle">Расхож-<tspan x="1869.63" dy="16">дения</tspan>
  </text>
  <image x="1860.38" y="920.75" width="25" height="25" xlink:href="bin_indicator.svg">
    <title>20JNG70CG102_XG07</title>
    <rt:dyn type="PointID" mode="constant" value="&quot;20JNG70CG102_XG07&quot;"/> 
  </image>
  <text x="1646.75" y="900.333" font-size="16" text-anchor="middle">Понижение<tspan x="1646.75" dy="16">уровня</tspan>
  </text>
  <image x="1672.5" y="920.75" width="175" height="25" xlink:href="DS_ana.svg">
    <title>&quot;20JNG70CG102&quot;</title>
    <rt:dyn type="FKKS" mode="constant" value="&quot;20JNG70CG102&quot;"/> 
    <rt:dyn type="X" mode="constant" value="&quot;S&quot;"/> 
    <rt:dyn type="ShowFrame" mode="constant" value="true"/> 
    <rt:dyn type="Color_Readings" mode="constant" value="true"/> 
    <rt:dyn type="ValueToTheRight" mode="constant" value="false"/> 
  </image>
  <image x="1634" y="920.75" width="25" height="25" xlink:href="bin_indicator.svg">
    <title>&quot;20JNG70CL102_XG07&quot;</title>
    <rt:dyn type="PointID" mode="constant" value="&quot;20JNG70CL102_XG07&quot;"/> 
    <rt:dyn type="Col_ON" mode="constant" value="&quot;Col_Green&quot;"/> 
    <rt:dyn type="Col_OFF" mode="constant" value="&quot;Col_Red&quot;"/> 
  </image>
  <text x="1375.93" y="900.333" font-size="16" text-anchor="middle">Расхож-<tspan x="1375.93" dy="16">дения</tspan>
  </text>
  <image x="1366.68" y="920.75" width="25" height="25" xlink:href="bin_indicator.svg">
    <title>20JNG70CG104_XG07</title>
    <rt:dyn type="PointID" mode="constant" value="&quot;20JNG70CG104_XG07&quot;"/> 
  </image>
  <text x="1153.05" y="900.333" font-size="16" text-anchor="middle">Понижение<tspan x="1153.05" dy="16">уровня</tspan>
  </text>
  <image x="1178.8" y="920.75" width="175" height="25" xlink:href="DS_ana.svg">
    <title>&quot;20JNG70CG104&quot;</title>
    <rt:dyn type="FKKS" mode="constant" value="&quot;20JNG70CG104&quot;"/> 
    <rt:dyn type="X" mode="constant" value="&quot;S&quot;"/> 
    <rt:dyn type="ShowFrame" mode="constant" value="true"/> 
    <rt:dyn type="Color_Readings" mode="constant" value="true"/> 
    <rt:dyn type="ValueToTheRight" mode="constant" value="false"/> 
  </image>
  <image x="1140.3" y="920.75" width="25" height="25" xlink:href="bin_indicator.svg">
    <title>&quot;20JNG70CL104_XG07&quot;</title>
    <rt:dyn type="PointID" mode="constant" value="&quot;20JNG70CL104_XG07&quot;"/> 
    <rt:dyn type="Col_ON" mode="constant" value="&quot;Col_Green&quot;"/> 
    <rt:dyn type="Col_OFF" mode="constant" value="&quot;Col_Red&quot;"/> 
  </image>
  <text x="283.755" y="147.333" font-size="16" text-anchor="middle">Расхож-<tspan x="283.755" dy="16">дения</tspan>
  </text>
  <image x="274.505" y="167.75" width="25" height="25" xlink:href="bin_indicator.svg">
    <title>20JNG50CG101_XG07</title>
    <rt:dyn type="PointID" mode="constant" value="&quot;20JNG50CG101_XG07&quot;"/> 
  </image>
  <text x="60.875" y="147.333" font-size="16" text-anchor="middle">Понижение<tspan x="60.875" dy="16">уровня</tspan>
  </text>
  <image x="86.625" y="167.75" width="175" height="25" xlink:href="DS_ana.svg">
    <title>&quot;20JNG50CG101&quot;</title>
    <rt:dyn type="FKKS" mode="constant" value="&quot;20JNG50CG101&quot;"/> 
    <rt:dyn type="X" mode="constant" value="&quot;S&quot;"/> 
    <rt:dyn type="ShowFrame" mode="constant" value="true"/> 
    <rt:dyn type="Color_Readings" mode="constant" value="true"/> 
    <rt:dyn type="ValueToTheRight" mode="constant" value="false"/> 
  </image>
  <image x="48.125" y="167.75" width="25" height="25" xlink:href="bin_indicator.svg">
    <title>&quot;20JNG50CL101_XG07&quot;</title>
    <rt:dyn type="PointID" mode="constant" value="&quot;20JNG50CL101_XG07&quot;"/> 
    <rt:dyn type="Col_ON" mode="constant" value="&quot;Col_Green&quot;"/> 
    <rt:dyn type="Col_OFF" mode="constant" value="&quot;Col_Red&quot;"/> 
  </image>
  <text x="779.33" y="147.333" font-size="16" text-anchor="middle">Расхож-<tspan x="779.33" dy="16">дения</tspan>
  </text>
  <image x="770.08" y="167.75" width="25" height="25" xlink:href="bin_indicator.svg">
    <title>20JNG50CG103_XG07</title>
    <rt:dyn type="PointID" mode="constant" value="&quot;20JNG50CG103_XG07&quot;"/> 
  </image>
  <text x="556.45" y="147.333" font-size="16" text-anchor="middle">Понижение<tspan x="556.45" dy="16">уровня</tspan>
  </text>
  <image x="582.2" y="167.75" width="175" height="25" xlink:href="DS_ana.svg">
    <title>&quot;20JNG50CG103&quot;</title>
    <rt:dyn type="FKKS" mode="constant" value="&quot;20JNG50CG103&quot;"/> 
    <rt:dyn type="X" mode="constant" value="&quot;S&quot;"/> 
    <rt:dyn type="ShowFrame" mode="constant" value="true"/> 
    <rt:dyn type="Color_Readings" mode="constant" value="true"/> 
    <rt:dyn type="ValueToTheRight" mode="constant" value="false"/> 
  </image>
  <image x="543.7" y="167.75" width="25" height="25" xlink:href="bin_indicator.svg">
    <title>&quot;20JNG50CL103_XG07&quot;</title>
    <rt:dyn type="PointID" mode="constant" value="&quot;20JNG50CL103_XG07&quot;"/> 
    <rt:dyn type="Col_ON" mode="constant" value="&quot;Col_Green&quot;"/> 
    <rt:dyn type="Col_OFF" mode="constant" value="&quot;Col_Red&quot;"/> 
  </image>
  <text x="283.755" y="403.333" font-size="16" text-anchor="middle">Расхож-<tspan x="283.755" dy="16">дения</tspan>
  </text>
  <image x="274.505" y="423.75" width="25" height="25" xlink:href="bin_indicator.svg">
    <title>20JNG50CG102_XG07</title>
    <rt:dyn type="PointID" mode="constant" value="&quot;20JNG50CG102_XG07&quot;"/> 
  </image>
  <text x="60.875" y="403.333" font-size="16" text-anchor="middle">Понижение<tspan x="60.875" dy="16">уровня</tspan>
  </text>
  <image x="86.625" y="423.75" width="175" height="25" xlink:href="DS_ana.svg">
    <title>&quot;20JNG50CG102&quot;</title>
    <rt:dyn type="FKKS" mode="constant" value="&quot;20JNG50CG102&quot;"/> 
    <rt:dyn type="X" mode="constant" value="&quot;S&quot;"/> 
    <rt:dyn type="ShowFrame" mode="constant" value="true"/> 
    <rt:dyn type="Color_Readings" mode="constant" value="true"/> 
    <rt:dyn type="ValueToTheRight" mode="constant" value="false"/> 
  </image>
  <image x="48.125" y="423.75" width="25" height="25" xlink:href="bin_indicator.svg">
    <title>&quot;20JNG50CL102_XG07&quot;</title>
    <rt:dyn type="PointID" mode="constant" value="&quot;20JNG50CL102_XG07&quot;"/> 
    <rt:dyn type="Col_ON" mode="constant" value="&quot;Col_Green&quot;"/> 
    <rt:dyn type="Col_OFF" mode="constant" value="&quot;Col_Red&quot;"/> 
  </image>
  <text x="779.33" y="403.333" font-size="16" text-anchor="middle">Расхож-<tspan x="779.33" dy="16">дения</tspan>
  </text>
  <image x="770.08" y="423.75" width="25" height="25" xlink:href="bin_indicator.svg">
    <title>20JNG50CG104_XG07</title>
    <rt:dyn type="PointID" mode="constant" value="&quot;20JNG50CG104_XG07&quot;"/> 
  </image>
  <text x="556.45" y="403.333" font-size="16" text-anchor="middle">Понижение<tspan x="556.45" dy="16">уровня</tspan>
  </text>
  <image x="582.2" y="423.75" width="175" height="25" xlink:href="DS_ana.svg">
    <title>&quot;20JNG50CG104&quot;</title>
    <rt:dyn type="FKKS" mode="constant" value="&quot;20JNG50CG104&quot;"/> 
    <rt:dyn type="X" mode="constant" value="&quot;S&quot;"/> 
    <rt:dyn type="ShowFrame" mode="constant" value="true"/> 
    <rt:dyn type="Color_Readings" mode="constant" value="true"/> 
    <rt:dyn type="ValueToTheRight" mode="constant" value="false"/> 
  </image>
  <image x="543.7" y="423.75" width="25" height="25" xlink:href="bin_indicator.svg">
    <title>&quot;20JNG50CL104_XG07&quot;</title>
    <rt:dyn type="PointID" mode="constant" value="&quot;20JNG50CL104_XG07&quot;"/> 
    <rt:dyn type="Col_ON" mode="constant" value="&quot;Col_Green&quot;"/> 
    <rt:dyn type="Col_OFF" mode="constant" value="&quot;Col_Red&quot;"/> 
  </image>
  <text x="283.755" y="646.333" font-size="16" text-anchor="middle">Расхож-<tspan x="283.755" dy="16">дения</tspan>
  </text>
  <image x="274.505" y="666.75" width="25" height="25" xlink:href="bin_indicator.svg">
    <title>20JNG60CG101_XG07</title>
    <rt:dyn type="PointID" mode="constant" value="&quot;20JNG60CG101_XG07&quot;"/> 
  </image>
  <text x="60.875" y="646.333" font-size="16" text-anchor="middle">Понижение<tspan x="60.875" dy="16">уровня</tspan>
  </text>
  <image x="86.625" y="666.75" width="175" height="25" xlink:href="DS_ana.svg">
    <title>&quot;20JNG60CG101&quot;</title>
    <rt:dyn type="FKKS" mode="constant" value="&quot;20JNG60CG101&quot;"/> 
    <rt:dyn type="X" mode="constant" value="&quot;S&quot;"/> 
    <rt:dyn type="ShowFrame" mode="constant" value="true"/> 
    <rt:dyn type="Color_Readings" mode="constant" value="true"/> 
    <rt:dyn type="ValueToTheRight" mode="constant" value="false"/> 
  </image>
  <image x="48.125" y="666.75" width="25" height="25" xlink:href="bin_indicator.svg">
    <title>&quot;20JNG60CL101_XG07&quot;</title>
    <rt:dyn type="PointID" mode="constant" value="&quot;20JNG60CL101_XG07&quot;"/> 
    <rt:dyn type="Col_ON" mode="constant" value="&quot;Col_Green&quot;"/> 
    <rt:dyn type="Col_OFF" mode="constant" value="&quot;Col_Red&quot;"/> 
  </image>
  <text x="779.33" y="646.333" font-size="16" text-anchor="middle">Расхож-<tspan x="779.33" dy="16">дения</tspan>
  </text>
  <image x="770.08" y="666.75" width="25" height="25" xlink:href="bin_indicator.svg">
    <title>20JNG60CG103_XG07</title>
    <rt:dyn type="PointID" mode="constant" value="&quot;20JNG60CG103_XG07&quot;"/> 
  </image>
  <text x="556.45" y="646.333" font-size="16" text-anchor="middle">Понижение<tspan x="556.45" dy="16">уровня</tspan>
  </text>
  <image x="582.2" y="666.75" width="175" height="25" xlink:href="DS_ana.svg">
    <title>&quot;20JNG60CG103&quot;</title>
    <rt:dyn type="FKKS" mode="constant" value="&quot;20JNG60CG103&quot;"/> 
    <rt:dyn type="X" mode="constant" value="&quot;S&quot;"/> 
    <rt:dyn type="ShowFrame" mode="constant" value="true"/> 
    <rt:dyn type="Color_Readings" mode="constant" value="true"/> 
    <rt:dyn type="ValueToTheRight" mode="constant" value="false"/> 
  </image>
  <image x="543.7" y="666.75" width="25" height="25" xlink:href="bin_indicator.svg">
    <title>&quot;20JNG60CL103_XG07&quot;</title>
    <rt:dyn type="PointID" mode="constant" value="&quot;20JNG60CL103_XG07&quot;"/> 
    <rt:dyn type="Col_ON" mode="constant" value="&quot;Col_Green&quot;"/> 
    <rt:dyn type="Col_OFF" mode="constant" value="&quot;Col_Red&quot;"/> 
  </image>
  <text x="283.755" y="900.333" font-size="16" text-anchor="middle">Расхож-<tspan x="283.755" dy="16">дения</tspan>
  </text>
  <image x="274.505" y="920.75" width="25" height="25" xlink:href="bin_indicator.svg">
    <title>20JNG60CG102_XG07</title>
    <rt:dyn type="PointID" mode="constant" value="&quot;20JNG60CG102_XG07&quot;"/> 
  </image>
  <text x="60.875" y="900.333" font-size="16" text-anchor="middle">Понижение<tspan x="60.875" dy="16">уровня</tspan>
  </text>
  <image x="86.625" y="920.75" width="175" height="25" xlink:href="DS_ana.svg">
    <title>&quot;20JNG60CG102&quot;</title>
    <rt:dyn type="FKKS" mode="constant" value="&quot;20JNG60CG102&quot;"/> 
    <rt:dyn type="X" mode="constant" value="&quot;S&quot;"/> 
    <rt:dyn type="ShowFrame" mode="constant" value="true"/> 
    <rt:dyn type="Color_Readings" mode="constant" value="true"/> 
    <rt:dyn type="ValueToTheRight" mode="constant" value="false"/> 
  </image>
  <image x="48.125" y="920.75" width="25" height="25" xlink:href="bin_indicator.svg">
    <title>&quot;20JNG60CL102_XG07&quot;</title>
    <rt:dyn type="PointID" mode="constant" value="&quot;20JNG60CL102_XG07&quot;"/> 
    <rt:dyn type="Col_ON" mode="constant" value="&quot;Col_Green&quot;"/> 
    <rt:dyn type="Col_OFF" mode="constant" value="&quot;Col_Red&quot;"/> 
  </image>
  <text x="779.33" y="900.333" font-size="16" text-anchor="middle">Расхож-<tspan x="779.33" dy="16">дения</tspan>
  </text>
  <image x="770.08" y="920.75" width="25" height="25" xlink:href="bin_indicator.svg">
    <title>20JNG60CG104_XG07</title>
    <rt:dyn type="PointID" mode="constant" value="&quot;20JNG60CG104_XG07&quot;"/> 
  </image>
  <text x="556.45" y="900.333" font-size="16" text-anchor="middle">Понижение<tspan x="556.45" dy="16">уровня</tspan>
  </text>
  <image x="582.2" y="920.75" width="175" height="25" xlink:href="DS_ana.svg">
    <title>&quot;20JNG60CG104&quot;</title>
    <rt:dyn type="FKKS" mode="constant" value="&quot;20JNG60CG104&quot;"/> 
    <rt:dyn type="X" mode="constant" value="&quot;S&quot;"/> 
    <rt:dyn type="ShowFrame" mode="constant" value="true"/> 
    <rt:dyn type="Color_Readings" mode="constant" value="true"/> 
    <rt:dyn type="ValueToTheRight" mode="constant" value="false"/> 
  </image>
  <image x="543.7" y="920.75" width="25" height="25" xlink:href="bin_indicator.svg">
    <title>&quot;20JNG60CL104_XG07&quot;</title>
    <rt:dyn type="PointID" mode="constant" value="&quot;20JNG60CL104_XG07&quot;"/> 
    <rt:dyn type="Col_ON" mode="constant" value="&quot;Col_Green&quot;"/> 
    <rt:dyn type="Col_OFF" mode="constant" value="&quot;Col_Red&quot;"/> 
  </image>
  <image x="823.242" y="944.591" width="75" height="25" xlink:href="obj_link.svg">
    <rt:dyn type="TextStr" mode="constant" value="&quot;GA-JEB&quot;"/> 
    <rt:event type="OnClick">LoadNew(&quot;&quot;)</rt:event>
    <rt:dyn type="ModName" mode="constant" value="&quot;ga_jeb&quot;"/> 
  </image>
  <image x="923.727" y="944.591" width="75" height="25" xlink:href="obj_link.svg">
    <rt:dyn type="TextStr" mode="constant" value="&quot;GA-JEF&quot;"/> 
    <rt:event type="OnClick">LoadNew(&quot;&quot;)</rt:event>
    <rt:dyn type="ModName" mode="constant" value="&quot;ga_jef&quot;"/> 
  </image>
  <image x="1025.24" y="944.591" width="75" height="25" xlink:href="obj_link.svg">
    <rt:dyn type="TextStr" mode="constant" value="&quot;GA-JEA&quot;"/> 
    <rt:event type="OnClick">LoadNew(&quot;&quot;)</rt:event>
    <rt:dyn type="ModName" mode="constant" value="&quot;ga_jea&quot;"/> 
  </image>
  <text x="35" y="20.5" fill="black" font-size="15" font-weight="700">GA_JNG</text>
  <text x="351.375" y="257.5" font-size="15" text-anchor="middle">21JNG50<tspan x="351.375" dy="15">BB001</tspan>
  </text>
  <text x="1566" y="257.5" font-size="15" text-anchor="middle">22JNG80<tspan x="1566" dy="15">BB001</tspan>
  </text>
  <text x="1571" y="759" font-size="15" text-anchor="middle">22JNG70<tspan x="1571" dy="15">BB001</tspan>
  </text>
</svg>
