<?xml  version="1.0" encoding="UTF-8"?>
<svg color="Col_BGSand" xmlns="http://www.w3.org/2000/svg" xmlns:rt="http://www.rts.co.at/2001/XMLSchema/RtSvgPL" xmlns:xlink="http://www.w3.org/1999/xlink" xmlns:xsi="http://www.w3.org/2001/XMLSchema-instance" xsi:schemaLocation="http://www.w3.org/2000/svg C:\RTS\RtSvg\XML\SVG.xsd" viewBox="0 0 1915 1000" width="1915" height="1000" id="jna11_12" fill="none">
  <title>Схема обвязки и КИП насосов аварийного ввода бора</title>
  <rt:model modelversion="7.2.0.23" comment="Создано VNIIAES-ASUTP&#10;UMod all_nsb&#10;LMod 22jna&#10;RMod jna21_22" revision="2.0"/> 
  <line x1="884.833" y1="476.5" x2="883.95" y2="264.576" stroke="black"/> 
  <line x1="850.167" y1="477.5" x2="850.167" y2="265" stroke="black"/> 
  <line x1="428" y1="163.571" x2="429" y2="89" stroke="black"/> 
  <line x1="279" y1="430" x2="279.727" y2="337.857" stroke="black"/> 
  <line x1="931.07" y1="399.286" x2="931.24" y2="89" stroke="black" stroke-width="3"/> 
  <line x1="1189.21" y1="398.857" x2="1190.47" y2="89" stroke="black" stroke-width="3"/> 
  <line x1="610.303" y1="451.49" x2="1554" y2="450.167" stroke="black"/> 
  <line x1="1231.83" y1="414" x2="1231.83" y2="289" stroke="black"/> 
  <text x="843.929" y="-125" fill="black" font-size="30" font-weight="700" text-anchor="middle">
    <title>Схема обвязки и КИП насосов аварийного и планового расхолаживания низкого давления</title>
Схема обвязки и КИП насосов ав. расхол. НД</text>
  <line x1="929" y1="400" x2="1188.67" y2="397.333" stroke="black" stroke-width="3"/> 
  <image x="73.643" y="360.714" width="175" height="25" xlink:href="DS_ana_900.svg">
    <title>&quot;21JNA11CT905&quot;</title>
    <rt:dyn type="FKKS" mode="constant" value="&quot;21JNA11CT905&quot;"/> 
    <rt:dyn type="X" mode="constant" value="&quot;T&quot;"/> 
    <rt:dyn type="ShowFrame" mode="constant" value="true"/> 
    <rt:dyn type="Color_Readings" mode="constant" value="true"/> 
    <rt:dyn type="ValueToTheRight" mode="constant" value="false"/> 
    <rt:dyn type="Show_MIS" mode="constant" value="true"/> 
  </image>
  <line x1="1250" y1="479" x2="1248.67" y2="306.5" stroke="black"/> 
  <line x1="1292.67" y1="414.424" x2="1576.11" y2="415.606" stroke="black"/> 
  <line x1="1259.67" y1="413.424" x2="1275.5" y2="414" stroke="black"/> 
  <g transform="rotate(90 692.349 775.758) flipX(1494.74) rotate(60 0 1.4013e-045) flipX(390.018) rotate(180 1212.44 532.643)">
    <polygon points="-614.654,-2590.72 -601.273,-2583.07 -601.273,-2598.37 -614.654,-2590.72" fill="black" stroke="black" stroke-width="1" transform="rotate(180 1279.17 367.814)"/> 
  </g>
  <line x1="1282.5" y1="477" x2="1283.83" y2="314" stroke="black"/> 
  <g transform="scale(0.41 0.41 830.985 875) flipY(875)">
    <rect x="852.979" y="1816.86" width="132.114" height="148.374" rx="0" ry="0" fill="Col_Grey4" stroke="black" stroke-width="3"/> 
    <polyline points="877.369,1965.23 877.369,1843.28 915.989,1879.87 960.699,1843.28 962.329,1965.23" fill="none" stroke="black" stroke-width="3"/> 
  </g>
  <line x1="895.667" y1="414" x2="895" y2="282.287" stroke="black"/> 
  <image x="1309.53" y="362.515" width="70" height="65" xlink:href="DS_CO_valve.svg" transform="rotate(90 0 0) flipY(-10) rotate(270 0 -10)">
    <title>&quot;20JNA11AA009&quot;</title>
    <rt:dyn type="KKS" mode="constant" value="&quot;20JNA11AA009&quot;"/> 
    <rt:dyn type="DATA_NARY" mode="constant" value="&quot;TPTS&quot;"/> 
    <rt:dyn type="Operate" mode="constant" value="true"/> 
  </image>
  <text x="1462.8" y="366.697" fill="black" font-size="15" text-anchor="middle">20JNA11<tspan x="1462.8" dy="15">AA201</tspan>
  </text>
  <text x="1354.9" y="361" fill="black" font-size="15" text-anchor="middle">20JNA11<tspan x="1354.9" dy="15">AA009</tspan>
  </text>
  <text x="1415.67" y="479.772" fill="black" font-size="15" text-anchor="middle">21KAA10<tspan x="1415.67" dy="15">AA202</tspan>
  </text>
  <image x="1309" y="317" width="175" height="25" xlink:href="DS_ana_900.svg">
    <title>&quot;21JNA11CT913&quot;</title>
    <rt:dyn type="FKKS" mode="constant" value="&quot;21JNA11CT913&quot;"/> 
    <rt:dyn type="X" mode="constant" value="&quot;T&quot;"/> 
    <rt:dyn type="ShowFrame" mode="constant" value="true"/> 
    <rt:dyn type="Color_Readings" mode="constant" value="true"/> 
    <rt:dyn type="ValueToTheRight" mode="constant" value="false"/> 
    <rt:dyn type="Show_MIS" mode="constant" value="true"/> 
  </image>
  <image x="991.56" y="364.091" width="175" height="25" xlink:href="DS_ana.svg">
    <title>&quot;21JNA11CP003&quot;</title>
    <rt:dyn type="FKKS" mode="constant" value="&quot;21JNA11CP003&quot;"/> 
    <rt:dyn type="X" mode="constant" value="&quot;P&quot;"/> 
    <rt:dyn type="ShowFrame" mode="constant" value="true"/> 
    <rt:dyn type="Color_Readings" mode="constant" value="true"/> 
    <rt:dyn type="ValueToTheRight" mode="constant" value="false"/> 
  </image>
  <g transform="rotate(90 1094.62 625.758)">
    <g>
      <line x1="808.15" y1="768.551" x2="822.15" y2="785.884" stroke="black"/> 
      <line x1="822.15" y1="785.884" x2="838.15" y2="768.551" stroke="black"/> 
    </g>
    <g transform="flipY(616.333)">
      <line x1="809.15" y1="423.125" x2="823.15" y2="440.458" stroke="black"/> 
      <line x1="823.15" y1="440.458" x2="839.15" y2="423.125" stroke="black"/> 
    </g>
  </g>
  <path d="M1327.79 -467.401 A8 9.305 0 1 0 1327.79 -448.791 " fill="none" stroke="black" transform="rotate(270 1205.75 765.346) flipY() translate(0 -828) translate(229.642 442.62)"/> 
  <path d="M1327.79 -433.992 A8 9.305 0 1 0 1327.79 -415.382 " fill="none" stroke="black" transform="rotate(270 1205.75 765.346) flipY() translate(0 -828) translate(229.642 442.62)"/> 
  <line x1="896.5" y1="414" x2="1242.33" y2="414" stroke="black"/> 
  <image x="654" y="459" width="175" height="25" xlink:href="DS_ana.svg">
    <title>&quot;21KAA10CT017&quot;</title>
    <rt:dyn type="FKKS" mode="constant" value="&quot;21KAA10CT017&quot;"/> 
    <rt:dyn type="X" mode="constant" value="&quot;T&quot;"/> 
    <rt:dyn type="ShowFrame" mode="constant" value="true"/> 
    <rt:dyn type="Color_Readings" mode="constant" value="true"/> 
    <rt:dyn type="ValueToTheRight" mode="constant" value="false"/> 
  </image>
  <polyline points="47.6515,607.576 21.894,568.182 47.6515,492.424 280.985,642.424"/> 
  <polyline points="38.5606,490.909 35.5303,569.697 62.803,612.121"/> 
  <image x="304" y="386.429" width="175" height="25" xlink:href="DS_ana.svg">
    <title>&quot;21JNA11CT009&quot;</title>
    <rt:dyn type="FKKS" mode="constant" value="&quot;21JNA11CT009&quot;"/> 
    <rt:dyn type="X" mode="constant" value="&quot;T&quot;"/> 
    <rt:dyn type="ShowFrame" mode="constant" value="true"/> 
    <rt:dyn type="Color_Readings" mode="constant" value="true"/> 
    <rt:dyn type="ValueToTheRight" mode="constant" value="false"/> 
  </image>
  <image x="245.106" y="106.97" width="175" height="25" xlink:href="DS_ana.svg">
    <title>&quot;21JNA11CT008&quot;</title>
    <rt:dyn type="FKKS" mode="constant" value="&quot;21JNA11CT008&quot;"/> 
    <rt:dyn type="X" mode="constant" value="&quot;T&quot;"/> 
    <rt:dyn type="ShowFrame" mode="constant" value="true"/> 
    <rt:dyn type="Color_Readings" mode="constant" value="true"/> 
    <rt:dyn type="ValueToTheRight" mode="constant" value="false"/> 
  </image>
  <polyline points="575,500"/> 
  <polyline points="562.803,500 562.803,551.515"/> 
  <text x="282.214" y="491.257" fill="black" font-size="15" font-weight="bold" text-anchor="middle">PEB1</text>
  <polygon points="1835.64,-35.554 1849.02,-27.904 1849.02,-43.2042 1835.64,-35.554" fill="black" stroke="black" stroke-width="1" transform="rotate(90 989.943 631.239) rotate(180 1279.17 367.814)"/> 
  <image x="649" y="372.333" width="175" height="25" xlink:href="DS_ana_900.svg">
    <title>&quot;21JNA11CT912&quot;</title>
    <rt:dyn type="FKKS" mode="constant" value="&quot;21JNA11CT912&quot;"/> 
    <rt:dyn type="X" mode="constant" value="&quot;T&quot;"/> 
    <rt:dyn type="ShowFrame" mode="constant" value="true"/> 
    <rt:dyn type="Color_Readings" mode="constant" value="true"/> 
    <rt:dyn type="ValueToTheRight" mode="constant" value="false"/> 
    <rt:dyn type="Show_MIS" mode="constant" value="true"/> 
  </image>
  <text x="430.955" y="43.03" fill="black" font-size="15" font-weight="bold" text-anchor="middle">PEB1</text>
  <text x="941.79" y="44.7857" fill="black" font-size="15" font-weight="bold" text-anchor="middle">21JNA</text>
  <text x="1188.5" y="42.0713" fill="black" font-size="15" font-weight="bold" text-anchor="middle">21JNA</text>
  <image x="713" y="112.857" width="175" height="25" xlink:href="DS_ana_900.svg">
    <title>&quot;21JNA11CP901&quot;</title>
    <rt:dyn type="FKKS" mode="constant" value="&quot;21JNA11CP901&quot;"/> 
    <rt:dyn type="X" mode="constant" value="&quot;P&quot;"/> 
    <rt:dyn type="ShowFrame" mode="constant" value="true"/> 
    <rt:dyn type="Color_Readings" mode="constant" value="true"/> 
    <rt:dyn type="ValueToTheRight" mode="constant" value="false"/> 
    <rt:dyn type="Show_MIS" mode="constant" value="true"/> 
  </image>
  <image x="1218.81" y="116.043" width="175" height="25" xlink:href="DS_ana_900.svg">
    <title>&quot;21JNA11CP902&quot;</title>
    <rt:dyn type="FKKS" mode="constant" value="&quot;21JNA11CP902&quot;"/> 
    <rt:dyn type="X" mode="constant" value="&quot;P&quot;"/> 
    <rt:dyn type="ShowFrame" mode="constant" value="true"/> 
    <rt:dyn type="Color_Readings" mode="constant" value="true"/> 
    <rt:dyn type="ValueToTheRight" mode="constant" value="false"/> 
    <rt:dyn type="Show_MIS" mode="constant" value="true"/> 
  </image>
  <image x="1218.63" y="78.8333" width="175" height="25" xlink:href="DS_ana_900.svg">
    <title>&quot;21JNA11CF901&quot;</title>
    <rt:dyn type="FKKS" mode="constant" value="&quot;21JNA11CF901&quot;"/> 
    <rt:dyn type="X" mode="constant" value="&quot;F&quot;"/> 
    <rt:dyn type="ShowFrame" mode="constant" value="true"/> 
    <rt:dyn type="Color_Readings" mode="constant" value="true"/> 
    <rt:dyn type="ValueToTheRight" mode="constant" value="false"/> 
    <rt:dyn type="Show_MIS" mode="constant" value="true"/> 
  </image>
  <image x="1378.78" y="169.5" width="175" height="25" xlink:href="DS_ana_900.svg">
    <title>&quot;21JNA11CT906&quot;</title>
    <rt:dyn type="FKKS" mode="constant" value="&quot;21JNA11CT906&quot;"/> 
    <rt:dyn type="X" mode="constant" value="&quot;T&quot;"/> 
    <rt:dyn type="ShowFrame" mode="constant" value="true"/> 
    <rt:dyn type="Color_Readings" mode="constant" value="true"/> 
    <rt:dyn type="ValueToTheRight" mode="constant" value="false"/> 
    <rt:dyn type="Show_MIS" mode="constant" value="true"/> 
  </image>
  <text x="1808.21" y="353.071" fill="black" font-size="15" text-anchor="middle">
    <title>22JNA22AP001</title>
22JNA22AP001</text>
  <text x="1808.21" y="331.071" fill="black" font-size="15" text-anchor="middle">22JNA21AP001</text>
  <text x="1800" y="698.5" fill="black" font-size="13" text-anchor="middle">Скорость расхолаживания а.з.</text>
  <image x="1154.13" y="58.4594" width="65" height="25" xlink:href="obj_link.svg" transform="rotate(90 37.6379 12.5) flipX(37.4999)">
    <rt:event type="OnClick">LoadNew(&quot;&quot;)</rt:event>
    <rt:dyn type="ModName" mode="constant" value="&quot;21jna&quot;"/> 
  </image>
  <image x="560.057" y="438.74" width="65" height="25" xlink:href="obj_link.svg" transform="flipX(37.4999)">
    <rt:dyn type="TextStr" mode="constant" value="&quot;KAA1&quot;"/> 
    <rt:event type="OnClick">LoadNew(&quot;&quot;)</rt:event>
    <rt:dyn type="ModName" mode="constant" value="&quot;kaa1&quot;"/> 
  </image>
  <image x="893.826" y="73.5377" width="65" height="25" xlink:href="obj_link.svg" transform="rotate(90 37.3616 12.4999)">
    <rt:event type="OnClick">LoadNew(&quot;&quot;)</rt:event>
    <rt:dyn type="ModName" mode="constant" value="&quot;21jna&quot;"/> 
  </image>
  <image x="1487" y="438" width="65" height="25" xlink:href="obj_link.svg" transform="flipX(37.4999)">
    <rt:dyn type="TextStr" mode="constant" value="&quot;KAA1&quot;"/> 
    <rt:event type="OnClick">LoadNew(&quot;&quot;)</rt:event>
    <rt:dyn type="ModName" mode="constant" value="&quot;kaa1&quot;"/> 
  </image>
  <image x="1533.29" y="402.924" width="85" height="25" xlink:href="obj_link.svg" transform="flipX(37.4999)">
    <rt:dyn type="TextStr" mode="constant" value="&quot;KBC10-30&quot;"/> 
    <rt:event type="OnClick">LoadNew(&quot;&quot;)</rt:event>
    <rt:dyn type="ModName" mode="constant" value="&quot;kbc10_30&quot;"/> 
  </image>
  <image x="1430.3" y="371.924" width="70" height="65" xlink:href="DS_Reg_valve.svg">
    <rt:dyn type="DATA_NARY" mode="constant" value="&quot;NONE&quot;"/> 
  </image>
  <image x="1383.44" y="409.333" width="70" height="65" xlink:href="DS_Reg_valve.svg">
    <rt:dyn type="DATA_NARY" mode="constant" value="&quot;NONE&quot;"/> 
  </image>
  <image x="1751" y="707" width="120" height="25" xlink:href="obj_link.svg">
    <rt:dyn type="TextStr" mode="constant" value="&quot;20kfb04ep702&quot;"/> 
    <rt:event type="OnClick">LoadNew(&quot;&quot;)</rt:event>
    <rt:dyn type="ModName" mode="constant" value="&quot;20kfb04ep702&quot;"/> 
  </image>
  <image x="1751.71" y="355.503" width="95" height="25" xlink:href="obj_link.svg">
    <rt:dyn type="TextStr" mode="constant" value="&quot;JNA21_22&quot;"/> 
    <rt:event type="OnClick">LoadNew(&quot;&quot;)</rt:event>
    <rt:dyn type="ModName" mode="constant" value="&quot;jna21_22&quot;"/> 
  </image>
  <image x="1751" y="624.432" width="75" height="25" xlink:href="obj_link.svg">
    <rt:dyn type="TextStr" mode="constant" value="&quot;22JNA&quot;"/> 
    <rt:event type="OnClick">LoadNew(&quot;&quot;)</rt:event>
    <rt:dyn type="ModName" mode="constant" value="&quot;22jna&quot;"/> 
  </image>
  <image x="391.375" y="70" width="65" height="25" xlink:href="obj_link.svg" transform="rotate(90 37.3616 12.4999)">
    <rt:event type="OnClick">LoadNew(&quot;&quot;)</rt:event>
    <rt:dyn type="ModName" mode="constant" value="&quot;peb1&quot;"/> 
  </image>
  <image x="243.718" y="433.219" width="65" height="25" xlink:href="obj_link.svg" transform="rotate(90 37.3616 12.4999)">
    <rt:event type="OnClick">LoadNew(&quot;&quot;)</rt:event>
    <rt:dyn type="ModName" mode="constant" value="&quot;peb1&quot;"/> 
  </image>
  <text x="43" y="25" fill="black" font-size="15" text-anchor="middle">
    <title>Схема обвязки и КИП насосов аварийного и планового расхолаживания низкого давления</title>
JNA11_12</text>
  <g transform="scale(0.721986 0.721986 819.501 528.425)">
    <rect x="335.084" y="659.388" width="10.8043" height="313.358" rx="0.432892" ry="0.432892" fill="gray" stroke="black" stroke-width="0.28418" transform="flipY() translate(0 -828) translate(-1223.04 110.188) scale(3.5 0.7)"/> 
    <rect x="385.438" y="556.437" width="372.145" height="250.033" rx="5.84424" ry="1.46106" fill="gray" stroke="black" stroke-width="0.962891" transform="flipY() translate(0 -828) translate(-412.163 0) scale(1.03704 1)"/> 
    <rect x="318.054" y="732.174" width="16.973" height="167.787" rx="0" ry="0" fill="gray" stroke="black" stroke-width="0.28418" transform="flipY() translate(0 -828) translate(-1223.04 110.188) scale(3.5 0.7)"/> 
    <rect x="618.35" y="668.792" width="85.7061" height="294.549" rx="0" ry="0" fill="gray" stroke="black" stroke-width="0.28418" transform="flipY() translate(0 -828) translate(-1223.04 110.188) scale(3.5 0.7)"/> 
    <rect x="456.18" y="660.279" width="10.7923" height="311.576" rx="0.432892" ry="0.432892" fill="gray" stroke="black" stroke-width="0.28418" transform="flipY() translate(0 -828) translate(-1223.04 110.188) scale(3.5 0.7)"/> 
    <rect x="467.022" y="737.607" width="16.348" height="156.918" rx="0" ry="0" fill="gray" stroke="black" stroke-width="0.28418" transform="flipY() translate(0 -828) translate(-1223.04 110.188) scale(3.5 0.7)"/> 
    <rect x="483.362" y="786.591" width="9.42126" height="58.9541" rx="0" ry="0" fill="gray" stroke="black" stroke-width="0.28418" transform="flipY() translate(0 -828) translate(-1223.04 110.188) scale(3.5 0.7)"/> 
    <rect x="492.738" y="772.568" width="43" height="87" rx="0" ry="0" fill="gray" stroke="black" stroke-width="0.28418" transform="flipY() translate(0 -828) translate(-1223.04 110.188) scale(3.5 0.7)"/> 
    <rect x="535.639" y="737.781" width="13.3412" height="156.572" rx="0" ry="0" fill="gray" stroke="black" stroke-width="0.28418" transform="flipY() translate(0 -828) translate(-1223.04 110.188) scale(3.5 0.7)"/> 
    <rect x="549.085" y="772.568" width="43" height="87" rx="0" ry="0" fill="gray" stroke="black" stroke-width="0.28418" transform="flipY() translate(0 -828) translate(-1223.04 110.188) scale(3.5 0.7)"/> 
    <rect x="592.115" y="737.844" width="26.2784" height="156.446" rx="0" ry="0" fill="gray" stroke="black" stroke-width="0.28418" transform="flipY() translate(0 -828) translate(-1223.04 110.188) scale(3.5 0.7)"/> 
    <rect x="701.025" y="607.441" width="18.6147" height="417.251" rx="0" ry="0" fill="gray" stroke="black" stroke-width="0.28418" transform="flipY() translate(0 -828) translate(-1223.04 110.188) scale(3.5 0.7)"/> 
    <polygon points="1228.55,42.3962 1228.69,-2.27078 1295.69,-1.27078" fill="Col_BGSand"/> 
    <polygon points="1228.69,949.436 1229.45,902.527 1295.43,903.254" fill="Col_BGSand" transform="flipY(599.076)"/> 
    <rect x="719.362" y="604.267" width="23.9122" height="423.601" rx="0" ry="0" fill="gray" stroke="black" stroke-width="0.28418" transform="flipY() translate(0 -828) translate(-1223.04 110.188) scale(3.5 0.7)"/> 
    <rect x="743.069" y="666.079" width="30.059" height="299.975" rx="0" ry="0" fill="gray" stroke="black" stroke-width="0.28418" transform="flipY() translate(0 -828) translate(-1223.04 110.188) scale(3.5 0.7)"/> 
    <image x="1092.04" y="107.032" width="80" height="80" xlink:href="DS_motor.svg">
      <title>&quot;21JNA11AP001&quot;</title>
      <rt:dyn type="KKS" mode="constant" value="&quot;21JNA11AP001&quot;"/> 
      <rt:dyn type="DATA_NARY" mode="constant" value="&quot;TPTS&quot;"/> 
      <rt:dyn type="Operate" mode="constant" value="TRUE"/> 
    </image>
    <image x="196.91" y="204.517" width="25" height="25" xlink:href="bin_indicator.svg">
      <title>&quot;21JNA11CL001&quot;</title>
      <rt:dyn type="PointID" mode="constant" value="&quot;21JNA11CL001_XG01&quot;"/> 
    </image>
    <text x="277.213" y="217.638" fill="black" font-size="15" text-anchor="middle">утечка из<tspan x="277.213" dy="15">воздухоохл</tspan>
    </text>
    <polyline points="-94.3168,180.729 -95.3168,256.729 -61.3168,295.729" stroke="black"/> 
    <polyline points="430.683,155.729 431.365,220.123 458.638,236.79" stroke="black"/> 
    <polyline points="905.684,126.729 905.684,76.7292 863.183,55.5172" stroke="black"/> 
    <circle cx="210.374" cy="890.027" r="3.14044" fill="black" stroke="black" stroke-width="1" transform="flipY() translate(0 -828) translate(219.956 -216.972)"/> 
    <circle cx="686.374" cy="920.361" r="3.14044" fill="black" stroke="black" stroke-width="1" transform="flipY() translate(0 -828) translate(219.956 -216.972)"/> 
    <circle cx="1236.38" cy="927.361" r="3.14044" fill="black" stroke="black" stroke-width="1" transform="flipY() translate(0 -828) translate(219.956 -216.972)"/> 
    <circle cx="-314.626" cy="862.694" r="3.14044" fill="black" stroke="black" stroke-width="1" transform="flipY() translate(0 -828) translate(219.956 -216.972)"/> 
  </g>
  <g transform="scale(0.41 0.41 830.985 875) flipY(875)">
    <rect x="1826.15" y="1814.42" width="136.177" height="148.377" rx="0" ry="0" fill="Col_Grey4" stroke="black" stroke-width="3"/> 
    <polyline points="1852.98,1962.8 1852.98,1840.85 1891.6,1877.43 1936.31,1840.85 1937.94,1962.8" fill="none" stroke="black" stroke-width="3"/> 
  </g>
  <image x="545.765" y="317" width="175" height="25" xlink:href="DS_ana_900.svg">
    <title>&quot;21JNA11CT904&quot;</title>
    <rt:dyn type="FKKS" mode="constant" value="&quot;21JNA11CT904&quot;"/> 
    <rt:dyn type="X" mode="constant" value="&quot;T&quot;"/> 
    <rt:dyn type="ShowFrame" mode="constant" value="true"/> 
    <rt:dyn type="Color_Readings" mode="constant" value="true"/> 
    <rt:dyn type="ValueToTheRight" mode="constant" value="false"/> 
    <rt:dyn type="Show_MIS" mode="constant" value="true"/> 
  </image>
  <image x="679" y="164" width="175" height="25" xlink:href="DS_ana_900.svg">
    <title>&quot;21JNA11CT907&quot;</title>
    <rt:dyn type="FKKS" mode="constant" value="&quot;21JNA11CT907&quot;"/> 
    <rt:dyn type="X" mode="constant" value="&quot;T&quot;"/> 
    <rt:dyn type="ShowFrame" mode="constant" value="true"/> 
    <rt:dyn type="Color_Readings" mode="constant" value="true"/> 
    <rt:dyn type="ValueToTheRight" mode="constant" value="false"/> 
    <rt:dyn type="Show_MIS" mode="constant" value="true"/> 
  </image>
  <text x="799" y="23" fill="black" font-size="25" font-weight="700" text-anchor="middle">
    <title>Схема обвязки и КИП насоса аварийного и планового расхолаживания высокого давления</title>
Схема КИП насосов 21JNA11AP001 и 21JNA12AP001 ав. расхол.  НД и ВД</text>
  <line x1="884.315" y1="980.402" x2="883.432" y2="768.478" stroke="black"/> 
  <line x1="849.649" y1="981.402" x2="849.649" y2="768.902" stroke="black"/> 
  <line x1="427.482" y1="667.473" x2="428.482" y2="592.902" stroke="black"/> 
  <line x1="278.482" y1="933.902" x2="279.209" y2="841.759" stroke="black"/> 
  <line x1="929" y1="902.333" x2="929" y2="551.857" stroke="black" stroke-width="3"/> 
  <line x1="1188.67" y1="903" x2="1189.33" y2="634" stroke="black" stroke-width="3"/> 
  <line x1="609.785" y1="951.392" x2="1559.83" y2="957.833" stroke="black"/> 
  <line x1="1231.31" y1="917.902" x2="1231.31" y2="792.902" stroke="black"/> 
  <line x1="928" y1="902.333" x2="1187.15" y2="901.235" stroke="black" stroke-width="3"/> 
  <image x="73.125" y="864.616" width="175" height="25" xlink:href="DS_ana_900.svg">
    <title>&quot;21JNA12CT905&quot;</title>
    <rt:dyn type="FKKS" mode="constant" value="&quot;21JNA12CT905&quot;"/> 
    <rt:dyn type="X" mode="constant" value="&quot;T&quot;"/> 
    <rt:dyn type="ShowFrame" mode="constant" value="true"/> 
    <rt:dyn type="Color_Readings" mode="constant" value="true"/> 
    <rt:dyn type="ValueToTheRight" mode="constant" value="false"/> 
    <rt:dyn type="Show_MIS" mode="constant" value="true"/> 
  </image>
  <line x1="1249.48" y1="982.902" x2="1248.15" y2="810.402" stroke="black"/> 
  <line x1="1292.15" y1="918.326" x2="1575.59" y2="919.508" stroke="black"/> 
  <line x1="1259.15" y1="917.326" x2="1274.98" y2="917.902" stroke="black"/> 
  <g transform="rotate(90 692.349 775.758) flipX(1494.74) rotate(60 0 1.4013e-045) flipX(390.018) rotate(180 1212.44 532.643)">
    <polygon points="-363.15,-2154.08 -349.769,-2146.43 -349.769,-2161.73 -363.15,-2154.08" fill="black" stroke="black" stroke-width="1" transform="rotate(180 1279.17 367.814)"/> 
  </g>
  <line x1="1281.98" y1="980.902" x2="1283.31" y2="817.902" stroke="black"/> 
  <g transform="scale(0.41 0.41 830.985 875) flipY(875)">
    <rect x="851.719" y="582.962" width="132.114" height="148.374" rx="0" ry="0" fill="Col_Grey4" stroke="black" stroke-width="3"/> 
    <polyline points="876.109,731.332 876.109,609.382 914.729,645.962 959.439,609.382 961.069,731.332" fill="none" stroke="black" stroke-width="3"/> 
  </g>
  <line x1="895.149" y1="917.902" x2="894.482" y2="786.189" stroke="black"/> 
  <image x="1309.01" y="866.417" width="70" height="65" xlink:href="DS_CO_valve.svg" transform="rotate(90 0 0) flipY(-10) rotate(270 0 -10)">
    <title>&quot;20JNA12AA009&quot;</title>
    <rt:dyn type="KKS" mode="constant" value="&quot;20JNA12AA009&quot;"/> 
    <rt:dyn type="DATA_NARY" mode="constant" value="&quot;TPTS&quot;"/> 
    <rt:dyn type="Operate" mode="constant" value="true"/> 
  </image>
  <text x="1462.28" y="870.599" fill="black" font-size="15" text-anchor="middle">20JNA12<tspan x="1462.28" dy="15">AA201</tspan>
  </text>
  <text x="1354.38" y="865.902" fill="black" font-size="15" text-anchor="middle">20JNA12<tspan x="1354.38" dy="15">AA009</tspan>
  </text>
  <text x="1415.15" y="979.674" fill="black" font-size="15" text-anchor="middle">21KAA10<tspan x="1415.15" dy="15">AA203</tspan>
  </text>
  <image x="1308.48" y="817.902" width="175" height="25" xlink:href="DS_ana_900.svg">
    <title>&quot;21JNA12CT913&quot;</title>
    <rt:dyn type="FKKS" mode="constant" value="&quot;21JNA12CT913&quot;"/> 
    <rt:dyn type="X" mode="constant" value="&quot;T&quot;"/> 
    <rt:dyn type="ShowFrame" mode="constant" value="true"/> 
    <rt:dyn type="Color_Readings" mode="constant" value="true"/> 
    <rt:dyn type="ValueToTheRight" mode="constant" value="false"/> 
    <rt:dyn type="Show_MIS" mode="constant" value="true"/> 
  </image>
  <image x="991.04" y="867.993" width="175" height="25" xlink:href="DS_ana.svg">
    <title>&quot;21JNA12CP003&quot;</title>
    <rt:dyn type="FKKS" mode="constant" value="&quot;21JNA12CP003&quot;"/> 
    <rt:dyn type="X" mode="constant" value="&quot;P&quot;"/> 
    <rt:dyn type="ShowFrame" mode="constant" value="true"/> 
    <rt:dyn type="Color_Readings" mode="constant" value="true"/> 
    <rt:dyn type="ValueToTheRight" mode="constant" value="false"/> 
  </image>
  <g transform="rotate(90 1094.62 625.758)">
    <g>
      <line x1="1312.05" y1="771.069" x2="1326.05" y2="788.402" stroke="black"/> 
      <line x1="1326.05" y1="788.402" x2="1342.05" y2="771.069" stroke="black"/> 
    </g>
    <g transform="flipY(616.333)">
      <line x1="1313.05" y1="420.607" x2="1327.05" y2="437.94" stroke="black"/> 
      <line x1="1327.05" y1="437.94" x2="1343.05" y2="420.607" stroke="black"/> 
    </g>
  </g>
  <path d="M823.888 -466.883 A8 9.305 0 1 0 823.888 -448.273 " fill="none" stroke="black" transform="rotate(270 1205.75 765.346) flipY() translate(0 -828) translate(229.642 442.62)"/> 
  <path d="M823.888 -433.474 A8 9.305 0 1 0 823.888 -414.864 " fill="none" stroke="black" transform="rotate(270 1205.75 765.346) flipY() translate(0 -828) translate(229.642 442.62)"/> 
  <line x1="893.982" y1="917.902" x2="1240.67" y2="917.667" stroke="black"/> 
  <image x="653.482" y="958.902" width="175" height="25" xlink:href="DS_ana.svg">
    <title>&quot;21KAA10CT018&quot;</title>
    <rt:dyn type="FKKS" mode="constant" value="&quot;21KAA10CT018&quot;"/> 
    <rt:dyn type="X" mode="constant" value="&quot;T&quot;"/> 
    <rt:dyn type="ShowFrame" mode="constant" value="true"/> 
    <rt:dyn type="Color_Readings" mode="constant" value="true"/> 
    <rt:dyn type="ValueToTheRight" mode="constant" value="false"/> 
  </image>
  <image x="303.482" y="890.331" width="175" height="25" xlink:href="DS_ana.svg">
    <title>&quot;21JNA12CT009&quot;</title>
    <rt:dyn type="FKKS" mode="constant" value="&quot;21JNA12CT009&quot;"/> 
    <rt:dyn type="X" mode="constant" value="&quot;T&quot;"/> 
    <rt:dyn type="ShowFrame" mode="constant" value="true"/> 
    <rt:dyn type="Color_Readings" mode="constant" value="true"/> 
    <rt:dyn type="ValueToTheRight" mode="constant" value="false"/> 
  </image>
  <image x="244.588" y="610.872" width="175" height="25" xlink:href="DS_ana.svg">
    <title>&quot;21JNA12CT008&quot;</title>
    <rt:dyn type="FKKS" mode="constant" value="&quot;21JNA12CT008&quot;"/> 
    <rt:dyn type="X" mode="constant" value="&quot;T&quot;"/> 
    <rt:dyn type="ShowFrame" mode="constant" value="true"/> 
    <rt:dyn type="Color_Readings" mode="constant" value="true"/> 
    <rt:dyn type="ValueToTheRight" mode="constant" value="false"/> 
  </image>
  <text x="280.696" y="990.159" fill="black" font-size="15" font-weight="bold" text-anchor="middle">PEB1</text>
  <polygon points="1331.74,-36.0721 1345.12,-28.4221 1345.12,-43.7223 1331.74,-36.0721" fill="black" stroke="black" stroke-width="1" transform="rotate(90 989.943 631.239) rotate(180 1279.17 367.814)"/> 
  <image x="648.482" y="876.235" width="175" height="25" xlink:href="DS_ana_900.svg">
    <title>&quot;21JNA12CT912&quot;</title>
    <rt:dyn type="FKKS" mode="constant" value="&quot;21JNA12CT912&quot;"/> 
    <rt:dyn type="X" mode="constant" value="&quot;T&quot;"/> 
    <rt:dyn type="ShowFrame" mode="constant" value="true"/> 
    <rt:dyn type="Color_Readings" mode="constant" value="true"/> 
    <rt:dyn type="ValueToTheRight" mode="constant" value="false"/> 
    <rt:dyn type="Show_MIS" mode="constant" value="true"/> 
  </image>
  <image x="715.071" y="595" width="175" height="25" xlink:href="DS_ana_900.svg">
    <title>&quot;21JNA12CP901&quot;</title>
    <rt:dyn type="FKKS" mode="constant" value="&quot;21JNA12CP901&quot;"/> 
    <rt:dyn type="X" mode="constant" value="&quot;P&quot;"/> 
    <rt:dyn type="ShowFrame" mode="constant" value="true"/> 
    <rt:dyn type="Color_Readings" mode="constant" value="true"/> 
    <rt:dyn type="ValueToTheRight" mode="constant" value="false"/> 
    <rt:dyn type="Show_MIS" mode="constant" value="true"/> 
  </image>
  <image x="1221.81" y="617.71" width="175" height="25" xlink:href="DS_ana_900.svg">
    <title>&quot;21JNA12CP902&quot;</title>
    <rt:dyn type="FKKS" mode="constant" value="&quot;21JNA12CP902&quot;"/> 
    <rt:dyn type="X" mode="constant" value="&quot;P&quot;"/> 
    <rt:dyn type="ShowFrame" mode="constant" value="true"/> 
    <rt:dyn type="Color_Readings" mode="constant" value="true"/> 
    <rt:dyn type="ValueToTheRight" mode="constant" value="false"/> 
    <rt:dyn type="Show_MIS" mode="constant" value="true"/> 
  </image>
  <image x="1221.63" y="584.5" width="175" height="25" xlink:href="DS_ana_900.svg">
    <title>&quot;21JNA12CF901&quot;</title>
    <rt:dyn type="FKKS" mode="constant" value="&quot;21JNA12CF901&quot;"/> 
    <rt:dyn type="X" mode="constant" value="&quot;F&quot;"/> 
    <rt:dyn type="ShowFrame" mode="constant" value="true"/> 
    <rt:dyn type="Color_Readings" mode="constant" value="true"/> 
    <rt:dyn type="ValueToTheRight" mode="constant" value="false"/> 
    <rt:dyn type="Show_MIS" mode="constant" value="true"/> 
  </image>
  <image x="1377.26" y="673.402" width="175" height="25" xlink:href="DS_ana_900.svg">
    <title>&quot;21JNA12CT906&quot;</title>
    <rt:dyn type="FKKS" mode="constant" value="&quot;21JNA12CT906&quot;"/> 
    <rt:dyn type="X" mode="constant" value="&quot;T&quot;"/> 
    <rt:dyn type="ShowFrame" mode="constant" value="true"/> 
    <rt:dyn type="Color_Readings" mode="constant" value="true"/> 
    <rt:dyn type="ValueToTheRight" mode="constant" value="false"/> 
    <rt:dyn type="Show_MIS" mode="constant" value="true"/> 
  </image>
  <image x="559.539" y="941.642" width="65" height="25" xlink:href="obj_link.svg" transform="flipX(37.4999)">
    <rt:dyn type="TextStr" mode="constant" value="&quot;KAA1&quot;"/> 
    <rt:event type="OnClick">LoadNew(&quot;&quot;)</rt:event>
    <rt:dyn type="ModName" mode="constant" value="&quot;kaa1&quot;"/> 
  </image>
  <image x="891.312" y="532.44" width="65" height="25" xlink:href="obj_link.svg" transform="rotate(90 37.3616 12.4999)">
    <rt:event type="OnClick">LoadNew(&quot;&quot;)</rt:event>
    <rt:dyn type="ModName" mode="constant" value="&quot;21jna&quot;"/> 
  </image>
  <image x="1487" y="944" width="65" height="25" xlink:href="obj_link.svg" transform="flipX(37.4999)">
    <rt:dyn type="TextStr" mode="constant" value="&quot;KAA1&quot;"/> 
    <rt:event type="OnClick">LoadNew(&quot;&quot;)</rt:event>
    <rt:dyn type="ModName" mode="constant" value="&quot;kaa1&quot;"/> 
  </image>
  <image x="1532.77" y="906.826" width="85" height="25" xlink:href="obj_link.svg" transform="flipX(37.4999)">
    <rt:dyn type="TextStr" mode="constant" value="&quot;KBC10-30&quot;"/> 
    <rt:event type="OnClick">LoadNew(&quot;&quot;)</rt:event>
    <rt:dyn type="ModName" mode="constant" value="&quot;kbc10_30&quot;"/> 
  </image>
  <image x="1429.78" y="875.826" width="70" height="65" xlink:href="DS_Reg_valve.svg">
    <rt:dyn type="DATA_NARY" mode="constant" value="&quot;NONE&quot;"/> 
  </image>
  <image x="1382.92" y="913.235" width="70" height="65" xlink:href="DS_Reg_valve.svg">
    <rt:dyn type="DATA_NARY" mode="constant" value="&quot;NONE&quot;"/> 
  </image>
  <image x="390.857" y="558.902" width="65" height="25" xlink:href="obj_link.svg" transform="rotate(90 37.3616 12.4999)">
    <rt:event type="OnClick">LoadNew(&quot;&quot;)</rt:event>
    <rt:dyn type="ModName" mode="constant" value="&quot;peb1&quot;"/> 
  </image>
  <image x="243.2" y="933.121" width="65" height="25" xlink:href="obj_link.svg" transform="rotate(90 37.3616 12.4999)">
    <rt:event type="OnClick">LoadNew(&quot;&quot;)</rt:event>
    <rt:dyn type="ModName" mode="constant" value="&quot;peb1&quot;"/> 
  </image>
  <g transform="scale(0.721986 0.721986 819.501 528.425)">
    <rect x="334.879" y="-337.669" width="10.8043" height="313.358" rx="0.432892" ry="0.432892" fill="gray" stroke="black" stroke-width="0.28418" transform="flipY() translate(0 -828) translate(-1223.04 110.188) scale(3.5 0.7)"/> 
    <rect x="384.746" y="-141.5" width="372.145" height="250.033" rx="5.84424" ry="1.46106" fill="gray" stroke="black" stroke-width="0.962891" transform="flipY() translate(0 -828) translate(-412.163 0) scale(1.03704 1)"/> 
    <rect x="317.849" y="-264.882" width="16.973" height="167.787" rx="0" ry="0" fill="gray" stroke="black" stroke-width="0.28418" transform="flipY() translate(0 -828) translate(-1223.04 110.188) scale(3.5 0.7)"/> 
    <rect x="618.145" y="-328.264" width="85.7061" height="294.549" rx="0" ry="0" fill="gray" stroke="black" stroke-width="0.28418" transform="flipY() translate(0 -828) translate(-1223.04 110.188) scale(3.5 0.7)"/> 
    <rect x="455.975" y="-336.778" width="10.7923" height="311.576" rx="0.432892" ry="0.432892" fill="gray" stroke="black" stroke-width="0.28418" transform="flipY() translate(0 -828) translate(-1223.04 110.188) scale(3.5 0.7)"/> 
    <rect x="466.817" y="-259.449" width="16.348" height="156.918" rx="0" ry="0" fill="gray" stroke="black" stroke-width="0.28418" transform="flipY() translate(0 -828) translate(-1223.04 110.188) scale(3.5 0.7)"/> 
    <rect x="483.157" y="-210.465" width="9.42126" height="58.9541" rx="0" ry="0" fill="gray" stroke="black" stroke-width="0.28418" transform="flipY() translate(0 -828) translate(-1223.04 110.188) scale(3.5 0.7)"/> 
    <rect x="492.533" y="-224.489" width="43" height="87" rx="0" ry="0" fill="gray" stroke="black" stroke-width="0.28418" transform="flipY() translate(0 -828) translate(-1223.04 110.188) scale(3.5 0.7)"/> 
    <rect x="535.434" y="-259.275" width="13.3412" height="156.572" rx="0" ry="0" fill="gray" stroke="black" stroke-width="0.28418" transform="flipY() translate(0 -828) translate(-1223.04 110.188) scale(3.5 0.7)"/> 
    <rect x="548.88" y="-224.489" width="43" height="87" rx="0" ry="0" fill="gray" stroke="black" stroke-width="0.28418" transform="flipY() translate(0 -828) translate(-1223.04 110.188) scale(3.5 0.7)"/> 
    <rect x="591.91" y="-259.212" width="26.2784" height="156.446" rx="0" ry="0" fill="gray" stroke="black" stroke-width="0.28418" transform="flipY() translate(0 -828) translate(-1223.04 110.188) scale(3.5 0.7)"/> 
    <rect x="700.82" y="-389.615" width="18.6147" height="417.251" rx="0" ry="0" fill="gray" stroke="black" stroke-width="0.28418" transform="flipY() translate(0 -828) translate(-1223.04 110.188) scale(3.5 0.7)"/> 
    <polygon points="1227.83,740.336 1227.97,695.669 1294.97,696.669" fill="Col_BGSand"/> 
    <polygon points="1227.97,251.499 1228.73,204.59 1294.71,205.317" fill="Col_BGSand" transform="flipY(599.076)"/> 
    <rect x="719.157" y="-392.789" width="23.9122" height="423.601" rx="0" ry="0" fill="gray" stroke="black" stroke-width="0.28418" transform="flipY() translate(0 -828) translate(-1223.04 110.188) scale(3.5 0.7)"/> 
    <rect x="742.864" y="-330.977" width="30.059" height="299.975" rx="0" ry="0" fill="gray" stroke="black" stroke-width="0.28418" transform="flipY() translate(0 -828) translate(-1223.04 110.188) scale(3.5 0.7)"/> 
    <image x="1086.13" y="800.695" width="80" height="80" xlink:href="DS_motor.svg">
      <title>&quot;21JNA12AP001&quot;</title>
      <rt:dyn type="KKS" mode="constant" value="&quot;21JNA12AP001&quot;"/> 
      <rt:dyn type="DATA_NARY" mode="constant" value="&quot;TPTS&quot;"/> 
      <rt:dyn type="Operate" mode="constant" value="TRUE"/> 
    </image>
    <image x="196.193" y="902.456" width="25" height="25" xlink:href="bin_indicator.svg">
      <title>&quot;21JNA12CL001&quot;</title>
      <rt:dyn type="PointID" mode="constant" value="&quot;21JNA12CL001_XG01&quot;"/> 
    </image>
    <text x="276.496" y="915.577" fill="black" font-size="15" text-anchor="middle">утечка из<tspan x="276.496" dy="15">воздухоохл</tspan>
    </text>
    <polyline points="-95.0342,878.669 -96.0342,954.669 -62.0342,993.669" stroke="black"/> 
    <polyline points="429.966,853.669 430.648,918.063 457.921,934.729" stroke="black"/> 
    <polyline points="904.964,824.669 904.964,774.669 862.466,753.456" stroke="black"/> 
    <circle cx="209.657" cy="192.089" r="3.14044" fill="black" stroke="black" stroke-width="1" transform="flipY() translate(0 -828) translate(219.956 -216.972)"/> 
    <circle cx="685.657" cy="222.423" r="3.14044" fill="black" stroke="black" stroke-width="1" transform="flipY() translate(0 -828) translate(219.956 -216.972)"/> 
    <circle cx="1235.66" cy="229.423" r="3.14044" fill="black" stroke="black" stroke-width="1" transform="flipY() translate(0 -828) translate(219.956 -216.972)"/> 
    <circle cx="-315.343" cy="164.756" r="3.14044" fill="black" stroke="black" stroke-width="1" transform="flipY() translate(0 -828) translate(219.956 -216.972)"/> 
  </g>
  <g transform="scale(0.41 0.41 830.985 875) flipY(875)">
    <rect x="1824.89" y="582.962" width="136.177" height="148.377" rx="0" ry="0" fill="Col_Grey4" stroke="black" stroke-width="3"/> 
    <polyline points="1851.72,731.342 1851.72,609.392 1890.34,645.972 1935.05,609.392 1936.68,731.342" fill="none" stroke="black" stroke-width="3"/> 
  </g>
  <image x="545.247" y="820.902" width="175" height="25" xlink:href="DS_ana_900.svg">
    <title>&quot;21JNA12CT904&quot;</title>
    <rt:dyn type="FKKS" mode="constant" value="&quot;21JNA12CT904&quot;"/> 
    <rt:dyn type="X" mode="constant" value="&quot;T&quot;"/> 
    <rt:dyn type="ShowFrame" mode="constant" value="true"/> 
    <rt:dyn type="Color_Readings" mode="constant" value="true"/> 
    <rt:dyn type="ValueToTheRight" mode="constant" value="false"/> 
    <rt:dyn type="Show_MIS" mode="constant" value="true"/> 
  </image>
  <image x="678.482" y="667.902" width="175" height="25" xlink:href="DS_ana_900.svg">
    <title>&quot;21JNA12CT907&quot;</title>
    <rt:dyn type="FKKS" mode="constant" value="&quot;21JNA12CT907&quot;"/> 
    <rt:dyn type="X" mode="constant" value="&quot;T&quot;"/> 
    <rt:dyn type="ShowFrame" mode="constant" value="true"/> 
    <rt:dyn type="Color_Readings" mode="constant" value="true"/> 
    <rt:dyn type="ValueToTheRight" mode="constant" value="false"/> 
    <rt:dyn type="Show_MIS" mode="constant" value="true"/> 
  </image>
  <text x="944.36" y="504.071" fill="black" font-size="15" font-weight="bold" text-anchor="middle">21JNA</text>
  <text x="1187.42" y="499.5" fill="black" font-size="15" font-weight="bold" text-anchor="middle">21JNA</text>
  <g transform="scale(0.4372 0.4372 1346.14 268.182)">
    <circle cx="987.914" cy="1077.78" r="28.7879" fill="none" stroke="black" stroke-width="3"/> 
    <line x1="968.414" y1="1058.13" x2="956.294" y2="970.249" stroke="black" stroke-width="3"/> 
    <line x1="1007.8" y1="1058.13" x2="1019.92" y2="972.249" stroke="black" stroke-width="3"/> 
    <line x1="956.294" y1="971.765" x2="1021.44" y2="971.765" stroke="black" stroke-width="3"/> 
  </g>
  <line x1="1189.43" y1="576.439" x2="1189.6" y2="551.439" stroke="black" stroke-width="3"/> 
  <image x="1153.61" y="517.362" width="65" height="25" xlink:href="obj_link.svg" transform="rotate(90 37.6379 12.5) flipX(37.4999)">
    <rt:event type="OnClick">LoadNew(&quot;&quot;)</rt:event>
    <rt:dyn type="ModName" mode="constant" value="&quot;21jna&quot;"/> 
  </image>
  <line x1="928" y1="625" x2="1178" y2="625" stroke="black" stroke-width="3"/> 
  <text x="439.357" y="528.643" fill="black" font-size="15" font-weight="bold" text-anchor="middle">PEB1</text>
  <image x="1221.21" y="536" width="175" height="25" xlink:href="DS_ana_900.svg">
    <title>&quot;21JNA12CF902&quot;</title>
    <rt:dyn type="FKKS" mode="constant" value="&quot;21JNA12CF902&quot;"/> 
    <rt:dyn type="X" mode="constant" value="&quot;F&quot;"/> 
    <rt:dyn type="ShowFrame" mode="constant" value="true"/> 
    <rt:dyn type="Color_Readings" mode="constant" value="true"/> 
    <rt:dyn type="ValueToTheRight" mode="constant" value="false"/> 
    <rt:dyn type="Show_MIS" mode="constant" value="true"/> 
  </image>
  <image x="1751" y="200" width="110" height="25" xlink:href="obj_link.svg">
    <rt:dyn type="TextStr" mode="constant" value="&quot;JNA11_TZB&quot;"/> 
    <rt:event type="OnClick">LoadNew(&quot;&quot;)</rt:event>
    <rt:dyn type="ModName" mode="constant" value="&quot;jna11_tzb&quot;"/> 
  </image>
  <image x="1751" y="809" width="110" height="25" xlink:href="obj_link.svg">
    <rt:dyn type="TextStr" mode="constant" value="&quot;JNA12_TZB&quot;"/> 
    <rt:event type="OnClick">LoadNew(&quot;&quot;)</rt:event>
    <rt:dyn type="ModName" mode="constant" value="&quot;jna12_tzb&quot;"/> 
  </image>
  <text x="678.5" y="73" fill="black" font-size="20" font-weight="normal" text-anchor="middle">
    <title>Схема обвязки и КИП насоса аварийного и планового расхолаживания высокого давления</title>
21JNA11AP001</text>
  <text x="678" y="559.833" fill="black" font-size="20" font-weight="normal" text-anchor="middle">
    <title>Схема обвязки и КИП насоса аварийного и планового расхолаживания высокого давления</title>
21JNA12AP001</text>
  <image x="251" y="752" width="175" height="25" xlink:href="DS_ana.svg">
    <title>&quot;21JNA12CT010&quot;</title>
    <rt:dyn type="FKKS" mode="constant" value="&quot;21JNA12CT010&quot;"/> 
    <rt:dyn type="X" mode="constant" value="&quot;T&quot;"/> 
    <rt:dyn type="ShowFrame" mode="constant" value="true"/> 
    <rt:dyn type="Color_Readings" mode="constant" value="true"/> 
    <rt:dyn type="ValueToTheRight" mode="constant" value="false"/> 
  </image>
  <image x="229" y="725" width="175" height="25" xlink:href="DS_ana_900.svg">
    <title>&quot;21JNA12CT911&quot;</title>
    <rt:dyn type="FKKS" mode="constant" value="&quot;21JNA12CT911&quot;"/> 
    <rt:dyn type="X" mode="constant" value="&quot;T&quot;"/> 
    <rt:dyn type="ShowFrame" mode="constant" value="true"/> 
    <rt:dyn type="Color_Readings" mode="constant" value="true"/> 
    <rt:dyn type="ValueToTheRight" mode="constant" value="false"/> 
    <rt:dyn type="Show_MIS" mode="constant" value="true"/> 
  </image>
  <image x="232.125" y="225" width="175" height="25" xlink:href="DS_ana_900.svg">
    <title>&quot;21JNA11CT911&quot;</title>
    <rt:dyn type="FKKS" mode="constant" value="&quot;21JNA11CT911&quot;"/> 
    <rt:dyn type="X" mode="constant" value="&quot;T&quot;"/> 
    <rt:dyn type="ShowFrame" mode="constant" value="true"/> 
    <rt:dyn type="Color_Readings" mode="constant" value="true"/> 
    <rt:dyn type="ValueToTheRight" mode="constant" value="false"/> 
    <rt:dyn type="Show_MIS" mode="constant" value="true"/> 
  </image>
  <image x="254" y="252" width="175" height="25" xlink:href="DS_ana.svg">
    <title>&quot;21JNA11CT010&quot;</title>
    <rt:dyn type="FKKS" mode="constant" value="&quot;21JNA11CT010&quot;"/> 
    <rt:dyn type="X" mode="constant" value="&quot;T&quot;"/> 
    <rt:dyn type="ShowFrame" mode="constant" value="true"/> 
    <rt:dyn type="Color_Readings" mode="constant" value="true"/> 
    <rt:dyn type="ValueToTheRight" mode="constant" value="false"/> 
  </image>
  <polyline points="1377.64,184.924 1327.56,184.924 1277.56,233.409" stroke="black"/> 
  <polyline points="1376.12,688.826 1326.04,688.826 1276.04,737.311" stroke="black"/> 
  <text x="1813.21" y="467.928" fill="black" font-size="15" text-anchor="middle">Вибросостояние</text>
  <image x="1750" y="475" width="100" height="25" xlink:href="obj_Button.svg">
    <rt:event type="OnClick">LoadNew(&quot;nvo_jna_kaa&quot;)</rt:event>
    <rt:dyn type="Label" mode="constant" value="&quot;JNA_KAA&quot;"/> 
    <rt:dyn type="T_Size" mode="constant" value="16"/> 
  </image>
  <image x="1750" y="532" width="100" height="25" xlink:href="obj_Button.svg">
    <rt:event type="OnClick">LoadNew(&quot;psp1&quot;)</rt:event>
    <rt:dyn type="Label" mode="constant" value="&quot;PSP-1&quot;"/> 
    <rt:dyn type="T_Size" mode="constant" value="16"/> 
  </image>
</svg>
