<?xml  version="1.0" encoding="UTF-8"?>
<svg color="Col_BGSand" xmlns="http://www.w3.org/2000/svg" xmlns:rt="http://www.rts.co.at/2001/XMLSchema/RtSvgPL" xmlns:xlink="http://www.w3.org/1999/xlink" xmlns:xsi="http://www.w3.org/2001/XMLSchema-instance" xsi:schemaLocation="http://www.w3.org/2000/svg C:\RTS\RtSvg\XML\SVG.xsd" viewBox="0 0 1914 1000" width="1914" height="1000" id="JNG40" fill="none">
  <title>Система гидроемкостей второй ступени (пассивная часть системы аварийного охлаждения зоны)</title>
  <rt:model revision="3" modelversion="7.2.0.24" comment="UMod all_nsb&#10;LMod jng30&#10;RMod jng50_80"/> 
  <polyline points="1660.67,725 1527,725 1527,630.667" fill="none" stroke="black"/> 
  <polyline points="1275,598.75 1275,500 1775,500 1775,600" fill="none" stroke="black"/> 
  <polyline points="1250,200 1250,600 1788,600" fill="none" stroke="black" stroke-width="3"/> 
  <polyline points="950,900 950,825 1500,825 1500,900" fill="none" stroke="black"/> 
  <polyline points="800,689 800,900 1825,900" fill="none" stroke="black" stroke-width="3"/> 
  <polyline points="275,725 275,975 425,975" fill="none" stroke="black" stroke-width="3"/> 
  <polyline points="75,600 75,725 800,725" fill="none" stroke="black" stroke-width="3"/> 
  <polyline points="75,350 75,200 1475,200 1475,300 1775,300 1775,151.5" fill="none" stroke="black" stroke-width="3"/> 
  <polyline points="495,561.75 495,690 1105,690 1105,561" fill="none" stroke="black" stroke-width="3"/> 
  <line x1="603" y1="259.5" x2="603" y2="201" stroke="black" stroke-width="3"/> 
  <line x1="1774" y1="225.5" x2="1811.66" y2="225.546" stroke="black" stroke-width="3"/> 
  <line x1="1589.34" y1="224.954" x2="1627" y2="225" stroke="black" stroke-width="3"/> 
  <line x1="1150" y1="307.5" x2="1150" y2="202" stroke="black" stroke-width="3"/> 
  <line x1="1084.83" y1="690" x2="1085" y2="556" stroke="black" stroke-width="3"/> 
  <line x1="1065" y1="690" x2="1065" y2="555.5" stroke="black" stroke-width="3"/> 
  <line x1="1010" y1="690" x2="1010" y2="553.5" stroke="black" stroke-width="3"/> 
  <line x1="535" y1="690" x2="535" y2="555" stroke="black" stroke-width="3"/> 
  <line x1="515" y1="690" x2="515" y2="553.5" stroke="black" stroke-width="3"/> 
  <line x1="590" y1="690" x2="590" y2="556.25" stroke="black" stroke-width="3"/> 
  <line x1="1635" y1="275" x2="1635.35" y2="242.018" stroke="black" stroke-width="3"/> 
  <line x1="1590" y1="300" x2="1590" y2="152" stroke="black" stroke-width="3"/> 
  <line x1="1590" y1="275" x2="1636.25" y2="275" stroke="black" stroke-width="3"/> 
  <text x="1331.08" y="325" fill="black" font-size="15" text-anchor="middle">
    <title>11FAK14AA002</title>
22JNG40AA001</text>
  <text x="725" y="800" fill="black" font-size="15" text-anchor="middle">22JNG40<tspan x="725" dy="15">AA004</tspan>
  </text>
  <g transform="rotate(180 1051.65 400) flipX(42.4883) flipX(62.3385) flipX(448.838) flipX(1844.84) flipX(1153.84) flipX(1153.84) rotate(270 1153.84 98.3365)">
    <title>KTB</title>
    <rt:event type="OnClick">LoadNew(&quot;KTB&quot;)</rt:event>
  </g>
  <image x="1205.15" y="292.5" width="70" height="65" xlink:href="DS_CO_valve.svg" transform="scale(1.39243 1.39243 0 -10) rotate(270 0 -10) scale(0.7075 0.7075 0 -10)">
    <title>&quot;22JNG40AA001&quot;</title>
    <rt:dyn type="KKS" mode="constant" value="&quot;22JNG40AA001&quot;"/> 
    <rt:dyn type="DATA_NARY" mode="constant" value="&quot;TPTS&quot;"/> 
    <rt:dyn type="Operate" mode="constant" value="TRUE"/> 
  </image>
  <g transform="rotate(180 1811.09 687.74) rotate(180 1051.65 400) flipX(42.4883) flipX(62.3385) flipX(448.838) flipX(1844.84) flipX(1153.84) flipX(1153.84) rotate(270 1153.84 98.3365)">
    <title>KTB</title>
    <rt:event type="OnClick">LoadNew(&quot;KTB&quot;)</rt:event>
  </g>
  <text x="1538" y="225" fill="black" font-size="15" text-anchor="middle">
    <title>11FAK14AA002</title>
22JNG40<tspan x="1538" dy="15">AA901</tspan>
  </text>
  <text x="1725" y="225" fill="black" font-size="15" text-anchor="middle">22JNG40<tspan x="1725" dy="15">AA902</tspan>
  </text>
  <line x1="622" y1="899.444" x2="800" y2="900" stroke="black"/> 
  <image x="755.378" y="767.5" width="70" height="65" xlink:href="DS_CO_valve.svg" transform="scale(1.37473 1.37473 0.27771 -10) rotate(270 0 -10) scale(0.7075 0.7075 0 -10)">
    <title>&quot;22JNG40AA004&quot;</title>
    <rt:dyn type="KKS" mode="constant" value="&quot;22JNG40AA004&quot;"/> 
    <rt:dyn type="DATA_NARY" mode="constant" value="&quot;TPTS&quot;"/> 
    <rt:dyn type="Operate" mode="constant" value="TRUE"/> 
  </image>
  <g transform="scale(0.729271 0.729271 340.131 467.587)">
    <circle cx="354.217" cy="318.437" r="59.8691" fill="Col_Grey3" stroke="black" stroke-width="0" transform="flipY() translate(0 -828) translate(1447.07 -127.695) matrix(1.24568e-007 1.2 -2.662 5.61539e-008 0 0)"/> 
    <rect x="127.687" y="314.686" width="123.023" height="120.112" rx="0" ry="0" fill="Col_Grey3" stroke="black" stroke-width="0" transform="flipY() translate(0 -828) translate(1596.88 -14.8213) matrix(9.38442e-008 2.44 -2.662 1.51561e-007 0 0)"/> 
    <circle cx="345.062" cy="318.624" r="59.8691" fill="Col_Grey3" stroke="black" stroke-width="0" transform="flipY() translate(0 -828) translate(1447.07 183.123) matrix(1.24568e-007 1.2 -2.662 5.61539e-008 0 0)"/> 
  </g>
  <line x1="590" y1="580" x2="700" y2="580" stroke="black" stroke-width="3"/> 
  <line x1="700" y1="582" x2="700" y2="463" stroke="black"/> 
  <line x1="900" y1="582" x2="900" y2="465" stroke="black"/> 
  <image x="420.636" y="365.818" width="175" height="24.2422" xlink:href="DS_ana.svg">
    <title>&quot;20JNG40CQ001&quot;</title>
    <rt:dyn type="FKKS" mode="constant" value="&quot;20JNG40CQ001&quot;"/> 
    <rt:dyn type="X" mode="constant" value="&quot;Q&quot;"/> 
    <rt:dyn type="ShowFrame" mode="constant" value="true"/> 
    <rt:dyn type="Color_Readings" mode="constant" value="true"/> 
    <rt:dyn type="ValueToTheRight" mode="constant" value="false"/> 
  </image>
  <image x="420.636" y="438.636" width="175" height="25" xlink:href="DS_ana.svg">
    <title>&quot;22JNG40CL001&quot;</title>
    <rt:dyn type="FKKS" mode="constant" value="&quot;22JNG40CL001&quot;"/> 
    <rt:dyn type="X" mode="constant" value="&quot;L&quot;"/> 
    <rt:dyn type="ShowFrame" mode="constant" value="true"/> 
    <rt:dyn type="Color_Readings" mode="constant" value="true"/> 
    <rt:dyn type="ValueToTheRight" mode="constant" value="false"/> 
  </image>
  <image x="420.636" y="328.303" width="175" height="25" xlink:href="DS_ana.svg">
    <title>&quot;22JNG40CP001&quot;</title>
    <rt:dyn type="FKKS" mode="constant" value="&quot;22JNG40CP001&quot;"/> 
    <rt:dyn type="X" mode="constant" value="&quot;P&quot;"/> 
    <rt:dyn type="ShowFrame" mode="constant" value="true"/> 
    <rt:dyn type="Color_Readings" mode="constant" value="true"/> 
    <rt:dyn type="Color_Readings" mode="constant" value="true"/> 
    <rt:dyn type="ValueToTheRight" mode="constant" value="false"/> 
  </image>
  <image x="420.636" y="402.484" width="175" height="25" xlink:href="DS_ana.svg">
    <title>&quot;20JNG40CT001&quot;</title>
    <rt:dyn type="FKKS" mode="constant" value="&quot;20JNG40CT001&quot;"/> 
    <rt:dyn type="X" mode="constant" value="&quot;T&quot;"/> 
    <rt:dyn type="ShowFrame" mode="constant" value="true"/> 
    <rt:dyn type="Color_Readings" mode="constant" value="true"/> 
    <rt:dyn type="ValueToTheRight" mode="constant" value="false"/> 
  </image>
  <line x1="1250" y1="400" x2="1475" y2="400" stroke="black"/> 
  <image x="1340" y="357.4" width="70" height="65" xlink:href="DS_CO_valve.svg" transform="scale(1.42759 1.42759 0.000163025 -9.99994) rotate(360 0 -10) scale(0.7075 0.7075 0 -10)">
    <title>&quot;22JNG40AA011&quot;</title>
    <rt:dyn type="KKS" mode="constant" value="&quot;22JNG40AA011&quot;"/> 
    <rt:dyn type="DATA_NARY" mode="constant" value="&quot;TPTS&quot;"/> 
    <rt:dyn type="Operate" mode="constant" value="TRUE"/> 
  </image>
  <text x="699" y="378.556" fill="black" font-size="15" font-weight="700" text-anchor="middle">KUA10-50</text>
  <image x="415" y="681.616" width="70" height="65" xlink:href="DS_CO_valve.svg" transform="scale(1.38127 1.38127 0.000147952 -9.99991) rotate(360 0 -10) scale(0.7075 0.7075 0 -10)">
    <title>&quot;22JNG40AA005&quot;</title>
    <rt:dyn type="KKS" mode="constant" value="&quot;22JNG40AA005&quot;"/> 
    <rt:dyn type="DATA_NARY" mode="constant" value="&quot;TPTS&quot;"/> 
    <rt:dyn type="Operate" mode="constant" value="TRUE"/> 
  </image>
  <line x1="200" y1="725" x2="200" y2="600" stroke="black" stroke-width="3"/> 
  <line x1="325" y1="725" x2="325" y2="600" stroke="black" stroke-width="3"/> 
  <text x="74" y="521" fill="black" font-size="15" font-weight="700" text-anchor="middle">JNG10</text>
  <text x="203" y="520.037" fill="black" font-size="15" font-weight="700" text-anchor="middle">JNG20</text>
  <text x="323.5" y="519" fill="black" font-size="15" font-weight="700" text-anchor="middle">JNG30</text>
  <text x="355" y="437.296" fill="black" font-size="15" font-weight="700" text-anchor="middle">JNG30</text>
  <text x="220" y="436.889" fill="black" font-size="15" font-weight="700" text-anchor="middle">JNG20</text>
  <text x="75" y="437.482" fill="black" font-size="15" font-weight="700" text-anchor="middle">JNG10</text>
  <image x="605.985" y="291" width="25" height="205" xlink:href="DS_ana_bar.svg">
    <title>&quot;22JNG40CL001&quot;</title>
    <rt:dyn type="FKKS" mode="constant" value="&quot;22JNG40CL001&quot;"/> 
  </image>
  <line x1="355" y1="351" x2="355" y2="200" stroke="black" stroke-width="3"/> 
  <line x1="220" y1="347" x2="220" y2="200" stroke="black" stroke-width="3"/> 
  <image x="30" y="625" width="70" height="65" xlink:href="DS_CO_valve.svg" transform="scale(1.39243 1.39243 0 -10) rotate(270 0 -10) scale(0.7075 0.7075 0 -10)">
    <title>&quot;21JNG10AA005&quot;</title>
    <rt:dyn type="KKS" mode="constant" value="&quot;21JNG10AA005&quot;"/> 
    <rt:dyn type="DATA_NARY" mode="constant" value="&quot;TPTS&quot;"/> 
    <rt:dyn type="Operate" mode="constant" value="TRUE"/> 
  </image>
  <image x="155.149" y="625" width="70" height="65" xlink:href="DS_CO_valve.svg" transform="scale(1.39243 1.39243 0 -10) rotate(270 0 -10) scale(0.7075 0.7075 0 -10)">
    <title>&quot;21JNG20AA005&quot;</title>
    <rt:dyn type="KKS" mode="constant" value="&quot;21JNG20AA005&quot;"/> 
    <rt:dyn type="DATA_NARY" mode="constant" value="&quot;TPTS&quot;"/> 
    <rt:dyn type="Operate" mode="constant" value="TRUE"/> 
  </image>
  <line x1="212.185" y1="234.741" x2="212.285" y2="234.741" stroke="black"/> 
  <image x="310.149" y="242.5" width="70" height="65" xlink:href="DS_CO_valve.svg" transform="scale(1.39243 1.39243 0 -10) rotate(270 0 -10) scale(0.7075 0.7075 0 -10)">
    <title>&quot;22JNG30AA002&quot;</title>
    <rt:dyn type="KKS" mode="constant" value="&quot;22JNG30AA002&quot;"/> 
    <rt:dyn type="DATA_NARY" mode="constant" value="&quot;TPTS&quot;"/> 
    <rt:dyn type="Operate" mode="constant" value="TRUE"/> 
  </image>
  <image x="175" y="242.5" width="70" height="65" xlink:href="DS_CO_valve.svg" transform="scale(1.39243 1.39243 0 -10) rotate(270 0 -10) scale(0.7075 0.7075 0 -10)">
    <title>&quot;21JNG20AA002&quot;</title>
    <rt:dyn type="KKS" mode="constant" value="&quot;21JNG20AA002&quot;"/> 
    <rt:dyn type="DATA_NARY" mode="constant" value="&quot;TPTS&quot;"/> 
    <rt:dyn type="Operate" mode="constant" value="TRUE"/> 
  </image>
  <image x="30.1486" y="243.75" width="70" height="65" xlink:href="DS_CO_valve.svg" transform="scale(1.39243 1.39243 0 -10) rotate(270 0 -10) scale(0.7075 0.7075 0 -10)">
    <title>&quot;21JNG10AA002&quot;</title>
    <rt:dyn type="KKS" mode="constant" value="&quot;21JNG10AA002&quot;"/> 
    <rt:dyn type="DATA_NARY" mode="constant" value="&quot;TPTS&quot;"/> 
    <rt:dyn type="Operate" mode="constant" value="TRUE"/> 
  </image>
  <text x="448.037" y="757.444" fill="black" font-size="15" text-anchor="middle">22JNG40AA005</text>
  <text x="122" y="617" fill="black" font-size="15" text-anchor="middle">21JNG10<tspan x="122" dy="15">AA005</tspan>
  </text>
  <text x="251.148" y="616.852" fill="black" font-size="15" text-anchor="middle">21JNG20<tspan x="251.148" dy="15">AA005</tspan>
  </text>
  <text x="373" y="617" fill="black" font-size="15" text-anchor="middle">22JNG30<tspan x="373" dy="15">AA005</tspan>
  </text>
  <image x="545.227" y="598.75" width="70" height="65" xlink:href="DS_CO_valve.svg" transform="rotate(270 0.00020251 -9.99986) scale(1.38127 1.38127 0.000147952 -9.99991) rotate(360 0 -10) scale(0.7075 0.7075 0 -10)">
    <title>&quot;22JNG40AA003&quot;</title>
    <rt:dyn type="KKS" mode="constant" value="&quot;22JNG40AA003&quot;"/> 
    <rt:dyn type="DATA_NARY" mode="constant" value="&quot;TPTS&quot;"/> 
    <rt:dyn type="Operate" mode="constant" value="TRUE"/> 
  </image>
  <image x="655.296" y="500.519" width="70" height="65" xlink:href="DS_CO_valve.svg" transform="rotate(270 0.00020251 -9.99986) scale(1.38127 1.38127 0.000147952 -9.99991) rotate(360 0 -10) scale(0.7075 0.7075 0 -10)">
    <title>&quot;22JNG40AA013&quot;</title>
    <rt:dyn type="KKS" mode="constant" value="&quot;22JNG40AA013&quot;"/> 
    <rt:dyn type="DATA_NARY" mode="constant" value="&quot;TPTS&quot;"/> 
    <rt:dyn type="Operate" mode="constant" value="TRUE"/> 
  </image>
  <image x="965.227" y="597.5" width="70" height="65" xlink:href="DS_CO_valve.svg" transform="rotate(270 0.00020251 -9.99986) scale(1.38127 1.38127 0.000147952 -9.99991) rotate(360 0 -10) scale(0.7075 0.7075 0 -10)">
    <title>&quot;22JNG40AA012&quot;</title>
    <rt:dyn type="KKS" mode="constant" value="&quot;22JNG40AA012&quot;"/> 
    <rt:dyn type="DATA_NARY" mode="constant" value="&quot;TPTS&quot;"/> 
    <rt:dyn type="Operate" mode="constant" value="TRUE"/> 
  </image>
  <image x="855" y="501" width="70" height="65" xlink:href="DS_CO_valve.svg" transform="rotate(270 0.00020251 -9.99986) scale(1.38127 1.38127 0.000147952 -9.99991) rotate(360 0 -10) scale(0.7075 0.7075 0 -10)">
    <title>&quot;22JNG40AA014&quot;</title>
    <rt:dyn type="KKS" mode="constant" value="&quot;22JNG40AA014&quot;"/> 
    <rt:dyn type="DATA_NARY" mode="constant" value="&quot;TPTS&quot;"/> 
    <rt:dyn type="Operate" mode="constant" value="TRUE"/> 
  </image>
  <image x="1016" y="877.867" width="70" height="52.5" xlink:href="DS_reflux_valve.svg" transform="scale(1.43625 1.43625 0.000244141 -3.75) rotate(180 0.00027585 -3.74997) scale(0.709373 0.709373 0.000139559 -3.74997)">
    <title>&quot;22JNG40AA602&quot;</title>
    <rt:dyn type="DATA_NARY" mode="constant" value="&quot;TPTS&quot;"/> 
    <rt:dyn type="Operate" mode="constant" value="true"/> 
    <rt:dyn type="SIG_Open" mode="constant" value="&quot;22JNG40AA602_XG11&quot;"/> 
    <rt:dyn type="SIG_Close" mode="constant" value="&quot;22JNG40AA602_XG61&quot;"/> 
  </image>
  <line x1="1225" y1="900" x2="1225" y2="825" stroke="black" stroke-width="1"/> 
  <image x="1114.7" y="783.437" width="70" height="65" xlink:href="DS_CO_valve.svg" transform="scale(1.37561 1.37561 0 -10) rotate(0 0 -10) scale(0.7075 0.7075 0 -10)">
    <title>&quot;20JNG40AA008&quot;</title>
    <rt:dyn type="KKS" mode="constant" value="&quot;20JNG40AA008&quot;"/> 
    <rt:dyn type="DATA_NARY" mode="constant" value="&quot;TPTS&quot;"/> 
    <rt:dyn type="Operate" mode="constant" value="TRUE"/> 
  </image>
  <image x="989.514" y="782.238" width="70" height="65" xlink:href="DS_CO_valve.svg" transform="scale(1.38127 1.38127 0.000147952 -9.99991) rotate(360 0 -10) scale(0.7075 0.7075 0 -10)">
    <title>&quot;20JNG40AA007&quot;</title>
    <rt:dyn type="KKS" mode="constant" value="&quot;20JNG40AA007&quot;"/> 
    <rt:dyn type="DATA_NARY" mode="constant" value="&quot;TPTS&quot;"/> 
    <rt:dyn type="Operate" mode="constant" value="TRUE"/> 
  </image>
  <image x="1391.22" y="782.681" width="70" height="65" xlink:href="DS_CO_valve.svg" transform="scale(1.34371 1.34371 0 -10) rotate(0 0 -10) scale(0.7075 0.7075 0 -10)">
    <title>&quot;20JNG40AA010&quot;</title>
    <rt:dyn type="KKS" mode="constant" value="&quot;20JNG40AA010&quot;"/> 
    <rt:dyn type="DATA_NARY" mode="constant" value="&quot;TPTS&quot;"/> 
    <rt:dyn type="Operate" mode="constant" value="TRUE"/> 
  </image>
  <image x="1265.37" y="782.815" width="70" height="65" xlink:href="DS_CO_valve.svg" transform="scale(1.34938 1.34938 0 -10) rotate(360 0 -10) scale(0.7075 0.7075 0 -10)">
    <title>&quot;20JNG40AA009&quot;</title>
    <rt:dyn type="KKS" mode="constant" value="&quot;20JNG40AA009&quot;"/> 
    <rt:dyn type="DATA_NARY" mode="constant" value="&quot;TPTS&quot;"/> 
    <rt:dyn type="Operate" mode="constant" value="TRUE"/> 
  </image>
  <image x="665" y="857" width="70" height="65" xlink:href="DS_CO_valve.svg" transform="scale(1.38127 1.38127 0.000147952 -9.99991) rotate(360 0 -10) scale(0.7075 0.7075 0 -10)">
    <title>&quot;22JNG40AA006&quot;</title>
    <rt:dyn type="KKS" mode="constant" value="&quot;22JNG40AA006&quot;"/> 
    <rt:dyn type="DATA_NARY" mode="constant" value="&quot;TPTS&quot;"/> 
    <rt:dyn type="Operate" mode="constant" value="TRUE"/> 
  </image>
  <text x="699.222" y="934" fill="black" font-size="15" text-anchor="middle">22JNG40AA006</text>
  <text x="1375" y="431.833" fill="black" font-size="15" text-anchor="middle">22JNG40AA011</text>
  <text x="1054.15" y="943" fill="black" font-size="15" text-anchor="middle">22JNG40AA602</text>
  <text x="1383.59" y="944" fill="black" font-size="15" text-anchor="middle">22JNG40AA603</text>
  <text x="1024.4" y="859.676" fill="black" font-size="15" text-anchor="middle">20JNG40<tspan x="1024.4" dy="15">AA007</tspan>
  </text>
  <text x="1149.81" y="860.875" fill="black" font-size="15" text-anchor="middle">20JNG40<tspan x="1149.81" dy="15">AA008</tspan>
  </text>
  <text x="1301.37" y="857.253" fill="black" font-size="15" text-anchor="middle">20JNG40<tspan x="1301.37" dy="15">AA009</tspan>
  </text>
  <text x="1426.44" y="858.119" fill="black" font-size="15" text-anchor="middle">20JNG40<tspan x="1426.44" dy="15">AA010</tspan>
  </text>
  <image x="1355" y="457.298" width="70" height="65" xlink:href="DS_CO_valve.svg" transform="scale(1.44193 1.44193 0.000174085 -9.99994) rotate(0 0 -10) scale(0.7075 0.7075 0 -10)">
    <title>&quot;20JNG40AA016&quot;</title>
    <rt:dyn type="KKS" mode="constant" value="&quot;20JNG40AA016&quot;"/> 
    <rt:dyn type="DATA_NARY" mode="constant" value="&quot;TPTS&quot;"/> 
    <rt:dyn type="Operate" mode="constant" value="TRUE"/> 
  </image>
  <image x="1280" y="457.4" width="70" height="65" xlink:href="DS_CO_valve.svg" transform="scale(1.42759 1.42759 0.000163025 -9.99994) rotate(360 0 -10) scale(0.7075 0.7075 0 -10)">
    <title>&quot;20JNG40AA015&quot;</title>
    <rt:dyn type="KKS" mode="constant" value="&quot;20JNG40AA015&quot;"/> 
    <rt:dyn type="DATA_NARY" mode="constant" value="&quot;TPTS&quot;"/> 
    <rt:dyn type="Operate" mode="constant" value="TRUE"/> 
  </image>
  <image x="1702.41" y="458.843" width="70" height="65" xlink:href="DS_CO_valve.svg" transform="scale(1.47004 1.47004 0 -10) rotate(0 0 -10) scale(0.7075 0.7075 0 -10)">
    <title>&quot;20JNG40AA018&quot;</title>
    <rt:dyn type="KKS" mode="constant" value="&quot;20JNG40AA018&quot;"/> 
    <rt:dyn type="DATA_NARY" mode="constant" value="&quot;TPTS&quot;"/> 
    <rt:dyn type="Operate" mode="constant" value="TRUE"/> 
  </image>
  <image x="1629.63" y="458.843" width="70" height="65" xlink:href="DS_CO_valve.svg" transform="scale(1.4357 1.4357 0 -10) rotate(360 0 -10) scale(0.7075 0.7075 0 -10)">
    <title>&quot;20JNG40AA017&quot;</title>
    <rt:dyn type="KKS" mode="constant" value="&quot;20JNG40AA017&quot;"/> 
    <rt:dyn type="DATA_NARY" mode="constant" value="&quot;TPTS&quot;"/> 
    <rt:dyn type="Operate" mode="constant" value="TRUE"/> 
  </image>
  <text x="1386.26" y="535" fill="black" font-size="15" text-anchor="middle">20JNG40<tspan x="1386.26" dy="15">AA016</tspan>
  </text>
  <text x="1740.38" y="442" fill="black" font-size="15" text-anchor="middle">20JNG40<tspan x="1740.38" dy="15">AA018</tspan>
  </text>
  <text x="1313" y="535" fill="black" font-size="15" text-anchor="middle">20JNG40<tspan x="1313" dy="15">AA015</tspan>
  </text>
  <text x="1663" y="442" fill="black" font-size="15" text-anchor="middle">20JNG40<tspan x="1663" dy="15">AA017</tspan>
  </text>
  <text x="525" y="286.576" fill="black" font-size="15" font-weight="700" text-anchor="middle">22JNG40BB001</text>
  <g transform="scale(0.729271 0.729271 340.131 467.587)">
    <circle cx="353.038" cy="39.1105" r="59.8691" fill="Col_Grey3" stroke="black" stroke-width="0" transform="flipY() translate(0 -828) translate(1447.07 -127.695) matrix(1.24568e-007 1.2 -2.662 5.61539e-008 0 0)"/> 
    <rect x="127.106" y="35.3596" width="123.023" height="120.112" rx="0" ry="0" fill="Col_Grey3" stroke="black" stroke-width="0" transform="flipY() translate(0 -828) translate(1596.88 -14.8213) matrix(9.38442e-008 2.44 -2.662 1.51561e-007 0 0)"/> 
    <circle cx="343.884" cy="39.2976" r="59.8691" fill="Col_Grey3" stroke="black" stroke-width="0" transform="flipY() translate(0 -828) translate(1447.07 183.123) matrix(1.24568e-007 1.2 -2.662 5.61539e-008 0 0)"/> 
  </g>
  <image x="1000.89" y="366.85" width="175" height="24.2422" xlink:href="DS_ana.svg">
    <title>&quot;20JNG40CQ002&quot;</title>
    <rt:dyn type="FKKS" mode="constant" value="&quot;20JNG40CQ002&quot;"/> 
    <rt:dyn type="X" mode="constant" value="&quot;Q&quot;"/> 
    <rt:dyn type="ShowFrame" mode="constant" value="true"/> 
    <rt:dyn type="Color_Readings" mode="constant" value="true"/> 
    <rt:dyn type="ValueToTheRight" mode="constant" value="false"/> 
  </image>
  <image x="1000.89" y="438.668" width="175" height="25" xlink:href="DS_ana.svg">
    <title>&quot;22JNG40CL002&quot;</title>
    <rt:dyn type="FKKS" mode="constant" value="&quot;22JNG40CL002&quot;"/> 
    <rt:dyn type="X" mode="constant" value="&quot;L&quot;"/> 
    <rt:dyn type="ShowFrame" mode="constant" value="true"/> 
    <rt:dyn type="Color_Readings" mode="constant" value="true"/> 
    <rt:dyn type="ValueToTheRight" mode="constant" value="false"/> 
  </image>
  <image x="1000.89" y="329.335" width="175" height="25" xlink:href="DS_ana.svg">
    <title>&quot;22JNG40CP002&quot;</title>
    <rt:dyn type="FKKS" mode="constant" value="&quot;22JNG40CP002&quot;"/> 
    <rt:dyn type="X" mode="constant" value="&quot;P&quot;"/> 
    <rt:dyn type="ShowFrame" mode="constant" value="true"/> 
    <rt:dyn type="Color_Readings" mode="constant" value="true"/> 
    <rt:dyn type="ValueToTheRight" mode="constant" value="false"/> 
  </image>
  <image x="1000.89" y="403.516" width="175" height="25" xlink:href="DS_ana.svg">
    <title>&quot;20JNG40CT003&quot;</title>
    <rt:dyn type="FKKS" mode="constant" value="&quot;20JNG40CT003&quot;"/> 
    <rt:dyn type="X" mode="constant" value="&quot;T&quot;"/> 
    <rt:dyn type="ShowFrame" mode="constant" value="true"/> 
    <rt:dyn type="Color_Readings" mode="constant" value="true"/> 
    <rt:dyn type="ValueToTheRight" mode="constant" value="false"/> 
  </image>
  <image x="968" y="291" width="24.591" height="205" xlink:href="DS_ana_bar.svg">
    <title>&quot;22JNG40CL002&quot;</title>
    <rt:dyn type="FKKS" mode="constant" value="&quot;22JNG40CL002&quot;"/> 
  </image>
  <text x="1067.26" y="287.608" fill="black" font-size="15" font-weight="700" text-anchor="middle">22JNG40BB002</text>
  <g transform="flipY(146.444) rotate(90 1212.44 532.643)">
    <polygon points="1727.28,580.901 1740.66,588.545 1740.66,573.258 1727.28,580.901" fill="black" stroke="black" stroke-width="1" transform="rotate(180 1279.17 367.814)"/> 
  </g>
  <text x="1682" y="111" fill="black" font-size="15" font-weight="700" text-anchor="middle">к приямку спецканализации системы KTF</text>
  <image x="37.75" y="370.138" width="75" height="25" xlink:href="obj_link.svg" transform="rotate(270 37.3618 12.5)">
    <rt:dyn type="TextStr" mode="constant" value="&quot;JNG10&quot;"/> 
    <rt:event type="OnClick">LoadNew(&quot;&quot;)</rt:event>
    <rt:dyn type="ModName" mode="constant" value="&quot;jng10&quot;"/> 
  </image>
  <image x="182.75" y="370" width="75" height="25" xlink:href="obj_link.svg" transform="rotate(270 37.3618 12.5)">
    <rt:dyn type="TextStr" mode="constant" value="&quot;JNG20&quot;"/> 
    <rt:event type="OnClick">LoadNew(&quot;&quot;)</rt:event>
    <rt:dyn type="ModName" mode="constant" value="&quot;jng20&quot;"/> 
  </image>
  <image x="317.75" y="373.25" width="75" height="25" xlink:href="obj_link.svg" transform="rotate(270 37.3618 12.5)">
    <rt:dyn type="TextStr" mode="constant" value="&quot;JNG30&quot;"/> 
    <rt:event type="OnClick">LoadNew(&quot;&quot;)</rt:event>
    <rt:dyn type="ModName" mode="constant" value="&quot;jng30&quot;"/> 
  </image>
  <image x="163" y="549.862" width="75" height="25" xlink:href="obj_link.svg" transform="rotate(90 37.3618 12.5)">
    <rt:dyn type="TextStr" mode="constant" value="&quot;JNG20&quot;"/> 
    <rt:event type="OnClick">LoadNew(&quot;&quot;)</rt:event>
    <rt:dyn type="ModName" mode="constant" value="&quot;jng20&quot;"/> 
  </image>
  <image x="288" y="551" width="75" height="25" xlink:href="obj_link.svg" transform="rotate(90 37.3618 12.5)">
    <rt:dyn type="TextStr" mode="constant" value="&quot;JNG30&quot;"/> 
    <rt:event type="OnClick">LoadNew(&quot;&quot;)</rt:event>
    <rt:dyn type="ModName" mode="constant" value="&quot;jng30&quot;"/> 
  </image>
  <image x="38" y="550.862" width="75" height="25" xlink:href="obj_link.svg" transform="rotate(90 37.3618 12.5)">
    <rt:dyn type="TextStr" mode="constant" value="&quot;JNG10&quot;"/> 
    <rt:event type="OnClick">LoadNew(&quot;&quot;)</rt:event>
    <rt:dyn type="ModName" mode="constant" value="&quot;jng10&quot;"/> 
  </image>
  <text x="36" y="223" fill="black" font-size="15" text-anchor="middle">21JNG10<tspan x="36" dy="15">AA002</tspan>
  </text>
  <text x="177" y="223" fill="black" font-size="15" text-anchor="middle">21JNG20<tspan x="177" dy="15">AA002</tspan>
  </text>
  <text x="315" y="223" fill="black" font-size="15" text-anchor="middle">22JNG30<tspan x="315" dy="15">AA002</tspan>
  </text>
  <image x="548" y="886" width="75" height="25" xlink:href="obj_link.svg" transform="flipX(37.5)">
    <rt:dyn type="TextStr" mode="constant" value="&quot;KTA&quot;"/> 
    <rt:event type="OnClick">LoadNew(&quot;&quot;)</rt:event>
    <rt:dyn type="ModName" mode="constant" value="&quot;kta_2&quot;"/> 
  </image>
  <text x="645" y="637" fill="black" font-size="15" text-anchor="middle">22JNG40<tspan x="645" dy="15">AA003</tspan>
  </text>
  <text x="739" y="582" fill="black" font-size="15" text-anchor="middle">22JNG40<tspan x="739" dy="15">AA013</tspan>
  </text>
  <image x="712.53" y="389.939" width="75" height="25" xlink:href="obj_link.svg" transform="rotate(90 0 0) flipX(37.5)">
    <rt:dyn type="TextStr" mode="constant" value="&quot;KUA10&quot;"/> 
    <rt:event type="OnClick">LoadNew(&quot;&quot;)</rt:event>
    <rt:dyn type="ModName" mode="constant" value="&quot;kua10_50&quot;"/> 
  </image>
  <text x="933.875" y="630" fill="black" font-size="15" text-anchor="middle">22JNG40<tspan x="933.875" dy="15">AA012</tspan>
  </text>
  <line x1="899" y1="580" x2="1010" y2="580" stroke="black" stroke-width="3"/> 
  <text x="898" y="378.556" fill="black" font-size="15" font-weight="700" text-anchor="middle">KUA10-50</text>
  <image x="911.53" y="389.939" width="75" height="25" xlink:href="obj_link.svg" transform="rotate(90 0 0) flipX(37.5)">
    <rt:dyn type="TextStr" mode="constant" value="&quot;KUA10&quot;"/> 
    <rt:event type="OnClick">LoadNew(&quot;&quot;)</rt:event>
    <rt:dyn type="ModName" mode="constant" value="&quot;kua10_50&quot;"/> 
  </image>
  <text x="858.667" y="582.667" fill="black" font-size="15" text-anchor="middle">22JNG40<tspan x="858.667" dy="15">AA014</tspan>
  </text>
  <text x="1723.56" y="948.542" fill="black" font-size="15" text-anchor="middle">22JNG80AA602</text>
  <image x="1689.38" y="877.816" width="70" height="52.5" xlink:href="DS_reflux_valve.svg" transform="scale(1.43625 1.43625 0.000244141 -3.75) rotate(180 0.00027585 -3.74997) scale(0.709373 0.709373 0.000139559 -3.74997)">
    <title>&quot;22JNG80AA602&quot;</title>
    <rt:dyn type="DATA_NARY" mode="constant" value="&quot;TPTS&quot;"/> 
    <rt:dyn type="Operate" mode="constant" value="true"/> 
    <rt:dyn type="SIG_Open" mode="constant" value="&quot;22JNG80AA602_XG11&quot;"/> 
    <rt:dyn type="SIG_Close" mode="constant" value="&quot;22JNG80AA602_XG61&quot;"/> 
  </image>
  <g transform="flipX(1631.44) rotate(180 1212.44 532.643)">
    <polygon points="1558.96,574.342 1572.34,581.986 1572.34,566.699 1558.96,574.342" fill="black" stroke="black" stroke-width="1" transform="rotate(180 1279.17 367.814)"/> 
  </g>
  <text x="1863" y="861.909" fill="black" font-size="15" font-weight="700" text-anchor="middle">в реактор<tspan x="1863" dy="15">подача</tspan>
<tspan x="1863" dy="15">под а.з.</tspan>
  </text>
  <line x1="1558" y1="900" x2="1558" y2="875" stroke="black" stroke-width="3"/> 
  <line x1="1644" y1="900" x2="1644" y2="875" stroke="black" stroke-width="3"/> 
  <image x="1518" y="825.224" width="75" height="25" xlink:href="obj_link.svg" transform="rotate(270 41 14) flipX(37.5)">
    <rt:dyn type="TextStr" mode="constant" value="&quot;22JNA&quot;"/> 
    <rt:event type="OnClick">LoadNew(&quot;&quot;)</rt:event>
    <rt:dyn type="ModName" mode="constant" value="&quot;22jna&quot;"/> 
  </image>
  <text x="1557" y="797" fill="black" font-size="15" font-weight="700" text-anchor="middle">22JNA</text>
  <image x="1604" y="825.224" width="75" height="25" xlink:href="obj_link.svg" transform="rotate(270 41 14) flipX(37.5)">
    <rt:dyn type="TextStr" mode="constant" value="&quot;JNG 50-80&quot;"/> 
    <rt:event type="OnClick">LoadNew(&quot;&quot;)</rt:event>
    <rt:dyn type="ModName" mode="constant" value="&quot;jng50_80&quot;"/> 
  </image>
  <text x="1650" y="797" fill="black" font-size="15" font-weight="700" text-anchor="middle">JNG 50-80</text>
  <image x="1475" y="386.667" width="75" height="25" xlink:href="obj_link.svg">
    <rt:dyn type="TextStr" mode="constant" value="&quot;KTA&quot;"/> 
    <rt:event type="OnClick">LoadNew(&quot;&quot;)</rt:event>
    <rt:dyn type="ModName" mode="constant" value="&quot;kta_2&quot;"/> 
  </image>
  <image x="1786.38" y="587.091" width="75" height="25" xlink:href="obj_link.svg" transform="flipX(37.5)">
    <rt:dyn type="TextStr" mode="constant" value="&quot;KBA&quot;"/> 
    <rt:event type="OnClick">LoadNew(&quot;&quot;)</rt:event>
    <rt:dyn type="ModName" mode="constant" value="&quot;kba00&quot;"/> 
  </image>
  <text x="1842.89" y="576.182" fill="black" font-size="15" font-weight="700" text-anchor="middle">от петли 4</text>
  <g transform="flipY(146.444) rotate(90 1212.44 532.643)">
    <polygon points="1726.66,766.188 1740.04,773.832 1740.04,758.545 1726.66,766.188" fill="black" stroke="black" stroke-width="1" transform="rotate(180 1279.17 367.814)"/> 
  </g>
  <image x="1601.04" y="182.5" width="57.5" height="75" xlink:href="DS_pulse_valve.svg" transform="flipX(6.24979) scale(0.993926 0.993926 6.25018 -6.38888)">
    <title>&quot;22JNG40AA901&quot;</title>
    <rt:dyn type="KKS" mode="constant" value="&quot;22JNG40AA901&quot;"/> 
    <rt:dyn type="DATA_NARY" mode="constant" value="&quot;TPTS&quot;"/> 
    <rt:dyn type="Operate" mode="constant" value="TRUE"/> 
  </image>
  <line x1="1819.5" y1="274.998" x2="1819.85" y2="242.016" stroke="black" stroke-width="3"/> 
  <line x1="1774.5" y1="274.998" x2="1820.5" y2="274.998" stroke="black" stroke-width="3"/> 
  <image x="420.788" y="473.636" width="175" height="25" xlink:href="DS_ana.svg">
    <title>&quot;20JNG40CT002&quot;</title>
    <rt:dyn type="FKKS" mode="constant" value="&quot;20JNG40CT002&quot;"/> 
    <rt:dyn type="X" mode="constant" value="&quot;T&quot;"/> 
    <rt:dyn type="ShowFrame" mode="constant" value="true"/> 
    <rt:dyn type="Color_Readings" mode="constant" value="true"/> 
    <rt:dyn type="ValueToTheRight" mode="constant" value="false"/> 
  </image>
  <image x="1002.04" y="473.668" width="175" height="25" xlink:href="DS_ana.svg">
    <title>&quot;20JNG40CT004&quot;</title>
    <rt:dyn type="FKKS" mode="constant" value="&quot;20JNG40CT004&quot;"/> 
    <rt:dyn type="X" mode="constant" value="&quot;T&quot;"/> 
    <rt:dyn type="ShowFrame" mode="constant" value="true"/> 
    <rt:dyn type="Color_Readings" mode="constant" value="true"/> 
    <rt:dyn type="ValueToTheRight" mode="constant" value="false"/> 
  </image>
  <rect x="482.242" y="214.076" width="99.7575" height="23.803" rx="0" ry="0" fill="Col_Grey3" stroke="darkslategrey" stroke-width="1"/> 
  <line x1="482" y1="225" x2="582.227" y2="225" stroke="black" stroke-width="2"/> 
  <rect x="508" y="238" width="48" height="25" rx="0" ry="0" fill="Col_Grey3"/> 
  <rect x="1019.5" y="214.5" width="99.7575" height="23.803" rx="0" ry="0" fill="Col_Grey3" stroke="darkslategrey" stroke-width="1"/> 
  <line x1="1019.26" y1="225.424" x2="1119.48" y2="225.424" stroke="black" stroke-width="2"/> 
  <rect x="1046.26" y="237.424" width="48" height="25" rx="0" ry="0" fill="Col_Grey3"/> 
  <image x="657.349" y="241.909" width="25" height="25" xlink:href="bin_indicator.svg">
    <title>&quot;20JET10CP007_XH01&quot;</title>
    <rt:dyn type="PointID" mode="constant" value="&quot;20JET10CP007_XH01&quot;"/> 
  </image>
  <image x="920.227" y="242.424" width="25" height="25" xlink:href="bin_indicator.svg">
    <title>&quot;20JET10CP008_XH01&quot;</title>
    <rt:dyn type="PointID" mode="constant" value="&quot;20JET10CP008_XH01&quot;"/> 
  </image>
  <text x="802" y="243.848" fill="black" font-size="15" font-weight="700" text-anchor="middle">течь через прокладки<tspan x="802" dy="15">люка-лаза емкостей</tspan>
<tspan x="802" dy="15">СПЗАЗ</tspan>
  </text>
  <image x="1786.33" y="182.333" width="57.5" height="75" xlink:href="DS_pulse_valve.svg" transform="flipX(6.25007) scale(1.00734 1.00734 6.25018 -4.99999)">
    <title>&quot;22JNG40AA902&quot;</title>
    <rt:dyn type="KKS" mode="constant" value="&quot;22JNG40AA902&quot;"/> 
    <rt:dyn type="DATA_NARY" mode="constant" value="&quot;TPTS&quot;"/> 
    <rt:dyn type="Operate" mode="constant" value="TRUE"/> 
  </image>
  <polygon points="1763.79,200 1786.52,248.485 1763.79,248.485 1786.69,200" fill="Col_Grey2" stroke="black"/> 
  <polygon points="1577.27,201.5 1600,249.985 1577.27,249.985 1600.17,201.5" fill="Col_Grey2" stroke="black"/> 
  <image x="1545" y="938" width="95" height="25" xlink:href="obj_link.svg">
    <rt:dyn type="TextStr" mode="constant" value="&quot;JNG10_40&quot;"/> 
    <rt:event type="OnClick">LoadNew(&quot;&quot;)</rt:event>
    <rt:dyn type="ModName" mode="constant" value="&quot;jng10_40&quot;"/> 
  </image>
  <line x1="275.852" y1="882" x2="421" y2="882" stroke="black" stroke-width="3"/> 
  <image x="312.411" y="839.616" width="70" height="65" xlink:href="DS_CO_valve.svg" transform="scale(1.38127 1.38127 0.000147952 -9.99991) rotate(360 0 -10) scale(0.7075 0.7075 0 -10)">
    <title>&quot;20JNG90AA002&quot;</title>
    <rt:dyn type="KKS" mode="constant" value="&quot;20JNG90AA002&quot;"/> 
    <rt:dyn type="DATA_NARY" mode="constant" value="&quot;TPTS&quot;"/> 
    <rt:dyn type="Operate" mode="constant" value="TRUE"/> 
  </image>
  <line x1="127.5" y1="882.5" x2="275.186" y2="882.389" stroke="black"/> 
  <line x1="152" y1="975" x2="276.371" y2="975.129" stroke="black"/> 
  <text x="349" y="916" fill="black" font-size="15" text-anchor="middle">20JNG90AA002</text>
  <text x="349" y="1011" fill="black" font-size="15" text-anchor="middle">20JNG90AA001</text>
  <text x="200" y="916" fill="black" font-size="15" text-anchor="middle">20JNG94AA001</text>
  <image x="164.667" y="840.222" width="70" height="65" xlink:href="DS_CO_valve.svg" transform="scale(1.38127 1.38127 0.000147952 -9.99991) rotate(360 0 -10) scale(0.7075 0.7075 0 -10)">
    <title>&quot;20JNG94AA001&quot;</title>
    <rt:dyn type="KKS" mode="constant" value="&quot;20JNG94AA001&quot;"/> 
    <rt:dyn type="DATA_NARY" mode="constant" value="&quot;TPTS&quot;"/> 
    <rt:dyn type="Operate" mode="constant" value="TRUE"/> 
  </image>
  <image x="312.411" y="934.111" width="70" height="65" xlink:href="DS_CO_valve.svg" transform="scale(1.38127 1.38127 0.000147952 -9.99991) rotate(360 0 -10) scale(0.7075 0.7075 0 -10)">
    <title>&quot;20JNG90AA001&quot;</title>
    <rt:dyn type="KKS" mode="constant" value="&quot;20JNG90AA001&quot;"/> 
    <rt:dyn type="DATA_NARY" mode="constant" value="&quot;TPTS&quot;"/> 
    <rt:dyn type="Operate" mode="constant" value="TRUE"/> 
  </image>
  <image x="78" y="961.879" width="75" height="25" xlink:href="obj_link.svg">
    <rt:dyn type="TextStr" mode="constant" value="&quot;KWC&quot;"/> 
    <rt:event type="OnClick">LoadNew(&quot;&quot;)</rt:event>
    <rt:dyn type="ModName" mode="constant" value="&quot;kwc&quot;"/> 
  </image>
  <image x="53" y="869" width="75" height="25" xlink:href="obj_link.svg" transform="flipX(37.5)">
    <rt:dyn type="TextStr" mode="constant" value="&quot;KTA&quot;"/> 
    <rt:event type="OnClick">LoadNew(&quot;&quot;)</rt:event>
    <rt:dyn type="ModName" mode="constant" value="&quot;kta_2&quot;"/> 
  </image>
  <image x="421" y="869" width="75" height="25" xlink:href="obj_link.svg">
    <rt:dyn type="TextStr" mode="constant" value="&quot;FAL&quot;"/> 
    <rt:event type="OnClick">LoadNew(&quot;&quot;)</rt:event>
    <rt:dyn type="ModName" mode="constant" value="&quot;fal50_70&quot;"/> 
  </image>
  <image x="425" y="960.667" width="75" height="25" xlink:href="obj_link.svg" transform="flipX(37.5)">
    <rt:dyn type="TextStr" mode="constant" value="&quot;FAL&quot;"/> 
    <rt:event type="OnClick">LoadNew(&quot;&quot;)</rt:event>
    <rt:dyn type="ModName" mode="constant" value="&quot;fal50_70&quot;"/> 
  </image>
  <line x1="275" y1="793" x2="392.5" y2="793" stroke="black" stroke-width="3"/> 
  <image x="312.411" y="750.116" width="70" height="65" xlink:href="DS_CO_valve.svg" transform="scale(1.38127 1.38127 0.000147952 -9.99991) rotate(360 0 -10) scale(0.7075 0.7075 0 -10)">
    <title>&quot;21JNG90AA003&quot;</title>
    <rt:dyn type="KKS" mode="constant" value="&quot;21JNG90AA003&quot;"/> 
    <rt:dyn type="DATA_NARY" mode="constant" value="&quot;TPTS&quot;"/> 
    <rt:dyn type="Operate" mode="constant" value="TRUE"/> 
  </image>
  <text x="349" y="826.5" fill="black" font-size="15" text-anchor="middle">21JNG90AA003</text>
  <line x1="1528" y1="575" x2="1528" y2="500" stroke="black" stroke-width="1"/> 
  <text x="1485.23" y="646.303" fill="black" font-size="15" text-anchor="middle">22JNG40<tspan x="1485.23" dy="15">AA601</tspan>
  </text>
  <g transform="flipX(1631.44) rotate(180 1212.44 532.643)">
    <polygon points="1729.46,394.342 1742.84,401.986 1742.84,386.699 1729.46,394.342" fill="black" stroke="black" stroke-width="1" transform="rotate(180 1279.17 367.814)"/> 
  </g>
  <text x="1743.5" y="727" fill="black" font-size="15" font-weight="700" text-anchor="middle">свободный слив<tspan x="1743.5" dy="15">в приямок</tspan>
<tspan x="1743.5" dy="15">спецканализации</tspan>
  </text>
  <rect x="1452.75" y="573" width="150" height="58.25" rx="0" ry="0" fill="none" stroke="black" stroke-width="3"/> 
  <image x="1553.61" y="681.528" width="70" height="65" xlink:href="DS_CO_valve.svg" transform="scale(1.4357 1.4357 0 -10) rotate(360 0 -10) scale(0.7075 0.7075 0 -10)">
    <title>&quot;22JNG40AA007&quot;</title>
    <rt:dyn type="KKS" mode="constant" value="&quot;22JNG40AA007&quot;"/> 
    <rt:dyn type="DATA_NARY" mode="constant" value="&quot;TPTS&quot;"/> 
    <rt:dyn type="Operate" mode="constant" value="TRUE"/> 
  </image>
  <text x="1588.12" y="759.767" fill="black" font-size="15" text-anchor="middle">22JNG40AA007</text>
  <text x="1725" y="704" fill="black" font-size="15" text-anchor="middle">20JNG40AA001</text>
  <line x1="1526" y1="671" x2="1811.13" y2="671" stroke="black"/> 
  <g transform="flipX(1631.44) rotate(180 1212.44 532.643)">
    <polygon points="1576.83,341.342 1590.21,348.986 1590.21,333.699 1576.83,341.342" fill="black" stroke="black" stroke-width="1" transform="rotate(180 1279.17 367.814)"/> 
  </g>
  <text x="1847.5" y="677.5" fill="black" font-size="15" font-weight="700" text-anchor="middle">
    <title>11FAK14AA002</title>
KTA</text>
  <image x="1689.86" y="627.778" width="70" height="65" xlink:href="DS_CO_valve.svg" transform="scale(1.4357 1.4357 0 -10) rotate(360 0 -10) scale(0.7075 0.7075 0 -10)">
    <title>&quot;20JNG40AA001&quot;</title>
    <rt:dyn type="KKS" mode="constant" value="&quot;20JNG40AA001&quot;"/> 
    <rt:dyn type="DATA_NARY" mode="constant" value="&quot;TPTS&quot;"/> 
    <rt:dyn type="Operate" mode="constant" value="TRUE"/> 
  </image>
  <line x1="41" y1="131" x2="345.625" y2="131" stroke="black" stroke-width="3"/> 
  <image x="5" y="118" width="75" height="25" xlink:href="obj_link.svg">
    <rt:dyn type="TextStr" mode="constant" value="&quot;KTB&quot;"/> 
    <rt:event type="OnClick">LoadNew(&quot;&quot;)</rt:event>
    <rt:dyn type="ModName" mode="constant" value="&quot;ktb&quot;"/> 
  </image>
  <image x="86.999" y="109" width="70" height="52.5" xlink:href="DS_reflux_valve.svg" transform="scale(1.43625 1.43625 0.000244141 -3.75) rotate(180 0.00027585 -3.74997) scale(0.709373 0.709373 0.000139559 -3.74997)">
    <title>&quot;20JNG92AA601&quot;</title>
    <rt:dyn type="KKS" mode="constant" value="&quot;NULL&quot;"/> 
    <rt:dyn type="DATA_NARY" mode="constant" value="&quot;TPTS&quot;"/> 
    <rt:dyn type="Operate" mode="constant" value="true"/> 
  </image>
  <text x="121.53" y="89.152" fill="black" font-size="15" text-anchor="middle">20JNG92<tspan x="121.53" dy="15">AA601</tspan>
  </text>
  <image x="166.106" y="88.97" width="70" height="65" xlink:href="DS_CO_valve.svg">
    <title>&quot;20JNG92AA101&quot;</title>
    <rt:dyn type="KKS" mode="constant" value="&quot;NULL&quot;"/> 
    <rt:dyn type="DATA_NARY" mode="constant" value="&quot;NULL&quot;"/> 
    <rt:dyn type="Drive" mode="constant" value="&quot;NONE&quot;"/> 
  </image>
  <text x="199.375" y="71.75" fill="black" font-size="15" text-anchor="middle">20JNG92<tspan x="199.375" dy="15">AA101</tspan>
  </text>
  <line x1="243" y1="201" x2="243" y2="64.25" stroke="black" stroke-width="3"/> 
  <line x1="242" y1="65" x2="341.875" y2="65" stroke="black" stroke-width="3"/> 
  <text x="300" y="167" fill="black" font-size="15" text-anchor="middle">20JNG93<tspan x="300" dy="15">AA101</tspan>
  </text>
  <text x="299" y="18" fill="black" font-size="15" text-anchor="middle">20JNG91AA101</text>
  <g transform="flipX(1631.44) rotate(180 1212.44 532.643)">
    <polygon points="3045.44,-263.972 3058.82,-256.328 3058.82,-271.615 3045.44,-263.972" fill="black" stroke="black" stroke-width="1" transform="rotate(180 1279.17 367.814)"/> 
  </g>
  <g transform="flipX(1631.44) rotate(180 1212.44 532.643)">
    <polygon points="3045.34,-198.301 3058.72,-190.657 3058.72,-205.944 3045.34,-198.301" fill="black" stroke="black" stroke-width="1" transform="rotate(180 1279.17 367.814)"/> 
  </g>
  <text x="370" y="73" fill="black" font-size="15" font-weight="700" text-anchor="middle">
    <title>11FAK14AA002</title>
KTA</text>
  <text x="370" y="136" fill="black" font-size="15" font-weight="700" text-anchor="middle">
    <title>11FAK14AA002</title>
KTC</text>
  <image x="261.045" y="88.182" width="70" height="65" xlink:href="DS_CO_valve.svg">
    <title>&quot;20JNG93AA101&quot;</title>
    <rt:dyn type="KKS" mode="constant" value="&quot;NULL&quot;"/> 
    <rt:dyn type="DATA_NARY" mode="constant" value="&quot;NULL&quot;"/> 
    <rt:dyn type="Drive" mode="constant" value="&quot;NONE&quot;"/> 
  </image>
  <image x="261.045" y="22.8485" width="70" height="65" xlink:href="DS_CO_valve.svg">
    <title>&quot;20JNG91AA101&quot;</title>
    <rt:dyn type="KKS" mode="constant" value="&quot;NULL&quot;"/> 
    <rt:dyn type="DATA_NARY" mode="constant" value="&quot;NULL&quot;"/> 
    <rt:dyn type="Drive" mode="constant" value="&quot;NONE&quot;"/> 
  </image>
  <image x="407.375" y="158.75" width="70" height="65" xlink:href="DS_CO_valve.svg" transform="scale(1.38127 1.38127 0.000147952 -9.99991) rotate(360 0 -10) scale(0.7075 0.7075 0 -10)">
    <title>&quot;22JNG40AA002&quot;</title>
    <rt:dyn type="KKS" mode="constant" value="&quot;22JNG40AA002&quot;"/> 
    <rt:dyn type="DATA_NARY" mode="constant" value="&quot;TPTS&quot;"/> 
    <rt:dyn type="Operate" mode="constant" value="TRUE"/> 
  </image>
  <text x="439.875" y="142.25" fill="black" font-size="15" text-anchor="middle">
    <title>11FAK14AA002</title>
22JNG40<tspan x="439.875" dy="15">AA002</tspan>
  </text>
  <image x="1541" y="537.5" width="175" height="25" xlink:href="DS_ana.svg">
    <title>&quot;20JNG40CP004&quot;</title>
    <rt:dyn type="FKKS" mode="constant" value="&quot;20JNG40CP004&quot;"/> 
    <rt:dyn type="X" mode="constant" value="&quot;P&quot;"/> 
    <rt:dyn type="ShowFrame" mode="constant" value="true"/> 
    <rt:dyn type="Color_Readings" mode="constant" value="true"/> 
    <rt:dyn type="ValueToTheRight" mode="constant" value="false"/> 
  </image>
  <image x="1127" y="912" width="175" height="25" xlink:href="DS_ana.svg">
    <title>&quot;20JNG40CP003&quot;</title>
    <rt:dyn type="FKKS" mode="constant" value="&quot;20JNG40CP003&quot;"/> 
    <rt:dyn type="X" mode="constant" value="&quot;P&quot;"/> 
    <rt:dyn type="ShowFrame" mode="constant" value="true"/> 
    <rt:dyn type="Color_Readings" mode="constant" value="true"/> 
    <rt:dyn type="Color_Readings" mode="constant" value="true"/> 
    <rt:dyn type="ValueToTheRight" mode="constant" value="false"/> 
  </image>
  <line x1="1177" y1="914" x2="1177" y2="902" stroke="black" stroke-width="1"/> 
  <image x="1458.2" y="576.805" width="70" height="52.5" xlink:href="DS_reflux_valve.svg" transform="scale(1.43625 1.43625 0.000244141 -3.75) rotate(180 0.00027585 -3.74997) scale(0.709373 0.709373 0.000139559 -3.74997)">
    <title>&quot;22JNG40AA601&quot;</title>
    <rt:dyn type="KKS" mode="constant" value="&quot;22JNG40AA601&quot;"/> 
    <rt:dyn type="SIG_Open" mode="constant" value="&quot;XG11&quot;"/> 
    <rt:dyn type="SIG_Close" mode="constant" value="&quot;XG61&quot;"/> 
    <rt:dyn type="DATA_NARY" mode="constant" value="&quot;BIN&quot;"/> 
  </image>
  <image x="1528.2" y="576.805" width="70" height="52.5" xlink:href="DS_reflux_valve.svg" transform="scale(1.43625 1.43625 0.000244141 -3.75) rotate(180 0.00027585 -3.74997) scale(0.709373 0.709373 0.000139559 -3.74997)">
    <title>&quot;22JNG40AA601&quot;</title>
    <rt:dyn type="KKS" mode="constant" value="&quot;22JNG40AA601&quot;"/> 
    <rt:dyn type="SIG_Open" mode="constant" value="&quot;XG11&quot;"/> 
    <rt:dyn type="SIG_Close" mode="constant" value="&quot;XG61&quot;"/> 
    <rt:dyn type="DATA_NARY" mode="constant" value="&quot;BIN&quot;"/> 
  </image>
  <image x="1340" y="877.571" width="70" height="52.5" xlink:href="DS_reflux_valve.svg" transform="scale(1.43625 1.43625 0.000244141 -3.75) rotate(180 0.00027585 -3.74997) scale(0.709373 0.709373 0.000139559 -3.74997)">
    <title>&quot;22JNG40AA603&quot;</title>
    <rt:dyn type="DATA_NARY" mode="constant" value="&quot;TPTS&quot;"/> 
    <rt:dyn type="Operate" mode="constant" value="true"/> 
    <rt:dyn type="SIG_Open" mode="constant" value="&quot;22JNG40AA603_XG11&quot;"/> 
    <rt:dyn type="SIG_Close" mode="constant" value="&quot;22JNG40AA603_XG61&quot;"/> 
  </image>
  <text x="957" y="26" fill="black" font-size="30" font-weight="700" text-anchor="middle">
    <title>Схема обвязки и КИП насоса аварийного ввода бора</title>
Система гидроемкостей второй ступени САОЗ</text>
  <text x="64" y="22" fill="black" font-size="15" font-weight="700" text-anchor="middle">
    <title>Схема КИП насосов охлаждения бассейна выдержки</title>
JNG40</text>
  <image x="412" y="781" width="95" height="25" xlink:href="obj_link.svg" transform="flipX(37.5)">
    <rt:dyn type="TextStr" mode="constant" value="&quot;FAK-JMN&quot;"/> 
    <rt:event type="OnClick">LoadNew(&quot;&quot;)</rt:event>
    <rt:dyn type="ModName" mode="constant" value="&quot;fak_jmn&quot;"/> 
  </image>
  <image x="280.149" y="625" width="70" height="65" xlink:href="DS_CO_valve.svg" transform="scale(1.39243 1.39243 0 -10) rotate(270 0 -10) scale(0.7075 0.7075 0 -10)">
    <title>&quot;22JNG30AA005&quot;</title>
    <rt:dyn type="KKS" mode="constant" value="&quot;22JNG30AA005&quot;"/> 
    <rt:dyn type="DATA_NARY" mode="constant" value="&quot;TPTS&quot;"/> 
    <rt:dyn type="Operate" mode="constant" value="TRUE"/> 
  </image>
</svg>
