<?xml  version="1.0" encoding="UTF-8"?>
<svg color="Col_BGSand" xmlns="http://www.w3.org/2000/svg" xmlns:rt="http://www.rts.co.at/2001/XMLSchema/RtSvgPL" xmlns:xlink="http://www.w3.org/1999/xlink" xmlns:xsi="http://www.w3.org/2001/XMLSchema-instance" xsi:schemaLocation="http://www.w3.org/2000/svg C:\RTS\RtSvg\XML\SVG.xsd" viewBox="0 0 1914 1000" width="1914" height="1000" id="kbc40_60" font-size="15" font-weight="700">
  <title>Система борного концентрата</title>
  <rt:model modelversion="7.2.0.24" revision="3" comment="UMod all_nsb&#10;LMod kbc10_30&#10;RMod kbe50_60&#10;RASU"/> 
  <line x1="564" y1="100" x2="564" y2="420" stroke="black"/> 
  <line x1="423" y1="100" x2="423" y2="420" stroke="black"/> 
  <line x1="399" y1="201" x2="399.167" y2="420" stroke="black" stroke-width="3"/> 
  <line x1="606" y1="241.333" x2="606" y2="420" stroke="black" stroke-width="3"/> 
  <line x1="422" y1="508" x2="422" y2="679.5" stroke="black" stroke-width="3"/> 
  <line x1="938" y1="506" x2="938" y2="679.5" stroke="black" stroke-width="3"/> 
  <line x1="898.97" y1="101.515" x2="900.97" y2="410" stroke="black"/> 
  <line x1="1040.97" y1="101.515" x2="1040.97" y2="410" stroke="black"/> 
  <line x1="1083" y1="203.03" x2="1083" y2="410" stroke="black" stroke-width="3"/> 
  <line x1="878" y1="241.333" x2="878" y2="410" stroke="black" stroke-width="3"/> 
  <rect x="876.5" y="408" width="211" height="120" rx="0" ry="0" fill="Col_Grey4" stroke="Col_Grey5"/> 
  <rect x="398" y="408" width="211" height="120" rx="0" ry="0" fill="Col_Grey4" stroke="Col_Grey5"/> 
  <line x1="1282" y1="474.5" x2="1358" y2="474.5" stroke="black"/> 
  <line x1="517" y1="678.5" x2="517" y2="941" stroke="black" stroke-width="3"/> 
  <line x1="788" y1="678.5" x2="788" y2="941" stroke="black" stroke-width="3"/> 
  <line x1="1046" y1="678.5" x2="1046" y2="941" stroke="black" stroke-width="3"/> 
  <line x1="420.125" y1="678.5" x2="1048.25" y2="678.75" stroke="black" stroke-width="3"/> 
  <line x1="260" y1="577" x2="260" y2="941.25" stroke="black" stroke-width="3"/> 
  <line x1="674.242" y1="222" x2="727" y2="222" stroke="black" stroke-width="3"/> 
  <text x="957" y="26" font-size="30" text-anchor="middle">Система борного концентрата</text>
  <line x1="163" y1="100" x2="1698.97" y2="100" stroke="black"/> 
  <image x="1272.48" y="68" width="175" height="25" xlink:href="DS_ana.svg">
    <title>&quot;20KBC43CP001&quot;</title>
    <rt:dyn type="FKKS" mode="constant" value="&quot;20KBC43CP001&quot;"/> 
    <rt:dyn type="X" mode="constant" value="&quot;P&quot;"/> 
    <rt:dyn type="ShowFrame" mode="constant" value="true"/> 
    <rt:dyn type="Color_Readings" mode="constant" value="true"/> 
    <rt:dyn type="ValueToTheCenter" mode="constant" value="false"/> 
  </image>
  <line x1="396.53" y1="451.803" x2="572" y2="452.5" stroke="black"/> 
  <text x="405.606" y="514.97" font-size="18">20KBC40BB001</text>
  <image x="402.571" y="467.303" width="175" height="25" xlink:href="DS_ana.svg">
    <title>&quot;20KBC40CL001&quot;</title>
    <rt:dyn type="FKKS" mode="constant" value="&quot;20KBC40CL001&quot;"/> 
    <rt:dyn type="X" mode="constant" value="&quot;L&quot;"/> 
    <rt:dyn type="ShowFrame" mode="constant" value="true"/> 
    <rt:dyn type="Color_Readings" mode="constant" value="true"/> 
    <rt:dyn type="ValueToTheRight" mode="constant" value="false"/> 
  </image>
  <image x="402.571" y="421.5" width="175" height="25" xlink:href="DS_ana.svg">
    <title>&quot;20KBC40CQ001&quot;</title>
    <rt:dyn type="FKKS" mode="constant" value="&quot;20KBC40CQ001&quot;"/> 
    <rt:dyn type="X" mode="constant" value="&quot;Q&quot;"/> 
    <rt:dyn type="ShowFrame" mode="constant" value="true"/> 
    <rt:dyn type="Color_Readings" mode="constant" value="true"/> 
    <rt:dyn type="ValueToTheRight" mode="constant" value="false"/> 
  </image>
  <line x1="909.5" y1="455" x2="1084.97" y2="455.697" stroke="black"/> 
  <text x="913.182" y="511.97" font-size="18">20KBC40BB002</text>
  <image x="909.54" y="465.5" width="175" height="25" xlink:href="DS_ana.svg">
    <title>&quot;20KBC40CL002&quot;</title>
    <rt:dyn type="FKKS" mode="constant" value="&quot;20KBC40CL002&quot;"/> 
    <rt:dyn type="X" mode="constant" value="&quot;L&quot;"/> 
    <rt:dyn type="ShowFrame" mode="constant" value="true"/> 
    <rt:dyn type="Color_Readings" mode="constant" value="true"/> 
    <rt:dyn type="ValueToTheRight" mode="constant" value="false"/> 
  </image>
  <image x="909.54" y="424.697" width="175" height="25" xlink:href="DS_ana.svg">
    <title>&quot;20KBC40CQ002&quot;</title>
    <rt:dyn type="FKKS" mode="constant" value="&quot;20KBC40CQ002&quot;"/> 
    <rt:dyn type="X" mode="constant" value="&quot;Q&quot;"/> 
    <rt:dyn type="ShowFrame" mode="constant" value="true"/> 
    <rt:dyn type="Color_Readings" mode="constant" value="true"/> 
    <rt:dyn type="ValueToTheRight" mode="constant" value="false"/> 
  </image>
  <line x1="399" y1="453.5" x2="388" y2="453.5" stroke="black" stroke-width="3"/> 
  <line x1="389" y1="453.5" x2="389" y2="487" stroke="black" stroke-width="3"/> 
  <line x1="366" y1="485.5" x2="390" y2="486" stroke="black" stroke-width="3"/> 
  <line x1="365" y1="452.5" x2="365" y2="487" stroke="black" stroke-width="3"/> 
  <text x="1729.27" y="86.818" font-size="15">в баки<tspan x="1729.27" dy="15">20KBB10BB001</tspan>
<tspan x="1729.27" dy="15">20KBB10BB002</tspan>
  </text>
  <line x1="1096" y1="454.5" x2="1085" y2="454.5" stroke="black" stroke-width="3"/> 
  <line x1="1120" y1="454.5" x2="1120" y2="488" stroke="black" stroke-width="3"/> 
  <line x1="1096" y1="486.5" x2="1120" y2="487" stroke="black" stroke-width="3"/> 
  <line x1="1096" y1="453.5" x2="1096" y2="488" stroke="black" stroke-width="3"/> 
  <image x="236" y="459.5" width="25" height="25" xlink:href="bin_indicator.svg">
    <title>&quot;20KBC40CL003&quot;</title>
    <rt:dyn type="PointID" mode="constant" value="&quot;20KBC40CL003_XG51&quot;"/> 
    <rt:dyn type="Col_ON" mode="constant" value="&quot;Col_Yellow&quot;"/> 
  </image>
  <text x="263" y="110.5" font-size="15" transform="flipY(293)">L &lt;0.205M</text>
  <image x="1133" y="459.5" width="25" height="25" xlink:href="bin_indicator.svg">
    <title>&quot;20KBC40CL004&quot;</title>
    <rt:dyn type="PointID" mode="constant" value="&quot;20KBC40CL004_XG51&quot;"/> 
    <rt:dyn type="Col_ON" mode="constant" value="&quot;Col_Yellow&quot;"/> 
  </image>
  <text x="1160" y="110.5" font-size="15" transform="flipY(293)">L &lt;0.205M</text>
  <text x="13.8787" y="100.424" font-size="15">подача азота<tspan x="13.8787" dy="15">на сдувки</tspan>
  </text>
  <text x="157.25" y="676.5" font-size="15">20KBC60<tspan x="157.25" dy="15">AP001</tspan>
  </text>
  <image x="226" y="647.5" width="70" height="70" xlink:href="DS_motor.svg" transform="rotate(90 0 0) flipX() flipX()">
    <title>&quot;20KBC60AP001&quot;</title>
    <rt:dyn type="KKS" mode="constant" value="&quot;20KBC60AP001&quot;"/> 
    <rt:dyn type="DATA_NARY" mode="constant" value="&quot;TPTS&quot;"/> 
    <rt:dyn type="Operate" mode="constant" value="true"/> 
  </image>
  <image x="80.5" y="611.5" width="175" height="25" xlink:href="DS_ana.svg">
    <title>&quot;20KBC60CP001&quot;</title>
    <rt:dyn type="FKKS" mode="constant" value="&quot;20KBC60CP001&quot;"/> 
    <rt:dyn type="X" mode="constant" value="&quot;P&quot;"/> 
    <rt:dyn type="ShowFrame" mode="constant" value="true"/> 
    <rt:dyn type="Color_Readings" mode="constant" value="true"/> 
    <rt:dyn type="ValueToTheRight" mode="constant" value="false"/> 
  </image>
  <line x1="372.125" y1="430" x2="373" y2="486" stroke="black"/> 
  <line x1="61.015" y1="186.076" x2="61.115" y2="186.076" stroke="black"/> 
  <line x1="1104" y1="442" x2="1104" y2="486" stroke="black"/> 
  <text x="307.875" y="433.75" fill="black" font-size="15" text-anchor="middle">
    <title>KBC40_60</title>
KPJ</text>
  <text x="1784.5" y="863.75" font-size="15">на всас<tspan x="1784.5" dy="15">подпиточных</tspan>
<tspan x="1784.5" dy="15">насосов</tspan>
<tspan x="1784.5" dy="15">20KBA31,32,</tspan>
<tspan x="1784.5" dy="15">33AP001</tspan>
  </text>
  <text x="369.5" y="75" font-size="15">20KBC43<tspan x="369.5" dy="15">AA002</tspan>
  </text>
  <image x="442" y="57.5" width="70" height="65" xlink:href="DS_CO_valve.svg" transform="flipX()">
    <title>&quot;20KBC43AA002&quot;</title>
    <rt:dyn type="KKS" mode="constant" value="&quot;20KBC43AA002&quot;"/> 
    <rt:dyn type="DATA_NARY" mode="constant" value="&quot;TPTS&quot;"/> 
    <rt:dyn type="Operate" mode="constant" value="true"/> 
  </image>
  <text x="853.25" y="75" font-size="15">20KBC43<tspan x="853.25" dy="15">AA005</tspan>
  </text>
  <image x="925.97" y="57.8182" width="70" height="65" xlink:href="DS_CO_valve.svg" transform="flipX()">
    <title>&quot;20KBC43AA005&quot;</title>
    <rt:dyn type="KKS" mode="constant" value="&quot;20KBC43AA005&quot;"/> 
    <rt:dyn type="DATA_NARY" mode="constant" value="&quot;TPTS&quot;"/> 
    <rt:dyn type="Operate" mode="constant" value="true"/> 
  </image>
  <text x="440.25" y="162.5" font-size="15">20KBC43<tspan x="440.25" dy="15">AA003</tspan>
  </text>
  <image x="387" y="112.5" width="70" height="65" xlink:href="DS_CO_valve.svg" transform="flipY(-5.68434e-014) rotate(270 -1.81794e-006 2.75671e-006) flipX()">
    <title>&quot;20KBC43AA003&quot;</title>
    <rt:dyn type="KKS" mode="constant" value="&quot;20KBC43AA003&quot;"/> 
    <rt:dyn type="DATA_NARY" mode="constant" value="&quot;TPTS&quot;"/> 
    <rt:dyn type="Operate" mode="constant" value="true"/> 
  </image>
  <text x="581.5" y="160" font-size="15">20KBC43<tspan x="581.5" dy="15">AA004</tspan>
  </text>
  <image x="529" y="112.5" width="70" height="65" xlink:href="DS_CO_valve.svg" transform="flipY(-2.67029e-005) flipY(-5.68434e-014) rotate(270 -1.81794e-006 2.75671e-006) flipX()">
    <title>&quot;20KBC43AA004&quot;</title>
    <rt:dyn type="KKS" mode="constant" value="&quot;20KBC43AA004&quot;"/> 
    <rt:dyn type="DATA_NARY" mode="constant" value="&quot;TPTS&quot;"/> 
    <rt:dyn type="Operate" mode="constant" value="true"/> 
  </image>
  <text x="917" y="157.5" font-size="15">20KBC43<tspan x="917" dy="15">AA006</tspan>
  </text>
  <image x="863.97" y="115.318" width="70" height="65" xlink:href="DS_CO_valve.svg" transform="flipY(-5.68434e-014) rotate(270 -1.81794e-006 2.75671e-006) flipX()">
    <title>&quot;20KBC43AA006&quot;</title>
    <rt:dyn type="KKS" mode="constant" value="&quot;20KBC43AA006&quot;"/> 
    <rt:dyn type="DATA_NARY" mode="constant" value="&quot;TPTS&quot;"/> 
    <rt:dyn type="Operate" mode="constant" value="true"/> 
  </image>
  <text x="1059.75" y="155.75" font-size="15">20KBC43<tspan x="1059.75" dy="15">AA007</tspan>
  </text>
  <image x="1006.97" y="115.318" width="70" height="65" xlink:href="DS_CO_valve.svg" transform="flipY(4.05087e-006) flipY(-5.68434e-014) rotate(270 -1.81794e-006 2.75671e-006) flipX()">
    <title>&quot;20KBC43AA007&quot;</title>
    <rt:dyn type="KKS" mode="constant" value="&quot;20KBC43AA007&quot;"/> 
    <rt:dyn type="DATA_NARY" mode="constant" value="&quot;TPTS&quot;"/> 
    <rt:dyn type="Operate" mode="constant" value="true"/> 
  </image>
  <text x="625" y="282.5" font-size="15">20KBC40<tspan x="625" dy="15">AA001</tspan>
  </text>
  <image x="571.727" y="246" width="70" height="65" xlink:href="DS_CO_valve.svg" transform="flipY(-5.68434e-014) rotate(270 -1.81794e-006 2.75671e-006) flipX()">
    <title>&quot;20KBC40AA001&quot;</title>
    <rt:dyn type="KKS" mode="constant" value="&quot;20KBC40AA001&quot;"/> 
    <rt:dyn type="DATA_NARY" mode="constant" value="&quot;TPTS&quot;"/> 
    <rt:dyn type="Operate" mode="constant" value="true"/> 
  </image>
  <text x="283.25" y="266.25" font-size="15">20KBC40<tspan x="283.25" dy="15">AA007</tspan>
  </text>
  <text x="762.394" y="277.697" font-size="15">20KBC40<tspan x="762.394" dy="15">AA002</tspan>
  </text>
  <image x="842" y="246" width="70" height="65" xlink:href="DS_CO_valve.svg" transform="flipY(-5.68434e-014) rotate(270 -1.81794e-006 2.75671e-006) flipX()">
    <title>&quot;20KBC40AA002&quot;</title>
    <rt:dyn type="KKS" mode="constant" value="&quot;20KBC40AA002&quot;"/> 
    <rt:dyn type="DATA_NARY" mode="constant" value="&quot;TPTS&quot;"/> 
    <rt:dyn type="Operate" mode="constant" value="true"/> 
  </image>
  <text x="1103.25" y="241.25" font-size="15">20KBC40<tspan x="1103.25" dy="15">AA008</tspan>
  </text>
  <image x="1048.18" y="201.833" width="70" height="65" xlink:href="DS_CO_valve.svg" transform="flipY(-5.68434e-014) rotate(270 -1.81794e-006 2.75671e-006) flipX()">
    <title>&quot;20KBC40AA008&quot;</title>
    <rt:dyn type="KKS" mode="constant" value="&quot;20KBC40AA008&quot;"/> 
    <rt:dyn type="DATA_NARY" mode="constant" value="&quot;TPTS&quot;"/> 
    <rt:dyn type="Operate" mode="constant" value="true"/> 
  </image>
  <line x1="605" y1="242" x2="878" y2="242" stroke="black" stroke-width="3"/> 
  <line x1="726" y1="220" x2="726" y2="242.667" stroke="black" stroke-width="3"/> 
  <text x="270" y="609.25" font-size="15">20KBC40<tspan x="270" dy="15">AA004</tspan>
  </text>
  <text x="134.5" y="572.25" font-size="15">20KBC40AA003</text>
  <image x="903" y="572.5" width="70" height="65" xlink:href="DS_CO_valve.svg" transform="flipY(-0.000113189) flipY(-5.68434e-014) rotate(270 -1.81794e-006 2.75671e-006) flipX()">
    <title>&quot;20KBC40AA006&quot;</title>
    <rt:dyn type="KKS" mode="constant" value="&quot;20KBC40AA006&quot;"/> 
    <rt:dyn type="DATA_NARY" mode="constant" value="&quot;TPTS&quot;"/> 
    <rt:dyn type="Operate" mode="constant" value="true"/> 
  </image>
  <text x="823.25" y="612.5" font-size="15">20KBC40<tspan x="823.25" dy="15">AA006</tspan>
  </text>
  <text x="553.25" y="746" font-size="15">20KBC50<tspan x="553.25" dy="15">AP001</tspan>
  </text>
  <image x="482" y="713.5" width="70" height="70" xlink:href="DS_motor.svg" transform="rotate(90 0 0) flipX() flipX()">
    <title>&quot;20KBC50AP001&quot;</title>
    <rt:dyn type="KKS" mode="constant" value="&quot;20KBC50AP001&quot;"/> 
    <rt:dyn type="DATA_NARY" mode="constant" value="&quot;TPTS&quot;"/> 
    <rt:dyn type="Operate" mode="constant" value="true"/> 
  </image>
  <text x="822" y="746" font-size="15">20KBC50<tspan x="822" dy="15">AP002</tspan>
  </text>
  <image x="753" y="713.5" width="70" height="70" xlink:href="DS_motor.svg" transform="rotate(90 0 0) flipX() flipX()">
    <title>&quot;20KBC50AP002&quot;</title>
    <rt:dyn type="KKS" mode="constant" value="&quot;20KBC50AP002&quot;"/> 
    <rt:dyn type="DATA_NARY" mode="constant" value="&quot;TPTS&quot;"/> 
    <rt:dyn type="Operate" mode="constant" value="true"/> 
  </image>
  <text x="1078.25" y="746" font-size="15">20KBC50<tspan x="1078.25" dy="15">AP003</tspan>
  </text>
  <image x="1011" y="713.5" width="70" height="70" xlink:href="DS_motor.svg" transform="rotate(90 0 0) flipX() flipX()">
    <title>&quot;20KBC50AP003&quot;</title>
    <rt:dyn type="KKS" mode="constant" value="&quot;20KBC50AP003&quot;"/> 
    <rt:dyn type="DATA_NARY" mode="constant" value="&quot;TPTS&quot;"/> 
    <rt:dyn type="Operate" mode="constant" value="true"/> 
  </image>
  <text x="309.25" y="642.5" font-size="15">20KBC40<tspan x="309.25" dy="15">AA005</tspan>
  </text>
  <image x="387.216" y="606.5" width="70" height="65" xlink:href="DS_CO_valve.svg" transform="rotate(0 0 0) flipY(-2.67029e-005) flipY(-5.68434e-014) rotate(270 -1.81794e-006 2.75671e-006) flipX()">
    <title>&quot;20KBC40AA005&quot;</title>
    <rt:dyn type="KKS" mode="constant" value="&quot;20KBC40AA005&quot;"/> 
    <rt:dyn type="DATA_NARY" mode="constant" value="&quot;TPTS&quot;"/> 
    <rt:dyn type="Operate" mode="constant" value="true"/> 
  </image>
  <image x="545.5" y="687.5" width="175" height="25" xlink:href="DS_ana.svg">
    <title>&quot;20KBC50CP001&quot;</title>
    <rt:dyn type="FKKS" mode="constant" value="&quot;20KBC50CP001&quot;"/> 
    <rt:dyn type="X" mode="constant" value="&quot;P&quot;"/> 
    <rt:dyn type="ShowFrame" mode="constant" value="true"/> 
    <rt:dyn type="Color_Readings" mode="constant" value="true"/> 
    <rt:dyn type="ValueToTheRight" mode="constant" value="false"/> 
  </image>
  <text x="537" y="905.5" font-size="15">20KBC50<tspan x="537" dy="15">AA001</tspan>
  </text>
  <image x="482.5" y="861" width="70" height="65" xlink:href="DS_CO_valve.svg" transform="flipY(-1.13687e-013) flipY(-2.67029e-005) flipY(-5.68434e-014) rotate(270 -1.81794e-006 2.75671e-006) flipX()">
    <title>&quot;20KBC50AA001&quot;</title>
    <rt:dyn type="KKS" mode="constant" value="&quot;20KBC50AA001&quot;"/> 
    <rt:dyn type="DATA_NARY" mode="constant" value="&quot;TPTS&quot;"/> 
    <rt:dyn type="Operate" mode="constant" value="true"/> 
  </image>
  <image x="49.5" y="712.5" width="175" height="25" xlink:href="DS_ana.svg">
    <title>&quot;20KBC60CP002&quot;</title>
    <rt:dyn type="FKKS" mode="constant" value="&quot;20KBC60CP002&quot;"/> 
    <rt:dyn type="X" mode="constant" value="&quot;P&quot;"/> 
    <rt:dyn type="ShowFrame" mode="constant" value="true"/> 
    <rt:dyn type="Color_Readings" mode="constant" value="true"/> 
    <rt:dyn type="ValueToTheRight" mode="constant" value="false"/> 
  </image>
  <image x="545.5" y="784.5" width="175" height="25" xlink:href="DS_ana.svg">
    <title>&quot;20KBC50CP002&quot;</title>
    <rt:dyn type="FKKS" mode="constant" value="&quot;20KBC50CP002&quot;"/> 
    <rt:dyn type="X" mode="constant" value="&quot;P&quot;"/> 
    <rt:dyn type="ShowFrame" mode="constant" value="true"/> 
    <rt:dyn type="Color_Readings" mode="constant" value="true"/> 
    <rt:dyn type="ValueToTheRight" mode="constant" value="false"/> 
  </image>
  <image x="813.5" y="687.5" width="175" height="25" xlink:href="DS_ana.svg">
    <title>&quot;20KBC50CP003&quot;</title>
    <rt:dyn type="FKKS" mode="constant" value="&quot;20KBC50CP003&quot;"/> 
    <rt:dyn type="X" mode="constant" value="&quot;P&quot;"/> 
    <rt:dyn type="ShowFrame" mode="constant" value="true"/> 
    <rt:dyn type="Color_Readings" mode="constant" value="true"/> 
    <rt:dyn type="ValueToTheRight" mode="constant" value="false"/> 
  </image>
  <image x="813.5" y="784.5" width="175" height="25" xlink:href="DS_ana.svg">
    <title>&quot;20KBC50CP004&quot;</title>
    <rt:dyn type="FKKS" mode="constant" value="&quot;20KBC50CP004&quot;"/> 
    <rt:dyn type="X" mode="constant" value="&quot;P&quot;"/> 
    <rt:dyn type="ShowFrame" mode="constant" value="true"/> 
    <rt:dyn type="Color_Readings" mode="constant" value="true"/> 
    <rt:dyn type="ValueToTheRight" mode="constant" value="false"/> 
  </image>
  <image x="1072.5" y="686.5" width="175" height="25" xlink:href="DS_ana.svg">
    <title>&quot;20KBC50CP005&quot;</title>
    <rt:dyn type="FKKS" mode="constant" value="&quot;20KBC50CP005&quot;"/> 
    <rt:dyn type="X" mode="constant" value="&quot;P&quot;"/> 
    <rt:dyn type="ShowFrame" mode="constant" value="true"/> 
    <rt:dyn type="Color_Readings" mode="constant" value="true"/> 
    <rt:dyn type="ValueToTheRight" mode="constant" value="false"/> 
  </image>
  <image x="1073.5" y="784.5" width="175" height="25" xlink:href="DS_ana.svg">
    <title>&quot;20KBC50CP006&quot;</title>
    <rt:dyn type="FKKS" mode="constant" value="&quot;20KBC50CP006&quot;"/> 
    <rt:dyn type="X" mode="constant" value="&quot;P&quot;"/> 
    <rt:dyn type="ShowFrame" mode="constant" value="true"/> 
    <rt:dyn type="Color_Readings" mode="constant" value="true"/> 
    <rt:dyn type="ValueToTheRight" mode="constant" value="false"/> 
  </image>
  <image x="545.5" y="845.331" width="175" height="25" xlink:href="DS_ana.svg">
    <title>&quot;20KBC50CF001&quot;</title>
    <rt:dyn type="FKKS" mode="constant" value="&quot;20KBC50CF001&quot;"/> 
    <rt:dyn type="X" mode="constant" value="&quot;F&quot;"/> 
    <rt:dyn type="ShowFrame" mode="constant" value="true"/> 
    <rt:dyn type="Color_Readings" mode="constant" value="true"/> 
    <rt:dyn type="ValueToTheRight" mode="constant" value="false"/> 
  </image>
  <image x="813.5" y="845.331" width="175" height="25" xlink:href="DS_ana.svg">
    <title>&quot;20KBC50CF002&quot;</title>
    <rt:dyn type="FKKS" mode="constant" value="&quot;20KBC50CF002&quot;"/> 
    <rt:dyn type="X" mode="constant" value="&quot;F&quot;"/> 
    <rt:dyn type="ShowFrame" mode="constant" value="true"/> 
    <rt:dyn type="Color_Readings" mode="constant" value="true"/> 
    <rt:dyn type="ValueToTheRight" mode="constant" value="false"/> 
  </image>
  <image x="1073.5" y="845.33" width="175" height="25" xlink:href="DS_ana.svg">
    <title>&quot;20KBC50CF003&quot;</title>
    <rt:dyn type="FKKS" mode="constant" value="&quot;20KBC50CF003&quot;"/> 
    <rt:dyn type="X" mode="constant" value="&quot;F&quot;"/> 
    <rt:dyn type="ShowFrame" mode="constant" value="true"/> 
    <rt:dyn type="Color_Readings" mode="constant" value="true"/> 
    <rt:dyn type="ValueToTheRight" mode="constant" value="false"/> 
  </image>
  <text x="809" y="906.75" font-size="15">20KBC50<tspan x="809" dy="15">AA002</tspan>
  </text>
  <image x="753.5" y="861" width="70" height="65" xlink:href="DS_CO_valve.svg" transform="flipY(-1.13687e-013) flipY(-2.67029e-005) flipY(-5.68434e-014) rotate(270 -1.81794e-006 2.75671e-006) flipX()">
    <title>&quot;20KBC50AA002&quot;</title>
    <rt:dyn type="KKS" mode="constant" value="&quot;20KBC50AA002&quot;"/> 
    <rt:dyn type="DATA_NARY" mode="constant" value="&quot;TPTS&quot;"/> 
    <rt:dyn type="Operate" mode="constant" value="true"/> 
  </image>
  <text x="1067.5" y="903.75" font-size="15">20KBC50<tspan x="1067.5" dy="15">AA003</tspan>
  </text>
  <image x="1010.5" y="861" width="70" height="65" xlink:href="DS_CO_valve.svg" transform="flipY(-1.13687e-013) flipY(-2.67029e-005) flipY(-5.68434e-014) rotate(270 -1.81794e-006 2.75671e-006) flipX()">
    <title>&quot;20KBC50AA003&quot;</title>
    <rt:dyn type="KKS" mode="constant" value="&quot;20KBC50AA003&quot;"/> 
    <rt:dyn type="DATA_NARY" mode="constant" value="&quot;TPTS&quot;"/> 
    <rt:dyn type="Operate" mode="constant" value="true"/> 
  </image>
  <text x="112" y="977" font-size="15">20KBC60<tspan x="112" dy="15">AA001</tspan>
  </text>
  <text x="367.75" y="976.5" font-size="15">20KBC60AA002</text>
  <line x1="57" y1="943" x2="1870.64" y2="943" stroke="black" stroke-width="3"/> 
  <line x1="1282" y1="201.515" x2="1282" y2="944" stroke="black" stroke-width="3"/> 
  <text x="1418" y="473.242" font-size="15">в камеру отбора<tspan x="1418" dy="15">проб 20KUA30AT001</tspan>
  </text>
  <line x1="1254" y1="944" x2="1254" y2="336" stroke="black" stroke-width="3"/> 
  <text x="1111" y="416" font-size="15">20KBC50AA004</text>
  <image x="580" y="415" width="25" height="100" xlink:href="DS_ana_bar.svg">
    <title>&quot;20KBC40CL001&quot;</title>
    <rt:dyn type="FKKS" mode="constant" value="&quot;20KBC40CL001&quot;"/> 
  </image>
  <image x="883" y="415" width="25" height="100" xlink:href="DS_ana_bar.svg">
    <title>&quot;20KBC40CL002&quot;</title>
    <rt:dyn type="FKKS" mode="constant" value="&quot;20KBC40CL002&quot;"/> 
  </image>
  <text x="655.121" y="369.879" font-size="15">20KBC50AA005</text>
  <image x="204.242" y="966.466" width="25" height="25" xlink:href="bin_indicator.svg">
    <title>&quot;20KBC60EE004&quot;</title>
    <rt:dyn type="PointID" mode="constant" value="&quot;20KBC60EE004_ZV01&quot;"/> 
    <rt:dyn type="Col_ON" mode="constant" value="&quot;Col_Yellow&quot;"/> 
  </image>
  <image x="489" y="628" width="110" height="30" xlink:href="DS_TPTS_TE_spec.svg">
    <title>&quot;20KBC50CH001RTE0&quot;</title>
    <rt:dyn type="KKS" mode="constant" value="&quot;20KBC50CH001RTE0&quot;"/> 
    <rt:dyn type="Operate" mode="constant" value="true"/> 
  </image>
  <text x="462" y="671" font-size="15">ремонт 20KBC50AP001</text>
  <image x="690" y="628" width="110" height="30" xlink:href="DS_TPTS_TE_spec.svg">
    <title>&quot;20KBC50CH002RTE0&quot;</title>
    <rt:dyn type="KKS" mode="constant" value="&quot;20KBC50CH002RTE0&quot;"/> 
    <rt:dyn type="Operate" mode="constant" value="true"/> 
  </image>
  <text x="663" y="671" font-size="15">ремонт 20KBC50AP002</text>
  <image x="969" y="628" width="110" height="30" xlink:href="DS_TPTS_TE_spec.svg">
    <title>&quot;20KBC50CH003RTE0&quot;</title>
    <rt:dyn type="KKS" mode="constant" value="&quot;20KBC50CH003RTE0&quot;"/> 
    <rt:dyn type="Operate" mode="constant" value="true"/> 
  </image>
  <text x="966" y="671" font-size="15">ремонт 20KBC50AP003</text>
  <image x="655" y="726" width="60" height="45" xlink:href="DS_TPTS_AVR_sel.svg">
    <title>&quot;20KBC50EE001&quot;</title>
    <rt:dyn type="KKS" mode="constant" value="&quot;20KBC50EE001&quot;"/> 
    <rt:dyn type="Operate" mode="constant" value="true"/> 
  </image>
  <image x="670.818" y="966.466" width="25" height="25" xlink:href="bin_indicator.svg">
    <title>&quot;20KBC50EE001&quot;</title>
    <rt:dyn type="PointID" mode="constant" value="&quot;20KBC50EE001_XM15&quot;"/> 
    <rt:dyn type="Col_ON" mode="constant" value="&quot;Col_Yellow&quot;"/> 
  </image>
  <image x="1320.82" y="324.939" width="25" height="25" xlink:href="bin_indicator.svg">
    <title>&quot;20KBC50EZ001_ZV51&quot;</title>
    <rt:dyn type="PointID" mode="constant" value="&quot;20KBC50EZ001_ZV51&quot;"/> 
    <rt:dyn type="Col_ON" mode="constant" value="&quot;Col_Yellow&quot;"/> 
  </image>
  <text x="1354.82" y="242.811" font-size="15" transform="flipY(293)">P напор 20KBC50AP001 &lt; 0.28МПА</text>
  <image x="1320.82" y="355.697" width="25" height="25" xlink:href="bin_indicator.svg">
    <title>&quot;20KBC50EZ002&quot;</title>
    <rt:dyn type="PointID" mode="constant" value="&quot;20KBC50EZ002_ZV51&quot;"/> 
    <rt:dyn type="Col_ON" mode="constant" value="&quot;Col_Yellow&quot;"/> 
  </image>
  <text x="1354.82" y="213.053" font-size="15" transform="flipY(293)">P напор 20KBC50AP002 &lt; 0.28МПА</text>
  <image x="1320.82" y="384.969" width="25" height="25" xlink:href="bin_indicator.svg">
    <title>&quot;20KBC50EZ003_ZV51&quot;</title>
    <rt:dyn type="PointID" mode="constant" value="&quot;20KBC50EZ003_ZV51&quot;"/> 
    <rt:dyn type="Col_ON" mode="constant" value="&quot;Col_Yellow&quot;"/> 
  </image>
  <text x="1354.82" y="182.781" font-size="15" transform="flipY(293)">P напор 20KBC50AP003 &lt; 0.28МПА</text>
  <image x="1007.27" y="803.636" width="70" height="52.5" xlink:href="DS_reflux_valve.svg" transform="rotate(270 -0.00012207 -3.75012)">
    <rt:dyn type="KKS" mode="constant" value="&quot;NULL&quot;"/> 
  </image>
  <image x="750.03" y="800.121" width="70" height="52.5" xlink:href="DS_reflux_valve.svg" transform="rotate(270 -0.00012207 -3.75012)">
    <rt:dyn type="KKS" mode="constant" value="&quot;NULL&quot;"/> 
  </image>
  <image x="478.182" y="804.272" width="70" height="52.5" xlink:href="DS_reflux_valve.svg" transform="rotate(270 -0.00012207 -3.75012)">
    <rt:dyn type="KKS" mode="constant" value="&quot;NULL&quot;"/> 
  </image>
  <image x="220.758" y="737.576" width="70" height="52.5" xlink:href="DS_reflux_valve.svg" transform="rotate(270 -0.00012207 -3.75012)">
    <rt:dyn type="KKS" mode="constant" value="&quot;NULL&quot;"/> 
  </image>
  <line x1="1715.09" y1="619.545" x2="1318" y2="619" stroke="black" stroke-width="3"/> 
  <text x="1328.09" y="651.364" font-size="15">20KBA27<tspan x="1328.09" dy="15">AA202</tspan>
  </text>
  <image x="1406.48" y="589.121" width="175" height="25" xlink:href="DS_ana.svg">
    <title>&quot;20KBA27CF003&quot;</title>
    <rt:dyn type="FKKS" mode="constant" value="&quot;20KBA27CF003&quot;"/> 
    <rt:dyn type="X" mode="constant" value="&quot;F&quot;"/> 
    <rt:dyn type="ShowFrame" mode="constant" value="true"/> 
    <rt:dyn type="Color_Readings" mode="constant" value="true"/> 
    <rt:dyn type="ValueToTheCenter" mode="constant" value="false"/> 
  </image>
  <image x="1598.61" y="576.531" width="70" height="65" xlink:href="DS_CO_valve.svg" transform="flipX(6.10352e-005) rotate(90 0 0) flipY(-2.67029e-005) flipY(-5.68434e-014) rotate(270 -1.81794e-006 2.75671e-006) flipX()">
    <title>&quot;20KBA27AA004&quot;</title>
    <rt:dyn type="KKS" mode="constant" value="&quot;20KBA27AA004&quot;"/> 
    <rt:dyn type="DATA_NARY" mode="constant" value="&quot;TPTS&quot;"/> 
    <rt:dyn type="Operate" mode="constant" value="true"/> 
  </image>
  <text x="1598.5" y="652.25" font-size="15">20KBA27<tspan x="1598.5" dy="15">AA004</tspan>
  </text>
  <line x1="1716" y1="841" x2="1715" y2="618" stroke="black" stroke-width="3"/> 
  <line x1="1715.09" y1="737.727" x2="1318" y2="741.151" stroke="black" stroke-width="3"/> 
  <image x="1528.48" y="707.576" width="175" height="25" xlink:href="DS_ana.svg">
    <title>&quot;20KBA27CF002&quot;</title>
    <rt:dyn type="FKKS" mode="constant" value="&quot;20KBA27CF002&quot;"/> 
    <rt:dyn type="X" mode="constant" value="&quot;F&quot;"/> 
    <rt:dyn type="ShowFrame" mode="constant" value="true"/> 
    <rt:dyn type="Color_Readings" mode="constant" value="true"/> 
    <rt:dyn type="ValueToTheRight" mode="constant" value="false"/> 
  </image>
  <image x="1439.91" y="697.682" width="70" height="65" xlink:href="DS_CO_valve.svg" transform="flipX(6.10352e-005) rotate(90 0 0) flipY(-2.67029e-005) flipY(-5.68434e-014) rotate(270 -1.81794e-006 2.75671e-006) flipX()">
    <title>&quot;20KBA27AA003&quot;</title>
    <rt:dyn type="KKS" mode="constant" value="&quot;20KBA27AA003&quot;"/> 
    <rt:dyn type="DATA_NARY" mode="constant" value="&quot;TPTS&quot;"/> 
    <rt:dyn type="Operate" mode="constant" value="true"/> 
  </image>
  <text x="1441.5" y="772.5" font-size="15">20KBA27<tspan x="1441.5" dy="15">AA003</tspan>
  </text>
  <image x="1327.27" y="576.091" width="70" height="65" xlink:href="DS_Reg_valve.svg" transform="rotate(0 0 -10)">
    <title>&quot;20KBA27AA202&quot;</title>
    <rt:dyn type="KKS" mode="constant" value="&quot;20KBA27AA202&quot;"/> 
    <rt:dyn type="DATA_NARY" mode="constant" value="&quot;TPTS&quot;"/> 
    <rt:dyn type="Operate" mode="constant" value="true"/> 
    <rt:dyn type="NoSP" mode="constant" value="TRUE"/> 
  </image>
  <image x="1329.3" y="552.757" width="65" height="25" xlink:href="DS_Reg_degree.svg">
    <title>&quot;20KBA27AA202&quot;</title>
    <rt:dyn type="KKS" mode="constant" value="&quot;20KBA27AA202&quot;"/> 
  </image>
  <image x="1325.42" y="698.243" width="70" height="65" xlink:href="DS_Reg_valve.svg" transform="rotate(0 0 -10)">
    <title>&quot;20KBA27AA201&quot;</title>
    <rt:dyn type="KKS" mode="constant" value="&quot;20KBA27AA201&quot;"/> 
    <rt:dyn type="DATA_NARY" mode="constant" value="&quot;TPTS&quot;"/> 
    <rt:dyn type="Operate" mode="constant" value="true"/> 
    <rt:dyn type="NoSP" mode="constant" value="TRUE"/> 
  </image>
  <image x="1327.45" y="674.909" width="65" height="25" xlink:href="DS_Reg_degree.svg">
    <title>&quot;20KBA27AA201&quot;</title>
    <rt:dyn type="KKS" mode="constant" value="&quot;20KBA27AA201&quot;"/> 
  </image>
  <line x1="1716.61" y1="839.242" x2="1318" y2="837.302" stroke="black" stroke-width="3"/> 
  <image x="1353.91" y="794.833" width="70" height="65" xlink:href="DS_CO_valve.svg" transform="flipX(6.10352e-005) rotate(90 0 0) flipY(-2.67029e-005) flipY(-5.68434e-014) rotate(270 -1.81794e-006 2.75671e-006) flipX()">
    <title>&quot;20KBA27AA002&quot;</title>
    <rt:dyn type="KKS" mode="constant" value="&quot;20KBA27AA002&quot;"/> 
    <rt:dyn type="DATA_NARY" mode="constant" value="&quot;TPTS&quot;"/> 
    <rt:dyn type="Operate" mode="constant" value="true"/> 
  </image>
  <text x="1357.75" y="870" font-size="15">20KBA27<tspan x="1357.75" dy="15">AA002</tspan>
  </text>
  <image x="1357.91" y="899.576" width="70" height="65" xlink:href="DS_CO_valve.svg" transform="flipX(-0.000874826) flipX(-0.000467947) flipX(6.10352e-005) rotate(90 0 0) flipY(-2.67029e-005) flipY(-5.68434e-014) rotate(270 -1.81794e-006 2.75671e-006) flipX()">
    <title>&quot;20KBA27AA001&quot;</title>
    <rt:dyn type="KKS" mode="constant" value="&quot;20KBA27AA001&quot;"/> 
    <rt:dyn type="DATA_NARY" mode="constant" value="&quot;TPTS&quot;"/> 
    <rt:dyn type="Operate" mode="constant" value="true"/> 
  </image>
  <text x="1359" y="974.198" font-size="15">20KBA27<tspan x="1359" dy="15">AA001</tspan>
  </text>
  <image x="1671.36" y="912.727" width="70" height="52.5" xlink:href="DS_reflux_valve.svg" transform="flipX(-0.00034592) rotate(360 -0.000107907 -3.75015)">
    <rt:dyn type="KKS" mode="constant" value="&quot;NULL&quot;"/> 
  </image>
  <image x="1488.09" y="911.455" width="175" height="25" xlink:href="DS_ana.svg">
    <title>&quot;20KBA27CF001&quot;</title>
    <rt:dyn type="FKKS" mode="constant" value="&quot;20KBA27CF001&quot;"/> 
    <rt:dyn type="X" mode="constant" value="&quot;F&quot;"/> 
    <rt:dyn type="ShowFrame" mode="constant" value="true"/> 
    <rt:dyn type="Color_Readings" mode="constant" value="true"/> 
    <rt:dyn type="ValueToTheRight" mode="constant" value="false"/> 
  </image>
  <line x1="1318" y1="944" x2="1318" y2="617.546" stroke="black" stroke-width="3"/> 
  <text x="1672" y="975.25" font-size="15">20KBA27<tspan x="1672" dy="15">AA601</tspan>
  </text>
  <line x1="1482" y1="944" x2="1482" y2="836.697" stroke="black" stroke-width="3"/> 
  <text x="1167.58" y="447.758" fill="black" font-size="15" text-anchor="middle">
    <title>KBC40_60</title>
KPJ</text>
  <line x1="1278.34" y1="515.842" x2="1278.34" y2="543.842" stroke="black" stroke-width="1" transform="rotate(270 1154.37 565.515)"/> 
  <g transform="rotate(30 1174.42 556.061) rotate(30 1362.3 845.454) rotate(0 1.4013e-045 1.4013e-045) flipX(1887.93) rotate(180 1212.44 532.643)">
    <polygon points="2960.91,329.877 2974.29,337.521 2974.29,322.234 2960.91,329.877" fill="black" stroke="black" stroke-width="1" transform="rotate(180 1279.17 367.814)"/> 
  </g>
  <line x1="1288.89" y1="-245.48" x2="1288.89" y2="-217.48" stroke="black" stroke-width="1" transform="rotate(270 1154.37 565.515)"/> 
  <g transform="rotate(180 302.625 406.25) rotate(30 1174.42 556.061) rotate(30 1362.3 845.454) rotate(0 1.4013e-045 1.4013e-045) flipX(1887.93) rotate(180 1212.44 532.643)">
    <polygon points="3448.78,1056.4 3462.16,1064.04 3462.16,1048.75 3448.78,1056.4" fill="black" stroke="black" stroke-width="1" transform="rotate(180 1279.17 367.814)"/> 
  </g>
  <line x1="126.697" y1="536" x2="422.5" y2="536" stroke="black" stroke-width="3"/> 
  <image x="163.625" y="494" width="70" height="65" xlink:href="DS_CO_valve.svg" transform="rotate(90 0 0) flipY(-5.68434e-014) rotate(270 -1.81794e-006 2.75671e-006) flipX()">
    <title>&quot;20KBC40AA003&quot;</title>
    <rt:dyn type="KKS" mode="constant" value="&quot;20KBC40AA003&quot;"/> 
    <rt:dyn type="DATA_NARY" mode="constant" value="&quot;TPTS&quot;"/> 
    <rt:dyn type="Operate" mode="constant" value="true"/> 
  </image>
  <line x1="127" y1="534" x2="127" y2="579.75" stroke="black" stroke-width="3"/> 
  <text x="1327.62" y="775.25" font-size="15">20KBA27<tspan x="1327.62" dy="15">AA201</tspan>
  </text>
  <image x="390" y="900.5" width="70" height="65" xlink:href="DS_CO_valve.svg" transform="flipX(6.10352e-005) rotate(90 0 0) flipY(-2.67029e-005) flipY(-5.68434e-014) rotate(270 -1.81794e-006 2.75671e-006) flipX()">
    <title>&quot;20KBC60AA002&quot;</title>
    <rt:dyn type="KKS" mode="constant" value="&quot;20KBC60AA002&quot;"/> 
    <rt:dyn type="DATA_NARY" mode="constant" value="&quot;TPTS&quot;"/> 
    <rt:dyn type="Operate" mode="constant" value="true"/> 
  </image>
  <image x="110.091" y="900.454" width="70" height="65" xlink:href="DS_CO_valve.svg" transform="rotate(90 0 0) flipY(-1.13687e-013) flipY(-2.67029e-005) flipY(-5.68434e-014) rotate(270 -1.81794e-006 2.75671e-006) flipX()">
    <title>&quot;20KBC60AA001&quot;</title>
    <rt:dyn type="KKS" mode="constant" value="&quot;20KBC60AA001&quot;"/> 
    <rt:dyn type="DATA_NARY" mode="constant" value="&quot;TPTS&quot;"/> 
    <rt:dyn type="Operate" mode="constant" value="true"/> 
  </image>
  <line x1="90.3333" y1="844.773" x2="257.833" y2="844.773" stroke="black"/> 
  <line x1="91.3485" y1="810.424" x2="91.3485" y2="844.924" stroke="black"/> 
  <g transform="rotate(25.0172 85.7879 834.848) rotate(180 302.625 406.25) rotate(30 1174.42 556.061) rotate(30 1362.3 845.454) rotate(0 1.4013e-045 1.4013e-045) flipX(1887.93) rotate(180 1212.44 532.643)">
    <polygon points="3654.71,643.269 3668.09,650.909 3668.09,635.619 3654.71,643.269" fill="black" stroke="black" stroke-width="1" transform="rotate(180 1279.17 367.814)"/> 
  </g>
  <text x="91.375" y="786" font-size="15" text-anchor="middle">рец. на<tspan x="91.375" dy="15">баки KBC40</tspan>
  </text>
  <text x="415.75" y="838.25" font-size="15">20KBC50<tspan x="415.75" dy="15">AA601</tspan>
  </text>
  <text x="686.75" y="826.25" font-size="15">20KBC50<tspan x="686.75" dy="15">AA602</tspan>
  </text>
  <text x="943.25" y="826.25" font-size="15">20KBC50<tspan x="943.25" dy="15">AA603</tspan>
  </text>
  <text x="155.5" y="763.5" font-size="15">20KBC60<tspan x="155.5" dy="15">AA601</tspan>
  </text>
  <image x="363.848" y="222.833" width="70" height="65" xlink:href="DS_CO_valve.svg" transform="flipY(-5.68434e-014) rotate(270 -1.81794e-006 2.75671e-006) flipX()">
    <title>&quot;20KBC40AA007&quot;</title>
    <rt:dyn type="KKS" mode="constant" value="&quot;20KBC40AA007&quot;"/> 
    <rt:dyn type="DATA_NARY" mode="constant" value="&quot;TPTS&quot;"/> 
    <rt:dyn type="Operate" mode="constant" value="true"/> 
  </image>
  <line x1="724.242" y1="222" x2="777" y2="222" stroke="black"/> 
  <rect x="832" y="365" width="0.1" height="0.1" rx="0" ry="0"/> 
  <image x="1652.45" y="84.8485" width="75" height="25" xlink:href="obj_link.svg">
    <rt:dyn type="TextStr" mode="constant" value="&quot;KBB&quot;"/> 
    <rt:event type="OnClick">LoadNew(&quot;&quot;)</rt:event>
    <rt:dyn type="ModName" mode="constant" value="&quot;kbb&quot;"/> 
  </image>
  <image x="14.5759" y="929.333" width="75" height="25" xlink:href="obj_link.svg" transform="flipX(37.4999)">
    <rt:dyn type="TextStr" mode="constant" value="&quot;KBF&quot;"/> 
    <rt:event type="OnClick">LoadNew(&quot;&quot;)</rt:event>
    <rt:dyn type="ModName" mode="constant" value="&quot;kbf3&quot;"/> 
  </image>
  <image x="1802.33" y="929.303" width="75" height="25" xlink:href="obj_link.svg">
    <rt:dyn type="TextStr" mode="constant" value="&quot;KBA00&quot;"/> 
    <rt:event type="OnClick">LoadNew(&quot;&quot;)</rt:event>
    <rt:dyn type="ModName" mode="constant" value="&quot;kba00&quot;"/> 
  </image>
  <image x="1318.55" y="461.091" width="85" height="25" xlink:href="obj_link.svg">
    <rt:dyn type="TextStr" mode="constant" value="&quot;KUA10-50&quot;"/> 
    <rt:event type="OnClick">LoadNew(&quot;&quot;)</rt:event>
    <rt:dyn type="ModName" mode="constant" value="&quot;kua10_50&quot;"/> 
  </image>
  <image x="603.939" y="208.561" width="75" height="25" xlink:href="obj_link.svg">
    <rt:dyn type="TextStr" mode="constant" value="&quot;KBF&quot;"/> 
    <rt:event type="OnClick">LoadNew(&quot;&quot;)</rt:event>
    <rt:dyn type="ModName" mode="constant" value="&quot;kbf3&quot;"/> 
  </image>
  <image x="770.636" y="209.561" width="75" height="25" xlink:href="obj_link.svg" transform="flipX(37.4999)">
    <rt:dyn type="TextStr" mode="constant" value="&quot;KPJ&quot;"/> 
    <rt:event type="OnClick">LoadNew(&quot;&quot;)</rt:event>
    <rt:dyn type="ModName" mode="constant" value="&quot;kpj1&quot;"/> 
  </image>
  <image x="125.182" y="86.3637" width="75" height="25" xlink:href="obj_link.svg">
    <rt:dyn type="TextStr" mode="constant" value="&quot;KTB&quot;"/> 
    <rt:event type="OnClick">LoadNew(&quot;&quot;)</rt:event>
    <rt:dyn type="ModName" mode="constant" value="&quot;ktb&quot;"/> 
  </image>
  <text x="1492" y="214.5" font-size="15">ПОДАЧА БОР КОНЦ В КОН</text>
  <image x="1522" y="225.547" width="150" height="30" xlink:href="DS_TPTS_IBR_set.svg">
    <title>&quot;20KBA27EU001&quot;</title>
    <rt:dyn type="KKS" mode="constant" value="&quot;20KBA27EU001&quot;"/> 
    <rt:dyn type="Operate" mode="constant" value="true"/> 
    <rt:dyn type="HideBut" mode="constant" value="true"/> 
    <rt:dyn type="ShowGoodColor" mode="constant" value="true"/> 
  </image>
  <image x="297" y="687.5" width="115" height="57" xlink:href="DS_TPTS_VL_spec.svg">
    <title>&quot;20KBC60CH001&quot;</title>
    <rt:dyn type="KKS" mode="constant" value="&quot;20KBC60CH001VL0&quot;"/> 
    <rt:dyn type="Operate" mode="constant" value="true"/> 
    <rt:dyn type="OneLine" mode="constant" value="1"/> 
  </image>
  <text x="709.25" y="983.341" font-size="15">АВР KBC50AP001-003 принуд. откл.</text>
  <text x="234.25" y="976.466" font-size="15">откл<tspan x="234.25" dy="15">20KBC60AP001</tspan>
  </text>
  <g>
    <rect x="1031.25" y="372.942" width="13" height="17.75" rx="0" ry="0" fill="Col_BGSand"/> 
    <path d="M811.808 -5.21674 A8.80505 8.80505 0 1 0 811.808 12.3483 " fill="none" stroke="black" stroke-width="1" transform="matrix(1 0 0 -1 229.642 385.38)"/> 
  </g>
  <g>
    <rect x="1031.25" y="325.691" width="13" height="17.75" rx="0" ry="0" fill="Col_BGSand"/> 
    <path d="M811.808 42.0344 A8.80505 8.80505 0 1 0 811.808 59.5994 " fill="none" stroke="black" stroke-width="1" transform="matrix(1 0 0 -1 229.642 385.38)"/> 
  </g>
  <g>
    <rect x="890" y="326.941" width="13" height="17.75" rx="0" ry="0" fill="Col_BGSand"/> 
    <path d="M670.558 40.7844 A8.80505 8.80505 0 1 0 670.558 58.3494 " fill="none" stroke="black" stroke-width="1" transform="matrix(1 0 0 -1 229.642 385.38)"/> 
  </g>
  <g>
    <rect x="890.75" y="370.941" width="13" height="17.75" rx="0" ry="0" fill="Col_BGSand"/> 
    <path d="M671.308 -3.21563 A8.80505 8.80505 0 1 0 671.308 14.3494 " fill="none" stroke="black" stroke-width="1" transform="matrix(1 0 0 -1 229.642 385.38)"/> 
  </g>
  <g>
    <rect x="1073" y="371.442" width="13" height="17.75" rx="0" ry="0" fill="Col_BGSand"/> 
    <path d="M853.558 -3.71677 A8.80505 8.80505 0 1 0 853.558 13.8483 " fill="none" stroke="black" stroke-width="3" transform="matrix(1 0 0 -1 229.642 385.38)"/> 
  </g>
  <g>
    <rect x="1073" y="324.191" width="13" height="17.75" rx="0" ry="0" fill="Col_BGSand"/> 
    <path d="M853.558 43.5344 A8.80505 8.80505 0 1 0 853.558 61.0994 " fill="none" stroke="black" stroke-width="3" transform="matrix(1 0 0 -1 229.642 385.38)"/> 
  </g>
  <g>
    <rect x="412.5" y="192.691" width="13" height="17.75" rx="0" ry="0" fill="Col_BGSand"/> 
    <path d="M193.058 175.034 A8.80505 8.80505 0 1 0 193.058 192.599 " fill="none" stroke="black" stroke-width="1" transform="matrix(1 0 0 -1 229.642 385.38)"/> 
  </g>
  <g>
    <rect x="552.75" y="192.941" width="13" height="17.75" rx="0" ry="0" fill="Col_BGSand"/> 
    <path d="M333.308 174.784 A8.80505 8.80505 0 1 0 333.308 192.349 " fill="none" stroke="black" stroke-width="1" transform="matrix(1 0 0 -1 229.642 385.38)"/> 
  </g>
  <g>
    <rect x="412.468" y="569.692" width="13" height="17.75" rx="0" ry="0" fill="Col_BGSand"/> 
    <path d="M193.026 -201.967 A8.80505 8.80505 0 1 0 193.026 -184.402 " fill="none" stroke="black" stroke-width="3" transform="matrix(1 0 0 -1 229.642 385.38)"/> 
  </g>
  <line x1="126.697" y1="578" x2="938.25" y2="578" stroke="black" stroke-width="3"/> 
  <image x="270.625" y="534.75" width="70" height="65" xlink:href="DS_CO_valve.svg" transform="flipY(-10) flipY(-10) flipX(7.65324e-005) rotate(90 0 0) flipY(-2.67029e-005) flipY(-5.68434e-014) rotate(270 -1.81794e-006 2.75671e-006) flipX()">
    <title>&quot;20KBC40AA004&quot;</title>
    <rt:dyn type="KKS" mode="constant" value="&quot;20KBC40AA004&quot;"/> 
    <rt:dyn type="DATA_NARY" mode="constant" value="&quot;TPTS&quot;"/> 
    <rt:dyn type="Operate" mode="constant" value="true"/> 
  </image>
  <line x1="877" y1="382" x2="1255.33" y2="382" stroke="black" stroke-width="3"/> 
  <image x="1140" y="340" width="70" height="65" xlink:href="DS_CO_valve.svg" transform="flipX() rotate(90 0 0) flipY(1.13687e-013) flipY(-1.13687e-013) flipY(-2.67029e-005) flipY(-5.68434e-014) rotate(270 -1.81794e-006 2.75671e-006) flipX()">
    <title>&quot;20KBC50AA004&quot;</title>
    <rt:dyn type="KKS" mode="constant" value="&quot;20KBC50AA004&quot;"/> 
    <rt:dyn type="DATA_NARY" mode="constant" value="&quot;TPTS&quot;"/> 
    <rt:dyn type="Operate" mode="constant" value="true"/> 
  </image>
  <line x1="604.5" y1="335" x2="1256" y2="335" stroke="black" stroke-width="3"/> 
  <image x="686" y="292" width="70" height="65" xlink:href="DS_CO_valve.svg" transform="flipX() rotate(90 0 0) flipY(1.13687e-013) flipY(-1.13687e-013) flipY(-2.67029e-005) flipY(-5.68434e-014) rotate(270 -1.81794e-006 2.75671e-006) flipX()">
    <title>&quot;20KBC50AA005&quot;</title>
    <rt:dyn type="KKS" mode="constant" value="&quot;20KBC50AA005&quot;"/> 
    <rt:dyn type="DATA_NARY" mode="constant" value="&quot;TPTS&quot;"/> 
    <rt:dyn type="Operate" mode="constant" value="true"/> 
  </image>
  <line x1="397" y1="201.25" x2="1283.33" y2="202" stroke="black" stroke-width="3"/> 
  <text x="10" y="22" fill="black" font-size="15" text-anchor="start">
    <title>KBC40_60</title>
KBC40_60</text>
</svg>
