<?xml  version="1.0" encoding="UTF-8"?>
<svg color="Col_BGSand" xmlns="http://www.w3.org/2000/svg" xmlns:rt="http://www.rts.co.at/2001/XMLSchema/RtSvgPL" xmlns:xlink="http://www.w3.org/1999/xlink" xmlns:xsi="http://www.w3.org/2001/XMLSchema-instance" xsi:schemaLocation="http://www.w3.org/2000/svg C:\RTS\RtSvg\XML\SVG.xsd" viewBox="0 0 1914 1000" width="1914" height="1000" id="kla41">
  <title>Приточная рем.-ав. система вентиляции внутр. контайнмента</title>
  <rt:model modelversion="7.2.0.24" comment="UMod all_skuv&#10;LMod kla22_42&#10;RMod klb01_02" revision="3"/> 
  <text x="950" y="42" font-size="30" font-weight="700" text-anchor="middle">
    <title>Система вентиляции зданий</title>
Приточная рем.-ав. система вентиляции внутр. контайнмента</text>
  <line x1="1791.09" y1="454.545" x2="1791.09" y2="454.545" stroke="black"/> 
  <line x1="1555.24" y1="313.606" x2="1005.79" y2="313.606" stroke="black" stroke-width="3"/> 
  <line x1="885.734" y1="-92.5252" x2="885.734" y2="55.4748" stroke="black" transform="rotate(90 689.25 117.497)"/> 
  <line x1="772.984" y1="-94.5252" x2="772.984" y2="57.4748" stroke="black" transform="rotate(90 689.25 117.497)"/> 
  <line x1="1040" y1="331.728" x2="132.516" y2="331.728" stroke="black" stroke-width="3"/> 
  <g transform="flipX(459) scale(1.27 1.27 1043.36 910.606) scale(1.0524 1.0524 1.4013e-045 1.4013e-045) flipX(963.818) rotate(270 964.576 96.9697) rotate(90 1175.94 787.121) scale(0.380039 0.380039 1162.3 219.697) rotate(270 1162.3 219.697) rotate(270 412.288 437.863)">
    <g transform="rotate(90 1094.11 578.015)">
      <rect x="-1257.41" y="987.544" width="130.303" height="134.849" rx="0" ry="0" fill="Col_Grey4" stroke="black" stroke-width="3"/> 
      <line x1="-1193.8" y1="1002.66" x2="-1145.32" y2="1026.91" stroke="black" stroke-width="3"/> 
      <line x1="-1240.1" y1="1082.79" x2="-1191.6" y2="1107.04" stroke="black" stroke-width="3"/> 
      <line x1="-1146.84" y1="1026.91" x2="-1242.29" y2="1082.97" stroke="black" stroke-width="3"/> 
      <line x1="-1192.62" y1="1106.44" x2="-1192.62" y2="1121.44" stroke="black" stroke-width="3"/> 
      <line x1="-1192.47" y1="989.594" x2="-1192.47" y2="1004.59" stroke="black" stroke-width="3"/> 
    </g>
  </g>
  <rect x="773.769" y="174.228" width="99.5" height="56.5" rx="0" ry="0" fill="Col_Grey4" stroke="black" stroke-width="3"/> 
  <text x="948.089" y="256.122" font-size="15">20SBJ07<tspan x="948.089" dy="15">AA012</tspan>
  </text>
  <text x="1060.36" y="341.879" font-size="15">20KLA41<tspan x="1060.36" dy="15">AN001</tspan>
  </text>
  <image x="988.269" y="295.728" width="70" height="70" xlink:href="DS_motor.svg" transform="flipY(-0.00012207) rotate(90 0 0) flipX(-0.00012207) rotate(270 -0.00012207 0)">
    <title>&quot;20KLA41AN001&quot;</title>
    <rt:dyn type="KKS" mode="constant" value="&quot;20KLA41AN001&quot;"/> 
    <rt:dyn type="DATA_NARY" mode="constant" value="&quot;TPTS&quot;"/> 
    <rt:dyn type="Operate" mode="constant" value="true"/> 
    <rt:dyn type="DeviceType" mode="constant" value="&quot;fan&quot;"/> 
  </image>
  <g transform="flipY(776.515) rotate(330 1212.44 532.643)">
    <g>
      <polygon points="2094.75,-185.398 2108.13,-177.754 2108.13,-193.041 2094.75,-185.398" fill="black" stroke="black" stroke-width="1" transform="rotate(180 1279.17 367.814)"/> 
    </g>
  </g>
  <line x1="900.818" y1="201.606" x2="900.818" y2="314.728" stroke="black"/> 
  <line x1="748.818" y1="200.606" x2="750.06" y2="314.97" stroke="black"/> 
  <g transform="flipY(189.5) flipY(776.515) rotate(330 1212.44 532.643)">
    <g>
      <polygon points="2077.57,-455.62 2090.95,-447.976 2090.95,-463.263 2077.57,-455.62" fill="black" stroke="black" stroke-width="1" transform="rotate(180 1279.17 367.814)"/> 
    </g>
  </g>
  <image x="875.269" y="220.955" width="70" height="65" xlink:href="DS_CO_valve.svg" transform="flipX(-1.13687e-013) flipY(-10) flipY(-10) rotate(270 0 -10)">
    <title>&quot;20SBJ07AA012&quot;</title>
    <rt:dyn type="KKS" mode="constant" value="&quot;20SBJ07AA012&quot;"/> 
    <rt:dyn type="DATA_NARY" mode="constant" value="&quot;TPTS&quot;"/> 
    <rt:dyn type="Operate" mode="constant" value="true"/> 
  </image>
  <text x="820.269" y="208.728" fill="black" font-size="15" text-anchor="middle">
    <title>11FAK14AA002</title>
20SBJ</text>
  <text x="824.939" y="262" fill="black" font-size="15" text-anchor="middle">20KLA41<tspan x="824.939" dy="15">AH001</tspan>
  </text>
  <line x1="1554.23" y1="313.151" x2="1554.23" y2="606" stroke="black" stroke-width="3"/> 
  <image x="703.727" y="219.576" width="70" height="65" xlink:href="DS_Reg_valve.svg" transform="rotate(360 0 -10) rotate(270 0 -10)">
    <title>&quot;20SBJ08AA212&quot;</title>
    <rt:dyn type="KKS" mode="constant" value="&quot;20SBJ08AA212&quot;"/> 
    <rt:dyn type="DATA_NARY" mode="constant" value="&quot;TPTS&quot;"/> 
    <rt:dyn type="Operate" mode="constant" value="true"/> 
    <rt:dyn type="NoSP" mode="constant" value="true"/> 
  </image>
  <image x="676.455" y="189.697" width="65" height="25" xlink:href="DS_TPTS_Reg_degree.svg">
    <title>&quot;20SBJ08AA212&quot;</title>
    <rt:dyn type="KKS" mode="constant" value="&quot;20SBJ08AA212&quot;"/> 
  </image>
  <text x="667.364" y="252.91" fill="black" font-size="15" text-anchor="middle">20SBJ08<tspan x="667.364" dy="15">AA212</tspan>
  </text>
  <g>
    <rect x="408.677" y="216.934" width="65" height="65" rx="0" ry="0" fill="Col_Grey4" transform="rotate(360 532.506 746.174) rotate(0 532.1 745.087) rotate(314.645 525.5 325)"/> 
    <line x1="412.487" y1="289.401" x2="412.487" y2="375.765" stroke="black" stroke-dasharray="5,5"/> 
  </g>
  <text x="410.125" y="396.25" fill="black" font-size="15" text-anchor="middle">20KLA41AT001</text>
  <image x="189.659" y="278.606" width="70" height="65" xlink:href="DS_CO_valve.svg" transform="rotate(270 6.32897e-005 4.4512e-005) flipY(-10.0001) rotate(90 -0.00012207 -10.0001)">
    <title>&quot;20KLA41AA001&quot;</title>
    <rt:dyn type="KKS" mode="constant" value="&quot;20KLA41AA001&quot;"/> 
    <rt:dyn type="DATA_NARY" mode="constant" value="&quot;TPTS&quot;"/> 
    <rt:dyn type="Operate" mode="constant" value="true"/> 
  </image>
  <text x="213.159" y="366.606" fill="black" font-size="15" text-anchor="middle">20KLA41<tspan x="213.159" dy="15">AA001</tspan>
  </text>
  <image x="1195.03" y="282.697" width="175" height="25" xlink:href="DS_ana.svg">
    <title>&quot;20KLA41CT001&quot;</title>
    <rt:dyn type="FKKS" mode="constant" value="&quot;20KLA41CT001&quot;"/> 
    <rt:dyn type="ShowFrame" mode="constant" value="true"/> 
    <rt:dyn type="X" mode="constant" value="&quot;T&quot;"/> 
    <rt:dyn type="Color_Readings" mode="constant" value="true"/> 
    <rt:dyn type="ValueToTheRight" mode="constant" value="false"/> 
  </image>
  <g transform="flipX(1829.73) flipX(1092.61) rotate(270 1446.39 199.242) flipY(189.5) flipY(776.515) rotate(330 1212.44 532.643)">
    <g>
      <polygon points="272.414,1844.09 285.794,1851.74 285.794,1836.45 272.414,1844.09" fill="black" stroke="black" stroke-width="1" transform="rotate(180 1279.17 367.814)"/> 
    </g>
  </g>
  <text x="88.3946" y="337.394" fill="black" font-size="15" text-anchor="middle">АТМ</text>
  <line x1="1555.4" y1="605.758" x2="1005.94" y2="605.758" stroke="black" stroke-width="3"/> 
  <line x1="1177.89" y1="-92.6766" x2="1177.89" y2="55.3233" stroke="black" transform="rotate(90 689.25 117.497)"/> 
  <line x1="1065.14" y1="-94.6766" x2="1065.14" y2="57.3233" stroke="black" transform="rotate(90 689.25 117.497)"/> 
  <line x1="1040.15" y1="623.88" x2="132.668" y2="623.88" stroke="black" stroke-width="3"/> 
  <g transform="flipX(459) scale(1.27 1.27 1043.36 910.606) scale(1.0524 1.0524 1.4013e-045 1.4013e-045) flipX(963.818) rotate(270 964.576 96.9697) rotate(90 1175.94 787.121) scale(0.380039 0.380039 1162.3 219.697) rotate(270 1162.3 219.697) rotate(270 412.288 437.863)">
    <g transform="rotate(90 1094.11 578.015)">
      <rect x="-1832.59" y="987.846" width="130.303" height="134.849" rx="0" ry="0" fill="Col_Grey4" stroke="black" stroke-width="3"/> 
      <line x1="-1768.98" y1="1002.97" x2="-1720.5" y2="1027.22" stroke="black" stroke-width="3"/> 
      <line x1="-1815.28" y1="1083.1" x2="-1766.78" y2="1107.35" stroke="black" stroke-width="3"/> 
      <line x1="-1722.02" y1="1027.22" x2="-1817.47" y2="1083.28" stroke="black" stroke-width="3"/> 
      <line x1="-1767.8" y1="1106.75" x2="-1767.8" y2="1121.75" stroke="black" stroke-width="3"/> 
      <line x1="-1767.65" y1="989.896" x2="-1767.65" y2="1004.9" stroke="black" stroke-width="3"/> 
    </g>
  </g>
  <rect x="773.921" y="466.38" width="99.5" height="56.5" rx="0" ry="0" fill="Col_Grey4" stroke="black" stroke-width="3"/> 
  <text x="948.237" y="548.274" font-size="15">20SBJ07<tspan x="948.237" dy="15">AA011</tspan>
  </text>
  <text x="1060.52" y="634.031" font-size="15">20KLA41<tspan x="1060.52" dy="15">AN002</tspan>
  </text>
  <image x="988.417" y="587.88" width="70" height="70" xlink:href="DS_motor.svg" transform="flipY(-0.00012207) rotate(90 0 0) flipX(-0.00012207) rotate(270 -0.00012207 0)">
    <title>&quot;20KLA41AN002&quot;</title>
    <rt:dyn type="KKS" mode="constant" value="&quot;20KLA41AN002&quot;"/> 
    <rt:dyn type="DATA_NARY" mode="constant" value="&quot;TPTS&quot;"/> 
    <rt:dyn type="Operate" mode="constant" value="true"/> 
    <rt:dyn type="DeviceType" mode="constant" value="&quot;fan&quot;"/> 
  </image>
  <g transform="flipY(776.515) rotate(330 1212.44 532.643)">
    <g>
      <polygon points="1948.54,67.5278 1961.92,75.1718 1961.92,59.8847 1948.54,67.5278" fill="black" stroke="black" stroke-width="1" transform="rotate(180 1279.17 367.814)"/> 
    </g>
  </g>
  <line x1="900.97" y1="493.758" x2="900.97" y2="606.88" stroke="black"/> 
  <line x1="748.97" y1="492.758" x2="750.212" y2="607.122" stroke="black"/> 
  <g transform="flipY(189.5) flipY(776.515) rotate(330 1212.44 532.643)">
    <g>
      <polygon points="2223.51,-708.706 2236.89,-701.063 2236.89,-716.348 2223.51,-708.706" fill="black" stroke="black" stroke-width="1" transform="rotate(180 1279.17 367.814)"/> 
    </g>
  </g>
  <image x="875.421" y="513.106" width="70" height="65" xlink:href="DS_CO_valve.svg" transform="flipX(-1.13687e-013) flipY(-10) flipY(-10) rotate(270 0 -10)">
    <title>&quot;20SBJ07AA011&quot;</title>
    <rt:dyn type="KKS" mode="constant" value="&quot;20SBJ07AA011&quot;"/> 
    <rt:dyn type="DATA_NARY" mode="constant" value="&quot;TPTS&quot;"/> 
    <rt:dyn type="Operate" mode="constant" value="true"/> 
  </image>
  <text x="820.421" y="500.88" fill="black" font-size="15" text-anchor="middle">
    <title>11FAK14AA002</title>
20SBJ</text>
  <text x="825.091" y="554.152" fill="black" font-size="15" text-anchor="middle">20KLA41<tspan x="825.091" dy="15">AH002</tspan>
  </text>
  <image x="703.879" y="511.728" width="70" height="65" xlink:href="DS_Reg_valve.svg" transform="rotate(360 0 -10) rotate(270 0 -10)">
    <title>&quot;20SBJ08AA211&quot;</title>
    <rt:dyn type="KKS" mode="constant" value="&quot;20SBJ08AA211&quot;"/> 
    <rt:dyn type="DATA_NARY" mode="constant" value="&quot;TPTS&quot;"/> 
    <rt:dyn type="Operate" mode="constant" value="true"/> 
    <rt:dyn type="NoSP" mode="constant" value="true"/> 
  </image>
  <image x="676.607" y="481.849" width="65" height="25" xlink:href="DS_TPTS_Reg_degree.svg">
    <title>&quot;20SBJ08AA211&quot;</title>
    <rt:dyn type="KKS" mode="constant" value="&quot;20SBJ08AA211&quot;"/> 
  </image>
  <text x="667.516" y="545.062" fill="black" font-size="15" text-anchor="middle">20SBJ08<tspan x="667.516" dy="15">AA211</tspan>
  </text>
  <g>
    <rect x="200.922" y="422.336" width="65" height="65" rx="0" ry="0" fill="Col_Grey4" transform="rotate(360 532.506 746.174) rotate(0 532.1 745.087) rotate(314.645 525.5 325)"/> 
    <line x1="412.639" y1="581.553" x2="412.639" y2="667.917" stroke="black" stroke-dasharray="5,5"/> 
  </g>
  <text x="410.125" y="686.25" fill="black" font-size="15" text-anchor="middle">20KLA41AT002</text>
  <image x="189.659" y="570.758" width="70" height="65" xlink:href="DS_CO_valve.svg" transform="rotate(270 6.32897e-005 4.4512e-005) flipY(-10.0001) rotate(90 -0.00012207 -10.0001)">
    <title>&quot;20KLA41AA002&quot;</title>
    <rt:dyn type="KKS" mode="constant" value="&quot;20KLA41AA002&quot;"/> 
    <rt:dyn type="DATA_NARY" mode="constant" value="&quot;TPTS&quot;"/> 
    <rt:dyn type="Operate" mode="constant" value="true"/> 
  </image>
  <text x="213.159" y="658.758" fill="black" font-size="15" text-anchor="middle">20KLA41<tspan x="213.159" dy="15">AA002</tspan>
  </text>
  <image x="1195.19" y="574.849" width="175" height="25" xlink:href="DS_ana.svg">
    <title>&quot;20KLA41CT002&quot;</title>
    <rt:dyn type="FKKS" mode="constant" value="&quot;20KLA41CT002&quot;"/> 
    <rt:dyn type="ShowFrame" mode="constant" value="true"/> 
    <rt:dyn type="X" mode="constant" value="&quot;T&quot;"/> 
    <rt:dyn type="Color_Readings" mode="constant" value="true"/> 
    <rt:dyn type="ValueToTheRight" mode="constant" value="false"/> 
  </image>
  <g transform="flipX(1829.73) flipX(1092.61) rotate(270 1446.39 199.242) flipY(189.5) flipY(776.515) rotate(330 1212.44 532.643)">
    <g>
      <polygon points="525.468,1990.01 538.848,1997.66 538.848,1982.36 525.468,1990.01" fill="black" stroke="black" stroke-width="1" transform="rotate(180 1279.17 367.814)"/> 
    </g>
  </g>
  <text x="88.5466" y="629.546" fill="black" font-size="15" text-anchor="middle">АТМ</text>
  <line x1="1735.75" y1="456.25" x2="1554.79" y2="457" stroke="black" stroke-width="3"/> 
  <image x="1581.15" y="404.121" width="70" height="65" xlink:href="DS_CO_valve.svg" transform="rotate(270 6.32897e-005 4.4512e-005) flipY(-10.0001) rotate(90 -0.00012207 -10.0001)">
    <title>&quot;20KLA41AA003&quot;</title>
    <rt:dyn type="KKS" mode="constant" value="&quot;20KLA41AA003&quot;"/> 
    <rt:dyn type="DATA_NARY" mode="constant" value="&quot;TPTS&quot;"/> 
    <rt:dyn type="Operate" mode="constant" value="true"/> 
  </image>
  <text x="1609.15" y="492.121" fill="black" font-size="15" text-anchor="middle">20KLA41<tspan x="1609.15" dy="15">AA003</tspan>
  </text>
  <line x1="1676.44" y1="457.606" x2="1676.44" y2="750.455" stroke="black" stroke-width="3"/> 
  <image x="1638.58" y="773.122" width="75" height="25" xlink:href="obj_link.svg" transform="flipY(12.638) rotate(90 37.3619 12.5)">
    <title>&quot;KLA21&quot;</title>
    <rt:event type="OnClick">LoadNew(&quot;&quot;)</rt:event>
    <rt:dyn type="TextStr" mode="constant" value="&quot;&quot;"/> 
    <rt:dyn type="ModName" mode="constant" value="&quot;kla21&quot;"/> 
  </image>
  <text x="1682.52" y="847.364" fill="black" font-size="15" text-anchor="middle">KLA21</text>
  <image x="1721.73" y="442.97" width="75" height="25" xlink:href="obj_link.svg">
    <rt:event type="OnClick">LoadNew(&quot;&quot;)</rt:event>
    <rt:dyn type="TextStr" mode="constant" value="&quot;&quot;"/> 
    <rt:dyn type="ModName" mode="constant" value="&quot;kla00&quot;"/> 
  </image>
  <text x="1748.03" y="437.848" fill="black" font-size="15" text-anchor="middle">KLA00</text>
  <image x="548.424" y="336.364" width="175" height="25" xlink:href="DS_ana.svg">
    <title>&quot;20KLA41CT003&quot;</title>
    <rt:dyn type="FKKS" mode="constant" value="&quot;20KLA41CT003&quot;"/> 
    <rt:dyn type="ShowFrame" mode="constant" value="true"/> 
    <rt:dyn type="X" mode="constant" value="&quot;T&quot;"/> 
    <rt:dyn type="Color_Readings" mode="constant" value="true"/> 
    <rt:dyn type="ValueToTheRight" mode="constant" value="false"/> 
  </image>
  <image x="548.424" y="629.303" width="175" height="25" xlink:href="DS_ana.svg">
    <title>&quot;20KLA41CT004&quot;</title>
    <rt:dyn type="FKKS" mode="constant" value="&quot;20KLA41CT004&quot;"/> 
    <rt:dyn type="ShowFrame" mode="constant" value="true"/> 
    <rt:dyn type="X" mode="constant" value="&quot;T&quot;"/> 
    <rt:dyn type="Color_Readings" mode="constant" value="true"/> 
    <rt:dyn type="ValueToTheRight" mode="constant" value="false"/> 
  </image>
  <image x="886" y="160" width="175" height="25" xlink:href="DS_ana.svg">
    <title>&quot;20SBJ08CT012&quot;</title>
    <rt:dyn type="FKKS" mode="constant" value="&quot;20SBJ08CT012&quot;"/> 
    <rt:dyn type="ShowFrame" mode="constant" value="true"/> 
    <rt:dyn type="X" mode="constant" value="&quot;T&quot;"/> 
    <rt:dyn type="Color_Readings" mode="constant" value="true"/> 
    <rt:dyn type="ValueToTheRight" mode="constant" value="false"/> 
  </image>
  <image x="886" y="451.25" width="175" height="25" xlink:href="DS_ana.svg">
    <title>&quot;20SBJ08CT011&quot;</title>
    <rt:dyn type="FKKS" mode="constant" value="&quot;20SBJ08CT011&quot;"/> 
    <rt:dyn type="ShowFrame" mode="constant" value="true"/> 
    <rt:dyn type="X" mode="constant" value="&quot;T&quot;"/> 
    <rt:dyn type="Color_Readings" mode="constant" value="true"/> 
    <rt:dyn type="ValueToTheRight" mode="constant" value="false"/> 
  </image>
  <image x="328.5" y="246.5" width="25" height="25" xlink:href="bin_indicator.svg">
    <title>&quot;20KLA41CP001_XG02&quot;</title>
    <rt:dyn type="PointID" mode="constant" value="&quot;20KLA41CP001_XG02&quot;"/> 
  </image>
  <text x="427.25" y="265.25" fill="black" font-size="15" text-anchor="middle">dР &gt; 0.45 КПА</text>
  <image x="328.5" y="535.25" width="25" height="25" xlink:href="bin_indicator.svg">
    <title>&quot;20KLA41CP002_XG02&quot;</title>
    <rt:dyn type="PointID" mode="constant" value="&quot;20KLA41CP002_XG02&quot;"/> 
  </image>
  <text x="427.25" y="554" fill="black" font-size="15" text-anchor="middle">dР &gt; 0.45 КПА</text>
  <image x="187.659" y="216.25" width="50" height="55" xlink:href="DS_switch.svg">
    <title>&quot;20KLA41AA001E&quot;</title>
    <rt:dyn type="KKS" mode="constant" value="&quot;20KLA41AA001E&quot;"/> 
    <rt:dyn type="DATA_NARY" mode="constant" value="&quot;TPTS&quot;"/> 
    <rt:dyn type="Operate" mode="constant" value="true"/> 
  </image>
  <text x="210.784" y="195" fill="black" font-size="15" text-anchor="middle">20KLA41<tspan x="210.784" dy="15">AA001E</tspan>
  </text>
  <image x="187.659" y="510" width="50" height="55" xlink:href="DS_switch.svg">
    <title>&quot;20KLA41AA002E&quot;</title>
    <rt:dyn type="KKS" mode="constant" value="&quot;20KLA41AA002E&quot;"/> 
    <rt:dyn type="DATA_NARY" mode="constant" value="&quot;TPTS&quot;"/> 
    <rt:dyn type="Operate" mode="constant" value="true"/> 
  </image>
  <text x="210.784" y="488.75" fill="black" font-size="15" text-anchor="middle">20KLA41<tspan x="210.784" dy="15">AA002E</tspan>
  </text>
  <image x="1095" y="442" width="60" height="45" xlink:href="DS_TPTS_AVR_sel.svg">
    <title>&quot;20KLA41EE008&quot;</title>
    <rt:dyn type="KKS" mode="constant" value="&quot;20KLA41EE008&quot;"/> 
    <rt:dyn type="Operate" mode="constant" value="true"/> 
    <rt:dyn type="VL_type" mode="constant" value="&quot;1o2&quot;"/> 
  </image>
  <image x="82" y="423" width="175" height="25" xlink:href="DS_ana.svg">
    <title>&quot;20KLA41CT005&quot;</title>
    <rt:dyn type="FKKS" mode="constant" value="&quot;20KLA41CT005&quot;"/> 
    <rt:dyn type="ShowFrame" mode="constant" value="true"/> 
    <rt:dyn type="X" mode="constant" value="&quot;T&quot;"/> 
    <rt:dyn type="Color_Readings" mode="constant" value="true"/> 
    <rt:dyn type="ValueToTheRight" mode="constant" value="false"/> 
  </image>
  <image x="1201" y="439" width="160" height="75" xlink:href="DS_TPTS_VL_spec.svg">
    <title>&quot;20CMV00CH001VL0&quot;</title>
    <rt:dyn type="KKS" mode="constant" value="&quot;20CMV00CH001VL0&quot;"/> 
    <rt:dyn type="Operate" mode="constant" value="true"/> 
    <rt:dyn type="VL_type" mode="constant" value="&quot;1o2&quot;"/> 
  </image>
  <text x="1280" y="429" fill="black" font-size="15" text-anchor="middle">КЛЮЧ ЗИМА-ЛЕТО</text>
  <text x="33" y="32.5" fill="black" font-size="15" font-weight="700" text-anchor="start">
    <title>Схема КИП насосов охлаждения бассейна выдержки</title>
KLA41</text>
</svg>
