<?xml  version="1.0" encoding="UTF-8"?>
<svg color="Col_BGSand" xmlns="http://www.w3.org/2000/svg" xmlns:rt="http://www.rts.co.at/2001/XMLSchema/RtSvgPL" xmlns:xlink="http://www.w3.org/1999/xlink" xmlns:xsi="http://www.w3.org/2001/XMLSchema-instance" xsi:schemaLocation="http://www.w3.org/2000/svg C:\RTS\RtSvg\XML\SVG.xsd" viewBox="0 0 1914 1000" width="1914" height="1000" id="kra10_20" font-size="15" font-weight="700">
  <title>Cистема подачи азота на сдувки из оборудования здания 20UJA</title>
  <rt:model modelversion="7.2.0.24" comment="UMod all_nsb&#10;LMod kpl&#10;RMod kta_1" revision="3"/> 
  <polyline points="146,157.25 146,272.25 291,272.25" fill="none" stroke="black" stroke-width="3"/> 
  <polyline points="484.75,156.5 484.75,271.5 629.75,271.5" fill="none" stroke="black" stroke-width="3"/> 
  <polyline points="1162,156 1162,271 1307,271" fill="none" stroke="black" stroke-width="3"/> 
  <polyline points="44,72 1670,72 1670,791" fill="none" stroke="black" stroke-width="3"/> 
  <polyline points="43,157 1524,157 1524,277 1668,277" fill="none" stroke="black" stroke-width="3"/> 
  <line x1="292" y1="167.303" x2="292" y2="939" stroke="black" stroke-width="3"/> 
  <g transform="scale(1.92001 1.34001 291.848 545.455)">
    <circle cx="291.848" cy="456.818" r="48.4848" fill="Col_Grey4" stroke="none"/> 
    <rect x="243.608" y="454.568" width="96.3915" height="126.273" rx="0" ry="0" fill="Col_Grey4"/> 
    <circle cx="291.998" cy="582.478" r="48.4848" fill="Col_Grey4" stroke="none"/> 
  </g>
  <text x="957" y="26" font-size="30" text-anchor="middle">Cистема подачи азота на сдувки из<tspan x="957" dy="30">оборудования здания 20UJA</tspan>
  </text>
  <line x1="1791.09" y1="454.545" x2="1791.09" y2="454.545" stroke="black"/> 
  <line x1="1803.55" y1="909.091" x2="1803.55" y2="909.091" stroke="black"/> 
  <line x1="1413.64" y1="225" x2="1413.64" y2="225" stroke="black"/> 
  <text x="167" y="224.955" font-size="15">20KRA10<tspan x="167" dy="15">AA001</tspan>
  </text>
  <image x="247.273" y="193.955" width="70" height="65" xlink:href="DS_CO_valve.svg" transform="rotate(270 0 -10)">
    <title>&quot;20KRA10AA002&quot;</title>
    <rt:dyn type="KKS" mode="constant" value="&quot;20KRA10AA002&quot;"/> 
    <rt:dyn type="DATA_NARY" mode="constant" value="&quot;TPTS&quot;"/> 
    <rt:dyn type="Operate" mode="constant" value="true"/> 
  </image>
  <text x="314" y="223.75" font-size="15">20KRA10<tspan x="314" dy="15">AA002</tspan>
  </text>
  <line x1="1473" y1="719.167" x2="974.152" y2="719.167" stroke="black" stroke-width="3"/> 
  <line x1="1668" y1="357.909" x2="1795.61" y2="357.909" stroke="black" stroke-width="3"/> 
  <line x1="1795.52" y1="359.303" x2="1795.52" y2="324.393" stroke="black" stroke-width="3"/> 
  <image x="1772.88" y="273.757" width="57.5" height="75" xlink:href="DS_pulse_valve.svg">
    <rt:dyn type="KKS" mode="constant" value="&quot;NULL&quot;"/> 
    <rt:dyn type="DATA_NARY" mode="constant" value="&quot;TPTS&quot;"/> 
  </image>
  <text x="1831" y="317.5" font-size="15">20KRA21<tspan x="1831" dy="15">AA902</tspan>
  </text>
  <image x="218.061" y="284" width="175" height="25" xlink:href="DS_ana.svg">
    <title>&quot;20KRA10CP002&quot;</title>
    <rt:dyn type="FKKS" mode="constant" value="&quot;20KRA10CP002&quot;"/> 
    <rt:dyn type="X" mode="constant" value="&quot;P&quot;"/> 
    <rt:dyn type="ShowFrame" mode="constant" value="true"/> 
    <rt:dyn type="ValueToTheRight" mode="constant" value="false"/> 
    <rt:dyn type="Color_Readings" mode="constant" value="true"/> 
  </image>
  <g transform="flipX(50.1818) rotate(180 1212.44 532.643)">
    <polygon points="179.652,-257.549 193.222,-250.234 193.032,-265.192 179.652,-257.549" fill="black" stroke="black" stroke-width="1" transform="rotate(180 1279.17 367.814)"/> 
  </g>
  <g transform="flipX(45.6364) rotate(180 1212.44 532.643)">
    <polygon points="170.65,-172.914 184.03,-165.27 184.03,-180.557 170.65,-172.914" fill="black" stroke="black" stroke-width="1" transform="rotate(180 1279.17 367.814)"/> 
  </g>
  <path d="M130.43 219.106 A8.80483 8.80483 0 1 1 130.43 236.716 " fill="none" stroke="black" stroke-width="3" transform="flipX(326.175) flipY() translate(0 -828) translate(229.642 442.62)"/> 
  <line x1="292" y1="74" x2="292" y2="150.364" stroke="black" stroke-width="3"/> 
  <text x="466.849" y="951.667" font-size="15" text-anchor="middle">Азот на сдувки в здание20UJA<tspan x="466.849" dy="15">в систему KTB</tspan>
  </text>
  <line x1="215.727" y1="827.091" x2="292.997" y2="827.091" stroke="black" stroke-width="3"/> 
  <line x1="216.847" y1="827.03" x2="216.847" y2="797" stroke="black" stroke-width="3"/> 
  <image x="192.267" y="745.697" width="57.5" height="75" xlink:href="DS_pulse_valve.svg">
    <rt:dyn type="KKS" mode="constant" value="&quot;NULL&quot;"/> 
    <rt:dyn type="DATA_NARY" mode="constant" value="&quot;TPTS&quot;"/> 
  </image>
  <text x="121" y="781.758" font-size="15">20KRA10<tspan x="121" dy="15">AA902</tspan>
  </text>
  <text x="14.5757" y="118.182" font-size="15">Азот от АКС 5.9 МПа</text>
  <image x="218.061" y="706.94" width="175" height="25" xlink:href="DS_ana.svg">
    <title>&quot;20KRA10CP003&quot;</title>
    <rt:dyn type="FKKS" mode="constant" value="&quot;20KRA10CP003&quot;"/> 
    <rt:dyn type="X" mode="constant" value="&quot;P&quot;"/> 
    <rt:dyn type="ShowFrame" mode="constant" value="true"/> 
    <rt:dyn type="ValueToTheRight" mode="constant" value="false"/> 
    <rt:dyn type="Color_Readings" mode="constant" value="true"/> 
  </image>
  <text x="801.697" y="650.879" fill="black" font-size="15" text-anchor="middle">20USF</text>
  <text x="309" y="867.5" font-size="15">20KRA10<tspan x="309" dy="15">AA225</tspan>
  </text>
  <image x="100.939" y="193.955" width="70" height="65" xlink:href="DS_CO_valve.svg" transform="rotate(270 0 -10)">
    <title>&quot;20KRA10AA001&quot;</title>
    <rt:dyn type="KKS" mode="constant" value="&quot;20KRA10AA001&quot;"/> 
    <rt:dyn type="DATA_NARY" mode="constant" value="&quot;TPTS&quot;"/> 
    <rt:dyn type="Operate" mode="constant" value="true"/> 
  </image>
  <text x="289.909" y="435.288" font-size="18" text-anchor="middle">20KRA10BB001</text>
  <image x="203.97" y="459.303" width="175" height="25" xlink:href="DS_ana.svg">
    <title>&quot;20KRA10CP001&quot;</title>
    <rt:dyn type="FKKS" mode="constant" value="&quot;20KRA10CP001&quot;"/> 
    <rt:dyn type="X" mode="constant" value="&quot;P&quot;"/> 
    <rt:dyn type="ShowFrame" mode="constant" value="true"/> 
    <rt:dyn type="ValueToTheRight" mode="constant" value="false"/> 
    <rt:dyn type="Color_Readings" mode="constant" value="true"/> 
  </image>
  <image x="207" y="498.697" width="175" height="25" xlink:href="DS_ana.svg">
    <title>&quot;20KRA10CT001&quot;</title>
    <rt:dyn type="FKKS" mode="constant" value="&quot;20KRA10CT001&quot;"/> 
    <rt:dyn type="X" mode="constant" value="&quot;T&quot;"/> 
    <rt:dyn type="ShowFrame" mode="constant" value="true"/> 
    <rt:dyn type="ValueToTheRight" mode="constant" value="false"/> 
    <rt:dyn type="Color_Readings" mode="constant" value="true"/> 
  </image>
  <g transform="rotate(90 291.848 896.97)">
    <g transform="rotate(270 1075.05 473.754)">
      <polygon points="639.527,-368.358 652.527,-342.358 664.527,-368.358" fill="Col_BGSand" stroke="black"/> 
      <polygon points="639.187,846.811 652.187,872.811 664.187,846.811" fill="Col_BGSand" stroke="black" transform="flipY(265.981)"/> 
    </g>
    <polygon points="260.81,895.906 287.1,895.271 286.141,909.239"/> 
  </g>
  <image x="253.485" y="927.03" width="60" height="25" xlink:href="obj_link.svg" transform="flipY(12.6382) rotate(270 37.3618 12.5)">
    <rt:event type="OnClick">LoadNew(&quot;&quot;)</rt:event>
    <rt:dyn type="TextStr" mode="constant" value="&quot;&quot;"/> 
    <rt:dyn type="ModName" mode="constant" value="&quot;ktb&quot;"/> 
  </image>
  <line x1="630" y1="167.152" x2="630" y2="938.849" stroke="black" stroke-width="3"/> 
  <g transform="scale(1.92001 1.34001 291.848 545.455)">
    <circle cx="468.015" cy="455.213" r="48.4848" fill="Col_Grey4" stroke="none"/> 
    <rect x="419.775" y="454.455" width="96.3915" height="126.273" rx="0" ry="0" fill="Col_Grey4"/> 
    <circle cx="468.165" cy="582.365" r="48.4848" fill="Col_Grey4" stroke="none"/> 
  </g>
  <text x="506.242" y="224.804" font-size="15">20KRA11<tspan x="506.242" dy="15">AA001</tspan>
  </text>
  <image x="585.515" y="193.804" width="70" height="65" xlink:href="DS_CO_valve.svg" transform="rotate(270 0 -10)">
    <title>&quot;20KRA11AA002&quot;</title>
    <rt:dyn type="KKS" mode="constant" value="&quot;20KRA11AA002&quot;"/> 
    <rt:dyn type="DATA_NARY" mode="constant" value="&quot;TPTS&quot;"/> 
    <rt:dyn type="Operate" mode="constant" value="true"/> 
  </image>
  <text x="650.25" y="224.5" font-size="15">20KRA11<tspan x="650.25" dy="15">AA002</tspan>
  </text>
  <image x="556.303" y="283.849" width="175" height="25" xlink:href="DS_ana.svg">
    <title>&quot;20KRA11CP002&quot;</title>
    <rt:dyn type="FKKS" mode="constant" value="&quot;20KRA11CP002&quot;"/> 
    <rt:dyn type="X" mode="constant" value="&quot;P&quot;"/> 
    <rt:dyn type="ShowFrame" mode="constant" value="true"/> 
    <rt:dyn type="ValueToTheRight" mode="constant" value="false"/> 
    <rt:dyn type="Color_Readings" mode="constant" value="true"/> 
  </image>
  <path d="M-207.812 219.257 A8.80483 8.80483 0 1 1 -207.812 236.867 " fill="none" stroke="black" stroke-width="3" transform="flipX(326.175) flipY() translate(0 -828) translate(229.642 442.62)"/> 
  <line x1="630" y1="73.8491" x2="630" y2="150.213" stroke="black" stroke-width="3"/> 
  <line x1="553.969" y1="826.94" x2="631.239" y2="826.94" stroke="black" stroke-width="3"/> 
  <line x1="555.089" y1="826.879" x2="555.089" y2="796.849" stroke="black" stroke-width="3"/> 
  <image x="530.509" y="745.546" width="57.5" height="75" xlink:href="DS_pulse_valve.svg">
    <rt:dyn type="KKS" mode="constant" value="&quot;NULL&quot;"/> 
    <rt:dyn type="DATA_NARY" mode="constant" value="&quot;TPTS&quot;"/> 
  </image>
  <text x="461.242" y="781.607" font-size="15">20KRA11<tspan x="461.242" dy="15">AA902</tspan>
  </text>
  <image x="556.303" y="706.789" width="175" height="25" xlink:href="DS_ana.svg">
    <title>&quot;20KRA11CP003&quot;</title>
    <rt:dyn type="FKKS" mode="constant" value="&quot;20KRA11CP003&quot;"/> 
    <rt:dyn type="X" mode="constant" value="&quot;P&quot;"/> 
    <rt:dyn type="ShowFrame" mode="constant" value="true"/> 
    <rt:dyn type="ValueToTheRight" mode="constant" value="false"/> 
    <rt:dyn type="Color_Readings" mode="constant" value="true"/> 
  </image>
  <text x="647.242" y="867.5" font-size="15">20KRA11<tspan x="647.242" dy="15">AA225</tspan>
  </text>
  <image x="440.181" y="193.804" width="70" height="65" xlink:href="DS_CO_valve.svg" transform="rotate(270 0 -10)">
    <title>&quot;20KRA11AA001&quot;</title>
    <rt:dyn type="KKS" mode="constant" value="&quot;20KRA11AA001&quot;"/> 
    <rt:dyn type="DATA_NARY" mode="constant" value="&quot;TPTS&quot;"/> 
    <rt:dyn type="Operate" mode="constant" value="true"/> 
  </image>
  <text x="629.151" y="435.289" font-size="18" text-anchor="middle">20KRA11BB001</text>
  <image x="542.212" y="459.152" width="175" height="25" xlink:href="DS_ana.svg">
    <title>&quot;20KRA11CP001&quot;</title>
    <rt:dyn type="FKKS" mode="constant" value="&quot;20KRA11CP001&quot;"/> 
    <rt:dyn type="X" mode="constant" value="&quot;P&quot;"/> 
    <rt:dyn type="ShowFrame" mode="constant" value="true"/> 
    <rt:dyn type="ValueToTheRight" mode="constant" value="false"/> 
    <rt:dyn type="Color_Readings" mode="constant" value="true"/> 
  </image>
  <image x="545.242" y="498.546" width="175" height="25" xlink:href="DS_ana.svg">
    <title>&quot;20KRA11CT001&quot;</title>
    <rt:dyn type="FKKS" mode="constant" value="&quot;20KRA11CT001&quot;"/> 
    <rt:dyn type="X" mode="constant" value="&quot;T&quot;"/> 
    <rt:dyn type="ShowFrame" mode="constant" value="true"/> 
    <rt:dyn type="ValueToTheRight" mode="constant" value="false"/> 
    <rt:dyn type="Color_Readings" mode="constant" value="true"/> 
  </image>
  <g transform="rotate(90 291.848 896.97)">
    <g transform="rotate(270 1075.05 473.754)">
      <polygon points="977.769,-368.357 990.769,-342.357 1002.77,-368.357" fill="Col_BGSand" stroke="black"/> 
      <polygon points="977.429,846.81 990.429,872.81 1002.43,846.81" fill="Col_BGSand" stroke="black" transform="flipY(265.981)"/> 
    </g>
    <polygon points="260.81,557.664 287.1,557.029 286.141,570.997"/> 
  </g>
  <image x="591.727" y="926.879" width="60" height="25" xlink:href="obj_link.svg" transform="flipY(12.6382) rotate(270 37.3618 12.5)">
    <rt:event type="OnClick">LoadNew(&quot;&quot;)</rt:event>
    <rt:dyn type="TextStr" mode="constant" value="&quot;&quot;"/> 
    <rt:dyn type="ModName" mode="constant" value="&quot;ktb&quot;"/> 
  </image>
  <rect x="180.015" y="326.864" width="672.649" height="19" rx="0" ry="0" fill="Col_Grey4" stroke="black" stroke-width="3"/> 
  <rect x="180.015" y="671.197" width="672.649" height="19" rx="0" ry="0" fill="Col_Grey4" stroke="black" stroke-width="3"/> 
  <line x1="1307" y1="167.061" x2="1307" y2="837.515" stroke="black" stroke-width="3"/> 
  <text x="1181.61" y="224.713" font-size="15">20KRA21<tspan x="1181.61" dy="15">AA001</tspan>
  </text>
  <image x="1261.88" y="193.713" width="70" height="65" xlink:href="DS_CO_valve.svg" transform="rotate(270 0 -10)">
    <title>&quot;20KRA21AA002&quot;</title>
    <rt:dyn type="KKS" mode="constant" value="&quot;20KRA21AA002&quot;"/> 
    <rt:dyn type="DATA_NARY" mode="constant" value="&quot;TPTS&quot;"/> 
    <rt:dyn type="Operate" mode="constant" value="true"/> 
  </image>
  <text x="1326.25" y="225" font-size="15">20KRA21<tspan x="1326.25" dy="15">AA002</tspan>
  </text>
  <path d="M-885.177 219.348 A8.80483 8.80483 0 1 1 -885.177 236.958 " fill="none" stroke="black" stroke-width="3" transform="flipX(326.175) flipY() translate(0 -828) translate(229.642 442.62)"/> 
  <line x1="1306.61" y1="180.5" x2="1162" y2="180.5" stroke="black" stroke-width="3"/> 
  <line x1="1307" y1="73.7582" x2="1307" y2="150.122" stroke="black" stroke-width="3"/> 
  <image x="1117.55" y="193.713" width="70" height="65" xlink:href="DS_CO_valve.svg" transform="rotate(270 0 -10)">
    <title>&quot;20KRA21AA001&quot;</title>
    <rt:dyn type="KKS" mode="constant" value="&quot;20KRA21AA001&quot;"/> 
    <rt:dyn type="DATA_NARY" mode="constant" value="&quot;TPTS&quot;"/> 
    <rt:dyn type="Operate" mode="constant" value="true"/> 
  </image>
  <image x="1262.17" y="472.409" width="70" height="65" xlink:href="DS_CO_valve.svg" transform="rotate(270 0 -10)">
    <title>&quot;22KTB60AA803&quot;</title>
    <rt:dyn type="KKS" mode="constant" value="&quot;22KTB60AA803&quot;"/> 
    <rt:dyn type="DATA_NARY" mode="constant" value="&quot;TPTS&quot;"/> 
    <rt:dyn type="Operate" mode="constant" value="true"/> 
  </image>
  <text x="1326.75" y="502.75" font-size="15">22KTB60<tspan x="1326.75" dy="15">AA803</tspan>
  </text>
  <image x="1262.23" y="626.955" width="70" height="65" xlink:href="DS_CO_valve.svg" transform="rotate(270 0 -10)">
    <title>&quot;21KTB60AA804&quot;</title>
    <rt:dyn type="KKS" mode="constant" value="&quot;21KTB60AA804&quot;"/> 
    <rt:dyn type="DATA_NARY" mode="constant" value="&quot;TPTS&quot;"/> 
    <rt:dyn type="Operate" mode="constant" value="true"/> 
  </image>
  <text x="1327.5" y="655" font-size="15">21KTB60<tspan x="1327.5" dy="15">AA804</tspan>
  </text>
  <text x="996.909" y="773.925" font-size="15">20KTB61<tspan x="996.909" dy="15">AA001</tspan>
  </text>
  <line x1="974.773" y1="717.667" x2="974.773" y2="835.97" stroke="black" stroke-width="3"/> 
  <image x="929.853" y="742.925" width="70" height="65" xlink:href="DS_CO_valve.svg" transform="rotate(270 0 -10)">
    <title>&quot;20KTB61AA001&quot;</title>
    <rt:dyn type="KKS" mode="constant" value="&quot;20KTB61AA001&quot;"/> 
    <rt:dyn type="DATA_NARY" mode="constant" value="&quot;TPTS&quot;"/> 
    <rt:dyn type="Operate" mode="constant" value="true"/> 
  </image>
  <g transform="rotate(90 951.697 737.879) flipX(50.1818) rotate(180 1212.44 532.643)">
    <polygon points="-829.632,385.088 -816.062,392.403 -816.252,377.445 -829.632,385.088" fill="black" stroke="black" stroke-width="1" transform="rotate(180 1279.17 367.814)"/> 
  </g>
  <text x="1162.82" y="775.47" font-size="15">20KTB62<tspan x="1162.82" dy="15">AA001</tspan>
  </text>
  <line x1="1140.68" y1="719.212" x2="1140.68" y2="837.515" stroke="black" stroke-width="3"/> 
  <image x="1095.76" y="744.47" width="70" height="65" xlink:href="DS_CO_valve.svg" transform="rotate(270 0 -10)">
    <title>&quot;20KTB62AA001&quot;</title>
    <rt:dyn type="KKS" mode="constant" value="&quot;20KTB62AA001&quot;"/> 
    <rt:dyn type="DATA_NARY" mode="constant" value="&quot;TPTS&quot;"/> 
    <rt:dyn type="Operate" mode="constant" value="true"/> 
  </image>
  <g transform="rotate(90 951.697 737.879) flipX(50.1818) rotate(180 1212.44 532.643)">
    <polygon points="-831.178,219.18 -817.608,226.495 -817.798,211.537 -831.178,219.18" fill="black" stroke="black" stroke-width="1" transform="rotate(180 1279.17 367.814)"/> 
  </g>
  <text x="1328.67" y="774.38" font-size="15">20KTB63<tspan x="1328.67" dy="15">AA001</tspan>
  </text>
  <image x="1261.61" y="743.38" width="70" height="65" xlink:href="DS_CO_valve.svg" transform="rotate(270 0 -10)">
    <title>&quot;20KTB63AA001&quot;</title>
    <rt:dyn type="KKS" mode="constant" value="&quot;20KTB63AA001&quot;"/> 
    <rt:dyn type="DATA_NARY" mode="constant" value="&quot;TPTS&quot;"/> 
    <rt:dyn type="Operate" mode="constant" value="true"/> 
  </image>
  <g transform="rotate(90 951.697 737.879) flipX(50.1818) rotate(180 1212.44 532.643)">
    <polygon points="-830.087,53.3312 -816.517,60.6462 -816.707,45.6882 -830.087,53.3312" fill="black" stroke="black" stroke-width="1" transform="rotate(180 1279.17 367.814)"/> 
  </g>
  <text x="1494.58" y="775.925" font-size="15">20KTB64<tspan x="1494.58" dy="15">AA001</tspan>
  </text>
  <line x1="1472.44" y1="719.667" x2="1472.44" y2="837.97" stroke="black" stroke-width="3"/> 
  <image x="1427.52" y="744.925" width="70" height="65" xlink:href="DS_CO_valve.svg" transform="rotate(270 0 -10)">
    <title>&quot;20KTB64AA001&quot;</title>
    <rt:dyn type="KKS" mode="constant" value="&quot;20KTB64AA001&quot;"/> 
    <rt:dyn type="DATA_NARY" mode="constant" value="&quot;TPTS&quot;"/> 
    <rt:dyn type="Operate" mode="constant" value="true"/> 
  </image>
  <g transform="rotate(90 951.697 737.879) flipX(50.1818) rotate(180 1212.44 532.643)">
    <polygon points="-831.632,-112.577 -818.062,-105.262 -818.252,-120.22 -831.632,-112.577" fill="black" stroke="black" stroke-width="1" transform="rotate(180 1279.17 367.814)"/> 
  </g>
  <text x="974.849" y="870.182" fill="black" font-size="15" text-anchor="middle">21JNG50BB001</text>
  <text x="1140.45" y="870.182" fill="black" font-size="15" text-anchor="middle">21JNG60BB001</text>
  <text x="1306.48" y="870.182" fill="black" font-size="15" text-anchor="middle">22JNG70BB001</text>
  <text x="1472.09" y="870.182" fill="black" font-size="15" text-anchor="middle">22JNG80BB001</text>
  <image x="1181.32" y="913.667" width="85" height="25" xlink:href="obj_link.svg">
    <rt:dyn type="TextStr" mode="constant" value="&quot;JNG50-80&quot;"/> 
    <rt:event type="OnClick">LoadNew(&quot;&quot;)</rt:event>
    <rt:dyn type="ModName" mode="constant" value="&quot;jng50_80&quot;"/> 
  </image>
  <text x="1223.06" y="910.636" fill="black" font-size="15" text-anchor="middle">В гидроемкости САОЗ</text>
  <text x="1542.67" y="225.197" font-size="15">20KRA21<tspan x="1542.67" dy="15">AA003</tspan>
  </text>
  <image x="1624.94" y="194.197" width="70" height="65" xlink:href="DS_CO_valve.svg" transform="rotate(270 0 -10)">
    <title>&quot;20KRA21AA004&quot;</title>
    <rt:dyn type="KKS" mode="constant" value="&quot;20KRA21AA004&quot;"/> 
    <rt:dyn type="DATA_NARY" mode="constant" value="&quot;TPTS&quot;"/> 
    <rt:dyn type="Operate" mode="constant" value="true"/> 
  </image>
  <text x="1688.75" y="225" font-size="15">20KRA21<tspan x="1688.75" dy="15">AA004</tspan>
  </text>
  <line x1="1669.67" y1="180" x2="1524" y2="180" stroke="black" stroke-width="3"/> 
  <image x="1478.61" y="194.197" width="70" height="65" xlink:href="DS_CO_valve.svg" transform="rotate(270 0 -10)">
    <title>&quot;20KRA21AA003&quot;</title>
    <rt:dyn type="KKS" mode="constant" value="&quot;20KRA21AA003&quot;"/> 
    <rt:dyn type="DATA_NARY" mode="constant" value="&quot;TPTS&quot;"/> 
    <rt:dyn type="Operate" mode="constant" value="true"/> 
  </image>
  <image x="1625.23" y="472.893" width="70" height="65" xlink:href="DS_CO_valve.svg" transform="rotate(270 0 -10)">
    <title>&quot;22KTB20AA801&quot;</title>
    <rt:dyn type="KKS" mode="constant" value="&quot;22KTB20AA801&quot;"/> 
    <rt:dyn type="DATA_NARY" mode="constant" value="&quot;TPTS&quot;"/> 
    <rt:dyn type="Operate" mode="constant" value="true"/> 
  </image>
  <text x="1693" y="503.234" font-size="15">22KTB20<tspan x="1693" dy="15">AA801</tspan>
  </text>
  <image x="1625.29" y="627.439" width="70" height="65" xlink:href="DS_CO_valve.svg" transform="rotate(270 0 -10)">
    <title>&quot;21KTB20AA802&quot;</title>
    <rt:dyn type="KKS" mode="constant" value="&quot;21KTB20AA802&quot;"/> 
    <rt:dyn type="DATA_NARY" mode="constant" value="&quot;TPTS&quot;"/> 
    <rt:dyn type="Operate" mode="constant" value="true"/> 
  </image>
  <text x="1693" y="655.484" font-size="15">21KTB20<tspan x="1693" dy="15">AA802</tspan>
  </text>
  <text x="1667.54" y="870.666" fill="black" font-size="15" text-anchor="middle">К компенсатору<tspan x="1667.54" dy="15">давления JEF</tspan>
  </text>
  <image x="1631.73" y="795.909" width="75" height="25" xlink:href="obj_link.svg" transform="flipY(12.6382) rotate(270 37.3618 12.5)">
    <rt:event type="OnClick">LoadNew(&quot;&quot;)</rt:event>
    <rt:dyn type="TextStr" mode="constant" value="&quot;&quot;"/> 
    <rt:dyn type="ModName" mode="constant" value="&quot;jef&quot;"/> 
  </image>
  <text x="1714.97" y="740.909" fill="black" font-size="15" text-anchor="middle">1.96 МПа</text>
  <text x="1139.58" y="713.97" fill="black" font-size="15" text-anchor="middle">5.9 МПа</text>
  <text x="1865.33" y="394.485" fill="black" font-size="15" text-anchor="middle">20UKC</text>
  <text x="1863.82" y="553" fill="black" font-size="15" text-anchor="middle">20UKA</text>
  <text x="1865.33" y="625.848" fill="black" font-size="15" text-anchor="middle">20UJA</text>
  <rect x="1222.23" y="414.409" width="672.649" height="19" rx="0" ry="0" fill="Col_Grey4" stroke="black" stroke-width="3"/> 
  <rect x="1222.23" y="574.954" width="672.649" height="19" rx="0" ry="0" fill="Col_Grey4" stroke="black" stroke-width="3"/> 
  <text x="801.697" y="305.152" fill="black" font-size="15" text-anchor="middle">20UKC</text>
  <text x="801.697" y="722.727" fill="black" font-size="15" text-anchor="middle">20UKC</text>
  <g>
    <g>
      <g transform="scale(0.39 0.39 760.788 496.97) rotate(90 967.606 453.788) flipY(177.273) scale(0.79 0.79 890.5 167)">
        <path d="M1036.79 -475.688 L1061.79 -475.688 A25 33 0 0 0 1011.79 -475.688 Z" fill="Col_BGSand" stroke="black" stroke-width="3"/> 
        <path d="M985.762 -475.688 L1010.76 -475.688 A25 33 0 0 0 960.762 -475.688 Z" fill="Col_BGSand" stroke="black" stroke-width="3"/> 
        <path d="M932.788 -475.688 L957.788 -475.688 A25 33 0 0 0 907.788 -475.688 Z" fill="Col_BGSand" stroke="black" stroke-width="3"/> 
        <path d="M881.762 -475.688 L906.762 -475.688 A25 33 0 0 0 856.762 -475.688 Z" fill="Col_BGSand" stroke="black" stroke-width="3"/> 
        <line x1="854.23" y1="-475.294" x2="1063.23" y2="-475.294" stroke="Col_BGSand" stroke-width="10"/> 
      </g>
      <g transform="scale(0.39 0.39 760.788 496.97) rotate(90 967.606 453.788) flipY(177.273) scale(0.79 0.79 890.5 167)">
        <path d="M1241.76 -474.016 L1266.76 -474.016 A25 33 0 0 0 1216.76 -474.016 Z" fill="Col_BGSand" stroke="black" stroke-width="3"/> 
        <path d="M1190.73 -474.016 L1215.73 -474.016 A25 33 0 0 0 1165.73 -474.016 Z" fill="Col_BGSand" stroke="black" stroke-width="3"/> 
        <path d="M1137.76 -474.016 L1162.76 -474.016 A25 33 0 0 0 1112.76 -474.016 Z" fill="Col_BGSand" stroke="black" stroke-width="3"/> 
        <path d="M1086.73 -474.016 L1111.73 -474.016 A25 33 0 0 0 1061.73 -474.016 Z" fill="Col_BGSand" stroke="black" stroke-width="3"/> 
        <line x1="1059.2" y1="-473.622" x2="1268.2" y2="-473.622" stroke="Col_BGSand" stroke-width="10"/> 
      </g>
    </g>
    <line x1="745.394" y1="439.894" x2="780" y2="439.894" stroke="Col_Grey5" stroke-width="1"/> 
    <line x1="746.394" y1="566.5" x2="781" y2="566.5" stroke="Col_Grey5" stroke-width="1"/> 
    <circle cx="784.333" cy="566.667" r="4" fill="none" stroke="Col_Grey5"/> 
    <circle cx="782.843" cy="439.843" r="4" fill="none" stroke="Col_Grey5"/> 
  </g>
  <g transform="flipX(766.333)">
    <g>
      <g transform="scale(0.39 0.39 760.788 496.97) rotate(90 967.606 453.788) flipY(177.273) scale(0.79 0.79 890.5 167)">
        <path d="M1035.71 1509.54 L1060.71 1509.54 A25 33 0 0 0 1010.71 1509.54 Z" fill="Col_BGSand" stroke="black" stroke-width="3"/> 
        <path d="M984.68 1509.54 L1009.68 1509.54 A25 33 0 0 0 959.68 1509.54 Z" fill="Col_BGSand" stroke="black" stroke-width="3"/> 
        <path d="M931.706 1509.54 L956.706 1509.54 A25 33 0 0 0 906.706 1509.54 Z" fill="Col_BGSand" stroke="black" stroke-width="3"/> 
        <path d="M880.68 1509.54 L905.68 1509.54 A25 33 0 0 0 855.68 1509.54 Z" fill="Col_BGSand" stroke="black" stroke-width="3"/> 
        <line x1="853.148" y1="1509.93" x2="1062.15" y2="1509.93" stroke="Col_BGSand" stroke-width="10"/> 
      </g>
      <g transform="scale(0.39 0.39 760.788 496.97) rotate(90 967.606 453.788) flipY(177.273) scale(0.79 0.79 890.5 167)">
        <path d="M1240.68 1511.21 L1265.68 1511.21 A25 33 0 0 0 1215.68 1511.21 Z" fill="Col_BGSand" stroke="black" stroke-width="3"/> 
        <path d="M1189.65 1511.21 L1214.65 1511.21 A25 33 0 0 0 1164.65 1511.21 Z" fill="Col_BGSand" stroke="black" stroke-width="3"/> 
        <path d="M1136.68 1511.21 L1161.68 1511.21 A25 33 0 0 0 1111.68 1511.21 Z" fill="Col_BGSand" stroke="black" stroke-width="3"/> 
        <path d="M1085.65 1511.21 L1110.65 1511.21 A25 33 0 0 0 1060.65 1511.21 Z" fill="Col_BGSand" stroke="black" stroke-width="3"/> 
        <line x1="1058.12" y1="1511.61" x2="1267.12" y2="1511.61" stroke="Col_BGSand" stroke-width="10"/> 
      </g>
    </g>
    <line x1="1357.06" y1="439.561" x2="1391.67" y2="439.561" stroke="Col_Grey5" stroke-width="1"/> 
    <line x1="1358.06" y1="566.167" x2="1392.67" y2="566.167" stroke="Col_Grey5" stroke-width="1"/> 
    <circle cx="1396" cy="566.334" r="4" fill="none" stroke="Col_Grey5"/> 
    <circle cx="1394.51" cy="439.51" r="4" fill="none" stroke="Col_Grey5"/> 
  </g>
  <image x="71.1212" y="465.667" width="50" height="55" xlink:href="DS_switch.svg">
    <title>&quot;20KRA10AH001&quot;</title>
    <rt:dyn type="KKS" mode="constant" value="&quot;20KRA10AH001&quot;"/> 
    <rt:dyn type="DATA_NARY" mode="constant" value="&quot;TPTS&quot;"/> 
    <rt:dyn type="Operate" mode="constant" value="true"/> 
  </image>
  <image x="798.121" y="465.667" width="50" height="55" xlink:href="DS_switch.svg">
    <title>&quot;20KRA11AH001&quot;</title>
    <rt:dyn type="KKS" mode="constant" value="&quot;20KRA11AH001&quot;"/> 
    <rt:dyn type="DATA_NARY" mode="constant" value="&quot;TPTS&quot;"/> 
    <rt:dyn type="Operate" mode="constant" value="true"/> 
  </image>
  <text x="288.5" y="990" fill="black" font-size="15" font-weight="bold" text-anchor="middle">KTB</text>
  <text x="629.5" y="990" fill="black" font-size="15" font-weight="bold" text-anchor="middle">KTB</text>
  <line x1="291.36" y1="180.5" x2="146.75" y2="180.5" stroke="black" stroke-width="3"/> 
  <text x="11" y="22" font-size="15">KRA10_20</text>
  <text x="789" y="537.5" font-size="15">20KRA11<tspan x="789" dy="15">AH001</tspan>
  </text>
  <text x="50" y="541.5" font-size="15">20KRA10<tspan x="50" dy="15">AH001</tspan>
  </text>
</svg>
