<?xml  version="1.0" encoding="windows-1251"?>
<svg color="Col_BGSand" xmlns="http://www.w3.org/2000/svg" xmlns:rt="http://www.rts.co.at/2001/XMLSchema/RtSvgPL" xmlns:xlink="http://www.w3.org/1999/xlink" xmlns:xsi="http://www.w3.org/2001/XMLSchema-instance" xsi:schemaLocation="http://www.w3.org/2000/svg C:\RTS\RtSvg\XML\SVG.xsd" viewBox="0 0 1914 1000" width="1914" height="1000" id="kuj16_17">
  <title>Cистема пробоотбора газообразных сред KUJ16</title>
  <rt:model modelversion="7.2.0.24" comment="UMod all_asrk" revision="3"/> 
  <line x1="546.5" y1="869" x2="205.25" y2="869" stroke="black" stroke-width="3"/> 
  <line x1="547.25" y1="764.5" x2="206" y2="764.5" stroke="black" stroke-width="3"/> 
  <line x1="544.25" y1="395" x2="203" y2="395" stroke="black" stroke-width="3"/> 
  <line x1="545" y1="290.5" x2="203.75" y2="290.5" stroke="black" stroke-width="3"/> 
  <text x="981.5" y="34" font-size="30" font-weight="700" text-anchor="middle">Cистема пробоотбора газообразных сред из венттрубы</text>
  <line x1="1791.09" y1="454.545" x2="1791.09" y2="454.545" stroke="black"/> 
  <text x="844.484" y="731.977" font-size="15">22KUJ16AA001</text>
  <text x="488.605" y="741.098" font-size="15">22KUJ16AN001</text>
  <line x1="1400.18" y1="668.22" x2="1400" y2="925" stroke="black"/> 
  <g transform="rotate(180 1212.44 532.643)">
    <polygon points="1611.29,339.431 1624.67,347.075 1624.67,331.788 1611.29,339.431" fill="black" stroke="black" stroke-width="1" transform="rotate(180 1279.17 367.814)"/> 
  </g>
  <line x1="1400.18" y1="669.614" x2="1478.97" y2="669.614" stroke="black"/> 
  <text x="1510.3" y="664.644" font-size="15">от 20UKH56СR401-<tspan x="1510.3" dy="15">20UKH56СR404</tspan>
  </text>
  <text x="1510.3" y="752.25" font-size="15">от 22UKH56СR601</text>
  <g transform="rotate(180 1212.44 532.643)">
    <polygon points="1611.59,419.733 1624.97,427.376 1624.97,412.089 1611.59,419.733" fill="black" stroke="black" stroke-width="1" transform="rotate(180 1279.17 367.814)"/> 
  </g>
  <line x1="1400.48" y1="749.917" x2="1479.27" y2="749.917" stroke="black"/> 
  <g transform="rotate(180 1212.44 532.643)">
    <polygon points="1612.74,459.884 1626.12,467.528 1626.12,452.241 1612.74,459.884" fill="black" stroke="black" stroke-width="1" transform="rotate(180 1279.17 367.814)"/> 
  </g>
  <line x1="1400" y1="790" x2="1480.42" y2="790.07" stroke="black"/> 
  <text x="1510.3" y="785.099" font-size="15">от 22UKH56CR201<tspan x="1510.3" dy="15">22UKH56CR401</tspan>
  </text>
  <line x1="1400.18" y1="780.25" x2="919.879" y2="780.25" stroke="black"/> 
  <line x1="897.545" y1="780.25" x2="544" y2="780.25" stroke="black" stroke-width="3"/> 
  <image x="877.333" y="737.099" width="70" height="65" xlink:href="DS_CO_valve.svg" transform="rotate(0 -6.10352e-005 -9.99997)">
    <title>&quot;22KUJ16AA001&quot;</title>
    <rt:dyn type="KKS" mode="constant" value="&quot;22KUJ16AA001&quot;"/> 
    <rt:dyn type="DATA_NARY" mode="constant" value="&quot;TPTS&quot;"/> 
    <rt:dyn type="Operate" mode="constant" value="true"/> 
  </image>
  <line x1="204.25" y1="692.5" x2="204.25" y2="870" stroke="black" stroke-width="3"/> 
  <g transform="rotate(90 284.899 135.778)">
    <g transform="rotate(180 1212.44 532.643)">
      <polygon points="968.938,-112.638 982.318,-104.994 982.318,-120.281 968.938,-112.638" fill="black" stroke="black" stroke-width="1" transform="rotate(180 1279.17 367.814)"/> 
    </g>
  </g>
  <text x="131.939" y="653.674" font-size="15">в вентиляционную</text>
  <text x="181.091" y="673.826" font-size="15">трубу</text>
  <text x="844.484" y="834.128" font-size="15">22KUJ16AA002</text>
  <text x="488.605" y="843.25" font-size="15">22KUJ16AN002</text>
  <line x1="896.696" y1="884.25" x2="544" y2="884.25" stroke="black" stroke-width="3"/> 
  <line x1="933.515" y1="884.25" x2="1097.15" y2="884.25" stroke="black"/> 
  <line x1="1097" y1="885.5" x2="1097" y2="781.25" stroke="black"/> 
  <line x1="1020.97" y1="684.25" x2="1020.97" y2="778.735" stroke="black"/> 
  <g transform="flipY(154.414) rotate(90 284.899 135.778)">
    <g transform="rotate(180 1212.44 532.643)">
      <polygon points="-102.185,-929.88 -88.8047,-922.236 -88.8047,-937.523 -102.185,-929.88" fill="black" stroke="black" stroke-width="1" transform="rotate(180 1279.17 367.814)"/> 
    </g>
  </g>
  <text x="962" y="672.098" font-size="15">из помещения</text>
  <text x="377.099" y="625.5" font-size="15">помещение</text>
  <text x="368.25" y="647.651" font-size="15" font-weight="700">20UKA36R012</text>
  <image x="876.484" y="839.25" width="70" height="65" xlink:href="DS_CO_valve.svg" transform="rotate(0 -6.10352e-005 -9.99997)">
    <title>&quot;22KUJ16AA002&quot;</title>
    <rt:dyn type="KKS" mode="constant" value="&quot;22KUJ16AA002&quot;"/> 
    <rt:dyn type="DATA_NARY" mode="constant" value="&quot;TPTS&quot;"/> 
    <rt:dyn type="Operate" mode="constant" value="true"/> 
  </image>
  <rect x="354.5" y="601.75" width="948.75" height="356.25" rx="0" ry="0" fill="none" stroke="Col_Grey5" stroke-dasharray="5,5"/> 
  <text x="844.484" y="258.727" font-size="15">21KUJ16AA001</text>
  <text x="488.605" y="267.848" font-size="15">21KUJ16AN001</text>
  <line x1="1400.18" y1="183.97" x2="1400" y2="550" stroke="black"/> 
  <g transform="rotate(180 1212.44 532.643)">
    <polygon points="1611.29,-145.816 1624.67,-138.172 1624.67,-153.459 1611.29,-145.816" fill="black" stroke="black" stroke-width="1" transform="rotate(180 1279.17 367.814)"/> 
  </g>
  <line x1="1400.18" y1="184.364" x2="1478.97" y2="184.364" stroke="black"/> 
  <text x="1510.3" y="179.394" font-size="15" text-anchor="start">от 20UKH56СR201<tspan x="1510.3" dy="15">20UKH56СR405</tspan>
  </text>
  <g transform="rotate(180 1212.44 532.643)">
    <polygon points="1611.44,-105.666 1624.82,-98.022 1624.82,-113.309 1611.44,-105.666" fill="black" stroke="black" stroke-width="1" transform="rotate(180 1279.17 367.814)"/> 
  </g>
  <line x1="1400.33" y1="224.516" x2="1479.12" y2="224.516" stroke="black"/> 
  <text x="1510.3" y="267" font-size="15">от 21UKH56СR601</text>
  <g transform="rotate(180 1212.44 532.643)">
    <polygon points="1611.59,-65.5142 1624.97,-57.8702 1624.97,-73.1575 1611.59,-65.5142" fill="black" stroke="black" stroke-width="1" transform="rotate(180 1279.17 367.814)"/> 
  </g>
  <line x1="1400.48" y1="264.667" x2="1479.27" y2="264.667" stroke="black"/> 
  <text x="1510.3" y="219.698" font-size="15">от 21UKH56СR201<tspan x="1510.3" dy="15">21UKH56СR401</tspan>
  </text>
  <g transform="rotate(180 1212.44 532.643)">
    <polygon points="1611.97,15.342 1625.35,22.985 1625.35,7.69896 1611.97,15.342" fill="black" stroke="black" stroke-width="1" transform="rotate(180 1279.17 367.814)"/> 
  </g>
  <line x1="1400" y1="345" x2="1481.25" y2="345" stroke="black"/> 
  <text x="1510.3" y="348.849" font-size="15">от 20UKH44CR609</text>
  <g transform="rotate(180 1212.44 532.643)">
    <polygon points="1610.08,50.342 1623.46,57.986 1623.46,42.699 1610.08,50.342" fill="black" stroke="black" stroke-width="1" transform="rotate(180 1279.17 367.814)"/> 
  </g>
  <line x1="1400" y1="380" x2="1480" y2="380" stroke="black"/> 
  <text x="1510.3" y="387.698" font-size="15">от 20UKH44CR610</text>
  <line x1="1400.18" y1="307" x2="919.879" y2="307" stroke="black"/> 
  <line x1="897.545" y1="307" x2="544" y2="307" stroke="black" stroke-width="3"/> 
  <image x="877.333" y="263.849" width="70" height="65" xlink:href="DS_CO_valve.svg" transform="rotate(0 -6.10352e-005 -9.99997)">
    <title>&quot;21KUJ16AA001&quot;</title>
    <rt:dyn type="KKS" mode="constant" value="&quot;21KUJ16AA001&quot;"/> 
    <rt:dyn type="DATA_NARY" mode="constant" value="&quot;TPTS&quot;"/> 
    <rt:dyn type="Operate" mode="constant" value="true"/> 
  </image>
  <line x1="204.25" y1="218.25" x2="204.25" y2="395.75" stroke="black" stroke-width="3"/> 
  <g transform="rotate(90 284.899 135.778)">
    <g transform="rotate(180 1212.44 532.643)">
      <polygon points="494.686,-112.638 508.066,-104.994 508.066,-120.281 494.686,-112.638" fill="black" stroke="black" stroke-width="1" transform="rotate(180 1279.17 367.814)"/> 
    </g>
  </g>
  <text x="131.939" y="179.424" font-size="15">в вентиляционную</text>
  <text x="181.091" y="199.576" font-size="15">трубу</text>
  <text x="844.484" y="360.878" font-size="15">21KUJ16AA002</text>
  <text x="488.605" y="370" font-size="15">21KUJ16AN002</text>
  <line x1="896.696" y1="411" x2="544" y2="411" stroke="black" stroke-width="3"/> 
  <line x1="933.515" y1="411" x2="1097.15" y2="411" stroke="black"/> 
  <line x1="1097" y1="412.25" x2="1097" y2="308" stroke="black"/> 
  <line x1="1020.97" y1="211" x2="1020.97" y2="305.485" stroke="black"/> 
  <g transform="flipY(154.414) rotate(90 284.899 135.778)">
    <g transform="rotate(180 1212.44 532.643)">
      <polygon points="371.067,-929.88 384.447,-922.236 384.447,-937.523 371.067,-929.88" fill="black" stroke="black" stroke-width="1" transform="rotate(180 1279.17 367.814)"/> 
    </g>
  </g>
  <text x="962" y="198.848" font-size="15">из помещения</text>
  <text x="377.099" y="152.25" font-size="15">помещение</text>
  <text x="368.25" y="174.401" font-size="15" font-weight="700">20UKA36R011</text>
  <text x="1375.27" y="99.788" font-size="15">помещение РК вентрубы</text>
  <text x="1374.42" y="121.939" font-size="15" font-weight="700">20UKA36R020</text>
  <image x="876.484" y="366" width="70" height="65" xlink:href="DS_CO_valve.svg" transform="rotate(0 -6.10352e-005 -9.99997)">
    <title>&quot;21KUJ16AA002&quot;</title>
    <rt:dyn type="KKS" mode="constant" value="&quot;21KUJ16AA002&quot;"/> 
    <rt:dyn type="DATA_NARY" mode="constant" value="&quot;TPTS&quot;"/> 
    <rt:dyn type="Operate" mode="constant" value="true"/> 
  </image>
  <g transform="rotate(180 1212.44 532.643)">
    <polygon points="1610.08,90.342 1623.46,97.986 1623.46,82.7 1610.08,90.342" fill="black" stroke="black" stroke-width="1" transform="rotate(180 1279.17 367.814)"/> 
  </g>
  <line x1="1400" y1="420" x2="1480" y2="420" stroke="black"/> 
  <text x="1510.3" y="416" font-size="15">от стенда<tspan x="1510.3" dy="15">20UKH44GZ901</tspan>
  </text>
  <g transform="rotate(180 1212.44 532.643)">
    <polygon points="1610.08,130.342 1623.46,137.986 1623.46,122.699 1610.08,130.342" fill="black" stroke="black" stroke-width="1" transform="rotate(180 1279.17 367.814)"/> 
  </g>
  <line x1="1400" y1="460" x2="1478.79" y2="460" stroke="black"/> 
  <text x="1510.3" y="457.001" font-size="15">от стенда<tspan x="1510.3" dy="15">20UKH44GZ901</tspan>
  </text>
  <rect x="354.5" y="128.5" width="948.75" height="356.25" rx="0" ry="0" fill="none" stroke="Col_Grey5" stroke-dasharray="5,5"/> 
  <rect x="1350" y="75" width="375" height="200" rx="0" ry="0" fill="none" stroke="Col_Grey5" stroke-dasharray="5,5"/> 
  <image x="514.23" y="272.25" width="70" height="70" xlink:href="DS_motor.svg" transform="flipX(-1.37091e-005)">
    <title>&quot;21KUJ16AN001&quot;</title>
    <rt:dyn type="KKS" mode="constant" value="&quot;21KUJ16AN001&quot;"/> 
    <rt:dyn type="DATA_NARY" mode="constant" value="&quot;TPTS&quot;"/> 
    <rt:dyn type="Operate" mode="constant" value="true"/> 
    <rt:dyn type="DeviceType" mode="constant" value="&quot;fan&quot;"/> 
  </image>
  <image x="514.23" y="376" width="70" height="70" xlink:href="DS_motor.svg" transform="flipX(-1.37091e-005)">
    <title>&quot;21KUJ16AN002&quot;</title>
    <rt:dyn type="KKS" mode="constant" value="&quot;21KUJ16AN002&quot;"/> 
    <rt:dyn type="DATA_NARY" mode="constant" value="&quot;TPTS&quot;"/> 
    <rt:dyn type="Operate" mode="constant" value="true"/> 
    <rt:dyn type="DeviceType" mode="constant" value="&quot;fan&quot;"/> 
  </image>
  <image x="514.23" y="745.75" width="70" height="70" xlink:href="DS_motor.svg" transform="flipX(-1.37091e-005)">
    <title>&quot;22KUJ16AN001&quot;</title>
    <rt:dyn type="KKS" mode="constant" value="&quot;22KUJ16AN001&quot;"/> 
    <rt:dyn type="DATA_NARY" mode="constant" value="&quot;TPTS&quot;"/> 
    <rt:dyn type="Operate" mode="constant" value="true"/> 
    <rt:dyn type="DeviceType" mode="constant" value="&quot;fan&quot;"/> 
  </image>
  <image x="514.23" y="849.5" width="70" height="70" xlink:href="DS_motor.svg" transform="flipX(-1.37091e-005)">
    <title>&quot;22KUJ16AN002&quot;</title>
    <rt:dyn type="KKS" mode="constant" value="&quot;22KUJ16AN002&quot;"/> 
    <rt:dyn type="DATA_NARY" mode="constant" value="&quot;TPTS&quot;"/> 
    <rt:dyn type="Operate" mode="constant" value="true"/> 
    <rt:dyn type="DeviceType" mode="constant" value="&quot;fan&quot;"/> 
  </image>
  <image x="394.5" y="203.5" width="60" height="45" xlink:href="DS_TPTS_AVR_sel.svg">
    <title>&quot;21KUJ16EE001&quot;</title>
    <rt:dyn type="KKS" mode="constant" value="&quot;21KUJ16EE001&quot;"/> 
    <rt:dyn type="Operate" mode="constant" value="true"/> 
    <rt:dyn type="VL_type" mode="constant" value="&quot;1o2&quot;"/> 
  </image>
  <image x="394.5" y="691.5" width="60" height="45" xlink:href="DS_TPTS_AVR_sel.svg">
    <title>&quot;22KUJ16EE001&quot;</title>
    <rt:dyn type="KKS" mode="constant" value="&quot;22KUJ16EE001&quot;"/> 
    <rt:dyn type="Operate" mode="constant" value="true"/> 
    <rt:dyn type="VL_type" mode="constant" value="&quot;1o2&quot;"/> 
  </image>
  <text x="34" y="25" fill="black" font-size="15" font-weight="700" text-anchor="start">
    <title>Схема КИП насосов охлаждения бассейна выдержки</title>
KUJ16_17</text>
  <rect x="1350" y="589" width="375" height="227" rx="0" ry="0" fill="none" stroke="Col_Grey5" stroke-dasharray="5,5"/> 
  <text x="1369.6" y="605.5" font-size="15">помещение РК вентрубы</text>
  <text x="1368.75" y="627.651" font-size="15" font-weight="700">20UKA36R022</text>
  <rect x="1350" y="300" width="375" height="185" rx="0" ry="0" fill="none" stroke="Col_Grey5" stroke-dasharray="5,5"/> 
  <text x="1402.75" y="317.5" font-size="15">помещение РК вентрубы</text>
  <text x="1601.5" y="318.25" font-size="15" font-weight="700">20UKA36R019</text>
  <rect x="1350" y="834" width="375" height="116" rx="0" ry="0" fill="none" stroke="Col_Grey5" stroke-dasharray="5,5"/> 
  <text x="1505.82" y="928.5" font-size="15">от 22KLB22CR601</text>
  <g transform="rotate(180 1212.44 532.643)">
    <polygon points="1611.72,595.342 1625.1,602.985 1625.1,587.698 1611.72,595.342" fill="black" stroke="black" stroke-width="1" transform="rotate(180 1279.17 367.814)"/> 
  </g>
  <line x1="1400" y1="925" x2="1478.79" y2="925" stroke="black"/> 
  <text x="1550" y="860.5" font-size="15" font-weight="700">20UKA36R013</text>
  <rect x="1350" y="500" width="375" height="75" rx="0" ry="0" fill="none" stroke="Col_Grey5" stroke-dasharray="5,5"/> 
  <text x="1503.5" y="555" font-size="15">от 21KLB22CR601</text>
  <g transform="rotate(180 1212.44 532.643)">
    <polygon points="1610.08,220.342 1623.46,227.985 1623.46,212.698 1610.08,220.342" fill="black" stroke="black" stroke-width="1" transform="rotate(180 1279.17 367.814)"/> 
  </g>
  <line x1="1400" y1="550" x2="1480" y2="550" stroke="black"/> 
  <text x="1584" y="518.5" font-size="15" font-weight="700">20UKA36R010</text>
</svg>
