<?xml  version="1.0" encoding="UTF-8"?>
<svg color="Col_BGSand" xmlns="http://www.w3.org/2000/svg" xmlns:rt="http://www.rts.co.at/2001/XMLSchema/RtSvgPL" xmlns:xlink="http://www.w3.org/1999/xlink" xmlns:xsi="http://www.w3.org/2001/XMLSchema-instance" xsi:schemaLocation="http://www.w3.org/2000/svg C:\RTS\RtSvg\XML\SVG.xsd" viewBox="0 0 1914 1000" width="1914" height="1000" id="lct8_tzb">
  <title>ТЗиБ LCT53</title>
  <rt:model modelversion="7.2.0.24" comment="UMod all_tzb_to&#10;LMod lct7_tzb&#10;RMod lct9_tzb" revision="3"/> 
  <text x="32" y="25" font-size="15" font-weight="700">LCT8_TZB</text>
  <text x="379.581" y="80.5908" fill="black" font-size="15">Входные условия</text>
  <line x1="1087" y1="52" x2="1087" y2="102" stroke="black"/> 
  <text x="100.728" y="70.9898" fill="black" font-size="15" text-anchor="middle">N<tspan x="100.728" dy="15">П/П</tspan>
  </text>
  <text x="1199.5" y="82" fill="black" font-size="15" text-anchor="middle">Защита сработала на сигнал</text>
  <text x="983" y="82.5" fill="black" font-size="15" text-anchor="middle">Накладка ввода / вывода</text>
  <line x1="125" y1="51" x2="125" y2="313" stroke="black"/> 
  <line x1="1772" y1="383" x2="1772" y2="383" stroke="black"/> 
  <line x1="578" y1="345" x2="578" y2="345" stroke="black"/> 
  <line x1="450" y1="199" x2="450" y2="199" stroke="black"/> 
  <line x1="450" y1="159" x2="450" y2="159" stroke="black"/> 
  <line x1="379" y1="133" x2="379" y2="133" stroke="black"/> 
  <line x1="880" y1="51" x2="880" y2="101" stroke="black"/> 
  <line x1="1313.5" y1="51.3333" x2="1313.5" y2="101.333" stroke="black"/> 
  <text x="1406.83" y="81.3333" fill="black" font-size="15" text-anchor="middle">Защита сработала</text>
  <rect x="75" y="51" width="1429" height="262" rx="3" ry="2" fill="none" stroke="black" stroke-width="3"/> 
  <line x1="124.499" y1="132.5" x2="1503.49" y2="132.5" stroke="black"/> 
  <text x="94.3333" y="124.667" fill="black" font-size="15">1</text>
  <rect x="74.5" y="100.5" width="1428.5" height="212.167" rx="0" ry="0" fill="none" stroke="black"/> 
  <line x1="879.333" y1="132.5" x2="879.333" y2="312" stroke="black"/> 
  <line x1="443.499" y1="133.5" x2="443.499" y2="313" stroke="black"/> 
  <line x1="1312.83" y1="132.5" x2="1312.83" y2="312" stroke="black"/> 
  <text x="135.287" y="119.682" fill="black" font-size="15" font-weight="700">20LCT53EZ002 Защита НСС-3 по не открытию задвижки на напоре насоса (выдержка времени 180 с)</text>
  <image x="1393.66" y="203.167" width="25" height="25" xlink:href="bin_indicator.svg">
    <title>&quot;20LCT53EZ002_XK95&quot;</title>
    <rt:dyn type="PointID" mode="constant" value="&quot;20LCT53EZ002_XK95&quot;"/> 
  </image>
  <image x="1185.33" y="203.167" width="25" height="25" xlink:href="bin_indicator.svg">
    <title>&quot;20LCT53EZ002_XK92&quot;</title>
    <rt:dyn type="PointID" mode="constant" value="&quot;20LCT53EZ002_XK92&quot;"/> 
  </image>
  <line x1="1086.33" y1="132.5" x2="1086.33" y2="312" stroke="black"/> 
  <text x="496.199" y="165.417" fill="black" font-size="15">ЗДВ НАПОР НСС-3 НЕ ОТКР</text>
  <image x="930.333" y="200.667" width="110" height="30" xlink:href="DS_TPTS_TZB_universal.svg">
    <title>&quot;20LCT53CH302TE0&quot;</title>
    <rt:dyn type="KKS" mode="constant" value="&quot;20LCT53CH302TE0&quot;"/> 
    <rt:dyn type="Operate" mode="constant" value="true"/> 
  </image>
  <image x="203" y="111" width="70" height="65" xlink:href="DS_CO_valve.svg">
    <title>&quot;20LCT53AA002&quot;</title>
    <rt:dyn type="KKS" mode="constant" value="&quot;20LCT53AA002&quot;"/> 
    <rt:dyn type="DATA_NARY" mode="constant" value="&quot;TPTS&quot;"/> 
    <rt:dyn type="Drive" mode="constant" value="&quot;NONE&quot;"/> 
  </image>
  <text x="275.666" y="157.833" fill="black" font-size="15">20LCT53AA002</text>
  <text x="518.699" y="201.084" fill="black" font-size="15">ЗДВ РЕЦ НСС-3 ЗАКР</text>
  <image x="203" y="146.667" width="70" height="65" xlink:href="DS_CO_valve.svg">
    <title>&quot;20LCT53AA003&quot;</title>
    <rt:dyn type="KKS" mode="constant" value="&quot;20LCT53AA003&quot;"/> 
    <rt:dyn type="DATA_NARY" mode="constant" value="&quot;TPTS&quot;"/> 
    <rt:dyn type="Drive" mode="constant" value="&quot;NONE&quot;"/> 
  </image>
  <text x="275.666" y="193.5" fill="black" font-size="15">20LCT53AA003</text>
  <text x="497.032" y="240.417" fill="black" font-size="15">З БАЙП НАПОР НСС-3 ЗАКР</text>
  <image x="203" y="186" width="70" height="65" xlink:href="DS_CO_valve.svg">
    <title>&quot;20LCT53AA004&quot;</title>
    <rt:dyn type="KKS" mode="constant" value="&quot;20LCT53AA004&quot;"/> 
    <rt:dyn type="DATA_NARY" mode="constant" value="&quot;TPTS&quot;"/> 
    <rt:dyn type="Drive" mode="constant" value="&quot;NONE&quot;"/> 
  </image>
  <text x="275.666" y="232.833" fill="black" font-size="15">20LCT53AA004</text>
  <text x="553.699" y="282.917" fill="black" font-size="15">НСС-3 ВКЛ</text>
  <text x="272.666" y="282.167" fill="black" font-size="15">20LCT53AP001</text>
  <image x="202.666" y="241" width="70" height="70" xlink:href="DS_motor.svg" transform="rotate(360 -1.52588e-005 0)">
    <title>&quot;20LCT53AP001&quot;</title>
    <rt:dyn type="KKS" mode="constant" value="&quot;20LCT53AP001&quot;"/> 
    <rt:dyn type="DATA_NARY" mode="constant" value="&quot;TPTS&quot;"/> 
  </image>
  <text x="959" y="37.0833" fill="black" font-size="30" font-weight="700" text-anchor="middle">ТЗиБ LCT53</text>
</svg>
