<?xml  version="1.0" encoding="UTF-8"?>
<svg color="Col_BGSand" xmlns="http://www.w3.org/2000/svg" xmlns:rt="http://www.rts.co.at/2001/XMLSchema/RtSvgPL" xmlns:xlink="http://www.w3.org/1999/xlink" xmlns:xsi="http://www.w3.org/2001/XMLSchema-instance" xsi:schemaLocation="http://www.w3.org/2000/svg C:\RTS\RtSvg\XML\SVG.xsd" viewBox="0 0 1914 1000" width="1914" height="1000" id="ldf12" font-weight="bold">
  <title>Cистема обезжелезивания и обессоливания конденсата турбины</title>
  <rt:model modelversion="7.2.0.24" comment="UMod all_svo&#10;LMod ldf11&#10;RMod ldf13&#10;RASU" revision="4.1"/> 
  <line x1="941.848" y1="525" x2="94" y2="525" stroke="black" stroke-width="3"/> 
  <line x1="878" y1="435" x2="400" y2="433" stroke="black"/> 
  <line x1="502.002" y1="393.5" x2="575.002" y2="393.5" stroke="black"/> 
  <line x1="1855" y1="450" x2="1819" y2="450" stroke="black" stroke-width="3"/> 
  <line x1="1800" y1="450" x2="1366" y2="450" stroke="black" stroke-width="3"/> 
  <line x1="1770" y1="833" x2="1770" y2="959.485" stroke="black"/> 
  <line x1="1166" y1="799" x2="1166" y2="901" stroke="black"/> 
  <line x1="1271.11" y1="802" x2="1271.11" y2="960" stroke="black"/> 
  <line x1="1133" y1="386" x2="1018.91" y2="386" stroke="black"/> 
  <line x1="669.606" y1="293.939" x2="314" y2="293.939" stroke="black"/> 
  <line x1="585" y1="393.5" x2="853" y2="394" stroke="black"/> 
  <line x1="942" y1="526.758" x2="942" y2="255.545" stroke="black" stroke-width="3"/> 
  <line x1="1453" y1="262" x2="1453" y2="194" stroke="black"/> 
  <text x="957" y="50" font-size="30" text-anchor="middle">Cистема обезжелезивания и обессоливания конденсата турбины</text>
  <image x="954.946" y="337.879" width="175" height="25" xlink:href="DS_ana.svg">
    <title>&quot;20LDF12CP003_XQ01&quot;</title>
    <rt:dyn type="FKKS" mode="constant" value="&quot;20LDF12CP003&quot;"/> 
    <rt:dyn type="X" mode="constant" value="&quot;P&quot;"/> 
    <rt:dyn type="ShowFrame" mode="constant" value="true"/> 
    <rt:dyn type="Color_Readings" mode="constant" value="true"/> 
    <rt:dyn type="ValueToTheRight" mode="constant" value="false"/> 
  </image>
  <line x1="1167" y1="257" x2="941" y2="257" stroke="black" stroke-width="3"/> 
  <line x1="872" y1="378.838" x2="872" y2="266.671" stroke="black"/> 
  <image x="826.318" y="292.99" width="70" height="65" xlink:href="DS_CO_valve.svg" transform="flipX(0.000113544) rotate(90 0 -10)">
    <title>&quot;20LDF12AA019&quot;</title>
    <rt:dyn type="KKS" mode="constant" value="&quot;20LDF12AA019&quot;"/> 
    <rt:dyn type="DATA_NARY" mode="constant" value="&quot;TPTS&quot;"/> 
    <rt:dyn type="Operate" mode="constant" value="true"/> 
  </image>
  <text x="756" y="322.5" font-size="15">20LDF12<tspan x="756" dy="15">AA019</tspan>
  </text>
  <image x="760" y="495.333" width="175" height="25" xlink:href="DS_ana.svg">
    <title>&quot;20LDF12CP002_XQ01&quot;</title>
    <rt:dyn type="FKKS" mode="constant" value="&quot;20LDF12CP002&quot;"/> 
    <rt:dyn type="X" mode="constant" value="&quot;dP&quot;"/> 
    <rt:dyn type="ShowFrame" mode="constant" value="true"/> 
    <rt:dyn type="Color_Readings" mode="constant" value="true"/> 
    <rt:dyn type="ValueToTheRight" mode="constant" value="false"/> 
  </image>
  <line x1="1132" y1="386.333" x2="1132" y2="715" stroke="black"/> 
  <image x="1087.62" y="566.561" width="70" height="65" xlink:href="DS_CO_valve.svg" transform="flipY(-10.0003) flipY(-10.0003) flipX(0.000113544) rotate(90 0 -10)">
    <title>&quot;20LDF12AA005&quot;</title>
    <rt:dyn type="KKS" mode="constant" value="&quot;20LDF12AA005&quot;"/> 
    <rt:dyn type="DATA_NARY" mode="constant" value="&quot;TPTS&quot;"/> 
    <rt:dyn type="Operate" mode="constant" value="true"/> 
  </image>
  <text x="1018" y="594.5" font-size="15">20LDF12<tspan x="1018" dy="15">AA005</tspan>
  </text>
  <image x="530" y="340" width="70" height="65" xlink:href="DS_CO_valve.svg" transform="rotate(90 0 0) flipY(-10.0003) flipY(-10.0003) flipY(-10.0003) flipX(0.000113544) rotate(90 0 -10)">
    <title>&quot;20LDF12AA023&quot;</title>
    <rt:dyn type="KKS" mode="constant" value="&quot;20LDF12AA023&quot;"/> 
    <rt:dyn type="DATA_NARY" mode="constant" value="&quot;TPTS&quot;"/> 
    <rt:dyn type="Operate" mode="constant" value="true"/> 
  </image>
  <text x="708.515" y="469.667" font-size="15">20LDF12AA022</text>
  <text x="511" y="421.5" font-size="15">20LDF12AA023</text>
  <image x="949" y="495.333" width="175" height="25" xlink:href="DS_ana.svg">
    <title>&quot;20LDF12CP001_XQ01&quot;</title>
    <rt:dyn type="FKKS" mode="constant" value="&quot;20LDF12CP001&quot;"/> 
    <rt:dyn type="X" mode="constant" value="&quot;P&quot;"/> 
    <rt:dyn type="ShowFrame" mode="constant" value="true"/> 
    <rt:dyn type="Color_Readings" mode="constant" value="true"/> 
    <rt:dyn type="ValueToTheRight" mode="constant" value="false"/> 
  </image>
  <line x1="1635.54" y1="432.879" x2="1549.85" y2="432.879" stroke="black"/> 
  <image x="1569" y="486.242" width="175" height="25" xlink:href="DS_ana.svg">
    <title>&quot;20LDF12CP005_XQ01&quot;</title>
    <rt:dyn type="FKKS" mode="constant" value="&quot;20LDF12CP005&quot;"/> 
    <rt:dyn type="X" mode="constant" value="&quot;P&quot;"/> 
    <rt:dyn type="ShowFrame" mode="constant" value="true"/> 
    <rt:dyn type="Color_Readings" mode="constant" value="true"/> 
    <rt:dyn type="ValueToTheRight" mode="constant" value="false"/> 
  </image>
  <line x1="1342" y1="450" x2="1164" y2="450" stroke="black" stroke-width="3"/> 
  <image x="1779.21" y="407.758" width="70" height="65" xlink:href="DS_CO_valve.svg">
    <title>&quot;20LDF12AA004&quot;</title>
    <rt:dyn type="KKS" mode="constant" value="&quot;20LDF12AA004&quot;"/> 
    <rt:dyn type="DATA_NARY" mode="constant" value="&quot;TPTS&quot;"/> 
    <rt:dyn type="Operate" mode="constant" value="true"/> 
  </image>
  <text x="1779" y="478.5" font-size="15">20LDF12<tspan x="1779" dy="15">AA004</tspan>
  </text>
  <image x="1314.58" y="408.243" width="70" height="65" xlink:href="DS_CO_valve.svg" transform="flipX(2.17799e-007)">
    <title>&quot;20LDF12AA003&quot;</title>
    <rt:dyn type="KKS" mode="constant" value="&quot;20LDF12AA003&quot;"/> 
    <rt:dyn type="DATA_NARY" mode="constant" value="&quot;TPTS&quot;"/> 
    <rt:dyn type="Operate" mode="constant" value="true"/> 
  </image>
  <text x="1283" y="478.5" font-size="15">20LDF12AA003</text>
  <text x="1478.21" y="407.212" fill="black" font-size="15">20LDF12AT002</text>
  <text x="1292" y="783.5" font-size="15">20LDF12<tspan x="1292" dy="15">AA016</tspan>
  </text>
  <line x1="1166" y1="450.333" x2="1166" y2="705" stroke="black"/> 
  <text x="1051" y="782.5" font-size="15">20LDF12<tspan x="1051" dy="15">AA007</tspan>
  </text>
  <line x1="704" y1="526" x2="704" y2="708" stroke="black"/> 
  <image x="659.55" y="566.561" width="70" height="65" xlink:href="DS_CO_valve.svg" transform="flipY(-10.0003) flipY(-10.0003) flipX(0.000113544) rotate(90 0 -10)">
    <title>&quot;20LDF12AA006&quot;</title>
    <rt:dyn type="KKS" mode="constant" value="&quot;20LDF12AA006&quot;"/> 
    <rt:dyn type="DATA_NARY" mode="constant" value="&quot;TPTS&quot;"/> 
    <rt:dyn type="Operate" mode="constant" value="true"/> 
  </image>
  <text x="589" y="602.5" font-size="15">20LDF12<tspan x="589" dy="15">AA006</tspan>
  </text>
  <image x="635" y="725" width="65" height="25" xlink:href="DS_Reg_degree.svg">
    <title>&quot;20LDF12AA202&quot;</title>
    <rt:dyn type="KKS" mode="constant" value="&quot;20LDF12AA202&quot;"/> 
  </image>
  <text x="588.71" y="796.23" font-size="15">20LDF12<tspan x="588.71" dy="15">AA202</tspan>
  </text>
  <line x1="703.97" y1="899.485" x2="1166" y2="900.425" stroke="black"/> 
  <image x="914.758" y="865.607" width="70" height="70" xlink:href="DS_motor.svg" transform="flipX(-4.95135e-005)">
    <title>&quot;20LDF12AP001&quot;</title>
    <rt:dyn type="KKS" mode="constant" value="&quot;20LDF12AP001&quot;"/> 
    <rt:dyn type="DATA_NARY" mode="constant" value="&quot;TPTS&quot;"/> 
    <rt:dyn type="Operate" mode="constant" value="true"/> 
  </image>
  <text x="882" y="943.5" font-size="15">20LDF12AP001</text>
  <image x="987.36" y="869.727" width="175" height="25" xlink:href="DS_ana.svg">
    <title>&quot;20LDF12CP006_XQ01&quot;</title>
    <rt:dyn type="FKKS" mode="constant" value="&quot;20LDF12CP006&quot;"/> 
    <rt:dyn type="X" mode="constant" value="&quot;P&quot;"/> 
    <rt:dyn type="ShowFrame" mode="constant" value="true"/> 
    <rt:dyn type="Color_Readings" mode="constant" value="true"/> 
    <rt:dyn type="ValueToTheRight" mode="constant" value="false"/> 
  </image>
  <image x="733" y="869.727" width="175" height="25" xlink:href="DS_ana.svg">
    <title>&quot;20LDF12CP007_XQ01&quot;</title>
    <rt:dyn type="FKKS" mode="constant" value="&quot;20LDF12CP007&quot;"/> 
    <rt:dyn type="X" mode="constant" value="&quot;P&quot;"/> 
    <rt:dyn type="ShowFrame" mode="constant" value="true"/> 
    <rt:dyn type="Color_Readings" mode="constant" value="true"/> 
    <rt:dyn type="ValueToTheRight" mode="constant" value="false"/> 
  </image>
  <image x="733" y="903.667" width="175" height="25" xlink:href="DS_ana.svg">
    <title>&quot;20LDF12CF002_XQ01&quot;</title>
    <rt:dyn type="FKKS" mode="constant" value="&quot;20LDF12CF002&quot;"/> 
    <rt:dyn type="X" mode="constant" value="&quot;F&quot;"/> 
    <rt:dyn type="ShowFrame" mode="constant" value="true"/> 
    <rt:dyn type="Color_Readings" mode="constant" value="true"/> 
    <rt:dyn type="ValueToTheRight" mode="constant" value="false"/> 
  </image>
  <image x="559" y="459" width="65" height="25" xlink:href="DS_Reg_degree.svg">
    <title>&quot;20LDF12AA201&quot;</title>
    <rt:dyn type="KKS" mode="constant" value="&quot;20LDF12AA201&quot;"/> 
  </image>
  <text x="524" y="563.743" font-size="15">20LDF12AA201</text>
  <image x="586.818" y="473" width="70" height="65" xlink:href="DS_Reg_valve.svg" transform="matrix(-1 -1.22465e-016 -1.22465e-016 1 -30.0026 10)">
    <title>&quot;20LDF12AA201&quot;</title>
    <rt:dyn type="KKS" mode="constant" value="&quot;20LDF12AA201&quot;"/> 
    <rt:dyn type="DATA_NARY" mode="constant" value="&quot;TPTS&quot;"/> 
    <rt:dyn type="Operate" mode="constant" value="true"/> 
    <rt:dyn type="NoSP" mode="constant" value="true"/> 
  </image>
  <line x1="669" y1="387" x2="669" y2="294.425" stroke="black"/> 
  <image x="541.375" y="241" width="70" height="65" xlink:href="DS_CO_valve.svg" transform="rotate(90 0 0) flipY(-10.0003) flipY(-10.0003) flipX(0.000113544) rotate(90 0 -10)">
    <title>&quot;20LDF12AA020&quot;</title>
    <rt:dyn type="KKS" mode="constant" value="&quot;20LDF12AA020&quot;"/> 
    <rt:dyn type="DATA_NARY" mode="constant" value="&quot;TPTS&quot;"/> 
    <rt:dyn type="Operate" mode="constant" value="true"/> 
  </image>
  <text x="523" y="320.5" font-size="15">20LDF12AA020</text>
  <line x1="1220" y1="452.515" x2="1220" y2="217.667" stroke="black"/> 
  <image x="1176.86" y="245.228" width="70" height="65" xlink:href="DS_CO_valve.svg" transform="flipX(0.000113544) rotate(90 0 -10)">
    <title>&quot;20LDF12AA021&quot;</title>
    <rt:dyn type="KKS" mode="constant" value="&quot;20LDF12AA021&quot;"/> 
    <rt:dyn type="DATA_NARY" mode="constant" value="&quot;TPTS&quot;"/> 
    <rt:dyn type="Operate" mode="constant" value="true"/> 
  </image>
  <text x="1222" y="321.5" font-size="15">20LDF12<tspan x="1222" dy="15">AA021</tspan>
  </text>
  <text x="1343" y="275.5" font-size="15">20LDF12<tspan x="1343" dy="15">AA013</tspan>
  </text>
  <line x1="1635" y1="433.501" x2="1635" y2="264" stroke="black"/> 
  <image x="1588.83" y="325.668" width="70" height="65" xlink:href="DS_CO_valve.svg" transform="flipX(0.000113544) rotate(90 0 -10)">
    <title>&quot;20LDF12AA018&quot;</title>
    <rt:dyn type="KKS" mode="constant" value="&quot;20LDF12AA018&quot;"/> 
    <rt:dyn type="DATA_NARY" mode="constant" value="&quot;TPTS&quot;"/> 
    <rt:dyn type="Operate" mode="constant" value="true"/> 
  </image>
  <text x="1521" y="356.5" font-size="15">20LDF12<tspan x="1521" dy="15">AA018</tspan>
  </text>
  <image x="1498.7" y="515.091" width="175" height="25" xlink:href="DS_ana.svg">
    <title>&quot;20LDF12CP004_XQ01&quot;</title>
    <rt:dyn type="FKKS" mode="constant" value="&quot;20LDF12CP004&quot;"/> 
    <rt:dyn type="X" mode="constant" value="&quot;dP&quot;"/> 
    <rt:dyn type="ShowFrame" mode="constant" value="true"/> 
    <rt:dyn type="Color_Readings" mode="constant" value="true"/> 
    <rt:dyn type="ValueToTheRight" mode="constant" value="false"/> 
  </image>
  <image x="1493" y="550" width="160" height="75" xlink:href="DS_TPTS_VL_spec.svg">
    <title>&quot;20LDF12CH002LVL0&quot;</title>
    <rt:dyn type="KKS" mode="constant" value="&quot;20LDF12CH002LVL0&quot;"/> 
    <rt:dyn type="Operate" mode="constant" value="true"/> 
    <rt:dyn type="VL_type" mode="constant" value="&quot;1o2&quot;"/> 
  </image>
  <image x="1328.14" y="592.697" width="110" height="30" xlink:href="DS_TPTS_TZB_universal.svg">
    <title>&quot;20LDF12EZ002TE0&quot;</title>
    <rt:dyn type="KKS" mode="constant" value="&quot;20LDF12EZ002TE0&quot;"/> 
    <rt:dyn type="Operate" mode="constant" value="true"/> 
  </image>
  <line x1="1747.35" y1="451.515" x2="1747.35" y2="712.121" stroke="black"/> 
  <text x="1608" y="746.5" font-size="15">20LDF12AA011</text>
  <image x="1328.14" y="649.909" width="110" height="30" xlink:href="DS_TPTS_TZB_universal.svg">
    <title>&quot;20LDF12CH002KTE0&quot;</title>
    <rt:dyn type="KKS" mode="constant" value="&quot;20LDF12CH002KTE0&quot;"/> 
    <rt:dyn type="Operate" mode="constant" value="true"/> 
  </image>
  <text x="1277" y="644.909" font-size="15">разр выбора режима АТ002</text>
  <g fill="none" transform="rotate(270 867.174 707.778)">
    <circle cx="1125.68" cy="1397.38" r="35.4988" fill="Col_Grey4" stroke="black" stroke-width="3"/> 
    <line x1="1092.17" y1="1388" x2="1158.17" y2="1388" stroke="black" stroke-width="3"/> 
    <line x1="1093.17" y1="1406" x2="1159.17" y2="1406" stroke="black" stroke-width="3"/> 
    <line x1="1101.17" y1="1387" x2="1090.17" y2="1401" stroke="black"/> 
    <line x1="1108.17" y1="1389" x2="1094.17" y2="1407" stroke="black"/> 
    <line x1="1117.17" y1="1389" x2="1103.17" y2="1407" stroke="black"/> 
    <line x1="1125.17" y1="1389" x2="1111.17" y2="1407" stroke="black"/> 
    <line x1="1135.17" y1="1387" x2="1121.17" y2="1405" stroke="black"/> 
    <line x1="1142.17" y1="1388" x2="1128.17" y2="1406" stroke="black"/> 
    <line x1="1150.17" y1="1388" x2="1136.17" y2="1406" stroke="black"/> 
    <line x1="1160.17" y1="1386" x2="1143.8" y2="1406.9" stroke="black"/> 
    <line x1="1151.8" y1="1405.9" x2="1161.17" y2="1394" stroke="black"/> 
  </g>
  <line x1="504" y1="149" x2="504" y2="211.754" stroke="black"/> 
  <line x1="503" y1="303.329" x2="503" y2="431.818" stroke="black"/> 
  <line x1="503.119" y1="229" x2="503.119" y2="287.027" stroke="black"/> 
  <line x1="1770" y1="451.515" x2="1770" y2="813" stroke="black"/> 
  <image x="1725.26" y="792.439" width="70" height="65" xlink:href="DS_CO_valve.svg" transform="flipX(0.000113544) rotate(90 0 -10)">
    <title>&quot;20LDF12AA017&quot;</title>
    <rt:dyn type="KKS" mode="constant" value="&quot;20LDF12AA017&quot;"/> 
    <rt:dyn type="DATA_NARY" mode="constant" value="&quot;TPTS&quot;"/> 
    <rt:dyn type="Operate" mode="constant" value="true"/> 
  </image>
  <text x="1658" y="822.5" font-size="15">20LDF12<tspan x="1658" dy="15">AA017</tspan>
  </text>
  <line x1="172.151" y1="846" x2="587.303" y2="846" stroke="black"/> 
  <image x="373" y="496.213" width="175" height="25" xlink:href="DS_ana.svg">
    <title>&quot;20LDF12CF001_XQ01&quot;</title>
    <rt:dyn type="FKKS" mode="constant" value="&quot;20LDF12CF001&quot;"/> 
    <rt:dyn type="X" mode="constant" value="&quot;F&quot;"/> 
    <rt:dyn type="ShowFrame" mode="constant" value="true"/> 
    <rt:dyn type="Color_Readings" mode="constant" value="true"/> 
    <rt:dyn type="ValueToTheRight" mode="constant" value="false"/> 
  </image>
  <image x="304.088" y="482.879" width="70" height="65" xlink:href="DS_CO_valve.svg" transform="flipX(-2.34484e-005)">
    <title>&quot;20LDF12AA002&quot;</title>
    <rt:dyn type="KKS" mode="constant" value="&quot;20LDF12AA002&quot;"/> 
    <rt:dyn type="DATA_NARY" mode="constant" value="&quot;TPTS&quot;"/> 
    <rt:dyn type="Operate" mode="constant" value="true"/> 
  </image>
  <text x="279.848" y="563.333" font-size="15">20LDF12AA002</text>
  <line x1="585.788" y1="843.939" x2="585.788" y2="962.121" stroke="black"/> 
  <line x1="585.788" y1="960.515" x2="1770.64" y2="960.515" stroke="black"/> 
  <line x1="1452.45" y1="194.303" x2="502.454" y2="194.303" stroke="black"/> 
  <line x1="1220.64" y1="218" x2="323" y2="218" stroke="black"/> 
  <line x1="1853" y1="240.909" x2="1853" y2="451.515" stroke="black" stroke-width="3"/> 
  <line x1="155.485" y1="716.667" x2="1747" y2="712" stroke="black"/> 
  <polygon points="945.278,475.608 957.475,481.766 957.475,466.479 944.095,474.123" fill="Col_BGSand" stroke="black" stroke-width="1" transform="rotate(270 1553 326) rotate(360 0 1.4013e-045) flipY(334.505) rotate(180 1279.17 367.814)"/> 
  <polygon points="934.278,-286.767 946.475,-280.608 946.475,-295.896 933.095,-288.251" fill="Col_BGSand" stroke="black" stroke-width="1" transform="rotate(270 1553 326) rotate(360 0 1.4013e-045) flipY(334.505) rotate(180 1279.17 367.814)"/> 
  <g transform="rotate(90 887.1 374.985) rotate(360 0 1.4013e-045) flipY(463.985) flipX(932.6) rotate(90 532.5 456)">
    <rect x="593.985" y="5.90106" width="175" height="88" rx="0" ry="0" fill="Col_Grey4" stroke="black" stroke-width="3"/> 
    <rect x="595.985" y="35.4011" width="170.136" height="27.3031" rx="0" ry="0" fill="url(#PortalHatch2)"/> 
  </g>
  <image x="954.946" y="306.606" width="175" height="25" xlink:href="DS_ana.svg">
    <title>&quot;20QUG20CQ001_XQ01&quot;</title>
    <rt:dyn type="FKKS" mode="constant" value="&quot;20QUG20CQ001&quot;"/> 
    <rt:dyn type="X" mode="constant" value="&quot;Xн&quot;"/> 
    <rt:dyn type="ShowFrame" mode="constant" value="true"/> 
    <rt:dyn type="Color_Readings" mode="constant" value="true"/> 
    <rt:dyn type="ValueToTheRight" mode="constant" value="false"/> 
  </image>
  <text x="249.425" y="835.879" fill="black" font-size="15" text-anchor="middle">ХОВ</text>
  <text x="246.394" y="707.576" fill="black" font-size="15" text-anchor="middle">СЖВ</text>
  <text x="874" y="390" fill="black" font-size="15">20LDF12AT001</text>
  <line x1="1166" y1="450" x2="1166" y2="257.141" stroke="black" stroke-width="3"/> 
  <path d="M272.907 81.9377 A8.80483 8.80483 0 1 1 272.907 99.5477 " fill="none" stroke="black" transform="flipY() translate(0 -828) translate(229.642 442.62)"/> 
  <path d="M273.392 156.15 A8.80483 8.80483 0 1 1 273.392 173.76 " fill="none" stroke="black" transform="flipY() translate(0 -828) translate(229.642 442.62)"/> 
  <text x="229.667" y="238.576" fill="black" font-size="15" text-anchor="middle">КОНТУР<tspan x="229.667" dy="15"/> 
<tspan x="229.667" dy="15"/> 
<tspan x="229.667" dy="15">НАМЫВА</tspan>
  </text>
  <line x1="650.106" y1="195.363" x2="650.106" y2="131.727" stroke="black"/> 
  <line x1="577" y1="194.848" x2="577" y2="131.212" stroke="black"/> 
  <text x="490" y="89.5" fill="black" font-size="15" text-anchor="middle">LDF11</text>
  <text x="574" y="89.5" fill="black" font-size="15" text-anchor="middle">LDF13</text>
  <text x="659" y="88.5" fill="black" font-size="15" text-anchor="middle">LDF14</text>
  <text x="305" y="438" fill="black" font-size="15" text-anchor="middle">в 20LDF15BB003</text>
  <text x="1807.45" y="228.061" fill="black" font-size="15" text-anchor="middle">LDF11</text>
  <image x="287.526" y="281.743" width="75" height="25" xlink:href="obj_link.svg">
    <rt:dyn type="ModName" mode="constant" value="&quot;ldf15&quot;"/> 
    <rt:dyn type="TextStr" mode="constant" value="&quot;LDF15&quot;"/> 
  </image>
  <image x="272.375" y="208.076" width="75" height="25" xlink:href="obj_link.svg" transform="flipX(37.4999)">
    <rt:dyn type="ModName" mode="constant" value="&quot;ldf15&quot;"/> 
    <rt:dyn type="TextStr" mode="constant" value="&quot;LDF15&quot;"/> 
  </image>
  <image x="465.576" y="124.986" width="75" height="25" xlink:href="obj_link.svg" transform="rotate(90 37.3618 12.5)">
    <rt:dyn type="ModName" mode="constant" value="&quot;ldf11&quot;"/> 
    <rt:dyn type="TextStr" mode="constant" value="&quot;&quot;"/> 
  </image>
  <image x="537.758" y="124.986" width="75" height="25" xlink:href="obj_link.svg" transform="rotate(90 37.3618 12.5)">
    <rt:dyn type="ModName" mode="constant" value="&quot;ldf13&quot;"/> 
    <rt:dyn type="TextStr" mode="constant" value="&quot;&quot;"/> 
  </image>
  <image x="613.364" y="124.986" width="75" height="25" xlink:href="obj_link.svg" transform="rotate(90 37.3618 12.5)">
    <rt:dyn type="ModName" mode="constant" value="&quot;ldf14&quot;"/> 
    <rt:dyn type="TextStr" mode="constant" value="&quot;&quot;"/> 
  </image>
  <image x="396.394" y="420.727" width="75" height="25" xlink:href="obj_link.svg" transform="flipX(37.4999)">
    <rt:dyn type="ModName" mode="constant" value="&quot;ldf15&quot;"/> 
    <rt:dyn type="TextStr" mode="constant" value="&quot;LDF15&quot;"/> 
  </image>
  <image x="24.621" y="512.121" width="75" height="25" xlink:href="obj_link.svg">
    <rt:dyn type="ModName" mode="constant" value="&quot;ldf11&quot;"/> 
    <rt:dyn type="TextStr" mode="constant" value="&quot;LDF11&quot;"/> 
  </image>
  <image x="118.621" y="703.03" width="75" height="25" xlink:href="obj_link.svg">
    <rt:dyn type="ModName" mode="constant" value="&quot;ldf11&quot;"/> 
    <rt:dyn type="TextStr" mode="constant" value="&quot;LDF11&quot;"/> 
  </image>
  <image x="118.621" y="834.848" width="75" height="25" xlink:href="obj_link.svg">
    <rt:dyn type="ModName" mode="constant" value="&quot;ldf11&quot;"/> 
    <rt:dyn type="TextStr" mode="constant" value="&quot;LDF11&quot;"/> 
  </image>
  <image x="1814.09" y="204.545" width="75" height="25" xlink:href="obj_link.svg" transform="flipY(12.362) rotate(90 37.3618 12.5)">
    <rt:dyn type="ModName" mode="constant" value="&quot;ldf11&quot;"/> 
    <rt:dyn type="TextStr" mode="constant" value="&quot;&quot;"/> 
  </image>
  <image x="1328.14" y="537.697" width="110" height="30" xlink:href="DS_TPTS_TZB_universal.svg">
    <title>&quot;20LDF12EZ003TE0&quot;</title>
    <rt:dyn type="KKS" mode="constant" value="&quot;20LDF12EZ003TE0&quot;"/> 
    <rt:dyn type="Operate" mode="constant" value="true"/> 
  </image>
  <image x="924" y="617" width="160" height="75" xlink:href="DS_TPTS_VL_spec.svg">
    <title>&quot;20LDF12CH001LVL0&quot;</title>
    <rt:dyn type="KKS" mode="constant" value="&quot;20LDF12CH001LVL0&quot;"/> 
    <rt:dyn type="Operate" mode="constant" value="true"/> 
  </image>
  <image x="763" y="650" width="110" height="30" xlink:href="DS_TPTS_TZB_universal.svg">
    <title>&quot;20LDF12CH001KTE0&quot;</title>
    <rt:dyn type="KKS" mode="constant" value="&quot;20LDF12CH001KTE0&quot;"/> 
    <rt:dyn type="Operate" mode="constant" value="true"/> 
  </image>
  <text x="754" y="626" font-size="15">разр выбора<tspan x="754" dy="15">режима АТ001</tspan>
  </text>
  <image x="329.328" y="663.121" width="70" height="65" xlink:href="DS_Reg_valve.svg" transform="flipX(-10.0011) flipX(10.0005) rotate(90 0 0) flipY(-10.0001) rotate(270 0 -10)">
    <title>&quot;20LDF11AA203&quot;</title>
    <rt:dyn type="KKS" mode="constant" value="&quot;20LDF11AA203&quot;"/> 
    <rt:dyn type="DATA_NARY" mode="constant" value="&quot;TPTS&quot;"/> 
    <rt:dyn type="Operate" mode="constant" value="true"/> 
    <rt:dyn type="NoSP" mode="constant" value="true"/> 
  </image>
  <image x="302" y="650" width="65" height="25" xlink:href="DS_Reg_degree.svg">
    <title>&quot;20LDF11AA203&quot;</title>
    <rt:dyn type="KKS" mode="constant" value="&quot;20LDF11AA203&quot;"/> 
  </image>
  <image x="120.03" y="745.364" width="175" height="25" xlink:href="DS_ana.svg">
    <title>&quot;20LDF11CF003_XQ01&quot;</title>
    <rt:dyn type="FKKS" mode="constant" value="&quot;20LDF11CF003&quot;"/> 
    <rt:dyn type="X" mode="constant" value="&quot;F&quot;"/> 
    <rt:dyn type="ShowFrame" mode="constant" value="true"/> 
    <rt:dyn type="Color_Readings" mode="constant" value="true"/> 
    <rt:dyn type="ValueToTheRight" mode="constant" value="false"/> 
  </image>
  <image x="328.328" y="792.757" width="70" height="65" xlink:href="DS_Reg_valve.svg" transform="flipX(-10.0009) flipX(10.0005) rotate(90 0 0) flipY(-10.0001) rotate(270 0 -10)">
    <title>&quot;20LDF11AA204&quot;</title>
    <rt:dyn type="KKS" mode="constant" value="&quot;20LDF11AA204&quot;"/> 
    <rt:dyn type="DATA_NARY" mode="constant" value="&quot;TPTS&quot;"/> 
    <rt:dyn type="Operate" mode="constant" value="true"/> 
    <rt:dyn type="NoSP" mode="constant" value="true"/> 
  </image>
  <image x="300" y="782" width="65" height="25" xlink:href="DS_Reg_degree.svg">
    <title>&quot;20LDF11AA204&quot;</title>
    <rt:dyn type="KKS" mode="constant" value="&quot;20LDF11AA204&quot;"/> 
  </image>
  <image x="119.03" y="874.333" width="175" height="25" xlink:href="DS_ana.svg">
    <title>&quot;20LDF11CF004_XQ01&quot;</title>
    <rt:dyn type="FKKS" mode="constant" value="&quot;20LDF11CF004&quot;"/> 
    <rt:dyn type="X" mode="constant" value="&quot;F&quot;"/> 
    <rt:dyn type="ShowFrame" mode="constant" value="true"/> 
    <rt:dyn type="Color_Readings" mode="constant" value="true"/> 
    <rt:dyn type="ValueToTheRight" mode="constant" value="false"/> 
  </image>
  <text x="1305.22" y="583.697" font-size="15">сброс защиты АТ002</text>
  <text x="1305.22" y="528.697" font-size="15">сброс защиты АТ001</text>
  <image x="1289" y="539" width="25" height="25" xlink:href="bin_indicator.svg">
    <title>&quot;20LDF12EZ003_ZV01&quot;</title>
    <rt:dyn type="PointID" mode="constant" value="&quot;20LDF12EZ003_ZV01&quot;"/> 
  </image>
  <image x="1289" y="595" width="25" height="25" xlink:href="bin_indicator.svg">
    <title>&quot;20LDF12EZ002_ZV01&quot;</title>
    <rt:dyn type="PointID" mode="constant" value="&quot;20LDF12EZ002_ZV01&quot;"/> 
  </image>
  <text x="297" y="771.5" font-size="15">20LDF11AA203</text>
  <text x="296" y="902.5" font-size="15">20LDF11AA204</text>
  <text x="11" y="24.5" font-size="15">LDF12</text>
  <line x1="1453" y1="448" x2="1453" y2="290" stroke="black"/> 
  <image x="1408.05" y="245.595" width="70" height="65" xlink:href="DS_CO_valve.svg" transform="flipX(0.000113544) rotate(90 0 -10)">
    <title>&quot;20LDF12AA013&quot;</title>
    <rt:dyn type="KKS" mode="constant" value="&quot;20LDF12AA013&quot;"/> 
    <rt:dyn type="DATA_NARY" mode="constant" value="&quot;TPTS&quot;"/> 
    <rt:dyn type="Operate" mode="constant" value="true"/> 
  </image>
  <path d="M438.892 -17.7288 A8.80483 8.80483 0 1 1 438.892 -0.11882 " fill="none" stroke="black" transform="flipY() translate(0 -828) translate(229.642 442.62)"/> 
  <path d="M438.892 -57.7288 A8.80483 8.80483 0 1 1 438.892 -40.1188 " fill="none" stroke="black" transform="flipY() translate(0 -828) translate(229.642 442.62)"/> 
  <line x1="669" y1="527.578" x2="669" y2="442.003" stroke="black"/> 
  <image x="731.24" y="392.485" width="70" height="65" xlink:href="DS_CO_valve.svg" transform="flipX(-5.43088e-005)">
    <title>&quot;20LDF12AA022&quot;</title>
    <rt:dyn type="KKS" mode="constant" value="&quot;20LDF12AA022&quot;"/> 
    <rt:dyn type="DATA_NARY" mode="constant" value="&quot;TPTS&quot;"/> 
    <rt:dyn type="Operate" mode="constant" value="true"/> 
  </image>
  <line x1="669" y1="426" x2="669" y2="402" stroke="black"/> 
  <path d="M473.892 -338.729 A8.80483 8.80483 0 1 1 473.892 -321.119 " fill="none" stroke="black" transform="flipY() translate(0 -828) translate(229.642 442.62)"/> 
  <line x1="704" y1="723" x2="704" y2="900" stroke="black"/> 
  <image x="659.55" y="753.392" width="70" height="65" xlink:href="DS_Reg_valve.svg" transform="flipY(-10.0001) rotate(270 0 -10)">
    <title>&quot;20LDF12AA202&quot;</title>
    <rt:dyn type="KKS" mode="constant" value="&quot;20LDF12AA202&quot;"/> 
    <rt:dyn type="DATA_NARY" mode="constant" value="&quot;TPTS&quot;"/> 
    <rt:dyn type="Operate" mode="constant" value="true"/> 
    <rt:dyn type="NoSP" mode="constant" value="true"/> 
  </image>
  <path d="M935.892 -336.729 A8.80483 8.80483 0 1 1 935.892 -319.119 " fill="none" stroke="black" transform="flipY() translate(0 -828) translate(229.642 442.62)"/> 
  <image x="1642.61" y="669.03" width="70" height="65" xlink:href="DS_CO_valve.svg" transform="flipX(1.01409e-005)">
    <title>&quot;20LDF12AA011&quot;</title>
    <rt:dyn type="KKS" mode="constant" value="&quot;20LDF12AA011&quot;"/> 
    <rt:dyn type="DATA_NARY" mode="constant" value="&quot;TPTS&quot;"/> 
    <rt:dyn type="Operate" mode="constant" value="true"/> 
  </image>
  <line x1="1166" y1="721" x2="1166" y2="778" stroke="black"/> 
  <image x="1121.26" y="753.392" width="70" height="65" xlink:href="DS_CO_valve.svg" transform="flipY(-10.0003) flipX(0.000113544) rotate(90 0 -10)">
    <title>&quot;20LDF12AA007&quot;</title>
    <rt:dyn type="KKS" mode="constant" value="&quot;20LDF12AA007&quot;"/> 
    <rt:dyn type="DATA_NARY" mode="constant" value="&quot;TPTS&quot;"/> 
    <rt:dyn type="Operate" mode="constant" value="true"/> 
  </image>
  <line x1="1271.5" y1="450" x2="1271.5" y2="704.667" stroke="black"/> 
  <path d="M1041.39 -336.396 A8.80483 8.80483 0 1 1 1041.39 -318.786 " fill="none" stroke="black" transform="flipY() translate(0 -828) translate(229.642 442.62)"/> 
  <line x1="1271.5" y1="720.667" x2="1271.5" y2="777.667" stroke="black"/> 
  <image x="1226.71" y="753.392" width="70" height="65" xlink:href="DS_CO_valve.svg" transform="flipY(-10.0003) flipX(0.000113544) rotate(90 0 -10)">
    <title>&quot;20LDF12AA016&quot;</title>
    <rt:dyn type="KKS" mode="constant" value="&quot;20LDF12AA016&quot;"/> 
    <rt:dyn type="DATA_NARY" mode="constant" value="&quot;TPTS&quot;"/> 
    <rt:dyn type="Operate" mode="constant" value="true"/> 
  </image>
  <image x="106" y="495" width="175" height="25" xlink:href="DS_ana.svg">
    <title>&quot;20LDF10CP001_XQ01&quot;</title>
    <rt:dyn type="FKKS" mode="constant" value="&quot;20LDF10CP001&quot;"/> 
    <rt:dyn type="X" mode="constant" value="&quot;P&quot;"/> 
    <rt:dyn type="ShowFrame" mode="constant" value="true"/> 
    <rt:dyn type="Color_Readings" mode="constant" value="true"/> 
    <rt:dyn type="ValueToTheRight" mode="constant" value="false"/> 
  </image>
  <image x="106" y="465" width="175" height="25" xlink:href="DS_ana.svg">
    <title>&quot;20LDF10CF001_XQ01&quot;</title>
    <rt:dyn type="FKKS" mode="constant" value="&quot;20LDF10CF001&quot;"/> 
    <rt:dyn type="X" mode="constant" value="&quot;F&quot;"/> 
    <rt:dyn type="ShowFrame" mode="constant" value="true"/> 
    <rt:dyn type="Color_Readings" mode="constant" value="true"/> 
    <rt:dyn type="ValueToTheRight" mode="constant" value="false"/> 
  </image>
</svg>
