<?xml  version="1.0" encoding="windows-1251"?>
<svg color="Col_BGSand" xmlns="http://www.w3.org/2000/svg" xmlns:rt="http://www.rts.co.at/2001/XMLSchema/RtSvgPL" xmlns:xlink="http://www.w3.org/1999/xlink" xmlns:xsi="http://www.w3.org/2001/XMLSchema-instance" xsi:schemaLocation="http://www.w3.org/2000/svg C:/RTS/\RtSvg\XML\SVG.xsd" viewBox="0 0 1914 1000" width="1914" height="1000" id="max10">
  <title>система маслоснабжения регулирования турбины</title>
  <rt:model modelversion="7.2.0.24" revision="3" comment="UMod all_nsb&#10;LMod mav2&#10;RMod max51_59"/> 
  <line x1="786.46" y1="665.001" x2="786.25" y2="856.001" stroke="black" stroke-width="1"/> 
  <line x1="1162" y1="625" x2="1363" y2="625" stroke="black" stroke-width="3"/> 
  <line x1="1165" y1="653" x2="1600" y2="653" stroke="black" stroke-width="3"/> 
  <line x1="908.987" y1="149.987" x2="910" y2="538" stroke="black" stroke-width="1"/> 
  <line x1="1121" y1="334" x2="1120.79" y2="525" stroke="black" stroke-width="1"/> 
  <rect x="743" y="489.333" width="424.667" height="46" rx="0.666626" ry="0.666626" fill="Col_BGSand" stroke="black" stroke-width="3"/> 
  <line x1="710.545" y1="658.576" x2="786.303" y2="658.576" stroke="black" stroke-width="1"/> 
  <line x1="61" y1="584" x2="936" y2="585.714" stroke="black" stroke-width="3"/> 
  <image x="1176.27" y="804.546" width="175" height="25" xlink:href="DS_ana.svg">
    <title>&quot;20MAX11CT011&quot;</title>
    <rt:dyn type="FKKS" mode="constant" value="&quot;20MAX11CT011&quot;"/> 
    <rt:dyn type="ShowFrame" mode="constant" value="true"/> 
    <rt:dyn type="X" mode="constant" value="&quot;T&quot;"/> 
    <rt:dyn type="Color_Readings" mode="constant" value="true"/> 
    <rt:dyn type="ValueToTheRight" mode="constant" value="false"/> 
  </image>
  <image x="302.571" y="719.857" width="175" height="25" xlink:href="DS_ana.svg">
    <title>&quot;20PCB90CP002&quot;</title>
    <rt:dyn type="FKKS" mode="constant" value="&quot;20PCB90CP002&quot;"/> 
    <rt:dyn type="ShowFrame" mode="constant" value="true"/> 
    <rt:dyn type="X" mode="constant" value="&quot;P&quot;"/> 
    <rt:dyn type="Color_Readings" mode="constant" value="true"/> 
    <rt:dyn type="ValueToTheRight" mode="constant" value="false"/> 
  </image>
  <line x1="62.286" y1="398.143" x2="61" y2="583.857" stroke="black" stroke-width="3"/> 
  <line x1="234" y1="394.805" x2="234" y2="765" stroke="black" stroke-width="3"/> 
  <line x1="540" y1="395" x2="540" y2="766.234" stroke="black" stroke-width="3"/> 
  <line x1="233.242" y1="395" x2="541.714" y2="395" stroke="black" stroke-width="3"/> 
  <text x="7.9999" y="368" font-size="15">слив из системы<tspan x="7.9999" dy="15">регулирования</tspan>
  </text>
  <g transform="rotate(90 1212.44 532.643)">
    <polygon points="1474.16,-947.455 1487.54,-939.811 1487.54,-955.098 1474.16,-947.455" fill="black" stroke="black" stroke-width="1" transform="rotate(180 1279.17 367.814)"/> 
  </g>
  <g transform="scale(0.59424 0.59424 412.288 437.863) rotate(270 412.288 437.863)">
    <g transform="rotate(90 1094.11 578.015)">
      <rect x="575.18" y="1435.08" width="154.545" height="131.818" rx="0" ry="0" fill="Col_Grey4" stroke="black" stroke-width="3"/> 
      <line x1="650.931" y1="1448.71" x2="699.421" y2="1472.96" stroke="black" stroke-width="3"/> 
      <line x1="604.641" y1="1528.84" x2="653.131" y2="1553.09" stroke="black" stroke-width="3"/> 
      <line x1="697.901" y1="1472.96" x2="602.451" y2="1529.02" stroke="black" stroke-width="3"/> 
      <line x1="652.111" y1="1552.49" x2="652.111" y2="1567.49" stroke="black" stroke-width="3"/> 
      <line x1="652.261" y1="1435.64" x2="652.261" y2="1450.64" stroke="black" stroke-width="3"/> 
    </g>
  </g>
  <g transform="scale(0.59424 0.59424 412.288 437.863) rotate(270 412.288 437.863)">
    <g transform="rotate(90 1094.11 578.015)">
      <rect x="1091.54" y="1433.8" width="154.545" height="131.818" rx="0" ry="0" fill="Col_Grey4" stroke="black" stroke-width="3"/> 
      <line x1="1167.29" y1="1447.43" x2="1215.78" y2="1471.68" stroke="black" stroke-width="3"/> 
      <line x1="1121" y1="1527.56" x2="1169.49" y2="1551.81" stroke="black" stroke-width="3"/> 
      <line x1="1214.26" y1="1471.68" x2="1118.81" y2="1527.74" stroke="black" stroke-width="3"/> 
      <line x1="1168.47" y1="1551.21" x2="1168.47" y2="1566.21" stroke="black" stroke-width="3"/> 
      <line x1="1168.62" y1="1434.36" x2="1168.62" y2="1449.36" stroke="black" stroke-width="3"/> 
    </g>
  </g>
  <text x="96.571" y="502" font-size="15">20MAX61AC001</text>
  <text x="547" y="502" font-size="15">20MAX62AC001</text>
  <line x1="389" y1="764" x2="388" y2="926" stroke="black" stroke-width="3"/> 
  <image x="417" y="815" width="65" height="25" xlink:href="DS_Reg_degree.svg">
    <title>&quot;20PCB90AA201&quot;</title>
    <rt:dyn type="KKS" mode="constant" value="&quot;20PCB90AA201&quot;"/> 
  </image>
  <image x="344" y="790" width="70" height="65" xlink:href="DS_Reg_valve.svg" transform="rotate(270 0 -10)">
    <title>&quot;20PCB90AA201&quot;</title>
    <rt:dyn type="KKS" mode="constant" value="&quot;20PCB90AA201&quot;"/> 
    <rt:dyn type="DATA_NARY" mode="constant" value="&quot;TPTS&quot;"/> 
    <rt:dyn type="Operate" mode="constant" value="true"/> 
  </image>
  <text x="215.325" y="832" font-size="15">20PCB90AA201</text>
  <text x="373.571" y="982.039" font-size="15">PCB</text>
  <line x1="389" y1="267.84" x2="387.857" y2="396.403" stroke="black" stroke-width="3"/> 
  <text x="373.571" y="207.006" font-size="15">PCB</text>
  <line x1="708" y1="150" x2="708" y2="575" stroke="black" stroke-width="1"/> 
  <image x="674.052" y="214.065" width="70" height="70" xlink:href="DS_motor.svg" transform="rotate(270 -0.00012207 -1.52588e-005)">
    <title>&quot;20MXC10AP001&quot;</title>
    <rt:dyn type="KKS" mode="constant" value="&quot;20MXC10AP001&quot;"/> 
    <rt:dyn type="DATA_NARY" mode="constant" value="&quot;TPTS&quot;"/> 
    <rt:dyn type="Operate" mode="constant" value="true"/> 
  </image>
  <text x="591.195" y="249" font-size="15">20MXC10<tspan x="591.195" dy="15">AP001</tspan>
  </text>
  <text x="949.18" y="249.987" font-size="15">20MAX10<tspan x="949.18" dy="15">AT001</tspan>
  </text>
  <rect x="926.828" y="278.39" width="40" height="40" rx="0" ry="0" fill="Col_Grey4" stroke="black" stroke-width="1" transform="scale(1.24889 1.24889 997.981 248.773) rotate(44.1277 997.981 248.773)"/> 
  <line x1="873.597" y1="248.753" x2="900.87" y2="248.753" stroke="black"/> 
  <line x1="915.6" y1="248.851" x2="942.87" y2="248.851" stroke="black"/> 
  <path d="M-409.649 174.144 A8.30551 11.9749 0 1 0 -409.649 198.094 " fill="none" stroke="black" stroke-width="1" transform="flipX(878.38) flipY() translate(0 -828) translate(638.352 55.1549) matrix(-1 0 0 1 0 0)"/> 
  <line x1="708.98" y1="598.506" x2="710.061" y2="659.091" stroke="black" stroke-width="1"/> 
  <rect x="741.576" y="524.242" width="427.273" height="171.212" rx="0" ry="0" fill="gray" stroke="black" stroke-width="1"/> 
  <image x="794.662" y="565.74" width="175" height="25" xlink:href="DS_ana.svg">
    <title>&quot;20MAX10CL001&quot;</title>
    <rt:dyn type="FKKS" mode="constant" value="&quot;20MAX10CL001&quot;"/> 
    <rt:dyn type="ShowFrame" mode="constant" value="true"/> 
    <rt:dyn type="X" mode="constant" value="&quot;L&quot;"/> 
    <rt:dyn type="Color_Readings" mode="constant" value="true"/> 
    <rt:dyn type="ValueToTheRight" mode="constant" value="false"/> 
  </image>
  <image x="794.662" y="611.195" width="175" height="25" xlink:href="DS_ana.svg">
    <title>&quot;20MAX10CP001&quot;</title>
    <rt:dyn type="FKKS" mode="constant" value="&quot;20MAX10CP001&quot;"/> 
    <rt:dyn type="ShowFrame" mode="constant" value="true"/> 
    <rt:dyn type="X" mode="constant" value="&quot;dP&quot;"/> 
    <rt:dyn type="Color_Readings" mode="constant" value="true"/> 
    <rt:dyn type="ValueToTheRight" mode="constant" value="false"/> 
  </image>
  <image x="755.97" y="533.333" width="30.303" height="157.576" xlink:href="DS_ana_bar.svg">
    <title>&quot;20MAX10CL001&quot;</title>
    <rt:dyn type="FKKS" mode="constant" value="&quot;20MAX10CL001&quot;"/> 
  </image>
  <line x1="1136" y1="187.002" x2="1135.5" y2="319.002" stroke="black" stroke-width="1"/> 
  <image x="1086" y="305" width="70" height="70" xlink:href="DS_motor.svg" transform="flipX(-0.00012207) rotate(270 -0.00012207 0)">
    <title>&quot;20MAQ10AN001&quot;</title>
    <rt:dyn type="KKS" mode="constant" value="&quot;20MAQ10AN001&quot;"/> 
    <rt:dyn type="DATA_NARY" mode="constant" value="&quot;TPTS&quot;"/> 
    <rt:dyn type="Operate" mode="constant" value="true"/> 
    <rt:dyn type="DeviceType" mode="constant" value="&quot;fan&quot;"/> 
  </image>
  <text x="1186" y="335" font-size="15">20MAQ10<tspan x="1186" dy="15">AN001</tspan>
  </text>
  <line x1="707" y1="150" x2="1361" y2="150" stroke="black" stroke-width="1"/> 
  <text x="887" y="507.334" font-size="15">20MAX10BB001</text>
  <line x1="1361" y1="66.6666" x2="1361" y2="625" stroke="black" stroke-width="3"/> 
  <g transform="flipY(68.5644) rotate(90 1212.44 532.643)">
    <polygon points="1803.54,352.188 1816.92,359.832 1816.92,344.545 1803.54,352.188" fill="black" stroke="black" stroke-width="1" transform="rotate(180 1279.17 367.814)"/> 
  </g>
  <text x="1297.58" y="52.9091" font-size="15">нестабилизированное давление</text>
  <image x="1326.83" y="518.697" width="70" height="70" xlink:href="DS_motor.svg" transform="rotate(270 -0.00012207 -1.52588e-005)">
    <title>&quot;20MAX11AP001&quot;</title>
    <rt:dyn type="KKS" mode="constant" value="&quot;20MAX11AP001&quot;"/> 
    <rt:dyn type="DATA_NARY" mode="constant" value="&quot;TPTS&quot;"/> 
    <rt:dyn type="Operate" mode="constant" value="true"/> 
  </image>
  <text x="1248.97" y="555.632" font-size="15">20MAX11<tspan x="1248.97" dy="15">AP001</tspan>
  </text>
  <image x="1173.79" y="74.3031" width="175" height="25" xlink:href="DS_ana.svg">
    <title>&quot;20MAX30CT001&quot;</title>
    <rt:dyn type="FKKS" mode="constant" value="&quot;20MAX30CT001&quot;"/> 
    <rt:dyn type="ShowFrame" mode="constant" value="true"/> 
    <rt:dyn type="X" mode="constant" value="&quot;T&quot;"/> 
    <rt:dyn type="Color_Readings" mode="constant" value="true"/> 
    <rt:dyn type="ValueToTheRight" mode="constant" value="false"/> 
  </image>
  <image x="1173.79" y="119.758" width="175" height="25" xlink:href="DS_ana.svg">
    <title>&quot;20MAX30CP001&quot;</title>
    <rt:dyn type="FKKS" mode="constant" value="&quot;20MAX30CP001&quot;"/> 
    <rt:dyn type="ShowFrame" mode="constant" value="true"/> 
    <rt:dyn type="X" mode="constant" value="&quot;P&quot;"/> 
    <rt:dyn type="Color_Readings" mode="constant" value="true"/> 
    <rt:dyn type="ValueToTheRight" mode="constant" value="false"/> 
  </image>
  <g>
    <g transform="scale(0.637183 0.637183 1798.74 214.333)">
      <circle cx="1832.77" cy="151.218" r="48.3826" fill="Col_Grey4" stroke="black"/> 
      <g>
        <circle cx="1832.92" cy="278.369" r="48.4848" fill="Col_Grey4" stroke="black"/> 
      </g>
      <rect x="1784.53" y="150.46" width="96.6226" height="124.625" rx="5.813" ry="0.71241" fill="Col_Grey4" stroke="black"/> 
    </g>
    <line x1="1790" y1="195.793" x2="1851.79" y2="195.99" stroke="black" stroke-width="1"/> 
    <rect x="1806" y="181.043" width="31" height="14.5" rx="0" ry="0" fill="gray" stroke="black"/> 
  </g>
  <g>
    <g transform="scale(0.637183 0.637183 1798.74 214.333)">
      <circle cx="1543.42" cy="151.218" r="48.3826" fill="Col_Grey4" stroke="black"/> 
      <g>
        <circle cx="1543.57" cy="278.369" r="48.4848" fill="Col_Grey4" stroke="black"/> 
      </g>
      <rect x="1495.18" y="150.46" width="96.6226" height="124.625" rx="5.813" ry="0.71241" fill="Col_Grey4" stroke="black"/> 
    </g>
    <line x1="1605.63" y1="195.793" x2="1667.42" y2="195.99" stroke="black" stroke-width="1"/> 
    <rect x="1621.63" y="181.043" width="31" height="14.5" rx="0" ry="0" fill="gray" stroke="black"/> 
  </g>
  <image x="1549.79" y="103.545" width="175" height="25" xlink:href="DS_ana.svg">
    <title>&quot;20MAX31CP001&quot;</title>
    <rt:dyn type="FKKS" mode="constant" value="&quot;20MAX31CP001&quot;"/> 
    <rt:dyn type="ShowFrame" mode="constant" value="true"/> 
    <rt:dyn type="X" mode="constant" value="&quot;P&quot;"/> 
    <rt:dyn type="Color_Readings" mode="constant" value="true"/> 
    <rt:dyn type="ValueToTheRight" mode="constant" value="false"/> 
  </image>
  <image x="1734.12" y="103.545" width="175" height="25" xlink:href="DS_ana.svg">
    <title>&quot;20MAX32CP001&quot;</title>
    <rt:dyn type="FKKS" mode="constant" value="&quot;20MAX32CP001&quot;"/> 
    <rt:dyn type="ShowFrame" mode="constant" value="true"/> 
    <rt:dyn type="X" mode="constant" value="&quot;P&quot;"/> 
    <rt:dyn type="Color_Readings" mode="constant" value="true"/> 
    <rt:dyn type="ValueToTheRight" mode="constant" value="false"/> 
  </image>
  <line x1="1362.19" y1="325.727" x2="1823.67" y2="322.727" stroke="black" stroke-width="3"/> 
  <line x1="1361.67" y1="419.667" x2="1598" y2="419" stroke="black" stroke-width="3"/> 
  <line x1="1596.97" y1="324.242" x2="1598.44" y2="653.906" stroke="black" stroke-width="3"/> 
  <image x="1372.73" y="389.394" width="70" height="52.5" xlink:href="DS_reflux_valve.svg" transform="flipX(-0.000246253)">
    <rt:dyn type="KKS" mode="constant" value="&quot;NULL&quot;"/> 
    <rt:dyn type="DATA_NARY" mode="constant" value="&quot;TPTS&quot;"/> 
  </image>
  <image x="1514.64" y="389.394" width="70" height="52.5" xlink:href="DS_reflux_valve.svg" transform="flipX(-0.000592998) flipX(-0.000246253)">
    <rt:dyn type="KKS" mode="constant" value="&quot;NULL&quot;"/> 
    <rt:dyn type="DATA_NARY" mode="constant" value="&quot;TPTS&quot;"/> 
  </image>
  <text x="1368.18" y="465.667" font-size="15">20MAX11<tspan x="1368.18" dy="15">AA602</tspan>
  </text>
  <text x="1510.06" y="465.667" font-size="15">20MAX12<tspan x="1510.06" dy="15">AA602</tspan>
  </text>
  <line x1="1823.52" y1="286.364" x2="1823.52" y2="324.242" stroke="black" stroke-width="3"/> 
  <line x1="1636" y1="286.364" x2="1636" y2="324.5" stroke="black" stroke-width="3"/> 
  <text x="1521.21" y="212.121" font-size="15">20MAX31<tspan x="1521.21" dy="15">AK001</tspan>
  </text>
  <text x="1703.82" y="212.121" font-size="15">20MAX32<tspan x="1703.82" dy="15">AK001</tspan>
  </text>
  <image x="1563.61" y="518.697" width="70" height="70" xlink:href="DS_motor.svg" transform="rotate(270 -0.00012207 -1.52588e-005)">
    <title>&quot;20MAX12AP001&quot;</title>
    <rt:dyn type="KKS" mode="constant" value="&quot;20MAX12AP001&quot;"/> 
    <rt:dyn type="DATA_NARY" mode="constant" value="&quot;TPTS&quot;"/> 
    <rt:dyn type="Operate" mode="constant" value="true"/> 
  </image>
  <text x="1638" y="555.632" font-size="15">20MAX12<tspan x="1638" dy="15">AP001</tspan>
  </text>
  <line x1="1479.25" y1="333.75" x2="1478.5" y2="418.412" stroke="black" stroke-width="3"/> 
  <path d="M361.399 437.397 A8.30551 11.9749 0 1 0 361.399 461.347 " fill="none" stroke="black" stroke-width="3" transform="flipX(878.38) flipY() translate(0 -828) translate(638.352 55.1549) matrix(-1 0 0 1 0 0)"/> 
  <line x1="1478.98" y1="273.018" x2="1478.5" y2="312.412" stroke="black" stroke-width="3"/> 
  <text x="1365.15" y="257.576" font-size="15">стабилизированное давление</text>
  <g transform="flipY(267.825) rotate(90 1212.44 532.643)">
    <polygon points="1604.28,469.302 1617.66,476.946 1617.66,461.659 1604.28,469.302" fill="black" stroke="black" stroke-width="1" transform="rotate(180 1279.17 367.814)"/> 
  </g>
  <image x="1392.36" y="279.909" width="175" height="25" xlink:href="DS_ana.svg">
    <title>&quot;20MAX20CP001&quot;</title>
    <rt:dyn type="FKKS" mode="constant" value="&quot;20MAX20CP001&quot;"/> 
    <rt:dyn type="ShowFrame" mode="constant" value="true"/> 
    <rt:dyn type="X" mode="constant" value="&quot;P&quot;"/> 
    <rt:dyn type="Color_Readings" mode="constant" value="true"/> 
    <rt:dyn type="ValueToTheRight" mode="constant" value="false"/> 
  </image>
  <image x="1176.27" y="862.121" width="175" height="25" xlink:href="DS_ana.svg">
    <title>&quot;20MAX11CT012&quot;</title>
    <rt:dyn type="FKKS" mode="constant" value="&quot;20MAX11CT012&quot;"/> 
    <rt:dyn type="ShowFrame" mode="constant" value="true"/> 
    <rt:dyn type="X" mode="constant" value="&quot;T&quot;"/> 
    <rt:dyn type="Color_Readings" mode="constant" value="true"/> 
    <rt:dyn type="ValueToTheRight" mode="constant" value="false"/> 
  </image>
  <image x="1558.58" y="804.909" width="175" height="25" xlink:href="DS_ana.svg">
    <title>&quot;20MAX12CT011&quot;</title>
    <rt:dyn type="FKKS" mode="constant" value="&quot;20MAX12CT011&quot;"/> 
    <rt:dyn type="ShowFrame" mode="constant" value="true"/> 
    <rt:dyn type="X" mode="constant" value="&quot;T&quot;"/> 
    <rt:dyn type="Color_Readings" mode="constant" value="true"/> 
    <rt:dyn type="ValueToTheRight" mode="constant" value="false"/> 
  </image>
  <image x="1558.58" y="862.484" width="175" height="25" xlink:href="DS_ana.svg">
    <title>&quot;20MAX12CT012&quot;</title>
    <rt:dyn type="FKKS" mode="constant" value="&quot;20MAX12CT012&quot;"/> 
    <rt:dyn type="ShowFrame" mode="constant" value="true"/> 
    <rt:dyn type="X" mode="constant" value="&quot;T&quot;"/> 
    <rt:dyn type="Color_Readings" mode="constant" value="true"/> 
    <rt:dyn type="ValueToTheRight" mode="constant" value="false"/> 
  </image>
  <text x="1296.36" y="769.697" font-size="15">Т подшипников ЭД насосов регулирования</text>
  <line x1="232.394" y1="765.151" x2="540.865" y2="765.151" stroke="black" stroke-width="3"/> 
  <polygon points="980.22,524.758 979,694 1057.48,694.454 1057.33,524.667" fill="url(#PortalHatch3)" stroke="black" stroke-width="3"/> 
  <rect x="1050" y="524.333" width="16.5757" height="170.121" rx="0.575684" ry="0.575684" fill="url(#PortalHatch1)" stroke="black" stroke-width="3"/> 
  <g transform="flipY(267.825) rotate(90 1212.44 532.643)">
    <polygon points="1522.46,126.878 1535.84,134.522 1535.84,119.235 1522.46,126.878" fill="black" stroke="black" stroke-width="1" transform="rotate(180 1279.17 367.814)"/> 
  </g>
  <image x="1001.67" y="107.576" width="70" height="65" xlink:href="DS_CO_valve.svg">
    <rt:dyn type="Drive" mode="constant" value="&quot;NONE&quot;"/> 
    <rt:dyn type="KKS" mode="constant" value="&quot;NULL&quot;"/> 
    <rt:dyn type="DATA_NARY" mode="constant" value="&quot;AUTO&quot;"/> 
    <rt:dyn type="Operate" mode="constant" value="TRUE"/> 
  </image>
  <text x="1035.79" y="132.197" fill="black" font-size="15" text-anchor="middle">20MAX35AA101</text>
  <image x="401.455" y="310.606" width="175" height="25" xlink:href="DS_ana.svg">
    <title>&quot;20PCB90CP001&quot;</title>
    <rt:dyn type="FKKS" mode="constant" value="&quot;20PCB90CP001&quot;"/> 
    <rt:dyn type="ShowFrame" mode="constant" value="true"/> 
    <rt:dyn type="X" mode="constant" value="&quot;P&quot;"/> 
    <rt:dyn type="Color_Readings" mode="constant" value="true"/> 
    <rt:dyn type="ValueToTheRight" mode="constant" value="false"/> 
  </image>
  <image x="351" y="243.75" width="75" height="25" xlink:href="obj_link.svg" transform="rotate(90 37.3618 12.5)">
    <rt:dyn type="ModName" mode="constant" value="&quot;pcb&quot;"/> 
    <rt:dyn type="TextStr" mode="constant" value="&quot;&quot;"/> 
  </image>
  <image x="350.25" y="918" width="75" height="25" xlink:href="obj_link.svg" transform="rotate(90 37.3618 12.5)">
    <rt:dyn type="ModName" mode="constant" value="&quot;pcb&quot;"/> 
    <rt:dyn type="TextStr" mode="constant" value="&quot;&quot;"/> 
  </image>
  <image x="1453" y="519" width="60" height="45" xlink:href="DS_TPTS_AVR_sel.svg">
    <title>&quot;20MAX10ED001&quot;</title>
    <rt:dyn type="KKS" mode="constant" value="&quot;20MAX10ED001&quot;"/> 
    <rt:dyn type="Operate" mode="constant" value="true"/> 
    <rt:dyn type="VL_type" mode="constant" value="&quot;1o2&quot;"/> 
  </image>
  <text x="867.008" y="811.114" fill="black" font-size="15" text-anchor="middle">20MVA51AA001</text>
  <g transform="flipY(854.375) flipY(267.825) rotate(90 1212.44 532.643)">
    <polygon points="2191.21,-223.122 2204.59,-215.478 2204.59,-230.765 2191.21,-223.122" fill="black" stroke="black" stroke-width="1" transform="rotate(180 1279.17 367.814)"/> 
  </g>
  <line x1="600" y1="164" x2="709.25" y2="164" stroke="black" stroke-width="1"/> 
  <g transform="rotate(270 730.125 185.625) flipY(854.375) flipY(267.825) rotate(90 1212.44 532.643)">
    <polygon points="2887.46,-258.122 2900.84,-250.478 2900.84,-265.765 2887.46,-258.122" fill="black" stroke="black" stroke-width="1" transform="rotate(180 1279.17 367.814)"/> 
  </g>
  <text x="493.25" y="165" font-size="15">Заполнение</text>
  <line x1="597" y1="187.75" x2="706.25" y2="187.75" stroke="black" stroke-width="1"/> 
  <g transform="flipX(597.625) rotate(270 730.125 185.625) flipY(854.375) flipY(267.825) rotate(90 1212.44 532.643)">
    <polygon points="2997.71,-281.872 3011.09,-274.228 3011.09,-289.515 2997.71,-281.872" fill="black" stroke="black" stroke-width="1" transform="rotate(180 1279.17 367.814)"/> 
  </g>
  <text x="550.75" y="194" font-size="15">Слив</text>
  <image x="1728.25" y="931.25" width="85" height="25" xlink:href="obj_link.svg">
    <rt:dyn type="TextStr" mode="constant" value="&quot;MAX51-59&quot;"/> 
    <rt:event type="OnClick">LoadNew(&quot;&quot;)</rt:event>
    <rt:dyn type="ModName" mode="constant" value="&quot;max51_59&quot;"/> 
  </image>
  <image x="780.38" y="107" width="70" height="65" xlink:href="DS_CO_valve.svg">
    <rt:dyn type="Drive" mode="constant" value="&quot;NONE&quot;"/> 
    <rt:dyn type="KKS" mode="constant" value="&quot;NULL&quot;"/> 
    <rt:dyn type="DATA_NARY" mode="constant" value="&quot;AUTO&quot;"/> 
    <rt:dyn type="Operate" mode="constant" value="TRUE"/> 
  </image>
  <text x="814.5" y="131.621" fill="black" font-size="15" text-anchor="middle">20MAX10AA101</text>
  <rect x="153.5" y="76.5" width="184.076" height="34.5" rx="0.666626" ry="0.666626" fill="Col_BGSand" stroke="black" stroke-width="3"/> 
  <rect x="152.5" y="111.409" width="185.5" height="88.591" rx="0" ry="0" fill="gray" stroke="black" stroke-width="1"/> 
  <text x="188" y="98.5" font-size="15">20MVA30BB002</text>
  <text x="180" y="67" font-size="15">Доливочный бак</text>
  <image x="158" y="171" width="175" height="25" xlink:href="DS_ana.svg">
    <title>&quot;20MVA30CL002&quot;</title>
    <rt:dyn type="FKKS" mode="constant" value="&quot;20MVA30CL002&quot;"/> 
    <rt:dyn type="ShowFrame" mode="constant" value="true"/> 
    <rt:dyn type="X" mode="constant" value="&quot;L&quot;"/> 
    <rt:dyn type="Color_Readings" mode="constant" value="true"/> 
    <rt:dyn type="ValueToTheRight" mode="constant" value="false"/> 
  </image>
  <text x="1414" y="825" font-size="15">1  подш.</text>
  <text x="1414" y="875" font-size="15">2  подш.</text>
  <text x="35" y="20.5" fill="black" font-size="15" font-weight="700">MAX10</text>
  <text x="947" y="25" fill="black" font-size="30" font-weight="700" text-anchor="middle">Система маслоснабжения регулирования турбины</text>
  <image x="742" y="773" width="70" height="65" xlink:href="DS_CO_valve.svg" transform="rotate(270 -0.00012207 -9.99994)">
    <title>&quot;20MVA51AA001&quot;</title>
    <rt:dyn type="KKS" mode="constant" value="&quot;20MVA51AA001&quot;"/> 
    <rt:dyn type="DATA_NARY" mode="constant" value="&quot;TPTS&quot;"/> 
    <rt:dyn type="Operate" mode="constant" value="true"/> 
  </image>
</svg>
