<?xml  version="1.0" encoding="UTF-8"?>
<svg color="Col_BGSand" xmlns="http://www.w3.org/2000/svg" xmlns:rt="http://www.rts.co.at/2001/XMLSchema/RtSvgPL" xmlns:xlink="http://www.w3.org/1999/xlink" xmlns:xsi="http://www.w3.org/2001/XMLSchema-instance" xsi:schemaLocation="http://www.w3.org/2000/svg C:\RTS\RtSvg\XML\SVG.xsd" viewBox="0 0 1915 1000" width="1915" height="1000" id="nvo_laj_lcp" fill="none">
  <title>Насосные установки</title>
  <rt:model modelversion="7.2.0.23" comment="Создано VNIIAES-ASUTP" revision="2.0"/> 
  <path d="M126 701 L126.5 700.134 A0.999977 1 0 1 0 126.866 700.5 Z"/> 
  <path d="M151 698 L151.5 696.268 A0.999985 2 0 1 0 151.866 697 Z"/> 
  <path d="M205 700 L219.503 700 A29 0 0 1 0 230.119 700 Z"/> 
  <path d="M175.333 744.667 L175.5 744.667 A0.333328 0.00012207 0 1 0 175.622 744.667 Z"/> 
  <text x="910.5" y="46.6667" fill="black" font-size="32" text-anchor="middle">
    <title>Схема обвязки и КИП вертикальных центробежных насосов</title>
Вибрация LAJ, LCP</text>
  <line x1="494.763" y1="-875.869" x2="494.763" y2="-1003.1" stroke="black" stroke-width="2" transform="flipY() translate(0 -828) translate(-125.933 430.838) scale(1 0.447986)"/> 
  <rect x="1120.58" y="315.31" width="192.355" height="98.6888" rx="0" ry="0" fill="gray" stroke="black" stroke-width="0.601563" transform="flipY() translate(0 -828) translate(-1332.91 -647.812) scale(1.2963 1.65789)"/> 
  <rect x="1254.91" y="229.894" width="137.589" height="96.811" rx="0" ry="0" fill="gray" stroke="black" stroke-width="0.739258" transform="flipY() translate(0 -828) translate(-138.202 -419.83) scale(0.185186 1.34868)"/> 
  <rect x="1639.73" y="227.647" width="137.589" height="96.811" rx="0" ry="0" fill="gray" stroke="black" stroke-width="0.744141" transform="flipY() translate(0 -828) translate(65.6347 -415.304) scale(0.185186 1.3421)"/> 
  <rect x="1485.51" y="-194.122" width="102.857" height="47.4539" rx="0" ry="0" fill="gray" stroke="black" stroke-width="1" transform="flipY() translate(0 -828) translate(9.76786 75.5545) scale(0.25926 0.674339)"/> 
  <rect x="560.019" y="-327.777" width="622.284" height="239.247" rx="0" ry="0" fill="gray" stroke="black" stroke-width="1" transform="flipY() translate(0 -828) translate(290.044 76.3506) scale(0.25926 0.674339)"/> 
  <text x="400" y="966" fill="black" font-size="18" font-weight="bold">B2</text>
  <text x="324" y="970.364" fill="black" font-size="18" font-weight="bold">П2</text>
  <text x="477" y="936.364" fill="black" font-size="18" font-weight="bold">П3</text>
  <line x1="380" y1="910" x2="400" y2="955" stroke="black" stroke-width="1"/> 
  <rect x="1922.03" y="253.051" width="71.1129" height="53.8783" rx="0" ry="0" fill="gray" stroke="black" stroke-width="0.744141" transform="flipY() translate(0 -828) translate(65.6347 -415.304) scale(0.185186 1.3421)"/> 
  <line x1="420.903" y1="867.348" x2="596.903" y2="866.681" stroke="black" stroke-dasharray="5,5"/> 
  <line x1="381.676" y1="914.823" x2="381.569" y2="954.014" stroke="black" stroke-width="1"/> 
  <line x1="146.764" y1="88.8272" x2="173.043" y2="74.3272" stroke="black" stroke-width="0.851563" transform="flipX(368.964) flipY() translate(0 -828) translate(210.397 -229.883) scale(1 1.17241)"/> 
  <circle cx="-1360.45" cy="-1734.37" r="15.1079" fill="#00b0a4" stroke="black" stroke-width="1" transform="flipY() translate(0 -828) translate(758.555 396.012) scale(0.27735 0.27735)"/> 
  <circle cx="-1075.7" cy="-1603.31" r="15.1079" fill="#00b0a4" stroke="black" stroke-width="1" transform="flipY() translate(0 -828) translate(758.555 396.012) scale(0.27735 0.27735)"/> 
  <line x1="-720.566" y1="152.862" x2="-693.485" y2="125.9" stroke="black" stroke-width="0.851563" transform="flipX(854.725) flipX(368.964) flipY() translate(0 -828) translate(210.397 -229.883) scale(1 1.17241)"/> 
  <rect x="1471.64" y="48.4441" width="49.4507" height="55.6819" rx="0" ry="0" fill="gray" stroke="black"/> 
  <rect x="1143" y="25" width="60.9086" height="93.7781" rx="0" ry="0" fill="gray" stroke="black"/> 
  <rect x="683.545" y="218.141" width="424.242" height="45.4545" rx="0" ry="0" fill="gray" stroke="black"/> 
  <rect x="800.56" y="210.308" width="15" height="60" rx="0" ry="0" fill="gray" stroke="black"/> 
  <rect x="827.833" y="210.308" width="15" height="60" rx="0" ry="0" fill="gray" stroke="black"/> 
  <rect x="1181.9" y="201.58" width="695" height="80" rx="0" ry="0" fill="gray" stroke="black"/> 
  <rect x="894.288" y="186.853" width="800" height="110" rx="0" ry="0" fill="gray" stroke="black"/> 
  <rect x="1075.54" y="154.292" width="580" height="180.909" rx="0" ry="0" fill="gray" stroke="black"/> 
  <rect x="1146.24" y="123.989" width="497.273" height="240.909" rx="0" ry="0" fill="gray" stroke="black"/> 
  <rect x="208.697" y="28.5351" width="472" height="114" rx="0" ry="0" fill="Col_Grey4" stroke="black"/> 
  <rect x="218.697" y="38.5351" width="452" height="94" rx="0" ry="0" fill="Col_Grey3" stroke="black"/> 
  <rect x="151.333" y="199.201" width="590.909" height="128.788" rx="0" ry="0" fill="Col_Grey4" stroke="black"/> 
  <rect x="151.485" y="198.353" width="590.909" height="50" rx="0" ry="0" fill="gray" stroke="black"/> 
  <rect x="184.152" y="97.6861" width="527.273" height="290.909" rx="0" ry="0" fill="gray" stroke="black"/> 
  <rect x="1087.94" y="97.6861" width="527.273" height="290.909" rx="0" ry="0" fill="gray" stroke="black"/> 
  <rect x="165.697" y="87.5351" width="563" height="10" rx="0" ry="0" fill="Col_Grey4" stroke="black"/> 
  <rect x="181.697" y="77.5351" width="530" height="10" rx="0" ry="0" fill="Col_Grey4" stroke="black"/> 
  <rect x="1128.14" y="82.0051" width="90" height="15" rx="0" ry="0" fill="gray" stroke="black"/> 
  <rect x="1128.14" y="65.0351" width="90" height="15" rx="0" ry="0" fill="gray" stroke="black"/> 
  <rect x="1457.44" y="87.6261" width="80" height="10" rx="0" ry="0" fill="gray" stroke="black"/> 
  <rect x="1457.44" y="75.6561" width="80" height="10" rx="0" ry="0" fill="gray" stroke="black"/> 
  <rect x="173.515" y="388.792" width="165.152" height="25.7576" rx="0" ry="0" fill="url(#PortalHatch1)" stroke="black"/> 
  <rect x="558.106" y="388.792" width="165.152" height="25.7576" rx="0" ry="0" fill="url(#PortalHatch1)" stroke="black"/> 
  <line x1="650.728" y1="28.202" x2="650.697" y2="59.5351" stroke="black"/> 
  <text x="1294.94" y="241.626" fill="black" font-size="15">20LAJ01AP001</text>
  <image x="1321.7" y="250.035" width="70" height="70" xlink:href="DS_motor.svg" transform="flipY(0.000153661) rotate(90 0 0)"/> 
  <line x1="434.697" y1="42.5351" x2="417.897" y2="72.5351" stroke="black" stroke-width="1"/> 
  <line x1="417.697" y1="72.5351" x2="408.359" y2="58.5781" stroke="black" stroke-width="1"/> 
  <line x1="434.697" y1="42.5351" x2="448.228" y2="60.702" stroke="black" stroke-width="1"/> 
  <line x1="235.697" y1="59.0351" x2="409.025" y2="58.5781" stroke="black" stroke-width="1"/> 
  <line x1="651.197" y1="59.5351" x2="447.728" y2="60.202" stroke="black" stroke-width="1"/> 
  <line x1="235.728" y1="29.202" x2="235.578" y2="58.6391" stroke="black"/> 
  <text x="107.5" y="359.239" fill="black" font-size="18" font-weight="bold">П1</text>
  <line x1="164.842" y1="307.365" x2="164.735" y2="346.556" stroke="black" stroke-width="1"/> 
  <line x1="363.597" y1="606.957" x2="389.877" y2="592.458" stroke="black" stroke-width="0.851563" transform="flipX(368.964) flipY() translate(0 -828) translate(210.397 -229.883) scale(1 1.17241)"/> 
  <circle cx="-2142.26" cy="455.86" r="15.1079" fill="#00b0a4" stroke="black" stroke-width="1" transform="flipY() translate(0 -828) translate(758.555 396.012) scale(0.27735 0.27735)"/> 
  <text x="666.389" y="360.018" fill="black" font-size="18" font-weight="bold">П2</text>
  <line x1="724.064" y1="304.477" x2="723.957" y2="343.668" stroke="black" stroke-width="1"/> 
  <line x1="-195.624" y1="609.42" x2="-169.345" y2="594.92" stroke="black" stroke-width="0.851563" transform="flipX(368.964) flipY() translate(0 -828) translate(210.397 -229.883) scale(1 1.17241)"/> 
  <circle cx="-125.956" cy="466.276" r="15.1079" fill="#00b0a4" stroke="black" stroke-width="1" transform="flipY() translate(0 -828) translate(758.555 396.012) scale(0.27735 0.27735)"/> 
  <text x="1025.28" y="355.906" fill="black" font-size="18" font-weight="bold">П3</text>
  <line x1="1082.62" y1="304.031" x2="1082.51" y2="343.223" stroke="black" stroke-width="1"/> 
  <line x1="-554.181" y1="609.801" x2="-527.901" y2="595.301" stroke="black" stroke-width="0.851563" transform="flipX(368.964) flipY() translate(0 -828) translate(210.397 -229.883) scale(1 1.17241)"/> 
  <circle cx="1166.84" cy="467.879" r="15.1079" fill="#00b0a4" stroke="black" stroke-width="1" transform="flipY() translate(0 -828) translate(758.555 396.012) scale(0.27735 0.27735)"/> 
  <text x="1569.72" y="360.35" fill="black" font-size="18" font-weight="bold">П4</text>
  <line x1="1627.06" y1="308.476" x2="1626.96" y2="347.667" stroke="black" stroke-width="1"/> 
  <line x1="-1098.63" y1="606.01" x2="-1072.35" y2="591.51" stroke="black" stroke-width="0.851563" transform="flipX(368.964) flipY() translate(0 -828) translate(210.397 -229.883) scale(1 1.17241)"/> 
  <circle cx="3129.86" cy="451.854" r="15.1079" fill="#00b0a4" stroke="black" stroke-width="1" transform="flipY() translate(0 -828) translate(758.555 396.012) scale(0.27735 0.27735)"/> 
  <image x="331.333" y="515.804" width="175" height="25" xlink:href="DS_ana.svg">
    <title>&quot;20LAJ01CY101_XQ01&quot;</title>
    <rt:dyn type="FKKS" mode="constant" value="&quot;20LAJ01CY101_XQ01&quot;"/> 
    <rt:dyn type="Color_Readings" mode="constant" value="true"/> 
    <rt:dyn type="ShowFrame" mode="constant" value="true"/> 
    <rt:dyn type="FName" mode="constant" value="true"/> 
  </image>
  <text x="113.993" y="460.394" fill="black" font-size="18" font-weight="bold">Агрегат</text>
  <line x1="36.16" y1="478.954" x2="1881.71" y2="480.284" stroke="black"/> 
  <line x1="258" y1="552.5" x2="1584" y2="552" stroke="black"/> 
  <line x1="257.5" y1="629.5" x2="1583.5" y2="631" stroke="black"/> 
  <text x="419.993" y="460.394" fill="black" font-size="18" font-weight="bold">П1</text>
  <text x="748.993" y="460.394" fill="black" font-size="18" font-weight="bold">П2</text>
  <text x="1060.99" y="460.394" fill="black" font-size="18" font-weight="bold">П3</text>
  <text x="1381.99" y="460.394" fill="black" font-size="18" font-weight="bold">П4</text>
  <text x="1697.99" y="460.394" fill="black" font-size="18" font-weight="bold">Вкл.</text>
  <text x="69" y="585.5" fill="black" font-size="18" font-weight="bold">20LAJ01AP001</text>
  <image x="1688.71" y="557.394" width="70" height="70" xlink:href="DS_motor.svg" transform="flipX() flipX(2.70338e-005)">
    <title>&quot;20LAJ01AP001&quot;</title>
    <rt:dyn type="KKS" mode="constant" value="&quot;20LAJ01AP001&quot;"/> 
    <rt:dyn type="DATA_NARY" mode="constant" value="&quot;TPTS&quot;"/> 
    <rt:dyn type="Operate" mode="constant" value="false"/> 
  </image>
  <image x="331.333" y="591.104" width="175" height="25" xlink:href="DS_ana.svg">
    <title>&quot;20LAJ01CY102_XQ01&quot;</title>
    <rt:dyn type="FKKS" mode="constant" value="&quot;20LAJ01CY102_XQ01&quot;"/> 
    <rt:dyn type="Color_Readings" mode="constant" value="true"/> 
    <rt:dyn type="ShowFrame" mode="constant" value="true"/> 
    <rt:dyn type="FName" mode="constant" value="true"/> 
  </image>
  <image x="331.333" y="671.104" width="175" height="25" xlink:href="DS_ana.svg">
    <title>&quot;20LAJ01CY103_XQ01&quot;</title>
    <rt:dyn type="FKKS" mode="constant" value="&quot;20LAJ01CY103_XQ01&quot;"/> 
    <rt:dyn type="Color_Readings" mode="constant" value="true"/> 
    <rt:dyn type="ShowFrame" mode="constant" value="true"/> 
    <rt:dyn type="FName" mode="constant" value="true"/> 
  </image>
  <rect x="35" y="434" width="1845.5" height="271" rx="0.802917" ry="0.302917" stroke="black"/> 
  <line x1="258" y1="433" x2="258" y2="704.5" stroke="black"/> 
  <line x1="585" y1="433" x2="585" y2="704.5" stroke="black"/> 
  <line x1="921.5" y1="433.5" x2="921" y2="706" stroke="black"/> 
  <line x1="1258" y1="434" x2="1258" y2="706" stroke="black"/> 
  <line x1="1583.5" y1="433.5" x2="1583" y2="704.5" stroke="black"/> 
  <text x="348.09" y="505.333" fill="black" font-size="18" font-weight="normal">20LAJ01CY101</text>
  <text x="350.757" y="582" fill="black" font-size="18" font-weight="normal">20LAJ01CY102</text>
  <text x="352.09" y="660" fill="black" font-size="18" font-weight="normal">20LAJ01CY103</text>
  <image x="675.333" y="516.471" width="175" height="25" xlink:href="DS_ana.svg">
    <title>&quot;20LAJ01CY104_XQ01&quot;</title>
    <rt:dyn type="FKKS" mode="constant" value="&quot;20LAJ01CY104_XQ01&quot;"/> 
    <rt:dyn type="Color_Readings" mode="constant" value="true"/> 
    <rt:dyn type="ShowFrame" mode="constant" value="true"/> 
    <rt:dyn type="FName" mode="constant" value="true"/> 
  </image>
  <image x="675.333" y="591.771" width="175" height="25" xlink:href="DS_ana.svg">
    <title>&quot;20LAJ01CY105_XQ01&quot;</title>
    <rt:dyn type="FKKS" mode="constant" value="&quot;20LAJ01CY105_XQ01&quot;"/> 
    <rt:dyn type="Color_Readings" mode="constant" value="true"/> 
    <rt:dyn type="ShowFrame" mode="constant" value="true"/> 
    <rt:dyn type="FName" mode="constant" value="true"/> 
  </image>
  <image x="675.333" y="671.771" width="175" height="25" xlink:href="DS_ana.svg">
    <title>&quot;20LAJ01CY106_XQ01&quot;</title>
    <rt:dyn type="FKKS" mode="constant" value="&quot;20LAJ01CY106_XQ01&quot;"/> 
    <rt:dyn type="Color_Readings" mode="constant" value="true"/> 
    <rt:dyn type="ShowFrame" mode="constant" value="true"/> 
    <rt:dyn type="FName" mode="constant" value="true"/> 
  </image>
  <text x="692.09" y="505.333" fill="black" font-size="18" font-weight="normal">20LAJ01CY104</text>
  <text x="694.757" y="582" fill="black" font-size="18" font-weight="normal">20LAJ01CY105</text>
  <text x="696.09" y="660" fill="black" font-size="18" font-weight="normal">20LAJ01CY106</text>
  <image x="1004" y="517.138" width="175" height="25" xlink:href="DS_ana.svg">
    <title>&quot;20LAJ01CY107_XQ01&quot;</title>
    <rt:dyn type="FKKS" mode="constant" value="&quot;20LAJ01CY107_XQ01&quot;"/> 
    <rt:dyn type="Color_Readings" mode="constant" value="true"/> 
    <rt:dyn type="ShowFrame" mode="constant" value="true"/> 
    <rt:dyn type="FName" mode="constant" value="true"/> 
  </image>
  <image x="1004" y="592.438" width="175" height="25" xlink:href="DS_ana.svg">
    <title>&quot;20LAJ01CY108_XQ01&quot;</title>
    <rt:dyn type="FKKS" mode="constant" value="&quot;20LAJ01CY108_XQ01&quot;"/> 
    <rt:dyn type="Color_Readings" mode="constant" value="true"/> 
    <rt:dyn type="ShowFrame" mode="constant" value="true"/> 
    <rt:dyn type="FName" mode="constant" value="true"/> 
  </image>
  <image x="1004" y="672.438" width="175" height="25" xlink:href="DS_ana.svg">
    <title>&quot;20LAJ01CY109_XQ01&quot;</title>
    <rt:dyn type="FKKS" mode="constant" value="&quot;20LAJ01CY109_XQ01&quot;"/> 
    <rt:dyn type="Color_Readings" mode="constant" value="true"/> 
    <rt:dyn type="ShowFrame" mode="constant" value="true"/> 
    <rt:dyn type="FName" mode="constant" value="true"/> 
  </image>
  <text x="1020.76" y="505.333" fill="black" font-size="18" font-weight="normal">20LAJ01CY107</text>
  <text x="1023.42" y="582" fill="black" font-size="18" font-weight="normal">20LAJ01CY108</text>
  <text x="1024.76" y="660" fill="black" font-size="18" font-weight="normal">20LAJ01CY109</text>
  <image x="1336.67" y="516.471" width="175" height="25" xlink:href="DS_ana.svg">
    <title>&quot;20LAJ01CY110_XQ01&quot;</title>
    <rt:dyn type="FKKS" mode="constant" value="&quot;20LAJ01CY110_XQ01&quot;"/> 
    <rt:dyn type="Color_Readings" mode="constant" value="true"/> 
    <rt:dyn type="ShowFrame" mode="constant" value="true"/> 
    <rt:dyn type="FName" mode="constant" value="true"/> 
  </image>
  <image x="1336.67" y="591.771" width="175" height="25" xlink:href="DS_ana.svg">
    <title>&quot;20LAJ01CY111_XQ01&quot;</title>
    <rt:dyn type="FKKS" mode="constant" value="&quot;20LAJ01CY111_XQ01&quot;"/> 
    <rt:dyn type="Color_Readings" mode="constant" value="true"/> 
    <rt:dyn type="ShowFrame" mode="constant" value="true"/> 
    <rt:dyn type="FName" mode="constant" value="true"/> 
  </image>
  <image x="1336.67" y="671.771" width="175" height="25" xlink:href="DS_ana.svg">
    <title>&quot;20LAJ01CY112_XQ01&quot;</title>
    <rt:dyn type="FKKS" mode="constant" value="&quot;20LAJ01CY112_XQ01&quot;"/> 
    <rt:dyn type="Color_Readings" mode="constant" value="true"/> 
    <rt:dyn type="ShowFrame" mode="constant" value="true"/> 
    <rt:dyn type="FName" mode="constant" value="true"/> 
  </image>
  <text x="1353.43" y="505.333" fill="black" font-size="18" font-weight="normal">20LAJ01CY110</text>
  <text x="1356.09" y="582" fill="black" font-size="18" font-weight="normal">20LAJ01CY111</text>
  <text x="1357.43" y="660" fill="black" font-size="18" font-weight="normal">20LAJ01CY112</text>
  <text x="267.083" y="505.333" fill="black" font-size="18" font-weight="normal">П</text>
  <text x="268.417" y="582" fill="black" font-size="18" font-weight="normal">П</text>
  <text x="268.417" y="660" fill="black" font-size="18" font-weight="normal">О</text>
  <line x1="295" y1="479" x2="295.667" y2="704.333" stroke="black"/> 
  <text x="596" y="505.334" fill="black" font-size="18" font-weight="normal">П</text>
  <text x="597.334" y="582.001" fill="black" font-size="18" font-weight="normal">П</text>
  <text x="597.334" y="660.001" fill="black" font-size="18" font-weight="normal">О</text>
  <line x1="623.917" y1="479.001" x2="624.584" y2="704.334" stroke="black"/> 
  <text x="934" y="506.334" fill="black" font-size="18" font-weight="normal">П</text>
  <text x="935.334" y="583.001" fill="black" font-size="18" font-weight="normal">П</text>
  <text x="935.334" y="661.001" fill="black" font-size="18" font-weight="normal">О</text>
  <line x1="961.917" y1="480.001" x2="962.584" y2="705.334" stroke="black"/> 
  <text x="1270" y="506.334" fill="black" font-size="18" font-weight="normal">П</text>
  <text x="1271.33" y="583.001" fill="black" font-size="18" font-weight="normal">П</text>
  <text x="1271.33" y="661.001" fill="black" font-size="18" font-weight="normal">О</text>
  <line x1="1297.92" y1="480.001" x2="1298.58" y2="705.334" stroke="black"/> 
  <image x="918.5" y="915.582" width="175" height="25" xlink:href="DS_ana.svg">
    <title>&quot;20LCP10CY101_XQ01&quot;</title>
    <rt:dyn type="FKKS" mode="constant" value="&quot;20LCP10CY101_XQ01&quot;"/> 
    <rt:dyn type="Color_Readings" mode="constant" value="true"/> 
    <rt:dyn type="ShowFrame" mode="constant" value="true"/> 
    <rt:dyn type="FName" mode="constant" value="true"/> 
  </image>
  <text x="751.16" y="846.172" fill="black" font-size="18" font-weight="bold">Агрегат</text>
  <line x1="673.327" y1="864.732" x2="1752.5" y2="863" stroke="black"/> 
  <text x="999.16" y="846.172" fill="black" font-size="18" font-weight="bold">В2</text>
  <text x="1219.16" y="846.172" fill="black" font-size="18" font-weight="bold">П2</text>
  <text x="1431.16" y="846.172" fill="black" font-size="18" font-weight="bold">П3</text>
  <text x="1624" y="845" fill="black" font-size="18" font-weight="bold">Вкл.</text>
  <text x="712.5" y="922" fill="black" font-size="18" font-weight="bold">20LCP10AP001</text>
  <image x="1616.5" y="880" width="70" height="70" xlink:href="DS_motor.svg" transform="flipX() flipX(2.70338e-005)">
    <title>&quot;20LCP10AP001&quot;</title>
    <rt:dyn type="KKS" mode="constant" value="&quot;20LCP10AP001&quot;"/> 
    <rt:dyn type="DATA_NARY" mode="constant" value="&quot;TPTS&quot;"/> 
    <rt:dyn type="Operate" mode="constant" value="false"/> 
  </image>
  <rect x="672.5" y="818" width="1079" height="150" rx="0.802917" ry="0.302917" stroke="black"/> 
  <line x1="897.5" y1="818" x2="897.5" y2="968" stroke="black"/> 
  <line x1="1122.5" y1="818" x2="1122.5" y2="968" stroke="black"/> 
  <line x1="1347.5" y1="818" x2="1347.5" y2="968" stroke="black"/> 
  <text x="935.257" y="905.111" fill="black" font-size="18" font-weight="normal">20LCP10CY101</text>
  <image x="1145.5" y="916.249" width="175" height="25" xlink:href="DS_ana.svg">
    <title>&quot;20LCP10CY102_XQ01&quot;</title>
    <rt:dyn type="FKKS" mode="constant" value="&quot;20LCP10CY102_XQ01&quot;"/> 
    <rt:dyn type="Color_Readings" mode="constant" value="true"/> 
    <rt:dyn type="ShowFrame" mode="constant" value="true"/> 
    <rt:dyn type="FName" mode="constant" value="true"/> 
  </image>
  <text x="1162.26" y="905.111" fill="black" font-size="18" font-weight="normal">20LCP10CY102</text>
  <image x="1374.17" y="916.916" width="175" height="25" xlink:href="DS_ana.svg">
    <title>&quot;20LCP10CY103_XQ01&quot;</title>
    <rt:dyn type="FKKS" mode="constant" value="&quot;20LCP10CY103_XQ01&quot;"/> 
    <rt:dyn type="Color_Readings" mode="constant" value="true"/> 
    <rt:dyn type="ShowFrame" mode="constant" value="true"/> 
    <rt:dyn type="FName" mode="constant" value="true"/> 
  </image>
  <text x="1390.93" y="905.111" fill="black" font-size="18" font-weight="normal">20LCP10CY103</text>
  <line x1="1570" y1="817" x2="1570" y2="967" stroke="black"/> 
  <text x="709.5" y="805.667" fill="black" font-size="32" text-anchor="middle">
    <title>Схема обвязки и КИП вертикальных центробежных насосов</title>
LCP</text>
  <text x="72.5" y="422.667" fill="black" font-size="32" text-anchor="middle">
    <title>Схема обвязки и КИП вертикальных центробежных насосов</title>
LAJ</text>
</svg>
