<?xml  version="1.0" encoding="windows-1251"?>
<svg color="Col_BGSand" xmlns="http://www.w3.org/2000/svg" xmlns:rt="http://www.rts.co.at/2001/XMLSchema/RtSvgPL" xmlns:xlink="http://www.w3.org/1999/xlink" xmlns:xsi="http://www.w3.org/2001/XMLSchema-instance" xsi:schemaLocation="http://www.w3.org/2000/svg C:\RTS\RtSvg\XML\SVG.xsd" viewBox="0 0 1914 1030" width="1914" height="1030" id="pah">
  <title>Система шариковой очистки</title>
  <rt:model modelversion="7.2.0.24" revision="3" comment="UMod all_nsb&#10;LMod pac04&#10;RMod pcb"/> 
  <g transform="flipX(886.545) flipX(666.848) scale(1.51 1.12 1335.03 165.152)">
    <polyline points="1333.87,68.9799 1558.87,68.9799 1558.87,148.98 1708.87,148.98 1708.87,68.9799 1908.89,68.9799 1908.29,253.14 1556.63,253.14 1533.87,273.98 1508.87,273.98 1508.87,298.98 1413.87,298.98 1413.87,272.98 1382.37,272.48 1333.87,221.98 1333.73,68.9128" fill="Col_Grey4" stroke="black" transform="flipX(1378.5) flipX(337.5) flipX(337.5)"/> 
  </g>
  <line x1="102.985" y1="490.763" x2="102.985" y2="788" stroke="black"/> 
  <line x1="293" y1="490.763" x2="293" y2="761.263" stroke="black"/> 
  <line x1="1158.79" y1="411" x2="1140" y2="411" stroke="black"/> 
  <g transform="flipX(666.848) scale(1.51 1.12 1335.03 165.152)">
    <polyline points="1428.57,67.4647 1653.57,67.4647 1653.57,147.465 1803.57,147.465 1803.57,67.4647 2003.59,67.4647 2002.99,251.625 1651.33,251.625 1628.57,272.465 1603.57,272.465 1603.57,297.465 1508.57,297.465 1508.57,271.465 1477.07,270.965 1428.57,220.465 1428.43,67.3976" fill="Col_Grey4" stroke="black" transform="flipX(1378.5) flipX(337.5) flipX(337.5)"/> 
  </g>
  <line x1="1807.5" y1="429.255" x2="1807.75" y2="453.505" stroke="black" stroke-width="3"/> 
  <line x1="1618.25" y1="429.255" x2="1618.5" y2="453.505" stroke="black" stroke-width="3"/> 
  <line x1="1807.5" y1="492.75" x2="1808" y2="788" stroke="black"/> 
  <line x1="1621" y1="492.25" x2="1621" y2="762.75" stroke="black"/> 
  <line x1="698" y1="445" x2="698" y2="445" stroke="black"/> 
  <line x1="411" y1="410" x2="411" y2="410" stroke="black"/> 
  <line x1="448" y1="700" x2="448" y2="700" stroke="black"/> 
  <line x1="400" y1="499" x2="400" y2="499" stroke="black"/> 
  <line x1="400" y1="451" x2="400" y2="451" stroke="black"/> 
  <line x1="358" y1="850" x2="358" y2="850" stroke="black"/> 
  <line x1="82" y1="955" x2="82" y2="955" stroke="black"/> 
  <line x1="585" y1="665" x2="585" y2="665" stroke="black"/> 
  <text x="150" y="113" font-size="15">MAG 10</text>
  <text x="691.5" y="113" font-size="15">MAG 20</text>
  <rect x="154" y="450.5" width="2" height="0" rx="0" ry="0"/> 
  <rect x="293" y="481" width="0.1" height="0" rx="0" ry="0"/> 
  <line x1="479" y1="477" x2="483" y2="475"/> 
  <line x1="616.25" y1="445" x2="616.25" y2="461.25" stroke="black" stroke-width="3"/> 
  <line x1="810.5" y1="442.5" x2="810.5" y2="458.75" stroke="black"/> 
  <line x1="566.5" y1="312.5" x2="566.5" y2="312.5" stroke="black"/> 
  <line x1="559.5" y1="315.5" x2="559.5" y2="315.5" stroke="black"/> 
  <line x1="514" y1="213.75" x2="514" y2="213.75" stroke="black"/> 
  <line x1="523.25" y1="190" x2="523.25" y2="190" stroke="black"/> 
  <line x1="507.75" y1="194.25" x2="507.75" y2="194.25" stroke="black"/> 
  <line x1="537.75" y1="161.75" x2="537.75" y2="161.75" stroke="black"/> 
  <line x1="640.25" y1="150" x2="640.25" y2="150" stroke="black"/> 
  <line x1="441.5" y1="319" x2="441.5" y2="319" stroke="black"/> 
  <line x1="110.5" y1="229.5" x2="110.5" y2="229.5" stroke="black"/> 
  <line x1="389.5" y1="303" x2="389.5" y2="303" stroke="black"/> 
  <line x1="593.5" y1="318.5" x2="593.5" y2="318.5" stroke="black"/> 
  <line x1="593.25" y1="518.5" x2="593.25" y2="518.5" stroke="black"/> 
  <text x="655.5" y="742" font-size="15" text-anchor="middle">в т/п продувки<tspan x="655.5" dy="15">градирни</tspan>
  </text>
  <line x1="265" y1="416.5" x2="240" y2="416.5" stroke="black"/> 
  <line x1="257.5" y1="359" x2="257.5" y2="359" stroke="black"/> 
  <line x1="239.5" y1="415.5" x2="240" y2="490.5" stroke="black"/> 
  <line x1="240" y1="491" x2="340" y2="491" stroke="black"/> 
  <line x1="343.5" y1="502" x2="343.6" y2="502" stroke="black"/> 
  <line x1="315.5" y1="416.5" x2="340" y2="416.5" stroke="black"/> 
  <line x1="344" y1="438" x2="344" y2="437.5" stroke="black"/> 
  <line x1="340.5" y1="416" x2="340" y2="491.5" stroke="black"/> 
  <line x1="387" y1="432" x2="387" y2="432" stroke="black"/> 
  <line x1="82" y1="415.503" x2="57" y2="415.503" stroke="black"/> 
  <line x1="56.5" y1="414.503" x2="57" y2="489.503" stroke="black"/> 
  <line x1="57" y1="490.003" x2="157" y2="490.003" stroke="black"/> 
  <line x1="160.5" y1="501.003" x2="160.6" y2="501.003" stroke="black"/> 
  <line x1="132.5" y1="415.503" x2="157" y2="415.503" stroke="black"/> 
  <line x1="157.5" y1="415.003" x2="157" y2="490" stroke="black"/> 
  <line x1="106.25" y1="443.005" x2="106.5" y2="467.255" stroke="black" stroke-width="3"/> 
  <polygon points="101.5,453.505 111.5,453.505 106.5,469.505"/> 
  <line x1="291.75" y1="442.505" x2="292" y2="466.755" stroke="black" stroke-width="3"/> 
  <polygon points="287,453.505 297,453.505 292,469.505"/> 
  <line x1="341.5" y1="693" x2="341.5" y2="693" stroke="black"/> 
  <line x1="437.5" y1="668.5" x2="437.5" y2="668.5" stroke="black"/> 
  <line x1="436" y1="255" x2="436" y2="255" stroke="black"/> 
  <line x1="522" y1="262.5" x2="522" y2="262.5" stroke="black"/> 
  <line x1="680" y1="694" x2="680" y2="694" stroke="black"/> 
  <line x1="150" y1="696" x2="150" y2="696" stroke="black"/> 
  <line x1="1807" y1="371" x2="1807" y2="246.311" stroke="black" stroke-width="3"/> 
  <line x1="1619" y1="371" x2="1619" y2="285" stroke="black" stroke-width="3"/> 
  <line x1="1781" y1="418.75" x2="1756" y2="418.75" stroke="black"/> 
  <line x1="1755.5" y1="417.75" x2="1756" y2="492.75" stroke="black"/> 
  <line x1="1756" y1="493.25" x2="1856" y2="493.25" stroke="black"/> 
  <line x1="1859.5" y1="504.25" x2="1859.6" y2="504.25" stroke="black"/> 
  <line x1="1831.5" y1="418.75" x2="1856" y2="418.75" stroke="black"/> 
  <line x1="1860" y1="440.25" x2="1860" y2="439.75" stroke="black"/> 
  <line x1="1856.5" y1="418.25" x2="1856" y2="491.75" stroke="black"/> 
  <line x1="1597" y1="417.753" x2="1572" y2="417.753" stroke="black"/> 
  <line x1="1571.5" y1="417.753" x2="1572" y2="492.753" stroke="black"/> 
  <line x1="1571" y1="492.253" x2="1671" y2="492.253" stroke="black"/> 
  <line x1="1644.5" y1="417.753" x2="1669" y2="417.753" stroke="black"/> 
  <line x1="1668" y1="418.253" x2="1668" y2="491.753" stroke="black"/> 
  <polygon points="1613.5,453.505 1623.5,453.505 1618.5,469.505"/> 
  <line x1="1158" y1="410.998" x2="1158" y2="686.998" stroke="black"/> 
  <line x1="1157" y1="687" x2="1354" y2="687" stroke="black"/> 
  <line x1="1252.67" y1="687.833" x2="1252.92" y2="712.083" stroke="black"/> 
  <polygon points="1247.92,712.083 1257.92,712.083 1252.92,728.083"/> 
  <text x="1252.5" y="743" font-size="15" text-anchor="middle">в т/п продувки<tspan x="1252.5" dy="14">градирни</tspan>
  </text>
  <line x1="1167" y1="152" x2="1167" y2="152" stroke="black"/> 
  <image x="629" y="228.061" width="175" height="25" xlink:href="DS_ana.svg" transform="flipX(87.5) flipX(87.5)">
    <title>&quot;20PAB20CP001&quot;</title>
    <rt:dyn type="X" mode="constant" value="&quot;P &quot;"/> 
    <rt:dyn type="ShowFrame" mode="constant" value="true"/> 
    <rt:dyn type="Color_Readings" mode="constant" value="true"/> 
    <rt:dyn type="FKKS" mode="constant" value="&quot;20PAB20CP001&quot;"/> 
    <rt:dyn type="ValueToTheRight" mode="constant" value="false"/> 
  </image>
  <image x="422" y="228.061" width="175" height="25" xlink:href="DS_ana.svg">
    <title>&quot;20PAB10CP001&quot;</title>
    <rt:dyn type="X" mode="constant" value="&quot;P &quot;"/> 
    <rt:dyn type="ShowFrame" mode="constant" value="true"/> 
    <rt:dyn type="Color_Readings" mode="constant" value="true"/> 
    <rt:dyn type="FKKS" mode="constant" value="&quot;20PAB10CP001&quot;"/> 
    <rt:dyn type="ValueToTheRight" mode="constant" value="false"/> 
  </image>
  <line x1="189.333" y1="580.667" x2="189.333" y2="580.667" stroke="black"/> 
  <line x1="184.667" y1="492.667" x2="184.667" y2="492.667" stroke="black"/> 
  <line x1="160" y1="480.667" x2="160" y2="480.667" stroke="black"/> 
  <line x1="356.667" y1="576.667" x2="356.667" y2="576.667" stroke="black"/> 
  <line x1="332.667" y1="480" x2="332.667" y2="480" stroke="black"/> 
  <line x1="308.667" y1="484.667" x2="308.667" y2="484.667" stroke="black"/> 
  <text x="292" y="486" font-size="15" text-anchor="middle">РАВ15</text>
  <text x="106" y="486" font-size="15" text-anchor="middle">РАВ25</text>
  <text x="592" y="569" font-size="15">РАС01</text>
  <text x="786" y="569" font-size="15">РАС02</text>
  <line x1="1104" y1="289" x2="1021.5" y2="289" stroke="black"/> 
  <line x1="1022" y1="288" x2="1022" y2="788" stroke="black"/> 
  <line x1="1022" y1="787.591" x2="1808.62" y2="787.591" stroke="black"/> 
  <line x1="1299" y1="289" x2="1403.97" y2="289" stroke="black"/> 
  <line x1="1341" y1="270" x2="1341" y2="270" stroke="black"/> 
  <line x1="1402" y1="288" x2="1402" y2="762" stroke="black"/> 
  <line x1="1401" y1="762" x2="1621.46" y2="762" stroke="black"/> 
  <text x="1164" y="113" font-size="15">MAG 30</text>
  <text x="1705.3" y="107.939" font-size="15">MAG 40</text>
  <text x="1808" y="486" font-size="15" text-anchor="middle">РАВ35</text>
  <text x="1620" y="486" font-size="15" text-anchor="middle">РАВ45</text>
  <image x="1315.15" y="228.061" width="175" height="25" xlink:href="DS_ana.svg">
    <title>&quot;20PAB40CP001&quot;</title>
    <rt:dyn type="ShowFrame" mode="constant" value="true"/> 
    <rt:dyn type="Color_Readings" mode="constant" value="true"/> 
    <rt:dyn type="FKKS" mode="constant" value="&quot;20PAB40CP001&quot;"/> 
    <rt:dyn type="ValueToTheRight" mode="constant" value="false"/> 
    <rt:dyn type="X" mode="constant" value="&quot;P&quot;"/> 
  </image>
  <image x="1119.09" y="228.061" width="175" height="25" xlink:href="DS_ana.svg">
    <title>&quot;20PAB30CP001&quot;</title>
    <rt:dyn type="ShowFrame" mode="constant" value="true"/> 
    <rt:dyn type="Color_Readings" mode="constant" value="true"/> 
    <rt:dyn type="FKKS" mode="constant" value="&quot;20PAB30CP001&quot;"/> 
    <rt:dyn type="ValueToTheRight" mode="constant" value="false"/> 
    <rt:dyn type="X" mode="constant" value="&quot;P&quot;"/> 
  </image>
  <text x="325" y="373" font-size="15">20PAH15<tspan x="325" dy="15">AT001</tspan>
  </text>
  <text x="141" y="373" font-size="15">20PAH25<tspan x="141" dy="15">AT001</tspan>
  </text>
  <image x="68.5" y="525" width="70" height="70" xlink:href="DS_motor.svg" transform="rotate(90 0 0)">
    <rt:dyn type="KKS" mode="constant" value="&quot;NULL&quot;"/> 
    <rt:dyn type="DATA_NARY" mode="constant" value="&quot;TPTS&quot;"/> 
    <rt:dyn type="Operate" mode="constant" value="true"/> 
  </image>
  <text x="5" y="558" font-size="15">20PAH25<tspan x="5" dy="15">AP001</tspan>
  </text>
  <text x="192" y="558.5" font-size="15">20PAH15<tspan x="192" dy="15">AP001</tspan>
  </text>
  <text x="110" y="736.333" font-size="15">20PAH25<tspan x="110" dy="15">BB001</tspan>
  </text>
  <text x="300.667" y="736.333" font-size="15">20PAH15<tspan x="300.667" dy="15">BB001</tspan>
  </text>
  <text x="529" y="369" font-size="15">20PBB10<tspan x="529" dy="15">AT001</tspan>
  </text>
  <text x="722.333" y="369" font-size="15">20PBB20<tspan x="722.333" dy="15">AT001</tspan>
  </text>
  <text x="581" y="634" font-size="15">20PBB10<tspan x="581" dy="15">AA001</tspan>
  </text>
  <text x="778" y="638" font-size="15">20PBB20<tspan x="778" dy="15">AA001</tspan>
  </text>
  <image x="1112.5" y="599.5" width="70" height="65" xlink:href="DS_CO_valve.svg" transform="rotate(270 0 -10)">
    <rt:dyn type="KKS" mode="constant" value="&quot;NULL&quot;"/> 
    <rt:dyn type="DATA_NARY" mode="constant" value="&quot;TPTS&quot;"/> 
    <rt:dyn type="Operate" mode="constant" value="true"/> 
  </image>
  <image x="1772.5" y="525" width="70" height="70" xlink:href="DS_motor.svg" transform="rotate(90 0 0)">
    <rt:dyn type="KKS" mode="constant" value="&quot;NULL&quot;"/> 
    <rt:dyn type="DATA_NARY" mode="constant" value="&quot;TPTS&quot;"/> 
    <rt:dyn type="Operate" mode="constant" value="true"/> 
  </image>
  <image x="1586" y="525" width="70" height="70" xlink:href="DS_motor.svg" transform="rotate(90 0 0)">
    <rt:dyn type="KKS" mode="constant" value="&quot;NULL&quot;"/> 
    <rt:dyn type="DATA_NARY" mode="constant" value="&quot;TPTS&quot;"/> 
    <rt:dyn type="Operate" mode="constant" value="true"/> 
  </image>
  <text x="1323" y="370" font-size="15">20PBB40<tspan x="1323" dy="14">AT001</tspan>
  </text>
  <text x="1126.5" y="370" font-size="15">20PBB30<tspan x="1126.5" dy="14">AT001</tspan>
  </text>
  <text x="1046.5" y="630" font-size="15">20PBB30<tspan x="1046.5" dy="14">AA001</tspan>
  </text>
  <text x="1242" y="630.5" font-size="15">20PBB40<tspan x="1242" dy="14">AA001</tspan>
  </text>
  <text x="1650.94" y="373" font-size="15">20PAH45<tspan x="1650.94" dy="14">AT001</tspan>
  </text>
  <text x="1841.19" y="373" font-size="15">20PAH35<tspan x="1841.19" dy="14">AT001</tspan>
  </text>
  <text x="1533.42" y="737.333" font-size="15">20PAH45<tspan x="1533.42" dy="14">BB001</tspan>
  </text>
  <text x="1720.67" y="737.333" font-size="15">20PAH35<tspan x="1720.67" dy="14">BB001</tspan>
  </text>
  <text x="1520" y="557.5" font-size="15">20PAH45<tspan x="1520" dy="14">AP001</tspan>
  </text>
  <text x="1700" y="557.5" font-size="15">20PAH35<tspan x="1700" dy="14">AP001</tspan>
  </text>
  <line x1="633.1" y1="521.86" x2="633.2" y2="521.86" stroke="black"/> 
  <text x="1082" y="569" font-size="15">РАС03</text>
  <text x="1271" y="569" font-size="15">РАС04</text>
  <g transform="scale(1.43993 1.43993 1808.52 196.97)">
    <line x1="1807.75" y1="232.2" x2="1827.75" y2="211.2" stroke="black" stroke-width="3"/> 
    <line x1="1827.75" y1="210.7" x2="1790" y2="210.95" stroke="black" stroke-width="3"/> 
    <line x1="1790.5" y1="210.45" x2="1808" y2="188.45" stroke="black" stroke-width="3"/> 
  </g>
  <g transform="scale(1.43993 1.43993 1808.52 196.97)">
    <line x1="1455.25" y1="225.886" x2="1475.25" y2="204.886" stroke="black" stroke-width="3"/> 
    <line x1="1475.25" y1="204.386" x2="1437.5" y2="204.636" stroke="black" stroke-width="3"/> 
    <line x1="1438" y1="204.136" x2="1455.5" y2="182.136" stroke="black" stroke-width="3"/> 
  </g>
  <g transform="scale(1.43993 1.43993 1808.52 196.97)">
    <line x1="1676.22" y1="226.939" x2="1696.22" y2="205.939" stroke="black" stroke-width="3"/> 
    <line x1="1696.22" y1="205.439" x2="1658.47" y2="205.689" stroke="black" stroke-width="3"/> 
    <line x1="1658.97" y1="205.189" x2="1676.47" y2="183.189" stroke="black" stroke-width="3"/> 
  </g>
  <g transform="scale(1.43993 1.43993 1808.52 196.97)">
    <line x1="1319.51" y1="226.939" x2="1339.51" y2="205.939" stroke="black" stroke-width="3"/> 
    <line x1="1339.51" y1="205.439" x2="1301.76" y2="205.689" stroke="black" stroke-width="3"/> 
    <line x1="1302.26" y1="205.189" x2="1319.76" y2="183.189" stroke="black" stroke-width="3"/> 
  </g>
  <line x1="1105.48" y1="483.697" x2="1104.75" y2="238.811" stroke="black" stroke-width="3"/> 
  <polygon points="1803,453.505 1813,453.505 1808,469.505"/> 
  <g>
    <line x1="1299.03" y1="161.5" x2="1618.03" y2="161.5" stroke="black" stroke-width="3"/> 
    <line x1="1104" y1="177.25" x2="1104" y2="132" stroke="black" stroke-width="3"/> 
    <line x1="1103.97" y1="133" x2="1809" y2="133" stroke="black" stroke-width="3"/> 
    <line x1="1299.41" y1="175.606" x2="1299.41" y2="161" stroke="black" stroke-width="3"/> 
    <line x1="1618.53" y1="178" x2="1618.53" y2="161.5" stroke="black" stroke-width="3"/> 
    <line x1="1808" y1="184.25" x2="1808" y2="133" stroke="black" stroke-width="3"/> 
  </g>
  <g transform="flipX(1471.39)">
    <line x1="2329.18" y1="161.652" x2="2648.18" y2="161.652" stroke="black" stroke-width="3"/> 
    <line x1="2134.15" y1="177.402" x2="2134.15" y2="132.151" stroke="black" stroke-width="3"/> 
    <line x1="2134.12" y1="133.151" x2="2837" y2="133.151" stroke="black" stroke-width="3"/> 
    <line x1="2329.56" y1="175.758" x2="2329.56" y2="161.152" stroke="black" stroke-width="3"/> 
    <line x1="2648.68" y1="178.152" x2="2648.68" y2="161.652" stroke="black" stroke-width="3"/> 
    <line x1="2837.15" y1="183.402" x2="2837.15" y2="132.151" stroke="black" stroke-width="3"/> 
  </g>
  <g transform="scale(1.43993 1.43993 1808.52 196.97)">
    <line x1="1114.34" y1="227.633" x2="1134.34" y2="206.633" stroke="black" stroke-width="3"/> 
    <line x1="1134.34" y1="206.133" x2="1096.59" y2="206.383" stroke="black" stroke-width="3"/> 
    <line x1="1097.09" y1="205.883" x2="1114.59" y2="183.883" stroke="black" stroke-width="3"/> 
  </g>
  <g transform="scale(1.43993 1.43993 1808.52 196.97)">
    <line x1="756.289" y1="227.569" x2="776.289" y2="206.569" stroke="black" stroke-width="3"/> 
    <line x1="776.983" y1="206.069" x2="739.233" y2="206.319" stroke="black" stroke-width="3"/> 
    <line x1="739.733" y1="205.819" x2="757.233" y2="183.819" stroke="black" stroke-width="3"/> 
  </g>
  <g transform="scale(1.43993 1.43993 1808.52 196.97)">
    <line x1="978.648" y1="226.539" x2="998.648" y2="205.539" stroke="black" stroke-width="3"/> 
    <line x1="998.648" y1="205.039" x2="960.898" y2="205.289" stroke="black" stroke-width="3"/> 
    <line x1="961.398" y1="204.789" x2="978.898" y2="182.789" stroke="black" stroke-width="3"/> 
  </g>
  <g transform="scale(1.43993 1.43993 1808.52 196.97)">
    <line x1="626.105" y1="230.706" x2="646.105" y2="209.706" stroke="black" stroke-width="3"/> 
    <line x1="646.105" y1="209.206" x2="608.355" y2="209.456" stroke="black" stroke-width="3"/> 
    <line x1="608.855" y1="208.956" x2="626.355" y2="186.956" stroke="black" stroke-width="3"/> 
  </g>
  <line x1="891.079" y1="289" x2="808.579" y2="289" stroke="black"/> 
  <line x1="509.88" y1="289" x2="614.85" y2="289" stroke="black"/> 
  <image x="1092.5" y="547.53" width="75" height="25" xlink:href="obj_link.svg" fill="Col_Grey2" transform="rotate(270 0 0) flipX(37.5) flipX(37.5)">
    <rt:dyn type="ModName" mode="constant" value="&quot;pac03&quot;"/> 
    <rt:dyn type="TextStr" mode="constant" value="&quot;&quot;"/> 
  </image>
  <line x1="1354.79" y1="411.5" x2="1336" y2="411.5" stroke="black"/> 
  <line x1="1354" y1="411.498" x2="1354" y2="687.498" stroke="black"/> 
  <image x="1308.5" y="603" width="70" height="65" xlink:href="DS_CO_valve.svg" transform="rotate(270 0 -10)">
    <rt:dyn type="KKS" mode="constant" value="&quot;NULL&quot;"/> 
    <rt:dyn type="DATA_NARY" mode="constant" value="&quot;TPTS&quot;"/> 
    <rt:dyn type="Operate" mode="constant" value="true"/> 
  </image>
  <line x1="1299" y1="482.887" x2="1299" y2="256" stroke="black" stroke-width="3"/> 
  <image x="1286.56" y="547.53" width="75" height="25" xlink:href="obj_link.svg" fill="Col_Grey2" transform="rotate(270 0 0) flipX(37.5) flipX(37.5)">
    <rt:dyn type="ModName" mode="constant" value="&quot;pac04&quot;"/> 
    <rt:dyn type="TextStr" mode="constant" value="&quot;&quot;"/> 
  </image>
  <line x1="889.742" y1="288" x2="889.742" y2="788" stroke="black"/> 
  <line x1="103" y1="787.5" x2="889.62" y2="787.5" stroke="black"/> 
  <line x1="774.79" y1="410.5" x2="756" y2="410.5" stroke="black"/> 
  <line x1="756" y1="409.998" x2="756" y2="685.998" stroke="black"/> 
  <line x1="560.03" y1="687.227" x2="757.03" y2="687.227" stroke="black"/> 
  <line x1="654.7" y1="688.06" x2="654.95" y2="712.31" stroke="black"/> 
  <polygon points="649.95,712.31 659.95,712.31 654.95,728.31"/> 
  <line x1="579.79" y1="412.5" x2="561" y2="412.5" stroke="black"/> 
  <line x1="560" y1="411.998" x2="560" y2="687.998" stroke="black"/> 
  <image x="514" y="603" width="70" height="65" xlink:href="DS_CO_valve.svg" transform="rotate(270 0 -10)">
    <rt:dyn type="KKS" mode="constant" value="&quot;NULL&quot;"/> 
    <rt:dyn type="DATA_NARY" mode="constant" value="&quot;TPTS&quot;"/> 
    <rt:dyn type="Operate" mode="constant" value="true"/> 
  </image>
  <image x="710" y="603" width="70" height="65" xlink:href="DS_CO_valve.svg" transform="rotate(270 0 -10)">
    <rt:dyn type="KKS" mode="constant" value="&quot;NULL&quot;"/> 
    <rt:dyn type="DATA_NARY" mode="constant" value="&quot;TPTS&quot;"/> 
    <rt:dyn type="Operate" mode="constant" value="true"/> 
  </image>
  <line x1="613" y1="484.706" x2="613" y2="255" stroke="black" stroke-width="3"/> 
  <image x="600.5" y="547.53" width="75" height="25" xlink:href="obj_link.svg" fill="Col_Grey2" transform="rotate(270 0 0) flipX(37.5) flipX(37.5)">
    <rt:dyn type="ModName" mode="constant" value="&quot;pac01&quot;"/> 
    <rt:dyn type="TextStr" mode="constant" value="&quot;&quot;"/> 
  </image>
  <line x1="809.23" y1="486.312" x2="808.5" y2="241.426" stroke="black" stroke-width="3"/> 
  <image x="796.561" y="547.53" width="75" height="25" xlink:href="obj_link.svg" fill="Col_Grey2" transform="rotate(270 0 0) flipX(37.5) flipX(37.5)">
    <rt:dyn type="ModName" mode="constant" value="&quot;pac02&quot;"/> 
    <rt:dyn type="TextStr" mode="constant" value="&quot;&quot;"/> 
  </image>
  <line x1="291.151" y1="761.151" x2="511.611" y2="761.151" stroke="black"/> 
  <line x1="510.591" y1="288" x2="510.591" y2="762.296" stroke="black"/> 
  <image x="258" y="525" width="70" height="70" xlink:href="DS_motor.svg" transform="rotate(90 0 0)">
    <rt:dyn type="KKS" mode="constant" value="&quot;NULL&quot;"/> 
    <rt:dyn type="DATA_NARY" mode="constant" value="&quot;TPTS&quot;"/> 
    <rt:dyn type="Operate" mode="constant" value="true"/> 
  </image>
  <line x1="106.53" y1="374.144" x2="106.53" y2="243.455" stroke="black" stroke-width="3"/> 
  <line x1="293" y1="369.689" x2="293" y2="286" stroke="black" stroke-width="3"/> 
  <g transform="scale(1.33 1.33 615.5 376)">
    <rect x="493.316" y="180.508" width="49" height="50" rx="0" ry="0" fill="Col_Grey4" stroke="black" transform="rotate(135.493 525.5 325)">
      <title>20PBB10AT001</title>
    </rect>
    <line x1="580.748" y1="404.572" x2="648.748" y2="404.572" stroke="black" stroke-dasharray="15,5"/> 
  </g>
  <g transform="scale(1.33 1.33 615.5 376)">
    <rect x="386.649" y="79.7182" width="49" height="50" rx="0" ry="0" fill="Col_Grey4" stroke="black" transform="rotate(135.493 525.5 325)">
      <title>20PBB10AT001</title>
    </rect>
    <line x1="727.481" y1="401.678" x2="795.481" y2="401.678" stroke="black" stroke-dasharray="15,5"/> 
  </g>
  <g transform="scale(1.33 1.33 615.5 376)">
    <rect x="228.469" y="-75.6014" width="49" height="50" rx="0" ry="0" fill="Col_Grey4" stroke="black" transform="rotate(135.493 525.5 325)">
      <title>20PBB10AT001</title>
    </rect>
    <line x1="949.173" y1="401.564" x2="1017.17" y2="401.564" stroke="black" stroke-dasharray="15,5"/> 
  </g>
  <g transform="scale(1.33 1.33 615.5 376)">
    <rect x="124.428" y="-178.923" width="49" height="50" rx="0" ry="0" fill="Col_Grey4" stroke="black" transform="rotate(135.493 525.5 325)">
      <title>20PBB10AT001</title>
    </rect>
    <line x1="1095.79" y1="402.316" x2="1163.79" y2="402.316" stroke="black" stroke-dasharray="15,5"/> 
  </g>
  <g transform="scale(1.22 1.22 106 368)">
    <rect x="80.9998" y="357.55" width="50" height="75" rx="0" ry="0" fill="Col_Grey4" stroke="black">
      <title>20PAH25AT001</title>
    </rect>
    <line x1="88.4768" y1="413.204" x2="82.9768" y2="430.704" stroke="black"/> 
    <line x1="105.977" y1="359.704" x2="99.977" y2="378.204" stroke="black"/> 
    <line x1="97.9768" y1="385.704" x2="91.9768" y2="403.204" stroke="black"/> 
    <line x1="106.977" y1="359.704" x2="112.477" y2="376.704" stroke="black"/> 
    <line x1="114.977" y1="384.204" x2="120.977" y2="401.704" stroke="black"/> 
    <line x1="122.477" y1="409.704" x2="128.977" y2="429.204" stroke="black"/> 
  </g>
  <g transform="scale(1.22 1.22 106 368)">
    <rect x="233.459" y="357.55" width="50" height="75" rx="0" ry="0" fill="Col_Grey4" stroke="black">
      <title>20PAH25AT001</title>
    </rect>
    <line x1="240.936" y1="413.204" x2="235.436" y2="430.704" stroke="black"/> 
    <line x1="258.436" y1="359.704" x2="252.436" y2="378.204" stroke="black"/> 
    <line x1="250.436" y1="385.704" x2="244.436" y2="403.204" stroke="black"/> 
    <line x1="259.436" y1="359.704" x2="264.936" y2="376.704" stroke="black"/> 
    <line x1="267.436" y1="384.204" x2="273.436" y2="401.704" stroke="black"/> 
    <line x1="274.936" y1="409.704" x2="281.436" y2="429.204" stroke="black"/> 
  </g>
  <g transform="scale(1.22 1.22 106 368)">
    <rect x="1321.02" y="357.128" width="50" height="75" rx="0" ry="0" fill="Col_Grey4" stroke="black">
      <title>20PAH25AT001</title>
    </rect>
    <line x1="1328.5" y1="412.782" x2="1323" y2="430.282" stroke="black"/> 
    <line x1="1346" y1="359.282" x2="1340" y2="377.782" stroke="black"/> 
    <line x1="1338" y1="385.282" x2="1332" y2="402.782" stroke="black"/> 
    <line x1="1347" y1="359.282" x2="1352.5" y2="376.282" stroke="black"/> 
    <line x1="1355" y1="383.782" x2="1361" y2="401.282" stroke="black"/> 
    <line x1="1362.5" y1="409.282" x2="1369" y2="428.782" stroke="black"/> 
  </g>
  <g transform="scale(1.22 1.22 106 368)">
    <rect x="1474.99" y="357.103" width="50" height="75" rx="0" ry="0" fill="Col_Grey4" stroke="black">
      <title>20PAH25AT001</title>
    </rect>
    <line x1="1482.47" y1="412.757" x2="1476.97" y2="430.257" stroke="black"/> 
    <line x1="1499.97" y1="359.257" x2="1493.97" y2="377.757" stroke="black"/> 
    <line x1="1491.97" y1="385.257" x2="1485.97" y2="402.757" stroke="black"/> 
    <line x1="1500.97" y1="359.257" x2="1506.47" y2="376.257" stroke="black"/> 
    <line x1="1508.97" y1="383.757" x2="1514.97" y2="401.257" stroke="black"/> 
    <line x1="1516.47" y1="409.257" x2="1522.97" y2="428.757" stroke="black"/> 
  </g>
  <g transform="scale(0.599994 0.599994 102.455 657.576)">
    <circle cx="102" cy="719.417" r="46" fill="Col_Grey4" stroke="black"/> 
    <line x1="64.796" y1="692.07" x2="87.296" y2="708.57" stroke="black"/> 
    <line x1="91.296" y1="712.57" x2="113.796" y2="729.57" stroke="black"/> 
    <line x1="118.296" y1="732.07" x2="137.296" y2="747.07" stroke="black"/> 
  </g>
  <g transform="scale(0.580006 0.580006 291.848 657.576)">
    <circle cx="292" cy="721.542" r="46" fill="Col_Grey4" stroke="black"/> 
    <line x1="255.796" y1="693.195" x2="278.296" y2="709.695" stroke="black"/> 
    <line x1="282.296" y1="713.695" x2="304.796" y2="730.695" stroke="black"/> 
    <line x1="309.296" y1="733.195" x2="328.296" y2="748.195" stroke="black"/> 
  </g>
  <g transform="scale(0.599946 0.599946 1617.61 657.576)">
    <circle cx="1618" cy="719.422" r="46" fill="Col_Grey4" stroke="black"/> 
    <line x1="1580.3" y1="693.325" x2="1602.8" y2="709.825" stroke="black"/> 
    <line x1="1608.8" y1="713.825" x2="1631.3" y2="730.825" stroke="black"/> 
    <line x1="1635.8" y1="733.325" x2="1654.8" y2="748.325" stroke="black"/> 
  </g>
  <g transform="scale(0.570032 0.570032 1806.24 657.576)">
    <circle cx="1806" cy="722.658" r="46" fill="Col_Grey4" stroke="black"/> 
    <line x1="1771.3" y1="696.061" x2="1793.8" y2="712.561" stroke="black"/> 
    <line x1="1797.8" y1="716.561" x2="1820.3" y2="733.561" stroke="black"/> 
    <line x1="1824.8" y1="736.061" x2="1843.8" y2="751.061" stroke="black"/> 
  </g>
  <line x1="293.5" y1="291.25" x2="293.5" y2="240" stroke="black" stroke-width="3"/> 
  <line x1="613" y1="239.003" x2="613" y2="260" stroke="black" stroke-width="3"/> 
  <line x1="1299" y1="238.003" x2="1299" y2="259" stroke="black" stroke-width="3"/> 
  <line x1="1619" y1="239" x2="1619" y2="291" stroke="black" stroke-width="3"/> 
  <rect x="103.985" y="808.5" width="172.5" height="218.75" rx="0" ry="0" fill="none" stroke="black" stroke-width="3"/> 
  <text x="162.735" y="837.375" font-size="15">СШО 2</text>
  <image x="135" y="985" width="25" height="25" xlink:href="bin_indicator.svg">
    <title>&quot;20PAH25CG103_XG01&quot;</title>
    <rt:dyn type="PointID" mode="constant" value="&quot;20PAH25CG103_XG01&quot;"/> 
  </image>
  <image x="135" y="937.25" width="25" height="25" xlink:href="bin_indicator.svg">
    <title>&quot;20PAH25CG102_XG01&quot;</title>
    <rt:dyn type="PointID" mode="constant" value="&quot;20PAH25CG102_XG01&quot;"/> 
  </image>
  <image x="135" y="885" width="26" height="27" xlink:href="bin_indicator.svg">
    <title>&quot;20PAH25CG101_XG01&quot;</title>
    <rt:dyn type="PointID" mode="constant" value="&quot;20PAH25CG101_XG01&quot;"/> 
  </image>
  <text x="175.484" y="904.375" font-size="15">ВКЛ</text>
  <text x="175.484" y="953.375" font-size="15">ОТКЛ</text>
  <text x="175.484" y="1002.38" font-size="15">НЕИСПР</text>
  <rect x="291" y="808.5" width="172.5" height="218.75" rx="0" ry="0" fill="none" stroke="black" stroke-width="3"/> 
  <text x="349.75" y="837.375" font-size="15">СШО 1</text>
  <image x="325.001" y="984.875" width="25" height="25" xlink:href="bin_indicator.svg">
    <title>&quot;20PAH15CG103_XG01&quot;</title>
    <rt:dyn type="PointID" mode="constant" value="&quot;20PAH15CG103_XG01&quot;"/> 
  </image>
  <image x="325.001" y="935.875" width="25" height="25" xlink:href="bin_indicator.svg">
    <title>&quot;20PAH15CG102_XG01&quot;</title>
    <rt:dyn type="PointID" mode="constant" value="&quot;20PAH15CG102_XG01&quot;"/> 
  </image>
  <image x="324" y="890" width="26" height="27" xlink:href="bin_indicator.svg">
    <title>&quot;20PAH15CG101_XG01&quot;</title>
    <rt:dyn type="PointID" mode="constant" value="&quot;20PAH15CG101_XG01&quot;"/> 
  </image>
  <text x="362.499" y="904.375" font-size="15">ВКЛ</text>
  <text x="362.499" y="953.375" font-size="15">ОТКЛ</text>
  <text x="362.499" y="1002.38" font-size="15">НЕИСПР</text>
  <rect x="527.75" y="808.5" width="172.5" height="218.75" rx="0" ry="0" fill="none" stroke="black" stroke-width="3"/> 
  <text x="586.5" y="837.375" font-size="15">ФП 1</text>
  <image x="559.751" y="984.875" width="25" height="25" xlink:href="bin_indicator.svg">
    <title>&quot;20PBB10CG103_XG01&quot;</title>
    <rt:dyn type="PointID" mode="constant" value="&quot;20PBB10CG103_XG01&quot;"/> 
  </image>
  <image x="559.751" y="935.875" width="25" height="25" xlink:href="bin_indicator.svg">
    <title>&quot;20PBB10CG102_XG01&quot;</title>
    <rt:dyn type="PointID" mode="constant" value="&quot;20PBB10CG102_XG01&quot;"/> 
  </image>
  <image x="558.751" y="885.875" width="26" height="27" xlink:href="bin_indicator.svg">
    <title>&quot;20PBB10CG101_XG01&quot;</title>
    <rt:dyn type="PointID" mode="constant" value="&quot;20PBB10CG101_XG01&quot;"/> 
  </image>
  <text x="599.249" y="904.375" font-size="15">ВКЛ</text>
  <text x="599.249" y="953.375" font-size="15">ОТКЛ</text>
  <text x="599.249" y="1002.38" font-size="15">НЕИСПР</text>
  <rect x="716.242" y="808.5" width="172.5" height="218.75" rx="0" ry="0" fill="none" stroke="black" stroke-width="3"/> 
  <text x="774.992" y="837.375" font-size="15">ФП 2</text>
  <image x="750.243" y="984.875" width="25" height="25" xlink:href="bin_indicator.svg">
    <title>&quot;20PBB20CG103_XG01&quot;</title>
    <rt:dyn type="PointID" mode="constant" value="&quot;20PBB20CG103_XG01&quot;"/> 
  </image>
  <image x="749.243" y="935.875" width="25" height="25" xlink:href="bin_indicator.svg">
    <title>&quot;20PBB20CG102_XG01&quot;</title>
    <rt:dyn type="PointID" mode="constant" value="&quot;20PBB20CG102_XG01&quot;"/> 
  </image>
  <image x="748.243" y="885.875" width="26" height="27" xlink:href="bin_indicator.svg">
    <title>&quot;20PBB20CG101_XG01&quot;</title>
    <rt:dyn type="PointID" mode="constant" value="&quot;20PBB20CG101_XG01&quot;"/> 
  </image>
  <text x="787.741" y="904.375" font-size="15">ВКЛ</text>
  <text x="787.741" y="953.375" font-size="15">ОТКЛ</text>
  <text x="787.741" y="1002.38" font-size="15">НЕИСПР</text>
  <rect x="1023" y="808.5" width="172.5" height="218.75" rx="0" ry="0" fill="none" stroke="black" stroke-width="3"/> 
  <text x="1081.75" y="837.375" font-size="15">ФП 3</text>
  <image x="1049" y="984.875" width="25" height="25" xlink:href="bin_indicator.svg">
    <title>&quot;20PBB30CG103_XG01&quot;</title>
    <rt:dyn type="PointID" mode="constant" value="&quot;20PBB30CG103_XG01&quot;"/> 
  </image>
  <image x="1049" y="935.875" width="25" height="25" xlink:href="bin_indicator.svg">
    <title>&quot;20PBB30CG102_XG01&quot;</title>
    <rt:dyn type="PointID" mode="constant" value="&quot;20PBB30CG102_XG01&quot;"/> 
  </image>
  <image x="1049" y="885.875" width="26" height="27" xlink:href="bin_indicator.svg">
    <title>&quot;20PBB30CG101_XG01&quot;</title>
    <rt:dyn type="PointID" mode="constant" value="&quot;20PBB30CG101_XG01&quot;"/> 
  </image>
  <text x="1094.5" y="904.375" font-size="15">ВКЛ</text>
  <text x="1094.5" y="953.375" font-size="15">ОТКЛ</text>
  <text x="1094.5" y="1002.38" font-size="15">НЕИСПР</text>
  <rect x="1209.5" y="808.5" width="172.5" height="218.75" rx="0" ry="0" fill="none" stroke="black" stroke-width="3"/> 
  <text x="1268.25" y="837.375" font-size="15">ФП 4</text>
  <image x="1238.5" y="984.875" width="25" height="25" xlink:href="bin_indicator.svg">
    <title>&quot;20PBB40CG103_XG01&quot;</title>
    <rt:dyn type="PointID" mode="constant" value="&quot;20PBB40CG103_XG01&quot;"/> 
  </image>
  <image x="1238.5" y="935.875" width="25" height="25" xlink:href="bin_indicator.svg">
    <title>&quot;20PBB40CG102_XG01&quot;</title>
    <rt:dyn type="PointID" mode="constant" value="&quot;20PBB40CG102_XG01&quot;"/> 
  </image>
  <image x="1238.5" y="885.875" width="26" height="27" xlink:href="bin_indicator.svg">
    <title>&quot;20PBB40CG101_XG01&quot;</title>
    <rt:dyn type="PointID" mode="constant" value="&quot;20PBB40CG101_XG01&quot;"/> 
  </image>
  <text x="1281" y="904.375" font-size="15">ВКЛ</text>
  <text x="1281" y="953.375" font-size="15">ОТКЛ</text>
  <text x="1281" y="1002.38" font-size="15">НЕИСПР</text>
  <rect x="1447.5" y="808.5" width="172.5" height="218.75" rx="0" ry="0" fill="none" stroke="black" stroke-width="3"/> 
  <text x="1506.25" y="837.375" font-size="15">СШО 4</text>
  <image x="1475.5" y="984.875" width="25" height="25" xlink:href="bin_indicator.svg">
    <title>&quot;20PAH45CG103_XG01&quot;</title>
    <rt:dyn type="PointID" mode="constant" value="&quot;20PAH45CG103_XG01&quot;"/> 
  </image>
  <image x="1475.5" y="935.875" width="25" height="25" xlink:href="bin_indicator.svg">
    <title>&quot;20PAH45CG102_XG01&quot;</title>
    <rt:dyn type="PointID" mode="constant" value="&quot;20PAH45CG102_XG01&quot;"/> 
  </image>
  <image x="1475.5" y="885.875" width="26" height="27" xlink:href="bin_indicator.svg">
    <title>&quot;20PAH45CG101_XG01&quot;</title>
    <rt:dyn type="PointID" mode="constant" value="&quot;20PAH45CG101_XG01&quot;"/> 
  </image>
  <text x="1519" y="904.375" font-size="15">ВКЛ</text>
  <text x="1519" y="953.375" font-size="15">ОТКЛ</text>
  <text x="1519" y="1002.38" font-size="15">НЕИСПР</text>
  <rect x="1634.5" y="808.5" width="172.5" height="218.75" rx="0" ry="0" fill="none" stroke="black" stroke-width="3"/> 
  <text x="1693.25" y="837.375" font-size="15">СШО 3</text>
  <image x="1660.5" y="984.875" width="25" height="25" xlink:href="bin_indicator.svg">
    <title>&quot;20PAH35CG103_XG01&quot;</title>
    <rt:dyn type="PointID" mode="constant" value="&quot;20PAH35CG103_XG01&quot;"/> 
  </image>
  <image x="1660.5" y="935.875" width="25" height="25" xlink:href="bin_indicator.svg">
    <title>&quot;20PAH35CG102_XG01&quot;</title>
    <rt:dyn type="PointID" mode="constant" value="&quot;20PAH35CG102_XG01&quot;"/> 
  </image>
  <image x="1660.5" y="885.875" width="26" height="27" xlink:href="bin_indicator.svg">
    <title>&quot;20PAH35CG101_XG01&quot;</title>
    <rt:dyn type="PointID" mode="constant" value="&quot;20PAH35CG101_XG01&quot;"/> 
  </image>
  <text x="1706" y="904.375" font-size="15">ВКЛ</text>
  <text x="1706" y="953.375" font-size="15">ОТКЛ</text>
  <text x="1706" y="1002.38" font-size="15">НЕИСПР</text>
  <text x="975" y="29" fill="black" font-size="30" font-weight="700" text-anchor="middle">
    <title>Схема обвязки и КИП насоса аварийного ввода бора</title>
Система шариковой очистки</text>
  <text x="51" y="22" fill="black" font-size="15" font-weight="700" text-anchor="middle">
    <title>Схема КИП насосов охлаждения бассейна выдержки</title>
PAH</text>
</svg>
