<?xml  version="1.0" encoding="windows-1251"?>
<svg color="Col_BGSand" xmlns="http://www.w3.org/2000/svg" xmlns:rt="http://www.rts.co.at/2001/XMLSchema/RtSvgPL" xmlns:xlink="http://www.w3.org/1999/xlink" xmlns:xsi="http://www.w3.org/2001/XMLSchema-instance" xsi:schemaLocation="http://www.w3.org/2000/svg C:\RTS\RtSvg\XML\SVG.xsd" viewBox="0 0 1400 1050" width="1400" height="1050" id="peregruz_8">
  <title>Перегрузка. Экран 8</title>
  <rt:model modelversion="7.2.0.24" comment="Создано АО &quot;РАСУ&quot;" revision="3"/> 
  <line x1="870.455" y1="515.182" x2="870" y2="922.03" stroke="black" stroke-width="3"/> 
  <line x1="1265.15" y1="509.97" x2="1265.15" y2="1005" stroke="black" stroke-width="3"/> 
  <line x1="651" y1="-19.1513" x2="651" y2="146" stroke="black" stroke-width="3"/> 
  <line x1="116.136" y1="-2.5151" x2="116.136" y2="1006" stroke="black" stroke-width="3"/> 
  <line x1="1073.17" y1="-12.8788" x2="1073.17" y2="151" stroke="black" stroke-width="3"/> 
  <line x1="125.273" y1="145" x2="651.818" y2="145" stroke="black" stroke-width="3"/> 
  <line x1="-34.8484" y1="145" x2="109.091" y2="145" stroke="black" stroke-width="3"/> 
  <image x="959.592" y="965.333" width="175" height="35" xlink:href="DS_ana.svg">
    <title>20FAL52CP002</title>
    <rt:dyn type="FKKS" mode="constant" value="&quot;20FAL52CP002&quot;"/> 
    <rt:dyn type="FKKS" mode="constant" value="&quot;20FAL52CP002&quot;"/> 
    <rt:dyn type="FKKS" mode="constant" value="&quot;20FAL52CP002&quot;"/> 
    <rt:dyn type="X" mode="constant" value="&quot;P&quot;"/> 
    <rt:dyn type="ShowFrame" mode="constant" value="true"/> 
    <rt:dyn type="Color_Readings" mode="constant" value="true"/> 
    <rt:dyn type="ValueToTheRight" mode="constant" value="false"/> 
  </image>
  <image x="959.592" y="1011.33" width="175" height="35" xlink:href="DS_ana.svg">
    <title>20FAL52CF001</title>
    <rt:dyn type="FKKS" mode="constant" value="&quot;20FAL52CF001&quot;"/> 
    <rt:dyn type="FKKS" mode="constant" value="&quot;20FAL52CF001&quot;"/> 
    <rt:dyn type="FKKS" mode="constant" value="&quot;20FAL52CF001&quot;"/> 
    <rt:dyn type="X" mode="constant" value="&quot;F&quot;"/> 
    <rt:dyn type="ShowFrame" mode="constant" value="true"/> 
    <rt:dyn type="Color_Readings" mode="constant" value="true"/> 
    <rt:dyn type="ValueToTheRight" mode="constant" value="false"/> 
  </image>
  <line x1="-72.5" y1="1006" x2="1266.5" y2="1006" stroke="black" stroke-width="3"/> 
  <image x="552.741" y="882" width="175" height="35" xlink:href="DS_ana.svg">
    <title>20FAL51CP002</title>
    <rt:dyn type="FKKS" mode="constant" value="&quot;20FAL51CP002&quot;"/> 
    <rt:dyn type="FKKS" mode="constant" value="&quot;20FAL51CP002&quot;"/> 
    <rt:dyn type="FKKS" mode="constant" value="&quot;20FAL51CP002&quot;"/> 
    <rt:dyn type="X" mode="constant" value="&quot;P&quot;"/> 
    <rt:dyn type="ShowFrame" mode="constant" value="true"/> 
    <rt:dyn type="Color_Readings" mode="constant" value="true"/> 
    <rt:dyn type="ValueToTheRight" mode="constant" value="false"/> 
  </image>
  <image x="552.741" y="928.182" width="175" height="35" xlink:href="DS_ana.svg">
    <title>20FAL51CF001</title>
    <rt:dyn type="FKKS" mode="constant" value="&quot;20FAL51CF001&quot;"/> 
    <rt:dyn type="ShowFrame" mode="constant" value="true"/> 
    <rt:dyn type="Color_Readings" mode="constant" value="true"/> 
    <rt:dyn type="X" mode="constant" value="&quot;F&quot;"/> 
    <rt:dyn type="ValueToTheRight" mode="constant" value="false"/> 
  </image>
  <image x="178.364" y="963.939" width="70" height="65" xlink:href="DS_CO_valve.svg">
    <title>20FAL52AA005</title>
    <rt:dyn type="KKS" mode="constant" value="&quot;20FAL52AA005&quot;"/> 
    <rt:dyn type="DATA_NARY" mode="constant" value="&quot;TPTS&quot;"/> 
    <rt:dyn type="Operate" mode="constant" value="false"/> 
  </image>
  <image x="1219.7" y="553.439" width="70" height="65" xlink:href="DS_CO_valve.svg" transform="rotate(270 2.41034e-006 -9.99997)">
    <title>20FAL52AA002</title>
    <rt:dyn type="KKS" mode="constant" value="&quot;20FAL52AA002&quot;"/> 
    <rt:dyn type="DATA_NARY" mode="constant" value="&quot;TPTS&quot;"/> 
    <rt:dyn type="Operate" mode="constant" value="false"/> 
  </image>
  <line x1="1384.5" y1="152.833" x2="1384.5" y2="535" stroke="black" stroke-width="3"/> 
  <line x1="750" y1="152" x2="1385.5" y2="152" stroke="black" stroke-width="3"/> 
  <line x1="1264.5" y1="533" x2="1384.5" y2="533" stroke="black" stroke-width="3"/> 
  <line x1="869" y1="635" x2="1268.04" y2="635" stroke="black" stroke-width="3"/> 
  <image x="1126.5" y="593" width="70" height="65" xlink:href="DS_CO_valve.svg">
    <title>20FAL51AA008</title>
    <rt:dyn type="KKS" mode="constant" value="&quot;20FAL51AA008&quot;"/> 
    <rt:dyn type="DATA_NARY" mode="constant" value="&quot;TPTS&quot;"/> 
    <rt:dyn type="Operate" mode="constant" value="false"/> 
  </image>
  <image x="953.5" y="593" width="70" height="65" xlink:href="DS_CO_valve.svg">
    <title>20FAL51AA009</title>
    <rt:dyn type="KKS" mode="constant" value="&quot;20FAL51AA009&quot;"/> 
    <rt:dyn type="DATA_NARY" mode="constant" value="&quot;TPTS&quot;"/> 
    <rt:dyn type="Operate" mode="constant" value="false"/> 
  </image>
  <image x="824.5" y="553.439" width="70" height="65" xlink:href="DS_CO_valve.svg" transform="rotate(270 2.41034e-006 -9.99997)">
    <title>20FAL51AA002</title>
    <rt:dyn type="KKS" mode="constant" value="&quot;20FAL51AA002&quot;"/> 
    <rt:dyn type="DATA_NARY" mode="constant" value="&quot;TPTS&quot;"/> 
    <rt:dyn type="Operate" mode="constant" value="false"/> 
  </image>
  <image x="825.5" y="698" width="70" height="65" xlink:href="DS_CO_valve.svg" transform="rotate(270 2.41034e-006 -9.99997)">
    <title>20FAL51AA003</title>
    <rt:dyn type="KKS" mode="constant" value="&quot;20FAL51AA003&quot;"/> 
    <rt:dyn type="DATA_NARY" mode="constant" value="&quot;TPTS&quot;"/> 
    <rt:dyn type="Operate" mode="constant" value="false"/> 
  </image>
  <line x1="114.5" y1="923" x2="872.25" y2="923" stroke="black" stroke-width="3"/> 
  <image x="755.5" y="889" width="70" height="70" xlink:href="DS_motor.svg" transform="flipX(7.4979e-006)">
    <title>20FAL51AP001</title>
    <rt:dyn type="KKS" mode="constant" value="&quot;20FAL51AP001&quot;"/> 
    <rt:dyn type="DATA_NARY" mode="constant" value="&quot;TPTS&quot;"/> 
    <rt:dyn type="Operate" mode="constant" value="false"/> 
  </image>
  <line x1="353" y1="194" x2="353" y2="923" stroke="black" stroke-width="1"/> 
  <image x="178.364" y="880" width="70" height="65" xlink:href="DS_CO_valve.svg">
    <title>20FAL51AA005</title>
    <rt:dyn type="KKS" mode="constant" value="&quot;20FAL51AA005&quot;"/> 
    <rt:dyn type="DATA_NARY" mode="constant" value="&quot;TPTS&quot;"/> 
    <rt:dyn type="Operate" mode="constant" value="false"/> 
  </image>
  <line x1="880.333" y1="790" x2="1078.91" y2="790" stroke="black" stroke-width="3"/> 
  <line x1="1078" y1="633" x2="1078" y2="790" stroke="black" stroke-width="3"/> 
  <line x1="361" y1="790" x2="861" y2="790" stroke="black" stroke-width="3"/> 
  <line x1="758.667" y1="194.167" x2="1264" y2="194.167" stroke="black" stroke-width="1"/> 
  <line x1="352" y1="277.5" x2="743.455" y2="277.5" stroke="black" stroke-width="1"/> 
  <image x="438" y="234.5" width="70" height="65" xlink:href="DS_CO_valve.svg">
    <title>20FAL51AA007</title>
    <rt:dyn type="KKS" mode="constant" value="&quot;20FAL51AA007&quot;"/> 
    <rt:dyn type="DATA_NARY" mode="constant" value="&quot;TPTS&quot;"/> 
    <rt:dyn type="Operate" mode="constant" value="false"/> 
  </image>
  <line x1="123.5" y1="790" x2="346" y2="790" stroke="black" stroke-width="3"/> 
  <line x1="-38.3854" y1="790" x2="108.115" y2="790" stroke="black" stroke-width="3"/> 
  <image x="309.091" y="840.954" width="70" height="65" xlink:href="DS_CO_valve.svg" transform="rotate(270 2.41034e-006 -9.99997)">
    <title>20FAL51AA006</title>
    <rt:dyn type="KKS" mode="constant" value="&quot;20FAL51AA006&quot;"/> 
    <rt:dyn type="DATA_NARY" mode="constant" value="&quot;TPTS&quot;"/> 
    <rt:dyn type="Operate" mode="constant" value="false"/> 
  </image>
  <line x1="354.546" y1="825" x2="862.121" y2="825" stroke="black" stroke-width="1"/> 
  <line x1="878.304" y1="825" x2="940.425" y2="825" stroke="black" stroke-width="1"/> 
  <line x1="939.5" y1="823.333" x2="939.5" y2="1006" stroke="black" stroke-width="1"/> 
  <image x="894.667" y="840.954" width="70" height="65" xlink:href="DS_CO_valve.svg" transform="rotate(270 2.41034e-006 -9.99997)">
    <title>20FAL52AA006</title>
    <rt:dyn type="KKS" mode="constant" value="&quot;20FAL52AA006&quot;"/> 
    <rt:dyn type="DATA_NARY" mode="constant" value="&quot;TPTS&quot;"/> 
    <rt:dyn type="Operate" mode="constant" value="false"/> 
  </image>
  <image x="1165" y="969" width="70" height="70" xlink:href="DS_motor.svg" transform="flipX(7.4979e-006)">
    <title>20FAL52AP001</title>
    <rt:dyn type="KKS" mode="constant" value="&quot;20FAL52AP001&quot;"/> 
    <rt:dyn type="DATA_NARY" mode="constant" value="&quot;TPTS&quot;"/> 
    <rt:dyn type="Operate" mode="constant" value="false"/> 
  </image>
  <image x="70.6667" y="548" width="70" height="65" xlink:href="DS_CO_valve.svg" transform="rotate(270 2.41034e-006 -9.99997)">
    <title>20FAL64AA001</title>
    <rt:dyn type="KKS" mode="constant" value="&quot;20FAL64AA001&quot;"/> 
    <rt:dyn type="DATA_NARY" mode="constant" value="&quot;TPTS&quot;"/> 
    <rt:dyn type="Operate" mode="constant" value="false"/> 
  </image>
  <image x="814.5" y="110" width="70" height="65" xlink:href="DS_CO_valve.svg">
    <title>20FAL51AA001</title>
    <rt:dyn type="KKS" mode="constant" value="&quot;20FAL51AA001&quot;"/> 
    <rt:dyn type="DATA_NARY" mode="constant" value="&quot;TPTS&quot;"/> 
    <rt:dyn type="Operate" mode="constant" value="false"/> 
  </image>
  <image x="1248.5" y="110" width="70" height="65" xlink:href="DS_CO_valve.svg">
    <title>20FAL52AA001</title>
    <rt:dyn type="KKS" mode="constant" value="&quot;20FAL52AA001&quot;"/> 
    <rt:dyn type="DATA_NARY" mode="constant" value="&quot;TPTS&quot;"/> 
    <rt:dyn type="Operate" mode="constant" value="false"/> 
  </image>
  <image x="71.5" y="75.5" width="70" height="65" xlink:href="DS_CO_valve.svg" transform="rotate(270 2.41034e-006 -9.99997)">
    <title>22FAL64AA801</title>
    <rt:dyn type="KKS" mode="constant" value="&quot;22FAL64AA801&quot;"/> 
    <rt:dyn type="DATA_NARY" mode="constant" value="&quot;TPTS&quot;"/> 
    <rt:dyn type="Operate" mode="constant" value="false"/> 
    <rt:dyn type="Drive" mode="constant" value="&quot;pnevmo&quot;"/> 
  </image>
  <image x="1027.5" y="75.5" width="70" height="65" xlink:href="DS_CO_valve.svg" transform="rotate(270 2.41034e-006 -9.99997)">
    <title>22FAL70AA802</title>
    <rt:dyn type="KKS" mode="constant" value="&quot;22FAL70AA802&quot;"/> 
    <rt:dyn type="DATA_NARY" mode="constant" value="&quot;TPTS&quot;"/> 
    <rt:dyn type="Operate" mode="constant" value="false"/> 
    <rt:dyn type="Drive" mode="constant" value="&quot;pnevmo&quot;"/> 
  </image>
  <text x="472.728" y="227.545" fill="black" font-size="20" font-weight="bold" text-anchor="middle">20FAL52AA007</text>
  <text x="466.667" y="318.939" fill="black" font-size="20" font-weight="bold" text-anchor="middle">20FAL51AA007</text>
  <text x="140" y="116.727" fill="black" font-size="20" font-weight="bold" text-anchor="start">22FAL64<tspan x="140" dy="20">AA801</tspan>
  </text>
  <text x="211.061" y="584.091" fill="black" font-size="20" font-weight="bold" text-anchor="middle">20FAL64AA001</text>
  <text x="210.333" y="960.848" fill="black" font-size="20" font-weight="bold" text-anchor="middle">20FAL51AA005</text>
  <text x="210.333" y="1046.55" fill="black" font-size="20" font-weight="bold" text-anchor="middle">20FAL52AA005</text>
  <text x="441.879" y="879.151" fill="black" font-size="20" font-weight="bold" text-anchor="middle">20FAL51AA006</text>
  <text x="819" y="945.667" fill="black" font-size="20" font-weight="bold" text-anchor="start">20FAL51<tspan x="819" dy="20">AP001</tspan>
  </text>
  <text x="1027.58" y="879.151" fill="black" font-size="20" font-weight="bold" text-anchor="middle">20FAL52AA006</text>
  <text x="1232" y="1026.67" fill="black" font-size="20" font-weight="bold" text-anchor="start">20FAL52<tspan x="1232" dy="20">AP001</tspan>
  </text>
  <text x="740.121" y="729.879" fill="black" font-size="20" font-weight="bold" text-anchor="start">20FAL51<tspan x="740.121" dy="20">AA003</tspan>
  </text>
  <text x="740.121" y="585" fill="black" font-size="20" font-weight="bold" text-anchor="start">20FAL51<tspan x="740.121" dy="20">AA002</tspan>
  </text>
  <text x="945.879" y="670.485" fill="black" font-size="20" font-weight="bold" text-anchor="start">20FAL51<tspan x="945.879" dy="20">AA009</tspan>
  </text>
  <text x="1113.12" y="670.485" fill="black" font-size="20" font-weight="bold" text-anchor="start">20FAL51<tspan x="1113.12" dy="20">AA008</tspan>
  </text>
  <text x="1286.03" y="585" fill="black" font-size="20" font-weight="bold" text-anchor="start">20FAL52<tspan x="1286.03" dy="20">AA002</tspan>
  </text>
  <text x="849.182" y="188.636" fill="black" font-size="20" font-weight="bold" text-anchor="middle">20FAL51AA001</text>
  <text x="1279.06" y="188.636" fill="black" font-size="20" font-weight="bold" text-anchor="middle">20FAL52AA001</text>
  <text x="1096.18" y="116.727" fill="black" font-size="20" font-weight="bold" text-anchor="start">22FAL70<tspan x="1096.18" dy="20">AA802</tspan>
  </text>
  <image x="1221" y="698" width="70" height="65" xlink:href="DS_CO_valve.svg" transform="rotate(270 2.41034e-006 -9.99997)">
    <title>20FAL52AA003</title>
    <rt:dyn type="KKS" mode="constant" value="&quot;20FAL52AA003&quot;"/> 
    <rt:dyn type="DATA_NARY" mode="constant" value="&quot;TPTS&quot;"/> 
    <rt:dyn type="Operate" mode="constant" value="false"/> 
  </image>
  <text x="1286.03" y="729.879" fill="black" font-size="20" font-weight="bold" text-anchor="start">20FAL52<tspan x="1286.03" dy="20">AA003</tspan>
  </text>
  <path d="M-374.96 -581.66 A8.80483 8.80483 0 1 1 -374.96 -564.05 " fill="none" stroke="black" stroke-width="3" transform="rotate(90 540.054 533.786) flipX(326.175) flipY() translate(0 -828) translate(229.642 442.62)"/> 
  <path d="M-374.959 -343.964 A8.80483 8.80483 0 1 1 -374.959 -326.354 " fill="none" stroke="black" stroke-width="3" transform="rotate(90 540.054 533.786) flipX(326.175) flipY() translate(0 -828) translate(229.642 442.62)"/> 
  <path d="M-374.959 173.036 A8.80483 8.80483 0 1 1 -374.959 190.646 " fill="none" stroke="black" stroke-width="3" transform="rotate(90 540.054 533.786) flipX(326.175) flipY() translate(0 -828) translate(229.642 442.62)"/> 
  <path d="M-407.869 173.036 A8.80483 8.80483 0 1 1 -407.869 190.646 " fill="none" stroke="black" stroke-width="1" transform="rotate(90 540.054 533.786) flipX(326.175) flipY() translate(0 -828) translate(229.642 442.62)"/> 
  <g transform="scale(0.97 0.809998 869.697 403.788) scale(1.24 1.11 262.879 631.818) scale(1 0.950001 94.3333 842.333) scale(1.23 1.79 878.03 862.121) scale(1.13 1.13 934.091 404.545)">
    <rect x="738.039" y="527.26" width="111.821" height="109.652" rx="0" ry="0" fill="url(#Cylinder_vertical)"/> 
    <ellipse cx="794.312" cy="527.026" rx="55.688" ry="12.1212" fill="Col_Grey4"/> 
    <ellipse cx="794.172" cy="636.13" rx="55.688" ry="15.2123" fill="url(#Cylinder_vertical)"/> 
  </g>
  <image x="782.197" y="353.485" width="175" height="35" xlink:href="DS_ana.svg">
    <title>20FAL51CL001</title>
    <rt:dyn type="FKKS" mode="constant" value="&quot;20FAL51CL001&quot;"/> 
    <rt:dyn type="X" mode="constant" value="&quot;L&quot;"/> 
    <rt:dyn type="ShowFrame" mode="constant" value="true"/> 
    <rt:dyn type="Color_Readings" mode="constant" value="true"/> 
    <rt:dyn type="ValueToTheRight" mode="constant" value="false"/> 
  </image>
  <image x="811.212" y="393" width="25" height="120" xlink:href="DS_ana_bar.svg">
    <title>20FAL51CL001</title>
    <rt:dyn type="FKKS" mode="constant" value="&quot;20FAL51CL001&quot;"/> 
  </image>
  <text x="867.424" y="346.97" fill="black" font-size="20" font-weight="bold" text-anchor="middle">20FAL51BB001</text>
  <line x1="869.697" y1="277" x2="869.697" y2="309.091" stroke="black" stroke-width="1"/> 
  <g transform="scale(0.97 0.809998 869.697 403.788) scale(1.24 1.11 262.879 631.818) scale(1 0.950001 94.3333 842.333) scale(1.23 1.79 878.03 862.121) scale(1.13 1.13 934.091 404.545)">
    <rect x="973.681" y="527.032" width="111.821" height="109.652" rx="0" ry="0" fill="url(#Cylinder_vertical)"/> 
    <ellipse cx="1029.95" cy="526.798" rx="55.688" ry="12.1212" fill="Col_Grey4"/> 
    <ellipse cx="1029.81" cy="635.902" rx="55.688" ry="15.2123" fill="url(#Cylinder_vertical)"/> 
  </g>
  <image x="1176.14" y="353.091" width="175" height="35" xlink:href="DS_ana.svg">
    <title>20FAL52CL001</title>
    <rt:dyn type="FKKS" mode="constant" value="&quot;20FAL52CL001&quot;"/> 
    <rt:dyn type="X" mode="constant" value="&quot;L&quot;"/> 
    <rt:dyn type="ShowFrame" mode="constant" value="true"/> 
    <rt:dyn type="Color_Readings" mode="constant" value="true"/> 
    <rt:dyn type="ValueToTheRight" mode="constant" value="false"/> 
  </image>
  <image x="1205.15" y="392.606" width="25" height="120" xlink:href="DS_ana_bar.svg">
    <title>20FAL52CL001</title>
    <rt:dyn type="FKKS" mode="constant" value="&quot;20FAL52CL001&quot;"/> 
  </image>
  <text x="1261.36" y="346.576" fill="black" font-size="20" font-weight="bold" text-anchor="middle">20FAL52BB001</text>
  <line x1="1263.64" y1="194" x2="1263.64" y2="308.697" stroke="black" stroke-width="1"/> 
  <path d="M282.556 -581.418 A8.80483 8.80483 0 1 1 282.556 -563.808 " fill="none" stroke="black" stroke-width="3" transform="flipY(138.781) rotate(90 540.054 533.786) flipX(326.175) flipY() translate(0 -828) translate(229.642 442.62)"/> 
  <line x1="750" y1="533" x2="870" y2="533" stroke="black" stroke-width="3"/> 
  <line x1="751.5" y1="150.758" x2="751.5" y2="532.925" stroke="black" stroke-width="3"/> 
  <path d="M139.164 54.4323 A8.80483 8.80483 0 1 1 139.164 72.0423 " fill="none" stroke="black" stroke-width="1" transform="rotate(90 540.054 533.786) flipX(326.175) flipY() translate(0 -828) translate(229.642 442.62)"/> 
  <path d="M222.468 53.3729 A8.80483 8.80483 0 1 1 222.468 70.9829 " fill="none" stroke="black" stroke-width="1" transform="rotate(90 540.054 533.786) flipX(326.175) flipY() translate(0 -828) translate(229.642 442.62)"/> 
  <line x1="760.697" y1="277.561" x2="870" y2="277.561" stroke="black" stroke-width="1"/> 
  <line x1="351" y1="194.5" x2="742.455" y2="194.5" stroke="black" stroke-width="1"/> 
  <image x="438" y="150" width="70" height="65" xlink:href="DS_CO_valve.svg">
    <title>20FAL52AA007</title>
    <rt:dyn type="KKS" mode="constant" value="&quot;20FAL52AA007&quot;"/> 
    <rt:dyn type="DATA_NARY" mode="constant" value="&quot;TPTS&quot;"/> 
    <rt:dyn type="Operate" mode="constant" value="false"/> 
  </image>
  <rect x="1038.5" y="52" width="68" height="20" rx="0" ry="0" fill="url(#PortalHatch1)" stroke="black"/> 
  <rect x="1038.5" y="4.5" width="68" height="20" rx="0" ry="0" fill="url(#PortalHatch1)" stroke="black"/> 
  <rect x="79.5" y="52" width="68" height="20" rx="0" ry="0" fill="url(#PortalHatch1)" stroke="black"/> 
  <rect x="79.5" y="4.5" width="68" height="20" rx="0" ry="0" fill="url(#PortalHatch1)" stroke="black"/> 
</svg>
