<?xml  version="1.0" encoding="UTF-8"?>
<svg color="Col_BGSand" xmlns="http://www.w3.org/2000/svg" xmlns:rt="http://www.rts.co.at/2001/XMLSchema/RtSvgPL" xmlns:xlink="http://www.w3.org/1999/xlink" xmlns:xsi="http://www.w3.org/2001/XMLSchema-instance" xsi:schemaLocation="http://www.w3.org/2000/svg C:\RTS\RtSvg\XML\SVG.xsd" viewBox="0 0 1914 1000" width="1914" height="1000" id="pgb90" font-size="15" font-weight="700">
  <title>Система промконтура потребителей нормальной эксплуатации</title>
  <rt:model modelversion="7.2.0.24" revision="3" comment="UMod all_nsb&#10;LMod pgb50_p3&#10;RMod qfa&#10;"/> 
  <g>
    <g transform="flipY(403.788) flipY(778.03) flipY(801.515) flipY(776.515) rotate(330 1212.44 532.643)">
      <g>
        <polygon points="2590.84,226.582 2604.22,234.226 2604.22,218.939 2590.84,226.582" fill="black" stroke="black" stroke-width="1" transform="rotate(180 1279.17 367.814)"/> 
      </g>
    </g>
    <text x="114.792" y="465.846" fill="black" font-size="15" text-anchor="middle">в трап</text>
    <polyline points="197.542,333.189 114.542,333.189 114.542,439.189" fill="none" stroke="black" stroke-width="3"/> 
  </g>
  <g>
    <g transform="flipY(403.788) flipY(778.03) flipY(801.515) flipY(776.515) rotate(330 1212.44 532.643)">
      <g>
        <polygon points="2362.21,94.5818 2375.59,102.226 2375.59,86.9388 2362.21,94.5818" fill="black" stroke="black" stroke-width="1" transform="rotate(180 1279.17 367.814)"/> 
      </g>
    </g>
    <text x="378.792" y="465.846" fill="black" font-size="15" text-anchor="middle">в трап</text>
    <polyline points="461.542,333.189 378.542,333.189 378.542,439.189" fill="none" stroke="black" stroke-width="3"/> 
  </g>
  <g>
    <g transform="flipY(403.788) flipY(778.03) flipY(801.515) flipY(776.515) rotate(330 1212.44 532.643)">
      <g>
        <polygon points="2132.34,-37.2686 2145.72,-29.6246 2145.72,-44.9116 2132.34,-37.2686" fill="black" stroke="black" stroke-width="1" transform="rotate(180 1279.17 367.814)"/> 
      </g>
    </g>
    <text x="643.792" y="465.096" fill="black" font-size="15" text-anchor="middle">в трап</text>
    <polyline points="726.542,332.439 643.542,332.439 643.542,438.439" fill="none" stroke="black" stroke-width="3"/> 
  </g>
  <g>
    <g transform="flipY(403.788) flipY(778.03) flipY(801.515) flipY(776.515) rotate(330 1212.44 532.643)">
      <g>
        <polygon points="1904.37,-170.909 1917.75,-163.265 1917.75,-178.552 1904.37,-170.909" fill="black" stroke="black" stroke-width="1" transform="rotate(180 1279.17 367.814)"/> 
      </g>
    </g>
    <text x="908.042" y="466.846" fill="black" font-size="15" text-anchor="middle">в трап</text>
    <polyline points="990.792,334.189 907.792,334.189 907.792,440.189" fill="none" stroke="black" stroke-width="3"/> 
  </g>
  <g>
    <g transform="flipY(403.788) flipY(778.03) flipY(801.515) flipY(776.515) rotate(330 1212.44 532.643)">
      <g>
        <polygon points="1674.09,-301.552 1687.47,-293.908 1687.47,-309.195 1674.09,-301.552" fill="black" stroke="black" stroke-width="1" transform="rotate(180 1279.17 367.814)"/> 
      </g>
    </g>
    <text x="1172.79" y="464.846" fill="black" font-size="15" text-anchor="middle">в трап</text>
    <polyline points="1255.54,332.189 1172.54,332.189 1172.54,438.189" fill="none" stroke="black" stroke-width="3"/> 
  </g>
  <g>
    <g transform="flipY(403.788) flipY(778.03) flipY(801.515) flipY(776.515) rotate(330 1212.44 532.643)">
      <g>
        <polygon points="1446.26,-433.951 1459.64,-426.307 1459.64,-441.594 1446.26,-433.951" fill="black" stroke="black" stroke-width="1" transform="rotate(180 1279.17 367.814)"/> 
      </g>
    </g>
    <text x="1436.29" y="465.596" fill="black" font-size="15" text-anchor="middle">в трап</text>
    <polyline points="1519.04,332.939 1436.04,332.939 1436.04,438.939" fill="none" stroke="black" stroke-width="3"/> 
  </g>
  <g>
    <polyline points="1306.29,333.734 1397.29,333.734 1397.29,230.234" fill="none" stroke="black" stroke-width="3"/> 
    <text x="1396.74" y="214.189" fill="black" font-size="15" text-anchor="middle">в трап</text>
    <g transform="flipY(167.424) flipY(403.788) flipY(778.03) flipY(801.515) flipY(776.515) rotate(330 1212.44 532.643)">
      <g>
        <polygon points="1312.48,-122.657 1325.86,-115.013 1325.86,-130.3 1312.48,-122.657" fill="black" stroke="black" stroke-width="1" transform="rotate(180 1279.17 367.814)"/> 
      </g>
    </g>
  </g>
  <g>
    <polyline points="773.792,332.484 864.792,332.484 864.792,228.984" fill="none" stroke="black" stroke-width="3"/> 
    <text x="864.242" y="212.939" fill="black" font-size="15" text-anchor="middle">в трап</text>
    <g transform="flipY(167.424) flipY(403.788) flipY(778.03) flipY(801.515) flipY(776.515) rotate(330 1212.44 532.643)">
      <g>
        <polygon points="1774.26,142.511 1787.64,150.155 1787.64,134.868 1774.26,142.511" fill="black" stroke="black" stroke-width="1" transform="rotate(180 1279.17 367.814)"/> 
      </g>
    </g>
  </g>
  <g>
    <polyline points="510.042,332.484 601.042,332.484 601.042,228.984" fill="none" stroke="black" stroke-width="3"/> 
    <text x="600.492" y="212.939" fill="black" font-size="15" text-anchor="middle">в трап</text>
    <g transform="flipY(167.424) flipY(403.788) flipY(778.03) flipY(801.515) flipY(776.515) rotate(330 1212.44 532.643)">
      <g>
        <polygon points="2002.67,274.386 2016.05,282.03 2016.05,266.743 2002.67,274.386" fill="black" stroke="black" stroke-width="1" transform="rotate(180 1279.17 367.814)"/> 
      </g>
    </g>
  </g>
  <g>
    <polyline points="246.792,333.734 337.792,333.734 337.792,230.234" fill="none" stroke="black" stroke-width="3"/> 
    <text x="337.242" y="214.189" fill="black" font-size="15" text-anchor="middle">в трап</text>
    <g transform="flipY(167.424) flipY(403.788) flipY(778.03) flipY(801.515) flipY(776.515) rotate(330 1212.44 532.643)">
      <g>
        <polygon points="2230.02,407.094 2243.4,414.738 2243.4,399.451 2230.02,407.094" fill="black" stroke="black" stroke-width="1" transform="rotate(180 1279.17 367.814)"/> 
      </g>
    </g>
  </g>
  <g>
    <polyline points="1037.54,333.734 1128.54,333.734 1128.54,230.234" fill="none" stroke="black" stroke-width="3"/> 
    <text x="1127.99" y="214.189" fill="black" font-size="15" text-anchor="middle">в трап</text>
    <g transform="flipY(167.424) flipY(403.788) flipY(778.03) flipY(801.515) flipY(776.515) rotate(330 1212.44 532.643)">
      <g>
        <polygon points="1545.22,11.7183 1558.6,19.3623 1558.6,4.0753 1545.22,11.7183" fill="black" stroke="black" stroke-width="1" transform="rotate(180 1279.17 367.814)"/> 
      </g>
    </g>
  </g>
  <g>
    <polyline points="1570.04,333.234 1661.04,333.234 1661.04,229.734" fill="none" stroke="black" stroke-width="3"/> 
    <text x="1660.49" y="213.689" fill="black" font-size="15" text-anchor="middle">в трап</text>
    <g transform="flipY(167.424) flipY(403.788) flipY(778.03) flipY(801.515) flipY(776.515) rotate(330 1212.44 532.643)">
      <g>
        <polygon points="1084.31,-254.965 1097.69,-247.321 1097.69,-262.608 1084.31,-254.965" fill="black" stroke="black" stroke-width="1" transform="rotate(180 1279.17 367.814)"/> 
      </g>
    </g>
  </g>
  <text x="957" y="26" font-size="30" text-anchor="middle">
    <title>Система промконтура потребителей нормальной эксплуатации</title>
Система промконтура потребителей нормальной эксплуатации</text>
  <line x1="1791.09" y1="454.545" x2="1791.09" y2="454.545" stroke="black"/> 
  <line x1="247.292" y1="233.537" x2="247.292" y2="786.568" stroke="black" stroke-width="3"/> 
  <line x1="197.945" y1="227.477" x2="198.807" y2="871.416" stroke="black" stroke-width="3"/> 
  <text x="117.625" y="551.265" fill="black" font-size="15" text-anchor="middle">20PGB90<tspan x="117.625" dy="15">AA023</tspan>
  </text>
  <image x="154.066" y="519.083" width="70" height="65" xlink:href="DS_CO_valve.svg" transform="flipX(-2.84217e-014) rotate(90 9.26133e-007 -7.43085e-007) flipX(-10.0001) rotate(270 6.32897e-005 4.4512e-005) flipY(-10.0001) rotate(90 -0.00012207 -10.0001)">
    <title>&quot;20PGB90AA023&quot;</title>
    <rt:dyn type="KKS" mode="constant" value="&quot;20PGB90AA023&quot;"/> 
    <rt:dyn type="DATA_NARY" mode="constant" value="&quot;TPTS&quot;"/> 
    <rt:dyn type="Operate" mode="constant" value="true"/> 
  </image>
  <text x="224.565" y="135.053" fill="black" font-size="15" text-anchor="middle">20KPM23<tspan x="224.565" dy="15">AT003</tspan>
  </text>
  <text x="161.917" y="365.189" fill="black" font-size="15" text-anchor="middle">20PGB90<tspan x="161.917" dy="15">AA024</tspan>
  </text>
  <image x="137.233" y="280.871" width="70" height="65" xlink:href="DS_CO_valve.svg" transform="flipX(-10.0001) rotate(270 6.32897e-005 4.4512e-005) flipY(-10.0001) rotate(90 -0.00012207 -10.0001)">
    <title>&quot;20PGB90AA024&quot;</title>
    <rt:dyn type="KKS" mode="constant" value="&quot;20PGB90AA024&quot;"/> 
    <rt:dyn type="DATA_NARY" mode="constant" value="&quot;TPTS&quot;"/> 
    <rt:dyn type="Operate" mode="constant" value="true"/> 
  </image>
  <g transform="scale(1.14 1.14 128.212 199.242) rotate(90 289.576 226.515) scale(0.559998 0.559998 635.788 749.242)">
    <rect x="-70.1515" y="-132.666" width="72.7274" height="180.303" rx="0" ry="0" fill="Col_Grey4"/> 
    <rect x="-96.2875" y="-105.014" width="125" height="125" rx="0" ry="0" fill="Col_Grey4" stroke="black"/> 
    <line x1="-70.9485" y1="-81.9234" x2="29.0535" y2="-81.9234" stroke="black" stroke-width="3"/> 
    <line x1="-70.9485" y1="-82.2563" x2="-23.6185" y2="-41.256" stroke="black" stroke-width="3"/> 
    <line x1="-70.2885" y1="-5.25595" x2="27.7235" y2="-5.25595" stroke="black" stroke-width="3"/> 
    <line x1="-68.9485" y1="-5.92296" x2="-23.6185" y2="-42.5904" stroke="black" stroke-width="3"/> 
    <line x1="12.3035" y1="-105.393" x2="12.3035" y2="20.364" stroke="black"/> 
    <line x1="-79.1215" y1="-103.878" x2="-80.6365" y2="20.364" stroke="black"/> 
  </g>
  <image x="202.505" y="651.325" width="70" height="65" xlink:href="DS_CO_valve.svg" transform="flipX(-2.84217e-014) rotate(90 9.26133e-007 -7.43085e-007) flipX(-10.0001) rotate(270 6.32897e-005 4.4512e-005) flipY(-10.0001) rotate(90 -0.00012207 -10.0001)">
    <title>&quot;20PGB90AA021&quot;</title>
    <rt:dyn type="KKS" mode="constant" value="&quot;20PGB90AA021&quot;"/> 
    <rt:dyn type="DATA_NARY" mode="constant" value="&quot;TPTS&quot;"/> 
    <rt:dyn type="Operate" mode="constant" value="true"/> 
  </image>
  <text x="305.417" y="682.314" fill="black" font-size="15" text-anchor="middle">20PGB90<tspan x="305.417" dy="15">AA021</tspan>
  </text>
  <text x="296.917" y="365.189" fill="black" font-size="15" text-anchor="middle">20PGB90<tspan x="296.917" dy="15">AA022</tspan>
  </text>
  <image x="268.248" y="280.871" width="70" height="65" xlink:href="DS_CO_valve.svg" transform="flipX(-10.0001) rotate(270 6.32897e-005 4.4512e-005) flipY(-10.0001) rotate(90 -0.00012207 -10.0001)">
    <title>&quot;20PGB90AA022&quot;</title>
    <rt:dyn type="KKS" mode="constant" value="&quot;20PGB90AA022&quot;"/> 
    <rt:dyn type="DATA_NARY" mode="constant" value="&quot;TPTS&quot;"/> 
    <rt:dyn type="Operate" mode="constant" value="true"/> 
  </image>
  <line x1="1765.23" y1="869.689" x2="198.807" y2="869.689" stroke="black" stroke-width="3"/> 
  <line x1="454.292" y1="785.586" x2="246.231" y2="785.586" stroke="black" stroke-width="3"/> 
  <line x1="510.444" y1="232.689" x2="510.444" y2="785.72" stroke="black" stroke-width="3"/> 
  <line x1="461.097" y1="226.629" x2="461.959" y2="870.567" stroke="black" stroke-width="3"/> 
  <text x="380.777" y="550.416" fill="black" font-size="15" text-anchor="middle">20PGB90<tspan x="380.777" dy="15">AA019</tspan>
  </text>
  <image x="417.218" y="518.234" width="70" height="65" xlink:href="DS_CO_valve.svg" transform="flipX(-2.84217e-014) rotate(90 9.26133e-007 -7.43085e-007) flipX(-10.0001) rotate(270 6.32897e-005 4.4512e-005) flipY(-10.0001) rotate(90 -0.00012207 -10.0001)">
    <title>&quot;20PGB90AA019&quot;</title>
    <rt:dyn type="KKS" mode="constant" value="&quot;20PGB90AA019&quot;"/> 
    <rt:dyn type="DATA_NARY" mode="constant" value="&quot;TPTS&quot;"/> 
    <rt:dyn type="Operate" mode="constant" value="true"/> 
  </image>
  <text x="487.716" y="134.205" fill="black" font-size="15" text-anchor="middle">20KPM23<tspan x="487.716" dy="15">AT002</tspan>
  </text>
  <text x="421.917" y="365.189" fill="black" font-size="15" text-anchor="middle">20PGB90<tspan x="421.917" dy="15">AA020</tspan>
  </text>
  <image x="400.385" y="280.023" width="70" height="65" xlink:href="DS_CO_valve.svg" transform="flipX(-10.0001) rotate(270 6.32897e-005 4.4512e-005) flipY(-10.0001) rotate(90 -0.00012207 -10.0001)">
    <title>&quot;20PGB90AA020&quot;</title>
    <rt:dyn type="KKS" mode="constant" value="&quot;20PGB90AA020&quot;"/> 
    <rt:dyn type="DATA_NARY" mode="constant" value="&quot;TPTS&quot;"/> 
    <rt:dyn type="Operate" mode="constant" value="true"/> 
  </image>
  <g transform="scale(1.14 1.14 128.212 199.242) rotate(90 289.576 226.515) scale(0.559998 0.559998 635.788 749.242)">
    <rect x="-71.4808" y="-544.877" width="72.7274" height="180.303" rx="0" ry="0" fill="Col_Grey4"/> 
    <rect x="-97.6168" y="-517.225" width="125" height="125" rx="0" ry="0" fill="Col_Grey4" stroke="black"/> 
    <line x1="-72.2778" y1="-494.134" x2="27.7242" y2="-494.134" stroke="black" stroke-width="3"/> 
    <line x1="-72.2778" y1="-494.467" x2="-24.9478" y2="-453.466" stroke="black" stroke-width="3"/> 
    <line x1="-71.6178" y1="-417.466" x2="26.3942" y2="-417.466" stroke="black" stroke-width="3"/> 
    <line x1="-70.2778" y1="-418.133" x2="-24.9478" y2="-454.801" stroke="black" stroke-width="3"/> 
    <line x1="10.9742" y1="-517.604" x2="10.9742" y2="-391.846" stroke="black"/> 
    <line x1="-80.4508" y1="-516.089" x2="-81.9658" y2="-391.846" stroke="black"/> 
  </g>
  <image x="465.657" y="650.476" width="70" height="65" xlink:href="DS_CO_valve.svg" transform="flipX(-2.84217e-014) rotate(90 9.26133e-007 -7.43085e-007) flipX(-10.0001) rotate(270 6.32897e-005 4.4512e-005) flipY(-10.0001) rotate(90 -0.00012207 -10.0001)">
    <title>&quot;20PGB90AA017&quot;</title>
    <rt:dyn type="KKS" mode="constant" value="&quot;20PGB90AA017&quot;"/> 
    <rt:dyn type="DATA_NARY" mode="constant" value="&quot;TPTS&quot;"/> 
    <rt:dyn type="Operate" mode="constant" value="true"/> 
  </image>
  <text x="572.917" y="682.314" fill="black" font-size="15" text-anchor="middle">20PGB90<tspan x="572.917" dy="15">AA017</tspan>
  </text>
  <text x="558.167" y="365.189" fill="black" font-size="15" text-anchor="middle">20PGB90<tspan x="558.167" dy="15">AA018</tspan>
  </text>
  <image x="531.4" y="280.023" width="70" height="65" xlink:href="DS_CO_valve.svg" transform="flipX(-10.0001) rotate(270 6.32897e-005 4.4512e-005) flipY(-10.0001) rotate(90 -0.00012207 -10.0001)">
    <title>&quot;20PGB90AA018&quot;</title>
    <rt:dyn type="KKS" mode="constant" value="&quot;20PGB90AA018&quot;"/> 
    <rt:dyn type="DATA_NARY" mode="constant" value="&quot;TPTS&quot;"/> 
    <rt:dyn type="Operate" mode="constant" value="true"/> 
  </image>
  <line x1="775.595" y1="232.84" x2="775.595" y2="785.871" stroke="black" stroke-width="3"/> 
  <line x1="726.248" y1="226.78" x2="727.11" y2="870.719" stroke="black" stroke-width="3"/> 
  <text x="647.807" y="549.962" fill="black" font-size="15" text-anchor="middle">20PGB90<tspan x="647.807" dy="15">AA015</tspan>
  </text>
  <image x="682.369" y="518.386" width="70" height="65" xlink:href="DS_CO_valve.svg" transform="flipX(-2.84217e-014) rotate(90 9.26133e-007 -7.43085e-007) flipX(-10.0001) rotate(270 6.32897e-005 4.4512e-005) flipY(-10.0001) rotate(90 -0.00012207 -10.0001)">
    <title>&quot;20PGB90AA015&quot;</title>
    <rt:dyn type="KKS" mode="constant" value="&quot;20PGB90AA015&quot;"/> 
    <rt:dyn type="DATA_NARY" mode="constant" value="&quot;TPTS&quot;"/> 
    <rt:dyn type="Operate" mode="constant" value="true"/> 
  </image>
  <text x="752.868" y="134.356" fill="black" font-size="15" text-anchor="middle">20KPM22<tspan x="752.868" dy="15">AT003</tspan>
  </text>
  <text x="683.417" y="365.189" fill="black" font-size="15" text-anchor="middle">20PGB90<tspan x="683.417" dy="15">AA016</tspan>
  </text>
  <image x="664.536" y="280.174" width="70" height="65" xlink:href="DS_CO_valve.svg" transform="flipX(-10.0001) rotate(270 6.32897e-005 4.4512e-005) flipY(-10.0001) rotate(90 -0.00012207 -10.0001)">
    <title>&quot;20PGB90AA016&quot;</title>
    <rt:dyn type="KKS" mode="constant" value="&quot;20PGB90AA016&quot;"/> 
    <rt:dyn type="DATA_NARY" mode="constant" value="&quot;TPTS&quot;"/> 
    <rt:dyn type="Operate" mode="constant" value="true"/> 
  </image>
  <g transform="scale(1.14 1.14 128.212 199.242) rotate(90 289.576 226.515) scale(0.559998 0.559998 635.788 749.242)">
    <rect x="-71.2437" y="-960.212" width="72.7274" height="180.303" rx="0" ry="0" fill="Col_Grey4"/> 
    <rect x="-97.3797" y="-932.562" width="125" height="125" rx="0" ry="0" fill="Col_Grey4" stroke="black"/> 
    <line x1="-72.0407" y1="-909.471" x2="27.9613" y2="-909.471" stroke="black" stroke-width="3"/> 
    <line x1="-72.0407" y1="-909.804" x2="-24.7107" y2="-868.804" stroke="black" stroke-width="3"/> 
    <line x1="-71.3807" y1="-832.805" x2="26.6313" y2="-832.805" stroke="black" stroke-width="3"/> 
    <line x1="-70.0407" y1="-833.472" x2="-24.7107" y2="-870.139" stroke="black" stroke-width="3"/> 
    <line x1="11.2113" y1="-932.94" x2="11.2113" y2="-807.186" stroke="black"/> 
    <line x1="-80.2137" y1="-931.426" x2="-81.7287" y2="-807.186" stroke="black"/> 
  </g>
  <image x="730.808" y="650.628" width="70" height="65" xlink:href="DS_CO_valve.svg" transform="flipX(-2.84217e-014) rotate(90 9.26133e-007 -7.43085e-007) flipX(-10.0001) rotate(270 6.32897e-005 4.4512e-005) flipY(-10.0001) rotate(90 -0.00012207 -10.0001)">
    <title>&quot;20PGB90AA013&quot;</title>
    <rt:dyn type="KKS" mode="constant" value="&quot;20PGB90AA013&quot;"/> 
    <rt:dyn type="DATA_NARY" mode="constant" value="&quot;TPTS&quot;"/> 
    <rt:dyn type="Operate" mode="constant" value="true"/> 
  </image>
  <text x="834.167" y="682.314" fill="black" font-size="15" text-anchor="middle">20PGB90<tspan x="834.167" dy="15">AA013</tspan>
  </text>
  <text x="823.167" y="365.189" fill="black" font-size="15" text-anchor="middle">20PGB90<tspan x="823.167" dy="15">AA014</tspan>
  </text>
  <image x="796.551" y="280.174" width="70" height="65" xlink:href="DS_CO_valve.svg" transform="flipX(-10.0001) rotate(270 6.32897e-005 4.4512e-005) flipY(-10.0001) rotate(90 -0.00012207 -10.0001)">
    <title>&quot;20PGB90AA014&quot;</title>
    <rt:dyn type="KKS" mode="constant" value="&quot;20PGB90AA014&quot;"/> 
    <rt:dyn type="DATA_NARY" mode="constant" value="&quot;TPTS&quot;"/> 
    <rt:dyn type="Operate" mode="constant" value="true"/> 
  </image>
  <line x1="1039.44" y1="233.689" x2="1039.44" y2="786.72" stroke="black" stroke-width="3"/> 
  <line x1="990.097" y1="227.629" x2="990.959" y2="871.567" stroke="black" stroke-width="3"/> 
  <text x="909.777" y="551.416" fill="black" font-size="15" text-anchor="middle">20PGB90<tspan x="909.777" dy="15">AA011</tspan>
  </text>
  <image x="946.218" y="519.234" width="70" height="65" xlink:href="DS_CO_valve.svg" transform="flipX(-2.84217e-014) rotate(90 9.26133e-007 -7.43085e-007) flipX(-10.0001) rotate(270 6.32897e-005 4.4512e-005) flipY(-10.0001) rotate(90 -0.00012207 -10.0001)">
    <title>&quot;20PGB90AA011&quot;</title>
    <rt:dyn type="KKS" mode="constant" value="&quot;20PGB90AA011&quot;"/> 
    <rt:dyn type="DATA_NARY" mode="constant" value="&quot;TPTS&quot;"/> 
    <rt:dyn type="Operate" mode="constant" value="true"/> 
  </image>
  <text x="1015.23" y="133.75" fill="black" font-size="15" text-anchor="middle">20KPM22<tspan x="1015.23" dy="15">AT002</tspan>
  </text>
  <text x="949.917" y="366.189" fill="black" font-size="15" text-anchor="middle">20PGB90<tspan x="949.917" dy="15">AA012</tspan>
  </text>
  <image x="926.385" y="281.023" width="70" height="65" xlink:href="DS_CO_valve.svg" transform="flipX(-10.0001) rotate(270 6.32897e-005 4.4512e-005) flipY(-10.0001) rotate(90 -0.00012207 -10.0001)">
    <title>&quot;20PGB90AA012&quot;</title>
    <rt:dyn type="KKS" mode="constant" value="&quot;20PGB90AA012&quot;"/> 
    <rt:dyn type="DATA_NARY" mode="constant" value="&quot;TPTS&quot;"/> 
    <rt:dyn type="Operate" mode="constant" value="true"/> 
  </image>
  <g transform="scale(1.14 1.14 128.212 199.242) rotate(90 289.576 226.515) scale(0.559998 0.559998 635.788 749.242)">
    <rect x="-69.9143" y="-1373.51" width="72.7274" height="180.303" rx="0" ry="0" fill="Col_Grey4"/> 
    <rect x="-96.0503" y="-1345.86" width="125" height="125" rx="0" ry="0" fill="Col_Grey4" stroke="black"/> 
    <line x1="-70.7113" y1="-1322.77" x2="29.2907" y2="-1322.77" stroke="black" stroke-width="3"/> 
    <line x1="-70.7113" y1="-1323.1" x2="-23.3813" y2="-1282.1" stroke="black" stroke-width="3"/> 
    <line x1="-70.0513" y1="-1246.1" x2="27.9607" y2="-1246.1" stroke="black" stroke-width="3"/> 
    <line x1="-68.7113" y1="-1246.77" x2="-23.3813" y2="-1283.43" stroke="black" stroke-width="3"/> 
    <line x1="12.5407" y1="-1346.24" x2="12.5407" y2="-1220.48" stroke="black"/> 
    <line x1="-78.8843" y1="-1344.72" x2="-80.3993" y2="-1220.48" stroke="black"/> 
  </g>
  <image x="994.657" y="651.476" width="70" height="65" xlink:href="DS_CO_valve.svg" transform="flipX(-2.84217e-014) rotate(90 9.26133e-007 -7.43085e-007) flipX(-10.0001) rotate(270 6.32897e-005 4.4512e-005) flipY(-10.0001) rotate(90 -0.00012207 -10.0001)">
    <title>&quot;20PGB90AA009&quot;</title>
    <rt:dyn type="KKS" mode="constant" value="&quot;20PGB90AA009&quot;"/> 
    <rt:dyn type="DATA_NARY" mode="constant" value="&quot;TPTS&quot;"/> 
    <rt:dyn type="Operate" mode="constant" value="true"/> 
  </image>
  <text x="1096.67" y="682.314" fill="black" font-size="15" text-anchor="middle">20PGB90<tspan x="1096.67" dy="15">AA009</tspan>
  </text>
  <text x="1084.67" y="365.189" fill="black" font-size="15" text-anchor="middle">20PGB90<tspan x="1084.67" dy="15">AA010</tspan>
  </text>
  <image x="1060.4" y="281.023" width="70" height="65" xlink:href="DS_CO_valve.svg" transform="flipX(-10.0001) rotate(270 6.32897e-005 4.4512e-005) flipY(-10.0001) rotate(90 -0.00012207 -10.0001)">
    <title>&quot;20PGB90AA010&quot;</title>
    <rt:dyn type="KKS" mode="constant" value="&quot;20PGB90AA010&quot;"/> 
    <rt:dyn type="DATA_NARY" mode="constant" value="&quot;TPTS&quot;"/> 
    <rt:dyn type="Operate" mode="constant" value="true"/> 
  </image>
  <line x1="1306.59" y1="232.841" x2="1306.59" y2="785.871" stroke="black" stroke-width="3"/> 
  <line x1="1257.25" y1="226.781" x2="1258.11" y2="870.718" stroke="black" stroke-width="3"/> 
  <text x="1176.93" y="550.567" fill="black" font-size="15" text-anchor="middle">20PGB90<tspan x="1176.93" dy="15">AA007</tspan>
  </text>
  <image x="1213.37" y="518.385" width="70" height="65" xlink:href="DS_CO_valve.svg" transform="flipX(-2.84217e-014) rotate(90 9.26133e-007 -7.43085e-007) flipX(-10.0001) rotate(270 6.32897e-005 4.4512e-005) flipY(-10.0001) rotate(90 -0.00012207 -10.0001)">
    <title>&quot;20PGB90AA007&quot;</title>
    <rt:dyn type="KKS" mode="constant" value="&quot;20PGB90AA007&quot;"/> 
    <rt:dyn type="DATA_NARY" mode="constant" value="&quot;TPTS&quot;"/> 
    <rt:dyn type="Operate" mode="constant" value="true"/> 
  </image>
  <text x="1283.87" y="134.357" fill="black" font-size="15" text-anchor="middle">20KPM21<tspan x="1283.87" dy="15">AT003</tspan>
  </text>
  <text x="1219.42" y="365.189" fill="black" font-size="15" text-anchor="middle">20PGB90<tspan x="1219.42" dy="15">AA008</tspan>
  </text>
  <image x="1196.53" y="280.175" width="70" height="65" xlink:href="DS_CO_valve.svg" transform="flipX(-10.0001) rotate(270 6.32897e-005 4.4512e-005) flipY(-10.0001) rotate(90 -0.00012207 -10.0001)">
    <title>&quot;20PGB90AA008&quot;</title>
    <rt:dyn type="KKS" mode="constant" value="&quot;20PGB90AA008&quot;"/> 
    <rt:dyn type="DATA_NARY" mode="constant" value="&quot;TPTS&quot;"/> 
    <rt:dyn type="Operate" mode="constant" value="true"/> 
  </image>
  <g transform="scale(1.14 1.14 128.212 199.242) rotate(90 289.576 226.515) scale(0.559998 0.559998 635.788 749.242)">
    <rect x="-71.2436" y="-1791.98" width="72.7274" height="180.303" rx="0" ry="0" fill="Col_Grey4"/> 
    <rect x="-97.3796" y="-1764.33" width="125" height="125" rx="0" ry="0" fill="Col_Grey4" stroke="black"/> 
    <line x1="-72.0406" y1="-1741.23" x2="27.9614" y2="-1741.23" stroke="black" stroke-width="3"/> 
    <line x1="-72.0406" y1="-1741.57" x2="-24.7106" y2="-1700.57" stroke="black" stroke-width="3"/> 
    <line x1="-71.3806" y1="-1664.57" x2="26.6314" y2="-1664.57" stroke="black" stroke-width="3"/> 
    <line x1="-70.0406" y1="-1665.24" x2="-24.7106" y2="-1701.9" stroke="black" stroke-width="3"/> 
    <line x1="11.2114" y1="-1764.7" x2="11.2114" y2="-1638.95" stroke="black"/> 
    <line x1="-80.2136" y1="-1763.19" x2="-81.7286" y2="-1638.95" stroke="black"/> 
  </g>
  <image x="1261.81" y="650.627" width="70" height="65" xlink:href="DS_CO_valve.svg" transform="flipX(-2.84217e-014) rotate(90 9.26133e-007 -7.43085e-007) flipX(-10.0001) rotate(270 6.32897e-005 4.4512e-005) flipY(-10.0001) rotate(90 -0.00012207 -10.0001)">
    <title>&quot;20PGB90AA005&quot;</title>
    <rt:dyn type="KKS" mode="constant" value="&quot;20PGB90AA005&quot;"/> 
    <rt:dyn type="DATA_NARY" mode="constant" value="&quot;TPTS&quot;"/> 
    <rt:dyn type="Operate" mode="constant" value="true"/> 
  </image>
  <text x="1366.17" y="682.314" fill="black" font-size="15" text-anchor="middle">20PGB90<tspan x="1366.17" dy="15">AA005</tspan>
  </text>
  <text x="1353.17" y="365.189" fill="black" font-size="15" text-anchor="middle">20PGB90<tspan x="1353.17" dy="15">AA006</tspan>
  </text>
  <image x="1327.55" y="280.175" width="70" height="65" xlink:href="DS_CO_valve.svg" transform="flipX(-10.0001) rotate(270 6.32897e-005 4.4512e-005) flipY(-10.0001) rotate(90 -0.00012207 -10.0001)">
    <title>&quot;20PGB90AA006&quot;</title>
    <rt:dyn type="KKS" mode="constant" value="&quot;20PGB90AA006&quot;"/> 
    <rt:dyn type="DATA_NARY" mode="constant" value="&quot;TPTS&quot;"/> 
    <rt:dyn type="Operate" mode="constant" value="true"/> 
  </image>
  <line x1="1569.74" y1="231.992" x2="1569.74" y2="785.022" stroke="black" stroke-width="3"/> 
  <line x1="1520.4" y1="226.932" x2="1521.26" y2="870.871" stroke="black" stroke-width="3"/> 
  <text x="1441.08" y="550.72" fill="black" font-size="15" text-anchor="middle">20PGB90<tspan x="1441.08" dy="15">AA003</tspan>
  </text>
  <image x="1476.52" y="518.538" width="70" height="65" xlink:href="DS_CO_valve.svg" transform="flipX(-2.84217e-014) rotate(90 9.26133e-007 -7.43085e-007) flipX(-10.0001) rotate(270 6.32897e-005 4.4512e-005) flipY(-10.0001) rotate(90 -0.00012207 -10.0001)">
    <title>&quot;20PGB90AA003&quot;</title>
    <rt:dyn type="KKS" mode="constant" value="&quot;20PGB90AA003&quot;"/> 
    <rt:dyn type="DATA_NARY" mode="constant" value="&quot;TPTS&quot;"/> 
    <rt:dyn type="Operate" mode="constant" value="true"/> 
  </image>
  <text x="1547.02" y="134.508" fill="black" font-size="15" text-anchor="middle">20KPM21<tspan x="1547.02" dy="15">AT002</tspan>
  </text>
  <text x="1480.92" y="365.189" fill="black" font-size="15" text-anchor="middle">20PGB90<tspan x="1480.92" dy="15">AA004</tspan>
  </text>
  <image x="1461.69" y="280.326" width="70" height="65" xlink:href="DS_CO_valve.svg" transform="flipX(-10.0001) rotate(270 6.32897e-005 4.4512e-005) flipY(-10.0001) rotate(90 -0.00012207 -10.0001)">
    <title>&quot;20PGB90AA004&quot;</title>
    <rt:dyn type="KKS" mode="constant" value="&quot;20PGB90AA004&quot;"/> 
    <rt:dyn type="DATA_NARY" mode="constant" value="&quot;TPTS&quot;"/> 
    <rt:dyn type="Operate" mode="constant" value="true"/> 
  </image>
  <g transform="scale(1.14 1.14 128.212 199.242) rotate(90 289.576 226.515) scale(0.559998 0.559998 635.788 749.242)">
    <rect x="-71.0065" y="-2204.18" width="72.7274" height="180.303" rx="0" ry="0" fill="Col_Grey4"/> 
    <rect x="-97.1425" y="-2176.53" width="125" height="125" rx="0" ry="0" fill="Col_Grey4" stroke="black"/> 
    <line x1="-71.8035" y1="-2153.44" x2="28.1985" y2="-2153.44" stroke="black" stroke-width="3"/> 
    <line x1="-71.8035" y1="-2153.77" x2="-24.4735" y2="-2112.77" stroke="black" stroke-width="3"/> 
    <line x1="-71.1435" y1="-2076.77" x2="26.8685" y2="-2076.77" stroke="black" stroke-width="3"/> 
    <line x1="-69.8035" y1="-2077.44" x2="-24.4735" y2="-2114.11" stroke="black" stroke-width="3"/> 
    <line x1="11.4485" y1="-2176.91" x2="11.4485" y2="-2051.15" stroke="black"/> 
    <line x1="-79.9765" y1="-2175.39" x2="-81.4915" y2="-2051.15" stroke="black"/> 
  </g>
  <image x="1524.96" y="650.78" width="70" height="65" xlink:href="DS_CO_valve.svg" transform="flipX(-2.84217e-014) rotate(90 9.26133e-007 -7.43085e-007) flipX(-10.0001) rotate(270 6.32897e-005 4.4512e-005) flipY(-10.0001) rotate(90 -0.00012207 -10.0001)">
    <title>&quot;20PGB90AA001&quot;</title>
    <rt:dyn type="KKS" mode="constant" value="&quot;20PGB90AA001&quot;"/> 
    <rt:dyn type="DATA_NARY" mode="constant" value="&quot;TPTS&quot;"/> 
    <rt:dyn type="Operate" mode="constant" value="true"/> 
  </image>
  <text x="1628.67" y="682.314" fill="black" font-size="15" text-anchor="middle">20PGB90<tspan x="1628.67" dy="15">AA001</tspan>
  </text>
  <text x="1614.2" y="365.189" fill="black" font-size="15" text-anchor="middle">20PGB90<tspan x="1614.2" dy="15">AA002</tspan>
  </text>
  <image x="1590.7" y="280.326" width="70" height="65" xlink:href="DS_CO_valve.svg" transform="flipX(-10.0001) rotate(270 6.32897e-005 4.4512e-005) flipY(-10.0001) rotate(90 -0.00012207 -10.0001)">
    <title>&quot;20PGB90AA002&quot;</title>
    <rt:dyn type="KKS" mode="constant" value="&quot;20PGB90AA002&quot;"/> 
    <rt:dyn type="DATA_NARY" mode="constant" value="&quot;TPTS&quot;"/> 
    <rt:dyn type="Operate" mode="constant" value="true"/> 
  </image>
  <line x1="715.292" y1="785.586" x2="469.292" y2="785.586" stroke="black" stroke-width="3"/> 
  <line x1="981.292" y1="785.586" x2="735.292" y2="785.586" stroke="black" stroke-width="3"/> 
  <line x1="1247.29" y1="785.586" x2="989.292" y2="785.586" stroke="black" stroke-width="3"/> 
  <line x1="1511.14" y1="785.586" x2="1265.14" y2="785.586" stroke="black" stroke-width="3"/> 
  <line x1="1772.9" y1="785.586" x2="1526.9" y2="785.586" stroke="black" stroke-width="3"/> 
  <image x="1730.91" y="773.086" width="75" height="25" xlink:href="obj_link.svg">
    <rt:dyn type="TextStr" mode="constant" value="&quot;PGB50&quot;"/> 
    <rt:event type="OnClick">LoadNew(&quot;&quot;)</rt:event>
    <rt:dyn type="ModName" mode="constant" value="&quot;pgb50&quot;"/> 
  </image>
  <image x="1730.91" y="856.537" width="75" height="25" xlink:href="obj_link.svg" transform="flipX(37.4999)">
    <rt:dyn type="TextStr" mode="constant" value="&quot;PGB50&quot;"/> 
    <rt:event type="OnClick">LoadNew(&quot;&quot;)</rt:event>
    <rt:dyn type="ModName" mode="constant" value="&quot;pgb50&quot;"/> 
  </image>
  <g>
    <rect x="454.292" y="776.726" width="13" height="17.75" rx="0" ry="0" fill="Col_BGSand"/> 
    <path d="M234.85 -409.001 A8.80505 8.80505 0 1 0 234.85 -391.436 " fill="none" stroke="black" stroke-width="3" transform="matrix(1 0 0 -1 229.642 385.38)"/> 
    <line x1="445.542" y1="785.601" x2="470.292" y2="785.601" stroke="black" stroke-width="3"/> 
  </g>
  <g>
    <rect x="720.042" y="776.726" width="13" height="17.75" rx="0" ry="0" fill="Col_BGSand"/> 
    <path d="M500.6 -409.001 A8.80505 8.80505 0 1 0 500.6 -391.436 " fill="none" stroke="black" stroke-width="3" transform="matrix(1 0 0 -1 229.642 385.38)"/> 
    <line x1="711.292" y1="785.601" x2="736.042" y2="785.601" stroke="black" stroke-width="3"/> 
  </g>
  <g>
    <rect x="981.292" y="776.726" width="13" height="17.75" rx="0" ry="0" fill="Col_BGSand"/> 
    <path d="M761.85 -409.001 A8.80505 8.80505 0 1 0 761.85 -391.436 " fill="none" stroke="black" stroke-width="3" transform="matrix(1 0 0 -1 229.642 385.38)"/> 
    <line x1="972.542" y1="785.601" x2="997.292" y2="785.601" stroke="black" stroke-width="3"/> 
  </g>
  <g>
    <rect x="1248.79" y="776.726" width="13" height="17.75" rx="0" ry="0" fill="Col_BGSand"/> 
    <path d="M1029.35 -409.001 A8.80505 8.80505 0 1 0 1029.35 -391.436 " fill="none" stroke="black" stroke-width="3" transform="matrix(1 0 0 -1 229.642 385.38)"/> 
    <line x1="1240.04" y1="785.601" x2="1264.79" y2="785.601" stroke="black" stroke-width="3"/> 
  </g>
  <g>
    <rect x="1512.54" y="776.726" width="13" height="17.75" rx="0" ry="0" fill="Col_BGSand"/> 
    <path d="M1293.1 -409.001 A8.80505 8.80505 0 1 0 1293.1 -391.436 " fill="none" stroke="black" stroke-width="3" transform="matrix(1 0 0 -1 229.642 385.38)"/> 
    <line x1="1503.79" y1="785.601" x2="1528.54" y2="785.601" stroke="black" stroke-width="3"/> 
  </g>
  <text x="10" y="22" font-size="15">
    <title>Система промконтура потребителей нормальной эксплуатации</title>
PGB90</text>
  <image x="1382" y="160" width="75" height="25" xlink:href="obj_link.svg">
    <rt:dyn type="TextStr" mode="constant" value="&quot;KPM21&quot;"/> 
    <rt:event type="OnClick">LoadNew(&quot;&quot;)</rt:event>
    <rt:dyn type="ModName" mode="constant" value="&quot;kpm21&quot;"/> 
  </image>
  <image x="850" y="160" width="75" height="25" xlink:href="obj_link.svg">
    <rt:dyn type="TextStr" mode="constant" value="&quot;KPM22&quot;"/> 
    <rt:event type="OnClick">LoadNew(&quot;&quot;)</rt:event>
    <rt:dyn type="ModName" mode="constant" value="&quot;kpm22&quot;"/> 
  </image>
  <image x="319" y="162" width="75" height="25" xlink:href="obj_link.svg">
    <rt:dyn type="TextStr" mode="constant" value="&quot;KPM23&quot;"/> 
    <rt:event type="OnClick">LoadNew(&quot;&quot;)</rt:event>
    <rt:dyn type="ModName" mode="constant" value="&quot;kpm23&quot;"/> 
  </image>
</svg>
