<?xml version="1.0" encoding="windows-1251"?>
<svg xmlns="http://www.w3.org/2000/svg" xmlns:rt="http://www.rts.co.at/2001/XMLSchema/RtSvgPL" xmlns:xlink="http://www.w3.org/1999/xlink" xmlns:xsi="http://www.w3.org/2001/XMLSchema-instance" color="Col_BGSand" xsi:schemaLocation="http://www.w3.org/2000/svg C:\RTS\RtSvg\XML\SVG.xsd" viewBox="0 0 1914 1000" width="1914" height="1000" id="qug" fill-rule="inherit" stroke="black" font-weight="bold">
  <title>Система автоматизированного химического контроля систем блочной обессоливающей установки</title>
  <rt:model modelversion="7.2.0.24" comment="UMod all_svo&#xA;LMod quc2&#xA;RMod quk1&#xA;RASU" revision="4.1" />
  <line x1="1338.5" y1="129.697" x2="1338.5" y2="78" stroke="black" />
  <line x1="1338.5" y1="388" x2="1338.5" y2="152" stroke="black" />
  <line x1="1791.5" y1="386.697" x2="1791.5" y2="150.697" stroke="black" />
  <line x1="1791.5" y1="123.697" x2="1791.5" y2="72" stroke="black" />
  <line x1="1791.5" y1="482.697" x2="1791.5" y2="420.697" stroke="black" />
  <line x1="902.5" y1="390.697" x2="902.5" y2="154.697" stroke="black" />
  <line x1="450" y1="389" x2="450" y2="153" stroke="black" />
  <line x1="257.5" y1="662" x2="257.5" y2="537" stroke="black" stroke-width="3" />
  <text x="957" y="50" font-size="30" text-anchor="middle">Система АХК систем блочной обессоливающей установки</text>
  <rect x="1851.09" y="125.546" width="0" height="0" rx="0" ry="0" />
  <rect x="1861.24" y="333.697" width="0" height="0" rx="0" ry="0" />
  <rect x="1851.39" y="810.849" width="0" height="0" rx="0" ry="0" />
  <text x="1601.94" y="687.848" fill="black" font-size="15" text-anchor="middle">20QUG40AX001</text>
  <g>
    <rect x="1502.59" y="662.681" width="245" height="152.348" rx="0" ry="0" fill="none" stroke-width="3" />
  </g>
  <image x="1564.3" y="726.849" width="175" height="25" xlink:href="DS_ana.svg">
    <rt:dyn type="FKKS" mode="constant" value="&quot;20QUG40CQ001&quot;" />
    <rt:dyn type="X" mode="constant" value="&quot;Q&quot;" />
    <rt:dyn type="ShowFrame" mode="constant" value="true" />
    <rt:dyn type="Color_Readings" mode="constant" value="true" />
    <rt:dyn type="ValueToTheRight" mode="constant" value="false" />
    <title>"20QUG40CQ001"</title>
  </image>
  <line x1="1600" y1="662" x2="1600" y2="208.5" stroke="black" stroke-width="3" />
  <line x1="256" y1="956" x2="1743" y2="956" stroke="black" />
  <line x1="711.151" y1="955" x2="711.151" y2="816.667" stroke="black" />
  <line x1="1600" y1="957" x2="1600" y2="815.151" stroke="black" />
  <line x1="1599" y1="210.015" x2="1792.5" y2="210" stroke="black" stroke-width="3" />
  <line x1="258" y1="956" x2="258" y2="814.576" stroke="black" />
  <image x="1555.94" y="499.697" width="70" height="65" xlink:href="DS_CO_valve.svg" transform="rotate(270 0 -10)">
    <rt:dyn type="KKS" mode="constant" value="&quot;20QUG40AA001&quot;" />
    <rt:dyn type="DATA_NARY" mode="constant" value="&quot;TPTS&quot;" />
    <rt:dyn type="Operate" mode="constant" value="true" />
    <title>"20QUG40AA001"</title>
  </image>
  <image x="1757" y="99" width="70" height="65" xlink:href="DS_CO_valve.svg" transform="rotate(270 0 0) flipX(2.17799e-007)">
    <rt:dyn type="KKS" mode="constant" value="&quot;20LDF14AA003&quot;" />
    <rt:dyn type="DATA_NARY" mode="constant" value="&quot;TPTS&quot;" />
    <rt:dyn type="Operate" mode="constant" value="true" />
    <title>"20LDF14AA003"</title>
  </image>
  <image x="1746.27" y="386.182" width="70" height="65" xlink:href="DS_Reg_valve.svg" transform="rotate(270 0 -10)">
    <rt:dyn type="KKS" mode="constant" value="&quot;20LDF14AA201&quot;" />
    <rt:dyn type="DATA_NARY" mode="constant" value="&quot;TPTS&quot;" />
    <rt:dyn type="Operate" mode="constant" value="true" />
    <rt:dyn type="NoSP" mode="constant" value="true" />
    <title>"20LDF14AA201"</title>
  </image>
  <g transform="rotate(198.121 282.38 937.257) rotate(280.803 1619.81 407.256)">
    <path d="M2206.75 -2038.92 A8.80483 8.80483 0 1 1 2206.75 -2021.31 " fill="none" stroke="black" stroke-width="3" transform="rotate(270 807.304 426.678) rotate(270 980.127 441.195) flipY() translate(0 -828) translate(229.642 442.62)" />
    <path d="M-2323.96 2210.48 A8.80483 8.80483 0 1 1 -2323.96 2228.09 " fill="none" stroke="black" stroke-width="3" transform="rotate(180 1630.39 413.332) rotate(270 807.304 426.678) rotate(270 980.127 441.195) flipY() translate(0 -828) translate(229.642 442.62)" />
  </g>
  <g transform="rotate(198.121 282.38 937.257) rotate(280.803 1619.81 407.256)">
    <path d="M1846.92 -2237.42 A8.80483 8.80483 0 1 1 1846.92 -2219.81 " fill="none" stroke="black" stroke-width="3" transform="rotate(270 807.304 426.678) rotate(270 980.127 441.195) flipY() translate(0 -828) translate(229.642 442.62)" />
    <path d="M-1964.13 2408.98 A8.80483 8.80483 0 1 1 -1964.13 2426.59 " fill="none" stroke="black" stroke-width="3" transform="rotate(180 1630.39 413.332) rotate(270 807.304 426.678) rotate(270 980.127 441.195) flipY() translate(0 -828) translate(229.642 442.62)" />
  </g>
  <text x="1145.73" y="687.848" fill="black" font-size="15" text-anchor="middle">20QUG30AX001</text>
  <g>
    <rect x="1049.74" y="662.833" width="245" height="152.348" rx="0" ry="0" fill="none" stroke-width="3" />
  </g>
  <image x="1111.45" y="726.849" width="175" height="25" xlink:href="DS_ana.svg">
    <rt:dyn type="FKKS" mode="constant" value="&quot;20QUG30CQ001&quot;" />
    <rt:dyn type="X" mode="constant" value="&quot;Q&quot;" />
    <rt:dyn type="ShowFrame" mode="constant" value="true" />
    <rt:dyn type="Color_Readings" mode="constant" value="true" />
    <rt:dyn type="ValueToTheRight" mode="constant" value="false" />
    <title>"20QUG30CQ001"</title>
  </image>
  <line x1="1146" y1="210.167" x2="1339.65" y2="210.152" stroke="black" stroke-width="3" />
  <text x="1068.5" y="528.5" fill="black" font-size="15" text-anchor="middle">
    20QUG30
    <tspan x="1068.5" dy="15">AA001</tspan>
  </text>
  <image x="1304.15" y="99.1515" width="70" height="65" xlink:href="DS_CO_valve.svg" transform="rotate(270 0 0) flipX(2.17799e-007)">
    <rt:dyn type="KKS" mode="constant" value="&quot;20LDF13AA003&quot;" />
    <rt:dyn type="DATA_NARY" mode="constant" value="&quot;TPTS&quot;" />
    <rt:dyn type="Operate" mode="constant" value="true" />
    <title>"20LDF13AA003"</title>
  </image>
  <image x="1333.15" y="407.652" width="70" height="65" xlink:href="DS_Reg_valve.svg" transform="rotate(270 -30.0027 -3.05176e-005)">
    <rt:dyn type="KKS" mode="constant" value="&quot;20LDF13AA201&quot;" />
    <rt:dyn type="DATA_NARY" mode="constant" value="&quot;TPTS&quot;" />
    <rt:dyn type="Operate" mode="constant" value="true" />
    <rt:dyn type="NoSP" mode="constant" value="true" />
    <title>"20LDF13AA201"</title>
  </image>
  <g transform="rotate(198.121 282.38 937.257) rotate(280.803 1619.81 407.256)">
    <path d="M1987.6 -1642.64 A8.80483 8.80483 0 1 1 1987.6 -1625.03 " fill="none" stroke="black" stroke-width="3" transform="rotate(270 807.304 426.678) rotate(270 980.127 441.195) flipY() translate(0 -828) translate(229.642 442.62)" />
    <path d="M-2104.81 1814.2 A8.80483 8.80483 0 1 1 -2104.81 1831.81 " fill="none" stroke="black" stroke-width="3" transform="rotate(180 1630.39 413.332) rotate(270 807.304 426.678) rotate(270 980.127 441.195) flipY() translate(0 -828) translate(229.642 442.62)" />
  </g>
  <g transform="rotate(198.121 282.38 937.257) rotate(280.803 1619.81 407.256)">
    <path d="M1627.76 -1841.14 A8.80483 8.80483 0 1 1 1627.76 -1823.53 " fill="none" stroke="black" stroke-width="3" transform="rotate(270 807.304 426.678) rotate(270 980.127 441.195) flipY() translate(0 -828) translate(229.642 442.62)" />
    <path d="M-1744.97 2012.7 A8.80483 8.80483 0 1 1 -1744.97 2030.31 " fill="none" stroke="black" stroke-width="3" transform="rotate(180 1630.39 413.332) rotate(270 807.304 426.678) rotate(270 980.127 441.195) flipY() translate(0 -828) translate(229.642 442.62)" />
  </g>
  <text x="712.243" y="687.848" fill="black" font-size="15" text-anchor="middle">20QUG20AX001</text>
  <g>
    <rect x="613.741" y="662.833" width="245" height="152.348" rx="0" ry="0" fill="none" stroke-width="3" />
  </g>
  <image x="675.452" y="726.849" width="175" height="25" xlink:href="DS_ana.svg">
    <rt:dyn type="FKKS" mode="constant" value="&quot;20QUG20CQ001&quot;" />
    <rt:dyn type="X" mode="constant" value="&quot;Q&quot;" />
    <rt:dyn type="ShowFrame" mode="constant" value="true" />
    <rt:dyn type="Color_Readings" mode="constant" value="true" />
    <rt:dyn type="ValueToTheRight" mode="constant" value="false" />
    <title>"20QUG20CQ001"</title>
  </image>
  <line x1="710" y1="210.167" x2="903.651" y2="210.152" stroke="black" stroke-width="3" />
  <text x="632.5" y="529.5" fill="black" font-size="15" text-anchor="middle">
    20QUG20
    <tspan x="632.5" dy="15">AA001</tspan>
  </text>
  <image x="905.151" y="398.652" width="70" height="65" xlink:href="DS_Reg_valve.svg" transform="rotate(270 -30.0026 7.81989)">
    <rt:dyn type="KKS" mode="constant" value="&quot;20LDF12AA201&quot;" />
    <rt:dyn type="DATA_NARY" mode="constant" value="&quot;TPTS&quot;" />
    <rt:dyn type="Operate" mode="constant" value="true" />
    <rt:dyn type="NoSP" mode="constant" value="true" />
    <title>"20LDF12AA201"</title>
  </image>
  <g transform="rotate(198.121 282.38 937.257) rotate(280.803 1619.81 407.256)">
    <path d="M1776.73 -1261.03 A8.80483 8.80483 0 1 1 1776.73 -1243.42 " fill="none" stroke="black" stroke-width="3" transform="rotate(270 807.304 426.678) rotate(270 980.127 441.195) flipY() translate(0 -828) translate(229.642 442.62)" />
    <path d="M-1893.94 1432.59 A8.80483 8.80483 0 1 1 -1893.94 1450.2 " fill="none" stroke="black" stroke-width="3" transform="rotate(180 1630.39 413.332) rotate(270 807.304 426.678) rotate(270 980.127 441.195) flipY() translate(0 -828) translate(229.642 442.62)" />
  </g>
  <g transform="rotate(198.121 282.38 937.257) rotate(280.803 1619.81 407.256)">
    <path d="M1416.89 -1459.53 A8.80483 8.80483 0 1 1 1416.89 -1441.92 " fill="none" stroke="black" stroke-width="3" transform="rotate(270 807.304 426.678) rotate(270 980.127 441.195) flipY() translate(0 -828) translate(229.642 442.62)" />
    <path d="M-1534.1 1631.09 A8.80483 8.80483 0 1 1 -1534.1 1648.7 " fill="none" stroke="black" stroke-width="3" transform="rotate(180 1630.39 413.332) rotate(270 807.304 426.678) rotate(270 980.127 441.195) flipY() translate(0 -828) translate(229.642 442.62)" />
  </g>
  <text x="257.545" y="687.848" fill="black" font-size="15" text-anchor="middle">20QUG10AX001</text>
  <g>
    <rect x="160.893" y="662.984" width="245" height="152.348" rx="0" ry="0" fill="none" stroke-width="3" />
  </g>
  <image x="222.604" y="726.849" width="175" height="25" xlink:href="DS_ana.svg">
    <rt:dyn type="FKKS" mode="constant" value="&quot;20QUG10CQ001&quot;" />
    <rt:dyn type="X" mode="constant" value="&quot;Q&quot;" />
    <rt:dyn type="ShowFrame" mode="constant" value="true" />
    <rt:dyn type="Color_Readings" mode="constant" value="true" />
    <rt:dyn type="ValueToTheRight" mode="constant" value="false" />
    <title>"20QUG10CQ001"</title>
  </image>
  <line x1="450" y1="126" x2="450" y2="74.303" stroke="black" />
  <line x1="257.5" y1="516" x2="257.5" y2="208.804" stroke="black" stroke-width="3" />
  <line x1="257" y1="210.319" x2="450.802" y2="210.304" stroke="black" stroke-width="3" />
  <text x="176.5" y="529.5" fill="black" font-size="15" text-anchor="middle">
    20QUG10
    <tspan x="176.5" dy="15">AA001</tspan>
  </text>
  <image x="213.242" y="500.001" width="70" height="65" xlink:href="DS_CO_valve.svg" transform="rotate(270 0 -10)">
    <rt:dyn type="KKS" mode="constant" value="&quot;20QUG10AA001&quot;" />
    <rt:dyn type="DATA_NARY" mode="constant" value="&quot;TPTS&quot;" />
    <rt:dyn type="Operate" mode="constant" value="true" />
    <title>"20QUG10AA001"</title>
  </image>
  <image x="415.302" y="99.303" width="70" height="65" xlink:href="DS_CO_valve.svg" transform="rotate(270 0 0) flipX(2.17799e-007)">
    <rt:dyn type="KKS" mode="constant" value="&quot;20LDF11AA003&quot;" />
    <rt:dyn type="DATA_NARY" mode="constant" value="&quot;TPTS&quot;" />
    <rt:dyn type="Operate" mode="constant" value="true" />
    <title>"20LDF11AA003"</title>
  </image>
  <image x="445.302" y="406.804" width="70" height="65" xlink:href="DS_Reg_valve.svg" transform="rotate(270 -30.0025 0)">
    <rt:dyn type="KKS" mode="constant" value="&quot;20LDF11AA201&quot;" />
    <rt:dyn type="DATA_NARY" mode="constant" value="&quot;TPTS&quot;" />
    <rt:dyn type="Operate" mode="constant" value="true" />
    <rt:dyn type="NoSP" mode="constant" value="true" />
    <title>"20LDF11AA201"</title>
  </image>
  <g transform="rotate(198.121 282.38 937.257) rotate(280.803 1619.81 407.256)">
    <path d="M1557.58 -864.747 A8.80483 8.80483 0 1 1 1557.58 -847.137 " fill="none" stroke="black" stroke-width="3" transform="rotate(270 807.304 426.678) rotate(270 980.127 441.195) flipY() translate(0 -828) translate(229.642 442.62)" />
    <path d="M-1674.79 1036.31 A8.80483 8.80483 0 1 1 -1674.79 1053.92 " fill="none" stroke="black" stroke-width="3" transform="rotate(180 1630.39 413.332) rotate(270 807.304 426.678) rotate(270 980.127 441.195) flipY() translate(0 -828) translate(229.642 442.62)" />
  </g>
  <g transform="rotate(198.121 282.38 937.257) rotate(280.803 1619.81 407.256)">
    <path d="M1197.74 -1063.25 A8.80483 8.80483 0 1 1 1197.74 -1045.64 " fill="none" stroke="black" stroke-width="3" transform="rotate(270 807.304 426.678) rotate(270 980.127 441.195) flipY() translate(0 -828) translate(229.642 442.62)" />
    <path d="M-1314.95 1234.81 A8.80483 8.80483 0 1 1 -1314.95 1252.42 " fill="none" stroke="black" stroke-width="3" transform="rotate(180 1630.39 413.332) rotate(270 807.304 426.678) rotate(270 980.127 441.195) flipY() translate(0 -828) translate(229.642 442.62)" />
  </g>
  <line x1="1147.15" y1="957" x2="1147.15" y2="815.151" stroke="black" />
  <image x="378.5" y="356.337" width="65" height="25" xlink:href="DS_Reg_degree.svg">
    <rt:dyn type="KKS" mode="constant" value="&quot;20LDF11AA201&quot;" />
    <title>"20LDF11AA201"</title>
  </image>
  <image x="830.652" y="356.489" width="65" height="25" xlink:href="DS_Reg_degree.svg">
    <rt:dyn type="KKS" mode="constant" value="&quot;20LDF12AA201&quot;" />
    <title>"20LDF12AA201"</title>
  </image>
  <image x="1266.81" y="357.641" width="65" height="25" xlink:href="DS_Reg_degree.svg">
    <rt:dyn type="KKS" mode="constant" value="&quot;20LDF13AA201&quot;" />
    <title>"20LDF13AA201"</title>
  </image>
  <image x="1718.35" y="356.125" width="65" height="25" xlink:href="DS_Reg_degree.svg">
    <rt:dyn type="KKS" mode="constant" value="&quot;20LDF14AA201&quot;" />
    <title>"20LDF14AA201"</title>
  </image>
  <text x="1820.91" y="946.364" fill="black" font-size="15" text-anchor="middle">
    на БНТ
    <tspan x="1820.91" dy="15">или в приямок</tspan>
    <tspan x="1820.91" dy="15">20LFN50BB001</tspan>
  </text>
  <g transform="flipX(1887.93) rotate(180 1212.44 532.643)">
    <polygon points="2152.13,626.604 2165.51,634.248 2165.51,618.961 2152.13,626.604" fill="black" stroke="black" stroke-width="1" transform="rotate(180 1279.17 367.814)" />
  </g>
  <image x="323.273" y="197.955" width="75" height="25" xlink:href="obj_link.svg" transform="flipX(37.5)">
    <rt:dyn type="ModName" mode="constant" value="&quot;ldf11&quot;" />
    <rt:dyn type="TextStr" mode="constant" value="&quot;LDF11&quot;" />
  </image>
  <image x="776.576" y="197.955" width="75" height="25" xlink:href="obj_link.svg" transform="flipX(37.5)">
    <rt:dyn type="ModName" mode="constant" value="&quot;ldf12&quot;" />
    <rt:dyn type="TextStr" mode="constant" value="&quot;LDF12&quot;" />
  </image>
  <image x="1212.85" y="197.955" width="75" height="25" xlink:href="obj_link.svg" transform="flipX(37.5)">
    <rt:dyn type="ModName" mode="constant" value="&quot;ldf13&quot;" />
    <rt:dyn type="TextStr" mode="constant" value="&quot;LDF13&quot;" />
  </image>
  <image x="1665.97" y="197.955" width="75" height="25" xlink:href="obj_link.svg" transform="flipX(37.5)">
    <rt:dyn type="ModName" mode="constant" value="&quot;ldf14&quot;" />
    <rt:dyn type="TextStr" mode="constant" value="&quot;LDF14&quot;" />
  </image>
  <g>
    <g transform="rotate(90 920.5 499) rotate(90 532.5 456)">
      <rect x="961.2" y="219" width="200" height="88" rx="0" ry="0" fill="Col_BGSand" stroke="black" stroke-width="3" />
      <rect x="962.7" y="254.395" width="197" height="27.3031" rx="0" ry="0" fill="url(#PortalHatch2)" />
    </g>
    <text x="434.8" y="278.727" fill="black" font-size="15" text-anchor="middle">20LDF11AT001</text>
    <image x="347.3" y="318" width="175" height="25" xlink:href="DS_ana.svg">
      <rt:dyn type="FKKS" mode="constant" value="&quot;20LDF11CP002&quot;" />
      <rt:dyn type="ShowFrame" mode="constant" value="true" />
      <rt:dyn type="X" mode="constant" value="&quot;dP&quot;" />
      <rt:dyn type="Color_Readings" mode="constant" value="true" />
      <rt:dyn type="ValueToTheRight" mode="constant" value="false" />
      <title>"20LDF11CP002"</title>
    </image>
  </g>
  <g transform="rotate(90 920.5 499) rotate(90 532.5 456)">
    <rect x="-384.75" y="219" width="200" height="88" rx="0" ry="0" fill="Col_BGSand" stroke="black" stroke-width="3" />
    <rect x="-383.25" y="254.395" width="197" height="27.3031" rx="0" ry="0" fill="url(#PortalHatch2)" />
  </g>
  <text x="1780.75" y="278.727" fill="black" font-size="15" text-anchor="middle">20LDF14AT001</text>
  <image x="1693.25" y="318" width="175" height="25" xlink:href="DS_ana.svg">
    <rt:dyn type="FKKS" mode="constant" value="&quot;20LDF14CP002&quot;" />
    <rt:dyn type="ShowFrame" mode="constant" value="true" />
    <rt:dyn type="X" mode="constant" value="&quot;dP&quot;" />
    <rt:dyn type="Color_Readings" mode="constant" value="true" />
    <rt:dyn type="ValueToTheRight" mode="constant" value="false" />
    <title>"20LDF14CP002"</title>
  </image>
  <g transform="rotate(90 920.5 499) rotate(90 532.5 456)">
    <rect x="56.4999" y="219" width="200" height="88" rx="0" ry="0" fill="Col_BGSand" stroke="black" stroke-width="3" />
    <rect x="57.9999" y="254.395" width="197" height="27.3031" rx="0" ry="0" fill="url(#PortalHatch2)" />
  </g>
  <text x="1339.25" y="278.5" fill="black" font-size="15" text-anchor="middle">20LDF13AT001</text>
  <image x="1252" y="318" width="175" height="25" xlink:href="DS_ana.svg">
    <rt:dyn type="FKKS" mode="constant" value="&quot;20LDF13CP002&quot;" />
    <rt:dyn type="ShowFrame" mode="constant" value="true" />
    <rt:dyn type="X" mode="constant" value="&quot;dP&quot;" />
    <rt:dyn type="Color_Readings" mode="constant" value="true" />
    <rt:dyn type="ValueToTheRight" mode="constant" value="false" />
    <title>"20LDF13CP002"</title>
  </image>
  <g transform="rotate(90 920.5 499) rotate(90 532.5 456)">
    <rect x="496.5" y="219" width="200" height="88" rx="0" ry="0" fill="Col_BGSand" stroke="black" stroke-width="3" />
    <rect x="498" y="254.395" width="197" height="27.3031" rx="0" ry="0" fill="url(#PortalHatch2)" />
  </g>
  <text x="899.5" y="278.727" fill="black" font-size="15" text-anchor="middle">20LDF12AT001</text>
  <image x="812" y="318" width="175" height="25" xlink:href="DS_ana.svg">
    <rt:dyn type="FKKS" mode="constant" value="&quot;20LDF12CP002&quot;" />
    <rt:dyn type="ShowFrame" mode="constant" value="true" />
    <rt:dyn type="X" mode="constant" value="&quot;dP&quot;" />
    <rt:dyn type="Color_Readings" mode="constant" value="true" />
    <rt:dyn type="ValueToTheRight" mode="constant" value="false" />
    <title>"20LDF12CP002"</title>
  </image>
  <text x="191.875" y="744.349" font-size="15" text-anchor="middle">УЭПН</text>
  <text x="644.375" y="744.349" font-size="15" text-anchor="middle">УЭПН</text>
  <text x="1080.63" y="744.349" font-size="15" text-anchor="middle">УЭПН</text>
  <text x="1531.88" y="744.349" font-size="15" text-anchor="middle">УЭПН</text>
  <g>
    <text x="512.75" y="704.681" font-size="15" text-anchor="middle">20PGB60-70</text>
    <line x1="611.435" y1="711.942" x2="569.435" y2="711.942" stroke="black" stroke-width="1" />
    <line x1="611.435" y1="686.942" x2="569.435" y2="686.942" stroke="black" stroke-width="1" />
    <polygon points="428.221,361.875 428.221,371.125 434.471,366.375" transform="flipX(531.958) scale(2.2265 2.2265 383.125 84.625)" />
    <polygon points="443.004,350.647 443.004,359.897 449.254,355.147" transform="flipX(531.957) flipX(506.958) scale(2.2265 2.2265 383.125 84.625)" />
  </g>
  <g>
    <text x="950.5" y="704.931" font-size="15" text-anchor="middle">20PGB60-70</text>
    <line x1="1048.19" y1="712.192" x2="1006.19" y2="712.192" stroke="black" stroke-width="1" />
    <line x1="1048.19" y1="687.192" x2="1006.19" y2="687.192" stroke="black" stroke-width="1" />
    <polygon points="232.062,361.987 232.062,371.237 238.312,366.487" transform="flipX(531.958) scale(2.2265 2.2265 383.125 84.625)" />
    <polygon points="639.166,350.759 639.166,360.009 645.416,355.259" transform="flipX(531.957) flipX(506.958) scale(2.2265 2.2265 383.125 84.625)" />
  </g>
  <g>
    <text x="1402.25" y="705.431" font-size="15" text-anchor="middle">20PGB60-70</text>
    <line x1="1500.93" y1="712.692" x2="1458.93" y2="712.692" stroke="black" stroke-width="1" />
    <line x1="1500.93" y1="687.692" x2="1458.93" y2="687.692" stroke="black" stroke-width="1" />
    <polygon points="28.7158,362.212 28.7158,371.462 34.9658,366.712" transform="flipX(531.958) scale(2.2265 2.2265 383.125 84.625)" />
    <polygon points="842.511,350.984 842.511,360.234 848.761,355.484" transform="flipX(531.957) flipX(506.958) scale(2.2265 2.2265 383.125 84.625)" />
  </g>
  <g>
    <text x="61.0002" y="704.931" font-size="15" text-anchor="middle">20PGB60-70</text>
    <line x1="159.685" y1="712.192" x2="117.685" y2="712.192" stroke="black" stroke-width="1" />
    <line x1="159.685" y1="687.192" x2="117.685" y2="687.192" stroke="black" stroke-width="1" />
    <polygon points="631.118,361.987 631.118,371.237 637.368,366.487" transform="flipX(531.958) scale(2.2265 2.2265 383.125 84.625)" />
    <polygon points="240.106,350.759 240.106,360.009 246.356,355.259" transform="flipX(531.957) flipX(506.958) scale(2.2265 2.2265 383.125 84.625)" />
  </g>
  <line x1="710.5" y1="663.196" x2="710.5" y2="538.196" stroke="black" stroke-width="3" />
  <line x1="710.5" y1="517.196" x2="710.5" y2="210" stroke="black" stroke-width="3" />
  <image x="666.091" y="499.849" width="70" height="65" xlink:href="DS_CO_valve.svg" transform="rotate(270 0 -10)">
    <rt:dyn type="KKS" mode="constant" value="&quot;20QUG20AA001&quot;" />
    <rt:dyn type="DATA_NARY" mode="constant" value="&quot;TPTS&quot;" />
    <rt:dyn type="Operate" mode="constant" value="true" />
    <title>"20QUG20AA001"</title>
  </image>
  <line x1="1147.5" y1="664" x2="1147.5" y2="539" stroke="black" stroke-width="3" />
  <line x1="1147.5" y1="521.196" x2="1147.5" y2="214" stroke="black" stroke-width="3" />
  <image x="1102.09" y="499.849" width="70" height="65" xlink:href="DS_CO_valve.svg" transform="rotate(270 0 -10)">
    <rt:dyn type="KKS" mode="constant" value="&quot;20QUG30AA001&quot;" />
    <rt:dyn type="DATA_NARY" mode="constant" value="&quot;TPTS&quot;" />
    <rt:dyn type="Operate" mode="constant" value="true" />
    <title>"20QUG30AA001"</title>
  </image>
  <text x="11" y="24.5" font-size="15" font-weight="bold">QUG</text>
  <line x1="450" y1="485" x2="450" y2="423" stroke="black" />
  <line x1="902.5" y1="127.697" x2="902.5" y2="76" stroke="black" />
  <line x1="902.5" y1="486.697" x2="902.5" y2="424.697" stroke="black" />
  <image x="868.151" y="99.1515" width="70" height="65" xlink:href="DS_CO_valve.svg" transform="rotate(270 0 0) flipX(2.17799e-007)">
    <rt:dyn type="KKS" mode="constant" value="&quot;20LDF12AA003&quot;" />
    <rt:dyn type="DATA_NARY" mode="constant" value="&quot;TPTS&quot;" />
    <rt:dyn type="Operate" mode="constant" value="true" />
    <title>"20LDF12AA003"</title>
  </image>
  <line x1="1338.5" y1="484" x2="1338.5" y2="422" stroke="black" />
  <text x="1707" y="409.5" fill="black" font-size="15" text-anchor="middle">
    20LDF14
    <tspan x="1707" dy="15">AA201</tspan>
  </text>
  <text x="1254" y="413.5" fill="black" font-size="15" text-anchor="middle">
    20LDF13
    <tspan x="1254" dy="15">AA201</tspan>
  </text>
  <text x="818" y="414.5" fill="black" font-size="15" text-anchor="middle">
    20LDF12
    <tspan x="818" dy="15">AA201</tspan>
  </text>
  <text x="370" y="414.5" fill="black" font-size="15" text-anchor="middle">
    20LDF11
    <tspan x="370" dy="15">AA201</tspan>
  </text>
  <text x="371" y="138.5" fill="black" font-size="15" text-anchor="middle">
    20LDF11
    <tspan x="371" dy="15">AA003</tspan>
  </text>
  <text x="829" y="138.5" fill="black" font-size="15" text-anchor="middle">
    20LDF12
    <tspan x="829" dy="15">AA003</tspan>
  </text>
  <text x="1264" y="138.5" fill="black" font-size="15" text-anchor="middle">
    20LDF13
    <tspan x="1264" dy="15">AA003</tspan>
  </text>
  <text x="1717" y="138.5" fill="black" font-size="15" text-anchor="middle">
    20LDF14
    <tspan x="1717" dy="15">AA003</tspan>
  </text>
  <text x="1523.5" y="529.5" fill="black" font-size="15" text-anchor="middle">
    20QUG40
    <tspan x="1523.5" dy="15">AA001</tspan>
  </text>
</svg>
