<?xml  version="1.0" encoding="windows-1251"?>
<svg color="Col_BGSand" xmlns="http://www.w3.org/2000/svg" xmlns:rt="http://www.rts.co.at/2001/XMLSchema/RtSvgPL" xmlns:xlink="http://www.w3.org/1999/xlink" xmlns:xsi="http://www.w3.org/2001/XMLSchema-instance" xsi:schemaLocation="http://www.w3.org/2000/svg C:\RTS\RtSvg\XML\SVG.xsd" viewBox="0 0 1400 1050" width="1400" height="1050" id="scheme_5">
  <title>Электр.схема. Экран 5.</title>
  <rt:model modelversion="7.2.0.24" comment="Создано АО &quot;РАСУ&quot;" revision="3"/> 
  <line x1="825" y1="1121.97" x2="825" y2="950.605" stroke="black" stroke-width="3"/> 
  <polygon points="775.758,662.605 950.758,662.605 950.758,687.605 776.258,688.605"/> 
  <line x1="825" y1="914.605" x2="825" y2="664.605" stroke="black" stroke-width="3"/> 
  <line x1="925" y1="662.605" x2="925" y2="540" stroke="black" stroke-width="3"/> 
  <line x1="925" y1="515.606" x2="925" y2="345" stroke="black" stroke-width="3"/> 
  <line x1="1462.12" y1="142" x2="-50.0001" y2="142" stroke="black" stroke-width="3"/> 
  <line x1="1087" y1="1073.82" x2="1087" y2="960.834" stroke="black" stroke-width="3"/> 
  <line x1="1087" y1="907.252" x2="1087" y2="750" stroke="black" stroke-width="3"/> 
  <text x="779.258" y="653.605" font-size="25" font-weight="bold">20BCC</text>
  <text x="958" y="528.603" font-size="20" font-weight="bold">20BCT02<tspan x="958" dy="20">GS010</tspan>
  </text>
  <line x1="1337" y1="408" x2="98.4849" y2="408" stroke="black" stroke-width="3"/> 
  <line x1="532" y1="648" x2="532" y2="554.53" stroke="black" stroke-width="3"/> 
  <text x="563.5" y="537.603" font-size="20" font-weight="bold">20BAC02<tspan x="563.5" dy="20">GS001</tspan>
  </text>
  <line x1="532" y1="504.909" x2="532" y2="407" stroke="black" stroke-width="3"/> 
  <line x1="1289" y1="750.743" x2="1085" y2="750.743" stroke="black" stroke-width="3"/> 
  <line x1="1453.03" y1="346" x2="924" y2="346" stroke="black" stroke-width="3"/> 
  <line x1="532" y1="647" x2="78.4999" y2="647" stroke="black" stroke-width="3"/> 
  <text x="253.03" y="106.818" font-size="25" font-weight="bold">220 кВ</text>
  <image x="881.25" y="498.75" width="95" height="57.5" xlink:href="DS_breaker.svg" transform="rotate(90 17.5 -3.75)">
    <rt:dyn type="KKS" mode="constant" value="&quot;NULL&quot;"/> 
    <rt:dyn type="DATA_NARY" mode="constant" value="&quot;TPTS&quot;"/> 
    <rt:dyn type="Operate" mode="constant" value="true"/> 
  </image>
  <text x="846.19" y="943.417" font-size="20" font-weight="bold">20BBC24<tspan x="846.19" dy="20">GS002</tspan>
  </text>
  <text x="1107.95" y="943.417" font-size="20" font-weight="bold">20BBC07<tspan x="1107.95" dy="20">GS001</tspan>
  </text>
  <text x="1274.24" y="808.333" font-size="25" font-weight="bold">20BBT02</text>
  <g transform="scale(1.73 1.73 557 239)">
    <line x1="985.333" y1="541.238" x2="992.833" y2="530.238" stroke="black"/> 
    <line x1="993.025" y1="529.905" x2="999.025" y2="541.238" stroke="black"/> 
    <line x1="985.833" y1="541.238" x2="999.083" y2="541.238" stroke="black"/> 
    <line x1="1014.83" y1="540.738" x2="1022.33" y2="529.738" stroke="black"/> 
    <line x1="1022.52" y1="529.405" x2="1028.52" y2="540.738" stroke="black"/> 
    <line x1="1015.33" y1="540.738" x2="1028.58" y2="540.738" stroke="black"/> 
    <line x1="1007.42" y1="521.921" x2="1007.42" y2="513.921" stroke="black"/> 
    <line x1="1007.42" y1="514.171" x2="1012.42" y2="504.921" stroke="black"/> 
    <line x1="1007.42" y1="514.408" x2="1002.42" y2="504.921" stroke="black"/> 
    <circle cx="925.664" cy="-335.596" r="20.3546" fill="none" stroke="black" stroke-width="2" transform="flipY() translate(0 -828) translate(742.691 -401.649) matrix(3.50962e-008 0.75 -0.75 3.50962e-008 0 0)"/> 
    <circle cx="925.664" cy="-335.596" r="20.3546" fill="none" stroke="black" stroke-width="2" transform="flipY() translate(0 -828) translate(767.512 -401.649) matrix(3.50962e-008 0.75 -0.75 3.50962e-008 0 0)"/> 
    <circle cx="985.665" cy="-335.596" r="20.3546" fill="none" stroke="black" stroke-width="2" transform="flipY() translate(0 -828) translate(755.24 -424.043) matrix(3.50962e-008 0.75 -0.75 3.50962e-008 0 0)"/> 
    <g>
      <line x1="1013.31" y1="-82.8957" x2="1083.46" y2="-66.4517" stroke="black" stroke-width="2" transform="flipY() translate(0 -828) translate(25.8533 388.662) scale(0.9375 0.9375)"/> 
      <polygon points="1083.46,-66.4517 1069.78,-66.4517 1083.46,-66.4517 1071.67,-72.8547 1075.02,-68.1977 1070.21,-66.4517" fill="black" stroke="black" stroke-width="1" transform="flipY() translate(0 -828) translate(25.8533 388.662) scale(0.9375 0.9375)"/> 
    </g>
  </g>
  <line x1="1423.97" y1="750.743" x2="1382" y2="750.743" stroke="black" stroke-width="3"/> 
  <line x1="1336.35" y1="685.186" x2="1336.35" y2="407" stroke="black" stroke-width="3"/> 
  <g transform="scale(1.73 1.73 557 239)">
    <line x1="242.983" y1="341.708" x2="250.483" y2="330.708" stroke="black"/> 
    <line x1="250.675" y1="330.376" x2="256.677" y2="341.708" stroke="black"/> 
    <line x1="243.483" y1="341.708" x2="256.737" y2="341.708" stroke="black"/> 
    <line x1="272.487" y1="341.208" x2="279.987" y2="330.208" stroke="black"/> 
    <line x1="280.177" y1="329.876" x2="286.177" y2="341.208" stroke="black"/> 
    <line x1="272.987" y1="341.208" x2="286.237" y2="341.208" stroke="black"/> 
    <line x1="265.067" y1="322.392" x2="265.067" y2="314.392" stroke="black"/> 
    <line x1="265.067" y1="314.642" x2="270.067" y2="305.391" stroke="black"/> 
    <line x1="265.067" y1="314.879" x2="260.067" y2="305.391" stroke="black"/> 
    <circle cx="1191.71" cy="654.195" r="20.3546" fill="none" stroke="black" stroke-width="2" transform="flipY() translate(0 -828) translate(742.691 -401.649) matrix(3.50962e-008 0.75 -0.75 3.50962e-008 0 0)"/> 
    <circle cx="1191.71" cy="654.195" r="20.3546" fill="none" stroke="black" stroke-width="2" transform="flipY() translate(0 -828) translate(767.512 -401.649) matrix(3.50962e-008 0.75 -0.75 3.50962e-008 0 0)"/> 
    <circle cx="1251.71" cy="654.195" r="20.3546" fill="none" stroke="black" stroke-width="2" transform="flipY() translate(0 -828) translate(755.24 -424.043) matrix(3.50962e-008 0.75 -0.75 3.50962e-008 0 0)"/> 
    <g>
      <line x1="221.486" y1="129.934" x2="291.626" y2="146.378" stroke="black" stroke-width="2" transform="flipY() translate(0 -828) translate(25.8533 388.662) scale(0.9375 0.9375)"/> 
      <polygon points="291.626,146.378 277.946,146.378 291.626,146.378 279.836,139.975 283.186,144.632 278.386,146.378" fill="black" stroke="black" stroke-width="1" transform="flipY() translate(0 -828) translate(25.8533 388.662) scale(0.9375 0.9375)"/> 
    </g>
  </g>
  <line x1="49.2436" y1="343.879" x2="49.2436" y2="278.132" stroke="black" stroke-width="3"/> 
  <line x1="49.2436" y1="234.494" x2="49.2436" y2="181.485" stroke="black" stroke-width="3"/> 
  <line x1="48.6935" y1="103.152" x2="148.964" y2="103.152" stroke="black" stroke-width="3"/> 
  <line x1="148.964" y1="103.181" x2="239.694" y2="103.181" stroke="black" stroke-width="3"/> 
  <line x1="49.2436" y1="143.152" x2="49.2436" y2="101.166" stroke="black" stroke-width="3"/> 
  <rect x="0.2" y="162.879" width="215" height="27" rx="0" ry="0"/> 
  <text x="222.727" y="182.576" font-size="25" font-weight="bold">500 кВ</text>
  <text x="127.273" y="384.091" font-size="25" font-weight="bold">20BAT01</text>
  <g transform="scale(1.86 1.86 754.546 711.364) flipY(711.364) rotate(90 1141.77 540.606)">
    <g id="moto11111" stroke="Col_Grey5" stroke-width="1" transform="scale(1.4 1.4) rotate(270 854.94 152.925)">
      <path d="M68.9529 260.247 C71.7659 263.997 71.7659 263.997 74.5779 260.247 C77.3909 256.497 77.3909 256.497 80.2029 260.247 " fill="none" stroke="black" stroke-width="1"/> 
    </g>
  </g>
  <circle cx="49.9943" cy="648.57" r="30.303" fill="none" stroke="black" stroke-width="3"/> 
  <line x1="19.2429" y1="647" x2="-22.7271" y2="647" stroke="black" stroke-width="3"/> 
  <text x="21.2124" y="590.151" font-size="25" font-weight="bold">МКА01</text>
  <image x="481" y="498" width="95" height="57.5" xlink:href="DS_breaker.svg" transform="rotate(270 17.5 -3.75)">
    <title>&quot;20BAY32EG204&quot;</title>
    <rt:dyn type="Operate" mode="constant" value="true"/> 
    <rt:dyn type="HasTray" mode="constant" value="false"/> 
    <rt:dyn type="KKS" mode="constant" value="&quot;20BAY32EG204&quot;"/> 
    <rt:dyn type="DATA_NARY" mode="constant" value="&quot;TYPE1&quot;"/> 
  </image>
  <image x="13" y="717" width="175" height="35" xlink:href="DS_ana.svg">
    <title>&quot;20MKC95EG202_XQ21&quot;</title>
    <rt:dyn type="FName" mode="constant" value="true"/> 
    <rt:dyn type="ShowFrame" mode="constant" value="true"/> 
    <rt:dyn type="Color_Readings" mode="constant" value="true"/> 
    <rt:dyn type="X" mode="constant" value="&quot;N&quot;"/> 
    <rt:dyn type="FKKS" mode="constant" value="&quot;20MKC95EG202_XQ21&quot;"/> 
    <rt:dyn type="ValueToTheRight" mode="constant" value="false"/> 
  </image>
  <image x="13" y="762" width="175" height="35" xlink:href="DS_ana.svg">
    <title>&quot;20MKC95EG202_XQ22&quot;</title>
    <rt:dyn type="FName" mode="constant" value="true"/> 
    <rt:dyn type="ShowFrame" mode="constant" value="true"/> 
    <rt:dyn type="Color_Readings" mode="constant" value="true"/> 
    <rt:dyn type="X" mode="constant" value="&quot;N&quot;"/> 
    <rt:dyn type="FKKS" mode="constant" value="&quot;20MKC95EG202_XQ22&quot;"/> 
    <rt:dyn type="ValueToTheRight" mode="constant" value="false"/> 
  </image>
  <image x="13" y="808" width="175" height="35" xlink:href="DS_ana.svg">
    <title>&quot;20MKC95EG202_XQ17&quot;</title>
    <rt:dyn type="FName" mode="constant" value="true"/> 
    <rt:dyn type="ShowFrame" mode="constant" value="true"/> 
    <rt:dyn type="Color_Readings" mode="constant" value="true"/> 
    <rt:dyn type="X" mode="constant" value="&quot;f&quot;"/> 
    <rt:dyn type="FKKS" mode="constant" value="&quot;20MKC95EG202_XQ17&quot;"/> 
    <rt:dyn type="ValueToTheRight" mode="constant" value="false"/> 
  </image>
  <image x="13" y="853" width="175" height="35" xlink:href="DS_ana.svg">
    <title>&quot;20MKC95EG202_XQ27&quot;</title>
    <rt:dyn type="FName" mode="constant" value="true"/> 
    <rt:dyn type="ShowFrame" mode="constant" value="true"/> 
    <rt:dyn type="Color_Readings" mode="constant" value="true"/> 
    <rt:dyn type="X" mode="constant" value="&quot;U&quot;"/> 
    <rt:dyn type="FKKS" mode="constant" value="&quot;20MKC95EG202_XQ27&quot;"/> 
    <rt:dyn type="ValueToTheRight" mode="constant" value="false"/> 
  </image>
  <text x="70.75" y="254.777" fill="black" font-size="20" font-weight="bold" text-anchor="start">00ABQ21<tspan x="70.75" dy="20">GS001</tspan>
  </text>
  <image x="-1.75" y="227.277" width="95" height="57.5" xlink:href="DS_breaker.svg" transform="rotate(270 17.5 -3.75)">
    <title>&quot;20BAY31EG201&quot;</title>
    <rt:dyn type="Operate" mode="constant" value="true"/> 
    <rt:dyn type="HasTray" mode="constant" value="false"/> 
    <rt:dyn type="KKS" mode="constant" value="&quot;20BAY31EG201&quot;"/> 
    <rt:dyn type="DATA_NARY" mode="constant" value="&quot;TYPE1&quot;"/> 
  </image>
  <image x="1036" y="907" width="95" height="57.5" xlink:href="DS_breaker.svg" transform="rotate(270 17.5 -3.75)">
    <title>&quot;20BBC07EG205&quot;</title>
    <rt:dyn type="Operate" mode="constant" value="false"/> 
    <rt:dyn type="HasTray" mode="constant" value="true"/> 
    <rt:dyn type="KKS" mode="constant" value="&quot;20BBC07EG205&quot;"/> 
    <rt:dyn type="DATA_NARY" mode="constant" value="&quot;TYPE1&quot;"/> 
  </image>
  <image x="774" y="907" width="95" height="57.5" xlink:href="DS_breaker.svg" transform="rotate(270 17.5 -3.75)">
    <title>&quot;20BBC24EG204&quot;</title>
    <rt:dyn type="Operate" mode="constant" value="false"/> 
    <rt:dyn type="HasTray" mode="constant" value="true"/> 
    <rt:dyn type="KKS" mode="constant" value="&quot;20BBC24EG204&quot;"/> 
    <rt:dyn type="DATA_NARY" mode="constant" value="&quot;TYPE1&quot;"/> 
  </image>
  <image x="795" y="846" width="175" height="35" xlink:href="DS_ana.svg">
    <title>&quot;20BBC24EG207_XQ15&quot;</title>
    <rt:dyn type="FName" mode="constant" value="true"/> 
    <rt:dyn type="ShowFrame" mode="constant" value="true"/> 
    <rt:dyn type="Color_Readings" mode="constant" value="true"/> 
    <rt:dyn type="X" mode="constant" value="&quot;U&quot;"/> 
    <rt:dyn type="FKKS" mode="constant" value="&quot;20BBC24EG207_XQ15&quot;"/> 
    <rt:dyn type="ValueToTheRight" mode="constant" value="false"/> 
  </image>
  <image x="1057" y="988" width="175" height="35" xlink:href="DS_ana.svg">
    <title>&quot;20BBC07EG205_XQ01&quot;</title>
    <rt:dyn type="FName" mode="constant" value="true"/> 
    <rt:dyn type="ShowFrame" mode="constant" value="true"/> 
    <rt:dyn type="Color_Readings" mode="constant" value="true"/> 
    <rt:dyn type="X" mode="constant" value="&quot;I&quot;"/> 
    <rt:dyn type="FKKS" mode="constant" value="&quot;20BBC07EG205_XQ01&quot;"/> 
    <rt:dyn type="ValueToTheRight" mode="constant" value="false"/> 
  </image>
  <image x="1205" y="463" width="175" height="35" xlink:href="DS_ana.svg">
    <title>&quot;20MKC95EG205_XQ06&quot;</title>
    <rt:dyn type="FName" mode="constant" value="true"/> 
    <rt:dyn type="ShowFrame" mode="constant" value="true"/> 
    <rt:dyn type="Color_Readings" mode="constant" value="true"/> 
    <rt:dyn type="X" mode="constant" value="&quot;I&quot;"/> 
    <rt:dyn type="FKKS" mode="constant" value="&quot;20MKC95EG205_XQ06&quot;"/> 
    <rt:dyn type="ValueToTheRight" mode="constant" value="false"/> 
  </image>
  <image x="1205" y="509" width="175" height="35" xlink:href="DS_ana.svg">
    <title>&quot;20MKC95EG205_XQ21&quot;</title>
    <rt:dyn type="FName" mode="constant" value="true"/> 
    <rt:dyn type="ShowFrame" mode="constant" value="true"/> 
    <rt:dyn type="Color_Readings" mode="constant" value="true"/> 
    <rt:dyn type="X" mode="constant" value="&quot;N&quot;"/> 
    <rt:dyn type="FKKS" mode="constant" value="&quot;20MKC95EG205_XQ21&quot;"/> 
    <rt:dyn type="ValueToTheRight" mode="constant" value="false"/> 
  </image>
  <image x="1205" y="556" width="175" height="35" xlink:href="DS_ana.svg">
    <title>&quot;20BBD23EG207_XQ15&quot;</title>
    <rt:dyn type="FName" mode="constant" value="true"/> 
    <rt:dyn type="ShowFrame" mode="constant" value="true"/> 
    <rt:dyn type="Color_Readings" mode="constant" value="true"/> 
    <rt:dyn type="X" mode="constant" value="&quot;U&quot;"/> 
    <rt:dyn type="FKKS" mode="constant" value="&quot;20BBD23EG207_XQ15&quot;"/> 
    <rt:dyn type="ValueToTheRight" mode="constant" value="false"/> 
  </image>
</svg>
