<?xml  version="1.0" encoding="windows-1251"?>
<svg color="Col_BGSand" xmlns="http://www.w3.org/2000/svg" xmlns:rt="http://www.rts.co.at/2001/XMLSchema/RtSvgPL" xmlns:xlink="http://www.w3.org/1999/xlink" xmlns:xsi="http://www.w3.org/2001/XMLSchema-instance" xsi:schemaLocation="http://www.w3.org/2000/svg C:\RTS\RtSvg\XML\SVG.xsd" viewBox="0 0 1400 1050" width="1400" height="1050" id="scheme_8">
  <title>Электр. схема. Экран 8.</title>
  <rt:model modelversion="7.2.0.24" comment="Создано АО &quot;РАСУ&quot;" revision="3"/> 
  <line x1="1100" y1="90.1515" x2="1100" y2="-14" stroke="black" stroke-width="3"/> 
  <text x="717.727" y="61" font-size="25" font-weight="bold">20BBD</text>
  <text x="591.01" y="196.811" font-size="20" font-weight="bold">20BFT41<tspan x="591.01" dy="20">GS001</tspan>
  </text>
  <text x="790.495" y="196.811" font-size="20" font-weight="bold">20BFT42<tspan x="790.495" dy="20">GS001</tspan>
  </text>
  <text x="989.5" y="195" font-size="20" font-weight="bold">20BBD08<tspan x="989.5" dy="20">GS003</tspan>
  </text>
  <text x="596.51" y="357.511" font-size="25" font-weight="bold">20BFT41</text>
  <text x="593.01" y="484.811" font-size="20" font-weight="bold">20BFD01<tspan x="593.01" dy="20">GS001</tspan>
  </text>
  <text x="592.01" y="780.811" font-size="20" font-weight="bold">20BFD09<tspan x="592.01" dy="20">GS001</tspan>
  </text>
  <text x="576.01" y="653.511" font-size="25" font-weight="bold">20BFD</text>
  <text x="794.995" y="357.511" font-size="25" font-weight="bold">20BFT42</text>
  <text x="792.495" y="484.811" font-size="20" font-weight="bold">20BFH01<tspan x="792.495" dy="20">GS001</tspan>
  </text>
  <text x="791.495" y="780.811" font-size="20" font-weight="bold">20BFH08<tspan x="791.495" dy="20">GS001</tspan>
  </text>
  <line x1="972.03" y1="879.545" x2="972.03" y2="215.155" stroke="black" stroke-width="3"/> 
  <line x1="573" y1="875" x2="211.5" y2="875" stroke="black" stroke-width="3"/> 
  <line x1="773" y1="950" x2="-13.5" y2="950" stroke="black" stroke-width="3"/> 
  <text x="1192" y="196" font-size="20" font-weight="bold">20BFT44<tspan x="1192" dy="20">GS001</tspan>
  </text>
  <text x="1196.01" y="358.511" font-size="25" font-weight="bold">20BFT44</text>
  <text x="1190.97" y="488.511" font-size="20" font-weight="bold">20BFM01<tspan x="1190.97" dy="20">GS001</tspan>
  </text>
  <text x="1175.51" y="653.511" font-size="25" font-weight="bold">20BFM</text>
  <text x="165" y="145" font-size="25" font-weight="bold">20BCG</text>
  <text x="221" y="273.811" font-size="20" font-weight="bold">20BHT41<tspan x="221" dy="20">GS001</tspan>
  </text>
  <text x="229.01" y="432.505" font-size="25" font-weight="bold">20BHT41</text>
  <text x="223" y="557.811" font-size="20" font-weight="bold">20BHB01<tspan x="223" dy="20">GS001</tspan>
  </text>
  <text x="205.51" y="733.505" font-size="25" font-weight="bold">20BHB</text>
  <line x1="193.939" y1="875" x2="-12.5" y2="875" stroke="black" stroke-width="3"/> 
  <line x1="972.03" y1="1002.27" x2="972.03" y2="915.909" stroke="black" stroke-width="3"/> 
  <text x="934.849" y="1038.64" font-size="25" font-weight="bold">20BDF</text>
  <line x1="204" y1="86.359" x2="204" y2="-22.997" stroke="black" stroke-width="3"/> 
  <rect x="149.5" y="76" width="1178" height="23" rx="0" ry="0" fill="black"/> 
  <line x1="202.273" y1="951" x2="202.273" y2="569.697" stroke="black" stroke-width="3"/> 
  <line x1="202.273" y1="245.885" x2="202.273" y2="168.879" stroke="black" stroke-width="3"/> 
  <line x1="202.273" y1="530.396" x2="202.273" y2="474.697" stroke="black" stroke-width="3"/> 
  <line x1="202.273" y1="379.697" x2="202.273" y2="291.034" stroke="black" stroke-width="3"/> 
  <rect x="126.773" y="739" width="150" height="23" rx="0" ry="0" fill="black"/> 
  <rect x="126.773" y="157" width="150" height="23" rx="0" ry="0" fill="black"/> 
  <g transform="scale(1.73 1.73 1020 474)">
    <circle cx="1112.55" cy="474.784" r="20.3546" fill="none" stroke="black" stroke-width="2" transform="flipY() translate(0 -828) translate(-286.098 13.074) scale(0.75 0.75)"/> 
    <circle cx="1112.55" cy="474.784" r="20.3546" fill="none" stroke="black" stroke-width="2" transform="flipY() translate(0 -828) translate(-286.098 37.8926) scale(0.75 0.75)"/> 
    <line x1="540.619" y1="439.287" x2="548.119" y2="428.287" stroke="black"/> 
    <line x1="548.309" y1="427.954" x2="554.309" y2="439.287" stroke="black"/> 
    <line x1="541.119" y1="439.287" x2="554.369" y2="439.287" stroke="black"/> 
    <line x1="547.899" y1="470.458" x2="547.899" y2="462.458" stroke="black"/> 
    <line x1="547.899" y1="462.708" x2="552.899" y2="453.458" stroke="black"/> 
    <line x1="547.899" y1="462.946" x2="542.899" y2="453.458" stroke="black"/> 
  </g>
  <line x1="772.03" y1="950.606" x2="772.03" y2="800.606" stroke="black" stroke-width="3"/> 
  <line x1="572.03" y1="166.612" x2="572.03" y2="89.6061" stroke="black" stroke-width="3"/> 
  <line x1="572.03" y1="750.606" x2="572.03" y2="502.761" stroke="black" stroke-width="3"/> 
  <line x1="572.03" y1="455.123" x2="572.03" y2="399.606" stroke="black" stroke-width="3"/> 
  <line x1="572.03" y1="303.606" x2="572.03" y2="215.761" stroke="black" stroke-width="3"/> 
  <line x1="572.03" y1="875.117" x2="572.03" y2="798.117" stroke="black" stroke-width="3"/> 
  <g transform="scale(1.73 1.73 1020 474)">
    <circle cx="1395.98" cy="533.429" r="20.3546" fill="none" stroke="black" stroke-width="2" transform="flipY() translate(0 -828) translate(-286.098 13.074) scale(0.75 0.75)"/> 
    <circle cx="1395.98" cy="533.429" r="20.3546" fill="none" stroke="black" stroke-width="2" transform="flipY() translate(0 -828) translate(-286.098 37.8926) scale(0.75 0.75)"/> 
    <line x1="753.2" y1="395.303" x2="760.7" y2="384.303" stroke="black"/> 
    <line x1="760.892" y1="383.97" x2="766.892" y2="395.303" stroke="black"/> 
    <line x1="753.7" y1="395.303" x2="766.95" y2="395.303" stroke="black"/> 
    <line x1="760.479" y1="426.474" x2="760.479" y2="418.474" stroke="black"/> 
    <line x1="760.479" y1="418.724" x2="765.479" y2="409.474" stroke="black"/> 
    <line x1="760.479" y1="418.962" x2="755.479" y2="409.474" stroke="black"/> 
  </g>
  <rect x="498.53" y="664.041" width="150" height="23" rx="0" ry="0" fill="black"/> 
  <line x1="772.03" y1="751.451" x2="772.03" y2="503.606" stroke="black" stroke-width="3"/> 
  <path d="M-78.9428 -222.648 A8.80483 8.80483 0 1 1 -78.9428 -205.038 " fill="none" stroke="black" stroke-width="3" transform="rotate(274.545 500.66 898.938) flipX(326.175) flipY() translate(0 -828) translate(229.642 442.62)"/> 
  <rect x="941.757" y="989.424" width="57.5757" height="23" rx="0" ry="0" fill="black"/> 
  <line x1="969.046" y1="170.969" x2="969.266" y2="85.6099" stroke="black" stroke-width="3"/> 
  <line x1="1172.03" y1="166.764" x2="1172.03" y2="89.7576" stroke="black" stroke-width="3"/> 
  <line x1="1172.03" y1="455.275" x2="1172.03" y2="399.758" stroke="black" stroke-width="3"/> 
  <line x1="1172.03" y1="303.758" x2="1172.03" y2="215.913" stroke="black" stroke-width="3"/> 
  <g transform="scale(1.73 1.73 1020 474)">
    <circle cx="1858.55" cy="533.312" r="20.3546" fill="none" stroke="black" stroke-width="2" transform="flipY() translate(0 -828) translate(-286.098 13.074) scale(0.75 0.75)"/> 
    <circle cx="1858.55" cy="533.312" r="20.3546" fill="none" stroke="black" stroke-width="2" transform="flipY() translate(0 -828) translate(-286.098 37.8926) scale(0.75 0.75)"/> 
    <line x1="1100.09" y1="395.391" x2="1107.59" y2="384.391" stroke="black"/> 
    <line x1="1107.78" y1="384.058" x2="1113.78" y2="395.391" stroke="black"/> 
    <line x1="1100.59" y1="395.391" x2="1113.84" y2="395.391" stroke="black"/> 
    <line x1="1107.37" y1="426.562" x2="1107.37" y2="418.562" stroke="black"/> 
    <line x1="1107.37" y1="418.812" x2="1112.37" y2="409.562" stroke="black"/> 
    <line x1="1107.37" y1="419.05" x2="1102.37" y2="409.562" stroke="black"/> 
  </g>
  <rect x="1098.68" y="664.193" width="150" height="23" rx="0" ry="0" fill="black"/> 
  <line x1="1172.03" y1="681.061" x2="1172.03" y2="502.273" stroke="black" stroke-width="3"/> 
  <text x="777.697" y="653.511" font-size="25" font-weight="bold">20BFH</text>
  <text x="991.61" y="906.818" font-size="20" font-weight="bold">20BDF01<tspan x="991.61" dy="20">GS001</tspan>
  </text>
  <line x1="772.03" y1="166.612" x2="772.03" y2="89.6061" stroke="black" stroke-width="3"/> 
  <line x1="772.03" y1="455.123" x2="772.03" y2="399.606" stroke="black" stroke-width="3"/> 
  <line x1="772.03" y1="303.606" x2="772.03" y2="215.761" stroke="black" stroke-width="3"/> 
  <g transform="scale(1.73 1.73 1020 474)">
    <circle cx="1550.11" cy="533.429" r="20.3546" fill="none" stroke="black" stroke-width="2" transform="flipY() translate(0 -828) translate(-286.098 13.074) scale(0.75 0.75)"/> 
    <circle cx="1550.11" cy="533.429" r="20.3546" fill="none" stroke="black" stroke-width="2" transform="flipY() translate(0 -828) translate(-286.098 37.8926) scale(0.75 0.75)"/> 
    <line x1="868.801" y1="395.303" x2="876.301" y2="384.303" stroke="black"/> 
    <line x1="876.493" y1="383.97" x2="882.493" y2="395.303" stroke="black"/> 
    <line x1="869.301" y1="395.303" x2="882.551" y2="395.303" stroke="black"/> 
    <line x1="876.08" y1="426.474" x2="876.08" y2="418.474" stroke="black"/> 
    <line x1="876.08" y1="418.724" x2="881.08" y2="409.474" stroke="black"/> 
    <line x1="876.08" y1="418.962" x2="871.08" y2="409.474" stroke="black"/> 
  </g>
  <rect x="698.53" y="664.041" width="150" height="23" rx="0" ry="0" fill="black"/> 
  <image x="520.25" y="161" width="95" height="57.5" xlink:href="DS_breaker.svg" transform="rotate(270 17.5 -3.75)">
    <title>&quot;20BBD18EG205&quot;</title>
    <rt:dyn type="Operate" mode="constant" value="false"/> 
    <rt:dyn type="HasTray" mode="constant" value="true"/> 
    <rt:dyn type="KKS" mode="constant" value="&quot;20BBD18EG205&quot;"/> 
    <rt:dyn type="DATA_NARY" mode="constant" value="&quot;TYPE1&quot;"/> 
  </image>
  <image x="720.934" y="161" width="95" height="57.5" xlink:href="DS_breaker.svg" transform="rotate(270 17.5 -3.75)">
    <title>&quot;20BBD09EG205&quot;</title>
    <rt:dyn type="Operate" mode="constant" value="false"/> 
    <rt:dyn type="HasTray" mode="constant" value="true"/> 
    <rt:dyn type="KKS" mode="constant" value="&quot;20BBD09EG205&quot;"/> 
    <rt:dyn type="DATA_NARY" mode="constant" value="&quot;TYPE1&quot;"/> 
  </image>
  <image x="1121.25" y="161" width="95" height="57.5" xlink:href="DS_breaker.svg" transform="rotate(270 17.5 -3.75)">
    <title>&quot;20BBD10EG205&quot;</title>
    <rt:dyn type="Operate" mode="constant" value="false"/> 
    <rt:dyn type="HasTray" mode="constant" value="true"/> 
    <rt:dyn type="KKS" mode="constant" value="&quot;20BBD10EG205&quot;"/> 
    <rt:dyn type="DATA_NARY" mode="constant" value="&quot;TYPE1&quot;"/> 
  </image>
  <image x="542" y="243" width="175" height="35" xlink:href="DS_ana.svg">
    <title>&quot;20BBD18EG205_XQ01&quot;</title>
    <rt:dyn type="FName" mode="constant" value="true"/> 
    <rt:dyn type="ShowFrame" mode="constant" value="true"/> 
    <rt:dyn type="Color_Readings" mode="constant" value="true"/> 
    <rt:dyn type="X" mode="constant" value="&quot;I&quot;"/> 
    <rt:dyn type="FKKS" mode="constant" value="&quot;20BBD18EG205_XQ01&quot;"/> 
    <rt:dyn type="ValueToTheRight" mode="constant" value="false"/> 
  </image>
  <image x="742.167" y="243" width="175" height="35" xlink:href="DS_ana.svg">
    <title>&quot;20BBD09EG205_XQ01&quot;</title>
    <rt:dyn type="FName" mode="constant" value="true"/> 
    <rt:dyn type="ShowFrame" mode="constant" value="true"/> 
    <rt:dyn type="Color_Readings" mode="constant" value="true"/> 
    <rt:dyn type="X" mode="constant" value="&quot;I&quot;"/> 
    <rt:dyn type="FKKS" mode="constant" value="&quot;20BBD09EG205_XQ01&quot;"/> 
    <rt:dyn type="ValueToTheRight" mode="constant" value="false"/> 
  </image>
  <image x="1142.17" y="243" width="175" height="35" xlink:href="DS_ana.svg">
    <title>&quot;20BBD10EG205_XQ01&quot;</title>
    <rt:dyn type="FName" mode="constant" value="true"/> 
    <rt:dyn type="ShowFrame" mode="constant" value="true"/> 
    <rt:dyn type="Color_Readings" mode="constant" value="true"/> 
    <rt:dyn type="X" mode="constant" value="&quot;I&quot;"/> 
    <rt:dyn type="FKKS" mode="constant" value="&quot;20BBD10EG205_XQ01&quot;"/> 
    <rt:dyn type="ValueToTheRight" mode="constant" value="false"/> 
  </image>
  <image x="521.25" y="450" width="95" height="57.5" xlink:href="DS_breaker.svg" transform="rotate(270 17.5 -3.75)">
    <title>&quot;20BFY44EG206&quot;</title>
    <rt:dyn type="Operate" mode="constant" value="false"/> 
    <rt:dyn type="HasTray" mode="constant" value="true"/> 
    <rt:dyn type="KKS" mode="constant" value="&quot;20BFY44EG206&quot;"/> 
    <rt:dyn type="DATA_NARY" mode="constant" value="&quot;TYPE1&quot;"/> 
  </image>
  <image x="720.934" y="450" width="95" height="57.5" xlink:href="DS_breaker.svg" transform="rotate(270 17.5 -3.75)">
    <title>&quot;20BFY43EG213&quot;</title>
    <rt:dyn type="Operate" mode="constant" value="false"/> 
    <rt:dyn type="HasTray" mode="constant" value="true"/> 
    <rt:dyn type="KKS" mode="constant" value="&quot;20BFY43EG213&quot;"/> 
    <rt:dyn type="DATA_NARY" mode="constant" value="&quot;TYPE1&quot;"/> 
  </image>
  <image x="1120.29" y="450" width="95" height="57.5" xlink:href="DS_breaker.svg" transform="rotate(270 17.5 -3.75)">
    <title>&quot;20BFY48EG207&quot;</title>
    <rt:dyn type="Operate" mode="constant" value="false"/> 
    <rt:dyn type="HasTray" mode="constant" value="true"/> 
    <rt:dyn type="KKS" mode="constant" value="&quot;20BFY48EG207&quot;"/> 
    <rt:dyn type="DATA_NARY" mode="constant" value="&quot;TYPE1&quot;"/> 
  </image>
  <image x="542" y="589" width="175" height="35" xlink:href="DS_ana.svg">
    <title>&quot;20BFY44EG210_XQ15&quot;</title>
    <rt:dyn type="FName" mode="constant" value="true"/> 
    <rt:dyn type="ShowFrame" mode="constant" value="true"/> 
    <rt:dyn type="Color_Readings" mode="constant" value="true"/> 
    <rt:dyn type="X" mode="constant" value="&quot;U&quot;"/> 
    <rt:dyn type="FKKS" mode="constant" value="&quot;20BFY44EG210_XQ15&quot;"/> 
    <rt:dyn type="ValueToTheRight" mode="constant" value="false"/> 
  </image>
  <image x="742" y="589" width="175" height="35" xlink:href="DS_ana.svg">
    <title>&quot;20BFY43EG217_XQ15&quot;</title>
    <rt:dyn type="FName" mode="constant" value="true"/> 
    <rt:dyn type="ShowFrame" mode="constant" value="true"/> 
    <rt:dyn type="Color_Readings" mode="constant" value="true"/> 
    <rt:dyn type="X" mode="constant" value="&quot;U&quot;"/> 
    <rt:dyn type="FKKS" mode="constant" value="&quot;20BFY43EG217_XQ15&quot;"/> 
    <rt:dyn type="ValueToTheRight" mode="constant" value="false"/> 
  </image>
  <image x="1142" y="589" width="175" height="35" xlink:href="DS_ana.svg">
    <title>&quot;20BFY48EG210_XQ15&quot;</title>
    <rt:dyn type="FName" mode="constant" value="true"/> 
    <rt:dyn type="ShowFrame" mode="constant" value="true"/> 
    <rt:dyn type="Color_Readings" mode="constant" value="true"/> 
    <rt:dyn type="X" mode="constant" value="&quot;U&quot;"/> 
    <rt:dyn type="FKKS" mode="constant" value="&quot;20BFY48EG210_XQ15&quot;"/> 
    <rt:dyn type="ValueToTheRight" mode="constant" value="false"/> 
  </image>
  <image x="521.25" y="747" width="95" height="57.5" xlink:href="DS_breaker.svg" transform="rotate(270 17.5 -3.75)">
    <title>&quot;20BFY44EG207&quot;</title>
    <rt:dyn type="Operate" mode="constant" value="false"/> 
    <rt:dyn type="HasTray" mode="constant" value="true"/> 
    <rt:dyn type="KKS" mode="constant" value="&quot;20BFY44EG207&quot;"/> 
    <rt:dyn type="DATA_NARY" mode="constant" value="&quot;TYPE1&quot;"/> 
  </image>
  <image x="720.934" y="747" width="95" height="57.5" xlink:href="DS_breaker.svg" transform="rotate(270 17.5 -3.75)">
    <title>&quot;20BFY43EG214&quot;</title>
    <rt:dyn type="Operate" mode="constant" value="false"/> 
    <rt:dyn type="HasTray" mode="constant" value="true"/> 
    <rt:dyn type="KKS" mode="constant" value="&quot;20BFY43EG214&quot;"/> 
    <rt:dyn type="DATA_NARY" mode="constant" value="&quot;TYPE1&quot;"/> 
  </image>
  <image x="920" y="161" width="95" height="57.5" xlink:href="DS_breaker.svg" transform="rotate(270 17.5 -3.75)">
    <title>&quot;20BBD08EG205&quot;</title>
    <rt:dyn type="Operate" mode="constant" value="false"/> 
    <rt:dyn type="HasTray" mode="constant" value="true"/> 
    <rt:dyn type="KKS" mode="constant" value="&quot;20BBD08EG205&quot;"/> 
    <rt:dyn type="DATA_NARY" mode="constant" value="&quot;TYPE1&quot;"/> 
  </image>
  <image x="921" y="862" width="95" height="57.5" xlink:href="DS_breaker.svg" transform="rotate(270 17.5 -3.75)">
    <title>&quot;20BDF01EG206&quot;</title>
    <rt:dyn type="Operate" mode="constant" value="false"/> 
    <rt:dyn type="HasTray" mode="constant" value="true"/> 
    <rt:dyn type="KKS" mode="constant" value="&quot;20BDF01EG206&quot;"/> 
    <rt:dyn type="DATA_NARY" mode="constant" value="&quot;TYPE1&quot;"/> 
  </image>
  <image x="151.25" y="243.277" width="95" height="57.5" xlink:href="DS_breaker.svg" transform="rotate(270 17.5 -3.75)">
    <title>&quot;00BCG16EG205&quot;</title>
    <rt:dyn type="Operate" mode="constant" value="false"/> 
    <rt:dyn type="HasTray" mode="constant" value="true"/> 
    <rt:dyn type="KKS" mode="constant" value="&quot;00BCH15EG205&quot;"/> 
    <rt:dyn type="DATA_NARY" mode="constant" value="&quot;TYPE1&quot;"/> 
  </image>
  <image x="151.25" y="524.589" width="95" height="57.5" xlink:href="DS_breaker.svg" transform="rotate(270 17.5 -3.75)">
    <title>&quot;20BFY43EG201&quot;</title>
    <rt:dyn type="Operate" mode="constant" value="false"/> 
    <rt:dyn type="HasTray" mode="constant" value="true"/> 
    <rt:dyn type="KKS" mode="constant" value="&quot;20BFY43EG201&quot;"/> 
    <rt:dyn type="DATA_NARY" mode="constant" value="&quot;TYPE1&quot;"/> 
  </image>
  <image x="173" y="325" width="175" height="35" xlink:href="DS_ana.svg">
    <title>&quot;00BCH15EG205_XQ01&quot;</title>
    <rt:dyn type="FName" mode="constant" value="true"/> 
    <rt:dyn type="ShowFrame" mode="constant" value="true"/> 
    <rt:dyn type="Color_Readings" mode="constant" value="true"/> 
    <rt:dyn type="X" mode="constant" value="&quot;I&quot;"/> 
    <rt:dyn type="FKKS" mode="constant" value="&quot;00BCH15EG205_XQ01&quot;"/> 
    <rt:dyn type="ValueToTheRight" mode="constant" value="false"/> 
  </image>
  <image x="173" y="670" width="175" height="35" xlink:href="DS_ana.svg">
    <title>&quot;20BFY43EG203_XQ15&quot;</title>
    <rt:dyn type="FName" mode="constant" value="true"/> 
    <rt:dyn type="ShowFrame" mode="constant" value="true"/> 
    <rt:dyn type="Color_Readings" mode="constant" value="true"/> 
    <rt:dyn type="X" mode="constant" value="&quot;U&quot;"/> 
    <rt:dyn type="FKKS" mode="constant" value="&quot;20BFY43EG203_XQ15&quot;"/> 
    <rt:dyn type="ValueToTheRight" mode="constant" value="false"/> 
  </image>
  <image x="833" y="30" width="175" height="35" xlink:href="DS_ana.svg">
    <title>&quot;20BBD03EG202_XQ15&quot;</title>
    <rt:dyn type="FName" mode="constant" value="true"/> 
    <rt:dyn type="ShowFrame" mode="constant" value="true"/> 
    <rt:dyn type="Color_Readings" mode="constant" value="true"/> 
    <rt:dyn type="X" mode="constant" value="&quot;U&quot;"/> 
    <rt:dyn type="FKKS" mode="constant" value="&quot;20BBD03EG202_XQ15&quot;"/> 
    <rt:dyn type="ValueToTheRight" mode="constant" value="false"/> 
  </image>
  <image x="1070" y="30" width="175" height="35" xlink:href="DS_ana.svg">
    <title>&quot;20BBD23EG204_XQ01&quot;</title>
    <rt:dyn type="FName" mode="constant" value="true"/> 
    <rt:dyn type="ShowFrame" mode="constant" value="true"/> 
    <rt:dyn type="Color_Readings" mode="constant" value="true"/> 
    <rt:dyn type="X" mode="constant" value="&quot;I&quot;"/> 
    <rt:dyn type="FKKS" mode="constant" value="&quot;20BBD23EG204_XQ01&quot;"/> 
    <rt:dyn type="ValueToTheRight" mode="constant" value="false"/> 
  </image>
  <image x="942" y="943" width="175" height="35" xlink:href="DS_ana.svg">
    <title>&quot;20BDF02EG202_XQ15&quot;</title>
    <rt:dyn type="FName" mode="constant" value="true"/> 
    <rt:dyn type="ShowFrame" mode="constant" value="true"/> 
    <rt:dyn type="Color_Readings" mode="constant" value="true"/> 
    <rt:dyn type="X" mode="constant" value="&quot;U&quot;"/> 
    <rt:dyn type="FKKS" mode="constant" value="&quot;20BDF02EG202_XQ15&quot;"/> 
    <rt:dyn type="ValueToTheRight" mode="constant" value="false"/> 
  </image>
  <image x="942" y="802" width="175" height="35" xlink:href="DS_ana.svg">
    <title>&quot;20BDF01EG206_XQ01&quot;</title>
    <rt:dyn type="FName" mode="constant" value="true"/> 
    <rt:dyn type="ShowFrame" mode="constant" value="true"/> 
    <rt:dyn type="Color_Readings" mode="constant" value="true"/> 
    <rt:dyn type="X" mode="constant" value="&quot;I&quot;"/> 
    <rt:dyn type="FKKS" mode="constant" value="&quot;20BDF01EG206_XQ01&quot;"/> 
    <rt:dyn type="ValueToTheRight" mode="constant" value="false"/> 
  </image>
</svg>
