<?xml  version="1.0" encoding="windows-1251"?>
<svg color="Col_BGSand" xmlns="http://www.w3.org/2000/svg" xmlns:rt="http://www.rts.co.at/2001/XMLSchema/RtSvgPL" xmlns:xlink="http://www.w3.org/1999/xlink" xmlns:xsi="http://www.w3.org/2001/XMLSchema-instance" xsi:schemaLocation="http://www.w3.org/2000/svg C:\RTS\RtSvg\XML\SVG.xsd" viewBox="0 0 1914 1000" width="1914" height="1000" id="shpt_suz" fill="Col_BGSand">
  <title>Ÿœ“_—”«</title>
  <rt:model modelversion="7.2.0.24" comment="UMod all_skueh&#10;LMod shpt_sne_ne&#10;RMod 20bba&#10;RASU" revision="3"/> 
  <line x1="325" y1="867" x2="325" y2="928" stroke="black"/> 
  <line x1="1150" y1="328.5" x2="1150" y2="225" stroke="black"/> 
  <line x1="1075" y1="330.5" x2="1075" y2="226" stroke="black"/> 
  <line x1="800" y1="329.5" x2="800" y2="226" stroke="black"/> 
  <line x1="726" y1="330" x2="726" y2="225" stroke="black"/> 
  <line x1="1551" y1="653.5" x2="1551" y2="778" stroke="black"/> 
  <line x1="1426" y1="154" x2="1426" y2="112" stroke="black"/> 
  <line x1="1426" y1="329.5" x2="1426" y2="197.5" stroke="black"/> 
  <line x1="1426" y1="622" x2="1426" y2="366" stroke="black"/> 
  <line x1="1251" y1="652" x2="1251" y2="778" stroke="black"/> 
  <line x1="525" y1="653" x2="525" y2="778" stroke="black"/> 
  <line x1="200" y1="653" x2="200" y2="778" stroke="black"/> 
  <line x1="325" y1="154" x2="325" y2="110" stroke="black"/> 
  <line x1="325" y1="329.5" x2="325" y2="195" stroke="black"/> 
  <line x1="325" y1="621" x2="325" y2="366" stroke="black"/> 
  <polyline points="800,364.5 800,441 1250,441 1250,622" fill="none" stroke="black"/> 
  <polyline points="1075,361 1075,416 525,416 524,622" fill="none" stroke="black"/> 
  <line x1="1426" y1="653" x2="1426" y2="833" stroke="black"/> 
  <text x="344.576" y="187.879" fill="black" font-size="15">20BFL01<tspan x="344.576" dy="15">GS001</tspan>
  </text>
  <line x1="275" y1="225" x2="825" y2="225" stroke="black" stroke-width="3"/> 
  <line x1="292.606" y1="107.576" x2="575" y2="0"/> 
  <line x1="175" y1="778" x2="550" y2="778" stroke="black" stroke-opacity="0.998045" stroke-width="3"/> 
  <line x1="726" y1="359.5" x2="725" y2="941" stroke="black"/> 
  <rect x="265.833" y="928.651" width="1290.41" height="40.4092" rx="0" ry="0" stroke="black" stroke-width="1"/> 
  <text x="848.667" y="956.939" fill="black" font-size="20">ŸËÚ —”«</text>
  <g transform="rotate(0 750.182 759.091)">
    <rect x="505" y="469" width="40" height="55" rx="0" ry="0" fill="Col_BGSand" stroke="black" stroke-width="3"/> 
    <polygon points="515.6,660.071 525,643.071 534.4,660.171" fill="none" stroke="black" stroke-width="2" transform="flipY(572.09)"/> 
    <line x1="525" y1="474" x2="525" y2="511" stroke="black" stroke-width="3"/> 
    <line x1="510" y1="499" x2="540" y2="499" stroke="black" stroke-width="3"/> 
  </g>
  <g transform="rotate(360 750.182 759.091)">
    <rect x="1406.17" y="459.871" width="40" height="55" rx="0" ry="0" fill="Col_BGSand" stroke="black" stroke-width="3"/> 
    <polygon points="1416.77,669.199 1426.17,652.199 1435.57,669.299" fill="none" stroke="black" stroke-width="2" transform="flipY(572.09)"/> 
    <line x1="1426.17" y1="464.871" x2="1426.17" y2="501.871" stroke="black" stroke-width="3"/> 
    <line x1="1411.17" y1="489.871" x2="1441.17" y2="489.871" stroke="black" stroke-width="3"/> 
  </g>
  <g>
    <line x1="174.106" y1="490.93" x2="174.106" y2="531.43" stroke="black" stroke-width="3"/> 
    <line x1="168.606" y1="501.93" x2="169.106" y2="520.43" stroke="black" stroke-width="3"/> 
    <line x1="162.606" y1="490.93" x2="162.606" y2="531.43" stroke="black" stroke-width="3"/> 
    <line x1="157.106" y1="501.93" x2="157.606" y2="520.43" stroke="black" stroke-width="3"/> 
  </g>
  <g transform="flipX(1508.25)">
    <line x1="1438.79" y1="490.931" x2="1438.79" y2="531.431" stroke="black" stroke-width="3"/> 
    <line x1="1433.29" y1="501.931" x2="1433.79" y2="520.431" stroke="black" stroke-width="3"/> 
    <line x1="1427.29" y1="490.931" x2="1427.29" y2="531.431" stroke="black" stroke-width="3"/> 
    <line x1="1421.79" y1="501.931" x2="1422.29" y2="520.431" stroke="black" stroke-width="3"/> 
  </g>
  <line x1="325" y1="654.5" x2="325" y2="838" stroke="black"/> 
  <line x1="1225" y1="778" x2="1575" y2="778" stroke="black" stroke-opacity="0.998045" stroke-width="3"/> 
  <text x="1443.91" y="181.818" fill="black" font-size="15">20BFM01<tspan x="1443.91" dy="15">GS001</tspan>
  </text>
  <text x="331" y="36.5" fill="black" font-size="15" text-anchor="middle">20BFT24</text>
  <text x="1424.5" y="33.5" fill="black" font-size="15" text-anchor="middle">20BFT44</text>
  <text x="830" y="231.174" fill="black" font-size="15">20BFL</text>
  <line x1="1500" y1="225" x2="1050" y2="225" stroke="black" stroke-width="3"/> 
  <text x="348.242" y="495.091" fill="black" font-size="15">20BTM21</text>
  <text x="547.697" y="495.091" fill="black" font-size="15">20BTM22</text>
  <text x="1452.24" y="495.091" fill="black" font-size="15">20BTM42</text>
  <text x="1554.76" y="478.364" fill="black" font-size="15">20BTC41</text>
  <text x="140.727" y="478.364" fill="black" font-size="15">20BTC21</text>
  <image x="1579.97" y="796.159" width="175" height="25" xlink:href="DS_ana.svg">
    <title>&quot;20BUF03EG209_XQ18&quot;</title>
    <rt:dyn type="FName" mode="constant" value="true"/> 
    <rt:dyn type="ShowFrame" mode="constant" value="true"/> 
    <rt:dyn type="Color_Readings" mode="constant" value="true"/> 
    <rt:dyn type="X" mode="constant" value="&quot;U&quot;"/> 
    <rt:dyn type="FKKS" mode="constant" value="&quot;20BUF03EG209_XQ18&quot;"/> 
    <rt:dyn type="ValueToTheRight" mode="constant" value="false"/> 
  </image>
  <text x="1581.97" y="783.212" fill="black" font-size="15">20BUF</text>
  <image x="540.787" y="795.159" width="175" height="25" xlink:href="DS_ana.svg">
    <title>&quot;20BUE03EG209_XQ18&quot;</title>
    <rt:dyn type="FName" mode="constant" value="true"/> 
    <rt:dyn type="ShowFrame" mode="constant" value="true"/> 
    <rt:dyn type="Color_Readings" mode="constant" value="true"/> 
    <rt:dyn type="X" mode="constant" value="&quot;U&quot;"/> 
    <rt:dyn type="FKKS" mode="constant" value="&quot;20BUE03EG209_XQ18&quot;"/> 
    <rt:dyn type="ValueToTheRight" mode="constant" value="false"/> 
  </image>
  <text x="552.787" y="783.212" fill="black" font-size="15">20BUE</text>
  <image x="1503.76" y="244.242" width="175" height="25" xlink:href="DS_ana.svg">
    <title>&quot;20BFY48EG210_XQ15&quot;</title>
    <rt:dyn type="FName" mode="constant" value="true"/> 
    <rt:dyn type="ShowFrame" mode="constant" value="true"/> 
    <rt:dyn type="Color_Readings" mode="constant" value="true"/> 
    <rt:dyn type="X" mode="constant" value="&quot;U&quot;"/> 
    <rt:dyn type="FKKS" mode="constant" value="&quot;20BFY48EG210_XQ15&quot;"/> 
    <rt:dyn type="ValueToTheRight" mode="constant" value="false"/> 
  </image>
  <text x="1503.76" y="232.174" fill="black" font-size="15">20BFM</text>
  <polyline points="200,617 200,511 175,511" fill="none" stroke="black"/> 
  <image x="823" y="243.242" width="175" height="25" xlink:href="DS_ana.svg">
    <title>&quot;20BFY48EG204_XQ15&quot;</title>
    <rt:dyn type="FName" mode="constant" value="true"/> 
    <rt:dyn type="ShowFrame" mode="constant" value="true"/> 
    <rt:dyn type="Color_Readings" mode="constant" value="true"/> 
    <rt:dyn type="X" mode="constant" value="&quot;U&quot;"/> 
    <rt:dyn type="FKKS" mode="constant" value="&quot;20BFY48EG204_XQ15&quot;"/> 
    <rt:dyn type="ValueToTheRight" mode="constant" value="false"/> 
  </image>
  <line x1="1150" y1="361" x2="1150" y2="930" stroke="black"/> 
  <g transform="rotate(360 750.182 759.091)">
    <rect x="304.92" y="464.724" width="40" height="55" rx="0" ry="0" fill="Col_BGSand" stroke="black" stroke-width="3"/> 
    <polygon points="315.521,664.347 324.92,647.347 334.32,664.447" fill="none" stroke="black" stroke-width="2" transform="flipY(572.09)"/> 
    <line x1="324.92" y1="469.724" x2="324.92" y2="506.724" stroke="black" stroke-width="3"/> 
    <line x1="309.92" y1="494.724" x2="339.92" y2="494.724" stroke="black" stroke-width="3"/> 
  </g>
  <image x="674.75" y="314.027" width="95" height="57.5" xlink:href="DS_breaker.svg" transform="rotate(270 17.5 -3.75)">
    <title>&quot;&quot;</title>
    <rt:dyn type="KKS" mode="constant" value="&quot;NULL&quot;"/> 
    <rt:dyn type="DATA_NARY" mode="constant" value="&quot;TYPE1&quot;"/> 
  </image>
  <image x="748.75" y="314.027" width="95" height="57.5" xlink:href="DS_breaker.svg" transform="rotate(270 17.5 -3.75)">
    <title>&quot;&quot;</title>
    <rt:dyn type="KKS" mode="constant" value="&quot;NULL&quot;"/> 
    <rt:dyn type="DATA_NARY" mode="constant" value="&quot;TYPE1&quot;"/> 
  </image>
  <image x="1023.75" y="314.027" width="95" height="57.5" xlink:href="DS_breaker.svg" transform="rotate(270 17.5 -3.75)">
    <title>&quot;&quot;</title>
    <rt:dyn type="KKS" mode="constant" value="&quot;NULL&quot;"/> 
    <rt:dyn type="DATA_NARY" mode="constant" value="&quot;TYPE1&quot;"/> 
  </image>
  <image x="1099" y="314.027" width="95" height="57.5" xlink:href="DS_breaker.svg" transform="rotate(270 17.5 -3.75)">
    <title>&quot;&quot;</title>
    <rt:dyn type="KKS" mode="constant" value="&quot;NULL&quot;"/> 
    <rt:dyn type="DATA_NARY" mode="constant" value="&quot;TYPE1&quot;"/> 
  </image>
  <image x="1374" y="314.027" width="95" height="57.5" xlink:href="DS_breaker.svg" transform="rotate(270 17.5 -3.75)">
    <title>&quot;&quot;</title>
    <rt:dyn type="KKS" mode="constant" value="&quot;NULL&quot;"/> 
    <rt:dyn type="DATA_NARY" mode="constant" value="&quot;TYPE1&quot;"/> 
  </image>
  <image x="274.318" y="314.027" width="95" height="57.5" xlink:href="DS_breaker.svg" transform="rotate(270 17.5 -3.75)">
    <title>&quot;&quot;</title>
    <rt:dyn type="KKS" mode="constant" value="&quot;NULL&quot;"/> 
    <rt:dyn type="DATA_NARY" mode="constant" value="&quot;TYPE1&quot;"/> 
  </image>
  <image x="1375" y="602.277" width="95" height="57.5" xlink:href="DS_breaker.svg" transform="rotate(270 17.5 -3.75)">
    <title>&quot;&quot;</title>
    <rt:dyn type="KKS" mode="constant" value="&quot;NULL&quot;"/> 
    <rt:dyn type="DATA_NARY" mode="constant" value="&quot;TYPE1&quot;"/> 
  </image>
  <image x="274.318" y="144.661" width="94.5152" height="59.0909" xlink:href="DS_breaker.svg" transform="flipX(17.5) rotate(90 17.5 -3.74997)">
    <title>&quot;20BFY48EG201&quot;</title>
    <rt:dyn type="Operate" mode="constant" value="true"/> 
    <rt:dyn type="KKS" mode="constant" value="&quot;20BFY48EG201&quot;"/> 
    <rt:dyn type="HasTray" mode="constant" value="true"/> 
    <rt:dyn type="DATA_NARY" mode="constant" value="&quot;TYPE1&quot;"/> 
  </image>
  <image x="274.318" y="602.277" width="95" height="57.5" xlink:href="DS_breaker.svg" transform="rotate(270 17.5 -3.75)">
    <title>&quot;&quot;</title>
    <rt:dyn type="KKS" mode="constant" value="&quot;NULL&quot;"/> 
    <rt:dyn type="DATA_NARY" mode="constant" value="&quot;TYPE1&quot;"/> 
  </image>
  <image x="148.667" y="602.277" width="95" height="57.5" xlink:href="DS_breaker.svg" transform="rotate(270 17.5 -3.75)">
    <title>&quot;&quot;</title>
    <rt:dyn type="KKS" mode="constant" value="&quot;NULL&quot;"/> 
    <rt:dyn type="DATA_NARY" mode="constant" value="&quot;TYPE1&quot;"/> 
  </image>
  <image x="473" y="602.277" width="95" height="57.5" xlink:href="DS_breaker.svg" transform="rotate(270 17.5 -3.75)">
    <title>&quot;&quot;</title>
    <rt:dyn type="KKS" mode="constant" value="&quot;NULL&quot;"/> 
    <rt:dyn type="DATA_NARY" mode="constant" value="&quot;TYPE1&quot;"/> 
  </image>
  <image x="1199.33" y="602.277" width="95" height="57.5" xlink:href="DS_breaker.svg" transform="rotate(270 17.5 -3.75)">
    <title>&quot;&quot;</title>
    <rt:dyn type="KKS" mode="constant" value="&quot;NULL&quot;"/> 
    <rt:dyn type="DATA_NARY" mode="constant" value="&quot;TYPE1&quot;"/> 
  </image>
  <image x="1374.48" y="144.661" width="94.5152" height="59.0909" xlink:href="DS_breaker.svg" transform="flipX(17.5) rotate(90 17.5 -3.74997)">
    <title>&quot;20BFY48EG207&quot;</title>
    <rt:dyn type="Operate" mode="constant" value="true"/> 
    <rt:dyn type="KKS" mode="constant" value="&quot;20BFY48EG207&quot;"/> 
    <rt:dyn type="HasTray" mode="constant" value="true"/> 
    <rt:dyn type="DATA_NARY" mode="constant" value="&quot;TYPE1&quot;"/> 
  </image>
  <text x="902.666" y="71.6666" fill="black" font-size="26" text-anchor="middle">Ÿœ“ —”«</text>
  <rect x="1231.41" y="461.382" width="40" height="55" rx="0" ry="0" fill="Col_BGSand" stroke="black" stroke-width="3"/> 
  <polygon points="1242.01,667.688 1251.41,650.688 1260.81,667.788" fill="none" stroke="black" stroke-width="2" transform="flipY(572.09)"/> 
  <line x1="1251.41" y1="466.382" x2="1251.41" y2="503.382" stroke="black" stroke-width="3"/> 
  <line x1="1236.41" y1="491.382" x2="1266.41" y2="491.382" stroke="black" stroke-width="3"/> 
  <text x="1274.15" y="495.091" fill="black" font-size="15">20BTM41</text>
  <polyline points="1551,617 1551,511 1576,511" fill="none" stroke="black"/> 
  <image x="1500.33" y="602.277" width="95" height="57.5" xlink:href="DS_breaker.svg" transform="rotate(270 17.5 -3.75)">
    <title>&quot;&quot;</title>
    <rt:dyn type="KKS" mode="constant" value="&quot;NULL&quot;"/> 
    <rt:dyn type="DATA_NARY" mode="constant" value="&quot;TYPE1&quot;"/> 
  </image>
  <image x="288" y="64" width="75" height="25" xlink:href="obj_link.svg" transform="rotate(270 37.3618 12.5)">
    <rt:dyn type="ModName" mode="constant" value="&quot;20bbb&quot;"/> 
  </image>
  <image x="1387" y="64" width="75" height="25" xlink:href="obj_link.svg" transform="rotate(270 37.3618 12.5)">
    <rt:dyn type="ModName" mode="constant" value="&quot;20bbd&quot;"/> 
  </image>
  <image x="115" y="547" width="175" height="25" xlink:href="DS_ana.svg">
    <title>&quot;20BUE03EG201_XQ01&quot;</title>
    <rt:dyn type="FName" mode="constant" value="true"/> 
    <rt:dyn type="ShowFrame" mode="constant" value="true"/> 
    <rt:dyn type="Color_Readings" mode="constant" value="true"/> 
    <rt:dyn type="X" mode="constant" value="&quot;I&quot;"/> 
    <rt:dyn type="FKKS" mode="constant" value="&quot;20BUE03EG201_XQ01&quot;"/> 
    <rt:dyn type="ValueToTheRight" mode="constant" value="false"/> 
  </image>
  <image x="1476" y="547" width="175" height="25" xlink:href="DS_ana.svg">
    <title>&quot;20BUF03EG201_XQ01&quot;</title>
    <rt:dyn type="FName" mode="constant" value="true"/> 
    <rt:dyn type="ShowFrame" mode="constant" value="true"/> 
    <rt:dyn type="Color_Readings" mode="constant" value="true"/> 
    <rt:dyn type="X" mode="constant" value="&quot;I&quot;"/> 
    <rt:dyn type="FKKS" mode="constant" value="&quot;20BUF03EG201_XQ01&quot;"/> 
    <rt:dyn type="ValueToTheRight" mode="constant" value="false"/> 
  </image>
  <image x="244" y="710" width="175" height="25" xlink:href="DS_ana.svg">
    <title>&quot;20BUE03EG202_XQ01&quot;</title>
    <rt:dyn type="FName" mode="constant" value="true"/> 
    <rt:dyn type="ShowFrame" mode="constant" value="true"/> 
    <rt:dyn type="Color_Readings" mode="constant" value="true"/> 
    <rt:dyn type="X" mode="constant" value="&quot;I&quot;"/> 
    <rt:dyn type="FKKS" mode="constant" value="&quot;20BUE03EG202_XQ01&quot;"/> 
    <rt:dyn type="ValueToTheRight" mode="constant" value="false"/> 
  </image>
  <image x="445" y="710" width="175" height="25" xlink:href="DS_ana.svg">
    <title>&quot;20BUE03EG203_XQ01&quot;</title>
    <rt:dyn type="FName" mode="constant" value="true"/> 
    <rt:dyn type="ShowFrame" mode="constant" value="true"/> 
    <rt:dyn type="Color_Readings" mode="constant" value="true"/> 
    <rt:dyn type="X" mode="constant" value="&quot;I&quot;"/> 
    <rt:dyn type="FKKS" mode="constant" value="&quot;20BUE03EG203_XQ01&quot;"/> 
    <rt:dyn type="ValueToTheRight" mode="constant" value="false"/> 
  </image>
  <image x="1163" y="716" width="175" height="25" xlink:href="DS_ana.svg">
    <title>&quot;20BUF03EG202_XQ01&quot;</title>
    <rt:dyn type="FName" mode="constant" value="true"/> 
    <rt:dyn type="ShowFrame" mode="constant" value="true"/> 
    <rt:dyn type="Color_Readings" mode="constant" value="true"/> 
    <rt:dyn type="X" mode="constant" value="&quot;I&quot;"/> 
    <rt:dyn type="FKKS" mode="constant" value="&quot;20BUF03EG202_XQ01&quot;"/> 
    <rt:dyn type="ValueToTheRight" mode="constant" value="false"/> 
  </image>
  <image x="1348" y="716" width="175" height="25" xlink:href="DS_ana.svg">
    <title>&quot;20BUF03EG203_XQ01&quot;</title>
    <rt:dyn type="FName" mode="constant" value="true"/> 
    <rt:dyn type="ShowFrame" mode="constant" value="true"/> 
    <rt:dyn type="Color_Readings" mode="constant" value="true"/> 
    <rt:dyn type="X" mode="constant" value="&quot;I&quot;"/> 
    <rt:dyn type="FKKS" mode="constant" value="&quot;20BUF03EG203_XQ01&quot;"/> 
    <rt:dyn type="ValueToTheRight" mode="constant" value="false"/> 
  </image>
  <image x="274" y="814.223" width="95" height="57.5" xlink:href="DS_breaker.svg" transform="rotate(270 17.5 -3.75)">
    <title>&quot;&quot;</title>
    <rt:dyn type="KKS" mode="constant" value="&quot;NULL&quot;"/> 
    <rt:dyn type="DATA_NARY" mode="constant" value="&quot;TYPE1&quot;"/> 
  </image>
  <line x1="1426" y1="869" x2="1426" y2="930" stroke="black"/> 
  <image x="1374.75" y="817.223" width="95" height="57.5" xlink:href="DS_breaker.svg" transform="rotate(270 17.5 -3.75)">
    <title>&quot;&quot;</title>
    <rt:dyn type="KKS" mode="constant" value="&quot;NULL&quot;"/> 
    <rt:dyn type="DATA_NARY" mode="constant" value="&quot;TYPE1&quot;"/> 
  </image>
</svg>
