<?xml  version="1.0" encoding="windows-1251"?>
<svg color="Col_BGSand" xmlns="http://www.w3.org/2000/svg" xmlns:rt="http://www.rts.co.at/2001/XMLSchema/RtSvgPL" xmlns:xlink="http://www.w3.org/1999/xlink" xmlns:xsi="http://www.w3.org/2001/XMLSchema-instance" xsi:schemaLocation="http://www.w3.org/2000/svg C:\RTS\RtSvg\XML\SVG.xsd" viewBox="0 0 1914 1000" width="1914" height="1000" id="skud_sosp">
  <title>Система обнаружения случайных предметов (СОСП)</title>
  <rt:model modelversion="7.2.0.24" comment="UMod all_skud&#10;LMod skud_skv&#10;RMod skud_sott_2" revision="3"/> 
  <polyline points="-187.516,458.25 -187.516,480 354.984,480 374.984,620" fill="none" stroke="black" stroke-width="3" transform="flipX(669.992)"/> 
  <polyline points="1025,488 1025,540 988,625" fill="none" stroke="black" stroke-width="3"/> 
  <polyline points="380,458 380,480 920,480 940,620" fill="none" stroke="black" stroke-width="3"/> 
  <polyline points="885,487.75 885,540 921.25,620" fill="none" stroke="black" stroke-width="3"/> 
  <line x1="1134.27" y1="471.212" x2="1134.27" y2="471.212" stroke="black"/> 
  <g transform="flipX(1581.21)">
    <rect x="208.459" y="1410.49" width="9.26297" height="288.328" rx="0" ry="0" fill="Col_Grey3" stroke="Col_Grey5" transform="rotate(270 265.54 214.739)"/> 
    <g transform="flipY(584.048)">
      <line x1="2205.94" y1="453.196" x2="2075.94" y2="620.191" stroke="black" stroke-width="3"/> 
    </g>
    <line x1="1572.97" y1="449.57" x2="1572.97" y2="549.569" stroke="black" stroke-width="3"/> 
    <line x1="2077.01" y1="548.725" x2="1571.47" y2="549.098" stroke="black" stroke-width="3"/> 
    <line x1="1568.96" y1="833.422" x2="1568.96" y2="933.422" stroke="black" stroke-width="3"/> 
    <line x1="1630.56" y1="813.797" x2="1630.56" y2="863.799" stroke="black" stroke-width="3"/> 
    <line x1="2175.66" y1="931.827" x2="1567.46" y2="932.95" stroke="black" stroke-width="3"/> 
    <line x1="2076.01" y1="861.747" x2="1629.43" y2="862.247" stroke="black" stroke-width="3"/> 
    <line x1="2206.05" y1="695.252" x2="2075.26" y2="862.248" stroke="black" stroke-width="3"/> 
    <g>
      <g>
        <ellipse cx="1737.14" cy="380.639" rx="33.0154" ry="50.4349" fill="Col_Grey3" stroke="Col_Grey5"/> 
        <ellipse cx="1473.8" cy="381.176" rx="32.1831" ry="50.5239" fill="Col_Grey3" stroke="Col_Grey5"/> 
        <g stroke="Col_Grey5">
          <g transform="flipY(79.4953)">
            <g>
              <rect x="1617.21" y="-295.323" width="35.457" height="26" rx="0" ry="0" fill="Col_Grey3"/> 
            </g>
            <ellipse cx="1634.99" cy="-269.078" rx="17.62" ry="7.75" fill="url(#Cylinder_vertical)"/> 
          </g>
          <rect x="1623.79" y="457.823" width="22.5" height="3.5" rx="0" ry="0" fill="Col_Grey3"/> 
          <rect x="1620.54" y="454.323" width="28.75" height="3.75" rx="0" ry="0" fill="Col_Grey3"/> 
        </g>
        <g>
          <ellipse cx="1636.21" cy="299.063" rx="18.2071" ry="8.74528" fill="Col_Grey3" stroke="Col_Grey5"/> 
          <g stroke="Col_Grey5">
            <rect x="1618.17" y="299.318" width="36.5" height="38" rx="0" ry="0" fill="Col_Grey3"/> 
          </g>
          <ellipse cx="1636.58" cy="337.314" rx="17.9568" ry="7.75" fill="url(#Cylinder_vertical)"/> 
          <rect x="1615.67" y="299.318" width="40.5" height="4" rx="0" ry="0" fill="Col_Grey3" stroke="Col_Grey5"/> 
          <rect x="1615.67" y="304.818" width="40.5" height="4" rx="0" ry="0" fill="Col_Grey3" stroke="Col_Grey5"/> 
        </g>
        <g transform="flipX(658.437)">
          <rect x="-420.42" y="330.16" width="49.8561" height="101.118" rx="0" ry="0" fill="Col_Grey3"/> 
          <polygon points="-358.09,324.358 -371.09,330.108 -370.59,431.358 -358.34,437.608 -358.34,353.358" fill="Col_Grey3" stroke="Col_Grey5"/> 
        </g>
        <rect x="1538.53" y="324.349" width="136.809" height="113.752" rx="0" ry="0" fill="Col_Grey3" stroke="Col_Grey5"/> 
        <rect x="1474.19" y="330.59" width="51" height="101" rx="0" ry="0" fill="Col_Grey3"/> 
        <polygon points="1538.36,324.471 1525.36,330.221 1525.86,431.471 1538.11,437.721 1538.11,353.471" fill="Col_Grey3" stroke="Col_Grey5"/> 
        <g>
          <ellipse cx="1573.62" cy="337.314" rx="17.9568" ry="7.75" fill="Col_Grey3" stroke="Col_Grey5"/> 
          <ellipse cx="1573.25" cy="299.063" rx="18.2071" ry="8.74528" fill="Col_Grey3" stroke="Col_Grey5"/> 
          <g>
            <rect x="1555.21" y="299.318" width="36.5" height="38" rx="0" ry="0" fill="Col_Grey3" stroke="Col_Grey3"/> 
          </g>
          <rect x="1552.71" y="299.318" width="40.5" height="4" rx="0" ry="0" fill="Col_Grey3" stroke="Col_Grey5"/> 
          <rect x="1552.71" y="304.818" width="40.5" height="4" rx="0" ry="0" fill="Col_Grey3" stroke="Col_Grey5"/> 
        </g>
        <g stroke="Col_Grey5">
          <g transform="flipY(79.4953)">
            <ellipse cx="1573.99" cy="-268.578" rx="17.62" ry="7.75" fill="Col_Grey3" stroke="Col_Grey5"/> 
            <g>
              <rect x="1556.21" y="-294.824" width="35.457" height="26" rx="0" ry="0" fill="Col_Grey3" stroke="Col_Grey3"/> 
            </g>
          </g>
          <rect x="1562.79" y="457.323" width="22.5" height="3.5" rx="0" ry="0" fill="Col_Grey3"/> 
          <rect x="1559.54" y="453.823" width="28.75" height="3.75" rx="0" ry="0" fill="Col_Grey3"/> 
        </g>
      </g>
      <line x1="1475.48" y1="330.66" x2="1524.84" y2="330.445" stroke="Col_Grey5"/> 
      <line x1="1475.05" y1="431.747" x2="1524.41" y2="431.534" stroke="Col_Grey5"/> 
      <line x1="1688.47" y1="330.423" x2="1737.83" y2="330.21" stroke="Col_Grey5"/> 
      <line x1="1687.72" y1="431.232" x2="1737.08" y2="431.018" stroke="Col_Grey5"/> 
    </g>
    <g>
      <ellipse cx="1732.63" cy="767.501" rx="33.0154" ry="50.4349" fill="Col_Grey3" stroke="Col_Grey5"/> 
      <ellipse cx="1469.29" cy="768.038" rx="32.1831" ry="50.5239" fill="Col_Grey3" stroke="Col_Grey5"/> 
      <g stroke="Col_Grey5">
        <g transform="flipY(79.4953)">
          <g>
            <rect x="1612.7" y="-682.184" width="35.457" height="26" rx="0" ry="0" fill="Col_Grey3"/> 
          </g>
          <ellipse cx="1630.49" cy="-655.938" rx="17.62" ry="7.75" fill="url(#Cylinder_vertical)"/> 
        </g>
        <rect x="1619.28" y="844.685" width="22.5" height="3.5" rx="0" ry="0" fill="Col_Grey3"/> 
        <rect x="1616.03" y="841.185" width="28.75" height="3.75" rx="0" ry="0" fill="Col_Grey3"/> 
      </g>
      <g>
        <ellipse cx="1631.7" cy="685.925" rx="18.2071" ry="8.74528" fill="Col_Grey3" stroke="Col_Grey5"/> 
        <g stroke="Col_Grey5">
          <rect x="1613.66" y="686.18" width="36.5" height="38" rx="0" ry="0" fill="Col_Grey3"/> 
        </g>
        <ellipse cx="1632.07" cy="724.175" rx="17.9568" ry="7.75" fill="url(#Cylinder_vertical)"/> 
        <rect x="1611.16" y="686.18" width="40.5" height="4" rx="0" ry="0" fill="Col_Grey3" stroke="Col_Grey5"/> 
        <rect x="1611.16" y="691.68" width="40.5" height="4" rx="0" ry="0" fill="Col_Grey3" stroke="Col_Grey5"/> 
      </g>
      <g transform="flipX(658.437)">
        <rect x="-415.913" y="717.022" width="49.8561" height="101.118" rx="0" ry="0" fill="Col_Grey3"/> 
        <polygon points="-353.584,711.22 -366.584,716.97 -366.084,818.22 -353.834,824.47 -353.834,740.22" fill="Col_Grey3" stroke="Col_Grey5"/> 
      </g>
      <rect x="1533.05" y="711.004" width="136.809" height="113.752" rx="0" ry="0" fill="Col_Grey3" stroke="Col_Grey5"/> 
      <rect x="1469.68" y="717.451" width="51" height="101" rx="0" ry="0" fill="Col_Grey3"/> 
      <polygon points="1532.35,711.333 1519.35,717.083 1519.85,818.333 1532.1,824.583 1532.1,740.333" fill="Col_Grey3" stroke="Col_Grey5"/> 
      <g>
        <ellipse cx="1569.12" cy="724.175" rx="17.9568" ry="7.75" fill="Col_Grey3" stroke="Col_Grey5"/> 
        <ellipse cx="1568.75" cy="685.925" rx="18.2071" ry="8.74528" fill="Col_Grey3" stroke="Col_Grey5"/> 
        <g>
          <rect x="1550.7" y="686.18" width="36.5" height="38" rx="0" ry="0" fill="Col_Grey3"/> 
        </g>
        <rect x="1548.2" y="686.18" width="40.5" height="4" rx="0" ry="0" fill="Col_Grey3" stroke="Col_Grey5"/> 
        <rect x="1548.2" y="691.68" width="40.5" height="4" rx="0" ry="0" fill="Col_Grey3" stroke="Col_Grey5"/> 
      </g>
      <g stroke="Col_Grey5">
        <g transform="flipY(79.4953)">
          <ellipse cx="1569.55" cy="-655.377" rx="17.5615" ry="7.81091" fill="Col_Grey3" stroke="Col_Grey5"/> 
          <g>
            <rect x="1551.7" y="-681.684" width="35.457" height="26" rx="0" ry="0" fill="Col_Grey3" stroke="Col_Grey3"/> 
          </g>
        </g>
        <rect x="1558.28" y="844.185" width="22.5" height="3.5" rx="0" ry="0" fill="Col_Grey3"/> 
        <rect x="1555.03" y="840.685" width="28.75" height="3.75" rx="0" ry="0" fill="Col_Grey3"/> 
      </g>
    </g>
    <line x1="1469.43" y1="717.61" x2="1518.8" y2="717.396" stroke="Col_Grey5"/> 
    <line x1="1470.54" y1="818.609" x2="1519.91" y2="818.395" stroke="Col_Grey5"/> 
    <line x1="1683.71" y1="717.234" x2="1733.07" y2="717.02" stroke="Col_Grey5"/> 
    <line x1="1683.21" y1="818.094" x2="1732.57" y2="817.88" stroke="Col_Grey5"/> 
    <rect x="1477.07" y="268.943" width="8.01181" height="80" rx="0" ry="0" fill="Col_Grey3" stroke="Col_Grey5"/> 
    <rect x="1498.1" y="269.318" width="8.01181" height="80" rx="0" ry="0" fill="Col_Grey3" stroke="Col_Grey5"/> 
    <rect x="1569.46" y="269.694" width="8.01181" height="80" rx="0" ry="0" fill="Col_Grey3" stroke="Col_Grey5"/> 
    <rect x="1631.06" y="269.694" width="8.01181" height="80" rx="0" ry="0" fill="Col_Grey3" stroke="Col_Grey5"/> 
    <rect x="1704.3" y="269.694" width="8.01181" height="80" rx="0" ry="0" fill="Col_Grey3" stroke="Col_Grey5"/> 
    <rect x="1724.58" y="269.694" width="8.01181" height="80" rx="0" ry="0" fill="Col_Grey3" stroke="Col_Grey5"/> 
    <rect x="-179.149" y="1405.98" width="9.26297" height="288.328" rx="0" ry="0" fill="Col_Grey3" stroke="Col_Grey5" transform="rotate(270 265.54 214.739)"/> 
    <rect x="1472.56" y="656.551" width="8.01181" height="80" rx="0" ry="0" fill="Col_Grey3" stroke="Col_Grey5"/> 
    <rect x="1493.59" y="656.927" width="8.01181" height="80" rx="0" ry="0" fill="Col_Grey3" stroke="Col_Grey5"/> 
    <rect x="1564.95" y="657.302" width="8.01181" height="80" rx="0" ry="0" fill="Col_Grey3" stroke="Col_Grey5"/> 
    <rect x="1626.55" y="657.302" width="8.01181" height="80" rx="0" ry="0" fill="Col_Grey3" stroke="Col_Grey5"/> 
    <rect x="1699.79" y="657.302" width="8.01181" height="80" rx="0" ry="0" fill="Col_Grey3" stroke="Col_Grey5"/> 
    <rect x="1720.07" y="657.302" width="8.01181" height="80" rx="0" ry="0" fill="Col_Grey3" stroke="Col_Grey5"/> 
  </g>
  <line x1="885" y1="472.5" x2="885" y2="310" stroke="black" stroke-width="3"/> 
  <line x1="750" y1="471.75" x2="750" y2="313" stroke="black" stroke-width="3"/> 
  <g transform="flipX(1989.98)">
    <line x1="2954.96" y1="472.25" x2="2954.96" y2="313.25" stroke="black" stroke-width="3"/> 
    <line x1="2940.61" y1="236.101" x2="3020.71" y2="429.823" stroke="black" stroke-width="3" transform="flipY(560.978)"/> 
    <line x1="2819.96" y1="471.75" x2="2819.96" y2="310" stroke="black" stroke-width="3"/> 
    <line x1="2942.11" y1="236.181" x2="2819.17" y2="236.101" stroke="black" stroke-width="3" transform="flipY(560.978)"/> 
  </g>
  <line x1="936.26" y1="714.613" x2="905.509" y2="932.658" stroke="black" stroke-width="3" transform="flipX(946.471)"/> 
  <g transform="flipY(584.048)">
    <line x1="951.719" y1="453.377" x2="821.5" y2="619.096" stroke="black" stroke-width="3"/> 
  </g>
  <line x1="871.616" y1="234.85" x2="951.712" y2="428.572" stroke="black" stroke-width="3" transform="flipY(560.978)"/> 
  <line x1="318.747" y1="449.389" x2="318.747" y2="549.388" stroke="black" stroke-width="3"/> 
  <line x1="822.25" y1="550" x2="317.5" y2="550" stroke="black" stroke-width="3"/> 
  <line x1="314.741" y1="833.24" x2="314.741" y2="933.24" stroke="black" stroke-width="3"/> 
  <line x1="376.338" y1="813.615" x2="376.338" y2="863.617" stroke="black" stroke-width="3"/> 
  <line x1="921.444" y1="931.645" x2="313.241" y2="932.769" stroke="black" stroke-width="3"/> 
  <line x1="821.788" y1="861.566" x2="375.214" y2="862.065" stroke="black" stroke-width="3"/> 
  <line x1="951.831" y1="695.07" x2="821.037" y2="862.067" stroke="black" stroke-width="3"/> 
  <line x1="951.831" y1="715.07" x2="921.08" y2="932.113" stroke="black" stroke-width="3"/> 
  <circle cx="951.831" cy="695.07" r="100" fill="Col_Grey3" stroke="Col_Grey5"/> 
  <circle cx="951.831" cy="695.07" r="90" fill="Col_Grey3" stroke="Col_Grey5"/> 
  <text x="504.083" y="46.2888" font-size="32" font-weight="normal">Система обнаружения случайных предметов (СОСП)</text>
  <text x="429.97" y="982.333" font-size="15">20JEB10AP001</text>
  <line x1="215.215" y1="717.428" x2="264.578" y2="717.214" stroke="Col_Grey5"/> 
  <line x1="429.488" y1="717.052" x2="478.85" y2="716.838" stroke="Col_Grey5"/> 
  <text x="429.97" y="598.303" font-size="15">20JEB20AP001</text>
  <line x1="873.118" y1="234.93" x2="750.176" y2="234.85" stroke="black" stroke-width="3" transform="flipY(560.978)"/> 
  <text x="1350.88" y="598.303" font-size="15">20JEB30AP001</text>
  <text x="1350.88" y="982.333" font-size="15">20JEB40AP001</text>
  <text x="1495" y="389.5" font-size="15" font-weight="700">20JEA30AC001</text>
  <text x="1496.38" y="778.686" font-size="15" font-weight="700">20JEA40AC001</text>
  <g transform="flipX(206.811)">
    <line x1="-1287.31" y1="267.133" x2="-1474.31" y2="267.133" stroke="black" stroke-width="3"/> 
    <ellipse cx="-1144.31" cy="353.133" rx="13" ry="10" fill="Col_Grey5" stroke="Col_Grey5"/> 
    <ellipse cx="-1144.31" cy="350.133" rx="13" ry="10" fill="Col_Grey3" stroke="Col_Grey5"/> 
    <ellipse cx="-1144.31" cy="350.133" rx="10" ry="7" fill="Col_Grey3" stroke="Col_Grey5"/> 
    <line x1="-1142.81" y1="315.133" x2="-1472.81" y2="315.133" stroke="black" stroke-width="3"/> 
    <line x1="-1144.31" y1="314.133" x2="-1144.31" y2="350.133" stroke="black" stroke-width="3"/> 
  </g>
  <g transform="flipX(206.811)">
    <line x1="-1292.32" y1="655.237" x2="-1479.32" y2="655.237" stroke="black" stroke-width="3"/> 
    <ellipse cx="-1149.32" cy="741.235" rx="13" ry="10" fill="Col_Grey5" stroke="Col_Grey5"/> 
    <ellipse cx="-1149.32" cy="738.235" rx="13" ry="10" fill="Col_Grey3" stroke="Col_Grey5"/> 
    <ellipse cx="-1149.32" cy="738.235" rx="10" ry="7" fill="Col_Grey3" stroke="Col_Grey5"/> 
    <line x1="-1149.32" y1="703.236" x2="-1479.32" y2="703.236" stroke="black" stroke-width="3"/> 
    <line x1="-1149.32" y1="702.236" x2="-1149.32" y2="738.235" stroke="black" stroke-width="3"/> 
  </g>
  <text x="323.757" y="774.93" font-family="AAP_Font3" font-size="15">20JEA30</text>
  <line x1="428.994" y1="817.912" x2="478.356" y2="817.698" stroke="Col_Grey5"/> 
  <line x1="216.325" y1="818.427" x2="265.688" y2="818.213" stroke="Col_Grey5"/> 
  <g>
    <ellipse cx="1158.29" cy="150.83" rx="50" ry="20" fill="Col_Grey3" stroke="Col_Grey5"/> 
    <ellipse cx="1158.29" cy="300.83" rx="50" ry="20" fill="Col_Grey3" stroke="Col_Grey5"/> 
    <rect x="1108.29" y="150.83" width="100" height="150" rx="0" ry="0" fill="Col_Grey3" stroke="none"/> 
    <line x1="1108.23" y1="151.204" x2="1108.23" y2="302.04" stroke="Col_Grey5"/> 
    <line x1="1208.29" y1="151.504" x2="1208.29" y2="302.34" stroke="Col_Grey5"/> 
    <rect x="1138.29" y="124.83" width="40" height="8" rx="0" ry="0" fill="Col_Grey3" stroke="Col_Grey5"/> 
    <rect x="1128.01" y="119.653" width="60" height="5" rx="0" ry="0" fill="Col_Grey3" stroke="Col_Grey5"/> 
    <rect x="1128.01" y="113.393" width="60" height="5" rx="0" ry="0" fill="Col_Grey3" stroke="Col_Grey5"/> 
    <text x="1155.24" y="228.574" font-size="15" font-weight="700" text-anchor="middle">20JNG80<tspan x="1155.24" dy="15">BB001</tspan>
    </text>
  </g>
  <g>
    <ellipse cx="1023.08" cy="150.83" rx="50" ry="20" fill="Col_Grey3" stroke="Col_Grey5"/> 
    <ellipse cx="1023.08" cy="300.83" rx="50" ry="20" fill="Col_Grey3" stroke="Col_Grey5"/> 
    <rect x="973.078" y="150.83" width="100" height="150" rx="0" ry="0" fill="Col_Grey3" stroke="none"/> 
    <line x1="973.017" y1="151.204" x2="973.017" y2="302.04" stroke="Col_Grey5"/> 
    <line x1="1073.08" y1="151.504" x2="1073.08" y2="302.34" stroke="Col_Grey5"/> 
    <rect x="1003.08" y="124.83" width="40" height="8" rx="0" ry="0" fill="Col_Grey3" stroke="Col_Grey5"/> 
    <rect x="992.797" y="119.653" width="60" height="5" rx="0" ry="0" fill="Col_Grey3" stroke="Col_Grey5"/> 
    <rect x="992.797" y="113.393" width="60" height="5" rx="0" ry="0" fill="Col_Grey3" stroke="Col_Grey5"/> 
    <text x="1019.03" y="228.574" font-size="15" font-weight="700" text-anchor="middle">20JNG70<tspan x="1019.03" dy="15">BB001</tspan>
    </text>
  </g>
  <g>
    <ellipse cx="883.359" cy="153.835" rx="50" ry="20" fill="Col_Grey3" stroke="Col_Grey5"/> 
    <ellipse cx="883.359" cy="303.835" rx="50" ry="20" fill="Col_Grey3" stroke="Col_Grey5"/> 
    <rect x="833.359" y="153.835" width="100" height="150" rx="0" ry="0" fill="Col_Grey3" stroke="none"/> 
    <line x1="833.299" y1="154.209" x2="833.299" y2="305.045" stroke="Col_Grey5"/> 
    <line x1="933.359" y1="154.509" x2="933.359" y2="305.345" stroke="Col_Grey5"/> 
    <rect x="863.359" y="127.835" width="40" height="8" rx="0" ry="0" fill="Col_Grey3" stroke="Col_Grey5"/> 
    <rect x="853.079" y="122.658" width="60" height="5" rx="0" ry="0" fill="Col_Grey3" stroke="Col_Grey5"/> 
    <rect x="853.079" y="116.398" width="60" height="5" rx="0" ry="0" fill="Col_Grey3" stroke="Col_Grey5"/> 
    <text x="880.309" y="231.579" font-size="15" font-weight="700" text-anchor="middle">20JNG60<tspan x="880.309" dy="15">BB001</tspan>
    </text>
  </g>
  <g>
    <ellipse cx="751.152" cy="153.835" rx="50" ry="20" fill="Col_Grey3" stroke="Col_Grey5"/> 
    <ellipse cx="751.152" cy="303.835" rx="50" ry="20" fill="Col_Grey3" stroke="Col_Grey5"/> 
    <rect x="701.152" y="153.835" width="100" height="150" rx="0" ry="0" fill="Col_Grey3" stroke="none"/> 
    <line x1="701.092" y1="154.209" x2="701.092" y2="305.045" stroke="Col_Grey5"/> 
    <line x1="801.152" y1="154.509" x2="801.152" y2="305.345" stroke="Col_Grey5"/> 
    <rect x="731.152" y="127.835" width="40" height="8" rx="0" ry="0" fill="Col_Grey3" stroke="Col_Grey5"/> 
    <rect x="720.872" y="122.658" width="60" height="5" rx="0" ry="0" fill="Col_Grey3" stroke="Col_Grey5"/> 
    <rect x="720.872" y="116.398" width="60" height="5" rx="0" ry="0" fill="Col_Grey3" stroke="Col_Grey5"/> 
    <text x="748.102" y="231.579" font-size="15" font-weight="700" text-anchor="middle">20JNG80<tspan x="748.102" dy="15">BB001</tspan>
    </text>
  </g>
  <g>
    <rect x="363.947" y="299.138" width="36.5" height="38" rx="0" ry="0" fill="Col_Grey3"/> 
    <rect x="208.639" y="156.273" width="9.26297" height="288.328" rx="0" ry="0" fill="Col_Grey3" stroke="Col_Grey5" transform="rotate(270 265.54 214.739)"/> 
    <line x1="207.031" y1="266.381" x2="20.0314" y2="266.381" stroke="black" stroke-width="3"/> 
    <line x1="219.758" y1="330.479" x2="269.121" y2="330.264" stroke="Col_Grey5"/> 
    <line x1="220.831" y1="431.566" x2="270.194" y2="431.353" stroke="Col_Grey5"/> 
    <line x1="434.251" y1="330.242" x2="483.614" y2="330.029" stroke="Col_Grey5"/> 
    <line x1="433.5" y1="431.051" x2="482.863" y2="430.837" stroke="Col_Grey5"/> 
    <ellipse cx="482.923" cy="380.458" rx="33.0154" ry="50.4349" fill="Col_Grey3" stroke="Col_Grey5"/> 
    <ellipse cx="219.58" cy="380.995" rx="32.1831" ry="50.5239" fill="Col_Grey3" stroke="Col_Grey5"/> 
    <g stroke="Col_Grey5">
      <g fill="Col_Grey3" transform="flipY(79.4953)">
        <g fill="Col_Grey3">
          <rect x="362.99" y="-295.143" width="35.457" height="26" rx="0" ry="0" fill="Col_Grey3"/> 
        </g>
        <ellipse cx="380.774" cy="-268.896" rx="17.62" ry="7.75" fill="url(#Cylinder_vertical)"/> 
      </g>
      <rect x="369.567" y="457.642" width="22.5" height="3.5" rx="0" ry="0" fill="Col_Grey3"/> 
      <rect x="366.317" y="454.142" width="28.75" height="3.75" rx="0" ry="0" fill="Col_Grey3"/> 
    </g>
    <rect x="283.335" y="323.961" width="136.809" height="113.752" rx="0" ry="0" fill="Col_Grey3" stroke="Col_Grey5"/> 
    <rect x="219.97" y="330.409" width="51" height="101" rx="0" ry="0" fill="Col_Grey3"/> 
    <polygon points="282.642,324.29 269.642,330.04 270.142,431.29 282.392,437.54 282.392,353.29" fill="Col_Grey3" stroke="Col_Grey5"/> 
    <ellipse cx="350.031" cy="352.381" rx="13" ry="10" fill="Col_Grey3" stroke="Col_Grey5"/> 
    <ellipse cx="350.031" cy="349.381" rx="13" ry="10" fill="Col_Grey3" stroke="Col_Grey5"/> 
    <ellipse cx="350.031" cy="349.381" rx="10" ry="7" fill="Col_Grey3" stroke="Col_Grey5"/> 
    <line x1="350.031" y1="313.381" x2="350.031" y2="349.381" stroke="black" stroke-width="3"/> 
    <ellipse cx="319.033" cy="298.883" rx="18.2071" ry="8.74528" fill="Col_Grey3" stroke="Col_Grey5"/> 
    <ellipse cx="319.403" cy="337.133" rx="17.9568" ry="7.75" fill="Col_Grey3" stroke="Col_Grey5"/> 
    <rect x="300.99" y="299.138" width="36.5" height="38" rx="0" ry="0" fill="Col_Grey3"/> 
    <rect x="298.49" y="304.637" width="40.5" height="4" rx="0" ry="0" fill="Col_Grey3" stroke="Col_Grey5"/> 
    <rect x="298.49" y="299.138" width="40.5" height="4" rx="0" ry="0" fill="Col_Grey3" stroke="Col_Grey5"/> 
    <rect x="315.244" y="269.513" width="8.01181" height="80" rx="0" ry="0" fill="Col_Grey3" stroke="Col_Grey5"/> 
    <line x1="301.1" y1="309" x2="301.1" y2="337.3" stroke="Col_Grey5"/> 
    <line x1="337.908" y1="309" x2="337.908" y2="337.3" stroke="Col_Grey5"/> 
    <ellipse cx="381.99" cy="298.883" rx="18.2071" ry="8.74528" fill="Col_Grey3" stroke="Col_Grey5"/> 
    <rect x="361.447" y="304.637" width="40.5" height="4" rx="0" ry="0" fill="Col_Grey3" stroke="Col_Grey5"/> 
    <rect x="361.447" y="299.138" width="40.5" height="4" rx="0" ry="0" fill="Col_Grey3" stroke="Col_Grey5"/> 
    <rect x="376.84" y="269.513" width="8.01181" height="80" rx="0" ry="0" fill="Col_Grey3" stroke="Col_Grey5"/> 
    <g transform="rotate(180 95.3995 396.713)">
      <rect x="-292.208" y="361.596" width="49.8561" height="101.118" rx="0" ry="0" fill="Col_Grey3"/> 
      <polygon points="-229.878,355.794 -242.878,361.544 -242.378,462.794 -230.128,469.044 -230.128,384.794" fill="Col_Grey3" stroke="Col_Grey5"/> 
    </g>
    <g transform="flipY(79.4953)">
      <ellipse cx="319.774" cy="-268.396" rx="17.62" ry="7.75" fill="Col_Grey3" stroke="Col_Grey5"/> 
      <g>
        <rect x="301.99" y="-294.642" width="35.457" height="26" rx="0.168365" ry="0.168365" fill="Col_Grey3"/> 
      </g>
    </g>
    <rect x="308.567" y="457.142" width="22.5" height="3.5" rx="0" ry="0" fill="Col_Grey3" stroke="Col_Grey5"/> 
    <rect x="305.317" y="453.642" width="28.75" height="3.75" rx="0" ry="0" fill="Col_Grey3" stroke="Col_Grey5"/> 
    <line x1="301.973" y1="426.385" x2="301.973" y2="453.427" stroke="Col_Grey5"/> 
    <line x1="337.403" y1="426.76" x2="337.403" y2="453.802" stroke="Col_Grey5"/> 
    <text x="287.734" y="387.069" font-size="15" font-weight="700">20JEA20AC001</text>
    <rect x="243.882" y="269.138" width="8.01181" height="80" rx="0" ry="0" fill="Col_Grey3" stroke="Col_Grey5"/> 
    <rect x="222.849" y="268.761" width="8.01181" height="80" rx="0" ry="0" fill="Col_Grey3" stroke="Col_Grey5"/> 
    <rect x="450.08" y="269.513" width="8.01181" height="80" rx="0" ry="0" fill="Col_Grey3" stroke="Col_Grey5"/> 
    <rect x="470.362" y="269.513" width="8.01181" height="80" rx="0" ry="0" fill="Col_Grey3" stroke="Col_Grey5"/> 
    <line x1="350.031" y1="314.381" x2="20.0314" y2="314.381" stroke="black" stroke-width="3"/> 
  </g>
  <rect x="358.939" y="686.24" width="36.5" height="38" rx="0" ry="0" fill="Col_Grey3"/> 
  <rect x="-178.466" y="151.265" width="9.26297" height="288.328" rx="0" ry="0" fill="Col_Grey3" stroke="Col_Grey5" transform="rotate(270 265.54 214.739)"/> 
  <line x1="202.023" y1="653.484" x2="15.0235" y2="653.484" stroke="black" stroke-width="3"/> 
  <line x1="214.75" y1="717.58" x2="264.113" y2="717.365" stroke="Col_Grey5"/> 
  <line x1="429.243" y1="717.343" x2="478.606" y2="717.13" stroke="Col_Grey5"/> 
  <ellipse cx="477.915" cy="767.558" rx="33.0154" ry="50.4349" fill="Col_Grey3" stroke="Col_Grey5"/> 
  <ellipse cx="214.572" cy="768.095" rx="32.1831" ry="50.5239" fill="Col_Grey3" stroke="Col_Grey5"/> 
  <g stroke="Col_Grey5">
    <g fill="Col_Grey3" transform="flipY(79.4953)">
      <g fill="Col_Grey3">
        <rect x="357.982" y="-682.252" width="35.457" height="26" rx="0" ry="0" fill="Col_Grey3"/> 
      </g>
      <ellipse cx="375.766" cy="-656.004" rx="17.62" ry="7.75" fill="url(#Cylinder_vertical)"/> 
    </g>
    <rect x="364.559" y="844.741" width="22.5" height="3.5" rx="0" ry="0" fill="Col_Grey3"/> 
    <rect x="361.309" y="841.241" width="28.75" height="3.75" rx="0" ry="0" fill="Col_Grey3"/> 
  </g>
  <rect x="278.327" y="711.063" width="136.809" height="113.752" rx="0" ry="0" fill="Col_Grey3" stroke="Col_Grey5"/> 
  <rect x="214.962" y="717.51" width="51" height="101" rx="0" ry="0" fill="Col_Grey3"/> 
  <polygon points="277.634,711.391 264.634,717.141 265.134,818.389 277.384,824.639 277.384,740.391" fill="Col_Grey3" stroke="Col_Grey5"/> 
  <ellipse cx="345.023" cy="739.482" rx="13" ry="10" fill="Col_Grey5" stroke="Col_Grey5"/> 
  <ellipse cx="345.023" cy="736.482" rx="13" ry="10" fill="Col_Grey3" stroke="Col_Grey5"/> 
  <ellipse cx="345.023" cy="736.482" rx="10" ry="7" fill="Col_Grey3" stroke="Col_Grey5"/> 
  <line x1="345.023" y1="700.483" x2="345.023" y2="736.482" stroke="black" stroke-width="3"/> 
  <ellipse cx="314.025" cy="685.985" rx="18.2071" ry="8.74528" fill="Col_Grey3" stroke="Col_Grey5"/> 
  <ellipse cx="314.395" cy="724.234" rx="17.9568" ry="7.75" fill="Col_Grey3" stroke="Col_Grey5"/> 
  <rect x="295.982" y="686.24" width="36.5" height="38" rx="0" ry="0" fill="Col_Grey3"/> 
  <rect x="293.482" y="691.739" width="40.5" height="4" rx="0" ry="0" fill="Col_Grey3" stroke="Col_Grey5"/> 
  <rect x="293.482" y="686.24" width="40.5" height="4" rx="0" ry="0" fill="Col_Grey3" stroke="Col_Grey5"/> 
  <rect x="310.236" y="656.616" width="8.01181" height="80" rx="0" ry="0" fill="Col_Grey3" stroke="Col_Grey5"/> 
  <line x1="296.092" y1="696.102" x2="296.092" y2="724.401" stroke="Col_Grey5"/> 
  <line x1="332.9" y1="696.102" x2="332.9" y2="724.401" stroke="Col_Grey5"/> 
  <ellipse cx="376.982" cy="685.985" rx="18.2071" ry="8.74528" fill="Col_Grey3" stroke="Col_Grey5"/> 
  <ellipse cx="377.352" cy="724.234" rx="17.9568" ry="7.75" fill="Col_Grey3"/> 
  <rect x="356.439" y="691.739" width="40.5" height="4" rx="0" ry="0" fill="Col_Grey3" stroke="Col_Grey5"/> 
  <rect x="356.439" y="686.24" width="40.5" height="4" rx="0" ry="0" fill="Col_Grey3" stroke="Col_Grey5"/> 
  <rect x="371.832" y="656.616" width="8.01181" height="80" rx="0" ry="0" fill="Col_Grey3" stroke="Col_Grey5"/> 
  <g transform="rotate(180 95.3995 396.713)">
    <rect x="-287.2" y="-25.5172" width="49.8561" height="101.118" rx="0" ry="0" fill="Col_Grey3"/> 
    <polygon points="-224.87,-31.3192 -237.87,-25.5692 -237.37,75.6808 -225.12,81.9308 -225.12,-2.31915" fill="Col_Grey3" stroke="Col_Grey5"/> 
  </g>
  <g transform="flipY(79.4953)">
    <ellipse cx="314.766" cy="-655.504" rx="17.62" ry="7.75" fill="Col_Grey3" stroke="Col_Grey5"/> 
    <g>
      <rect x="296.982" y="-681.751" width="35.457" height="26" rx="0.168365" ry="0.168365" fill="Col_Grey3"/> 
    </g>
  </g>
  <rect x="303.559" y="844.241" width="22.5" height="3.5" rx="0" ry="0" fill="Col_Grey3" stroke="Col_Grey5"/> 
  <rect x="300.309" y="840.741" width="28.75" height="3.75" rx="0" ry="0" fill="Col_Grey3" stroke="Col_Grey5"/> 
  <line x1="296.965" y1="813.484" x2="296.965" y2="840.526" stroke="Col_Grey5"/> 
  <line x1="332.395" y1="813.859" x2="332.395" y2="840.901" stroke="Col_Grey5"/> 
  <text x="282.726" y="774.169" font-size="15" font-weight="700">20JEA10AC001</text>
  <line x1="429.3" y1="818.462" x2="478.663" y2="818.248" stroke="Col_Grey5"/> 
  <line x1="1575.34" y1="695.682" x2="1575.34" y2="723.981" stroke="Col_Grey5"/> 
  <line x1="215.823" y1="818.665" x2="265.186" y2="818.452" stroke="Col_Grey5"/> 
  <line x1="1611.02" y1="696.433" x2="1611.02" y2="724.732" stroke="Col_Grey5"/> 
  <line x1="1574.97" y1="813.992" x2="1574.97" y2="841.034" stroke="Col_Grey5"/> 
  <line x1="1610.65" y1="813.992" x2="1610.65" y2="841.034" stroke="Col_Grey5"/> 
  <line x1="1606.89" y1="309.576" x2="1606.89" y2="337.875" stroke="Col_Grey5"/> 
  <line x1="1570.84" y1="309.952" x2="1570.84" y2="338.251" stroke="Col_Grey5"/> 
  <line x1="1606.14" y1="426.009" x2="1606.14" y2="453.051" stroke="Col_Grey5"/> 
  <line x1="1570.46" y1="427.136" x2="1570.46" y2="454.178" stroke="Col_Grey5"/> 
  <rect x="465.354" y="656.616" width="8.01181" height="80" rx="0" ry="0" fill="Col_Grey3" stroke="Col_Grey5"/> 
  <rect x="445.072" y="656.616" width="8.01181" height="80" rx="0" ry="0" fill="Col_Grey3" stroke="Col_Grey5"/> 
  <rect x="238.874" y="656.241" width="8.01181" height="80" rx="0" ry="0" fill="Col_Grey3" stroke="Col_Grey5"/> 
  <rect x="217.841" y="655.864" width="8.01181" height="80" rx="0" ry="0" fill="Col_Grey3" stroke="Col_Grey5"/> 
  <line x1="346.526" y1="701.483" x2="16.5259" y2="701.483" stroke="black" stroke-width="3"/> 
  <g/> 
  <line x1="434.002" y1="430.713" x2="483.365" y2="430.5" stroke="Col_Grey5"/> 
  <image x="458.606" y="513.424" width="70" height="70" xlink:href="DS_motor.svg">
    <title>&quot;20JEB20AP001&quot;</title>
    <rt:dyn type="KKS" mode="constant" value="&quot;20JEB20AP001&quot;"/> 
    <rt:dyn type="DATA_NARY" mode="constant" value="&quot;TPTS&quot;"/> 
  </image>
  <image x="458.606" y="896.788" width="70" height="70" xlink:href="DS_motor.svg">
    <title>&quot;20JEB10AP001&quot;</title>
    <rt:dyn type="KKS" mode="constant" value="&quot;20JEB10AP001&quot;"/> 
    <rt:dyn type="DATA_NARY" mode="constant" value="&quot;TPTS&quot;"/> 
  </image>
  <image x="1379.52" y="513.424" width="70" height="70" xlink:href="DS_motor.svg" transform="flipX(3.01598e-005)">
    <title>&quot;20JEB30AP001&quot;</title>
    <rt:dyn type="KKS" mode="constant" value="&quot;20JEB30AP001&quot;"/> 
    <rt:dyn type="DATA_NARY" mode="constant" value="&quot;TPTS&quot;"/> 
  </image>
  <image x="1379.52" y="896.788" width="70" height="70" xlink:href="DS_motor.svg" transform="flipX(3.01598e-005)">
    <title>&quot;20JEB40AP001&quot;</title>
    <rt:dyn type="KKS" mode="constant" value="&quot;20JEB40AP001&quot;"/> 
    <rt:dyn type="DATA_NARY" mode="constant" value="&quot;TPTS&quot;"/> 
  </image>
  <text x="713.03" y="903.909" font-size="20" font-weight="bold">1</text>
  <text x="714.03" y="521.061" font-size="20" font-weight="bold">2</text>
  <text x="1180.82" y="903.909" font-size="20" font-weight="bold">4</text>
  <text x="1180.82" y="521.061" font-size="20" font-weight="bold">3</text>
  <image x="593.364" y="447.364" width="25" height="25" xlink:href="bin_indicator.svg">
    <title>&quot;20JEC21EG002_XV01&quot;</title>
    <rt:dyn type="PointID" mode="constant" value="&quot;20JEC21EG002_XV01&quot;"/> 
  </image>
  <image x="253" y="443" width="25" height="25" xlink:href="bin_indicator.svg">
    <title>&quot;20JEA20EG002_XV01&quot;</title>
    <rt:dyn type="PointID" mode="constant" value="&quot;20JEA20EG002_XV01&quot;"/> 
  </image>
  <image x="481.106" y="486.364" width="25" height="25" xlink:href="bin_indicator.svg">
    <title>&quot;20JEB20EG002_XV01&quot;</title>
    <rt:dyn type="PointID" mode="constant" value="&quot;20JEB20EG002_XV01&quot;"/> 
  </image>
  <image x="377" y="515" width="25" height="25" xlink:href="bin_indicator.svg">
    <title>&quot;20JEC22EG002_XV01&quot;</title>
    <rt:dyn type="PointID" mode="constant" value="&quot;20JEC22EG002_XV01&quot;"/> 
  </image>
  <image x="661.545" y="516.152" width="25" height="25" xlink:href="bin_indicator.svg">
    <title>&quot;20JEC23EG002_XV01&quot;</title>
    <rt:dyn type="PointID" mode="constant" value="&quot;20JEC23EG002_XV01&quot;"/> 
  </image>
  <image x="894.879" y="632.333" width="25" height="25" xlink:href="bin_indicator.svg">
    <title>&quot;20JAA20EG002_XV01&quot;</title>
    <rt:dyn type="PointID" mode="constant" value="&quot;20JAA20EG002_XV01&quot;"/> 
  </image>
  <image x="593.516" y="830.516" width="25" height="25" xlink:href="bin_indicator.svg">
    <title>&quot;20JEC11EG002_XV01&quot;</title>
    <rt:dyn type="PointID" mode="constant" value="&quot;20JEC11EG002_XV01&quot;"/> 
  </image>
  <image x="253" y="830" width="25" height="25" xlink:href="bin_indicator.svg">
    <title>&quot;20JEA10EG002_XV01&quot;</title>
    <rt:dyn type="PointID" mode="constant" value="&quot;20JEA10EG002_XV01&quot;"/> 
  </image>
  <image x="481.106" y="869.516" width="25" height="25" xlink:href="bin_indicator.svg">
    <title>&quot;20JEB10EG002_XV01&quot;</title>
    <rt:dyn type="PointID" mode="constant" value="&quot;20JEB10EG002_XV01&quot;"/> 
  </image>
  <image x="377.152" y="899.152" width="25" height="25" xlink:href="bin_indicator.svg">
    <title>&quot;20JEC12EG002_XV01&quot;</title>
    <rt:dyn type="PointID" mode="constant" value="&quot;20JEC12EG002_XV01&quot;"/> 
  </image>
  <image x="661.696" y="900.304" width="25" height="25" xlink:href="bin_indicator.svg">
    <title>&quot;20JEC13EG002_XV01&quot;</title>
    <rt:dyn type="PointID" mode="constant" value="&quot;20JEC13EG002_XV01&quot;"/> 
  </image>
  <image x="1624" y="452" width="25" height="25" xlink:href="bin_indicator.svg">
    <title>&quot;20JEA30EG002_XV01&quot;</title>
    <rt:dyn type="PointID" mode="constant" value="&quot;20JEA30EG002_XV01&quot;"/> 
  </image>
  <image x="1624" y="846" width="25" height="25" xlink:href="bin_indicator.svg">
    <title>&quot;20JEA40EG002_XV01&quot;</title>
    <rt:dyn type="PointID" mode="constant" value="&quot;20JEA40EG002_XV01&quot;"/> 
  </image>
  <image x="1504" y="516" width="25" height="25" xlink:href="bin_indicator.svg">
    <title>&quot;20JEC32EG002_XV01&quot;</title>
    <rt:dyn type="PointID" mode="constant" value="&quot;20JEC32EG002_XV01&quot;"/> 
  </image>
  <image x="1504.16" y="900.152" width="25" height="25" xlink:href="bin_indicator.svg">
    <title>&quot;20JEC42EG002_XV01&quot;</title>
    <rt:dyn type="PointID" mode="constant" value="&quot;20JEC42EG002_XV01&quot;"/> 
  </image>
  <image x="1402.02" y="486.364" width="25" height="25" xlink:href="bin_indicator.svg">
    <title>&quot;20JEB30EG002_XV01&quot;</title>
    <rt:dyn type="PointID" mode="constant" value="&quot;20JEB30EG002_XV01&quot;"/> 
  </image>
  <image x="1402.02" y="869.516" width="25" height="25" xlink:href="bin_indicator.svg">
    <title>&quot;20JEB40EG002_XV01&quot;</title>
    <rt:dyn type="PointID" mode="constant" value="&quot;20JEB40EG002_XV01&quot;"/> 
  </image>
  <image x="1225.33" y="516.152" width="25" height="25" xlink:href="bin_indicator.svg">
    <title>&quot;20JEC33EG002_XV01&quot;</title>
    <rt:dyn type="PointID" mode="constant" value="&quot;20JEC33EG002_XV01&quot;"/> 
  </image>
  <image x="1225.48" y="900.303" width="25" height="25" xlink:href="bin_indicator.svg">
    <title>&quot;20JEC43EG002_XV01&quot;</title>
    <rt:dyn type="PointID" mode="constant" value="&quot;20JEC43EG002_XV01&quot;"/> 
  </image>
  <image x="1302.03" y="447.364" width="25" height="25" xlink:href="bin_indicator.svg">
    <title>&quot;20JEC31EG002_XV01&quot;</title>
    <rt:dyn type="PointID" mode="constant" value="&quot;20JEC31EG002_XV01&quot;"/> 
  </image>
  <image x="1302.18" y="830.516" width="25" height="25" xlink:href="bin_indicator.svg">
    <title>&quot;20JEC41EG002_XV01&quot;</title>
    <rt:dyn type="PointID" mode="constant" value="&quot;20JEC41EG002_XV01&quot;"/> 
  </image>
  <image x="990.424" y="632.333" width="25" height="25" xlink:href="bin_indicator.svg">
    <title>&quot;20JAA30EG002_XV01&quot;</title>
    <rt:dyn type="PointID" mode="constant" value="&quot;20JAA30EG002_XV01&quot;"/> 
  </image>
  <image x="894.031" y="734.484" width="25" height="25" xlink:href="bin_indicator.svg">
    <title>&quot;20JAA10EG002_XV01&quot;</title>
    <rt:dyn type="PointID" mode="constant" value="&quot;20JAA10EG002_XV01&quot;"/> 
  </image>
  <image x="989.576" y="734.484" width="25" height="25" xlink:href="bin_indicator.svg">
    <title>&quot;20JAA40EG002_XV01&quot;</title>
    <rt:dyn type="PointID" mode="constant" value="&quot;20JAA40EG002_XV01&quot;"/> 
  </image>
  <path d="M347.064 -103.425 A8.80483 8.80483 0 1 1 347.064 -85.815 " fill="none" stroke="black" stroke-width="3" transform="flipX(663.353) flipY() translate(0 -828) translate(229.642 442.62)"/> 
  <path d="M347.064 -172.23 A8.80483 8.80483 0 1 1 347.064 -154.62 " fill="none" stroke="black" stroke-width="3" transform="flipX(663.353) flipY() translate(0 -828) translate(229.642 442.62)"/> 
  <path d="M211.064 -103.425 A8.80483 8.80483 0 1 1 211.064 -85.8151 " fill="none" stroke="black" stroke-width="3" transform="flipX(663.353) flipY() translate(0 -828) translate(229.642 442.62)"/> 
  <path d="M71.0641 -103.425 A8.80483 8.80483 0 1 1 71.0641 -85.8151 " fill="none" stroke="black" stroke-width="3" transform="flipX(663.353) flipY() translate(0 -828) translate(229.642 442.62)"/> 
  <path d="M-63.9359 -103.425 A8.80483 8.80483 0 1 1 -63.9359 -85.8151 " fill="none" stroke="black" stroke-width="3" transform="flipX(663.353) flipY() translate(0 -828) translate(229.642 442.62)"/> 
  <path d="M-63.4917 -171.23 A8.80483 8.80483 0 1 1 -63.4917 -153.62 " fill="none" stroke="black" stroke-width="3" transform="flipX(663.353) flipY() translate(0 -828) translate(229.642 442.62)"/> 
  <path d="M347.064 -484.425 A8.80483 8.80483 0 1 1 347.064 -466.815 " fill="none" stroke="black" stroke-width="3" transform="flipX(663.353) flipY() translate(0 -828) translate(229.642 442.62)"/> 
  <path d="M-64.2417 -485.62 A8.80483 8.80483 0 1 1 -64.2417 -468.01 " fill="none" stroke="black" stroke-width="3" transform="flipX(663.353) flipY() translate(0 -828) translate(229.642 442.62)"/> 
  <line x1="750" y1="541.25" x2="750" y2="488" stroke="black" stroke-width="3"/> 
  <line x1="750" y1="853" x2="750" y2="556.5" stroke="black" stroke-width="3"/> 
  <line x1="750" y1="887.75" x2="750" y2="868.75" stroke="black" stroke-width="3"/> 
  <line x1="1160" y1="540" x2="1160" y2="486.871" stroke="black" stroke-width="3"/> 
  <line x1="1160" y1="853.25" x2="1160" y2="556" stroke="black" stroke-width="3"/> 
  <line x1="1160" y1="886.25" x2="1160" y2="870" stroke="black" stroke-width="3"/> 
  <text x="81" y="30" fill="black" font-size="15" font-weight="bold" text-anchor="middle">
    <title>Схема КИП насосов охлаждения бассейна выдержки</title>
SKUD_SOSP</text>
</svg>
