<?xml  version="1.0" encoding="windows-1251"?>
<svg color="Col_BGSand" xmlns="http://www.w3.org/2000/svg" xmlns:rt="http://www.rts.co.at/2001/XMLSchema/RtSvgPL" xmlns:xlink="http://www.w3.org/1999/xlink" xmlns:xsi="http://www.w3.org/2001/XMLSchema-instance" xsi:schemaLocation="http://www.w3.org/2000/svg C:/RTS/\RtSvg\XML\SVG.xsd" viewBox="0 0 1914 1000" width="1914" height="1000" id="skuv_uja">
  <title>Холодоснабжение НП внутри контайнмента UJA</title>
  <rt:model modelversion="7.2.0.24" comment="UMod all_skuv&#10;LMod skuv_ubn&#10;RMod skuv_uja_ukc" revision="1"/> 
  <line x1="862" y1="502" x2="862" y2="502" stroke="black"/> 
  <text x="688.248" y="47.5" font-size="32" text-anchor="middle">Холодоснабжение неответственных потребителей<tspan x="688.248" dy="32">внутри контайнмента UJA</tspan>
  </text>
  <line x1="1216" y1="453.31" x2="504" y2="453.31" stroke="black" stroke-width="3"/> 
  <polygon points="640.818,1613.87 628.318,1639.37 654.318,1638.87" transform="rotate(90 425.31 342.095) rotate(0 1.4013e-045 1.4013e-045) flipY(392.405) rotate(90 1392.93 388.195) scale(0.62 0.62 1341 369.75) rotate(270 1341 369.75)"/> 
  <polygon points="-70.4724,3110.97 -82.9734,3136.47 -56.9724,3135.97" transform="flipX(1603.91) rotate(90 425.31 342.095) rotate(0 1.4013e-045 1.4013e-045) flipY(392.405) rotate(90 1392.93 388.195) scale(0.62 0.62 1341 369.75) rotate(270 1341 369.75)"/> 
  <polygon points="1749.27,-1178.18 1736.77,-1152.68 1762.77,-1153.18" transform="flipY(130.905) rotate(90 1392.93 388.195) scale(0.62 0.62 1341 369.75) rotate(270 1341 369.75)"/> 
  <image x="678" y="410.5" width="70" height="65" xlink:href="DS_CO_valve.svg" transform="rotate(360 -0.00012207 -10)">
    <title>&quot;22QKJ03AA801&quot;</title>
    <rt:dyn type="KKS" mode="constant" value="&quot;22QKJ03AA801&quot;"/> 
    <rt:dyn type="DATA_NARY" mode="constant" value="&quot;TPTS&quot;"/> 
    <rt:dyn type="Operate" mode="constant" value="true"/> 
  </image>
  <text x="678.52" y="489.801" font-size="15">22QKJ03<tspan x="678.52" dy="15">AA801</tspan>
  </text>
  <image x="1012" y="411.5" width="70" height="65" xlink:href="DS_CO_valve.svg" transform="rotate(360 -0.00012207 -10)">
    <title>&quot;21QKJ03AA801&quot;</title>
    <rt:dyn type="KKS" mode="constant" value="&quot;21QKJ03AA801&quot;"/> 
    <rt:dyn type="DATA_NARY" mode="constant" value="&quot;TPTS&quot;"/> 
    <rt:dyn type="Drive" mode="constant" value="&quot;moto&quot;"/> 
    <rt:dyn type="Operate" mode="constant" value="true"/> 
  </image>
  <text x="1012.52" y="490.801" font-size="15">21QKJ03<tspan x="1012.52" dy="15">AA801</tspan>
  </text>
  <image x="587.469" y="410.781" width="70" height="65" xlink:href="DS_CO_valve.svg" transform="rotate(360 -0.00012207 -10)">
    <title>&quot;20QKJ01AA001&quot;</title>
    <rt:dyn type="KKS" mode="constant" value="&quot;20QKJ01AA001&quot;"/> 
    <rt:dyn type="DATA_NARY" mode="constant" value="&quot;TPTS&quot;"/> 
    <rt:dyn type="Drive" mode="constant" value="&quot;moto&quot;"/> 
    <rt:dyn type="Operate" mode="constant" value="true"/> 
  </image>
  <text x="587.99" y="490.082" font-size="15">20QKJ01<tspan x="587.99" dy="15">AA001</tspan>
  </text>
  <text x="1144.75" y="551.5" font-size="15" text-anchor="middle">к<tspan x="1144.75" dy="15">потребителям</tspan>
  </text>
  <line x1="1144.56" y1="453" x2="1144.56" y2="530.72" stroke="black" stroke-width="3"/> 
  <line x1="1665" y1="893.901" x2="504" y2="893.901" stroke="black" stroke-width="3"/> 
  <image x="678.15" y="850.652" width="70" height="65" xlink:href="DS_CO_valve.svg" transform="rotate(360 -0.00012207 -10)">
    <title>&quot;22QKJ13AA801&quot;</title>
    <rt:dyn type="KKS" mode="constant" value="&quot;22QKJ13AA801&quot;"/> 
    <rt:dyn type="DATA_NARY" mode="constant" value="&quot;TPTS&quot;"/> 
    <rt:dyn type="Operate" mode="constant" value="true"/> 
  </image>
  <text x="678.67" y="929.952" font-size="15">22QKJ13<tspan x="678.67" dy="15">AA801</tspan>
  </text>
  <image x="1012.15" y="851.651" width="70" height="65" xlink:href="DS_CO_valve.svg" transform="rotate(360 -0.00012207 -10)">
    <title>&quot;21QKJ13AA801&quot;</title>
    <rt:dyn type="KKS" mode="constant" value="&quot;21QKJ13AA801&quot;"/> 
    <rt:dyn type="DATA_NARY" mode="constant" value="&quot;TPTS&quot;"/> 
    <rt:dyn type="Drive" mode="constant" value="&quot;moto&quot;"/> 
    <rt:dyn type="Operate" mode="constant" value="true"/> 
  </image>
  <text x="1012.67" y="930.953" font-size="15">21QKJ13<tspan x="1012.67" dy="15">AA801</tspan>
  </text>
  <image x="587.62" y="850.933" width="70" height="65" xlink:href="DS_CO_valve.svg" transform="rotate(360 -0.00012207 -10)">
    <title>&quot;20QKJ11AA001&quot;</title>
    <rt:dyn type="KKS" mode="constant" value="&quot;20QKJ11AA001&quot;"/> 
    <rt:dyn type="DATA_NARY" mode="constant" value="&quot;TPTS&quot;"/> 
    <rt:dyn type="Drive" mode="constant" value="&quot;moto&quot;"/> 
    <rt:dyn type="Operate" mode="constant" value="true"/> 
  </image>
  <text x="588.141" y="930.233" font-size="15">20QKJ11<tspan x="588.141" dy="15">AA001</tspan>
  </text>
  <text x="1146.62" y="976.25" font-size="15" text-anchor="middle">от<tspan x="1146.62" dy="15">потребителей</tspan>
  </text>
  <text x="358.5" y="454.962" font-size="15">от холодильной<tspan x="358.5" dy="15">машины 20QKA</tspan>
  </text>
  <text x="358.5" y="887.712" font-size="15">к холодильной<tspan x="358.5" dy="15">машине 20QKA</tspan>
  </text>
  <line x1="1144.56" y1="893" x2="1144.56" y2="954.405" stroke="black" stroke-width="3"/> 
  <text x="726.29" y="356.447" font-size="15">UBB</text>
  <text x="804.2" y="357.447" font-size="15">UJB</text>
  <text x="1009.65" y="357.962" font-size="15">UJA</text>
  <polygon points="1391.3,2410.76 1378.8,2436.26 1404.81,2435.76" transform="rotate(90 1571.15 933.06) rotate(90 425.31 342.095) rotate(0 1.4013e-045 1.4013e-045) flipY(392.405) rotate(90 1392.93 388.195) scale(0.62 0.62 1341 369.75) rotate(270 1341 369.75)"/> 
  <polygon points="1391.3,1915.36 1378.8,1940.86 1404.81,1940.36" transform="flipY(587.905) rotate(90 1571.15 933.06) rotate(90 425.31 342.095) rotate(0 1.4013e-045 1.4013e-045) flipY(392.405) rotate(90 1392.93 388.195) scale(0.62 0.62 1341 369.75) rotate(270 1341 369.75)"/> 
  <rect x="538.5" y="322" width="20" height="670" rx="0" ry="0" fill="url(#PortalHatch1)" stroke="Col_Grey5"/> 
  <rect x="773.5" y="322" width="20" height="670" rx="0" ry="0" fill="url(#PortalHatch1)" stroke="Col_Grey5"/> 
  <rect x="977.25" y="322" width="20" height="670" rx="0" ry="0" fill="url(#PortalHatch1)" stroke="Col_Grey5"/> 
  <line x1="1216.25" y1="249.25" x2="1663.75" y2="249.25" stroke="black"/> 
  <line x1="1216.25" y1="45.25" x2="1663.75" y2="45.25" stroke="black"/> 
  <line x1="1216.25" y1="317.25" x2="1663.75" y2="317.25" stroke="black"/> 
  <line x1="1216.25" y1="385.25" x2="1663.75" y2="385.25" stroke="black"/> 
  <line x1="1216.25" y1="113.25" x2="1663.75" y2="113.25" stroke="black"/> 
  <line x1="1216.25" y1="453.25" x2="1663.75" y2="453.25" stroke="black"/> 
  <line x1="1216.25" y1="181.25" x2="1663.75" y2="181.25" stroke="black"/> 
  <line x1="1216.25" y1="521.25" x2="1663.75" y2="521.25" stroke="black"/> 
  <line x1="1216.25" y1="589.25" x2="1663.75" y2="589.25" stroke="black"/> 
  <line x1="1216.25" y1="657.25" x2="1663.75" y2="657.25" stroke="black"/> 
  <line x1="1216.25" y1="725.25" x2="1663.75" y2="725.25" stroke="black"/> 
  <line x1="1216.25" y1="793.25" x2="1663.75" y2="793.25" stroke="black"/> 
  <line x1="1216.25" y1="861.25" x2="1663.75" y2="861.25" stroke="black"/> 
  <image x="1235" y="547.25" width="70" height="65" xlink:href="DS_CO_valve.svg" transform="rotate(360 -0.00012207 -10)">
    <title>&quot;20QKJ03AA001&quot;</title>
    <rt:dyn type="KKS" mode="constant" value="&quot;20QKJ03AA001&quot;"/> 
    <rt:dyn type="DATA_NARY" mode="constant" value="&quot;TPTS&quot;"/> 
    <rt:dyn type="Drive" mode="constant" value="&quot;moto&quot;"/> 
    <rt:dyn type="Operate" mode="constant" value="true"/> 
  </image>
  <text x="1315.65" y="570.25" font-size="15">20QKJ03<tspan x="1315.65" dy="15">AA001</tspan>
  </text>
  <image x="1469.25" y="576.417" width="75" height="25" xlink:href="obj_link.svg">
    <rt:dyn type="TextStr" mode="constant" value="&quot;KLA04&quot;"/> 
    <rt:dyn type="ModName" mode="constant" value="&quot;kla04&quot;"/> 
  </image>
  <text x="1444.87" y="571" font-size="15">21KLA04AC004</text>
  <image x="1235" y="614.75" width="70" height="65" xlink:href="DS_CO_valve.svg" transform="rotate(360 -0.00012207 -10)">
    <title>&quot;20QKJ03AA002&quot;</title>
    <rt:dyn type="KKS" mode="constant" value="&quot;20QKJ03AA002&quot;"/> 
    <rt:dyn type="DATA_NARY" mode="constant" value="&quot;TPTS&quot;"/> 
    <rt:dyn type="Drive" mode="constant" value="&quot;moto&quot;"/> 
    <rt:dyn type="Operate" mode="constant" value="true"/> 
  </image>
  <text x="1315.65" y="637.75" font-size="15">20QKJ03<tspan x="1315.65" dy="15">AA002</tspan>
  </text>
  <text x="1444.87" y="640" font-size="15">22KLA04AC004</text>
  <image x="1235" y="682.5" width="70" height="65" xlink:href="DS_CO_valve.svg" transform="rotate(360 -0.00012207 -10)">
    <title>&quot;20QKJ03AA003&quot;</title>
    <rt:dyn type="KKS" mode="constant" value="&quot;20QKJ03AA003&quot;"/> 
    <rt:dyn type="DATA_NARY" mode="constant" value="&quot;TPTS&quot;"/> 
    <rt:dyn type="Drive" mode="constant" value="&quot;moto&quot;"/> 
    <rt:dyn type="Operate" mode="constant" value="true"/> 
  </image>
  <text x="1315.65" y="706.5" font-size="15">20QKJ03<tspan x="1315.65" dy="15">AA003</tspan>
  </text>
  <text x="1444.87" y="708.25" font-size="15">25KLA04AC004</text>
  <image x="1235" y="750" width="70" height="65" xlink:href="DS_CO_valve.svg" transform="rotate(360 -0.00012207 -10)">
    <title>&quot;20QKJ03AA005&quot;</title>
    <rt:dyn type="KKS" mode="constant" value="&quot;20QKJ03AA005&quot;"/> 
    <rt:dyn type="DATA_NARY" mode="constant" value="&quot;TPTS&quot;"/> 
    <rt:dyn type="Drive" mode="constant" value="&quot;moto&quot;"/> 
    <rt:dyn type="Operate" mode="constant" value="true"/> 
  </image>
  <text x="1315.65" y="774" font-size="15">20QKJ03<tspan x="1315.65" dy="15">AA005</tspan>
  </text>
  <text x="1445.5" y="776" font-size="15">22KLA03AC002</text>
  <image x="1235" y="818" width="70" height="65" xlink:href="DS_CO_valve.svg" transform="rotate(360 -0.00012207 -10)">
    <title>&quot;20QKJ03AA004&quot;</title>
    <rt:dyn type="KKS" mode="constant" value="&quot;20QKJ03AA004&quot;"/> 
    <rt:dyn type="DATA_NARY" mode="constant" value="&quot;TPTS&quot;"/> 
    <rt:dyn type="Drive" mode="constant" value="&quot;moto&quot;"/> 
    <rt:dyn type="Operate" mode="constant" value="true"/> 
  </image>
  <text x="1315.65" y="841.25" font-size="15">20QKJ03<tspan x="1315.65" dy="15">AA004</tspan>
  </text>
  <text x="1445.5" y="844.75" font-size="15">25KLA03AC002</text>
  <image x="1469.25" y="643.735" width="75" height="25" xlink:href="obj_link.svg">
    <rt:dyn type="TextStr" mode="constant" value="&quot;KLA04&quot;"/> 
    <rt:dyn type="ModName" mode="constant" value="&quot;kla04&quot;"/> 
  </image>
  <image x="1469.25" y="711.75" width="75" height="25" xlink:href="obj_link.svg">
    <rt:dyn type="TextStr" mode="constant" value="&quot;KLA04&quot;"/> 
    <rt:dyn type="ModName" mode="constant" value="&quot;kla04&quot;"/> 
  </image>
  <image x="1469.25" y="781.5" width="75" height="25" xlink:href="obj_link.svg">
    <rt:dyn type="TextStr" mode="constant" value="&quot;KLA03&quot;"/> 
    <rt:dyn type="ModName" mode="constant" value="&quot;kla03&quot;"/> 
  </image>
  <image x="1469.25" y="847.5" width="75" height="25" xlink:href="obj_link.svg">
    <rt:dyn type="TextStr" mode="constant" value="&quot;KLA03&quot;"/> 
    <rt:dyn type="ModName" mode="constant" value="&quot;kla03&quot;"/> 
  </image>
  <image x="1235" y="2.75012" width="70" height="65" xlink:href="DS_CO_valve.svg" transform="rotate(360 -0.00012207 -10)">
    <title>&quot;20QKJ03AA006&quot;</title>
    <rt:dyn type="KKS" mode="constant" value="&quot;20QKJ03AA006&quot;"/> 
    <rt:dyn type="DATA_NARY" mode="constant" value="&quot;TPTS&quot;"/> 
    <rt:dyn type="Drive" mode="constant" value="&quot;moto&quot;"/> 
    <rt:dyn type="Operate" mode="constant" value="true"/> 
  </image>
  <text x="1315.65" y="25.2501" font-size="15">20QKJ03<tspan x="1315.65" dy="15">AA006</tspan>
  </text>
  <image x="1469.25" y="101.5" width="75" height="25" xlink:href="obj_link.svg">
    <rt:dyn type="TextStr" mode="constant" value="&quot;KLA04&quot;"/> 
    <rt:dyn type="ModName" mode="constant" value="&quot;kla04&quot;"/> 
  </image>
  <text x="1445.5" y="29.25" font-size="15">21KLA04AC002</text>
  <image x="1235" y="70.477" width="70" height="65" xlink:href="DS_CO_valve.svg" transform="rotate(360 -0.00012207 -10)">
    <title>&quot;20QKJ03AA007&quot;</title>
    <rt:dyn type="KKS" mode="constant" value="&quot;20QKJ03AA007&quot;"/> 
    <rt:dyn type="DATA_NARY" mode="constant" value="&quot;TPTS&quot;"/> 
    <rt:dyn type="Drive" mode="constant" value="&quot;moto&quot;"/> 
    <rt:dyn type="Operate" mode="constant" value="true"/> 
  </image>
  <text x="1315.65" y="93.977" font-size="15">20QKJ03<tspan x="1315.65" dy="15">AA007</tspan>
  </text>
  <text x="1445.5" y="97.25" font-size="15">22KLA04AC002</text>
  <image x="1235" y="137.629" width="70" height="65" xlink:href="DS_CO_valve.svg" transform="rotate(360 -0.00012207 -10)">
    <title>&quot;20QKJ03AA008&quot;</title>
    <rt:dyn type="KKS" mode="constant" value="&quot;20QKJ03AA008&quot;"/> 
    <rt:dyn type="DATA_NARY" mode="constant" value="&quot;TPTS&quot;"/> 
    <rt:dyn type="Drive" mode="constant" value="&quot;moto&quot;"/> 
    <rt:dyn type="Operate" mode="constant" value="true"/> 
  </image>
  <text x="1315.65" y="161.129" font-size="15">20QKJ03<tspan x="1315.65" dy="15">AA008</tspan>
  </text>
  <text x="1445.5" y="163.75" font-size="15">25KLA04AC002</text>
  <image x="1235" y="206.781" width="70" height="65" xlink:href="DS_CO_valve.svg" transform="rotate(360 -0.00012207 -10)">
    <title>&quot;20QKJ03AA009&quot;</title>
    <rt:dyn type="KKS" mode="constant" value="&quot;20QKJ03AA009&quot;"/> 
    <rt:dyn type="DATA_NARY" mode="constant" value="&quot;TPTS&quot;"/> 
    <rt:dyn type="Drive" mode="constant" value="&quot;moto&quot;"/> 
    <rt:dyn type="Operate" mode="constant" value="true"/> 
  </image>
  <text x="1315.65" y="229.281" font-size="15">20QKJ03<tspan x="1315.65" dy="15">AA009</tspan>
  </text>
  <text x="1445.5" y="231.75" font-size="15">21KLA03AC002</text>
  <text x="1315.65" y="297.432" font-size="15">20QKJ03<tspan x="1315.65" dy="15">AA010</tspan>
  </text>
  <text x="1445.5" y="300.75" font-size="15">21KLA01AC002</text>
  <image x="1235" y="342.629" width="70" height="65" xlink:href="DS_CO_valve.svg" transform="rotate(360 -0.00012207 -10)">
    <title>&quot;20QKJ03AA011&quot;</title>
    <rt:dyn type="KKS" mode="constant" value="&quot;20QKJ03AA011&quot;"/> 
    <rt:dyn type="DATA_NARY" mode="constant" value="&quot;TPTS&quot;"/> 
    <rt:dyn type="Drive" mode="constant" value="&quot;moto&quot;"/> 
    <rt:dyn type="Operate" mode="constant" value="true"/> 
  </image>
  <text x="1315.65" y="365.129" font-size="15">20QKJ03<tspan x="1315.65" dy="15">AA011</tspan>
  </text>
  <text x="1445.5" y="369.25" font-size="15">25KLA01AC002</text>
  <image x="1235" y="410.5" width="70" height="65" xlink:href="DS_CO_valve.svg" transform="rotate(360 -0.00012207 -10)">
    <title>&quot;20QKJ03AA012&quot;</title>
    <rt:dyn type="KKS" mode="constant" value="&quot;20QKJ03AA012&quot;"/> 
    <rt:dyn type="DATA_NARY" mode="constant" value="&quot;TPTS&quot;"/> 
    <rt:dyn type="Drive" mode="constant" value="&quot;moto&quot;"/> 
    <rt:dyn type="Operate" mode="constant" value="true"/> 
  </image>
  <text x="1315.65" y="433.999" font-size="15">20QKJ03<tspan x="1315.65" dy="15">AA012</tspan>
  </text>
  <text x="1444.87" y="436.5" font-size="15">25KLA01AC004</text>
  <image x="1235" y="478.25" width="70" height="65" xlink:href="DS_CO_valve.svg" transform="rotate(360 -0.00012207 -10)">
    <title>&quot;20QKJ03AA013&quot;</title>
    <rt:dyn type="KKS" mode="constant" value="&quot;20QKJ03AA013&quot;"/> 
    <rt:dyn type="DATA_NARY" mode="constant" value="&quot;TPTS&quot;"/> 
    <rt:dyn type="Drive" mode="constant" value="&quot;moto&quot;"/> 
    <rt:dyn type="Operate" mode="constant" value="true"/> 
  </image>
  <text x="1315.65" y="501.75" font-size="15">20QKJ03<tspan x="1315.65" dy="15">AA013</tspan>
  </text>
  <text x="1445.5" y="504" font-size="15">22KLA01AC002</text>
  <image x="1235" y="274.933" width="70" height="65" xlink:href="DS_CO_valve.svg" transform="rotate(360 -0.00012207 -10)">
    <title>&quot;20QKJ03AA010&quot;</title>
    <rt:dyn type="KKS" mode="constant" value="&quot;20QKJ03AA010&quot;"/> 
    <rt:dyn type="DATA_NARY" mode="constant" value="&quot;TPTS&quot;"/> 
    <rt:dyn type="Drive" mode="constant" value="&quot;moto&quot;"/> 
    <rt:dyn type="Operate" mode="constant" value="true"/> 
  </image>
  <line x1="1216.25" y1="44.0057" x2="1216.25" y2="861.25" stroke="black"/> 
  <line x1="1664.5" y1="45.75" x2="1664.5" y2="894" stroke="black"/> 
  <image x="1469.25" y="169" width="75" height="25" xlink:href="obj_link.svg">
    <rt:dyn type="TextStr" mode="constant" value="&quot;KLA04&quot;"/> 
    <rt:dyn type="ModName" mode="constant" value="&quot;kla04&quot;"/> 
  </image>
  <image x="1469.25" y="234" width="75" height="25" xlink:href="obj_link.svg">
    <rt:dyn type="TextStr" mode="constant" value="&quot;KLA03&quot;"/> 
    <rt:dyn type="ModName" mode="constant" value="&quot;kla03&quot;"/> 
  </image>
  <image x="1469.25" y="304" width="75" height="25" xlink:href="obj_link.svg">
    <rt:dyn type="TextStr" mode="constant" value="&quot;KLA01&quot;"/> 
    <rt:dyn type="ModName" mode="constant" value="&quot;kla01&quot;"/> 
  </image>
  <image x="1469.25" y="372.75" width="75" height="25" xlink:href="obj_link.svg">
    <rt:dyn type="TextStr" mode="constant" value="&quot;KLA01&quot;"/> 
    <rt:dyn type="ModName" mode="constant" value="&quot;kla01&quot;"/> 
  </image>
  <image x="1469.25" y="32.75" width="75" height="25" xlink:href="obj_link.svg">
    <rt:dyn type="TextStr" mode="constant" value="&quot;KLA04&quot;"/> 
    <rt:dyn type="ModName" mode="constant" value="&quot;kla04&quot;"/> 
  </image>
  <image x="1469.25" y="440.25" width="75" height="25" xlink:href="obj_link.svg">
    <rt:dyn type="TextStr" mode="constant" value="&quot;KLA01&quot;"/> 
    <rt:dyn type="ModName" mode="constant" value="&quot;kla01&quot;"/> 
  </image>
  <image x="1469.25" y="507.5" width="75" height="25" xlink:href="obj_link.svg">
    <rt:dyn type="TextStr" mode="constant" value="&quot;KLA01&quot;"/> 
    <rt:dyn type="ModName" mode="constant" value="&quot;kla01&quot;"/> 
  </image>
  <polygon points="-70.1424,4210.33 -82.6434,4235.83 -56.6424,4235.33" transform="flipX(1603.91) rotate(90 425.31 342.095) rotate(0 1.4013e-045 1.4013e-045) flipY(392.405) rotate(90 1392.93 388.195) scale(0.62 0.62 1341 369.75) rotate(270 1341 369.75)"/> 
  <polygon points="640.339,649.013 627.839,674.513 653.839,674.013" transform="rotate(90 425.31 342.095) rotate(0 1.4013e-045 1.4013e-045) flipY(392.405) rotate(90 1392.93 388.195) scale(0.62 0.62 1341 369.75) rotate(270 1341 369.75)"/> 
  <text x="66" y="25" fill="black" font-size="15" font-weight="700" text-anchor="middle">
    <title>Схема КИП насосов охлаждения бассейна выдержки</title>
SKUV_UJA</text>
</svg>
