<?xml  version="1.0" encoding="UTF-8"?>
<svg color="Col_BGSand" xmlns="http://www.w3.org/2000/svg" xmlns:rt="http://www.rts.co.at/2001/XMLSchema/RtSvgPL" xmlns:xlink="http://www.w3.org/1999/xlink" xmlns:xsi="http://www.w3.org/2001/XMLSchema-instance" xsi:schemaLocation="http://www.w3.org/2000/svg C:\RTS\RtSvg\XML\SVG.xsd" viewBox="0 0 1914 1000" width="1914" height="1000" id="skuv_20URS">
  <rt:model modelversion="7.2.0.24" comment="UMod all_skuv" revision="3"/> 
  <line x1="1564.25" y1="551.727" x2="1699.89" y2="551.727" stroke="black" stroke-width="2"/> 
  <rect x="177" y="504.9" width="60" height="75.1" rx="0" ry="0" fill="Col_BGSand" stroke="black" stroke-width="2"/> 
  <line x1="636" y1="347" x2="637.5" y2="732" stroke="black" stroke-width="3"/> 
  <line x1="1076.35" y1="555" x2="1212" y2="555" stroke="black" stroke-width="2"/> 
  <line x1="236.937" y1="345.814" x2="236" y2="723" stroke="black" stroke-width="3"/> 
  <rect x="1571.5" y="101" width="174.937" height="94.814" rx="0" ry="0" fill="Col_BGSand" stroke="black" stroke-width="3"/> 
  <rect x="1370.5" y="101" width="174.937" height="94.814" rx="0" ry="0" fill="Col_BGSand" stroke="black" stroke-width="3"/> 
  <line x1="862" y1="502" x2="862" y2="502" stroke="black"/> 
  <text x="97" y="70" fill="black" font-size="15" font-weight="700" text-anchor="middle">SKUV_20URS</text>
  <line x1="1102" y1="501" x2="1102" y2="501" stroke="black"/> 
  <line x1="1408" y1="246" x2="1408" y2="671" stroke="black" stroke-width="3"/> 
  <polyline points="1564.52,560.5 1501.52,560.5 1501.52,560.5 1500.89,634.727 1563.52,635.5" fill="Col_BGSand" stroke="black" stroke-width="2"/> 
  <line x1="1560.89" y1="248.727" x2="1565.89" y2="758.727" stroke="black" stroke-width="3"/> 
  <text x="1591.52" y="722" fill="black" font-size="15">20SAQ07<tspan x="1591.52" dy="15">AA001</tspan>
  </text>
  <text x="1379" y="224" font-size="20">20URS11R001</text>
  <text x="1420.52" y="593.5" fill="black" font-size="15">dP 0.003</text>
  <text x="1373.67" y="708.076" fill="black" font-size="15">20SAQ07AA002</text>
  <line x1="1565.52" y1="669.727" x2="1406.89" y2="669.727" stroke="black" stroke-width="3"/> 
  <text x="1638.02" y="636" fill="black" font-size="15" text-anchor="middle">20SAQ07AT001</text>
  <line x1="1474.52" y1="604.5" x2="1501.52" y2="604.5" stroke="black"/> 
  <g>
    <line x1="1567.52" y1="233" x2="1553.9" y2="233" stroke="black" stroke-width="3"/> 
    <polygon points="70.0448,2355.16 54.7118,2349.5 70.0448,2343.83" fill="black" stroke="black" transform="rotate(180 41.5 518.174) rotate(90 349.775 521.5) flipX(342.722)"/> 
  </g>
  <text x="1566.52" y="791" fill="black" font-size="15" font-weight="700" text-anchor="middle">ATM</text>
  <line x1="1572.68" y1="758.788" x2="1559.06" y2="758.788" stroke="black" stroke-width="3"/> 
  <polygon points="595.833,2359.33 580.5,2353.67 595.833,2348" fill="black" stroke="black" transform="rotate(180 41.5 518.174) rotate(90 349.775 521.5) flipX(342.722)"/> 
  <polygon points="69.548,2201.82 54.215,2196.17 69.548,2190.49" fill="black" stroke="black" transform="rotate(180 41.5 518.174) rotate(90 349.775 521.5) flipX(342.722)"/> 
  <g>
    <polyline points="1528.89,315.727 1528.89,409.727 1628.89,409.727 1628.89,316.727" fill="Col_BGSand" stroke="black" stroke-width="2"/> 
    <text x="1443.89" y="299.227" fill="black" font-size="15" text-anchor="middle">20SAQ07<tspan x="1443.89" dy="15">AN001</tspan>
    </text>
    <polyline points="1603.89,316.727 1603.89,266.727 1503.89,266.727 1503.89,316.727" fill="Col_BGSand" stroke="black" stroke-width="2"/> 
    <image x="1482.89" y="271.727" width="70" height="70" xlink:href="TENZOR_motor.svg" transform="rotate(270 0.00012207 0)">
      <title>20SAQ07AN001/002</title>
      <rt:dyn type="DeviceType" mode="constant" value="&quot;fan&quot;"/> 
      <rt:dyn type="Operate" mode="constant" value="true"/> 
      <rt:dyn type="KKS" mode="constant" value="&quot;20SAQ07AN001/002&quot;"/> 
    </image>
    <text x="1694.89" y="299.227" fill="black" font-size="15" text-anchor="middle">20SAQ07<tspan x="1694.89" dy="15">AN002</tspan>
    </text>
    <image x="1584.89" y="271.727" width="70" height="70" xlink:href="TENZOR_motor.svg" transform="rotate(270 0.00012207 0)">
      <title>20SAQ07AN001/002</title>
      <rt:dyn type="DeviceType" mode="constant" value="&quot;fan&quot;"/> 
      <rt:dyn type="Operate" mode="constant" value="true"/> 
      <rt:dyn type="KKS" mode="constant" value="&quot;20SAQ07AN001/002&quot;"/> 
    </image>
    <polyline points="1528.89,372.727 1528.89,309.727"/> 
    <text x="1443.89" y="366.727" fill="black" font-size="15" text-anchor="middle">20SAQ07<tspan x="1443.89" dy="15">AA003</tspan>
    </text>
    <text x="1694.89" y="366.727" fill="black" font-size="15" text-anchor="middle">20SAQ07<tspan x="1694.89" dy="15">AA004</tspan>
    </text>
  </g>
  <g>
    <polyline points="1663.47,331.042 1713.51,332.422 1712.16,381.342 1663.22,381.102 1663.63,331.202" fill="Col_BGSand" stroke="black" stroke-width="3" transform="rotate(44.0618 1325.51 325.508)"/> 
    <line x1="1531.52" y1="600" x2="1601.52" y2="600" stroke="black"/> 
  </g>
  <text x="825" y="48" fill="black" font-size="30" font-weight="700">Системы зд. 20URS</text>
  <rect x="576" y="511.9" width="60" height="75.1" rx="0" ry="0" fill="Col_BGSand" stroke="black" stroke-width="2"/> 
  <polyline points="617.349,250.606 619.238,331.118" fill="none" stroke="black" stroke-width="3"/> 
  <text x="441" y="223" font-size="20">20URS11R001</text>
  <text x="557.238" y="323.936" fill="black" font-size="15" text-anchor="middle">20SAQ03<tspan x="557.238" dy="15">AN002</tspan>
  </text>
  <text x="494.349" y="543.606" fill="black" font-size="15">dP 0.005</text>
  <text x="450.939" y="668.409" fill="black" font-size="15">20SAQ03AA004</text>
  <line x1="636.349" y1="630" x2="465" y2="630" stroke="black" stroke-width="3"/> 
  <image x="600.188" y="292.561" width="70" height="70" xlink:href="TENZOR_motor.svg" transform="rotate(270 0.00012207 0)">
    <title>20SAQ03AN002</title>
    <rt:dyn type="DeviceType" mode="constant" value="&quot;fan&quot;"/> 
    <rt:dyn type="Operate" mode="constant" value="true"/> 
    <rt:dyn type="KKS" mode="constant" value="&quot;20SAQ03AN002&quot;"/> 
  </image>
  <line x1="637.089" y1="368" x2="773" y2="368" stroke="black" stroke-width="2"/> 
  <polygon points="773.129,373.659 757.799,367.991 773.129,362.324" fill="black" stroke="black"/> 
  <line x1="637.089" y1="501.606" x2="772" y2="501" stroke="black" stroke-width="2"/> 
  <polygon points="-77.0724,507.659 -92.4055,501.991 -77.0724,496.324" fill="black" stroke="black" transform="flipX(342.722)"/> 
  <text x="757.5" y="424.5" fill="black" font-size="15" font-weight="700" text-anchor="middle">SBQ</text>
  <text x="723" y="537.5" fill="black" font-size="15" text-anchor="middle">20SBQ44AA202</text>
  <text x="716.849" y="589.061" fill="black" font-size="15" text-anchor="middle">20SAQ03AT002</text>
  <line x1="549.349" y1="550.606" x2="576.349" y2="550.606" stroke="black"/> 
  <text x="486" y="395.5" fill="black" font-size="15">20SAQ03AH002</text>
  <g>
    <line x1="643.518" y1="727.894" x2="629.899" y2="727.894" stroke="black" stroke-width="3"/> 
    <polygon points="564.939,1431.17 549.606,1425.51 564.939,1419.84" fill="black" stroke="black" transform="rotate(180 41.5 518.174) rotate(90 349.775 521.5) flipX(342.722)"/> 
  </g>
  <g>
    <line x1="623.349" y1="233.106" x2="609.738" y2="233.106" stroke="black" stroke-width="3"/> 
    <polygon points="70.151,1411 54.818,1405.34 70.151,1399.67" fill="black" stroke="black" transform="rotate(180 41.5 518.174) rotate(90 349.775 521.5) flipX(342.722)"/> 
  </g>
  <text x="639.349" y="760.106" fill="black" font-size="15" font-weight="700" text-anchor="middle">ATM</text>
  <text x="662.239" y="671.618" fill="black" font-size="15">20SAQ03<tspan x="662.239" dy="15">AA003</tspan>
  </text>
  <g>
    <polyline points="961.095,939.946 1011.15,941.326 1009.79,990.246 960.845,990.006 961.255,940.106" fill="Col_BGSand" stroke="black" stroke-width="3" transform="rotate(44.0618 1325.51 325.508)"/> 
    <line x1="602.349" y1="549.106" x2="672.349" y2="549.106" stroke="black"/> 
  </g>
  <g>
    <g>
      <line x1="473.469" y1="250.606" x2="459.849" y2="250.606" stroke="black" stroke-width="3"/> 
      <polygon points="624.063,410.589 608.73,404.921 624.063,399.254" fill="black" stroke="black" transform="rotate(90 349.775 521.5) flipX(342.722)"/> 
    </g>
    <line x1="466.239" y1="247.118" x2="466" y2="630" stroke="black" stroke-width="3"/> 
  </g>
  <polyline points="174.227,506.375 174.227,506.375 174.227,506.375 174.227,506.375 174.227,506.375 174.227,506.375 174.227,506.375 174.227,506.375 174.227,506.375 174.228,506.375 174.229,506.375 174.23,506.375 174.233,506.375 174.239,506.375 174.251,506.375 174.275,506.375 174.324,506.375 174.42,506.375 174.614,506.375 175,506.375 175.774,506.375 177.321,506.375 180.415,506.375 186.602,506.375 193.977,506.375 203.727,506.375 218.227,506.375 237.227,506.375 237.227,506.375"/> 
  <text x="264.227" y="664.432" fill="black" font-size="15">20SAQ03<tspan x="264.227" dy="15">AA001</tspan>
  </text>
  <polyline points="223.227,247.375 223.667,314.394" fill="none" stroke="black" stroke-width="3"/> 
  <text x="50" y="224" font-size="20">20URS11R001</text>
  <text x="160.727" y="324.75" fill="black" font-size="15" text-anchor="middle">20SAQ03<tspan x="160.727" dy="15">AN001</tspan>
  </text>
  <text x="93.227" y="537.375" fill="black" font-size="15">dP 0.005</text>
  <line x1="236.227" y1="622.814" x2="78.937" y2="622.814" stroke="black" stroke-width="3"/> 
  <image x="202.061" y="288.375" width="70" height="70" xlink:href="TENZOR_motor.svg" transform="rotate(270 0.00012207 0)">
    <title>20SAQ03AN001</title>
    <rt:dyn type="DeviceType" mode="constant" value="&quot;fan&quot;"/> 
    <rt:dyn type="Operate" mode="constant" value="true"/> 
    <rt:dyn type="KKS" mode="constant" value="&quot;20SAQ03AN001&quot;"/> 
  </image>
  <line x1="237.959" y1="363.814" x2="357.937" y2="363.814" stroke="black" stroke-width="2"/> 
  <polygon points="368.999,369.428 353.669,363.76 368.999,358.093" fill="black" stroke="black"/> 
  <line x1="238.959" y1="494.375" x2="374.227" y2="494.375" stroke="black" stroke-width="2"/> 
  <polygon points="326.054,499.428 310.721,493.76 326.054,488.093" fill="black" stroke="black" transform="flipX(342.722)"/> 
  <text x="364.5" y="424.5" fill="black" font-size="15" font-weight="700" text-anchor="middle">SBQ</text>
  <text x="329.227" y="530.875" fill="black" font-size="15" text-anchor="middle">20SBQ44AA201</text>
  <text x="310.727" y="581.875" fill="black" font-size="15" text-anchor="middle">20SAQ03AT001</text>
  <line x1="150.227" y1="544.375" x2="177.227" y2="544.375" stroke="black"/> 
  <text x="84" y="392.5" fill="black" font-size="15">20SAQ03AH001</text>
  <g>
    <line x1="242.393" y1="716.663" x2="228.773" y2="716.663" stroke="black" stroke-width="3"/> 
    <polygon points="553.708,1030.05 538.375,1024.39 553.708,1018.72" fill="black" stroke="black" transform="rotate(180 41.5 518.174) rotate(90 349.775 521.5) flipX(342.722)"/> 
  </g>
  <g>
    <line x1="229.227" y1="230.875" x2="215.607" y2="230.875" stroke="black" stroke-width="3"/> 
    <polygon points="67.9196,1016.88 52.5866,1011.22 67.9196,1005.55" fill="black" stroke="black" transform="rotate(180 41.5 518.174) rotate(90 349.775 521.5) flipX(342.722)"/> 
  </g>
  <text x="237.227" y="752.875" fill="black" font-size="15" font-weight="700" text-anchor="middle">ATM</text>
  <g>
    <polyline points="670.65,1213.75 720.697,1215.13 719.335,1264.05 670.4,1263.81 670.808,1213.91" fill="Col_BGSand" stroke="black" stroke-width="3" transform="rotate(44.0618 1325.51 325.508)"/> 
    <line x1="204.227" y1="543.875" x2="274.227" y2="543.875" stroke="black"/> 
  </g>
  <g>
    <polyline points="80.937,247.814 80,624" fill="none" stroke="black" stroke-width="3"/> 
    <g>
      <line x1="87.345" y1="247.375" x2="73.725" y2="247.375" stroke="black" stroke-width="3"/> 
      <polygon points="627.295,796.716 611.962,791.048 627.295,785.381" fill="black" stroke="black" transform="rotate(90 349.775 521.5) flipX(342.722)"/> 
    </g>
  </g>
  <line x1="920" y1="245" x2="920" y2="670" stroke="black" stroke-width="3"/> 
  <polyline points="1076.62,559.773 1013.62,559.773 1013.62,559.773 1013,634 1075.62,634.773" fill="Col_BGSand" stroke="black" stroke-width="2"/> 
  <line x1="1073" y1="250" x2="1078" y2="760" stroke="black" stroke-width="3"/> 
  <text x="1103.62" y="698.273" fill="black" font-size="15">20SAQ07<tspan x="1103.62" dy="15">AA007</tspan>
  </text>
  <text x="895" y="223.106" font-size="20">20URS11R001</text>
  <text x="932.623" y="592.773" fill="black" font-size="15">dP 0.003</text>
  <text x="898" y="706.5" fill="black" font-size="15">20SAQ07AA008</text>
  <line x1="1077.62" y1="668" x2="919" y2="668" stroke="black" stroke-width="3"/> 
  <text x="1148.12" y="634.273" fill="black" font-size="15" text-anchor="middle">20SAQ07AT002</text>
  <line x1="986.623" y1="603.773" x2="1013.62" y2="603.773" stroke="black"/> 
  <g>
    <line x1="1079.62" y1="232.273" x2="1066" y2="232.273" stroke="black" stroke-width="3"/> 
    <polygon points="69.3178,1867.27 53.9848,1861.61 69.3178,1855.94" fill="black" stroke="black" transform="rotate(180 41.5 518.174) rotate(90 349.775 521.5) flipX(342.722)"/> 
  </g>
  <text x="1078.62" y="791.273" fill="black" font-size="15" font-weight="700" text-anchor="middle">ATM</text>
  <line x1="1084.79" y1="759.061" x2="1071.17" y2="759.061" stroke="black" stroke-width="3"/> 
  <polygon points="596.106,1871.44 580.773,1865.78 596.106,1860.11" fill="black" stroke="black" transform="rotate(180 41.5 518.174) rotate(90 349.775 521.5) flipX(342.722)"/> 
  <polygon points="70.821,1714.93 55.488,1709.28 70.821,1703.6" fill="black" stroke="black" transform="rotate(180 41.5 518.174) rotate(90 349.775 521.5) flipX(342.722)"/> 
  <g>
    <polyline points="1041,317 1041,411 1141,411 1141,318" fill="Col_BGSand" stroke="black" stroke-width="2"/> 
    <text x="959" y="300.5" fill="black" font-size="15" text-anchor="middle">20SAQ07<tspan x="959" dy="15">AN003</tspan>
    </text>
    <polyline points="1116,318 1116,268 1016,268 1016,318" fill="Col_BGSand" stroke="black" stroke-width="2"/> 
    <image x="995" y="273" width="70" height="70" xlink:href="TENZOR_motor.svg" transform="rotate(270 0.00012207 0)">
      <title>20SAQ07AN003/004</title>
      <rt:dyn type="DeviceType" mode="constant" value="&quot;fan&quot;"/> 
      <rt:dyn type="Operate" mode="constant" value="true"/> 
      <rt:dyn type="KKS" mode="constant" value="&quot;20SAQ07AN003/004&quot;"/> 
    </image>
    <text x="1207" y="300.5" fill="black" font-size="15" text-anchor="middle">20SAQ07<tspan x="1207" dy="15">AN004</tspan>
    </text>
    <image x="1097" y="273" width="70" height="70" xlink:href="TENZOR_motor.svg" transform="rotate(270 0.00012207 0)">
      <title>20SAQ07AN003/004</title>
      <rt:dyn type="DeviceType" mode="constant" value="&quot;fan&quot;"/> 
      <rt:dyn type="Operate" mode="constant" value="true"/> 
      <rt:dyn type="KKS" mode="constant" value="&quot;20SAQ07AN003/004&quot;"/> 
    </image>
    <polyline points="1041,374 1041,311"/> 
    <text x="961" y="368" fill="black" font-size="15" text-anchor="middle">20SAQ07<tspan x="961" dy="15">AA009</tspan>
    </text>
    <text x="1207" y="368" fill="black" font-size="15" text-anchor="middle">20SAQ07<tspan x="1207" dy="15">AA010</tspan>
    </text>
  </g>
  <g>
    <polyline points="1312.36,669.817 1362.41,671.197 1361.04,720.117 1312.11,719.877 1312.52,669.976" fill="Col_BGSand" stroke="black" stroke-width="3" transform="rotate(44.0618 1325.51 325.508)"/> 
    <line x1="1043.62" y1="599.273" x2="1113.62" y2="599.273" stroke="black"/> 
  </g>
  <text x="1389.39" y="125.5" font-size="20">20URS01R001</text>
  <text x="1389.39" y="145.5" font-size="20">20URS01R002</text>
  <text x="1389.39" y="165.5" font-size="20">20URS01R008</text>
  <text x="1389.39" y="185.5" font-size="20">20URS01R004</text>
  <text x="1590" y="124.5" font-size="20">20URS04R002</text>
  <text x="1590" y="144.5" font-size="20">20URS04R008</text>
  <text x="1590" y="164.5" font-size="20">20URS04R004</text>
  <text x="1590" y="184.5" font-size="20">20URS01R010</text>
  <rect x="231" y="101" width="174.937" height="94.814" rx="0" ry="0" fill="Col_BGSand" stroke="black" stroke-width="3"/> 
  <text x="248.227" y="133.375" font-size="20">20URS11R001</text>
  <text x="248.227" y="156.875" font-size="20">20URS11R006</text>
  <text x="248.227" y="179.875" font-size="20">20URS11R007</text>
  <rect x="621.5" y="101" width="174.937" height="94.814" rx="0" ry="0" fill="Col_BGSand" stroke="black" stroke-width="3"/> 
  <text x="638.349" y="154.606" font-size="20">20URS11R001</text>
  <text x="637" y="181.667" font-size="20">20URS11R008</text>
  <polyline points="753.349,150.606 634.349,149.606 693.849,150.106"/> 
  <rect x="890.5" y="101" width="174.937" height="94.814" rx="0" ry="0" fill="Col_BGSand" stroke="black" stroke-width="3"/> 
  <text x="908" y="135.5" font-size="20">20URS01R005</text>
  <text x="908" y="157.5" font-size="20">20URS01R008</text>
  <text x="908" y="179.5" font-size="20">20URS11R005</text>
  <rect x="1086.5" y="101" width="174.937" height="94.814" rx="0" ry="0" fill="Col_BGSand" stroke="black" stroke-width="3"/> 
  <text x="1106" y="136.5" font-size="20">20URS04R005</text>
  <text x="1106" y="158.5" font-size="20">20URS04R006</text>
  <text x="1106" y="180.5" font-size="20">20URS04R008</text>
  <image x="175.182" y="611.545" width="25" height="25" xlink:href="bin_indicator.svg">
    <title>20SAQ03AA002_XB02</title>
    <rt:dyn type="PointID" mode="constant" value="&quot;20SAQ03AA002_XB02&quot;"/> 
    <rt:dyn type="Col_ON" mode="constant" value="&quot;Col_Green&quot;"/> 
    <rt:dyn type="Col_OFF" mode="constant" value="&quot;Col_Red&quot;"/> 
  </image>
  <text x="121.394" y="661.924" fill="black" font-size="15" text-anchor="middle">20SAQ03AA002</text>
  <image x="565.606" y="616.546" width="25" height="25" xlink:href="bin_indicator.svg">
    <title>20SAQ03AA004_XB02</title>
    <rt:dyn type="PointID" mode="constant" value="&quot;20SAQ03AA004_XB02&quot;"/> 
    <rt:dyn type="Col_ON" mode="constant" value="&quot;Col_Green&quot;"/> 
    <rt:dyn type="Col_OFF" mode="constant" value="&quot;Col_Red&quot;"/> 
  </image>
  <image x="1503.97" y="656.182" width="25" height="25" xlink:href="bin_indicator.svg">
    <title>20SAQ07AA002_XB02</title>
    <rt:dyn type="PointID" mode="constant" value="&quot;20SAQ07AA002_XB02&quot;"/> 
    <rt:dyn type="Col_ON" mode="constant" value="&quot;Col_Green&quot;"/> 
    <rt:dyn type="Col_OFF" mode="constant" value="&quot;Col_Red&quot;"/> 
  </image>
  <image x="1014.58" y="657.728" width="25" height="25" xlink:href="bin_indicator.svg">
    <title>20SAQ07AA008_XB02</title>
    <rt:dyn type="PointID" mode="constant" value="&quot;20SAQ07AA008_XB02&quot;"/> 
    <rt:dyn type="Col_ON" mode="constant" value="&quot;Col_Green&quot;"/> 
    <rt:dyn type="Col_OFF" mode="constant" value="&quot;Col_Red&quot;"/> 
  </image>
  <text x="196.5" y="607.5" fill="black" font-size="15" text-anchor="middle">не закрыт</text>
  <text x="591.5" y="607.5" fill="black" font-size="15" text-anchor="middle">не закрыт</text>
  <text x="1035.5" y="652.5" fill="black" font-size="15" text-anchor="middle">не закрыт</text>
  <text x="1522.5" y="652.5" fill="black" font-size="15" text-anchor="middle">не закрыт</text>
  <image x="84" y="580" width="70" height="65" xlink:href="DS_CO_valve_tenzor.svg" transform="rotate(0 0 -10)">
    <title>20SAQ03AA002</title>
    <rt:dyn type="DATA_NARY" mode="constant" value="&quot;TYPE2&quot;"/> 
    <rt:dyn type="Operate" mode="constant" value="true"/> 
    <rt:dyn type="KKS" mode="constant" value="&quot;20SAQ03AA002&quot;"/> 
  </image>
  <image x="192" y="643" width="70" height="65" xlink:href="DS_CO_valve_tenzor.svg" transform="rotate(270 0 -10)">
    <title>20SAQ03AA001</title>
    <rt:dyn type="DATA_NARY" mode="constant" value="&quot;TYPE2&quot;"/> 
    <rt:dyn type="Operate" mode="constant" value="true"/> 
    <rt:dyn type="KKS" mode="constant" value="&quot;10QKS03AA001&quot;"/> 
  </image>
  <image x="486" y="587" width="70" height="65" xlink:href="DS_CO_valve_tenzor.svg" transform="rotate(0 0 -10)">
    <title>20SAQ03AA004</title>
    <rt:dyn type="DATA_NARY" mode="constant" value="&quot;TYPE2&quot;"/> 
    <rt:dyn type="Operate" mode="constant" value="true"/> 
    <rt:dyn type="KKS" mode="constant" value="&quot;20SAQ03AA004&quot;"/> 
  </image>
  <image x="593" y="647" width="70" height="65" xlink:href="DS_CO_valve_tenzor.svg" transform="rotate(270 0 -10)">
    <title>20SAQ03AA003</title>
    <rt:dyn type="DATA_NARY" mode="constant" value="&quot;TYPE2&quot;"/> 
    <rt:dyn type="Operate" mode="constant" value="true"/> 
    <rt:dyn type="KKS" mode="constant" value="&quot;20SAQ03AA003&quot;"/> 
  </image>
  <image x="677" y="459" width="70" height="65" xlink:href="DS_CO_valve_tenzor.svg" transform="rotate(0 0 -10)">
    <title>20SBQ44AA202</title>
    <rt:dyn type="DATA_NARY" mode="constant" value="&quot;TYPE2&quot;"/> 
    <rt:dyn type="Operate" mode="constant" value="true"/> 
    <rt:dyn type="KKS" mode="constant" value="&quot;20SBQ44AA202&quot;"/> 
  </image>
  <image x="1117" y="512" width="70" height="65" xlink:href="DS_CO_valve_tenzor.svg" transform="rotate(0 0 -10)">
    <title>20SBQ44AA203</title>
    <rt:dyn type="DATA_NARY" mode="constant" value="&quot;TYPE2&quot;"/> 
    <rt:dyn type="Operate" mode="constant" value="true"/> 
    <rt:dyn type="KKS" mode="constant" value="&quot;20SBQ44AA203&quot;"/> 
  </image>
  <image x="928" y="626" width="70" height="65" xlink:href="DS_CO_valve_tenzor.svg" transform="rotate(0 0 -10)">
    <title>20SAQ07AA008</title>
    <rt:dyn type="DATA_NARY" mode="constant" value="&quot;TYPE2&quot;"/> 
    <rt:dyn type="Operate" mode="constant" value="true"/> 
    <rt:dyn type="KKS" mode="constant" value="&quot;20SAQ07AA008&quot;"/> 
  </image>
  <image x="1033" y="688" width="70" height="65" xlink:href="DS_CO_valve_tenzor.svg" transform="rotate(270 0 -10)">
    <title>20SAQ07AA007</title>
    <rt:dyn type="DATA_NARY" mode="constant" value="&quot;TYPE2&quot;"/> 
    <rt:dyn type="Operate" mode="constant" value="true"/> 
    <rt:dyn type="KKS" mode="constant" value="&quot;20SAQ07AA007&quot;"/> 
  </image>
  <image x="1521" y="689" width="70" height="65" xlink:href="DS_CO_valve_tenzor.svg" transform="rotate(270 0 -10)">
    <title>20SAQ07AA001</title>
    <rt:dyn type="DATA_NARY" mode="constant" value="&quot;TYPE2&quot;"/> 
    <rt:dyn type="Operate" mode="constant" value="true"/> 
    <rt:dyn type="KKS" mode="constant" value="&quot;20SAQ07AA001&quot;"/> 
  </image>
  <image x="1604" y="509" width="70" height="65" xlink:href="DS_CO_valve_tenzor.svg" transform="rotate(0 0 -10)">
    <title>20SBQ44AA204</title>
    <rt:dyn type="DATA_NARY" mode="constant" value="&quot;TYPE2&quot;"/> 
    <rt:dyn type="Operate" mode="constant" value="true"/> 
    <rt:dyn type="KKS" mode="constant" value="&quot;20SBQ44AA204&quot;"/> 
  </image>
  <image x="996" y="347.5" width="70" height="65" xlink:href="DS_CO_valve_tenzor.svg" transform="rotate(270 0 -10)">
    <title>20SAQ07AA009</title>
    <rt:dyn type="DATA_NARY" mode="constant" value="&quot;TYPE2&quot;"/> 
    <rt:dyn type="Operate" mode="constant" value="true"/> 
    <rt:dyn type="KKS" mode="constant" value="&quot;20SAQ07AA009&quot;"/> 
  </image>
  <image x="1095" y="347.5" width="70" height="65" xlink:href="DS_CO_valve_tenzor.svg" transform="rotate(270 0 -10)">
    <title>20SAQ07AA010</title>
    <rt:dyn type="DATA_NARY" mode="constant" value="&quot;TYPE2&quot;"/> 
    <rt:dyn type="Operate" mode="constant" value="true"/> 
    <rt:dyn type="KKS" mode="constant" value="&quot;20SAQ07AA010&quot;"/> 
  </image>
  <image x="1485" y="343" width="70" height="65" xlink:href="DS_CO_valve_tenzor.svg" transform="rotate(270 0 -10)">
    <title>20SAQ07AA003</title>
    <rt:dyn type="DATA_NARY" mode="constant" value="&quot;TYPE2&quot;"/> 
    <rt:dyn type="Operate" mode="constant" value="true"/> 
    <rt:dyn type="KKS" mode="constant" value="&quot;20SAQ07AA003&quot;"/> 
  </image>
  <image x="1585" y="341" width="70" height="65" xlink:href="DS_CO_valve_tenzor.svg" transform="rotate(270 0 -10)">
    <title>20SAQ07AA004</title>
    <rt:dyn type="DATA_NARY" mode="constant" value="&quot;TYPE2&quot;"/> 
    <rt:dyn type="Operate" mode="constant" value="true"/> 
    <rt:dyn type="KKS" mode="constant" value="&quot;20SAQ07AA004&quot;"/> 
  </image>
  <image x="1414" y="627" width="70" height="65" xlink:href="DS_CO_valve_tenzor.svg" transform="rotate(0 0 -10)">
    <title>20SAQ07AA002</title>
    <rt:dyn type="DATA_NARY" mode="constant" value="&quot;TYPE2&quot;"/> 
    <rt:dyn type="Operate" mode="constant" value="true"/> 
    <rt:dyn type="KKS" mode="constant" value="&quot;20SAQ07AA002&quot;"/> 
  </image>
  <polyline points="1012.62,526.773 1012.62,526.773 1012.62,526.773 1012.62,526.773 1012.62,526.773 1012.62,526.773 1012.62,526.773 1012.62,526.773 1012.62,526.773 1012.62,526.773 1012.62,526.773 1012.63,526.773 1012.63,526.773 1012.63,526.773 1012.65,526.773 1012.67,526.773 1012.72,526.773 1012.82,526.773 1013.01,526.773 1013.4,526.773 1014.17,526.773 1015.72,526.773 1018.81,526.773 1025,526.773 1032.37,526.773 1042.12,526.773 1056.62,526.773 1075.62,526.773 1075.62,526.773"/> 
  <line x1="1074.35" y1="425" x2="1202" y2="425" stroke="black" stroke-width="2"/> 
  <polygon points="1215.4,430.826 1200.07,425.158 1215.4,419.491" fill="black" stroke="black"/> 
  <polygon points="-520.342,558.826 -535.675,553.158 -520.342,547.491" fill="black" stroke="black" transform="flipX(342.722)"/> 
  <text x="1222" y="450.5" fill="black" font-size="15" font-weight="700" text-anchor="middle">SBQ</text>
  <text x="1154.62" y="592.273" fill="black" font-size="15" text-anchor="middle">20SBQ44<tspan x="1154.62" dy="15">AA203</tspan>
  </text>
  <text x="921" y="450.5" fill="black" font-size="15">20SAQ03AH001</text>
  <image x="1010" y="425" width="130" height="130" xlink:href="ps_TempValve.svg">
    <title>&quot;20SAQ03AH001&quot;</title>
    <rt:dyn type="KKS" mode="constant" value="&quot;20SAQ03AH001&quot;"/> 
    <rt:dyn type="Operate" mode="constant" value="true"/> 
  </image>
  <image x="171" y="365" width="130" height="130" xlink:href="ps_TempValve.svg">
    <title>&quot;20SAQ03AH001&quot;</title>
    <rt:dyn type="KKS" mode="constant" value="&quot;20SAQ03AH001&quot;"/> 
    <rt:dyn type="Operate" mode="constant" value="true"/> 
  </image>
  <image x="572" y="370" width="130" height="130" xlink:href="ps_TempValve.svg">
    <title>&quot;20SAQ03AH002&quot;</title>
    <rt:dyn type="KKS" mode="constant" value="&quot;20SAQ03AH002&quot;"/> 
    <rt:dyn type="Operate" mode="constant" value="true"/> 
    <rt:dyn type="TYPE" mode="constant" value="&quot;TYPE2&quot;"/> 
  </image>
  <image x="228" y="257" width="175" height="25" xlink:href="DS_ana.svg">
    <title>20SAQ03CT001</title>
    <rt:dyn type="FKKS" mode="constant" value="&quot;20SAQ03CT001&quot;"/> 
    <rt:dyn type="X" mode="constant" value="&quot;T&quot;"/> 
    <rt:dyn type="ShowFrame" mode="constant" value="true"/> 
    <rt:dyn type="ValueToTheRight" mode="constant" value="false"/> 
    <rt:dyn type="Color_Readings" mode="constant" value="true"/> 
  </image>
  <image x="624" y="259" width="175" height="25" xlink:href="DS_ana.svg">
    <title>20SAQ03CT002</title>
    <rt:dyn type="FKKS" mode="constant" value="&quot;20SAQ03CT002&quot;"/> 
    <rt:dyn type="X" mode="constant" value="&quot;T&quot;"/> 
    <rt:dyn type="ShowFrame" mode="constant" value="true"/> 
    <rt:dyn type="ValueToTheRight" mode="constant" value="false"/> 
    <rt:dyn type="Color_Readings" mode="constant" value="true"/> 
  </image>
  <image x="1082" y="241" width="175" height="25" xlink:href="DS_ana.svg">
    <title>20SAQ07CT002</title>
    <rt:dyn type="FKKS" mode="constant" value="&quot;20SAQ07CT002&quot;"/> 
    <rt:dyn type="X" mode="constant" value="&quot;T&quot;"/> 
    <rt:dyn type="ShowFrame" mode="constant" value="true"/> 
    <rt:dyn type="ValueToTheRight" mode="constant" value="false"/> 
    <rt:dyn type="Color_Readings" mode="constant" value="true"/> 
  </image>
  <polyline points="1500.52,543.5 1500.52,543.5 1500.52,543.5 1500.52,543.5 1500.52,543.5 1500.52,543.5 1500.52,543.5 1500.52,543.5 1500.52,543.5 1500.52,543.5 1500.52,543.5 1500.52,543.5 1500.52,543.5 1500.53,543.5 1500.54,543.5 1500.56,543.5 1500.61,543.5 1500.71,543.5 1500.9,543.5 1501.29,543.5 1502.06,543.5 1503.61,543.5 1506.7,543.5 1512.89,543.5 1520.27,543.5 1530.02,543.5 1544.52,543.5 1563.52,543.5 1563.52,543.5"/> 
  <line x1="1562.25" y1="419.727" x2="1689.89" y2="419.727" stroke="black" stroke-width="2"/> 
  <polygon points="1703.29,425.553 1687.96,419.885 1703.29,414.218" fill="black" stroke="black"/> 
  <polygon points="-1008.23,556.553 -1023.57,550.885 -1008.23,545.218" fill="black" stroke="black" transform="flipX(342.722)"/> 
  <text x="1709.89" y="449.227" fill="black" font-size="15" font-weight="700" text-anchor="middle">SBQ</text>
  <text x="1642.52" y="589" fill="black" font-size="15" text-anchor="middle">20SBQ44<tspan x="1642.52" dy="15">AA204</tspan>
  </text>
  <text x="1412.89" y="445.227" fill="black" font-size="15">20SAQ03AH001</text>
  <image x="1498" y="422" width="130" height="130" xlink:href="ps_TempValve.svg">
    <title>&quot;20SAQ03AH001&quot;</title>
    <rt:dyn type="KKS" mode="constant" value="&quot;20SAQ03AH001&quot;"/> 
    <rt:dyn type="Operate" mode="constant" value="true"/> 
  </image>
  <image x="1571" y="241" width="175" height="25" xlink:href="DS_ana.svg">
    <title>20SAQ07CT001</title>
    <rt:dyn type="FKKS" mode="constant" value="&quot;20SAQ07CT001&quot;"/> 
    <rt:dyn type="X" mode="constant" value="&quot;T&quot;"/> 
    <rt:dyn type="ShowFrame" mode="constant" value="true"/> 
    <rt:dyn type="ValueToTheRight" mode="constant" value="false"/> 
    <rt:dyn type="Color_Readings" mode="constant" value="true"/> 
  </image>
  <image x="282" y="452" width="70" height="65" xlink:href="DS_CO_valve_tenzor.svg" transform="rotate(0 0 -10)">
    <title>20SBQ44AA201</title>
    <rt:dyn type="DATA_NARY" mode="constant" value="&quot;TYPE2&quot;"/> 
    <rt:dyn type="Operate" mode="constant" value="true"/> 
    <rt:dyn type="KKS" mode="constant" value="&quot;20SBQ44AA201&quot;"/> 
  </image>
</svg>
