<?xml  version="1.0" encoding="windows-1251"?>
<svg color="Col_BGSand" xmlns="http://www.w3.org/2000/svg" xmlns:rt="http://www.rts.co.at/2001/XMLSchema/RtSvgPL" xmlns:xlink="http://www.w3.org/1999/xlink" xmlns:xsi="http://www.w3.org/2001/XMLSchema-instance" xsi:schemaLocation="http://www.w3.org/2000/svg C:\RTS\RtSvg\XML\SVG.xsd" viewBox="0 0 1914 1000" width="1914" height="1000" id="skuv_klc22_24_28">
  <title>Вытяжная система в здании UKA</title>
  <rt:model modelversion="7.2.0.24" comment="UMod all_skuv&#10;LMod skuv_klc21_23_27&#10;RMod skuv_klc25_41" revision="3"/> 
  <line x1="365" y1="259.333" x2="1434.03" y2="259.091" stroke="black" stroke-width="3"/> 
  <line x1="335" y1="626.25" x2="335" y2="400" stroke="black" stroke-dasharray="5,5" stroke-width="1"/> 
  <line x1="1222" y1="728" x2="1315.85" y2="728" stroke="black" stroke-width="3"/> 
  <line x1="1299" y1="710" x2="1529" y2="710" stroke="black" stroke-width="3"/> 
  <line x1="126.5" y1="977" x2="1118" y2="977" stroke="black" stroke-width="3"/> 
  <image x="99.5" y="964.5" width="100" height="25" xlink:href="obj_link.svg">
    <rt:dyn type="TextStr" mode="constant" value="&quot;KLC26-42&quot;"/> 
    <rt:dyn type="ModName" mode="constant" value="&quot;skuv_klc26_42&quot;"/> 
  </image>
  <line x1="125" y1="637" x2="295.848" y2="637" stroke="black" stroke-width="3"/> 
  <image x="66.606" y="624.758" width="100" height="25" xlink:href="obj_link.svg">
    <rt:dyn type="TextStr" mode="constant" value="&quot;KLC25-41&quot;"/> 
    <rt:dyn type="ModName" mode="constant" value="&quot;skuv_klc25_41&quot;"/> 
  </image>
  <line x1="546.394" y1="978.061" x2="546.394" y2="928.061" stroke="black" stroke-width="3"/> 
  <line x1="688.061" y1="978.061" x2="688.061" y2="928.061" stroke="black" stroke-width="3"/> 
  <line x1="828.97" y1="978.061" x2="828.97" y2="928.061" stroke="black" stroke-width="3"/> 
  <line x1="294" y1="852" x2="344" y2="852" stroke="black" stroke-width="3"/> 
  <line x1="295" y1="852" x2="295" y2="400" stroke="black" stroke-width="3"/> 
  <line x1="688.061" y1="828.939" x2="688.061" y2="624" stroke="black" stroke-width="3"/> 
  <line x1="828.97" y1="828.939" x2="828.97" y2="778.939" stroke="black" stroke-width="3"/> 
  <line x1="828" y1="780" x2="1224" y2="780" stroke="black" stroke-width="3"/> 
  <image x="1262.67" y="691" width="70" height="70" xlink:href="DS_motor.svg">
    <title>&quot;20KLC28AN001&quot;</title>
    <rt:dyn type="KKS" mode="constant" value="&quot;20KLC28AN001&quot;"/> 
    <rt:dyn type="DATA_NARY" mode="constant" value="&quot;TPTS&quot;"/> 
    <rt:dyn type="Operate" mode="constant" value="true"/> 
    <rt:dyn type="DeviceType" mode="constant" value="&quot;fan&quot;"/> 
  </image>
  <image x="1438" y="666.5" width="70" height="65" xlink:href="DS_CO_valve.svg">
    <title>&quot;20KLC28AA001&quot;</title>
    <rt:dyn type="KKS" mode="constant" value="&quot;20KLC28AA001&quot;"/> 
    <rt:dyn type="DATA_NARY" mode="constant" value="&quot;TPTS&quot;"/> 
    <rt:dyn type="Operate" mode="constant" value="true"/> 
  </image>
  <line x1="1224" y1="852" x2="1224" y2="727" stroke="black" stroke-width="3"/> 
  <line x1="1529" y1="835" x2="1529" y2="709" stroke="black" stroke-width="3"/> 
  <line x1="1224.02" y1="852" x2="1312.82" y2="852" stroke="black" stroke-width="3"/> 
  <line x1="1301.02" y1="833" x2="1529" y2="833" stroke="black" stroke-width="3"/> 
  <line x1="1547" y1="677" x2="1727.97" y2="677" stroke="black" stroke-width="3"/> 
  <line x1="1710.03" y1="660" x2="1887.03" y2="660" stroke="black" stroke-width="3"/> 
  <image x="1683.48" y="641.5" width="70" height="70" xlink:href="DS_motor.svg">
    <title>&quot;20KLC24AN002&quot;</title>
    <rt:dyn type="KKS" mode="constant" value="&quot;20KLC24AN002&quot;"/> 
    <rt:dyn type="DATA_NARY" mode="constant" value="&quot;TPTS&quot;"/> 
    <rt:dyn type="Operate" mode="constant" value="true"/> 
    <rt:dyn type="DeviceType" mode="constant" value="&quot;fan&quot;"/> 
  </image>
  <line x1="1547" y1="553" x2="1718.88" y2="553" stroke="black" stroke-width="3"/> 
  <line x1="1729.48" y1="535" x2="1886.03" y2="535" stroke="black" stroke-width="3"/> 
  <line x1="1546" y1="678" x2="1546" y2="552" stroke="black" stroke-width="3"/> 
  <line x1="1885.5" y1="661" x2="1885.5" y2="535" stroke="black" stroke-width="3"/> 
  <line x1="546" y1="625" x2="1547" y2="625" stroke="black" stroke-width="3"/> 
  <line x1="546.394" y1="830" x2="546.394" y2="624" stroke="black" stroke-width="3"/> 
  <line x1="862" y1="502" x2="862" y2="502" stroke="black"/> 
  <line x1="365" y1="475" x2="1432.52" y2="475" stroke="black" stroke-width="3"/> 
  <image x="410" y="432.5" width="70" height="65" xlink:href="DS_CO_valve.svg">
    <title>&quot;20KLC22AA002&quot;</title>
    <rt:dyn type="KKS" mode="constant" value="&quot;20KLC22AA002&quot;"/> 
    <rt:dyn type="Operate" mode="constant" value="true"/> 
    <rt:dyn type="DATA_NARY" mode="constant" value="&quot;TPTS&quot;"/> 
  </image>
  <image x="1298" y="432.5" width="70" height="65" xlink:href="DS_CO_valve.svg">
    <title>&quot;20KLC22AA004&quot;</title>
    <rt:dyn type="KKS" mode="constant" value="&quot;20KLC22AA004&quot;"/> 
    <rt:dyn type="DATA_NARY" mode="constant" value="&quot;TPTS&quot;"/> 
    <rt:dyn type="Operate" mode="constant" value="true"/> 
  </image>
  <text x="377.515" y="522" font-size="15">20KLC22AA002</text>
  <text x="527" y="525" font-size="15">20KLC22AH002</text>
  <text x="1286" y="521" font-size="15">20KLC22AA004</text>
  <image x="411.424" y="216.833" width="70" height="65" xlink:href="DS_CO_valve.svg">
    <title>&quot;20KLC22AA001&quot;</title>
    <rt:dyn type="KKS" mode="constant" value="&quot;20KLC22AA001&quot;"/> 
    <rt:dyn type="Operate" mode="constant" value="true"/> 
    <rt:dyn type="DATA_NARY" mode="constant" value="&quot;TPTS&quot;"/> 
  </image>
  <image x="306.483" y="610.25" width="175" height="25" xlink:href="DS_ana.svg">
    <title>&quot;20KLC22CF001&quot;</title>
    <rt:dyn type="FKKS" mode="constant" value="&quot;20KLC22CF001&quot;"/> 
    <rt:dyn type="X" mode="constant" value="&quot;F&quot;"/> 
    <rt:dyn type="Color_Readings" mode="constant" value="true"/> 
    <rt:dyn type="ShowFrame" mode="constant" value="true"/> 
    <rt:dyn type="ValueToTheRight" mode="constant" value="false"/> 
  </image>
  <image x="1299.42" y="216.833" width="70" height="65" xlink:href="DS_CO_valve.svg">
    <title>&quot;20KLC22AA003&quot;</title>
    <rt:dyn type="KKS" mode="constant" value="&quot;20KLC22AA003&quot;"/> 
    <rt:dyn type="Operate" mode="constant" value="true"/> 
    <rt:dyn type="DATA_NARY" mode="constant" value="&quot;TPTS&quot;"/> 
  </image>
  <text x="377.515" y="304.545" font-size="15">20KLC22AA001</text>
  <text x="528.424" y="309.333" font-size="15">20KLC22AH001</text>
  <text x="1287.42" y="305.333" font-size="15">20KLC22AA003</text>
  <line x1="673.424" y1="259.333" x2="673.424" y2="192.666" stroke="black" stroke-dasharray="5,5" stroke-width="1"/> 
  <line x1="833" y1="258.75" x2="833" y2="153.75" stroke="black" stroke-dasharray="5,5" stroke-width="1"/> 
  <line x1="909.924" y1="261.333" x2="910.424" y2="195.697" stroke="black" stroke-dasharray="5,5" stroke-width="1"/> 
  <line x1="1000.92" y1="261.333" x2="1001.42" y2="192.666" stroke="black" stroke-dasharray="5,5" stroke-width="1"/> 
  <line x1="1093.09" y1="260.333" x2="1092.62" y2="127.515" stroke="black" stroke-dasharray="5,5" stroke-width="1"/> 
  <line x1="366" y1="475" x2="366" y2="258" stroke="black" stroke-width="3"/> 
  <line x1="1434" y1="475" x2="1435" y2="258" stroke="black" stroke-width="3"/> 
  <line x1="57" y1="400" x2="368" y2="400" stroke="black" stroke-width="3"/> 
  <line x1="1472" y1="379" x2="1712.5" y2="379" stroke="black" stroke-width="3"/> 
  <line x1="1738.53" y1="362.5" x2="1908" y2="361.5" stroke="black" stroke-width="3"/> 
  <image x="1695.2" y="343.5" width="70" height="70" xlink:href="DS_motor.svg">
    <title>&quot;20KLC22AN002&quot;</title>
    <rt:dyn type="KKS" mode="constant" value="&quot;20KLC22AN002&quot;"/> 
    <rt:dyn type="DATA_NARY" mode="constant" value="&quot;TPTS&quot;"/> 
    <rt:dyn type="Operate" mode="constant" value="true"/> 
    <rt:dyn type="DeviceType" mode="constant" value="&quot;fan&quot;"/> 
  </image>
  <image x="1802.28" y="319" width="70" height="65" xlink:href="DS_CO_valve.svg">
    <title>&quot;20KLC22AA008&quot;</title>
    <rt:dyn type="KKS" mode="constant" value="&quot;20KLC22AA008&quot;"/> 
    <rt:dyn type="DATA_NARY" mode="constant" value="&quot;TPTS&quot;"/> 
    <rt:dyn type="Operate" mode="constant" value="true"/> 
  </image>
  <line x1="1474" y1="232" x2="1713.5" y2="232" stroke="black" stroke-width="3"/> 
  <line x1="1737.53" y1="214.5" x2="1908" y2="213.5" stroke="black" stroke-width="3"/> 
  <line x1="1474" y1="380" x2="1474" y2="231" stroke="black" stroke-width="3"/> 
  <line x1="1907" y1="875" x2="1907" y2="212.121" stroke="black" stroke-width="3"/> 
  <image x="1495.07" y="337" width="70" height="65" xlink:href="DS_CO_valve.svg">
    <title>&quot;20KLC22AA006&quot;</title>
    <rt:dyn type="KKS" mode="constant" value="&quot;20KLC22AA006&quot;"/> 
    <rt:dyn type="Operate" mode="constant" value="true"/> 
    <rt:dyn type="DATA_NARY" mode="constant" value="&quot;TPTS&quot;"/> 
  </image>
  <line x1="1433" y1="330" x2="1476" y2="330" stroke="black" stroke-width="3"/> 
  <line x1="1883.52" y1="599" x2="1908" y2="599" stroke="black" stroke-width="3"/> 
  <line x1="1528" y1="775" x2="1908" y2="775" stroke="black" stroke-width="3"/> 
  <text x="4.0303" y="365.151" font-size="15">20UKA04<tspan x="4.0303" dy="15">R023</tspan>
  </text>
  <text x="43.394" y="613.939" font-size="15">20UKA14R001</text>
  <text x="79.0607" y="941.667" font-size="15">20KLC42AN001<tspan x="79.0607" dy="15">20KLC42AN002</tspan>
  </text>
  <text x="1795.67" y="850" font-size="15">В вент трубу</text>
  <text x="1075" y="31.0606" font-size="30" font-weight="700" text-anchor="middle">Вытяжная система в здании UKA (20KLC22, 20KLC24, 20KLC28)</text>
  <text x="1492.95" y="419.909" font-size="15">20KLC22<tspan x="1492.95" dy="15">AA006</tspan>
  </text>
  <text x="1595.38" y="418.394" font-size="15">20KLC22<tspan x="1595.38" dy="15">AA202</tspan>
  </text>
  <text x="1693.08" y="325.212" font-size="15">20KLC22<tspan x="1693.08" dy="15">AN002</tspan>
  </text>
  <text x="1800.15" y="400.212" font-size="15">20KLC22<tspan x="1800.15" dy="15">AA008</tspan>
  </text>
  <image x="1695.2" y="195.652" width="70" height="70" xlink:href="DS_motor.svg">
    <title>&quot;20KLC22AN001&quot;</title>
    <rt:dyn type="KKS" mode="constant" value="&quot;20KLC22AN001&quot;"/> 
    <rt:dyn type="DATA_NARY" mode="constant" value="&quot;TPTS&quot;"/> 
    <rt:dyn type="Operate" mode="constant" value="true"/> 
    <rt:dyn type="DeviceType" mode="constant" value="&quot;fan&quot;"/> 
  </image>
  <image x="1802.28" y="171.152" width="70" height="65" xlink:href="DS_CO_valve.svg">
    <title>&quot;20KLC22AA007&quot;</title>
    <rt:dyn type="KKS" mode="constant" value="&quot;20KLC22AA007&quot;"/> 
    <rt:dyn type="DATA_NARY" mode="constant" value="&quot;TPTS&quot;"/> 
    <rt:dyn type="Operate" mode="constant" value="true"/> 
  </image>
  <image x="1495.07" y="189.152" width="70" height="65" xlink:href="DS_CO_valve.svg">
    <title>&quot;20KLC22AA005&quot;</title>
    <rt:dyn type="KKS" mode="constant" value="&quot;20KLC22AA005&quot;"/> 
    <rt:dyn type="Operate" mode="constant" value="true"/> 
    <rt:dyn type="DATA_NARY" mode="constant" value="&quot;TPTS&quot;"/> 
  </image>
  <text x="1492.95" y="272.061" font-size="15">20KLC22<tspan x="1492.95" dy="15">AA005</tspan>
  </text>
  <text x="1595.38" y="269.394" font-size="15">20KLC22<tspan x="1595.38" dy="15">AA201</tspan>
  </text>
  <text x="1693.08" y="176.97" font-size="15">20KLC22<tspan x="1693.08" dy="15">AN001</tspan>
  </text>
  <text x="1800.15" y="249.697" font-size="15">20KLC22<tspan x="1800.15" dy="15">AA007</tspan>
  </text>
  <text x="1680.6" y="619.697" font-size="15">20KLC24<tspan x="1680.6" dy="15">AN002</tspan>
  </text>
  <image x="1683.48" y="517.5" width="70" height="70" xlink:href="DS_motor.svg">
    <title>&quot;20KLC24AN001&quot;</title>
    <rt:dyn type="KKS" mode="constant" value="&quot;20KLC24AN001&quot;"/> 
    <rt:dyn type="DATA_NARY" mode="constant" value="&quot;TPTS&quot;"/> 
    <rt:dyn type="Operate" mode="constant" value="true"/> 
    <rt:dyn type="DeviceType" mode="constant" value="&quot;fan&quot;"/> 
  </image>
  <image x="1790.88" y="618" width="70" height="65" xlink:href="DS_CO_valve.svg">
    <title>&quot;20KLC24AA003&quot;</title>
    <rt:dyn type="KKS" mode="constant" value="&quot;20KLC24AA003&quot;"/> 
    <rt:dyn type="DATA_NARY" mode="constant" value="&quot;TPTS&quot;"/> 
    <rt:dyn type="Operate" mode="constant" value="true"/> 
  </image>
  <image x="1564.87" y="634" width="70" height="65" xlink:href="DS_CO_valve.svg">
    <title>&quot;20KLC24AA001&quot;</title>
    <rt:dyn type="KKS" mode="constant" value="&quot;20KLC24AA001&quot;"/> 
    <rt:dyn type="Operate" mode="constant" value="true"/> 
    <rt:dyn type="DATA_NARY" mode="constant" value="&quot;TPTS&quot;"/> 
  </image>
  <text x="1562" y="714.5" font-size="15">20KLC24<tspan x="1562" dy="15">AA001</tspan>
  </text>
  <text x="1680.6" y="496.97" font-size="15">20KLC24<tspan x="1680.6" dy="15">AN001</tspan>
  </text>
  <text x="1788" y="696.212" font-size="15">20KLC24<tspan x="1788" dy="15">AA003</tspan>
  </text>
  <text x="1439.85" y="743.939" font-size="15">20KLC28<tspan x="1439.85" dy="15">AA001</tspan>
  </text>
  <text x="1231.76" y="778" font-size="15">20KLC28AN001</text>
  <image x="1262.67" y="815" width="70" height="70" xlink:href="DS_motor.svg">
    <title>&quot;20KLC28AN002&quot;</title>
    <rt:dyn type="KKS" mode="constant" value="&quot;20KLC28AN002&quot;"/> 
    <rt:dyn type="DATA_NARY" mode="constant" value="&quot;TPTS&quot;"/> 
    <rt:dyn type="Operate" mode="constant" value="true"/> 
    <rt:dyn type="DeviceType" mode="constant" value="&quot;fan&quot;"/> 
  </image>
  <image x="1438" y="790.5" width="70" height="65" xlink:href="DS_CO_valve.svg">
    <title>&quot;20KLC28AA002&quot;</title>
    <rt:dyn type="KKS" mode="constant" value="&quot;20KLC28AA002&quot;"/> 
    <rt:dyn type="DATA_NARY" mode="constant" value="&quot;TPTS&quot;"/> 
    <rt:dyn type="Operate" mode="constant" value="true"/> 
  </image>
  <text x="1439.85" y="868.182" font-size="15">20KLC28<tspan x="1439.85" dy="15">AA002</tspan>
  </text>
  <text x="1231" y="902" font-size="15">20KLC28AN002</text>
  <text x="91" y="439.318" font-size="15">22KLC22<tspan x="91" dy="15">AA001</tspan>
  </text>
  <text x="164.03" y="438.879" font-size="15">21KLC22<tspan x="164.03" dy="15">AA001</tspan>
  </text>
  <image x="306.483" y="579" width="175" height="25" xlink:href="DS_ana.svg">
    <title>&quot;20KLC22CT003&quot;</title>
    <rt:dyn type="FKKS" mode="constant" value="&quot;20KLC22CT003&quot;"/> 
    <rt:dyn type="ShowFrame" mode="constant" value="true"/> 
    <rt:dyn type="Color_Readings" mode="constant" value="true"/> 
    <rt:dyn type="X" mode="constant" value="&quot;T&quot;"/> 
    <rt:dyn type="ValueToTheRight" mode="constant" value="false"/> 
  </image>
  <image x="306.483" y="548" width="175" height="25" xlink:href="DS_ana.svg">
    <title>&quot;20KLC22CM001&quot;</title>
    <rt:dyn type="FKKS" mode="constant" value="&quot;20KLC22CM001&quot;"/> 
    <rt:dyn type="ShowFrame" mode="constant" value="true"/> 
    <rt:dyn type="Color_Readings" mode="constant" value="true"/> 
    <rt:dyn type="X" mode="constant" value="&quot;M&quot;"/> 
    <rt:dyn type="ValueToTheRight" mode="constant" value="false"/> 
  </image>
  <image x="1597.5" y="187.5" width="70" height="65" xlink:href="DS_Reg_valve.svg" transform="flipX()">
    <title>&quot;20KLC22AA201&quot;</title>
    <rt:dyn type="KKS" mode="constant" value="&quot;20KLC22AA201&quot;"/> 
    <rt:dyn type="DATA_NARY" mode="constant" value="&quot;TPTS&quot;"/> 
    <rt:dyn type="Operate" mode="constant" value="true"/> 
    <rt:dyn type="NoSP" mode="constant" value="true"/> 
  </image>
  <image x="1597.5" y="336.5" width="70" height="65" xlink:href="DS_Reg_valve.svg" transform="flipX()">
    <title>&quot;20KLC22AA202&quot;</title>
    <rt:dyn type="KKS" mode="constant" value="&quot;20KLC22AA202&quot;"/> 
    <rt:dyn type="DATA_NARY" mode="constant" value="&quot;TPTS&quot;"/> 
    <rt:dyn type="Operate" mode="constant" value="true"/> 
    <rt:dyn type="NoSP" mode="constant" value="true"/> 
  </image>
  <image x="1600" y="161.818" width="65" height="25" xlink:href="DS_Reg_degree.svg">
    <title>&quot;20KLC22AA201&quot;</title>
    <rt:dyn type="KKS" mode="constant" value="&quot;20KLC22AA201&quot;"/> 
  </image>
  <line x1="1151.32" y1="257.426" x2="1151.82" y2="191.79" stroke="black" stroke-dasharray="5,5" stroke-width="1"/> 
  <line x1="1240.5" y1="258.002" x2="1241" y2="192.366" stroke="black" stroke-dasharray="5,5" stroke-width="1"/> 
  <image x="896.48" y="176.94" width="175" height="25" xlink:href="DS_ana.svg">
    <title>&quot;20KLC22CP005&quot;</title>
    <rt:dyn type="FKKS" mode="constant" value="&quot;20KLC22CP005&quot;"/> 
    <rt:dyn type="X" mode="constant" value="&quot;dP&quot;"/> 
    <rt:dyn type="ShowFrame" mode="constant" value="true"/> 
    <rt:dyn type="Color_Readings" mode="constant" value="true"/> 
    <rt:dyn type="ValueToTheRight" mode="constant" value="false"/> 
  </image>
  <image x="1600" y="308.545" width="65" height="25" xlink:href="DS_Reg_degree.svg">
    <title>&quot;20KLC22AA202&quot;</title>
    <rt:dyn type="KKS" mode="constant" value="&quot;20KLC22AA202&quot;"/> 
  </image>
  <g transform="scale(1.41 1.41 27.4545 237.121) scale(0.64313 0.64313 1873.19 332.499)">
    <circle cx="441.889" cy="47.0646" r="23" fill="gray" stroke="black"/> 
    <path d="M441.889 49.0646 L431.887 68.8146 L451.889 68.8146 " fill="Col_BGSand"/> 
    <path d="M323.251 382.899 L313.501 405.149 L333.501 405.149 " fill="Col_BGSand" transform="rotate(49.456 0 1.4013e-045) flipY(38.875)"/> 
    <path d="M-129.696 -146.202 L-139.446 -123.951 L-119.446 -123.951 " fill="Col_BGSand" transform="flipX(93.5629) rotate(49.456 0 1.4013e-045) flipY(38.875)"/> 
    <circle cx="442.459" cy="46.9586" r="8" fill="Col_BGSand"/> 
    <circle cx="442.129" cy="46.7476" r="4" fill="gray"/> 
  </g>
  <line x1="1454" y1="326.759" x2="1454" y2="107.576" stroke="black" stroke-dasharray="5,5" stroke-width="1"/> 
  <line x1="763" y1="473.75" x2="763" y2="371.25" stroke="black" stroke-dasharray="5,5" stroke-width="1"/> 
  <line x1="833" y1="476.25" x2="833" y2="368.75" stroke="black" stroke-dasharray="5,5" stroke-width="1"/> 
  <line x1="910.5" y1="474.002" x2="911" y2="408.366" stroke="black" stroke-dasharray="5,5" stroke-width="1"/> 
  <line x1="998.5" y1="475.002" x2="999" y2="409.366" stroke="black" stroke-dasharray="5,5" stroke-width="1"/> 
  <line x1="1093.09" y1="473.668" x2="1092.62" y2="340.85" stroke="black" stroke-dasharray="5,5" stroke-width="1"/> 
  <line x1="1147.29" y1="472.578" x2="1147.79" y2="406.942" stroke="black" stroke-dasharray="5,5" stroke-width="1"/> 
  <line x1="1247.29" y1="474.093" x2="1247.79" y2="408.457" stroke="black" stroke-dasharray="5,5" stroke-width="1"/> 
  <image x="1036.42" y="325" width="175" height="25" xlink:href="DS_ana.svg">
    <title>&quot;20KLC22CT002&quot;</title>
    <rt:dyn type="FKKS" mode="constant" value="&quot;20KLC22CT002&quot;"/> 
    <rt:dyn type="X" mode="constant" value="&quot;T&quot;"/> 
    <rt:dyn type="ShowFrame" mode="constant" value="true"/> 
    <rt:dyn type="Color_Readings" mode="constant" value="true"/> 
    <rt:dyn type="ValueToTheRight" mode="constant" value="false"/> 
  </image>
  <polygon points="2140.43,-320.364 2127.93,-294.864 2153.92,-295.364" transform="flipY(392.405) rotate(90 1392.93 388.195) scale(0.62 0.62 1341 369.75) rotate(270 1341 369.75)"/> 
  <polygon points="299.859,12.2419 287.359,37.7419 313.36,37.2419" transform="rotate(270 822.636 568.511) flipY(392.405) rotate(90 1392.93 388.195) scale(0.62 0.62 1341 369.75) rotate(270 1341 369.75)"/> 
  <polygon points="50.9339,12.2419 38.4339,37.7419 64.4349,37.2419" transform="rotate(270 822.636 568.511) flipY(392.405) rotate(90 1392.93 388.195) scale(0.62 0.62 1341 369.75) rotate(270 1341 369.75)"/> 
  <polygon points="-461.814,-289.867 -474.314,-264.367 -448.314,-264.867" transform="flipY(777.602) flipY(392.405) rotate(90 1392.93 388.195) scale(0.62 0.62 1341 369.75) rotate(270 1341 369.75)"/> 
  <rect x="539.697" y="224.697" width="70" height="70" rx="0" ry="0" fill="Col_Grey4"/> 
  <image x="549.697" y="232.197" width="50" height="55" xlink:href="DS_switch.svg">
    <title>&quot;20KLC22AH001&quot;</title>
    <rt:dyn type="KKS" mode="constant" value="&quot;20KLC22AH001&quot;"/> 
    <rt:dyn type="DATA_NARY" mode="constant" value="&quot;TPTS&quot;"/> 
    <rt:dyn type="Operate" mode="constant" value="true"/> 
  </image>
  <rect x="539.697" y="433.788" width="70" height="70" rx="0" ry="0" fill="Col_Grey4"/> 
  <image x="549.697" y="441.288" width="50" height="55" xlink:href="DS_switch.svg">
    <title>&quot;20KLC22AH002&quot;</title>
    <rt:dyn type="KKS" mode="constant" value="&quot;20KLC22AH002&quot;"/> 
    <rt:dyn type="DATA_NARY" mode="constant" value="&quot;TPTS&quot;"/> 
    <rt:dyn type="Operate" mode="constant" value="true"/> 
  </image>
  <g transform="scale(0.73 0.73 439.5 285.5)">
    <rect x="752.772" y="449.134" width="65" height="65" rx="0" ry="0" fill="Col_Grey4" transform="rotate(360 532.506 746.174) rotate(0 532.1 745.087) rotate(314.645 525.5 325)"/> 
    <line x1="819.494" y1="207.762" x2="819.494" y2="294.126" stroke="black" stroke-dasharray="5,5"/> 
  </g>
  <image x="1566.87" y="510" width="70" height="65" xlink:href="DS_CO_valve.svg">
    <title>&quot;20KLC24AA002&quot;</title>
    <rt:dyn type="KKS" mode="constant" value="&quot;20KLC24AA002&quot;"/> 
    <rt:dyn type="Operate" mode="constant" value="true"/> 
    <rt:dyn type="DATA_NARY" mode="constant" value="&quot;TPTS&quot;"/> 
  </image>
  <image x="1790.88" y="491" width="70" height="65" xlink:href="DS_CO_valve.svg">
    <title>&quot;20KLC24AA004&quot;</title>
    <rt:dyn type="KKS" mode="constant" value="&quot;20KLC24AA004&quot;"/> 
    <rt:dyn type="DATA_NARY" mode="constant" value="&quot;TPTS&quot;"/> 
    <rt:dyn type="Operate" mode="constant" value="true"/> 
  </image>
  <g transform="scale(0.73 0.73 439.5 285.5)">
    <rect x="830.627" y="527.96" width="65" height="65" rx="0" ry="0" fill="Col_Grey4" transform="rotate(360 532.506 746.174) rotate(0 532.1 745.087) rotate(314.645 525.5 325)"/> 
    <line x1="930.287" y1="207.762" x2="930.287" y2="294.126" stroke="black" stroke-dasharray="5,5"/> 
  </g>
  <g transform="scale(0.73 0.73 439.5 285.5)">
    <rect x="982.575" y="681.745" width="65" height="65" rx="0" ry="0" fill="Col_Grey4" transform="rotate(360 532.506 746.174) rotate(0 532.1 745.087) rotate(314.645 525.5 325)"/> 
    <line x1="1146.48" y1="207.721" x2="1146.48" y2="294.085" stroke="black" stroke-dasharray="5,5"/> 
  </g>
  <g transform="scale(0.73 0.73 439.5 285.5)">
    <rect x="1214.63" y="916.748" width="65" height="65" rx="0" ry="0" fill="Col_Grey4" transform="rotate(360 532.506 746.174) rotate(0 532.1 745.087) rotate(314.645 525.5 325)"/> 
    <line x1="1476.74" y1="207.762" x2="1476.74" y2="294.126" stroke="black" stroke-dasharray="5,5"/> 
  </g>
  <g transform="scale(0.73 0.73 439.5 285.5)">
    <rect x="543.225" y="656.39" width="65" height="65" rx="0" ry="0" fill="Col_Grey4" transform="rotate(360 532.506 746.174) rotate(0 532.1 745.087) rotate(314.645 525.5 325)"/> 
    <line x1="819.701" y1="502.492" x2="819.701" y2="588.856" stroke="black" stroke-dasharray="5,5"/> 
  </g>
  <g transform="scale(0.73 0.73 439.5 285.5)">
    <rect x="621.083" y="735.218" width="65" height="65" rx="0" ry="0" fill="Col_Grey4" transform="rotate(360 532.506 746.174) rotate(0 532.1 745.087) rotate(314.645 525.5 325)"/> 
    <line x1="930.494" y1="502.492" x2="930.494" y2="588.856" stroke="black" stroke-dasharray="5,5"/> 
  </g>
  <g transform="scale(0.73 0.73 439.5 285.5)">
    <rect x="773.032" y="889.008" width="65" height="65" rx="0" ry="0" fill="Col_Grey4" transform="rotate(360 532.506 746.174) rotate(0 532.1 745.087) rotate(314.645 525.5 325)"/> 
    <line x1="1146.68" y1="502.451" x2="1146.68" y2="588.815" stroke="black" stroke-dasharray="5,5"/> 
  </g>
  <g transform="scale(0.73 0.73 439.5 285.5)">
    <rect x="1005.08" y="1124.01" width="65" height="65" rx="0" ry="0" fill="Col_Grey4" transform="rotate(360 532.506 746.174) rotate(0 532.1 745.087) rotate(314.645 525.5 325)"/> 
    <line x1="1476.95" y1="502.492" x2="1476.95" y2="588.856" stroke="black" stroke-dasharray="5,5"/> 
  </g>
  <image x="91.455" y="358.5" width="70" height="65" xlink:href="DS_CO_valve.svg">
    <title>&quot;22KLC22AA001&quot;</title>
    <rt:dyn type="KKS" mode="constant" value="&quot;22KLC22AA001&quot;"/> 
    <rt:dyn type="Operate" mode="constant" value="true"/> 
    <rt:dyn type="DATA_NARY" mode="constant" value="&quot;TPTS&quot;"/> 
  </image>
  <image x="161.636" y="358.545" width="70" height="65" xlink:href="DS_CO_valve.svg">
    <title>&quot;21KLC22AA001&quot;</title>
    <rt:dyn type="KKS" mode="constant" value="&quot;21KLC22AA001&quot;"/> 
    <rt:dyn type="Operate" mode="constant" value="true"/> 
    <rt:dyn type="DATA_NARY" mode="constant" value="&quot;TPTS&quot;"/> 
  </image>
  <text x="183" y="740.5" font-size="15">20KLC22<tspan x="183" dy="15">AA402</tspan>
  </text>
  <g>
    <polygon points="912.364,830.061 1037.36,830.061 1037.36,930.061 912.364,930.061" fill="none" stroke="black" stroke-width="2"/> 
    <text x="927.364" y="850.061" font-size="16">UKA18R005<tspan x="927.364" dy="16">UKA18R002</tspan>
<tspan x="927.364" dy="16">UKA18R006</tspan>
    </text>
    <text x="913.364" y="903.061" font-size="15">Пом кабельного<tspan x="913.364" dy="15">канала НЭ</tspan>
    </text>
  </g>
  <g>
    <polygon points="767,829.545 892,829.545 892,929.545 767,929.545" fill="none" stroke="black" stroke-width="2"/> 
    <text x="780" y="849.545" font-size="16">UKA22R004</text>
    <text x="770.333" y="882.545" font-size="15">Пом щита<tspan x="770.333" dy="15">перегрузочной</tspan>
<tspan x="770.333" dy="15">машины</tspan>
    </text>
  </g>
  <g>
    <polygon points="343,830.03 468,830.03 468,930.03 343,930.03" fill="none" stroke="black" stroke-width="2"/> 
    <text x="358" y="848.03" font-size="16">UKA04R008<tspan x="358" dy="16">UKA10R004</tspan>
<tspan x="358" dy="16">UKA10R009</tspan>
<tspan x="358" dy="16">UKA10R013</tspan>
    </text>
    <text x="374" y="917.03" font-size="15">Пом СГО</text>
  </g>
  <line x1="405.485" y1="978.06" x2="405.485" y2="928.06" stroke="black" stroke-width="3"/> 
  <line x1="975.939" y1="831.333" x2="975.939" y2="781.333" stroke="black" stroke-width="3"/> 
  <line x1="978.197" y1="979.303" x2="978.197" y2="929.303" stroke="black" stroke-width="3"/> 
  <line x1="1117.3" y1="978.273" x2="1117.3" y2="928.273" stroke="black" stroke-width="3"/> 
  <line x1="1117.3" y1="829.273" x2="1117.3" y2="779.273" stroke="black" stroke-width="3"/> 
  <g>
    <polygon points="1054.8,830.03 1179.8,830.03 1179.8,930.03 1054.8,930.03" fill="none" stroke="black" stroke-width="2"/> 
    <text x="1067.3" y="850.03" font-size="16">UKA40R001<tspan x="1067.3" dy="16">UKA40R002</tspan>
<tspan x="1067.3" dy="16"/> 
<tspan x="1067.3" dy="16">UKA31R023</tspan>
    </text>
  </g>
  <polygon points="484,830.03 609,830.03 609,930.03 484,930.03" fill="none" stroke="black" stroke-width="2"/> 
  <text x="517" y="854.03" font-size="16">UKA22</text>
  <text x="517" y="870.182" font-size="16">UKA26</text>
  <text x="517" y="887.333" font-size="16">UKA31</text>
  <text x="517" y="904.485" font-size="16">UKA36</text>
  <polygon points="625,829.545 750,829.545 750,929.545 625,929.545" fill="none" stroke="black" stroke-width="2"/> 
  <text x="640" y="842.545" font-size="16">UKA14R002<tspan x="640" dy="16">UKA14R004</tspan>
<tspan x="640" dy="16">UKA04R020</tspan>
  </text>
  <text x="641" y="886.545" font-size="14">Пом насосов<tspan x="641" dy="14">и теплообм</tspan>
<tspan x="641" dy="14">промконтура</tspan>
<tspan x="641" dy="14">2 канала</tspan>
  </text>
  <image x="1365" y="750" width="60" height="45" xlink:href="DS_TPTS_AVR_sel.svg">
    <title>&quot;20KLC28EE003&quot;</title>
    <rt:dyn type="KKS" mode="constant" value="&quot;20KLC28EE003&quot;"/> 
    <rt:dyn type="Operate" mode="constant" value="true"/> 
    <rt:dyn type="VL_type" mode="constant" value="&quot;1o2&quot;"/> 
  </image>
  <image x="1470" y="510" width="60" height="45" xlink:href="DS_TPTS_AVR_sel.svg">
    <title>&quot;20KLC24EE003&quot;</title>
    <rt:dyn type="KKS" mode="constant" value="&quot;20KLC24EE003&quot;"/> 
    <rt:dyn type="Operate" mode="constant" value="true"/> 
    <rt:dyn type="VL_type" mode="constant" value="&quot;1o2&quot;"/> 
  </image>
  <image x="1808" y="268.5" width="60" height="45" xlink:href="DS_TPTS_AVR_sel.svg">
    <title>&quot;20KLC22EE003&quot;</title>
    <rt:dyn type="KKS" mode="constant" value="&quot;20KLC22EE003&quot;"/> 
    <rt:dyn type="Operate" mode="constant" value="true"/> 
    <rt:dyn type="VL_type" mode="constant" value="&quot;1o2&quot;"/> 
  </image>
  <text x="238" y="344" font-size="15">20KLC22<tspan x="238" dy="15">AA401</tspan>
  </text>
  <line x1="750" y1="537.5" x2="750" y2="415" stroke="black" stroke-dasharray="5,5" stroke-width="1"/> 
  <image x="734" y="524" width="175" height="25" xlink:href="DS_ana.svg">
    <title>&quot;20KLC22CM003&quot;</title>
    <rt:dyn type="FKKS" mode="constant" value="&quot;20KLC22CM003&quot;"/> 
    <rt:dyn type="X" mode="constant" value="&quot;M&quot;"/> 
    <rt:dyn type="ShowFrame" mode="constant" value="true"/> 
    <rt:dyn type="Color_Readings" mode="constant" value="true"/> 
    <rt:dyn type="ValueToTheRight" mode="constant" value="false"/> 
  </image>
  <image x="734" y="312" width="175" height="25" xlink:href="DS_ana.svg">
    <title>&quot;20KLC22CM002&quot;</title>
    <rt:dyn type="FKKS" mode="constant" value="&quot;20KLC22CM002&quot;"/> 
    <rt:dyn type="X" mode="constant" value="&quot;M&quot;"/> 
    <rt:dyn type="ShowFrame" mode="constant" value="true"/> 
    <rt:dyn type="Color_Readings" mode="constant" value="true"/> 
    <rt:dyn type="ValueToTheRight" mode="constant" value="false"/> 
  </image>
  <line x1="673.424" y1="476.25" x2="673.424" y2="409.583" stroke="black" stroke-dasharray="5,5" stroke-width="1"/> 
  <line x1="750" y1="313.75" x2="750" y2="191.25" stroke="black" stroke-dasharray="5,5" stroke-width="1"/> 
  <line x1="765" y1="260" x2="765" y2="157.5" stroke="black" stroke-dasharray="5,5" stroke-width="1"/> 
  <image x="756.424" y="138.94" width="175" height="25" xlink:href="DS_ana.svg">
    <title>&quot;20KLC22CP003&quot;</title>
    <rt:dyn type="FKKS" mode="constant" value="&quot;20KLC22CP003&quot;"/> 
    <rt:dyn type="X" mode="constant" value="&quot;dP&quot;"/> 
    <rt:dyn type="ShowFrame" mode="constant" value="true"/> 
    <rt:dyn type="Color_Readings" mode="constant" value="true"/> 
    <rt:dyn type="ValueToTheRight" mode="constant" value="false"/> 
  </image>
  <image x="1036.42" y="109.333" width="175" height="25" xlink:href="DS_ana.svg">
    <title>&quot;20KLC22CT001&quot;</title>
    <rt:dyn type="FKKS" mode="constant" value="&quot;20KLC22CT001&quot;"/> 
    <rt:dyn type="X" mode="constant" value="&quot;T&quot;"/> 
    <rt:dyn type="ShowFrame" mode="constant" value="true"/> 
    <rt:dyn type="Color_Readings" mode="constant" value="true"/> 
    <rt:dyn type="ValueToTheRight" mode="constant" value="false"/> 
  </image>
  <image x="1116.75" y="184.75" width="175" height="25" xlink:href="DS_ana.svg">
    <title>&quot;20KLC22CP007&quot;</title>
    <rt:dyn type="FKKS" mode="constant" value="&quot;20KLC22CP007&quot;"/> 
    <rt:dyn type="X" mode="constant" value="&quot;dP&quot;"/> 
    <rt:dyn type="ShowFrame" mode="constant" value="true"/> 
    <rt:dyn type="Color_Readings" mode="constant" value="true"/> 
    <rt:dyn type="ValueToTheRight" mode="constant" value="false"/> 
  </image>
  <image x="580" y="395.061" width="175" height="25" xlink:href="DS_ana.svg">
    <title>&quot;20KLC22CP002&quot;</title>
    <rt:dyn type="FKKS" mode="constant" value="&quot;20KLC22CP002&quot;"/> 
    <rt:dyn type="X" mode="constant" value="&quot;dP&quot;"/> 
    <rt:dyn type="ShowFrame" mode="constant" value="true"/> 
    <rt:dyn type="Color_Readings" mode="constant" value="true"/> 
    <rt:dyn type="ValueToTheRight" mode="constant" value="false"/> 
  </image>
  <image x="756.424" y="357.061" width="175" height="25" xlink:href="DS_ana.svg">
    <title>&quot;20KLC22CP004&quot;</title>
    <rt:dyn type="FKKS" mode="constant" value="&quot;20KLC22CP004&quot;"/> 
    <rt:dyn type="X" mode="constant" value="&quot;dP&quot;"/> 
    <rt:dyn type="ShowFrame" mode="constant" value="true"/> 
    <rt:dyn type="Color_Readings" mode="constant" value="true"/> 
    <rt:dyn type="ValueToTheRight" mode="constant" value="false"/> 
  </image>
  <image x="896.48" y="395.061" width="175" height="25" xlink:href="DS_ana.svg">
    <title>&quot;20KLC22CP006&quot;</title>
    <rt:dyn type="FKKS" mode="constant" value="&quot;20KLC22CP006&quot;"/> 
    <rt:dyn type="X" mode="constant" value="&quot;dP&quot;"/> 
    <rt:dyn type="ShowFrame" mode="constant" value="true"/> 
    <rt:dyn type="Color_Readings" mode="constant" value="true"/> 
    <rt:dyn type="ValueToTheRight" mode="constant" value="false"/> 
  </image>
  <image x="1116.75" y="402.871" width="175" height="25" xlink:href="DS_ana.svg">
    <title>&quot;20KLC22CP008&quot;</title>
    <rt:dyn type="FKKS" mode="constant" value="&quot;20KLC22CP008&quot;"/> 
    <rt:dyn type="X" mode="constant" value="&quot;dP&quot;"/> 
    <rt:dyn type="ShowFrame" mode="constant" value="true"/> 
    <rt:dyn type="Color_Readings" mode="constant" value="true"/> 
    <rt:dyn type="ValueToTheRight" mode="constant" value="false"/> 
  </image>
  <image x="580" y="176.94" width="175" height="25" xlink:href="DS_ana.svg">
    <title>&quot;20KLC22CP001&quot;</title>
    <rt:dyn type="FKKS" mode="constant" value="&quot;20KLC22CP001&quot;"/> 
    <rt:dyn type="X" mode="constant" value="&quot;dP&quot;"/> 
    <rt:dyn type="Color_Readings" mode="constant" value="true"/> 
    <rt:dyn type="ValueToTheRight" mode="constant" value="false"/> 
    <rt:dyn type="ShowFrame" mode="constant" value="true"/> 
  </image>
  <image x="1" y="385" width="100" height="25" xlink:href="obj_link.svg">
    <rt:dyn type="TextStr" mode="constant" value="&quot;KLC25-41&quot;"/> 
    <rt:dyn type="ModName" mode="constant" value="&quot;skuv_klc25_41&quot;"/> 
  </image>
  <text x="108" y="25" fill="black" font-size="15" font-weight="700" text-anchor="middle">
    <title>Схема КИП насосов охлаждения бассейна выдержки</title>
SKUV_KLC22_24_28</text>
  <image x="1140.08" y="758.667" width="70" height="45" xlink:href="DS_pivot_valve.svg" transform="rotate(270 0 0)">
    <title>20KLC28AA409</title>
    <rt:dyn type="DATA_NARY" mode="constant" value="&quot;BIN&quot;"/> 
    <rt:dyn type="SIG_Open" mode="constant" value="&quot;20KLC28AA409_XB01&quot;"/> 
    <rt:dyn type="SIG_Close" mode="constant" value="&quot;20KLC28AA409_XB02&quot;"/> 
  </image>
  <text x="1150.08" y="723.167" font-size="15">20KLC28<tspan x="1150.08" dy="15">AA409</tspan>
  </text>
  <image x="260" y="727.5" width="70" height="45" xlink:href="DS_pivot_valve.svg" transform="rotate(180 0 0)">
    <title>20KLC22AA402</title>
    <rt:dyn type="DATA_NARY" mode="constant" value="&quot;BIN&quot;"/> 
    <rt:dyn type="SIG_Open" mode="constant" value="&quot;20KLC22AA402_XB01&quot;"/> 
    <rt:dyn type="SIG_Close" mode="constant" value="&quot;20KLC22AA402_XB02&quot;"/> 
  </image>
  <image x="223" y="378" width="70" height="45" xlink:href="DS_pivot_valve.svg" transform="rotate(270 0 0)">
    <title>20KLC22AA401</title>
    <rt:dyn type="DATA_NARY" mode="constant" value="&quot;BIN&quot;"/> 
    <rt:dyn type="SIG_Open" mode="constant" value="&quot;20KLC22AA401_XB01&quot;"/> 
    <rt:dyn type="SIG_Close" mode="constant" value="&quot;20KLC22AA401_XB02&quot;"/> 
  </image>
  <text x="1000" y="294.5" font-size="15" font-weight="700">20KLC22AT101</text>
  <rect x="659" y="217" width="601" height="83" rx="0" ry="0" fill="none" stroke="Col_Grey4" stroke-dasharray="10,10"/> 
  <text x="1002.5" y="510" font-size="15" font-weight="700">20KLC22AT102</text>
  <rect x="661.5" y="432.5" width="601" height="83" rx="0" ry="0" fill="none" stroke="Col_Grey4" stroke-dasharray="10,10"/> 
  <text x="1564" y="593.682" font-size="15">20KLC24<tspan x="1564" dy="15">AA002</tspan>
  </text>
  <text x="1788" y="570.97" font-size="15">20KLC24<tspan x="1788" dy="15">AA004</tspan>
  </text>
  <image x="1362" y="99" width="175" height="25" xlink:href="DS_ana_ASRK.svg">
    <title>&quot;20KLC22CR601B01&quot;</title>
    <rt:dyn type="IsExp" mode="constant" value="true"/> 
    <rt:dyn type="ShowFrame" mode="constant" value="true"/> 
    <rt:dyn type="Color_Readings" mode="constant" value="true"/> 
    <rt:dyn type="FKKS" mode="constant" value="&quot;20KLC22CR601B01&quot;"/> 
    <rt:dyn type="ValueToTheRight" mode="constant" value="false"/> 
    <rt:dyn type="Show_Map" mode="constant" value="false"/> 
    <rt:dyn type="X" mode="constant" value="&quot;R&quot;"/> 
  </image>
</svg>
