<?xml  version="1.0" encoding="windows-1251"?>
<svg color="Col_BGSand" xmlns="http://www.w3.org/2000/svg" xmlns:rt="http://www.rts.co.at/2001/XMLSchema/RtSvgPL" xmlns:xlink="http://www.w3.org/1999/xlink" xmlns:xsi="http://www.w3.org/2001/XMLSchema-instance" xsi:schemaLocation="http://www.w3.org/2000/svg C:\RTS\RtSvg\XML\SVG.xsd" viewBox="0 0 1914 1000" width="1914" height="1000" id="skuv_sac_klc">
  <title>Приточные противодымные системы вентиляции</title>
  <rt:model modelversion="7.2.0.24" comment="UMod all_skuv&#10;LMod skuv_saa21_41&#10;RMod skuv_sac_kle" revision="3"/> 
  <line x1="1269" y1="317.36" x2="1379" y2="317.36" stroke="black" stroke-width="3"/> 
  <polygon points="14.306,-866.814 21.946,-853.434 6.66602,-853.434 14.306,-866.814" fill="black" stroke="black" stroke-width="1" transform="rotate(90 109.566 412.62)"/> 
  <polygon points="14.306,-755.194 21.946,-741.814 6.66602,-741.814 14.306,-755.194" fill="black" stroke="black" stroke-width="1" transform="rotate(90 109.566 412.62)"/> 
  <g>
    <line x1="1274" y1="442.36" x2="1384" y2="442.36" stroke="black" stroke-width="3"/> 
    <polygon points="139.306,-871.814 146.946,-858.434 131.666,-858.434 139.306,-871.814" fill="black" stroke="black" stroke-width="1" transform="rotate(90 109.566 412.62)"/> 
    <polygon points="139.306,-760.194 146.946,-746.814 131.666,-746.814 139.306,-760.194" fill="black" stroke="black" stroke-width="1" transform="rotate(90 109.566 412.62)"/> 
  </g>
  <g>
    <line x1="1269" y1="775" x2="1379" y2="775" stroke="black" stroke-width="3"/> 
    <polygon points="471.946,-866.814 479.586,-853.434 464.306,-853.434 471.946,-866.814" fill="black" stroke="black" stroke-width="1" transform="rotate(90 109.566 412.62)"/> 
    <polygon points="471.946,-755.194 479.586,-741.814 464.306,-741.814 471.946,-755.194" fill="black" stroke="black" stroke-width="1" transform="rotate(90 109.566 412.62)"/> 
  </g>
  <g>
    <line x1="1269" y1="900" x2="1379" y2="900" stroke="black" stroke-width="3"/> 
    <polygon points="596.946,-866.814 604.586,-853.434 589.306,-853.434 596.946,-866.814" fill="black" stroke="black" stroke-width="1" transform="rotate(90 109.566 412.62)"/> 
    <polygon points="596.946,-755.194 604.586,-741.814 589.306,-741.814 596.946,-755.194" fill="black" stroke="black" stroke-width="1" transform="rotate(90 109.566 412.62)"/> 
  </g>
  <g>
    <polyline points="1400,826 1462.5,826 1465,806 1525,806 1525,906 1465,906 1465,926 1400,926" fill="none" stroke="black" stroke-width="3"/> 
    <polygon points="522.946,-891.194 530.586,-877.814 515.306,-877.814 522.946,-891.194" fill="black" stroke="black" stroke-width="1" transform="rotate(90 109.566 412.62)"/> 
    <polygon points="622.946,-891.194 630.586,-877.814 615.306,-877.814 622.946,-891.194" fill="black" stroke="black" stroke-width="1" transform="rotate(90 109.566 412.62)"/> 
  </g>
  <g>
    <polyline points="1400,601 1462.5,601 1465,581 1525,581 1525,681 1465,681 1465,701 1400,701" fill="none" stroke="black" stroke-width="3"/> 
    <polygon points="297.946,-891.194 305.586,-877.814 290.306,-877.814 297.946,-891.194" fill="black" stroke="black" stroke-width="1" transform="rotate(90 109.566 412.62)"/> 
    <polygon points="397.946,-891.194 405.586,-877.814 390.306,-877.814 397.946,-891.194" fill="black" stroke="black" stroke-width="1" transform="rotate(90 109.566 412.62)"/> 
  </g>
  <line x1="1525" y1="175" x2="1630" y2="175" stroke="black" stroke-width="3"/> 
  <g>
    <polyline points="1400,362 1462.5,362 1465,342 1525,342 1525,442 1465,442 1465,462 1400,462" fill="none" stroke="black" stroke-width="3"/> 
    <polygon points="58.946,-891.194 66.586,-877.814 51.306,-877.814 58.946,-891.194" fill="black" stroke="black" stroke-width="1" transform="rotate(90 109.566 412.62)"/> 
    <polygon points="158.946,-891.194 166.586,-877.814 151.306,-877.814 158.946,-891.194" fill="black" stroke="black" stroke-width="1" transform="rotate(90 109.566 412.62)"/> 
  </g>
  <g>
    <polyline points="1400,150 1462.5,150 1465,130 1525,130 1525,230 1465,230 1465,250 1400,250" fill="none" stroke="black" stroke-width="3"/> 
    <polygon points="-153.054,-891.194 -145.414,-877.814 -160.694,-877.814 -153.054,-891.194" fill="black" stroke="black" stroke-width="1" transform="rotate(90 109.566 412.62)"/> 
    <polygon points="-53.054,-891.194 -45.414,-877.814 -60.694,-877.814 -53.054,-891.194" fill="black" stroke="black" stroke-width="1" transform="rotate(90 109.566 412.62)"/> 
  </g>
  <g>
    <polyline points="775,650 837.5,650 840,630 900,630 900,730 840,730 840,750 775,750" fill="none" stroke="black" stroke-width="3"/> 
    <polygon points="346.946,-266.194 354.586,-252.814 339.306,-252.814 346.946,-266.194" fill="black" stroke="black" stroke-width="1" transform="rotate(90 109.566 412.62)"/> 
    <polygon points="446.946,-266.194 454.586,-252.814 439.306,-252.814 446.946,-266.194" fill="black" stroke="black" stroke-width="1" transform="rotate(90 109.566 412.62)"/> 
  </g>
  <g>
    <line x1="651.5" y1="317" x2="761.5" y2="317" stroke="black" stroke-width="3"/> 
    <polygon points="13.9461,-249.314 21.5861,-235.934 6.3061,-235.934 13.9461,-249.314" fill="black" stroke="black" stroke-width="1" transform="rotate(90 109.566 412.62)"/> 
    <polygon points="13.9461,-137.694 21.5861,-124.314 6.3061,-124.314 13.9461,-137.694" fill="black" stroke="black" stroke-width="1" transform="rotate(90 109.566 412.62)"/> 
    <g>
      <line x1="647.75" y1="440" x2="759" y2="440" stroke="black" stroke-width="3"/> 
      <polygon points="136.946,-246.814 144.586,-233.434 129.306,-233.434 136.946,-246.814" fill="black" stroke="black" stroke-width="1" transform="rotate(90 109.566 412.62)"/> 
      <polygon points="136.946,-135.194 144.586,-121.814 129.306,-121.814 136.946,-135.194" fill="black" stroke="black" stroke-width="1" transform="rotate(90 109.566 412.62)"/> 
    </g>
    <g>
      <line x1="647.75" y1="600" x2="759" y2="600" stroke="black" stroke-width="3"/> 
      <polygon points="296.946,-246.814 304.586,-233.434 289.306,-233.434 296.946,-246.814" fill="black" stroke="black" stroke-width="1" transform="rotate(90 109.566 412.62)"/> 
      <polygon points="296.946,-135.194 304.586,-121.814 289.306,-121.814 296.946,-135.194" fill="black" stroke="black" stroke-width="1" transform="rotate(90 109.566 412.62)"/> 
    </g>
    <g>
      <line x1="647.75" y1="716" x2="759" y2="716" stroke="black" stroke-width="3"/> 
      <polygon points="412.946,-246.814 420.586,-233.434 405.306,-233.434 412.946,-246.814" fill="black" stroke="black" stroke-width="1" transform="rotate(90 109.566 412.62)"/> 
      <polygon points="412.946,-135.194 420.586,-121.814 405.306,-121.814 412.946,-135.194" fill="black" stroke="black" stroke-width="1" transform="rotate(90 109.566 412.62)"/> 
    </g>
    <g>
      <line x1="647.75" y1="900" x2="759" y2="900" stroke="black" stroke-width="3"/> 
      <polygon points="596.946,-246.814 604.586,-233.434 589.306,-233.434 596.946,-246.814" fill="black" stroke="black" stroke-width="1" transform="rotate(90 109.566 412.62)"/> 
      <polygon points="596.946,-135.194 604.586,-121.814 589.306,-121.814 596.946,-135.194" fill="black" stroke="black" stroke-width="1" transform="rotate(90 109.566 412.62)"/> 
    </g>
  </g>
  <g>
    <polyline points="775,375 837.5,375 840,355 900,355 900,455 840,455 840,475 775,475" fill="none" stroke="black" stroke-width="3"/> 
    <polygon points="71.946,-266.194 79.586,-252.814 64.306,-252.814 71.946,-266.194" fill="black" stroke="black" stroke-width="1" transform="rotate(90 109.566 412.62)"/> 
    <polygon points="171.946,-266.194 179.586,-252.814 164.306,-252.814 171.946,-266.194" fill="black" stroke="black" stroke-width="1" transform="rotate(90 109.566 412.62)"/> 
  </g>
  <g>
    <polyline points="775,150 837.5,150 840,130 900,130 900,230 840,230 840,250 775,250" fill="none" stroke="black" stroke-width="3"/> 
    <polygon points="-153.054,-266.194 -145.414,-252.814 -160.694,-252.814 -153.054,-266.194" fill="black" stroke="black" stroke-width="1" transform="rotate(90 109.566 412.62)"/> 
    <polygon points="-53.054,-266.194 -45.414,-252.814 -60.694,-252.814 -53.054,-266.194" fill="black" stroke="black" stroke-width="1" transform="rotate(90 109.566 412.62)"/> 
  </g>
  <g transform="rotate(90 499.004 467.36)">
    <line x1="206.644" y1="591.364" x2="320.644" y2="591.364" stroke="black" stroke-width="3"/> 
    <polygon points="288.31,190.542 295.95,203.922 280.67,203.922 288.31,190.542" fill="black" stroke="black" stroke-width="1" transform="rotate(90 109.566 412.62)"/> 
  </g>
  <line x1="325" y1="675" x2="425" y2="675" stroke="black" stroke-width="3"/> 
  <g>
    <polyline points="200,650 262.5,650 265,630 325,630 325,730 265,730 265,750 200,750" fill="none" stroke="black" stroke-width="3"/> 
    <polygon points="346.946,308.806 354.586,322.186 339.306,322.186 346.946,308.806" fill="black" stroke="black" stroke-width="1" transform="rotate(90 109.566 412.62)"/> 
    <polygon points="446.946,308.806 454.586,322.186 439.306,322.186 446.946,308.806" fill="black" stroke="black" stroke-width="1" transform="rotate(90 109.566 412.62)"/> 
  </g>
  <g>
    <line x1="68" y1="219" x2="182" y2="219" stroke="black" stroke-width="3"/> 
    <polygon points="-84.054,329.186 -76.414,342.566 -91.694,342.566 -84.054,329.186" fill="black" stroke="black" stroke-width="1" transform="rotate(90 109.566 412.62)"/> 
    <polygon points="-84.054,440.806 -76.414,454.186 -91.694,454.186 -84.054,440.806" fill="black" stroke="black" stroke-width="1" transform="rotate(90 109.566 412.62)"/> 
    <g>
      <line x1="68" y1="437" x2="182" y2="437" stroke="black" stroke-width="3"/> 
      <polygon points="133.946,329.186 141.586,342.566 126.306,342.566 133.946,329.186" fill="black" stroke="black" stroke-width="1" transform="rotate(90 109.566 412.62)"/> 
      <polygon points="133.946,440.806 141.586,454.186 126.306,454.186 133.946,440.806" fill="black" stroke="black" stroke-width="1" transform="rotate(90 109.566 412.62)"/> 
    </g>
    <g>
      <line x1="68" y1="600" x2="182" y2="600" stroke="black" stroke-width="3"/> 
      <polygon points="296.946,329.186 304.586,342.566 289.306,342.566 296.946,329.186" fill="black" stroke="black" stroke-width="1" transform="rotate(90 109.566 412.62)"/> 
      <polygon points="296.946,440.806 304.586,454.186 289.306,454.186 296.946,440.806" fill="black" stroke="black" stroke-width="1" transform="rotate(90 109.566 412.62)"/> 
    </g>
    <g>
      <line x1="73.167" y1="850" x2="187.167" y2="850" stroke="black" stroke-width="3"/> 
      <polygon points="546.946,324.019 554.586,337.399 539.306,337.399 546.946,324.019" fill="black" stroke="black" stroke-width="1" transform="rotate(90 109.566 412.62)"/> 
      <polygon points="546.946,435.639 554.586,449.019 539.306,449.019 546.946,435.639" fill="black" stroke="black" stroke-width="1" transform="rotate(90 109.566 412.62)"/> 
    </g>
  </g>
  <g>
    <polyline points="201,375 263.5,375 266,355 326,355 326,455 266,455 266,475 201,475" fill="none" stroke="black" stroke-width="3"/> 
    <polygon points="71.946,307.806 79.586,321.186 64.306,321.186 71.946,307.806" fill="black" stroke="black" stroke-width="1" transform="rotate(90 109.566 412.62)"/> 
    <polygon points="171.946,307.806 179.586,321.186 164.306,321.186 171.946,307.806" fill="black" stroke="black" stroke-width="1" transform="rotate(90 109.566 412.62)"/> 
  </g>
  <g>
    <polyline points="201,150 263.5,150 266,130 326,130 326,230 266,230 266,250 201,250" fill="none" stroke="black" stroke-width="3"/> 
    <polygon points="-153.054,307.806 -145.414,321.186 -160.694,321.186 -153.054,307.806" fill="black" stroke="black" stroke-width="1" transform="rotate(90 109.566 412.62)"/> 
    <polygon points="-53.054,307.806 -45.414,321.186 -60.694,321.186 -53.054,307.806" fill="black" stroke="black" stroke-width="1" transform="rotate(90 109.566 412.62)"/> 
  </g>
  <line x1="325" y1="400" x2="425" y2="400" stroke="black" stroke-width="3"/> 
  <text x="310.091" y="27.2424" font-size="30" font-weight="700">Приточные противодымные системы вентиляции (20SAC90-91, 20KLC90-91)</text>
  <text x="50" y="25" fill="black" font-size="15" font-weight="700" text-anchor="middle">
    <title>Схема КИП насосов охлаждения бассейна выдержки</title>
SKUV_SAC-KLC</text>
  <text x="197.5" y="300" font-size="15">20SAC90AN002</text>
  <image x="215" y="215" width="70" height="70" xlink:href="DS_motor.svg">
    <title>&quot;20SAC90AN002&quot;</title>
    <rt:dyn type="KKS" mode="constant" value="&quot;NULL&quot;"/> 
    <rt:dyn type="DATA_NARY" mode="constant" value="&quot;BIN&quot;"/> 
    <rt:dyn type="DeviceType" mode="constant" value="&quot;fan&quot;"/> 
    <rt:dyn type="Operate" mode="constant" value="true"/> 
    <rt:dyn type="SIG_On" mode="constant" value="&quot;20SAC90AN002_XB01&quot;"/> 
    <rt:dyn type="SIG_Off" mode="constant" value="&quot;20SAC90AN002_XB02&quot;"/> 
  </image>
  <image x="215" y="340" width="70" height="70" xlink:href="DS_motor.svg">
    <title>&quot;20SAC90AN003&quot;</title>
    <rt:dyn type="KKS" mode="constant" value="&quot;NULL&quot;"/> 
    <rt:dyn type="DATA_NARY" mode="constant" value="&quot;BIN&quot;"/> 
    <rt:dyn type="DeviceType" mode="constant" value="&quot;fan&quot;"/> 
    <rt:dyn type="Operate" mode="constant" value="true"/> 
    <rt:dyn type="SIG_On" mode="constant" value="&quot;20SAC90AN003_XB01&quot;"/> 
    <rt:dyn type="SIG_Off" mode="constant" value="&quot;20SAC90AN003_XB02&quot;"/> 
  </image>
  <line x1="325" y1="175" x2="425" y2="175" stroke="black" stroke-width="3"/> 
  <text x="188.417" y="420.833" font-size="15">20SAC90AN003</text>
  <image x="215" y="115" width="70" height="70" xlink:href="DS_motor.svg">
    <title>&quot;20SAC90AN001&quot;</title>
    <rt:dyn type="KKS" mode="constant" value="&quot;NULL&quot;"/> 
    <rt:dyn type="DATA_NARY" mode="constant" value="&quot;BIN&quot;"/> 
    <rt:dyn type="DeviceType" mode="constant" value="&quot;fan&quot;"/> 
    <rt:dyn type="Operate" mode="constant" value="true"/> 
    <rt:dyn type="SIG_On" mode="constant" value="&quot;20SAC90AN001_XB01&quot;"/> 
    <rt:dyn type="SIG_Off" mode="constant" value="&quot;20SAC90AN001_XB02&quot;"/> 
  </image>
  <text x="192.25" y="200" font-size="15">20SAC90AN001</text>
  <image x="215" y="440" width="70" height="70" xlink:href="DS_motor.svg">
    <title>&quot;20SAC90AN004&quot;</title>
    <rt:dyn type="KKS" mode="constant" value="&quot;NULL&quot;"/> 
    <rt:dyn type="DATA_NARY" mode="constant" value="&quot;BIN&quot;"/> 
    <rt:dyn type="DeviceType" mode="constant" value="&quot;fan&quot;"/> 
    <rt:dyn type="Operate" mode="constant" value="true"/> 
    <rt:dyn type="SIG_On" mode="constant" value="&quot;20SAC90AN004_XB01&quot;"/> 
    <rt:dyn type="SIG_Off" mode="constant" value="&quot;20SAC90AN004_XB02&quot;"/> 
  </image>
  <text x="188" y="525" font-size="15">20SAC90AN004</text>
  <rect x="425.03" y="110.364" width="153.364" height="192.424" rx="0" ry="0" fill="Col_BGSand" stroke="black" stroke-width="2"/> 
  <text x="430.288" y="160.136" font-size="15">Лифтовые шахты<tspan x="430.288" dy="15">и тамбуры</tspan>
<tspan x="430.288" dy="15">в здании</tspan>
<tspan x="430.288" dy="15">20UBB</tspan>
<tspan x="430.288" dy="15"/> 
<tspan x="430.288" dy="15">20UBB10R501</tspan>
<tspan x="430.288" dy="15">20UBB10R601</tspan>
<tspan x="430.288" dy="15">20UBB26R501</tspan>
  </text>
  <rect x="421.939" y="360.363" width="156.576" height="80.8182" rx="0" ry="0" fill="Col_BGSand" stroke="black" stroke-width="2"/> 
  <text x="440.379" y="406.833" font-size="15">20UBB05R501</text>
  <text x="100" y="255.167" font-size="15">20SAC90<tspan x="100" dy="15">AA001</tspan>
  </text>
  <text x="89.083" y="472.833" font-size="15">20SAC90<tspan x="89.083" dy="15">AA002</tspan>
  </text>
  <image x="100" y="176.5" width="70" height="65" xlink:href="DS_CO_valve.svg">
    <title>&quot;20SAC90AA001&quot;</title>
    <rt:dyn type="KKS" mode="constant" value="&quot;NULL&quot;"/> 
    <rt:dyn type="DATA_NARY" mode="constant" value="&quot;BIN&quot;"/> 
    <rt:dyn type="Operate" mode="constant" value="true"/> 
    <rt:dyn type="SIG_Open" mode="constant" value="&quot;20SAC90AA001_XB01&quot;"/> 
    <rt:dyn type="SIG_Close" mode="constant" value="&quot;20SAC90AA001_XB02&quot;"/> 
  </image>
  <image x="90" y="394.5" width="70" height="65" xlink:href="DS_CO_valve.svg">
    <title>&quot;20SAC90AA002&quot;</title>
    <rt:dyn type="KKS" mode="constant" value="&quot;NULL&quot;"/> 
    <rt:dyn type="DATA_NARY" mode="constant" value="&quot;BIN&quot;"/> 
    <rt:dyn type="Operate" mode="constant" value="true"/> 
    <rt:dyn type="SIG_Open" mode="constant" value="&quot;20SAC90AA002_XB01&quot;"/> 
    <rt:dyn type="SIG_Close" mode="constant" value="&quot;20SAC90AA002_XB02&quot;"/> 
  </image>
  <text x="31.083" y="444.167" font-size="15">АТМ</text>
  <text x="93.75" y="635.167" font-size="15">20SAC90<tspan x="93.75" dy="15">AA003</tspan>
  </text>
  <rect x="175" y="75" width="232" height="475" rx="0" ry="0" fill="none" stroke="black" stroke-width="1"/> 
  <text x="277.083" y="94.1667" font-size="15">20UBB44R002</text>
  <text x="32.083" y="224.5" font-size="15">АТМ</text>
  <text x="34.75" y="856.5" font-size="15">АТМ</text>
  <text x="184" y="700" font-size="15">20SAC90AN005</text>
  <image x="215" y="615" width="70" height="70" xlink:href="DS_motor.svg">
    <title>&quot;20SAC90AN005&quot;</title>
    <rt:dyn type="KKS" mode="constant" value="&quot;NULL&quot;"/> 
    <rt:dyn type="DATA_NARY" mode="constant" value="&quot;BIN&quot;"/> 
    <rt:dyn type="DeviceType" mode="constant" value="&quot;fan&quot;"/> 
    <rt:dyn type="Operate" mode="constant" value="true"/> 
    <rt:dyn type="SIG_On" mode="constant" value="&quot;20SAC90AN005_XB01&quot;"/> 
    <rt:dyn type="SIG_Off" mode="constant" value="&quot;20SAC90AN005_XB02&quot;"/> 
  </image>
  <image x="215" y="715" width="70" height="70" xlink:href="DS_motor.svg">
    <title>&quot;20SAC90AN006&quot;</title>
    <rt:dyn type="KKS" mode="constant" value="&quot;NULL&quot;"/> 
    <rt:dyn type="DATA_NARY" mode="constant" value="&quot;BIN&quot;"/> 
    <rt:dyn type="DeviceType" mode="constant" value="&quot;fan&quot;"/> 
    <rt:dyn type="Operate" mode="constant" value="true"/> 
    <rt:dyn type="SIG_On" mode="constant" value="&quot;20SAC90AN006_XB01&quot;"/> 
    <rt:dyn type="SIG_Off" mode="constant" value="&quot;20SAC90AN006_XB02&quot;"/> 
  </image>
  <text x="184" y="800" font-size="15">20SAC90AN006</text>
  <rect x="423" y="606" width="149.727" height="161.516" rx="0" ry="0" fill="Col_BGSand" stroke="black" stroke-width="2"/> 
  <text x="426.439" y="630.242" font-size="15">Лифтовые шахты<tspan x="426.439" dy="15">и тамбуры</tspan>
<tspan x="426.439" dy="15">в здании</tspan>
<tspan x="426.439" dy="15">20UBB</tspan>
<tspan x="426.439" dy="15"/> 
<tspan x="426.439" dy="15">20UBB10R503</tspan>
<tspan x="426.439" dy="15">20UBB26R503</tspan>
  </text>
  <text x="331.083" y="656.5" font-size="15">20SAC90<tspan x="331.083" dy="15">AA202</tspan>
  </text>
  <image x="340" y="185" width="70" height="65" xlink:href="DS_Reg_valve.svg" transform="matrix(-1.83697e-016 -1 1 -1.83697e-016 0 0)">
    <rt:dyn type="KKS" mode="constant" value="&quot;NULL&quot;"/> 
    <rt:dyn type="Operate" mode="constant" value="true"/> 
    <rt:dyn type="DATA_NARY" mode="constant" value="&quot;TPTS&quot;"/> 
  </image>
  <rect x="175" y="550" width="232" height="375" rx="0" ry="0" fill="none" stroke="black" stroke-width="1"/> 
  <text x="332.417" y="150" font-size="15">20SAC90<tspan x="332.417" dy="15">AA201</tspan>
  </text>
  <g transform="rotate(90 499.004 467.36)">
    <line x1="706.644" y1="591.364" x2="820.644" y2="591.364" stroke="black" stroke-width="3"/> 
    <polygon points="288.31,-309.458 295.95,-296.078 280.67,-296.078 288.31,-309.458" fill="black" stroke="black" stroke-width="1" transform="rotate(90 109.566 412.62)"/> 
  </g>
  <image x="340.833" y="682.667" width="70" height="65" xlink:href="DS_Reg_valve.svg" transform="matrix(-1.83697e-016 -1 1 -1.83697e-016 0 0)">
    <rt:dyn type="KKS" mode="constant" value="&quot;NULL&quot;"/> 
    <rt:dyn type="Operate" mode="constant" value="true"/> 
    <rt:dyn type="DATA_NARY" mode="constant" value="&quot;TPTS&quot;"/> 
  </image>
  <image x="90" y="557.5" width="70" height="65" xlink:href="DS_CO_valve.svg">
    <title>&quot;20SAC90AA003&quot;</title>
    <rt:dyn type="KKS" mode="constant" value="&quot;NULL&quot;"/> 
    <rt:dyn type="DATA_NARY" mode="constant" value="&quot;BIN&quot;"/> 
    <rt:dyn type="Operate" mode="constant" value="true"/> 
    <rt:dyn type="SIG_Open" mode="constant" value="&quot;20SAC90AA003_XB01&quot;"/> 
    <rt:dyn type="SIG_Close" mode="constant" value="&quot;20SAC90AA003_XB02&quot;"/> 
  </image>
  <image x="90" y="807.5" width="70" height="65" xlink:href="DS_CO_valve.svg">
    <title>&quot;20SAC90AA004&quot;</title>
    <rt:dyn type="KKS" mode="constant" value="&quot;NULL&quot;"/> 
    <rt:dyn type="DATA_NARY" mode="constant" value="&quot;BIN&quot;"/> 
    <rt:dyn type="Operate" mode="constant" value="true"/> 
    <rt:dyn type="SIG_Open" mode="constant" value="&quot;20SAC90AA004_XB01&quot;"/> 
    <rt:dyn type="SIG_Close" mode="constant" value="&quot;20SAC90AA004_XB02&quot;"/> 
  </image>
  <text x="30.417" y="607.833" font-size="15">АТМ</text>
  <text x="775" y="296.5" font-size="15">20SAC91AN002</text>
  <image x="790" y="215" width="70" height="70" xlink:href="DS_motor.svg">
    <title>&quot;20SAC91AN002&quot;</title>
    <rt:dyn type="DATA_NARY" mode="constant" value="&quot;BIN&quot;"/> 
    <rt:dyn type="DeviceType" mode="constant" value="&quot;fan&quot;"/> 
    <rt:dyn type="Operate" mode="constant" value="true"/> 
    <rt:dyn type="SIG_On" mode="constant" value="&quot;20SAC91AN002_XB01&quot;"/> 
    <rt:dyn type="SIG_Off" mode="constant" value="&quot;20SAC91AN002_XB02&quot;"/> 
  </image>
  <image x="790" y="340" width="70" height="70" xlink:href="DS_motor.svg">
    <title>&quot;20SAC91AN003&quot;</title>
    <rt:dyn type="DATA_NARY" mode="constant" value="&quot;BIN&quot;"/> 
    <rt:dyn type="DeviceType" mode="constant" value="&quot;fan&quot;"/> 
    <rt:dyn type="Operate" mode="constant" value="true"/> 
    <rt:dyn type="SIG_On" mode="constant" value="&quot;20SAC91AN003_XB01&quot;"/> 
    <rt:dyn type="SIG_Off" mode="constant" value="&quot;20SAC91AN003_XB02&quot;"/> 
  </image>
  <line x1="900" y1="175" x2="1025" y2="175" stroke="black" stroke-width="3"/> 
  <text x="775" y="418.5" font-size="15">20SAC91AN003</text>
  <image x="790" y="115" width="70" height="70" xlink:href="DS_motor.svg">
    <title>&quot;20SAC91AN001&quot;</title>
    <rt:dyn type="KKS" mode="constant" value="&quot;NULL&quot;"/> 
    <rt:dyn type="DATA_NARY" mode="constant" value="&quot;BIN&quot;"/> 
    <rt:dyn type="DeviceType" mode="constant" value="&quot;fan&quot;"/> 
    <rt:dyn type="Operate" mode="constant" value="true"/> 
    <rt:dyn type="SIG_On" mode="constant" value="&quot;20SAC91AN001_XB01&quot;"/> 
    <rt:dyn type="SIG_Off" mode="constant" value="&quot;20SAC91AN001_XB02&quot;"/> 
  </image>
  <text x="775" y="200" font-size="15">20SAC91AN001</text>
  <image x="790" y="440" width="70" height="70" xlink:href="DS_motor.svg">
    <title>&quot;20SAC91AN004&quot;</title>
    <rt:dyn type="DATA_NARY" mode="constant" value="&quot;BIN&quot;"/> 
    <rt:dyn type="DeviceType" mode="constant" value="&quot;fan&quot;"/> 
    <rt:dyn type="Operate" mode="constant" value="true"/> 
    <rt:dyn type="SIG_On" mode="constant" value="&quot;20SAC91AN004_XB01&quot;"/> 
    <rt:dyn type="SIG_Off" mode="constant" value="&quot;20SAC91AN004_XB02&quot;"/> 
  </image>
  <text x="775" y="525" font-size="15">20SAC91AN004</text>
  <rect x="1025.37" y="124" width="153.364" height="192.424" rx="0" ry="0" fill="Col_BGSand" stroke="black" stroke-width="2"/> 
  <text x="1030.63" y="173.772" font-size="15">Лифтовые шахты<tspan x="1030.63" dy="15">и тамбуры</tspan>
<tspan x="1030.63" dy="15">в здании</tspan>
<tspan x="1030.63" dy="15">20UBB</tspan>
<tspan x="1030.63" dy="15"/> 
<tspan x="1030.63" dy="15">20UBB10R502</tspan>
<tspan x="1030.63" dy="15">20UBB10R602</tspan>
<tspan x="1030.63" dy="15">20UBB26R502</tspan>
  </text>
  <line x1="900" y1="400" x2="1025" y2="400" stroke="black" stroke-width="3"/> 
  <rect x="1026.15" y="379" width="156.576" height="80.8182" rx="0" ry="0" fill="Col_BGSand" stroke="black" stroke-width="2"/> 
  <text x="1044.6" y="425.47" font-size="15">20UBB05R012</text>
  <text x="660.5" y="357.849" font-size="15">20SAC91<tspan x="660.5" dy="15">AA001</tspan>
  </text>
  <text x="660" y="479.091" font-size="15">20SAC91<tspan x="660" dy="15">AA002</tspan>
  </text>
  <image x="664.893" y="276" width="70" height="65" xlink:href="DS_CO_valve.svg">
    <title>&quot;20SAC91AA001&quot;</title>
    <rt:dyn type="KKS" mode="constant" value="&quot;NULL&quot;"/> 
    <rt:dyn type="DATA_NARY" mode="constant" value="&quot;BIN&quot;"/> 
    <rt:dyn type="Operate" mode="constant" value="true"/> 
    <rt:dyn type="SIG_Open" mode="constant" value="&quot;20SAC91AA001_XB01&quot;"/> 
    <rt:dyn type="SIG_Close" mode="constant" value="&quot;20SAC91AA001_XB02&quot;"/> 
  </image>
  <image x="664.393" y="397" width="70" height="65" xlink:href="DS_CO_valve.svg">
    <title>&quot;20SAC91AA002&quot;</title>
    <rt:dyn type="KKS" mode="constant" value="&quot;NULL&quot;"/> 
    <rt:dyn type="DATA_NARY" mode="constant" value="&quot;BIN&quot;"/> 
    <rt:dyn type="Operate" mode="constant" value="true"/> 
    <rt:dyn type="SIG_Open" mode="constant" value="&quot;20SAC91AA002_XB01&quot;"/> 
    <rt:dyn type="SIG_Close" mode="constant" value="&quot;20SAC91AA002_XB02&quot;"/> 
  </image>
  <text x="661" y="635.849" font-size="15">20SAC91<tspan x="661" dy="15">AA004</tspan>
  </text>
  <text x="766" y="694.5" font-size="15">20SAC91AN005</text>
  <image x="790" y="615" width="70" height="70" xlink:href="DS_motor.svg">
    <title>&quot;20SAC91AN005&quot;</title>
    <rt:dyn type="DATA_NARY" mode="constant" value="&quot;BIN&quot;"/> 
    <rt:dyn type="DeviceType" mode="constant" value="&quot;fan&quot;"/> 
    <rt:dyn type="Operate" mode="constant" value="true"/> 
    <rt:dyn type="SIG_On" mode="constant" value="&quot;20SAC91AN005_XB01&quot;"/> 
    <rt:dyn type="SIG_Off" mode="constant" value="&quot;20SAC91AN005_XB02&quot;"/> 
  </image>
  <image x="790" y="715" width="70" height="70" xlink:href="DS_motor.svg">
    <title>&quot;20SAC91AN006&quot;</title>
    <rt:dyn type="DATA_NARY" mode="constant" value="&quot;BIN&quot;"/> 
    <rt:dyn type="DeviceType" mode="constant" value="&quot;fan&quot;"/> 
    <rt:dyn type="Operate" mode="constant" value="true"/> 
    <rt:dyn type="SIG_On" mode="constant" value="&quot;20SAC91AN006_XB01&quot;"/> 
    <rt:dyn type="SIG_Off" mode="constant" value="&quot;20SAC91AN006_XB02&quot;"/> 
  </image>
  <line x1="900" y1="675" x2="1043" y2="675" stroke="black" stroke-width="3"/> 
  <text x="768" y="800" font-size="15">20SAC91AN006</text>
  <rect x="1033.17" y="559.85" width="149.727" height="161.516" rx="0" ry="0" fill="Col_BGSand" stroke="black" stroke-width="2"/> 
  <text x="1036.61" y="584.092" font-size="15">Лифтовые шахты<tspan x="1036.61" dy="15">и тамбуры</tspan>
<tspan x="1036.61" dy="15">в здании</tspan>
<tspan x="1036.61" dy="15">20UBB</tspan>
<tspan x="1036.61" dy="15"/> 
<tspan x="1036.61" dy="15">20UBB10R504</tspan>
<tspan x="1036.61" dy="15">20UBB26R504</tspan>
  </text>
  <text x="661" y="757.091" font-size="15">20SAC91<tspan x="661" dy="15">AA005</tspan>
  </text>
  <image x="656.393" y="557" width="70" height="65" xlink:href="DS_CO_valve.svg">
    <title>&quot;20SAC91AA004&quot;</title>
    <rt:dyn type="KKS" mode="constant" value="&quot;NULL&quot;"/> 
    <rt:dyn type="DATA_NARY" mode="constant" value="&quot;BIN&quot;"/> 
    <rt:dyn type="Operate" mode="constant" value="true"/> 
    <rt:dyn type="SIG_Open" mode="constant" value="&quot;20SAC91AA004_XB01&quot;"/> 
    <rt:dyn type="SIG_Close" mode="constant" value="&quot;20SAC91AA004_XB02&quot;"/> 
  </image>
  <image x="665.393" y="675" width="70" height="65" xlink:href="DS_CO_valve.svg">
    <title>&quot;20SAC91AA005&quot;</title>
    <rt:dyn type="KKS" mode="constant" value="&quot;NULL&quot;"/> 
    <rt:dyn type="DATA_NARY" mode="constant" value="&quot;BIN&quot;"/> 
    <rt:dyn type="Operate" mode="constant" value="true"/> 
    <rt:dyn type="SIG_Open" mode="constant" value="&quot;20SAC91AA005_XB01&quot;"/> 
    <rt:dyn type="SIG_Close" mode="constant" value="&quot;20SAC91AA005_XB02&quot;"/> 
  </image>
  <text x="850" y="925" font-size="15">20UBB36R034</text>
  <rect x="745" y="75" width="236.5" height="487.5" rx="0" ry="0" fill="none" stroke="black" stroke-width="1"/> 
  <rect x="749.5" y="562.5" width="232" height="375" rx="0" ry="0" fill="none" stroke="black" stroke-width="1"/> 
  <text x="860" y="94.5" font-size="15">20UBB44R007</text>
  <text x="275" y="909.5" font-size="15">20UBB36R003</text>
  <g transform="rotate(90 499.004 467.36)">
    <line x1="206.644" y1="16.3641" x2="320.644" y2="16.3641" stroke="black" stroke-width="3"/> 
    <polygon points="-286.69,190.542 -279.05,203.922 -294.33,203.922 -286.69,190.542" fill="black" stroke="black" stroke-width="1" transform="rotate(90 109.566 412.62)"/> 
  </g>
  <g transform="rotate(90 499.004 467.36)">
    <line x1="706.644" y1="16.364" x2="820.644" y2="16.364" stroke="black" stroke-width="3"/> 
    <polygon points="-286.69,-309.458 -279.05,-296.078 -294.33,-296.078 -286.69,-309.458" fill="black" stroke="black" stroke-width="1" transform="rotate(90 109.566 412.62)"/> 
  </g>
  <image x="915.583" y="183.5" width="70" height="65" xlink:href="DS_Reg_valve.svg" transform="matrix(-1.83697e-016 -1 1 -1.83697e-016 0 0)">
    <rt:dyn type="KKS" mode="constant" value="&quot;NULL&quot;"/> 
    <rt:dyn type="Operate" mode="constant" value="true"/> 
    <rt:dyn type="DATA_NARY" mode="constant" value="&quot;TPTS&quot;"/> 
  </image>
  <text x="908" y="148.5" font-size="15">20SAC91<tspan x="908" dy="15">AA201</tspan>
  </text>
  <text x="909" y="650" font-size="15">20SAC91<tspan x="909" dy="15">AA202</tspan>
  </text>
  <image x="913.75" y="682.667" width="70" height="65" xlink:href="DS_Reg_valve.svg" transform="matrix(-1.83697e-016 -1 1 -1.83697e-016 0 0)">
    <rt:dyn type="KKS" mode="constant" value="&quot;NULL&quot;"/> 
    <rt:dyn type="Operate" mode="constant" value="true"/> 
    <rt:dyn type="DATA_NARY" mode="constant" value="&quot;TPTS&quot;"/> 
  </image>
  <text x="661" y="939.091" font-size="15">20SAC91<tspan x="661" dy="15">AA006</tspan>
  </text>
  <image x="665.393" y="857" width="70" height="65" xlink:href="DS_CO_valve.svg">
    <title>&quot;20SAC91AA006&quot;</title>
    <rt:dyn type="KKS" mode="constant" value="&quot;NULL&quot;"/> 
    <rt:dyn type="DATA_NARY" mode="constant" value="&quot;BIN&quot;"/> 
    <rt:dyn type="Operate" mode="constant" value="true"/> 
    <rt:dyn type="SIG_Open" mode="constant" value="&quot;20SAC91AA006_XB01&quot;"/> 
    <rt:dyn type="SIG_Close" mode="constant" value="&quot;20SAC91AA006_XB02&quot;"/> 
  </image>
  <text x="1391" y="297.348" font-size="15">20KLC90AN002</text>
  <image x="1415.79" y="215" width="70" height="70" xlink:href="DS_motor.svg">
    <title>&quot;20KLC90AN002&quot;</title>
    <rt:dyn type="DATA_NARY" mode="constant" value="&quot;BIN&quot;"/> 
    <rt:dyn type="DeviceType" mode="constant" value="&quot;fan&quot;"/> 
    <rt:dyn type="Operate" mode="constant" value="true"/> 
    <rt:dyn type="SIG_On" mode="constant" value="&quot;20KLC90AN002_XB01&quot;"/> 
    <rt:dyn type="SIG_Off" mode="constant" value="&quot;20KLC90AN002_XB02&quot;"/> 
  </image>
  <image x="1414.71" y="328" width="70" height="70" xlink:href="DS_motor.svg">
    <title>&quot;20KLC90AN003&quot;</title>
    <rt:dyn type="DATA_NARY" mode="constant" value="&quot;BIN&quot;"/> 
    <rt:dyn type="DeviceType" mode="constant" value="&quot;fan&quot;"/> 
    <rt:dyn type="Operate" mode="constant" value="true"/> 
    <rt:dyn type="SIG_On" mode="constant" value="&quot;20KLC90AN003_XB01&quot;"/> 
    <rt:dyn type="SIG_Off" mode="constant" value="&quot;20KLC90AN003_XB02&quot;"/> 
  </image>
  <text x="1388" y="410.227" font-size="15">20KLC90AN003</text>
  <image x="1415.94" y="115" width="70" height="70" xlink:href="DS_motor.svg">
    <title>&quot;20KLC90AN001&quot;</title>
    <rt:dyn type="DATA_NARY" mode="constant" value="&quot;BIN&quot;"/> 
    <rt:dyn type="DeviceType" mode="constant" value="&quot;fan&quot;"/> 
    <rt:dyn type="Operate" mode="constant" value="true"/> 
    <rt:dyn type="SIG_On" mode="constant" value="&quot;20KLC90AN001_XB01&quot;"/> 
    <rt:dyn type="SIG_Off" mode="constant" value="&quot;20KLC90AN001_XB02&quot;"/> 
  </image>
  <text x="1391" y="197.363" font-size="15">20KLC90AN001</text>
  <image x="1415.29" y="428" width="70" height="70" xlink:href="DS_motor.svg">
    <title>&quot;20KLC90AN004&quot;</title>
    <rt:dyn type="DATA_NARY" mode="constant" value="&quot;BIN&quot;"/> 
    <rt:dyn type="DeviceType" mode="constant" value="&quot;fan&quot;"/> 
    <rt:dyn type="Operate" mode="constant" value="true"/> 
    <rt:dyn type="SIG_On" mode="constant" value="&quot;20KLC90AN004_XB01&quot;"/> 
    <rt:dyn type="SIG_Off" mode="constant" value="&quot;20KLC90AN004_XB02&quot;"/> 
  </image>
  <text x="1394" y="512.394" font-size="15">20KLC90AN004</text>
  <line x1="1525" y1="387" x2="1625" y2="387" stroke="black" stroke-width="3"/> 
  <rect x="1628.7" y="60.394" width="153" height="192.424" rx="0" ry="0" fill="Col_BGSand" stroke="black" stroke-width="2"/> 
  <text x="1637.77" y="95.167" font-size="15">Лифтовые шахты<tspan x="1637.77" dy="15">и тамбуры</tspan>
<tspan x="1637.77" dy="15">в здании</tspan>
<tspan x="1637.77" dy="15">20UKA</tspan>
<tspan x="1637.77" dy="15"/> 
<tspan x="1637.77" dy="15">20UKA04R601</tspan>
<tspan x="1637.77" dy="15">20UKA10R601</tspan>
<tspan x="1637.77" dy="15">20UKA10R501</tspan>
<tspan x="1637.77" dy="15">20UKA18R501</tspan>
<tspan x="1637.77" dy="15">20UKA36R501</tspan>
  </text>
  <rect x="1627" y="361" width="153" height="80.8182" rx="0" ry="0" fill="Col_BGSand" stroke="black" stroke-width="2"/> 
  <text x="1642.13" y="407.47" font-size="15">20UKA04R002</text>
  <rect x="1363.5" y="75" width="236.5" height="450" rx="0" ry="0" fill="none" stroke="black" stroke-width="1"/> 
  <text x="609" y="325" font-size="15">АТМ</text>
  <text x="605" y="444.5" font-size="15">АТМ</text>
  <text x="604" y="605.5" font-size="15">АТМ</text>
  <text x="606" y="719.5" font-size="15">АТМ</text>
  <text x="606" y="906.5" font-size="15">АТМ</text>
  <text x="1481" y="92.5" font-size="15">20UKA44R002</text>
  <text x="1291.91" y="477.089" font-size="15">20KLC90<tspan x="1291.91" dy="15">AA002</tspan>
  </text>
  <image x="1289" y="400" width="70" height="65" xlink:href="DS_CO_valve.svg">
    <title>&quot;20KLC90AA002&quot;</title>
    <rt:dyn type="KKS" mode="constant" value="&quot;NULL&quot;"/> 
    <rt:dyn type="DATA_NARY" mode="constant" value="&quot;BIN&quot;"/> 
    <rt:dyn type="Operate" mode="constant" value="true"/> 
    <rt:dyn type="SIG_Open" mode="constant" value="&quot;20KLC90AA002_XB01&quot;"/> 
    <rt:dyn type="SIG_Close" mode="constant" value="&quot;20KLC90AA002_XB02&quot;"/> 
  </image>
  <text x="1291.94" y="354.849" font-size="15">20KLC90<tspan x="1291.94" dy="15">AA001</tspan>
  </text>
  <image x="1289" y="276" width="70" height="65" xlink:href="DS_CO_valve.svg">
    <title>&quot;20KLC90AA001&quot;</title>
    <rt:dyn type="KKS" mode="constant" value="&quot;NULL&quot;"/> 
    <rt:dyn type="DATA_NARY" mode="constant" value="&quot;BIN&quot;"/> 
    <rt:dyn type="Operate" mode="constant" value="true"/> 
    <rt:dyn type="SIG_Open" mode="constant" value="&quot;20KLC90AA001_XB01&quot;"/> 
    <rt:dyn type="SIG_Close" mode="constant" value="&quot;20KLC90AA001_XB02&quot;"/> 
  </image>
  <text x="1396" y="746.894" font-size="15">20KLC91AN002</text>
  <image x="1413.67" y="665" width="70" height="70" xlink:href="DS_motor.svg">
    <title>&quot;20KLC91AN002&quot;</title>
    <rt:dyn type="DATA_NARY" mode="constant" value="&quot;BIN&quot;"/> 
    <rt:dyn type="DeviceType" mode="constant" value="&quot;fan&quot;"/> 
    <rt:dyn type="Operate" mode="constant" value="true"/> 
    <rt:dyn type="SIG_On" mode="constant" value="&quot;20KLC91AN002_XB01&quot;"/> 
    <rt:dyn type="SIG_Off" mode="constant" value="&quot;20KLC91AN002_XB02&quot;"/> 
  </image>
  <image x="1414.59" y="791" width="70" height="70" xlink:href="DS_motor.svg">
    <title>&quot;20KLC91AN003&quot;</title>
    <rt:dyn type="DATA_NARY" mode="constant" value="&quot;BIN&quot;"/> 
    <rt:dyn type="DeviceType" mode="constant" value="&quot;fan&quot;"/> 
    <rt:dyn type="Operate" mode="constant" value="true"/> 
    <rt:dyn type="SIG_On" mode="constant" value="&quot;20KLC91AN003_XB01&quot;"/> 
    <rt:dyn type="SIG_Off" mode="constant" value="&quot;20KLC91AN003_XB02&quot;"/> 
  </image>
  <line x1="1525" y1="625" x2="1625" y2="625" stroke="black" stroke-width="3"/> 
  <text x="1386" y="875.773" font-size="15">20KLC91AN003</text>
  <image x="1414.82" y="566" width="70" height="70" xlink:href="DS_motor.svg">
    <title>&quot;20KLC91AN001&quot;</title>
    <rt:dyn type="DATA_NARY" mode="constant" value="&quot;BIN&quot;"/> 
    <rt:dyn type="DeviceType" mode="constant" value="&quot;fan&quot;"/> 
    <rt:dyn type="Operate" mode="constant" value="true"/> 
    <rt:dyn type="SIG_On" mode="constant" value="&quot;20KLC91AN001_XB01&quot;"/> 
    <rt:dyn type="SIG_Off" mode="constant" value="&quot;20KLC91AN001_XB02&quot;"/> 
  </image>
  <text x="1399" y="645.742" font-size="15">20KLC91AN001</text>
  <image x="1413.59" y="888" width="70" height="70" xlink:href="DS_motor.svg">
    <title>&quot;20KLC91AN004&quot;</title>
    <rt:dyn type="DATA_NARY" mode="constant" value="&quot;BIN&quot;"/> 
    <rt:dyn type="DeviceType" mode="constant" value="&quot;fan&quot;"/> 
    <rt:dyn type="Operate" mode="constant" value="true"/> 
    <rt:dyn type="SIG_On" mode="constant" value="&quot;20KLC91AN004_XB01&quot;"/> 
    <rt:dyn type="SIG_Off" mode="constant" value="&quot;20KLC91AN004_XB02&quot;"/> 
  </image>
  <text x="1385" y="969.772" font-size="15">20KLC91AN004</text>
  <line x1="1525" y1="875" x2="1631" y2="875" stroke="black" stroke-width="3"/> 
  <rect x="1625.76" y="585" width="153" height="192.424" rx="0" ry="0" fill="Col_BGSand" stroke="black" stroke-width="2"/> 
  <text x="1635.83" y="619.773" font-size="15">Лифтовые шахты<tspan x="1635.83" dy="15">и тамбуры</tspan>
<tspan x="1635.83" dy="15">в здании</tspan>
<tspan x="1635.83" dy="15">20UKA</tspan>
<tspan x="1635.83" dy="15"/> 
<tspan x="1635.83" dy="15">20UKA04R602</tspan>
<tspan x="1635.83" dy="15">20UKA10R602</tspan>
<tspan x="1635.83" dy="15">20UKA10R502</tspan>
<tspan x="1635.83" dy="15">20UKA18R502</tspan>
<tspan x="1635.83" dy="15">20UKA36R502</tspan>
  </text>
  <rect x="1625.7" y="834.999" width="153" height="80.8182" rx="0" ry="0" fill="Col_BGSand" stroke="black" stroke-width="2"/> 
  <text x="1641.59" y="881.469" font-size="15">20UKA04R021</text>
  <text x="1292.94" y="809.849" font-size="15">20KLC91<tspan x="1292.94" dy="15">AA001</tspan>
  </text>
  <text x="1292.91" y="934.089" font-size="15">20KLC91<tspan x="1292.91" dy="15">AA002</tspan>
  </text>
  <image x="1290" y="732" width="70" height="65" xlink:href="DS_CO_valve.svg">
    <title>&quot;20KLC91AA001&quot;</title>
    <rt:dyn type="KKS" mode="constant" value="&quot;NULL&quot;"/> 
    <rt:dyn type="DATA_NARY" mode="constant" value="&quot;BIN&quot;"/> 
    <rt:dyn type="Operate" mode="constant" value="true"/> 
    <rt:dyn type="SIG_Open" mode="constant" value="&quot;20KLC91AA001_XB01&quot;"/> 
    <rt:dyn type="SIG_Close" mode="constant" value="&quot;20KLC91AA001_XB02&quot;"/> 
  </image>
  <image x="1290" y="856" width="70" height="65" xlink:href="DS_CO_valve.svg">
    <title>&quot;20KLC91AA002&quot;</title>
    <rt:dyn type="KKS" mode="constant" value="&quot;NULL&quot;"/> 
    <rt:dyn type="DATA_NARY" mode="constant" value="&quot;BIN&quot;"/> 
    <rt:dyn type="Operate" mode="constant" value="true"/> 
    <rt:dyn type="SIG_Open" mode="constant" value="&quot;20KLC91AA002_XB01&quot;"/> 
    <rt:dyn type="SIG_Close" mode="constant" value="&quot;20KLC91AA002_XB02&quot;"/> 
  </image>
  <rect x="1363.33" y="525" width="236.667" height="464" rx="0" ry="0" fill="none" stroke="black" stroke-width="1"/> 
  <text x="1480.08" y="541.167" font-size="15">20UKA44R006</text>
  <text x="1220" y="321.5" font-size="15">АТМ</text>
  <text x="1225" y="450" font-size="15">АТМ</text>
  <text x="1225" y="907.5" font-size="15">АТМ</text>
  <text x="1223" y="783.5" font-size="15">АТМ</text>
</svg>
