<?xml  version="1.0" encoding="windows-1251"?>
<svg color="Col_BGSand" xmlns="http://www.w3.org/2000/svg" xmlns:rt="http://www.rts.co.at/2001/XMLSchema/RtSvgPL" xmlns:xlink="http://www.w3.org/1999/xlink" xmlns:xsi="http://www.w3.org/2001/XMLSchema-instance" xsi:schemaLocation="http://www.w3.org/2000/svg C:/RTS/\RtSvg\XML\SVG.xsd" viewBox="0 0 1914 1000" width="1914" height="1000" id="ukc_+36" font-size="14" font-weight="700">
  <title>Появление воды в помещениях UKC +3.600</title>
  <rt:model modelversion="7.2.0.24" revision="3" comment="UMod all_ktn&#10;LMod ukc_+24&#10;RMod ukc_+72&#10;RASU"/> 
  <text x="957" y="26" fill="black" font-size="30" font-weight="normal" text-anchor="middle">Появление воды в помещениях UKC +3.600</text>
  <text x="10" y="22" font-size="15" font-weight="700">ukc_+36</text>
  <line x1="466.75" y1="138.25" x2="466.75" y2="138.25" stroke="black"/> 
  <line x1="676" y1="190.75" x2="676" y2="190.75" stroke="black"/> 
  <line x1="1383" y1="696" x2="1383" y2="696" stroke="black"/> 
  <rect x="460" y="65" width="40" height="50" rx="0" ry="0" fill="none" stroke="black"/> 
  <line x1="570" y1="138" x2="675" y2="138" stroke="black" stroke-width="6"/> 
  <line x1="674" y1="50" x2="675" y2="210" stroke="black" stroke-width="6"/> 
  <line x1="610" y1="75" x2="610" y2="135" stroke="black" stroke-width="6"/> 
  <polyline points="675,115 700,115 700,200 790,200 790,185 825,185 825,200 990,200 990,170 1010,200 1375,200 1375,150 1350,115 1330,115 1330,50" fill="none" stroke="black" stroke-width="6"/> 
  <line x1="1330" y1="115" x2="825" y2="115" stroke="black" stroke-width="6"/> 
  <line x1="459" y1="138" x2="473" y2="138" stroke="black" stroke-width="6"/> 
  <line x1="501" y1="138" x2="487" y2="138" stroke="black" stroke-width="6"/> 
  <polyline points="497,138 534,138 534,170 537,170 537,138 579,138" fill="none" stroke="black"/> 
  <polyline points="502,50 502,200 525,200" fill="none" stroke="black" stroke-width="6"/> 
  <polyline points="570,50 570,200 540,200" fill="none" stroke="black" stroke-width="6"/> 
  <polyline points="605,200 620,200 620,170 675,170" fill="none" stroke="black" stroke-width="6"/> 
  <line x1="620" y1="135.75" x2="620" y2="148" stroke="black" stroke-width="6"/> 
  <line x1="620" y1="162.5" x2="620" y2="173.75" stroke="black" stroke-width="6"/> 
  <line x1="648" y1="170" x2="648" y2="181" stroke="black" stroke-width="6"/> 
  <polyline points="678,200 648,200 648,190" fill="none" stroke="black" stroke-width="6"/> 
  <g transform="scale(0.8 0.8)">
    <rect x="813.75" y="218.5" width="26.5" height="26.25" rx="0" ry="0" fill="none" stroke="black" stroke-width="1"/> 
    <line x1="813.75" y1="218.5" x2="840.25" y2="244.5" stroke="black"/> 
    <line x1="813.75" y1="244.5" x2="840" y2="218.75" stroke="black"/> 
  </g>
  <line x1="738" y1="50" x2="738" y2="200" stroke="black" stroke-width="6"/> 
  <line x1="825" y1="50" x2="825" y2="200" stroke="black" stroke-width="6"/> 
  <line x1="905" y1="50" x2="905" y2="200" stroke="black" stroke-width="6"/> 
  <line x1="990" y1="52" x2="990" y2="202" stroke="black" stroke-width="6"/> 
  <line x1="865" y1="114" x2="865" y2="199" stroke="black" stroke-width="6"/> 
  <line x1="1075" y1="50" x2="1075" y2="200" stroke="black" stroke-width="6"/> 
  <line x1="1160" y1="50" x2="1160" y2="200" stroke="black" stroke-width="6"/> 
  <line x1="1245" y1="50" x2="1245" y2="200" stroke="black" stroke-width="6"/> 
  <line x1="1411" y1="50" x2="1411" y2="110" stroke="black" stroke-width="6"/> 
  <polyline points="1413,100 1398.5,99.75 1360.5,133.5" fill="none" stroke="black" stroke-width="6"/> 
  <line x1="1376.5" y1="121.5" x2="1391" y2="108" stroke="Col_BGSand" stroke-width="12"/> 
  <line x1="1374.75" y1="150" x2="1457" y2="150" stroke="black" stroke-width="6"/> 
  <rect x="1425" y="125" width="32" height="60" rx="0" ry="0" fill="none" stroke="black" stroke-width="6"/> 
  <rect x="1388" y="141.25" width="20" height="15" rx="0" ry="0" fill="Col_BGSand"/> 
  <line x1="1408" y1="125" x2="1427" y2="125" stroke="black" stroke-width="6"/> 
  <polyline points="1265,200 1265,250 1456,250" fill="none" stroke="black" stroke-width="6"/> 
  <polyline points="1265,250 1265,375 1315,410 1265,445 1265,565 1455,565" fill="none" stroke="black" stroke-width="6"/> 
  <line x1="1265" y1="375" x2="1265" y2="450" stroke="black" stroke-width="6"/> 
  <line x1="1315" y1="410" x2="1457" y2="410" stroke="black" stroke-width="6"/> 
  <rect x="1265.5" y="539.75" width="50.5" height="23" rx="0" ry="0" fill="none" stroke="black" stroke-width="6"/> 
  <line x1="1304.75" y1="540" x2="1305" y2="563.75" stroke="black" stroke-width="6"/> 
  <rect x="1265" y="250" width="20" height="35" rx="0" ry="0" fill="none" stroke="black" stroke-width="6"/> 
  <rect x="1265" y="616" width="193" height="335" rx="0" ry="0" fill="none" stroke="black" stroke-width="6"/> 
  <line x1="1365" y1="563" x2="1365" y2="616" stroke="black" stroke-width="6"/> 
  <rect x="1320" y="705" width="132" height="240" rx="0" ry="0" fill="none" stroke="black" stroke-width="12"/> 
  <line x1="1265" y1="660" x2="1456" y2="660" stroke="black" stroke-width="6"/> 
  <polyline points="1320,870 1220,870 1220,795 1100,795 1100,820 1057,820 1057,795 850,795 850,820 830,820 830,795 690,795 690,950" fill="none" stroke="black" stroke-width="6"/> 
  <line x1="1079" y1="793" x2="1079" y2="950" stroke="black" stroke-width="6"/> 
  <line x1="965" y1="798" x2="965" y2="950" stroke="black" stroke-width="6"/> 
  <line x1="850" y1="815" x2="850" y2="950" stroke="black" stroke-width="6"/> 
  <line x1="750" y1="795" x2="750" y2="950" stroke="black" stroke-width="6"/> 
  <line x1="1335" y1="658" x2="1335" y2="705" stroke="black" stroke-width="6"/> 
  <rect x="1287" y="652" width="20" height="15" rx="0" ry="0" fill="Col_BGSand"/> 
  <rect x="1328" y="675" width="15" height="15" rx="0" ry="0" fill="Col_BGSand"/> 
  <rect x="1364" y="570" width="86" height="40" rx="0" ry="0" fill="none" stroke="black" stroke-width="1"/> 
  <rect x="1375" y="581" width="19" height="19" rx="0" ry="0" fill="none" stroke="black" stroke-width="2"/> 
  <rect x="1255" y="765" width="20" height="20" rx="0" ry="0" fill="Col_BGSand"/> 
  <line x1="1264" y1="825" x2="1320" y2="825" stroke="black" stroke-width="6"/> 
  <rect x="1280" y="812" width="20" height="20" rx="0" ry="0" fill="Col_BGSand"/> 
  <rect x="460" y="673" width="165" height="277" rx="0" ry="0" fill="none" stroke="black" stroke-width="6"/> 
  <rect x="456" y="825" width="108" height="125" rx="0" ry="0" fill="none" stroke="black" stroke-width="6"/> 
  <line x1="566" y1="875" x2="625" y2="875" stroke="black" stroke-width="6"/> 
  <polyline points="455,725 520,725 520,825" fill="none" stroke="black" stroke-width="6"/> 
  <polyline points="625,725 564,725 564,835" fill="none" stroke="black" stroke-width="6"/> 
  <rect x="583.5" y="715" width="23" height="18" rx="0" ry="0" fill="Col_BGSand"/> 
  <rect x="643" y="690" width="18" height="23" rx="0" ry="0" fill="Col_BGSand"/> 
  <rect x="583.5" y="666" width="23" height="18" rx="0" ry="0" fill="Col_BGSand"/> 
  <rect x="481" y="715" width="20" height="18" rx="0" ry="0" fill="Col_BGSand"/> 
  <polyline points="455,250 600,250 625,275 625,500 600,550 500,550 500,625" fill="none" stroke="black" stroke-width="6"/> 
  <g transform="flipX(-1)">
    <rect x="-625.5" y="599" width="50.5" height="23" rx="0" ry="0" fill="none" stroke="black" stroke-width="6"/> 
    <line x1="-586.25" y1="599.25" x2="-586" y2="623" stroke="black" stroke-width="6"/> 
  </g>
  <line x1="456" y1="624" x2="625" y2="624" stroke="black" stroke-width="6"/> 
  <line x1="625" y1="547" x2="625" y2="682" stroke="black" stroke-width="6"/> 
  <rect x="534" y="616" width="23" height="18" rx="0" ry="0" fill="Col_BGSand"/> 
  <rect x="613" y="634" width="23" height="18" rx="0" ry="0" fill="Col_BGSand"/> 
  <line x1="592" y1="550" x2="625" y2="550" stroke="black" stroke-width="6"/> 
  <rect x="492" y="596" width="15.5" height="18" rx="0" ry="0" fill="Col_BGSand"/> 
  <rect x="621" y="505" width="4" height="45" rx="0" ry="0" fill="none" stroke="black"/> 
  <rect x="613.75" y="285" width="19.5" height="20" rx="0" ry="0" fill="Col_BGSand"/> 
  <rect x="459" y="227" width="50" height="22" rx="0" ry="0" fill="none" stroke="black" stroke-width="4"/> 
  <line x1="480" y1="227" x2="480" y2="250" stroke="black" stroke-width="4"/> 
  <line x1="457" y1="410" x2="680" y2="410" stroke="black" stroke-width="6"/> 
  <polyline points="781,200 781,375 736,410 671,410 671,250 781,250" fill="none" stroke="black" stroke-width="6"/> 
  <rect x="636" y="399" width="23" height="18" rx="0" ry="0" fill="Col_BGSand"/> 
  <line x1="670" y1="290" x2="782" y2="290" stroke="black" stroke-width="1"/> 
  <rect x="662" y="262" width="19.5" height="20" rx="0" ry="0" fill="Col_BGSand"/> 
  <polyline points="910,385 843,385 763,450 668,450" fill="none" stroke="black" stroke-width="6"/> 
  <polyline points="906,435 843,435 763,500 673,500" fill="none" stroke="black" stroke-width="6"/> 
  <polyline points="906,385 906,750 722,750 672,711 672,450" fill="none" stroke="black" stroke-width="8"/> 
  <line x1="624" y1="585" x2="905" y2="585" stroke="black" stroke-width="6"/> 
  <line x1="761" y1="501" x2="761" y2="585" stroke="black" stroke-width="6"/> 
  <line x1="841" y1="435" x2="841" y2="585" stroke="black" stroke-width="6"/> 
  <polyline points="880,305 880,265 843,265 843,383 950,383 950,250 880,250 880,265" fill="none" stroke="black" stroke-width="8"/> 
  <line x1="800" y1="583" x2="800" y2="750" stroke="black" stroke-width="6"/> 
  <line x1="800" y1="665" x2="750" y2="665" stroke="black" stroke-width="6"/> 
  <polyline points="906,550 950,550 950,475 1225,475" fill="none" stroke="black" stroke-width="6"/> 
  <polyline points="1100,475 1100,750 905,750" fill="none" stroke="black" stroke-width="8"/> 
  <polyline points="1100,750 1225,750 1225,250 950,250" fill="none" stroke="black" stroke-width="8"/> 
  <polyline points="950,375 950,410 1000,410 1000,435 1225,435" fill="none" stroke="black" stroke-width="8"/> 
  <line x1="1000" y1="250" x2="1000" y2="420" stroke="black" stroke-width="8"/> 
  <rect x="1050" y="345" width="175" height="90" rx="0" ry="0" fill="none" stroke="black" stroke-width="6"/> 
  <line x1="1126.25" y1="250" x2="1126.25" y2="345" stroke="black" stroke-width="6"/> 
  <line x1="1050" y1="250" x2="1050" y2="345" stroke="black" stroke-width="6"/> 
  <line x1="1126.25" y1="345" x2="1126.25" y2="435" stroke="black" stroke-width="1"/> 
  <line x1="975" y1="300" x2="1000" y2="300" stroke="black" stroke-width="6"/> 
  <rect x="906" y="383" width="40" height="40" rx="0" ry="0" fill="none" stroke="black"/> 
  <rect x="842" y="251" width="33" height="13" rx="0" ry="0" fill="none" stroke="black"/> 
  <rect x="845.25" y="254.75" width="29.75" height="7.25" rx="0" ry="0" fill="none" stroke="black"/> 
  <rect x="949.75" y="249" width="15.25" height="25" rx="0" ry="0" fill="none" stroke="black"/> 
  <rect x="950" y="248.5" width="12.75" height="23.25" rx="0" ry="0" fill="none" stroke="black"/> 
  <polyline points="962.5,260 956,260 956,272 958,262"/> 
  <rect x="1104.75" y="251.25" width="20.25" height="20.5" rx="0" ry="0" fill="none" stroke="black"/> 
  <rect x="1107" y="250" width="16" height="19" rx="0" ry="0" fill="none" stroke="black"/> 
  <line x1="1115" y1="250" x2="1115" y2="269" stroke="black"/> 
  <polyline points="1113.5,254 1107,254 1107,266 1109,256"/> 
  <polyline points="910,422.5 915,390 945.5,386.25" fill="none" stroke="black"/> 
  <rect x="1273" y="398" width="12" height="12" rx="0" ry="0" fill="none" stroke="black"/> 
  <line x1="1100" y1="565" x2="1225" y2="565" stroke="black" stroke-width="6"/> 
  <line x1="1102" y1="660" x2="1227" y2="660" stroke="black" stroke-width="6"/> 
  <line x1="1175" y1="473" x2="1175" y2="507" stroke="black" stroke-width="8"/> 
  <line x1="1175" y1="565" x2="1175" y2="599" stroke="black" stroke-width="8"/> 
  <line x1="1175" y1="660" x2="1175" y2="694" stroke="black" stroke-width="8"/> 
  <rect x="711" y="190" width="14" height="18" rx="0" ry="0" fill="Col_BGSand"/> 
  <rect x="990" y="199" width="20" height="2" rx="0" ry="0" fill="none" stroke="black"/> 
  <polyline points="988.75,54 915,60 908,115" fill="none" stroke="black"/> 
  <polyline points="1073.25,53.5 999.5,59.5 992.75,113" fill="none" stroke="black"/> 
  <polyline points="1158.75,54 1085,60 1078.25,113.5" fill="none" stroke="black"/> 
  <polyline points="1243.75,54 1170,60 1163.25,113.5" fill="none" stroke="black"/> 
  <polyline points="1328.75,54 1255,60 1248.25,113.5" fill="none" stroke="black"/> 
  <polyline points="988.75,117.748 915,123.748 905,198.5" fill="none" stroke="black"/> 
  <polyline points="1073.75,117.998 1000,123.998 990,170" fill="none" stroke="black"/> 
  <polyline points="1158.75,118 1085,124 1075,198.752" fill="none" stroke="black"/> 
  <polyline points="1246.5,117.998 1172.75,123.998 1162.75,198.75" fill="none" stroke="black"/> 
  <line x1="1280" y1="115" x2="1280" y2="200" stroke="black"/> 
  <polyline points="1353,117.5 1290,125 1280,200" fill="none" stroke="black"/> 
  <polyline points="1267,375 1325,265 1454,251" fill="none" stroke="black"/> 
  <polyline points="1267.75,537.25 1325,425 1455,413" fill="none" stroke="black"/> 
  <g>
    <g>
      <rect x="1345" y="615" width="65" height="43" rx="0" ry="0" fill="none" stroke="black"/> 
      <line x1="1345" y1="637" x2="1410" y2="637" stroke="black"/> 
      <line x1="1350" y1="615" x2="1350" y2="660" stroke="black"/> 
      <line x1="1355" y1="615" x2="1355" y2="660" stroke="black"/> 
      <line x1="1360.25" y1="617.5" x2="1360" y2="617.5" stroke="black"/> 
      <line x1="1360" y1="615" x2="1360" y2="660" stroke="black"/> 
      <line x1="1365" y1="615" x2="1365" y2="660" stroke="black"/> 
      <line x1="1370" y1="615" x2="1370" y2="660" stroke="black"/> 
      <line x1="1375" y1="615" x2="1375" y2="660" stroke="black"/> 
      <line x1="1380" y1="615" x2="1380" y2="660" stroke="black"/> 
      <line x1="1385" y1="615" x2="1385" y2="660" stroke="black"/> 
      <line x1="1390" y1="615" x2="1390" y2="660" stroke="black"/> 
      <line x1="1395" y1="615" x2="1395" y2="660" stroke="black"/> 
      <line x1="1400" y1="615" x2="1400" y2="660" stroke="black"/> 
      <line x1="1405" y1="615" x2="1405" y2="660" stroke="black"/> 
    </g>
    <polyline points="1375,637 1380,637 1390,658 1385,658 1375,637" fill="Col_BGSand" stroke="black"/> 
  </g>
  <g transform="flipX(1)">
    <g>
      <rect x="-531" y="627" width="65" height="43" rx="0" ry="0" fill="none" stroke="black"/> 
      <line x1="-531" y1="649" x2="-466" y2="649" stroke="black"/> 
      <line x1="-526" y1="627" x2="-526" y2="672" stroke="black"/> 
      <line x1="-521" y1="627" x2="-521" y2="672" stroke="black"/> 
      <line x1="-515.75" y1="629.5" x2="-516" y2="629.5" stroke="black"/> 
      <line x1="-516" y1="627" x2="-516" y2="672" stroke="black"/> 
      <line x1="-511" y1="627" x2="-511" y2="672" stroke="black"/> 
      <line x1="-506" y1="627" x2="-506" y2="672" stroke="black"/> 
      <line x1="-501" y1="627" x2="-501" y2="672" stroke="black"/> 
      <line x1="-496" y1="627" x2="-496" y2="672" stroke="black"/> 
      <line x1="-491" y1="627" x2="-491" y2="672" stroke="black"/> 
      <line x1="-486" y1="627" x2="-486" y2="672" stroke="black"/> 
      <line x1="-481" y1="627" x2="-481" y2="672" stroke="black"/> 
      <line x1="-476" y1="627" x2="-476" y2="672" stroke="black"/> 
      <line x1="-471" y1="627" x2="-471" y2="672" stroke="black"/> 
    </g>
    <polyline points="-501,649 -496,649 -486,670 -491,670 -501,649" fill="Col_BGSand" stroke="black"/> 
  </g>
  <rect x="830" y="795" width="20" height="4" rx="0" ry="0" fill="none" stroke="black"/> 
  <rect x="1058" y="795" width="40" height="4" rx="0" ry="0" fill="none" stroke="black"/> 
  <line x1="950" y1="750" x2="950" y2="795" stroke="black" stroke-width="6"/> 
  <rect x="940" y="766" width="15" height="10" rx="0" ry="0" fill="Col_BGSand"/> 
  <polyline points="670,709 670,752 725,752" fill="none" stroke="black"/> 
  <polyline points="675,717 675,747 720,747" fill="none" stroke="black"/> 
  <line x1="480" y1="65" x2="480" y2="115" stroke="black"/> 
  <line x1="460" y1="70" x2="500" y2="70" stroke="black"/> 
  <line x1="460" y1="75" x2="500" y2="75" stroke="black"/> 
  <line x1="460" y1="80" x2="500" y2="80" stroke="black"/> 
  <line x1="460" y1="85" x2="500" y2="85" stroke="black"/> 
  <line x1="460" y1="90" x2="500" y2="90" stroke="black"/> 
  <line x1="460" y1="95" x2="500" y2="95" stroke="black"/> 
  <line x1="480" y1="100" x2="500" y2="100" stroke="black"/> 
  <line x1="480" y1="105" x2="500" y2="105" stroke="black"/> 
  <line x1="480" y1="110" x2="500" y2="110" stroke="black"/> 
  <polyline points="570,54 515,60 505,138.25" fill="none" stroke="black"/> 
  <rect x="570.25" y="77.5" width="40" height="50" rx="0" ry="0" fill="none" stroke="black"/> 
  <line x1="590.25" y1="77.5" x2="590.25" y2="127.5" stroke="black"/> 
  <line x1="570.25" y1="82.5" x2="610.25" y2="82.5" stroke="black"/> 
  <line x1="570.25" y1="87.5" x2="610.25" y2="87.5" stroke="black"/> 
  <line x1="570.25" y1="92.5" x2="610.25" y2="92.5" stroke="black"/> 
  <line x1="570.25" y1="97.5" x2="610.25" y2="97.5" stroke="black"/> 
  <line x1="570.25" y1="102.5" x2="610.25" y2="102.5" stroke="black"/> 
  <line x1="570.25" y1="107.5" x2="610.25" y2="107.5" stroke="black"/> 
  <line x1="569" y1="112.5" x2="610.25" y2="112.5" stroke="black"/> 
  <line x1="569" y1="117" x2="611" y2="117" stroke="black"/> 
  <line x1="570" y1="122" x2="610" y2="122" stroke="black"/> 
  <line x1="570" y1="200" x2="585" y2="200" stroke="black" stroke-width="6"/> 
  <line x1="905.25" y1="199.5" x2="905" y2="250" stroke="black" stroke-width="4"/> 
  <rect x="899.25" y="217.5" width="12.25" height="14" rx="0" ry="0" fill="Col_BGSand"/> 
  <polyline points="457,550 476,426 625,410" fill="none" stroke="black"/> 
  <polyline points="760,502 685,509 675,585" fill="none" stroke="black"/> 
  <polyline points="800,587 690,595 675,713" fill="none" stroke="black"/> 
  <polyline points="905,588 815,595 800,750" fill="none" stroke="black"/> 
  <rect x="671" y="284.75" width="24" height="5.25" rx="0" ry="0" fill="none" stroke="black"/> 
  <image x="707" y="159" width="25" height="25" xlink:href="bin_indicator.svg">
    <title>20KTN14CL005_XG01</title>
    <rt:dyn type="PointID" mode="constant" value="&quot;20KTN14CL005_XG01&quot;"/> 
  </image>
  <image x="679" y="55" width="54" height="55" xlink:href="bin_tablo_OR3.svg">
    <title>Вспомогательное помещение для нужд эксплуатационного персонала</title>
    <rt:dyn type="PointID_1" mode="constant" value="&quot;20KTN14CL005_XG01&quot;"/> 
    <rt:dyn type="T_String" mode="constant" value="&quot;20UKC\n14R\n007&quot;"/> 
    <rt:dyn type="Col_ON" mode="constant" value="&quot;Col_Red&quot;"/> 
    <rt:dyn type="T_Size" mode="constant" value="13"/> 
  </image>
  <image x="585" y="212" width="110" height="30" xlink:href="bin_tablo_OR3.svg">
    <title>Коридор</title>
    <rt:dyn type="PointID_1" mode="constant" value="&quot;20KTN14CL023_XG01&quot;"/> 
    <rt:dyn type="T_String" mode="constant" value="&quot;20UKC14R037&quot;"/> 
    <rt:dyn type="Col_ON" mode="constant" value="&quot;Col_Red&quot;"/> 
    <rt:dyn type="T_Size" mode="constant" value="13"/> 
    <rt:dyn type="PointID_2" mode="constant" value="&quot;20KTN14CL024_XG01&quot;"/> 
    <rt:dyn type="PointID_3" mode="constant" value="&quot;20KTN14CL025_XG01&quot;"/> 
  </image>
  <image x="742.5" y="214.25" width="25" height="25" xlink:href="bin_indicator.svg">
    <title>20KTN14CL024_XG01</title>
    <rt:dyn type="PointID" mode="constant" value="&quot;20KTN14CL024_XG01&quot;"/> 
  </image>
  <image x="525" y="214.25" width="25" height="25" xlink:href="bin_indicator.svg">
    <title>20KTN14CL025_XG01</title>
    <rt:dyn type="PointID" mode="constant" value="&quot;20KTN14CL025_XG01&quot;"/> 
  </image>
  <image x="635.5" y="315" width="25" height="25" xlink:href="bin_indicator.svg">
    <title>20KTN14CL023_XG01</title>
    <rt:dyn type="PointID" mode="constant" value="&quot;20KTN14CL023_XG01&quot;"/> 
  </image>
  <image x="684" y="309" width="80" height="50" xlink:href="bin_tablo_OR3.svg">
    <title>Вентильная камера системы KBA</title>
    <rt:dyn type="PointID_1" mode="constant" value="&quot;20KTN14CL006_XG01&quot;"/> 
    <rt:dyn type="T_String" mode="constant" value="&quot;20UKC\n14R009&quot;"/> 
    <rt:dyn type="Col_ON" mode="constant" value="&quot;Col_Red&quot;"/> 
    <rt:dyn type="T_Size" mode="constant" value="14"/> 
  </image>
  <image x="742.5" y="260" width="25" height="25" xlink:href="bin_indicator.svg">
    <title>20KTN14CL006_XG01</title>
    <rt:dyn type="PointID" mode="constant" value="&quot;20KTN14CL006_XG01&quot;"/> 
  </image>
  <image x="855" y="320" width="80" height="50" xlink:href="bin_tablo_OR3.svg">
    <title>Помещение фильтров системы KPF30</title>
    <rt:dyn type="PointID_1" mode="constant" value="&quot;20KTN14CL018_XG01&quot;"/> 
    <rt:dyn type="T_String" mode="constant" value="&quot;20UKC\n14R027&quot;"/> 
    <rt:dyn type="Col_ON" mode="constant" value="&quot;Col_Red&quot;"/> 
    <rt:dyn type="T_Size" mode="constant" value="14"/> 
  </image>
  <image x="849" y="278" width="25" height="25" xlink:href="bin_indicator.svg">
    <title>20KTN14CL018_XG01</title>
    <rt:dyn type="PointID" mode="constant" value="&quot;20KTN14CL018_XG01&quot;"/> 
  </image>
  <image x="675" y="454" width="90" height="40" xlink:href="bin_tablo_OR3.svg">
    <title>&quot;Грязный&quot; трубопроводный коридор</title>
    <rt:dyn type="PointID_1" mode="constant" value="&quot;20KTN14CL017_XG01&quot;"/> 
    <rt:dyn type="T_String" mode="constant" value="&quot;20UKC\n14R026&quot;"/> 
    <rt:dyn type="Col_ON" mode="constant" value="&quot;Col_Red&quot;"/> 
    <rt:dyn type="T_Size" mode="constant" value="14"/> 
  </image>
  <image x="769" y="447" width="25" height="25" xlink:href="bin_indicator.svg">
    <title>20KTN14CL017_XG01</title>
    <rt:dyn type="PointID" mode="constant" value="&quot;20KTN14CL017_XG01&quot;"/> 
  </image>
  <image x="775" y="508" width="45" height="67" xlink:href="bin_tablo_OR3.svg">
    <title>Помещение 1 ступени очистки системы KPF10-60</title>
    <rt:dyn type="PointID_1" mode="constant" value="&quot;20KTN14CL015_XG01&quot;"/> 
    <rt:dyn type="T_String" mode="constant" value="&quot;20\nUKC\n14R\n024&quot;"/> 
    <rt:dyn type="Col_ON" mode="constant" value="&quot;Col_Red&quot;"/> 
    <rt:dyn type="T_Size" mode="constant" value="14"/> 
  </image>
  <image x="850" y="508" width="45" height="67" xlink:href="bin_tablo_OR3.svg">
    <title>Помещение 2 ступени очистки системы KPF10-60</title>
    <rt:dyn type="PointID_1" mode="constant" value="&quot;20KTN14CL016_XG01&quot;"/> 
    <rt:dyn type="T_String" mode="constant" value="&quot;20\nUKC\n14R\n025&quot;"/> 
    <rt:dyn type="Col_ON" mode="constant" value="&quot;Col_Red&quot;"/> 
    <rt:dyn type="T_Size" mode="constant" value="14"/> 
  </image>
  <image x="809" y="468" width="25" height="25" xlink:href="bin_indicator.svg">
    <title>20KTN14CL015_XG01</title>
    <rt:dyn type="PointID" mode="constant" value="&quot;20KTN14CL015_XG01&quot;"/> 
  </image>
  <image x="860" y="468" width="25" height="25" xlink:href="bin_indicator.svg">
    <title>20KTN14CL016_XG01</title>
    <rt:dyn type="PointID" mode="constant" value="&quot;20KTN14CL016_XG01&quot;"/> 
  </image>
  <image x="510" y="555" width="80" height="40" xlink:href="bin_tablo_OR3.svg">
    <title>Помещение насосов системы KWC</title>
    <rt:dyn type="PointID_1" mode="constant" value="&quot;20KTN14CL004_XG01&quot;"/> 
    <rt:dyn type="T_String" mode="constant" value="&quot;20UKC\n14R004&quot;"/> 
    <rt:dyn type="Col_ON" mode="constant" value="&quot;Col_Red&quot;"/> 
    <rt:dyn type="T_Size" mode="constant" value="13"/> 
  </image>
  <image x="596" y="561.5" width="25" height="25" xlink:href="bin_indicator.svg">
    <title>20KTN14CL004_XG01</title>
    <rt:dyn type="PointID" mode="constant" value="&quot;20KTN14CL004_XG01&quot;"/> 
  </image>
  <image x="475" y="682.75" width="110" height="32" xlink:href="bin_tablo_OR3.svg">
    <title>Коридор</title>
    <rt:dyn type="PointID_1" mode="constant" value="&quot;20KTN14CL003_XG01&quot;"/> 
    <rt:dyn type="T_String" mode="constant" value="&quot;20UKC14R003&quot;"/> 
    <rt:dyn type="Col_ON" mode="constant" value="&quot;Col_Red&quot;"/> 
    <rt:dyn type="T_Size" mode="constant" value="13"/> 
  </image>
  <rect x="612" y="690" width="23" height="18" rx="0" ry="0" fill="Col_BGSand"/> 
  <image x="596" y="686.25" width="25" height="25" xlink:href="bin_indicator.svg">
    <title>20KTN14CL003_XG01</title>
    <rt:dyn type="PointID" mode="constant" value="&quot;20KTN14CL003_XG01&quot;"/> 
  </image>
  <image x="476.5" y="731" width="25" height="25" xlink:href="bin_indicator.svg">
    <title>20KTN14CL002_XG01</title>
    <rt:dyn type="PointID" mode="constant" value="&quot;20KTN14CL002_XG01&quot;"/> 
  </image>
  <image x="476.5" y="833" width="25" height="25" xlink:href="bin_indicator.svg">
    <title>20KTN14CL001_XG01</title>
    <rt:dyn type="PointID" mode="constant" value="&quot;20KTN14CL001_XG01&quot;"/> 
  </image>
  <image x="470" y="879" width="80" height="50" xlink:href="bin_tablo_OR3.svg">
    <title>Помещение системы JEV50</title>
    <rt:dyn type="PointID_1" mode="constant" value="&quot;20KTN14CL001_XG01&quot;"/> 
    <rt:dyn type="T_String" mode="constant" value="&quot;20UKC\n14R001&quot;"/> 
    <rt:dyn type="Col_ON" mode="constant" value="&quot;Col_Red&quot;"/> 
    <rt:dyn type="T_Size" mode="constant" value="14"/> 
  </image>
  <image x="700" y="841" width="40" height="95" xlink:href="bin_tablo_OR3.svg">
    <title>Помещение бака слива воды из парогенераторов</title>
    <rt:dyn type="PointID_1" mode="constant" value="&quot;20KTN14CL013_XG01&quot;"/> 
    <rt:dyn type="T_String" mode="constant" value="&quot;20\nUKC\n14R\n020&quot;"/> 
    <rt:dyn type="Col_ON" mode="constant" value="&quot;Col_Red&quot;"/> 
    <rt:dyn type="T_Size" mode="constant" value="14"/> 
  </image>
  <image x="760" y="850" width="80" height="50" xlink:href="bin_tablo_OR3.svg">
    <title>Помещение бака очишенного борного концентрата системы KBC40</title>
    <rt:dyn type="PointID_1" mode="constant" value="&quot;20KTN14CL012_XG01&quot;"/> 
    <rt:dyn type="T_String" mode="constant" value="&quot;20UKC\n14R019&quot;"/> 
    <rt:dyn type="Col_ON" mode="constant" value="&quot;Col_Red&quot;"/> 
    <rt:dyn type="T_Size" mode="constant" value="14"/> 
  </image>
  <image x="860" y="850" width="80" height="50" xlink:href="bin_tablo_OR3.svg">
    <title>Помещение бака очишенного борного концентрата системы KBC40</title>
    <rt:dyn type="PointID_1" mode="constant" value="&quot;20KTN14CL011_XG01&quot;"/> 
    <rt:dyn type="T_String" mode="constant" value="&quot;20UKC\n14R018&quot;"/> 
    <rt:dyn type="Col_ON" mode="constant" value="&quot;Col_Red&quot;"/> 
    <rt:dyn type="T_Size" mode="constant" value="14"/> 
  </image>
  <image x="977" y="850" width="80" height="50" xlink:href="bin_tablo_OR3.svg">
    <title>Помещение бака хранения раствора борной кислоты системы FAL</title>
    <rt:dyn type="PointID_1" mode="constant" value="&quot;20KTN14CL010_XG01&quot;"/> 
    <rt:dyn type="T_String" mode="constant" value="&quot;20UKC\n14R017&quot;"/> 
    <rt:dyn type="Col_ON" mode="constant" value="&quot;Col_Red&quot;"/> 
    <rt:dyn type="T_Size" mode="constant" value="14"/> 
  </image>
  <image x="1105" y="850" width="80" height="50" xlink:href="bin_tablo_OR3.svg">
    <title>Помещение бака хранения раствора борной кислоты системы FAL</title>
    <rt:dyn type="PointID_1" mode="constant" value="&quot;20KTN14CL009_XG01&quot;"/> 
    <rt:dyn type="T_String" mode="constant" value="&quot;20UKC\n14R016&quot;"/> 
    <rt:dyn type="Col_ON" mode="constant" value="&quot;Col_Red&quot;"/> 
    <rt:dyn type="T_Size" mode="constant" value="14"/> 
  </image>
  <image x="1108" y="802" width="25" height="25" xlink:href="bin_indicator.svg">
    <title>20KTN14CL009_XG01</title>
    <rt:dyn type="PointID" mode="constant" value="&quot;20KTN14CL009_XG01&quot;"/> 
  </image>
  <image x="1025" y="802" width="25" height="25" xlink:href="bin_indicator.svg">
    <title>20KTN14CL010_XG01</title>
    <rt:dyn type="PointID" mode="constant" value="&quot;20KTN14CL010_XG01&quot;"/> 
  </image>
  <image x="858" y="802" width="25" height="25" xlink:href="bin_indicator.svg">
    <title>20KTN14CL011_XG01</title>
    <rt:dyn type="PointID" mode="constant" value="&quot;20KTN14CL011_XG01&quot;"/> 
  </image>
  <image x="798" y="802" width="25" height="25" xlink:href="bin_indicator.svg">
    <title>20KTN14CL012_XG01</title>
    <rt:dyn type="PointID" mode="constant" value="&quot;20KTN14CL012_XG01&quot;"/> 
  </image>
  <image x="707.5" y="802" width="25" height="25" xlink:href="bin_indicator.svg">
    <title>20KTN14CL013_XG01</title>
    <rt:dyn type="PointID" mode="constant" value="&quot;20KTN14CL013_XG01&quot;"/> 
  </image>
  <image x="1335" y="810" width="40" height="95" xlink:href="bin_tablo_OR3.svg">
    <title>Помещение фильтров системы KBH</title>
    <rt:dyn type="PointID_1" mode="constant" value="&quot;20KTN14CL007_XG01&quot;"/> 
    <rt:dyn type="T_String" mode="constant" value="&quot;20\nUKC\n14R\n013&quot;"/> 
    <rt:dyn type="Col_ON" mode="constant" value="&quot;Col_Red&quot;"/> 
    <rt:dyn type="T_Size" mode="constant" value="14"/> 
  </image>
  <image x="1400" y="800" width="25" height="25" xlink:href="bin_indicator.svg">
    <title>20KTN14CL007_XG01</title>
    <rt:dyn type="PointID" mode="constant" value="&quot;20KTN14CL007_XG01&quot;"/> 
  </image>
  <image x="1270" y="705" width="40" height="95" xlink:href="bin_tablo_OR3.svg">
    <title>Коридор</title>
    <rt:dyn type="PointID_1" mode="constant" value="&quot;20KTN14CL008_XG01&quot;"/> 
    <rt:dyn type="T_String" mode="constant" value="&quot;20\nUKC\n14R\n014&quot;"/> 
    <rt:dyn type="Col_ON" mode="constant" value="&quot;Col_Red&quot;"/> 
    <rt:dyn type="T_Size" mode="constant" value="14"/> 
  </image>
  <image x="1275" y="668" width="25" height="25" xlink:href="bin_indicator.svg">
    <title>20KTN14CL008_XG01</title>
    <rt:dyn type="PointID" mode="constant" value="&quot;20KTN14CL008_XG01&quot;"/> 
  </image>
  <image x="1002" y="439" width="110" height="30" xlink:href="bin_tablo_OR3.svg">
    <title>&quot;Грязный&quot; трубопроводный коридор</title>
    <rt:dyn type="PointID_1" mode="constant" value="&quot;20KTN14CL014_XG01&quot;"/> 
    <rt:dyn type="T_String" mode="constant" value="&quot;20UKC14R022&quot;"/> 
    <rt:dyn type="Col_ON" mode="constant" value="&quot;Col_Red&quot;"/> 
    <rt:dyn type="T_Size" mode="constant" value="13"/> 
  </image>
  <image x="950" y="418" width="25" height="25" xlink:href="bin_indicator.svg">
    <title>20KTN14CL014_XG01</title>
    <rt:dyn type="PointID" mode="constant" value="&quot;20KTN14CL014_XG01&quot;"/> 
  </image>
  <rect x="1165" y="279" width="23" height="21" rx="0" ry="0" fill="none" stroke="black" stroke-width="4"/> 
  <image x="1058" y="290" width="60" height="48" xlink:href="bin_tablo_OR3.svg">
    <title>Резервное помещение</title>
    <rt:dyn type="PointID_1" mode="constant" value="&quot;20KTN14CL021_XG01&quot;"/> 
    <rt:dyn type="T_String" mode="constant" value="&quot;20UKC\n14R030&quot;"/> 
    <rt:dyn type="Col_ON" mode="constant" value="&quot;Col_Red&quot;"/> 
    <rt:dyn type="T_Size" mode="constant" value="14"/> 
  </image>
  <image x="1057" y="257" width="25" height="25" xlink:href="bin_indicator.svg">
    <title>20KTN14CL021_XG01</title>
    <rt:dyn type="PointID" mode="constant" value="&quot;20KTN14CL021_XG01&quot;"/> 
  </image>
  <image x="1005" y="308.5" width="40" height="95" xlink:href="bin_tablo_OR3.svg">
    <title>Помещение фильтров системы KBF50</title>
    <rt:dyn type="PointID_1" mode="constant" value="&quot;20KTN14CL020_XG01&quot;"/> 
    <rt:dyn type="T_String" mode="constant" value="&quot;20\nUKC\n14R\n029&quot;"/> 
    <rt:dyn type="Col_ON" mode="constant" value="&quot;Col_Red&quot;"/> 
    <rt:dyn type="T_Size" mode="constant" value="14"/> 
  </image>
  <image x="1012.5" y="271" width="25" height="25" xlink:href="bin_indicator.svg">
    <title>20KTN14CL020_XG01</title>
    <rt:dyn type="PointID" mode="constant" value="&quot;20KTN14CL020_XG01&quot;"/> 
  </image>
  <image x="954" y="309" width="40" height="95" xlink:href="bin_tablo_OR3.svg">
    <title>Помещение обслуживания фильтров системы KBF50</title>
    <rt:dyn type="PointID_1" mode="constant" value="&quot;20KTN14CL019_XG01&quot;"/> 
    <rt:dyn type="T_String" mode="constant" value="&quot;20\nUKC\n14R\n028&quot;"/> 
    <rt:dyn type="Col_ON" mode="constant" value="&quot;Col_Red&quot;"/> 
    <rt:dyn type="T_Size" mode="constant" value="14"/> 
  </image>
  <image x="962.5" y="271" width="25" height="25" xlink:href="bin_indicator.svg">
    <title>20KTN14CL019_XG01</title>
    <rt:dyn type="PointID" mode="constant" value="&quot;20KTN14CL019_XG01&quot;"/> 
  </image>
  <polyline points="1125,435 1139,358 1224,345" fill="none" stroke="black"/> 
  <rect x="1200" y="386" width="25" height="4" rx="0" ry="0" fill="none" stroke="black"/> 
  <image x="1135" y="290" width="80" height="50" xlink:href="bin_tablo_OR3.svg">
    <title>Помещение бака конденсата системы KBF</title>
    <rt:dyn type="PointID_1" mode="constant" value="&quot;20KTN14CL022_XG01&quot;"/> 
    <rt:dyn type="T_String" mode="constant" value="&quot;20UKC\n14R031&quot;"/> 
    <rt:dyn type="Col_ON" mode="constant" value="&quot;Col_Red&quot;"/> 
    <rt:dyn type="T_Size" mode="constant" value="14"/> 
  </image>
  <image x="1193" y="257" width="25" height="25" xlink:href="bin_indicator.svg">
    <title>20KTN14CL022_XG01</title>
    <rt:dyn type="PointID" mode="constant" value="&quot;20KTN14CL022_XG01&quot;"/> 
  </image>
  <image x="467" y="760" width="46" height="60" xlink:href="bin_tablo_OR3.svg">
    <title>Резервное помещение</title>
    <rt:dyn type="PointID_1" mode="constant" value="&quot;20KTN14CL002_XG01&quot;"/> 
    <rt:dyn type="T_String" mode="constant" value="&quot;20\nUKC\n14R\n002&quot;"/> 
    <rt:dyn type="Col_ON" mode="constant" value="&quot;Col_Red&quot;"/> 
    <rt:dyn type="T_Size" mode="constant" value="14"/> 
  </image>
  <rect x="461" y="108" width="18" height="10" rx="0" ry="0" fill="Col_BGSand" stroke="Col_BGSand"/> 
  <rect x="457" y="50" width="1000" height="900" rx="0" ry="0" fill="none" stroke="black" stroke-width="8"/> 
  <image x="36.3618" y="97" width="85" height="25" xlink:href="obj_link.svg">
    <rt:dyn type="TextStr" mode="constant" value="&quot;ukc_-54&quot;"/> 
    <rt:event type="OnClick">LoadNew(&quot;&quot;)</rt:event>
    <rt:dyn type="ModName" mode="constant" value="&quot;ukc_-54&quot;"/> 
  </image>
  <image x="36.3618" y="132" width="85" height="25" xlink:href="obj_link.svg">
    <rt:dyn type="TextStr" mode="constant" value="&quot;ukc_00&quot;"/> 
    <rt:event type="OnClick">LoadNew(&quot;&quot;)</rt:event>
    <rt:dyn type="ModName" mode="constant" value="&quot;ukc_00&quot;"/> 
  </image>
  <image x="36.3618" y="167" width="85" height="25" xlink:href="obj_link.svg">
    <rt:dyn type="TextStr" mode="constant" value="&quot;ukc_+12&quot;"/> 
    <rt:event type="OnClick">LoadNew(&quot;&quot;)</rt:event>
    <rt:dyn type="ModName" mode="constant" value="&quot;ukc_+12&quot;"/> 
  </image>
  <image x="36.3618" y="202" width="85" height="25" xlink:href="obj_link.svg">
    <rt:dyn type="TextStr" mode="constant" value="&quot;ukc_+15&quot;"/> 
    <rt:event type="OnClick">LoadNew(&quot;&quot;)</rt:event>
    <rt:dyn type="ModName" mode="constant" value="&quot;ukc_+15&quot;"/> 
  </image>
  <image x="36.3618" y="237" width="85" height="25" xlink:href="obj_link.svg">
    <rt:dyn type="TextStr" mode="constant" value="&quot;ukc_+19&quot;"/> 
    <rt:event type="OnClick">LoadNew(&quot;&quot;)</rt:event>
    <rt:dyn type="ModName" mode="constant" value="&quot;ukc_+19&quot;"/> 
  </image>
  <image x="36.3618" y="272" width="85" height="25" xlink:href="obj_link.svg">
    <rt:dyn type="TextStr" mode="constant" value="&quot;ukc_+22&quot;"/> 
    <rt:event type="OnClick">LoadNew(&quot;&quot;)</rt:event>
    <rt:dyn type="ModName" mode="constant" value="&quot;ukc_+22&quot;"/> 
  </image>
  <image x="36.3618" y="307" width="85" height="25" xlink:href="obj_link.svg">
    <rt:dyn type="TextStr" mode="constant" value="&quot;ukc_+24&quot;"/> 
    <rt:event type="OnClick">LoadNew(&quot;&quot;)</rt:event>
    <rt:dyn type="ModName" mode="constant" value="&quot;ukc_+24&quot;"/> 
  </image>
  <image x="36.3618" y="342" width="85" height="25" xlink:href="obj_link.svg">
    <rt:dyn type="TextStr" mode="constant" value="&quot;ukc_+72&quot;"/> 
    <rt:event type="OnClick">LoadNew(&quot;&quot;)</rt:event>
    <rt:dyn type="ModName" mode="constant" value="&quot;ukc_+72&quot;"/> 
  </image>
</svg>
