<?xml  version="1.0" encoding="windows-1251"?>
<svg color="Col_BGSand" xmlns="http://www.w3.org/2000/svg" xmlns:rt="http://www.rts.co.at/2001/XMLSchema/RtSvgPL" xmlns:xlink="http://www.w3.org/1999/xlink" xmlns:xsi="http://www.w3.org/2001/XMLSchema-instance" xsi:schemaLocation="http://www.w3.org/2000/svg C:/RTS/\RtSvg\XML\SVG.xsd" viewBox="0 0 1940 1000" width="1940" height="1000" id="uptv_6" font-weight="bold">
  <title>II ступень очистки (бак 20KPF22BB002)</title>
  <rt:model modelversion="7.2.0.24" comment="UMod all_svo&#10;LMod uptv_5&#10;RMod uptv_7&#10;RASU" revision="3"/> 
  <line x1="1173" y1="430" x2="1173" y2="407.25" stroke="black" stroke-width="1"/> 
  <line x1="835.787" y1="431.97" x2="835.787" y2="407.484" stroke="black" stroke-width="1"/> 
  <polyline points="613.151,936.818 1149.52,936.818 1149.52,855" fill="none" stroke="black" stroke-width="3"/> 
  <polyline points="366.212,980.303 366.212,996.97 1750.06,996.97 1750.06,972.212" fill="none" stroke="black" stroke-width="3"/> 
  <line x1="366" y1="960.091" x2="366" y2="913" stroke="black" stroke-width="3"/> 
  <line x1="1149" y1="758.212" x2="1149" y2="627.424" stroke="black" stroke-width="3"/> 
  <polyline points="970.743,603.015 970.743,543.939 1049.55,543.939" fill="none" stroke="black" stroke-width="3"/> 
  <polygon points="1047.62,580.076 1047.62,430.076 1247.62,430.076 1247.62,580.076 1147.62,630.076" fill="Col_Grey3" stroke="black"/> 
  <g>
    <rect x="272.091" y="772.424" width="218.123" height="142.94" rx="0" ry="0" fill="Col_Grey3" stroke="black" stroke-width="1"/> 
    <image x="453.219" y="805.364" width="30" height="105" xlink:href="DS_ana_bar.svg">
      <title>20KPF22CL001</title>
      <rt:dyn type="FKKS" mode="constant" value="&quot;20KPF22CL001&quot;"/> 
    </image>
  </g>
  <line x1="1353" y1="113.722" x2="1353" y2="88.75" stroke="black" stroke-width="1"/> 
  <line x1="1680" y1="111.669" x2="1680" y2="90.4569" stroke="black" stroke-width="1"/> 
  <line x1="1749.91" y1="298.454" x2="1749.91" y2="269.697" stroke="black" stroke-width="3"/> 
  <line x1="1620.08" y1="297.424" x2="1620.08" y2="270.182" stroke="black" stroke-width="3"/> 
  <line x1="1288" y1="293.75" x2="1288" y2="272.636" stroke="black" stroke-width="3"/> 
  <line x1="1414" y1="296.602" x2="1414" y2="272.606" stroke="black" stroke-width="3"/> 
  <polyline points="768,684 768,669 860,669" fill="none" stroke="black"/> 
  <polyline points="713.409,600 713.409,540.909 761.909,540.909" fill="none" stroke="black" stroke-width="3"/> 
  <polyline points="1737.5,598 1737.5,647 1766.5,647" fill="none" stroke="black" transform="flipX(1798.26)"/> 
  <polyline points="1741.5,466 1741.5,515 1770.5,515" fill="none" stroke="black" transform="flipX(1798.26)"/> 
  <polyline points="1776.5,599 1776.5,649 1805.5,649" fill="none" stroke="black"/> 
  <polyline points="1774,466 1774,515 1803,515" fill="none" stroke="black"/> 
  <polyline points="132.031,48 1679,48 1679,66.9393" fill="none" stroke="black"/> 
  <polyline points="280,367.5 1173,367.5 1173,392.5" fill="none" stroke="black" stroke-width="1"/> 
  <polyline points="1544,340 1620,340 1620,308" fill="none" stroke="black" stroke-width="3"/> 
  <polygon points="1055.76,-162.393 1055.76,-143.393 1072.76,-153.393" transform="rotate(90 1.4013e-045 1.9569e-039) flipY(519.712) rotate(270 327.167 125.501) rotate(0 1.4013e-045 1.4013e-045) flipX(158.5)"/> 
  <line x1="971" y1="136" x2="971" y2="330" stroke="black" stroke-width="1"/> 
  <line x1="420.636" y1="708" x2="420.636" y2="374" stroke="black" stroke-width="3"/> 
  <text x="61" y="681" font-size="15">Фильтрат от I<tspan x="61" dy="15">ступени</tspan>
<tspan x="61" dy="15">очистки (фильтр</tspan>
<tspan x="61" dy="15">мембранный)</tspan>
  </text>
  <text x="855.849" y="118.03" font-size="15">20KPF28<tspan x="855.849" dy="15">AA008</tspan>
  </text>
  <text x="6.36368" y="56.0604" font-size="15" font-weight="bold">Сжатый воздух<tspan x="6.36368" dy="15">(0 SCB)</tspan>
  </text>
  <text x="957" y="30" font-size="30" text-anchor="middle">II ступень очистки (бак 20KPF22BB002)</text>
  <line x1="463.03" y1="896.061" x2="463.03" y2="896.061" stroke="black"/> 
  <line x1="713.5" y1="550.288" x2="713.5" y2="376" stroke="black" stroke-width="1"/> 
  <text x="304.199" y="788.705" font-size="15">20KPF22BB002</text>
  <image x="277.515" y="885.545" width="175" height="25" xlink:href="DS_ana.svg">
    <title>20KPF22CL001</title>
    <rt:dyn type="FKKS" mode="constant" value="&quot;20KPF22CL001&quot;"/> 
    <rt:dyn type="ShowFrame" mode="constant" value="true"/> 
    <rt:dyn type="Color_Readings" mode="constant" value="true"/> 
    <rt:dyn type="ValueToTheRight" mode="constant" value="false"/> 
    <rt:dyn type="X" mode="constant" value="&quot;L&quot;"/> 
  </image>
  <image x="454.818" y="779.454" width="25" height="25" xlink:href="bin_indicator.svg">
    <title>20KPF22CL002_XG01</title>
    <rt:dyn type="PointID" mode="constant" value="&quot;20KPF22CL002_XG01&quot;"/> 
  </image>
  <line x1="828.571" y1="329.361" x2="828.571" y2="487.134" stroke="black" stroke-width="3" transform="rotate(270 1309.23 224.091)"/> 
  <text x="599" y="117.5" font-size="15">20KPF28<tspan x="599" dy="15">AA007</tspan>
  </text>
  <path d="M-269.826 -56.1212 A8.80483 8.80483 0 1 1 -269.826 -38.5112 " fill="none" stroke="black" stroke-width="1" transform="flipX(717.67) flipX(560.7) rotate(360 1.4013e-045 4.33918e-039) matrix(-1 3.67394e-016 3.67394e-016 1 130.612 414.62)"/> 
  <path d="M-269.758 -84.1209 A8.80483 8.80483 0 1 1 -269.758 -66.5119 " fill="none" stroke="black" stroke-width="1" transform="flipX(717.706) flipX(560.7) rotate(360 1.4013e-045 4.33918e-039) matrix(-1 3.67394e-016 3.67394e-016 1 130.612 414.62)"/> 
  <path d="M-12.7542 -57.1212 A8.80483 8.80483 0 1 1 -12.7542 -39.5112 " fill="none" stroke="black" stroke-width="1" transform="flipX(975.17) flipX(560.7) rotate(360 1.4013e-045 4.33918e-039) matrix(-1 3.67394e-016 3.67394e-016 1 130.612 414.62)"/> 
  <path d="M-561.685 -57.1235 A8.80483 8.80483 0 1 1 -561.685 -39.5135 " fill="none" stroke="black" stroke-width="3" transform="flipX(424.706) flipX(560.7) rotate(360 1.4013e-045 4.33918e-039) matrix(-1 3.67394e-016 3.67394e-016 1 130.612 414.62)"/> 
  <line x1="640.454" y1="1593.73" x2="640.454" y2="1303.24" stroke="black" stroke-width="3" transform="rotate(270 500 944.242)"/> 
  <line x1="858" y1="825" x2="858" y2="784.091" stroke="black" stroke-width="3"/> 
  <line x1="1149" y1="836" x2="1149" y2="779.424" stroke="black" stroke-width="3"/> 
  <line x1="858" y1="761.606" x2="858" y2="740" stroke="black" stroke-width="3"/> 
  <image x="813" y="739" width="70" height="65" xlink:href="DS_CO_valve.svg" transform="rotate(270 0.000244141 -10.0001)">
    <title>20KPF28AA005</title>
    <rt:dyn type="Operate" mode="constant" value="true"/> 
    <rt:dyn type="KKS" mode="constant" value="&quot;20KPF28AA005&quot;"/> 
    <rt:dyn type="DATA_NARY" mode="constant" value="&quot;TPTS&quot;"/> 
  </image>
  <image x="1104.48" y="740.516" width="70" height="65" xlink:href="DS_CO_valve.svg" transform="rotate(270 0.000244141 -10.0001)">
    <title>20KPF28AA006</title>
    <rt:dyn type="Operate" mode="constant" value="true"/> 
    <rt:dyn type="KKS" mode="constant" value="&quot;20KPF28AA006&quot;"/> 
    <rt:dyn type="DATA_NARY" mode="constant" value="&quot;TPTS&quot;"/> 
  </image>
  <line x1="300" y1="772" x2="300" y2="746" stroke="black" stroke-width="3"/> 
  <text x="1094.76" y="452.561" font-size="15">20KPF28AT002</text>
  <image x="321.333" y="934.39" width="70" height="65" xlink:href="DS_CO_valve.svg" transform="rotate(270 0.000244141 -10.0001)">
    <title>20KPF22AA008</title>
    <rt:dyn type="Operate" mode="constant" value="true"/> 
    <rt:dyn type="KKS" mode="constant" value="&quot;20KPF22AA008&quot;"/> 
    <rt:dyn type="DATA_NARY" mode="constant" value="&quot;TPTS&quot;"/> 
  </image>
  <line x1="508" y1="1029.24" x2="508" y2="809.992" stroke="black" stroke-width="3" transform="rotate(270 500 944.242)"/> 
  <image x="561.167" y="894" width="70" height="65" xlink:href="DS_CO_valve.svg" transform="rotate(360 0.000244141 -10.0001)">
    <title>20KPF22AA007</title>
    <rt:dyn type="Operate" mode="constant" value="true"/> 
    <rt:dyn type="KKS" mode="constant" value="&quot;20KPF22AA007&quot;"/> 
    <rt:dyn type="DATA_NARY" mode="constant" value="&quot;TPTS&quot;"/> 
  </image>
  <line x1="858" y1="628.909" x2="858" y2="645" stroke="black" stroke-width="3"/> 
  <path d="M-126.773 227.877 A8.80483 8.80483 0 1 1 -126.773 245.487 " fill="none" stroke="black" stroke-width="3" transform="flipX(861.706) flipX(560.7) rotate(360 1.4013e-045 4.33918e-039) matrix(-1 3.67394e-016 3.67394e-016 1 130.612 414.62)"/> 
  <line x1="858" y1="724" x2="858" y2="659" stroke="black" stroke-width="3"/> 
  <path d="M-126.773 306.876 A8.80483 8.80483 0 1 1 -126.773 324.487 " fill="none" stroke="black" stroke-width="3" transform="flipX(861.706) flipX(560.7) rotate(360 1.4013e-045 4.33918e-039) matrix(-1 3.67394e-016 3.67394e-016 1 130.612 414.62)"/> 
  <g transform="rotate(180 1.4013e-045 3.15076e-039) flipX(448.403) flipX(467.434) rotate(30 1.4013e-045 1.4013e-045) flipY(224.444) rotate(180 1210.44 541.647)">
    <g transform="rotate(90 1212.44 532.643)">
      <polygon points="1533.9,2357.28 1547.29,2364.92 1547.29,2349.63 1533.9,2357.28" fill="black" stroke="black" stroke-width="1" transform="rotate(180 1279.17 367.814)"/> 
    </g>
  </g>
  <line x1="710.424" y1="1593.73" x2="710.424" y2="1405.24" stroke="black" stroke-width="1" transform="rotate(270 500 944.242)"/> 
  <line x1="711.242" y1="1383.24" x2="711.242" y2="1151.24" stroke="black" stroke-width="1" transform="rotate(270 500 944.242)"/> 
  <image x="910.515" y="691" width="70" height="65" xlink:href="DS_CO_valve.svg" transform="rotate(360 0.000244141 -10.0001)">
    <title>20KPF28AA004</title>
    <rt:dyn type="Operate" mode="constant" value="true"/> 
    <rt:dyn type="KKS" mode="constant" value="&quot;20KPF28AA004&quot;"/> 
    <rt:dyn type="DATA_NARY" mode="constant" value="&quot;TPTS&quot;"/> 
  </image>
  <g transform="rotate(180 1.4013e-045 3.15076e-039) flipX(448.403) flipX(467.434) rotate(30 1.4013e-045 1.4013e-045) flipY(224.444) rotate(180 1210.44 541.647)">
    <g transform="rotate(90 1212.44 532.643)">
      <polygon points="1530.62,2202.96 1544.01,2210.6 1544.01,2195.31 1530.62,2202.96" fill="black" stroke="black" stroke-width="1" transform="rotate(180 1279.17 367.814)"/> 
    </g>
  </g>
  <line x1="713.5" y1="139.5" x2="713.5" y2="332" stroke="black" stroke-width="1"/> 
  <path d="M430.323 -82.1235 A8.80483 8.80483 0 1 1 430.323 -64.5135 " fill="none" stroke="black" stroke-width="3" transform="flipX(1417.71) flipX(560.7) rotate(360 1.4013e-045 4.33918e-039) matrix(-1 3.67394e-016 3.67394e-016 1 130.612 414.62)"/> 
  <line x1="1288" y1="339" x2="1288" y2="316.75" stroke="black" stroke-width="3"/> 
  <image x="1242.86" y="273.773" width="70" height="65" xlink:href="DS_CO_valve.svg" transform="rotate(270 0.000244141 -10.0001)">
    <title>20KPF23AA003</title>
    <rt:dyn type="Operate" mode="constant" value="true"/> 
    <rt:dyn type="KKS" mode="constant" value="&quot;20KPF23AA003&quot;"/> 
    <rt:dyn type="DATA_NARY" mode="constant" value="&quot;TPTS&quot;"/> 
  </image>
  <line x1="714.333" y1="650.424" x2="714.333" y2="629.212" stroke="black" stroke-width="3"/> 
  <line x1="1749.91" y1="314.394" x2="1749.91" y2="459.091" stroke="black" stroke-width="3"/> 
  <image x="1704" y="271" width="70" height="65" xlink:href="DS_CO_valve.svg" transform="rotate(270 0.000244141 -10.0001)">
    <title>20KPF23AA006</title>
    <rt:dyn type="Operate" mode="constant" value="true"/> 
    <rt:dyn type="KKS" mode="constant" value="&quot;20KPF23AA006&quot;"/> 
    <rt:dyn type="DATA_NARY" mode="constant" value="&quot;TPTS&quot;"/> 
  </image>
  <polygon points="760.682,580.015 760.682,430.015 960.682,430.015 960.242,578.151 860.682,630.015" fill="Col_Grey3" stroke="black"/> 
  <image x="762.622" y="559.652" width="175" height="25" xlink:href="DS_ana.svg">
    <title>20KPF28CL001</title>
    <rt:dyn type="FKKS" mode="constant" value="&quot;20KPF28CL001&quot;"/> 
    <rt:dyn type="ShowFrame" mode="constant" value="true"/> 
    <rt:dyn type="Color_Readings" mode="constant" value="true"/> 
    <rt:dyn type="X" mode="constant" value="&quot;L&quot;"/> 
    <rt:dyn type="ValueToTheRight" mode="constant" value="false"/> 
  </image>
  <line x1="635.27" y1="351.186" x2="663.107" y2="107.28" stroke="black" stroke-width="1" transform="rotate(300 993.076 182.727)"/> 
  <image x="1049.56" y="558.713" width="175" height="25" xlink:href="DS_ana.svg">
    <title>20KPF28CL003</title>
    <rt:dyn type="FKKS" mode="constant" value="&quot;20KPF28CL003&quot;"/> 
    <rt:dyn type="ShowFrame" mode="constant" value="true"/> 
    <rt:dyn type="Color_Readings" mode="constant" value="true"/> 
    <rt:dyn type="X" mode="constant" value="&quot;L&quot;"/> 
    <rt:dyn type="ValueToTheRight" mode="constant" value="false"/> 
  </image>
  <line x1="778.687" y1="599.713" x2="806.524" y2="355.806" stroke="black" stroke-width="1" transform="rotate(300 993.076 182.727)"/> 
  <line x1="1413.7" y1="995.939" x2="1413.7" y2="759.091" stroke="black" stroke-width="3"/> 
  <line x1="1413.67" y1="737.364" x2="1413.67" y2="349" stroke="black" stroke-width="3"/> 
  <image x="1368.98" y="715.864" width="70" height="65" xlink:href="DS_CO_valve.svg" transform="rotate(270 0.000244141 -10.0001)">
    <title>20KPF22AA009</title>
    <rt:dyn type="Operate" mode="constant" value="true"/> 
    <rt:dyn type="KKS" mode="constant" value="&quot;20KPF22AA009&quot;"/> 
    <rt:dyn type="DATA_NARY" mode="constant" value="&quot;TPTS&quot;"/> 
  </image>
  <path d="M764.603 42.8765 A8.80483 8.80483 0 1 1 764.603 60.4865 " fill="none" stroke="black" stroke-width="3" transform="flipX(1753.35) flipX(560.7) rotate(360 1.4013e-045 4.33918e-039) matrix(-1 3.67394e-016 3.67394e-016 1 130.612 414.62)"/> 
  <path d="M764.603 174.876 A8.80483 8.80483 0 1 1 764.603 192.486 " fill="none" stroke="black" stroke-width="3" transform="flipX(1753.35) flipX(560.7) rotate(360 1.4013e-045 4.33918e-039) matrix(-1 3.67394e-016 3.67394e-016 1 130.612 414.62)"/> 
  <line x1="1749.91" y1="589.394" x2="1749.91" y2="475.727" stroke="black" stroke-width="3"/> 
  <line x1="1749.91" y1="752.454" x2="1749.91" y2="607.758" stroke="black" stroke-width="3"/> 
  <image x="1323.09" y="903.121" width="175" height="25" xlink:href="DS_ana.svg">
    <title>20KPF22CP001</title>
    <rt:dyn type="FKKS" mode="constant" value="&quot;20KPF22CP001&quot;"/> 
    <rt:dyn type="ShowFrame" mode="constant" value="true"/> 
    <rt:dyn type="Color_Readings" mode="constant" value="true"/> 
    <rt:dyn type="X" mode="constant" value="&quot;P&quot;"/> 
    <rt:dyn type="ValueToTheRight" mode="constant" value="false"/> 
  </image>
  <line x1="1749.55" y1="933.848" x2="1749.55" y2="761.121" stroke="black" stroke-width="3"/> 
  <image x="1704.5" y="716.5" width="70" height="65" xlink:href="DS_CO_valve.svg" transform="rotate(270 0.000244141 -10.0001)">
    <title>20KPF22AA010</title>
    <rt:dyn type="Operate" mode="constant" value="true"/> 
    <rt:dyn type="KKS" mode="constant" value="&quot;20KPF22AA010&quot;"/> 
    <rt:dyn type="DATA_NARY" mode="constant" value="&quot;TPTS&quot;"/> 
  </image>
  <image x="1658.48" y="903.121" width="175" height="25" xlink:href="DS_ana.svg">
    <title>20KPF22CP003</title>
    <rt:dyn type="FKKS" mode="constant" value="&quot;20KPF22CP003&quot;"/> 
    <rt:dyn type="ShowFrame" mode="constant" value="true"/> 
    <rt:dyn type="Color_Readings" mode="constant" value="true"/> 
    <rt:dyn type="X" mode="constant" value="&quot;P&quot;"/> 
    <rt:dyn type="ValueToTheRight" mode="constant" value="false"/> 
  </image>
  <text x="607" y="599.5" font-size="15">20KPF28<tspan x="607" dy="15">AA001</tspan>
  </text>
  <line x1="767" y1="705.303" x2="767" y2="732.364" stroke="black" stroke-width="1"/> 
  <image x="722.697" y="667.364" width="70" height="65" xlink:href="DS_CO_valve.svg" transform="rotate(270 0.000244141 -10.0001)">
    <title>20KPF28AA003</title>
    <rt:dyn type="Operate" mode="constant" value="true"/> 
    <rt:dyn type="KKS" mode="constant" value="&quot;20KPF28AA003&quot;"/> 
    <rt:dyn type="DATA_NARY" mode="constant" value="&quot;TPTS&quot;"/> 
  </image>
  <line x1="858" y1="937.394" x2="858" y2="847" stroke="black" stroke-width="3"/> 
  <image x="813.213" y="805.47" width="70" height="65" xlink:href="DS_CO_valve.svg" transform="rotate(270 0.000244141 -10.0001)">
    <title>20KPF22AA011</title>
    <rt:dyn type="Operate" mode="constant" value="true"/> 
    <rt:dyn type="KKS" mode="constant" value="&quot;20KPF22AA011&quot;"/> 
    <rt:dyn type="DATA_NARY" mode="constant" value="&quot;TPTS&quot;"/> 
  </image>
  <image x="1104.48" y="805.47" width="70" height="65" xlink:href="DS_CO_valve.svg" transform="rotate(270 0.000244141 -10.0001)">
    <title>20KPF22AA012</title>
    <rt:dyn type="Operate" mode="constant" value="true"/> 
    <rt:dyn type="KKS" mode="constant" value="&quot;20KPF22AA012&quot;"/> 
    <rt:dyn type="DATA_NARY" mode="constant" value="&quot;TPTS&quot;"/> 
  </image>
  <image x="1114.12" y="865.698" width="70" height="70" xlink:href="DS_motor.svg" transform="rotate(270 0 0) flipX(0.000512646) rotate(180 0.000244141 -0.000244141)">
    <title>20KPF22AP004</title>
    <rt:dyn type="KKS" mode="constant" value="&quot;20KPF22AP004&quot;"/> 
    <rt:dyn type="DATA_NARY" mode="constant" value="&quot;TPTS&quot;"/> 
    <rt:dyn type="Operate" mode="constant" value="true"/> 
  </image>
  <image x="822.152" y="865.698" width="70" height="70" xlink:href="DS_motor.svg" transform="rotate(270 0 0) flipX(0.000512646) rotate(180 0.000244141 -0.000244141)">
    <title>20KPF22AP003</title>
    <rt:dyn type="KKS" mode="constant" value="&quot;20KPF22AP003&quot;"/> 
    <rt:dyn type="DATA_NARY" mode="constant" value="&quot;TPTS&quot;"/> 
    <rt:dyn type="Operate" mode="constant" value="true"/> 
  </image>
  <text x="810.182" y="452.561" font-size="15">20KPF28AT001</text>
  <line x1="971" y1="548.25" x2="971" y2="376" stroke="black" stroke-width="1"/> 
  <image x="928.394" y="848.121" width="175" height="25" xlink:href="DS_ana.svg">
    <title>20KPF22CP008</title>
    <rt:dyn type="FKKS" mode="constant" value="&quot;20KPF22CP008&quot;"/> 
    <rt:dyn type="ShowFrame" mode="constant" value="true"/> 
    <rt:dyn type="Color_Readings" mode="constant" value="true"/> 
    <rt:dyn type="X" mode="constant" value="&quot;P&quot;"/> 
    <rt:dyn type="ValueToTheRight" mode="constant" value="false"/> 
  </image>
  <image x="645.121" y="848.121" width="175" height="25" xlink:href="DS_ana.svg">
    <title>20KPF22CP006</title>
    <rt:dyn type="FKKS" mode="constant" value="&quot;20KPF22CP006&quot;"/> 
    <rt:dyn type="ShowFrame" mode="constant" value="true"/> 
    <rt:dyn type="Color_Readings" mode="constant" value="true"/> 
    <rt:dyn type="X" mode="constant" value="&quot;P&quot;"/> 
    <rt:dyn type="ValueToTheRight" mode="constant" value="false"/> 
  </image>
  <polygon points="916.97,156.334 916.97,175.334 933.97,165.334" transform="flipX(154.106) rotate(90 1.4013e-045 1.9569e-039) flipY(519.712) rotate(270 327.167 125.501) rotate(0 1.4013e-045 1.4013e-045) flipX(158.5)"/> 
  <image x="1657.94" y="786.03" width="175" height="25" xlink:href="DS_ana.svg">
    <title>20KPF22CP004</title>
    <rt:dyn type="FKKS" mode="constant" value="&quot;20KPF22CP004&quot;"/> 
    <rt:dyn type="ShowFrame" mode="constant" value="true"/> 
    <rt:dyn type="Color_Readings" mode="constant" value="true"/> 
    <rt:dyn type="X" mode="constant" value="&quot;P&quot;"/> 
    <rt:dyn type="ValueToTheRight" mode="constant" value="false"/> 
  </image>
  <line x1="828.609" y1="518.952" x2="828.609" y2="663.618" stroke="black" stroke-width="3" transform="rotate(270 1309.23 224.091)"/> 
  <image x="1556.28" y="661.667" width="70" height="65" xlink:href="DS_CO_valve.svg" transform="rotate(360 0.000244141 -10.0001)">
    <title>20KPF22AA015</title>
    <rt:dyn type="Operate" mode="constant" value="true"/> 
    <rt:dyn type="KKS" mode="constant" value="&quot;20KPF22AA015&quot;"/> 
    <rt:dyn type="DATA_NARY" mode="constant" value="&quot;TPTS&quot;"/> 
  </image>
  <line x1="1414" y1="332.788" x2="1414" y2="314.151" stroke="black" stroke-width="3"/> 
  <line x1="1353" y1="70.1428" x2="1353" y2="49" stroke="black" stroke-width="1"/> 
  <text x="1554.91" y="733.894" font-size="15">20KPF22<tspan x="1554.91" dy="15">AA015</tspan>
  </text>
  <text x="723" y="395.5" font-size="15">20KPF28<tspan x="723" dy="15">AA009</tspan>
  </text>
  <text x="1058" y="395.5" font-size="15">20KPF28<tspan x="1058" dy="15">AA010</tspan>
  </text>
  <text x="1301.93" y="299.5" font-size="15">20KPF23<tspan x="1301.93" dy="15">AA005</tspan>
  </text>
  <text x="1175" y="303.016" font-size="15">20KPF23<tspan x="1175" dy="15">AA003</tspan>
  </text>
  <text x="1242" y="77.5" font-size="15">20KPF23<tspan x="1242" dy="15">AA001</tspan>
  </text>
  <text x="1493.92" y="367.015" font-size="15">20KPF23<tspan x="1493.92" dy="15">AA007</tspan>
  </text>
  <text x="1636.54" y="285.5" font-size="15">20KPF23<tspan x="1636.54" dy="15">AA006</tspan>
  </text>
  <text x="1508" y="286.925" font-size="15">20KPF23<tspan x="1508" dy="15">AA004</tspan>
  </text>
  <text x="1035" y="824.5" font-size="15">20KPF22<tspan x="1035" dy="15">AA012</tspan>
  </text>
  <text x="1039" y="770.5" font-size="15">20KPF28<tspan x="1039" dy="15">AA006</tspan>
  </text>
  <text x="745" y="826.5" font-size="15">20KPF22<tspan x="745" dy="15">AA011</tspan>
  </text>
  <text x="214" y="369" font-size="15" font-weight="bold">Сдувка</text>
  <line x1="971" y1="49" x2="971" y2="103" stroke="black" stroke-width="1"/> 
  <image x="926.287" y="87.9697" width="70" height="65" xlink:href="DS_CO_valve.svg" transform="rotate(270 0.000244141 -10.0001)">
    <title>20KPF28AA008</title>
    <rt:dyn type="Operate" mode="constant" value="true"/> 
    <rt:dyn type="KKS" mode="constant" value="&quot;20KPF28AA008&quot;"/> 
    <rt:dyn type="DATA_NARY" mode="constant" value="&quot;TPTS&quot;"/> 
  </image>
  <line x1="1066.84" y1="518.952" x2="1066.84" y2="815.042" stroke="black" stroke-width="1" transform="rotate(270 1309.23 224.091)"/> 
  <line x1="935" y1="518.952" x2="935" y2="814.042" stroke="black" stroke-width="1" transform="rotate(270 1309.23 224.091)"/> 
  <line x1="1066.65" y1="328.8" x2="1066.65" y2="491.679" stroke="black" stroke-width="1" transform="rotate(270 1309.23 224.091)"/> 
  <line x1="935" y1="329.77" x2="935" y2="491.679" stroke="black" stroke-width="1" transform="rotate(270 1309.23 224.091)"/> 
  <image x="1556.28" y="423.939" width="70" height="65" xlink:href="DS_CO_valve.svg" transform="rotate(360 0.000244141 -10.0001)">
    <title>20KPF22AA017</title>
    <rt:dyn type="Operate" mode="constant" value="true"/> 
    <rt:dyn type="KKS" mode="constant" value="&quot;20KPF22AA017&quot;"/> 
    <rt:dyn type="DATA_NARY" mode="constant" value="&quot;TPTS&quot;"/> 
  </image>
  <image x="1556.28" y="555.455" width="70" height="65" xlink:href="DS_CO_valve.svg" transform="rotate(360 0.000244141 -10.0001)">
    <title>20KPF22AA013</title>
    <rt:dyn type="Operate" mode="constant" value="true"/> 
    <rt:dyn type="KKS" mode="constant" value="&quot;20KPF22AA013&quot;"/> 
    <rt:dyn type="DATA_NARY" mode="constant" value="&quot;TPTS&quot;"/> 
  </image>
  <image x="1780.06" y="472.546" width="70" height="65" xlink:href="DS_CO_valve.svg" transform="rotate(360 0.000244141 -10.0001)">
    <title>20KPF22AA018</title>
    <rt:dyn type="Operate" mode="constant" value="true"/> 
    <rt:dyn type="KKS" mode="constant" value="&quot;20KPF22AA018&quot;"/> 
    <rt:dyn type="DATA_NARY" mode="constant" value="&quot;TPTS&quot;"/> 
  </image>
  <image x="1783.58" y="605.424" width="70" height="65" xlink:href="DS_CO_valve.svg" transform="rotate(360 0.000244141 -10.0001)">
    <title>20KPF22AA014</title>
    <rt:dyn type="Operate" mode="constant" value="true"/> 
    <rt:dyn type="KKS" mode="constant" value="&quot;20KPF22AA014&quot;"/> 
    <rt:dyn type="DATA_NARY" mode="constant" value="&quot;TPTS&quot;"/> 
  </image>
  <polygon points="-676.002,256.213 -676.002,275.213 -659.002,265.213" transform="flipX(154.106) rotate(90 1.4013e-045 1.9569e-039) flipY(519.712) rotate(270 327.167 125.501) rotate(0 1.4013e-045 1.4013e-045) flipX(158.5)"/> 
  <polygon points="-676.002,387.637 -676.002,406.637 -659.002,396.637" transform="flipX(154.106) rotate(90 1.4013e-045 1.9569e-039) flipY(519.712) rotate(270 327.167 125.501) rotate(0 1.4013e-045 1.4013e-045) flipX(158.5)"/> 
  <text x="1843.85" y="448.076" font-size="15">Перекись</text>
  <text x="1849.91" y="578.758" font-size="15">Сорбент</text>
  <text x="751" y="886.5" font-size="15">20KPF22<tspan x="751" dy="15">AP003</tspan>
  </text>
  <text x="194" y="707.5" font-size="15">20KPF22<tspan x="194" dy="15">AA002</tspan>
  </text>
  <text x="313.122" y="707.621" font-size="15">20KPF22<tspan x="313.122" dy="15">AA004</tspan>
  </text>
  <text x="559.804" y="966.11" font-size="15">20KPF22<tspan x="559.804" dy="15">AA007</tspan>
  </text>
  <text x="747" y="769.5" font-size="15">20KPF28<tspan x="747" dy="15">AA005</tspan>
  </text>
  <text x="980.09" y="608" font-size="15">20KPF28<tspan x="980.09" dy="15">AA002</tspan>
  </text>
  <text x="909" y="762.652" font-size="15">20KPF28<tspan x="909" dy="15">AA004</tspan>
  </text>
  <text x="252" y="964.5" font-size="15">20KPF22<tspan x="252" dy="15">AA008</tspan>
  </text>
  <text x="545" y="723" font-size="15">Сорбент в I ступень<tspan x="545" dy="15">очистки (бак</tspan>
<tspan x="545" dy="15">20KPF21BB001(002))</tspan>
  </text>
  <image x="356.364" y="19.1817" width="175" height="25" xlink:href="DS_ana.svg">
    <title>20KPF21CT001</title>
    <rt:dyn type="FKKS" mode="constant" value="&quot;20KPF21CT001&quot;"/> 
    <rt:dyn type="ShowFrame" mode="constant" value="true"/> 
    <rt:dyn type="Color_Readings" mode="constant" value="true"/> 
    <rt:dyn type="X" mode="constant" value="&quot;T&quot;"/> 
    <rt:dyn type="ValueToTheRight" mode="constant" value="false"/> 
  </image>
  <rect x="1588" y="1708.29" width="162.123" height="147.575" rx="1.51514" ry="1.51514" fill="Col_Grey3" stroke="black" stroke-width="1" transform="rotate(270 714.129 1147.96)"/> 
  <rect x="1631.21" y="1747.68" width="80" height="68" rx="0" ry="0" fill="Col_Grey4" stroke="black" stroke-width="1" transform="rotate(270 714.129 1147.96)"/> 
  <image x="1278.46" y="157.65" width="70" height="70" xlink:href="DS_motor.svg" transform="rotate(180 0 0) flipX(0.000512646) rotate(180 0.000244141 -0.000244141)">
    <rt:dyn type="DeviceType" mode="constant" value="&quot;motor&quot;"/> 
    <rt:dyn type="DATA_NARY" mode="constant" value="&quot;TPTS&quot;"/> 
  </image>
  <image x="1347.79" y="157.65" width="70" height="70" xlink:href="DS_motor.svg" transform="rotate(180 0 0) flipX(0.000512646) rotate(180 0.000244141 -0.000244141)">
    <rt:dyn type="DeviceType" mode="constant" value="&quot;motor&quot;"/> 
    <rt:dyn type="DATA_NARY" mode="constant" value="&quot;TPTS&quot;"/> 
  </image>
  <image x="1281.9" y="220.77" width="25" height="25" xlink:href="bin_indicator.svg">
    <title>20KPF23AT001A_XG01</title>
    <rt:dyn type="PointID" mode="constant" value="&quot;20KPF23AT001A_XG01&quot;"/> 
  </image>
  <image x="1281.9" y="245.11" width="25" height="25" xlink:href="bin_indicator.svg">
    <title>20KPF23AT001B_XG01</title>
    <rt:dyn type="PointID" mode="constant" value="&quot;20KPF23AT001B_XG01&quot;"/> 
  </image>
  <text x="1284.13" y="134.219" font-size="15">20KPF23AT001</text>
  <image x="651.788" y="908" width="175" height="25" xlink:href="DS_ana.svg">
    <title>20KPF22CP005</title>
    <rt:dyn type="FKKS" mode="constant" value="&quot;20KPF22CP005&quot;"/> 
    <rt:dyn type="ShowFrame" mode="constant" value="true"/> 
    <rt:dyn type="Color_Readings" mode="constant" value="true"/> 
    <rt:dyn type="X" mode="constant" value="&quot;P&quot;"/> 
    <rt:dyn type="ValueToTheRight" mode="constant" value="false"/> 
  </image>
  <image x="945.061" y="908" width="175" height="25" xlink:href="DS_ana.svg">
    <title>20KPF22CP007</title>
    <rt:dyn type="FKKS" mode="constant" value="&quot;20KPF22CP007&quot;"/> 
    <rt:dyn type="ShowFrame" mode="constant" value="true"/> 
    <rt:dyn type="Color_Readings" mode="constant" value="true"/> 
    <rt:dyn type="X" mode="constant" value="&quot;P&quot;"/> 
    <rt:dyn type="ValueToTheRight" mode="constant" value="false"/> 
  </image>
  <image x="1200.12" y="472.333" width="25" height="25" xlink:href="bin_indicator.svg">
    <title>20KPF28CL004_XG01</title>
    <rt:dyn type="PointID" mode="constant" value="&quot;20KPF28CL004_XG01&quot;"/> 
  </image>
  <image x="911" y="472.333" width="25" height="25" xlink:href="bin_indicator.svg">
    <title>20KPF28CL002_XG01</title>
    <rt:dyn type="PointID" mode="constant" value="&quot;20KPF28CL002_XG01&quot;"/> 
  </image>
  <line x1="713.912" y1="348" x2="713.912" y2="359" stroke="black" stroke-width="1"/> 
  <line x1="420" y1="772.393" x2="420" y2="744.424" stroke="black" stroke-width="3"/> 
  <image x="375.424" y="695" width="70" height="65" xlink:href="DS_CO_valve.svg" transform="rotate(270 0.000244141 -10.0001)">
    <title>20KPF22AA004</title>
    <rt:dyn type="Operate" mode="constant" value="true"/> 
    <rt:dyn type="KKS" mode="constant" value="&quot;20KPF22AA004&quot;"/> 
    <rt:dyn type="DATA_NARY" mode="constant" value="&quot;TPTS&quot;"/> 
  </image>
  <text x="425" y="623.5" font-size="15">Фильтрат в<tspan x="425" dy="15">контрольный бак</tspan>
<tspan x="425" dy="15">20KPF24BB001/</tspan>
<tspan x="425" dy="15">20KPF24BB002/</tspan>
<tspan x="425" dy="15">20KPF24BB003</tspan>
  </text>
  <image x="1369.01" y="271.258" width="70" height="65" xlink:href="DS_CO_valve.svg" transform="rotate(270 0.000244141 -10.0001)">
    <title>20KPF23AA005</title>
    <rt:dyn type="Operate" mode="constant" value="true"/> 
    <rt:dyn type="KKS" mode="constant" value="&quot;20KPF23AA005&quot;"/> 
    <rt:dyn type="DATA_NARY" mode="constant" value="&quot;TPTS&quot;"/> 
  </image>
  <line x1="835.787" y1="392.485" x2="835.787" y2="367.999" stroke="black" stroke-width="1"/> 
  <image x="790.469" y="366.651" width="70" height="65" xlink:href="DS_CO_valve.svg" transform="rotate(270 0.000244141 -10.0001)">
    <title>20KPF28AA009</title>
    <rt:dyn type="Operate" mode="constant" value="true"/> 
    <rt:dyn type="KKS" mode="constant" value="&quot;20KPF28AA009&quot;"/> 
    <rt:dyn type="DATA_NARY" mode="constant" value="&quot;TPTS&quot;"/> 
  </image>
  <image x="1128.11" y="367.197" width="70" height="65" xlink:href="DS_CO_valve.svg" transform="rotate(270 0.000244141 -10.0001)">
    <title>20KPF28AA010</title>
    <rt:dyn type="Operate" mode="constant" value="true"/> 
    <rt:dyn type="KKS" mode="constant" value="&quot;20KPF28AA010&quot;"/> 
    <rt:dyn type="DATA_NARY" mode="constant" value="&quot;TPTS&quot;"/> 
  </image>
  <line x1="603.909" y1="652.515" x2="603.909" y2="532.818" stroke="black" stroke-width="1"/> 
  <image x="207" y="658" width="175" height="25" xlink:href="DS_ana.svg">
    <title>20KPF27CF001</title>
    <rt:dyn type="FKKS" mode="constant" value="&quot;20KPF27CF001&quot;"/> 
    <rt:dyn type="ShowFrame" mode="constant" value="true"/> 
    <rt:dyn type="Color_Readings" mode="constant" value="true"/> 
    <rt:dyn type="X" mode="constant" value="&quot;F&quot;"/> 
    <rt:dyn type="ValueToTheRight" mode="constant" value="false"/> 
  </image>
  <polygon points="1094.91,480.334 1094.91,499.334 1111.91,489.334" transform="rotate(90 1.4013e-045 1.9569e-039) flipY(519.712) rotate(270 327.167 125.501) rotate(0 1.4013e-045 1.4013e-045) flipX(158.5)"/> 
  <image x="1308.41" y="48.5611" width="70" height="65" xlink:href="DS_CO_valve.svg" transform="rotate(270 0.000244141 -10.0001)">
    <title>20KPF23AA001</title>
    <rt:dyn type="Operate" mode="constant" value="true"/> 
    <rt:dyn type="KKS" mode="constant" value="&quot;20KPF23AA001&quot;"/> 
    <rt:dyn type="DATA_NARY" mode="constant" value="&quot;TPTS&quot;"/> 
  </image>
  <rect x="1590.51" y="2042.06" width="162.123" height="147.575" rx="1.51514" ry="1.51514" fill="Col_Grey3" stroke="black" stroke-width="1" transform="rotate(270 714.129 1147.96)"/> 
  <rect x="1632.72" y="2081.45" width="80" height="68" rx="0" ry="0" fill="Col_Grey4" stroke="black" stroke-width="1" transform="rotate(270 714.129 1147.96)"/> 
  <image x="1612.23" y="155.135" width="70" height="70" xlink:href="DS_motor.svg" transform="rotate(180 0 0) flipX(0.000512646) rotate(180 0.000244141 -0.000244141)">
    <rt:dyn type="DeviceType" mode="constant" value="&quot;motor&quot;"/> 
    <rt:dyn type="DATA_NARY" mode="constant" value="&quot;TPTS&quot;"/> 
  </image>
  <image x="1681.56" y="155.135" width="70" height="70" xlink:href="DS_motor.svg" transform="rotate(180 0 0) flipX(0.000512646) rotate(180 0.000244141 -0.000244141)">
    <rt:dyn type="DeviceType" mode="constant" value="&quot;motor&quot;"/> 
    <rt:dyn type="DATA_NARY" mode="constant" value="&quot;TPTS&quot;"/> 
  </image>
  <image x="1615.67" y="218.255" width="25" height="25" xlink:href="bin_indicator.svg">
    <title>20KPF23AT002A_XG01</title>
    <rt:dyn type="PointID" mode="constant" value="&quot;20KPF23AT002A_XG01&quot;"/> 
  </image>
  <image x="1615.67" y="242.595" width="25" height="25" xlink:href="bin_indicator.svg">
    <title>20KPF23AT002B_XG01</title>
    <rt:dyn type="PointID" mode="constant" value="&quot;20KPF23AT002B_XG01&quot;"/> 
  </image>
  <text x="1617.9" y="132.704" font-size="15">20KPF23AT002</text>
  <line x1="971.84" y1="347" x2="971.84" y2="359" stroke="black" stroke-width="1"/> 
  <image x="1635" y="46.8485" width="70" height="65" xlink:href="DS_CO_valve.svg" transform="rotate(270 0.000244141 -10.0001)">
    <title>20KPF23AA002</title>
    <rt:dyn type="Operate" mode="constant" value="true"/> 
    <rt:dyn type="KKS" mode="constant" value="&quot;20KPF23AA002&quot;"/> 
    <rt:dyn type="DATA_NARY" mode="constant" value="&quot;TPTS&quot;"/> 
  </image>
  <image x="1576" y="271" width="70" height="65" xlink:href="DS_CO_valve.svg" transform="rotate(270 0.000244141 -10.0001)">
    <title>20KPF23AA004</title>
    <rt:dyn type="Operate" mode="constant" value="true"/> 
    <rt:dyn type="KKS" mode="constant" value="&quot;20KPF23AA004&quot;"/> 
    <rt:dyn type="DATA_NARY" mode="constant" value="&quot;TPTS&quot;"/> 
  </image>
  <text x="777" y="697" font-size="15">20KPF28<tspan x="777" dy="15">AA003</tspan>
  </text>
  <image x="513" y="533" width="175" height="25" xlink:href="DS_ana.svg">
    <title>20KPF28CF001</title>
    <rt:dyn type="FKKS" mode="constant" value="&quot;20KPF28CF001&quot;"/> 
    <rt:dyn type="ShowFrame" mode="constant" value="true"/> 
    <rt:dyn type="Color_Readings" mode="constant" value="true"/> 
    <rt:dyn type="X" mode="constant" value="&quot;F&quot;"/> 
    <rt:dyn type="ValueToTheRight" mode="constant" value="false"/> 
  </image>
  <text x="1565" y="77.5" font-size="15">20KPF23<tspan x="1565" dy="15">AA002</tspan>
  </text>
  <text x="1779.45" y="543.5" font-size="15">20KPF22<tspan x="1779.45" dy="15">AA018</tspan>
  </text>
  <text x="1554.91" y="626.743" font-size="15">20KPF22<tspan x="1554.91" dy="15">AA013</tspan>
  </text>
  <text x="1782.48" y="673.712" font-size="15">20KPF22<tspan x="1782.48" dy="15">AA014</tspan>
  </text>
  <text x="1300" y="745.5" font-size="15">20KPF22<tspan x="1300" dy="15">AA009</tspan>
  </text>
  <text x="1637" y="745.5" font-size="15">20KPF22<tspan x="1637" dy="15">AA010</tspan>
  </text>
  <text x="1449.85" y="854.562" font-size="15">20KPF22<tspan x="1449.85" dy="15">AP001</tspan>
  </text>
  <text x="1786.33" y="852.894" font-size="15">20KPF22<tspan x="1786.33" dy="15">AP002</tspan>
  </text>
  <text x="1043" y="888.5" font-size="15">20KPF22<tspan x="1043" dy="15">AP004</tspan>
  </text>
  <text x="241.97" y="109.955" font-size="15">20KPF20<tspan x="241.97" dy="15">AT003</tspan>
  </text>
  <line x1="713.5" y1="49" x2="713.5" y2="103" stroke="black" stroke-width="1"/> 
  <image x="668.166" y="87.9697" width="70" height="65" xlink:href="DS_CO_valve.svg" transform="rotate(270 0.000244141 -10.0001)">
    <title>20KPF28AA007</title>
    <rt:dyn type="Operate" mode="constant" value="true"/> 
    <rt:dyn type="KKS" mode="constant" value="&quot;20KPF28AA007&quot;"/> 
    <rt:dyn type="DATA_NARY" mode="constant" value="&quot;TPTS&quot;"/> 
  </image>
  <image x="668.818" y="582.667" width="70" height="65" xlink:href="DS_CO_valve.svg" transform="rotate(270 0.000244141 -10.0001)">
    <title>20KPF28AA001</title>
    <rt:dyn type="Operate" mode="constant" value="true"/> 
    <rt:dyn type="KKS" mode="constant" value="&quot;20KPF28AA001&quot;"/> 
    <rt:dyn type="DATA_NARY" mode="constant" value="&quot;TPTS&quot;"/> 
  </image>
  <polyline points="162.121,690.894 300,690.894 300,718.167" fill="none" stroke="black" stroke-width="3"/> 
  <image x="255.682" y="694.879" width="70" height="65" xlink:href="DS_CO_valve.svg" transform="rotate(270 0.000244141 -10.0001)">
    <title>20KPF22AA002</title>
    <rt:dyn type="Operate" mode="constant" value="true"/> 
    <rt:dyn type="KKS" mode="constant" value="&quot;20KPF22AA002&quot;"/> 
    <rt:dyn type="DATA_NARY" mode="constant" value="&quot;TPTS&quot;"/> 
  </image>
  <polyline points="420,359 420,340.909 1514.7,340.909" fill="none" stroke="black" stroke-width="3"/> 
  <image x="1495.28" y="297.485" width="70" height="65" xlink:href="DS_CO_valve.svg" transform="rotate(360 0.000244141 -10.0001)">
    <title>20KPF23AA007</title>
    <rt:dyn type="Operate" mode="constant" value="true"/> 
    <rt:dyn type="KKS" mode="constant" value="&quot;20KPF23AA007&quot;"/> 
    <rt:dyn type="DATA_NARY" mode="constant" value="&quot;TPTS&quot;"/> 
  </image>
  <text x="1313.09" y="263.5" font-size="15">звук</text>
  <text x="1649.91" y="260.47" font-size="15">звук</text>
  <text x="1311.58" y="245.318" font-size="15">свет</text>
  <text x="1649.91" y="242.288" font-size="15">свет</text>
  <image x="1704.09" y="925.727" width="70" height="65" xlink:href="DS_CO_valve.svg" transform="rotate(270 0.000244141 -10.0001)">
    <title>20KPF22AA016</title>
    <rt:dyn type="Operate" mode="constant" value="true"/> 
    <rt:dyn type="KKS" mode="constant" value="&quot;20KPF22AA016&quot;"/> 
    <rt:dyn type="DATA_NARY" mode="constant" value="&quot;TPTS&quot;"/> 
  </image>
  <text x="1635" y="958.5" font-size="15">20KPF22<tspan x="1635" dy="15">AA016</tspan>
  </text>
  <text x="11" y="24.5" font-size="15" font-weight="bold">UPTV_6</text>
  <path d="M-12.7542 -84.1212 A8.80483 8.80483 0 1 1 -12.7542 -66.5112 " fill="none" stroke="black" stroke-width="1" transform="flipX(975.17) flipX(560.7) rotate(360 1.4013e-045 4.33918e-039) matrix(-1 3.67394e-016 3.67394e-016 1 130.612 414.62)"/> 
  <polyline points="572,652 971.273,652 971.273,629.788" fill="none" stroke="black" stroke-width="3"/> 
  <image x="926.303" y="578" width="70" height="65" xlink:href="DS_CO_valve.svg" transform="rotate(270 0.000244141 -10.0001)">
    <title>20KPF28AA002</title>
    <rt:dyn type="Operate" mode="constant" value="true"/> 
    <rt:dyn type="KKS" mode="constant" value="&quot;20KPF28AA002&quot;"/> 
    <rt:dyn type="DATA_NARY" mode="constant" value="&quot;TPTS&quot;"/> 
  </image>
  <image x="1437.97" y="126.242" width="25" height="25" xlink:href="bin_indicator.svg">
    <title>20KPF23CL001_XG01</title>
    <rt:dyn type="PointID" mode="constant" value="&quot;20KPF23CL001_XG01&quot;"/> 
  </image>
  <text x="1469.97" y="142.742" font-size="15">Протечка</text>
  <image x="1767.21" y="126.758" width="25" height="25" xlink:href="bin_indicator.svg">
    <title>20KPF23CL002_XG01</title>
    <rt:dyn type="PointID" mode="constant" value="&quot;20KPF23CL002_XG01&quot;"/> 
  </image>
  <text x="1798.21" y="141.258" font-size="15">Протечка</text>
  <text x="1554.92" y="494.621" font-size="15">20KPF22<tspan x="1554.92" dy="15">AA017</tspan>
  </text>
  <image x="122.273" y="209.091" width="100" height="25" xlink:href="obj_ButtonH.svg">
    <title>20KPF22EC002</title>
    <rt:dyn type="Label" mode="constant" value="&quot;20KPF22EC002&quot;"/> 
    <rt:event type="OnClick">LoadNew(&quot;20KPF22EC002&quot;)</rt:event>
  </image>
  <image x="1432.88" y="165.152" width="160" height="75" xlink:href="DS_TPTS_VL_spec.svg">
    <title>20KPF22CH001VL0</title>
    <rt:dyn type="KKS" mode="constant" value="&quot;20KPF22CH001VL0&quot;"/> 
    <rt:dyn type="VL_type" mode="constant" value="&quot;1o2&quot;"/> 
    <rt:dyn type="Operate" mode="constant" value="true"/> 
  </image>
  <image x="1170.76" y="943.94" width="60" height="45" xlink:href="DS_TPTS_AVR_sel.svg">
    <title>20KPF22ED003</title>
    <rt:dyn type="KKS" mode="constant" value="&quot;20KPF22ED003&quot;"/> 
    <rt:dyn type="Operate" mode="constant" value="&quot;true&quot;"/> 
    <rt:dyn type="VL_type" mode="constant" value="&quot;1o2&quot;"/> 
  </image>
  <image x="983.939" y="634.818" width="160" height="75" xlink:href="DS_TPTS_VL_spec.svg">
    <title>20KPF22CH002VL0</title>
    <rt:dyn type="KKS" mode="constant" value="&quot;20KPF22CH002VL0&quot;"/> 
    <rt:dyn type="VL_type" mode="constant" value="&quot;1o2&quot;"/> 
    <rt:dyn type="Operate" mode="constant" value="true"/> 
  </image>
  <image x="1548.03" y="840.425" width="60" height="45" xlink:href="DS_TPTS_AVR_sel.svg">
    <title>20KPF22ED001</title>
    <rt:dyn type="KKS" mode="constant" value="&quot;20KPF22ED001&quot;"/> 
    <rt:dyn type="Operate" mode="constant" value="&quot;true&quot;"/> 
    <rt:dyn type="VL_type" mode="constant" value="&quot;1o2&quot;"/> 
  </image>
  <image x="279.849" y="828.788" width="171" height="27" xlink:href="ps_nvo2_multybin_indicator_txt.svg">
    <title>20KPF22EU002</title>
    <rt:dyn type="T_String1" mode="constant" value="&quot;ЗАПОЛНЕНИЕ&quot;"/> 
    <rt:dyn type="T_String2" mode="constant" value="&quot;ОЖИДАНИЕ&quot;"/> 
    <rt:dyn type="T_String3" mode="constant" value="&quot;РАБОТА&quot;"/> 
    <rt:dyn type="T_String4" mode="constant" value="&quot;СБРОС СОРБЕНТА&quot;"/> 
    <rt:dyn type="Suffix1" mode="constant" value="&quot;ZV01&quot;"/> 
    <rt:dyn type="Suffix2" mode="constant" value="&quot;ZV02&quot;"/> 
    <rt:dyn type="Suffix3" mode="constant" value="&quot;ZV03&quot;"/> 
    <rt:dyn type="Suffix4" mode="constant" value="&quot;ZV04&quot;"/> 
    <rt:dyn type="KKS" mode="constant" value="&quot;20KPF22EU002&quot;"/> 
    <rt:dyn type="Suffix5" mode="constant" value="&quot;ZV05&quot;"/> 
    <rt:dyn type="T_String5" mode="constant" value="&quot;ВНЕ РАБОТЫ&quot;"/> 
  </image>
  <image x="1322" y="786.03" width="175" height="25" xlink:href="DS_ana.svg">
    <title>20KPF22CP002</title>
    <rt:dyn type="FKKS" mode="constant" value="&quot;20KPF22CP002&quot;"/> 
    <rt:dyn type="ShowFrame" mode="constant" value="true"/> 
    <rt:dyn type="Color_Readings" mode="constant" value="true"/> 
    <rt:dyn type="X" mode="constant" value="&quot;P&quot;"/> 
    <rt:dyn type="ValueToTheRight" mode="constant" value="false"/> 
  </image>
  <g transform="scale(1.08257 1.08257 211.472 51.3152)">
    <g transform="rotate(44.8757 398.822 253.128)">
      <rect x="135.286" y="162.866" width="63" height="63" rx="0" ry="0" fill="Col_Grey3" stroke="black" stroke-width="1"/> 
      <line x1="528.471" y1="1964.6" x2="590.471" y2="1902.6" stroke="black" stroke-width="1" transform="rotate(90 1232.9 867.666)"/> 
    </g>
    <line x1="231.598" y1="48.5145" x2="319.598" y2="48.5145" stroke="black"/> 
    <polygon points="2354.07,-163.153 2354.07,-144.153 2371.07,-154.153" transform="flipX(848.955) rotate(90 1.4013e-045 1.9569e-039) flipY(519.712) rotate(270 327.167 125.501) rotate(0 1.4013e-045 1.4013e-045) flipX(158.5)"/> 
    <polygon points="-258.796,-163.153 -258.796,-144.153 -241.796,-154.153" transform="flipX(1581.53) flipX(848.955) rotate(90 1.4013e-045 1.9569e-039) flipY(519.712) rotate(270 327.167 125.501) rotate(0 1.4013e-045 1.4013e-045) flipX(158.5)"/> 
  </g>
  <image x="246.168" y="10.767" width="70" height="70" xlink:href="DS_motor.svg" transform="rotate(360 0 0) flipX(0.000512646) rotate(180 0.000244141 -0.000244141)">
    <title>20KPF20AT003</title>
    <rt:dyn type="KKS" mode="constant" value="&quot;20KPF20AT003&quot;"/> 
    <rt:dyn type="DATA_NARY" mode="constant" value="&quot;TPTS&quot;"/> 
    <rt:dyn type="Operate" mode="constant" value="true"/> 
    <rt:dyn type="DeviceType" mode="constant" value="&quot;motor&quot;"/> 
  </image>
  <rect x="1306.62" y="821.288" width="143.939" height="71.2121" rx="0" ry="0" fill="none" stroke="black"/> 
  <rect x="1640.95" y="821.803" width="143.939" height="71.2121" rx="0" ry="0" fill="none" stroke="black"/> 
  <image x="1310.49" y="829.862" width="65" height="25" xlink:href="DS_Reg_degree.svg">
    <title>20KPF22AP001_XQ08</title>
    <rt:dyn type="KKS" mode="constant" value="&quot;20KPF22AP001&quot;"/> 
    <rt:dyn type="SIGNAL" mode="constant" value="&quot;XQ08&quot;"/> 
    <rt:dyn type="ShowFrame" mode="constant" value="&quot;true&quot;"/> 
  </image>
  <image x="1646.65" y="829.862" width="65" height="25" xlink:href="DS_Reg_degree.svg">
    <title>20KPF22AP002_XQ08</title>
    <rt:dyn type="KKS" mode="constant" value="&quot;20KPF22AP002&quot;"/> 
    <rt:dyn type="SIGNAL" mode="constant" value="&quot;XQ08&quot;"/> 
    <rt:dyn type="ShowFrame" mode="constant" value="&quot;true&quot;"/> 
  </image>
  <image x="1376" y="823.5" width="75" height="75" xlink:href="DS_Reg_pump.svg">
    <title>&quot;20KPF22AP001&quot;</title>
    <rt:dyn type="KKS" mode="constant" value="&quot;20KPF22AP001&quot;"/> 
    <rt:dyn type="DATA_NARY" mode="constant" value="&quot;TPTS&quot;"/> 
    <rt:dyn type="Operate" mode="constant" value="true"/> 
    <rt:dyn type="Outlet_dir" mode="constant" value="&quot;BT&quot;"/> 
  </image>
  <image x="1307" y="860.5" width="70" height="30" xlink:href="DS_TPTS_VL_num.svg">
    <title>&quot;20KPF22AP001&quot;</title>
    <rt:dyn type="KKS" mode="constant" value="&quot;20KPF22AP001VL0&quot;"/> 
    <rt:dyn type="Operate" mode="constant" value="true"/> 
  </image>
  <image x="1711" y="823.5" width="75" height="75" xlink:href="DS_Reg_pump.svg">
    <title>&quot;20KPF22AP002&quot;</title>
    <rt:dyn type="KKS" mode="constant" value="&quot;20KPF22AP002&quot;"/> 
    <rt:dyn type="DATA_NARY" mode="constant" value="&quot;TPTS&quot;"/> 
    <rt:dyn type="Operate" mode="constant" value="true"/> 
    <rt:dyn type="Outlet_dir" mode="constant" value="&quot;BT&quot;"/> 
  </image>
  <image x="1644" y="860.5" width="70" height="30" xlink:href="DS_TPTS_VL_num.svg">
    <title>&quot;20KPF22AP002&quot;</title>
    <rt:dyn type="KKS" mode="constant" value="&quot;20KPF22AP002VL1&quot;"/> 
    <rt:dyn type="Operate" mode="constant" value="true"/> 
  </image>
</svg>
