<?xml  version="1.0" encoding="windows-1251"?>
<svg color="Col_BGSand" xmlns="http://www.w3.org/2000/svg" xmlns:rt="http://www.rts.co.at/2001/XMLSchema/RtSvgPL" xmlns:xlink="http://www.w3.org/1999/xlink" xmlns:xsi="http://www.w3.org/2001/XMLSchema-instance" xsi:schemaLocation="http://www.w3.org/2000/svg C:\RTS\RtSvg\XML\SVG.xsd" viewBox="0 0 1914 1000" width="1914" height="1000" id="uptv_13">
  <title>Контролируемые параметры (дискретные сигналы)</title>
  <rt:model modelversion="7.2.0.24" comment="UMod all_svo&#10;LMod uptv_12&#10;RMod axk-1&#10;RASU" revision="3"/> 
  <line x1="174.697" y1="92" x2="896.394" y2="92" stroke="black"/> 
  <line x1="424" y1="41.3333" x2="424" y2="991.848" stroke="black"/> 
  <text x="215.333" y="63.0606" font-size="15">Обозначение точки<tspan x="215.333" dy="15">контроля</tspan>
  </text>
  <text x="494.121" y="70.0757" font-size="15">Наименование точки контроля</text>
  <line x1="174.697" y1="143" x2="894.879" y2="143" stroke="black"/> 
  <rect x="173.667" y="41.1212" width="722.727" height="953" rx="0" ry="0" fill="none" stroke="black" stroke-width="3"/> 
  <line x1="174.697" y1="412" x2="894.879" y2="412" stroke="black"/> 
  <line x1="174.667" y1="360" x2="894.879" y2="360" stroke="black"/> 
  <line x1="174.697" y1="468" x2="894.879" y2="468" stroke="black"/> 
  <line x1="174.697" y1="537" x2="894.879" y2="537" stroke="black"/> 
  <line x1="174.697" y1="608" x2="894.879" y2="608" stroke="black"/> 
  <line x1="174.697" y1="669" x2="894.879" y2="669" stroke="black"/> 
  <line x1="173.697" y1="732" x2="898.424" y2="732" stroke="black"/> 
  <line x1="174.697" y1="797" x2="894.879" y2="797" stroke="black"/> 
  <line x1="173.667" y1="849.5" x2="895.364" y2="849.5" stroke="black"/> 
  <line x1="802.167" y1="42.3333" x2="802.167" y2="993.364" stroke="black"/> 
  <text x="813.061" y="62.5" font-size="15">Значение<tspan x="813.061" dy="15">уставки</tspan>
  </text>
  <text x="960" y="32" fill="black" font-size="26" text-anchor="middle">Контролируемые параметры (дискретные сигналы)</text>
  <text x="220.515" y="123.106" font-size="17">20KPF20CL002</text>
  <line x1="173.212" y1="193.894" x2="896.394" y2="193.894" stroke="black"/> 
  <line x1="175" y1="248" x2="897.727" y2="248" stroke="black"/> 
  <text x="432" y="109.909" font-size="17">Верхний уровень в выпарном<tspan x="432" dy="17">аппарате 20KPF20AT001</tspan>
  </text>
  <text x="432" y="214.727" font-size="17">Верхний уровень в промежуточном<tspan x="432" dy="17">баке 20KPF20BB001</tspan>
  </text>
  <text x="436" y="385.167" font-size="17">Верхний уровень в баке 1 ступени<tspan x="436" dy="17">очистки 20KPF21BB001</tspan>
  </text>
  <line x1="172.334" y1="944.985" x2="897.909" y2="944.985" stroke="black"/> 
  <line x1="172.636" y1="900.894" x2="898.212" y2="900.894" stroke="black"/> 
  <line x1="951.954" y1="91.7729" x2="1673.65" y2="91.7729" stroke="black"/> 
  <line x1="1201.26" y1="41.1062" x2="1201.26" y2="946.97" stroke="black"/> 
  <text x="992.59" y="63.8335" font-size="15">Обозначение точки<tspan x="992.59" dy="15">контроля</tspan>
  </text>
  <text x="1274.42" y="69.0758" font-size="15">Наименование точки контроля</text>
  <line x1="953.954" y1="145.773" x2="1674.14" y2="145.773" stroke="black"/> 
  <rect x="950.924" y="40.8941" width="725.015" height="906.076" rx="0" ry="0" fill="none" stroke="black" stroke-width="3"/> 
  <line x1="952.924" y1="413.773" x2="1673.14" y2="413.773" stroke="black"/> 
  <line x1="951.954" y1="517.773" x2="1672.14" y2="517.773" stroke="black"/> 
  <line x1="951.954" y1="567.773" x2="1672.14" y2="567.773" stroke="black"/> 
  <line x1="951.954" y1="619.773" x2="1672.14" y2="619.773" stroke="black"/> 
  <line x1="951.954" y1="684.773" x2="1672.14" y2="684.773" stroke="black"/> 
  <line x1="950.954" y1="744.773" x2="1675.68" y2="744.773" stroke="black"/> 
  <line x1="951.954" y1="804.773" x2="1672.14" y2="804.773" stroke="black"/> 
  <line x1="951.954" y1="871.773" x2="1673.65" y2="871.773" stroke="black"/> 
  <line x1="1579.42" y1="42.1062" x2="1579.42" y2="948.485" stroke="black"/> 
  <text x="1590.32" y="62.2729" font-size="15">Значение<tspan x="1590.32" dy="15">уставки</tspan>
  </text>
  <line x1="950.469" y1="250.667" x2="1673.65" y2="250.667" stroke="black"/> 
  <image x="1614.11" y="895.682" width="25" height="25" xlink:href="bin_indicator.svg">
    <title>20KPF34CR001_XG01</title>
    <rt:dyn type="PointID" mode="constant" value="&quot;20KPF34CR001_XG01&quot;"/> 
  </image>
  <line x1="950.939" y1="304.833" x2="1674.12" y2="304.833" stroke="black"/> 
  <line x1="951.94" y1="363.439" x2="1675.12" y2="363.439" stroke="black"/> 
  <text x="1209.27" y="640.818" font-size="17">Давление в трубопроводе после<tspan x="1209.27" dy="17">воздуходувки 20KPF430KN003</tspan>
  </text>
  <text x="1209.27" y="710.485" font-size="17">Удельная активность жидкости в<tspan x="1209.27" dy="17">контрольном баке 20KPF24BB001</tspan>
  </text>
  <text x="433" y="489.167" font-size="17">Верхний уровень в баке приема и<tspan x="433" dy="17">обработки 2 ступени очистки</tspan>
<tspan x="433" dy="17">20KPF22BB001</tspan>
  </text>
  <text x="1209.27" y="581.394" font-size="17">Давление в трубопроводе после<tspan x="1209.27" dy="17">насоса-дозатора 20KPF35AP001</tspan>
<tspan x="1209.27" dy="17">ниже нормы</tspan>
  </text>
  <text x="432" y="632.833" font-size="17">Протечка в блоке окисления 2 ступени<tspan x="432" dy="17">очистки 20KPF23AT001</tspan>
  </text>
  <text x="432" y="760.682" font-size="17">Верхний уровень в контрольном баке<tspan x="432" dy="17">20KPF24BB001</tspan>
  </text>
  <text x="1209.27" y="477.849" font-size="17">Верхний уровень в мембранном<tspan x="1209.27" dy="17">фильтре 2 ступени очистки</tspan>
<tspan x="1209.27" dy="17">20KPF28AT001</tspan>
  </text>
  <text x="1209.27" y="895.394" font-size="17">Измерение мощности дозы на<tspan x="1209.27" dy="17">поверхности фильтрата-гарантера</tspan>
<tspan x="1209.27" dy="17">20KPF34AT001</tspan>
  </text>
  <text x="1005.64" y="598.5" font-size="17">20KPF35CP001</text>
  <text x="1005.64" y="720.227" font-size="17">20KPF24CR801</text>
  <text x="1005.64" y="913.651" font-size="17">20KPF34CR001</text>
  <text x="433" y="163.167" font-size="17">Верхний уровень в выпарном<tspan x="433" dy="17">аппарате 20KPF20AT002</tspan>
  </text>
  <text x="220.515" y="173.167" font-size="17">20KPF20CL004</text>
  <line x1="174" y1="306.5" x2="896.727" y2="306.5" stroke="black"/> 
  <text x="436" y="276.167" font-size="17">Верхний уровень в промежуточном<tspan x="436" dy="17">баке 20KPF20BB002</tspan>
  </text>
  <text x="440" y="330.167" font-size="17">Верхний уровень в промежуточном<tspan x="440" dy="17">баке 20KPF20BB003</tspan>
  </text>
  <text x="220.515" y="226.167" font-size="17">20KPF20CL005</text>
  <text x="438" y="437.167" font-size="17">Верхний уровень в баке 1 ступени<tspan x="438" dy="17">очистки 20KPF21BB002</tspan>
  </text>
  <text x="432" y="561.167" font-size="17">Верхний уровень в баке приема и<tspan x="432" dy="17">обработки 2 ступени очистки</tspan>
<tspan x="432" dy="17">20KPF22BB002</tspan>
  </text>
  <text x="436" y="697.167" font-size="17">Протечка в блоке окисления 2 ступени<tspan x="436" dy="17">очистки 20KPF23AT002</tspan>
  </text>
  <text x="438" y="817.167" font-size="17">Верхний уровень в контрольном баке<tspan x="438" dy="17">20KPF24BB002</tspan>
  </text>
  <text x="435" y="871.167" font-size="17">Верхний уровень в контрольном баке<tspan x="435" dy="17">20KPF24BB003</tspan>
  </text>
  <text x="437" y="917.167" font-size="17">Верхний уровень в баке сорбента<tspan x="437" dy="17">20KPF25BB001</tspan>
  </text>
  <text x="443" y="966.167" font-size="17">Верхний уровень в баке сорбента<tspan x="443" dy="17">20KPF25BB002</tspan>
  </text>
  <text x="1213" y="115.167" font-size="17">Верхний уровень в баке перекиси<tspan x="1213" dy="17">водорода 20KPF25BB003</tspan>
  </text>
  <text x="1214" y="169.167" font-size="17">Протечка в блоке окисления 1 ступени<tspan x="1214" dy="17">очистки 20KPF26AT001</tspan>
  </text>
  <text x="1212" y="221.167" font-size="17">Протечка в блоке окисления 1 ступени<tspan x="1212" dy="17">очистки 20KPF26AT002</tspan>
  </text>
  <text x="1214" y="265.167" font-size="17">Нижний уровень в мембранном фильтре<tspan x="1214" dy="17">1 ступени очистки 20KPF27AT001</tspan>
<tspan x="1214" dy="17">( канал 1)</tspan>
  </text>
  <text x="1209" y="321.167" font-size="17">Нижний уровень в мембранном фильтре<tspan x="1209" dy="17">1 ступени очистки 20KPF27AT001</tspan>
<tspan x="1209" dy="17">( канал 2)</tspan>
  </text>
  <text x="1209" y="375.167" font-size="17">Нижний уровень в мембранном фильтре<tspan x="1209" dy="17">1 ступени очистки 20KPF27AT002</tspan>
<tspan x="1209" dy="17">( канал 1)</tspan>
  </text>
  <text x="1213" y="426.167" font-size="17">Нижний уровень в мембранном фильтре<tspan x="1213" dy="17">1 ступени очистки 20KPF27AT002</tspan>
<tspan x="1213" dy="17">( канал 2)</tspan>
  </text>
  <text x="1213" y="531.167" font-size="17">Верхний уровень в мембранном<tspan x="1213" dy="17">фильтре 2 ступени очистки</tspan>
<tspan x="1213" dy="17">20KPF28AT002</tspan>
  </text>
  <text x="1211" y="769.167" font-size="17">Удельная активность жидкости в<tspan x="1211" dy="17">контрольном баке 20KPF24BB002</tspan>
  </text>
  <text x="1215" y="835.167" font-size="17">Удельная активность жидкости в<tspan x="1215" dy="17">контрольном баке 20KPF24BB003</tspan>
  </text>
  <text x="220.515" y="282.167" font-size="17">20KPF20CL008</text>
  <text x="220.515" y="338.167" font-size="17">20KPF20CL015</text>
  <text x="220.515" y="391.167" font-size="17">20KPF21CL002</text>
  <text x="220.515" y="446.167" font-size="17">20KPF21CL004</text>
  <text x="220.515" y="508.167" font-size="17">20KPF22CL002</text>
  <text x="220.515" y="577.167" font-size="17">20KPF22CL004</text>
  <text x="220.515" y="644.167" font-size="17">20KPF23CL001</text>
  <text x="220.515" y="705.167" font-size="17">20KPF23CL002</text>
  <text x="220.515" y="769.167" font-size="17">20KPF24CL002</text>
  <text x="220.515" y="829.167" font-size="17">20KPF24CL004</text>
  <text x="220.515" y="880.167" font-size="17">20KPF24CL006</text>
  <text x="220.515" y="928.167" font-size="17">20KPF25CL002</text>
  <text x="220.515" y="974.167" font-size="17">20KPF25CL004</text>
  <text x="1005.64" y="123.167" font-size="17">20KPF25CL006</text>
  <text x="1005.64" y="177.318" font-size="17">20KPN26CL001</text>
  <text x="1005.64" y="229.349" font-size="17">20KPF26CL002</text>
  <text x="1005.64" y="283.349" font-size="17">20KPF27CL001</text>
  <text x="1005.64" y="338.409" font-size="17">20KPF27CL002</text>
  <text x="1005.64" y="393.47" font-size="17">20KPF27CL003</text>
  <text x="1005.64" y="443.47" font-size="17">20KPF27CL004</text>
  <text x="1005.64" y="494.985" font-size="17">20KPF28CL002</text>
  <text x="1005.64" y="548.015" font-size="17">20KPF28CL004</text>
  <text x="1005.64" y="656.621" font-size="17">20KPF35CP002</text>
  <text x="1005.64" y="779.833" font-size="17">20KPF24CR802</text>
  <text x="1005.64" y="843.47" font-size="17">20KPF24CR803</text>
  <text x="16" y="32" font-size="20" font-weight="bold">UPTV_13</text>
  <text x="820.803" y="122.167" font-size="17">1,78 м</text>
  <text x="820.803" y="173.167" font-size="17">1,78 м</text>
  <text x="815.5" y="226.167" font-size="17">1,355 м</text>
  <text x="815.5" y="283.167" font-size="17">1,355 м</text>
  <text x="815.5" y="338.167" font-size="17">1,355 м</text>
  <text x="826.106" y="390.167" font-size="17">1,7 м</text>
  <text x="826.106" y="445.167" font-size="17">1,7 м</text>
  <text x="826.106" y="508.167" font-size="17">1,7 м</text>
  <text x="826.106" y="574.167" font-size="17">1,7 м</text>
  <text x="820.803" y="643.167" font-size="17">0,05 м</text>
  <text x="820.803" y="705.167" font-size="17">0,05 м</text>
  <text x="826.106" y="769.167" font-size="17">1,7 м</text>
  <text x="826.106" y="828.167" font-size="17">1,7 м</text>
  <text x="826.106" y="879.167" font-size="17">1,7 м</text>
  <text x="820.803" y="927.167" font-size="17">0,98 м</text>
  <text x="820.803" y="975.167" font-size="17">0,98 м</text>
  <text x="1599.33" y="124.167" font-size="17">0,98 м</text>
  <line x1="952" y1="198.5" x2="1675.18" y2="198.5" stroke="black"/> 
  <line x1="951" y1="465.5" x2="1674.18" y2="465.5" stroke="black"/> 
  <text x="1599.33" y="177.167" font-size="17">0,05 м</text>
  <text x="1599.33" y="230.167" font-size="17">0,05 м</text>
  <text x="1599.33" y="281.167" font-size="17">0,03 м</text>
  <text x="1599.33" y="338.167" font-size="17">0,03 м</text>
  <text x="1599.33" y="393.167" font-size="17">0,03 м</text>
  <text x="1599.33" y="443.167" font-size="17">0,03 м</text>
  <text x="1599.33" y="496.167" font-size="17">0,08 м</text>
  <text x="1599.33" y="549.167" font-size="17">0,08 м</text>
  <text x="1591" y="599.167" font-size="17">400 кПа</text>
  <text x="1593.27" y="656.167" font-size="17">1,2 кПа</text>
  <text x="1592.52" y="719.167" font-size="17">37 Бк/л</text>
  <text x="1592.52" y="780.167" font-size="17">37 Бк/л</text>
  <text x="1592.52" y="842.167" font-size="17">37 Бк/л</text>
</svg>
